P3
1600 1
255
222 236 255
222 236 255
222 236 255
222 236 255
222 236 255
222 236 255
222 236 255
222 236 255
222 236 255
222 236 255
222 236 255
222 236 255
222 236 255
222 236 255
222 236 255
222 236 255
222 236 255
222 236 255
222 236 255
222 236 255
222 236 255
222 236 255
222 236 255
222 236 255
222 236 255
222 236 255
222 236 255
222 236 255
222 236 255
222 236 255
222 236 255
222 236 255
222 236 255
222 236 255
222 236 255
222 236 255
222 236 255
222 236 255
222 236 255
222 236 255
222 236 255
222 236 255
222 236 255
222 236 255
222 236 255
222 236 255
222 236 255
222 236 255
222 236 255
222 236 255
222 236 255
222 236 255
222 236 255
222 236 255
222 236 255
222 236 255
222 236 255
222 236 255
222 236 255
222 236 255
222 236 255
222 236 255
222 236 255
222 236 255
222 236 255
222 236 255
222 236 255
222 236 255
222 236 255
222 236 255
222 236 255
222 236 255
222 236 255
222 236 255
222 236 255
222 236 255
222 236 255
222 236 255
222 236 255
222 236 255
222 236 255
222 236 255
222 236 255
222 236 255
222 236 255
222 236 255
222 236 255
222 236 255
222 236 255
222 236 255
222 236 255
222 236 255
222 236 255
222 236 255
222 236 255
222 236 255
222 236 255
222 236 255
222 236 255
222 236 255
222 236 255
222 236 255
222 236 255
222 236 255
222 236 255
222 236 255
222 236 255
222 236 255
222 236 255
222 236 255
222 236 255
222 236 255
222 236 255
222 236 255
222 236 255
222 236 255
222 236 255
222 236 255
222 236 255
222 236 255
222 236 255
222 236 255
222 236 255
222 236 255
222 236 255
222 236 255
222 236 255
222 236 255
222 236 255
222 236 255
222 236 255
222 236 255
222 236 255
222 236 255
222 236 255
222 236 255
222 236 255
222 236 255
222 236 255
222 236 255
222 236 255
222 236 255
222 236 255
222 236 255
222 236 255
222 236 255
222 236 255
222 236 255
222 236 255
222 236 255
222 236 255
222 236 255
222 236 255
222 236 255
222 236 255
222 236 255
222 236 255
222 236 255
222 236 255
222 236 255
222 236 255
222 236 255
222 236 255
222 236 255
222 236 255
222 236 255
222 236 255
222 236 255
222 236 255
222 236 255
222 236 255
222 236 255
222 236 255
222 236 255
222 236 255
222 236 255
222 236 255
222 236 255
222 236 255
222 236 255
222 236 255
222 236 255
222 236 255
222 236 255
222 236 255
222 236 255
222 236 255
222 236 255
222 236 255
222 236 255
222 236 255
222 236 255
222 236 255
222 236 255
222 236 255
222 236 255
222 236 255
222 236 255
222 236 255
222 236 255
222 236 255
222 236 255
222 236 255
222 236 255
222 236 255
222 236 255
222 236 255
222 236 255
222 236 255
222 236 255
222 236 255
222 236 255
222 236 255
222 236 255
222 236 255
222 236 255
222 236 255
222 236 255
222 236 255
222 236 255
222 236 255
222 236 255
222 236 255
222 236 255
222 236 255
222 236 255
222 236 255
222 236 255
222 236 255
222 236 255
222 236 255
222 236 255
222 236 255
222 236 255
222 236 255
222 236 255
222 236 255
222 236 255
222 236 255
222 236 255
222 236 255
222 236 255
222 236 255
222 236 255
222 236 255
222 236 255
222 236 255
222 236 255
222 236 255
222 236 255
222 236 255
222 236 255
222 236 255
222 236 255
222 236 255
222 236 255
222 236 255
222 236 255
222 236 255
222 236 255
222 236 255
222 236 255
222 236 255
222 236 255
222 236 255
222 236 255
222 236 255
222 236 255
222 236 255
222 236 255
222 236 255
222 236 255
222 236 255
222 236 255
222 236 255
222 236 255
222 236 255
222 236 255
222 236 255
222 236 255
222 236 255
222 236 255
222 236 255
222 236 255
222 236 255
222 236 255
222 236 255
222 236 255
222 236 255
222 236 255
222 236 255
222 236 255
222 236 255
222 236 255
222 236 255
222 236 255
222 236 255
222 236 255
222 236 255
222 236 255
222 236 255
222 236 255
222 236 255
222 236 255
222 236 255
222 236 255
222 236 255
222 236 255
222 236 255
222 236 255
222 236 255
222 236 255
222 236 255
222 236 255
222 236 255
222 236 255
222 236 255
222 236 255
222 236 255
222 236 255
222 236 255
222 236 255
222 236 255
222 236 255
222 236 255
222 236 255
222 236 255
222 236 255
222 236 255
222 236 255
222 236 255
222 236 255
222 236 255
222 236 255
222 236 255
222 236 255
222 236 255
222 236 255
222 236 255
222 236 255
222 236 255
222 236 255
222 236 255
222 236 255
222 236 255
222 236 255
222 236 255
222 236 255
222 236 255
222 236 255
222 236 255
222 236 255
222 236 255
222 236 255
222 236 255
222 236 255
222 236 255
222 236 255
222 236 255
222 236 255
222 236 255
222 236 255
222 236 255
222 236 255
222 236 255
222 236 255
222 236 255
222 236 255
222 236 255
222 236 255
222 236 255
222 236 255
222 236 255
222 236 255
222 236 255
222 236 255
222 236 255
222 236 255
222 236 255
222 236 255
222 236 255
222 236 255
222 236 255
222 236 255
222 236 255
222 236 255
222 236 255
222 236 255
222 236 255
222 236 255
222 236 255
222 236 255
222 236 255
222 236 255
222 236 255
222 236 255
222 236 255
222 236 255
222 236 255
222 236 255
222 236 255
222 236 255
222 236 255
222 236 255
222 236 255
222 236 255
222 236 255
222 236 255
222 236 255
222 236 255
222 236 255
222 236 255
222 236 255
222 236 255
222 236 255
222 236 255
222 236 255
222 236 255
222 236 255
222 236 255
222 236 255
222 236 255
222 236 255
222 236 255
222 236 255
222 236 255
222 236 255
222 236 255
222 236 255
222 236 255
222 236 255
222 236 255
222 236 255
222 236 255
222 236 255
222 236 255
222 236 255
222 236 255
222 236 255
222 236 255
222 236 255
222 236 255
222 236 255
222 236 255
222 236 255
222 236 255
222 236 255
222 236 255
222 236 255
222 236 255
222 236 255
222 236 255
222 236 255
222 236 255
222 236 255
222 236 255
222 236 255
222 236 255
222 236 255
222 236 255
222 236 255
222 236 255
222 236 255
222 236 255
222 236 255
222 236 255
222 236 255
222 236 255
222 236 255
222 236 255
222 236 255
222 236 255
222 236 255
222 236 255
222 236 255
222 236 255
222 236 255
222 236 255
222 236 255
222 236 255
222 236 255
222 236 255
222 236 255
222 236 255
222 236 255
222 236 255
222 236 255
222 236 255
222 236 255
222 236 255
222 236 255
222 236 255
222 236 255
222 236 255
222 236 255
222 236 255
222 236 255
222 236 255
222 236 255
222 236 255
222 236 255
222 236 255
222 236 255
222 236 255
222 236 255
222 236 255
222 236 255
222 236 255
222 236 255
222 236 255
222 236 255
222 236 255
222 236 255
222 236 255
222 236 255
222 236 255
222 236 255
222 236 255
222 236 255
222 236 255
222 236 255
222 236 255
222 236 255
222 236 255
222 236 255
222 236 255
222 236 255
222 236 255
222 236 255
222 236 255
222 236 255
222 236 255
222 236 255
222 236 255
222 236 255
222 236 255
222 236 255
222 236 255
222 236 255
222 236 255
222 236 255
222 236 255
222 236 255
222 236 255
222 236 255
222 236 255
222 236 255
222 236 255
222 236 255
222 236 255
222 236 255
222 236 255
222 236 255
222 236 255
222 236 255
222 236 255
222 236 255
222 236 255
222 236 255
221 235 254
218 232 251
214 226 244
209 219 236
205 215 231
200 208 223
187 191 202
180 182 192
181 183 192
162 158 162
161 156 160
156 149 150
146 134 131
141 129 124
135 119 112
122 97 78
120 95 77
122 96 77
121 97 79
121 96 78
123 98 79
120 94 76
118 94 76
119 95 77
123 98 79
125 99 79
119 95 77
120 96 78
123 97 79
122 97 78
121 96 77
120 95 77
122 97 78
121 97 78
122 97 78
119 95 76
118 94 76
120 95 77
123 98 79
120 96 78
122 96 77
122 96 78
121 97 78
119 95 78
119 95 77
120 95 77
120 96 77
121 95 77
121 96 77
122 97 78
121 97 79
118 93 76
122 97 79
122 97 79
121 96 78
120 96 78
120 95 77
120 95 77
121 97 79
118 94 76
118 94 76
121 97 79
121 96 78
123 97 78
121 96 78
120 95 77
122 97 79
120 96 79
120 96 78
121 96 78
121 96 78
119 95 77
121 96 78
123 98 79
119 95 78
123 97 79
120 95 77
121 96 78
120 96 78
120 95 78
117 93 76
121 97 79
122 97 78
120 96 77
120 96 78
119 95 77
122 97 78
120 95 77
124 99 80
120 95 77
118 94 77
117 94 77
120 95 77
122 97 79
122 98 79
122 96 78
123 98 79
121 95 77
118 94 76
121 96 78
120 96 78
122 97 79
121 97 78
121 96 78
117 94 77
120 95 77
121 96 78
122 98 80
123 97 78
119 95 77
123 98 79
119 95 76
120 96 78
122 97 78
121 96 78
118 94 76
120 95 77
119 95 77
120 95 78
126 98 79
123 97 79
117 93 76
122 96 78
125 103 88
132 117 110
145 135 134
137 126 125
148 146 152
149 149 158
158 166 181
163 175 191
169 183 202
170 187 207
156 172 189
156 174 190
164 182 202
158 177 196
151 170 187
143 163 180
140 159 176
144 164 182
146 166 185
142 162 180
137 156 174
141 161 179
138 159 177
140 161 179
138 158 177
138 157 178
140 158 180
135 154 176
135 152 175
136 153 176
139 157 182
140 158 181
137 153 176
142 161 184
140 158 181
141 160 184
141 159 183
144 163 188
137 155 179
139 158 183
141 160 185
134 152 176
142 161 185
138 156 180
134 153 178
139 158 183
133 151 174
139 157 182
142 161 186
137 156 182
136 155 181
136 155 180
134 153 178
141 160 186
138 158 184
135 153 178
136 155 180
137 157 182
134 152 176
135 154 179
137 156 182
135 153 178
133 151 175
137 155 181
137 156 181
137 155 179
135 153 176
132 150 175
129 147 171
135 154 179
137 155 179
136 154 178
131 148 170
132 149 175
139 157 182
141 161 187
132 150 175
132 150 174
133 150 174
138 157 182
136 154 179
130 148 172
132 151 175
134 152 176
142 161 188
133 151 175
139 158 183
132 150 175
132 150 174
130 148 173
132 149 172
134 153 178
133 150 174
135 154 178
132 150 175
130 147 170
133 151 176
137 156 181
136 154 178
128 145 168
135 154 178
134 152 176
135 154 179
134 151 175
136 155 181
131 148 171
131 149 173
131 149 173
132 150 175
135 153 177
133 151 173
131 149 173
133 151 175
135 154 178
133 151 176
134 153 178
133 152 176
131 149 173
133 151 174
133 151 175
129 146 169
131 150 175
126 142 165
134 153 177
129 146 169
134 153 178
132 150 174
134 153 178
133 152 177
134 154 179
132 151 178
133 151 176
132 150 173
129 146 170
133 151 176
132 149 171
130 147 169
135 152 177
130 147 171
134 152 176
137 156 181
138 156 181
130 147 171
126 143 165
132 149 173
133 151 175
132 145 165
139 157 182
134 150 174
130 148 170
134 150 172
137 154 178
132 149 171
136 155 179
134 150 172
136 152 176
131 146 169
131 148 171
130 140 160
132 148 171
132 148 170
136 152 175
134 150 173
134 151 173
131 145 167
133 149 172
129 144 166
132 148 170
136 150 172
132 148 172
135 151 173
134 152 176
134 151 173
137 151 174
136 152 174
135 150 174
133 147 169
140 159 184
135 148 169
131 146 167
129 143 166
134 151 174
135 154 179
138 154 178
132 150 174
138 157 182
138 156 180
140 157 182
131 149 171
138 156 180
135 153 178
137 155 178
135 153 177
138 156 181
138 155 179
138 157 181
141 160 186
136 154 178
145 164 188
142 161 185
135 153 177
144 162 187
141 160 184
139 158 181
137 154 177
142 161 185
142 161 186
137 154 179
142 160 184
139 157 179
145 164 188
147 166 191
145 163 187
144 163 187
149 167 191
140 159 182
145 164 187
149 168 191
151 170 194
155 175 199
155 174 199
147 165 187
157 174 198
168 186 210
164 180 203
173 186 204
172 178 187
177 179 182
180 179 180
180 180 181
179 179 181
178 179 181
177 178 181
177 178 181
176 178 181
176 177 181
175 177 181
175 177 181
174 177 181
174 176 181
173 176 181
173 176 181
172 176 181
172 176 181
172 175 181
171 175 181
171 175 181
170 175 181
170 175 181
170 175 181
170 174 181
169 174 181
169 174 181
169 174 181
168 174 181
168 174 181
168 174 181
167 173 181
167 173 181
167 173 181
167 173 181
166 173 181
166 173 181
166 173 181
166 173 181
166 172 181
165 172 181
165 172 181
165 172 181
165 172 181
164 172 181
164 172 181
164 172 181
164 172 181
164 172 181
163 171 181
163 171 181
163 171 181
163 171 181
163 171 181
163 171 181
162 171 181
162 171 181
162 171 181
162 171 181
162 171 181
162 170 181
161 170 181
161 170 181
161 170 181
161 170 181
161 170 181
161 170 181
161 170 181
160 170 181
160 170 181
160 170 181
160 170 181
160 170 181
160 170 181
160 170 181
160 170 181
159 169 181
159 169 181
159 169 181
159 169 181
159 169 181
159 169 181
159 169 181
159 169 181
159 169 181
158 169 181
158 169 181
158 169 181
158 169 181
158 169 181
158 169 181
158 169 181
158 169 181
158 169 181
158 169 181
158 169 181
158 169 181
158 169 181
157 169 181
157 168 181
157 168 181
157 168 181
157 168 181
157 168 181
157 168 181
157 168 181
157 168 181
157 168 181
157 168 181
157 168 181
157 168 181
157 168 181
157 168 181
157 168 181
157 168 181
157 168 181
157 168 181
157 168 181
156 168 181
156 168 181
156 168 181
156 168 181
156 168 181
156 168 181
156 168 181
156 168 181
156 168 181
156 168 181
156 168 181
156 168 181
156 168 181
156 168 181
156 168 181
156 168 181
156 168 181
156 168 181
156 168 181
156 168 181
156 168 181
156 168 181
156 168 181
156 168 181
156 168 181
156 168 181
156 168 181
156 168 181
156 168 181
156 168 181
156 168 181
156 168 181
156 168 181
156 168 181
156 168 181
156 168 181
156 168 181
156 168 181
157 168 181
157 168 181
157 168 181
157 168 181
157 168 181
157 168 181
157 168 181
157 168 181
157 168 181
157 168 181
157 168 181
157 168 181
157 168 181
157 168 181
157 168 181
157 168 181
157 168 181
157 168 181
157 168 181
157 168 181
158 169 181
158 169 181
158 169 181
158 169 181
158 169 181
158 169 181
158 169 181
158 169 181
158 169 181
158 169 181
158 169 181
158 169 181
159 169 181
159 169 181
159 169 181
159 169 181
159 169 181
159 169 181
159 169 181
159 169 181
159 169 181
159 169 181
160 170 181
160 170 181
160 170 181
160 170 181
160 170 181
160 170 181
160 170 181
160 170 181
161 170 181
161 170 181
161 170 181
161 170 181
161 170 181
161 170 181
161 170 181
162 170 181
162 171 181
162 171 181
162 171 181
162 171 181
162 171 181
162 171 181
163 171 181
163 171 181
163 171 181
163 171 181
163 171 181
163 171 181
164 172 181
164 172 181
164 172 181
164 172 181
165 172 181
165 172 181
165 172 181
165 172 181
165 172 181
166 172 181
166 173 181
166 173 181
166 173 181
167 173 181
167 173 181
167 173 181
167 173 181
168 173 181
168 174 181
168 174 181
168 174 181
169 174 181
169 174 181
169 174 181
170 174 181
170 175 181
170 175 181
171 175 181
171 175 181
171 175 181
172 175 181
172 176 181
172 176 181
173 176 181
173 176 181
174 176 181
174 177 181
175 177 181
175 177 181
175 177 181
176 178 181
177 178 181
177 178 181
178 179 181
178 179 181
179 179 181
181 180 181
187 188 190
198 203 211
208 217 230
219 232 250
222 236 255
222 236 255
222 236 255
222 236 255
222 236 255
222 236 255
222 236 255
222 236 255
222 236 255
222 236 255
222 236 255
222 236 255
222 236 255
222 236 255
222 236 255
222 236 255
222 236 255
222 236 255
222 236 255
222 236 255
222 236 255
222 236 255
222 236 255
222 236 255
222 236 255
222 236 255
222 236 255
222 236 255
222 236 255
222 236 255
222 236 255
222 236 255
222 236 255
222 236 255
222 236 255
222 236 255
222 236 255
222 236 255
222 236 255
222 236 255
222 236 255
222 236 255
222 236 255
222 236 255
222 236 255
222 236 255
222 236 255
222 236 255
222 236 255
222 236 255
222 236 255
222 236 255
222 236 255
222 236 255
222 236 255
222 236 255
222 236 255
222 236 255
222 236 255
222 236 255
222 236 255
222 236 255
222 236 255
222 236 255
222 236 255
222 236 255
222 236 255
222 236 255
222 236 255
222 236 255
222 236 255
222 236 255
222 236 255
222 236 255
222 236 255
222 236 255
222 236 255
222 236 255
222 236 255
222 236 255
222 236 255
222 236 255
222 236 255
222 236 255
222 236 255
222 236 255
222 236 255
222 236 255
222 236 255
222 236 255
222 236 255
222 236 255
222 236 255
222 236 255
222 236 255
222 236 255
222 236 255
222 236 255
222 236 255
222 236 255
222 236 255
222 236 255
222 236 255
222 236 255
222 236 255
222 236 255
222 236 255
222 236 255
222 236 255
222 236 255
222 236 255
222 236 255
222 236 255
222 236 255
222 236 255
222 236 255
222 236 255
222 236 255
222 236 255
222 236 255
222 236 255
222 236 255
222 236 255
222 236 255
222 236 255
222 236 255
222 236 255
222 236 255
222 236 255
222 236 255
222 236 255
222 236 255
222 236 255
222 236 255
222 236 255
222 236 255
222 236 255
222 236 255
222 236 255
222 236 255
222 236 255
222 236 255
222 236 255
222 236 255
222 236 255
222 236 255
222 236 255
222 236 255
222 236 255
222 236 255
222 236 255
222 236 255
222 236 255
222 236 255
222 236 255
222 236 255
222 236 255
222 236 255
222 236 255
222 236 255
222 236 255
222 236 255
222 236 255
222 236 255
222 236 255
222 236 255
222 236 255
222 236 255
222 236 255
222 236 255
222 236 255
222 236 255
222 236 255
222 236 255
222 236 255
222 236 255
222 236 255
222 236 255
222 236 255
222 236 255
222 236 255
222 236 255
222 236 255
222 236 255
222 236 255
222 236 255
222 236 255
222 236 255
222 236 255
222 236 255
222 236 255
222 236 255
222 236 255
222 236 255
222 236 255
222 236 255
222 236 255
222 236 255
222 236 255
222 236 255
222 236 255
222 236 255
222 236 255
222 236 255
222 236 255
222 236 255
222 236 255
222 236 255
222 236 255
222 236 255
222 236 255
222 236 255
222 236 255
222 236 255
222 236 255
222 236 255
222 236 255
222 236 255
222 236 255
222 236 255
222 236 255
222 236 255
222 236 255
222 236 255
222 236 255
222 236 255
222 236 255
222 236 255
222 236 255
222 236 255
222 236 255
222 236 255
222 236 255
222 236 255
222 236 255
222 236 255
222 236 255
222 236 255
222 236 255
222 236 255
222 236 255
222 236 255
222 236 255
222 236 255
222 236 255
222 236 255
222 236 255
222 236 255
222 236 255
222 236 255
222 236 255
222 236 255
222 236 255
222 236 255
222 236 255
222 236 255
222 236 255
222 236 255
222 236 255
222 236 255
222 236 255
222 236 255
222 236 255
222 236 255
222 236 255
222 236 255
222 236 255
222 236 255
222 236 255
222 236 255
222 236 255
222 236 255
222 236 255
222 236 255
222 236 255
222 236 255
222 236 255
222 236 255
222 236 255
222 236 255
222 236 255
222 236 255
222 236 255
222 236 255
222 236 255
222 236 255
222 236 255
222 236 255
222 236 255
222 236 255
222 236 255
222 236 255
222 236 255
222 236 255
222 236 255
222 236 255
222 236 255
222 236 255
222 236 255
222 236 255
222 236 255
222 236 255
222 236 255
222 236 255
222 236 255
222 236 255
222 236 255
222 236 255
222 236 255
222 236 255
222 236 255
222 236 255
222 236 255
222 236 255
222 236 255
222 236 255
222 236 255
222 236 255
222 236 255
222 236 255
222 236 255
222 236 255
222 236 255
222 236 255
222 236 255
222 236 255
222 236 255
222 236 255
222 236 255
222 236 255
222 236 255
222 236 255
222 236 255
222 236 255
222 236 255
222 236 255
222 236 255
222 236 255
222 236 255
222 236 255
222 236 255
222 236 255
222 236 255
222 236 255
222 236 255
222 236 255
222 236 255
222 236 255
222 236 255
222 236 255
222 236 255
222 236 255
222 236 255
222 236 255
222 236 255
222 236 255
222 236 255
222 236 255
222 236 255
222 236 255
222 236 255
222 236 255
222 236 255
222 236 255
222 236 255
222 236 255
222 236 255
222 236 255
222 236 255
222 236 255
222 236 255
222 236 255
222 236 255
222 236 255
222 236 255
222 236 255
222 236 255
222 236 255
222 236 255
222 236 255
222 236 255
222 236 255
222 236 255
222 236 255
222 236 255
222 236 255
222 236 255
222 236 255
222 236 255
222 236 255
222 236 255
222 236 255
222 236 255
222 236 255
222 236 255
222 236 255
222 236 255
222 236 255
222 236 255
222 236 255
222 236 255
222 236 255
222 236 255
222 236 255
222 236 255
222 236 255
222 236 255
222 236 255
222 236 255
222 236 255
222 236 255
222 236 255
222 236 255
222 236 255
222 236 255
