P3
1600 1
255
222 236 255
222 236 255
222 236 255
222 236 255
222 236 255
222 236 255
222 236 255
222 236 255
222 236 255
222 236 255
222 236 255
222 236 255
222 236 255
222 236 255
222 236 255
222 236 255
222 236 255
222 236 255
222 236 255
222 236 255
222 236 255
222 236 255
222 236 255
222 236 255
222 236 255
222 236 255
222 236 255
222 236 255
222 236 255
222 236 255
222 236 255
222 236 255
222 236 255
222 236 255
222 236 255
222 236 255
222 236 255
222 236 255
222 236 255
222 236 255
222 236 255
222 236 255
222 236 255
222 236 255
222 236 255
222 236 255
222 236 255
222 236 255
222 236 255
222 236 255
222 236 255
222 236 255
222 236 255
222 236 255
222 236 255
222 236 255
222 236 255
222 236 255
222 236 255
222 236 255
222 236 255
222 236 255
222 236 255
222 236 255
222 236 255
222 236 255
222 236 255
222 236 255
222 236 255
222 236 255
222 236 255
222 236 255
222 236 255
222 236 255
222 236 255
222 236 255
222 236 255
222 236 255
222 236 255
222 236 255
222 236 255
222 236 255
222 236 255
222 236 255
222 236 255
222 236 255
222 236 255
222 236 255
222 236 255
222 236 255
222 236 255
222 236 255
222 236 255
222 236 255
222 236 255
222 236 255
222 236 255
222 236 255
222 236 255
222 236 255
222 236 255
222 236 255
222 236 255
222 236 255
222 236 255
222 236 255
222 236 255
222 236 255
222 236 255
222 236 255
222 236 255
222 236 255
222 236 255
222 236 255
222 236 255
222 236 255
222 236 255
222 236 255
222 236 255
222 236 255
222 236 255
222 236 255
222 236 255
222 236 255
222 236 255
222 236 255
222 236 255
222 236 255
222 236 255
222 236 255
222 236 255
222 236 255
222 236 255
222 236 255
222 236 255
222 236 255
222 236 255
222 236 255
222 236 255
222 236 255
222 236 255
222 236 255
222 236 255
222 236 255
222 236 255
222 236 255
222 236 255
222 236 255
222 236 255
222 236 255
222 236 255
222 236 255
222 236 255
222 236 255
222 236 255
222 236 255
222 236 255
222 236 255
222 236 255
222 236 255
222 236 255
222 236 255
222 236 255
222 236 255
222 236 255
222 236 255
222 236 255
222 236 255
222 236 255
222 236 255
222 236 255
222 236 255
222 236 255
222 236 255
222 236 255
222 236 255
222 236 255
222 236 255
222 236 255
222 236 255
222 236 255
222 236 255
222 236 255
222 236 255
222 236 255
222 236 255
222 236 255
222 236 255
222 236 255
222 236 255
222 236 255
222 236 255
222 236 255
222 236 255
222 236 255
222 236 255
222 236 255
222 236 255
222 236 255
222 236 255
222 236 255
222 236 255
222 236 255
222 236 255
222 236 255
222 236 255
222 236 255
222 236 255
222 236 255
222 236 255
222 236 255
222 236 255
222 236 255
222 236 255
222 236 255
222 236 255
222 236 255
222 236 255
222 236 255
222 236 255
222 236 255
222 236 255
222 236 255
222 236 255
222 236 255
222 236 255
222 236 255
222 236 255
222 236 255
222 236 255
222 236 255
222 236 255
222 236 255
222 236 255
222 236 255
222 236 255
222 236 255
222 236 255
222 236 255
222 236 255
222 236 255
222 236 255
222 236 255
222 236 255
222 236 255
222 236 255
222 236 255
222 236 255
222 236 255
222 236 255
222 236 255
222 236 255
222 236 255
222 236 255
222 236 255
222 236 255
222 236 255
222 236 255
222 236 255
222 236 255
222 236 255
222 236 255
222 236 255
222 236 255
222 236 255
222 236 255
222 236 255
222 236 255
222 236 255
222 236 255
222 236 255
222 236 255
222 236 255
222 236 255
222 236 255
222 236 255
222 236 255
222 236 255
222 236 255
222 236 255
222 236 255
222 236 255
222 236 255
222 236 255
222 236 255
222 236 255
222 236 255
222 236 255
222 236 255
222 236 255
222 236 255
222 236 255
222 236 255
222 236 255
222 236 255
222 236 255
222 236 255
222 236 255
222 236 255
222 236 255
222 236 255
222 236 255
222 236 255
222 236 255
222 236 255
222 236 255
222 236 255
222 236 255
222 236 255
222 236 255
222 236 255
222 236 255
222 236 255
222 236 255
222 236 255
222 236 255
222 236 255
222 236 255
222 236 255
222 236 255
222 236 255
222 236 255
222 236 255
222 236 255
222 236 255
222 236 255
222 236 255
222 236 255
222 236 255
222 236 255
222 236 255
222 236 255
222 236 255
222 236 255
222 236 255
222 236 255
222 236 255
222 236 255
222 236 255
222 236 255
222 236 255
222 236 255
222 236 255
222 236 255
222 236 255
222 236 255
222 236 255
222 236 255
222 236 255
222 236 255
222 236 255
222 236 255
222 236 255
222 236 255
222 236 255
222 236 255
222 236 255
222 236 255
222 236 255
222 236 255
222 236 255
222 236 255
222 236 255
222 236 255
222 236 255
222 236 255
222 236 255
222 236 255
222 236 255
222 236 255
222 236 255
222 236 255
222 236 255
222 236 255
222 236 255
222 236 255
222 236 255
222 236 255
222 236 255
222 236 255
222 236 255
222 236 255
222 236 255
222 236 255
222 236 255
222 236 255
222 236 255
222 236 255
222 236 255
222 236 255
222 236 255
222 236 255
222 236 255
222 236 255
222 236 255
222 236 255
222 236 255
222 236 255
222 236 255
222 236 255
222 236 255
222 236 255
222 236 255
222 236 255
222 236 255
222 236 255
222 236 255
222 236 255
222 236 255
222 236 255
222 236 255
222 236 255
222 236 255
222 236 255
222 236 255
222 236 255
222 236 255
222 236 255
222 236 255
222 236 255
222 236 255
222 236 255
222 236 255
222 236 255
222 236 255
222 236 255
222 236 255
222 236 255
222 236 255
222 236 255
222 236 255
222 236 255
222 236 255
222 236 255
222 236 255
222 236 255
222 236 255
222 236 255
222 236 255
222 236 255
222 236 255
222 236 255
222 236 255
222 236 255
222 236 255
222 236 255
222 236 255
222 236 255
222 236 255
222 236 255
222 236 255
222 236 255
222 236 255
222 236 255
222 236 255
222 236 255
222 236 255
222 236 255
222 236 255
222 236 255
222 236 255
222 236 255
222 236 255
222 236 255
222 236 255
222 236 255
222 236 255
222 236 255
222 236 255
222 236 255
222 236 255
222 236 255
222 236 255
222 236 255
222 236 255
222 236 255
222 236 255
222 236 255
222 236 255
222 236 255
222 236 255
222 236 255
222 236 255
222 236 255
222 236 255
222 236 255
222 236 255
222 236 255
222 236 255
222 236 255
222 236 255
222 236 255
222 236 255
222 236 255
222 236 255
222 236 255
222 236 255
222 236 255
222 236 255
222 236 255
222 236 255
222 236 255
222 236 255
222 236 255
222 236 255
222 236 255
222 236 255
222 236 255
222 236 255
222 236 255
222 236 255
222 236 255
222 236 255
222 236 255
222 236 255
222 236 255
222 236 255
222 236 255
222 236 255
222 236 255
222 236 255
222 236 255
222 236 255
222 236 255
222 236 255
222 236 255
222 236 255
222 236 255
222 236 255
222 236 255
222 236 255
222 236 255
222 236 255
222 236 255
222 236 255
222 236 255
222 236 255
222 236 255
222 236 255
222 236 255
222 236 255
222 236 255
222 236 255
222 236 255
222 236 255
222 236 255
222 236 255
222 236 255
222 236 255
222 236 255
222 236 255
222 236 255
222 236 255
222 236 255
222 236 255
218 232 251
216 229 247
215 227 245
206 216 232
202 211 226
188 192 203
186 190 201
177 177 185
166 164 169
154 146 146
149 138 136
139 122 115
141 126 120
124 101 85
120 96 77
120 95 77
122 96 78
119 94 76
120 95 77
118 95 77
122 96 78
122 98 79
119 95 76
119 94 77
120 95 77
124 98 79
123 98 79
117 94 76
121 96 77
121 96 78
122 95 77
117 92 75
120 96 78
120 96 77
120 96 77
122 97 79
120 95 77
120 96 77
118 94 76
120 95 77
120 95 77
121 95 77
122 97 79
122 96 78
117 94 76
118 94 76
120 95 77
122 97 79
123 97 78
118 94 76
119 95 77
122 96 78
119 95 77
119 95 77
123 98 79
118 94 76
122 97 78
120 96 78
121 95 78
118 93 75
120 95 77
120 95 77
121 96 78
120 95 77
119 94 77
120 95 77
121 96 78
118 94 77
121 96 78
123 97 78
121 96 78
119 95 77
120 96 77
124 98 79
120 96 78
120 95 77
120 95 77
118 94 77
116 92 75
117 94 76
123 97 78
123 97 79
121 96 77
117 94 76
119 95 77
122 97 78
121 95 77
121 96 78
121 96 78
121 96 78
117 93 76
119 95 77
121 96 77
122 97 79
118 94 77
123 97 79
121 96 78
120 96 78
121 96 77
119 95 77
119 95 77
121 96 78
122 96 78
118 94 77
117 94 76
120 95 78
123 98 79
120 95 76
120 95 77
120 96 78
116 92 74
120 96 78
120 95 77
117 93 76
120 95 77
115 92 75
119 95 77
119 95 77
122 96 78
122 97 79
118 95 78
128 109 98
136 122 117
147 142 145
151 148 154
145 142 148
157 162 173
172 181 196
161 173 190
172 187 206
161 179 196
158 177 194
161 179 196
166 187 204
155 177 190
155 176 190
156 176 188
165 188 203
160 181 195
151 171 185
148 169 184
137 158 174
144 165 182
136 157 173
132 152 169
138 159 178
134 152 171
137 156 177
135 154 176
134 152 174
137 155 177
144 163 188
139 157 181
136 154 177
136 154 179
141 159 184
138 157 181
136 154 178
140 160 185
139 158 182
140 158 182
139 157 183
139 157 183
136 154 179
137 155 178
137 156 181
139 158 182
138 157 182
138 155 179
134 153 177
135 152 177
138 157 182
136 154 178
136 155 182
136 155 180
137 156 181
141 161 187
136 154 178
137 156 180
136 154 179
136 155 180
135 153 178
134 152 177
140 159 186
131 148 172
135 152 177
136 152 176
131 149 173
133 151 174
136 153 178
132 151 175
132 150 174
136 154 179
131 148 171
132 150 173
134 152 176
141 160 186
134 152 176
139 158 184
128 145 167
132 149 172
133 152 176
134 153 177
133 151 174
130 148 173
134 153 177
135 152 177
134 153 178
132 149 173
134 152 176
134 153 177
135 153 178
132 149 172
130 149 173
130 147 169
133 151 176
133 151 175
132 150 174
130 148 171
131 150 174
132 150 175
127 145 169
132 151 176
131 149 172
135 153 177
133 150 176
135 154 178
129 146 169
129 147 170
132 149 173
136 155 180
133 152 178
133 150 174
130 147 171
130 148 171
130 147 170
129 147 171
134 152 178
132 149 173
133 152 177
134 152 176
132 150 174
133 150 173
136 155 180
131 148 173
128 145 168
129 146 170
127 144 167
129 147 171
131 150 175
132 150 175
135 155 180
134 153 178
134 153 177
132 149 174
132 150 175
125 140 162
132 150 173
129 146 169
134 151 176
132 150 174
133 151 175
133 150 173
136 154 179
130 148 171
126 143 166
132 150 175
127 144 168
134 152 176
135 154 179
133 150 175
133 152 177
129 145 167
133 151 175
132 150 174
130 146 170
133 152 177
133 153 177
131 149 173
133 152 176
130 147 169
127 144 168
131 149 172
130 146 169
132 149 172
133 149 172
137 154 178
130 148 171
129 145 166
132 148 171
131 148 170
132 149 172
134 152 176
134 153 178
132 149 172
132 148 172
134 151 175
133 151 175
129 143 165
134 151 174
128 142 163
130 148 171
130 147 170
131 148 172
137 155 181
131 149 172
132 149 173
137 154 179
130 148 172
134 152 175
136 152 175
132 149 173
134 152 176
134 152 175
131 149 173
136 154 178
131 149 172
135 154 179
134 152 177
139 158 183
134 152 175
135 154 178
141 160 185
131 149 172
139 157 183
136 154 178
135 154 178
134 152 176
134 151 174
133 151 174
135 152 175
138 156 180
137 155 178
133 151 174
141 160 185
132 150 172
139 156 179
134 152 175
137 154 177
140 158 182
137 156 180
138 157 180
141 160 184
149 166 189
146 161 181
166 172 181
177 178 179
180 180 181
180 179 181
179 179 181
178 179 181
177 178 181
177 178 181
176 178 181
176 177 181
175 177 181
174 177 181
174 177 181
173 176 181
173 176 181
172 176 181
172 176 181
172 176 181
171 175 181
171 175 181
171 175 181
170 175 181
170 175 181
170 174 181
169 174 181
169 174 181
169 174 181
168 174 181
168 174 181
168 174 181
168 173 181
167 173 181
167 173 181
167 173 181
166 173 181
166 173 181
166 173 181
166 173 181
165 172 181
165 172 181
165 172 181
165 172 181
164 172 181
164 172 181
164 172 181
164 172 181
164 172 181
163 171 181
163 171 181
163 171 181
163 171 181
163 171 181
163 171 181
162 171 181
162 171 181
162 171 181
162 171 181
162 171 181
162 170 181
161 170 181
161 170 181
161 170 181
161 170 181
161 170 181
161 170 181
160 170 181
160 170 181
160 170 181
160 170 181
160 170 181
160 170 181
160 170 181
159 169 181
159 169 181
159 169 181
159 169 181
159 169 181
159 169 181
159 169 181
159 169 181
158 169 181
158 169 181
158 169 181
158 169 181
158 169 181
158 169 181
158 169 181
158 169 181
158 169 181
157 169 181
157 168 181
157 168 181
157 168 181
157 168 181
157 168 181
157 168 181
157 168 181
157 168 181
157 168 181
157 168 181
157 168 181
156 168 181
156 168 181
156 168 181
156 168 181
156 168 181
156 168 181
156 168 181
156 168 181
156 168 181
156 168 181
156 168 181
156 168 181
156 168 181
156 168 181
156 168 181
156 168 181
156 168 181
156 168 181
155 168 181
155 168 181
155 168 181
155 167 181
155 167 181
155 167 181
155 167 181
155 167 181
155 167 181
155 167 181
155 167 181
155 167 181
155 167 181
155 167 181
155 167 181
155 167 181
155 167 181
155 167 181
155 167 181
155 167 181
155 167 181
155 167 181
155 167 181
155 167 181
155 167 181
155 167 181
155 167 181
155 167 181
155 167 181
155 167 181
155 167 181
155 167 181
155 167 181
155 167 181
155 167 181
155 167 181
155 167 181
155 167 181
155 167 181
155 167 181
155 167 181
155 167 181
155 167 181
155 167 181
155 167 181
155 167 181
155 167 181
155 167 181
155 167 181
155 168 181
155 168 181
155 168 181
156 168 181
156 168 181
156 168 181
156 168 181
156 168 181
156 168 181
156 168 181
156 168 181
156 168 181
156 168 181
156 168 181
156 168 181
156 168 181
156 168 181
156 168 181
156 168 181
156 168 181
157 168 181
157 168 181
157 168 181
157 168 181
157 168 181
157 168 181
157 168 181
157 168 181
157 168 181
157 168 181
157 168 181
157 168 181
157 169 181
158 169 181
158 169 181
158 169 181
158 169 181
158 169 181
158 169 181
158 169 181
158 169 181
158 169 181
158 169 181
159 169 181
159 169 181
159 169 181
159 169 181
159 169 181
159 169 181
159 169 181
159 169 181
160 170 181
160 170 181
160 170 181
160 170 181
160 170 181
160 170 181
160 170 181
161 170 181
161 170 181
161 170 181
161 170 181
161 170 181
161 170 181
162 171 181
162 171 181
162 171 181
162 171 181
162 171 181
162 171 181
163 171 181
163 171 181
163 171 181
163 171 181
163 171 181
164 171 181
164 172 181
164 172 181
164 172 181
164 172 181
165 172 181
165 172 181
165 172 181
165 172 181
166 172 181
166 173 181
166 173 181
166 173 181
167 173 181
167 173 181
167 173 181
167 173 181
168 173 181
168 174 181
168 174 181
168 174 181
169 174 181
169 174 181
169 174 181
170 174 181
170 175 181
170 175 181
171 175 181
171 175 181
171 175 181
172 176 181
172 176 181
173 176 181
173 176 181
174 176 181
174 177 181
174 177 181
175 177 181
175 177 181
176 178 181
176 178 181
177 178 181
178 179 181
179 179 181
179 179 181
180 180 181
186 187 189
194 198 204
209 219 233
217 229 246
221 235 254
222 236 255
222 236 255
222 236 255
222 236 255
222 236 255
222 236 255
222 236 255
222 236 255
222 236 255
222 236 255
222 236 255
222 236 255
222 236 255
222 236 255
222 236 255
222 236 255
222 236 255
222 236 255
222 236 255
222 236 255
222 236 255
222 236 255
222 236 255
222 236 255
222 236 255
222 236 255
222 236 255
222 236 255
222 236 255
222 236 255
222 236 255
222 236 255
222 236 255
222 236 255
222 236 255
222 236 255
222 236 255
222 236 255
222 236 255
222 236 255
222 236 255
222 236 255
222 236 255
222 236 255
222 236 255
222 236 255
222 236 255
222 236 255
222 236 255
222 236 255
222 236 255
222 236 255
222 236 255
222 236 255
222 236 255
222 236 255
222 236 255
222 236 255
222 236 255
222 236 255
222 236 255
222 236 255
222 236 255
222 236 255
222 236 255
222 236 255
222 236 255
222 236 255
222 236 255
222 236 255
222 236 255
222 236 255
222 236 255
222 236 255
222 236 255
222 236 255
222 236 255
222 236 255
222 236 255
222 236 255
222 236 255
222 236 255
222 236 255
222 236 255
222 236 255
222 236 255
222 236 255
222 236 255
222 236 255
222 236 255
222 236 255
222 236 255
222 236 255
222 236 255
222 236 255
222 236 255
222 236 255
222 236 255
222 236 255
222 236 255
222 236 255
222 236 255
222 236 255
222 236 255
222 236 255
222 236 255
222 236 255
222 236 255
222 236 255
222 236 255
222 236 255
222 236 255
222 236 255
222 236 255
222 236 255
222 236 255
222 236 255
222 236 255
222 236 255
222 236 255
222 236 255
222 236 255
222 236 255
222 236 255
222 236 255
222 236 255
222 236 255
222 236 255
222 236 255
222 236 255
222 236 255
222 236 255
222 236 255
222 236 255
222 236 255
222 236 255
222 236 255
222 236 255
222 236 255
222 236 255
222 236 255
222 236 255
222 236 255
222 236 255
222 236 255
222 236 255
222 236 255
222 236 255
222 236 255
222 236 255
222 236 255
222 236 255
222 236 255
222 236 255
222 236 255
222 236 255
222 236 255
222 236 255
222 236 255
222 236 255
222 236 255
222 236 255
222 236 255
222 236 255
222 236 255
222 236 255
222 236 255
222 236 255
222 236 255
222 236 255
222 236 255
222 236 255
222 236 255
222 236 255
222 236 255
222 236 255
222 236 255
222 236 255
222 236 255
222 236 255
222 236 255
222 236 255
222 236 255
222 236 255
222 236 255
222 236 255
222 236 255
222 236 255
222 236 255
222 236 255
222 236 255
222 236 255
222 236 255
222 236 255
222 236 255
222 236 255
222 236 255
222 236 255
222 236 255
222 236 255
222 236 255
222 236 255
222 236 255
222 236 255
222 236 255
222 236 255
222 236 255
222 236 255
222 236 255
222 236 255
222 236 255
222 236 255
222 236 255
222 236 255
222 236 255
222 236 255
222 236 255
222 236 255
222 236 255
222 236 255
222 236 255
222 236 255
222 236 255
222 236 255
222 236 255
222 236 255
222 236 255
222 236 255
222 236 255
222 236 255
222 236 255
222 236 255
222 236 255
222 236 255
222 236 255
222 236 255
222 236 255
222 236 255
222 236 255
222 236 255
222 236 255
222 236 255
222 236 255
222 236 255
222 236 255
222 236 255
222 236 255
222 236 255
222 236 255
222 236 255
222 236 255
222 236 255
222 236 255
222 236 255
222 236 255
222 236 255
222 236 255
222 236 255
222 236 255
222 236 255
222 236 255
222 236 255
222 236 255
222 236 255
222 236 255
222 236 255
222 236 255
222 236 255
222 236 255
222 236 255
222 236 255
222 236 255
222 236 255
222 236 255
222 236 255
222 236 255
222 236 255
222 236 255
222 236 255
222 236 255
222 236 255
222 236 255
222 236 255
222 236 255
222 236 255
222 236 255
222 236 255
222 236 255
222 236 255
222 236 255
222 236 255
222 236 255
222 236 255
222 236 255
222 236 255
222 236 255
222 236 255
222 236 255
222 236 255
222 236 255
222 236 255
222 236 255
222 236 255
222 236 255
222 236 255
222 236 255
222 236 255
222 236 255
222 236 255
222 236 255
222 236 255
222 236 255
222 236 255
222 236 255
222 236 255
222 236 255
222 236 255
222 236 255
222 236 255
222 236 255
222 236 255
222 236 255
222 236 255
222 236 255
222 236 255
222 236 255
222 236 255
222 236 255
222 236 255
222 236 255
222 236 255
222 236 255
222 236 255
222 236 255
222 236 255
222 236 255
222 236 255
222 236 255
222 236 255
222 236 255
222 236 255
222 236 255
222 236 255
222 236 255
222 236 255
222 236 255
222 236 255
222 236 255
222 236 255
222 236 255
222 236 255
222 236 255
222 236 255
222 236 255
222 236 255
222 236 255
222 236 255
222 236 255
222 236 255
222 236 255
222 236 255
222 236 255
222 236 255
222 236 255
222 236 255
222 236 255
222 236 255
222 236 255
222 236 255
222 236 255
222 236 255
222 236 255
222 236 255
222 236 255
222 236 255
222 236 255
222 236 255
222 236 255
222 236 255
222 236 255
222 236 255
222 236 255
222 236 255
222 236 255
222 236 255
222 236 255
222 236 255
222 236 255
222 236 255
222 236 255
222 236 255
222 236 255
222 236 255
222 236 255
222 236 255
222 236 255
222 236 255
222 236 255
222 236 255
222 236 255
222 236 255
222 236 255
222 236 255
222 236 255
222 236 255
222 236 255
