P3
1600 1
255
222 236 255
222 236 255
222 236 255
222 236 255
222 236 255
222 236 255
222 236 255
222 236 255
222 236 255
222 236 255
222 236 255
222 236 255
222 236 255
222 236 255
222 236 255
222 236 255
222 236 255
222 236 255
222 236 255
222 236 255
222 236 255
222 236 255
222 236 255
222 236 255
222 236 255
222 236 255
222 236 255
222 236 255
222 236 255
222 236 255
222 236 255
222 236 255
222 236 255
222 236 255
222 236 255
222 236 255
222 236 255
222 236 255
222 236 255
222 236 255
222 236 255
222 236 255
222 236 255
222 236 255
222 236 255
222 236 255
222 236 255
222 236 255
222 236 255
222 236 255
222 236 255
222 236 255
222 236 255
222 236 255
222 236 255
222 236 255
222 236 255
222 236 255
222 236 255
222 236 255
222 236 255
222 236 255
222 236 255
222 236 255
222 236 255
222 236 255
222 236 255
222 236 255
222 236 255
222 236 255
222 236 255
222 236 255
222 236 255
222 236 255
222 236 255
222 236 255
222 236 255
222 236 255
222 236 255
222 236 255
222 236 255
222 236 255
222 236 255
222 236 255
222 236 255
222 236 255
222 236 255
222 236 255
222 236 255
222 236 255
222 236 255
222 236 255
222 236 255
222 236 255
222 236 255
222 236 255
222 236 255
222 236 255
222 236 255
222 236 255
222 236 255
222 236 255
222 236 255
222 236 255
222 236 255
222 236 255
222 236 255
222 236 255
222 236 255
222 236 255
222 236 255
222 236 255
222 236 255
222 236 255
222 236 255
222 236 255
222 236 255
222 236 255
222 236 255
222 236 255
222 236 255
222 236 255
222 236 255
222 236 255
222 236 255
222 236 255
222 236 255
222 236 255
222 236 255
222 236 255
222 236 255
222 236 255
222 236 255
222 236 255
222 236 255
222 236 255
222 236 255
222 236 255
222 236 255
222 236 255
222 236 255
222 236 255
222 236 255
222 236 255
222 236 255
222 236 255
222 236 255
222 236 255
222 236 255
222 236 255
222 236 255
222 236 255
222 236 255
222 236 255
222 236 255
222 236 255
222 236 255
222 236 255
222 236 255
222 236 255
222 236 255
222 236 255
222 236 255
222 236 255
222 236 255
222 236 255
222 236 255
222 236 255
222 236 255
222 236 255
222 236 255
222 236 255
222 236 255
222 236 255
222 236 255
222 236 255
222 236 255
222 236 255
222 236 255
222 236 255
222 236 255
222 236 255
222 236 255
222 236 255
222 236 255
222 236 255
222 236 255
222 236 255
222 236 255
222 236 255
222 236 255
222 236 255
222 236 255
222 236 255
222 236 255
222 236 255
222 236 255
222 236 255
222 236 255
222 236 255
222 236 255
222 236 255
222 236 255
222 236 255
222 236 255
222 236 255
222 236 255
222 236 255
222 236 255
222 236 255
222 236 255
222 236 255
222 236 255
222 236 255
222 236 255
222 236 255
222 236 255
222 236 255
222 236 255
222 236 255
222 236 255
222 236 255
222 236 255
222 236 255
222 236 255
222 236 255
222 236 255
222 236 255
222 236 255
222 236 255
222 236 255
222 236 255
222 236 255
222 236 255
222 236 255
222 236 255
222 236 255
222 236 255
222 236 255
222 236 255
222 236 255
222 236 255
222 236 255
222 236 255
222 236 255
222 236 255
222 236 255
222 236 255
222 236 255
222 236 255
222 236 255
222 236 255
222 236 255
222 236 255
222 236 255
222 236 255
222 236 255
222 236 255
222 236 255
222 236 255
222 236 255
222 236 255
222 236 255
222 236 255
222 236 255
222 236 255
222 236 255
222 236 255
222 236 255
222 236 255
222 236 255
222 236 255
222 236 255
222 236 255
222 236 255
222 236 255
222 236 255
222 236 255
222 236 255
222 236 255
222 236 255
222 236 255
222 236 255
222 236 255
222 236 255
222 236 255
222 236 255
222 236 255
222 236 255
222 236 255
222 236 255
222 236 255
222 236 255
222 236 255
222 236 255
222 236 255
222 236 255
222 236 255
222 236 255
222 236 255
222 236 255
222 236 255
222 236 255
222 236 255
222 236 255
222 236 255
222 236 255
222 236 255
222 236 255
222 236 255
222 236 255
222 236 255
222 236 255
222 236 255
222 236 255
222 236 255
222 236 255
222 236 255
222 236 255
222 236 255
222 236 255
222 236 255
222 236 255
222 236 255
222 236 255
222 236 255
222 236 255
222 236 255
222 236 255
222 236 255
222 236 255
222 236 255
222 236 255
222 236 255
222 236 255
222 236 255
222 236 255
222 236 255
222 236 255
222 236 255
222 236 255
222 236 255
222 236 255
222 236 255
222 236 255
222 236 255
222 236 255
222 236 255
222 236 255
222 236 255
222 236 255
222 236 255
222 236 255
222 236 255
222 236 255
222 236 255
222 236 255
222 236 255
222 236 255
222 236 255
222 236 255
222 236 255
222 236 255
222 236 255
222 236 255
222 236 255
222 236 255
222 236 255
222 236 255
222 236 255
222 236 255
222 236 255
222 236 255
222 236 255
222 236 255
222 236 255
222 236 255
222 236 255
222 236 255
222 236 255
222 236 255
222 236 255
222 236 255
222 236 255
222 236 255
222 236 255
222 236 255
222 236 255
222 236 255
222 236 255
222 236 255
222 236 255
222 236 255
222 236 255
222 236 255
222 236 255
222 236 255
222 236 255
222 236 255
222 236 255
222 236 255
222 236 255
222 236 255
222 236 255
222 236 255
222 236 255
222 236 255
222 236 255
222 236 255
222 236 255
222 236 255
222 236 255
222 236 255
222 236 255
222 236 255
222 236 255
222 236 255
222 236 255
222 236 255
222 236 255
222 236 255
222 236 255
222 236 255
222 236 255
222 236 255
222 236 255
222 236 255
222 236 255
222 236 255
222 236 255
222 236 255
222 236 255
222 236 255
222 236 255
222 236 255
222 236 255
222 236 255
222 236 255
222 236 255
222 236 255
222 236 255
222 236 255
222 236 255
222 236 255
222 236 255
222 236 255
222 236 255
222 236 255
222 236 255
222 236 255
222 236 255
222 236 255
222 236 255
222 236 255
222 236 255
222 236 255
222 236 255
222 236 255
222 236 255
222 236 255
222 236 255
222 236 255
222 236 255
222 236 255
222 236 255
222 236 255
222 236 255
222 236 255
222 236 255
222 236 255
222 236 255
222 236 255
222 236 255
222 236 255
222 236 255
222 236 255
222 236 255
222 236 255
222 236 255
222 236 255
222 236 255
222 236 255
222 236 255
222 236 255
222 236 255
222 236 255
222 236 255
222 236 255
222 236 255
222 236 255
222 236 255
222 236 255
222 236 255
222 236 255
222 236 255
222 236 255
222 236 255
222 236 255
222 236 255
222 236 255
222 236 255
222 236 255
222 236 255
222 236 255
222 236 255
222 236 255
222 236 255
222 236 255
222 236 255
222 236 255
222 236 255
222 236 255
222 236 255
222 236 255
222 236 255
222 236 255
222 236 255
222 236 255
222 236 255
222 236 255
222 236 255
222 236 255
222 236 255
222 236 255
222 236 255
222 236 255
222 236 255
222 236 255
222 236 255
222 236 255
222 236 255
222 236 255
222 236 255
222 236 255
222 236 255
222 236 255
222 236 255
222 236 255
222 236 255
222 236 255
222 236 255
222 236 255
222 236 255
222 236 255
222 236 255
222 236 255
222 236 255
222 236 255
222 236 255
222 236 255
222 236 255
219 232 251
215 227 245
210 221 239
205 215 231
196 203 216
197 204 218
190 194 205
182 186 196
169 168 174
163 158 162
149 141 141
141 127 122
138 122 115
123 101 85
126 99 80
121 96 78
119 95 77
121 96 78
121 96 77
121 97 78
121 96 77
120 94 77
122 97 78
123 98 79
120 95 77
118 94 76
120 95 77
123 97 78
123 97 78
118 94 76
119 95 77
119 95 77
122 96 77
118 93 76
121 95 77
119 94 77
121 96 77
121 95 77
117 93 76
120 94 76
118 94 76
121 96 78
120 94 76
123 97 79
121 96 79
119 95 77
120 95 77
120 95 77
120 95 76
122 96 78
120 95 77
118 94 76
121 96 78
120 94 76
121 96 78
122 97 78
119 95 77
119 95 77
122 97 78
118 93 75
118 94 76
120 95 77
119 94 76
121 96 78
121 95 77
121 96 78
117 92 75
120 95 77
120 96 78
122 97 78
121 96 78
122 96 78
120 95 76
119 95 77
120 95 77
121 96 78
122 96 77
121 96 77
118 93 76
118 95 78
118 93 76
116 93 75
122 97 79
121 96 78
118 93 76
118 94 76
119 94 77
123 97 78
121 95 77
123 97 79
119 95 76
117 94 76
117 93 76
119 94 76
121 96 78
120 95 77
121 96 77
121 96 77
120 95 77
120 95 77
120 95 77
119 94 77
121 96 78
121 96 78
121 97 79
117 93 76
120 95 78
121 96 78
121 96 78
119 94 76
119 94 77
117 93 75
119 95 77
120 96 77
120 95 77
119 95 77
120 95 77
118 94 76
120 96 78
119 95 77
123 101 87
128 113 106
136 123 118
154 153 161
155 157 167
156 160 171
163 173 188
160 173 189
172 188 208
173 192 212
175 194 213
168 187 206
174 195 212
174 196 212
175 196 212
175 198 212
174 198 210
177 198 211
173 195 209
161 180 195
175 194 211
151 170 187
148 166 183
143 160 177
143 161 180
135 153 172
132 149 170
144 163 188
129 147 167
139 157 180
141 161 185
137 155 180
140 158 184
139 157 181
141 159 186
137 156 181
140 158 183
132 151 174
138 158 182
141 160 185
137 156 180
139 158 184
135 154 179
139 157 181
136 154 178
139 159 184
131 149 174
138 156 181
137 155 179
133 151 175
136 155 180
137 156 181
133 151 175
136 155 180
138 156 181
135 153 177
136 154 180
137 156 183
134 153 178
138 156 182
139 159 184
134 152 176
136 154 179
139 158 183
134 152 175
131 148 172
135 154 179
138 157 182
133 151 175
134 151 175
133 151 175
132 151 174
135 153 177
133 152 177
132 149 173
136 155 179
132 150 174
133 152 177
131 147 169
135 153 178
137 155 179
137 155 181
133 152 178
131 149 173
127 143 165
132 150 174
137 156 180
131 149 174
132 150 174
131 149 172
134 152 177
132 150 175
132 151 174
133 150 174
131 148 171
131 148 173
131 150 175
130 148 172
131 149 173
134 152 177
134 153 178
129 147 170
135 154 179
133 152 177
129 144 168
130 147 172
132 151 175
133 150 174
132 149 173
136 155 180
128 146 170
127 144 168
131 149 174
130 147 170
131 149 175
131 149 172
129 145 168
129 146 170
129 146 168
131 148 171
130 147 172
131 148 172
133 152 177
130 146 169
132 149 173
132 149 173
129 148 174
130 147 171
133 150 176
128 145 168
128 144 167
124 140 162
133 150 174
130 149 172
131 150 174
135 154 180
131 148 173
128 145 168
132 150 175
128 145 169
129 146 169
132 149 172
131 148 173
128 145 168
134 152 177
133 150 173
135 154 179
128 145 169
127 143 166
132 151 176
128 145 168
135 153 178
136 156 182
130 148 174
131 149 172
128 145 168
134 152 177
133 151 175
132 151 176
133 151 176
136 154 178
132 150 174
130 148 171
132 149 173
131 148 172
126 141 162
129 146 168
129 146 169
131 149 171
130 147 170
130 146 170
133 150 173
130 148 172
133 151 174
133 150 174
130 147 172
130 148 172
133 150 175
135 153 177
132 150 173
134 152 175
134 151 174
128 145 167
125 143 166
131 148 172
134 152 177
135 153 178
134 151 175
131 148 171
137 156 181
130 147 171
132 149 172
132 150 174
131 148 172
132 149 172
133 151 175
131 148 170
135 153 178
131 148 171
136 154 178
132 149 172
137 156 181
134 153 176
138 156 181
134 151 175
131 149 171
130 147 170
133 151 174
136 155 180
131 147 170
132 150 174
128 146 168
136 154 177
139 157 181
133 150 172
131 148 170
132 149 172
130 148 171
133 152 174
135 153 177
135 152 176
139 156 179
151 162 178
165 169 176
178 178 180
180 180 181
179 179 181
179 179 181
178 179 181
177 178 181
176 178 181
176 178 181
175 177 181
175 177 181
174 177 181
174 177 181
173 176 181
173 176 181
172 176 181
172 176 181
172 175 181
171 175 181
171 175 181
171 175 181
170 175 181
170 175 181
170 174 181
169 174 181
169 174 181
169 174 181
168 174 181
168 174 181
168 173 181
167 173 181
167 173 181
167 173 181
167 173 181
166 173 181
166 173 181
166 173 181
166 172 181
165 172 181
165 172 181
165 172 181
165 172 181
164 172 181
164 172 181
164 172 181
164 172 181
163 171 181
163 171 181
163 171 181
163 171 181
163 171 181
162 171 181
162 171 181
162 171 181
162 171 181
162 171 181
162 170 181
161 170 181
161 170 181
161 170 181
161 170 181
161 170 181
161 170 181
160 170 181
160 170 181
160 170 181
160 170 181
160 170 181
160 170 181
160 170 181
159 169 181
159 169 181
159 169 181
159 169 181
159 169 181
159 169 181
159 169 181
158 169 181
158 169 181
158 169 181
158 169 181
158 169 181
158 169 181
158 169 181
158 169 181
158 169 181
157 168 181
157 168 181
157 168 181
157 168 181
157 168 181
157 168 181
157 168 181
157 168 181
157 168 181
157 168 181
156 168 181
156 168 181
156 168 181
156 168 181
156 168 181
156 168 181
156 168 181
156 168 181
156 168 181
156 168 181
156 168 181
156 168 181
156 168 181
155 168 181
155 168 181
155 167 181
155 167 181
155 167 181
155 167 181
155 167 181
155 167 181
155 167 181
155 167 181
155 167 181
155 167 181
155 167 181
155 167 181
155 167 181
155 167 181
155 167 181
155 167 181
155 167 181
155 167 181
154 167 181
154 167 181
154 167 181
154 167 181
154 167 181
154 167 181
154 167 181
154 167 181
154 167 181
154 167 181
154 167 181
154 167 181
154 167 181
154 167 181
154 167 181
154 167 181
154 167 181
154 167 181
154 167 181
154 167 181
154 167 181
154 167 181
154 167 181
154 167 181
154 167 181
154 167 181
154 167 181
154 167 181
154 167 181
154 167 181
154 167 181
154 167 181
154 167 181
154 167 181
154 167 181
154 167 181
154 167 181
154 167 181
154 167 181
154 167 181
154 167 181
154 167 181
154 167 181
155 167 181
155 167 181
155 167 181
155 167 181
155 167 181
155 167 181
155 167 181
155 167 181
155 167 181
155 167 181
155 167 181
155 167 181
155 167 181
155 167 181
155 167 181
155 167 181
155 167 181
155 167 181
155 167 181
155 168 181
155 168 181
156 168 181
156 168 181
156 168 181
156 168 181
156 168 181
156 168 181
156 168 181
156 168 181
156 168 181
156 168 181
156 168 181
156 168 181
156 168 181
157 168 181
157 168 181
157 168 181
157 168 181
157 168 181
157 168 181
157 168 181
157 168 181
157 168 181
157 168 181
158 169 181
158 169 181
158 169 181
158 169 181
158 169 181
158 169 181
158 169 181
158 169 181
158 169 181
159 169 181
159 169 181
159 169 181
159 169 181
159 169 181
159 169 181
159 169 181
160 169 181
160 170 181
160 170 181
160 170 181
160 170 181
160 170 181
160 170 181
161 170 181
161 170 181
161 170 181
161 170 181
161 170 181
161 170 181
162 170 181
162 171 181
162 171 181
162 171 181
162 171 181
162 171 181
163 171 181
163 171 181
163 171 181
163 171 181
163 171 181
164 172 181
164 172 181
164 172 181
164 172 181
164 172 181
165 172 181
165 172 181
165 172 181
165 172 181
166 173 181
166 173 181
166 173 181
166 173 181
167 173 181
167 173 181
167 173 181
167 173 181
168 174 181
168 174 181
168 174 181
169 174 181
169 174 181
169 174 181
170 174 181
170 175 181
170 175 181
171 175 181
171 175 181
171 175 181
172 175 181
172 176 181
172 176 181
173 176 181
173 176 181
174 177 181
174 177 181
175 177 181
175 177 181
176 178 181
176 178 181
177 178 181
178 179 181
178 179 181
179 179 181
180 180 181
182 182 182
195 199 206
207 216 228
217 230 247
221 235 254
222 236 255
222 236 255
222 236 255
222 236 255
222 236 255
222 236 255
222 236 255
222 236 255
222 236 255
222 236 255
222 236 255
222 236 255
222 236 255
222 236 255
222 236 255
222 236 255
222 236 255
222 236 255
222 236 255
222 236 255
222 236 255
222 236 255
222 236 255
222 236 255
222 236 255
222 236 255
222 236 255
222 236 255
222 236 255
222 236 255
222 236 255
222 236 255
222 236 255
222 236 255
222 236 255
222 236 255
222 236 255
222 236 255
222 236 255
222 236 255
222 236 255
222 236 255
222 236 255
222 236 255
222 236 255
222 236 255
222 236 255
222 236 255
222 236 255
222 236 255
222 236 255
222 236 255
222 236 255
222 236 255
222 236 255
222 236 255
222 236 255
222 236 255
222 236 255
222 236 255
222 236 255
222 236 255
222 236 255
222 236 255
222 236 255
222 236 255
222 236 255
222 236 255
222 236 255
222 236 255
222 236 255
222 236 255
222 236 255
222 236 255
222 236 255
222 236 255
222 236 255
222 236 255
222 236 255
222 236 255
222 236 255
222 236 255
222 236 255
222 236 255
222 236 255
222 236 255
222 236 255
222 236 255
222 236 255
222 236 255
222 236 255
222 236 255
222 236 255
222 236 255
222 236 255
222 236 255
222 236 255
222 236 255
222 236 255
222 236 255
222 236 255
222 236 255
222 236 255
222 236 255
222 236 255
222 236 255
222 236 255
222 236 255
222 236 255
222 236 255
222 236 255
222 236 255
222 236 255
222 236 255
222 236 255
222 236 255
222 236 255
222 236 255
222 236 255
222 236 255
222 236 255
222 236 255
222 236 255
222 236 255
222 236 255
222 236 255
222 236 255
222 236 255
222 236 255
222 236 255
222 236 255
222 236 255
222 236 255
222 236 255
222 236 255
222 236 255
222 236 255
222 236 255
222 236 255
222 236 255
222 236 255
222 236 255
222 236 255
222 236 255
222 236 255
222 236 255
222 236 255
222 236 255
222 236 255
222 236 255
222 236 255
222 236 255
222 236 255
222 236 255
222 236 255
222 236 255
222 236 255
222 236 255
222 236 255
222 236 255
222 236 255
222 236 255
222 236 255
222 236 255
222 236 255
222 236 255
222 236 255
222 236 255
222 236 255
222 236 255
222 236 255
222 236 255
222 236 255
222 236 255
222 236 255
222 236 255
222 236 255
222 236 255
222 236 255
222 236 255
222 236 255
222 236 255
222 236 255
222 236 255
222 236 255
222 236 255
222 236 255
222 236 255
222 236 255
222 236 255
222 236 255
222 236 255
222 236 255
222 236 255
222 236 255
222 236 255
222 236 255
222 236 255
222 236 255
222 236 255
222 236 255
222 236 255
222 236 255
222 236 255
222 236 255
222 236 255
222 236 255
222 236 255
222 236 255
222 236 255
222 236 255
222 236 255
222 236 255
222 236 255
222 236 255
222 236 255
222 236 255
222 236 255
222 236 255
222 236 255
222 236 255
222 236 255
222 236 255
222 236 255
222 236 255
222 236 255
222 236 255
222 236 255
222 236 255
222 236 255
222 236 255
222 236 255
222 236 255
222 236 255
222 236 255
222 236 255
222 236 255
222 236 255
222 236 255
222 236 255
222 236 255
222 236 255
222 236 255
222 236 255
222 236 255
222 236 255
222 236 255
222 236 255
222 236 255
222 236 255
222 236 255
222 236 255
222 236 255
222 236 255
222 236 255
222 236 255
222 236 255
222 236 255
222 236 255
222 236 255
222 236 255
222 236 255
222 236 255
222 236 255
222 236 255
222 236 255
222 236 255
222 236 255
222 236 255
222 236 255
222 236 255
222 236 255
222 236 255
222 236 255
222 236 255
222 236 255
222 236 255
222 236 255
222 236 255
222 236 255
222 236 255
222 236 255
222 236 255
222 236 255
222 236 255
222 236 255
222 236 255
222 236 255
222 236 255
222 236 255
222 236 255
222 236 255
222 236 255
222 236 255
222 236 255
222 236 255
222 236 255
222 236 255
222 236 255
222 236 255
222 236 255
222 236 255
222 236 255
222 236 255
222 236 255
222 236 255
222 236 255
222 236 255
222 236 255
222 236 255
222 236 255
222 236 255
222 236 255
222 236 255
222 236 255
222 236 255
222 236 255
222 236 255
222 236 255
222 236 255
222 236 255
222 236 255
222 236 255
222 236 255
222 236 255
222 236 255
222 236 255
222 236 255
222 236 255
222 236 255
222 236 255
222 236 255
222 236 255
222 236 255
222 236 255
222 236 255
222 236 255
222 236 255
222 236 255
222 236 255
222 236 255
222 236 255
222 236 255
222 236 255
222 236 255
222 236 255
222 236 255
222 236 255
222 236 255
222 236 255
222 236 255
222 236 255
222 236 255
222 236 255
222 236 255
222 236 255
222 236 255
222 236 255
222 236 255
222 236 255
222 236 255
222 236 255
222 236 255
222 236 255
222 236 255
222 236 255
222 236 255
222 236 255
222 236 255
222 236 255
222 236 255
222 236 255
222 236 255
222 236 255
222 236 255
222 236 255
222 236 255
222 236 255
222 236 255
222 236 255
222 236 255
222 236 255
222 236 255
222 236 255
222 236 255
222 236 255
222 236 255
222 236 255
222 236 255
222 236 255
222 236 255
222 236 255
222 236 255
222 236 255
222 236 255
222 236 255
222 236 255
222 236 255
222 236 255
222 236 255
