P3
1600 1
255
222 236 255
222 236 255
222 236 255
222 236 255
222 236 255
222 236 255
222 236 255
222 236 255
222 236 255
222 236 255
222 236 255
222 236 255
222 236 255
222 236 255
222 236 255
222 236 255
222 236 255
222 236 255
222 236 255
222 236 255
222 236 255
222 236 255
222 236 255
222 236 255
222 236 255
222 236 255
222 236 255
222 236 255
222 236 255
222 236 255
222 236 255
222 236 255
222 236 255
222 236 255
222 236 255
222 236 255
222 236 255
222 236 255
222 236 255
222 236 255
222 236 255
222 236 255
222 236 255
222 236 255
222 236 255
222 236 255
222 236 255
222 236 255
222 236 255
222 236 255
222 236 255
222 236 255
222 236 255
222 236 255
222 236 255
222 236 255
222 236 255
222 236 255
222 236 255
222 236 255
222 236 255
222 236 255
222 236 255
222 236 255
222 236 255
222 236 255
222 236 255
222 236 255
222 236 255
222 236 255
222 236 255
222 236 255
222 236 255
222 236 255
222 236 255
222 236 255
222 236 255
222 236 255
222 236 255
222 236 255
222 236 255
222 236 255
222 236 255
222 236 255
222 236 255
222 236 255
222 236 255
222 236 255
222 236 255
222 236 255
222 236 255
222 236 255
222 236 255
222 236 255
222 236 255
222 236 255
222 236 255
222 236 255
222 236 255
222 236 255
222 236 255
222 236 255
222 236 255
222 236 255
222 236 255
222 236 255
222 236 255
222 236 255
222 236 255
222 236 255
222 236 255
222 236 255
222 236 255
222 236 255
222 236 255
222 236 255
222 236 255
222 236 255
222 236 255
222 236 255
222 236 255
222 236 255
222 236 255
222 236 255
222 236 255
222 236 255
222 236 255
222 236 255
222 236 255
222 236 255
222 236 255
222 236 255
222 236 255
222 236 255
222 236 255
222 236 255
222 236 255
222 236 255
222 236 255
222 236 255
222 236 255
222 236 255
222 236 255
222 236 255
222 236 255
222 236 255
222 236 255
222 236 255
222 236 255
222 236 255
222 236 255
222 236 255
222 236 255
222 236 255
222 236 255
222 236 255
222 236 255
222 236 255
222 236 255
222 236 255
222 236 255
222 236 255
222 236 255
222 236 255
222 236 255
222 236 255
222 236 255
222 236 255
222 236 255
222 236 255
222 236 255
222 236 255
222 236 255
222 236 255
222 236 255
222 236 255
222 236 255
222 236 255
222 236 255
222 236 255
222 236 255
222 236 255
222 236 255
222 236 255
222 236 255
222 236 255
222 236 255
222 236 255
222 236 255
222 236 255
222 236 255
222 236 255
222 236 255
222 236 255
222 236 255
222 236 255
222 236 255
222 236 255
222 236 255
222 236 255
222 236 255
222 236 255
222 236 255
222 236 255
222 236 255
222 236 255
222 236 255
222 236 255
222 236 255
222 236 255
222 236 255
222 236 255
222 236 255
222 236 255
222 236 255
222 236 255
222 236 255
222 236 255
222 236 255
222 236 255
222 236 255
222 236 255
222 236 255
222 236 255
222 236 255
222 236 255
222 236 255
222 236 255
222 236 255
222 236 255
222 236 255
222 236 255
222 236 255
222 236 255
222 236 255
222 236 255
222 236 255
222 236 255
222 236 255
222 236 255
222 236 255
222 236 255
222 236 255
222 236 255
222 236 255
222 236 255
222 236 255
222 236 255
222 236 255
222 236 255
222 236 255
222 236 255
222 236 255
222 236 255
222 236 255
222 236 255
222 236 255
222 236 255
222 236 255
222 236 255
222 236 255
222 236 255
222 236 255
222 236 255
222 236 255
222 236 255
222 236 255
222 236 255
222 236 255
222 236 255
222 236 255
222 236 255
222 236 255
222 236 255
222 236 255
222 236 255
222 236 255
222 236 255
222 236 255
222 236 255
222 236 255
222 236 255
222 236 255
222 236 255
222 236 255
222 236 255
222 236 255
222 236 255
222 236 255
222 236 255
222 236 255
222 236 255
222 236 255
222 236 255
222 236 255
222 236 255
222 236 255
222 236 255
222 236 255
222 236 255
222 236 255
222 236 255
222 236 255
222 236 255
222 236 255
222 236 255
222 236 255
222 236 255
222 236 255
222 236 255
222 236 255
222 236 255
222 236 255
222 236 255
222 236 255
222 236 255
222 236 255
222 236 255
222 236 255
222 236 255
222 236 255
222 236 255
222 236 255
222 236 255
222 236 255
222 236 255
222 236 255
222 236 255
222 236 255
222 236 255
222 236 255
222 236 255
222 236 255
222 236 255
222 236 255
222 236 255
222 236 255
222 236 255
222 236 255
222 236 255
222 236 255
222 236 255
222 236 255
222 236 255
222 236 255
222 236 255
222 236 255
222 236 255
222 236 255
222 236 255
222 236 255
222 236 255
222 236 255
222 236 255
222 236 255
222 236 255
222 236 255
222 236 255
222 236 255
222 236 255
222 236 255
222 236 255
222 236 255
222 236 255
222 236 255
222 236 255
222 236 255
222 236 255
222 236 255
222 236 255
222 236 255
222 236 255
222 236 255
222 236 255
222 236 255
222 236 255
222 236 255
222 236 255
222 236 255
222 236 255
222 236 255
222 236 255
222 236 255
222 236 255
222 236 255
222 236 255
222 236 255
222 236 255
222 236 255
222 236 255
222 236 255
222 236 255
222 236 255
222 236 255
222 236 255
222 236 255
222 236 255
222 236 255
222 236 255
222 236 255
222 236 255
222 236 255
222 236 255
222 236 255
222 236 255
222 236 255
222 236 255
222 236 255
222 236 255
222 236 255
222 236 255
222 236 255
222 236 255
222 236 255
222 236 255
222 236 255
222 236 255
222 236 255
222 236 255
222 236 255
222 236 255
222 236 255
222 236 255
222 236 255
222 236 255
222 236 255
222 236 255
222 236 255
222 236 255
222 236 255
222 236 255
222 236 255
222 236 255
222 236 255
222 236 255
222 236 255
222 236 255
222 236 255
222 236 255
222 236 255
222 236 255
222 236 255
222 236 255
222 236 255
222 236 255
222 236 255
222 236 255
222 236 255
222 236 255
222 236 255
222 236 255
222 236 255
222 236 255
222 236 255
222 236 255
222 236 255
222 236 255
222 236 255
222 236 255
222 236 255
222 236 255
222 236 255
222 236 255
222 236 255
222 236 255
222 236 255
222 236 255
222 236 255
222 236 255
222 236 255
222 236 255
222 236 255
222 236 255
222 236 255
222 236 255
222 236 255
222 236 255
222 236 255
222 236 255
222 236 255
222 236 255
222 236 255
222 236 255
222 236 255
222 236 255
222 236 255
222 236 255
222 236 255
222 236 255
222 236 255
222 236 255
222 236 255
222 236 255
222 236 255
222 236 255
222 236 255
222 236 255
222 236 255
222 236 255
222 236 255
222 236 255
222 236 255
222 236 255
222 236 255
222 236 255
222 236 255
222 236 255
222 236 255
222 236 255
222 236 255
222 236 255
222 236 255
222 236 255
222 236 255
222 236 255
222 236 255
222 236 255
222 236 255
222 236 255
222 236 255
222 236 255
222 236 255
222 236 255
222 236 255
222 236 255
222 236 255
222 236 255
222 236 255
222 236 255
222 236 255
222 236 255
222 236 255
222 236 255
222 236 255
222 236 255
222 236 255
222 236 255
222 236 255
222 236 255
222 236 255
222 236 255
222 236 255
222 236 255
222 236 255
222 236 255
222 236 255
222 236 255
222 236 255
220 234 253
215 228 246
209 220 237
210 221 239
198 206 220
196 203 216
184 187 198
181 183 193
177 179 188
169 167 172
144 132 129
138 124 119
128 108 97
129 108 95
122 100 84
126 98 79
122 97 78
120 96 77
120 95 77
121 96 77
121 96 78
121 95 76
118 93 76
123 97 78
123 97 79
119 94 76
121 95 77
120 95 77
122 96 77
121 96 77
119 95 77
121 96 77
121 96 78
122 95 77
118 93 75
120 95 77
117 93 76
121 96 77
119 94 76
116 92 74
118 93 75
117 94 76
122 97 78
119 94 76
123 97 78
118 95 77
118 94 76
119 95 76
119 94 76
120 95 77
121 96 77
119 95 76
120 95 77
122 96 78
119 94 76
120 96 78
120 94 77
119 95 77
120 96 77
118 94 76
118 94 76
119 95 77
119 94 76
118 94 76
121 96 78
119 94 76
121 96 77
118 94 75
121 96 78
121 96 78
122 97 78
120 95 77
120 95 76
121 95 77
117 94 76
120 95 77
121 96 78
120 95 77
122 96 78
119 95 77
117 93 76
120 95 77
117 93 76
121 96 78
119 95 77
117 93 76
117 93 76
120 95 77
121 95 77
123 97 78
120 95 77
121 95 77
118 94 76
118 94 76
119 94 77
122 97 79
121 96 78
122 97 78
118 93 75
118 95 77
119 94 76
121 96 78
120 96 77
120 95 77
120 95 78
120 96 78
117 94 76
119 94 76
123 98 79
118 93 76
117 93 76
119 95 77
117 93 76
119 95 77
121 96 78
118 94 76
119 95 77
120 94 76
117 93 76
120 95 76
127 108 98
135 123 119
140 131 132
153 152 160
150 151 159
159 166 180
167 178 195
167 182 201
167 185 206
168 187 208
179 198 220
178 200 221
179 200 221
183 205 225
183 206 225
187 210 229
195 218 239
186 208 226
179 199 217
181 202 220
170 189 208
145 160 177
147 162 179
152 170 187
141 157 175
133 152 169
139 158 179
137 155 178
134 150 174
139 158 181
140 159 182
135 154 179
140 159 184
139 157 182
131 148 173
140 158 182
138 156 181
131 149 173
136 154 177
135 153 178
137 154 178
141 160 186
140 159 184
137 156 182
139 157 182
140 158 183
134 153 178
136 155 180
137 154 178
137 154 178
135 153 178
136 154 179
137 155 181
138 157 182
133 152 176
133 152 175
138 157 181
133 150 174
137 155 181
130 148 171
136 154 179
141 162 187
137 156 182
136 154 180
137 156 181
133 152 175
131 148 172
135 153 179
140 160 187
131 148 171
133 151 175
136 153 178
132 150 174
132 151 175
134 153 178
134 151 176
131 149 172
134 152 177
134 151 175
125 141 162
134 152 175
136 155 180
137 155 181
134 154 179
131 148 172
130 147 169
135 154 179
134 151 175
134 152 176
133 152 177
132 150 174
132 149 174
133 151 176
133 151 176
133 152 177
134 152 176
127 143 165
134 153 177
132 151 176
131 148 172
133 151 175
132 150 174
132 151 176
130 148 172
134 152 177
127 144 169
127 144 168
129 147 170
132 149 172
133 151 175
130 147 171
130 147 172
131 148 172
129 147 173
130 147 170
132 150 175
125 142 165
134 152 174
125 142 164
132 150 172
133 151 176
130 148 173
134 152 177
133 152 178
127 143 166
131 148 171
137 155 180
126 143 168
126 142 165
128 145 168
127 144 169
126 143 166
127 143 165
129 145 168
130 147 171
131 149 174
129 146 170
129 144 167
132 150 176
129 146 169
131 149 173
132 150 173
135 153 176
130 147 172
127 144 167
133 150 173
135 153 177
130 148 172
125 141 163
125 143 169
128 145 169
133 151 176
135 153 180
130 148 172
131 149 174
127 145 168
135 154 180
131 149 173
131 148 173
131 148 171
134 151 175
128 145 169
133 150 175
134 151 175
129 146 170
131 148 173
132 150 174
127 145 168
133 151 175
134 153 178
131 148 172
132 150 174
128 145 169
131 148 171
133 150 174
131 148 172
129 146 170
131 147 171
129 147 171
134 152 177
131 148 172
133 150 173
132 151 175
125 142 166
128 144 166
132 150 173
131 148 170
131 148 171
132 150 175
130 148 171
130 147 172
126 142 165
132 150 175
129 146 170
133 150 174
133 150 173
126 142 163
130 147 169
127 145 168
132 150 173
131 149 171
135 153 177
137 155 180
135 154 178
129 147 170
134 152 176
132 150 174
134 152 176
134 153 178
129 145 169
134 151 173
130 147 169
138 156 180
137 156 180
130 148 170
132 150 173
130 146 169
131 148 170
130 148 170
135 153 178
140 156 177
152 160 172
175 176 179
180 179 180
180 180 181
179 179 181
178 179 181
178 179 181
177 178 181
176 178 181
176 177 181
175 177 181
175 177 181
174 177 181
174 176 181
173 176 181
173 176 181
172 176 181
172 176 181
172 175 181
171 175 181
171 175 181
170 175 181
170 175 181
170 175 181
169 174 181
169 174 181
169 174 181
168 174 181
168 174 181
168 174 181
168 173 181
167 173 181
167 173 181
167 173 181
166 173 181
166 173 181
166 173 181
166 172 181
165 172 181
165 172 181
165 172 181
165 172 181
164 172 181
164 172 181
164 172 181
164 172 181
164 171 181
163 171 181
163 171 181
163 171 181
163 171 181
163 171 181
162 171 181
162 171 181
162 171 181
162 171 181
162 171 181
161 170 181
161 170 181
161 170 181
161 170 181
161 170 181
161 170 181
160 170 181
160 170 181
160 170 181
160 170 181
160 170 181
160 170 181
159 169 181
159 169 181
159 169 181
159 169 181
159 169 181
159 169 181
159 169 181
158 169 181
158 169 181
158 169 181
158 169 181
158 169 181
158 169 181
158 169 181
158 169 181
158 169 181
157 168 181
157 168 181
157 168 181
157 168 181
157 168 181
157 168 181
157 168 181
157 168 181
157 168 181
156 168 181
156 168 181
156 168 181
156 168 181
156 168 181
156 168 181
156 168 181
156 168 181
156 168 181
156 168 181
156 168 181
156 168 181
155 168 181
155 167 181
155 167 181
155 167 181
155 167 181
155 167 181
155 167 181
155 167 181
155 167 181
155 167 181
155 167 181
155 167 181
155 167 181
155 167 181
155 167 181
154 167 181
154 167 181
154 167 181
154 167 181
154 167 181
154 167 181
154 167 181
154 167 181
154 167 181
154 167 181
154 167 181
154 167 181
154 167 181
154 167 181
154 167 181
154 167 181
154 167 181
154 167 181
154 167 181
154 167 181
154 167 181
154 167 181
154 167 181
154 167 181
154 167 181
154 167 181
154 167 181
154 167 181
154 167 181
154 167 181
154 167 181
154 167 181
154 167 181
154 167 181
154 167 181
154 167 181
154 167 181
154 167 181
154 167 181
154 167 181
154 167 181
154 167 181
154 167 181
154 167 181
154 167 181
154 167 181
154 167 181
154 167 181
154 167 181
154 167 181
154 167 181
154 167 181
154 167 181
154 167 181
154 167 181
154 167 181
154 167 181
154 167 181
154 167 181
154 167 181
154 167 181
154 167 181
154 167 181
154 167 181
154 167 181
154 167 181
154 167 181
154 167 181
154 167 181
154 167 181
155 167 181
155 167 181
155 167 181
155 167 181
155 167 181
155 167 181
155 167 181
155 167 181
155 167 181
155 167 181
155 167 181
155 167 181
155 167 181
155 167 181
155 168 181
156 168 181
156 168 181
156 168 181
156 168 181
156 168 181
156 168 181
156 168 181
156 168 181
156 168 181
156 168 181
156 168 181
156 168 181
157 168 181
157 168 181
157 168 181
157 168 181
157 168 181
157 168 181
157 168 181
157 168 181
157 168 181
157 169 181
158 169 181
158 169 181
158 169 181
158 169 181
158 169 181
158 169 181
158 169 181
158 169 181
159 169 181
159 169 181
159 169 181
159 169 181
159 169 181
159 169 181
159 169 181
160 170 181
160 170 181
160 170 181
160 170 181
160 170 181
160 170 181
161 170 181
161 170 181
161 170 181
161 170 181
161 170 181
161 170 181
162 170 181
162 171 181
162 171 181
162 171 181
162 171 181
163 171 181
163 171 181
163 171 181
163 171 181
163 171 181
164 171 181
164 172 181
164 172 181
164 172 181
164 172 181
165 172 181
165 172 181
165 172 181
165 172 181
166 172 181
166 173 181
166 173 181
166 173 181
166 173 181
167 173 181
167 173 181
167 173 181
168 173 181
168 174 181
168 174 181
168 174 181
169 174 181
169 174 181
169 174 181
170 175 181
170 175 181
170 175 181
171 175 181
171 175 181
172 175 181
172 176 181
172 176 181
173 176 181
173 176 181
174 176 181
174 177 181
175 177 181
175 177 181
176 178 181
176 178 181
177 178 181
177 178 181
178 179 181
179 179 181
180 180 181
183 182 183
189 191 194
200 205 214
215 226 242
220 234 253
222 236 255
222 236 255
222 236 255
222 236 255
222 236 255
222 236 255
222 236 255
222 236 255
222 236 255
222 236 255
222 236 255
222 236 255
222 236 255
222 236 255
222 236 255
222 236 255
222 236 255
222 236 255
222 236 255
222 236 255
222 236 255
222 236 255
222 236 255
222 236 255
222 236 255
222 236 255
222 236 255
222 236 255
222 236 255
222 236 255
222 236 255
222 236 255
222 236 255
222 236 255
222 236 255
222 236 255
222 236 255
222 236 255
222 236 255
222 236 255
222 236 255
222 236 255
222 236 255
222 236 255
222 236 255
222 236 255
222 236 255
222 236 255
222 236 255
222 236 255
222 236 255
222 236 255
222 236 255
222 236 255
222 236 255
222 236 255
222 236 255
222 236 255
222 236 255
222 236 255
222 236 255
222 236 255
222 236 255
222 236 255
222 236 255
222 236 255
222 236 255
222 236 255
222 236 255
222 236 255
222 236 255
222 236 255
222 236 255
222 236 255
222 236 255
222 236 255
222 236 255
222 236 255
222 236 255
222 236 255
222 236 255
222 236 255
222 236 255
222 236 255
222 236 255
222 236 255
222 236 255
222 236 255
222 236 255
222 236 255
222 236 255
222 236 255
222 236 255
222 236 255
222 236 255
222 236 255
222 236 255
222 236 255
222 236 255
222 236 255
222 236 255
222 236 255
222 236 255
222 236 255
222 236 255
222 236 255
222 236 255
222 236 255
222 236 255
222 236 255
222 236 255
222 236 255
222 236 255
222 236 255
222 236 255
222 236 255
222 236 255
222 236 255
222 236 255
222 236 255
222 236 255
222 236 255
222 236 255
222 236 255
222 236 255
222 236 255
222 236 255
222 236 255
222 236 255
222 236 255
222 236 255
222 236 255
222 236 255
222 236 255
222 236 255
222 236 255
222 236 255
222 236 255
222 236 255
222 236 255
222 236 255
222 236 255
222 236 255
222 236 255
222 236 255
222 236 255
222 236 255
222 236 255
222 236 255
222 236 255
222 236 255
222 236 255
222 236 255
222 236 255
222 236 255
222 236 255
222 236 255
222 236 255
222 236 255
222 236 255
222 236 255
222 236 255
222 236 255
222 236 255
222 236 255
222 236 255
222 236 255
222 236 255
222 236 255
222 236 255
222 236 255
222 236 255
222 236 255
222 236 255
222 236 255
222 236 255
222 236 255
222 236 255
222 236 255
222 236 255
222 236 255
222 236 255
222 236 255
222 236 255
222 236 255
222 236 255
222 236 255
222 236 255
222 236 255
222 236 255
222 236 255
222 236 255
222 236 255
222 236 255
222 236 255
222 236 255
222 236 255
222 236 255
222 236 255
222 236 255
222 236 255
222 236 255
222 236 255
222 236 255
222 236 255
222 236 255
222 236 255
222 236 255
222 236 255
222 236 255
222 236 255
222 236 255
222 236 255
222 236 255
222 236 255
222 236 255
222 236 255
222 236 255
222 236 255
222 236 255
222 236 255
222 236 255
222 236 255
222 236 255
222 236 255
222 236 255
222 236 255
222 236 255
222 236 255
222 236 255
222 236 255
222 236 255
222 236 255
222 236 255
222 236 255
222 236 255
222 236 255
222 236 255
222 236 255
222 236 255
222 236 255
222 236 255
222 236 255
222 236 255
222 236 255
222 236 255
222 236 255
222 236 255
222 236 255
222 236 255
222 236 255
222 236 255
222 236 255
222 236 255
222 236 255
222 236 255
222 236 255
222 236 255
222 236 255
222 236 255
222 236 255
222 236 255
222 236 255
222 236 255
222 236 255
222 236 255
222 236 255
222 236 255
222 236 255
222 236 255
222 236 255
222 236 255
222 236 255
222 236 255
222 236 255
222 236 255
222 236 255
222 236 255
222 236 255
222 236 255
222 236 255
222 236 255
222 236 255
222 236 255
222 236 255
222 236 255
222 236 255
222 236 255
222 236 255
222 236 255
222 236 255
222 236 255
222 236 255
222 236 255
222 236 255
222 236 255
222 236 255
222 236 255
222 236 255
222 236 255
222 236 255
222 236 255
222 236 255
222 236 255
222 236 255
222 236 255
222 236 255
222 236 255
222 236 255
222 236 255
222 236 255
222 236 255
222 236 255
222 236 255
222 236 255
222 236 255
222 236 255
222 236 255
222 236 255
222 236 255
222 236 255
222 236 255
222 236 255
222 236 255
222 236 255
222 236 255
222 236 255
222 236 255
222 236 255
222 236 255
222 236 255
222 236 255
222 236 255
222 236 255
222 236 255
222 236 255
222 236 255
222 236 255
222 236 255
222 236 255
222 236 255
222 236 255
222 236 255
222 236 255
222 236 255
222 236 255
222 236 255
222 236 255
222 236 255
222 236 255
222 236 255
222 236 255
222 236 255
222 236 255
222 236 255
222 236 255
222 236 255
222 236 255
222 236 255
222 236 255
222 236 255
222 236 255
222 236 255
222 236 255
222 236 255
222 236 255
222 236 255
222 236 255
222 236 255
222 236 255
222 236 255
222 236 255
222 236 255
222 236 255
222 236 255
222 236 255
222 236 255
222 236 255
222 236 255
222 236 255
222 236 255
222 236 255
222 236 255
222 236 255
222 236 255
222 236 255
222 236 255
222 236 255
222 236 255
222 236 255
222 236 255
222 236 255
222 236 255
222 236 255
222 236 255
222 236 255
