P3
1600 1
255
223 236 255
223 236 255
223 236 255
223 236 255
223 236 255
223 236 255
223 236 255
223 236 255
223 236 255
223 236 255
223 236 255
223 236 255
223 236 255
223 236 255
223 236 255
223 236 255
223 236 255
223 236 255
223 236 255
223 236 255
223 236 255
223 236 255
223 236 255
223 236 255
223 236 255
223 236 255
223 236 255
223 236 255
223 236 255
223 236 255
223 236 255
223 236 255
223 236 255
223 236 255
223 236 255
223 236 255
223 236 255
223 236 255
223 236 255
223 236 255
223 236 255
223 236 255
223 236 255
223 236 255
223 236 255
223 236 255
223 236 255
223 236 255
223 236 255
223 236 255
223 236 255
223 236 255
223 236 255
223 236 255
223 236 255
223 236 255
223 236 255
223 236 255
223 236 255
223 236 255
223 236 255
223 236 255
223 236 255
223 236 255
223 236 255
223 236 255
223 236 255
223 236 255
223 236 255
223 236 255
223 236 255
223 236 255
223 236 255
223 236 255
223 236 255
223 236 255
223 236 255
223 236 255
223 236 255
223 236 255
223 236 255
223 236 255
223 236 255
223 236 255
223 236 255
223 236 255
223 236 255
223 236 255
223 236 255
223 236 255
223 236 255
223 236 255
223 236 255
223 236 255
223 236 255
223 236 255
223 236 255
223 236 255
223 236 255
223 236 255
223 236 255
223 236 255
223 236 255
223 236 255
223 236 255
223 236 255
223 236 255
223 236 255
223 236 255
223 236 255
223 236 255
223 236 255
223 236 255
223 236 255
223 236 255
223 236 255
223 236 255
223 236 255
223 236 255
223 236 255
223 236 255
223 236 255
223 236 255
223 236 255
223 236 255
223 236 255
223 236 255
223 236 255
223 236 255
223 236 255
223 236 255
223 236 255
223 236 255
223 236 255
223 236 255
223 236 255
223 236 255
223 236 255
223 236 255
223 236 255
223 236 255
223 236 255
223 236 255
223 236 255
223 236 255
223 236 255
223 236 255
223 236 255
223 236 255
223 236 255
223 236 255
223 236 255
223 236 255
223 236 255
223 236 255
223 236 255
223 236 255
223 236 255
223 236 255
223 236 255
223 236 255
223 236 255
223 236 255
223 236 255
223 236 255
223 236 255
223 236 255
223 236 255
223 236 255
223 236 255
223 236 255
223 236 255
223 236 255
223 236 255
223 236 255
223 236 255
223 236 255
223 236 255
223 236 255
223 236 255
223 236 255
223 236 255
223 236 255
223 236 255
223 236 255
223 236 255
223 236 255
223 236 255
223 236 255
223 236 255
223 236 255
223 236 255
223 236 255
223 236 255
223 236 255
223 236 255
223 236 255
223 236 255
223 236 255
223 236 255
223 236 255
223 236 255
223 236 255
223 236 255
223 236 255
223 236 255
223 236 255
223 236 255
223 236 255
223 236 255
223 236 255
223 236 255
223 236 255
223 236 255
223 236 255
223 236 255
223 236 255
223 236 255
223 236 255
223 236 255
223 236 255
223 236 255
223 236 255
223 236 255
223 236 255
223 236 255
223 236 255
223 236 255
223 236 255
223 236 255
223 236 255
223 236 255
223 236 255
223 236 255
223 236 255
223 236 255
223 236 255
223 236 255
223 236 255
223 236 255
223 236 255
223 236 255
223 236 255
223 236 255
223 236 255
223 236 255
223 236 255
223 236 255
223 236 255
223 236 255
223 236 255
223 236 255
223 236 255
223 236 255
223 236 255
223 236 255
223 236 255
223 236 255
223 236 255
223 236 255
223 236 255
223 236 255
223 236 255
223 236 255
223 236 255
223 236 255
223 236 255
223 236 255
223 236 255
223 236 255
223 236 255
223 236 255
223 236 255
223 236 255
223 236 255
223 236 255
223 236 255
223 236 255
223 236 255
223 236 255
223 236 255
223 236 255
223 236 255
223 236 255
223 236 255
223 236 255
223 236 255
223 236 255
223 236 255
223 236 255
223 236 255
223 236 255
223 236 255
223 236 255
223 236 255
223 236 255
223 236 255
223 236 255
223 236 255
223 236 255
223 236 255
223 236 255
223 236 255
223 236 255
223 236 255
223 236 255
223 236 255
223 236 255
223 236 255
223 236 255
223 236 255
223 236 255
223 236 255
223 236 255
223 236 255
223 236 255
223 236 255
223 236 255
223 236 255
223 236 255
223 236 255
223 236 255
223 236 255
223 236 255
223 236 255
223 236 255
223 236 255
223 236 255
223 236 255
223 236 255
223 236 255
223 236 255
223 236 255
223 236 255
223 236 255
223 236 255
223 236 255
223 236 255
223 236 255
223 236 255
223 236 255
223 236 255
223 236 255
223 236 255
223 236 255
223 236 255
223 236 255
223 236 255
223 236 255
223 236 255
223 236 255
223 236 255
223 236 255
223 236 255
223 236 255
223 236 255
223 236 255
223 236 255
223 236 255
223 236 255
223 236 255
223 236 255
223 236 255
223 236 255
223 236 255
223 236 255
223 236 255
223 236 255
223 236 255
223 236 255
223 236 255
223 236 255
223 236 255
223 236 255
223 236 255
223 236 255
223 236 255
223 236 255
223 236 255
223 236 255
223 236 255
223 236 255
223 236 255
223 236 255
223 236 255
223 236 255
223 236 255
223 236 255
223 236 255
223 236 255
223 236 255
223 236 255
223 236 255
223 236 255
223 236 255
223 236 255
223 236 255
223 236 255
223 236 255
223 236 255
223 236 255
223 236 255
223 236 255
223 236 255
223 236 255
223 236 255
223 236 255
223 236 255
223 236 255
223 236 255
223 236 255
223 236 255
223 236 255
223 236 255
223 236 255
223 236 255
223 236 255
223 236 255
223 236 255
223 236 255
223 236 255
223 236 255
223 236 255
223 236 255
223 236 255
223 236 255
223 236 255
223 236 255
223 236 255
223 236 255
223 236 255
223 236 255
223 236 255
223 236 255
223 236 255
223 236 255
223 236 255
223 236 255
223 236 255
223 236 255
223 236 255
223 236 255
223 236 255
223 236 255
223 236 255
223 236 255
223 236 255
223 236 255
223 236 255
223 236 255
223 236 255
223 236 255
223 236 255
223 236 255
223 236 255
223 236 255
223 236 255
223 236 255
223 236 255
223 236 255
223 236 255
223 236 255
223 236 255
223 236 255
223 236 255
223 236 255
223 236 255
223 236 255
223 236 255
223 236 255
223 236 255
223 236 255
223 236 255
223 236 255
223 236 255
223 236 255
223 236 255
223 236 255
223 236 255
223 236 255
223 236 255
223 236 255
223 236 255
223 236 255
223 236 255
223 236 255
223 236 255
223 236 255
223 236 255
223 236 255
223 236 255
223 236 255
223 236 255
223 236 255
223 236 255
223 236 255
223 236 255
223 236 255
223 236 255
223 236 255
223 236 255
223 236 255
223 236 255
223 236 255
223 236 255
223 236 255
223 236 255
223 236 255
223 236 255
223 236 255
223 236 255
223 236 255
223 236 255
223 236 255
223 236 255
223 236 255
223 236 255
223 236 255
223 236 255
221 234 253
217 229 247
208 218 233
200 209 224
183 186 196
185 188 199
169 166 172
152 146 147
138 123 118
135 119 113
119 101 90
118 96 80
117 92 73
115 90 73
115 90 72
111 86 70
116 91 73
113 89 71
115 90 72
118 94 75
116 90 72
113 90 72
116 92 73
115 89 71
113 88 71
116 92 73
117 92 74
108 86 70
110 87 69
117 92 74
116 91 73
115 92 74
117 92 74
115 90 73
115 89 72
110 87 69
114 91 73
109 86 70
111 88 71
111 88 71
113 89 72
111 88 71
111 88 71
116 91 72
113 89 71
107 85 69
116 91 73
114 89 71
116 92 74
116 92 74
115 91 73
113 89 72
114 89 72
112 88 71
115 91 73
116 91 72
114 90 71
119 93 74
111 87 70
112 89 72
112 88 71
116 91 73
111 87 70
116 92 74
111 87 69
115 90 73
111 88 71
116 91 74
113 90 72
111 88 72
119 93 74
114 90 72
109 86 70
114 90 72
115 90 73
112 88 71
115 91 74
115 90 72
114 89 72
109 87 69
115 91 73
117 92 74
117 92 74
114 90 72
114 90 72
113 90 72
113 89 71
115 90 72
116 91 73
114 90 72
113 90 72
116 90 72
116 90 73
115 91 73
116 91 73
110 87 70
113 88 71
115 91 73
115 91 72
118 94 75
116 91 73
112 88 71
119 93 75
118 92 74
114 90 72
113 90 72
115 91 72
115 90 72
115 92 76
122 105 95
122 106 96
132 130 133
139 142 152
161 169 184
160 174 194
171 187 210
169 185 209
156 172 195
157 174 198
161 177 201
151 168 193
153 171 195
156 173 198
146 162 190
144 160 187
137 150 184
131 140 182
119 123 170
124 128 181
136 133 204
108 100 174
133 127 204
123 114 189
123 113 195
116 105 184
115 104 184
108 94 180
113 100 180
116 107 180
114 114 171
125 132 176
122 133 169
124 138 164
129 145 172
125 140 164
125 142 165
130 147 168
126 143 169
129 145 171
135 152 177
133 150 174
128 144 164
127 145 169
129 145 167
132 149 173
132 150 173
128 147 169
128 146 165
127 144 164
131 149 169
127 145 166
129 146 170
127 144 168
121 137 158
129 146 169
121 139 156
126 142 163
133 152 175
125 142 162
132 150 173
128 146 169
132 148 169
127 144 165
124 141 159
123 141 159
126 144 163
129 146 169
133 150 172
130 148 170
128 145 167
130 148 168
130 146 167
130 148 170
133 151 174
127 143 163
128 145 166
130 147 170
129 146 166
128 142 163
124 138 159
126 142 162
131 149 172
128 143 163
131 148 169
129 146 168
129 144 164
131 146 166
131 147 169
135 153 176
132 148 170
126 140 161
128 143 164
132 148 170
128 143 163
128 142 162
127 141 161
127 142 164
122 138 159
126 140 159
124 138 159
131 148 171
123 137 156
129 144 166
132 147 168
122 137 158
120 134 153
126 141 163
125 140 161
125 139 159
129 145 168
129 144 166
129 144 167
129 145 167
132 150 173
126 141 161
133 149 172
127 142 163
128 144 166
123 137 157
127 144 166
119 133 152
118 131 150
126 141 162
122 138 157
124 139 160
124 139 162
125 141 162
123 136 156
131 147 169
126 142 164
121 134 154
125 140 161
119 133 153
127 142 164
122 137 157
131 147 169
128 144 166
123 138 158
120 133 152
125 140 161
126 141 163
127 142 162
119 133 153
119 133 152
112 125 144
121 134 153
119 133 152
116 125 145
114 126 144
122 133 154
116 125 144
118 131 152
123 132 154
119 127 148
120 126 146
123 137 158
121 129 150
120 134 153
113 123 142
117 128 149
116 126 145
119 128 149
109 115 133
121 130 151
116 126 146
111 118 136
122 133 155
117 126 147
113 122 142
112 123 141
116 126 146
106 113 130
108 113 129
106 114 130
117 128 148
108 115 134
102 108 121
107 110 125
107 106 119
96 81 95
87 83 92
106 97 107
84 77 80
87 76 83
95 93 103
103 96 109
93 95 110
100 102 132
102 100 151
87 80 145
84 73 145
89 81 152
88 78 152
88 78 153
89 80 151
82 70 144
95 89 158
87 79 151
90 85 153
87 87 149
80 70 143
92 87 157
94 91 157
88 84 135
123 125 142
167 167 168
181 180 180
181 180 181
180 180 181
179 179 181
179 179 181
178 179 181
177 178 181
177 178 181
176 178 181
176 178 181
175 177 181
175 177 181
175 177 181
174 177 181
174 177 181
173 176 181
173 176 181
173 176 181
172 176 181
172 176 181
172 176 181
171 175 181
171 175 181
171 175 181
171 175 181
170 175 181
170 175 181
170 175 181
169 174 181
169 174 181
169 174 181
169 174 181
168 174 181
168 174 181
168 174 181
168 174 181
167 173 181
167 173 181
167 173 181
167 173 181
167 173 181
166 173 181
166 173 181
166 173 181
166 173 181
165 172 181
165 172 181
165 172 181
165 172 181
165 172 181
164 172 181
164 172 181
164 172 181
164 172 181
164 172 181
164 171 181
163 171 181
163 171 181
163 171 181
163 171 181
163 171 181
162 171 181
162 171 181
162 171 181
162 171 181
162 171 181
162 171 181
161 170 181
161 170 181
161 170 181
161 170 181
161 170 181
161 170 181
161 170 181
160 170 181
160 170 181
160 170 181
160 170 181
160 170 181
160 170 181
160 170 181
159 169 181
159 169 181
159 169 181
159 169 181
159 169 181
159 169 181
159 169 181
159 169 181
158 169 181
158 169 181
158 169 181
158 169 181
158 169 181
158 169 181
158 169 181
158 169 181
157 169 181
157 168 181
157 168 181
157 168 181
157 168 181
157 168 181
157 168 181
157 168 181
157 168 181
157 168 181
156 168 181
156 168 181
156 168 181
156 168 181
156 168 181
156 168 181
156 168 181
156 168 181
156 168 181
156 168 181
155 168 181
155 167 181
155 167 181
155 167 181
155 167 181
155 167 181
155 167 181
155 167 181
155 167 181
155 167 181
155 167 181
155 167 181
154 167 181
154 167 181
154 167 181
154 167 181
154 167 181
154 167 181
154 167 181
154 167 181
154 167 181
154 167 181
154 167 181
154 167 181
154 167 181
154 167 181
154 167 181
153 167 181
153 167 181
153 167 181
153 167 181
153 166 181
153 166 181
153 166 181
153 166 181
153 166 181
153 166 181
153 166 181
153 166 181
153 166 181
153 166 181
153 166 181
153 166 181
153 166 181
153 166 181
153 166 181
152 166 181
152 166 181
152 166 181
152 166 181
152 166 181
152 166 181
152 166 181
152 166 181
152 166 181
152 166 181
152 166 181
152 166 181
152 166 181
152 166 181
152 166 181
152 166 181
152 166 181
152 166 181
152 166 181
152 166 181
152 166 181
152 166 181
152 166 181
152 166 181
152 166 181
152 166 181
152 166 181
152 166 181
152 166 181
152 166 181
152 166 181
152 166 181
152 166 181
152 166 181
152 166 181
152 166 181
152 166 181
152 166 181
152 166 181
152 166 181
152 166 181
152 166 181
152 166 181
152 166 181
152 166 181
152 166 181
152 166 181
152 166 181
152 166 181
152 166 181
152 166 181
152 166 181
152 166 181
152 166 181
152 166 181
152 166 181
152 166 181
152 166 181
152 166 181
152 166 181
152 166 181
152 166 181
152 166 181
152 166 181
152 166 181
152 166 181
152 166 181
152 166 181
152 166 181
152 166 181
152 166 181
152 166 181
152 166 181
152 166 181
152 166 181
152 166 181
152 166 181
152 166 181
152 166 181
152 166 181
152 166 181
152 166 181
152 166 181
152 166 181
152 166 181
152 166 181
152 166 181
152 166 181
152 166 181
152 166 181
152 166 181
152 166 181
152 166 181
153 166 181
153 166 181
153 166 181
153 166 181
153 166 181
153 166 181
153 166 181
153 166 181
153 166 181
153 166 181
153 166 181
153 166 181
153 166 181
153 166 181
153 166 181
153 166 181
153 167 181
153 167 181
153 167 181
153 167 181
154 167 181
154 167 181
154 167 181
154 167 181
154 167 181
154 167 181
154 167 181
154 167 181
154 167 181
154 167 181
154 167 181
154 167 181
154 167 181
154 167 181
155 167 181
155 167 181
155 167 181
155 167 181
155 167 181
155 167 181
155 167 181
155 167 181
155 167 181
155 167 181
155 167 181
155 168 181
156 168 181
156 168 181
156 168 181
156 168 181
156 168 181
156 168 181
156 168 181
156 168 181
156 168 181
156 168 181
156 168 181
157 168 181
157 168 181
157 168 181
157 168 181
157 168 181
157 168 181
157 168 181
157 168 181
157 168 181
158 169 181
158 169 181
158 169 181
158 169 181
158 169 181
158 169 181
158 169 181
158 169 181
158 169 181
159 169 181
159 169 181
159 169 181
159 169 181
159 169 181
159 169 181
159 169 181
159 169 181
160 170 181
160 170 181
160 170 181
160 170 181
160 170 181
160 170 181
160 170 181
161 170 181
161 170 181
161 170 181
161 170 181
161 170 181
161 170 181
162 170 181
162 171 181
162 171 181
162 171 181
162 171 181
162 171 181
163 171 181
163 171 181
163 171 181
163 171 181
163 171 181
163 171 181
164 171 181
164 172 181
164 172 181
164 172 181
164 172 181
164 172 181
165 172 181
165 172 181
165 172 181
165 172 181
165 172 181
166 172 181
166 173 181
166 173 181
166 173 181
167 173 181
167 173 181
167 173 181
167 173 181
167 173 181
168 173 181
168 174 181
168 174 181
168 174 181
169 174 181
169 174 181
169 174 181
169 174 181
170 174 181
170 175 181
170 175 181
170 175 181
171 175 181
171 175 181
171 175 181
172 175 181
172 176 181
172 176 181
173 176 181
173 176 181
173 176 181
174 177 181
174 177 181
174 177 181
175 177 181
175 177 181
176 178 181
176 178 181
177 178 181
177 178 181
178 178 181
178 179 181
179 179 181
179 179 181
180 180 181
181 180 181
182 181 181
184 182 182
198 201 208
213 222 237
222 236 255
223 236 255
223 236 255
223 236 255
223 236 255
223 236 255
223 236 255
223 236 255
223 236 255
223 236 255
223 236 255
223 236 255
223 236 255
223 236 255
223 236 255
223 236 255
223 236 255
223 236 255
223 236 255
223 236 255
223 236 255
223 236 255
223 236 255
223 236 255
223 236 255
223 236 255
223 236 255
223 236 255
223 236 255
223 236 255
223 236 255
223 236 255
223 236 255
223 236 255
223 236 255
223 236 255
223 236 255
223 236 255
223 236 255
223 236 255
223 236 255
223 236 255
223 236 255
223 236 255
223 236 255
223 236 255
223 236 255
223 236 255
223 236 255
223 236 255
223 236 255
223 236 255
223 236 255
223 236 255
223 236 255
223 236 255
223 236 255
223 236 255
223 236 255
223 236 255
223 236 255
223 236 255
223 236 255
223 236 255
223 236 255
223 236 255
223 236 255
223 236 255
223 236 255
223 236 255
223 236 255
223 236 255
223 236 255
223 236 255
223 236 255
223 236 255
223 236 255
223 236 255
223 236 255
223 236 255
223 236 255
223 236 255
223 236 255
223 236 255
223 236 255
223 236 255
223 236 255
223 236 255
223 236 255
223 236 255
223 236 255
223 236 255
223 236 255
223 236 255
223 236 255
223 236 255
223 236 255
223 236 255
223 236 255
223 236 255
223 236 255
223 236 255
223 236 255
223 236 255
223 236 255
223 236 255
223 236 255
223 236 255
223 236 255
223 236 255
223 236 255
223 236 255
223 236 255
223 236 255
223 236 255
223 236 255
223 236 255
223 236 255
223 236 255
223 236 255
223 236 255
223 236 255
223 236 255
223 236 255
223 236 255
223 236 255
223 236 255
223 236 255
223 236 255
223 236 255
223 236 255
223 236 255
223 236 255
223 236 255
223 236 255
223 236 255
223 236 255
223 236 255
223 236 255
223 236 255
223 236 255
223 236 255
223 236 255
223 236 255
223 236 255
223 236 255
223 236 255
223 236 255
223 236 255
223 236 255
223 236 255
223 236 255
223 236 255
223 236 255
223 236 255
223 236 255
223 236 255
223 236 255
223 236 255
223 236 255
223 236 255
223 236 255
223 236 255
223 236 255
223 236 255
223 236 255
223 236 255
223 236 255
223 236 255
223 236 255
223 236 255
223 236 255
223 236 255
223 236 255
223 236 255
223 236 255
223 236 255
223 236 255
223 236 255
223 236 255
223 236 255
223 236 255
223 236 255
223 236 255
223 236 255
223 236 255
223 236 255
223 236 255
223 236 255
223 236 255
223 236 255
223 236 255
223 236 255
223 236 255
223 236 255
223 236 255
223 236 255
223 236 255
223 236 255
223 236 255
223 236 255
223 236 255
223 236 255
223 236 255
223 236 255
223 236 255
223 236 255
223 236 255
223 236 255
223 236 255
223 236 255
223 236 255
223 236 255
223 236 255
223 236 255
223 236 255
223 236 255
223 236 255
223 236 255
223 236 255
223 236 255
223 236 255
223 236 255
223 236 255
223 236 255
223 236 255
223 236 255
223 236 255
223 236 255
223 236 255
223 236 255
223 236 255
223 236 255
223 236 255
223 236 255
223 236 255
223 236 255
223 236 255
223 236 255
223 236 255
223 236 255
223 236 255
223 236 255
223 236 255
223 236 255
223 236 255
223 236 255
223 236 255
223 236 255
223 236 255
223 236 255
223 236 255
223 236 255
223 236 255
223 236 255
223 236 255
223 236 255
223 236 255
223 236 255
223 236 255
223 236 255
223 236 255
223 236 255
223 236 255
223 236 255
223 236 255
223 236 255
223 236 255
223 236 255
223 236 255
223 236 255
223 236 255
223 236 255
223 236 255
223 236 255
223 236 255
223 236 255
223 236 255
223 236 255
223 236 255
223 236 255
223 236 255
223 236 255
223 236 255
223 236 255
223 236 255
223 236 255
223 236 255
223 236 255
223 236 255
223 236 255
223 236 255
223 236 255
223 236 255
223 236 255
223 236 255
223 236 255
223 236 255
223 236 255
223 236 255
223 236 255
223 236 255
223 236 255
223 236 255
223 236 255
223 236 255
223 236 255
223 236 255
223 236 255
223 236 255
223 236 255
223 236 255
223 236 255
223 236 255
223 236 255
223 236 255
223 236 255
223 236 255
223 236 255
223 236 255
223 236 255
223 236 255
223 236 255
223 236 255
223 236 255
223 236 255
223 236 255
223 236 255
223 236 255
223 236 255
223 236 255
223 236 255
223 236 255
223 236 255
223 236 255
223 236 255
223 236 255
223 236 255
223 236 255
223 236 255
223 236 255
