P3
1600 1
255
223 236 255
223 236 255
223 236 255
223 236 255
223 236 255
223 236 255
223 236 255
223 236 255
223 236 255
223 236 255
223 236 255
223 236 255
223 236 255
223 236 255
223 236 255
223 236 255
223 236 255
223 236 255
223 236 255
223 236 255
223 236 255
223 236 255
223 236 255
223 236 255
223 236 255
223 236 255
223 236 255
223 236 255
223 236 255
223 236 255
223 236 255
223 236 255
223 236 255
223 236 255
223 236 255
223 236 255
223 236 255
223 236 255
223 236 255
223 236 255
223 236 255
223 236 255
223 236 255
223 236 255
223 236 255
223 236 255
223 236 255
223 236 255
223 236 255
223 236 255
223 236 255
223 236 255
223 236 255
223 236 255
223 236 255
223 236 255
223 236 255
223 236 255
223 236 255
223 236 255
223 236 255
223 236 255
223 236 255
223 236 255
223 236 255
223 236 255
223 236 255
223 236 255
223 236 255
223 236 255
223 236 255
223 236 255
223 236 255
223 236 255
223 236 255
223 236 255
223 236 255
223 236 255
223 236 255
223 236 255
223 236 255
223 236 255
223 236 255
223 236 255
223 236 255
223 236 255
223 236 255
223 236 255
223 236 255
223 236 255
223 236 255
223 236 255
223 236 255
223 236 255
223 236 255
223 236 255
223 236 255
223 236 255
223 236 255
223 236 255
223 236 255
223 236 255
223 236 255
223 236 255
223 236 255
223 236 255
223 236 255
223 236 255
223 236 255
223 236 255
223 236 255
223 236 255
223 236 255
223 236 255
223 236 255
223 236 255
223 236 255
223 236 255
223 236 255
223 236 255
223 236 255
223 236 255
223 236 255
223 236 255
223 236 255
223 236 255
223 236 255
223 236 255
223 236 255
223 236 255
223 236 255
223 236 255
223 236 255
223 236 255
223 236 255
223 236 255
223 236 255
223 236 255
223 236 255
223 236 255
223 236 255
223 236 255
223 236 255
223 236 255
223 236 255
223 236 255
223 236 255
223 236 255
223 236 255
223 236 255
223 236 255
223 236 255
223 236 255
223 236 255
223 236 255
223 236 255
223 236 255
223 236 255
223 236 255
223 236 255
223 236 255
223 236 255
223 236 255
223 236 255
223 236 255
223 236 255
223 236 255
223 236 255
223 236 255
223 236 255
223 236 255
223 236 255
223 236 255
223 236 255
223 236 255
223 236 255
223 236 255
223 236 255
223 236 255
223 236 255
223 236 255
223 236 255
223 236 255
223 236 255
223 236 255
223 236 255
223 236 255
223 236 255
223 236 255
223 236 255
223 236 255
223 236 255
223 236 255
223 236 255
223 236 255
223 236 255
223 236 255
223 236 255
223 236 255
223 236 255
223 236 255
223 236 255
223 236 255
223 236 255
223 236 255
223 236 255
223 236 255
223 236 255
223 236 255
223 236 255
223 236 255
223 236 255
223 236 255
223 236 255
223 236 255
223 236 255
223 236 255
223 236 255
223 236 255
223 236 255
223 236 255
223 236 255
223 236 255
223 236 255
223 236 255
223 236 255
223 236 255
223 236 255
223 236 255
223 236 255
223 236 255
223 236 255
223 236 255
223 236 255
223 236 255
223 236 255
223 236 255
223 236 255
223 236 255
223 236 255
223 236 255
223 236 255
223 236 255
223 236 255
223 236 255
223 236 255
223 236 255
223 236 255
223 236 255
223 236 255
223 236 255
223 236 255
223 236 255
223 236 255
223 236 255
223 236 255
223 236 255
223 236 255
223 236 255
223 236 255
223 236 255
223 236 255
223 236 255
223 236 255
223 236 255
223 236 255
223 236 255
223 236 255
223 236 255
223 236 255
223 236 255
223 236 255
223 236 255
223 236 255
223 236 255
223 236 255
223 236 255
223 236 255
223 236 255
223 236 255
223 236 255
223 236 255
223 236 255
223 236 255
223 236 255
223 236 255
223 236 255
223 236 255
223 236 255
223 236 255
223 236 255
223 236 255
223 236 255
223 236 255
223 236 255
223 236 255
223 236 255
223 236 255
223 236 255
223 236 255
223 236 255
223 236 255
223 236 255
223 236 255
223 236 255
223 236 255
223 236 255
223 236 255
223 236 255
223 236 255
223 236 255
223 236 255
223 236 255
223 236 255
223 236 255
223 236 255
223 236 255
223 236 255
223 236 255
223 236 255
223 236 255
223 236 255
223 236 255
223 236 255
223 236 255
223 236 255
223 236 255
223 236 255
223 236 255
223 236 255
223 236 255
223 236 255
223 236 255
223 236 255
223 236 255
223 236 255
223 236 255
223 236 255
223 236 255
223 236 255
223 236 255
223 236 255
223 236 255
223 236 255
223 236 255
223 236 255
223 236 255
223 236 255
223 236 255
223 236 255
223 236 255
223 236 255
223 236 255
223 236 255
223 236 255
223 236 255
223 236 255
223 236 255
223 236 255
223 236 255
223 236 255
223 236 255
223 236 255
223 236 255
223 236 255
223 236 255
223 236 255
223 236 255
223 236 255
223 236 255
223 236 255
223 236 255
223 236 255
223 236 255
223 236 255
223 236 255
223 236 255
223 236 255
223 236 255
223 236 255
223 236 255
223 236 255
223 236 255
223 236 255
223 236 255
223 236 255
223 236 255
223 236 255
223 236 255
223 236 255
223 236 255
223 236 255
223 236 255
223 236 255
223 236 255
223 236 255
223 236 255
223 236 255
223 236 255
223 236 255
223 236 255
223 236 255
223 236 255
223 236 255
223 236 255
223 236 255
223 236 255
223 236 255
223 236 255
223 236 255
223 236 255
223 236 255
223 236 255
223 236 255
223 236 255
223 236 255
223 236 255
223 236 255
223 236 255
223 236 255
223 236 255
223 236 255
223 236 255
223 236 255
223 236 255
223 236 255
223 236 255
223 236 255
223 236 255
223 236 255
223 236 255
223 236 255
223 236 255
223 236 255
223 236 255
223 236 255
223 236 255
223 236 255
223 236 255
223 236 255
223 236 255
223 236 255
223 236 255
223 236 255
223 236 255
223 236 255
223 236 255
223 236 255
223 236 255
223 236 255
223 236 255
223 236 255
223 236 255
223 236 255
223 236 255
223 236 255
223 236 255
223 236 255
223 236 255
223 236 255
223 236 255
223 236 255
223 236 255
223 236 255
223 236 255
223 236 255
223 236 255
223 236 255
223 236 255
223 236 255
223 236 255
223 236 255
223 236 255
223 236 255
223 236 255
223 236 255
223 236 255
223 236 255
223 236 255
223 236 255
223 236 255
223 236 255
223 236 255
223 236 255
223 236 255
223 236 255
223 236 255
223 236 255
223 236 255
223 236 255
223 236 255
223 236 255
223 236 255
223 236 255
223 236 255
223 236 255
223 236 255
223 236 255
223 236 255
223 236 255
223 236 255
223 236 255
223 236 255
223 236 255
223 236 255
223 236 255
223 236 255
223 236 255
223 236 255
223 236 255
223 236 255
223 236 255
223 236 255
223 236 255
223 236 255
223 236 255
217 230 247
210 221 238
212 223 240
197 205 219
185 189 200
170 170 178
164 162 167
142 131 129
134 121 116
128 110 101
113 91 75
107 84 68
113 88 71
113 89 72
111 88 70
110 87 69
115 91 73
111 88 70
113 89 71
115 90 72
114 90 71
113 89 71
111 87 70
117 92 73
114 90 72
119 92 73
114 89 72
116 92 74
110 87 70
112 88 71
119 92 74
109 87 69
114 89 71
111 86 69
111 88 70
109 86 69
108 86 68
110 88 70
111 87 70
110 87 69
109 87 70
109 87 70
110 87 70
115 90 72
111 87 69
111 87 70
112 87 70
114 90 72
114 89 71
109 86 69
110 88 70
112 89 70
110 88 70
116 91 73
109 86 68
116 91 73
112 89 70
115 90 72
112 88 71
115 91 73
119 93 74
112 89 71
113 89 71
110 87 69
114 89 71
113 88 71
115 91 72
112 87 70
109 86 69
119 94 76
115 90 72
110 88 69
110 86 69
114 90 71
114 89 71
113 89 72
113 88 70
115 91 72
110 86 70
108 85 69
113 89 71
116 91 73
111 87 70
114 90 72
113 89 71
111 87 70
110 87 70
118 92 74
113 90 72
110 87 69
113 90 72
115 90 72
116 91 73
111 87 70
108 85 67
108 86 69
114 90 72
117 92 74
115 90 72
115 90 72
111 87 70
112 88 71
113 89 71
108 86 69
113 90 72
112 88 70
113 94 83
124 117 117
145 142 147
135 136 145
148 154 166
158 171 189
169 183 204
164 180 202
158 174 196
150 169 189
153 169 193
153 171 195
148 164 187
148 165 189
148 164 189
142 156 189
142 153 193
135 139 190
135 136 197
133 127 206
132 122 211
131 118 213
135 122 217
140 127 223
128 113 209
134 120 215
134 118 214
130 117 207
126 113 202
122 109 200
111 96 181
110 104 167
110 109 161
107 113 147
118 127 159
100 112 129
116 131 150
114 127 145
113 127 145
118 131 151
119 135 152
112 126 139
106 119 131
104 117 130
106 119 125
88 100 108
86 99 103
78 90 95
84 94 95
83 96 98
86 98 101
73 85 82
93 106 108
90 101 99
100 114 119
105 119 126
101 117 124
106 120 129
113 127 139
118 134 151
112 127 138
121 138 151
127 144 162
125 142 158
121 137 151
134 152 172
134 151 172
128 145 166
124 142 160
125 142 163
124 141 159
137 155 177
127 143 164
129 146 167
132 149 170
126 142 163
125 143 165
126 143 163
127 143 164
128 145 167
127 144 164
134 151 175
134 151 174
121 137 156
125 141 160
127 143 164
130 144 165
130 145 167
130 145 168
127 142 165
124 139 160
125 139 158
127 141 159
127 141 160
130 147 169
120 130 146
128 143 164
125 139 160
122 135 156
126 137 156
123 136 154
126 140 161
124 138 158
127 140 159
128 143 163
129 144 165
128 143 164
126 139 158
123 137 156
130 145 168
127 142 162
119 132 151
127 140 161
130 145 166
126 137 157
125 139 158
129 143 163
122 135 155
127 141 161
125 139 161
123 137 157
127 142 163
127 141 163
122 138 159
121 136 157
122 135 155
129 146 168
128 144 166
123 138 158
120 134 154
122 137 158
124 138 159
122 133 153
123 137 157
125 139 160
119 132 151
126 140 160
131 145 166
123 137 156
124 138 158
125 141 161
124 140 160
121 136 156
126 141 163
116 128 147
121 135 155
126 141 162
123 137 158
119 133 152
121 134 154
126 141 163
120 132 150
119 130 148
121 136 155
121 134 153
122 135 155
122 135 156
122 134 153
110 120 135
118 129 148
119 133 152
123 137 156
119 131 150
111 123 141
126 141 162
129 144 165
125 137 158
120 134 154
118 129 149
126 141 162
117 131 150
125 138 158
110 121 138
118 130 150
114 125 143
118 130 149
128 141 163
113 124 141
103 106 118
98 102 114
80 81 89
72 74 83
73 80 91
62 67 76
64 70 81
76 83 95
80 88 101
89 99 113
89 98 108
101 113 123
107 119 135
111 122 140
107 118 136
112 123 141
114 127 144
120 132 153
118 127 149
115 125 142
108 119 136
116 128 146
112 125 139
108 118 129
119 125 129
160 160 162
180 179 179
181 180 181
180 180 181
180 179 181
179 179 181
178 179 181
178 179 181
177 178 181
177 178 181
177 178 181
176 178 181
176 178 181
175 177 181
175 177 181
175 177 181
174 177 181
174 177 181
174 176 181
173 176 181
173 176 181
173 176 181
172 176 181
172 176 181
172 176 181
171 175 181
171 175 181
171 175 181
171 175 181
170 175 181
170 175 181
170 175 181
170 174 181
169 174 181
169 174 181
169 174 181
169 174 181
168 174 181
168 174 181
168 174 181
168 174 181
168 173 181
167 173 181
167 173 181
167 173 181
167 173 181
167 173 181
166 173 181
166 173 181
166 173 181
166 173 181
166 172 181
165 172 181
165 172 181
165 172 181
165 172 181
165 172 181
164 172 181
164 172 181
164 172 181
164 172 181
164 172 181
164 171 181
163 171 181
163 171 181
163 171 181
163 171 181
163 171 181
163 171 181
163 171 181
162 171 181
162 171 181
162 171 181
162 171 181
162 171 181
162 171 181
162 170 181
161 170 181
161 170 181
161 170 181
161 170 181
161 170 181
161 170 181
161 170 181
160 170 181
160 170 181
160 170 181
160 170 181
160 170 181
160 170 181
160 170 181
160 170 181
159 169 181
159 169 181
159 169 181
159 169 181
159 169 181
159 169 181
159 169 181
159 169 181
159 169 181
158 169 181
158 169 181
158 169 181
158 169 181
158 169 181
158 169 181
158 169 181
158 169 181
158 169 181
157 169 181
157 168 181
157 168 181
157 168 181
157 168 181
157 168 181
157 168 181
157 168 181
157 168 181
157 168 181
157 168 181
156 168 181
156 168 181
156 168 181
156 168 181
156 168 181
156 168 181
156 168 181
156 168 181
156 168 181
156 168 181
156 168 181
156 168 181
156 168 181
155 168 181
155 167 181
155 167 181
155 167 181
155 167 181
155 167 181
155 167 181
155 167 181
155 167 181
155 167 181
155 167 181
155 167 181
155 167 181
155 167 181
155 167 181
154 167 181
154 167 181
154 167 181
154 167 181
154 167 181
154 167 181
154 167 181
154 167 181
154 167 181
154 167 181
154 167 181
154 167 181
154 167 181
154 167 181
154 167 181
154 167 181
154 167 181
154 167 181
154 167 181
153 167 181
153 167 181
153 167 181
153 167 181
153 167 181
153 167 181
153 166 181
153 166 181
153 166 181
153 166 181
153 166 181
153 166 181
153 166 181
153 166 181
153 166 181
153 166 181
153 166 181
153 166 181
153 166 181
153 166 181
153 166 181
153 166 181
153 166 181
153 166 181
153 166 181
153 166 181
153 166 181
153 166 181
153 166 181
153 166 181
153 166 181
153 166 181
153 166 181
153 166 181
153 166 181
153 166 181
153 166 181
153 166 181
152 166 181
152 166 181
152 166 181
152 166 181
152 166 181
152 166 181
152 166 181
152 166 181
152 166 181
152 166 181
152 166 181
152 166 181
152 166 181
152 166 181
152 166 181
152 166 181
152 166 181
152 166 181
152 166 181
152 166 181
152 166 181
152 166 181
152 166 181
152 166 181
152 166 181
152 166 181
152 166 181
153 166 181
153 166 181
153 166 181
153 166 181
153 166 181
153 166 181
153 166 181
153 166 181
153 166 181
153 166 181
153 166 181
153 166 181
153 166 181
153 166 181
153 166 181
153 166 181
153 166 181
153 166 181
153 166 181
153 166 181
153 166 181
153 166 181
153 166 181
153 166 181
153 166 181
153 166 181
153 166 181
153 166 181
153 166 181
153 166 181
153 166 181
153 166 181
153 166 181
153 167 181
153 167 181
153 167 181
153 167 181
153 167 181
154 167 181
154 167 181
154 167 181
154 167 181
154 167 181
154 167 181
154 167 181
154 167 181
154 167 181
154 167 181
154 167 181
154 167 181
154 167 181
154 167 181
154 167 181
154 167 181
154 167 181
154 167 181
154 167 181
154 167 181
155 167 181
155 167 181
155 167 181
155 167 181
155 167 181
155 167 181
155 167 181
155 167 181
155 167 181
155 167 181
155 167 181
155 167 181
155 167 181
155 168 181
155 168 181
156 168 181
156 168 181
156 168 181
156 168 181
156 168 181
156 168 181
156 168 181
156 168 181
156 168 181
156 168 181
156 168 181
156 168 181
157 168 181
157 168 181
157 168 181
157 168 181
157 168 181
157 168 181
157 168 181
157 168 181
157 168 181
157 168 181
157 168 181
158 169 181
158 169 181
158 169 181
158 169 181
158 169 181
158 169 181
158 169 181
158 169 181
158 169 181
158 169 181
159 169 181
159 169 181
159 169 181
159 169 181
159 169 181
159 169 181
159 169 181
159 169 181
159 169 181
160 170 181
160 170 181
160 170 181
160 170 181
160 170 181
160 170 181
160 170 181
160 170 181
161 170 181
161 170 181
161 170 181
161 170 181
161 170 181
161 170 181
161 170 181
162 170 181
162 171 181
162 171 181
162 171 181
162 171 181
162 171 181
162 171 181
163 171 181
163 171 181
163 171 181
163 171 181
163 171 181
163 171 181
163 171 181
164 171 181
164 172 181
164 172 181
164 172 181
164 172 181
164 172 181
165 172 181
165 172 181
165 172 181
165 172 181
165 172 181
166 172 181
166 173 181
166 173 181
166 173 181
166 173 181
166 173 181
167 173 181
167 173 181
167 173 181
167 173 181
168 173 181
168 174 181
168 174 181
168 174 181
168 174 181
169 174 181
169 174 181
169 174 181
169 174 181
170 174 181
170 175 181
170 175 181
170 175 181
171 175 181
171 175 181
171 175 181
171 175 181
172 175 181
172 176 181
172 176 181
173 176 181
173 176 181
173 176 181
173 176 181
174 177 181
174 177 181
174 177 181
175 177 181
175 177 181
176 177 181
176 178 181
176 178 181
177 178 181
177 178 181
178 179 181
178 179 181
179 179 181
179 179 181
180 180 181
180 180 181
181 180 181
182 181 181
184 183 182
196 199 205
218 229 246
222 236 255
223 236 255
223 236 255
223 236 255
223 236 255
223 236 255
223 236 255
223 236 255
223 236 255
223 236 255
223 236 255
223 236 255
223 236 255
223 236 255
223 236 255
223 236 255
223 236 255
223 236 255
223 236 255
223 236 255
223 236 255
223 236 255
223 236 255
223 236 255
223 236 255
223 236 255
223 236 255
223 236 255
223 236 255
223 236 255
223 236 255
223 236 255
223 236 255
223 236 255
223 236 255
223 236 255
223 236 255
223 236 255
223 236 255
223 236 255
223 236 255
223 236 255
223 236 255
223 236 255
223 236 255
223 236 255
223 236 255
223 236 255
223 236 255
223 236 255
223 236 255
223 236 255
223 236 255
223 236 255
223 236 255
223 236 255
223 236 255
223 236 255
223 236 255
223 236 255
223 236 255
223 236 255
223 236 255
223 236 255
223 236 255
223 236 255
223 236 255
223 236 255
223 236 255
223 236 255
223 236 255
223 236 255
223 236 255
223 236 255
223 236 255
223 236 255
223 236 255
223 236 255
223 236 255
223 236 255
223 236 255
223 236 255
223 236 255
223 236 255
223 236 255
223 236 255
223 236 255
223 236 255
223 236 255
223 236 255
223 236 255
223 236 255
223 236 255
223 236 255
223 236 255
223 236 255
223 236 255
223 236 255
223 236 255
223 236 255
223 236 255
223 236 255
223 236 255
223 236 255
223 236 255
223 236 255
223 236 255
223 236 255
223 236 255
223 236 255
223 236 255
223 236 255
223 236 255
223 236 255
223 236 255
223 236 255
223 236 255
223 236 255
223 236 255
223 236 255
223 236 255
223 236 255
223 236 255
223 236 255
223 236 255
223 236 255
223 236 255
223 236 255
223 236 255
223 236 255
223 236 255
223 236 255
223 236 255
223 236 255
223 236 255
223 236 255
223 236 255
223 236 255
223 236 255
223 236 255
223 236 255
223 236 255
223 236 255
223 236 255
223 236 255
223 236 255
223 236 255
223 236 255
223 236 255
223 236 255
223 236 255
223 236 255
223 236 255
223 236 255
223 236 255
223 236 255
223 236 255
223 236 255
223 236 255
223 236 255
223 236 255
223 236 255
223 236 255
223 236 255
223 236 255
223 236 255
223 236 255
223 236 255
223 236 255
223 236 255
223 236 255
223 236 255
223 236 255
223 236 255
223 236 255
223 236 255
223 236 255
223 236 255
223 236 255
223 236 255
223 236 255
223 236 255
223 236 255
223 236 255
223 236 255
223 236 255
223 236 255
223 236 255
223 236 255
223 236 255
223 236 255
223 236 255
223 236 255
223 236 255
223 236 255
223 236 255
223 236 255
223 236 255
223 236 255
223 236 255
223 236 255
223 236 255
223 236 255
223 236 255
223 236 255
223 236 255
223 236 255
223 236 255
223 236 255
223 236 255
223 236 255
223 236 255
223 236 255
223 236 255
223 236 255
223 236 255
223 236 255
223 236 255
223 236 255
223 236 255
223 236 255
223 236 255
223 236 255
223 236 255
223 236 255
223 236 255
223 236 255
223 236 255
223 236 255
223 236 255
223 236 255
223 236 255
223 236 255
223 236 255
223 236 255
223 236 255
223 236 255
223 236 255
223 236 255
223 236 255
223 236 255
223 236 255
223 236 255
223 236 255
223 236 255
223 236 255
223 236 255
223 236 255
223 236 255
223 236 255
223 236 255
223 236 255
223 236 255
223 236 255
223 236 255
223 236 255
223 236 255
223 236 255
223 236 255
223 236 255
223 236 255
223 236 255
223 236 255
223 236 255
223 236 255
223 236 255
223 236 255
223 236 255
223 236 255
223 236 255
223 236 255
223 236 255
223 236 255
223 236 255
223 236 255
223 236 255
223 236 255
223 236 255
223 236 255
223 236 255
223 236 255
223 236 255
223 236 255
223 236 255
223 236 255
223 236 255
223 236 255
223 236 255
223 236 255
223 236 255
223 236 255
223 236 255
223 236 255
223 236 255
223 236 255
223 236 255
223 236 255
223 236 255
223 236 255
223 236 255
223 236 255
223 236 255
223 236 255
223 236 255
223 236 255
223 236 255
223 236 255
223 236 255
223 236 255
223 236 255
223 236 255
223 236 255
223 236 255
223 236 255
223 236 255
223 236 255
223 236 255
223 236 255
223 236 255
223 236 255
223 236 255
223 236 255
223 236 255
223 236 255
223 236 255
223 236 255
223 236 255
223 236 255
223 236 255
223 236 255
223 236 255
223 236 255
