P3
1600 1
255
215 229 248
218 231 250
216 230 249
215 229 248
216 230 249
214 228 247
216 230 249
218 232 251
217 230 250
212 226 246
213 227 246
217 230 250
220 233 252
217 231 250
214 228 247
219 233 252
219 233 252
215 229 248
212 226 246
212 226 245
219 233 252
213 227 246
215 229 248
218 231 250
214 228 247
215 228 248
217 230 250
213 227 246
215 229 248
214 228 247
213 227 246
212 226 245
214 228 247
212 226 246
213 227 246
211 225 244
213 227 247
211 225 245
217 231 250
210 224 244
217 231 250
218 231 250
211 225 244
213 227 246
214 228 248
212 226 245
212 226 245
213 227 246
213 227 246
213 227 246
214 228 247
211 225 244
211 225 244
212 226 246
215 229 248
212 226 245
214 228 247
216 230 249
209 223 242
210 224 244
212 226 246
210 224 244
207 221 241
209 223 242
214 228 248
217 230 250
219 232 252
211 225 244
209 223 243
208 222 242
214 228 247
205 219 239
209 223 242
214 228 247
215 228 248
216 230 249
216 230 249
209 223 242
212 226 246
209 224 243
205 220 240
212 226 246
208 222 241
207 221 241
214 228 247
204 218 238
202 216 236
212 226 245
214 228 248
206 220 240
213 227 246
208 222 241
210 224 244
212 226 245
207 221 240
218 231 250
215 229 248
210 224 244
212 226 245
207 221 240
208 222 242
211 225 244
214 228 248
215 228 248
208 222 242
208 223 242
210 224 244
213 227 246
211 224 244
208 222 242
208 222 242
208 222 242
214 228 247
211 225 244
211 225 244
209 223 243
208 222 242
209 223 243
209 223 242
209 223 242
214 228 247
215 228 248
207 221 240
208 222 242
207 221 240
206 220 240
209 223 242
204 218 238
210 224 243
207 221 241
204 218 238
206 221 240
208 223 242
205 219 239
206 221 240
212 226 246
206 220 240
204 218 238
209 223 242
207 221 241
206 220 240
207 221 241
205 219 239
208 222 242
200 214 234
208 222 242
208 222 242
208 222 242
204 218 238
209 223 242
208 222 242
205 219 239
207 221 241
209 223 242
203 218 238
204 218 238
209 223 242
203 217 237
209 223 242
209 223 242
208 222 242
203 218 238
205 219 239
209 223 242
202 216 236
210 224 244
199 213 233
209 223 243
202 216 236
203 218 238
209 223 242
209 223 242
204 218 238
194 209 229
206 220 240
205 219 238
206 220 240
208 222 242
206 220 240
205 219 239
203 217 237
207 221 240
203 217 237
205 219 238
210 224 244
206 220 240
206 220 240
207 221 241
204 218 238
209 223 243
206 221 240
199 213 233
204 218 238
208 222 241
203 218 238
210 224 244
210 224 243
205 219 239
203 217 237
207 221 241
205 219 239
209 223 242
205 219 239
200 215 235
210 224 244
204 218 238
205 219 239
198 213 233
206 220 240
204 218 238
203 217 237
202 216 236
202 217 237
201 216 236
202 216 236
200 214 234
206 220 240
202 216 236
199 213 233
199 213 233
199 213 233
205 219 239
205 219 239
204 219 238
205 219 239
203 218 238
202 217 236
206 220 240
201 216 236
203 217 237
201 215 236
199 213 233
202 216 236
204 218 238
209 223 243
197 212 232
203 217 237
194 209 229
203 217 237
208 222 242
204 218 238
202 216 236
199 213 233
199 214 233
203 218 238
199 213 233
204 218 238
199 214 234
196 211 231
203 217 237
201 216 236
202 216 236
198 213 233
199 214 233
197 212 232
201 216 236
200 214 234
198 213 233
201 215 235
196 210 231
209 223 242
201 216 236
198 213 233
206 220 240
194 209 229
200 214 234
198 212 232
203 217 237
200 215 235
194 209 230
202 216 236
200 215 235
200 214 234
202 216 236
201 216 236
197 211 231
201 215 236
203 217 237
197 211 231
199 214 234
204 218 238
197 212 232
200 215 235
204 218 238
197 212 232
197 212 232
200 214 234
202 216 236
199 213 233
196 210 231
186 202 223
201 216 236
199 213 233
201 216 236
201 216 236
202 216 236
202 216 236
193 208 228
196 211 231
197 212 232
194 209 229
194 209 229
197 211 231
198 213 233
200 214 234
190 205 226
203 218 238
189 204 225
201 216 236
200 215 235
198 213 233
200 215 235
194 208 228
194 209 229
195 209 229
195 210 230
200 214 234
198 212 233
195 210 230
201 215 236
204 218 238
204 218 238
196 211 231
197 212 232
193 208 228
193 208 228
193 208 228
197 212 232
193 208 228
198 213 233
192 207 228
198 212 232
199 213 233
195 210 230
200 214 234
194 209 229
199 214 233
204 218 238
195 210 230
198 213 233
204 218 238
196 211 231
204 218 238
199 213 233
192 207 227
194 208 228
202 216 236
197 211 231
197 211 231
199 214 233
192 207 228
204 219 238
192 207 228
198 213 233
197 212 232
197 212 232
196 211 231
197 212 232
198 212 232
197 211 231
195 210 230
195 210 230
189 204 224
190 205 226
192 207 228
200 215 235
194 209 229
197 212 232
192 207 227
189 204 224
193 207 228
191 206 226
195 210 230
196 211 231
197 212 232
195 210 230
193 208 228
190 205 225
197 212 232
188 203 224
197 212 232
196 211 231
197 211 231
193 208 228
189 204 225
197 212 232
194 208 228
195 209 229
192 206 227
200 214 234
188 203 224
191 205 226
196 210 231
201 216 236
197 212 232
193 208 228
199 213 233
197 211 231
187 203 223
194 209 229
200 214 234
197 211 231
198 212 232
195 210 230
198 212 232
195 210 230
193 208 228
189 204 224
195 210 230
197 212 232
191 206 227
184 199 220
192 207 227
198 212 233
185 200 221
191 206 226
186 201 222
190 204 224
198 213 233
199 214 234
194 209 229
191 206 226
185 200 221
190 205 225
182 197 218
189 204 224
197 212 231
197 211 231
191 206 226
188 203 223
190 205 226
191 206 226
196 210 231
190 205 226
195 210 230
193 208 228
194 209 229
185 200 220
200 215 235
192 207 227
191 206 226
186 201 222
187 202 223
192 207 227
199 214 234
193 208 228
187 202 223
188 203 223
192 207 227
184 199 220
186 201 222
200 214 234
193 208 228
193 208 228
189 204 224
184 199 220
194 208 228
189 204 225
189 204 224
194 208 228
195 210 230
193 208 228
196 211 231
193 208 228
190 204 225
187 202 223
191 205 226
185 200 221
193 208 228
195 209 229
190 205 226
188 203 223
188 203 223
190 205 225
189 204 225
194 209 229
200 215 235
187 203 223
194 209 229
192 207 228
185 200 220
192 207 227
194 209 229
185 200 220
187 202 223
196 211 231
195 210 230
194 208 228
186 201 222
187 202 223
188 203 224
179 195 216
186 201 222
188 203 224
188 203 223
188 203 224
192 207 228
190 204 225
190 205 226
187 203 223
193 208 228
190 205 226
191 206 226
191 206 226
186 201 221
193 208 228
190 205 226
189 204 225
189 204 224
191 206 226
181 197 217
189 204 224
184 199 220
183 197 217
192 204 222
175 186 203
166 172 186
163 166 177
145 143 149
143 140 144
137 129 130
123 107 100
116 96 83
112 87 70
111 88 71
103 80 65
112 87 69
111 88 69
111 86 69
114 89 71
109 86 68
111 87 70
114 89 71
114 89 71
106 85 66
111 87 69
110 87 69
107 84 67
106 84 68
114 90 72
111 88 69
115 90 71
111 88 70
109 86 69
108 85 68
112 88 70
116 91 72
109 85 68
110 88 69
114 90 71
113 89 71
109 86 69
112 88 71
110 86 69
113 89 70
114 89 70
109 85 68
109 86 69
111 88 70
113 89 71
112 88 70
108 85 67
108 85 68
112 88 68
112 88 70
105 84 67
109 86 69
104 82 65
108 85 68
108 88 69
114 90 72
112 88 70
108 87 68
111 87 68
103 82 65
110 87 70
106 84 66
106 84 66
108 86 68
111 87 69
109 86 68
105 83 66
110 87 70
110 87 69
109 86 68
114 91 72
110 87 69
110 87 69
111 87 69
110 86 68
111 87 69
111 87 69
112 89 71
109 86 69
107 85 68
110 86 68
107 85 68
110 87 69
109 86 68
112 88 71
114 89 71
108 85 67
106 84 67
110 86 68
111 87 69
111 89 71
112 89 71
112 89 72
114 91 72
111 87 70
108 85 67
108 86 69
109 86 68
108 85 68
115 89 72
117 100 91
129 120 118
139 135 139
145 149 161
148 159 175
155 168 186
152 167 186
142 156 174
141 155 175
140 155 174
149 163 183
149 164 185
159 175 196
146 163 185
147 165 188
141 159 182
143 160 185
142 158 186
146 159 194
140 144 206
141 136 221
138 128 226
143 131 233
141 125 236
134 122 223
133 122 224
137 129 222
136 129 219
138 133 216
134 132 206
144 148 204
127 128 178
120 124 162
119 124 152
109 117 135
110 119 137
115 129 144
127 144 162
124 143 154
129 148 150
123 147 132
117 144 114
113 141 88
118 146 89
120 153 73
117 145 78
128 153 104
121 148 82
132 159 92
127 155 85
109 140 65
121 151 73
128 157 92
121 151 79
114 143 65
127 151 96
118 147 71
122 152 80
114 141 92
113 134 107
113 132 117
122 136 149
121 132 146
119 132 147
113 127 140
106 121 134
112 124 138
113 129 144
111 123 138
114 128 143
108 122 135
110 124 139
112 125 138
109 124 138
114 127 142
117 130 147
120 134 152
117 132 148
109 121 138
111 123 140
113 128 144
118 130 147
109 117 133
102 109 123
115 121 140
109 114 130
113 109 125
116 105 120
115 94 111
108 84 98
110 78 93
118 85 102
121 88 106
112 76 90
114 80 96
120 91 107
104 71 85
113 85 100
111 74 88
112 76 92
113 85 100
97 66 79
105 76 90
111 78 92
110 83 97
112 101 118
111 110 126
125 135 156
120 132 152
122 132 151
119 132 151
123 137 157
126 141 161
129 144 166
125 142 164
129 144 165
122 136 157
133 149 172
125 139 160
120 134 154
127 144 165
125 142 162
121 136 154
125 138 158
126 142 163
123 137 157
125 142 163
122 136 157
123 137 157
115 128 146
119 133 152
125 139 160
121 135 158
119 132 153
118 131 153
123 138 162
119 134 158
120 132 153
115 128 148
120 131 150
115 128 147
124 138 157
117 127 145
117 128 146
113 124 141
123 137 156
113 126 143
120 131 149
115 122 137
121 131 149
117 126 142
120 132 150
126 140 159
127 142 162
121 133 151
128 136 156
129 137 155
125 138 157
120 128 145
125 134 153
126 138 156
126 131 149
125 134 152
124 135 153
126 138 156
128 142 162
129 135 152
129 141 160
128 137 155
127 131 150
127 137 156
118 130 149
120 131 148
127 141 163
133 147 167
125 136 155
121 135 155
125 140 162
120 134 153
122 138 158
123 137 158
130 146 166
125 140 161
124 137 156
122 137 156
131 148 170
124 140 160
127 143 164
121 136 157
121 136 156
128 143 163
123 137 158
126 141 160
122 135 156
115 127 144
134 145 161
109 115 124
127 130 134
166 166 167
182 181 181
181 180 181
181 180 181
180 180 181
180 180 181
179 179 181
179 179 181
178 179 181
178 179 181
177 178 181
177 178 181
177 178 181
176 178 181
176 178 181
176 178 181
175 177 181
175 177 181
175 177 181
174 177 181
174 177 181
174 177 181
174 176 181
173 176 181
173 176 181
173 176 181
173 176 181
172 176 181
172 176 181
172 176 181
172 175 181
171 175 181
171 175 181
171 175 181
171 175 181
171 175 181
170 175 181
170 175 181
170 175 181
170 175 181
170 174 181
169 174 181
169 174 181
169 174 181
169 174 181
169 174 181
168 174 181
168 174 181
168 174 181
168 174 181
168 173 181
167 173 181
167 173 181
167 173 181
167 173 181
167 173 181
167 173 181
166 173 181
166 173 181
166 173 181
166 173 181
166 173 181
166 173 181
166 172 181
165 172 181
165 172 181
165 172 181
165 172 181
165 172 181
165 172 181
164 172 181
164 172 181
164 172 181
164 172 181
164 172 181
164 172 181
164 172 181
164 171 181
163 171 181
163 171 181
163 171 181
163 171 181
163 171 181
163 171 181
163 171 181
163 171 181
162 171 181
162 171 181
162 171 181
162 171 181
162 171 181
162 171 181
162 171 181
162 171 181
162 170 181
161 170 181
161 170 181
161 170 181
161 170 181
161 170 181
161 170 181
161 170 181
161 170 181
161 170 181
160 170 181
160 170 181
160 170 181
160 170 181
160 170 181
160 170 181
160 170 181
160 170 181
160 170 181
160 170 181
160 169 181
159 169 181
159 169 181
159 169 181
159 169 181
159 169 181
159 169 181
159 169 181
159 169 181
159 169 181
159 169 181
159 169 181
159 169 181
158 169 181
158 169 181
158 169 181
158 169 181
158 169 181
158 169 181
158 169 181
158 169 181
158 169 181
158 169 181
158 169 181
158 169 181
158 169 181
157 169 181
157 168 181
157 168 181
157 168 181
157 168 181
157 168 181
157 168 181
157 168 181
157 168 181
157 168 181
157 168 181
157 168 181
157 168 181
157 168 181
157 168 181
157 168 181
157 168 181
156 168 181
156 168 181
156 168 181
156 168 181
156 168 181
156 168 181
156 168 181
156 168 181
156 168 181
156 168 181
156 168 181
156 168 181
156 168 181
156 168 181
156 168 181
156 168 181
156 168 181
156 168 181
156 168 181
156 168 181
156 168 181
156 168 181
155 168 181
155 168 181
155 168 181
155 167 181
155 167 181
155 167 181
155 167 181
155 167 181
155 167 181
155 167 181
155 167 181
155 167 181
155 167 181
155 167 181
155 167 181
155 167 181
155 167 181
155 167 181
155 167 181
155 167 181
155 167 181
155 167 181
155 167 181
155 167 181
155 167 181
155 167 181
155 167 181
155 167 181
155 167 181
155 167 181
155 167 181
155 167 181
155 167 181
155 167 181
155 167 181
155 167 181
155 167 181
155 167 181
155 167 181
155 167 181
155 167 181
155 167 181
155 167 181
155 167 181
155 167 181
155 167 181
155 167 181
155 167 181
155 167 181
155 167 181
155 167 181
155 167 181
155 167 181
155 167 181
155 167 181
155 167 181
155 167 181
155 167 181
155 167 181
155 167 181
155 167 181
155 167 181
155 167 181
155 167 181
155 167 181
155 167 181
155 167 181
155 167 181
155 167 181
155 167 181
155 167 181
155 167 181
155 167 181
155 167 181
155 167 181
155 167 181
155 167 181
155 167 181
155 167 181
155 167 181
155 167 181
155 167 181
155 167 181
155 167 181
155 167 181
155 167 181
155 167 181
155 167 181
155 167 181
155 167 181
155 167 181
155 167 181
155 167 181
155 167 181
155 167 181
155 167 181
155 167 181
155 167 181
155 167 181
155 167 181
155 167 181
155 167 181
155 167 181
155 168 181
155 168 181
155 168 181
155 168 181
156 168 181
156 168 181
156 168 181
156 168 181
156 168 181
156 168 181
156 168 181
156 168 181
156 168 181
156 168 181
156 168 181
156 168 181
156 168 181
156 168 181
156 168 181
156 168 181
156 168 181
156 168 181
156 168 181
156 168 181
156 168 181
157 168 181
157 168 181
157 168 181
157 168 181
157 168 181
157 168 181
157 168 181
157 168 181
157 168 181
157 168 181
157 168 181
157 168 181
157 168 181
157 168 181
157 168 181
157 168 181
158 169 181
158 169 181
158 169 181
158 169 181
158 169 181
158 169 181
158 169 181
158 169 181
158 169 181
158 169 181
158 169 181
158 169 181
158 169 181
158 169 181
159 169 181
159 169 181
159 169 181
159 169 181
159 169 181
159 169 181
159 169 181
159 169 181
159 169 181
159 169 181
159 169 181
159 169 181
160 169 181
160 170 181
160 170 181
160 170 181
160 170 181
160 170 181
160 170 181
160 170 181
160 170 181
160 170 181
160 170 181
161 170 181
161 170 181
161 170 181
161 170 181
161 170 181
161 170 181
161 170 181
161 170 181
161 170 181
162 170 181
162 171 181
162 171 181
162 171 181
162 171 181
162 171 181
162 171 181
162 171 181
162 171 181
163 171 181
163 171 181
163 171 181
163 171 181
163 171 181
163 171 181
163 171 181
163 171 181
164 171 181
164 172 181
164 172 181
164 172 181
164 172 181
164 172 181
164 172 181
164 172 181
165 172 181
165 172 181
165 172 181
165 172 181
165 172 181
165 172 181
165 172 181
166 172 181
166 173 181
166 173 181
166 173 181
166 173 181
166 173 181
167 173 181
167 173 181
167 173 181
167 173 181
167 173 181
167 173 181
168 173 181
168 174 181
168 174 181
168 174 181
168 174 181
168 174 181
169 174 181
169 174 181
169 174 181
169 174 181
169 174 181
170 174 181
170 175 181
170 175 181
170 175 181
170 175 181
171 175 181
171 175 181
171 175 181
171 175 181
172 175 181
172 176 181
172 176 181
172 176 181
173 176 181
173 176 181
173 176 181
173 176 181
174 176 181
174 177 181
174 177 181
174 177 181
175 177 181
175 177 181
175 177 181
176 177 181
176 178 181
176 178 181
177 178 181
177 178 181
177 178 181
178 179 181
178 179 181
178 179 181
179 179 181
179 179 181
180 180 181
180 180 181
181 180 181
182 181 181
182 181 181
183 182 181
180 183 189
187 196 210
192 207 227
200 215 235
198 213 233
202 216 236
193 207 228
207 221 240
199 213 233
197 211 231
197 212 232
202 216 236
197 211 231
204 219 238
199 213 233
199 213 233
195 210 230
198 213 233
188 203 224
201 216 236
190 204 225
205 219 238
203 217 237
195 210 231
198 212 233
199 213 233
197 211 231
203 217 237
203 218 238
203 218 238
195 210 230
200 214 234
195 209 230
201 215 235
201 215 235
201 216 236
199 214 234
202 216 236
198 213 233
200 214 234
200 214 233
202 216 236
201 216 236
198 212 232
205 219 239
201 216 236
199 213 233
201 216 236
195 210 230
203 218 238
191 206 226
193 208 228
200 215 235
204 218 238
203 217 237
198 213 233
201 216 236
190 206 226
199 213 233
198 212 232
203 218 238
201 216 236
199 213 233
195 210 230
208 222 241
197 212 232
201 215 236
203 217 236
194 209 229
201 215 235
206 220 240
203 217 237
201 216 236
209 223 242
200 215 235
203 217 236
203 218 238
203 217 237
204 218 238
197 212 232
199 213 233
202 216 236
203 217 237
204 219 238
199 214 234
204 218 238
198 213 233
199 213 233
202 216 236
199 214 233
205 219 239
200 215 235
203 217 237
199 213 233
200 214 234
201 216 236
202 216 236
197 211 231
198 213 233
201 216 236
207 221 241
203 218 238
199 214 233
202 216 236
199 213 233
202 216 236
196 210 231
203 217 237
203 217 237
206 221 240
203 218 238
202 217 236
200 214 234
201 215 236
205 219 239
199 213 233
202 217 237
198 213 233
210 224 243
202 217 237
202 216 236
206 220 240
206 220 240
205 219 239
208 222 242
207 221 240
207 221 240
201 215 235
204 218 238
201 215 235
199 213 233
206 220 240
205 219 239
208 222 242
213 226 246
209 223 242
208 222 242
206 220 240
209 223 243
204 218 238
205 219 239
202 216 236
207 221 241
204 218 238
204 218 238
205 219 239
209 223 243
212 226 246
204 219 239
203 217 237
209 223 242
205 219 239
204 218 238
206 220 239
207 221 240
207 221 240
204 219 238
206 221 240
205 219 239
205 219 239
205 219 239
209 223 242
208 222 242
204 219 238
205 219 239
208 222 242
205 219 239
212 226 246
207 221 241
207 221 241
209 223 242
210 224 244
208 222 242
208 222 242
210 224 243
202 217 236
207 221 241
206 220 240
205 219 239
208 222 242
208 222 242
205 219 239
206 220 240
205 219 239
208 222 242
209 223 242
207 221 241
209 223 242
211 225 244
212 226 245
210 224 244
208 222 242
206 221 240
210 224 244
211 225 244
211 225 244
210 224 243
209 223 243
205 219 239
207 221 241
211 225 244
209 223 242
210 224 244
214 228 247
212 226 246
212 226 246
213 227 246
211 225 244
213 227 246
216 230 249
210 224 243
211 225 244
208 222 241
214 228 247
210 224 244
207 221 241
209 223 243
213 227 246
211 225 244
210 224 243
203 217 237
214 228 247
206 220 240
212 226 246
210 224 244
207 221 241
211 225 244
210 224 244
210 224 244
212 226 245
208 222 242
207 221 240
209 223 243
204 219 238
209 223 242
209 223 243
210 224 244
212 226 245
213 227 246
208 222 242
207 221 241
205 219 239
206 220 240
210 224 244
210 224 243
212 226 245
214 228 247
207 221 241
210 224 244
212 226 246
210 224 244
212 226 246
219 233 252
211 225 244
210 224 244
213 227 246
212 226 246
211 225 245
206 220 240
216 230 249
211 225 244
214 228 247
216 230 249
213 227 246
215 229 248
210 224 244
217 230 250
210 224 243
206 221 240
212 226 246
215 229 248
212 226 246
215 229 248
212 226 245
212 226 245
212 226 245
217 231 250
211 225 244
210 224 243
219 232 252
217 230 250
214 228 248
214 228 247
214 228 248
218 232 251
211 225 244
213 227 246
217 230 250
213 227 246
214 228 247
214 228 247
212 226 245
208 222 242
209 223 242
213 227 246
218 232 251
213 227 246
212 226 246
219 232 252
214 228 247
214 228 247
217 231 250
213 227 246
218 232 251
212 226 246
214 228 247
217 230 250
216 230 249
214 228 248
216 230 250
214 228 248
215 229 248
216 230 249
218 231 250
210 224 244
218 232 251
218 232 251
216 230 249
216 230 249
213 227 246
218 232 251
212 226 246
