P3
1600 1
255
189 204 224
191 205 226
189 205 226
185 200 221
184 199 220
194 208 228
189 204 224
184 199 220
183 198 219
190 205 226
188 203 223
193 208 228
183 199 220
179 194 215
190 205 226
198 213 233
188 202 223
191 206 226
184 199 220
187 202 223
185 200 220
190 205 226
185 200 221
184 199 220
192 206 227
177 193 214
182 197 218
185 200 221
189 204 224
181 197 217
185 200 220
185 200 221
180 196 217
180 196 217
191 206 226
181 197 217
183 198 219
185 200 220
188 203 223
180 195 217
187 203 223
188 203 223
187 202 222
192 207 228
187 202 223
182 198 219
189 204 225
191 206 226
185 200 220
182 198 219
182 197 218
182 197 218
186 201 222
188 203 223
186 201 221
179 194 215
183 198 219
184 199 220
177 193 214
180 195 217
184 199 220
177 193 214
179 194 215
186 202 223
182 197 218
184 199 220
184 200 220
187 202 223
184 199 220
185 200 220
179 194 215
183 198 219
188 202 223
174 190 211
185 200 221
183 198 219
185 200 221
184 199 220
187 202 223
175 191 213
176 191 212
189 204 225
188 203 223
179 195 216
176 192 213
187 201 222
185 200 221
183 198 218
184 199 220
183 198 219
186 201 222
189 204 225
179 194 215
184 200 220
178 194 215
183 198 219
173 188 210
179 194 216
180 195 217
180 196 217
182 198 219
180 195 216
178 193 214
179 195 217
184 199 220
178 194 215
172 188 210
171 187 208
171 187 209
180 196 217
170 186 207
181 196 217
177 193 214
181 197 217
184 199 220
172 188 209
173 189 211
180 195 217
178 193 214
178 194 215
173 189 211
174 189 211
188 203 223
179 194 215
173 189 211
174 189 210
181 196 217
178 194 214
178 193 214
174 190 211
174 190 211
187 202 223
172 188 209
175 191 213
182 197 218
178 193 214
172 187 209
177 193 214
174 190 211
174 190 212
174 189 211
181 197 217
173 189 211
170 186 207
171 187 208
176 192 214
174 190 211
179 195 216
176 192 214
177 193 214
176 191 213
172 188 209
170 186 207
171 187 209
186 201 222
174 190 211
182 198 219
182 197 218
173 189 211
187 202 222
175 191 212
177 192 214
165 181 203
177 192 213
182 197 217
176 192 214
171 187 208
185 200 221
178 193 214
172 188 210
175 191 212
172 188 210
172 188 210
174 189 211
179 194 215
178 194 215
169 186 207
176 192 213
181 197 217
171 187 208
171 187 209
178 193 214
169 186 207
173 189 210
173 189 211
176 191 213
177 193 214
171 187 208
172 187 209
179 194 214
178 193 214
170 186 207
178 193 214
178 194 214
172 188 209
175 190 211
172 188 210
166 182 204
175 191 212
168 184 206
181 196 217
173 189 211
172 188 209
165 181 203
173 188 210
169 185 207
164 180 203
172 188 209
174 190 211
172 188 210
172 188 210
176 192 213
176 192 213
171 187 209
162 179 201
172 188 210
164 181 203
171 187 208
177 192 213
171 187 209
171 187 208
174 190 211
172 188 209
169 186 207
173 189 211
167 183 204
169 185 207
162 179 201
168 185 207
170 186 207
173 188 209
176 192 213
180 195 216
175 191 212
170 186 207
174 189 211
170 186 207
170 186 207
169 185 207
169 185 207
171 187 208
166 182 204
175 191 212
169 185 207
169 185 207
168 184 206
175 191 212
172 188 210
174 189 211
171 187 208
170 186 207
172 188 209
168 184 206
165 181 203
162 179 201
161 177 199
161 177 199
178 194 214
167 184 206
167 183 204
171 187 209
159 176 199
171 187 209
174 189 211
165 181 203
173 188 210
164 180 203
165 182 204
166 182 203
168 184 206
165 181 203
166 182 203
161 178 200
165 181 203
170 186 207
171 187 208
176 192 213
164 181 203
174 189 211
162 179 201
163 179 202
166 182 204
169 185 207
163 179 201
168 184 206
165 182 204
165 181 203
167 183 205
167 184 206
171 187 208
165 182 203
176 191 212
167 183 205
165 181 203
165 181 203
173 189 210
165 182 203
170 186 207
168 184 206
167 183 204
162 179 201
161 177 199
164 181 203
162 179 201
171 187 208
163 179 201
161 178 200
166 182 204
167 183 205
160 176 199
163 180 202
166 183 204
160 176 199
175 191 212
162 179 202
170 185 207
170 186 208
165 181 203
168 184 206
165 181 203
159 176 198
168 184 206
161 177 199
157 174 196
160 177 199
164 181 203
161 178 200
163 180 203
164 181 203
170 186 207
166 182 204
164 180 202
164 180 202
166 183 205
168 183 205
161 177 199
162 179 202
169 185 207
160 177 199
161 177 199
162 179 201
164 180 203
164 180 202
165 181 203
166 182 203
155 173 196
169 185 207
159 175 198
165 181 203
168 184 205
166 183 204
170 186 207
157 174 197
158 175 197
160 176 199
160 177 199
168 184 206
167 183 204
162 178 200
157 174 196
160 176 199
160 176 198
166 182 204
168 185 207
157 174 197
153 171 194
165 182 203
169 185 207
165 181 203
169 185 207
164 180 201
167 183 205
156 173 196
156 173 196
157 174 197
156 173 195
157 174 197
164 180 202
159 176 199
158 174 197
158 175 198
168 184 206
159 175 198
160 176 199
162 179 201
165 181 203
164 181 203
158 174 197
161 178 200
160 176 199
165 182 203
168 184 206
166 182 203
156 173 195
161 177 199
162 179 201
163 180 202
163 179 200
167 183 205
157 174 196
159 175 198
163 179 201
159 176 199
160 177 199
156 173 196
158 175 198
158 175 197
168 184 206
167 183 205
156 173 196
159 176 198
160 176 199
158 175 198
153 171 194
160 176 199
158 175 198
162 179 201
161 178 200
163 179 201
159 175 198
160 177 199
165 182 203
156 173 195
160 177 199
165 181 203
153 170 193
162 179 201
156 173 195
156 174 197
159 176 199
160 177 200
156 173 196
153 170 194
163 180 202
155 172 195
150 167 190
155 173 196
162 179 201
160 177 199
161 178 200
154 171 194
166 183 205
167 183 204
159 176 199
162 179 201
154 172 195
152 169 192
160 177 199
166 181 203
159 175 198
153 170 193
156 173 196
163 179 201
161 178 200
155 172 195
154 171 194
156 173 195
163 180 202
160 177 199
158 175 197
155 172 195
151 169 192
166 182 204
158 175 197
158 175 198
163 179 202
155 172 195
155 172 195
153 170 194
158 175 197
158 174 197
159 175 198
164 180 203
164 180 202
156 173 196
158 175 198
153 170 194
162 178 200
160 177 200
157 174 197
158 175 198
150 167 190
156 173 195
156 173 195
157 174 196
160 177 199
148 166 189
154 171 194
157 174 196
164 180 202
157 174 197
158 174 197
155 172 194
157 174 197
157 174 196
157 173 196
160 177 199
160 176 199
154 171 193
155 171 194
158 175 198
153 170 193
148 166 189
160 176 199
160 177 199
167 183 204
158 175 197
156 173 196
155 172 194
153 170 193
160 177 199
154 171 194
151 168 191
151 167 188
151 166 187
157 166 182
137 142 155
134 137 149
127 124 131
128 121 122
116 100 92
112 94 86
111 88 74
110 86 68
112 88 70
108 85 69
105 83 67
109 86 69
115 90 72
104 82 65
109 86 68
111 87 69
108 84 67
111 86 69
111 87 70
111 88 69
107 84 68
105 85 68
114 89 71
107 85 67
109 86 68
104 82 66
115 89 71
110 87 70
107 84 67
111 87 69
114 89 71
114 88 70
105 85 66
107 85 68
114 90 71
110 87 69
111 87 69
111 88 69
111 88 71
111 86 69
105 83 66
110 86 68
107 85 67
111 87 70
109 87 69
111 88 70
110 87 69
108 84 68
113 89 71
114 89 70
111 87 69
111 87 70
108 85 68
108 85 67
109 86 67
111 87 70
106 83 66
111 87 69
114 89 70
105 83 66
105 83 66
110 87 70
110 88 69
112 87 69
108 85 67
108 86 68
109 86 68
113 90 72
102 80 64
111 88 69
109 86 68
111 87 70
114 90 71
110 87 68
110 87 69
107 84 67
112 87 70
107 84 67
114 90 72
109 86 68
108 85 68
109 86 69
106 83 66
109 86 68
105 83 67
106 84 68
111 88 70
110 85 68
109 85 67
109 85 68
111 87 70
107 85 68
113 88 71
105 83 65
108 85 68
105 82 66
101 79 65
111 95 86
135 128 130
146 147 156
150 157 168
162 174 191
144 157 175
143 159 177
141 155 173
137 153 172
147 161 180
145 159 178
155 169 191
139 154 172
144 161 181
149 167 187
148 167 187
144 161 181
144 161 179
135 154 175
137 156 176
132 152 173
139 156 180
142 158 187
148 161 197
149 162 203
148 161 207
158 169 225
159 170 232
154 166 227
153 165 230
150 162 222
147 157 216
150 161 213
153 163 215
134 143 178
139 150 191
135 152 172
131 151 164
134 152 170
129 152 155
132 156 149
128 158 117
112 144 64
128 162 89
127 163 84
126 163 80
120 157 61
125 164 57
116 151 54
126 167 63
129 164 87
132 166 94
122 159 58
120 152 76
119 152 78
124 158 75
120 150 74
123 156 81
115 141 93
98 122 88
94 118 97
95 114 105
68 98 63
79 103 77
79 105 84
57 89 43
56 85 45
62 85 55
69 92 61
59 81 59
95 113 107
99 114 116
115 130 144
120 137 155
120 130 146
123 141 159
125 141 162
130 146 168
123 140 163
127 144 165
126 143 163
127 141 163
125 131 153
124 107 126
130 113 130
131 106 123
126 92 110
129 92 110
119 82 99
130 92 108
124 91 106
128 93 107
126 89 106
126 90 105
123 91 108
124 95 113
125 87 103
121 90 106
127 93 111
128 90 107
125 83 100
124 89 107
125 87 104
120 90 107
110 72 87
113 78 92
114 82 97
117 92 108
121 93 108
117 106 123
118 118 135
122 133 151
127 144 165
119 134 152
121 135 155
128 145 165
127 144 164
120 135 155
121 136 155
126 141 161
122 138 158
117 131 147
129 145 166
120 136 156
132 148 169
125 140 160
116 130 148
123 137 154
123 135 152
116 127 141
114 127 146
115 128 147
103 114 128
109 120 133
107 118 130
105 113 126
93 98 106
86 89 90
95 100 106
84 84 87
88 88 89
89 92 94
76 73 72
92 95 97
85 84 81
88 88 86
92 94 94
94 97 100
98 102 105
106 110 115
106 113 120
113 121 131
102 111 122
121 131 144
111 121 133
116 125 140
114 122 135
123 134 151
118 128 143
124 133 150
121 134 151
126 136 154
126 137 154
125 134 151
120 128 145
127 140 160
125 135 152
126 138 157
129 141 161
121 130 148
127 141 160
124 140 161
133 148 169
126 140 160
134 149 170
125 141 162
125 140 161
125 141 160
126 143 163
127 143 165
125 139 159
128 144 165
124 141 162
123 139 159
126 141 162
123 140 159
120 136 157
129 146 168
127 142 163
129 145 166
131 147 169
126 142 163
129 145 166
119 133 154
108 115 126
128 132 137
171 170 171
182 181 181
181 180 181
181 180 181
181 180 181
180 180 181
179 179 181
179 179 181
179 179 181
178 179 181
178 179 181
178 178 181
177 178 181
177 178 181
177 178 181
176 178 181
176 178 181
176 177 181
175 177 181
175 177 181
175 177 181
175 177 181
174 177 181
174 177 181
174 177 181
173 176 181
173 176 181
173 176 181
173 176 181
173 176 181
172 176 181
172 176 181
172 176 181
172 175 181
171 175 181
171 175 181
171 175 181
171 175 181
171 175 181
170 175 181
170 175 181
170 175 181
170 175 181
170 174 181
169 174 181
169 174 181
169 174 181
169 174 181
169 174 181
169 174 181
168 174 181
168 174 181
168 174 181
168 174 181
168 174 181
168 173 181
167 173 181
167 173 181
167 173 181
167 173 181
167 173 181
167 173 181
167 173 181
166 173 181
166 173 181
166 173 181
166 173 181
166 173 181
166 172 181
166 172 181
165 172 181
165 172 181
165 172 181
165 172 181
165 172 181
165 172 181
165 172 181
164 172 181
164 172 181
164 172 181
164 172 181
164 172 181
164 172 181
164 172 181
164 171 181
163 171 181
163 171 181
163 171 181
163 171 181
163 171 181
163 171 181
163 171 181
163 171 181
163 171 181
162 171 181
162 171 181
162 171 181
162 171 181
162 171 181
162 171 181
162 171 181
162 171 181
162 171 181
162 170 181
161 170 181
161 170 181
161 170 181
161 170 181
161 170 181
161 170 181
161 170 181
161 170 181
161 170 181
161 170 181
161 170 181
160 170 181
160 170 181
160 170 181
160 170 181
160 170 181
160 170 181
160 170 181
160 170 181
160 170 181
160 170 181
160 170 181
160 169 181
159 169 181
159 169 181
159 169 181
159 169 181
159 169 181
159 169 181
159 169 181
159 169 181
159 169 181
159 169 181
159 169 181
159 169 181
159 169 181
159 169 181
158 169 181
158 169 181
158 169 181
158 169 181
158 169 181
158 169 181
158 169 181
158 169 181
158 169 181
158 169 181
158 169 181
158 169 181
158 169 181
158 169 181
158 169 181
158 169 181
158 169 181
157 168 181
157 168 181
157 168 181
157 168 181
157 168 181
157 168 181
157 168 181
157 168 181
157 168 181
157 168 181
157 168 181
157 168 181
157 168 181
157 168 181
157 168 181
157 168 181
157 168 181
157 168 181
157 168 181
157 168 181
157 168 181
157 168 181
156 168 181
156 168 181
156 168 181
156 168 181
156 168 181
156 168 181
156 168 181
156 168 181
156 168 181
156 168 181
156 168 181
156 168 181
156 168 181
156 168 181
156 168 181
156 168 181
156 168 181
156 168 181
156 168 181
156 168 181
156 168 181
156 168 181
156 168 181
156 168 181
156 168 181
156 168 181
156 168 181
156 168 181
156 168 181
156 168 181
156 168 181
156 168 181
156 168 181
156 168 181
156 168 181
156 168 181
156 168 181
156 168 181
156 168 181
156 168 181
156 168 181
156 168 181
156 168 181
156 168 181
155 168 181
155 168 181
155 168 181
155 168 181
155 168 181
155 168 181
155 168 181
155 168 181
155 168 181
155 168 181
155 168 181
155 168 181
155 168 181
155 168 181
155 168 181
155 168 181
155 168 181
155 168 181
155 168 181
155 168 181
155 168 181
155 168 181
155 168 181
155 168 181
156 168 181
156 168 181
156 168 181
156 168 181
156 168 181
156 168 181
156 168 181
156 168 181
156 168 181
156 168 181
156 168 181
156 168 181
156 168 181
156 168 181
156 168 181
156 168 181
156 168 181
156 168 181
156 168 181
156 168 181
156 168 181
156 168 181
156 168 181
156 168 181
156 168 181
156 168 181
156 168 181
156 168 181
156 168 181
156 168 181
156 168 181
156 168 181
156 168 181
156 168 181
156 168 181
156 168 181
156 168 181
156 168 181
156 168 181
156 168 181
156 168 181
156 168 181
156 168 181
157 168 181
157 168 181
157 168 181
157 168 181
157 168 181
157 168 181
157 168 181
157 168 181
157 168 181
157 168 181
157 168 181
157 168 181
157 168 181
157 168 181
157 168 181
157 168 181
157 168 181
157 168 181
157 168 181
157 168 181
157 168 181
157 168 181
157 169 181
158 169 181
158 169 181
158 169 181
158 169 181
158 169 181
158 169 181
158 169 181
158 169 181
158 169 181
158 169 181
158 169 181
158 169 181
158 169 181
158 169 181
158 169 181
158 169 181
158 169 181
159 169 181
159 169 181
159 169 181
159 169 181
159 169 181
159 169 181
159 169 181
159 169 181
159 169 181
159 169 181
159 169 181
159 169 181
159 169 181
159 169 181
160 170 181
160 170 181
160 170 181
160 170 181
160 170 181
160 170 181
160 170 181
160 170 181
160 170 181
160 170 181
160 170 181
160 170 181
161 170 181
161 170 181
161 170 181
161 170 181
161 170 181
161 170 181
161 170 181
161 170 181
161 170 181
161 170 181
161 170 181
162 170 181
162 171 181
162 171 181
162 171 181
162 171 181
162 171 181
162 171 181
162 171 181
162 171 181
162 171 181
163 171 181
163 171 181
163 171 181
163 171 181
163 171 181
163 171 181
163 171 181
163 171 181
163 171 181
164 171 181
164 172 181
164 172 181
164 172 181
164 172 181
164 172 181
164 172 181
164 172 181
165 172 181
165 172 181
165 172 181
165 172 181
165 172 181
165 172 181
165 172 181
165 172 181
166 172 181
166 173 181
166 173 181
166 173 181
166 173 181
166 173 181
166 173 181
167 173 181
167 173 181
167 173 181
167 173 181
167 173 181
167 173 181
168 173 181
168 174 181
168 174 181
168 174 181
168 174 181
168 174 181
169 174 181
169 174 181
169 174 181
169 174 181
169 174 181
169 174 181
170 174 181
170 175 181
170 175 181
170 175 181
170 175 181
171 175 181
171 175 181
171 175 181
171 175 181
171 175 181
172 175 181
172 176 181
172 176 181
172 176 181
172 176 181
173 176 181
173 176 181
173 176 181
173 176 181
174 176 181
174 177 181
174 177 181
174 177 181
175 177 181
175 177 181
175 177 181
176 177 181
176 178 181
176 178 181
176 178 181
177 178 181
177 178 181
177 178 181
178 179 181
178 179 181
178 179 181
179 179 181
179 179 181
180 180 181
180 180 181
181 180 181
181 180 181
182 181 181
183 181 181
184 182 181
179 179 181
170 180 195
169 184 206
159 176 199
161 177 199
161 178 200
162 179 201
169 185 207
167 183 205
162 178 200
158 175 198
164 180 202
161 178 201
162 178 200
176 191 212
165 181 203
168 184 206
167 184 206
167 183 205
173 189 211
167 183 205
167 183 205
176 191 212
162 179 201
162 179 201
167 183 205
165 181 203
158 175 198
163 180 202
164 180 202
165 182 204
161 177 199
161 177 199
158 175 198
175 191 212
162 179 201
176 191 212
168 185 207
169 185 207
164 180 203
172 188 209
171 187 209
169 185 206
169 186 207
164 181 203
177 193 214
165 182 204
162 178 200
171 187 209
166 182 204
164 181 203
157 174 198
168 184 206
163 180 202
169 185 207
162 179 202
168 184 205
162 179 202
168 184 206
164 181 203
165 181 203
161 178 201
166 182 204
163 179 202
161 178 200
167 184 206
164 181 203
166 182 204
171 186 207
174 189 211
168 184 207
168 184 206
167 183 204
175 190 211
170 186 208
168 185 207
162 179 201
165 181 203
163 179 201
173 188 210
163 179 202
181 196 217
170 186 207
172 188 210
166 183 204
170 186 208
175 191 212
166 182 204
172 187 208
177 193 214
166 182 204
166 182 204
172 187 209
174 190 211
170 186 207
170 186 207
168 184 206
169 185 207
173 190 211
171 187 208
169 185 207
165 182 203
174 190 211
165 182 204
170 186 207
175 191 212
179 195 216
167 183 205
169 185 206
165 181 203
175 191 212
170 186 208
170 186 207
169 185 207
175 191 212
173 189 211
173 189 211
178 194 215
169 185 207
165 181 203
171 187 208
174 190 211
168 184 206
167 184 206
178 193 214
178 193 214
176 192 213
172 187 209
181 197 217
171 187 208
167 183 205
179 194 214
170 186 208
178 193 214
170 186 207
169 185 207
178 193 214
177 193 214
175 191 212
178 193 214
177 193 214
173 189 211
180 196 217
182 198 219
166 182 203
175 190 211
175 191 212
181 196 217
173 189 210
183 199 220
175 190 211
172 188 209
171 187 209
176 192 213
172 187 209
175 190 211
173 189 211
175 191 212
179 195 216
179 195 216
169 185 207
175 190 211
169 185 207
182 197 217
176 192 213
177 193 214
177 193 214
182 197 218
179 195 216
175 191 213
179 194 215
173 189 210
180 195 216
183 198 219
174 189 211
183 199 220
177 193 214
175 191 213
175 191 212
181 196 217
179 194 215
187 202 223
175 191 212
183 198 219
173 188 209
186 201 221
188 203 223
184 199 220
178 194 215
181 196 217
180 196 217
175 191 212
173 189 211
174 189 211
174 190 211
181 196 217
178 193 214
182 197 217
175 191 212
174 190 211
184 199 220
175 190 212
179 194 215
184 198 219
182 197 217
188 203 223
184 199 220
181 197 217
181 197 217
181 196 217
175 190 211
186 201 222
178 194 216
181 196 217
179 194 215
182 197 218
181 196 217
182 197 217
177 193 214
186 201 222
180 195 216
172 188 210
185 200 221
188 203 224
180 196 217
184 199 220
179 194 215
179 194 215
187 202 223
184 199 220
176 191 212
184 200 220
173 188 210
180 195 216
181 196 217
185 200 221
176 192 213
186 201 221
184 199 220
178 193 214
175 191 212
187 202 223
191 206 226
190 205 226
187 203 223
186 201 222
186 201 222
183 198 219
184 199 220
188 203 223
177 193 214
187 202 223
187 202 223
186 201 221
182 197 218
189 204 224
185 200 221
180 195 216
176 192 213
185 200 220
189 204 225
182 197 218
178 194 215
184 199 220
185 200 221
187 202 223
192 206 226
183 198 218
182 197 217
185 200 221
179 195 217
184 199 220
180 195 216
178 193 214
186 201 221
186 201 222
182 197 218
186 201 221
183 199 220
185 200 220
190 205 226
191 206 226
186 202 223
187 202 223
189 204 224
186 201 222
189 204 225
183 198 220
186 201 221
188 203 223
181 196 217
188 203 224
195 209 229
188 203 223
187 203 223
187 202 223
192 207 227
183 198 219
187 202 223
188 203 223
197 212 232
184 199 220
193 207 228
189 204 224
180 195 216
188 203 224
182 197 217
180 195 217
184 199 219
189 204 224
183 199 220
194 209 229
194 209 228
188 203 224
189 204 224
182 197 218
189 204 225
181 196 217
