P3
1600 1
255
151 169 192
161 177 199
156 173 196
154 171 194
151 168 191
155 172 195
154 172 194
153 170 194
152 169 191
146 165 188
148 165 188
154 171 193
153 170 193
155 173 195
158 174 197
157 174 196
154 171 194
154 171 194
153 171 194
160 177 199
149 167 190
151 168 191
149 166 189
155 172 194
151 168 191
149 167 190
150 167 190
152 169 192
149 166 189
155 171 194
149 166 189
156 173 196
154 170 193
150 168 191
151 168 191
156 173 197
149 166 189
152 169 192
147 165 188
152 169 192
154 170 193
151 168 191
151 168 190
152 169 192
151 168 190
149 167 190
145 163 188
143 162 186
154 171 194
151 169 192
144 163 187
152 169 192
150 168 191
149 166 189
153 169 192
154 171 194
153 170 193
150 167 191
156 173 195
147 165 188
144 162 186
143 161 185
144 162 186
149 166 189
148 165 188
145 163 186
148 165 188
152 169 192
150 167 190
149 167 190
146 164 187
144 162 186
145 164 188
153 170 194
147 165 188
151 169 192
153 170 193
149 167 190
146 164 188
148 165 188
151 168 192
146 164 187
153 170 193
149 167 190
148 166 189
146 164 188
157 174 197
148 165 188
151 168 191
149 166 189
149 167 190
150 167 190
149 166 189
148 166 189
143 162 186
152 169 192
145 163 187
144 162 186
148 166 189
143 161 185
140 159 183
149 167 190
144 162 186
153 170 193
148 166 188
144 162 186
145 163 186
145 163 186
145 163 187
145 163 187
148 165 188
146 164 188
145 163 187
146 164 188
145 163 187
147 165 188
151 168 191
141 159 183
146 164 187
146 164 187
148 166 189
146 164 188
144 163 187
143 160 184
145 163 187
149 166 189
143 161 184
141 159 183
144 162 185
148 165 188
147 164 188
146 164 188
146 164 188
148 166 189
147 165 188
145 163 187
142 161 185
144 162 186
147 164 188
142 160 184
145 163 187
141 159 182
143 161 185
144 162 186
145 163 187
142 160 184
147 164 188
145 162 186
146 164 188
146 164 187
146 164 187
144 161 184
143 161 185
141 159 183
142 160 184
142 160 184
143 160 184
145 163 187
144 162 186
145 163 187
145 162 186
143 161 185
145 163 187
142 160 184
142 160 184
143 161 184
143 162 186
140 158 182
145 162 186
143 161 185
141 160 184
139 157 181
143 162 186
143 161 184
142 160 183
145 163 186
142 160 184
140 158 182
141 159 183
141 159 183
142 160 184
146 164 188
142 161 185
140 158 182
140 158 182
140 158 182
143 161 185
141 160 184
142 160 184
139 158 182
145 164 188
146 164 188
141 159 183
137 156 181
141 159 183
139 157 181
145 162 186
141 159 184
139 158 182
144 161 184
139 157 181
140 158 182
143 161 184
145 163 187
143 161 185
141 159 183
138 157 181
145 162 185
140 159 183
141 159 183
143 160 184
140 159 183
141 159 182
140 158 182
143 161 184
140 159 183
142 160 183
139 157 181
137 156 181
141 158 181
141 159 182
139 157 181
139 157 181
138 157 181
141 160 184
140 158 182
141 160 184
138 157 181
140 158 182
139 157 181
139 157 181
140 158 181
140 158 181
137 156 181
142 160 183
140 158 181
145 163 186
138 156 181
138 157 181
141 159 182
140 158 182
139 157 181
140 159 182
141 159 182
137 156 181
141 159 183
140 159 183
141 159 183
139 157 181
139 158 182
138 157 181
138 156 181
139 157 181
136 156 181
138 157 181
137 156 181
140 158 181
141 158 181
139 158 182
140 158 182
139 157 181
138 156 181
139 157 181
140 158 182
138 157 181
138 157 181
137 156 181
137 156 181
138 157 181
139 158 181
138 156 181
138 156 181
140 158 182
138 156 181
137 156 181
137 156 181
138 157 181
138 156 181
138 156 181
138 156 181
138 156 181
137 156 181
137 156 181
138 157 181
139 157 181
141 159 183
138 156 181
138 157 181
139 157 181
138 157 181
136 156 181
138 156 181
138 157 181
139 158 181
138 156 181
138 156 181
139 157 181
138 156 181
137 156 181
136 156 181
137 156 181
138 157 181
138 156 181
140 158 181
138 156 181
138 156 181
139 157 181
138 157 181
138 157 181
137 156 181
138 156 181
138 156 181
138 157 181
138 156 181
139 157 181
138 156 181
138 157 181
138 156 180
139 157 181
137 156 181
137 156 181
138 157 181
137 156 181
140 158 181
138 156 181
138 157 181
138 157 181
136 156 181
138 156 181
138 157 181
138 156 181
138 156 181
139 157 181
137 156 181
137 156 181
138 156 181
138 156 181
137 156 181
137 156 181
138 156 181
138 156 181
137 156 181
138 156 181
139 157 181
138 156 181
138 156 181
138 157 181
137 156 181
138 157 181
137 156 181
139 157 181
137 156 181
139 157 181
137 156 181
138 156 181
137 156 181
138 156 181
136 156 181
137 156 181
138 156 181
136 156 181
138 157 181
137 156 181
137 156 181
137 156 181
138 156 181
137 156 181
139 157 181
137 156 181
137 156 181
136 155 181
139 157 181
138 157 181
137 156 181
139 157 181
139 157 181
138 156 181
137 156 181
137 156 181
138 156 181
139 157 181
138 157 181
137 156 181
138 156 181
137 156 181
138 156 181
139 157 181
137 156 181
137 156 181
137 156 181
138 156 181
137 156 181
138 156 181
139 157 181
138 156 181
138 156 181
137 156 181
137 156 181
138 156 181
137 156 181
137 156 181
138 156 181
139 157 181
139 157 181
138 156 181
139 157 181
138 156 181
137 156 181
137 156 181
138 156 181
139 157 181
139 157 181
138 156 181
138 156 181
138 157 181
136 155 180
138 156 181
139 157 181
138 156 181
137 156 181
138 157 181
138 156 181
137 156 181
139 157 181
138 157 181
137 156 181
139 157 181
138 157 181
136 155 181
137 156 181
139 157 181
138 156 181
136 156 181
139 157 181
138 156 181
139 157 181
137 156 181
138 157 181
138 156 181
137 156 181
138 156 181
138 156 181
138 157 181
138 157 181
138 157 181
138 156 181
138 156 181
138 156 181
138 156 181
137 156 181
138 156 181
138 156 181
139 157 181
138 157 181
137 156 181
138 156 181
138 156 181
138 156 181
137 156 181
136 156 181
139 157 181
137 156 181
138 156 181
137 156 181
138 157 181
138 156 181
139 157 181
138 156 181
138 156 181
138 156 181
137 156 181
138 156 181
137 156 181
138 156 181
138 156 181
137 156 181
138 156 181
137 156 181
138 156 181
138 156 181
137 156 181
137 156 181
139 157 181
138 156 181
137 156 181
138 157 181
139 157 181
137 156 181
138 156 181
137 156 181
138 156 181
138 156 181
137 156 181
137 156 181
136 156 181
137 156 181
137 156 181
138 156 181
137 156 181
138 156 181
138 156 181
137 156 181
138 156 181
138 156 181
137 156 181
138 156 181
138 156 181
137 156 181
139 157 181
138 156 181
137 156 181
139 157 181
137 154 177
135 150 171
132 145 164
130 140 156
126 128 139
122 128 141
127 121 126
115 106 106
113 101 98
114 93 81
106 86 72
110 86 68
101 79 63
109 86 68
109 86 68
108 86 67
113 88 70
111 87 69
107 84 68
108 84 67
107 84 67
103 82 64
104 82 66
113 89 71
111 87 68
109 85 68
109 86 68
103 82 65
104 83 65
110 88 70
110 87 69
106 84 66
109 86 69
112 88 70
109 86 69
107 86 68
108 85 69
103 82 64
110 85 68
104 82 65
108 85 68
106 84 67
109 86 69
107 84 68
108 85 68
110 87 70
105 82 65
110 87 70
106 84 68
106 83 65
105 83 66
107 84 68
108 85 68
105 83 66
107 84 67
109 88 69
110 87 69
105 83 66
108 85 68
109 87 69
107 84 67
108 85 67
106 84 67
109 85 67
113 89 72
107 84 65
111 87 69
109 87 68
104 83 66
105 83 66
109 86 69
104 83 66
108 85 68
110 87 69
109 86 68
106 83 66
105 82 65
106 84 67
109 86 69
107 85 68
105 84 66
106 83 66
108 85 67
110 87 70
111 87 70
111 87 69
109 86 69
108 85 68
110 87 69
100 78 63
111 87 70
104 82 66
105 83 66
104 83 66
107 85 68
110 86 68
107 85 67
108 85 68
112 87 71
112 92 81
128 119 117
138 135 140
147 153 164
148 155 168
147 161 178
150 165 184
137 153 173
154 171 190
132 149 167
145 160 181
147 163 183
146 166 181
127 149 157
123 147 150
118 139 142
124 148 152
116 140 146
115 137 147
142 161 181
130 148 168
136 154 174
145 162 186
146 162 192
144 161 194
150 163 208
152 166 222
158 171 233
152 166 234
154 169 232
156 170 237
153 166 234
159 171 233
146 159 210
146 162 208
141 157 193
139 156 184
136 155 177
140 159 184
141 161 184
133 156 166
137 164 156
140 169 146
125 161 91
129 168 71
129 168 72
135 175 79
131 169 84
130 171 73
128 170 59
131 172 73
127 168 68
127 165 71
126 164 76
129 164 85
115 151 64
113 149 76
108 145 74
96 134 73
87 124 70
83 124 71
76 118 58
74 115 58
68 110 45
74 109 63
60 100 34
73 109 66
72 110 57
57 94 34
75 108 71
70 105 58
67 101 59
70 95 62
72 101 68
91 115 109
105 124 134
117 134 152
131 149 174
129 147 168
125 143 168
128 146 170
124 136 158
127 128 150
133 117 138
134 103 121
142 94 113
145 108 126
144 95 114
148 103 123
140 97 115
141 101 117
138 102 118
137 96 113
138 93 113
140 94 107
140 104 121
138 97 115
137 95 113
131 88 104
138 96 114
125 82 101
129 96 115
135 95 113
128 96 112
124 88 105
130 89 105
129 90 105
130 94 111
126 86 103
127 87 103
121 95 109
117 107 123
118 124 140
114 129 147
109 126 143
109 126 144
120 138 156
115 132 149
123 141 161
121 138 157
117 135 154
123 142 163
125 143 162
129 148 169
128 147 167
129 148 169
127 146 166
120 138 158
130 147 168
132 148 169
122 137 152
122 132 140
119 126 131
111 116 117
125 131 134
115 118 117
119 125 127
116 121 123
116 120 121
115 120 122
110 113 112
117 123 126
117 122 124
118 123 126
114 117 117
117 122 125
112 115 115
116 122 124
117 122 123
113 116 115
113 117 117
114 117 115
113 117 117
110 114 114
118 124 127
115 121 122
118 123 125
120 126 127
117 125 131
122 133 145
124 138 154
120 134 152
119 135 153
124 141 160
121 138 156
121 138 155
122 139 157
116 132 149
119 134 153
115 132 147
116 132 150
117 133 152
113 128 143
120 136 155
120 136 155
122 139 157
114 129 145
117 135 151
113 130 145
102 117 129
113 130 146
126 143 164
114 130 147
123 139 158
120 137 154
122 137 156
118 134 151
127 144 164
120 137 157
123 139 159
122 139 160
124 141 162
108 117 128
123 127 134
160 160 161
181 179 179
182 181 181
181 180 181
181 180 181
180 180 181
180 180 181
180 180 181
179 179 181
179 179 181
178 179 181
178 179 181
178 179 181
177 178 181
177 178 181
177 178 181
177 178 181
176 178 181
176 178 181
176 178 181
175 177 181
175 177 181
175 177 181
175 177 181
174 177 181
174 177 181
174 177 181
174 177 181
173 176 181
173 176 181
173 176 181
173 176 181
173 176 181
172 176 181
172 176 181
172 176 181
172 176 181
172 175 181
171 175 181
171 175 181
171 175 181
171 175 181
171 175 181
170 175 181
170 175 181
170 175 181
170 175 181
170 175 181
170 174 181
169 174 181
169 174 181
169 174 181
169 174 181
169 174 181
169 174 181
168 174 181
168 174 181
168 174 181
168 174 181
168 174 181
168 174 181
168 173 181
167 173 181
167 173 181
167 173 181
167 173 181
167 173 181
167 173 181
167 173 181
166 173 181
166 173 181
166 173 181
166 173 181
166 173 181
166 173 181
166 173 181
166 172 181
165 172 181
165 172 181
165 172 181
165 172 181
165 172 181
165 172 181
165 172 181
165 172 181
164 172 181
164 172 181
164 172 181
164 172 181
164 172 181
164 172 181
164 172 181
164 172 181
164 171 181
164 171 181
163 171 181
163 171 181
163 171 181
163 171 181
163 171 181
163 171 181
163 171 181
163 171 181
163 171 181
162 171 181
162 171 181
162 171 181
162 171 181
162 171 181
162 171 181
162 171 181
162 171 181
162 171 181
162 171 181
162 171 181
162 170 181
161 170 181
161 170 181
161 170 181
161 170 181
161 170 181
161 170 181
161 170 181
161 170 181
161 170 181
161 170 181
161 170 181
161 170 181
160 170 181
160 170 181
160 170 181
160 170 181
160 170 181
160 170 181
160 170 181
160 170 181
160 170 181
160 170 181
160 170 181
160 170 181
160 170 181
160 170 181
160 169 181
159 169 181
159 169 181
159 169 181
159 169 181
159 169 181
159 169 181
159 169 181
159 169 181
159 169 181
159 169 181
159 169 181
159 169 181
159 169 181
159 169 181
159 169 181
159 169 181
159 169 181
158 169 181
158 169 181
158 169 181
158 169 181
158 169 181
158 169 181
158 169 181
158 169 181
158 169 181
158 169 181
158 169 181
158 169 181
158 169 181
158 169 181
158 169 181
158 169 181
158 169 181
158 169 181
158 169 181
158 169 181
158 169 181
158 169 181
158 169 181
157 169 181
157 169 181
157 168 181
157 168 181
157 168 181
157 168 181
157 168 181
157 168 181
157 168 181
157 168 181
157 168 181
157 168 181
157 168 181
157 168 181
157 168 181
157 168 181
157 168 181
157 168 181
157 168 181
157 168 181
157 168 181
157 168 181
157 168 181
157 168 181
157 168 181
157 168 181
157 168 181
157 168 181
157 168 181
157 168 181
157 168 181
157 168 181
157 168 181
157 168 181
157 168 181
157 168 181
157 168 181
157 168 181
157 168 181
157 168 181
157 168 181
157 168 181
157 168 181
157 168 181
157 168 181
157 168 181
157 168 181
157 168 181
157 168 181
157 168 181
156 168 181
156 168 181
157 168 181
156 168 181
156 168 181
157 168 181
157 168 181
157 168 181
156 168 181
156 168 181
157 168 181
157 168 181
157 168 181
157 168 181
157 168 181
157 168 181
157 168 181
157 168 181
157 168 181
157 168 181
157 168 181
157 168 181
157 168 181
157 168 181
157 168 181
157 168 181
157 168 181
157 168 181
157 168 181
157 168 181
157 168 181
157 168 181
157 168 181
157 168 181
157 168 181
157 168 181
157 168 181
157 168 181
157 168 181
157 168 181
157 168 181
157 168 181
157 168 181
157 168 181
157 168 181
157 168 181
157 168 181
157 168 181
157 168 181
157 168 181
157 168 181
157 168 181
157 168 181
157 168 181
157 168 181
157 168 181
157 168 181
157 168 181
157 168 181
157 168 181
157 168 181
157 168 181
157 168 181
157 169 181
158 169 181
158 169 181
158 169 181
158 169 181
158 169 181
158 169 181
158 169 181
158 169 181
158 169 181
158 169 181
158 169 181
158 169 181
158 169 181
158 169 181
158 169 181
158 169 181
158 169 181
158 169 181
158 169 181
158 169 181
158 169 181
158 169 181
158 169 181
159 169 181
159 169 181
159 169 181
159 169 181
159 169 181
159 169 181
159 169 181
159 169 181
159 169 181
159 169 181
159 169 181
159 169 181
159 169 181
159 169 181
159 169 181
159 169 181
159 169 181
160 169 181
160 170 181
160 170 181
160 170 181
160 170 181
160 170 181
160 170 181
160 170 181
160 170 181
160 170 181
160 170 181
160 170 181
160 170 181
160 170 181
160 170 181
161 170 181
161 170 181
161 170 181
161 170 181
161 170 181
161 170 181
161 170 181
161 170 181
161 170 181
161 170 181
161 170 181
161 170 181
162 170 181
162 170 181
162 171 181
162 171 181
162 171 181
162 171 181
162 171 181
162 171 181
162 171 181
162 171 181
162 171 181
162 171 181
163 171 181
163 171 181
163 171 181
163 171 181
163 171 181
163 171 181
163 171 181
163 171 181
163 171 181
163 171 181
164 171 181
164 172 181
164 172 181
164 172 181
164 172 181
164 172 181
164 172 181
164 172 181
164 172 181
165 172 181
165 172 181
165 172 181
165 172 181
165 172 181
165 172 181
165 172 181
165 172 181
166 172 181
166 172 181
166 173 181
166 173 181
166 173 181
166 173 181
166 173 181
166 173 181
167 173 181
167 173 181
167 173 181
167 173 181
167 173 181
167 173 181
167 173 181
168 173 181
168 173 181
168 174 181
168 174 181
168 174 181
168 174 181
168 174 181
169 174 181
169 174 181
169 174 181
169 174 181
169 174 181
169 174 181
170 174 181
170 175 181
170 175 181
170 175 181
170 175 181
170 175 181
171 175 181
171 175 181
171 175 181
171 175 181
171 175 181
172 175 181
172 176 181
172 176 181
172 176 181
172 176 181
173 176 181
173 176 181
173 176 181
173 176 181
173 176 181
174 176 181
174 177 181
174 177 181
174 177 181
175 177 181
175 177 181
175 177 181
175 177 181
176 177 181
176 178 181
176 178 181
176 178 181
177 178 181
177 178 181
177 178 181
178 178 181
178 179 181
178 179 181
179 179 181
179 179 181
179 179 181
180 180 181
180 180 181
181 180 181
181 180 181
182 181 181
182 181 181
183 181 181
184 182 181
170 174 181
148 161 181
139 157 181
137 156 181
137 156 181
137 156 181
139 157 181
137 156 181
139 157 181
137 156 181
138 157 181
138 156 181
138 157 181
140 159 183
138 156 181
138 156 181
139 157 181
136 156 181
137 156 181
138 157 181
136 156 181
137 156 181
139 157 181
139 158 182
138 156 181
139 157 181
137 156 181
138 157 181
138 156 181
139 158 181
138 156 181
138 156 181
138 156 181
139 157 181
137 156 181
138 156 181
138 156 181
139 157 181
136 156 181
139 157 181
138 156 181
139 157 181
138 157 181
137 156 181
137 156 181
139 158 182
139 157 181
138 157 181
138 157 181
138 156 181
139 157 181
138 156 181
141 159 183
139 157 181
140 158 181
139 157 181
137 156 181
139 157 181
137 156 181
137 156 181
138 157 181
139 158 181
140 158 181
142 160 184
142 160 183
139 157 181
139 157 181
138 156 181
139 157 181
138 157 181
139 157 181
140 158 182
138 156 181
140 158 182
141 159 182
137 156 181
138 157 181
141 160 184
138 156 181
138 157 181
140 158 182
146 163 187
140 158 182
140 158 182
139 157 181
139 157 181
142 161 185
140 158 182
139 158 181
140 158 181
141 159 183
145 163 186
141 159 182
139 157 181
145 163 186
140 158 182
140 158 182
141 159 183
139 158 182
140 158 182
142 160 183
141 159 182
144 161 184
140 158 181
141 159 183
144 162 186
139 157 181
144 161 185
139 157 181
143 161 184
142 160 183
139 157 181
145 163 187
140 159 183
143 161 185
140 158 182
140 159 183
142 160 183
140 159 182
142 161 185
143 161 184
139 157 181
144 161 185
141 159 183
142 159 182
144 162 185
140 158 182
142 160 183
140 158 182
144 161 184
146 163 187
140 158 182
141 159 183
142 160 184
139 157 181
140 158 182
143 161 185
147 165 188
145 162 186
140 158 182
144 161 185
139 158 182
142 160 184
139 158 182
139 157 181
140 159 182
142 160 184
140 159 183
144 161 185
143 161 185
139 158 182
142 161 185
142 160 183
143 160 184
146 164 188
145 163 186
143 161 185
147 165 189
145 163 187
140 158 182
145 163 186
144 162 186
146 164 188
146 164 188
146 163 186
151 168 190
147 165 188
146 164 187
144 162 186
143 161 185
142 160 184
141 159 183
144 161 185
141 159 183
143 161 185
142 160 184
144 161 184
146 164 188
145 162 186
143 161 184
145 162 186
144 162 186
143 161 185
143 160 184
144 163 187
142 160 184
145 163 187
141 160 184
146 164 188
146 163 187
145 163 187
147 164 188
146 163 187
146 164 188
144 162 186
144 162 186
144 162 185
144 162 186
146 164 188
149 167 190
146 164 187
145 162 186
145 163 187
147 165 188
148 165 188
144 161 185
145 163 187
146 164 188
146 164 188
146 165 188
146 164 187
151 168 191
147 165 188
148 165 188
147 165 188
154 171 194
148 166 188
149 166 189
148 166 189
148 166 189
147 165 188
153 171 194
152 168 191
148 166 189
149 166 189
150 167 190
149 167 190
149 167 190
150 167 190
151 168 190
149 167 190
150 167 190
146 164 188
156 173 195
147 164 188
147 165 188
148 165 188
147 164 188
145 163 187
148 165 188
143 162 187
155 172 194
147 165 188
153 171 194
146 164 187
152 169 192
151 168 191
143 161 185
144 162 186
153 170 193
149 166 189
149 166 189
152 169 193
143 161 185
146 164 188
149 167 190
154 171 194
147 164 188
149 166 188
151 169 192
144 162 186
149 167 190
145 163 187
151 168 191
152 169 192
155 172 195
146 164 187
153 171 194
153 171 194
151 168 191
150 168 191
150 168 192
148 166 189
153 170 193
148 166 189
153 170 193
152 169 192
151 169 192
149 166 189
159 175 198
147 164 188
154 171 194
149 167 190
153 170 193
152 170 193
154 171 194
154 171 194
151 168 191
153 170 193
154 171 194
150 167 190
156 173 196
152 169 192
152 169 192
156 173 196
152 169 193
150 167 190
158 175 198
154 171 194
156 173 195
155 172 194
151 168 191
157 174 196
156 173 196
159 176 199
146 164 188
152 169 192
149 166 190
154 171 194
156 173 196
157 174 196
157 173 196
159 175 197
155 172 195
