P3
1600 1
255
139 158 182
139 158 182
138 157 181
137 156 181
139 158 182
138 157 181
138 157 181
139 157 181
137 156 181
138 157 181
139 157 181
138 157 181
140 158 182
140 158 182
139 157 181
140 158 182
137 156 181
137 156 181
139 158 182
138 156 181
139 157 181
139 157 181
139 157 181
138 156 181
140 159 182
138 157 181
138 156 181
139 157 181
140 158 182
139 158 182
139 157 181
138 156 181
138 157 181
138 156 181
138 157 181
137 156 181
138 156 181
139 157 181
139 157 181
139 157 181
139 157 181
138 156 181
138 156 181
138 157 181
139 157 181
138 156 181
137 156 181
137 156 181
137 156 181
140 158 181
138 157 181
139 157 181
138 156 181
137 156 181
138 156 181
138 157 181
137 156 181
137 156 181
139 157 181
137 156 181
138 156 181
139 157 181
137 156 181
138 157 181
138 156 181
139 157 181
138 157 181
136 155 181
137 156 181
137 156 181
138 157 181
138 156 181
137 156 181
139 157 181
139 157 181
137 156 181
139 157 181
138 156 181
138 156 181
137 156 181
137 156 181
137 156 181
138 156 181
138 156 181
138 157 181
138 157 181
137 156 181
138 157 181
137 156 181
139 157 181
137 156 181
138 156 181
138 156 181
138 156 181
136 155 181
138 156 181
138 156 181
139 157 181
136 155 180
139 157 181
139 157 181
138 156 181
137 156 181
137 156 181
138 156 181
137 156 181
137 156 181
139 157 181
137 156 181
138 156 181
138 156 181
138 156 181
138 156 181
137 156 181
138 156 181
137 156 181
138 157 181
137 156 181
139 157 181
138 156 181
138 157 181
138 156 181
137 156 181
139 157 181
138 156 181
137 156 181
138 157 181
137 156 181
137 156 181
136 156 181
137 156 181
138 156 181
137 156 181
138 157 181
137 156 181
138 156 181
137 156 181
137 156 181
138 157 181
138 156 181
137 156 181
139 157 181
138 156 181
139 157 181
137 156 181
138 156 181
137 156 181
137 156 181
138 156 181
138 157 181
138 156 181
137 156 181
138 157 181
137 156 181
139 157 181
138 156 181
137 156 181
138 157 181
138 156 181
138 157 181
137 156 181
137 156 181
137 156 181
137 156 181
138 156 181
138 157 181
139 157 181
138 156 181
137 156 181
137 156 181
138 156 181
138 156 181
138 156 181
137 156 181
137 156 181
138 156 181
138 157 181
137 156 181
137 156 181
138 156 181
137 156 181
137 156 181
137 156 181
138 157 181
137 156 181
137 156 181
138 157 181
138 156 181
136 155 181
137 156 181
139 157 181
139 157 181
137 156 181
139 157 181
138 156 181
137 156 181
138 156 181
137 156 181
138 156 181
137 156 181
138 157 181
138 156 181
138 156 181
139 157 181
139 157 181
137 156 181
137 156 181
139 157 181
136 155 181
140 157 181
138 156 181
138 157 181
138 156 181
138 156 181
137 156 181
137 156 181
137 156 181
137 156 181
137 156 181
138 156 181
138 156 181
139 157 181
139 157 181
137 156 181
137 156 181
138 156 181
139 157 181
138 156 181
138 157 181
138 157 181
138 156 181
137 156 181
138 157 181
138 156 181
138 156 181
137 156 181
137 156 181
138 156 181
138 157 181
137 156 181
137 156 181
138 156 181
138 156 181
136 156 181
137 156 181
137 156 181
139 157 181
140 157 181
137 156 181
137 156 181
139 157 181
138 156 181
137 156 181
138 157 181
137 156 181
138 156 181
137 156 181
138 156 181
138 157 181
138 156 181
138 157 181
138 156 181
138 157 181
138 156 181
137 156 181
137 156 181
138 157 181
138 156 181
138 156 181
138 156 181
138 156 181
137 156 181
137 156 181
138 157 181
139 157 181
138 157 181
138 156 181
138 156 181
138 156 181
138 157 181
136 156 181
138 156 181
138 157 181
138 157 181
138 156 181
138 156 181
139 157 181
138 156 181
137 156 181
136 156 181
137 156 181
138 157 181
138 156 181
138 157 181
138 156 181
138 156 181
138 156 181
137 156 181
138 157 181
137 156 181
138 156 181
138 156 181
138 156 181
138 156 181
138 157 181
138 157 181
138 156 181
138 156 180
139 157 181
137 156 181
137 156 181
138 157 181
137 156 181
140 157 181
138 156 181
137 156 181
137 156 181
136 156 181
138 156 181
138 157 181
138 156 181
138 156 181
138 156 181
138 156 181
138 156 181
138 156 181
138 156 181
137 156 181
138 156 181
138 156 181
138 156 181
137 156 181
138 156 181
139 157 181
138 156 181
138 156 181
138 157 181
138 156 181
138 156 181
137 156 181
138 157 181
137 156 181
139 157 181
137 156 181
137 156 181
137 156 181
138 156 181
136 156 181
137 156 181
137 156 181
137 156 181
138 157 181
138 156 181
136 155 181
137 156 181
138 156 181
137 156 181
138 157 181
137 156 181
137 156 181
135 155 181
139 157 181
138 156 181
137 156 181
139 157 181
139 157 181
138 157 181
137 156 181
137 156 181
138 156 181
139 157 181
138 157 181
137 156 181
138 157 181
137 156 181
138 156 181
139 157 181
137 156 181
137 156 181
137 156 181
138 156 181
138 156 181
137 156 181
139 157 181
138 156 181
138 156 181
137 156 181
137 156 181
138 156 181
137 156 181
137 156 181
138 157 181
139 157 181
139 157 181
138 156 181
139 157 181
138 156 181
137 156 181
137 156 181
138 156 181
139 157 181
139 157 181
137 156 181
138 156 181
138 156 181
136 155 180
138 156 181
139 157 181
138 156 181
137 156 181
138 156 181
138 156 181
137 156 181
139 157 181
139 157 181
137 156 181
139 157 181
139 157 181
136 155 181
137 156 181
139 157 181
138 156 181
137 156 181
138 156 181
138 157 181
139 157 181
138 156 181
138 156 181
138 156 181
138 156 181
138 156 181
138 156 181
139 157 181
139 157 181
138 157 181
138 156 181
138 156 181
138 156 181
139 157 181
137 156 181
138 156 181
138 156 181
139 157 181
138 157 181
137 156 181
138 156 181
137 156 181
138 156 181
137 156 181
136 155 181
138 157 181
137 156 181
138 156 181
137 156 181
138 157 181
138 156 181
138 157 181
138 156 181
138 156 181
138 156 181
138 156 181
137 156 181
137 156 181
137 156 181
138 156 181
137 156 181
137 156 181
137 156 181
137 156 181
138 156 181
137 156 181
137 156 181
139 157 181
138 156 181
137 156 181
139 157 181
139 157 181
137 156 181
138 156 181
137 156 181
138 156 180
138 156 181
137 156 181
137 156 181
137 156 181
137 156 181
137 156 181
138 156 181
137 156 181
137 156 181
138 156 181
138 156 181
138 156 181
138 157 181
137 156 181
138 156 181
138 156 181
137 156 181
139 157 181
137 156 181
137 156 181
139 157 181
137 156 181
139 157 181
138 157 181
137 156 181
137 156 181
139 157 181
136 156 181
138 156 181
138 156 181
137 156 181
138 157 181
136 152 175
136 150 171
128 138 155
129 135 150
126 125 133
122 118 124
113 107 108
114 105 106
111 91 76
110 88 71
105 82 66
115 89 70
98 77 62
101 80 63
108 85 68
106 83 67
112 88 70
107 84 66
107 85 67
103 81 64
108 86 68
109 86 69
109 86 68
107 84 66
106 85 66
112 89 70
109 86 68
108 84 67
110 86 68
109 86 68
101 80 63
107 84 67
103 82 66
114 90 71
104 83 65
107 85 67
115 90 72
105 83 65
114 89 71
108 85 67
111 87 69
109 86 67
103 81 64
106 83 66
108 85 67
104 84 66
103 83 66
106 85 67
104 82 64
110 87 68
109 85 67
106 85 67
104 82 64
102 81 64
108 85 67
109 85 69
112 88 70
112 87 69
106 83 65
105 82 65
107 85 67
111 87 70
105 83 66
101 81 64
109 86 69
111 87 70
106 84 67
112 88 69
102 82 64
109 87 68
109 86 68
105 83 66
112 88 69
105 82 66
107 84 67
113 89 71
111 87 70
109 85 68
104 82 64
109 86 68
106 84 66
106 83 66
105 83 66
111 88 70
102 82 65
107 85 67
109 86 69
108 86 68
108 84 66
109 85 67
104 82 65
105 83 66
106 85 67
106 84 67
102 80 64
100 80 64
105 81 65
114 97 87
111 95 84
131 129 129
154 162 173
147 154 165
148 160 176
130 146 163
144 159 178
133 147 167
133 147 167
135 147 165
145 159 177
138 159 167
136 158 165
94 131 115
108 147 130
93 138 115
111 146 137
123 154 151
119 146 152
135 156 175
145 162 185
140 155 179
126 141 167
122 135 161
129 141 173
148 159 201
154 164 213
155 166 219
157 168 226
153 164 224
151 166 219
145 159 206
135 152 190
134 155 189
134 154 183
131 149 175
133 155 179
138 157 182
138 156 180
135 156 180
139 160 179
135 161 170
137 164 163
127 161 124
136 171 117
136 177 84
129 173 67
134 177 75
136 177 87
131 175 76
130 172 65
127 166 82
132 168 106
130 165 114
127 161 123
118 151 117
108 140 121
104 134 118
77 119 61
76 119 57
75 120 52
79 122 64
77 115 63
77 116 61
68 112 38
76 120 56
75 112 61
64 102 40
71 111 49
71 105 57
78 109 70
75 108 67
71 106 59
87 114 92
101 125 120
105 126 131
128 148 166
133 152 175
127 145 165
131 149 177
128 144 168
133 139 161
139 123 144
145 116 139
140 100 118
154 119 137
150 107 126
155 107 127
145 101 121
150 102 121
151 108 128
145 104 123
146 102 120
142 94 113
142 99 117
146 99 118
143 94 113
137 95 113
138 99 117
136 96 113
131 89 105
143 101 120
133 92 110
146 105 124
139 98 114
135 94 112
137 97 115
122 80 96
132 103 120
122 100 114
121 113 131
116 129 146
116 134 152
117 134 151
121 139 158
130 148 169
129 147 167
122 141 161
121 138 156
133 152 175
126 144 164
131 149 170
126 145 166
127 144 164
131 149 169
129 146 167
125 144 164
123 139 157
116 130 144
109 120 128
104 110 109
114 119 122
116 121 123
113 118 117
108 111 112
109 115 118
114 115 119
108 106 107
116 115 119
112 110 111
112 112 116
114 119 121
115 119 122
113 116 115
119 123 124
116 120 121
120 124 126
108 112 112
108 111 112
99 102 103
104 107 108
115 118 121
114 116 119
113 114 113
116 121 123
116 120 122
115 120 121
116 122 123
114 119 121
111 117 116
114 125 130
113 127 141
104 119 132
93 107 113
99 113 122
98 111 117
98 114 121
98 112 121
84 97 102
89 101 109
80 92 96
75 85 89
76 87 90
67 76 78
74 82 86
75 87 89
75 85 88
73 85 87
61 72 70
69 79 77
89 101 108
88 101 109
101 115 126
95 108 117
90 103 112
104 118 130
94 107 115
100 115 127
110 125 141
105 120 132
105 114 121
119 123 129
159 160 162
183 181 181
182 181 181
182 181 181
181 180 181
181 180 181
180 180 181
180 180 181
179 179 181
179 179 181
179 179 181
178 179 181
178 179 181
178 179 181
177 178 181
177 178 181
177 178 181
177 178 181
176 178 181
176 178 181
176 178 181
175 177 181
175 177 181
175 177 181
175 177 181
175 177 181
174 177 181
174 177 181
174 177 181
174 176 181
173 176 181
173 176 181
173 176 181
173 176 181
173 176 181
172 176 181
172 176 181
172 176 181
172 176 181
172 175 181
171 175 181
171 175 181
171 175 181
171 175 181
171 175 181
171 175 181
170 175 181
170 175 181
170 175 181
170 175 181
170 175 181
170 174 181
169 174 181
169 174 181
169 174 181
169 174 181
169 174 181
169 174 181
169 174 181
168 174 181
168 174 181
168 174 181
168 174 181
168 174 181
168 173 181
168 173 181
167 173 181
167 173 181
167 173 181
167 173 181
167 173 181
167 173 181
167 173 181
166 173 181
166 173 181
166 173 181
166 173 181
166 173 181
166 173 181
166 173 181
166 172 181
166 172 181
165 172 181
165 172 181
165 172 181
165 172 181
165 172 181
165 172 181
165 172 181
165 172 181
165 172 181
164 172 181
164 172 181
164 172 181
164 172 181
164 172 181
164 172 181
164 172 181
164 172 181
164 171 181
164 171 181
163 171 181
163 171 181
163 171 181
163 171 181
163 171 181
163 171 181
163 171 181
163 171 181
163 171 181
163 171 181
163 171 181
162 171 181
162 171 181
162 171 181
162 171 181
162 171 181
162 171 181
162 171 181
162 171 181
162 171 181
162 171 181
162 170 181
161 170 181
161 170 181
161 170 181
161 170 181
161 170 181
161 170 181
161 170 181
161 170 181
161 170 181
161 170 181
161 170 181
161 170 181
161 170 181
161 170 181
161 170 181
160 170 181
160 170 181
160 170 181
160 170 181
160 170 181
160 170 181
160 170 181
160 170 181
160 170 181
160 170 181
160 170 181
160 170 181
160 170 181
160 170 181
160 170 181
160 169 181
159 169 181
159 169 181
159 169 181
159 169 181
159 169 181
159 169 181
159 169 181
159 169 181
159 169 181
159 169 181
159 169 181
159 169 181
159 169 181
159 169 181
159 169 181
159 169 181
159 169 181
159 169 181
159 169 181
159 169 181
158 169 181
158 169 181
158 169 181
158 169 181
158 169 181
158 169 181
158 169 181
158 169 181
158 169 181
158 169 181
158 169 181
158 169 181
158 169 181
158 169 181
158 169 181
158 169 181
158 169 181
158 169 181
158 169 181
158 169 181
158 169 181
158 169 181
158 169 181
158 169 181
158 169 181
158 169 181
158 169 181
158 169 181
158 169 181
158 169 181
158 169 181
158 169 181
157 169 181
157 169 181
157 168 181
157 168 181
157 168 181
157 168 181
157 168 181
157 168 181
157 168 181
157 168 181
157 168 181
157 168 181
157 168 181
157 168 181
157 168 181
157 168 181
157 168 181
157 168 181
157 168 181
157 168 181
157 168 181
157 168 181
157 168 181
157 168 181
157 168 181
157 168 181
157 168 181
157 168 181
157 168 181
157 168 181
157 168 181
157 168 181
157 168 181
157 168 181
157 168 181
157 168 181
157 168 181
157 168 181
157 168 181
157 168 181
157 168 181
157 168 181
157 168 181
157 168 181
157 168 181
157 168 181
157 168 181
157 168 181
157 168 181
157 168 181
157 168 181
157 168 181
157 168 181
157 168 181
157 168 181
157 168 181
157 168 181
157 168 181
157 168 181
157 168 181
157 168 181
157 168 181
157 168 181
157 168 181
157 168 181
157 168 181
157 168 181
157 168 181
157 168 181
157 168 181
157 168 181
157 168 181
158 169 181
158 169 181
158 169 181
158 169 181
158 169 181
158 169 181
158 169 181
158 169 181
158 169 181
158 169 181
158 169 181
158 169 181
158 169 181
158 169 181
158 169 181
158 169 181
158 169 181
158 169 181
158 169 181
158 169 181
158 169 181
158 169 181
158 169 181
158 169 181
158 169 181
158 169 181
158 169 181
158 169 181
158 169 181
158 169 181
158 169 181
158 169 181
159 169 181
159 169 181
159 169 181
159 169 181
159 169 181
159 169 181
159 169 181
159 169 181
159 169 181
159 169 181
159 169 181
159 169 181
159 169 181
159 169 181
159 169 181
159 169 181
159 169 181
159 169 181
159 169 181
159 169 181
160 169 181
160 170 181
160 170 181
160 170 181
160 170 181
160 170 181
160 170 181
160 170 181
160 170 181
160 170 181
160 170 181
160 170 181
160 170 181
160 170 181
160 170 181
160 170 181
160 170 181
161 170 181
161 170 181
161 170 181
161 170 181
161 170 181
161 170 181
161 170 181
161 170 181
161 170 181
161 170 181
161 170 181
161 170 181
161 170 181
161 170 181
162 170 181
162 171 181
162 171 181
162 171 181
162 171 181
162 171 181
162 171 181
162 171 181
162 171 181
162 171 181
162 171 181
162 171 181
163 171 181
163 171 181
163 171 181
163 171 181
163 171 181
163 171 181
163 171 181
163 171 181
163 171 181
163 171 181
163 171 181
164 171 181
164 172 181
164 172 181
164 172 181
164 172 181
164 172 181
164 172 181
164 172 181
164 172 181
164 172 181
165 172 181
165 172 181
165 172 181
165 172 181
165 172 181
165 172 181
165 172 181
165 172 181
165 172 181
166 172 181
166 173 181
166 173 181
166 173 181
166 173 181
166 173 181
166 173 181
166 173 181
167 173 181
167 173 181
167 173 181
167 173 181
167 173 181
167 173 181
167 173 181
167 173 181
168 173 181
168 174 181
168 174 181
168 174 181
168 174 181
168 174 181
168 174 181
169 174 181
169 174 181
169 174 181
169 174 181
169 174 181
169 174 181
170 174 181
170 174 181
170 175 181
170 175 181
170 175 181
170 175 181
171 175 181
171 175 181
171 175 181
171 175 181
171 175 181
171 175 181
172 175 181
172 176 181
172 176 181
172 176 181
172 176 181
173 176 181
173 176 181
173 176 181
173 176 181
173 176 181
174 176 181
174 177 181
174 177 181
174 177 181
174 177 181
175 177 181
175 177 181
175 177 181
175 177 181
176 177 181
176 178 181
176 178 181
176 178 181
177 178 181
177 178 181
177 178 181
178 178 181
178 179 181
178 179 181
179 179 181
179 179 181
179 179 181
180 180 181
180 180 181
180 180 181
181 180 181
181 180 181
182 181 181
183 181 181
183 181 181
182 181 181
170 173 180
150 162 180
137 156 181
139 157 181
138 156 181
138 156 181
137 156 181
138 156 181
138 156 181
139 157 181
137 156 181
138 156 181
138 156 181
137 156 181
137 156 181
138 156 181
140 157 181
136 155 181
138 157 181
139 157 181
138 156 181
138 156 181
139 157 181
136 155 181
138 156 181
137 156 181
138 156 181
138 157 181
139 157 181
137 156 181
137 156 181
137 156 181
138 156 181
137 156 181
138 157 181
138 157 181
138 156 181
138 156 181
138 156 181
138 156 181
136 155 181
138 156 181
138 156 181
139 157 181
138 156 181
139 157 181
138 156 181
138 156 181
138 157 181
138 156 181
138 157 181
138 156 181
137 156 181
139 157 181
139 157 181
138 156 181
140 157 181
138 157 181
137 156 181
138 156 181
138 157 181
138 157 181
137 156 181
139 157 181
138 156 181
137 156 181
138 157 181
137 156 181
139 157 181
137 156 181
137 156 181
138 157 181
137 156 181
137 156 181
138 156 181
138 156 181
138 156 181
138 157 181
139 157 181
138 156 181
138 156 181
138 156 181
138 157 181
138 156 181
137 156 181
138 156 181
137 156 181
138 157 181
138 156 181
138 156 181
138 156 181
138 157 181
137 156 181
139 157 181
136 156 181
138 156 181
137 156 181
138 156 181
138 156 181
138 156 181
137 156 181
138 156 181
138 156 181
136 156 181
138 156 181
138 156 181
138 157 181
138 157 181
139 157 181
136 155 181
137 156 181
137 156 181
139 157 181
138 156 181
138 156 181
137 156 181
139 157 181
139 157 181
138 156 181
138 156 181
136 155 181
138 157 181
137 156 181
138 156 181
138 156 181
138 156 181
138 156 181
137 156 181
139 157 181
137 156 181
138 156 181
138 156 181
138 156 181
137 156 181
138 157 181
137 156 181
137 156 181
137 156 181
137 156 181
138 157 181
137 156 181
139 157 181
137 156 181
138 157 181
137 156 181
138 156 181
138 157 181
138 156 181
138 156 181
138 156 181
137 156 181
138 157 181
139 157 181
137 156 181
139 157 181
137 156 181
138 156 181
138 156 181
137 156 181
137 156 181
138 156 181
137 156 181
138 156 181
137 156 181
137 156 181
138 157 181
138 156 181
139 157 181
137 156 181
138 156 181
137 156 181
138 157 181
139 157 181
137 156 181
139 157 181
137 156 181
138 156 181
139 157 181
139 157 181
138 156 181
137 156 181
138 156 181
138 156 181
138 157 180
138 156 181
138 157 181
139 157 181
139 157 180
138 157 181
136 155 181
137 156 181
137 156 181
138 157 181
139 157 181
137 156 181
137 156 181
138 156 181
138 156 181
138 157 181
139 157 181
137 156 181
139 157 181
137 156 181
138 156 181
138 156 181
138 156 181
139 157 181
137 156 181
138 156 181
137 156 181
138 156 181
137 155 180
138 156 181
139 157 181
138 156 181
138 156 181
138 156 181
137 156 181
137 156 181
137 156 181
138 156 181
138 157 181
139 157 181
137 156 181
138 156 181
138 156 181
138 157 181
137 156 181
138 157 181
138 156 181
137 156 181
138 156 181
138 156 181
138 156 181
137 156 181
138 156 181
138 156 181
138 157 181
137 156 181
137 156 181
139 157 181
139 157 181
136 156 181
137 156 181
138 157 181
138 156 181
139 157 181
138 156 181
137 156 181
138 156 181
138 157 181
137 156 181
137 156 181
137 156 181
139 157 181
139 157 181
138 157 181
139 157 181
136 156 181
138 156 180
138 157 181
137 156 181
139 158 181
141 159 181
138 156 181
140 158 181
139 157 181
137 156 181
138 157 181
137 156 181
138 156 181
138 156 181
138 156 181
138 156 181
139 157 181
137 156 181
139 157 181
137 156 181
137 156 181
138 157 181
139 158 181
139 157 181
139 157 181
138 156 181
138 156 181
139 158 182
139 157 181
138 156 181
139 157 181
138 156 181
138 156 181
140 159 183
138 157 181
137 156 181
138 157 181
138 156 181
140 158 182
138 157 181
138 157 181
139 157 181
139 157 181
139 157 181
138 156 181
139 158 181
138 156 181
138 157 181
138 157 181
140 158 181
140 159 182
141 159 183
137 156 181
137 156 181
