P3
1600 1
255
137 156 181
136 156 181
137 156 181
137 156 181
137 156 181
139 157 181
138 156 181
138 157 181
137 156 181
138 156 181
139 157 181
138 157 181
137 156 181
138 157 181
139 157 181
138 156 181
137 156 181
138 156 181
136 156 181
138 156 181
138 156 181
138 156 181
138 157 181
137 156 181
139 157 181
137 156 181
137 156 181
138 157 181
137 156 181
138 156 181
139 157 181
138 156 181
137 156 181
138 156 181
139 157 181
137 156 181
138 157 181
139 157 181
139 157 181
138 156 181
139 157 181
138 156 181
137 156 181
137 156 181
138 157 181
138 157 181
137 156 181
137 156 181
137 156 181
139 157 181
138 156 181
138 157 181
138 156 181
137 156 181
138 156 181
138 156 181
137 156 181
138 157 181
138 156 181
137 156 181
138 157 181
138 157 181
137 156 181
138 157 181
138 156 181
139 157 181
138 156 181
136 155 181
137 156 181
138 156 181
138 157 181
138 156 181
137 156 181
139 157 181
138 156 181
138 156 181
140 157 181
138 156 181
138 156 181
137 156 181
137 156 181
138 156 181
138 156 181
138 156 181
138 156 181
138 157 181
138 156 181
138 156 181
138 156 181
138 156 181
138 156 181
137 156 181
138 156 181
138 156 181
136 155 181
138 156 181
138 156 181
139 157 181
136 155 180
139 157 181
139 157 181
137 156 181
137 156 181
138 156 181
137 156 181
137 156 181
137 156 181
138 156 181
138 156 181
138 156 181
137 156 181
138 156 181
138 156 181
138 156 181
138 156 181
137 156 181
138 156 181
138 157 181
138 156 181
138 156 181
139 157 181
138 156 181
137 156 181
139 157 181
138 156 181
138 156 181
138 156 181
137 156 181
137 156 181
136 156 181
137 156 181
138 156 181
137 156 181
138 157 181
137 156 181
138 156 181
136 156 181
138 156 181
138 156 181
138 156 181
137 156 181
139 157 181
138 157 181
138 156 181
138 156 181
138 156 181
137 156 181
137 156 181
138 157 181
138 156 181
138 156 181
137 156 181
138 156 181
138 157 181
138 156 181
138 156 181
138 156 181
138 156 181
138 157 181
138 156 181
137 156 181
137 156 181
137 156 181
137 156 181
138 157 181
139 157 181
139 157 181
138 156 181
137 156 181
138 156 181
137 156 181
138 156 181
138 156 181
137 156 181
138 156 181
137 156 181
138 157 181
138 156 181
137 156 181
138 156 181
137 156 181
137 156 181
136 156 181
139 157 181
137 156 181
137 156 181
139 157 181
138 156 181
136 155 181
138 156 181
139 157 181
139 157 181
138 156 181
138 156 181
138 156 181
137 156 181
138 156 181
138 157 181
137 156 181
137 156 181
139 157 181
138 156 181
138 156 181
139 157 181
138 156 181
137 156 181
138 156 181
138 157 181
137 156 181
140 157 181
138 156 181
138 156 181
138 156 181
138 156 181
137 156 181
137 156 181
137 156 181
137 156 181
138 156 181
138 156 181
138 156 181
139 157 181
138 157 181
137 156 181
138 156 181
138 157 181
140 157 181
137 156 181
138 156 181
139 157 181
137 156 181
138 156 181
138 157 181
138 157 181
137 156 181
137 156 181
137 156 181
137 156 181
138 157 181
138 156 181
137 156 181
137 156 181
138 156 181
137 156 181
137 156 181
137 156 181
139 157 181
139 157 181
137 156 181
137 156 181
139 157 181
138 156 181
138 156 181
138 156 181
137 156 181
138 156 181
137 156 181
138 156 181
138 157 181
138 157 181
138 156 181
138 156 181
138 156 181
138 157 181
137 156 181
137 156 181
139 157 181
138 156 181
138 156 181
138 156 181
138 156 181
137 156 181
138 156 181
138 156 181
139 157 181
138 156 181
138 157 181
137 156 181
138 156 181
138 156 181
137 156 181
137 156 181
138 157 181
138 157 181
138 156 181
138 156 181
139 157 181
137 156 181
137 156 181
137 156 181
138 156 181
138 157 181
138 156 181
138 157 181
137 156 181
138 156 181
138 157 181
137 156 181
138 156 181
137 156 181
137 156 181
138 157 181
138 157 181
138 156 181
138 156 181
138 157 181
138 157 181
139 156 180
139 157 181
137 156 181
138 156 181
138 156 181
138 156 181
140 157 181
138 156 181
136 156 181
137 156 181
137 156 181
137 156 181
139 157 181
138 156 181
138 156 181
137 156 181
138 156 181
138 156 181
138 156 181
138 156 181
137 156 181
138 156 181
138 156 181
138 156 181
136 155 181
138 157 181
139 157 181
138 156 181
139 157 181
137 156 181
139 157 181
138 156 181
137 156 181
138 156 181
137 156 181
138 157 181
138 156 181
137 156 181
137 156 181
137 156 181
137 156 181
136 156 181
138 156 181
137 156 181
138 156 181
138 156 181
136 155 181
137 156 181
138 156 181
138 156 181
138 156 181
136 156 181
137 156 181
136 155 181
139 157 181
138 156 181
137 156 181
138 157 181
139 157 181
138 156 181
138 156 181
137 156 181
138 156 181
139 157 181
138 156 181
137 156 181
138 156 181
137 156 181
138 156 181
139 157 181
137 156 181
137 156 181
137 156 181
138 156 181
138 156 181
138 156 181
138 157 181
138 157 181
138 156 181
137 156 181
137 156 181
138 156 181
137 156 181
138 156 181
138 157 181
139 157 181
139 157 181
138 156 181
140 157 181
137 156 181
138 156 181
137 156 181
138 157 181
139 157 181
139 157 181
137 156 181
138 156 181
138 157 181
136 155 180
138 156 181
139 157 181
137 156 181
137 156 181
138 157 181
137 156 181
138 156 181
139 157 181
138 157 181
137 156 181
139 157 181
138 156 181
136 155 181
138 156 181
138 157 181
138 156 181
137 156 181
138 157 181
138 157 181
139 157 181
138 156 181
138 156 181
138 156 181
137 156 181
139 157 181
138 156 181
139 157 181
139 157 181
138 156 181
138 156 181
138 156 181
138 157 181
138 157 181
137 156 181
138 156 181
138 157 181
139 157 181
138 157 181
138 156 181
138 156 181
138 156 181
137 156 181
137 156 181
137 156 181
138 156 181
137 156 181
138 156 181
137 156 181
137 156 181
139 157 181
138 156 181
138 156 181
138 157 181
137 156 181
138 156 181
137 156 181
137 156 181
138 156 181
137 156 181
137 156 181
138 156 181
138 156 181
137 156 181
138 157 181
137 156 181
138 156 181
138 157 181
138 156 181
136 155 181
139 157 181
138 156 181
137 156 181
137 156 181
138 156 181
137 156 180
137 156 181
138 156 181
137 156 181
137 156 181
137 156 181
137 156 181
137 156 181
137 156 181
137 156 181
138 156 181
137 156 181
138 156 181
138 157 181
136 156 181
138 156 181
137 156 181
138 156 181
138 157 181
137 156 181
137 156 181
139 157 181
137 156 181
138 156 181
139 157 181
136 156 181
137 156 181
139 157 181
136 155 181
138 157 181
137 156 181
137 156 181
138 156 181
136 152 174
135 149 169
128 139 157
129 135 149
120 119 126
122 124 133
114 108 111
114 103 104
112 91 78
104 84 70
108 85 68
112 87 69
100 79 63
103 81 64
110 86 69
111 87 69
109 86 68
108 86 67
108 85 68
105 82 65
109 86 69
110 87 69
109 85 68
106 83 66
111 88 69
110 87 68
107 84 67
109 85 68
109 85 68
109 85 68
99 78 62
110 86 69
105 84 67
114 89 71
103 82 64
107 84 66
113 90 71
109 86 68
111 87 69
109 85 68
109 86 68
107 85 67
104 83 65
104 82 65
111 88 69
106 84 67
105 84 67
111 88 69
101 81 64
109 85 67
108 85 67
106 84 66
108 85 67
103 82 64
108 86 68
108 86 69
109 86 68
111 87 68
110 86 68
108 84 68
105 83 66
107 84 68
107 83 66
106 83 67
110 87 69
109 86 69
106 84 66
106 84 66
105 83 66
110 86 69
103 82 65
111 87 69
109 86 68
106 83 66
108 84 67
112 88 70
112 87 69
110 87 69
106 83 66
106 84 67
102 81 64
107 84 67
105 82 65
107 85 68
105 84 66
109 85 67
108 85 67
107 85 68
105 82 65
108 85 67
106 83 66
104 84 66
108 86 68
106 84 67
107 84 66
107 85 67
104 81 64
109 94 83
124 114 109
141 141 145
155 162 173
156 165 177
161 174 190
141 155 171
150 166 186
139 154 175
133 148 168
144 154 171
138 153 164
129 146 158
138 162 163
107 142 128
102 144 122
102 139 124
123 153 152
132 158 164
135 157 169
132 151 169
143 160 182
120 134 159
128 142 167
116 128 149
128 139 165
123 133 170
136 144 191
148 157 206
158 169 217
147 159 207
157 170 216
139 155 190
141 159 194
141 158 187
133 153 178
132 154 181
139 159 184
141 161 186
136 157 180
136 155 180
138 160 186
134 159 177
132 156 155
131 163 134
136 170 123
137 177 92
132 178 72
134 175 80
133 175 79
131 175 70
134 172 98
130 168 95
134 170 122
136 167 145
131 163 138
116 149 126
103 138 110
93 129 91
71 118 42
71 119 39
81 129 59
82 124 68
74 117 52
79 123 59
71 115 46
75 119 52
69 105 52
64 110 19
62 98 41
78 113 69
70 108 50
77 112 65
78 110 70
93 119 106
100 124 121
113 133 139
132 153 171
136 154 179
128 146 169
137 154 181
132 149 175
131 136 159
145 128 149
141 112 135
148 110 129
150 115 132
147 102 120
149 101 120
143 101 118
150 105 125
154 111 130
147 100 118
149 103 122
143 96 115
144 102 119
145 101 120
137 92 110
144 104 122
139 97 115
133 88 105
142 96 114
147 107 127
130 90 108
141 103 121
137 92 111
133 96 114
136 96 114
130 93 109
124 95 111
123 104 118
107 107 119
107 125 141
120 138 156
122 142 160
126 145 164
122 142 160
125 143 161
122 141 161
123 142 162
135 153 175
133 152 174
126 144 165
135 153 175
123 142 161
122 140 160
137 156 178
130 149 169
120 139 158
113 126 136
106 115 120
103 112 113
115 123 126
111 117 118
117 126 127
114 122 121
107 106 108
111 109 111
108 97 101
113 100 105
110 105 108
115 116 127
130 134 137
121 127 127
127 129 131
118 123 123
121 123 126
106 108 107
104 104 104
100 101 100
99 101 103
107 110 111
104 106 111
101 103 104
103 106 109
113 116 119
111 114 117
105 109 111
112 119 122
111 116 118
111 119 123
115 126 133
105 119 127
106 120 132
109 125 138
116 132 146
108 123 135
96 109 119
86 99 104
83 96 100
94 108 112
67 78 73
78 92 88
68 81 73
63 74 70
64 76 71
58 71 61
57 68 64
71 84 81
69 83 81
77 91 91
95 109 117
102 116 128
94 108 117
90 104 114
107 121 131
102 116 125
109 124 137
115 129 144
97 113 123
105 119 130
104 111 116
134 136 139
177 176 176
183 181 181
182 181 181
181 180 181
181 180 181
180 180 181
180 180 181
180 180 181
179 179 181
179 179 181
179 179 181
178 179 181
178 179 181
178 179 181
177 178 181
177 178 181
177 178 181
176 178 181
176 178 181
176 178 181
176 178 181
175 177 181
175 177 181
175 177 181
175 177 181
175 177 181
174 177 181
174 177 181
174 177 181
174 176 181
173 176 181
173 176 181
173 176 181
173 176 181
173 176 181
172 176 181
172 176 181
172 176 181
172 176 181
172 175 181
171 175 181
171 175 181
171 175 181
171 175 181
171 175 181
171 175 181
170 175 181
170 175 181
170 175 181
170 175 181
170 175 181
170 174 181
169 174 181
169 174 181
169 174 181
169 174 181
169 174 181
169 174 181
169 174 181
168 174 181
168 174 181
168 174 181
168 174 181
168 174 181
168 174 181
168 173 181
167 173 181
167 173 181
167 173 181
167 173 181
167 173 181
167 173 181
167 173 181
167 173 181
166 173 181
166 173 181
166 173 181
166 173 181
166 173 181
166 173 181
166 173 181
166 172 181
165 172 181
165 172 181
165 172 181
165 172 181
165 172 181
165 172 181
165 172 181
165 172 181
165 172 181
164 172 181
164 172 181
164 172 181
164 172 181
164 172 181
164 172 181
164 172 181
164 172 181
164 172 181
164 171 181
164 171 181
163 171 181
163 171 181
163 171 181
163 171 181
163 171 181
163 171 181
163 171 181
163 171 181
163 171 181
163 171 181
163 171 181
162 171 181
162 171 181
162 171 181
162 171 181
162 171 181
162 171 181
162 171 181
162 171 181
162 171 181
162 171 181
162 171 181
162 170 181
161 170 181
161 170 181
161 170 181
161 170 181
161 170 181
161 170 181
161 170 181
161 170 181
161 170 181
161 170 181
161 170 181
161 170 181
161 170 181
161 170 181
160 170 181
160 170 181
160 170 181
160 170 181
160 170 181
160 170 181
160 170 181
160 170 181
160 170 181
160 170 181
160 170 181
160 170 181
160 170 181
160 170 181
160 170 181
160 170 181
160 170 181
159 169 181
159 169 181
159 169 181
159 169 181
159 169 181
159 169 181
159 169 181
159 169 181
159 169 181
159 169 181
159 169 181
159 169 181
159 169 181
159 169 181
159 169 181
159 169 181
159 169 181
159 169 181
159 169 181
159 169 181
159 169 181
159 169 181
158 169 181
158 169 181
158 169 181
158 169 181
158 169 181
158 169 181
158 169 181
158 169 181
158 169 181
158 169 181
158 169 181
158 169 181
158 169 181
158 169 181
158 169 181
158 169 181
158 169 181
158 169 181
158 169 181
158 169 181
158 169 181
158 169 181
158 169 181
158 169 181
158 169 181
158 169 181
158 169 181
158 169 181
158 169 181
158 169 181
158 169 181
158 169 181
158 169 181
158 169 181
158 169 181
158 169 181
158 169 181
157 169 181
157 168 181
157 168 181
157 168 181
157 168 181
157 168 181
157 168 181
157 168 181
157 168 181
157 168 181
157 168 181
157 168 181
157 168 181
157 168 181
157 168 181
157 168 181
157 168 181
157 168 181
157 168 181
157 168 181
157 168 181
157 168 181
157 168 181
157 168 181
157 168 181
157 168 181
157 168 181
157 168 181
157 168 181
157 168 181
157 168 181
157 168 181
157 168 181
157 168 181
157 168 181
157 168 181
157 168 181
157 168 181
157 168 181
157 168 181
157 168 181
157 168 181
157 168 181
157 168 181
157 168 181
157 168 181
157 168 181
157 168 181
157 168 181
157 168 181
157 168 181
157 168 181
157 169 181
157 169 181
157 169 181
157 169 181
158 169 181
158 169 181
158 169 181
158 169 181
158 169 181
158 169 181
158 169 181
158 169 181
158 169 181
158 169 181
158 169 181
158 169 181
158 169 181
158 169 181
158 169 181
158 169 181
158 169 181
158 169 181
158 169 181
158 169 181
158 169 181
158 169 181
158 169 181
158 169 181
158 169 181
158 169 181
158 169 181
158 169 181
158 169 181
158 169 181
158 169 181
158 169 181
158 169 181
158 169 181
158 169 181
159 169 181
159 169 181
159 169 181
159 169 181
159 169 181
159 169 181
159 169 181
159 169 181
159 169 181
159 169 181
159 169 181
159 169 181
159 169 181
159 169 181
159 169 181
159 169 181
159 169 181
159 169 181
159 169 181
159 169 181
159 169 181
159 169 181
160 169 181
160 170 181
160 170 181
160 170 181
160 170 181
160 170 181
160 170 181
160 170 181
160 170 181
160 170 181
160 170 181
160 170 181
160 170 181
160 170 181
160 170 181
160 170 181
160 170 181
161 170 181
161 170 181
161 170 181
161 170 181
161 170 181
161 170 181
161 170 181
161 170 181
161 170 181
161 170 181
161 170 181
161 170 181
161 170 181
161 170 181
162 170 181
162 171 181
162 171 181
162 171 181
162 171 181
162 171 181
162 171 181
162 171 181
162 171 181
162 171 181
162 171 181
162 171 181
162 171 181
163 171 181
163 171 181
163 171 181
163 171 181
163 171 181
163 171 181
163 171 181
163 171 181
163 171 181
163 171 181
163 171 181
164 171 181
164 172 181
164 172 181
164 172 181
164 172 181
164 172 181
164 172 181
164 172 181
164 172 181
164 172 181
165 172 181
165 172 181
165 172 181
165 172 181
165 172 181
165 172 181
165 172 181
165 172 181
165 172 181
166 172 181
166 173 181
166 173 181
166 173 181
166 173 181
166 173 181
166 173 181
166 173 181
167 173 181
167 173 181
167 173 181
167 173 181
167 173 181
167 173 181
167 173 181
167 173 181
168 173 181
168 173 181
168 174 181
168 174 181
168 174 181
168 174 181
168 174 181
169 174 181
169 174 181
169 174 181
169 174 181
169 174 181
169 174 181
169 174 181
170 174 181
170 175 181
170 175 181
170 175 181
170 175 181
170 175 181
171 175 181
171 175 181
171 175 181
171 175 181
171 175 181
171 175 181
172 175 181
172 176 181
172 176 181
172 176 181
172 176 181
172 176 181
173 176 181
173 176 181
173 176 181
173 176 181
174 176 181
174 177 181
174 177 181
174 177 181
174 177 181
175 177 181
175 177 181
175 177 181
175 177 181
176 177 181
176 178 181
176 178 181
176 178 181
177 178 181
177 178 181
177 178 181
178 178 181
178 179 181
178 179 181
179 179 181
179 179 181
179 179 181
179 179 181
180 180 181
180 180 181
181 180 181
181 180 181
182 181 181
182 181 181
183 181 181
184 182 181
180 180 181
156 166 181
140 158 181
138 156 181
138 156 181
138 156 181
137 156 181
139 157 181
137 156 181
138 156 181
138 156 181
137 156 181
136 156 181
138 157 181
140 157 181
136 155 181
139 157 181
139 157 181
139 157 181
138 156 181
139 157 181
136 156 181
138 156 181
137 156 181
138 156 181
138 156 181
138 157 181
138 156 181
138 156 181
136 155 181
137 156 181
138 156 181
138 157 181
139 157 181
138 156 181
137 156 181
137 156 181
138 156 181
136 155 181
138 156 181
138 156 181
139 157 181
138 156 181
139 157 181
138 156 181
138 156 181
138 156 181
138 157 181
139 157 181
138 156 181
137 156 181
139 157 181
139 157 181
138 156 181
140 157 181
138 157 181
138 156 181
138 156 181
138 157 181
138 157 181
138 156 181
138 157 181
138 156 181
137 156 181
138 156 181
137 156 181
139 157 181
138 156 181
137 156 181
138 156 181
137 156 181
138 156 181
138 156 181
138 156 181
137 156 181
138 156 181
139 157 181
138 156 181
138 156 181
138 157 181
138 157 181
138 157 181
137 156 181
138 156 181
137 156 181
138 157 181
137 156 181
138 156 181
138 157 181
138 157 181
137 156 181
139 157 181
136 156 181
137 156 181
137 156 181
138 156 181
138 156 181
138 156 181
137 156 181
138 156 181
137 156 181
137 156 181
137 156 181
138 157 181
138 156 181
139 157 181
139 157 181
136 156 181
136 155 181
138 156 181
139 157 181
139 157 181
137 156 181
137 156 181
138 157 181
139 157 181
138 156 181
138 156 181
136 155 181
139 157 181
137 156 181
137 156 181
138 156 181
138 156 181
139 157 181
137 156 181
139 157 181
137 156 181
138 156 181
138 157 181
137 156 181
137 156 181
138 157 181
137 156 181
137 156 181
136 156 181
137 156 181
138 156 181
138 156 181
138 157 181
137 156 181
138 157 181
137 156 181
138 157 181
138 156 181
138 156 181
138 156 181
138 157 181
138 156 181
138 157 181
138 157 181
138 156 181
138 157 181
138 156 181
138 156 181
138 156 181
137 156 181
137 156 181
138 156 181
138 156 181
138 156 181
137 156 181
137 156 181
138 156 181
138 156 181
139 157 181
138 156 181
137 156 181
137 156 181
138 157 181
139 157 181
137 156 181
138 157 181
138 156 181
138 156 181
139 157 181
138 157 181
138 156 181
137 156 181
138 156 181
138 156 181
138 157 180
137 157 180
138 157 180
138 156 179
138 157 180
138 157 180
135 155 180
138 156 181
137 156 180
138 157 181
139 157 181
137 156 181
138 156 181
137 156 181
138 156 181
139 157 181
139 157 181
137 156 181
139 157 181
137 156 181
138 156 181
137 156 181
138 156 181
140 157 181
137 156 181
138 157 181
137 156 181
138 156 181
137 155 180
138 156 181
139 157 181
137 156 181
138 156 181
138 156 181
137 156 181
137 156 181
138 156 181
138 156 181
139 157 181
139 157 181
136 155 181
138 157 181
138 156 181
139 157 181
137 156 181
138 156 181
138 157 181
137 156 181
138 156 181
138 156 181
138 156 181
137 156 181
138 156 181
137 156 181
138 157 181
138 156 181
137 156 181
139 157 181
139 157 181
137 156 181
137 156 181
138 157 181
138 156 181
139 157 181
138 156 181
137 156 181
138 156 181
138 157 181
137 156 181
136 156 181
137 156 181
139 157 181
139 157 181
138 156 181
140 158 181
139 158 181
141 159 181
142 160 181
141 160 181
139 158 181
142 161 182
141 160 181
140 159 180
140 158 180
139 158 181
140 159 180
137 156 181
138 156 181
138 156 181
138 156 181
138 156 181
138 156 181
137 156 181
139 157 181
137 156 181
137 156 181
137 156 181
138 157 181
138 156 181
138 156 181
138 156 181
138 156 181
137 156 181
138 156 181
138 156 181
138 156 181
138 156 181
138 156 181
137 156 181
137 156 181
137 156 181
137 156 181
137 156 181
139 157 181
137 156 181
138 156 181
138 156 181
138 156 181
139 157 181
138 156 181
138 157 181
138 156 181
138 156 181
138 157 181
139 157 181
138 156 181
137 156 181
138 156 181
138 157 181
139 157 181
139 157 181
