P3
1600 1
255
137 156 181
136 155 181
137 156 181
137 156 181
137 156 181
139 157 181
138 156 181
138 157 181
137 156 181
138 156 181
139 157 181
138 157 181
137 156 181
138 157 181
139 157 181
138 156 181
137 156 181
138 156 181
136 156 181
138 156 181
138 156 181
138 156 181
138 157 181
137 156 181
139 157 181
137 156 181
137 156 181
138 157 181
137 156 181
138 156 181
139 157 181
138 156 181
137 156 181
138 156 181
139 157 181
137 156 181
138 157 181
139 157 181
139 157 181
138 156 181
139 157 181
138 156 181
137 156 181
137 156 181
138 157 181
138 157 181
137 156 181
137 156 181
137 156 181
139 157 181
138 156 181
138 157 181
138 156 181
137 156 181
138 156 181
138 156 181
137 156 181
138 157 181
138 156 181
137 156 181
138 157 181
138 157 181
137 156 181
138 157 181
138 156 181
139 157 181
138 156 181
136 155 181
137 156 181
138 156 181
138 157 181
138 156 181
137 156 181
139 157 181
138 156 181
138 156 181
140 157 181
138 156 181
138 156 181
137 156 181
137 156 181
138 156 181
138 156 181
138 156 181
138 156 181
138 157 181
138 156 181
138 156 181
138 156 181
138 156 181
138 156 181
137 156 181
138 156 181
138 156 181
136 155 181
138 156 181
138 156 181
139 157 181
136 155 180
139 157 181
139 157 181
137 156 181
137 156 181
138 156 181
137 156 181
137 156 181
137 156 181
138 156 181
138 156 181
138 156 181
137 156 181
138 156 181
138 156 181
138 156 181
138 156 181
137 156 181
138 156 181
138 157 181
138 156 181
138 156 181
139 157 181
138 156 181
137 156 181
139 157 181
138 156 181
138 156 181
138 156 181
137 156 181
137 156 181
136 156 181
137 156 181
138 156 181
137 156 181
138 157 181
137 156 181
138 156 181
136 156 181
138 156 181
138 156 181
138 156 181
137 156 181
139 157 181
138 157 181
138 156 181
138 156 181
138 156 181
137 156 181
137 156 181
138 157 181
138 156 181
138 156 181
137 156 181
138 156 181
138 157 181
138 156 181
138 156 181
138 156 181
138 156 181
138 157 181
138 156 181
137 156 181
137 156 181
137 156 181
137 156 181
138 157 181
139 157 181
139 157 181
138 156 181
137 156 181
138 156 181
137 156 181
138 156 181
138 156 181
137 156 181
138 156 181
137 156 181
138 157 181
138 156 181
137 156 181
138 156 181
137 156 181
137 156 181
136 156 181
139 157 181
137 156 181
137 156 181
139 157 181
138 156 181
136 155 181
138 156 181
139 157 181
139 157 181
138 156 181
138 156 181
138 156 181
137 156 181
138 156 181
138 157 181
137 156 181
137 156 181
139 157 181
138 156 181
138 156 181
139 157 181
138 156 181
137 156 181
138 156 181
138 157 181
137 156 181
140 157 181
138 157 181
138 156 181
138 156 181
138 156 181
137 156 181
137 156 181
137 156 181
137 156 181
138 156 181
138 156 181
138 156 181
139 157 181
138 157 181
137 156 181
138 156 181
138 157 181
140 157 181
137 156 181
138 156 181
139 157 181
137 156 181
138 156 181
138 157 181
138 157 181
137 156 181
137 156 181
137 156 181
137 156 181
138 157 181
138 156 181
137 156 181
137 156 181
138 156 181
137 156 181
137 156 181
137 156 181
139 157 181
139 157 181
137 156 181
137 156 181
139 157 181
138 156 181
138 156 181
138 156 181
137 156 181
138 156 181
137 156 181
138 156 181
138 157 181
138 157 181
138 156 181
138 156 181
138 156 181
138 156 180
137 156 181
137 156 181
139 157 181
138 156 181
138 156 181
138 156 181
138 156 181
137 156 181
138 156 181
138 156 181
139 157 181
138 156 181
138 157 181
137 156 181
138 156 181
138 156 181
137 156 181
137 156 181
138 157 181
138 157 181
138 156 181
138 156 181
139 157 181
137 156 181
137 156 181
137 156 181
138 156 181
138 157 181
138 156 181
138 157 181
137 156 181
138 156 181
138 157 181
137 156 181
138 156 181
137 156 181
137 156 181
138 157 181
138 157 181
138 156 181
138 156 181
138 157 181
138 157 181
138 155 179
139 157 181
137 156 181
138 156 181
138 156 181
138 156 181
140 157 181
138 156 181
136 156 181
137 156 181
137 156 181
137 156 181
139 157 181
138 156 181
138 156 181
137 156 181
138 156 181
138 156 181
138 156 181
138 156 181
137 156 181
138 156 181
138 156 181
138 156 181
136 155 181
138 157 181
139 157 181
138 156 181
139 157 181
137 156 181
139 157 181
138 156 181
137 156 181
138 156 181
137 156 181
138 156 181
138 156 181
137 156 181
137 156 181
137 156 181
137 156 181
136 156 181
138 156 181
137 156 181
138 156 181
138 156 181
136 155 181
137 156 181
138 156 181
138 156 181
138 156 181
136 156 181
137 156 181
136 155 181
139 157 181
138 156 181
137 156 181
138 157 181
139 157 181
138 156 181
138 156 181
137 156 181
138 156 181
139 157 181
138 156 181
137 156 181
138 156 181
137 156 181
138 156 181
139 157 181
137 156 181
137 156 181
137 156 181
138 156 181
138 156 181
138 156 181
138 157 181
138 157 181
138 156 181
137 156 181
137 156 181
138 156 181
137 156 181
138 156 181
138 157 181
139 157 181
139 157 181
138 156 181
140 157 181
137 156 181
138 156 181
137 156 181
138 157 181
139 157 181
139 157 181
137 156 181
138 156 181
138 157 181
136 155 180
138 156 181
139 157 181
137 156 181
137 156 181
138 157 181
138 156 180
138 156 181
139 157 181
138 157 181
137 156 181
139 157 181
138 156 181
136 156 181
138 156 181
138 157 181
138 156 181
137 156 181
138 157 181
138 156 181
138 157 181
138 156 181
138 156 181
138 156 181
137 156 181
139 157 181
138 156 181
139 157 181
139 157 181
138 156 181
138 156 181
138 156 181
138 156 181
138 157 181
137 156 181
138 156 181
138 157 181
139 157 181
138 156 181
138 156 181
138 156 181
138 156 181
138 156 181
137 156 181
137 156 181
138 156 181
138 156 181
138 156 181
137 156 181
137 156 181
139 157 181
138 156 181
138 156 181
138 157 181
137 156 181
138 156 181
137 156 181
137 156 181
138 156 181
138 156 181
137 156 181
138 156 181
137 156 181
137 156 181
138 156 181
137 156 181
138 156 181
138 157 181
138 157 181
136 155 181
139 157 181
138 156 181
138 156 181
137 156 181
138 156 181
137 156 180
138 156 181
137 156 181
137 156 181
137 156 181
137 156 181
138 156 181
137 156 181
137 156 181
137 156 181
138 156 181
137 156 181
138 157 181
138 157 181
136 156 181
138 156 181
137 156 181
138 156 181
138 157 181
137 156 181
137 156 181
139 157 181
138 156 181
138 156 181
139 157 181
137 156 181
137 156 181
139 157 181
136 155 181
138 157 181
137 156 181
137 156 181
138 157 181
137 153 175
134 148 169
129 139 155
127 133 147
124 123 131
119 116 121
113 108 110
117 103 101
109 88 74
102 82 67
105 83 66
107 83 66
101 80 63
102 82 64
103 82 65
109 86 68
108 86 68
106 84 66
111 87 70
105 83 66
108 85 68
108 85 68
109 85 68
105 82 65
110 88 70
107 85 66
111 87 69
107 84 67
108 85 67
104 83 65
101 80 64
108 85 67
102 82 65
106 84 66
106 83 66
112 87 68
109 86 69
107 86 67
108 85 68
105 83 65
108 85 67
105 83 66
105 83 66
105 83 66
110 87 68
106 84 67
105 84 66
109 86 68
108 85 67
109 85 67
108 85 67
111 87 70
103 82 64
102 81 63
102 81 65
109 86 69
107 85 67
112 88 69
105 83 66
104 83 66
102 81 65
110 86 69
104 82 65
108 87 68
111 87 69
106 83 65
110 87 68
107 84 66
103 82 64
105 83 66
107 85 68
111 87 69
107 84 67
107 84 67
109 85 67
109 86 68
105 83 66
108 85 67
109 86 68
101 80 63
102 81 64
104 81 63
104 82 66
105 84 66
109 86 67
108 84 67
106 84 67
112 88 70
109 86 67
110 86 67
106 84 66
107 85 67
108 85 68
108 85 66
104 83 66
104 82 64
107 87 71
112 96 87
116 111 106
144 148 154
155 161 169
155 167 180
141 156 171
146 163 183
150 163 182
127 135 153
149 155 173
140 151 160
132 141 145
122 144 137
113 142 127
105 150 122
103 152 123
118 159 144
126 160 155
129 160 161
135 157 172
140 156 181
132 148 174
126 141 169
95 104 139
108 117 152
92 98 137
112 121 158
103 113 147
116 126 158
121 135 164
143 159 185
135 152 177
136 154 178
141 159 184
129 151 176
137 155 179
137 158 183
137 157 182
145 165 189
137 154 178
133 153 177
141 160 185
137 157 183
137 156 181
130 151 171
139 163 168
136 164 156
133 164 139
142 173 148
137 165 148
134 161 153
135 160 162
136 162 168
140 160 180
131 153 172
127 151 164
104 138 117
101 140 104
85 131 76
71 121 38
80 129 52
79 126 60
84 130 66
85 130 68
79 117 67
82 125 66
79 123 60
87 128 74
82 119 70
66 109 32
73 114 48
74 111 54
85 120 74
85 119 83
92 118 103
113 135 139
129 150 164
133 152 174
134 152 173
135 154 176
130 149 170
133 150 170
135 142 164
143 137 159
147 118 137
154 115 134
155 110 131
151 111 131
154 106 128
152 111 132
155 109 129
153 107 127
151 105 123
152 109 128
153 109 128
144 96 117
140 92 112
151 102 122
148 103 125
140 93 111
147 106 125
136 93 111
146 104 124
142 101 121
141 101 121
145 102 122
132 92 108
134 99 116
123 96 109
101 95 104
80 89 92
65 91 95
88 110 121
101 123 135
116 137 152
128 148 165
130 149 170
123 143 161
123 142 161
130 149 170
125 143 162
131 152 173
130 149 169
132 151 172
132 152 174
128 148 170
134 152 174
132 150 170
116 134 147
111 125 132
91 102 101
119 126 124
125 131 128
124 129 127
135 140 131
132 133 125
133 133 128
126 112 106
147 130 129
157 142 143
154 146 147
167 163 162
163 165 163
159 162 158
157 159 154
155 157 156
141 142 142
122 117 113
109 100 96
91 77 72
83 71 65
92 80 75
93 81 75
103 95 93
109 101 98
132 128 128
137 134 134
142 143 138
134 138 140
109 115 113
104 110 114
114 124 131
117 133 146
128 145 165
120 138 151
106 125 129
96 116 115
84 104 92
76 97 76
63 83 48
67 89 50
71 92 55
70 91 58
60 83 35
72 92 65
57 79 27
61 81 45
72 92 64
69 89 60
66 86 55
63 80 54
72 91 73
80 100 82
79 96 91
99 117 120
98 116 124
95 114 121
106 123 136
107 124 136
94 102 108
115 118 123
160 160 162
183 181 181
182 181 181
182 181 181
181 180 181
181 180 181
180 180 181
180 180 181
180 180 181
179 179 181
179 179 181
179 179 181
178 179 181
178 179 181
178 179 181
177 178 181
177 178 181
177 178 181
177 178 181
176 178 181
176 178 181
176 178 181
176 178 181
175 177 181
175 177 181
175 177 181
175 177 181
174 177 181
174 177 181
174 177 181
174 177 181
174 176 181
173 176 181
173 176 181
173 176 181
173 176 181
173 176 181
172 176 181
172 176 181
172 176 181
172 176 181
172 176 181
172 175 181
171 175 181
171 175 181
171 175 181
171 175 181
171 175 181
171 175 181
170 175 181
170 175 181
170 175 181
170 175 181
170 175 181
170 174 181
169 174 181
169 174 181
169 174 181
169 174 181
169 174 181
169 174 181
169 174 181
168 174 181
168 174 181
168 174 181
168 174 181
168 174 181
168 174 181
168 173 181
168 173 181
167 173 181
167 173 181
167 173 181
167 173 181
167 173 181
167 173 181
167 173 181
167 173 181
166 173 181
166 173 181
166 173 181
166 173 181
166 173 181
166 173 181
166 173 181
166 172 181
166 172 181
165 172 181
165 172 181
165 172 181
165 172 181
165 172 181
165 172 181
165 172 181
165 172 181
165 172 181
165 172 181
164 172 181
164 172 181
164 172 181
164 172 181
164 172 181
164 172 181
164 172 181
164 172 181
164 172 181
164 171 181
163 171 181
163 171 181
163 171 181
163 171 181
163 171 181
163 171 181
163 171 181
163 171 181
163 171 181
163 171 181
163 171 181
163 171 181
162 171 181
162 171 181
162 171 181
162 171 181
162 171 181
162 171 181
162 171 181
162 171 181
162 171 181
162 171 181
162 171 181
162 171 181
162 170 181
161 170 181
161 170 181
161 170 181
161 170 181
161 170 181
161 170 181
161 170 181
161 170 181
161 170 181
161 170 181
161 170 181
161 170 181
161 170 181
161 170 181
161 170 181
161 170 181
160 170 181
160 170 181
160 170 181
160 170 181
160 170 181
160 170 181
160 170 181
160 170 181
160 170 181
160 170 181
160 170 181
160 170 181
160 170 181
160 170 181
160 170 181
160 170 181
160 170 181
160 170 181
160 169 181
159 169 181
159 169 181
159 169 181
159 169 181
159 169 181
159 169 181
159 169 181
159 169 181
159 169 181
159 169 181
159 169 181
159 169 181
159 169 181
159 169 181
159 169 181
159 169 181
159 169 181
159 169 181
159 169 181
159 169 181
159 169 181
159 169 181
159 169 181
159 169 181
159 169 181
159 169 181
159 169 181
158 169 181
158 169 181
158 169 181
158 169 181
158 169 181
158 169 181
158 169 181
158 169 181
158 169 181
158 169 181
158 169 181
158 169 181
158 169 181
158 169 181
158 169 181
158 169 181
158 169 181
158 169 181
158 169 181
158 169 181
158 169 181
158 169 181
158 169 181
158 169 181
158 169 181
158 169 181
158 169 181
158 169 181
158 169 181
158 169 181
158 169 181
158 169 181
158 169 181
158 169 181
158 169 181
158 169 181
158 169 181
158 169 181
158 169 181
158 169 181
158 169 181
158 169 181
158 169 181
158 169 181
158 169 181
158 169 181
158 169 181
158 169 181
158 169 181
158 169 181
158 169 181
158 169 181
158 169 181
158 169 181
158 169 181
158 169 181
158 169 181
158 169 181
158 169 181
158 169 181
158 169 181
158 169 181
158 169 181
158 169 181
158 169 181
158 169 181
158 169 181
158 169 181
158 169 181
158 169 181
158 169 181
158 169 181
158 169 181
158 169 181
158 169 181
158 169 181
158 169 181
158 169 181
158 169 181
158 169 181
158 169 181
158 169 181
158 169 181
158 169 181
158 169 181
158 169 181
158 169 181
158 169 181
158 169 181
158 169 181
158 169 181
158 169 181
158 169 181
158 169 181
158 169 181
158 169 181
158 169 181
158 169 181
158 169 181
158 169 181
158 169 181
159 169 181
159 169 181
159 169 181
159 169 181
159 169 181
159 169 181
159 169 181
159 169 181
159 169 181
159 169 181
159 169 181
159 169 181
159 169 181
159 169 181
159 169 181
159 169 181
159 169 181
159 169 181
159 169 181
159 169 181
159 169 181
159 169 181
159 169 181
159 169 181
159 169 181
159 169 181
160 169 181
160 170 181
160 170 181
160 170 181
160 170 181
160 170 181
160 170 181
160 170 181
160 170 181
160 170 181
160 170 181
160 170 181
160 170 181
160 170 181
160 170 181
160 170 181
160 170 181
160 170 181
160 170 181
160 170 181
161 170 181
161 170 181
161 170 181
161 170 181
161 170 181
161 170 181
161 170 181
161 170 181
161 170 181
161 170 181
161 170 181
161 170 181
161 170 181
161 170 181
161 170 181
162 170 181
162 170 181
162 171 181
162 171 181
162 171 181
162 171 181
162 171 181
162 171 181
162 171 181
162 171 181
162 171 181
162 171 181
162 171 181
163 171 181
163 171 181
163 171 181
163 171 181
163 171 181
163 171 181
163 171 181
163 171 181
163 171 181
163 171 181
163 171 181
163 171 181
164 171 181
164 171 181
164 172 181
164 172 181
164 172 181
164 172 181
164 172 181
164 172 181
164 172 181
164 172 181
164 172 181
165 172 181
165 172 181
165 172 181
165 172 181
165 172 181
165 172 181
165 172 181
165 172 181
165 172 181
165 172 181
166 172 181
166 173 181
166 173 181
166 173 181
166 173 181
166 173 181
166 173 181
166 173 181
167 173 181
167 173 181
167 173 181
167 173 181
167 173 181
167 173 181
167 173 181
167 173 181
167 173 181
168 173 181
168 174 181
168 174 181
168 174 181
168 174 181
168 174 181
168 174 181
169 174 181
169 174 181
169 174 181
169 174 181
169 174 181
169 174 181
169 174 181
170 174 181
170 175 181
170 175 181
170 175 181
170 175 181
170 175 181
170 175 181
171 175 181
171 175 181
171 175 181
171 175 181
171 175 181
171 175 181
172 175 181
172 176 181
172 176 181
172 176 181
172 176 181
173 176 181
173 176 181
173 176 181
173 176 181
173 176 181
174 176 181
174 177 181
174 177 181
174 177 181
174 177 181
175 177 181
175 177 181
175 177 181
175 177 181
176 177 181
176 178 181
176 178 181
176 178 181
176 178 181
177 178 181
177 178 181
177 178 181
178 178 181
178 179 181
178 179 181
179 179 181
179 179 181
179 179 181
180 180 181
180 180 181
180 180 181
181 180 181
181 180 181
182 181 181
182 181 181
183 181 181
183 182 181
183 181 180
168 172 180
146 160 180
137 156 181
138 156 181
139 157 181
137 156 181
138 156 181
138 156 181
137 156 181
138 156 181
138 157 181
138 156 181
139 157 181
138 156 181
138 157 181
138 156 181
139 157 181
137 156 181
139 157 181
137 156 181
137 155 180
138 156 180
137 156 181
140 153 177
142 154 177
138 153 177
141 152 176
142 150 173
142 152 175
140 153 177
141 152 176
142 151 175
142 152 175
143 148 171
141 152 176
142 151 174
142 153 176
140 153 177
140 154 178
139 153 177
138 156 180
137 155 180
139 157 181
139 157 181
137 156 181
139 157 181
138 156 181
139 157 181
138 156 181
138 156 181
138 156 181
137 156 181
137 156 181
138 156 181
138 156 181
138 156 181
138 157 181
138 156 181
136 156 181
137 156 181
138 156 181
137 156 181
139 157 181
138 156 181
137 156 181
137 156 181
138 156 181
137 156 181
137 156 181
138 156 181
139 157 181
138 156 181
139 157 181
139 157 181
138 156 181
138 156 181
138 156 181
138 156 181
139 157 181
136 155 181
138 157 181
138 157 181
139 157 181
139 157 181
139 157 181
138 156 181
137 156 181
139 157 181
138 156 181
138 157 181
138 156 181
138 157 181
137 156 181
138 156 181
138 156 181
138 157 181
138 156 181
137 156 181
138 156 181
138 156 181
137 156 181
137 156 181
137 156 181
139 157 181
138 156 181
139 157 181
138 156 181
138 156 181
139 157 181
138 156 181
139 157 181
137 156 181
138 156 181
137 156 181
138 157 181
137 156 181
138 156 181
138 156 181
138 156 181
138 156 181
138 157 181
138 156 181
137 156 181
137 156 181
137 156 181
139 157 181
138 156 181
137 156 181
137 156 181
138 157 181
136 155 181
138 156 181
138 157 181
137 156 181
138 157 181
139 157 181
137 156 181
136 155 181
137 156 181
138 156 181
139 157 180
137 156 181
137 155 180
138 157 181
138 156 180
139 157 181
137 155 180
137 156 181
136 154 178
137 155 180
137 156 181
137 156 181
138 157 181
138 156 181
138 156 181
139 157 181
137 156 181
138 156 181
138 157 181
138 156 181
137 156 181
138 156 181
138 156 181
137 156 181
137 156 181
137 156 181
138 156 181
138 156 181
139 157 181
137 156 181
138 157 180
135 157 179
137 157 179
136 157 179
137 158 179
134 158 177
135 158 178
132 159 175
133 158 177
133 158 176
130 158 174
135 158 177
135 159 177
133 158 177
130 158 174
131 159 175
133 158 177
134 157 177
134 159 177
134 158 177
133 157 177
133 159 177
134 156 178
137 157 180
137 157 179
137 157 180
137 156 180
136 156 180
138 157 181
138 156 181
138 156 181
139 157 181
138 156 181
137 156 181
139 157 181
138 157 181
139 157 181
136 156 181
138 156 181
138 156 181
139 157 181
137 156 181
138 156 181
139 157 181
138 157 181
139 157 181
136 155 181
138 156 181
137 156 181
138 156 181
139 157 181
138 156 181
138 156 181
137 156 181
138 156 181
138 156 181
138 157 181
138 156 181
138 156 181
138 157 181
137 156 181
137 156 181
138 156 181
139 157 181
139 157 181
137 156 181
137 156 181
137 156 181
138 156 181
136 155 180
139 157 181
138 157 181
138 156 181
138 156 181
138 156 181
137 156 181
139 158 181
140 158 181
144 162 182
145 164 182
141 161 182
146 167 183
146 166 183
151 173 185
143 163 182
147 167 183
153 175 185
146 167 183
147 168 184
146 167 183
149 171 184
145 166 183
146 167 183
147 168 183
144 164 182
144 164 182
142 162 182
147 167 182
146 165 182
141 161 181
140 159 181
140 158 181
140 159 181
140 158 181
138 156 181
137 156 181
138 156 181
138 156 181
136 156 181
137 156 181
137 156 181
139 157 181
139 157 181
138 157 181
139 157 181
137 156 181
138 156 181
138 157 181
137 156 181
137 156 181
139 157 181
138 156 181
139 157 181
138 157 181
137 156 181
138 157 181
137 156 181
138 156 181
138 156 181
138 156 181
138 156 181
138 156 181
137 156 181
139 157 181
137 156 181
137 156 181
137 156 181
138 157 181
138 156 181
138 156 181
