P3
1600 1
255
137 156 181
136 155 181
137 156 181
137 156 181
137 156 181
139 157 181
138 156 181
138 157 181
137 156 181
138 156 181
139 157 181
138 157 181
137 156 181
138 157 181
139 157 181
138 156 181
137 156 181
138 156 181
136 156 181
138 156 181
138 156 181
138 156 181
138 157 181
137 156 181
139 157 181
137 156 181
137 156 181
138 156 180
137 156 181
138 156 181
138 157 181
138 156 181
137 156 181
138 156 181
139 157 181
137 156 181
138 157 181
139 157 181
139 157 181
137 156 181
139 157 181
137 156 181
137 156 181
137 156 181
138 157 181
137 156 180
137 156 181
138 156 181
137 156 181
139 157 181
138 157 181
138 157 181
138 156 181
137 156 181
138 156 181
138 157 181
137 156 181
138 157 181
138 156 181
137 156 181
138 157 181
138 156 181
137 156 181
138 157 181
138 156 181
139 157 181
138 156 181
136 156 181
137 156 181
138 156 181
138 157 181
138 156 181
137 156 181
139 157 181
138 156 181
138 156 181
139 157 181
138 156 181
137 156 181
137 156 181
137 156 181
138 156 181
138 156 181
138 156 181
138 156 181
138 157 181
138 156 181
137 156 181
138 156 181
138 156 181
138 156 181
137 156 181
138 156 181
138 156 181
136 155 181
138 156 181
138 156 181
139 157 181
136 155 180
139 157 181
139 157 181
137 156 181
137 156 181
138 156 181
137 156 181
137 156 181
137 156 181
138 156 181
138 156 181
138 156 181
138 156 181
137 156 181
138 156 181
137 156 181
138 156 181
137 156 181
138 156 181
138 156 181
138 157 181
138 156 181
138 157 181
138 156 181
137 156 181
139 157 181
138 156 181
138 156 181
138 156 181
138 156 181
137 156 181
136 155 181
137 156 181
137 156 181
137 156 181
138 157 181
137 156 181
138 156 181
137 156 181
138 156 181
137 156 181
138 156 181
137 156 181
139 157 181
138 157 181
138 156 181
138 156 181
138 156 181
137 156 181
136 156 181
139 157 181
138 156 181
138 156 181
137 156 181
138 156 181
138 157 181
138 156 181
138 156 181
137 156 181
138 156 181
139 157 181
137 156 181
137 156 181
137 156 181
137 156 181
137 156 181
138 157 181
139 157 181
139 157 181
138 156 181
138 156 181
138 156 181
137 156 181
138 156 181
137 156 181
137 156 181
138 156 181
137 156 181
138 157 181
138 156 181
137 156 181
138 156 181
137 156 181
137 156 181
136 155 181
139 157 181
137 156 181
137 156 181
139 157 181
137 156 180
136 155 181
138 156 181
139 157 181
139 157 181
138 156 181
138 156 181
138 156 181
137 156 181
138 156 181
138 156 181
137 156 181
137 156 181
138 157 181
138 156 181
138 156 181
139 157 181
138 156 181
137 156 181
138 156 181
138 157 181
137 156 181
139 157 181
138 157 181
138 156 181
138 156 181
138 156 181
137 156 181
137 156 181
137 156 181
138 156 181
137 156 181
138 156 181
138 156 181
139 157 181
138 157 181
137 156 181
138 156 181
139 157 181
139 157 181
137 156 181
138 156 181
139 157 181
137 156 181
138 156 181
138 157 181
139 157 181
137 156 181
137 156 181
136 156 181
138 156 181
138 156 181
138 156 181
137 156 181
137 156 181
138 156 181
136 156 181
137 156 181
137 156 181
139 157 181
139 157 181
137 156 181
137 156 181
139 157 181
138 156 181
138 156 181
137 156 181
137 156 181
138 156 181
137 156 181
138 156 181
138 156 181
139 157 181
138 156 181
138 156 181
138 156 181
138 156 180
137 156 181
138 156 181
138 157 181
138 156 181
138 156 181
138 156 181
138 156 181
137 156 181
138 156 181
138 156 181
139 157 181
138 157 181
138 157 181
137 156 181
138 157 181
138 156 181
138 156 181
137 156 181
138 157 181
138 157 181
138 156 181
138 156 181
139 157 181
137 156 181
137 156 181
137 156 181
138 156 181
138 157 181
138 156 181
138 157 181
137 156 181
138 156 181
138 157 181
136 155 181
138 156 181
137 156 181
137 156 181
138 157 181
138 157 181
138 156 181
138 156 181
139 157 181
138 156 181
138 156 179
138 157 181
136 156 181
138 156 181
138 157 181
138 156 181
140 157 181
137 156 181
136 156 181
137 156 181
137 156 181
137 156 181
139 157 181
138 156 181
138 156 181
137 156 181
138 156 181
137 156 181
138 156 181
138 156 181
137 156 181
138 156 181
138 156 181
138 156 181
136 155 181
138 157 181
139 157 181
138 156 181
138 157 181
138 156 181
138 157 181
137 156 181
137 156 181
138 157 181
137 156 181
138 156 181
138 156 181
137 156 181
137 156 181
137 155 180
137 156 181
136 156 181
137 156 181
137 156 181
138 156 181
138 156 181
136 155 181
137 156 181
138 156 181
137 156 181
138 156 181
136 155 181
136 155 180
136 156 181
139 157 181
138 156 181
137 156 181
139 157 181
139 157 181
138 156 181
138 156 181
137 156 181
138 156 181
139 157 181
138 156 181
137 156 181
138 156 181
137 156 181
138 157 181
139 157 181
137 156 181
137 156 181
137 156 181
138 156 181
138 156 181
137 156 181
138 157 181
138 157 181
137 156 181
137 156 181
137 156 181
138 156 181
137 156 181
138 156 181
138 156 181
139 157 181
139 157 181
138 156 181
139 157 181
138 156 181
138 156 181
137 156 181
138 157 181
139 157 181
139 157 181
137 156 181
138 156 181
138 157 181
136 155 180
138 156 181
139 157 181
137 156 181
137 156 181
138 157 181
137 156 180
138 156 181
139 157 181
138 156 181
137 156 181
139 157 181
138 156 181
136 156 181
137 156 180
139 157 181
137 156 181
137 156 181
138 156 181
139 157 181
138 157 181
138 156 181
138 156 181
137 156 181
137 156 181
138 157 181
138 156 181
138 157 181
139 157 181
138 156 181
138 157 181
138 156 181
139 157 181
138 156 181
137 156 181
138 156 181
138 157 181
139 157 181
138 156 181
138 156 181
137 156 181
138 157 181
137 156 181
137 156 181
137 156 181
138 156 181
137 156 181
138 156 181
137 156 181
137 156 181
139 157 181
138 156 181
138 156 181
138 157 181
137 156 181
138 156 181
137 156 181
137 156 181
138 156 181
138 156 181
137 156 181
138 156 181
138 156 181
138 156 181
138 156 181
136 155 181
138 156 181
138 156 181
138 156 181
136 156 181
139 157 181
138 156 181
137 156 181
138 156 181
137 156 180
138 156 181
137 156 181
138 156 181
137 156 181
137 156 181
137 156 181
137 156 181
137 156 181
137 156 181
137 156 181
138 156 181
137 156 181
138 156 180
138 157 181
137 156 181
138 156 181
138 156 181
138 156 181
138 156 181
137 156 181
138 156 181
139 157 181
137 156 181
138 157 181
138 157 181
137 156 181
137 156 181
139 157 181
135 155 181
139 157 181
137 156 181
137 156 181
138 157 181
137 154 177
136 151 172
129 141 159
130 139 155
123 122 131
120 118 125
120 116 121
114 109 113
105 89 80
106 88 76
104 81 65
111 86 69
100 79 64
102 80 63
100 80 64
108 84 66
105 83 66
104 82 65
107 84 66
105 83 66
111 87 69
102 82 65
102 81 65
106 84 66
106 83 66
107 85 66
102 80 63
105 83 66
107 83 66
99 79 63
103 81 65
103 81 65
108 85 67
104 82 65
107 84 66
110 87 68
99 79 63
112 88 69
104 82 65
99 77 61
106 83 66
102 81 64
105 84 66
108 85 67
105 84 66
104 83 65
106 84 67
104 83 66
107 85 67
106 85 67
105 82 65
105 84 65
105 83 66
99 79 63
105 84 65
105 84 66
106 85 66
107 85 66
99 80 62
109 86 68
105 83 66
104 83 65
105 82 65
109 85 67
103 82 64
101 80 63
106 84 66
104 83 65
107 84 67
104 82 65
105 83 65
103 81 64
108 85 67
110 87 69
103 81 63
107 84 66
101 80 63
106 84 66
106 83 65
105 83 66
107 85 67
104 82 65
95 76 59
106 83 66
107 84 68
98 78 61
107 85 68
101 80 62
105 84 66
106 83 66
106 83 66
104 82 65
105 83 65
101 80 62
106 84 67
109 96 83
124 117 112
146 148 151
146 153 155
155 161 169
150 154 163
154 155 166
160 161 175
166 169 186
167 158 173
160 152 166
155 151 161
139 145 144
116 140 115
119 154 126
102 158 117
103 160 124
127 169 154
131 167 164
142 167 178
142 161 182
129 143 171
112 123 166
103 112 165
96 103 160
74 74 151
79 80 155
85 87 156
88 93 154
109 118 165
119 130 173
127 142 172
138 155 179
130 147 168
134 151 173
131 148 167
120 135 152
118 133 149
119 133 150
112 126 139
105 120 132
117 130 145
116 132 148
125 141 159
119 136 153
133 151 170
119 135 150
108 125 140
106 122 132
114 131 141
97 113 118
102 117 124
106 121 132
123 139 151
122 139 153
125 143 158
125 143 157
123 145 151
114 141 134
109 142 121
106 148 99
84 136 51
85 136 57
98 145 81
96 142 81
93 141 72
97 140 81
87 133 65
89 133 70
91 137 72
94 136 81
89 131 72
89 128 84
108 139 120
122 147 149
131 150 166
133 152 174
142 161 185
139 157 180
138 157 180
140 158 180
136 154 176
132 150 172
140 158 180
139 158 180
136 153 173
135 153 174
130 147 167
137 143 163
151 144 165
151 129 150
156 126 148
162 117 138
166 124 146
161 117 139
164 121 145
160 122 144
156 109 131
151 107 128
151 106 127
146 104 125
142 108 127
130 112 128
116 99 110
102 109 118
87 104 110
72 99 101
69 101 103
73 103 106
70 101 104
69 96 98
66 97 97
79 107 111
62 96 96
76 108 112
87 114 123
107 128 143
121 140 160
135 154 179
128 146 169
134 153 176
132 150 174
130 149 172
133 151 174
132 151 173
132 150 174
127 144 167
135 153 178
131 150 175
131 149 172
136 152 169
136 149 154
160 167 162
180 186 182
183 188 184
188 193 190
187 193 192
186 193 193
181 189 189
180 189 189
178 188 189
177 188 191
176 187 189
173 185 188
173 185 188
174 185 189
173 184 187
164 174 175
161 168 170
150 155 155
146 147 147
147 147 145
152 153 151
153 155 153
166 168 167
179 185 184
185 191 189
186 191 188
191 194 189
186 191 187
172 177 171
143 152 148
114 132 128
87 112 80
86 115 66
79 107 49
81 106 59
78 106 44
84 108 67
78 106 47
80 105 61
78 106 41
95 116 93
76 99 56
70 98 31
85 109 71
79 105 55
75 102 42
76 99 55
74 99 49
76 98 57
73 96 48
71 94 41
79 99 65
74 97 47
70 95 31
75 97 55
84 101 66
102 107 108
140 140 145
179 178 178
183 181 181
182 181 181
182 181 181
181 180 181
181 180 181
181 180 181
180 180 181
180 180 181
180 180 181
179 179 181
179 179 181
179 179 181
178 179 181
178 179 181
178 179 181
178 179 181
177 178 181
177 178 181
177 178 181
177 178 181
176 178 181
176 178 181
176 178 181
176 178 181
175 177 181
175 177 181
175 177 181
175 177 181
175 177 181
175 177 181
174 177 181
174 177 181
174 177 181
174 177 181
174 176 181
173 176 181
173 176 181
173 176 181
173 176 181
173 176 181
173 176 181
172 176 181
172 176 181
172 176 181
172 176 181
172 176 181
172 175 181
171 175 181
171 175 181
171 175 181
171 175 181
171 175 181
171 175 181
171 175 181
170 175 181
170 175 181
170 175 181
170 175 181
170 175 181
170 175 181
170 174 181
169 174 181
169 174 181
169 174 181
169 174 181
169 174 181
169 174 181
169 174 181
169 174 181
168 174 181
168 174 181
168 174 181
168 174 181
168 174 181
168 174 181
168 174 181
168 173 181
168 173 181
167 173 181
167 173 181
167 173 181
167 173 181
167 173 181
167 173 181
167 173 181
167 173 181
167 173 181
166 173 181
166 173 181
166 173 181
166 173 181
166 173 181
166 173 181
166 173 181
166 173 181
166 173 181
166 172 181
165 172 181
165 172 181
165 172 181
165 172 181
165 172 181
165 172 181
165 172 181
165 172 181
165 172 181
165 172 181
165 172 181
165 172 181
164 172 181
164 172 181
164 172 181
164 172 181
164 172 181
164 172 181
164 172 181
164 172 181
164 172 181
164 172 181
164 172 181
164 171 181
163 171 181
163 171 181
163 171 181
163 171 181
163 171 181
163 171 181
163 171 181
163 171 181
163 171 181
163 171 181
163 171 181
163 171 181
163 171 181
163 171 181
163 171 181
162 171 181
162 171 181
162 171 181
162 171 181
162 171 181
162 171 181
162 171 181
162 171 181
162 171 181
162 171 181
162 171 181
162 171 181
162 171 181
162 171 181
162 171 181
162 171 181
162 170 181
161 170 181
161 170 181
161 170 181
161 170 181
161 170 181
161 170 181
161 170 181
161 170 181
161 170 181
161 170 181
161 170 181
161 170 181
161 170 181
161 170 181
161 170 181
161 170 181
161 170 181
161 170 181
161 170 181
161 170 181
161 170 181
161 170 181
160 170 181
160 170 181
160 170 181
160 170 181
160 170 181
160 170 181
160 170 181
160 170 181
160 170 181
160 170 181
160 170 181
160 170 181
160 170 181
160 170 181
160 170 181
160 170 181
160 170 181
160 170 181
160 170 181
160 170 181
160 170 181
160 170 181
160 170 181
160 170 181
160 170 181
160 170 181
160 170 181
160 170 181
160 170 181
160 170 181
160 170 181
160 169 181
160 169 181
159 169 181
159 169 181
159 169 181
159 169 181
159 169 181
159 169 181
159 169 181
159 169 181
159 169 181
159 169 181
159 169 181
159 169 181
159 169 181
159 169 181
159 169 181
159 169 181
159 169 181
159 169 181
159 169 181
159 169 181
159 169 181
159 169 181
159 169 181
159 169 181
159 169 181
159 169 181
159 169 181
159 169 181
159 169 181
159 169 181
159 169 181
159 169 181
159 169 181
159 169 181
159 169 181
159 169 181
159 169 181
159 169 181
159 169 181
159 169 181
159 169 181
159 169 181
159 169 181
159 169 181
159 169 181
159 169 181
159 169 181
159 169 181
159 169 181
159 169 181
159 169 181
159 169 181
159 169 181
159 169 181
159 169 181
159 169 181
159 169 181
159 169 181
159 169 181
159 169 181
159 169 181
159 169 181
159 169 181
159 169 181
159 169 181
159 169 181
159 169 181
159 169 181
159 169 181
159 169 181
159 169 181
159 169 181
159 169 181
159 169 181
159 169 181
159 169 181
159 169 181
160 169 181
160 170 181
160 170 181
160 170 181
160 170 181
160 170 181
160 170 181
160 170 181
160 170 181
160 170 181
160 170 181
160 170 181
160 170 181
160 170 181
160 170 181
160 170 181
160 170 181
160 170 181
160 170 181
160 170 181
160 170 181
160 170 181
160 170 181
160 170 181
160 170 181
160 170 181
160 170 181
160 170 181
160 170 181
160 170 181
160 170 181
160 170 181
160 170 181
161 170 181
161 170 181
161 170 181
161 170 181
161 170 181
161 170 181
161 170 181
161 170 181
161 170 181
161 170 181
161 170 181
161 170 181
161 170 181
161 170 181
161 170 181
161 170 181
161 170 181
161 170 181
161 170 181
161 170 181
161 170 181
162 170 181
162 170 181
162 170 181
162 171 181
162 171 181
162 171 181
162 171 181
162 171 181
162 171 181
162 171 181
162 171 181
162 171 181
162 171 181
162 171 181
162 171 181
162 171 181
162 171 181
162 171 181
163 171 181
163 171 181
163 171 181
163 171 181
163 171 181
163 171 181
163 171 181
163 171 181
163 171 181
163 171 181
163 171 181
163 171 181
163 171 181
163 171 181
164 171 181
164 171 181
164 172 181
164 172 181
164 172 181
164 172 181
164 172 181
164 172 181
164 172 181
164 172 181
164 172 181
164 172 181
164 172 181
165 172 181
165 172 181
165 172 181
165 172 181
165 172 181
165 172 181
165 172 181
165 172 181
165 172 181
165 172 181
165 172 181
166 172 181
166 172 181
166 173 181
166 173 181
166 173 181
166 173 181
166 173 181
166 173 181
166 173 181
166 173 181
166 173 181
167 173 181
167 173 181
167 173 181
167 173 181
167 173 181
167 173 181
167 173 181
167 173 181
167 173 181
168 173 181
168 173 181
168 174 181
168 174 181
168 174 181
168 174 181
168 174 181
168 174 181
168 174 181
169 174 181
169 174 181
169 174 181
169 174 181
169 174 181
169 174 181
169 174 181
169 174 181
170 174 181
170 175 181
170 175 181
170 175 181
170 175 181
170 175 181
170 175 181
171 175 181
171 175 181
171 175 181
171 175 181
171 175 181
171 175 181
171 175 181
172 175 181
172 176 181
172 176 181
172 176 181
172 176 181
172 176 181
173 176 181
173 176 181
173 176 181
173 176 181
173 176 181
173 176 181
174 176 181
174 177 181
174 177 181
174 177 181
174 177 181
175 177 181
175 177 181
175 177 181
175 177 181
175 177 181
176 177 181
176 178 181
176 178 181
176 178 181
177 178 181
177 178 181
177 178 181
177 178 181
178 178 181
178 179 181
178 179 181
178 179 181
179 179 181
179 179 181
179 179 181
180 179 181
180 180 181
180 180 181
181 180 181
181 180 181
181 180 181
182 181 181
182 181 181
183 181 181
183 181 181
184 182 181
182 180 181
156 166 180
139 157 181
137 156 181
137 156 181
137 156 181
137 156 181
138 156 181
140 152 177
141 155 178
140 150 174
143 148 171
142 142 166
146 143 166
146 142 165
150 133 155
151 131 153
157 124 145
151 130 150
156 121 142
159 127 147
155 123 144
159 120 140
157 128 150
161 113 133
159 113 133
160 115 135
163 110 130
154 114 134
161 114 135
163 111 130
163 113 133
156 115 135
162 115 135
160 120 141
157 124 146
157 125 146
160 122 143
156 127 147
151 132 155
152 134 155
151 132 153
149 134 156
145 142 165
144 144 167
146 147 170
140 152 175
140 152 177
140 153 177
138 155 179
138 156 181
139 157 181
136 155 181
138 156 181
137 156 181
138 156 181
138 156 181
137 156 181
138 156 181
139 157 181
137 156 181
138 156 181
137 156 181
139 157 181
137 156 181
138 156 181
138 156 181
138 156 181
137 156 181
138 156 181
139 157 181
137 156 181
138 157 181
138 156 181
139 157 181
138 156 181
138 157 181
138 156 181
136 156 181
138 156 181
138 156 181
138 156 181
138 156 181
138 157 181
138 156 181
137 156 181
137 156 181
138 156 181
137 156 181
139 157 181
138 156 181
137 156 181
137 156 181
138 157 181
137 156 181
137 156 181
138 157 181
138 157 181
138 156 181
138 157 181
139 157 181
138 156 181
138 156 181
138 157 181
138 156 181
138 156 180
137 156 181
138 156 181
138 157 181
139 157 181
139 157 181
139 157 181
138 157 181
137 156 181
139 157 181
138 156 181
138 157 181
137 156 181
139 157 181
137 156 181
138 156 181
136 155 179
138 156 180
133 151 174
132 149 173
131 148 171
129 146 169
128 144 167
128 143 166
126 141 164
123 137 160
119 131 153
118 128 148
112 122 143
115 125 146
102 109 130
112 122 143
110 119 140
105 113 133
105 112 132
106 115 135
101 107 127
104 110 130
103 110 130
115 124 145
111 119 139
102 107 127
106 113 133
113 125 147
112 122 143
111 121 142
123 136 158
125 139 161
118 131 153
123 136 159
120 134 157
129 145 168
128 143 167
130 150 170
135 155 177
131 154 173
135 157 177
132 158 176
128 159 173
130 158 172
126 156 167
123 154 165
122 159 166
122 158 165
116 159 160
113 153 154
116 164 162
116 157 160
109 158 153
109 157 151
111 162 156
109 161 154
108 162 153
105 160 151
105 162 151
105 158 149
110 165 156
105 165 151
107 159 152
113 164 159
113 164 161
115 164 161
108 162 158
117 160 167
119 162 167
119 161 169
124 163 172
124 161 172
130 162 181
131 161 177
130 160 177
132 161 178
137 162 186
136 159 182
137 159 183
136 158 181
136 158 182
138 157 182
140 158 184
139 158 184
138 156 180
140 159 183
142 160 185
136 155 180
140 159 183
138 157 182
140 158 182
137 156 180
139 158 183
141 159 184
137 156 181
139 158 182
140 158 182
138 157 181
137 156 180
137 156 181
142 161 185
138 156 180
140 158 182
141 159 183
141 160 184
138 156 181
140 158 182
139 157 181
139 157 181
137 156 181
138 156 181
137 156 181
138 156 180
140 159 180
143 162 182
150 169 183
149 168 183
150 170 183
151 172 184
156 178 185
151 173 185
157 179 186
163 186 188
159 182 187
163 188 189
171 198 192
169 197 192
168 195 191
168 195 191
168 196 191
173 204 194
171 201 193
170 201 193
168 198 191
173 203 194
172 202 194
175 207 195
172 203 194
175 208 196
168 199 192
170 199 193
168 198 192
173 203 194
165 193 189
166 193 191
169 196 191
159 183 188
169 196 191
161 185 188
161 185 187
160 183 186
157 181 187
156 177 186
154 175 184
151 171 184
144 164 182
143 163 182
141 160 181
139 158 181
138 156 181
138 156 181
138 156 181
137 156 181
138 156 181
137 155 180
138 157 181
138 156 181
137 156 181
139 157 181
139 157 181
137 156 181
137 156 181
139 157 181
138 156 181
139 157 181
138 156 181
138 156 181
138 156 181
138 157 181
137 156 181
136 156 181
137 156 181
139 157 181
139 157 181
138 156 181
139 157 181
