P3
1600 1
255
137 156 181
136 155 181
137 156 181
137 156 181
137 156 181
139 157 181
138 156 181
138 156 181
137 156 181
138 156 181
139 157 181
138 157 181
137 156 181
138 157 181
139 157 181
138 156 181
137 156 181
138 156 181
136 156 181
138 156 181
138 156 181
138 156 181
138 157 181
137 156 181
139 157 181
137 156 181
137 156 181
138 156 180
137 156 181
138 156 181
138 157 181
138 156 181
137 156 181
138 156 181
139 157 181
137 156 181
138 157 181
139 157 181
139 157 181
137 156 181
139 157 181
137 156 181
137 156 181
137 156 181
138 157 181
137 156 180
137 156 181
138 156 181
137 156 181
139 157 181
138 157 181
138 157 181
138 156 181
137 156 181
138 156 181
138 157 181
137 156 181
138 157 181
138 156 181
137 156 181
138 157 181
138 156 181
137 156 181
138 157 181
138 156 181
139 157 181
138 156 181
136 156 181
137 156 181
138 156 181
138 157 181
138 156 181
137 156 181
139 157 181
138 156 181
138 156 181
139 157 181
138 156 181
137 156 181
137 156 181
137 156 181
138 156 181
138 156 181
138 156 181
138 156 181
138 157 181
138 156 181
137 156 181
138 156 181
138 156 181
138 156 181
137 156 181
138 156 181
138 156 181
136 155 181
138 156 181
138 156 181
139 157 181
136 155 180
139 157 181
140 157 181
137 156 181
137 156 181
138 156 181
137 156 181
137 156 181
137 156 181
138 157 181
138 156 181
138 156 181
137 156 181
138 156 181
138 156 181
137 156 181
138 156 181
137 156 181
138 156 181
138 156 180
138 157 181
138 156 181
138 157 181
138 157 181
137 156 181
139 157 181
138 156 181
137 156 181
138 156 181
138 156 181
137 156 181
137 156 181
137 156 181
137 156 181
137 156 181
138 157 181
137 156 180
138 156 181
137 156 181
138 156 181
137 156 181
138 156 181
137 156 181
139 157 181
138 157 181
138 157 181
138 156 181
138 156 181
137 156 181
136 156 181
139 157 181
138 156 181
137 156 181
137 156 181
138 156 181
138 157 181
138 156 181
138 156 181
138 156 181
138 156 181
138 156 181
138 156 181
137 156 181
137 156 181
137 156 181
137 156 181
139 157 181
139 157 181
139 157 181
137 156 181
138 156 181
138 156 181
137 156 181
138 156 181
137 156 181
137 156 181
138 156 181
137 156 181
138 156 181
138 156 181
137 156 181
138 156 181
137 156 181
137 156 181
136 155 181
139 157 181
137 156 181
137 156 181
138 157 181
137 156 180
135 155 180
136 156 179
139 157 181
139 157 181
138 156 181
138 156 181
137 156 180
137 156 181
138 156 181
138 157 181
137 156 181
137 156 181
139 157 181
138 156 181
138 156 181
139 157 181
138 156 181
137 156 181
139 157 181
138 157 181
137 156 181
140 157 181
139 157 181
138 156 181
137 156 181
138 156 181
137 156 181
137 156 181
137 156 181
137 156 181
138 156 181
138 156 181
138 156 181
138 156 180
138 157 181
137 156 181
138 156 181
139 157 181
139 157 181
138 156 181
138 156 181
139 157 181
137 156 181
138 156 181
138 157 181
138 157 181
137 156 181
137 156 181
137 156 181
137 156 181
138 157 181
137 156 181
137 156 181
137 156 181
138 156 181
137 156 181
137 156 181
136 156 181
139 157 181
139 157 181
137 156 181
137 156 181
139 157 181
138 156 181
138 156 181
137 156 181
137 156 181
137 156 181
137 156 181
138 156 181
138 157 181
138 157 181
138 156 181
138 156 181
138 157 181
138 156 181
137 156 181
138 156 181
138 156 181
138 156 181
138 156 181
138 156 181
137 156 181
137 156 181
138 156 181
138 156 181
139 157 181
138 156 181
138 156 181
137 156 181
139 157 181
137 156 181
138 156 181
137 156 181
138 157 181
139 157 181
138 156 181
138 156 181
139 157 181
137 156 181
137 156 181
136 156 181
138 156 181
139 157 181
138 156 181
138 156 181
137 156 181
138 157 181
138 157 181
137 156 181
138 156 181
138 156 181
136 155 181
139 157 181
138 156 181
138 156 181
137 156 180
138 157 181
138 156 181
139 156 180
138 157 181
136 155 181
138 156 181
138 156 181
138 157 181
139 157 181
138 156 181
136 155 181
137 156 181
137 156 181
137 156 181
139 157 181
138 156 181
138 156 181
138 156 181
138 156 181
137 156 181
138 156 181
138 157 181
137 156 181
138 156 181
138 156 181
138 156 181
136 155 181
138 157 181
139 157 181
138 156 181
138 157 181
137 156 181
138 157 181
137 156 181
137 156 181
138 157 181
137 156 181
138 157 181
138 157 181
137 156 181
137 156 181
136 155 180
137 156 181
136 156 181
138 156 181
137 156 181
138 157 181
137 156 181
136 155 181
137 156 181
138 156 181
138 156 181
138 157 181
136 156 181
136 155 180
137 156 181
139 157 181
138 156 181
137 156 181
139 157 181
138 157 181
137 156 181
138 157 181
137 156 181
138 156 181
139 157 181
138 156 180
137 156 181
138 156 181
138 156 181
138 157 181
138 156 181
137 156 181
137 156 181
137 156 181
138 156 181
138 156 181
138 156 181
138 157 181
138 157 181
137 156 181
137 156 181
137 156 181
138 156 181
137 156 181
138 156 181
138 156 181
139 157 181
139 157 181
138 156 181
139 157 181
138 156 181
138 156 181
137 156 181
138 157 181
139 157 181
139 157 181
137 156 181
138 156 181
138 157 181
137 156 181
138 156 181
139 157 181
137 156 181
137 156 181
138 156 181
137 156 180
138 156 181
139 157 181
138 156 181
137 156 181
139 157 181
138 156 181
136 155 181
137 156 180
139 157 181
138 156 181
137 156 181
138 156 181
139 157 181
138 157 181
138 156 181
138 156 181
137 156 181
138 156 181
138 157 181
138 157 181
138 157 181
139 157 181
137 156 181
138 156 181
138 156 181
139 157 181
137 155 180
137 156 181
138 156 181
138 156 181
139 157 181
138 156 181
138 156 181
138 156 181
138 157 181
137 156 181
138 156 181
136 156 181
138 156 181
139 158 181
141 160 182
141 161 183
141 161 183
143 162 184
146 166 186
144 165 186
143 163 184
146 168 188
144 166 186
146 169 188
144 165 186
146 168 187
151 175 192
141 162 184
143 163 184
144 164 185
142 162 184
142 162 184
144 166 185
142 162 184
140 159 182
139 157 181
139 158 182
141 159 181
137 156 181
137 156 181
138 156 181
138 156 180
137 156 181
137 156 181
138 156 181
136 156 181
138 156 181
136 155 181
136 155 180
138 156 181
138 156 181
137 156 181
137 156 181
138 156 181
139 156 180
137 156 181
138 156 181
138 156 181
136 156 181
139 157 181
138 157 181
137 156 181
138 156 181
138 157 181
138 157 181
138 156 181
138 156 181
136 156 181
139 157 181
138 156 181
137 156 181
137 156 181
137 156 181
138 156 181
138 156 181
137 156 180
134 151 175
135 150 172
132 144 163
127 135 150
126 133 148
123 125 135
119 116 122
114 104 103
107 94 88
104 83 69
110 86 68
99 79 62
101 80 63
103 82 65
105 83 65
101 80 63
103 81 65
102 82 65
104 81 65
107 84 67
107 84 67
97 77 61
100 78 61
100 80 63
96 77 60
104 82 65
103 83 66
100 80 62
101 81 64
102 80 64
107 83 67
100 80 63
106 84 66
106 83 66
99 78 62
108 86 68
102 82 64
95 76 61
102 82 63
99 79 63
99 78 62
104 82 65
105 83 65
100 81 63
101 80 64
109 86 68
103 83 64
106 84 67
104 82 63
103 83 65
102 81 64
108 85 68
101 80 64
104 82 64
108 86 67
97 79 62
98 78 60
105 82 65
101 81 63
102 80 62
100 80 63
100 80 63
104 82 63
104 83 64
99 79 62
105 83 63
104 83 65
107 85 66
106 84 66
100 79 62
105 83 65
106 84 65
106 83 66
109 86 69
101 80 63
103 82 65
103 82 66
104 82 65
105 83 65
103 82 63
106 84 66
104 83 65
100 80 63
110 86 68
103 81 64
97 77 61
108 85 68
108 85 67
109 85 67
105 83 65
102 81 63
104 83 65
105 84 69
116 102 93
122 122 119
147 148 153
144 151 157
144 157 167
154 164 174
168 177 191
158 161 174
156 159 171
145 137 149
156 138 148
159 138 152
158 138 156
151 145 163
148 147 160
146 158 177
150 171 187
146 164 182
148 166 185
133 144 165
127 135 154
127 134 157
119 123 160
107 108 156
95 96 165
94 96 173
88 88 174
85 88 167
89 94 160
82 91 146
96 111 150
99 116 144
122 140 164
113 132 153
118 138 155
108 126 139
98 118 124
94 112 118
98 118 114
81 104 91
79 102 90
95 116 111
102 121 124
121 140 154
130 149 167
129 152 163
120 145 153
106 136 134
99 129 121
73 110 84
85 125 97
55 106 60
59 108 65
73 116 82
74 114 85
90 123 108
113 140 142
127 150 161
139 159 178
143 161 184
146 163 187
142 160 182
144 162 182
143 162 184
143 163 183
142 162 180
134 156 170
134 155 171
141 161 181
146 164 187
144 161 184
143 162 185
147 164 187
139 157 180
136 154 177
143 160 183
143 162 185
141 159 182
137 155 179
140 158 180
146 163 186
142 160 184
145 162 186
137 156 180
142 161 185
141 159 183
143 161 183
139 157 178
137 156 171
122 143 157
125 147 159
125 146 156
118 144 151
113 144 144
106 139 139
104 142 139
76 118 119
87 122 126
77 118 121
79 119 121
82 117 121
72 111 114
79 115 119
72 112 115
73 111 114
87 121 126
69 106 108
70 110 111
83 116 121
69 110 112
70 106 108
67 107 109
85 117 123
90 121 131
121 143 160
122 142 163
130 147 169
135 153 179
129 146 169
137 155 180
128 145 170
135 152 178
132 150 175
134 151 176
127 143 167
130 148 174
132 150 176
129 146 172
130 147 175
141 159 185
132 148 175
132 149 176
137 154 179
131 148 174
127 141 170
131 148 176
131 146 170
141 153 172
152 162 174
171 177 181
183 189 190
179 186 188
184 190 189
183 190 191
183 191 190
182 192 194
178 187 187
180 189 190
180 189 191
180 187 186
179 186 186
182 188 188
174 179 183
154 159 174
144 149 170
144 148 167
118 122 160
105 112 161
93 101 152
110 120 167
110 121 164
131 147 182
128 145 171
110 134 128
86 119 58
89 119 65
86 120 41
88 119 57
92 123 66
85 116 49
94 124 67
83 112 51
92 121 68
88 116 58
83 110 53
87 116 60
86 114 56
91 118 73
81 109 49
88 114 68
89 116 66
83 113 45
78 106 38
81 110 44
81 106 55
90 104 65
111 107 110
158 156 158
182 181 180
183 181 181
183 181 181
182 181 181
182 181 181
181 180 181
181 180 181
181 180 181
180 180 181
180 180 181
180 180 181
179 179 181
179 179 181
179 179 181
179 179 181
178 179 181
178 179 181
178 179 181
178 179 181
178 178 181
177 178 181
177 178 181
177 178 181
177 178 181
176 178 181
176 178 181
176 178 181
176 178 181
176 178 181
175 177 181
175 177 181
175 177 181
175 177 181
175 177 181
175 177 181
174 177 181
174 177 181
174 177 181
174 177 181
174 177 181
174 176 181
173 176 181
173 176 181
173 176 181
173 176 181
173 176 181
173 176 181
173 176 181
172 176 181
172 176 181
172 176 181
172 176 181
172 176 181
172 176 181
172 175 181
171 175 181
171 175 181
171 175 181
171 175 181
171 175 181
171 175 181
171 175 181
171 175 181
170 175 181
170 175 181
170 175 181
170 175 181
170 175 181
170 175 181
170 174 181
170 174 181
169 174 181
169 174 181
169 174 181
169 174 181
169 174 181
169 174 181
169 174 181
169 174 181
169 174 181
168 174 181
168 174 181
168 174 181
168 174 181
168 174 181
168 174 181
168 174 181
168 174 181
168 173 181
168 173 181
167 173 181
167 173 181
167 173 181
167 173 181
167 173 181
167 173 181
167 173 181
167 173 181
167 173 181
167 173 181
167 173 181
166 173 181
166 173 181
166 173 181
166 173 181
166 173 181
166 173 181
166 173 181
166 173 181
166 173 181
166 173 181
166 172 181
166 172 181
166 172 181
165 172 181
165 172 181
165 172 181
165 172 181
165 172 181
165 172 181
165 172 181
165 172 181
165 172 181
165 172 181
165 172 181
165 172 181
165 172 181
164 172 181
164 172 181
164 172 181
164 172 181
164 172 181
164 172 181
164 172 181
164 172 181
164 172 181
164 172 181
164 172 181
164 172 181
164 172 181
164 172 181
164 171 181
164 171 181
163 171 181
163 171 181
163 171 181
163 171 181
163 171 181
163 171 181
163 171 181
163 171 181
163 171 181
163 171 181
163 171 181
163 171 181
163 171 181
163 171 181
163 171 181
163 171 181
163 171 181
163 171 181
163 171 181
163 171 181
162 171 181
162 171 181
162 171 181
162 171 181
162 171 181
162 171 181
162 171 181
162 171 181
162 171 181
162 171 181
162 171 181
162 171 181
162 171 181
162 171 181
162 171 181
162 171 181
162 171 181
162 171 181
162 171 181
162 171 181
162 171 181
162 171 181
162 171 181
162 170 181
162 170 181
162 170 181
161 170 181
161 170 181
161 170 181
161 170 181
161 170 181
161 170 181
161 170 181
161 170 181
161 170 181
161 170 181
161 170 181
161 170 181
161 170 181
161 170 181
161 170 181
161 170 181
161 170 181
161 170 181
161 170 181
161 170 181
161 170 181
161 170 181
161 170 181
161 170 181
161 170 181
161 170 181
161 170 181
161 170 181
161 170 181
161 170 181
161 170 181
161 170 181
161 170 181
161 170 181
161 170 181
161 170 181
161 170 181
161 170 181
161 170 181
161 170 181
161 170 181
161 170 181
161 170 181
161 170 181
161 170 181
161 170 181
161 170 181
161 170 181
161 170 181
161 170 181
161 170 181
161 170 181
161 170 181
161 170 181
161 170 181
161 170 181
161 170 181
161 170 181
161 170 181
160 170 181
161 170 181
161 170 181
161 170 181
161 170 181
161 170 181
161 170 181
161 170 181
161 170 181
161 170 181
161 170 181
161 170 181
161 170 181
161 170 181
161 170 181
161 170 181
161 170 181
161 170 181
161 170 181
161 170 181
161 170 181
161 170 181
161 170 181
161 170 181
161 170 181
161 170 181
161 170 181
161 170 181
161 170 181
161 170 181
161 170 181
161 170 181
161 170 181
161 170 181
161 170 181
161 170 181
161 170 181
161 170 181
161 170 181
161 170 181
161 170 181
161 170 181
161 170 181
161 170 181
161 170 181
161 170 181
161 170 181
161 170 181
161 170 181
161 170 181
161 170 181
161 170 181
161 170 181
161 170 181
161 170 181
161 170 181
161 170 181
161 170 181
161 170 181
161 170 181
161 170 181
161 170 181
161 170 181
161 170 181
161 170 181
162 170 181
162 170 181
162 171 181
162 171 181
162 171 181
162 171 181
162 171 181
162 171 181
162 171 181
162 171 181
162 171 181
162 171 181
162 171 181
162 171 181
162 171 181
162 171 181
162 171 181
162 171 181
162 171 181
162 171 181
162 171 181
162 171 181
162 171 181
162 171 181
162 171 181
162 171 181
163 171 181
163 171 181
163 171 181
163 171 181
163 171 181
163 171 181
163 171 181
163 171 181
163 171 181
163 171 181
163 171 181
163 171 181
163 171 181
163 171 181
163 171 181
163 171 181
163 171 181
163 171 181
163 171 181
164 171 181
164 171 181
164 172 181
164 172 181
164 172 181
164 172 181
164 172 181
164 172 181
164 172 181
164 172 181
164 172 181
164 172 181
164 172 181
164 172 181
164 172 181
164 172 181
165 172 181
165 172 181
165 172 181
165 172 181
165 172 181
165 172 181
165 172 181
165 172 181
165 172 181
165 172 181
165 172 181
165 172 181
165 172 181
166 172 181
166 172 181
166 172 181
166 173 181
166 173 181
166 173 181
166 173 181
166 173 181
166 173 181
166 173 181
166 173 181
166 173 181
166 173 181
167 173 181
167 173 181
167 173 181
167 173 181
167 173 181
167 173 181
167 173 181
167 173 181
167 173 181
167 173 181
167 173 181
168 173 181
168 173 181
168 174 181
168 174 181
168 174 181
168 174 181
168 174 181
168 174 181
168 174 181
168 174 181
169 174 181
169 174 181
169 174 181
169 174 181
169 174 181
169 174 181
169 174 181
169 174 181
169 174 181
170 174 181
170 174 181
170 175 181
170 175 181
170 175 181
170 175 181
170 175 181
170 175 181
171 175 181
171 175 181
171 175 181
171 175 181
171 175 181
171 175 181
171 175 181
171 175 181
172 175 181
172 176 181
172 176 181
172 176 181
172 176 181
172 176 181
172 176 181
173 176 181
173 176 181
173 176 181
173 176 181
173 176 181
173 176 181
173 176 181
174 176 181
174 177 181
174 177 181
174 177 181
174 177 181
174 177 181
175 177 181
175 177 181
175 177 181
175 177 181
175 177 181
176 177 181
176 178 181
176 178 181
176 178 181
176 178 181
177 178 181
177 178 181
177 178 181
177 178 181
177 178 181
178 179 181
178 179 181
178 179 181
178 179 181
179 179 181
179 179 181
179 179 181
179 179 181
180 180 181
180 180 181
180 180 181
181 180 181
181 180 181
181 180 181
182 181 181
182 181 181
182 181 181
183 181 181
184 182 181
184 182 181
182 180 179
165 170 178
146 155 175
142 144 168
145 143 166
146 138 160
148 131 153
147 132 150
154 126 146
153 124 137
155 120 136
158 114 123
160 107 116
163 103 110
162 102 101
161 105 92
164 97 88
157 103 78
165 94 85
161 95 80
169 100 84
163 106 79
158 103 75
159 107 74
166 99 83
163 105 78
160 105 75
167 106 80
158 105 75
163 99 81
164 105 79
161 100 79
163 88 86
166 93 86
158 97 89
166 96 96
159 95 97
159 99 105
159 106 114
156 110 122
156 112 131
154 112 131
151 121 141
150 125 146
148 132 154
144 139 161
141 135 155
144 140 162
141 149 172
143 150 173
139 155 178
138 154 179
138 156 181
138 156 181
138 156 181
138 157 181
138 156 181
136 155 180
138 156 181
138 156 181
138 156 181
137 156 181
138 156 181
139 157 181
138 156 181
138 156 181
137 156 181
139 157 181
138 156 181
137 156 181
138 156 181
138 156 181
137 156 181
137 156 181
139 157 181
138 156 181
137 156 181
138 157 181
139 157 181
139 157 181
138 157 181
138 156 181
137 156 181
137 156 181
138 157 181
137 156 181
138 156 181
139 157 181
137 156 181
137 156 181
137 156 181
138 156 181
137 156 181
138 157 181
138 156 181
138 156 181
137 156 181
138 156 181
138 156 181
137 156 181
138 156 181
137 156 180
138 156 180
135 152 180
136 152 178
132 148 177
129 143 176
132 149 177
131 146 177
132 146 177
125 137 175
129 142 176
126 139 175
128 141 173
126 137 175
123 133 170
123 133 171
116 125 164
119 127 166
113 120 159
119 127 165
108 113 147
103 104 143
97 96 136
100 102 136
95 94 133
89 88 119
80 73 105
77 67 101
70 58 90
66 50 75
63 44 70
61 42 63
61 39 61
53 23 46
53 23 46
52 23 46
53 23 46
52 23 46
53 23 46
54 24 47
54 24 47
54 24 47
56 32 53
60 39 59
65 51 70
62 43 62
63 47 66
76 68 86
75 70 89
86 85 103
86 90 105
94 102 118
92 101 116
89 108 116
93 111 119
100 126 131
95 125 125
95 129 126
101 135 135
93 135 128
94 138 131
105 153 146
96 149 136
95 149 136
95 158 139
92 152 135
87 151 130
86 148 126
88 154 132
89 156 134
91 156 136
98 158 149
104 161 156
106 161 163
103 157 157
107 161 162
108 164 163
114 164 174
126 168 190
115 165 173
124 169 188
126 169 191
131 172 200
134 171 204
130 172 199
135 171 204
136 172 210
135 172 206
136 172 207
139 172 210
145 174 217
144 172 218
146 174 217
143 171 217
146 171 218
146 169 215
147 170 216
145 167 208
148 169 211
149 170 214
148 169 210
151 169 210
149 167 209
148 168 206
149 167 208
150 170 214
145 165 203
147 165 204
151 170 212
152 169 207
143 161 196
148 166 207
148 166 205
152 170 207
148 165 202
147 165 202
146 163 200
149 167 202
148 166 202
149 167 200
147 164 198
145 163 194
147 164 196
145 162 190
143 160 189
143 161 190
143 161 186
140 158 182
148 166 188
150 169 185
152 171 184
155 174 187
157 177 182
156 177 182
165 187 186
164 188 184
172 197 186
176 202 188
178 205 188
174 202 183
185 213 191
179 208 184
180 209 188
180 209 188
180 209 189
179 209 189
184 214 194
186 216 197
182 213 195
183 214 195
179 210 194
182 212 194
183 213 194
181 213 194
183 214 196
183 215 196
185 216 198
185 216 196
185 215 194
185 215 194
187 217 195
190 219 196
188 217 194
186 214 193
188 215 194
188 215 196
187 213 194
176 201 189
176 200 190
173 196 188
170 193 188
167 189 188
163 184 186
163 183 186
157 177 185
148 168 183
147 166 183
147 165 182
145 163 181
137 156 181
137 156 181
139 157 181
136 155 180
138 156 180
134 153 180
133 151 179
135 154 180
135 153 180
132 151 180
131 150 180
131 149 179
132 150 180
133 151 180
130 148 179
132 150 180
129 148 180
128 146 180
130 149 180
131 150 180
134 153 180
134 152 180
134 153 180
138 156 180
