P3
1600 1
255
137 156 181
136 155 181
137 156 181
137 156 181
137 156 181
139 157 181
138 156 181
138 156 181
137 156 181
138 156 181
139 157 181
138 157 181
137 156 181
138 157 181
139 157 181
138 156 181
137 156 181
138 156 181
136 156 181
138 156 181
138 156 181
138 156 181
138 157 181
137 156 181
139 157 181
137 156 181
137 156 181
137 156 180
137 156 181
138 156 181
138 157 181
138 156 181
137 156 181
138 156 181
139 157 181
137 156 181
138 157 181
139 157 181
139 157 181
137 156 181
139 157 181
138 156 181
137 156 181
137 156 181
139 157 181
138 156 180
137 156 181
137 156 181
137 156 181
139 157 181
138 156 180
138 157 181
138 156 181
137 156 181
138 156 181
138 156 181
137 156 181
138 157 181
138 156 181
137 156 181
138 157 181
138 157 181
137 156 181
138 157 181
138 156 181
139 157 181
138 156 181
136 155 181
137 156 181
138 156 181
138 157 181
138 156 181
137 156 181
139 157 181
138 156 181
138 156 181
140 157 181
138 156 181
137 156 181
137 156 181
137 156 181
138 156 181
138 156 181
138 157 181
138 156 181
138 157 181
138 156 181
138 156 181
138 156 181
138 156 181
138 156 181
137 156 181
138 157 181
137 156 181
136 155 181
138 156 181
138 156 181
139 157 181
136 155 180
139 157 181
139 157 181
137 156 181
137 156 181
138 156 181
137 156 181
137 156 181
137 156 181
138 156 181
138 156 181
138 156 181
137 156 181
138 156 181
138 156 181
138 156 181
138 156 181
137 156 181
138 156 181
138 156 180
138 157 181
138 156 181
138 157 181
138 156 181
137 156 181
139 157 181
138 156 181
138 156 181
138 156 181
138 156 181
137 156 181
136 155 181
137 156 181
137 156 181
137 156 181
138 157 181
136 155 180
138 156 181
137 156 181
138 156 181
137 156 181
138 156 181
137 156 181
139 157 181
138 156 181
138 157 181
138 156 181
138 156 181
137 156 181
136 156 181
138 157 181
138 156 181
138 156 181
137 156 181
138 156 181
138 157 181
138 156 181
138 156 181
138 156 181
138 156 181
139 157 181
137 156 181
137 156 181
137 156 181
137 156 181
136 156 181
139 157 181
139 157 181
139 157 181
138 156 181
138 156 181
138 156 181
137 156 181
138 156 181
137 156 181
137 156 181
138 156 181
137 156 181
138 157 181
136 156 179
135 156 177
135 156 177
132 156 174
133 156 175
130 155 172
133 156 174
130 155 171
127 155 168
131 156 172
123 156 161
120 156 159
125 156 163
123 155 160
126 157 163
129 156 169
122 157 159
125 157 163
125 156 165
121 155 158
129 156 168
128 156 169
128 156 168
131 155 171
132 156 174
132 157 172
133 156 174
135 156 177
134 156 177
139 157 181
138 156 181
137 156 181
140 157 181
138 157 181
138 156 181
138 156 181
138 156 181
137 156 181
137 156 181
137 156 181
137 156 181
137 156 181
138 156 181
137 156 181
138 156 180
138 157 181
137 156 181
138 156 181
138 157 181
139 157 181
138 156 181
138 156 181
139 157 181
137 156 181
138 156 181
138 157 181
139 157 181
137 156 181
137 156 181
136 155 180
137 156 181
138 157 181
137 156 181
137 156 181
137 156 181
138 156 181
137 156 181
137 156 181
136 156 181
139 157 181
139 157 181
137 156 181
137 156 181
139 157 181
138 156 181
138 156 181
137 156 181
137 156 181
137 156 181
137 156 181
138 156 181
138 157 181
138 157 181
138 156 181
138 156 181
138 157 181
138 156 180
137 156 181
138 156 181
138 156 181
138 156 181
138 156 181
139 157 181
138 156 181
140 157 184
142 158 185
139 157 183
145 160 188
141 157 185
140 158 184
142 159 187
145 160 188
144 159 190
144 159 189
141 158 185
142 158 186
145 160 190
143 159 187
142 159 185
142 158 186
142 158 188
140 157 186
140 157 184
141 158 183
140 157 182
138 156 181
138 156 181
138 156 181
138 156 181
137 156 181
138 157 181
137 156 181
138 156 181
137 155 180
139 157 181
138 156 181
138 156 181
138 156 180
138 157 181
137 155 180
140 158 181
137 156 181
137 156 181
139 157 181
137 156 181
140 158 181
138 156 181
137 156 181
137 156 181
136 155 181
138 156 181
138 156 181
139 157 181
138 156 181
138 156 181
138 156 181
137 156 181
138 156 181
138 156 181
137 156 181
137 156 181
138 157 181
137 156 181
138 156 181
137 156 181
139 157 181
138 156 181
138 156 181
138 157 181
137 156 181
139 157 181
137 156 181
138 156 181
137 156 181
138 157 181
137 156 181
138 156 181
137 156 181
137 155 180
137 156 181
137 156 181
137 156 181
137 156 181
138 156 181
138 156 181
137 156 181
137 156 181
138 156 181
137 156 181
138 157 181
137 156 181
136 155 180
135 155 181
138 156 180
138 156 181
138 156 181
138 157 181
139 157 181
138 157 181
137 156 181
137 156 181
138 156 181
139 157 181
139 157 181
137 156 181
138 157 181
137 156 181
137 156 180
139 157 181
137 156 181
137 156 181
137 156 181
138 157 181
137 156 181
138 156 181
138 157 181
138 157 181
138 157 181
137 156 181
136 156 181
138 156 181
137 156 181
138 156 181
138 156 181
139 157 181
139 157 181
138 157 181
139 157 181
138 156 181
137 156 181
137 156 181
138 156 181
138 157 181
139 157 181
137 156 181
138 156 181
139 157 181
136 155 180
138 156 181
139 157 181
138 156 181
136 156 181
138 157 181
138 156 181
137 155 180
139 157 181
142 160 184
139 158 182
141 159 183
139 157 182
140 159 183
141 160 185
139 157 181
140 158 182
137 157 181
139 157 181
139 158 183
141 160 184
140 158 182
140 159 183
140 159 183
139 158 182
140 158 182
138 157 181
139 157 181
138 157 181
141 159 183
138 156 181
138 156 180
138 157 181
138 156 180
137 156 181
138 156 181
138 157 181
139 157 181
138 156 181
138 156 181
139 158 181
140 159 182
140 160 182
144 165 186
142 163 184
147 169 188
147 170 189
150 175 191
145 168 188
153 178 193
154 179 195
159 186 199
154 181 196
152 177 193
151 179 195
155 183 198
155 184 198
156 184 198
157 185 200
154 182 198
154 182 197
157 186 199
158 187 200
154 181 196
153 180 196
157 186 199
156 184 198
154 180 195
152 175 191
151 176 193
151 174 190
148 171 189
146 167 187
144 165 186
141 161 182
143 163 184
139 158 181
138 156 181
137 156 181
137 156 181
137 156 181
136 155 180
137 156 181
138 156 181
138 156 181
137 156 181
138 156 181
137 156 180
138 156 181
137 156 181
138 156 181
136 156 181
138 156 180
138 157 181
137 156 181
138 156 181
138 157 181
138 157 181
138 156 181
138 156 181
136 156 181
139 157 181
138 156 181
137 156 181
138 156 181
138 156 181
138 156 181
138 156 181
137 156 181
138 156 180
135 154 178
136 154 177
133 146 167
129 141 160
126 134 150
124 128 141
114 114 122
117 111 113
109 98 95
111 96 89
101 81 67
96 76 60
93 74 59
98 78 62
101 80 63
101 79 62
106 84 67
99 79 62
102 81 64
105 83 66
102 80 64
105 82 65
100 79 64
98 80 61
104 82 65
104 83 66
102 81 63
98 79 61
105 83 65
104 82 66
103 82 66
103 81 64
104 82 64
103 82 65
105 83 65
102 81 65
97 78 61
100 80 63
99 79 62
102 81 64
106 85 66
100 80 63
101 80 63
100 80 63
103 82 63
103 80 63
101 80 63
101 82 62
100 81 63
99 78 61
103 83 64
104 82 64
107 84 66
106 84 66
96 77 60
102 81 62
99 79 61
105 82 65
105 83 66
99 78 61
105 83 65
99 79 60
105 83 65
106 84 66
101 81 63
108 86 67
105 83 66
105 83 64
111 87 70
105 83 65
104 82 64
104 82 65
106 84 66
99 80 62
101 80 63
104 82 65
105 82 65
98 79 61
102 81 63
111 87 69
105 83 65
102 81 64
109 87 68
100 79 62
104 82 65
105 83 64
109 85 68
102 82 63
103 82 64
100 79 62
105 84 66
102 80 62
107 87 73
124 120 118
115 115 114
131 136 139
132 143 148
155 173 182
155 173 182
154 168 180
157 168 177
146 149 152
159 161 167
151 153 158
154 155 164
148 153 165
138 144 160
140 149 169
136 150 169
137 152 171
144 155 174
135 145 163
125 129 148
133 135 155
124 127 147
119 117 144
108 108 146
108 113 158
93 100 157
76 83 145
71 79 149
84 103 151
75 101 149
59 97 135
82 115 148
70 112 150
105 130 152
108 131 146
114 138 148
99 123 120
98 122 115
88 114 100
73 101 81
94 117 108
99 123 111
124 146 141
125 144 141
151 174 171
141 169 165
121 151 139
118 148 130
92 130 101
74 121 83
84 129 94
61 117 67
71 118 79
75 125 84
68 117 77
106 139 129
107 139 136
127 152 161
140 159 179
143 161 183
147 164 185
141 159 180
142 159 182
144 162 184
143 161 185
145 163 183
138 156 178
135 153 172
143 161 182
139 157 177
131 148 163
134 151 167
130 146 161
132 148 163
137 154 166
122 137 146
121 136 145
122 138 149
123 138 153
134 149 168
136 152 168
135 153 172
137 154 174
132 150 170
141 158 179
138 157 178
136 154 173
149 170 183
153 176 188
147 168 176
152 175 183
156 177 186
151 175 182
159 190 192
159 196 191
152 197 185
133 182 168
133 181 171
101 146 141
86 127 128
81 121 123
78 119 122
88 127 132
84 122 125
76 116 120
78 116 120
80 119 123
76 117 120
92 134 134
96 141 137
109 155 146
110 153 145
109 144 144
121 146 162
117 134 156
128 142 167
125 140 166
130 146 171
129 144 169
124 137 164
131 145 171
131 145 172
131 148 172
131 146 172
128 144 170
135 151 178
131 146 172
130 144 172
125 140 167
129 144 171
129 144 173
122 136 165
113 124 155
123 136 165
117 129 159
113 124 154
112 122 157
100 107 149
98 104 144
93 98 140
100 108 146
103 109 152
103 111 152
100 109 155
108 116 162
113 124 172
111 122 173
105 114 164
106 116 170
107 116 166
103 112 161
107 117 171
109 119 172
116 126 175
111 120 169
106 116 170
108 118 171
109 119 171
107 116 164
104 114 169
112 122 172
107 116 167
113 125 167
124 138 172
117 134 150
113 136 131
96 127 77
95 129 68
95 126 66
95 127 62
86 119 44
90 125 46
82 114 43
93 125 58
88 117 57
79 108 37
82 114 33
84 117 47
88 119 59
91 120 66
91 119 63
82 115 34
95 125 70
92 112 70
111 107 101
136 134 134
178 176 175
183 182 181
183 181 181
183 181 181
182 181 181
182 181 181
181 180 181
181 180 181
181 180 181
181 180 181
180 180 181
180 180 181
180 180 181
179 179 181
179 179 181
179 179 181
179 179 181
178 179 181
178 179 181
178 179 181
178 179 181
178 178 181
177 178 181
177 178 181
177 178 181
177 178 181
177 178 181
176 178 181
176 178 181
176 178 181
176 178 181
176 177 181
175 177 181
175 177 181
175 177 181
175 177 181
175 177 181
175 177 181
174 177 181
174 177 181
174 177 181
174 177 181
174 177 181
174 177 181
174 176 181
173 176 181
173 176 181
173 176 181
173 176 181
173 176 181
173 176 181
173 176 181
172 176 181
172 176 181
172 176 181
172 176 181
172 176 181
172 176 181
172 175 181
172 175 181
171 175 181
171 175 181
171 175 181
171 175 181
171 175 181
171 175 181
171 175 181
171 175 181
170 175 181
170 175 181
170 175 181
170 175 181
170 175 181
170 175 181
170 175 181
170 174 181
170 174 181
169 174 181
169 174 181
169 174 181
169 174 181
169 174 181
169 174 181
169 174 181
169 174 181
169 174 181
169 174 181
168 174 181
168 174 181
168 174 181
168 174 181
168 174 181
168 174 181
168 174 181
168 174 181
168 174 181
168 173 181
168 173 181
167 173 181
167 173 181
167 173 181
167 173 181
167 173 181
167 173 181
167 173 181
167 173 181
167 173 181
167 173 181
167 173 181
167 173 181
166 173 181
166 173 181
166 173 181
166 173 181
166 173 181
166 173 181
166 173 181
166 173 181
166 173 181
166 173 181
166 173 181
166 172 181
166 172 181
166 172 181
165 172 181
165 172 181
165 172 181
165 172 181
165 172 181
165 172 181
165 172 181
165 172 181
165 172 181
165 172 181
165 172 181
165 172 181
165 172 181
165 172 181
165 172 181
164 172 181
164 172 181
164 172 181
164 172 181
164 172 181
164 172 181
164 172 181
164 172 181
164 172 181
164 172 181
164 172 181
164 172 181
164 172 181
164 172 181
164 172 181
164 172 181
164 171 181
164 171 181
163 171 181
163 171 181
163 171 181
163 171 181
163 171 181
163 171 181
163 171 181
163 171 181
163 171 181
163 171 181
163 171 181
163 171 181
163 171 181
163 171 181
163 171 181
163 171 181
163 171 181
163 171 181
163 171 181
163 171 181
163 171 181
163 171 181
163 171 181
163 171 181
163 171 181
162 171 181
162 171 181
162 171 181
162 171 181
162 171 181
162 171 181
162 171 181
162 171 181
162 171 181
162 171 181
162 171 181
162 171 181
162 171 181
162 171 181
162 171 181
162 171 181
162 171 181
162 171 181
162 171 181
162 171 181
162 171 181
162 171 181
162 171 181
162 171 181
162 171 181
162 171 181
162 171 181
162 171 181
162 171 181
162 171 181
162 171 181
162 171 181
162 171 181
162 170 181
162 170 181
162 170 181
162 170 181
162 170 181
161 170 181
161 170 181
161 170 181
161 170 181
161 170 181
161 170 181
161 170 181
161 170 181
161 170 181
161 170 181
161 170 181
161 170 181
161 170 181
161 170 181
161 170 181
161 170 181
161 170 181
161 170 181
161 170 181
161 170 181
161 170 181
161 170 181
161 170 181
161 170 181
161 170 181
161 170 181
161 170 181
161 170 181
161 170 181
161 170 181
161 170 181
161 170 181
161 170 181
161 170 181
161 170 181
161 170 181
161 170 181
161 170 181
161 170 181
161 170 181
161 170 181
161 170 181
161 170 181
161 170 181
161 170 181
161 170 181
161 170 181
161 170 181
161 170 181
161 170 181
161 170 181
161 170 181
161 170 181
161 170 181
161 170 181
161 170 181
161 170 181
161 170 181
161 170 181
161 170 181
161 170 181
161 170 181
161 170 181
162 170 181
161 170 181
162 170 181
162 170 181
162 170 181
162 170 181
162 170 181
162 170 181
162 171 181
162 171 181
162 171 181
162 171 181
162 171 181
162 171 181
162 171 181
162 171 181
162 171 181
162 171 181
162 171 181
162 171 181
162 171 181
162 171 181
162 171 181
162 171 181
162 171 181
162 171 181
162 171 181
162 171 181
162 171 181
162 171 181
162 171 181
162 171 181
162 171 181
162 171 181
162 171 181
162 171 181
162 171 181
162 171 181
162 171 181
162 171 181
162 171 181
163 171 181
163 171 181
163 171 181
163 171 181
163 171 181
163 171 181
163 171 181
163 171 181
163 171 181
163 171 181
163 171 181
163 171 181
163 171 181
163 171 181
163 171 181
163 171 181
163 171 181
163 171 181
163 171 181
163 171 181
163 171 181
163 171 181
163 171 181
163 171 181
164 171 181
164 171 181
164 171 181
164 172 181
164 172 181
164 172 181
164 172 181
164 172 181
164 172 181
164 172 181
164 172 181
164 172 181
164 172 181
164 172 181
164 172 181
164 172 181
164 172 181
164 172 181
165 172 181
165 172 181
165 172 181
165 172 181
165 172 181
165 172 181
165 172 181
165 172 181
165 172 181
165 172 181
165 172 181
165 172 181
165 172 181
165 172 181
165 172 181
165 172 181
166 172 181
166 172 181
166 173 181
166 173 181
166 173 181
166 173 181
166 173 181
166 173 181
166 173 181
166 173 181
166 173 181
166 173 181
166 173 181
167 173 181
167 173 181
167 173 181
167 173 181
167 173 181
167 173 181
167 173 181
167 173 181
167 173 181
167 173 181
167 173 181
167 173 181
168 173 181
168 173 181
168 173 181
168 174 181
168 174 181
168 174 181
168 174 181
168 174 181
168 174 181
168 174 181
168 174 181
169 174 181
169 174 181
169 174 181
169 174 181
169 174 181
169 174 181
169 174 181
169 174 181
169 174 181
169 174 181
170 174 181
170 174 181
170 175 181
170 175 181
170 175 181
170 175 181
170 175 181
170 175 181
170 175 181
171 175 181
171 175 181
171 175 181
171 175 181
171 175 181
171 175 181
171 175 181
171 175 181
171 175 181
172 175 181
172 176 181
172 176 181
172 176 181
172 176 181
172 176 181
172 176 181
173 176 181
173 176 181
173 176 181
173 176 181
173 176 181
173 176 181
173 176 181
174 176 181
174 177 181
174 177 181
174 177 181
174 177 181
174 177 181
174 177 181
175 177 181
175 177 181
175 177 181
175 177 181
175 177 181
176 177 181
176 178 181
176 178 181
176 178 181
176 178 181
176 178 181
177 178 181
177 178 181
177 178 181
177 178 181
177 178 181
178 179 181
178 179 181
178 179 181
178 179 181
179 179 181
179 179 181
179 179 181
179 179 181
179 179 181
180 180 181
180 180 181
180 180 181
181 180 181
181 180 181
181 180 181
182 181 181
182 181 181
182 181 181
183 181 181
183 181 181
184 182 181
185 182 181
179 178 180
152 157 170
144 135 153
148 132 145
149 132 143
148 130 136
148 122 124
153 120 107
151 115 101
150 118 98
152 113 74
155 118 71
154 108 74
154 114 67
154 117 65
148 113 60
153 118 63
154 118 65
153 122 61
152 125 58
150 124 56
146 122 55
150 128 54
152 117 63
151 120 60
153 123 60
151 121 59
157 115 69
155 116 65
150 111 67
153 115 65
156 107 71
153 108 68
157 108 71
161 95 80
158 107 83
153 94 90
158 107 107
154 105 106
158 113 116
153 113 125
145 118 133
152 125 144
147 131 151
147 122 143
143 133 154
142 142 165
143 150 173
140 151 174
139 155 178
137 156 181
137 156 181
138 156 181
138 156 181
137 156 181
139 157 181
139 157 181
136 156 181
139 157 181
138 157 181
139 157 181
137 156 181
139 157 181
137 156 181
137 156 181
137 156 181
138 156 181
138 156 181
138 156 181
138 156 181
138 156 181
136 155 181
137 156 181
138 156 181
138 156 181
139 157 181
138 156 181
137 156 181
137 156 181
138 156 181
137 156 181
137 156 181
138 156 181
139 157 181
138 156 181
139 157 181
139 157 181
137 156 181
138 156 180
137 156 181
138 156 180
138 157 181
137 156 181
138 157 181
138 155 179
137 154 179
136 152 177
133 147 178
132 148 178
127 141 174
128 141 174
124 136 173
125 136 175
121 129 170
120 130 171
118 127 170
121 131 172
113 118 169
114 119 169
114 119 168
112 118 166
110 113 167
109 111 167
106 107 166
108 109 164
109 111 165
101 98 156
103 101 156
96 91 153
90 81 144
95 89 149
91 83 145
82 67 131
83 69 136
77 62 125
70 51 109
71 50 114
67 44 103
66 42 98
64 40 93
65 42 97
59 32 72
57 31 72
59 35 79
55 29 63
54 27 58
54 26 54
51 23 45
52 23 45
53 23 46
53 23 46
53 23 46
51 22 44
52 23 45
53 23 46
51 23 45
56 32 52
56 36 54
61 44 63
67 66 77
73 74 87
69 79 82
71 85 87
77 97 99
81 105 106
80 113 108
82 114 110
83 120 113
87 122 116
81 129 115
85 136 120
84 142 124
87 147 128
85 148 127
85 147 128
85 146 127
84 142 125
85 142 128
96 146 143
99 158 148
103 149 154
115 161 174
113 153 170
116 156 171
116 160 175
130 166 195
120 158 183
129 164 194
125 162 190
134 170 205
133 163 205
142 174 216
146 174 221
143 173 223
144 173 219
145 173 222
145 174 224
147 172 226
147 171 226
148 173 229
149 173 228
155 179 236
152 176 232
151 172 223
149 171 225
154 175 229
151 172 225
155 175 227
156 175 225
152 170 219
155 174 225
158 176 226
153 172 222
153 171 219
155 173 224
154 172 221
152 171 220
156 174 223
155 174 223
153 172 217
151 170 219
152 171 218
155 173 223
154 172 221
155 173 222
150 169 217
153 171 215
154 171 217
154 172 215
153 171 216
149 166 206
150 167 209
150 167 207
150 167 204
149 167 203
151 168 198
149 166 194
157 175 191
156 175 190
158 177 192
155 176 184
157 180 178
161 182 185
158 183 174
154 180 169
154 179 168
164 192 172
162 186 170
167 195 172
162 189 167
167 195 170
163 192 168
167 196 173
164 193 170
166 194 174
171 200 179
164 190 171
168 194 176
169 195 176
170 196 177
174 201 183
168 195 178
173 201 181
173 201 180
177 205 184
178 206 185
176 204 182
175 202 181
178 205 183
182 210 188
174 202 177
184 211 186
182 208 182
181 208 184
180 205 183
181 206 186
177 201 180
176 198 183
168 190 181
168 191 182
166 188 185
159 180 179
156 176 182
158 178 183
152 171 181
148 168 181
141 160 180
137 155 180
133 151 180
133 152 180
129 147 180
129 148 179
120 139 177
118 137 177
118 137 177
115 134 178
116 135 178
114 133 176
109 127 175
114 133 177
107 126 178
107 126 178
115 134 178
114 133 177
113 132 178
109 128 176
107 127 177
116 135 178
118 137 178
115 134 178
115 134 178
120 140 177
