P3
1600 1
255
135 162 173
131 163 168
133 166 166
130 165 162
129 167 160
133 165 166
130 167 161
129 168 159
126 168 151
128 167 156
129 171 154
129 172 155
126 169 151
128 167 153
127 168 155
129 172 154
125 168 152
127 169 155
130 172 155
129 171 155
127 171 153
128 168 155
129 173 153
130 170 158
130 167 160
130 164 162
129 166 159
130 165 161
131 160 167
133 162 168
135 162 170
132 160 170
135 159 175
136 159 175
136 158 177
138 157 179
138 157 178
139 157 181
138 156 181
139 157 181
137 156 181
138 156 181
137 156 181
138 156 180
138 156 181
137 156 181
138 156 181
137 156 181
138 156 181
138 156 180
139 157 181
138 156 181
137 156 181
138 156 181
138 156 181
137 156 181
138 156 181
138 156 180
137 156 181
138 157 181
138 156 181
137 156 181
139 157 181
138 156 181
139 157 181
137 156 181
136 156 181
137 156 181
137 156 181
138 157 181
138 156 181
137 156 181
139 157 181
138 156 181
138 156 181
139 157 181
138 156 181
138 156 181
137 156 181
136 156 181
138 156 181
138 157 181
138 156 181
138 157 181
138 156 181
138 156 181
137 156 181
138 156 181
138 156 181
138 156 181
137 156 181
138 156 181
138 156 180
136 155 181
138 156 181
138 157 181
139 157 181
136 155 180
139 157 181
140 157 181
137 156 181
137 156 181
138 156 181
137 156 181
137 156 181
136 155 180
138 157 181
138 156 181
137 156 181
138 156 181
137 156 181
138 157 181
138 156 181
137 156 181
137 156 181
138 156 181
137 155 180
139 157 181
138 156 181
138 157 181
138 156 181
138 156 181
138 156 181
138 156 181
138 156 181
138 156 181
137 156 181
137 156 181
137 156 181
137 156 181
137 156 181
137 156 181
139 157 181
136 155 179
137 156 181
137 156 181
138 156 181
138 156 181
138 156 181
138 156 181
138 157 181
138 157 181
138 157 181
138 156 181
138 156 181
137 156 181
137 156 181
138 156 180
138 156 181
138 156 181
138 156 181
138 156 181
138 156 181
138 156 181
138 156 181
138 156 181
138 156 181
138 156 181
138 156 181
137 156 181
137 156 181
138 156 181
136 156 181
139 157 181
139 157 181
138 157 181
137 156 181
137 156 179
134 155 175
135 156 176
133 156 172
126 155 161
120 155 155
126 157 161
118 154 148
124 153 157
113 153 142
105 155 128
109 153 133
101 156 126
90 153 108
87 155 104
90 152 110
86 154 109
74 153 89
79 153 92
70 155 86
64 152 76
61 151 72
60 151 76
58 152 71
58 150 74
60 152 76
60 150 76
58 154 73
62 147 81
58 150 74
62 151 78
67 150 85
75 152 97
85 150 110
82 148 107
84 153 110
95 152 123
97 153 127
89 150 115
100 151 131
110 155 143
108 153 143
114 155 149
119 155 157
124 154 163
127 155 167
126 155 165
134 156 175
133 156 174
138 157 181
138 156 180
138 157 181
136 155 181
138 156 181
139 157 181
138 156 181
138 156 181
138 157 181
138 156 181
138 156 181
138 156 181
138 157 181
138 156 181
137 156 181
136 155 181
137 155 180
138 156 180
137 156 181
138 156 181
137 156 181
137 156 180
137 156 179
136 158 177
135 158 174
133 160 169
134 157 170
130 159 165
131 162 163
132 161 164
131 163 161
129 164 157
131 164 161
127 164 153
129 165 156
128 165 155
128 165 155
128 166 153
126 164 149
126 163 153
129 165 155
129 168 154
127 162 155
128 164 156
131 165 160
130 166 157
132 165 161
134 167 165
140 166 177
141 166 179
139 164 177
150 170 194
152 169 200
154 168 206
156 170 210
155 169 209
156 168 210
164 171 227
164 171 227
160 169 223
162 170 225
166 171 231
163 170 231
163 170 229
163 170 230
163 170 232
165 171 233
165 171 232
164 171 227
161 169 226
165 171 227
163 170 223
161 168 222
163 170 223
160 168 221
163 169 222
160 168 216
155 165 208
159 167 213
156 166 206
153 164 201
152 163 200
151 163 198
149 162 196
151 163 195
142 158 185
140 157 185
140 157 183
139 157 182
138 156 181
140 157 181
138 156 181
136 156 181
137 156 181
137 156 181
138 156 181
138 157 181
138 156 181
138 156 181
137 156 181
138 156 181
137 156 181
138 156 181
138 156 181
137 156 181
138 156 181
138 156 181
138 156 181
136 155 181
138 157 181
139 157 181
138 156 181
139 157 181
137 156 181
138 157 181
138 156 181
137 156 181
138 156 181
137 156 181
138 157 181
138 156 181
137 156 181
137 156 181
137 156 180
137 156 181
137 156 181
137 156 180
137 156 181
138 156 181
138 156 181
136 155 181
137 156 181
138 156 181
138 156 181
138 156 181
136 155 181
137 156 180
136 155 181
139 157 180
138 156 181
137 156 181
138 157 181
139 157 181
138 156 181
138 156 181
137 156 181
138 156 181
139 157 181
137 156 180
137 156 181
137 156 181
137 156 181
137 156 180
139 157 181
137 156 181
137 156 181
137 156 181
138 156 181
138 156 181
138 156 181
138 157 181
138 156 181
138 156 181
137 156 181
137 156 181
138 156 181
137 156 181
138 156 181
138 157 181
139 157 181
139 157 181
138 156 181
140 157 181
137 156 181
138 156 181
138 156 181
138 157 181
139 157 181
138 156 180
137 156 181
138 156 181
138 156 180
136 155 180
138 156 181
139 157 181
141 159 183
137 155 180
144 162 186
142 161 184
140 158 181
148 171 195
147 171 194
145 167 191
145 174 198
145 175 200
150 179 204
152 184 209
147 180 205
152 186 212
152 184 210
156 194 221
151 188 214
149 188 216
156 198 227
153 193 222
150 192 219
151 189 218
151 190 216
152 191 219
152 192 220
152 190 215
154 192 220
152 192 221
150 185 212
154 191 219
153 190 216
153 185 211
153 185 211
151 180 205
148 178 202
151 182 207
150 178 201
146 171 192
154 180 201
154 182 199
151 177 196
156 181 197
160 184 197
162 187 199
161 187 199
164 192 202
164 193 203
171 202 209
172 204 210
174 206 212
174 209 215
178 213 217
174 210 216
174 211 217
176 215 220
176 214 219
174 214 220
174 214 220
174 213 220
172 212 220
172 213 220
173 213 220
173 213 220
172 212 220
172 212 220
173 213 220
174 214 220
175 214 220
175 214 220
177 215 218
176 213 218
175 211 216
172 207 213
174 209 214
174 207 213
170 201 208
171 201 207
170 199 206
164 191 201
164 190 200
159 185 197
159 183 196
152 175 190
150 171 189
149 169 187
143 163 184
141 160 182
140 158 181
137 156 181
138 156 181
139 157 181
137 156 181
137 156 181
139 157 181
136 155 181
138 157 181
137 156 181
137 156 181
138 157 181
138 156 181
138 156 181
137 156 181
137 156 181
136 156 181
138 157 181
137 156 181
138 156 181
137 156 181
137 156 180
138 156 181
137 156 180
137 156 178
136 155 179
133 153 173
131 151 167
132 151 169
124 143 153
123 139 147
123 138 150
120 130 134
110 116 119
107 106 103
114 106 102
101 91 78
104 94 82
104 86 72
91 73 58
100 79 62
94 76 59
103 81 64
102 80 64
107 85 67
102 80 63
95 76 60
99 79 61
104 82 65
93 76 60
98 78 61
101 82 63
103 81 64
102 83 65
98 80 62
105 83 65
101 81 62
94 76 58
101 81 64
101 81 63
102 81 63
98 79 61
104 83 65
99 79 61
103 81 64
102 82 63
100 80 62
102 82 64
101 80 63
101 80 63
100 80 61
102 82 62
95 78 60
98 77 61
102 82 64
99 79 63
103 82 64
97 76 60
103 82 64
98 79 61
104 84 65
98 79 63
101 81 63
97 77 60
106 82 65
96 77 60
103 81 64
102 81 63
100 78 61
96 76 60
100 80 63
104 83 65
101 81 63
103 82 64
102 81 64
98 78 61
97 79 62
103 82 63
104 83 65
100 80 63
102 81 63
102 82 63
104 81 64
104 83 66
102 82 63
102 80 62
95 76 59
100 79 62
102 80 63
99 78 61
94 74 59
100 80 62
100 80 61
104 82 65
102 81 65
100 79 63
106 84 66
101 80 63
106 89 80
113 105 109
112 116 131
121 126 140
132 150 165
138 159 177
136 164 172
139 162 166
143 152 163
149 173 174
146 151 161
161 166 179
153 163 175
140 158 167
136 149 163
142 156 172
132 148 164
146 159 171
148 156 166
154 166 176
167 180 191
143 159 165
141 160 170
121 151 154
93 140 134
107 152 148
106 149 144
112 145 148
90 124 136
106 139 160
79 122 161
65 125 169
88 136 172
78 127 160
91 124 139
99 124 136
96 118 119
126 145 159
122 137 150
120 135 148
113 123 138
110 117 131
113 114 140
125 130 157
116 127 144
128 142 155
133 149 159
139 156 165
140 161 167
140 167 160
143 170 167
137 165 158
122 153 146
129 154 164
122 146 157
136 157 173
127 147 161
110 134 136
103 135 123
99 131 111
108 139 119
103 137 111
107 136 123
108 135 130
119 141 149
114 132 147
123 139 163
125 140 163
122 137 161
128 144 162
133 148 157
153 171 170
157 174 154
157 175 156
157 175 150
150 169 148
158 176 158
159 176 159
160 175 160
149 164 152
134 151 143
130 151 143
112 139 137
101 140 131
125 156 156
119 144 160
113 142 167
106 135 169
83 123 171
91 127 170
128 161 194
135 167 197
159 189 213
169 198 216
170 202 221
167 199 219
168 200 219
167 200 219
162 193 211
155 186 201
150 180 194
126 161 173
102 140 150
89 128 141
59 114 124
55 110 125
61 112 125
68 112 126
69 113 127
41 99 115
63 101 121
75 100 130
80 81 123
90 65 120
100 77 133
93 74 129
105 109 149
119 135 164
115 134 160
124 141 166
130 144 165
126 141 163
130 146 170
126 139 161
115 126 148
114 126 149
112 123 143
123 135 153
111 124 146
109 120 137
110 121 149
106 111 154
95 82 174
97 72 193
93 68 189
81 41 190
93 65 193
80 44 185
88 60 186
81 44 191
92 69 189
96 74 192
91 64 192
97 74 196
116 106 207
141 145 225
156 165 241
162 173 247
162 174 249
157 170 246
154 168 245
153 167 248
152 167 247
151 165 243
152 167 246
153 168 249
155 170 249
155 169 249
158 171 247
162 175 247
164 176 250
162 172 245
157 166 229
150 162 213
143 158 193
130 146 171
134 151 174
128 144 167
121 133 152
100 102 118
97 89 101
92 81 89
86 68 79
92 77 86
82 66 75
95 84 93
82 66 75
85 73 83
95 84 92
88 76 86
75 57 67
103 97 106
108 105 96
143 143 142
182 179 179
184 182 181
183 181 181
183 181 181
183 181 181
182 181 181
182 181 181
182 181 181
181 180 181
181 180 181
181 180 181
181 180 181
180 180 181
180 180 181
180 180 181
180 180 181
179 179 181
179 179 181
179 179 181
179 179 181
179 179 181
178 179 181
178 179 181
178 179 181
178 179 181
178 178 181
177 178 181
177 178 181
177 178 181
177 178 181
177 178 181
177 178 181
176 178 181
176 178 181
176 178 181
176 178 181
176 178 181
176 177 181
175 177 181
175 177 181
175 177 181
175 177 181
175 177 181
175 177 181
175 177 181
174 177 181
174 177 181
174 177 181
174 177 181
174 177 181
174 177 181
174 177 181
174 176 181
173 176 181
173 176 181
173 176 181
173 176 181
173 176 181
173 176 181
173 176 181
173 176 181
173 176 181
172 176 181
172 176 181
172 176 181
172 176 181
172 176 181
172 176 181
172 176 181
172 175 181
172 175 181
171 175 181
171 175 181
171 175 181
171 175 181
171 175 181
171 175 181
171 175 181
171 175 181
171 175 181
171 175 181
170 175 181
170 175 181
170 175 181
170 175 181
170 175 181
170 175 181
170 175 181
170 175 181
170 174 181
170 174 181
170 174 181
169 174 181
169 174 181
169 174 181
169 174 181
169 174 181
169 174 181
169 174 181
169 174 181
169 174 181
169 174 181
169 174 181
169 174 181
168 174 181
168 174 181
168 174 181
168 174 181
168 174 181
168 174 181
168 174 181
168 174 181
168 174 181
168 174 181
168 174 181
168 173 181
168 173 181
167 173 181
167 173 181
167 173 181
167 173 181
167 173 181
167 173 181
167 173 181
167 173 181
167 173 181
167 173 181
167 173 181
167 173 181
167 173 181
167 173 181
167 173 181
167 173 181
166 173 181
166 173 181
166 173 181
166 173 181
166 173 181
166 173 181
166 173 181
166 173 181
166 173 181
166 173 181
166 173 181
166 173 181
166 173 181
166 173 181
166 173 181
166 172 181
166 172 181
166 172 181
165 172 181
165 172 181
165 172 181
165 172 181
165 172 181
165 172 181
165 172 181
165 172 181
165 172 181
165 172 181
165 172 181
165 172 181
165 172 181
165 172 181
165 172 181
165 172 181
165 172 181
165 172 181
165 172 181
165 172 181
165 172 181
165 172 181
165 172 181
164 172 181
164 172 181
164 172 181
164 172 181
164 172 181
164 172 181
164 172 181
164 172 181
164 172 181
164 172 181
164 172 181
164 172 181
164 172 181
164 172 181
164 172 181
164 172 181
164 172 181
164 172 181
164 172 181
164 172 181
164 172 181
164 172 181
164 172 181
164 172 181
164 172 181
164 172 181
164 171 181
164 171 181
164 171 181
164 171 181
164 171 181
164 171 181
164 171 181
163 171 181
163 171 181
163 171 181
163 171 181
163 171 181
163 171 181
163 171 181
163 171 181
163 171 181
163 171 181
163 171 181
163 171 181
163 171 181
163 171 181
163 171 181
163 171 181
163 171 181
163 171 181
163 171 181
163 171 181
163 171 181
163 171 181
163 171 181
163 171 181
163 171 181
163 171 181
163 171 181
163 171 181
163 171 181
163 171 181
163 171 181
163 171 181
163 171 181
163 171 181
163 171 181
163 171 181
163 171 181
163 171 181
163 171 181
163 171 181
163 171 181
163 171 181
163 171 181
163 171 181
163 171 181
163 171 181
163 171 181
163 171 181
163 171 181
163 171 181
163 171 181
163 171 181
163 171 181
163 171 181
163 171 181
163 171 181
163 171 181
163 171 181
163 171 181
163 171 181
163 171 181
163 171 181
163 171 181
163 171 181
163 171 181
163 171 181
163 171 181
163 171 181
163 171 181
163 171 181
163 171 181
163 171 181
163 171 181
163 171 181
163 171 181
163 171 181
163 171 181
163 171 181
163 171 181
163 171 181
163 171 181
163 171 181
163 171 181
163 171 181
163 171 181
163 171 181
163 171 181
163 171 181
163 171 181
163 171 181
163 171 181
163 171 181
163 171 181
163 171 181
163 171 181
163 171 181
163 171 181
163 171 181
164 171 181
164 171 181
164 171 181
164 171 181
164 171 181
164 171 181
164 172 181
164 172 181
164 172 181
164 172 181
164 172 181
164 172 181
164 172 181
164 172 181
164 172 181
164 172 181
164 172 181
164 172 181
164 172 181
164 172 181
164 172 181
164 172 181
164 172 181
164 172 181
164 172 181
164 172 181
164 172 181
164 172 181
164 172 181
164 172 181
164 172 181
164 172 181
164 172 181
164 172 181
165 172 181
165 172 181
165 172 181
165 172 181
165 172 181
165 172 181
165 172 181
165 172 181
165 172 181
165 172 181
165 172 181
165 172 181
165 172 181
165 172 181
165 172 181
165 172 181
165 172 181
165 172 181
165 172 181
165 172 181
165 172 181
165 172 181
166 172 181
166 172 181
166 172 181
166 173 181
166 173 181
166 173 181
166 173 181
166 173 181
166 173 181
166 173 181
166 173 181
166 173 181
166 173 181
166 173 181
166 173 181
166 173 181
166 173 181
166 173 181
167 173 181
167 173 181
167 173 181
167 173 181
167 173 181
167 173 181
167 173 181
167 173 181
167 173 181
167 173 181
167 173 181
167 173 181
167 173 181
167 173 181
167 173 181
167 173 181
168 173 181
168 173 181
168 174 181
168 174 181
168 174 181
168 174 181
168 174 181
168 174 181
168 174 181
168 174 181
168 174 181
168 174 181
168 174 181
169 174 181
169 174 181
169 174 181
169 174 181
169 174 181
169 174 181
169 174 181
169 174 181
169 174 181
169 174 181
169 174 181
169 174 181
170 174 181
170 174 181
170 175 181
170 175 181
170 175 181
170 175 181
170 175 181
170 175 181
170 175 181
170 175 181
170 175 181
171 175 181
171 175 181
171 175 181
171 175 181
171 175 181
171 175 181
171 175 181
171 175 181
171 175 181
171 175 181
172 175 181
172 175 181
172 176 181
172 176 181
172 176 181
172 176 181
172 176 181
172 176 181
172 176 181
173 176 181
173 176 181
173 176 181
173 176 181
173 176 181
173 176 181
173 176 181
173 176 181
174 176 181
174 176 181
174 177 181
174 177 181
174 177 181
174 177 181
174 177 181
174 177 181
175 177 181
175 177 181
175 177 181
175 177 181
175 177 181
175 177 181
175 177 181
176 177 181
176 178 181
176 178 181
176 178 181
176 178 181
176 178 181
177 178 181
177 178 181
177 178 181
177 178 181
177 178 181
177 178 181
178 179 181
178 179 181
178 179 181
178 179 181
178 179 181
179 179 181
179 179 181
179 179 181
179 179 181
179 179 181
180 180 181
180 180 181
180 180 181
180 180 181
181 180 181
181 180 181
181 180 181
181 181 181
182 181 181
182 181 181
182 181 181
183 181 181
183 181 181
184 182 181
184 182 181
185 182 181
181 179 178
145 151 169
120 127 147
122 119 109
127 129 103
130 127 94
133 128 62
131 127 70
133 135 50
123 126 33
132 133 26
131 131 25
129 130 25
131 131 26
135 137 26
135 136 26
136 137 26
135 136 26
129 131 25
136 135 26
134 135 26
132 132 25
136 137 26
132 132 25
131 132 25
134 134 26
136 136 26
132 132 25
135 135 26
133 132 26
141 135 35
137 132 34
132 123 37
141 129 56
132 123 58
138 130 84
137 128 94
138 128 106
140 140 124
139 133 130
141 143 145
136 138 151
138 146 157
140 147 165
140 148 167
141 152 174
138 151 175
137 154 178
136 155 180
138 156 181
137 156 181
138 156 181
138 156 180
138 157 181
138 156 181
138 156 181
136 155 181
137 156 181
137 156 180
138 157 181
139 157 181
138 156 181
137 156 181
137 156 181
138 156 181
136 155 181
138 156 181
138 156 181
138 156 180
138 156 181
139 157 181
138 156 181
138 156 181
137 155 180
138 157 181
138 156 180
138 156 181
137 156 181
139 157 181
139 157 181
138 156 181
140 157 181
139 157 181
137 156 181
138 156 181
137 154 180
136 154 179
134 151 178
132 149 177
126 140 172
126 140 172
124 136 171
120 130 167
114 122 162
111 115 165
108 111 162
108 112 163
91 85 149
96 89 159
96 90 154
85 74 144
86 71 150
83 66 151
80 63 142
82 62 148
81 61 148
81 61 147
84 64 154
83 62 149
83 63 150
82 63 152
83 63 152
84 66 152
89 74 151
93 78 156
94 80 156
103 93 159
105 96 159
92 79 153
106 98 160
103 94 159
105 95 160
111 104 162
103 94 158
105 96 158
100 90 147
96 84 146
92 78 147
86 73 132
81 71 111
87 76 123
76 63 108
69 52 105
72 60 97
58 35 79
56 34 78
51 25 55
52 27 59
51 24 51
49 23 47
47 21 43
47 21 41
47 21 41
47 21 41
49 22 43
50 22 44
50 31 47
53 41 54
51 43 53
53 54 59
56 62 64
62 83 80
65 93 86
62 84 80
63 88 82
69 106 95
76 118 106
77 123 111
73 116 104
76 124 112
83 129 121
86 135 129
95 139 138
91 132 136
88 127 132
102 141 153
97 135 148
117 150 175
117 149 178
120 151 182
129 156 194
129 153 197
140 164 213
140 162 209
137 156 206
135 155 206
140 160 212
137 158 209
139 159 210
135 154 206
139 159 211
139 157 210
139 160 214
142 162 216
141 161 211
142 160 213
141 157 207
148 166 218
143 158 210
146 164 215
151 165 214
156 169 220
153 168 220
155 169 220
160 173 223
162 176 228
161 174 226
161 175 227
161 176 228
164 179 232
160 175 227
162 177 230
159 175 230
159 175 229
159 175 229
160 177 233
161 178 232
160 177 230
160 177 232
158 175 228
161 178 233
160 177 231
158 175 229
162 178 231
160 176 231
160 176 230
161 176 229
161 177 231
163 177 229
155 169 220
162 176 225
158 172 218
154 168 211
158 173 213
159 175 210
154 169 203
148 164 191
150 167 191
146 164 180
144 162 173
136 157 161
143 164 163
133 155 154
130 154 144
131 155 141
126 152 135
129 152 135
123 147 130
121 146 128
126 149 131
123 145 129
125 151 133
129 152 135
128 151 136
128 150 135
125 147 132
128 150 136
130 152 136
124 145 130
130 153 136
124 149 131
129 153 133
130 154 138
132 157 136
139 161 144
134 157 138
134 158 136
138 163 143
134 159 140
132 156 141
129 154 141
134 158 149
130 155 149
138 162 153
122 146 151
136 159 159
125 150 158
120 145 156
116 142 162
120 146 162
114 139 162
106 132 161
97 128 162
102 129 162
99 127 165
90 122 164
90 122 166
90 120 167
84 115 166
82 113 163
74 105 165
66 99 164
67 99 165
65 100 163
63 99 165
59 95 165
55 89 161
52 85 163
54 88 166
54 87 159
49 81 167
47 79 166
50 83 166
45 77 167
42 72 162
44 75 164
51 80 168
44 71 166
49 75 164
