P3
1600 1
255
129 167 159
128 167 157
128 168 154
129 170 156
125 170 148
127 170 152
125 172 146
124 172 147
123 170 145
121 173 138
121 173 139
121 176 137
122 176 137
121 174 137
124 172 144
121 177 138
120 175 136
121 173 137
121 174 136
119 173 135
121 173 138
122 175 137
123 174 140
122 174 139
123 166 148
125 169 148
124 167 149
125 165 152
129 166 157
128 166 156
128 165 159
128 161 161
130 161 163
132 163 166
133 162 166
133 157 171
139 159 176
136 158 178
137 158 178
137 156 181
137 156 181
138 156 181
137 156 180
138 156 181
137 156 181
138 156 181
138 156 181
138 156 181
139 157 181
139 157 181
137 156 181
137 156 181
137 156 181
138 157 181
137 156 181
139 157 181
137 156 180
137 156 181
139 157 181
138 156 181
137 156 181
139 157 181
138 157 181
139 157 181
136 155 181
137 156 181
137 156 181
138 157 181
138 157 181
137 156 181
138 156 181
139 157 181
138 156 181
139 157 181
139 157 181
138 156 181
137 156 181
137 156 181
138 156 181
137 156 181
139 157 181
138 156 181
138 156 181
138 156 181
139 157 181
137 156 181
138 156 181
138 157 181
138 156 181
137 156 181
138 156 181
137 155 180
137 156 181
137 156 181
139 157 181
138 156 180
137 156 181
140 157 181
138 156 181
137 156 181
137 156 181
138 156 181
137 156 181
136 156 181
137 156 180
138 156 181
137 156 181
138 156 181
137 156 181
137 156 181
138 156 181
138 156 181
137 156 181
138 156 181
138 156 181
137 155 180
139 157 181
138 156 181
138 156 181
138 156 181
139 157 181
138 156 181
137 156 181
138 157 181
138 156 181
137 156 181
137 156 181
137 156 181
137 156 181
138 156 181
138 156 181
137 156 181
137 155 179
137 156 181
137 156 181
138 157 181
138 156 181
137 156 181
138 157 181
137 156 180
139 157 181
138 156 181
137 156 181
138 156 181
137 156 181
137 156 181
138 156 180
138 156 181
137 156 181
138 156 181
137 156 181
139 157 181
137 156 181
137 156 181
138 156 181
138 156 181
138 156 181
138 156 181
138 156 181
137 156 181
137 156 181
137 156 181
139 157 179
139 157 178
138 156 177
137 156 175
137 156 174
133 156 168
135 157 165
130 154 162
128 155 153
126 153 154
127 156 149
118 154 136
121 154 142
117 158 128
115 157 126
107 152 119
109 155 122
93 154 102
95 154 96
85 150 85
87 153 80
83 153 74
79 152 69
76 152 67
72 151 63
63 149 58
63 150 59
63 153 59
64 150 59
66 153 61
54 151 55
52 148 53
50 151 53
44 150 51
46 148 53
38 143 47
40 148 49
48 148 60
39 146 49
49 147 62
60 149 76
62 143 80
68 147 88
82 152 106
86 151 113
89 151 116
97 151 126
98 150 130
98 153 128
116 153 151
120 153 159
121 152 159
128 153 167
131 155 171
130 154 172
132 154 174
139 157 180
138 156 181
138 157 181
139 157 181
138 156 181
138 156 181
138 156 181
138 157 181
138 156 181
137 156 181
137 156 181
136 155 179
138 156 180
137 156 181
138 156 181
138 156 181
136 156 178
136 156 179
134 157 174
135 158 175
132 160 167
134 157 169
130 158 163
128 160 159
128 164 154
125 163 147
126 166 148
125 166 147
125 166 147
125 168 145
125 167 148
123 167 142
121 167 136
120 166 135
122 169 136
124 171 140
123 169 141
120 169 135
121 168 136
120 166 137
123 171 137
119 170 131
127 172 146
125 168 143
123 167 141
127 172 143
133 170 158
130 167 155
140 169 177
141 168 182
145 173 184
145 171 186
152 173 204
153 172 203
159 172 214
157 170 214
162 174 222
164 173 228
167 173 236
167 174 236
169 174 241
168 173 241
169 174 241
170 174 241
169 174 241
169 174 239
171 175 241
168 173 239
170 174 239
167 173 236
166 172 233
170 174 234
167 172 229
166 171 228
169 173 228
163 170 218
165 170 220
163 170 217
160 168 213
163 168 215
159 167 208
155 165 204
154 164 201
145 160 190
149 162 192
146 160 189
141 158 184
138 157 183
136 155 180
138 156 181
137 156 181
139 157 181
138 156 181
138 156 181
138 156 181
137 156 181
138 156 181
138 156 181
138 156 181
137 156 181
138 156 181
138 156 181
138 156 181
136 156 181
139 157 181
138 157 181
138 156 181
138 156 181
137 156 181
139 157 181
137 156 181
138 156 181
137 156 181
139 157 181
137 156 181
138 156 180
136 155 181
137 156 181
136 155 180
137 156 181
137 156 181
137 155 180
138 156 181
138 156 181
137 156 181
137 156 181
137 156 181
137 156 181
138 156 181
137 156 181
136 155 180
135 155 181
138 156 181
137 156 180
138 156 181
138 157 181
139 157 181
138 157 181
137 156 181
138 156 181
137 156 181
138 156 180
137 155 179
137 156 181
138 156 181
137 156 181
138 156 181
138 156 180
137 156 181
137 156 181
136 156 181
139 157 181
137 156 181
137 156 181
138 157 181
138 157 181
139 157 181
137 156 181
137 156 181
137 156 181
137 156 181
138 156 181
137 156 181
139 157 181
139 157 181
138 156 181
139 157 181
138 156 181
137 156 181
138 156 181
138 156 181
138 156 181
139 157 181
137 156 181
138 156 181
139 157 181
137 155 180
137 156 181
139 157 181
139 157 181
138 157 181
138 156 181
138 156 180
138 159 182
142 162 184
144 163 186
140 164 187
145 172 196
143 171 194
150 180 204
155 187 211
153 188 213
153 187 212
153 191 217
153 188 212
152 193 219
160 202 229
152 194 222
156 203 234
156 201 231
156 204 235
155 203 233
160 208 240
158 207 239
156 206 238
155 206 237
154 203 235
155 202 233
155 203 232
153 200 230
157 203 234
159 207 238
157 203 232
157 200 229
159 202 230
155 196 224
157 196 225
155 195 223
155 196 222
158 192 216
159 195 217
157 190 212
161 191 207
164 194 211
159 186 202
171 201 212
167 196 207
173 202 208
170 199 208
173 203 208
177 209 213
179 212 214
181 215 217
183 218 219
181 217 219
182 218 220
178 215 219
180 217 220
177 215 219
175 214 219
175 214 219
175 214 220
175 213 219
175 214 220
173 213 220
174 213 220
173 213 220
175 214 220
176 215 220
175 214 220
176 214 220
177 215 220
178 216 220
179 216 220
181 217 220
183 218 220
183 218 219
176 210 214
176 209 213
177 209 213
169 199 206
165 192 202
168 196 203
163 188 199
155 178 192
148 171 188
156 180 193
151 173 189
146 167 186
138 157 181
141 160 182
139 159 183
138 156 180
136 154 180
136 155 180
138 157 181
137 156 181
138 156 181
137 156 181
137 156 181
136 155 181
138 156 181
137 156 181
138 156 181
137 156 181
138 156 181
138 156 181
137 156 180
138 156 181
138 156 181
136 155 179
135 154 177
134 154 172
135 153 173
132 152 170
130 150 166
121 144 151
126 148 160
121 143 149
121 142 147
118 135 138
112 132 131
112 125 121
109 120 113
101 110 95
97 100 87
98 91 72
97 86 68
97 80 62
97 80 60
100 80 62
103 82 64
93 75 60
102 81 64
100 80 62
88 71 56
97 77 61
100 79 62
103 82 64
104 83 66
99 79 62
95 76 60
96 79 61
97 78 60
101 82 64
102 81 63
100 80 63
101 80 63
98 79 61
98 79 61
105 83 65
96 76 60
97 78 61
101 79 62
103 81 64
104 83 65
103 81 63
104 81 64
99 80 62
92 74 58
104 83 65
99 79 62
102 81 64
98 79 62
101 81 63
107 84 66
96 78 60
97 78 62
99 78 61
98 78 61
103 81 64
101 80 62
98 79 60
99 78 61
107 84 66
96 78 60
99 78 62
104 83 64
103 82 64
100 80 62
102 81 64
98 79 61
93 76 59
101 80 63
96 78 61
103 83 64
102 81 63
102 82 64
108 86 67
105 83 65
91 74 57
98 79 61
94 75 58
102 81 63
105 82 64
99 78 61
98 79 62
95 75 58
102 80 63
102 81 62
101 81 63
98 78 60
104 83 65
91 74 56
100 79 63
100 80 63
96 77 59
103 82 65
108 92 83
129 129 133
128 132 143
138 150 166
152 166 185
143 162 181
146 164 185
140 161 179
136 152 170
127 148 161
139 165 172
138 150 157
130 154 154
133 146 158
133 144 158
131 143 163
125 157 171
140 169 180
154 181 185
158 184 188
156 182 185
160 182 186
145 170 170
131 160 160
116 160 155
105 147 138
110 146 139
100 124 121
93 127 130
116 134 146
110 132 152
94 118 127
96 123 129
90 119 118
89 116 114
91 111 109
110 130 136
115 130 146
118 130 152
109 112 132
130 131 156
111 105 150
101 89 145
113 114 168
115 122 181
130 143 191
148 164 188
160 180 193
169 191 196
167 188 194
158 177 187
157 177 187
146 162 180
135 149 171
131 145 170
127 144 164
113 135 145
111 138 136
112 146 125
114 150 122
109 146 116
104 143 107
102 138 110
109 141 123
90 109 122
87 99 130
101 105 148
92 93 144
88 88 145
118 128 155
133 145 160
155 172 166
175 195 177
184 206 182
187 211 186
187 210 187
184 207 184
189 212 192
187 209 185
176 201 170
149 184 144
131 177 135
101 163 108
61 152 70
64 143 93
82 144 124
72 134 147
88 137 178
65 123 187
84 135 195
74 126 187
92 140 202
77 128 188
89 134 191
111 148 194
115 152 199
127 158 191
129 157 181
117 145 154
103 135 142
105 137 143
74 120 125
61 109 123
72 116 132
67 115 131
68 114 130
44 101 121
79 114 139
78 105 132
97 100 141
89 79 128
105 78 138
113 72 145
116 69 146
108 60 139
88 66 140
96 98 149
61 85 133
81 105 147
99 121 155
111 127 156
119 131 157
105 109 138
85 83 115
79 70 109
71 56 97
76 72 99
68 69 84
83 93 96
88 99 101
79 93 98
79 86 124
89 66 183
99 73 204
95 69 196
97 65 204
95 58 210
95 68 201
87 46 203
100 74 200
93 60 204
92 55 208
95 66 202
86 46 204
102 77 208
114 100 209
124 119 219
142 144 229
150 159 239
155 168 243
153 167 248
149 165 248
152 168 247
149 166 249
150 167 248
150 167 251
156 172 249
154 169 251
161 174 248
157 169 241
153 165 225
150 164 213
145 159 192
138 154 176
142 159 181
136 153 175
136 151 173
134 150 172
126 136 154
104 103 118
98 87 99
105 95 106
84 67 77
94 77 87
99 84 95
99 90 100
89 74 82
86 68 78
83 62 71
92 75 84
104 95 106
99 98 93
150 149 152
182 180 179
184 182 181
183 182 181
183 181 181
183 181 181
182 181 181
182 181 181
182 181 181
182 181 181
181 180 181
181 180 181
181 180 181
181 180 181
180 180 181
180 180 181
180 180 181
180 180 181
179 179 181
179 179 181
179 179 181
179 179 181
179 179 181
178 179 181
178 179 181
178 179 181
178 179 181
178 179 181
178 178 181
177 178 181
177 178 181
177 178 181
177 178 181
177 178 181
177 178 181
176 178 181
176 178 181
176 178 181
176 178 181
176 178 181
176 178 181
176 177 181
175 177 181
175 177 181
175 177 181
175 177 181
175 177 181
175 177 181
175 177 181
174 177 181
174 177 181
174 177 181
174 177 181
174 177 181
174 177 181
174 177 181
174 176 181
174 176 181
173 176 181
173 176 181
173 176 181
173 176 181
173 176 181
173 176 181
173 176 181
173 176 181
173 176 181
172 176 181
172 176 181
172 176 181
172 176 181
172 176 181
172 176 181
172 176 181
172 175 181
172 175 181
171 175 181
171 175 181
171 175 181
171 175 181
171 175 181
171 175 181
171 175 181
171 175 181
171 175 181
171 175 181
171 175 181
170 175 181
170 175 181
170 175 181
170 175 181
170 175 181
170 175 181
170 175 181
170 175 181
170 175 181
170 174 181
170 174 181
170 174 181
169 174 181
169 174 181
169 174 181
169 174 181
169 174 181
169 174 181
169 174 181
169 174 181
169 174 181
169 174 181
169 174 181
169 174 181
169 174 181
168 174 181
168 174 181
168 174 181
168 174 181
168 174 181
168 174 181
168 174 181
168 174 181
168 174 181
168 174 181
168 174 181
168 174 181
168 173 181
168 173 181
168 173 181
167 173 181
167 173 181
167 173 181
167 173 181
167 173 181
167 173 181
167 173 181
167 173 181
167 173 181
167 173 181
167 173 181
167 173 181
167 173 181
167 173 181
167 173 181
167 173 181
167 173 181
166 173 181
166 173 181
166 173 181
166 173 181
166 173 181
166 173 181
166 173 181
166 173 181
166 173 181
166 173 181
166 173 181
166 173 181
166 173 181
166 173 181
166 173 181
166 173 181
166 173 181
166 172 181
166 172 181
166 172 181
165 172 181
165 172 181
165 172 181
165 172 181
165 172 181
165 172 181
165 172 181
165 172 181
165 172 181
165 172 181
165 172 181
165 172 181
165 172 181
165 172 181
165 172 181
165 172 181
165 172 181
165 172 181
165 172 181
165 172 181
165 172 181
165 172 181
165 172 181
165 172 181
165 172 181
165 172 181
165 172 181
165 172 181
165 172 181
164 172 181
164 172 181
164 172 181
164 172 181
164 172 181
164 172 181
164 172 181
164 172 181
164 172 181
164 172 181
164 172 181
164 172 181
164 172 181
164 172 181
164 172 181
164 172 181
164 172 181
164 172 181
164 172 181
164 172 181
164 172 181
164 172 181
164 172 181
164 172 181
164 172 181
164 172 181
164 172 181
164 172 181
164 172 181
164 172 181
164 172 181
164 172 181
164 172 181
164 172 181
164 172 181
164 172 181
164 172 181
164 172 181
164 172 181
164 172 181
164 172 181
164 172 181
164 172 181
164 172 181
164 172 181
164 171 181
164 171 181
164 171 181
164 171 181
164 171 181
164 171 181
164 171 181
164 171 181
164 171 181
164 171 181
164 171 181
164 171 181
164 171 181
164 171 181
164 171 181
164 171 181
164 171 181
164 171 181
164 171 181
164 171 181
164 171 181
164 171 181
164 171 181
164 171 181
163 171 181
164 171 181
164 171 181
164 171 181
164 171 181
164 171 181
164 171 181
164 171 181
164 171 181
164 171 181
164 171 181
164 171 181
164 171 181
164 171 181
164 171 181
164 171 181
164 172 181
164 172 181
164 172 181
164 172 181
164 172 181
164 172 181
164 172 181
164 172 181
164 172 181
164 172 181
164 172 181
164 172 181
164 172 181
164 172 181
164 172 181
164 172 181
164 172 181
164 172 181
164 172 181
164 172 181
164 172 181
164 172 181
164 172 181
164 172 181
164 172 181
164 172 181
164 172 181
164 172 181
164 172 181
164 172 181
164 172 181
164 172 181
164 172 181
164 172 181
164 172 181
164 172 181
164 172 181
164 172 181
164 172 181
164 172 181
164 172 181
164 172 181
164 172 181
164 172 181
164 172 181
164 172 181
164 172 181
165 172 181
165 172 181
165 172 181
165 172 181
165 172 181
165 172 181
165 172 181
165 172 181
165 172 181
165 172 181
165 172 181
165 172 181
165 172 181
165 172 181
165 172 181
165 172 181
165 172 181
165 172 181
165 172 181
165 172 181
165 172 181
165 172 181
165 172 181
165 172 181
165 172 181
165 172 181
165 172 181
166 172 181
166 172 181
166 172 181
166 172 181
166 173 181
166 173 181
166 173 181
166 173 181
166 173 181
166 173 181
166 173 181
166 173 181
166 173 181
166 173 181
166 173 181
166 173 181
166 173 181
166 173 181
166 173 181
166 173 181
167 173 181
167 173 181
167 173 181
167 173 181
167 173 181
167 173 181
167 173 181
167 173 181
167 173 181
167 173 181
167 173 181
167 173 181
167 173 181
167 173 181
167 173 181
167 173 181
167 173 181
167 173 181
168 173 181
168 173 181
168 173 181
168 174 181
168 174 181
168 174 181
168 174 181
168 174 181
168 174 181
168 174 181
168 174 181
168 174 181
168 174 181
168 174 181
169 174 181
169 174 181
169 174 181
169 174 181
169 174 181
169 174 181
169 174 181
169 174 181
169 174 181
169 174 181
169 174 181
169 174 181
169 174 181
170 174 181
170 174 181
170 174 181
170 175 181
170 175 181
170 175 181
170 175 181
170 175 181
170 175 181
170 175 181
170 175 181
170 175 181
171 175 181
171 175 181
171 175 181
171 175 181
171 175 181
171 175 181
171 175 181
171 175 181
171 175 181
171 175 181
171 175 181
172 175 181
172 176 181
172 176 181
172 176 181
172 176 181
172 176 181
172 176 181
172 176 181
172 176 181
173 176 181
173 176 181
173 176 181
173 176 181
173 176 181
173 176 181
173 176 181
173 176 181
173 176 181
174 176 181
174 177 181
174 177 181
174 177 181
174 177 181
174 177 181
174 177 181
174 177 181
175 177 181
175 177 181
175 177 181
175 177 181
175 177 181
175 177 181
175 177 181
176 177 181
176 178 181
176 178 181
176 178 181
176 178 181
176 178 181
176 178 181
177 178 181
177 178 181
177 178 181
177 178 181
177 178 181
177 178 181
178 178 181
178 179 181
178 179 181
178 179 181
178 179 181
178 179 181
179 179 181
179 179 181
179 179 181
179 179 181
180 179 181
180 180 181
180 180 181
180 180 181
180 180 181
181 180 181
181 180 181
181 180 181
181 180 181
182 181 181
182 181 181
182 181 181
183 181 181
183 181 181
183 181 181
184 182 181
184 182 181
185 182 181
177 177 180
126 147 180
107 130 143
112 132 125
113 133 130
117 133 109
105 122 108
119 129 80
122 129 77
124 130 70
125 130 59
125 128 50
129 130 33
123 123 24
130 131 25
132 133 26
126 127 24
131 131 25
132 132 25
133 133 26
133 134 25
129 129 25
133 132 25
133 133 26
130 130 25
128 129 25
130 131 25
131 132 25
133 133 25
135 135 26
133 132 25
134 132 34
127 127 48
130 127 53
129 126 78
136 135 88
133 132 105
137 140 123
133 134 124
135 139 133
136 142 144
137 145 153
138 149 165
138 151 168
137 153 173
137 153 176
138 156 180
136 156 180
138 157 181
137 156 181
137 156 181
137 156 180
138 156 181
138 156 181
139 157 181
138 156 181
138 156 181
136 156 181
137 156 181
137 155 180
138 156 181
139 157 181
138 156 181
137 156 181
138 156 181
137 156 181
137 156 181
138 156 181
138 156 180
138 156 180
138 156 181
139 157 181
138 156 181
137 156 181
137 156 180
138 156 181
138 156 180
138 156 181
137 156 181
139 157 181
139 157 181
138 156 181
140 157 181
137 154 178
135 153 179
135 152 179
133 148 175
130 145 175
122 134 169
117 125 165
116 123 165
108 113 157
105 107 157
103 105 154
101 99 156
94 86 153
85 74 146
86 70 149
81 65 143
79 60 145
79 60 143
80 61 145
80 61 147
78 60 143
82 64 146
92 78 151
94 82 152
95 82 155
100 93 150
97 85 154
101 93 157
128 127 169
114 109 163
115 111 163
129 130 170
122 120 171
126 127 165
126 126 170
122 123 166
128 131 173
138 141 174
139 142 179
124 124 169
141 146 178
136 140 176
140 146 172
132 134 169
109 103 148
119 120 153
120 122 144
109 109 134
105 103 126
101 99 122
98 94 117
83 74 104
70 59 94
64 51 76
64 48 66
56 37 52
48 22 45
45 20 39
45 20 39
45 20 40
47 21 41
46 20 40
51 37 52
57 51 62
58 55 64
58 60 66
67 74 80
69 85 86
75 101 100
80 105 105
85 112 113
79 113 107
83 118 113
78 112 107
81 122 115
80 119 115
90 130 131
91 131 133
97 136 142
84 128 125
98 136 147
109 144 163
105 143 160
107 139 161
120 147 181
121 151 180
128 153 192
139 161 209
133 155 204
130 149 196
130 149 197
135 154 204
136 156 206
136 156 207
132 151 203
130 150 198
137 158 210
135 153 206
133 152 205
133 151 200
138 155 206
134 149 199
148 164 214
148 161 210
139 154 205
145 158 205
149 162 211
145 157 208
156 168 217
160 171 220
156 168 216
157 169 218
156 168 216
153 166 216
159 171 221
159 172 223
157 170 220
160 173 223
158 171 222
163 177 229
159 172 224
157 170 220
160 174 225
157 171 220
162 176 227
156 171 223
157 172 223
160 174 226
158 174 227
155 169 218
158 173 226
159 173 225
160 174 226
152 166 218
156 170 222
153 167 217
155 168 219
155 167 217
155 168 215
153 167 209
150 164 203
149 164 196
147 162 193
143 159 186
144 160 183
140 156 177
141 158 178
134 152 164
130 151 152
122 146 140
124 146 140
119 140 131
119 142 132
122 146 131
120 142 128
118 140 126
121 143 128
121 144 128
122 144 130
123 145 128
122 145 131
124 146 132
124 147 132
122 144 128
123 145 131
121 144 131
121 143 129
124 146 128
125 147 131
126 148 132
118 141 127
127 149 134
120 145 129
118 142 132
122 146 134
114 138 135
118 142 139
113 138 140
117 143 145
112 138 143
109 138 150
110 138 149
105 134 155
96 127 154
106 136 159
93 124 152
97 128 155
92 126 159
90 123 161
84 119 160
82 116 156
83 117 159
81 115 161
76 112 160
72 108 155
68 105 157
72 111 160
68 105 155
67 104 161
70 107 159
69 106 158
65 101 159
67 103 159
66 102 163
62 98 157
61 96 159
61 95 158
56 89 159
56 89 155
55 88 160
51 83 160
48 80 162
44 76 162
41 71 154
40 69 158
