P3
1600 1
255
123 166 150
125 169 150
125 167 150
122 166 145
121 172 141
120 167 139
119 170 135
120 174 137
118 173 132
117 174 127
116 172 128
117 177 127
116 176 125
120 181 130
117 179 127
117 178 124
117 178 126
117 176 125
116 175 127
117 176 128
117 177 126
118 175 128
120 177 133
116 168 135
118 171 130
118 169 138
126 168 150
122 162 150
123 163 151
120 158 153
124 161 154
123 156 157
122 155 159
123 154 159
123 150 164
132 156 171
129 154 169
129 152 171
131 153 174
132 154 174
134 154 177
137 155 179
134 152 178
137 156 181
137 155 180
137 155 180
138 156 180
139 157 181
139 157 181
137 156 181
137 156 181
138 156 181
138 156 181
137 156 181
138 157 181
138 156 180
137 156 181
138 157 181
138 156 181
137 156 181
139 157 181
138 156 181
138 157 181
137 156 181
137 156 181
137 156 181
138 156 181
138 156 181
137 156 181
137 156 181
140 157 181
138 156 181
138 156 181
139 157 181
138 156 181
138 156 181
137 156 181
137 156 181
137 156 181
139 157 181
138 156 181
138 157 181
138 156 181
138 156 181
137 155 180
138 156 181
139 157 181
138 156 181
137 156 181
138 156 181
137 156 180
136 156 181
138 156 181
139 157 181
139 157 181
137 155 180
139 157 181
139 157 181
137 156 181
137 156 181
138 157 181
137 156 181
136 156 181
136 155 180
138 157 181
138 156 181
137 156 181
138 156 181
137 156 181
138 156 181
138 156 181
137 156 181
137 156 181
138 156 181
138 156 180
139 157 181
138 156 181
138 156 181
138 156 181
139 157 181
138 156 181
138 156 181
138 156 181
136 155 180
138 156 181
137 156 181
137 156 181
137 156 181
137 156 181
138 156 181
138 157 181
136 155 179
136 156 181
137 156 181
138 156 181
138 156 181
138 156 181
138 156 181
138 157 181
138 157 181
138 157 181
137 156 181
138 157 181
136 155 181
137 156 181
137 156 180
138 156 181
137 156 181
138 156 181
137 156 181
139 157 181
138 156 181
137 156 181
138 156 181
138 156 181
138 156 181
138 156 181
138 156 181
136 156 181
137 156 180
137 156 180
138 157 175
136 156 170
137 157 174
137 157 173
137 157 168
134 157 160
135 156 161
133 156 159
127 154 143
129 156 146
129 155 146
123 152 128
124 153 140
118 154 128
118 158 112
115 157 108
111 156 112
105 153 95
109 153 103
85 151 74
91 153 77
100 151 79
90 151 72
95 152 75
82 153 69
90 151 71
77 154 65
75 149 64
83 152 69
86 154 70
73 151 63
66 145 59
69 152 61
63 147 58
64 152 59
58 145 55
52 151 54
42 149 50
39 146 48
37 140 46
40 149 49
52 144 66
47 146 59
59 147 75
70 146 89
67 149 87
82 146 106
82 152 107
95 150 123
100 150 131
110 154 144
109 149 143
118 151 153
117 154 154
128 155 166
128 153 166
135 157 175
138 157 181
137 157 179
138 156 181
138 156 181
138 157 181
138 157 181
137 156 181
138 156 181
137 156 181
136 155 179
138 156 180
137 156 181
138 156 181
137 156 181
137 155 179
136 157 178
136 157 177
134 158 172
131 157 167
132 159 165
129 162 158
128 157 160
130 164 158
124 161 147
126 167 148
123 166 142
121 166 139
122 167 140
119 165 135
120 168 133
120 170 130
117 167 127
117 170 125
118 171 126
118 171 127
116 169 120
115 171 121
116 168 123
114 173 116
114 169 117
119 175 124
119 172 128
117 170 125
119 170 129
121 170 132
121 168 135
129 173 147
128 168 152
129 172 151
134 172 162
143 174 182
146 174 187
148 173 193
151 171 200
155 174 207
158 176 213
156 175 212
157 172 219
160 173 225
164 174 232
165 173 236
165 172 237
168 174 240
168 174 241
169 174 241
169 174 241
170 174 241
171 175 241
171 175 241
173 176 241
173 176 241
174 176 240
173 175 238
173 174 236
175 177 237
169 173 228
172 175 230
171 173 226
165 171 219
167 171 219
159 167 208
161 167 211
161 168 208
150 163 198
151 162 197
146 159 191
144 159 188
143 159 185
138 156 181
139 157 182
139 157 181
137 156 181
138 156 181
138 156 181
138 156 181
136 155 181
138 156 181
138 156 181
138 156 181
136 155 181
139 157 181
139 157 181
138 156 181
138 156 181
137 156 181
139 157 181
137 156 181
138 156 181
137 156 181
139 157 181
137 156 181
138 156 180
136 155 180
137 156 181
137 156 180
137 156 181
137 156 181
137 155 180
137 156 181
138 156 181
137 156 181
137 156 181
138 156 181
137 156 181
138 156 181
138 156 181
136 155 180
135 155 181
138 156 181
138 156 180
138 156 181
138 156 181
139 157 181
138 156 180
137 156 181
137 156 181
137 156 181
138 156 180
137 155 180
138 156 181
138 156 181
137 156 181
138 156 181
138 156 180
138 156 181
137 156 181
137 156 181
138 157 181
138 156 181
137 156 180
138 156 181
138 157 181
138 157 181
138 156 181
137 156 181
137 156 181
137 156 181
138 156 181
138 156 181
138 157 181
139 157 181
138 156 181
139 157 181
138 156 181
137 156 181
138 156 181
137 155 180
138 157 181
140 157 181
137 156 181
137 156 181
138 156 180
137 156 181
137 156 180
139 157 181
139 157 181
136 155 181
138 156 181
138 157 181
137 156 180
137 155 178
139 158 182
144 165 188
138 160 182
145 168 191
145 168 191
150 177 200
146 172 195
154 188 213
154 189 213
148 182 206
151 184 209
151 193 220
157 201 226
159 203 232
158 204 232
161 209 238
161 207 237
159 207 238
157 208 239
157 208 241
157 210 242
160 214 247
158 211 244
159 213 246
159 212 245
157 211 245
156 210 244
158 210 243
160 214 248
156 209 242
159 209 241
160 209 241
159 207 237
160 207 240
158 204 231
161 205 235
159 204 235
154 192 223
156 193 222
161 196 222
163 196 220
164 198 219
164 196 218
166 198 217
167 197 212
174 205 214
168 198 210
173 205 212
174 206 213
179 211 214
183 215 216
182 216 216
182 215 215
178 213 213
178 214 216
176 211 214
178 214 218
174 210 214
174 210 214
176 214 218
175 213 219
175 214 219
176 213 218
177 215 220
178 216 220
176 214 219
176 213 216
178 216 220
178 215 218
179 215 218
181 217 220
179 215 219
178 214 218
180 216 219
178 212 215
179 212 215
177 210 214
175 206 210
174 204 209
168 196 203
161 188 199
172 200 205
162 188 198
153 176 191
149 170 187
144 166 186
151 172 188
143 163 184
136 155 179
137 154 178
137 155 179
135 153 178
133 151 178
134 153 179
134 152 179
135 152 178
134 152 178
136 154 179
137 156 180
135 154 179
137 156 181
137 156 180
138 156 181
137 156 181
137 156 181
138 156 181
138 157 181
139 157 181
136 155 178
134 153 174
133 152 172
129 149 166
130 150 167
128 148 161
121 144 149
120 142 149
112 138 134
112 138 133
104 131 117
93 121 96
103 125 112
100 115 94
95 112 86
98 110 84
98 99 77
100 93 73
101 93 65
93 83 57
97 79 60
97 77 60
93 74 59
99 78 62
99 79 62
99 77 60
102 80 63
102 81 64
97 77 61
96 77 60
95 77 60
101 80 63
100 80 63
99 80 62
98 78 61
102 81 63
98 79 62
101 80 63
96 77 60
100 79 62
99 79 62
97 78 61
99 79 61
104 83 64
100 81 62
94 77 59
96 77 60
103 81 64
99 79 63
99 78 61
92 75 57
108 86 67
102 81 64
102 82 64
100 81 63
101 80 63
100 79 62
99 80 62
102 81 64
107 86 67
102 80 63
89 73 56
103 82 64
101 81 63
98 77 60
96 78 60
98 79 62
96 78 60
93 75 58
104 82 64
100 80 64
97 79 60
101 81 63
103 82 64
107 84 67
98 78 60
98 78 61
95 75 59
102 81 63
102 81 63
97 77 60
102 81 63
101 81 64
104 83 64
103 81 64
101 80 63
100 80 63
100 80 62
100 79 62
94 77 60
98 79 61
99 80 62
101 80 62
103 81 64
107 84 67
107 85 66
101 80 62
101 79 62
111 92 79
109 96 89
121 117 120
137 139 148
141 153 163
158 172 191
162 178 199
162 179 201
163 178 199
143 161 182
151 170 190
135 162 171
140 164 167
141 169 175
135 162 175
129 156 165
129 156 167
124 157 168
115 154 160
130 172 175
135 174 181
147 182 190
149 175 182
141 164 170
134 156 160
113 140 135
111 135 131
117 132 131
105 111 118
100 111 121
118 128 144
117 133 148
101 119 125
122 143 147
121 143 142
111 133 128
109 132 135
114 135 147
108 126 150
94 107 141
108 109 138
96 86 120
110 94 136
107 87 147
100 85 163
113 114 181
130 141 200
141 157 201
155 173 198
159 180 192
150 169 186
156 176 186
137 154 176
124 138 166
121 132 163
111 118 153
115 129 156
106 131 134
103 133 124
111 147 121
111 152 118
112 150 119
102 146 105
107 143 122
97 127 124
88 108 130
88 95 143
80 74 147
75 60 149
82 75 148
94 91 154
138 148 175
139 152 167
171 190 182
177 201 187
181 207 188
181 208 187
179 207 186
183 209 191
171 201 172
174 206 174
137 188 135
113 176 114
68 167 73
65 159 75
86 165 114
64 153 123
64 149 146
67 130 179
76 136 199
67 130 198
59 123 195
73 132 199
76 130 198
61 119 185
73 129 198
71 128 192
82 129 168
92 141 158
101 141 123
106 144 110
92 136 84
84 127 88
91 116 115
95 97 130
102 98 143
116 99 148
96 85 141
109 84 148
108 74 142
117 73 150
115 65 144
115 58 143
116 63 147
120 81 149
114 79 153
98 91 150
78 90 149
82 111 162
69 100 149
87 112 155
81 92 137
88 90 135
93 89 123
81 68 107
69 48 98
85 73 112
74 66 97
80 85 97
76 95 79
96 117 101
90 111 95
78 87 124
88 86 157
100 80 200
92 52 210
98 69 202
91 50 213
102 71 215
98 67 208
101 69 215
93 57 209
95 64 204
97 63 211
101 69 214
96 61 208
83 24 209
98 78 196
116 106 204
121 127 194
132 143 198
139 151 209
149 162 232
153 167 242
158 172 242
153 166 238
156 170 237
157 170 235
148 161 225
153 166 224
151 165 209
146 163 195
143 160 189
142 160 183
139 156 178
139 157 180
141 159 182
142 159 182
134 148 169
132 142 160
118 120 134
94 80 90
101 85 96
97 81 91
90 73 84
90 72 83
102 87 99
90 70 79
101 88 99
92 75 85
100 89 101
104 104 107
142 144 133
178 176 174
184 182 181
184 182 181
183 181 181
183 181 181
183 181 181
182 181 181
182 181 181
182 181 181
181 181 181
181 180 181
181 180 181
181 180 181
181 180 181
180 180 181
180 180 181
180 180 181
180 180 181
179 179 181
179 179 181
179 179 181
179 179 181
179 179 181
179 179 181
178 179 181
178 179 181
178 179 181
178 179 181
178 179 181
177 178 181
177 178 181
177 178 181
177 178 181
177 178 181
177 178 181
177 178 181
176 178 181
176 178 181
176 178 181
176 178 181
176 178 181
176 178 181
176 177 181
175 177 181
175 177 181
175 177 181
175 177 181
175 177 181
175 177 181
175 177 181
175 177 181
174 177 181
174 177 181
174 177 181
174 177 181
174 177 181
174 177 181
174 177 181
174 176 181
173 176 181
173 176 181
173 176 181
173 176 181
173 176 181
173 176 181
173 176 181
173 176 181
173 176 181
173 176 181
172 176 181
172 176 181
172 176 181
172 176 181
172 176 181
172 176 181
172 176 181
172 176 181
172 175 181
172 175 181
171 175 181
171 175 181
171 175 181
171 175 181
171 175 181
171 175 181
171 175 181
171 175 181
171 175 181
171 175 181
171 175 181
170 175 181
170 175 181
170 175 181
170 175 181
170 175 181
170 175 181
170 175 181
170 175 181
170 175 181
170 175 181
170 174 181
170 174 181
169 174 181
169 174 181
169 174 181
169 174 181
169 174 181
169 174 181
169 174 181
169 174 181
169 174 181
169 174 181
169 174 181
169 174 181
169 174 181
169 174 181
168 174 181
168 174 181
168 174 181
168 174 181
168 174 181
168 174 181
168 174 181
168 174 181
168 174 181
168 174 181
168 174 181
168 174 181
168 174 181
168 173 181
168 173 181
168 173 181
167 173 181
167 173 181
167 173 181
167 173 181
167 173 181
167 173 181
167 173 181
167 173 181
167 173 181
167 173 181
167 173 181
167 173 181
167 173 181
167 173 181
167 173 181
167 173 181
167 173 181
167 173 181
166 173 181
166 173 181
166 173 181
166 173 181
166 173 181
166 173 181
166 173 181
166 173 181
166 173 181
166 173 181
166 173 181
166 173 181
166 173 181
166 173 181
166 173 181
166 173 181
166 173 181
166 173 181
166 173 181
166 173 181
166 172 181
166 172 181
166 172 181
166 172 181
165 172 181
165 172 181
165 172 181
165 172 181
165 172 181
165 172 181
165 172 181
165 172 181
165 172 181
165 172 181
165 172 181
165 172 181
165 172 181
165 172 181
165 172 181
165 172 181
165 172 181
165 172 181
165 172 181
165 172 181
165 172 181
165 172 181
165 172 181
165 172 181
165 172 181
165 172 181
165 172 181
165 172 181
165 172 181
165 172 181
165 172 181
165 172 181
165 172 181
165 172 181
164 172 181
164 172 181
164 172 181
164 172 181
164 172 181
164 172 181
164 172 181
164 172 181
164 172 181
164 172 181
164 172 181
164 172 181
164 172 181
164 172 181
164 172 181
164 172 181
164 172 181
164 172 181
164 172 181
164 172 181
164 172 181
164 172 181
164 172 181
164 172 181
164 172 181
164 172 181
164 172 181
164 172 181
164 172 181
164 172 181
164 172 181
164 172 181
164 172 181
164 172 181
164 172 181
164 172 181
164 172 181
164 172 181
164 172 181
164 172 181
164 172 181
164 172 181
164 172 181
164 172 181
164 172 181
164 172 181
164 172 181
164 172 181
164 172 181
164 172 181
164 172 181
164 172 181
164 172 181
164 172 181
164 172 181
164 172 181
164 172 181
164 172 181
164 172 181
164 172 181
164 172 181
164 172 181
164 172 181
164 172 181
164 172 181
164 172 181
164 172 181
164 172 181
164 172 181
164 172 181
164 172 181
164 172 181
164 172 181
164 172 181
164 172 181
164 172 181
164 172 181
164 172 181
164 172 181
164 172 181
164 172 181
164 172 181
164 172 181
164 172 181
164 172 181
164 172 181
164 172 181
164 172 181
164 172 181
164 172 181
164 172 181
164 172 181
164 172 181
164 172 181
164 172 181
164 172 181
164 172 181
164 172 181
164 172 181
164 172 181
164 172 181
164 172 181
165 172 181
165 172 181
165 172 181
165 172 181
165 172 181
165 172 181
165 172 181
165 172 181
165 172 181
165 172 181
165 172 181
165 172 181
165 172 181
165 172 181
165 172 181
165 172 181
165 172 181
165 172 181
165 172 181
165 172 181
165 172 181
165 172 181
165 172 181
165 172 181
165 172 181
165 172 181
165 172 181
165 172 181
165 172 181
165 172 181
165 172 181
165 172 181
166 172 181
166 172 181
166 172 181
166 172 181
166 172 181
166 172 181
166 173 181
166 173 181
166 173 181
166 173 181
166 173 181
166 173 181
166 173 181
166 173 181
166 173 181
166 173 181
166 173 181
166 173 181
166 173 181
166 173 181
166 173 181
166 173 181
166 173 181
166 173 181
167 173 181
167 173 181
167 173 181
167 173 181
167 173 181
167 173 181
167 173 181
167 173 181
167 173 181
167 173 181
167 173 181
167 173 181
167 173 181
167 173 181
167 173 181
167 173 181
167 173 181
167 173 181
168 173 181
168 173 181
168 173 181
168 173 181
168 174 181
168 174 181
168 174 181
168 174 181
168 174 181
168 174 181
168 174 181
168 174 181
168 174 181
168 174 181
168 174 181
168 174 181
169 174 181
169 174 181
169 174 181
169 174 181
169 174 181
169 174 181
169 174 181
169 174 181
169 174 181
169 174 181
169 174 181
169 174 181
169 174 181
169 174 181
170 174 181
170 174 181
170 175 181
170 175 181
170 175 181
170 175 181
170 175 181
170 175 181
170 175 181
170 175 181
170 175 181
170 175 181
171 175 181
171 175 181
171 175 181
171 175 181
171 175 181
171 175 181
171 175 181
171 175 181
171 175 181
171 175 181
171 175 181
172 175 181
172 175 181
172 176 181
172 176 181
172 176 181
172 176 181
172 176 181
172 176 181
172 176 181
172 176 181
173 176 181
173 176 181
173 176 181
173 176 181
173 176 181
173 176 181
173 176 181
173 176 181
173 176 181
174 176 181
174 176 181
174 177 181
174 177 181
174 177 181
174 177 181
174 177 181
174 177 181
174 177 181
175 177 181
175 177 181
175 177 181
175 177 181
175 177 181
175 177 181
175 177 181
176 177 181
176 178 181
176 178 181
176 178 181
176 178 181
176 178 181
176 178 181
177 178 181
177 178 181
177 178 181
177 178 181
177 178 181
177 178 181
177 178 181
178 179 181
178 179 181
178 179 181
178 179 181
178 179 181
179 179 181
179 179 181
179 179 181
179 179 181
179 179 181
180 179 181
180 180 181
180 180 181
180 180 181
180 180 181
181 180 181
181 180 181
181 180 181
181 180 181
182 181 181
182 181 181
182 181 181
183 181 181
183 181 181
183 181 181
184 182 181
184 182 181
184 182 181
185 182 181
164 168 181
127 145 167
106 135 143
100 127 135
112 132 122
107 130 133
110 131 123
114 131 115
121 131 88
120 127 75
114 121 67
129 133 56
127 128 33
125 126 30
130 131 25
127 128 25
128 128 25
132 132 26
127 126 24
129 129 25
127 128 25
123 123 24
128 128 24
128 128 25
134 134 26
135 135 26
128 128 25
131 130 25
126 126 24
131 131 25
133 133 31
124 124 35
137 136 70
126 128 70
135 135 87
135 137 103
133 137 111
132 134 115
132 139 135
136 147 148
135 144 150
138 148 159
137 152 170
138 150 170
138 155 177
135 155 180
138 156 181
138 156 181
138 156 181
136 155 179
139 157 181
137 156 181
137 156 181
137 156 181
137 156 180
137 156 181
138 157 181
139 157 181
138 156 181
138 156 181
138 156 181
137 156 181
137 156 181
138 157 181
138 156 181
138 156 180
138 156 181
139 157 181
138 156 181
138 156 181
137 156 180
138 156 181
138 156 180
137 156 181
138 156 181
139 157 181
139 157 181
139 157 181
139 157 181
138 156 180
138 156 181
138 156 179
136 153 178
136 153 179
132 148 177
129 143 172
124 137 169
120 131 168
116 124 164
112 118 161
111 118 160
106 106 160
102 102 153
87 79 143
90 80 151
87 78 146
80 65 141
76 57 136
81 61 146
77 57 135
77 56 134
87 69 146
85 68 137
90 71 145
99 87 146
97 85 147
102 93 156
123 116 156
103 91 148
116 109 154
139 142 174
122 118 166
128 127 164
141 145 176
137 140 173
136 141 176
148 155 181
146 155 182
141 149 181
144 152 182
151 159 185
145 154 181
145 152 179
145 152 181
147 155 182
135 141 170
134 140 167
135 141 165
122 126 150
124 128 148
114 116 136
125 129 147
106 107 124
111 113 122
87 80 103
95 92 107
88 84 95
82 75 87
57 43 58
50 29 45
52 30 46
44 19 39
46 29 45
54 40 55
56 50 63
73 75 88
71 78 87
68 75 83
73 83 92
84 99 107
83 102 109
89 112 117
78 103 103
85 116 115
89 120 121
89 125 122
91 126 126
93 130 131
97 132 137
94 130 136
88 122 130
96 133 144
97 131 144
104 137 155
107 136 162
108 140 163
115 142 174
117 145 180
129 152 193
127 149 192
132 152 200
132 151 199
135 155 204
127 146 193
132 151 198
136 156 207
127 147 197
131 150 199
129 148 198
129 146 196
126 142 191
130 149 199
134 150 199
135 149 198
138 153 200
140 156 206
141 152 200
144 157 203
142 154 202
146 155 202
145 155 203
151 162 210
152 163 211
146 154 201
146 155 202
152 162 210
148 158 206
150 161 208
149 161 208
152 163 210
156 169 219
152 165 214
154 166 214
157 170 218
156 169 218
155 169 218
152 166 215
152 165 213
153 168 218
146 160 208
155 170 220
150 164 213
152 165 216
148 161 212
146 160 210
156 169 219
145 157 208
149 162 212
152 164 213
147 160 206
149 161 209
148 162 203
138 151 194
148 161 199
147 161 194
137 151 178
137 154 179
141 157 179
139 156 175
134 152 166
125 145 155
127 147 151
128 148 150
125 145 141
123 145 138
126 147 140
119 141 132
123 144 133
122 143 130
119 143 129
122 144 129
123 146 132
123 145 130
123 144 129
119 141 125
120 142 126
122 144 129
124 145 130
120 142 126
123 144 128
124 145 129
119 141 124
120 143 129
116 140 128
116 140 136
116 140 133
112 137 137
108 135 141
106 133 139
100 128 139
105 134 149
103 131 144
99 129 147
95 126 147
95 125 148
92 123 152
92 126 156
88 121 153
84 119 154
87 121 158
83 120 158
80 118 158
81 118 159
75 113 154
74 113 155
73 110 153
75 114 157
74 113 157
75 113 156
76 115 156
72 111 153
74 113 157
73 110 155
71 108 157
69 107 155
68 106 157
68 105 156
65 100 156
63 98 154
62 97 158
56 89 158
55 89 161
58 92 162
54 87 161
53 85 159
46 78 162
46 77 158
