P3
1600 1
255
117 167 134
115 171 128
111 167 121
109 169 118
108 164 116
114 174 120
114 176 122
110 171 118
110 169 116
113 173 118
110 168 116
109 167 115
112 172 119
114 174 120
110 170 117
110 167 116
108 165 117
110 167 123
107 163 123
100 149 129
109 164 121
105 158 127
104 155 127
101 150 130
98 144 126
99 146 129
96 139 132
100 144 135
100 144 132
98 138 139
97 134 140
92 122 141
104 135 146
103 133 145
105 129 154
102 126 154
100 120 154
110 134 160
103 120 158
113 132 164
114 132 164
115 132 167
115 132 167
121 138 170
115 132 167
119 135 167
125 142 172
129 147 176
125 143 173
130 147 175
129 146 174
131 149 176
133 151 177
137 155 180
138 156 180
138 156 180
137 156 181
138 157 181
139 157 181
138 157 181
136 155 181
137 156 181
138 156 181
138 156 181
138 157 181
137 156 181
138 156 181
140 157 181
138 156 181
139 157 181
138 157 181
138 156 181
137 156 181
137 156 181
138 156 181
138 156 181
138 156 181
138 156 181
137 155 180
138 156 181
138 156 180
137 155 180
138 156 181
137 156 180
138 156 181
138 156 181
138 156 181
136 155 180
137 156 180
137 156 181
140 157 181
137 155 180
138 157 181
138 156 180
138 157 181
137 156 181
137 156 181
138 156 181
137 156 181
136 155 180
139 157 181
137 156 181
138 156 181
138 156 181
138 156 181
137 156 181
138 157 181
138 156 181
137 156 181
139 157 181
137 155 180
137 156 180
139 157 181
138 156 181
138 156 181
137 156 181
139 157 181
138 156 181
137 155 180
138 156 180
137 156 181
137 156 181
136 156 181
139 153 177
140 151 174
140 151 174
141 149 170
140 149 170
144 139 158
141 149 170
147 140 159
146 141 161
147 142 161
143 140 159
150 135 150
147 140 158
147 144 162
146 137 155
145 144 163
149 133 148
143 138 157
147 140 158
149 139 157
144 147 168
143 147 168
144 145 165
145 146 166
142 151 173
141 151 173
139 152 175
139 155 179
141 152 175
138 155 179
137 156 181
137 156 181
137 156 179
137 156 179
137 156 171
136 156 167
137 156 168
136 156 164
134 153 162
134 156 152
133 154 148
134 156 152
131 154 134
130 154 137
130 154 120
127 151 125
132 155 136
126 152 115
124 152 107
125 153 107
127 155 107
128 156 106
120 152 92
124 156 92
124 153 93
120 154 88
126 156 92
123 152 89
121 151 88
116 149 85
120 151 87
116 148 86
118 152 86
116 148 84
114 152 85
108 151 82
106 149 80
99 146 76
104 149 78
100 152 76
94 149 73
84 143 68
91 146 71
79 146 66
77 144 63
82 149 66
61 140 55
55 142 53
41 138 47
49 142 50
41 136 46
38 142 47
39 146 48
40 142 49
54 141 69
57 143 72
58 141 74
81 146 105
90 148 117
90 143 118
100 147 130
108 149 140
111 148 145
117 150 155
125 153 164
130 152 172
131 154 171
136 155 178
137 156 181
138 156 181
138 156 181
137 156 181
137 156 181
137 156 181
137 156 181
137 156 181
139 157 180
137 157 176
134 158 173
133 157 172
131 157 164
130 160 162
127 159 153
125 161 152
123 163 144
122 166 142
120 163 137
116 165 127
119 169 130
114 166 118
112 167 115
115 172 115
110 166 108
110 171 106
109 168 103
109 170 104
108 166 101
111 170 104
107 166 101
107 166 101
106 163 100
105 159 97
106 164 101
109 170 104
108 168 103
107 164 104
109 170 106
104 162 102
103 160 106
99 153 105
103 159 109
99 153 110
103 159 111
101 154 115
101 144 124
118 156 153
113 148 151
120 152 162
125 160 163
120 148 161
130 155 180
128 153 177
131 145 193
140 155 199
144 157 203
151 159 216
157 165 221
154 161 219
160 164 224
157 160 225
161 163 228
169 170 234
174 175 239
171 173 237
177 177 240
176 176 240
177 177 239
180 179 241
179 178 241
179 178 239
181 179 240
179 178 236
179 176 234
177 176 229
177 176 231
172 173 221
170 171 220
166 169 214
162 167 207
160 166 206
163 168 208
153 163 199
152 163 197
143 158 186
142 156 184
139 157 182
139 157 181
137 156 181
139 157 181
137 156 181
138 157 181
137 156 181
139 157 181
137 156 181
138 156 180
136 155 180
137 156 181
136 155 180
137 156 181
137 156 181
136 156 180
137 156 181
138 156 181
137 156 181
136 155 181
138 156 181
137 156 181
138 156 181
138 156 181
136 155 180
135 155 180
138 156 181
138 156 180
138 156 181
138 156 181
139 157 181
138 156 180
137 156 181
137 156 181
137 156 181
138 156 180
137 155 180
138 156 181
138 156 181
137 156 181
138 156 181
138 156 180
138 156 180
137 156 181
137 156 181
138 157 181
138 156 181
136 155 180
138 157 181
138 157 181
139 157 181
137 156 180
137 156 181
137 156 181
137 156 181
138 156 181
138 156 181
138 157 181
139 157 181
138 156 181
139 157 181
138 156 181
137 156 181
138 156 181
137 155 180
138 157 181
139 157 181
137 155 180
137 156 180
138 156 180
137 156 181
137 156 181
139 157 181
139 157 181
136 155 181
138 156 181
138 156 181
137 156 180
139 156 180
137 156 181
138 156 181
138 157 181
137 156 180
137 156 181
136 155 180
139 157 181
138 156 181
136 156 181
138 157 180
140 159 183
146 169 191
143 169 191
144 168 191
148 174 198
149 179 201
148 178 202
150 184 207
152 190 214
157 196 220
158 199 224
162 206 232
161 208 234
168 215 241
163 214 243
166 217 246
164 217 246
165 219 250
166 219 250
163 218 250
163 218 250
162 217 250
161 216 250
160 216 250
161 216 250
161 216 250
159 213 249
160 212 249
159 213 249
159 209 248
157 204 246
156 206 247
155 200 245
155 201 245
155 200 245
155 198 244
155 197 243
154 195 243
153 195 241
154 192 237
153 189 238
153 189 232
153 185 230
149 181 226
153 183 225
155 184 225
161 192 223
155 183 214
160 187 212
163 191 214
161 189 213
160 187 207
157 185 202
163 192 202
160 189 201
168 198 206
166 195 208
169 202 209
164 196 198
165 196 198
164 194 198
162 193 196
161 192 195
159 190 192
164 194 194
164 196 197
159 190 191
166 199 199
159 190 192
163 194 199
155 185 188
169 199 201
162 190 197
152 179 186
148 173 184
158 186 194
153 179 193
146 171 184
152 176 189
149 172 187
146 169 186
146 169 186
149 172 188
133 152 178
125 142 169
125 143 169
124 140 170
124 139 170
120 135 166
118 132 166
117 130 164
120 135 167
112 125 162
116 130 163
116 130 165
119 133 167
118 132 164
121 137 168
120 136 168
125 140 170
127 143 172
130 147 175
132 149 176
129 146 171
130 148 176
134 151 176
134 152 179
134 152 177
134 153 173
132 152 169
131 151 169
127 148 160
120 142 150
120 142 148
113 137 137
112 138 134
107 132 124
100 128 110
92 122 92
88 119 85
85 118 74
81 115 68
84 115 62
73 108 39
78 105 30
82 101 37
81 97 38
88 96 45
87 89 49
85 87 48
91 84 55
93 80 59
98 77 61
95 76 60
99 77 61
100 79 62
102 80 63
99 79 62
99 78 61
93 74 57
94 75 59
100 81 63
98 78 61
100 79 62
100 81 64
100 81 63
94 77 60
92 75 58
95 77 60
97 78 61
103 81 64
97 77 61
97 78 61
95 76 59
96 78 61
99 80 63
100 80 62
94 75 59
98 79 62
105 84 65
102 81 64
98 76 61
93 75 58
99 79 61
102 81 63
98 79 61
99 80 62
96 78 60
94 77 59
97 76 60
100 79 61
95 76 59
104 81 65
102 82 63
95 76 59
102 82 64
101 80 62
96 78 60
100 78 61
94 76 59
94 75 58
93 73 57
93 76 59
99 79 61
96 78 60
98 78 61
90 72 56
99 79 62
93 75 59
99 78 61
95 77 60
101 79 62
100 81 62
97 77 60
97 78 60
102 80 63
103 82 64
104 82 64
101 80 62
102 81 63
96 76 59
94 75 59
99 78 61
105 82 64
102 80 64
107 85 66
97 78 60
91 73 57
107 88 74
113 101 95
126 122 123
154 164 170
157 171 182
183 197 212
178 196 205
194 211 226
192 207 224
199 213 229
194 208 227
194 210 231
193 207 230
193 209 229
206 219 241
192 208 227
188 205 223
204 221 239
196 213 232
184 202 222
184 200 221
177 198 217
183 197 216
180 191 209
172 182 197
172 179 195
151 152 176
162 163 187
162 170 196
140 152 183
141 157 190
136 157 188
153 174 198
146 166 190
145 167 190
130 155 180
124 155 185
113 149 184
109 140 186
87 115 162
77 108 144
96 120 142
106 125 123
129 151 144
151 172 170
154 171 179
167 182 206
164 179 208
161 176 212
146 160 202
142 156 203
137 153 200
132 144 191
124 131 183
113 117 174
96 89 150
92 82 144
91 90 140
92 110 155
90 119 139
104 134 152
105 144 155
110 145 149
114 138 150
118 134 166
112 114 163
113 108 176
104 94 181
86 68 173
96 83 178
106 92 173
119 102 161
140 118 154
138 97 119
139 93 106
148 104 114
159 137 144
142 145 154
127 147 137
110 174 133
96 170 116
64 184 74
74 187 84
70 182 80
62 184 69
92 174 102
82 144 87
108 144 133
102 116 141
101 121 174
99 133 198
96 139 206
96 141 210
91 144 213
94 145 209
108 152 195
108 157 159
110 160 124
108 164 100
105 165 82
90 155 48
107 169 81
100 159 74
96 158 65
102 160 79
109 145 101
121 146 124
133 142 140
132 118 148
121 105 146
126 120 166
114 108 168
104 102 174
94 110 179
94 119 178
76 118 181
77 120 183
81 119 178
80 121 180
97 128 176
108 127 170
107 109 155
104 94 145
98 79 136
95 67 133
80 38 122
85 61 124
89 73 121
84 79 110
90 104 105
85 116 82
99 128 97
88 119 81
93 125 91
84 115 76
97 125 103
94 114 126
94 109 141
87 87 160
100 99 173
101 96 180
93 80 186
87 75 179
97 88 184
90 91 156
89 94 145
92 102 132
77 91 111
85 99 117
103 118 138
118 134 156
137 153 175
140 158 182
143 161 185
144 161 184
144 161 184
145 162 184
142 160 183
139 157 179
141 159 182
145 162 185
142 160 184
138 157 181
146 163 187
140 157 181
146 164 187
142 156 176
134 140 152
128 128 132
120 113 108
119 115 112
122 114 110
111 104 105
108 96 96
100 84 88
110 93 104
102 84 94
106 88 102
103 85 100
107 106 116
108 117 114
162 161 160
185 182 181
184 182 181
184 182 181
183 182 181
183 181 181
183 181 181
183 181 181
182 181 181
182 181 181
182 181 181
181 181 181
181 180 181
181 180 181
181 180 181
181 180 181
180 180 181
180 180 181
180 180 181
180 180 181
180 180 181
179 179 181
179 179 181
179 179 181
179 179 181
179 179 181
179 179 181
178 179 181
178 179 181
178 179 181
178 179 181
178 179 181
178 179 181
178 178 181
177 178 181
177 178 181
177 178 181
177 178 181
177 178 181
177 178 181
177 178 181
176 178 181
176 178 181
176 178 181
176 178 181
176 178 181
176 178 181
176 177 181
175 177 181
175 177 181
175 177 181
175 177 181
175 177 181
175 177 181
175 177 181
175 177 181
175 177 181
174 177 181
174 177 181
174 177 181
174 177 181
174 177 181
174 177 181
174 177 181
174 177 181
174 176 181
173 176 181
173 176 181
173 176 181
173 176 181
173 176 181
173 176 181
173 176 181
173 176 181
173 176 181
173 176 181
173 176 181
172 176 181
172 176 181
172 176 181
172 176 181
172 176 181
172 176 181
172 176 181
172 176 181
172 176 181
172 175 181
172 175 181
171 175 181
171 175 181
171 175 181
171 175 181
171 175 181
171 175 181
171 175 181
171 175 181
171 175 181
171 175 181
171 175 181
171 175 181
171 175 181
170 175 181
170 175 181
170 175 181
170 175 181
170 175 181
170 175 181
170 175 181
170 175 181
170 175 181
170 175 181
170 175 181
170 174 181
170 174 181
170 174 181
169 174 181
169 174 181
169 174 181
169 174 181
169 174 181
169 174 181
169 174 181
169 174 181
169 174 181
169 174 181
169 174 181
169 174 181
169 174 181
169 174 181
169 174 181
169 174 181
168 174 181
168 174 181
168 174 181
168 174 181
168 174 181
168 174 181
168 174 181
168 174 181
168 174 181
168 174 181
168 174 181
168 174 181
168 174 181
168 174 181
168 174 181
168 173 181
168 173 181
168 173 181
168 173 181
167 173 181
167 173 181
167 173 181
167 173 181
167 173 181
167 173 181
167 173 181
167 173 181
167 173 181
167 173 181
167 173 181
167 173 181
167 173 181
167 173 181
167 173 181
167 173 181
167 173 181
167 173 181
167 173 181
167 173 181
167 173 181
167 173 181
167 173 181
166 173 181
166 173 181
166 173 181
166 173 181
166 173 181
166 173 181
166 173 181
166 173 181
166 173 181
166 173 181
166 173 181
166 173 181
166 173 181
166 173 181
166 173 181
166 173 181
166 173 181
166 173 181
166 173 181
166 173 181
166 173 181
166 173 181
166 173 181
166 173 181
166 173 181
166 173 181
166 173 181
166 172 181
166 173 181
166 172 181
166 172 181
166 172 181
166 172 181
166 172 181
166 172 181
165 172 181
165 172 181
165 172 181
165 172 181
165 172 181
165 172 181
165 172 181
165 172 181
165 172 181
165 172 181
165 172 181
165 172 181
165 172 181
165 172 181
165 172 181
165 172 181
165 172 181
165 172 181
165 172 181
165 172 181
165 172 181
165 172 181
165 172 181
165 172 181
165 172 181
165 172 181
165 172 181
165 172 181
165 172 181
165 172 181
165 172 181
165 172 181
165 172 181
165 172 181
165 172 181
165 172 181
165 172 181
165 172 181
165 172 181
165 172 181
165 172 181
165 172 181
165 172 181
165 172 181
165 172 181
165 172 181
165 172 181
165 172 181
165 172 181
165 172 181
165 172 181
165 172 181
165 172 181
165 172 181
165 172 181
165 172 181
165 172 181
165 172 181
165 172 181
165 172 181
165 172 181
165 172 181
165 172 181
165 172 181
165 172 181
165 172 181
165 172 181
165 172 181
165 172 181
165 172 181
165 172 181
165 172 181
165 172 181
165 172 181
165 172 181
165 172 181
165 172 181
165 172 181
165 172 181
165 172 181
165 172 181
165 172 181
165 172 181
165 172 181
165 172 181
165 172 181
165 172 181
165 172 181
165 172 181
165 172 181
165 172 181
165 172 181
165 172 181
165 172 181
165 172 181
165 172 181
165 172 181
165 172 181
165 172 181
165 172 181
165 172 181
165 172 181
165 172 181
165 172 181
165 172 181
166 172 181
166 172 181
166 172 181
166 172 181
166 172 181
166 172 181
166 172 181
166 173 181
166 173 181
166 173 181
166 173 181
166 173 181
166 173 181
166 173 181
166 173 181
166 173 181
166 173 181
166 173 181
166 173 181
166 173 181
166 173 181
166 173 181
166 173 181
166 173 181
166 173 181
166 173 181
166 173 181
166 173 181
166 173 181
166 173 181
166 173 181
166 173 181
166 173 181
166 173 181
167 173 181
167 173 181
167 173 181
167 173 181
167 173 181
167 173 181
167 173 181
167 173 181
167 173 181
167 173 181
167 173 181
167 173 181
167 173 181
167 173 181
167 173 181
167 173 181
167 173 181
167 173 181
167 173 181
167 173 181
167 173 181
167 173 181
167 173 181
167 173 181
168 173 181
168 173 181
168 173 181
168 174 181
168 174 181
168 174 181
168 174 181
168 174 181
168 174 181
168 174 181
168 174 181
168 174 181
168 174 181
168 174 181
168 174 181
168 174 181
168 174 181
168 174 181
168 174 181
169 174 181
169 174 181
169 174 181
169 174 181
169 174 181
169 174 181
169 174 181
169 174 181
169 174 181
169 174 181
169 174 181
169 174 181
169 174 181
169 174 181
169 174 181
169 174 181
170 174 181
170 174 181
170 175 181
170 175 181
170 175 181
170 175 181
170 175 181
170 175 181
170 175 181
170 175 181
170 175 181
170 175 181
170 175 181
170 175 181
171 175 181
171 175 181
171 175 181
171 175 181
171 175 181
171 175 181
171 175 181
171 175 181
171 175 181
171 175 181
171 175 181
171 175 181
172 175 181
172 175 181
172 176 181
172 176 181
172 176 181
172 176 181
172 176 181
172 176 181
172 176 181
172 176 181
172 176 181
173 176 181
173 176 181
173 176 181
173 176 181
173 176 181
173 176 181
173 176 181
173 176 181
173 176 181
173 176 181
174 176 181
174 176 181
174 177 181
174 177 181
174 177 181
174 177 181
174 177 181
174 177 181
174 177 181
174 177 181
175 177 181
175 177 181
175 177 181
175 177 181
175 177 181
175 177 181
175 177 181
175 177 181
176 177 181
176 178 181
176 178 181
176 178 181
176 178 181
176 178 181
176 178 181
176 178 181
177 178 181
177 178 181
177 178 181
177 178 181
177 178 181
177 178 181
177 178 181
178 179 181
178 179 181
178 179 181
178 179 181
178 179 181
178 179 181
179 179 181
179 179 181
179 179 181
179 179 181
179 179 181
179 179 181
180 180 181
180 180 181
180 180 181
180 180 181
180 180 181
181 180 181
181 180 181
181 180 181
181 180 181
182 181 181
182 181 181
182 181 181
182 181 181
183 181 181
183 181 181
183 181 181
184 182 181
184 182 181
184 182 181
185 182 181
180 179 179
124 150 188
76 131 189
79 132 181
86 130 167
88 127 159
90 127 157
97 125 135
104 129 130
111 123 91
108 120 95
115 129 103
107 121 94
114 123 79
119 123 59
115 118 47
119 118 23
127 126 24
121 121 23
123 122 24
118 118 23
122 121 23
124 124 24
127 126 24
130 129 25
125 124 24
119 120 23
123 123 23
123 122 24
127 127 24
119 120 34
119 121 55
128 130 80
125 129 94
128 132 99
124 131 130
130 137 122
124 134 133
127 137 139
127 139 151
128 141 158
128 140 165
131 146 175
133 149 177
135 153 182
135 153 181
135 153 181
135 154 181
136 154 180
138 156 180
136 155 180
138 156 180
138 155 179
139 157 181
137 156 180
138 157 180
138 156 181
136 156 181
138 156 181
137 156 180
137 156 180
138 156 181
138 156 181
138 156 181
136 155 180
137 156 181
137 156 180
137 156 181
138 156 179
138 156 181
137 156 181
137 156 181
138 156 181
137 156 180
137 156 181
138 156 180
138 157 181
137 156 180
138 157 181
139 157 181
137 156 180
134 151 176
128 143 170
132 147 173
125 138 167
123 137 168
115 125 162
112 120 156
108 114 155
100 99 144
97 93 144
95 82 136
93 75 134
89 75 135
85 59 128
88 56 119
85 56 121
90 58 125
91 58 114
98 71 123
97 68 116
99 69 118
105 78 124
107 84 130
104 76 125
118 99 133
118 95 130
125 110 139
134 119 139
126 113 137
138 128 146
141 136 154
151 148 162
155 156 164
152 150 161
161 164 172
157 160 171
158 165 175
163 172 180
171 184 191
168 182 190
167 179 187
172 186 192
174 191 198
170 186 197
176 193 200
175 192 199
175 191 197
173 189 193
165 180 185
166 179 184
165 178 181
149 160 164
149 159 162
132 139 143
130 137 138
129 135 135
126 131 132
108 110 111
108 112 117
100 104 111
93 95 104
88 89 100
103 111 126
87 93 111
91 99 116
92 102 118
107 120 138
102 116 132
108 126 142
104 122 136
113 131 148
114 136 151
111 138 148
109 135 146
113 141 152
113 138 153
112 141 152
114 141 156
112 138 156
115 141 161
114 135 161
111 138 161
110 134 159
110 133 163
117 139 174
113 136 171
126 147 188
122 142 182
128 147 191
126 145 189
125 141 186
124 142 189
115 133 177
123 141 185
123 142 188
122 140 188
119 135 181
120 136 183
115 131 177
119 134 178
124 138 184
127 140 185
132 146 190
133 147 190
132 146 184
127 137 180
135 146 184
141 150 189
138 147 180
139 149 184
140 149 186
142 153 185
139 150 186
145 158 190
138 151 183
147 160 187
155 168 198
152 166 197
147 160 196
144 156 190
147 160 193
146 160 189
148 161 195
149 162 194
149 162 195
146 158 192
139 152 189
134 146 187
132 145 179
141 152 194
134 146 189
127 139 182
129 140 186
130 141 188
122 132 175
124 135 182
125 137 182
126 137 180
132 142 186
124 136 177
133 145 188
145 158 196
129 144 179
137 152 187
129 143 174
130 145 173
139 155 181
129 148 163
128 147 164
129 149 160
134 152 164
132 151 159
132 151 162
128 148 149
129 149 151
127 148 146
124 145 140
120 142 139
123 144 138
124 144 139
127 148 144
125 145 137
127 147 142
126 147 138
124 145 139
121 143 135
125 146 140
120 142 139
122 145 143
120 141 139
113 136 141
106 132 136
109 133 139
100 126 143
106 133 140
95 123 139
96 125 140
84 115 140
82 116 147
80 113 145
80 114 144
74 111 146
73 109 145
73 110 149
74 111 149
74 111 150
75 112 150
74 111 150
71 108 146
76 114 154
74 112 151
72 109 146
72 109 146
74 111 150
72 108 147
74 111 149
76 114 154
75 114 154
69 105 144
74 111 150
75 114 154
71 107 146
73 112 152
72 108 146
73 110 150
71 107 148
72 109 152
68 103 149
65 100 143
65 101 152
63 97 152
62 96 151
57 88 146
58 90 152
52 82 151
