P3
1600 1
255
137 130 115
136 134 118
130 142 117
133 131 114
137 136 119
132 138 118
126 138 116
132 137 120
127 129 114
129 138 123
122 136 120
122 135 124
124 144 128
109 116 115
117 134 125
107 128 129
105 124 133
108 122 122
100 109 123
99 112 139
95 105 128
97 97 129
87 97 135
85 91 136
91 90 137
85 88 138
81 84 133
86 93 142
83 89 139
81 88 138
80 88 138
78 90 145
78 83 135
81 91 140
71 82 138
69 80 135
74 85 143
68 81 138
66 78 135
65 77 132
68 80 137
68 79 135
67 80 137
69 83 141
67 78 133
70 82 136
74 86 138
76 89 142
86 101 147
85 98 143
87 99 143
96 110 152
98 114 157
108 123 160
109 124 158
120 137 166
119 136 167
128 146 172
128 145 172
129 146 174
134 152 176
136 154 179
138 157 181
137 156 181
137 156 181
138 156 181
137 156 180
138 156 181
138 156 181
137 155 180
138 156 181
138 156 180
137 155 180
138 156 181
138 156 181
138 156 181
138 156 181
138 156 181
136 155 180
136 154 179
137 156 181
140 157 181
136 155 180
138 157 181
138 156 180
139 157 181
137 156 181
137 156 181
137 156 181
137 156 181
135 155 180
139 157 181
137 156 181
138 156 181
138 156 181
137 156 181
138 156 181
138 156 181
138 156 181
137 156 181
139 157 181
137 155 180
138 156 180
139 157 181
138 157 181
138 156 181
137 156 181
139 157 181
137 156 181
136 154 179
137 155 179
138 154 177
139 152 175
137 155 180
142 144 164
142 144 164
143 143 162
147 139 157
149 130 145
151 129 143
150 119 130
151 116 125
154 114 122
154 114 121
158 97 97
162 93 89
158 92 90
163 88 80
166 81 69
163 79 66
168 80 65
161 75 58
163 80 68
166 82 69
166 73 53
165 75 59
166 74 54
163 72 53
166 75 57
165 76 59
166 79 64
163 76 61
163 82 70
162 78 65
162 87 80
157 87 81
157 96 95
154 103 106
156 95 94
155 102 105
156 107 110
151 112 115
149 123 127
149 119 123
147 115 108
140 133 124
139 128 122
130 136 121
132 132 110
131 141 117
129 143 120
125 142 107
125 144 104
123 147 101
128 151 100
116 137 82
123 146 86
121 144 86
122 142 84
118 140 84
116 138 83
122 142 85
121 144 85
122 143 85
121 145 87
121 145 86
122 143 85
120 140 82
120 143 84
117 139 83
122 147 87
120 142 85
114 138 82
118 141 84
121 143 85
117 138 83
122 146 86
116 139 83
121 144 86
118 141 84
119 144 85
118 142 84
120 144 85
118 143 85
115 141 82
114 143 82
110 143 82
106 139 78
97 138 72
99 136 73
95 138 71
89 137 68
84 135 65
66 132 55
64 131 55
63 135 56
54 128 49
47 125 48
47 127 57
50 130 64
85 139 109
79 134 103
89 138 117
93 139 122
110 150 144
113 148 148
118 149 154
119 148 158
118 149 156
130 153 169
134 156 175
136 155 177
138 156 181
138 157 181
138 156 180
137 156 181
137 156 180
136 156 178
135 158 173
131 154 169
130 153 166
126 158 155
119 153 143
118 155 140
112 152 125
113 153 129
109 156 118
109 155 118
107 157 109
103 155 101
99 153 92
99 154 92
97 151 90
101 154 92
104 160 97
99 153 92
100 154 93
99 153 92
91 141 87
99 153 99
95 147 99
92 144 98
92 140 103
82 125 100
79 121 104
80 123 107
76 119 108
61 95 113
65 101 113
58 89 114
58 91 120
54 85 118
46 73 120
43 66 119
42 66 121
39 62 124
40 63 122
38 61 120
34 53 125
15 26 122
34 53 123
12 22 124
25 40 123
37 54 125
32 42 125
30 38 128
34 41 127
49 55 131
50 55 134
52 54 138
52 52 138
75 74 148
94 92 160
82 81 152
82 81 151
109 107 172
94 94 159
118 118 178
114 112 174
119 119 176
130 130 185
127 125 181
128 128 180
124 124 177
138 138 191
142 140 191
144 142 193
145 146 195
149 150 193
153 156 200
152 154 197
140 147 186
148 155 192
143 151 186
147 154 191
142 153 185
143 155 185
141 155 185
139 155 183
140 157 182
138 155 179
138 156 180
137 156 181
138 156 180
137 156 181
136 155 179
139 157 181
136 155 180
137 156 181
137 156 181
138 156 180
138 156 181
136 154 178
138 154 178
138 154 178
135 152 176
136 152 177
135 150 176
136 151 176
135 150 175
135 149 173
135 150 174
134 144 169
136 149 172
136 151 176
138 153 177
136 153 177
134 146 171
135 149 173
137 152 176
138 155 178
138 155 179
137 154 179
137 156 180
138 156 180
136 155 180
138 156 181
139 157 181
137 156 181
137 156 181
138 157 181
137 156 181
138 156 181
139 157 181
138 157 181
137 156 181
138 156 180
137 155 180
136 156 181
137 155 180
139 157 181
138 156 181
136 155 180
138 156 181
139 157 181
138 156 180
136 155 179
138 156 181
137 156 181
137 156 181
138 156 180
138 157 181
138 156 180
137 155 179
137 156 181
138 156 181
138 156 181
138 157 180
136 155 180
138 156 181
138 156 181
138 156 180
139 157 181
138 156 181
137 156 181
138 156 181
138 156 180
137 156 181
137 156 181
137 156 181
138 156 181
137 156 181
137 155 180
137 156 181
136 155 179
140 161 185
140 161 184
144 165 189
138 163 186
139 167 190
148 177 199
143 175 194
145 178 201
142 178 197
145 182 205
147 185 207
157 200 221
152 196 218
154 198 219
147 192 209
151 195 216
152 195 216
155 199 222
151 195 219
160 207 233
156 197 225
157 201 231
155 196 231
161 203 237
156 194 234
159 198 237
160 197 240
151 183 233
154 187 239
152 182 237
147 176 234
147 177 237
145 176 233
140 166 229
131 157 213
126 150 208
120 141 199
118 141 197
114 137 191
109 133 185
107 130 182
97 121 163
101 125 173
102 126 174
88 113 147
78 103 129
69 96 109
75 102 123
74 101 121
68 94 106
59 86 86
70 96 109
55 84 76
64 91 92
66 92 96
63 90 84
67 93 89
67 92 83
67 95 85
75 101 93
71 97 85
78 104 100
70 96 78
71 99 86
92 117 109
88 113 105
97 122 117
87 110 112
90 113 115
87 108 111
85 105 118
87 105 117
83 98 122
88 103 128
89 101 133
89 104 131
90 102 138
87 96 140
85 93 142
85 94 138
87 95 140
85 93 137
87 95 141
87 95 141
89 97 143
91 99 146
87 94 137
92 101 147
93 101 147
89 97 141
87 94 137
88 97 140
91 99 144
88 96 139
87 95 138
89 96 139
88 96 139
86 94 138
90 98 143
90 98 142
89 96 143
90 98 141
90 98 140
95 104 145
100 111 150
97 108 147
107 121 155
102 114 146
105 118 149
108 124 148
97 117 128
109 129 143
102 122 130
99 121 120
94 119 104
92 117 100
92 117 99
90 113 89
76 106 59
73 102 44
71 99 37
73 98 27
67 94 23
75 97 30
73 96 28
75 97 30
75 100 29
78 97 34
81 94 38
79 91 39
80 87 41
81 86 44
86 85 48
91 83 53
90 79 54
94 81 57
88 74 55
97 77 60
98 78 61
90 73 56
96 76 61
94 77 59
97 77 61
94 76 59
92 73 56
94 75 58
98 79 61
93 76 58
100 79 62
91 74 57
92 75 58
97 78 61
97 77 60
89 72 56
91 72 56
95 78 61
93 76 59
101 80 62
97 78 59
100 80 62
96 77 60
96 77 59
96 76 59
98 78 61
95 76 59
98 77 60
94 78 60
99 78 61
100 80 62
97 78 61
89 72 55
94 76 60
89 74 55
98 80 62
97 78 60
99 80 61
94 75 57
95 77 59
95 76 59
97 78 61
102 81 63
97 78 60
92 74 59
96 78 59
91 73 56
93 75 58
91 72 56
98 78 60
98 78 61
96 76 60
97 78 61
97 78 60
99 77 61
97 78 60
100 80 61
96 76 58
100 78 61
98 78 61
98 78 61
103 81 63
101 79 62
96 77 59
100 80 62
97 77 60
92 73 57
93 74 57
94 75 58
98 77 60
95 76 59
97 77 60
93 75 58
102 92 85
109 104 101
133 133 137
154 159 172
153 154 168
174 180 197
199 210 229
193 200 219
197 207 228
192 201 224
197 210 232
206 220 241
205 219 240
208 223 245
205 219 243
210 223 245
209 223 246
213 227 250
216 230 251
210 224 243
211 225 246
214 228 246
213 227 246
212 226 243
214 229 248
215 229 249
214 228 248
214 228 250
216 229 250
215 229 249
215 230 249
215 229 248
217 231 251
215 228 248
216 230 249
219 233 252
218 232 251
217 231 251
217 231 250
216 229 248
220 234 253
217 231 251
219 232 251
219 233 253
219 233 252
212 225 245
219 234 253
216 230 248
220 234 254
216 231 250
217 231 249
221 235 255
217 231 253
220 234 253
218 232 252
219 233 253
220 234 254
218 232 252
221 234 253
219 233 252
218 232 252
216 230 250
220 234 254
216 231 250
216 231 250
218 232 251
221 235 254
220 234 254
219 233 253
220 234 253
221 235 254
219 232 251
221 234 254
220 234 253
222 235 255
219 233 252
216 230 249
221 235 254
221 235 254
219 232 252
221 234 254
220 234 254
221 235 254
219 233 253
221 235 254
221 235 254
220 234 254
220 234 254
219 233 253
219 233 252
216 230 250
220 234 254
217 231 250
216 230 250
217 231 250
218 232 251
218 232 252
211 225 245
213 228 247
214 228 248
215 229 249
212 226 245
207 221 241
216 230 250
207 221 240
210 225 242
212 226 246
208 222 240
205 219 238
204 218 237
200 214 233
204 218 237
208 222 242
204 218 238
204 218 237
203 217 236
202 215 234
202 216 236
201 215 236
199 213 233
203 217 237
198 212 232
199 213 233
196 210 230
197 210 232
200 213 234
188 201 222
190 203 224
195 209 228
204 218 238
189 204 224
190 205 225
191 206 226
191 205 226
193 207 227
189 204 224
183 198 218
185 200 220
194 209 228
192 207 227
193 208 228
189 203 223
193 207 228
188 203 223
189 203 223
186 201 221
187 202 222
183 198 219
184 198 218
182 197 217
180 195 216
181 196 217
185 200 220
184 199 220
180 195 216
185 200 220
183 198 219
177 192 213
182 197 218
187 202 222
177 192 213
173 189 211
182 197 218
187 201 222
178 194 214
179 194 214
178 193 214
182 197 217
178 194 214
178 193 214
182 197 217
179 194 214
174 189 209
181 196 215
173 188 209
159 172 190
118 126 133
135 138 135
178 176 174
185 182 181
184 182 181
184 182 181
184 182 181
183 182 181
183 181 181
183 181 181
183 181 181
182 181 181
182 181 181
182 181 181
182 181 181
182 181 181
181 180 181
181 180 181
181 180 181
181 180 181
181 180 181
181 180 181
180 180 181
180 180 181
180 180 181
180 180 181
180 180 181
180 180 181
179 179 181
179 179 181
179 179 181
179 179 181
179 179 181
179 179 181
179 179 181
178 179 181
178 179 181
178 179 181
178 179 181
178 179 181
178 179 181
178 179 181
178 178 181
177 178 181
177 178 181
177 178 181
177 178 181
177 178 181
177 178 181
177 178 181
177 178 181
177 178 181
176 178 181
176 178 181
176 178 181
176 178 181
176 178 181
176 178 181
176 178 181
176 178 181
176 177 181
175 177 181
175 177 181
175 177 181
175 177 181
175 177 181
175 177 181
175 177 181
175 177 181
175 177 181
175 177 181
175 177 181
174 177 181
174 177 181
174 177 181
174 177 181
174 177 181
174 177 181
174 177 181
174 177 181
174 177 181
174 176 181
174 176 181
173 176 181
173 176 181
173 176 181
173 176 181
173 176 181
173 176 181
173 176 181
173 176 181
173 176 181
173 176 181
173 176 181
173 176 181
173 176 181
172 176 181
172 176 181
172 176 181
172 176 181
172 176 181
172 176 181
172 176 181
172 176 181
172 176 181
172 176 181
172 176 181
172 176 181
172 175 181
172 175 181
172 175 181
171 175 181
171 175 181
171 175 181
171 175 181
171 175 181
171 175 181
171 175 181
171 175 181
171 175 181
171 175 181
171 175 181
171 175 181
171 175 181
171 175 181
171 175 181
171 175 181
170 175 181
170 175 181
170 175 181
170 175 181
170 175 181
170 175 181
170 175 181
170 175 181
170 175 181
170 175 181
170 175 181
170 175 181
170 175 181
170 175 181
170 175 181
170 175 181
170 174 181
170 174 181
170 174 181
169 174 181
169 174 181
169 174 181
169 174 181
169 174 181
169 174 181
169 174 181
169 174 181
169 174 181
169 174 181
169 174 181
169 174 181
169 174 181
169 174 181
169 174 181
169 174 181
169 174 181
169 174 181
169 174 181
169 174 181
169 174 181
169 174 181
169 174 181
169 174 181
168 174 181
168 174 181
168 174 181
168 174 181
168 174 181
168 174 181
168 174 181
168 174 181
168 174 181
168 174 181
168 174 181
168 174 181
168 174 181
168 174 181
168 174 181
168 174 181
168 174 181
168 174 181
168 174 181
168 174 181
168 174 181
168 174 181
168 174 181
168 174 181
168 174 181
168 174 181
168 173 181
168 173 181
168 173 181
168 173 181
168 173 181
168 173 181
168 173 181
168 173 181
167 173 181
167 173 181
167 173 181
167 173 181
167 173 181
167 173 181
167 173 181
167 173 181
167 173 181
167 173 181
167 173 181
167 173 181
167 173 181
167 173 181
167 173 181
167 173 181
167 173 181
167 173 181
167 173 181
167 173 181
167 173 181
167 173 181
167 173 181
167 173 181
167 173 181
167 173 181
167 173 181
167 173 181
167 173 181
167 173 181
167 173 181
167 173 181
167 173 181
167 173 181
167 173 181
167 173 181
167 173 181
167 173 181
167 173 181
167 173 181
167 173 181
167 173 181
167 173 181
167 173 181
167 173 181
167 173 181
167 173 181
167 173 181
167 173 181
167 173 181
167 173 181
167 173 181
167 173 181
167 173 181
167 173 181
167 173 181
167 173 181
167 173 181
167 173 181
167 173 181
167 173 181
167 173 181
167 173 181
167 173 181
167 173 181
167 173 181
167 173 181
167 173 181
167 173 181
167 173 181
167 173 181
167 173 181
167 173 181
167 173 181
167 173 181
167 173 181
167 173 181
167 173 181
167 173 181
167 173 181
167 173 181
167 173 181
167 173 181
167 173 181
167 173 181
167 173 181
167 173 181
167 173 181
167 173 181
167 173 181
167 173 181
167 173 181
167 173 181
167 173 181
167 173 181
167 173 181
167 173 181
167 173 181
167 173 181
167 173 181
167 173 181
167 173 181
167 173 181
167 173 181
167 173 181
167 173 181
167 173 181
167 173 181
167 173 181
167 173 181
167 173 181
167 173 181
167 173 181
167 173 181
167 173 181
167 173 181
167 173 181
167 173 181
167 173 181
167 173 181
167 173 181
167 173 181
167 173 181
168 173 181
168 173 181
168 173 181
168 173 181
168 173 181
168 173 181
168 173 181
168 174 181
168 174 181
168 174 181
168 174 181
168 174 181
168 174 181
168 174 181
168 174 181
168 174 181
168 174 181
168 174 181
168 174 181
168 174 181
168 174 181
168 174 181
168 174 181
168 174 181
168 174 181
168 174 181
168 174 181
168 174 181
168 174 181
168 174 181
168 174 181
168 174 181
169 174 181
169 174 181
169 174 181
169 174 181
169 174 181
169 174 181
169 174 181
169 174 181
169 174 181
169 174 181
169 174 181
169 174 181
169 174 181
169 174 181
169 174 181
169 174 181
169 174 181
169 174 181
169 174 181
169 174 181
169 174 181
169 174 181
169 174 181
169 174 181
169 174 181
170 174 181
170 174 181
170 174 181
170 175 181
170 175 181
170 175 181
170 175 181
170 175 181
170 175 181
170 175 181
170 175 181
170 175 181
170 175 181
170 175 181
170 175 181
170 175 181
170 175 181
170 175 181
171 175 181
171 175 181
171 175 181
171 175 181
171 175 181
171 175 181
171 175 181
171 175 181
171 175 181
171 175 181
171 175 181
171 175 181
171 175 181
171 175 181
171 175 181
171 175 181
172 175 181
172 175 181
172 175 181
172 176 181
172 176 181
172 176 181
172 176 181
172 176 181
172 176 181
172 176 181
172 176 181
172 176 181
172 176 181
172 176 181
172 176 181
173 176 181
173 176 181
173 176 181
173 176 181
173 176 181
173 176 181
173 176 181
173 176 181
173 176 181
173 176 181
173 176 181
173 176 181
174 176 181
174 176 181
174 177 181
174 177 181
174 177 181
174 177 181
174 177 181
174 177 181
174 177 181
174 177 181
174 177 181
174 177 181
175 177 181
175 177 181
175 177 181
175 177 181
175 177 181
175 177 181
175 177 181
175 177 181
175 177 181
175 177 181
176 177 181
176 178 181
176 178 181
176 178 181
176 178 181
176 178 181
176 178 181
176 178 181
176 178 181
177 178 181
177 178 181
177 178 181
177 178 181
177 178 181
177 178 181
177 178 181
177 178 181
177 178 181
178 179 181
178 179 181
178 179 181
178 179 181
178 179 181
178 179 181
178 179 181
179 179 181
179 179 181
179 179 181
179 179 181
179 179 181
179 179 181
179 179 181
180 180 181
180 180 181
180 180 181
180 180 181
180 180 181
180 180 181
181 180 181
181 180 181
181 180 181
181 180 181
181 180 181
181 181 181
182 181 181
182 181 181
182 181 181
182 181 181
183 181 181
183 181 181
183 181 181
183 181 181
184 182 181
184 182 181
184 182 181
185 182 181
185 182 181
183 181 178
153 160 172
72 126 182
48 117 182
57 124 190
60 126 190
60 118 173
71 120 164
77 124 165
79 116 145
93 118 130
92 121 137
94 120 128
97 110 90
108 118 81
104 114 90
102 106 67
107 108 63
102 102 70
104 105 86
96 94 112
100 99 90
102 101 102
87 85 133
93 90 138
92 90 138
90 87 149
82 78 155
80 78 156
78 74 163
79 77 167
65 61 174
76 73 179
73 72 183
72 70 182
77 77 185
65 62 195
82 85 183
71 73 200
66 67 201
74 78 195
75 78 199
77 82 194
78 84 200
83 90 198
81 87 196
80 86 195
85 92 193
90 98 196
92 101 197
102 113 192
102 112 195
112 125 187
109 121 190
117 131 187
121 135 184
119 133 184
119 135 184
124 140 180
131 147 179
134 150 179
135 154 180
137 155 180
137 155 180
136 154 177
137 156 180
137 155 180
136 154 179
136 154 179
138 156 180
137 155 179
136 155 179
137 155 180
137 155 178
134 153 177
137 155 179
137 155 179
135 153 176
134 149 172
133 149 174
130 141 164
127 136 159
120 123 147
123 124 148
118 113 137
117 112 137
117 109 134
110 96 123
106 81 109
106 75 103
107 66 94
101 61 91
102 57 83
99 51 79
102 51 77
104 52 76
106 53 77
105 52 74
105 52 74
103 51 72
107 53 75
106 52 75
106 53 75
103 51 73
104 51 73
100 50 71
106 53 75
106 52 74
107 53 75
102 51 72
107 53 74
105 52 73
108 56 77
108 56 76
109 65 83
115 81 95
112 73 90
113 80 94
122 98 110
134 121 131
134 123 131
142 135 142
135 127 134
153 156 160
158 166 169
159 166 167
162 171 172
164 176 176
165 177 174
158 174 168
172 187 182
172 188 182
166 183 176
157 172 164
158 174 168
135 152 145
133 150 140
135 151 144
123 140 130
106 126 116
106 124 125
114 133 129
101 122 116
113 132 138
109 130 137
107 128 132
105 128 131
114 135 144
119 140 152
118 138 150
112 134 143
125 145 162
113 135 148
123 143 158
120 141 155
123 143 160
127 148 167
123 143 161
125 145 166
124 144 167
122 141 168
122 142 166
120 139 162
120 138 163
124 142 172
121 139 169
119 137 168
114 133 164
116 133 166
121 139 174
111 128 162
119 135 166
129 146 178
128 144 171
126 143 167
134 151 179
130 147 173
137 154 175
134 152 170
144 162 180
148 167 181
149 168 178
153 173 184
151 171 183
150 172 181
150 171 181
153 175 182
151 174 179
149 172 179
151 175 183
154 179 184
152 177 184
153 178 184
151 176 183
153 178 183
152 178 184
154 179 184
153 178 184
154 178 184
154 179 185
152 177 182
154 178 184
155 179 184
152 174 181
152 175 182
144 165 173
150 171 181
147 168 175
145 164 175
146 164 176
143 161 171
143 160 173
137 153 169
134 149 168
130 146 165
125 138 160
124 138 163
118 132 160
121 135 162
112 128 158
120 135 165
124 139 167
122 138 165
126 143 171
128 145 169
129 147 170
131 148 172
129 147 170
134 152 175
133 152 175
135 153 175
134 152 173
134 153 173
132 151 171
131 150 167
132 150 168
130 147 163
131 148 167
130 146 162
127 141 157
121 132 146
121 133 147
115 124 135
117 128 139
113 121 131
106 113 119
108 119 130
102 107 117
101 104 110
97 101 110
91 91 99
89 92 102
89 90 101
87 93 108
83 86 97
78 76 86
76 82 101
73 76 91
76 79 93
75 87 109
75 78 93
77 81 97
75 80 97
74 77 93
73 84 106
73 78 95
71 84 105
71 86 109
70 84 107
72 98 130
69 89 117
72 97 128
69 97 129
69 99 133
71 102 136
71 103 137
69 101 136
65 98 133
68 102 139
69 104 142
64 96 132
69 105 143
65 99 133
70 105 143
67 101 137
67 101 137
68 102 139
68 102 139
64 96 133
68 103 142
66 101 142
59 91 139
59 91 138
61 93 140
