P3
1600 1
255
134 127 114
141 120 119
138 120 114
137 118 115
138 127 118
140 122 120
140 127 125
132 114 112
137 127 122
125 116 113
135 130 132
131 129 128
127 128 125
119 118 114
106 108 118
112 101 122
109 104 121
106 106 125
98 92 120
97 102 124
102 104 134
96 93 131
96 87 122
87 84 128
90 89 129
102 99 138
90 95 138
95 95 137
99 96 139
88 85 130
85 81 124
82 84 130
87 93 140
83 85 133
81 89 137
88 92 138
81 89 140
73 81 136
66 79 136
70 82 138
66 77 130
66 79 135
68 79 135
69 81 138
66 79 135
65 76 130
66 79 135
69 82 139
69 81 134
74 86 137
78 91 141
83 95 140
90 104 144
95 110 151
97 111 150
112 128 161
111 127 161
116 133 164
119 136 165
130 147 175
129 146 171
133 151 177
135 154 179
137 156 180
138 156 180
136 155 180
137 156 180
138 156 181
138 156 181
138 156 181
137 156 181
138 156 181
135 154 179
137 156 181
139 157 181
139 157 181
137 155 180
139 156 180
138 156 181
137 156 181
137 156 181
138 157 181
137 155 180
137 156 181
137 156 180
138 156 181
137 156 181
138 156 181
138 156 181
137 156 181
138 157 181
138 156 181
137 156 181
138 156 181
137 155 180
137 155 180
139 157 181
138 156 181
138 156 181
138 156 181
139 157 181
138 156 181
136 154 179
137 156 180
136 155 180
137 156 181
137 156 181
137 156 181
138 156 181
137 156 181
138 156 181
138 151 174
142 148 168
143 140 159
144 139 157
143 136 154
149 131 146
147 125 138
148 113 122
152 123 134
150 115 124
158 103 106
155 94 93
159 90 85
160 87 80
158 81 72
163 80 67
161 78 63
161 73 55
164 73 53
161 71 52
165 73 53
163 72 53
167 73 53
164 72 53
162 72 52
167 73 53
166 74 54
163 73 54
162 71 52
159 70 52
163 72 53
159 70 52
164 73 53
161 72 56
158 73 60
161 74 60
159 71 54
158 87 82
158 88 83
151 92 91
158 94 88
156 103 95
151 108 100
147 115 111
142 117 104
136 121 109
133 125 101
136 134 104
134 130 92
133 133 100
124 137 94
125 142 95
122 143 90
119 141 84
119 139 82
119 142 85
118 141 84
118 139 83
116 134 79
112 128 76
122 143 85
115 137 81
118 140 83
119 140 84
116 137 82
117 136 81
115 135 80
115 136 81
121 144 85
121 144 85
112 131 78
119 142 85
118 140 83
116 138 82
122 144 86
117 139 83
112 134 80
119 143 86
118 141 84
118 140 83
113 135 81
119 144 85
117 140 83
113 138 81
115 141 83
109 137 78
109 135 79
106 136 76
93 129 70
99 134 71
86 133 66
71 126 58
83 131 63
76 129 59
68 130 56
51 128 48
46 123 52
55 123 65
61 135 76
67 136 88
79 135 102
86 135 111
98 140 128
102 145 133
113 148 149
112 147 145
124 150 162
123 149 161
133 153 175
133 155 175
137 156 180
138 156 181
137 155 180
139 157 181
138 156 181
137 156 179
136 155 178
134 156 171
130 157 164
130 156 162
126 155 154
116 148 140
120 151 147
114 148 135
112 153 128
107 150 116
106 155 110
100 149 100
95 148 90
95 147 89
99 152 91
95 148 89
98 151 91
96 148 88
96 149 88
99 151 89
100 154 93
93 141 90
91 140 97
91 138 103
85 129 101
79 121 104
75 115 105
74 114 110
68 105 111
65 100 111
55 86 112
54 82 114
56 88 117
42 65 118
35 56 120
33 53 124
22 36 119
26 42 123
12 22 124
3 12 120
3 12 123
3 12 124
3 12 122
3 12 121
3 12 122
3 12 122
3 12 123
3 12 120
3 13 125
3 12 116
3 12 118
3 12 119
25 28 126
18 22 125
27 28 124
26 28 128
41 42 130
83 81 150
67 67 139
74 75 143
83 83 154
109 110 170
107 106 168
102 102 161
100 99 156
108 107 165
121 119 173
117 120 172
135 135 182
133 134 184
134 134 180
137 139 184
135 140 178
137 143 180
140 148 185
141 148 185
140 150 182
137 150 182
137 151 180
138 151 181
138 153 180
136 153 179
140 156 181
138 155 180
137 156 180
137 156 181
136 155 180
138 157 181
137 156 181
138 156 181
138 156 180
137 152 176
137 152 175
135 149 174
135 146 170
135 149 173
134 145 170
132 142 167
135 148 173
132 138 163
131 136 161
132 142 167
130 136 161
130 134 160
128 135 160
130 137 162
130 134 159
130 138 163
131 140 165
133 143 167
130 138 163
134 144 169
132 143 168
133 143 167
131 142 167
136 151 175
136 152 177
136 151 176
136 153 177
138 155 179
137 156 181
137 155 180
138 156 181
139 157 181
137 156 180
137 156 180
138 156 181
138 156 181
137 156 181
138 156 180
138 156 180
136 155 180
138 156 180
137 156 181
138 157 181
138 156 181
138 156 180
136 155 180
137 156 180
138 156 181
138 156 179
138 156 180
137 156 180
137 156 181
137 156 181
138 156 180
137 156 181
137 156 181
138 156 181
137 156 181
137 156 180
136 156 181
138 156 181
138 156 181
139 157 181
137 156 180
137 156 181
139 157 181
137 156 181
138 156 181
137 156 181
138 156 180
138 156 181
137 156 181
137 156 181
137 156 181
138 156 180
137 156 180
137 157 182
141 165 189
138 162 185
142 169 192
140 166 189
140 169 191
136 168 189
144 181 201
141 173 193
151 191 209
143 185 204
148 190 212
144 188 206
147 190 208
147 190 210
153 196 221
150 193 215
144 187 208
140 179 201
154 194 218
146 187 214
152 193 225
151 189 220
153 192 227
149 186 225
145 178 218
149 183 228
150 183 228
145 175 226
144 172 229
136 161 219
134 162 216
133 158 216
120 142 198
123 145 205
121 142 201
112 136 187
109 133 182
108 131 182
91 116 153
89 114 149
86 110 143
89 115 149
79 105 131
69 96 111
65 93 103
67 94 106
59 87 89
47 78 60
46 79 56
49 80 64
49 80 64
40 73 38
44 76 50
43 75 50
46 78 55
40 72 38
53 80 66
42 71 31
56 86 65
50 82 47
54 82 57
47 76 40
60 85 62
61 89 72
63 91 75
70 95 84
76 101 96
70 91 96
73 96 101
73 92 104
74 94 105
75 94 111
73 89 109
73 88 112
80 92 125
83 93 131
79 89 129
82 91 133
87 95 141
85 93 136
83 91 135
82 89 133
87 94 138
85 92 134
82 90 131
84 92 135
83 90 131
85 93 135
86 94 138
83 91 133
89 97 141
85 92 131
85 92 133
87 95 138
92 99 144
88 94 137
87 94 136
87 95 136
85 93 139
85 92 135
85 92 135
87 94 138
89 97 139
97 106 146
97 106 145
101 111 149
93 103 136
102 116 144
98 114 131
99 115 136
101 118 134
97 116 122
95 112 115
95 114 116
88 111 92
85 106 83
83 105 72
83 104 70
76 100 45
71 94 28
72 95 29
78 97 34
75 96 32
75 91 34
74 93 32
76 92 34
77 90 37
79 93 38
83 91 43
82 88 43
82 86 44
89 85 51
83 79 48
93 82 56
94 82 57
89 74 56
90 73 56
99 77 61
89 71 57
97 78 61
94 76 59
96 77 60
87 71 55
89 71 56
96 77 60
94 74 57
97 77 60
93 76 58
94 77 59
90 72 57
98 79 62
91 74 57
91 73 57
89 73 56
97 78 59
94 77 60
90 73 57
100 80 62
95 77 60
96 77 60
91 73 58
85 69 52
90 74 57
92 73 56
94 77 59
99 80 62
95 76 60
92 75 59
95 77 59
90 73 56
104 84 65
100 78 61
91 74 58
95 77 59
92 75 57
96 78 59
95 77 59
96 76 60
95 75 59
97 78 61
96 76 60
101 81 63
98 78 61
98 79 60
98 80 61
95 76 58
91 73 57
94 75 59
100 79 62
100 80 62
100 80 62
89 72 55
97 77 60
99 80 62
96 77 60
97 77 61
96 77 59
93 75 57
92 72 57
95 77 59
93 74 57
93 74 58
96 77 60
95 76 60
90 73 56
95 78 61
98 77 60
89 73 56
97 77 61
96 78 64
92 75 59
127 126 129
132 131 137
149 151 161
174 182 197
162 166 183
179 184 201
195 203 221
202 212 231
198 210 229
197 210 232
195 210 228
207 221 244
203 218 238
209 223 245
205 218 241
207 220 244
215 230 250
212 227 248
215 229 251
210 224 246
212 225 245
212 223 245
213 226 246
211 225 245
212 225 246
215 229 249
217 230 250
212 226 246
218 232 252
214 228 249
212 227 246
220 234 254
214 228 248
216 230 250
217 231 251
212 226 245
215 229 249
209 224 243
210 224 243
215 230 249
218 232 252
220 234 253
218 232 252
217 231 250
220 234 254
219 232 252
218 232 251
220 235 253
221 235 254
217 232 251
214 229 247
217 231 250
220 234 254
217 231 250
217 232 251
217 231 250
221 235 254
216 230 249
218 232 252
220 233 252
218 231 251
220 234 254
219 233 252
218 232 252
220 234 254
217 232 251
219 233 253
219 233 253
217 232 252
218 232 251
220 234 254
219 233 253
217 230 250
220 234 254
215 229 248
220 234 254
217 231 251
219 233 253
218 232 252
219 233 253
218 232 252
219 232 253
218 232 253
220 234 255
219 233 253
217 231 251
219 233 252
220 234 254
220 234 254
219 233 253
218 233 252
219 233 252
220 234 253
217 231 249
219 233 252
220 235 254
219 233 252
219 233 252
218 232 250
221 234 254
221 235 254
218 229 248
216 229 250
217 230 250
219 232 252
220 233 253
217 230 249
215 228 248
214 227 247
221 234 254
219 232 252
218 232 250
217 230 249
216 229 248
219 233 252
220 234 253
220 233 252
218 232 250
220 234 253
220 234 253
218 231 251
218 231 250
217 230 249
217 230 249
219 233 252
216 229 249
219 232 252
218 231 250
218 232 251
214 227 247
215 229 247
218 231 250
220 234 253
217 230 249
215 228 248
212 224 244
219 233 252
219 232 252
216 230 249
219 233 252
221 234 253
220 234 253
216 230 249
218 232 250
217 231 249
218 232 251
220 233 252
217 231 250
218 231 251
215 228 248
216 229 248
216 230 250
219 233 252
217 231 250
218 232 251
218 231 250
214 227 246
217 231 250
212 225 246
217 231 250
216 230 249
215 228 247
219 233 252
216 229 249
216 229 249
216 230 249
217 231 250
219 232 252
214 228 247
219 232 252
212 226 245
213 227 246
214 228 247
208 221 239
133 142 155
109 117 117
161 159 159
185 182 181
185 182 181
184 182 181
184 182 181
184 182 181
183 182 181
183 181 181
183 181 181
183 181 181
183 181 181
182 181 181
182 181 181
182 181 181
182 181 181
182 181 181
181 180 181
181 180 181
181 180 181
181 180 181
181 180 181
180 180 181
180 180 181
180 180 181
180 180 181
180 180 181
180 180 181
180 180 181
179 179 181
179 179 181
179 179 181
179 179 181
179 179 181
179 179 181
179 179 181
179 179 181
178 179 181
178 179 181
178 179 181
178 179 181
178 179 181
178 179 181
178 179 181
178 178 181
177 178 181
177 178 181
177 178 181
177 178 181
177 178 181
177 178 181
177 178 181
177 178 181
177 178 181
176 178 181
176 178 181
176 178 181
176 178 181
176 178 181
176 178 181
176 178 181
176 178 181
176 177 181
176 177 181
175 177 181
175 177 181
175 177 181
175 177 181
175 177 181
175 177 181
175 177 181
175 177 181
175 177 181
175 177 181
175 177 181
174 177 181
174 177 181
174 177 181
174 177 181
174 177 181
174 177 181
174 177 181
174 177 181
174 177 181
174 177 181
174 176 181
174 176 181
173 176 181
173 176 181
173 176 181
173 176 181
173 176 181
173 176 181
173 176 181
173 176 181
173 176 181
173 176 181
173 176 181
173 176 181
173 176 181
173 176 181
172 176 181
172 176 181
172 176 181
172 176 181
172 176 181
172 176 181
172 176 181
172 176 181
172 176 181
172 176 181
172 176 181
172 176 181
172 175 181
172 175 181
172 175 181
171 175 181
171 175 181
171 175 181
171 175 181
171 175 181
171 175 181
171 175 181
171 175 181
171 175 181
171 175 181
171 175 181
171 175 181
171 175 181
171 175 181
171 175 181
171 175 181
171 175 181
170 175 181
170 175 181
170 175 181
170 175 181
170 175 181
170 175 181
170 175 181
170 175 181
170 175 181
170 175 181
170 175 181
170 175 181
170 175 181
170 175 181
170 175 181
170 175 181
170 175 181
170 174 181
170 174 181
170 174 181
170 174 181
169 174 181
169 174 181
169 174 181
169 174 181
169 174 181
169 174 181
169 174 181
169 174 181
169 174 181
169 174 181
169 174 181
169 174 181
169 174 181
169 174 181
169 174 181
169 174 181
169 174 181
169 174 181
169 174 181
169 174 181
169 174 181
169 174 181
169 174 181
169 174 181
169 174 181
169 174 181
169 174 181
169 174 181
168 174 181
168 174 181
168 174 181
168 174 181
168 174 181
168 174 181
168 174 181
168 174 181
168 174 181
168 174 181
168 174 181
168 174 181
168 174 181
168 174 181
168 174 181
168 174 181
168 174 181
168 174 181
168 174 181
168 174 181
168 174 181
168 174 181
168 174 181
168 174 181
168 174 181
168 174 181
168 174 181
168 174 181
168 174 181
168 173 181
168 174 181
168 173 181
168 173 181
168 173 181
168 173 181
168 173 181
168 173 181
168 173 181
168 173 181
168 173 181
168 173 181
167 173 181
167 173 181
167 173 181
167 173 181
167 173 181
167 173 181
167 173 181
167 173 181
167 173 181
167 173 181
167 173 181
167 173 181
167 173 181
167 173 181
167 173 181
167 173 181
167 173 181
167 173 181
167 173 181
167 173 181
167 173 181
167 173 181
167 173 181
167 173 181
167 173 181
167 173 181
167 173 181
167 173 181
167 173 181
167 173 181
167 173 181
167 173 181
167 173 181
167 173 181
167 173 181
167 173 181
167 173 181
167 173 181
167 173 181
167 173 181
167 173 181
167 173 181
167 173 181
167 173 181
167 173 181
167 173 181
167 173 181
167 173 181
167 173 181
167 173 181
167 173 181
167 173 181
167 173 181
167 173 181
167 173 181
167 173 181
167 173 181
167 173 181
167 173 181
167 173 181
167 173 181
167 173 181
167 173 181
167 173 181
167 173 181
167 173 181
167 173 181
167 173 181
167 173 181
167 173 181
167 173 181
167 173 181
167 173 181
167 173 181
167 173 181
167 173 181
167 173 181
167 173 181
167 173 181
167 173 181
167 173 181
167 173 181
167 173 181
168 173 181
168 173 181
168 173 181
168 173 181
168 173 181
168 173 181
168 173 181
168 173 181
168 173 181
168 173 181
168 173 181
168 173 181
168 174 181
168 174 181
168 174 181
168 174 181
168 174 181
168 174 181
168 174 181
168 174 181
168 174 181
168 174 181
168 174 181
168 174 181
168 174 181
168 174 181
168 174 181
168 174 181
168 174 181
168 174 181
168 174 181
168 174 181
168 174 181
168 174 181
168 174 181
168 174 181
168 174 181
168 174 181
168 174 181
168 174 181
168 174 181
168 174 181
169 174 181
169 174 181
169 174 181
169 174 181
169 174 181
169 174 181
169 174 181
169 174 181
169 174 181
169 174 181
169 174 181
169 174 181
169 174 181
169 174 181
169 174 181
169 174 181
169 174 181
169 174 181
169 174 181
169 174 181
169 174 181
169 174 181
169 174 181
169 174 181
169 174 181
169 174 181
169 174 181
170 174 181
170 174 181
170 174 181
170 174 181
170 174 181
170 175 181
170 175 181
170 175 181
170 175 181
170 175 181
170 175 181
170 175 181
170 175 181
170 175 181
170 175 181
170 175 181
170 175 181
170 175 181
170 175 181
170 175 181
170 175 181
171 175 181
171 175 181
171 175 181
171 175 181
171 175 181
171 175 181
171 175 181
171 175 181
171 175 181
171 175 181
171 175 181
171 175 181
171 175 181
171 175 181
171 175 181
171 175 181
171 175 181
171 175 181
172 175 181
172 175 181
172 175 181
172 176 181
172 176 181
172 176 181
172 176 181
172 176 181
172 176 181
172 176 181
172 176 181
172 176 181
172 176 181
172 176 181
173 176 181
173 176 181
173 176 181
173 176 181
173 176 181
173 176 181
173 176 181
173 176 181
173 176 181
173 176 181
173 176 181
173 176 181
173 176 181
173 176 181
174 176 181
174 176 181
174 177 181
174 177 181
174 177 181
174 177 181
174 177 181
174 177 181
174 177 181
174 177 181
174 177 181
174 177 181
175 177 181
175 177 181
175 177 181
175 177 181
175 177 181
175 177 181
175 177 181
175 177 181
175 177 181
175 177 181
175 177 181
176 177 181
176 178 181
176 178 181
176 178 181
176 178 181
176 178 181
176 178 181
176 178 181
176 178 181
177 178 181
177 178 181
177 178 181
177 178 181
177 178 181
177 178 181
177 178 181
177 178 181
177 178 181
178 178 181
178 179 181
178 179 181
178 179 181
178 179 181
178 179 181
178 179 181
178 179 181
179 179 181
179 179 181
179 179 181
179 179 181
179 179 181
179 179 181
179 179 181
180 179 181
180 180 181
180 180 181
180 180 181
180 180 181
180 180 181
180 180 181
181 180 181
181 180 181
181 180 181
181 180 181
181 180 181
182 181 181
182 181 181
182 181 181
182 181 181
182 181 181
183 181 181
183 181 181
183 181 181
183 181 181
184 182 181
184 182 181
184 182 181
185 182 181
185 182 181
185 183 181
170 168 168
110 134 169
54 122 188
48 116 180
54 120 184
62 125 184
64 119 172
68 115 159
85 120 145
83 113 128
83 114 135
94 119 123
91 114 121
96 109 98
104 113 88
104 106 82
95 98 87
98 97 106
94 93 101
93 91 109
98 96 111
85 83 143
82 78 141
86 83 153
77 74 163
75 71 166
69 64 173
67 62 177
60 54 185
59 52 187
65 61 183
55 48 192
61 57 189
57 52 193
51 45 198
55 51 197
52 48 202
49 42 206
53 49 202
50 44 204
60 60 200
59 57 198
56 54 201
58 56 203
60 59 198
68 69 200
71 73 202
74 78 199
76 80 197
85 92 197
94 102 192
92 101 190
102 113 191
101 112 186
108 121 187
111 123 184
114 127 183
115 128 185
127 144 180
128 145 179
131 149 178
133 150 177
136 152 177
134 153 176
136 154 178
133 150 175
135 151 175
135 152 176
133 151 175
136 154 179
135 153 176
133 151 175
137 156 180
135 152 176
134 151 174
137 155 179
134 150 174
129 141 164
131 143 166
129 138 160
128 137 160
125 126 148
120 121 144
117 110 131
115 105 127
112 95 118
102 74 100
110 80 103
103 66 89
105 65 90
99 50 75
102 51 74
105 52 75
102 51 73
102 51 73
106 52 74
104 51 72
102 51 72
102 51 72
106 52 74
102 51 73
105 52 74
100 50 72
106 52 75
102 51 71
104 51 73
103 51 71
108 53 74
105 51 72
104 51 71
101 50 71
105 52 74
102 50 71
107 53 73
103 51 72
105 61 78
107 62 80
119 96 107
120 85 98
125 105 114
120 103 111
135 130 134
139 136 140
140 141 141
148 157 156
149 160 156
150 160 157
147 161 154
136 152 141
155 171 162
152 167 159
149 166 154
135 153 139
132 151 135
124 144 128
121 141 126
112 132 116
106 127 114
100 122 107
105 126 115
98 121 113
93 117 105
96 120 109
96 120 116
96 120 115
97 122 120
105 128 131
100 125 125
104 127 132
102 125 127
116 137 149
111 133 140
115 137 148
111 133 142
115 136 147
116 137 151
117 138 153
123 142 161
121 141 159
123 141 162
119 138 159
121 142 164
127 145 173
121 139 167
122 141 167
118 135 163
121 139 170
115 134 163
119 135 160
119 135 161
129 146 173
126 143 171
136 153 178
128 145 170
134 151 166
143 161 180
144 162 174
146 165 176
151 170 180
155 175 183
153 174 181
155 176 183
150 171 176
156 178 183
158 181 184
156 180 185
156 180 184
155 179 184
153 179 184
153 179 184
152 178 184
152 178 184
152 178 184
152 178 184
151 178 184
152 178 184
151 178 184
152 178 184
153 179 184
153 179 184
154 179 184
155 180 184
154 179 184
153 177 182
153 176 182
153 177 182
152 174 179
150 173 177
150 171 177
150 169 177
143 162 171
140 159 171
141 159 171
134 152 165
127 145 162
131 145 164
130 147 164
124 137 161
130 145 169
123 138 162
126 142 167
126 142 168
128 145 172
130 147 174
127 145 169
131 149 171
131 149 171
134 152 175
132 152 173
135 153 175
136 154 177
132 151 173
131 148 167
129 146 165
120 133 150
127 144 164
120 132 147
120 134 152
121 133 150
114 123 135
113 120 134
106 110 122
110 115 128
100 100 105
105 108 116
100 101 108
92 89 95
93 90 96
88 86 94
92 93 104
82 75 79
82 72 76
81 72 77
76 64 64
78 65 65
77 70 75
77 66 66
79 68 72
75 67 75
76 71 79
76 71 78
78 75 85
75 75 87
74 75 87
75 72 82
73 77 92
71 77 94
75 83 104
75 86 108
72 86 109
72 91 118
70 91 118
69 89 116
69 92 121
67 94 127
70 97 128
72 100 132
64 96 131
64 96 130
63 96 131
68 102 139
63 96 131
67 101 137
57 87 121
67 101 137
66 100 136
65 99 133
66 100 136
64 96 133
64 97 135
60 93 136
54 82 124
54 83 132
