P3
1600 1
255
145 109 116
139 109 114
142 108 115
135 99 107
145 112 125
148 118 130
137 107 116
139 108 118
140 105 115
130 100 110
136 121 127
133 116 131
120 101 114
128 101 115
118 111 123
108 96 110
113 82 99
105 88 112
113 101 125
112 93 120
105 94 129
95 81 114
93 78 109
96 80 111
94 80 115
93 76 111
94 83 118
98 90 126
105 93 128
95 94 133
96 91 129
94 92 131
85 78 122
100 96 135
100 100 140
83 83 126
80 81 128
81 88 137
79 86 138
84 93 141
75 82 129
80 92 144
66 78 133
66 78 134
66 78 134
64 76 129
64 76 129
67 79 135
64 75 127
67 80 136
72 84 134
77 89 135
79 92 140
89 102 140
83 96 141
100 115 150
103 117 151
110 127 159
116 132 164
122 139 168
121 138 168
130 147 173
134 151 177
133 152 178
135 153 178
137 156 180
139 157 181
137 155 180
138 157 181
138 156 180
138 156 180
137 156 181
137 156 181
137 156 181
137 155 180
135 155 180
139 157 181
137 156 181
138 156 181
138 156 181
137 156 181
138 156 181
138 156 181
138 156 181
137 156 181
139 157 181
136 155 180
138 156 180
138 157 181
138 157 181
138 156 181
137 156 181
139 157 181
138 156 181
136 155 179
136 155 179
137 156 181
137 156 181
136 155 181
137 156 181
138 156 181
137 156 181
139 157 181
137 156 181
136 155 179
137 156 181
137 156 181
138 156 181
138 156 181
137 151 175
139 148 169
139 145 166
144 139 156
142 138 156
146 127 140
150 125 137
150 124 136
147 118 129
150 115 124
149 104 110
152 93 92
160 95 92
159 84 77
162 77 62
163 73 55
163 73 55
159 69 50
162 71 52
166 72 53
166 73 53
162 72 53
163 71 52
159 70 51
161 70 52
157 69 55
160 71 56
161 71 58
160 70 57
158 70 59
145 64 62
154 68 61
157 70 61
155 68 61
150 66 61
152 67 60
153 67 62
153 68 59
158 70 57
159 72 63
149 73 71
156 76 71
143 81 81
150 83 80
153 91 72
142 103 93
146 106 90
142 102 83
145 117 90
130 114 82
129 118 82
124 124 87
126 131 86
119 124 80
118 127 78
121 137 81
116 137 81
113 132 79
116 137 81
118 138 82
114 133 79
112 131 78
114 135 81
117 139 82
123 147 87
115 135 80
119 140 84
116 134 79
111 130 78
118 140 83
114 137 81
116 139 83
113 132 78
113 134 80
115 134 79
119 142 84
116 137 82
114 133 79
116 140 83
115 135 80
115 138 82
116 140 83
114 138 82
113 135 80
116 138 82
111 134 79
115 139 83
118 142 84
111 137 80
108 135 79
97 132 72
87 128 66
94 133 70
91 137 69
76 130 60
69 125 56
67 125 55
63 127 60
57 129 62
62 125 71
68 126 86
72 130 93
87 141 112
97 135 127
102 140 134
107 139 140
115 148 150
118 148 157
125 150 165
130 154 172
133 153 174
135 155 176
139 157 181
138 156 181
137 156 180
138 156 180
137 156 181
135 155 178
135 157 174
134 157 172
130 154 165
127 153 159
124 153 152
125 158 149
116 154 133
110 148 127
110 152 124
109 153 121
101 146 104
101 154 97
99 149 95
97 150 89
93 143 84
100 152 91
94 143 85
98 138 83
95 139 85
99 145 89
102 140 95
97 137 94
98 126 92
95 128 98
89 115 99
89 109 103
81 106 98
77 107 103
68 86 110
75 81 107
55 68 112
49 65 118
31 48 121
32 35 118
12 22 119
16 13 121
17 13 117
3 12 121
3 12 123
3 12 119
3 12 117
3 12 117
3 12 121
3 13 124
3 12 119
3 12 120
3 12 118
3 12 120
3 13 124
3 12 124
3 12 124
3 12 122
3 12 121
3 12 119
3 12 121
19 22 123
3 12 115
22 24 121
35 37 124
61 58 136
64 64 140
62 62 134
63 64 135
87 89 151
99 101 156
88 90 150
107 109 161
109 111 160
115 116 166
115 118 168
120 123 168
126 130 172
131 135 176
130 137 175
135 141 178
133 143 177
137 147 181
137 149 180
136 152 179
136 152 178
138 154 180
137 154 179
137 155 180
139 157 181
137 156 180
138 157 181
139 156 180
136 153 177
137 154 179
134 146 171
133 144 169
132 144 169
132 139 163
129 132 157
129 137 163
130 132 157
131 138 163
126 124 150
128 125 151
126 121 148
127 127 153
123 114 141
124 124 150
124 118 146
122 115 142
122 114 140
122 114 140
125 125 151
125 118 144
128 131 156
124 122 148
125 122 148
126 129 154
127 126 152
132 140 165
128 135 159
131 140 165
132 144 169
133 141 166
133 146 171
136 150 174
136 151 175
138 156 180
136 155 179
137 156 180
138 156 181
138 156 179
138 156 181
137 156 180
137 156 181
137 156 181
138 156 180
137 156 181
136 156 181
138 156 181
138 156 181
137 155 180
137 156 181
138 156 181
138 156 181
138 156 180
138 156 181
138 156 181
138 156 181
137 156 181
137 156 180
137 156 181
137 156 180
138 156 181
137 156 181
138 156 181
137 156 181
138 157 180
138 156 181
137 156 180
137 156 181
139 157 181
136 156 180
138 156 181
138 156 181
139 157 181
136 155 180
138 156 181
136 155 180
136 155 180
138 156 181
137 155 180
139 158 182
136 156 181
138 159 183
138 161 186
138 163 189
139 165 189
138 168 190
140 170 192
145 179 199
137 169 192
139 179 197
134 170 190
139 179 200
140 181 200
135 174 192
139 181 201
140 181 202
143 185 206
123 163 181
134 173 196
129 168 190
140 181 202
140 177 203
136 173 200
135 171 201
139 177 206
131 164 201
131 161 202
131 162 204
139 172 212
123 150 199
128 154 206
120 147 194
115 143 187
111 136 184
115 140 192
99 126 165
102 126 172
94 121 158
98 123 165
78 107 129
73 99 119
73 100 119
57 86 86
51 82 73
59 87 89
49 78 68
37 71 30
33 66 18
35 69 18
35 71 19
35 69 19
35 69 18
35 69 18
34 68 18
35 70 19
33 67 18
34 68 18
35 71 19
34 68 18
34 68 18
34 69 18
34 68 18
37 71 24
36 70 24
46 77 45
48 77 50
47 76 51
49 78 53
56 80 72
59 82 81
57 79 81
65 84 97
67 84 102
69 86 102
68 84 107
70 85 113
73 84 113
71 82 115
76 85 122
78 87 126
85 93 136
85 93 137
82 89 133
83 90 130
85 93 135
80 87 126
82 89 130
85 93 135
80 86 125
84 92 133
83 90 130
83 91 132
87 95 137
84 91 132
86 93 135
84 92 135
87 94 136
86 93 135
81 89 129
91 98 142
86 94 137
86 94 137
88 95 138
87 95 139
85 93 134
93 102 144
93 103 142
94 106 138
92 103 134
90 103 128
92 106 131
93 108 120
83 101 104
90 107 107
84 103 94
89 103 97
83 100 83
81 100 71
82 99 65
73 91 46
75 92 34
80 91 39
75 90 35
79 90 39
77 87 38
78 89 40
79 90 39
79 84 42
77 83 40
83 89 43
83 85 45
82 84 45
85 79 48
86 79 51
90 79 54
89 76 54
87 73 53
85 72 52
91 74 57
90 73 57
93 73 58
85 69 53
93 75 58
94 76 59
91 74 57
91 74 58
92 74 57
94 75 59
92 73 56
92 74 58
91 73 57
91 74 57
95 76 59
96 78 60
94 76 58
97 77 60
95 77 60
93 74 60
94 75 58
94 75 58
98 79 61
91 73 57
91 73 57
91 74 57
95 78 60
92 74 57
99 80 61
94 75 59
98 78 61
94 76 59
90 73 57
92 74 57
92 77 57
97 79 61
92 76 58
96 76 59
94 76 60
93 76 59
99 79 61
96 77 60
90 73 56
99 79 63
96 76 61
100 80 62
86 71 53
95 78 61
98 79 60
93 75 57
95 75 58
94 77 58
94 75 58
92 73 56
93 74 58
92 74 59
95 76 59
91 74 57
95 76 58
94 76 59
92 73 56
95 75 59
99 79 61
94 75 58
94 75 58
94 76 58
102 80 62
94 75 57
86 69 54
91 73 56
89 73 56
96 77 60
99 79 60
98 81 64
110 102 98
115 112 113
142 143 152
151 158 172
168 177 196
182 191 210
195 207 226
183 193 209
193 203 221
194 209 228
192 207 227
205 219 241
209 223 244
207 221 241
206 219 240
211 225 246
211 225 246
210 223 249
215 229 250
213 227 250
208 220 242
215 229 250
214 228 248
214 227 248
216 230 251
215 230 250
217 231 251
211 225 245
216 231 250
216 231 251
217 232 251
217 231 251
217 231 251
214 228 247
220 235 255
215 230 249
215 230 250
218 232 252
214 228 248
216 230 250
215 229 249
216 230 250
218 232 252
216 229 250
220 234 254
218 231 251
218 233 252
215 227 247
217 231 251
217 232 250
213 228 246
216 231 250
220 235 254
215 229 247
215 228 248
217 231 251
218 232 252
220 233 253
218 231 251
216 229 250
218 232 253
218 232 252
216 230 251
218 233 253
220 234 254
218 232 253
217 231 251
213 229 248
220 234 253
219 233 253
216 231 252
217 229 249
219 232 251
220 234 254
221 235 255
219 233 252
215 228 248
217 231 250
219 232 252
219 233 253
220 234 255
219 232 254
218 232 253
219 233 254
220 235 254
221 235 254
216 231 252
219 234 254
219 233 252
220 234 254
220 234 255
219 233 253
218 232 251
216 231 249
218 232 250
216 230 248
219 233 252
218 232 250
217 231 249
215 227 246
218 232 251
219 232 252
220 234 253
218 231 251
218 231 251
213 227 248
216 229 248
216 229 248
214 227 247
219 233 252
213 226 245
219 233 252
215 228 247
217 231 250
217 230 249
217 232 251
214 228 247
215 230 248
219 233 253
216 229 249
218 231 251
216 230 249
214 228 248
216 229 249
217 230 250
216 228 249
216 228 249
212 226 246
213 227 247
219 233 252
216 229 249
218 231 251
219 232 251
216 230 249
218 231 250
216 230 250
221 235 254
220 234 252
218 232 252
218 231 250
218 232 251
220 233 253
218 232 251
216 231 249
217 231 249
217 232 251
219 233 252
217 231 251
216 230 250
218 232 251
217 231 250
219 232 252
220 235 254
217 231 250
218 232 252
214 227 246
219 231 253
217 230 250
217 230 250
218 232 251
219 232 252
218 231 250
217 230 248
218 231 250
218 231 250
218 231 250
213 227 246
217 230 248
218 231 249
217 231 250
217 231 249
217 230 249
217 230 249
185 196 210
112 121 127
141 143 140
182 179 177
185 182 181
185 182 181
184 182 181
184 182 181
184 182 181
183 182 181
183 181 181
183 181 181
183 181 181
183 181 181
182 181 181
182 181 181
182 181 181
182 181 181
182 181 181
181 180 181
181 180 181
181 180 181
181 180 181
181 180 181
181 180 181
180 180 181
180 180 181
180 180 181
180 180 181
180 180 181
180 180 181
180 180 181
179 179 181
179 179 181
179 179 181
179 179 181
179 179 181
179 179 181
179 179 181
179 179 181
178 179 181
178 179 181
178 179 181
178 179 181
178 179 181
178 179 181
178 179 181
178 179 181
177 178 181
177 178 181
177 178 181
177 178 181
177 178 181
177 178 181
177 178 181
177 178 181
177 178 181
177 178 181
176 178 181
176 178 181
176 178 181
176 178 181
176 178 181
176 178 181
176 178 181
176 178 181
176 178 181
176 177 181
175 177 181
175 177 181
175 177 181
175 177 181
175 177 181
175 177 181
175 177 181
175 177 181
175 177 181
175 177 181
175 177 181
175 177 181
174 177 181
174 177 181
174 177 181
174 177 181
174 177 181
174 177 181
174 177 181
174 177 181
174 177 181
174 177 181
174 177 181
174 176 181
174 176 181
173 176 181
173 176 181
173 176 181
173 176 181
173 176 181
173 176 181
173 176 181
173 176 181
173 176 181
173 176 181
173 176 181
173 176 181
173 176 181
173 176 181
172 176 181
172 176 181
172 176 181
172 176 181
172 176 181
172 176 181
172 176 181
172 176 181
172 176 181
172 176 181
172 176 181
172 176 181
172 176 181
172 175 181
172 175 181
172 175 181
172 175 181
171 175 181
171 175 181
171 175 181
171 175 181
171 175 181
171 175 181
171 175 181
171 175 181
171 175 181
171 175 181
171 175 181
171 175 181
171 175 181
171 175 181
171 175 181
171 175 181
171 175 181
171 175 181
171 175 181
170 175 181
170 175 181
170 175 181
170 175 181
170 175 181
170 175 181
170 175 181
170 175 181
170 175 181
170 175 181
170 175 181
170 175 181
170 175 181
170 175 181
170 175 181
170 175 181
170 175 181
170 175 181
170 174 181
170 174 181
170 174 181
170 174 181
169 174 181
169 174 181
169 174 181
169 174 181
169 174 181
169 174 181
169 174 181
169 174 181
169 174 181
169 174 181
169 174 181
169 174 181
169 174 181
169 174 181
169 174 181
169 174 181
169 174 181
169 174 181
169 174 181
169 174 181
169 174 181
169 174 181
169 174 181
169 174 181
169 174 181
169 174 181
169 174 181
169 174 181
169 174 181
169 174 181
169 174 181
168 174 181
168 174 181
168 174 181
168 174 181
168 174 181
168 174 181
168 174 181
168 174 181
168 174 181
168 174 181
168 174 181
168 174 181
168 174 181
168 174 181
168 174 181
168 174 181
168 174 181
168 174 181
168 174 181
168 174 181
168 174 181
168 174 181
168 174 181
168 174 181
168 174 181
168 174 181
168 174 181
168 174 181
168 174 181
168 174 181
168 174 181
168 174 181
168 174 181
168 174 181
168 174 181
168 174 181
168 174 181
168 174 181
168 174 181
168 174 181
168 174 181
168 174 181
168 174 181
168 174 181
168 174 181
168 173 181
168 174 181
168 174 181
168 174 181
168 174 181
168 173 181
168 173 181
168 173 181
168 173 181
168 173 181
168 173 181
168 173 181
168 173 181
168 173 181
168 173 181
168 173 181
168 173 181
168 173 181
168 173 181
168 173 181
168 173 181
168 173 181
168 173 181
168 173 181
168 173 181
168 173 181
168 173 181
168 173 181
168 173 181
168 173 181
168 173 181
168 173 181
168 173 181
168 173 181
168 173 181
168 173 181
168 173 181
168 173 181
168 173 181
168 173 181
168 173 181
168 173 181
168 173 181
168 173 181
168 173 181
168 173 181
168 173 181
168 173 181
168 173 181
168 173 181
168 174 181
168 174 181
168 174 181
168 174 181
168 174 181
168 174 181
168 174 181
168 174 181
168 174 181
168 174 181
168 174 181
168 174 181
168 174 181
168 174 181
168 174 181
168 174 181
168 174 181
168 174 181
168 174 181
168 174 181
168 174 181
168 174 181
168 174 181
168 174 181
168 174 181
168 174 181
168 174 181
168 174 181
168 174 181
168 174 181
168 174 181
168 174 181
168 174 181
168 174 181
168 174 181
168 174 181
168 174 181
168 174 181
168 174 181
168 174 181
168 174 181
168 174 181
168 174 181
168 174 181
168 174 181
168 174 181
168 174 181
169 174 181
169 174 181
169 174 181
169 174 181
169 174 181
169 174 181
169 174 181
169 174 181
169 174 181
169 174 181
169 174 181
169 174 181
169 174 181
169 174 181
169 174 181
169 174 181
169 174 181
169 174 181
169 174 181
169 174 181
169 174 181
169 174 181
169 174 181
169 174 181
169 174 181
169 174 181
169 174 181
169 174 181
169 174 181
169 174 181
170 174 181
170 174 181
170 174 181
170 174 181
170 174 181
170 174 181
170 175 181
170 175 181
170 175 181
170 175 181
170 175 181
170 175 181
170 175 181
170 175 181
170 175 181
170 175 181
170 175 181
170 175 181
170 175 181
170 175 181
170 175 181
170 175 181
170 175 181
171 175 181
171 175 181
171 175 181
171 175 181
171 175 181
171 175 181
171 175 181
171 175 181
171 175 181
171 175 181
171 175 181
171 175 181
171 175 181
171 175 181
171 175 181
171 175 181
171 175 181
171 175 181
171 175 181
172 175 181
172 175 181
172 175 181
172 176 181
172 176 181
172 176 181
172 176 181
172 176 181
172 176 181
172 176 181
172 176 181
172 176 181
172 176 181
172 176 181
172 176 181
172 176 181
173 176 181
173 176 181
173 176 181
173 176 181
173 176 181
173 176 181
173 176 181
173 176 181
173 176 181
173 176 181
173 176 181
173 176 181
173 176 181
173 176 181
174 176 181
174 176 181
174 177 181
174 177 181
174 177 181
174 177 181
174 177 181
174 177 181
174 177 181
174 177 181
174 177 181
174 177 181
174 177 181
175 177 181
175 177 181
175 177 181
175 177 181
175 177 181
175 177 181
175 177 181
175 177 181
175 177 181
175 177 181
175 177 181
176 177 181
176 177 181
176 178 181
176 178 181
176 178 181
176 178 181
176 178 181
176 178 181
176 178 181
176 178 181
177 178 181
177 178 181
177 178 181
177 178 181
177 178 181
177 178 181
177 178 181
177 178 181
177 178 181
177 178 181
178 178 181
178 179 181
178 179 181
178 179 181
178 179 181
178 179 181
178 179 181
178 179 181
179 179 181
179 179 181
179 179 181
179 179 181
179 179 181
179 179 181
179 179 181
180 179 181
180 180 181
180 180 181
180 180 181
180 180 181
180 180 181
180 180 181
181 180 181
181 180 181
181 180 181
181 180 181
181 180 181
181 180 181
182 181 181
182 181 181
182 181 181
182 181 181
182 181 181
183 181 181
183 181 181
183 181 181
183 181 181
184 182 181
184 182 181
184 182 181
185 182 181
185 182 181
185 182 181
182 180 178
139 149 162
72 119 172
49 118 184
53 122 188
52 114 175
59 115 170
65 117 167
72 117 158
79 114 146
79 112 143
80 111 132
82 107 125
95 109 103
89 102 129
87 96 111
90 90 118
84 83 127
86 84 119
77 74 152
75 74 139
88 85 143
72 68 159
58 54 174
66 62 167
51 44 183
51 44 194
60 53 190
50 42 192
43 33 197
45 35 198
44 34 196
43 32 203
42 31 198
41 31 197
42 32 202
43 32 203
42 31 198
42 32 203
43 32 202
43 32 202
42 31 200
42 31 198
43 32 203
44 37 193
47 39 202
48 41 199
58 57 198
57 55 195
67 69 195
71 75 194
75 79 195
88 96 188
88 96 186
89 98 188
104 116 184
106 118 186
109 121 182
116 129 184
121 136 178
126 142 179
128 144 175
131 148 175
130 146 171
135 152 176
136 155 179
132 150 175
133 151 175
134 151 174
134 151 175
134 150 174
136 154 179
133 150 174
132 150 175
132 148 172
130 143 166
131 145 167
131 142 165
126 135 157
125 131 153
124 123 145
121 119 141
116 106 127
111 94 114
111 96 115
108 81 102
104 74 96
107 69 89
107 63 83
104 55 76
101 50 72
100 49 70
98 49 70
101 50 71
100 49 71
97 48 70
101 50 70
97 48 69
105 52 73
100 49 70
103 51 72
100 49 71
103 51 73
98 48 69
103 51 73
95 47 66
102 50 71
103 51 72
104 51 72
98 49 69
100 49 69
102 50 71
102 50 71
103 51 71
99 49 69
106 52 72
104 51 72
103 61 76
109 75 87
125 105 111
119 100 105
127 117 119
121 108 109
118 111 106
124 130 122
124 128 121
130 139 130
141 153 144
133 147 136
114 135 116
110 130 109
112 133 110
123 144 125
113 134 113
108 131 109
89 114 83
102 124 103
91 116 92
106 129 104
79 107 76
85 112 88
84 112 92
85 111 94
82 110 94
90 116 108
86 113 101
85 113 100
88 115 107
88 114 105
91 117 111
88 115 108
95 120 117
103 126 127
104 127 133
102 125 127
111 132 141
111 132 141
119 139 155
121 141 157
117 137 154
117 136 153
123 143 163
119 138 156
119 137 158
126 143 167
121 141 164
122 140 167
120 136 159
128 144 169
130 146 167
128 144 164
139 156 173
137 155 170
139 156 169
141 159 172
147 165 176
150 168 178
150 169 178
155 175 181
157 176 180
159 180 185
159 181 184
160 182 185
159 182 184
158 181 184
156 180 184
156 180 184
155 180 184
154 179 184
153 179 184
153 179 184
152 178 184
152 178 184
151 178 184
152 178 184
152 178 184
152 178 184
152 178 184
152 178 184
151 178 183
152 179 184
154 180 184
153 179 183
149 179 181
148 179 179
147 178 177
151 179 180
145 174 175
145 175 173
148 171 175
143 169 173
141 166 172
134 164 166
136 161 168
134 156 166
131 153 164
123 149 164
124 148 166
127 152 166
126 149 166
127 146 166
125 145 167
125 144 167
132 150 173
129 148 169
130 149 172
133 151 172
133 152 173
133 152 174
131 149 169
128 146 165
128 145 164
127 143 162
123 136 152
119 131 147
120 131 147
110 118 130
115 124 139
106 111 123
108 115 128
103 104 115
106 108 119
96 91 97
96 90 95
93 87 91
86 77 79
93 87 93
82 71 70
86 72 70
82 64 58
79 61 54
80 66 65
79 58 49
76 60 55
77 61 57
77 59 52
75 57 51
76 62 59
76 58 50
78 63 61
77 64 64
79 66 67
76 63 63
76 68 73
75 68 76
75 68 75
76 75 88
74 67 73
72 69 79
73 78 94
74 80 97
70 82 105
72 85 107
69 84 108
66 86 114
69 89 115
65 90 120
65 91 122
64 92 124
63 94 126
62 94 128
64 97 132
63 96 130
66 99 135
64 97 132
60 90 124
63 96 132
64 96 131
62 97 134
64 97 138
58 88 128
57 89 133
57 88 135
