P3
1600 1
255
148 91 117
145 91 115
146 92 116
138 94 117
145 99 122
133 86 108
133 90 111
142 95 118
143 109 131
141 105 128
131 93 112
131 94 115
128 86 106
127 85 106
106 69 86
114 76 95
109 83 101
121 80 98
115 75 95
103 71 91
116 87 106
114 84 105
112 76 94
115 83 101
102 69 90
106 74 96
108 90 111
109 83 102
107 80 100
111 90 114
105 86 111
109 92 116
101 83 115
100 84 112
94 74 104
97 86 118
91 82 120
94 84 123
86 83 124
88 83 122
91 89 133
91 94 135
72 78 126
83 88 134
73 84 133
84 91 136
68 78 125
61 72 123
65 75 128
64 74 125
62 73 126
63 73 121
68 79 129
75 87 132
83 95 138
90 103 142
88 101 140
99 113 147
105 120 155
118 135 165
116 131 163
126 144 169
125 143 172
134 152 177
133 151 176
137 156 181
138 156 181
137 156 181
138 157 181
138 156 181
137 156 181
137 156 181
138 156 181
137 155 180
139 157 181
138 156 181
138 156 181
138 157 181
138 156 181
138 156 181
136 155 179
137 155 180
136 154 179
138 156 181
137 156 181
137 156 181
137 156 181
137 156 181
136 155 180
138 156 180
134 154 178
132 153 178
134 154 179
128 151 176
134 154 179
132 152 176
129 151 175
128 150 175
136 155 179
131 152 177
130 152 177
133 154 178
129 151 176
132 153 177
134 154 178
134 154 179
135 155 180
136 152 175
137 149 172
139 148 170
139 139 159
142 135 153
145 131 146
142 128 143
142 122 135
150 118 127
150 108 115
154 97 97
157 85 79
153 76 65
155 76 65
158 72 56
156 68 50
164 71 52
156 68 51
154 68 54
155 68 54
156 68 59
155 69 59
150 66 57
143 63 60
149 65 67
135 60 69
136 60 71
137 60 70
152 67 64
132 59 75
131 58 72
128 57 76
133 59 75
130 57 77
138 61 73
132 58 74
134 59 77
118 52 81
122 54 76
134 60 75
134 59 76
118 53 77
128 56 74
127 56 79
128 56 67
145 64 66
132 67 68
132 68 65
141 77 69
115 80 77
130 94 74
130 101 75
120 99 72
123 109 73
129 111 71
121 111 71
119 124 75
125 126 76
112 127 76
112 127 76
105 121 72
104 123 73
109 129 78
112 131 78
111 130 77
114 132 78
112 128 75
110 128 76
107 125 74
111 132 79
108 124 73
109 128 76
106 125 74
110 127 75
114 132 77
105 123 74
110 128 76
110 129 77
112 132 78
111 130 77
107 125 75
109 129 77
113 137 82
111 132 79
111 131 78
108 129 77
112 134 80
110 132 77
114 137 81
110 133 79
102 128 74
99 124 71
97 130 72
95 123 69
87 125 66
82 123 62
79 122 62
81 126 74
74 125 65
72 122 75
80 130 92
80 126 99
83 131 105
97 137 128
95 135 125
105 141 138
113 143 148
120 149 158
122 147 160
130 153 170
134 155 174
132 153 174
134 155 176
137 155 180
138 157 181
138 156 181
138 157 181
138 156 180
138 156 180
137 155 179
137 156 177
134 154 174
131 154 170
129 152 166
126 155 157
124 149 155
116 148 138
112 144 129
111 141 120
114 141 121
110 132 106
111 133 96
109 131 91
109 132 82
104 129 78
116 133 82
118 124 78
121 120 76
122 120 80
113 109 74
119 117 83
124 101 75
117 103 87
114 93 83
115 88 83
111 70 86
114 75 86
112 71 89
102 58 102
110 48 94
104 40 97
91 27 100
92 28 99
89 27 100
78 24 104
88 27 105
71 23 112
55 19 114
68 22 109
58 20 112
43 17 113
37 15 117
39 15 109
17 13 118
2 11 113
3 12 117
3 12 118
3 12 115
3 12 122
2 11 111
3 12 117
3 12 118
2 11 112
3 12 116
3 12 117
3 11 114
3 12 117
3 11 112
3 12 116
2 11 111
16 21 115
24 27 119
30 32 121
55 58 129
55 58 125
72 74 136
65 68 130
88 90 146
94 97 147
99 104 153
102 106 152
112 119 160
117 125 165
126 137 171
128 137 171
128 141 172
134 146 178
135 150 179
134 150 178
138 155 181
135 151 177
136 152 177
138 155 179
136 150 174
135 149 174
133 141 165
131 139 163
128 132 158
128 131 157
122 118 144
123 119 145
122 117 144
122 122 148
119 106 133
116 92 121
120 103 131
119 101 129
115 91 121
114 86 117
116 90 120
114 89 118
113 82 113
113 84 116
112 80 112
107 72 104
113 87 117
110 80 111
112 84 114
116 93 123
113 86 116
116 94 123
116 98 126
117 99 127
111 88 117
114 91 121
118 109 136
120 110 137
123 115 141
119 112 137
122 116 143
123 119 145
124 129 153
126 130 155
132 145 170
134 147 171
135 151 176
135 151 176
134 150 175
138 156 180
138 157 181
137 156 181
137 156 181
137 156 181
137 156 180
138 156 181
137 156 181
137 156 181
138 156 180
138 156 181
138 156 181
137 156 181
139 157 181
137 156 181
137 156 181
136 155 179
138 156 180
136 155 180
137 155 179
137 156 181
137 156 181
137 156 181
137 156 181
137 155 180
138 156 181
137 156 181
137 155 180
137 156 181
138 156 181
137 155 178
137 156 181
137 156 181
138 157 181
136 156 181
137 155 179
138 156 180
137 156 181
138 157 181
137 155 180
136 156 180
135 156 179
137 158 182
134 158 180
135 162 184
130 159 181
136 165 187
131 160 180
131 162 185
130 161 182
133 168 187
117 153 166
113 152 165
110 154 164
110 154 162
103 145 152
99 143 147
102 142 148
103 145 152
112 152 167
95 138 144
96 138 148
103 139 155
89 131 138
99 139 154
100 136 158
103 137 163
95 131 153
94 133 153
81 121 138
84 122 142
81 119 138
78 114 132
79 113 132
75 114 129
79 114 134
71 108 121
60 99 104
53 91 86
55 95 93
35 79 47
31 77 41
28 77 35
30 76 33
31 72 27
31 71 27
32 70 24
32 70 23
32 67 21
33 67 19
34 67 18
32 65 17
33 67 18
32 64 17
32 64 17
32 64 17
32 64 17
31 63 17
34 67 18
33 65 17
32 65 17
33 66 18
33 66 18
33 66 18
33 66 18
33 65 17
34 67 18
34 68 18
34 67 23
37 67 36
44 70 53
45 70 60
50 70 73
52 71 77
57 74 86
63 79 97
62 78 97
60 75 95
66 77 103
73 81 117
76 86 122
75 84 120
72 80 116
81 89 132
75 81 119
76 82 120
80 87 126
80 87 129
83 91 131
83 90 130
83 90 131
80 87 126
82 89 129
77 83 120
80 88 128
81 88 128
81 88 127
82 89 130
85 92 133
85 93 136
85 92 134
83 90 131
83 91 131
84 92 134
83 90 131
82 89 131
85 93 135
85 93 129
83 90 121
87 95 117
85 93 111
88 93 113
86 96 106
82 89 88
89 103 95
80 89 77
82 91 69
84 92 70
81 84 59
77 82 44
80 84 42
82 85 44
80 82 44
78 78 43
80 80 44
83 82 46
83 82 46
79 78 44
83 82 46
79 78 44
82 80 45
79 77 44
84 79 49
84 78 49
84 78 48
90 79 53
90 78 54
87 73 54
88 74 55
93 76 57
94 76 58
91 75 57
92 74 58
94 76 59
93 75 60
95 76 59
98 78 61
97 77 60
95 75 59
86 70 55
88 72 56
89 73 56
91 74 58
87 71 54
95 78 60
93 75 58
93 76 58
97 77 60
95 77 59
90 73 56
91 75 56
87 72 56
98 79 61
90 73 57
101 80 62
89 72 56
90 73 56
89 74 56
91 75 58
96 77 61
91 73 56
84 68 53
89 72 56
90 73 55
91 73 56
90 72 55
88 73 55
94 76 58
94 76 59
91 73 57
90 72 56
94 75 58
87 72 54
92 74 57
98 79 61
87 71 55
91 72 56
92 75 57
95 75 58
100 80 61
93 74 57
95 77 59
93 75 58
92 74 57
95 76 60
96 77 60
92 74 56
91 73 56
86 70 54
94 74 58
90 72 55
95 75 58
96 78 59
94 74 58
90 72 55
91 73 56
96 77 60
100 79 62
88 70 54
85 69 54
90 72 56
95 79 62
112 99 94
122 117 120
144 145 157
160 165 181
169 173 190
175 185 202
188 197 216
198 211 230
195 210 228
192 207 224
195 211 227
197 212 231
199 213 230
201 216 233
212 227 247
210 225 245
211 226 247
210 224 246
211 226 247
211 226 247
207 221 242
211 225 246
213 227 248
213 226 247
212 225 245
215 230 249
216 230 250
213 228 248
212 228 246
213 230 247
216 231 252
220 234 255
216 231 251
213 228 248
214 229 249
216 231 251
211 225 245
218 233 253
213 228 248
215 229 249
219 234 254
218 233 253
217 231 251
216 230 250
219 232 253
217 231 251
219 233 254
220 235 255
216 229 250
216 232 251
218 233 252
215 230 248
212 229 246
217 233 251
216 232 251
206 222 239
215 228 249
217 231 251
220 235 255
213 226 248
216 230 249
215 228 249
215 229 250
218 233 253
211 226 245
219 234 253
216 231 250
215 231 250
216 231 249
217 231 252
214 228 247
212 226 245
217 230 250
217 231 251
217 231 251
218 232 252
215 229 249
218 232 252
214 229 248
217 231 251
220 234 254
215 228 250
218 232 253
216 229 250
216 228 250
219 233 253
218 232 252
220 234 254
219 233 253
218 233 252
220 235 254
217 231 252
220 235 254
220 234 253
219 233 253
217 231 250
217 232 251
219 234 253
215 229 248
218 233 251
219 233 253
216 231 250
221 235 255
219 234 254
219 233 253
218 231 252
218 232 253
219 232 253
219 233 252
220 234 254
218 231 251
218 232 252
214 228 248
213 227 248
212 225 246
213 227 247
217 231 250
217 231 251
215 229 248
216 229 249
216 230 250
215 229 249
214 228 247
214 227 247
218 232 251
213 226 246
217 231 250
216 230 249
216 231 250
216 231 250
211 227 246
214 229 248
216 231 251
217 232 251
212 226 246
215 228 248
217 231 251
218 232 252
216 230 250
218 231 251
217 231 251
214 228 247
215 231 249
217 231 251
217 232 251
217 231 251
219 234 253
216 231 251
215 230 251
216 231 251
219 233 252
215 229 248
212 226 246
215 229 249
219 233 252
214 227 247
215 229 248
215 228 247
215 229 248
215 229 248
218 232 251
215 228 247
219 233 253
216 230 249
217 231 249
217 231 250
218 232 250
217 231 250
216 228 246
218 231 250
218 231 249
219 233 252
203 214 228
129 143 134
139 142 140
182 179 177
185 182 181
185 182 181
184 182 181
184 182 181
184 182 181
184 182 181
184 182 181
183 181 181
183 181 181
183 181 181
183 181 181
183 181 181
182 181 181
182 181 181
182 181 181
182 181 181
182 181 181
181 181 181
181 180 181
181 180 181
181 180 181
181 180 181
181 180 181
181 180 181
180 180 181
180 180 181
180 180 181
180 180 181
180 180 181
180 180 181
180 180 181
180 179 181
179 179 181
179 179 181
179 179 181
179 179 181
179 179 181
179 179 181
179 179 181
179 179 181
178 179 181
178 179 181
178 179 181
178 179 181
178 179 181
178 179 181
178 179 181
178 179 181
178 179 181
178 178 181
177 178 181
177 178 181
177 178 181
177 178 181
177 178 181
177 178 181
177 178 181
177 178 181
177 178 181
177 178 181
176 178 181
176 178 181
176 178 181
176 178 181
176 178 181
176 178 181
176 178 181
176 178 181
176 178 181
176 178 181
176 177 181
176 177 181
175 177 181
175 177 181
175 177 181
175 177 181
175 177 181
175 177 181
175 177 181
175 177 181
175 177 181
175 177 181
175 177 181
175 177 181
174 177 181
174 177 181
174 177 181
174 177 181
174 177 181
174 177 181
174 177 181
174 177 181
174 177 181
174 177 181
174 177 181
174 177 181
174 176 181
174 176 181
174 176 181
173 176 181
173 176 181
173 176 181
173 176 181
173 176 181
173 176 181
173 176 181
173 176 181
173 176 181
173 176 181
173 176 181
173 176 181
173 176 181
173 176 181
173 176 181
173 176 181
172 176 181
172 176 181
172 176 181
172 176 181
172 176 181
172 176 181
172 176 181
172 176 181
172 176 181
172 176 181
172 176 181
172 176 181
172 176 181
172 176 181
172 176 181
172 175 181
172 175 181
172 175 181
172 175 181
171 175 181
171 175 181
171 175 181
171 175 181
171 175 181
171 175 181
171 175 181
171 175 181
171 175 181
171 175 181
171 175 181
171 175 181
171 175 181
171 175 181
171 175 181
171 175 181
171 175 181
171 175 181
171 175 181
171 175 181
171 175 181
171 175 181
171 175 181
170 175 181
170 175 181
170 175 181
170 175 181
170 175 181
170 175 181
170 175 181
170 175 181
170 175 181
170 175 181
170 175 181
170 175 181
170 175 181
170 175 181
170 175 181
170 175 181
170 175 181
170 175 181
170 175 181
170 175 181
170 175 181
170 175 181
170 175 181
170 174 181
170 174 181
170 174 181
170 174 181
170 174 181
169 174 181
170 174 181
169 174 181
169 174 181
169 174 181
169 174 181
169 174 181
169 174 181
169 174 181
169 174 181
169 174 181
169 174 181
169 174 181
169 174 181
169 174 181
169 174 181
169 174 181
169 174 181
169 174 181
169 174 181
169 174 181
169 174 181
169 174 181
169 174 181
169 174 181
169 174 181
169 174 181
169 174 181
169 174 181
169 174 181
169 174 181
169 174 181
169 174 181
169 174 181
169 174 181
169 174 181
169 174 181
169 174 181
169 174 181
169 174 181
169 174 181
169 174 181
169 174 181
169 174 181
169 174 181
169 174 181
169 174 181
169 174 181
169 174 181
169 174 181
169 174 181
169 174 181
169 174 181
169 174 181
169 174 181
169 174 181
169 174 181
169 174 181
169 174 181
169 174 181
168 174 181
168 174 181
168 174 181
168 174 181
168 174 181
168 174 181
168 174 181
168 174 181
168 174 181
168 174 181
168 174 181
168 174 181
168 174 181
168 174 181
168 174 181
168 174 181
168 174 181
168 174 181
168 174 181
168 174 181
168 174 181
168 174 181
168 174 181
168 174 181
168 174 181
168 174 181
168 174 181
168 174 181
168 174 181
168 174 181
168 174 181
168 174 181
168 174 181
168 174 181
168 174 181
168 174 181
169 174 181
168 174 181
168 174 181
169 174 181
169 174 181
168 174 181
169 174 181
169 174 181
169 174 181
169 174 181
169 174 181
169 174 181
169 174 181
169 174 181
169 174 181
169 174 181
169 174 181
169 174 181
169 174 181
169 174 181
169 174 181
169 174 181
169 174 181
169 174 181
169 174 181
169 174 181
169 174 181
169 174 181
169 174 181
169 174 181
169 174 181
169 174 181
169 174 181
169 174 181
169 174 181
169 174 181
169 174 181
169 174 181
169 174 181
169 174 181
169 174 181
169 174 181
169 174 181
169 174 181
169 174 181
169 174 181
169 174 181
169 174 181
169 174 181
169 174 181
169 174 181
169 174 181
169 174 181
169 174 181
169 174 181
169 174 181
169 174 181
169 174 181
169 174 181
169 174 181
169 174 181
170 174 181
170 174 181
170 174 181
170 174 181
170 174 181
170 174 181
170 174 181
170 175 181
170 175 181
170 175 181
170 175 181
170 175 181
170 175 181
170 175 181
170 175 181
170 175 181
170 175 181
170 175 181
170 175 181
170 175 181
170 175 181
170 175 181
170 175 181
170 175 181
170 175 181
170 175 181
170 175 181
170 175 181
170 175 181
171 175 181
171 175 181
171 175 181
171 175 181
171 175 181
171 175 181
171 175 181
171 175 181
171 175 181
171 175 181
171 175 181
171 175 181
171 175 181
171 175 181
171 175 181
171 175 181
171 175 181
171 175 181
171 175 181
171 175 181
171 175 181
171 175 181
171 175 181
171 175 181
172 175 181
172 175 181
172 175 181
172 176 181
172 176 181
172 176 181
172 176 181
172 176 181
172 176 181
172 176 181
172 176 181
172 176 181
172 176 181
172 176 181
172 176 181
172 176 181
172 176 181
172 176 181
173 176 181
173 176 181
173 176 181
173 176 181
173 176 181
173 176 181
173 176 181
173 176 181
173 176 181
173 176 181
173 176 181
173 176 181
173 176 181
173 176 181
173 176 181
173 176 181
174 176 181
174 176 181
174 177 181
174 177 181
174 177 181
174 177 181
174 177 181
174 177 181
174 177 181
174 177 181
174 177 181
174 177 181
174 177 181
174 177 181
175 177 181
175 177 181
175 177 181
175 177 181
175 177 181
175 177 181
175 177 181
175 177 181
175 177 181
175 177 181
175 177 181
175 177 181
176 177 181
176 177 181
176 178 181
176 178 181
176 178 181
176 178 181
176 178 181
176 178 181
176 178 181
176 178 181
176 178 181
176 178 181
177 178 181
177 178 181
177 178 181
177 178 181
177 178 181
177 178 181
177 178 181
177 178 181
177 178 181
177 178 181
178 178 181
178 179 181
178 179 181
178 179 181
178 179 181
178 179 181
178 179 181
178 179 181
178 179 181
179 179 181
179 179 181
179 179 181
179 179 181
179 179 181
179 179 181
179 179 181
179 179 181
180 180 181
180 180 181
180 180 181
180 180 181
180 180 181
180 180 181
180 180 181
181 180 181
181 180 181
181 180 181
181 180 181
181 180 181
181 180 181
181 180 181
182 181 181
182 181 181
182 181 181
182 181 181
182 181 181
183 181 181
183 181 181
183 181 181
183 181 181
183 181 181
184 182 181
184 182 181
184 182 181
184 182 181
185 182 181
185 182 181
185 183 181
177 175 174
139 150 161
76 121 168
64 120 175
55 114 170
56 113 169
69 110 151
67 110 151
73 103 137
70 102 142
82 107 140
73 95 149
80 93 135
77 87 139
76 86 149
69 73 151
71 70 147
60 54 170
61 55 161
57 52 172
53 47 176
47 38 190
44 35 187
42 31 196
41 31 196
41 30 191
42 31 196
41 31 193
41 30 194
41 31 193
41 31 195
41 30 193
40 30 193
41 31 195
41 30 192
42 31 194
41 31 195
42 31 199
41 30 191
41 31 197
40 30 189
41 31 198
42 31 198
41 31 196
40 30 190
42 31 197
40 29 187
41 31 192
41 30 190
42 31 196
44 37 187
55 52 194
65 66 184
72 76 194
87 94 181
88 96 184
99 111 185
96 108 182
105 117 180
111 124 174
115 129 180
120 135 180
131 147 175
127 143 174
132 148 174
132 149 172
134 152 175
132 150 175
131 149 172
133 151 175
133 150 174
133 149 173
132 147 171
131 146 169
131 145 168
132 145 167
122 128 149
121 120 142
121 122 143
119 116 137
112 94 115
110 96 115
108 88 107
99 71 90
103 61 81
100 51 73
96 47 68
98 48 68
91 45 65
101 50 71
95 47 67
101 49 71
101 50 72
99 49 69
92 45 64
99 49 70
100 49 70
99 49 69
99 49 70
94 47 67
102 51 71
97 48 68
103 50 72
99 49 70
99 49 69
95 47 66
99 49 70
101 50 70
101 49 70
94 46 66
100 49 70
98 48 66
99 49 69
91 47 63
95 51 66
97 57 66
92 56 62
87 59 59
87 64 57
78 66 50
87 74 63
89 86 70
80 82 56
77 84 60
79 94 63
89 105 79
80 100 70
72 97 58
79 103 68
71 101 62
62 92 47
61 94 46
44 84 4
52 89 29
44 84 4
47 85 21
44 84 4
44 83 4
44 83 4
44 83 4
44 84 4
43 83 4
44 84 4
45 85 4
46 85 18
47 86 18
48 86 26
47 87 18
54 90 44
57 93 48
75 105 84
65 97 68
66 97 71
65 95 65
83 110 100
91 115 110
85 112 103
97 120 123
97 119 122
107 128 136
107 129 137
107 127 138
114 133 151
116 136 151
121 139 156
124 141 157
131 147 164
129 145 163
139 156 165
134 149 160
140 155 164
145 161 170
144 160 167
152 168 170
158 175 177
156 172 175
163 182 181
163 181 180
165 185 184
164 185 184
163 184 184
162 183 184
162 184 184
161 183 184
160 182 184
159 182 184
159 182 184
157 181 184
158 181 184
157 181 184
156 180 184
152 178 181
151 179 181
147 177 180
148 178 180
136 173 171
138 174 174
139 175 175
129 172 169
137 176 175
123 172 166
125 171 166
125 173 167
125 172 166
115 171 161
125 174 167
115 170 160
120 174 163
119 171 161
117 171 160
120 170 163
121 167 163
116 162 158
108 164 158
113 159 159
110 160 156
107 155 154
114 160 158
109 156 157
117 151 158
108 150 154
117 150 162
117 156 164
121 154 167
123 150 164
128 154 171
127 151 166
123 148 164
124 141 159
127 142 162
112 124 137
112 121 134
112 120 132
103 104 113
102 106 116
98 101 109
92 91 98
91 87 91
84 79 80
82 71 69
78 60 53
76 61 55
76 57 48
75 53 41
75 54 42
74 53 41
75 54 41
72 51 39
76 54 42
75 54 41
74 53 41
74 53 40
73 53 41
77 55 42
77 55 42
78 55 42
75 53 41
76 54 42
76 54 42
77 54 42
75 54 41
77 55 42
78 55 42
76 54 42
77 55 42
76 56 46
75 58 53
76 63 63
74 59 57
72 63 67
74 72 83
71 65 72
72 73 87
71 74 89
69 80 102
68 79 100
68 84 108
64 80 104
64 88 117
63 90 120
65 96 130
62 91 124
60 91 124
62 93 125
59 90 123
61 92 124
62 93 127
52 81 117
53 82 120
57 86 127
64 94 131
56 83 127
