P3
1600 1
255
147 100 124
146 96 119
142 89 113
140 92 115
134 87 110
140 93 115
138 92 115
124 73 94
136 96 117
132 96 117
129 97 116
132 94 115
126 81 102
127 90 110
118 81 100
125 89 108
110 74 92
112 72 90
113 74 93
113 83 101
106 75 93
112 74 92
108 72 89
110 79 98
108 76 92
101 59 75
107 70 87
98 68 83
116 89 111
101 70 87
107 81 104
100 78 99
98 74 96
103 85 106
99 83 110
103 93 122
102 88 120
98 94 128
99 89 118
92 88 123
87 81 120
93 91 128
89 91 130
76 81 124
79 85 130
69 74 123
66 77 128
64 74 123
65 76 129
66 77 131
65 75 127
66 77 129
65 75 122
74 87 137
78 90 137
80 92 135
88 101 141
96 110 148
104 118 153
109 124 155
120 136 165
121 137 165
129 146 173
132 149 174
133 152 177
135 154 179
138 156 181
137 155 179
138 156 180
138 156 181
138 156 181
138 157 181
138 157 181
138 156 181
136 155 179
137 156 180
135 154 179
137 156 181
137 156 181
137 156 181
137 156 181
137 156 181
137 156 181
139 157 181
136 155 179
135 154 179
136 155 180
133 153 178
135 155 179
133 153 177
128 150 174
125 148 173
134 154 178
128 150 175
127 150 175
126 149 174
119 145 170
124 148 173
126 149 173
126 150 175
127 150 175
130 151 175
126 149 174
127 150 174
129 151 176
132 153 178
133 153 177
135 149 172
133 148 171
133 140 161
136 140 160
145 139 157
148 136 152
144 130 146
146 122 135
146 115 125
155 97 98
145 93 94
155 86 82
155 79 69
150 67 51
160 69 51
159 70 51
158 70 51
154 68 52
152 66 54
154 68 60
145 64 64
143 63 63
140 61 61
150 65 63
140 62 70
139 61 74
135 59 72
126 56 76
133 58 75
129 57 76
126 56 72
114 51 84
112 50 84
117 52 83
120 54 79
126 56 79
120 53 78
112 50 83
116 51 80
118 52 81
114 51 79
115 51 83
116 51 79
118 52 79
123 55 79
120 53 78
124 58 74
131 70 72
121 73 79
128 84 72
126 88 75
124 90 75
123 97 73
122 107 72
119 107 70
119 115 74
115 118 74
112 116 71
115 127 76
110 123 74
107 124 73
113 130 77
111 125 73
111 131 78
111 130 78
108 128 76
109 128 77
112 129 76
108 126 74
114 133 78
111 129 76
110 126 75
110 129 77
112 130 77
112 131 77
111 129 77
110 128 76
112 133 79
109 131 78
114 133 79
109 127 75
108 126 74
108 130 78
112 134 79
106 125 74
110 131 78
107 127 75
106 127 76
114 137 80
108 132 78
103 127 73
104 130 76
94 124 69
92 126 67
85 122 64
90 127 71
84 124 73
77 119 68
82 133 81
86 132 94
78 122 94
93 131 117
94 133 119
94 133 121
107 141 140
113 143 148
112 145 146
118 148 156
125 151 163
126 150 166
132 153 173
134 153 174
138 156 181
137 155 179
139 156 180
137 156 181
136 155 180
139 157 181
137 156 181
140 158 180
134 154 175
131 152 170
131 155 168
130 155 166
129 155 161
122 149 149
118 145 141
115 141 129
117 133 125
116 140 119
109 127 99
117 130 100
112 126 86
113 120 77
109 130 80
115 108 67
121 126 81
122 106 71
117 108 70
127 109 74
128 95 71
123 93 75
133 90 72
124 86 80
123 86 86
124 56 83
127 76 84
117 63 87
120 47 85
117 40 83
118 34 89
109 32 91
91 27 103
92 28 102
89 27 102
79 24 105
86 26 103
81 24 104
68 22 107
65 21 110
61 20 106
57 19 108
42 16 112
24 13 113
37 15 111
16 12 115
3 12 115
3 12 117
2 11 110
3 12 117
3 12 116
3 12 116
3 12 117
3 12 117
2 11 111
3 11 114
2 11 112
2 11 111
2 11 110
3 11 115
2 11 112
25 27 117
33 35 115
42 44 119
53 54 124
65 67 135
73 76 138
83 88 141
87 89 142
98 104 150
107 113 158
110 118 156
116 126 162
118 128 165
125 136 170
131 145 174
132 144 177
135 149 178
134 150 179
136 154 179
136 153 179
135 153 178
136 152 176
134 148 172
129 139 163
131 140 166
130 139 163
130 136 161
125 122 148
122 114 141
125 120 147
117 100 128
118 99 128
116 102 129
119 100 128
117 97 126
115 88 118
108 75 107
111 78 110
111 85 114
112 73 107
108 64 100
112 73 107
108 66 100
110 66 101
110 68 103
108 72 104
110 66 101
107 67 101
108 69 103
109 69 104
108 74 105
110 78 110
110 77 109
110 85 115
112 95 123
114 93 122
119 108 135
123 118 144
123 114 142
125 122 148
126 128 153
124 126 150
130 137 162
130 140 164
133 147 171
136 153 178
138 156 180
137 153 178
136 155 180
138 156 181
138 156 180
138 156 181
136 155 181
139 157 180
137 156 180
137 155 180
137 156 181
137 155 180
137 155 179
137 156 181
138 156 180
137 156 181
137 156 181
137 156 180
137 156 180
137 155 180
137 156 181
137 155 180
138 156 181
137 156 181
137 155 179
137 156 180
137 156 181
138 156 181
137 156 181
137 155 179
138 156 180
136 155 181
138 156 181
138 156 180
137 156 180
138 156 181
137 155 180
137 156 181
137 156 180
136 155 178
135 154 179
137 156 180
136 157 181
137 159 182
136 158 182
133 156 177
133 159 182
130 158 179
130 160 181
133 163 186
126 159 178
121 156 172
116 149 162
106 144 156
105 146 158
95 138 145
103 145 151
97 142 146
92 133 139
82 125 132
91 135 137
90 134 140
80 125 126
77 123 123
82 126 133
68 116 115
75 118 123
75 119 123
89 128 143
85 122 143
66 112 116
82 121 140
87 123 147
83 119 141
67 111 119
73 114 128
58 105 105
60 101 105
46 93 83
45 92 79
40 88 66
30 79 43
26 80 39
28 76 34
27 80 37
29 76 34
29 76 34
31 72 27
31 71 27
31 67 23
31 66 21
33 68 20
33 65 17
31 62 17
33 66 18
32 64 17
33 65 17
33 65 17
33 66 18
33 66 18
33 65 17
33 65 17
33 64 17
32 65 17
33 65 17
32 64 17
33 65 17
33 65 17
31 62 17
34 66 18
33 64 23
36 65 36
44 69 56
43 67 58
42 66 54
51 71 75
56 74 84
49 69 71
55 69 83
67 79 106
67 77 105
69 80 111
74 83 120
80 87 126
78 86 124
82 89 131
78 85 124
76 83 121
76 83 120
77 82 119
76 83 120
80 87 126
82 89 129
78 85 124
77 85 124
83 91 131
84 92 132
83 90 130
80 86 124
81 88 128
81 89 129
80 87 127
82 90 132
79 86 125
78 85 123
82 89 130
86 93 135
85 92 131
83 89 122
85 92 118
85 93 113
84 93 109
85 92 111
83 91 98
84 91 99
81 90 78
84 87 70
83 89 71
81 86 66
81 85 50
83 87 51
80 83 43
79 82 41
80 81 43
82 82 45
79 78 44
84 82 46
82 80 45
85 83 46
80 79 45
84 82 46
82 80 46
84 81 48
88 82 50
84 79 48
80 73 47
93 80 55
85 75 51
91 75 57
91 76 56
89 73 55
93 74 56
98 79 61
96 77 60
92 74 58
90 72 56
85 70 55
95 77 60
88 71 56
94 76 59
88 71 55
89 74 56
95 76 59
89 73 57
90 74 57
89 72 56
95 77 59
85 70 53
92 74 58
86 72 54
93 75 58
98 79 61
94 76 58
86 71 55
94 75 58
93 74 58
88 70 53
88 72 56
89 72 55
92 74 57
90 73 57
92 74 58
89 72 54
88 73 55
94 76 59
94 76 59
87 71 54
86 70 53
90 73 56
92 74 57
89 74 56
89 73 56
90 72 57
89 73 56
90 73 56
99 79 61
94 75 58
86 70 54
92 74 57
92 74 58
88 70 55
93 75 58
94 75 58
92 74 57
87 72 55
91 74 56
92 74 57
94 74 58
91 73 56
92 74 57
87 71 55
87 69 54
99 78 61
92 74 57
93 75 59
88 70 54
88 71 54
95 76 59
94 76 59
94 74 57
91 73 57
102 81 63
97 76 61
112 106 107
109 107 107
136 137 148
140 140 153
165 172 191
175 187 206
196 207 227
198 211 231
191 206 225
175 191 207
188 204 220
198 213 231
203 218 235
198 213 230
204 219 237
206 221 241
210 225 246
211 225 246
207 221 243
208 223 243
205 221 241
211 226 247
215 229 250
212 226 246
217 232 252
215 230 251
217 231 252
217 231 251
215 230 250
213 230 247
216 231 251
217 231 252
218 232 253
214 228 248
216 231 251
214 229 249
217 232 252
216 230 251
216 231 251
216 231 251
217 232 252
209 224 244
213 230 248
219 234 254
217 231 251
215 230 250
216 229 249
216 230 250
217 229 249
216 229 249
215 229 248
217 232 251
218 234 253
214 229 248
211 226 244
218 233 253
217 231 251
214 228 249
215 230 250
217 232 252
219 233 253
219 233 254
215 229 250
216 231 251
212 226 245
218 233 252
220 234 254
215 231 249
217 232 251
214 229 248
218 231 251
220 233 253
218 232 251
218 232 252
219 233 253
219 234 254
218 232 252
216 231 251
221 235 255
217 230 251
217 230 251
217 230 251
219 233 254
219 233 254
219 233 254
220 234 254
218 232 252
218 232 252
217 231 252
217 232 252
219 233 254
215 229 248
218 232 252
219 233 253
220 234 254
217 231 250
216 230 249
219 233 252
217 231 250
214 229 247
217 231 251
219 233 253
217 231 251
218 231 251
217 231 251
220 234 254
219 233 254
216 228 250
216 229 250
218 232 252
218 232 252
218 231 252
218 232 251
217 231 250
215 229 248
216 230 249
212 226 246
214 229 248
215 230 249
215 229 249
211 226 245
216 230 250
218 232 251
217 232 251
215 229 249
219 233 253
217 232 251
215 230 249
215 231 251
218 232 251
210 225 244
216 231 251
219 233 253
214 228 248
215 230 249
220 235 254
217 230 250
214 228 248
217 231 251
219 233 252
215 228 248
215 228 248
213 227 246
216 230 249
214 228 248
218 232 252
215 230 250
216 231 250
216 230 250
216 230 250
215 229 249
216 230 250
218 232 251
217 231 250
216 230 250
217 231 250
218 232 252
219 233 252
219 233 252
214 227 246
216 230 249
217 230 250
213 227 246
213 227 246
219 232 252
217 230 249
218 232 250
217 231 249
214 227 245
219 233 252
218 231 250
219 233 252
198 208 220
124 137 131
148 149 146
185 183 181
185 182 181
185 182 181
185 182 181
184 182 181
184 182 181
184 182 181
184 182 181
183 181 181
183 181 181
183 181 181
183 181 181
183 181 181
182 181 181
182 181 181
182 181 181
182 181 181
182 181 181
182 181 181
181 180 181
181 180 181
181 180 181
181 180 181
181 180 181
181 180 181
181 180 181
180 180 181
180 180 181
180 180 181
180 180 181
180 180 181
180 180 181
180 180 181
179 179 181
179 179 181
179 179 181
179 179 181
179 179 181
179 179 181
179 179 181
179 179 181
179 179 181
178 179 181
178 179 181
178 179 181
178 179 181
178 179 181
178 179 181
178 179 181
178 179 181
178 179 181
178 178 181
177 178 181
177 178 181
177 178 181
177 178 181
177 178 181
177 178 181
177 178 181
177 178 181
177 178 181
177 178 181
176 178 181
176 178 181
176 178 181
176 178 181
176 178 181
176 178 181
176 178 181
176 178 181
176 178 181
176 178 181
176 178 181
176 177 181
175 177 181
175 177 181
175 177 181
175 177 181
175 177 181
175 177 181
175 177 181
175 177 181
175 177 181
175 177 181
175 177 181
175 177 181
175 177 181
175 177 181
174 177 181
174 177 181
174 177 181
174 177 181
174 177 181
174 177 181
174 177 181
174 177 181
174 177 181
174 177 181
174 177 181
174 177 181
174 176 181
174 176 181
173 176 181
173 176 181
173 176 181
173 176 181
173 176 181
173 176 181
173 176 181
173 176 181
173 176 181
173 176 181
173 176 181
173 176 181
173 176 181
173 176 181
173 176 181
173 176 181
173 176 181
172 176 181
172 176 181
172 176 181
172 176 181
172 176 181
172 176 181
172 176 181
172 176 181
172 176 181
172 176 181
172 176 181
172 176 181
172 176 181
172 176 181
172 176 181
172 176 181
172 175 181
172 175 181
172 175 181
172 175 181
171 175 181
171 175 181
171 175 181
171 175 181
171 175 181
171 175 181
171 175 181
171 175 181
171 175 181
171 175 181
171 175 181
171 175 181
171 175 181
171 175 181
171 175 181
171 175 181
171 175 181
171 175 181
171 175 181
171 175 181
171 175 181
171 175 181
171 175 181
171 175 181
170 175 181
170 175 181
170 175 181
170 175 181
170 175 181
170 175 181
170 175 181
170 175 181
170 175 181
170 175 181
170 175 181
170 175 181
170 175 181
170 175 181
170 175 181
170 175 181
170 175 181
170 175 181
170 175 181
170 175 181
170 175 181
170 175 181
170 175 181
170 175 181
170 174 181
170 174 181
170 174 181
170 174 181
170 174 181
170 174 181
170 174 181
170 174 181
169 174 181
169 174 181
169 174 181
169 174 181
169 174 181
169 174 181
169 174 181
169 174 181
169 174 181
169 174 181
169 174 181
169 174 181
169 174 181
169 174 181
169 174 181
169 174 181
169 174 181
169 174 181
169 174 181
169 174 181
169 174 181
169 174 181
169 174 181
169 174 181
169 174 181
169 174 181
169 174 181
169 174 181
169 174 181
169 174 181
169 174 181
169 174 181
169 174 181
169 174 181
169 174 181
169 174 181
169 174 181
169 174 181
169 174 181
169 174 181
169 174 181
169 174 181
169 174 181
169 174 181
169 174 181
169 174 181
169 174 181
169 174 181
169 174 181
169 174 181
169 174 181
169 174 181
169 174 181
169 174 181
169 174 181
169 174 181
169 174 181
169 174 181
169 174 181
169 174 181
169 174 181
169 174 181
169 174 181
169 174 181
169 174 181
169 174 181
169 174 181
169 174 181
169 174 181
169 174 181
169 174 181
169 174 181
169 174 181
169 174 181
169 174 181
169 174 181
169 174 181
169 174 181
169 174 181
169 174 181
169 174 181
169 174 181
169 174 181
169 174 181
169 174 181
169 174 181
169 174 181
169 174 181
169 174 181
169 174 181
169 174 181
169 174 181
169 174 181
169 174 181
169 174 181
169 174 181
169 174 181
169 174 181
169 174 181
169 174 181
169 174 181
169 174 181
169 174 181
169 174 181
169 174 181
169 174 181
169 174 181
169 174 181
169 174 181
169 174 181
169 174 181
169 174 181
169 174 181
169 174 181
169 174 181
169 174 181
169 174 181
169 174 181
169 174 181
169 174 181
169 174 181
169 174 181
169 174 181
169 174 181
169 174 181
169 174 181
169 174 181
169 174 181
169 174 181
169 174 181
169 174 181
169 174 181
169 174 181
169 174 181
169 174 181
169 174 181
169 174 181
169 174 181
169 174 181
169 174 181
169 174 181
169 174 181
170 174 181
170 174 181
170 174 181
170 174 181
170 174 181
170 174 181
170 175 181
170 175 181
170 175 181
170 175 181
170 175 181
170 175 181
170 175 181
170 175 181
170 175 181
170 175 181
170 175 181
170 175 181
170 175 181
170 175 181
170 175 181
170 175 181
170 175 181
170 175 181
170 175 181
170 175 181
170 175 181
170 175 181
170 175 181
170 175 181
170 175 181
171 175 181
171 175 181
171 175 181
171 175 181
171 175 181
171 175 181
171 175 181
171 175 181
171 175 181
171 175 181
171 175 181
171 175 181
171 175 181
171 175 181
171 175 181
171 175 181
171 175 181
171 175 181
171 175 181
171 175 181
171 175 181
171 175 181
171 175 181
171 175 181
172 175 181
172 175 181
172 175 181
172 176 181
172 176 181
172 176 181
172 176 181
172 176 181
172 176 181
172 176 181
172 176 181
172 176 181
172 176 181
172 176 181
172 176 181
172 176 181
172 176 181
172 176 181
172 176 181
173 176 181
173 176 181
173 176 181
173 176 181
173 176 181
173 176 181
173 176 181
173 176 181
173 176 181
173 176 181
173 176 181
173 176 181
173 176 181
173 176 181
173 176 181
173 176 181
174 176 181
174 176 181
174 176 181
174 177 181
174 177 181
174 177 181
174 177 181
174 177 181
174 177 181
174 177 181
174 177 181
174 177 181
174 177 181
174 177 181
174 177 181
175 177 181
175 177 181
175 177 181
175 177 181
175 177 181
175 177 181
175 177 181
175 177 181
175 177 181
175 177 181
175 177 181
175 177 181
175 177 181
176 177 181
176 177 181
176 178 181
176 178 181
176 178 181
176 178 181
176 178 181
176 178 181
176 178 181
176 178 181
176 178 181
177 178 181
177 178 181
177 178 181
177 178 181
177 178 181
177 178 181
177 178 181
177 178 181
177 178 181
177 178 181
177 178 181
178 178 181
178 179 181
178 179 181
178 179 181
178 179 181
178 179 181
178 179 181
178 179 181
178 179 181
179 179 181
179 179 181
179 179 181
179 179 181
179 179 181
179 179 181
179 179 181
179 179 181
180 179 181
180 180 181
180 180 181
180 180 181
180 180 181
180 180 181
180 180 181
180 180 181
181 180 181
181 180 181
181 180 181
181 180 181
181 180 181
181 180 181
182 181 181
182 181 181
182 181 181
182 181 181
182 181 181
182 181 181
183 181 181
183 181 181
183 181 181
183 181 181
183 181 181
184 182 181
184 182 181
184 182 181
184 182 181
185 182 181
185 182 181
185 183 181
181 179 177
149 153 156
100 131 166
73 119 168
67 116 164
59 108 160
66 112 159
70 118 168
80 115 155
74 98 127
73 96 149
84 105 147
77 86 139
78 90 147
77 79 147
61 63 153
74 74 148
59 54 171
61 57 166
52 45 182
49 42 187
44 36 184
40 30 189
40 30 189
40 30 192
41 31 194
39 29 181
42 31 198
41 30 191
41 31 192
40 30 189
42 31 198
40 30 188
41 31 195
41 30 192
41 31 196
41 31 194
41 31 195
42 31 194
41 30 192
40 30 190
41 30 193
40 30 190
41 30 192
39 29 186
41 30 192
40 30 188
40 30 190
39 32 186
41 36 197
44 42 190
48 48 188
53 54 182
75 85 185
74 80 185
78 87 182
84 96 178
96 110 180
98 109 174
108 126 180
110 128 175
120 135 176
121 138 176
128 146 174
130 148 175
131 148 173
135 153 176
132 150 174
133 149 173
135 151 175
136 153 177
132 150 174
133 149 173
131 148 172
126 139 161
126 136 159
122 127 149
118 115 135
116 113 133
115 112 132
106 91 111
108 88 107
100 69 88
102 67 86
99 63 82
98 52 72
95 47 66
99 49 69
94 46 67
99 49 70
95 47 67
90 44 64
97 48 69
100 49 70
97 48 70
97 47 67
92 46 65
98 48 69
98 48 69
100 49 70
92 46 66
96 47 67
95 47 66
96 47 68
94 46 66
97 48 67
100 49 69
98 49 68
95 47 66
101 50 70
100 49 69
99 48 68
96 49 66
92 50 63
92 54 62
93 57 63
93 58 63
79 61 53
87 63 57
84 71 56
82 70 58
78 72 55
72 77 49
70 82 49
69 85 48
65 89 48
76 96 63
53 83 27
66 94 53
63 94 47
54 89 36
47 84 21
43 82 4
44 83 4
44 83 4
44 84 4
44 83 4
44 84 4
45 85 4
44 83 4
43 83 4
43 82 4
44 84 4
43 83 4
44 84 4
43 83 4
45 85 4
50 88 31
46 85 18
56 92 44
51 85 42
59 92 54
54 90 45
58 92 57
69 99 75
85 111 100
88 112 104
89 111 109
91 114 112
97 119 122
99 123 128
102 122 129
112 132 146
114 134 146
117 135 149
125 141 155
127 145 160
128 142 156
133 147 158
136 152 162
138 152 158
145 158 163
141 155 161
157 174 177
156 171 172
161 177 177
156 172 171
165 183 181
167 186 184
165 184 183
164 185 184
163 184 184
163 183 183
162 184 184
160 182 184
160 182 184
160 182 184
159 182 184
159 182 184
159 181 183
155 181 182
151 179 180
149 180 179
146 177 178
134 174 171
139 176 174
139 175 174
134 173 171
127 171 168
127 172 169
124 170 165
122 171 165
118 170 162
113 169 160
116 173 163
114 171 161
110 170 158
109 170 158
121 172 162
122 172 161
117 167 160
109 165 156
106 163 156
109 164 155
106 162 155
109 158 154
105 153 152
108 157 159
108 159 159
110 156 160
110 155 158
113 157 163
109 153 155
115 151 160
118 152 162
119 152 162
120 150 163
118 144 156
115 139 150
115 127 141
112 124 139
112 123 134
108 116 129
107 112 122
101 105 115
94 92 97
87 81 85
83 73 72
80 67 63
80 66 64
76 58 50
75 55 44
71 51 40
75 53 41
74 53 41
74 53 41
76 54 42
76 54 42
75 54 41
72 52 40
75 53 41
74 53 41
76 54 42
75 53 41
75 54 41
76 54 42
76 55 42
76 54 42
73 52 40
73 53 40
76 54 42
73 52 40
74 53 41
76 54 42
75 54 41
75 54 41
78 56 44
77 54 43
74 58 54
72 61 64
71 63 68
74 67 72
71 64 72
71 72 87
68 73 89
65 76 97
68 76 95
63 82 109
62 83 109
64 87 116
61 84 113
59 87 118
62 92 125
62 95 129
60 91 124
57 88 122
60 91 124
59 88 126
60 88 126
57 84 123
64 91 133
65 91 134
