P3
1600 1
255
132 83 103
130 83 103
128 93 111
136 95 114
126 80 99
128 86 105
131 83 104
120 75 94
130 84 106
131 83 104
128 81 104
134 84 106
129 82 103
121 72 92
126 76 97
121 78 97
128 74 95
121 71 91
120 67 86
120 77 97
125 77 97
118 78 97
115 77 96
120 77 97
116 75 95
115 73 91
112 75 92
110 62 79
99 65 80
110 75 92
92 49 63
101 53 68
99 61 75
102 60 74
113 78 93
98 57 69
103 63 78
107 78 92
109 88 102
103 75 94
109 79 98
96 71 94
111 91 111
94 81 105
95 87 111
91 80 107
87 82 118
67 65 104
77 80 122
62 64 103
68 74 117
70 79 124
58 68 114
60 69 115
73 84 128
72 84 126
90 103 137
89 102 136
105 120 151
98 112 143
111 126 154
121 137 164
125 142 169
129 146 172
130 147 173
137 154 179
134 153 178
137 156 181
137 156 181
137 156 181
137 156 180
137 156 181
137 156 181
139 157 181
132 152 177
131 152 177
130 151 176
123 147 172
122 147 171
116 142 167
114 141 165
109 138 164
113 141 166
95 131 157
96 131 156
87 125 151
89 129 156
85 126 153
84 124 150
83 124 150
79 122 148
67 118 146
68 118 145
65 116 144
66 117 144
70 117 144
66 116 143
62 113 140
63 116 144
68 119 146
56 112 139
59 116 144
69 119 146
70 117 143
76 120 147
70 118 145
74 120 147
71 117 144
89 119 144
100 115 137
84 114 139
98 114 136
105 103 121
114 104 119
120 100 114
113 96 109
126 93 103
117 77 86
121 73 81
125 71 78
120 66 77
125 57 69
125 60 71
119 54 70
107 47 77
110 48 73
107 47 79
95 42 78
98 43 85
88 40 88
79 36 88
77 36 90
77 35 92
72 33 93
72 33 94
69 32 90
71 33 93
70 32 91
70 33 91
71 33 92
69 32 90
73 33 94
72 33 94
72 33 93
71 33 92
72 33 92
73 33 93
71 33 91
73 34 95
73 34 95
71 33 92
72 33 92
70 31 88
71 32 91
75 34 95
71 32 91
74 34 89
77 37 91
79 46 87
90 59 89
83 58 88
91 78 82
90 76 83
90 82 85
83 76 80
92 91 79
95 99 78
91 96 74
97 107 78
99 111 73
95 105 68
98 109 65
102 119 71
98 114 68
101 117 69
98 113 68
105 124 74
102 118 70
104 119 70
102 120 72
101 118 70
97 112 66
95 111 66
99 116 69
100 119 71
94 111 65
95 110 65
107 126 76
102 121 72
96 114 68
101 121 72
99 117 69
98 115 69
100 121 72
96 116 68
108 130 81
107 129 87
106 129 94
107 130 95
107 130 110
109 132 114
112 135 120
113 137 130
109 134 122
111 137 134
117 142 144
117 139 146
126 148 160
120 144 160
123 146 161
126 149 167
127 149 166
130 151 170
134 154 176
136 155 179
135 154 179
137 156 180
136 155 178
136 154 178
134 153 177
137 156 180
137 156 180
137 156 180
135 154 177
136 155 177
137 150 174
137 156 180
136 151 173
142 143 165
136 139 161
137 134 150
141 119 134
138 112 126
142 103 113
140 91 100
146 88 96
147 88 97
147 76 77
150 62 64
147 55 58
153 55 55
150 47 50
149 43 48
154 43 50
150 42 48
154 43 50
152 43 49
153 43 50
155 43 50
153 43 49
157 44 50
148 42 48
151 43 49
156 44 50
151 42 49
148 41 48
152 43 49
152 43 49
154 43 50
148 41 47
153 43 49
153 43 51
146 41 47
140 39 51
149 42 62
134 37 62
139 39 55
125 36 76
118 33 78
123 35 71
114 33 78
102 30 86
89 26 87
78 24 89
75 23 101
70 22 101
59 19 95
60 20 104
23 12 107
2 10 101
2 11 108
2 11 106
2 10 104
2 11 108
2 11 110
2 10 102
2 10 102
2 10 104
2 11 107
2 11 107
2 11 105
23 28 101
33 38 110
53 61 119
68 75 129
83 96 138
88 99 142
105 119 156
107 122 157
107 121 156
112 126 157
124 140 170
126 141 169
130 145 168
130 142 167
130 140 165
125 131 155
125 125 150
127 131 156
122 118 143
120 115 141
114 102 128
112 99 125
108 77 106
103 61 93
106 60 95
101 46 83
102 41 81
100 35 78
99 34 77
98 34 76
100 35 78
100 35 77
103 36 80
100 35 77
96 33 75
101 36 80
100 35 78
96 34 76
100 35 79
97 34 77
102 36 80
94 33 74
100 35 79
97 34 76
95 34 75
98 35 77
95 34 76
97 34 76
97 34 77
95 34 76
99 35 78
100 35 78
94 34 75
98 35 77
94 33 75
94 33 74
97 49 84
102 59 93
106 79 108
111 92 120
107 87 114
114 99 127
120 113 140
121 120 145
123 128 153
127 133 158
129 138 162
133 148 171
133 149 172
136 154 178
137 156 180
137 155 180
138 156 180
135 154 179
138 156 181
138 156 179
136 155 179
136 155 179
136 155 179
136 155 179
135 154 178
138 156 180
135 155 180
137 156 179
136 155 179
137 156 180
138 157 180
136 155 179
137 155 179
137 156 181
136 155 180
137 156 180
137 156 180
135 155 179
137 156 180
136 155 180
138 156 180
137 156 180
138 156 180
134 153 176
136 155 179
138 156 179
134 153 177
136 155 179
139 157 180
132 152 175
131 151 172
126 147 166
122 144 162
121 146 164
110 138 151
104 133 143
96 131 137
82 120 121
76 118 114
67 112 103
47 105 85
48 102 85
43 104 81
26 94 64
13 91 56
5 89 54
5 92 55
5 92 55
5 88 53
5 90 54
5 91 54
5 90 53
5 88 53
5 92 55
5 88 53
13 93 57
11 87 54
27 90 64
34 88 68
34 89 68
45 85 78
45 86 77
49 84 79
44 86 75
57 84 88
55 86 87
54 85 85
61 80 91
57 79 85
48 79 75
59 81 88
61 82 88
63 78 91
55 76 80
62 77 88
56 76 78
66 70 88
55 70 72
53 69 67
51 70 66
43 69 49
51 61 62
47 62 53
42 62 43
38 63 36
34 59 28
31 58 21
31 61 16
31 61 16
31 61 16
31 61 16
29 59 16
29 58 15
29 58 15
29 56 15
30 60 16
30 60 16
31 61 16
29 58 15
30 61 16
31 60 19
32 62 22
34 59 34
41 61 52
44 62 62
42 60 59
51 69 72
52 68 74
56 67 84
58 70 92
65 76 102
66 74 104
68 75 110
68 75 111
65 70 102
69 75 109
73 79 115
69 75 109
73 79 114
71 78 113
71 76 110
71 77 112
69 75 109
73 80 116
77 84 122
73 80 116
73 79 116
74 80 116
73 80 119
75 81 118
75 82 119
76 81 113
78 83 112
73 77 99
71 74 95
76 79 92
75 77 96
77 80 91
73 73 74
75 75 66
79 79 65
74 74 57
82 80 52
76 75 46
77 75 42
79 76 43
77 76 43
80 77 43
79 77 44
73 71 40
73 71 40
71 70 40
80 78 44
75 73 42
71 69 40
76 74 42
74 72 41
72 70 43
77 76 53
69 69 64
69 68 63
70 69 70
66 65 95
63 61 95
64 60 90
68 63 98
76 65 94
71 63 96
76 64 96
79 66 95
81 66 87
89 71 84
84 68 72
85 68 61
85 67 57
90 72 56
92 74 57
87 70 54
86 69 55
87 73 55
90 71 56
85 69 54
90 74 57
89 71 56
86 70 54
93 75 58
83 67 53
80 69 51
90 73 56
88 71 55
80 67 51
89 72 56
87 73 55
82 69 53
92 75 58
88 71 55
81 69 51
87 72 54
85 70 53
92 74 57
87 70 54
94 76 58
85 70 54
88 71 55
94 76 58
97 79 61
89 72 56
83 68 52
98 78 61
87 71 54
80 66 51
85 69 54
90 74 56
91 72 56
82 68 53
94 75 60
90 73 56
86 69 53
88 72 55
92 75 57
93 74 57
93 74 57
93 74 57
95 76 58
94 74 58
91 74 56
80 64 50
96 76 60
91 73 57
90 72 57
88 72 55
94 75 59
91 73 56
89 72 55
91 73 56
85 68 53
100 78 61
93 73 57
91 73 56
95 75 59
95 82 72
96 84 79
127 123 129
133 135 146
151 157 173
166 175 195
181 198 217
180 197 216
187 208 225
196 214 233
199 216 236
197 214 234
201 217 237
202 217 238
208 224 245
202 218 239
207 223 244
210 226 247
208 224 245
211 226 248
207 223 244
211 227 248
208 226 246
211 227 248
213 230 251
209 222 242
213 227 247
211 224 244
210 225 245
213 228 249
214 229 249
214 230 251
214 229 250
217 232 254
214 229 250
214 229 250
213 228 249
212 226 247
214 229 249
215 230 250
216 231 252
211 226 246
215 231 251
214 229 250
214 230 250
213 228 248
215 230 250
216 230 251
215 230 251
215 230 251
217 232 253
218 233 254
217 232 253
217 231 252
215 229 250
217 231 252
216 229 250
214 228 249
216 231 252
215 230 251
215 230 251
214 229 249
216 231 252
215 230 251
213 228 249
215 230 251
211 226 246
214 229 250
218 233 254
215 229 251
218 233 254
216 230 252
218 233 254
217 232 252
216 231 252
219 234 255
217 231 252
218 232 253
217 231 252
217 232 252
218 232 253
215 230 251
215 230 251
218 233 254
213 228 249
217 232 253
217 232 253
215 230 251
217 232 254
215 230 251
219 234 255
215 229 250
219 234 255
215 230 250
215 229 250
216 230 251
214 229 248
212 226 246
217 231 251
216 231 251
217 230 251
216 228 249
216 230 250
217 232 252
220 234 254
216 230 249
216 230 250
218 233 253
218 233 254
214 227 248
215 229 250
217 231 252
219 234 254
218 233 253
214 228 249
217 231 252
220 234 255
218 233 253
217 232 252
215 230 250
214 229 248
215 230 249
216 231 251
216 230 250
217 231 251
210 225 244
218 232 252
213 228 248
216 230 250
213 227 248
217 232 252
213 228 249
215 229 250
215 229 250
214 229 251
213 227 248
209 223 244
212 227 248
212 227 247
217 232 251
215 230 248
216 231 250
217 231 251
214 229 248
218 232 252
215 229 248
216 229 249
213 226 246
216 225 244
215 225 244
219 232 252
216 230 250
217 230 249
217 231 250
214 228 247
217 229 249
217 231 250
216 230 249
217 231 251
218 232 252
217 231 251
219 233 253
215 229 248
214 229 248
217 232 252
216 230 250
212 226 246
212 227 246
216 230 250
217 231 251
211 222 238
182 185 188
161 163 160
181 178 177
186 183 181
185 182 181
185 182 181
185 182 181
185 182 181
184 182 181
184 182 181
184 182 181
184 182 181
184 182 181
183 182 181
183 181 181
183 181 181
183 181 181
183 181 181
183 181 181
182 181 181
182 181 181
182 181 181
182 181 181
182 181 181
182 181 181
182 181 181
182 181 181
181 180 181
181 180 181
181 180 181
181 180 181
181 180 181
181 180 181
181 180 181
181 180 181
180 180 181
180 180 181
180 180 181
180 180 181
180 180 181
180 180 181
180 180 181
180 180 181
180 180 181
180 179 181
179 179 181
179 179 181
179 179 181
179 179 181
179 179 181
179 179 181
179 179 181
179 179 181
179 179 181
179 179 181
178 179 181
178 179 181
178 179 181
178 179 181
178 179 181
178 179 181
178 179 181
178 179 181
178 179 181
178 179 181
178 179 181
178 178 181
177 178 181
177 178 181
177 178 181
177 178 181
177 178 181
177 178 181
177 178 181
177 178 181
177 178 181
177 178 181
177 178 181
177 178 181
177 178 181
176 178 181
176 178 181
176 178 181
176 178 181
176 178 181
176 178 181
176 178 181
176 178 181
176 178 181
176 178 181
176 178 181
176 178 181
176 178 181
176 177 181
176 177 181
175 177 181
175 177 181
175 177 181
175 177 181
175 177 181
175 177 181
175 177 181
175 177 181
175 177 181
175 177 181
175 177 181
175 177 181
175 177 181
175 177 181
175 177 181
175 177 181
175 177 181
174 177 181
174 177 181
174 177 181
174 177 181
174 177 181
174 177 181
174 177 181
174 177 181
174 177 181
174 177 181
174 177 181
174 177 181
174 177 181
174 177 181
174 177 181
174 177 181
174 176 181
174 176 181
174 176 181
174 176 181
173 176 181
173 176 181
173 176 181
173 176 181
173 176 181
173 176 181
173 176 181
173 176 181
173 176 181
173 176 181
173 176 181
173 176 181
173 176 181
173 176 181
173 176 181
173 176 181
173 176 181
173 176 181
173 176 181
173 176 181
173 176 181
173 176 181
173 176 181
172 176 181
172 176 181
172 176 181
172 176 181
172 176 181
172 176 181
172 176 181
172 176 181
172 176 181
172 176 181
172 176 181
172 176 181
172 176 181
172 176 181
172 176 181
172 176 181
172 176 181
172 176 181
172 176 181
172 176 181
172 176 181
172 176 181
172 176 181
172 176 181
172 175 181
172 175 181
172 175 181
172 175 181
172 175 181
172 175 181
171 175 181
171 175 181
171 175 181
171 175 181
171 175 181
171 175 181
171 175 181
171 175 181
171 175 181
171 175 181
171 175 181
171 175 181
171 175 181
171 175 181
171 175 181
171 175 181
171 175 181
171 175 181
171 175 181
171 175 181
171 175 181
171 175 181
171 175 181
171 175 181
171 175 181
171 175 181
171 175 181
171 175 181
171 175 181
171 175 181
171 175 181
171 175 181
171 175 181
171 175 181
171 175 181
171 175 181
171 175 181
171 175 181
171 175 181
171 175 181
171 175 181
171 175 181
171 175 181
171 175 181
171 175 181
171 175 181
171 175 181
171 175 181
171 175 181
171 175 181
171 175 181
171 175 181
171 175 181
170 175 181
171 175 181
170 175 181
170 175 181
170 175 181
171 175 181
170 175 181
170 175 181
170 175 181
170 175 181
170 175 181
170 175 181
170 175 181
170 175 181
170 175 181
170 175 181
170 175 181
170 175 181
170 175 181
170 175 181
170 175 181
170 175 181
170 175 181
170 175 181
170 175 181
170 175 181
170 175 181
170 175 181
170 175 181
170 175 181
170 175 181
170 175 181
170 175 181
170 175 181
170 175 181
170 175 181
170 175 181
170 175 181
170 175 181
170 175 181
170 175 181
170 175 181
170 175 181
170 175 181
170 175 181
170 175 181
170 175 181
170 175 181
170 175 181
170 175 181
170 175 181
170 175 181
170 175 181
170 175 181
170 175 181
170 175 181
170 175 181
170 175 181
170 175 181
170 175 181
170 175 181
170 175 181
171 175 181
170 175 181
171 175 181
170 175 181
170 175 181
171 175 181
171 175 181
171 175 181
171 175 181
171 175 181
171 175 181
171 175 181
171 175 181
171 175 181
171 175 181
171 175 181
171 175 181
171 175 181
171 175 181
171 175 181
171 175 181
171 175 181
171 175 181
171 175 181
171 175 181
171 175 181
171 175 181
171 175 181
171 175 181
171 175 181
171 175 181
171 175 181
171 175 181
171 175 181
171 175 181
171 175 181
171 175 181
171 175 181
171 175 181
171 175 181
171 175 181
171 175 181
171 175 181
171 175 181
171 175 181
171 175 181
171 175 181
171 175 181
171 175 181
171 175 181
171 175 181
171 175 181
171 175 181
171 175 181
171 175 181
172 175 181
172 175 181
172 175 181
172 175 181
172 175 181
172 175 181
172 176 181
172 176 181
172 176 181
172 176 181
172 176 181
172 176 181
172 176 181
172 176 181
172 176 181
172 176 181
172 176 181
172 176 181
172 176 181
172 176 181
172 176 181
172 176 181
172 176 181
172 176 181
172 176 181
172 176 181
172 176 181
172 176 181
172 176 181
173 176 181
173 176 181
173 176 181
173 176 181
173 176 181
173 176 181
173 176 181
173 176 181
173 176 181
173 176 181
173 176 181
173 176 181
173 176 181
173 176 181
173 176 181
173 176 181
173 176 181
173 176 181
173 176 181
173 176 181
173 176 181
173 176 181
173 176 181
173 176 181
174 176 181
174 176 181
174 176 181
174 177 181
174 177 181
174 177 181
174 177 181
174 177 181
174 177 181
174 177 181
174 177 181
174 177 181
174 177 181
174 177 181
174 177 181
174 177 181
174 177 181
174 177 181
174 177 181
175 177 181
175 177 181
175 177 181
175 177 181
175 177 181
175 177 181
175 177 181
175 177 181
175 177 181
175 177 181
175 177 181
175 177 181
175 177 181
175 177 181
175 177 181
175 177 181
176 177 181
176 177 181
176 178 181
176 178 181
176 178 181
176 178 181
176 178 181
176 178 181
176 178 181
176 178 181
176 178 181
176 178 181
176 178 181
176 178 181
176 178 181
177 178 181
177 178 181
177 178 181
177 178 181
177 178 181
177 178 181
177 178 181
177 178 181
177 178 181
177 178 181
177 178 181
177 178 181
178 178 181
178 179 181
178 179 181
178 179 181
178 179 181
178 179 181
178 179 181
178 179 181
178 179 181
178 179 181
178 179 181
178 179 181
179 179 181
179 179 181
179 179 181
179 179 181
179 179 181
179 179 181
179 179 181
179 179 181
179 179 181
179 179 181
180 180 181
180 180 181
180 180 181
180 180 181
180 180 181
180 180 181
180 180 181
180 180 181
180 180 181
181 180 181
181 180 181
181 180 181
181 180 181
181 180 181
181 180 181
181 180 181
181 180 181
182 181 181
182 181 181
182 181 181
182 181 181
182 181 181
182 181 181
182 181 181
183 181 181
183 181 181
183 181 181
183 181 181
183 181 181
183 181 181
184 182 181
184 182 181
184 182 181
184 182 181
184 182 181
185 182 181
185 182 181
185 182 181
186 183 181
185 182 180
165 165 164
143 152 156
123 146 167
114 137 164
95 123 166
89 116 167
81 101 159
81 104 163
73 89 152
79 94 164
78 89 163
70 81 168
58 58 167
52 49 173
57 57 170
43 36 172
38 29 174
37 28 176
36 27 171
39 29 182
39 29 180
37 28 173
39 29 184
39 29 182
38 28 177
38 28 173
39 29 183
38 28 178
39 29 179
40 29 187
41 30 190
39 31 184
39 32 186
36 37 176
37 50 183
36 45 177
38 49 183
35 64 181
35 64 179
34 78 185
33 74 178
33 85 184
32 85 183
31 89 182
29 95 178
29 97 183
30 98 182
29 96 179
28 102 182
27 102 182
25 113 184
26 107 182
30 111 184
35 115 186
30 118 183
36 115 181
38 115 179
50 123 182
64 129 185
56 124 183
56 126 184
76 132 182
76 132 184
78 129 176
71 130 178
80 134 181
91 137 180
92 133 173
107 145 183
98 137 176
101 128 161
103 132 166
112 131 161
102 116 147
103 116 144
103 112 136
104 103 128
107 101 120
99 76 96
96 71 90
96 67 86
89 48 67
87 42 61
89 44 62
90 44 65
93 45 66
89 44 63
84 42 61
89 43 63
85 41 59
92 45 64
84 41 60
90 44 64
86 42 61
91 45 64
84 41 61
89 44 63
88 43 63
82 41 59
86 42 60
92 45 63
85 42 61
84 41 59
89 44 63
91 44 63
76 38 54
87 43 61
88 47 61
84 50 58
86 53 59
75 54 50
79 60 52
75 63 48
73 66 46
59 69 33
57 69 31
56 72 30
53 72 26
50 74 22
44 76 12
42 79 4
42 78 4
41 77 4
42 79 4
42 81 4
41 77 4
40 75 4
40 77 4
42 80 4
42 79 4
42 80 4
40 78 4
37 72 4
42 79 4
40 76 4
42 79 4
42 80 4
40 77 4
42 80 4
41 79 4
42 80 4
41 79 4
41 79 4
40 78 4
40 76 4
42 80 4
41 78 4
40 77 4
41 79 4
43 82 4
42 80 4
42 81 4
40 78 4
40 77 4
45 83 22
52 85 46
50 83 41
68 95 78
68 94 81
77 103 94
88 110 108
93 113 115
105 123 126
97 114 119
104 116 125
111 124 131
112 120 129
119 128 136
124 133 141
118 125 134
116 123 126
116 121 124
119 126 128
127 135 135
123 130 134
128 137 137
130 140 140
122 133 130
135 149 149
123 138 137
124 141 139
128 151 149
128 148 144
130 160 154
117 146 138
121 153 144
117 163 152
102 153 139
110 157 145
102 157 144
97 157 142
86 156 140
88 158 141
82 156 140
81 157 140
75 157 138
71 160 140
68 157 138
67 157 137
67 157 137
67 157 138
69 160 139
65 154 134
67 156 136
66 154 133
67 155 135
68 157 137
67 157 136
66 156 136
65 152 132
68 158 137
68 160 139
66 154 133
66 154 134
67 156 135
69 159 139
67 154 134
66 153 134
68 158 138
69 156 134
69 156 136
71 155 136
71 151 134
80 151 137
80 150 136
71 132 119
79 141 130
78 133 121
76 129 116
78 106 97
78 112 103
74 100 91
68 83 71
69 77 65
68 68 55
67 56 44
66 47 36
68 48 37
67 48 37
69 50 38
70 50 38
71 50 39
69 50 38
72 52 40
70 49 38
70 50 39
66 48 36
70 50 38
73 52 40
72 51 39
71 51 39
75 53 40
68 49 38
70 50 39
68 49 37
71 50 39
69 49 38
71 50 38
70 50 38
73 52 40
73 52 40
73 52 40
69 49 37
72 51 39
71 51 39
68 48 37
72 50 39
74 53 40
70 50 38
72 52 40
73 54 46
70 53 48
66 54 53
67 59 64
62 60 70
66 62 71
62 67 82
68 77 96
75 87 108
73 90 113
78 99 124
79 99 126
84 106 134
81 101 129
101 121 148
92 115 143
98 118 146
103 121 147
107 126 152
106 121 149
