P3
1600 1
255
130 78 97
131 81 101
135 92 111
129 87 105
126 77 95
129 89 108
134 87 107
120 72 91
131 83 104
132 81 103
130 85 106
137 89 112
129 83 105
127 77 99
127 76 97
122 73 93
128 78 99
123 75 96
130 83 103
131 81 102
125 85 105
122 76 96
117 76 94
118 75 94
117 72 91
121 75 94
117 80 97
105 70 86
108 69 85
103 59 75
103 66 82
110 60 75
102 55 70
97 57 70
104 70 84
101 58 70
103 72 85
100 63 75
114 86 101
103 71 87
109 81 98
91 66 87
100 82 105
97 78 102
92 76 102
95 79 106
92 81 112
79 74 104
74 74 110
86 85 122
65 68 111
61 68 111
63 70 118
67 78 122
64 74 117
80 93 131
82 93 128
87 100 134
99 113 144
101 115 147
116 132 161
117 134 161
128 145 171
128 145 172
132 149 174
134 152 177
136 155 179
137 156 181
136 155 181
137 156 181
137 156 180
137 156 181
137 155 180
133 153 177
132 152 177
127 149 174
126 148 173
125 148 173
118 143 167
111 138 163
107 136 162
112 139 164
99 132 157
95 130 156
85 124 150
86 127 154
76 121 148
80 121 147
77 122 150
74 120 147
61 116 145
65 115 143
56 114 142
61 113 140
55 111 139
55 113 141
48 108 136
56 113 141
56 113 140
51 112 140
53 113 140
52 112 140
54 112 139
63 114 141
56 110 137
61 115 143
59 111 138
75 118 145
76 112 137
73 114 141
84 113 137
95 108 129
102 106 125
100 101 119
97 101 118
114 89 101
109 94 108
114 79 89
124 74 81
117 72 84
118 67 80
119 59 76
112 60 78
111 51 77
109 48 71
91 41 79
91 41 81
90 40 83
84 38 85
76 35 89
78 36 88
74 34 90
70 33 92
69 32 90
68 31 88
70 32 92
69 32 91
67 31 86
67 31 89
72 33 93
71 33 91
71 33 92
68 32 89
71 33 92
71 32 91
71 33 91
73 33 93
71 33 91
71 33 92
72 33 93
73 33 91
71 32 91
73 33 94
71 33 92
69 32 89
73 33 92
71 32 90
78 41 92
79 40 87
74 37 86
82 55 87
81 53 84
79 63 86
90 79 88
89 85 80
87 87 81
93 95 81
92 100 75
92 101 74
94 102 72
96 109 74
95 112 69
103 120 71
96 112 66
101 116 69
92 107 64
101 111 65
100 118 71
101 119 70
104 121 71
100 116 69
101 118 70
105 125 75
97 117 69
102 119 70
98 116 68
95 114 67
100 119 70
99 117 69
98 115 69
100 118 70
95 112 66
102 122 72
98 117 69
103 124 75
102 123 82
106 125 86
109 129 100
103 125 101
108 131 116
109 132 110
109 134 119
107 133 127
117 139 137
109 134 132
119 142 152
115 140 147
123 147 160
124 146 161
123 145 160
126 150 166
130 152 172
131 151 173
135 154 177
136 156 179
136 154 176
133 152 175
134 154 176
135 154 177
135 154 178
134 154 176
135 154 176
136 155 180
134 153 175
136 153 175
137 153 176
136 149 172
137 149 172
142 142 163
144 122 141
139 124 143
140 114 131
141 101 113
148 105 118
143 87 97
145 83 95
142 78 82
149 71 72
151 56 59
152 53 56
152 43 49
151 42 48
154 43 50
153 43 49
153 43 49
155 44 50
154 43 49
154 43 50
151 43 49
152 43 49
152 43 49
154 43 50
145 40 47
151 42 49
151 43 49
149 42 48
151 42 48
152 42 49
153 43 49
147 41 46
150 42 48
146 41 47
152 42 49
145 41 50
147 41 55
145 41 53
135 38 57
137 38 56
123 35 66
119 34 77
115 33 74
112 32 74
102 29 86
95 28 91
82 24 88
97 28 88
72 22 91
36 14 99
30 13 103
29 12 97
25 13 107
2 10 104
2 10 104
2 10 97
2 10 102
2 11 108
2 10 103
2 10 104
2 10 104
2 11 106
2 10 101
29 33 104
39 44 113
54 61 120
62 71 123
67 76 127
83 95 137
93 105 144
106 120 154
102 115 152
116 131 162
124 140 170
126 142 169
125 141 169
128 141 165
131 141 165
129 137 161
127 130 154
121 119 144
118 116 140
115 108 133
113 94 122
106 80 108
107 70 100
103 57 90
104 53 89
100 34 77
102 35 79
101 35 78
101 35 79
101 35 79
100 34 75
99 35 77
99 35 77
97 34 75
102 36 81
94 33 73
100 35 79
101 36 80
96 34 76
100 35 78
95 33 75
101 36 79
101 35 79
96 34 77
100 35 79
98 35 78
98 35 78
98 34 77
100 35 78
97 34 76
97 35 78
92 33 73
96 34 76
93 33 74
100 35 79
96 34 76
93 36 75
100 52 88
102 59 93
106 75 104
105 80 108
108 92 118
114 102 128
115 106 131
119 117 143
128 135 159
125 130 155
131 142 166
130 145 169
136 153 177
136 154 178
137 156 181
135 154 177
136 155 180
135 155 179
136 155 180
137 155 178
136 155 180
136 155 180
137 155 179
136 155 179
138 156 180
135 155 179
135 154 177
136 155 180
137 156 180
136 155 180
137 155 178
137 156 180
136 155 179
136 154 179
137 156 180
137 156 180
137 155 179
136 154 178
135 154 178
137 156 179
135 154 179
137 155 179
138 157 181
137 155 179
137 156 180
136 155 179
136 154 178
135 154 177
134 153 176
124 147 165
117 141 156
123 146 165
105 134 145
105 134 143
91 123 126
92 127 131
76 116 113
78 119 115
58 107 91
61 106 95
46 101 82
24 93 61
21 95 62
5 89 53
5 90 54
5 90 54
5 89 53
5 90 53
5 90 54
5 90 54
5 90 54
5 89 54
5 89 54
20 90 59
17 92 59
39 88 72
37 84 66
37 87 69
45 82 74
40 84 72
55 84 85
57 85 87
61 80 91
53 82 83
52 81 82
67 81 96
65 84 97
68 79 98
65 81 95
69 79 99
60 84 91
71 81 102
70 76 96
68 76 93
62 76 88
59 77 82
62 69 79
57 68 73
62 64 79
54 65 69
53 64 65
50 61 58
49 62 58
42 59 45
51 59 58
39 56 39
37 61 33
35 60 30
31 57 21
28 56 15
30 59 16
30 59 15
32 63 17
30 58 15
27 55 15
30 59 15
29 59 16
28 55 15
28 56 15
30 59 16
32 60 24
34 59 35
38 65 41
40 62 51
45 64 60
44 61 65
52 68 76
57 68 87
58 70 87
62 71 98
62 69 95
60 67 96
69 76 110
65 70 103
69 75 110
69 75 108
68 73 106
65 71 105
69 76 110
73 78 114
73 80 116
72 78 115
73 80 117
71 77 113
71 77 112
70 77 114
73 79 115
72 78 114
73 79 115
79 85 121
73 78 109
77 82 110
75 80 109
75 78 96
74 77 90
74 76 90
80 82 92
75 75 64
76 77 72
75 74 55
79 77 51
78 76 46
75 73 41
73 72 40
72 71 39
77 75 42
76 75 42
75 74 42
77 75 41
74 73 41
71 69 39
74 72 41
74 73 41
73 71 40
77 75 42
75 73 47
67 65 40
70 68 57
67 66 76
72 70 79
69 67 85
66 66 97
63 62 91
64 63 105
62 58 109
75 68 95
72 62 102
68 60 95
77 64 96
75 63 92
79 64 88
83 68 79
79 66 60
88 71 56
87 69 53
92 74 57
93 74 58
82 68 53
85 70 55
89 73 57
89 73 56
81 67 50
89 72 56
78 64 50
86 70 54
77 63 48
82 68 51
83 69 53
85 70 54
83 69 53
90 73 56
80 65 51
89 73 56
85 69 54
86 71 53
100 80 61
92 75 58
84 70 53
96 77 60
90 73 56
85 69 53
92 73 57
95 76 59
88 72 55
87 70 55
91 73 56
79 66 49
86 70 53
82 68 53
89 72 56
94 75 59
90 73 56
91 73 57
83 70 52
93 74 57
96 76 59
85 69 54
90 73 55
83 68 51
89 71 55
91 73 56
95 77 59
91 74 56
87 69 54
90 74 56
92 74 58
93 75 58
88 70 54
91 73 57
94 74 58
99 79 61
95 76 59
96 77 59
94 75 58
91 73 57
87 70 55
84 69 53
91 74 57
89 71 55
91 74 59
103 89 82
109 105 110
139 144 157
132 136 147
162 174 193
175 191 210
175 194 214
187 209 226
201 222 240
192 213 230
200 221 239
195 211 231
202 218 238
208 223 244
201 217 238
204 220 241
208 224 245
206 222 243
205 221 242
213 228 249
207 223 244
207 224 244
210 226 247
212 229 249
212 229 249
206 222 241
215 231 252
211 226 246
216 231 252
209 224 245
213 229 249
212 228 248
212 228 249
212 227 248
215 231 252
217 232 253
213 228 248
214 229 249
211 226 247
211 226 246
215 231 252
216 231 252
215 230 250
211 226 247
216 231 252
210 226 245
213 229 249
212 227 247
216 231 252
217 232 253
218 232 253
215 229 250
215 229 250
218 233 254
216 230 251
218 233 254
218 232 253
216 231 252
216 231 252
218 233 254
218 233 254
216 231 251
217 232 252
214 229 249
219 234 254
213 228 249
217 232 253
215 230 251
213 228 250
213 228 249
218 233 253
216 231 251
215 230 252
218 233 253
218 233 254
216 231 251
217 232 251
217 232 253
215 230 251
217 231 252
217 231 252
216 231 253
212 227 248
215 230 251
215 230 250
218 233 254
212 227 248
216 231 253
216 231 251
220 234 255
217 232 252
214 229 250
219 233 254
218 233 254
217 232 252
216 231 251
217 232 252
219 234 254
216 230 251
217 231 252
217 231 251
220 234 255
217 232 252
216 231 250
215 228 249
217 232 253
216 230 251
215 229 249
217 232 252
216 230 251
218 233 253
213 227 247
214 228 249
216 231 251
214 228 249
218 233 253
217 232 252
218 233 253
219 234 254
211 226 245
215 230 250
213 228 247
215 230 249
214 229 248
215 230 250
219 233 253
216 231 251
216 230 251
213 228 249
215 230 250
214 229 250
215 230 251
214 228 248
211 225 248
211 225 247
215 230 248
217 232 250
217 232 251
217 232 252
217 232 251
215 230 249
218 233 252
215 230 249
218 233 253
219 233 254
216 230 249
219 233 254
217 231 251
217 230 250
217 230 250
217 230 249
215 227 246
212 221 240
217 230 249
216 228 248
217 231 251
217 231 250
212 225 245
216 231 250
218 232 252
215 229 248
215 230 250
216 230 250
214 228 247
215 230 250
214 228 248
215 230 250
218 233 253
216 230 250
205 214 229
183 182 182
171 170 168
185 182 180
186 183 181
185 182 181
185 182 181
185 182 181
185 182 181
184 182 181
184 182 181
184 182 181
184 182 181
184 182 181
183 182 181
183 181 181
183 181 181
183 181 181
183 181 181
183 181 181
183 181 181
182 181 181
182 181 181
182 181 181
182 181 181
182 181 181
182 181 181
182 181 181
181 181 181
181 180 181
181 180 181
181 180 181
181 180 181
181 180 181
181 180 181
181 180 181
181 180 181
180 180 181
180 180 181
180 180 181
180 180 181
180 180 181
180 180 181
180 180 181
180 180 181
180 180 181
180 180 181
179 179 181
179 179 181
179 179 181
179 179 181
179 179 181
179 179 181
179 179 181
179 179 181
179 179 181
179 179 181
179 179 181
178 179 181
178 179 181
178 179 181
178 179 181
178 179 181
178 179 181
178 179 181
178 179 181
178 179 181
178 179 181
178 179 181
178 178 181
177 178 181
177 178 181
177 178 181
177 178 181
177 178 181
177 178 181
177 178 181
177 178 181
177 178 181
177 178 181
177 178 181
177 178 181
177 178 181
177 178 181
176 178 181
176 178 181
176 178 181
176 178 181
176 178 181
176 178 181
176 178 181
176 178 181
176 178 181
176 178 181
176 178 181
176 178 181
176 178 181
176 177 181
176 177 181
175 177 181
175 177 181
175 177 181
175 177 181
175 177 181
175 177 181
175 177 181
175 177 181
175 177 181
175 177 181
175 177 181
175 177 181
175 177 181
175 177 181
175 177 181
175 177 181
175 177 181
174 177 181
174 177 181
174 177 181
174 177 181
174 177 181
174 177 181
174 177 181
174 177 181
174 177 181
174 177 181
174 177 181
174 177 181
174 177 181
174 177 181
174 177 181
174 177 181
174 177 181
174 176 181
174 176 181
174 176 181
174 176 181
173 176 181
173 176 181
173 176 181
173 176 181
173 176 181
173 176 181
173 176 181
173 176 181
173 176 181
173 176 181
173 176 181
173 176 181
173 176 181
173 176 181
173 176 181
173 176 181
173 176 181
173 176 181
173 176 181
173 176 181
173 176 181
173 176 181
173 176 181
173 176 181
172 176 181
172 176 181
172 176 181
172 176 181
172 176 181
172 176 181
172 176 181
172 176 181
172 176 181
172 176 181
172 176 181
172 176 181
172 176 181
172 176 181
172 176 181
172 176 181
172 176 181
172 176 181
172 176 181
172 176 181
172 176 181
172 176 181
172 176 181
172 176 181
172 176 181
172 175 181
172 175 181
172 175 181
172 175 181
172 175 181
172 175 181
172 175 181
171 175 181
172 175 181
171 175 181
171 175 181
171 175 181
171 175 181
171 175 181
171 175 181
171 175 181
171 175 181
171 175 181
171 175 181
171 175 181
171 175 181
171 175 181
171 175 181
171 175 181
171 175 181
171 175 181
171 175 181
171 175 181
171 175 181
171 175 181
171 175 181
171 175 181
171 175 181
171 175 181
171 175 181
171 175 181
171 175 181
171 175 181
171 175 181
171 175 181
171 175 181
171 175 181
171 175 181
171 175 181
171 175 181
171 175 181
171 175 181
171 175 181
171 175 181
171 175 181
171 175 181
171 175 181
171 175 181
171 175 181
171 175 181
171 175 181
171 175 181
171 175 181
171 175 181
171 175 181
171 175 181
171 175 181
171 175 181
171 175 181
171 175 181
171 175 181
171 175 181
171 175 181
171 175 181
171 175 181
171 175 181
171 175 181
171 175 181
171 175 181
171 175 181
171 175 181
171 175 181
171 175 181
171 175 181
171 175 181
171 175 181
171 175 181
171 175 181
171 175 181
171 175 181
171 175 181
171 175 181
171 175 181
171 175 181
171 175 181
171 175 181
171 175 181
171 175 181
171 175 181
171 175 181
171 175 181
171 175 181
171 175 181
171 175 181
171 175 181
171 175 181
171 175 181
171 175 181
171 175 181
171 175 181
171 175 181
171 175 181
171 175 181
171 175 181
171 175 181
171 175 181
171 175 181
171 175 181
171 175 181
171 175 181
171 175 181
171 175 181
171 175 181
171 175 181
171 175 181
171 175 181
171 175 181
171 175 181
171 175 181
171 175 181
171 175 181
171 175 181
171 175 181
171 175 181
171 175 181
171 175 181
171 175 181
171 175 181
171 175 181
171 175 181
171 175 181
171 175 181
171 175 181
171 175 181
171 175 181
171 175 181
171 175 181
171 175 181
171 175 181
171 175 181
171 175 181
171 175 181
171 175 181
171 175 181
171 175 181
171 175 181
171 175 181
171 175 181
171 175 181
171 175 181
171 175 181
171 175 181
171 175 181
171 175 181
171 175 181
171 175 181
172 175 181
172 175 181
172 175 181
172 175 181
172 175 181
172 175 181
172 175 181
172 176 181
172 176 181
172 176 181
172 176 181
172 176 181
172 176 181
172 176 181
172 176 181
172 176 181
172 176 181
172 176 181
172 176 181
172 176 181
172 176 181
172 176 181
172 176 181
172 176 181
172 176 181
172 176 181
172 176 181
172 176 181
172 176 181
172 176 181
172 176 181
172 176 181
172 176 181
172 176 181
173 176 181
173 176 181
173 176 181
173 176 181
173 176 181
173 176 181
173 176 181
173 176 181
173 176 181
173 176 181
173 176 181
173 176 181
173 176 181
173 176 181
173 176 181
173 176 181
173 176 181
173 176 181
173 176 181
173 176 181
173 176 181
173 176 181
173 176 181
173 176 181
174 176 181
174 176 181
174 176 181
174 176 181
174 177 181
174 177 181
174 177 181
174 177 181
174 177 181
174 177 181
174 177 181
174 177 181
174 177 181
174 177 181
174 177 181
174 177 181
174 177 181
174 177 181
174 177 181
174 177 181
175 177 181
175 177 181
175 177 181
175 177 181
175 177 181
175 177 181
175 177 181
175 177 181
175 177 181
175 177 181
175 177 181
175 177 181
175 177 181
175 177 181
175 177 181
175 177 181
175 177 181
176 177 181
176 177 181
176 178 181
176 178 181
176 178 181
176 178 181
176 178 181
176 178 181
176 178 181
176 178 181
176 178 181
176 178 181
176 178 181
176 178 181
177 178 181
177 178 181
177 178 181
177 178 181
177 178 181
177 178 181
177 178 181
177 178 181
177 178 181
177 178 181
177 178 181
177 178 181
177 178 181
177 178 181
178 178 181
178 179 181
178 179 181
178 179 181
178 179 181
178 179 181
178 179 181
178 179 181
178 179 181
178 179 181
178 179 181
179 179 181
179 179 181
179 179 181
179 179 181
179 179 181
179 179 181
179 179 181
179 179 181
179 179 181
179 179 181
179 179 181
180 180 181
180 180 181
180 180 181
180 180 181
180 180 181
180 180 181
180 180 181
180 180 181
180 180 181
181 180 181
181 180 181
181 180 181
181 180 181
181 180 181
181 180 181
181 180 181
181 180 181
182 181 181
182 181 181
182 181 181
182 181 181
182 181 181
182 181 181
182 181 181
182 181 181
183 181 181
183 181 181
183 181 181
183 181 181
183 181 181
183 182 181
184 182 181
184 182 181
184 182 181
184 182 181
184 182 181
185 182 181
185 182 181
185 182 181
185 183 181
185 182 180
170 169 166
155 163 160
122 140 160
114 137 167
105 125 156
92 112 159
84 104 158
86 107 164
79 95 165
80 94 161
72 84 154
87 95 166
69 75 171
50 47 175
41 35 170
43 36 177
38 28 179
37 28 174
36 27 171
38 28 178
38 28 176
38 28 177
40 30 186
38 28 176
38 28 179
39 29 184
39 29 181
38 28 178
38 28 175
37 28 178
38 29 177
39 29 180
37 36 178
35 53 177
37 39 179
35 57 177
34 62 175
33 78 182
32 83 181
32 76 177
31 78 174
31 92 183
33 86 187
29 101 184
28 99 180
27 107 183
27 107 181
25 115 184
25 110 179
26 111 183
24 115 184
23 116 182
24 114 183
28 118 186
26 117 182
32 115 181
32 119 182
37 125 186
48 124 180
51 128 184
51 122 183
68 132 183
67 133 184
73 132 179
76 132 180
79 135 183
90 135 177
94 135 175
98 140 180
94 136 177
92 133 174
102 134 168
103 128 161
97 121 156
97 114 146
106 115 142
103 108 132
105 99 119
93 79 98
96 73 92
88 60 79
92 60 78
87 45 63
87 43 63
90 44 63
91 44 63
88 43 61
88 43 63
87 43 62
88 43 62
87 42 63
84 41 59
86 42 60
84 42 60
84 41 60
85 42 61
89 44 62
85 42 61
89 44 62
85 42 61
83 42 59
86 42 61
85 42 62
90 44 63
87 43 61
85 42 60
85 44 59
74 41 52
85 47 58
76 52 50
80 57 52
71 60 46
68 60 44
68 62 43
61 67 36
59 66 34
52 69 28
48 72 21
48 74 20
43 78 9
40 75 4
44 80 15
46 80 20
40 76 4
46 79 25
47 79 29
45 79 20
42 79 4
42 79 4
42 80 4
41 78 4
40 76 4
42 80 4
40 75 4
41 77 4
40 76 4
40 77 4
40 76 4
41 78 4
39 74 4
42 80 4
42 81 4
40 77 4
41 78 4
40 78 4
41 79 4
41 79 4
39 77 4
40 76 4
40 77 4
37 72 3
40 77 4
41 79 4
40 77 4
39 77 4
41 78 4
51 83 42
64 92 70
66 92 78
85 107 107
82 105 96
89 110 110
101 118 126
100 116 123
105 117 122
105 113 123
105 116 124
108 116 127
117 126 133
112 119 126
118 125 129
117 124 128
112 120 125
107 110 117
118 127 128
119 129 131
117 123 132
117 129 128
125 138 138
127 144 142
119 139 138
121 139 135
116 142 136
114 146 139
116 155 145
118 154 145
104 151 138
95 148 133
104 161 146
100 157 142
91 161 144
92 158 142
76 153 135
77 157 138
72 154 135
70 157 136
66 153 133
67 156 135
65 154 134
66 154 133
66 155 135
67 157 136
66 154 134
65 151 131
68 159 138
66 154 134
65 152 133
68 158 137
66 153 134
68 159 138
65 151 132
68 159 138
69 161 140
68 157 137
65 154 133
67 157 136
69 160 139
67 155 134
67 157 136
66 155 135
68 157 137
68 150 132
70 156 136
72 150 132
72 146 129
75 149 132
74 144 128
75 129 116
72 123 109
75 126 114
73 104 90
71 105 91
73 86 75
68 77 64
67 77 63
68 62 50
66 54 43
64 46 35
72 51 39
69 50 39
68 49 37
68 49 37
69 49 38
68 49 38
67 49 37
71 51 39
65 47 36
72 52 40
72 51 39
66 47 36
70 50 38
71 50 38
69 50 39
70 50 38
70 49 38
68 49 37
70 50 38
72 51 39
70 49 38
68 48 37
71 50 38
72 52 39
70 50 38
68 48 37
69 49 38
73 52 40
72 52 39
71 50 38
72 51 39
72 51 39
68 49 39
74 56 48
68 56 56
66 57 60
66 61 69
67 68 79
72 74 88
72 82 102
76 85 103
81 94 116
72 88 113
79 98 124
91 111 137
89 108 134
94 115 141
97 116 144
104 120 149
99 117 144
106 121 146
105 114 143
