P3
1600 1
255
149 172 241
148 172 241
148 171 241
147 171 241
146 171 241
146 171 241
145 170 241
145 170 241
144 170 241
145 170 241
144 170 241
144 169 241
143 169 241
143 169 241
144 169 241
143 169 241
144 169 241
144 169 241
144 169 240
143 169 239
143 168 238
142 166 232
136 160 220
135 158 215
139 162 223
136 159 217
131 152 203
133 154 206
133 153 204
135 156 208
131 150 194
127 146 184
130 148 190
127 144 182
118 134 167
116 127 152
112 118 139
113 117 137
114 120 136
99 100 107
101 98 103
99 98 96
99 102 108
95 97 92
95 96 94
103 99 104
103 101 108
100 103 107
106 115 126
113 125 140
114 129 145
111 128 144
113 128 144
117 134 150
124 141 159
123 141 160
121 140 160
125 144 163
126 145 166
129 148 170
130 148 172
132 151 174
128 147 169
123 142 163
123 142 164
127 147 169
124 145 166
114 136 159
116 139 163
113 137 160
109 133 156
99 126 149
90 121 144
83 116 137
71 106 129
63 104 127
52 97 121
42 93 117
41 91 113
45 99 123
42 92 114
44 98 121
44 96 120
41 90 112
44 95 118
42 93 116
43 94 117
41 90 113
43 93 116
38 84 106
39 85 108
35 74 95
37 79 100
33 70 92
30 62 82
33 65 85
36 67 81
36 67 82
40 66 71
40 65 67
40 62 63
46 68 59
46 69 61
60 86 52
53 78 55
55 80 52
57 82 54
60 86 52
63 89 50
63 90 48
69 97 45
66 92 44
71 100 37
65 91 44
71 99 40
70 99 40
73 102 37
70 99 40
68 95 40
69 97 40
66 93 44
68 95 41
70 98 38
66 92 45
65 92 44
62 89 46
64 91 47
68 94 45
56 81 51
57 82 48
55 78 56
58 80 50
56 75 58
50 63 61
49 56 63
43 47 62
47 49 66
41 39 63
46 36 69
51 36 73
47 29 68
52 30 71
53 28 72
50 24 66
60 27 77
55 25 71
58 26 74
61 28 78
57 26 73
55 25 72
57 26 73
58 27 75
64 29 82
57 26 71
64 28 77
61 27 77
60 27 77
58 26 73
62 28 77
57 25 72
58 26 73
60 27 74
57 25 72
57 25 71
59 26 74
62 38 78
70 51 86
73 61 91
76 68 93
78 76 95
90 93 112
94 97 116
91 99 110
101 112 125
112 125 141
106 118 131
111 127 141
120 136 153
112 128 139
113 129 140
116 133 146
117 133 147
114 130 144
116 132 149
118 136 152
114 130 143
119 136 150
113 128 140
122 139 158
120 137 153
117 134 149
122 139 155
120 138 156
117 136 151
121 138 155
123 140 158
122 139 156
123 140 159
123 141 157
126 143 162
121 137 153
125 143 161
125 142 161
118 137 152
113 135 146
118 140 154
104 128 133
104 131 134
99 128 126
97 127 123
87 123 110
84 119 106
78 120 95
64 113 75
64 111 76
59 109 66
53 106 58
54 107 58
53 106 58
53 106 58
55 110 60
55 108 59
51 102 57
54 107 59
52 105 57
54 109 59
52 103 56
55 110 60
53 106 59
56 111 61
54 108 59
52 104 57
55 110 60
52 102 56
53 106 59
55 110 61
52 104 58
52 101 55
52 103 57
53 105 58
53 103 57
52 103 57
54 108 59
53 105 57
53 106 58
52 103 57
51 101 55
51 102 57
61 101 57
69 95 54
77 95 55
84 87 52
82 89 53
85 86 52
97 80 50
99 77 49
106 66 46
116 62 46
121 54 44
117 46 42
133 45 44
123 37 39
124 35 40
131 36 41
133 36 41
126 35 39
132 37 42
132 37 42
133 37 43
133 36 42
126 35 40
121 33 38
132 36 41
121 33 43
116 35 49
108 30 48
108 36 56
95 34 64
105 49 76
96 51 81
77 47 82
82 66 99
80 80 112
75 67 103
73 82 117
77 88 124
82 93 125
87 100 130
95 108 140
94 106 137
97 111 141
105 120 147
110 126 154
116 132 156
121 139 163
121 139 163
125 142 166
126 145 168
129 146 168
132 151 175
132 151 173
131 149 171
126 141 164
126 138 160
124 132 155
111 115 136
107 106 125
107 102 125
104 94 116
101 82 107
91 67 89
90 63 87
84 44 70
84 28 63
81 27 60
82 27 64
82 28 66
84 29 73
86 30 70
84 30 75
83 28 65
84 30 74
85 30 75
82 29 71
82 28 70
87 31 75
88 31 76
85 29 69
84 30 72
80 28 67
80 28 67
89 31 72
86 30 67
87 30 67
80 27 60
82 28 63
84 29 65
75 26 58
83 29 63
82 29 63
80 28 62
79 27 60
77 27 61
77 27 60
82 29 64
80 28 63
78 28 61
78 28 61
79 28 62
78 27 60
73 30 60
79 28 63
75 53 73
90 72 95
100 94 115
105 102 124
108 106 127
112 116 139
117 126 149
118 127 149
128 142 167
126 143 167
129 146 168
135 153 178
133 153 178
133 151 175
131 149 173
135 154 179
134 153 178
133 153 177
134 153 177
134 153 177
133 153 177
131 150 175
133 152 177
134 153 176
131 150 175
131 150 175
132 151 174
131 151 175
131 151 175
132 152 176
134 153 178
135 153 177
128 147 171
133 152 176
133 153 177
130 148 172
131 150 174
130 149 173
132 151 175
126 145 169
128 148 172
124 145 167
127 147 168
122 142 162
111 132 149
97 124 133
91 118 124
75 105 107
77 108 107
59 99 90
47 89 77
42 86 70
14 79 50
4 75 45
12 75 47
16 81 52
35 74 62
43 75 70
52 74 77
60 70 86
73 71 99
72 68 97
83 67 111
91 64 117
93 64 121
94 66 125
99 65 129
102 71 135
106 76 140
102 81 140
102 92 147
101 90 144
103 96 149
102 104 151
103 105 151
98 102 147
101 110 153
100 116 156
99 110 152
98 112 151
93 109 145
99 117 157
97 119 155
96 115 150
93 115 150
96 117 153
95 118 153
95 116 151
92 114 147
95 117 151
91 111 142
94 116 151
89 108 140
95 116 152
94 115 150
88 106 139
86 103 134
89 104 139
91 104 138
90 103 138
89 101 136
87 96 132
88 90 130
84 83 122
87 87 126
90 85 129
89 80 127
83 76 115
80 75 114
79 65 107
85 79 117
78 75 104
88 89 120
79 76 104
85 87 112
87 91 113
91 103 120
90 103 119
82 96 110
86 100 115
98 112 131
95 108 129
88 102 120
93 106 127
105 119 141
85 95 116
98 111 134
90 102 124
86 98 121
90 101 123
84 95 117
86 97 119
78 88 110
85 96 117
93 105 125
87 98 120
90 101 124
88 100 124
88 100 123
96 108 130
89 100 120
98 111 132
102 115 139
101 114 136
109 123 146
107 122 144
108 123 144
106 120 140
105 118 135
102 115 131
106 120 135
106 119 133
100 111 123
98 107 115
83 90 91
78 83 81
72 76 72
72 75 62
64 65 52
60 60 40
63 61 34
61 60 33
60 59 33
58 56 31
59 58 33
64 62 35
58 57 35
59 57 35
58 57 40
58 57 51
52 51 63
50 50 73
46 46 90
46 47 94
44 45 94
43 43 108
38 40 121
34 36 120
30 32 119
32 34 125
30 33 127
30 32 124
30 33 127
29 31 120
29 31 121
29 32 122
28 30 117
29 31 118
28 31 116
28 29 114
34 34 118
31 31 112
42 38 107
49 42 95
55 47 98
64 51 94
60 52 97
65 54 83
73 60 88
77 62 73
73 60 60
75 61 61
76 61 50
78 63 52
78 64 49
70 57 45
72 61 47
83 67 52
87 69 54
87 68 53
83 68 52
76 63 49
74 61 47
78 63 50
77 64 50
74 63 47
69 56 42
79 65 50
74 61 47
73 61 47
84 69 53
76 62 48
74 61 46
79 66 49
74 61 47
89 73 55
78 66 50
78 64 48
78 64 48
82 67 52
80 66 51
80 64 49
80 66 51
83 68 52
84 68 54
77 63 48
77 63 49
81 67 51
84 68 53
81 66 50
83 67 51
75 62 48
85 68 53
92 73 58
78 64 47
81 66 51
82 67 51
84 68 53
83 66 52
85 67 53
91 74 56
87 70 54
91 72 56
84 67 53
84 68 53
88 70 55
87 69 54
85 68 54
77 63 48
92 81 73
107 109 103
116 122 114
125 138 135
146 166 167
155 176 187
174 193 211
183 203 218
181 199 219
190 206 228
191 207 228
190 206 224
200 217 237
199 216 235
199 215 235
198 214 235
204 219 242
206 221 245
204 218 241
205 219 243
205 220 243
210 226 249
206 222 244
207 224 247
209 226 250
208 225 248
210 227 250
207 224 247
212 229 252
210 226 249
212 229 251
211 227 250
210 227 250
212 229 252
209 226 248
211 228 251
215 232 255
212 228 251
214 231 254
214 231 254
213 230 253
213 230 253
213 229 252
215 232 254
213 229 252
214 231 254
210 227 250
211 228 251
212 228 252
208 225 250
210 227 250
211 227 251
214 231 254
214 230 253
213 230 253
210 227 251
210 227 250
214 230 253
210 227 251
212 228 252
216 232 254
213 229 252
213 229 251
212 228 250
215 231 253
216 232 254
214 230 252
213 229 251
211 227 249
215 231 254
214 230 252
214 230 252
215 231 252
211 227 249
216 232 254
215 231 253
213 229 250
212 228 250
214 230 252
213 229 251
212 228 250
216 232 254
214 230 252
215 231 254
215 231 254
215 231 253
214 230 252
214 230 252
214 230 252
217 233 255
214 230 252
211 227 249
215 231 253
214 230 252
215 230 252
214 230 252
215 231 253
213 229 251
213 229 251
213 228 250
214 229 251
215 231 253
216 232 254
215 231 253
216 232 254
214 230 251
215 230 252
213 228 250
217 233 255
216 232 253
213 229 251
215 230 252
214 230 251
215 231 252
216 232 254
216 232 254
214 230 252
217 232 254
217 233 254
215 231 253
213 228 250
215 231 253
215 230 252
217 233 255
214 229 251
214 230 252
216 232 253
211 228 249
214 230 252
215 231 253
217 232 254
215 231 253
214 230 252
213 228 250
216 232 254
212 228 250
214 230 252
217 233 254
215 230 252
214 229 251
214 230 251
215 231 253
216 231 253
211 227 248
217 233 255
217 232 254
216 231 253
217 232 254
216 231 253
216 231 253
216 231 253
214 230 251
218 233 255
216 232 254
216 231 253
211 227 248
216 231 253
218 233 255
216 232 254
216 232 254
213 228 250
214 229 251
215 231 252
205 218 235
175 176 179
134 138 142
118 125 132
128 131 138
161 161 161
186 182 180
186 183 181
186 183 181
186 183 181
186 183 181
185 183 181
185 182 181
185 182 181
185 182 181
185 182 181
185 182 181
185 182 181
185 182 181
184 182 181
184 182 181
184 182 181
184 182 181
184 182 181
184 182 181
184 182 181
184 182 181
184 182 181
184 182 181
183 182 181
183 181 181
183 181 181
183 181 181
183 181 181
183 181 181
183 181 181
183 181 181
183 181 181
183 181 181
183 181 181
183 181 181
182 181 181
182 181 181
182 181 181
182 181 181
182 181 181
182 181 181
182 181 181
182 181 181
182 181 181
182 181 181
182 181 181
182 181 181
182 181 181
181 180 181
181 180 181
181 180 181
181 180 181
181 180 181
181 180 181
181 180 181
181 180 181
181 180 181
181 180 181
181 180 181
181 180 181
181 180 181
181 180 181
181 180 181
180 180 181
180 180 181
180 180 181
180 180 181
180 180 181
180 180 181
180 180 181
180 180 181
180 180 181
180 180 181
180 180 181
180 180 181
180 180 181
180 180 181
180 180 181
180 180 181
180 180 181
179 179 181
179 179 181
179 179 181
179 179 181
179 179 181
179 179 181
179 179 181
179 179 181
179 179 181
179 179 181
179 179 181
179 179 181
179 179 181
179 179 181
179 179 181
179 179 181
179 179 181
179 179 181
179 179 181
179 179 181
178 179 181
178 179 181
178 179 181
178 179 181
178 179 181
178 179 181
178 179 181
178 179 181
178 179 181
178 179 181
178 179 181
178 179 181
178 179 181
178 179 181
178 179 181
178 179 181
178 179 181
178 179 181
178 179 181
178 179 181
178 179 181
178 178 181
178 178 181
177 178 181
177 178 181
177 178 181
177 178 181
177 178 181
177 178 181
177 178 181
177 178 181
177 178 181
177 178 181
177 178 181
177 178 181
177 178 181
177 178 181
177 178 181
177 178 181
177 178 181
177 178 181
177 178 181
177 178 181
177 178 181
177 178 181
177 178 181
177 178 181
177 178 181
177 178 181
177 178 181
177 178 181
176 178 181
176 178 181
176 178 181
176 178 181
176 178 181
176 178 181
176 178 181
176 178 181
176 178 181
176 178 181
176 178 181
176 178 181
176 178 181
176 178 181
176 178 181
176 178 181
176 178 181
176 178 181
176 178 181
176 178 181
176 178 181
176 178 181
176 178 181
176 178 181
176 178 181
176 178 181
176 178 181
176 178 181
176 178 181
176 178 181
176 178 181
176 178 181
176 178 181
176 177 181
176 177 181
176 177 181
176 177 181
176 177 181
176 177 181
175 177 181
175 177 181
175 177 181
175 177 181
175 177 181
175 177 181
175 177 181
175 177 181
175 177 181
175 177 181
175 177 181
175 177 181
175 177 181
175 177 181
175 177 181
175 177 181
175 177 181
175 177 181
175 177 181
175 177 181
175 177 181
175 177 181
175 177 181
175 177 181
175 177 181
175 177 181
175 177 181
175 177 181
175 177 181
175 177 181
175 177 181
175 177 181
175 177 181
175 177 181
175 177 181
175 177 181
175 177 181
175 177 181
175 177 181
175 177 181
175 177 181
175 177 181
175 177 181
175 177 181
175 177 181
175 177 181
175 177 181
175 177 181
175 177 181
175 177 181
175 177 181
175 177 181
175 177 181
175 177 181
175 177 181
175 177 181
175 177 181
175 177 181
175 177 181
175 177 181
175 177 181
175 177 181
175 177 181
175 177 181
175 177 181
175 177 181
175 177 181
175 177 181
175 177 181
175 177 181
175 177 181
175 177 181
175 177 181
175 177 181
175 177 181
175 177 181
175 177 181
175 177 181
175 177 181
175 177 181
175 177 181
175 177 181
175 177 181
175 177 181
175 177 181
175 177 181
175 177 181
175 177 181
175 177 181
175 177 181
175 177 181
175 177 181
175 177 181
175 177 181
175 177 181
175 177 181
175 177 181
175 177 181
175 177 181
175 177 181
175 177 181
175 177 181
175 177 181
175 177 181
175 177 181
175 177 181
175 177 181
175 177 181
175 177 181
175 177 181
175 177 181
175 177 181
175 177 181
175 177 181
175 177 181
175 177 181
175 177 181
175 177 181
175 177 181
175 177 181
175 177 181
175 177 181
175 177 181
175 177 181
175 177 181
175 177 181
175 177 181
175 177 181
175 177 181
175 177 181
175 177 181
175 177 181
175 177 181
175 177 181
175 177 181
175 177 181
175 177 181
175 177 181
175 177 181
175 177 181
175 177 181
175 177 181
175 177 181
175 177 181
175 177 181
175 177 181
175 177 181
175 177 181
175 177 181
175 177 181
175 177 181
175 177 181
175 177 181
175 177 181
175 177 181
175 177 181
175 177 181
175 177 181
175 177 181
175 177 181
176 177 181
176 177 181
176 177 181
176 177 181
176 177 181
176 178 181
176 178 181
176 178 181
176 178 181
176 178 181
176 178 181
176 178 181
176 178 181
176 178 181
176 178 181
176 178 181
176 178 181
176 178 181
176 178 181
176 178 181
176 178 181
176 178 181
176 178 181
176 178 181
176 178 181
176 178 181
176 178 181
176 178 181
176 178 181
176 178 181
176 178 181
176 178 181
176 178 181
176 178 181
176 178 181
176 178 181
176 178 181
176 178 181
177 178 181
177 178 181
177 178 181
177 178 181
177 178 181
177 178 181
177 178 181
177 178 181
177 178 181
177 178 181
177 178 181
177 178 181
177 178 181
177 178 181
177 178 181
177 178 181
177 178 181
177 178 181
177 178 181
177 178 181
177 178 181
177 178 181
177 178 181
177 178 181
177 178 181
177 178 181
177 178 181
178 178 181
178 178 181
178 179 181
178 179 181
178 179 181
178 179 181
178 179 181
178 179 181
178 179 181
178 179 181
178 179 181
178 179 181
178 179 181
178 179 181
178 179 181
178 179 181
178 179 181
178 179 181
178 179 181
178 179 181
178 179 181
178 179 181
179 179 181
179 179 181
179 179 181
179 179 181
179 179 181
179 179 181
179 179 181
179 179 181
179 179 181
179 179 181
179 179 181
179 179 181
179 179 181
179 179 181
179 179 181
179 179 181
179 179 181
179 179 181
179 179 181
180 179 181
180 179 181
180 180 181
180 180 181
180 180 181
180 180 181
180 180 181
180 180 181
180 180 181
180 180 181
180 180 181
180 180 181
180 180 181
180 180 181
180 180 181
180 180 181
180 180 181
181 180 181
181 180 181
181 180 181
181 180 181
181 180 181
181 180 181
181 180 181
181 180 181
181 180 181
181 180 181
181 180 181
181 180 181
181 180 181
181 180 181
182 181 181
182 181 181
182 181 181
182 181 181
182 181 181
182 181 181
182 181 181
182 181 181
182 181 181
182 181 181
182 181 181
182 181 181
183 181 181
183 181 181
183 181 181
183 181 181
183 181 181
183 181 181
183 181 181
183 181 181
183 181 181
183 181 181
183 182 181
184 182 181
184 182 181
184 182 181
184 182 181
184 182 181
184 182 181
184 182 181
184 182 181
184 182 181
185 182 181
185 182 181
185 182 181
185 182 181
185 182 181
185 182 181
185 182 181
185 183 181
186 183 181
186 183 181
186 183 181
180 178 176
149 148 150
106 108 118
85 95 97
90 108 110
112 132 154
120 139 163
115 134 162
115 133 159
123 142 169
111 128 164
114 131 165
103 118 158
105 122 159
96 109 152
89 102 154
85 96 152
80 90 159
73 82 150
66 72 152
62 68 140
57 61 147
54 61 153
45 58 148
33 54 145
33 59 142
26 71 152
25 68 144
24 79 149
24 84 152
23 89 153
21 101 156
20 103 155
18 107 155
18 106 155
18 106 153
18 108 160
17 104 151
18 108 155
18 106 155
18 105 153
18 107 156
17 102 150
19 110 160
18 107 155
18 107 157
18 110 161
18 109 160
19 114 164
17 104 150
18 109 159
19 111 161
18 107 157
19 113 165
18 108 158
17 103 151
18 106 155
18 105 154
18 108 159
18 105 153
17 104 153
18 106 154
18 109 159
18 107 156
19 113 166
18 105 155
19 113 164
18 106 155
19 112 163
19 114 168
18 105 155
18 105 155
18 107 157
18 106 156
18 105 153
18 108 159
25 111 161
35 110 158
47 115 160
61 116 157
63 115 158
74 115 153
82 121 158
94 113 141
91 114 142
100 113 136
91 97 118
97 100 118
101 105 120
96 97 115
93 94 112
94 91 106
89 86 102
85 83 99
94 90 106
81 71 86
95 87 104
92 81 99
92 83 99
101 90 110
107 96 115
107 93 113
108 95 116
107 94 114
114 100 121
121 110 133
115 104 125
119 109 132
121 109 131
119 109 131
118 107 129
119 109 132
117 105 127
122 111 134
115 104 126
121 111 135
118 107 129
121 110 133
119 109 132
118 108 131
122 111 134
118 107 128
121 110 134
120 109 133
122 111 133
117 107 129
119 108 131
121 111 134
120 109 132
116 105 127
121 111 133
121 110 133
122 111 134
120 110 132
124 112 135
122 112 135
121 110 131
122 111 133
120 109 131
124 113 136
124 113 135
126 115 138
118 108 127
112 104 122
109 103 119
110 103 118
105 100 113
97 96 104
90 90 96
78 83 80
65 76 65
72 81 72
65 76 65
56 74 52
49 73 45
60 83 68
70 93 80
79 100 97
88 109 113
83 102 101
104 122 136
112 130 145
118 136 152
122 141 159
124 143 163
127 145 166
129 147 168
130 148 170
130 149 170
129 146 167
128 146 167
121 137 155
124 141 159
119 134 148
114 129 143
120 137 150
107 129 138
106 133 138
109 135 144
96 134 134
93 132 129
83 128 122
81 131 123
71 126 116
72 133 121
62 128 113
62 137 119
56 133 114
60 140 121
57 136 118
59 136 118
55 131 113
55 128 112
56 131 114
57 133 115
60 139 120
57 133 116
56 131 113
59 137 118
57 132 113
58 136 118
62 143 123
54 126 109
57 134 116
58 136 118
57 133 116
57 131 113
59 136 118
58 136 117
56 130 112
58 136 117
58 136 117
56 130 112
56 131 114
61 139 119
59 132 113
59 134 115
62 137 118
62 133 113
62 134 113
60 135 116
65 131 110
63 135 115
74 132 108
68 128 106
66 135 114
66 140 119
70 133 111
68 135 114
64 130 110
71 127 103
64 115 99
58 105 90
65 113 94
62 105 93
62 87 76
55 76 65
55 69 57
54 53 42
52 43 33
52 38 29
55 39 30
49 35 27
54 38 29
54 39 30
54 39 30
53 38 29
50 37 28
52 38 28
57 40 31
60 42 32
57 41 31
56 40 30
59 42 32
59 41 31
55 40 30
57 41 31
56 40 30
60 43 32
57 40 31
58 41 32
55 39 30
54 38 29
57 43 35
62 50 47
58 45 40
71 63 64
79 77 84
77 72 79
79 75 83
84 79 92
79 64 79
80 66 79
85 71 88
85 62 83
88 66 86
91 64 90
89 58 85
93 62 92
94 61 93
93 60 92
95 62 95
95 62 95
94 61 93
94 60 92
96 62 94
92 59 91
97 62 95
96 62 95
95 61 93
