P3
1600 1
255
157 168 227
158 165 221
161 169 228
163 173 231
168 178 236
166 174 233
169 180 237
164 173 231
166 175 232
168 179 237
166 177 231
166 176 230
161 171 224
156 168 214
151 159 200
145 150 188
147 155 193
139 148 179
130 136 158
124 130 148
129 136 155
121 127 139
124 132 144
120 126 137
106 114 117
111 119 125
104 112 110
96 104 92
94 103 90
89 99 81
89 100 81
89 101 79
89 101 79
87 98 77
87 98 77
87 99 77
89 100 78
83 95 74
84 95 74
87 99 77
85 97 76
86 97 77
87 98 77
84 95 75
81 92 72
87 99 77
85 96 75
84 96 75
84 96 75
85 96 75
87 99 78
84 95 74
86 97 76
83 95 75
85 97 76
85 97 75
83 95 74
80 92 71
82 93 74
86 97 81
88 101 92
91 104 97
94 107 103
100 114 118
102 117 123
108 120 130
112 127 142
113 127 142
122 137 156
120 137 158
121 137 158
117 137 160
108 128 151
111 133 156
96 120 143
102 126 147
76 106 127
81 110 132
64 98 119
52 85 105
51 92 114
45 91 112
37 81 101
33 71 91
33 70 89
37 74 90
40 73 82
42 70 68
47 75 69
52 77 55
52 79 58
63 89 43
66 93 35
69 95 32
69 97 31
70 97 30
76 105 17
80 109 15
77 105 14
81 111 15
79 109 15
79 108 15
79 108 14
76 104 14
79 109 15
77 106 14
78 107 15
75 103 14
82 111 15
79 108 15
76 104 14
78 106 14
78 107 14
78 107 14
76 104 14
77 105 14
78 107 14
80 108 15
76 105 14
79 108 14
82 111 15
78 108 15
78 107 14
73 100 13
80 108 14
78 106 14
77 105 14
77 105 14
77 106 14
79 108 15
78 106 14
77 106 14
78 106 14
77 105 14
81 110 15
77 104 14
78 106 14
77 105 14
74 100 17
74 101 19
70 92 28
69 92 30
69 88 36
63 79 41
66 80 41
60 67 51
55 54 55
54 51 55
50 31 61
49 32 58
48 23 61
46 20 57
41 18 52
49 22 62
48 21 61
54 34 69
51 27 65
56 40 72
63 55 81
70 64 89
72 66 92
85 87 111
89 90 114
96 100 123
101 107 132
104 107 130
103 112 135
114 126 149
116 125 148
121 135 159
124 139 162
128 143 168
127 140 163
130 144 167
129 144 166
132 148 171
131 146 169
134 149 172
131 148 171
133 149 173
132 149 173
130 145 168
130 145 168
132 149 173
132 149 173
131 148 173
128 145 170
130 147 169
131 149 173
131 148 172
129 146 169
130 147 171
129 145 167
135 152 176
130 146 170
131 145 167
134 151 175
133 151 176
125 143 163
122 140 158
118 137 153
114 133 148
110 133 143
97 124 126
93 120 118
82 110 103
68 102 83
49 89 54
51 96 56
47 93 50
51 101 55
48 95 52
47 93 51
49 97 53
47 94 51
47 93 51
44 89 48
49 97 52
50 99 54
50 100 54
49 97 53
49 98 53
50 99 54
50 100 54
49 95 52
49 98 53
51 100 55
49 97 53
49 97 53
48 96 53
48 94 51
49 97 53
47 93 50
51 101 55
46 91 50
50 99 54
48 95 52
48 94 51
47 92 51
49 96 53
51 101 55
49 97 53
46 92 51
48 95 52
46 91 50
48 95 52
46 91 50
48 95 52
48 95 52
47 94 51
48 94 52
48 95 51
48 94 51
51 101 55
46 90 50
49 87 48
52 86 48
64 76 44
72 80 47
84 74 45
82 71 44
88 64 41
101 51 39
104 42 36
101 45 37
109 38 39
106 42 48
115 70 81
108 57 66
113 74 86
107 72 84
116 99 114
118 95 112
124 105 121
111 105 123
116 117 137
118 118 137
116 119 139
127 136 159
118 130 153
120 133 156
116 130 152
120 136 159
123 139 162
115 133 153
111 135 152
105 130 146
105 137 149
112 153 159
108 151 157
103 150 151
92 151 145
95 159 152
79 150 137
91 166 151
84 167 147
79 167 143
76 171 145
78 172 146
71 171 142
73 175 144
71 175 144
70 173 142
71 174 143
72 177 145
72 177 145
72 177 145
72 177 146
69 169 139
71 176 145
68 169 139
69 171 141
69 171 141
69 170 141
69 172 141
72 175 143
69 169 139
67 164 135
71 174 143
68 165 136
69 171 141
70 171 140
70 168 140
68 161 135
69 163 137
71 159 136
72 160 138
74 152 137
80 145 140
74 141 130
78 133 133
81 123 133
84 111 132
84 108 133
83 98 127
87 87 127
89 77 128
94 68 133
91 47 126
92 38 124
92 37 123
90 36 116
90 42 119
90 51 119
93 60 120
98 73 121
88 67 108
106 96 136
102 98 129
109 110 139
114 122 146
113 121 144
113 121 143
126 141 165
122 135 158
122 137 160
127 144 167
128 146 171
132 150 174
130 147 171
128 146 170
127 144 168
131 150 174
124 141 166
132 150 173
131 149 174
128 145 169
131 148 173
130 147 172
129 146 170
130 147 171
128 146 171
134 153 177
129 146 169
127 145 169
127 145 169
133 152 176
123 140 164
129 146 170
130 149 172
129 147 171
130 148 173
129 145 169
127 145 170
128 145 170
127 144 168
131 149 174
130 148 172
127 145 168
129 147 171
126 143 167
123 141 164
129 145 169
125 143 167
125 143 168
126 144 168
128 146 170
126 144 168
127 146 169
122 140 161
125 143 165
112 131 150
103 124 139
102 123 137
97 119 131
94 115 126
95 113 128
82 99 113
92 107 125
80 89 107
80 92 110
86 99 121
84 97 122
90 98 129
85 95 126
83 92 126
92 106 142
94 108 145
93 111 147
92 112 146
91 112 146
91 112 146
89 110 141
91 112 146
92 114 149
92 113 147
94 116 148
93 115 148
91 112 146
93 114 146
88 108 138
89 110 141
89 111 143
86 106 137
85 105 134
87 108 140
87 106 136
87 107 137
86 106 135
84 103 132
84 104 131
83 102 130
90 111 141
86 107 137
81 100 129
83 102 132
80 98 125
83 101 129
81 99 126
79 96 123
80 98 125
80 97 122
75 92 116
81 98 124
75 88 111
76 92 118
75 91 119
77 94 121
78 95 121
75 91 114
74 90 115
68 82 105
64 77 97
76 92 116
79 94 117
76 89 113
79 93 113
92 108 131
96 111 134
90 105 126
102 118 139
109 124 144
117 134 156
113 131 153
121 137 159
119 136 156
115 132 154
119 136 157
112 129 149
117 134 155
118 134 155
119 136 158
117 134 154
119 137 158
118 136 158
121 139 162
123 140 163
123 140 162
121 138 159
121 138 161
122 140 163
118 135 155
122 140 162
120 138 158
120 137 157
117 137 152
123 142 158
115 135 150
115 138 152
118 142 155
115 141 149
109 139 148
106 143 152
107 145 146
96 138 144
83 139 139
84 138 135
74 136 135
67 137 129
54 133 127
51 133 122
43 132 124
38 128 118
32 131 121
35 128 116
12 126 113
17 133 119
12 126 111
12 129 115
6 130 115
6 128 115
8 127 112
14 130 116
7 132 119
11 119 107
11 128 116
7 123 112
10 119 109
11 117 109
10 125 118
10 113 107
13 110 109
10 108 101
14 107 109
11 103 101
15 102 110
16 93 105
18 87 108
18 83 104
19 72 101
20 69 103
35 60 108
46 65 124
46 54 115
68 64 136
72 64 142
81 70 152
84 72 153
101 86 174
107 91 177
113 95 186
116 98 189
123 104 200
113 96 184
116 98 188
113 94 179
106 86 155
101 84 150
105 86 151
85 70 119
90 73 116
89 73 111
87 73 106
81 66 87
83 68 88
83 68 87
72 58 58
76 61 56
66 55 43
77 62 48
78 63 48
67 55 43
64 54 40
70 54 43
75 62 48
70 57 44
71 57 45
73 60 46
70 57 44
72 58 45
68 56 44
70 57 45
75 61 47
66 54 43
77 63 49
70 57 44
72 58 45
72 60 45
71 57 45
75 60 47
73 59 47
75 63 48
76 62 48
71 57 45
77 63 50
69 56 45
75 60 48
68 56 46
70 57 45
65 54 43
66 55 44
64 52 46
69 56 47
72 58 52
69 57 61
72 59 64
65 53 57
67 55 61
64 52 66
67 56 71
67 54 66
64 52 61
67 55 75
63 52 72
67 56 72
59 50 77
92 91 99
103 113 126
129 145 158
134 151 159
148 171 177
169 190 207
184 203 224
185 203 227
194 212 237
188 206 230
199 218 242
195 213 238
201 220 244
200 218 242
201 218 243
199 216 241
207 226 250
202 219 244
203 221 245
206 224 249
208 226 250
205 224 248
204 221 246
206 224 248
203 220 244
204 222 245
202 218 241
210 227 251
207 224 248
203 219 242
208 225 249
203 219 242
211 229 253
204 221 244
211 229 253
207 224 248
209 226 250
210 227 251
211 229 253
211 229 253
209 227 251
209 226 250
210 228 252
211 228 252
207 224 248
211 228 252
211 229 253
212 230 253
212 230 254
212 229 253
211 230 254
210 228 251
211 229 253
212 230 254
212 230 254
212 230 254
213 231 255
213 231 255
211 230 254
213 230 254
214 231 255
210 229 253
213 231 254
206 224 248
213 230 254
213 230 254
213 230 254
210 227 250
213 230 253
212 229 252
213 230 254
211 228 252
211 228 251
213 230 254
211 228 251
210 227 250
213 230 254
212 229 252
213 230 254
213 230 253
213 230 253
212 229 252
212 229 252
212 229 252
215 232 255
214 230 254
210 227 250
209 225 248
210 227 250
213 230 253
212 228 252
213 230 252
212 229 252
209 226 248
212 229 252
214 230 253
211 227 250
212 229 252
212 228 251
214 231 254
215 231 254
214 231 254
214 231 254
213 230 253
215 232 255
215 231 254
213 229 252
213 230 253
213 229 252
212 229 252
215 231 254
215 231 254
212 228 251
215 231 254
215 232 254
214 231 254
210 227 250
215 231 254
214 230 253
215 232 255
211 227 250
212 228 251
215 231 254
209 223 248
212 227 251
213 228 252
215 231 254
213 228 252
210 225 250
210 226 249
213 228 252
211 226 250
212 227 251
214 229 253
213 228 252
213 228 252
212 226 250
213 228 252
214 230 253
209 224 248
215 232 254
211 228 250
216 232 255
214 230 252
215 231 253
212 229 251
212 227 250
213 229 252
215 232 254
215 231 254
213 229 251
214 230 253
212 228 251
216 232 255
214 230 253
215 232 254
213 229 252
199 208 222
159 160 161
94 86 100
90 77 94
76 39 65
112 75 62
121 84 79
96 90 98
85 93 101
81 90 101
92 102 114
135 139 142
158 160 158
186 183 181
186 183 181
186 183 181
186 183 181
186 183 181
186 183 181
186 183 181
186 183 181
186 183 181
185 183 181
185 183 181
185 182 181
185 182 181
185 182 181
185 182 181
185 182 181
185 182 181
185 182 181
185 182 181
185 182 181
185 182 181
185 182 181
185 182 181
184 182 181
184 182 181
184 182 181
184 182 181
184 182 181
184 182 181
184 182 181
184 182 181
184 182 181
184 182 181
184 182 181
184 182 181
184 182 181
184 182 181
184 182 181
184 182 181
184 182 181
183 182 181
183 181 181
183 181 181
183 181 181
183 181 181
183 181 181
183 181 181
183 181 181
183 181 181
183 181 181
183 181 181
183 181 181
183 181 181
183 181 181
183 181 181
183 181 181
183 181 181
183 181 181
183 181 181
182 181 181
182 181 181
182 181 181
182 181 181
182 181 181
182 181 181
182 181 181
182 181 181
182 181 181
182 181 181
182 181 181
182 181 181
182 181 181
182 181 181
182 181 181
182 181 181
182 181 181
182 181 181
182 181 181
182 181 181
182 181 181
182 181 181
181 180 181
181 180 181
181 180 181
181 180 181
181 180 181
181 180 181
181 180 181
181 180 181
181 180 181
181 180 181
181 180 181
181 180 181
181 180 181
181 180 181
181 180 181
181 180 181
181 180 181
181 180 181
181 180 181
181 180 181
181 180 181
181 180 181
181 180 181
181 180 181
181 180 181
181 180 181
180 180 181
180 180 181
180 180 181
180 180 181
180 180 181
180 180 181
180 180 181
180 180 181
180 180 181
180 180 181
180 180 181
180 180 181
180 180 181
180 180 181
180 180 181
180 180 181
180 180 181
180 180 181
180 180 181
180 180 181
180 180 181
180 180 181
180 180 181
180 180 181
180 180 181
180 180 181
180 180 181
180 180 181
180 180 181
180 180 181
180 179 181
179 179 181
179 179 181
179 179 181
179 179 181
179 179 181
179 179 181
179 179 181
179 179 181
179 179 181
179 179 181
179 179 181
179 179 181
179 179 181
179 179 181
179 179 181
179 179 181
179 179 181
179 179 181
179 179 181
179 179 181
179 179 181
179 179 181
179 179 181
179 179 181
179 179 181
179 179 181
179 179 181
179 179 181
179 179 181
179 179 181
179 179 181
179 179 181
179 179 181
179 179 181
179 179 181
179 179 181
179 179 181
179 179 181
179 179 181
179 179 181
179 179 181
179 179 181
179 179 181
179 179 181
178 179 181
179 179 181
178 179 181
178 179 181
178 179 181
178 179 181
178 179 181
178 179 181
178 179 181
178 179 181
178 179 181
178 179 181
178 179 181
178 179 181
178 179 181
178 179 181
178 179 181
178 179 181
178 179 181
178 179 181
178 179 181
178 179 181
178 179 181
178 179 181
178 179 181
178 179 181
178 179 181
178 179 181
178 179 181
178 179 181
178 179 181
178 179 181
178 179 181
178 179 181
178 179 181
178 179 181
178 179 181
178 179 181
178 179 181
178 179 181
178 179 181
178 179 181
178 179 181
178 179 181
178 179 181
178 179 181
178 179 181
178 179 181
178 179 181
178 179 181
178 179 181
178 179 181
178 179 181
178 179 181
178 179 181
178 179 181
178 179 181
178 179 181
178 179 181
178 179 181
178 179 181
178 179 181
178 179 181
178 179 181
178 179 181
178 179 181
178 179 181
178 179 181
178 179 181
178 179 181
178 179 181
178 179 181
178 179 181
178 179 181
178 179 181
178 179 181
178 179 181
178 179 181
178 179 181
178 179 181
178 179 181
178 179 181
178 179 181
178 179 181
178 179 181
178 179 181
178 179 181
178 179 181
178 179 181
178 179 181
178 179 181
178 179 181
178 179 181
178 179 181
178 179 181
178 179 181
178 179 181
178 179 181
178 179 181
178 179 181
178 179 181
178 179 181
178 179 181
178 179 181
178 179 181
178 179 181
178 179 181
178 179 181
178 179 181
178 179 181
178 179 181
178 179 181
178 179 181
178 179 181
178 179 181
178 179 181
178 179 181
178 179 181
178 179 181
178 179 181
178 179 181
178 179 181
178 179 181
178 179 181
178 179 181
178 179 181
178 179 181
178 179 181
178 179 181
178 179 181
178 179 181
178 179 181
178 179 181
178 179 181
178 179 181
178 179 181
178 179 181
178 179 181
178 179 181
178 179 181
178 179 181
178 179 181
178 179 181
178 179 181
178 179 181
178 179 181
178 179 181
178 179 181
178 179 181
178 179 181
178 179 181
178 179 181
178 179 181
178 179 181
178 179 181
178 179 181
178 179 181
178 179 181
178 179 181
178 179 181
178 179 181
178 179 181
178 179 181
178 179 181
178 179 181
178 179 181
178 179 181
179 179 181
179 179 181
179 179 181
179 179 181
179 179 181
179 179 181
179 179 181
179 179 181
179 179 181
179 179 181
179 179 181
179 179 181
179 179 181
179 179 181
179 179 181
179 179 181
179 179 181
179 179 181
179 179 181
179 179 181
179 179 181
179 179 181
179 179 181
179 179 181
179 179 181
179 179 181
179 179 181
179 179 181
179 179 181
179 179 181
179 179 181
179 179 181
179 179 181
179 179 181
179 179 181
179 179 181
179 179 181
179 179 181
179 179 181
179 179 181
179 179 181
179 179 181
180 179 181
179 179 181
180 180 181
180 180 181
180 180 181
180 180 181
180 180 181
180 180 181
180 180 181
180 180 181
180 180 181
180 180 181
180 180 181
180 180 181
180 180 181
180 180 181
180 180 181
180 180 181
180 180 181
180 180 181
180 180 181
180 180 181
180 180 181
180 180 181
180 180 181
180 180 181
180 180 181
180 180 181
180 180 181
180 180 181
180 180 181
181 180 181
181 180 181
181 180 181
181 180 181
181 180 181
181 180 181
181 180 181
181 180 181
181 180 181
181 180 181
181 180 181
181 180 181
181 180 181
181 180 181
181 180 181
181 180 181
181 180 181
181 180 181
181 180 181
181 180 181
181 180 181
181 180 181
181 180 181
181 180 181
181 180 181
182 181 181
182 181 181
182 181 181
182 181 181
182 181 181
182 181 181
182 181 181
182 181 181
182 181 181
182 181 181
182 181 181
182 181 181
182 181 181
182 181 181
182 181 181
182 181 181
182 181 181
182 181 181
182 181 181
182 181 181
182 181 181
183 181 181
183 181 181
183 181 181
183 181 181
183 181 181
183 181 181
183 181 181
183 181 181
183 181 181
183 181 181
183 181 181
183 181 181
183 181 181
183 181 181
183 181 181
183 181 181
183 182 181
184 182 181
184 182 181
184 182 181
184 182 181
184 182 181
184 182 181
184 182 181
184 182 181
184 182 181
184 182 181
184 182 181
184 182 181
184 182 181
184 182 181
184 182 181
185 182 181
185 182 181
185 182 181
185 182 181
185 182 181
185 182 181
185 182 181
185 182 181
185 182 181
185 182 181
185 182 181
185 183 181
185 183 181
186 183 181
186 183 181
186 183 181
186 183 181
186 183 181
186 183 181
186 183 181
184 181 179
169 167 167
133 136 140
114 121 126
99 113 112
81 95 92
77 77 84
96 105 103
97 107 99
96 105 113
115 133 155
113 130 155
120 136 160
121 138 165
122 139 165
118 134 160
114 129 158
125 142 167
116 133 158
120 136 161
118 134 160
114 129 155
119 136 162
109 124 150
111 124 150
114 124 151
115 111 138
114 119 146
114 112 140
114 106 137
124 98 131
117 93 126
126 88 124
122 80 115
121 66 105
121 69 107
117 79 117
120 64 104
132 53 95
124 59 100
123 62 103
145 43 86
131 54 95
137 43 86
133 49 91
132 46 89
138 51 93
141 44 88
143 34 76
145 44 89
134 52 95
137 41 83
133 52 93
135 56 99
133 48 88
119 59 101
128 56 98
128 56 98
115 71 114
105 67 108
102 73 116
103 74 117
93 83 128
82 80 122
77 80 122
69 82 125
64 85 126
45 94 138
41 91 136
16 94 137
17 99 144
16 97 143
16 97 143
16 95 139
15 91 135
16 92 134
15 91 133
22 98 143
37 96 137
47 102 144
54 106 147
67 107 143
74 113 149
86 121 156
96 125 155
94 121 152
97 126 157
115 137 163
114 133 159
117 135 161
122 139 164
123 140 165
116 134 157
121 137 160
121 137 161
116 130 153
108 119 141
118 130 153
113 119 140
115 118 141
111 115 135
111 112 131
105 100 119
105 99 118
107 98 117
107 98 116
106 95 114
111 101 120
106 95 115
112 101 122
102 92 112
109 98 118
109 99 119
108 97 116
110 100 120
107 97 117
109 99 119
108 97 116
110 100 120
105 95 115
113 101 121
111 99 119
113 102 124
108 97 116
117 106 126
108 97 117
111 101 120
111 100 120
113 103 124
114 102 123
111 100 121
112 102 122
112 100 120
111 101 121
110 99 120
111 98 118
113 102 122
112 102 122
113 102 123
112 102 121
110 99 118
113 101 121
115 104 123
113 103 122
112 101 120
105 95 115
109 99 118
111 100 120
106 95 115
111 101 121
114 102 121
114 105 125
106 98 116
110 105 125
116 113 134
116 116 136
113 117 135
118 126 146
110 120 139
115 127 145
119 133 152
116 131 151
119 134 155
118 136 155
121 137 157
121 138 159
120 136 155
121 138 158
121 138 159
123 140 161
116 132 152
124 141 161
124 141 163
119 136 156
121 139 158
121 138 158
118 135 154
120 136 157
113 129 147
119 137 159
121 138 158
118 135 154
119 134 152
123 140 161
121 138 157
117 138 155
105 128 141
118 139 155
101 125 138
104 132 143
82 118 121
91 127 132
85 129 129
84 126 125
89 131 132
80 127 126
68 120 113
62 120 109
66 123 114
54 114 96
62 117 100
61 109 89
77 115 90
73 114 91
89 116 86
86 114 85
92 113 80
106 115 74
107 112 70
111 115 70
118 115 64
122 114 58
123 116 61
127 115 54
130 117 56
128 115 55
128 116 55
129 118 55
127 115 54
129 117 55
125 112 53
127 115 55
130 117 56
127 115 54
126 113 53
132 120 56
129 117 55
126 115 54
128 117 55
130 118 56
128 118 56
128 117 55
130 118 56
129 118 55
129 118 55
129 117 55
129 118 55
131 119 56
131 119 56
132 119 56
128 117 55
131 120 57
128 117 55
129 118 55
129 117 55
127 116 56
127 116 58
126 114 56
120 110 59
120 112 70
113 106 71
113 111 88
114 110 85
101 97 82
106 107 97
111 118 121
106 112 116
99 108 119
104 115 128
102 113 130
112 125 143
105 116 134
106 118 135
111 125 144
105 118 136
115 128 147
116 132 151
111 124 142
121 139 160
112 128 147
118 134 153
102 116 131
111 126 143
106 117 132
104 117 134
100 111 125
99 111 125
98 110 122
94 105 117
90 100 110
87 102 108
86 93 101
88 100 105
86 107 109
85 103 106
86 106 108
85 108 109
87 105 109
86 102 109
86 102 110
87 105 112
87 109 112
87 106 113
88 105 115
