P3
1600 1
255
166 174 231
168 177 234
171 178 234
176 184 243
170 177 234
172 182 239
175 183 241
175 184 241
173 180 237
171 180 237
173 181 238
174 181 238
174 182 238
173 181 234
171 179 232
165 172 222
169 176 225
162 169 211
165 172 219
168 173 220
155 161 199
154 160 198
146 153 188
154 158 198
147 152 185
138 144 169
140 145 172
134 140 162
130 133 155
115 122 129
102 110 107
104 112 112
93 103 92
96 105 94
90 101 84
87 99 77
89 100 78
86 97 76
84 96 75
84 95 75
84 95 74
84 96 75
86 97 76
86 97 75
82 92 71
82 93 72
82 94 73
86 97 76
85 96 75
83 94 73
83 94 72
84 96 75
82 93 73
86 98 75
83 94 73
81 91 71
80 91 70
80 91 70
83 94 73
80 91 70
82 93 72
84 96 83
82 94 78
92 104 99
94 106 100
98 111 114
100 113 119
114 129 142
118 133 149
118 134 150
119 137 158
116 135 155
114 136 157
114 135 157
107 124 144
103 124 146
92 116 136
89 118 140
87 111 132
73 98 117
60 92 112
48 81 100
47 83 104
37 71 90
40 73 91
40 73 82
42 70 71
45 76 73
50 77 63
59 85 47
59 83 38
61 87 39
68 94 27
70 97 26
72 99 20
78 105 14
74 101 13
75 103 14
77 106 14
77 105 14
77 106 14
79 108 15
76 104 14
77 106 14
78 107 14
77 105 14
77 106 14
75 103 14
80 108 14
78 107 14
77 105 14
80 109 15
77 106 14
78 107 14
78 105 14
79 108 14
75 103 14
76 105 14
76 105 14
77 105 14
80 109 15
79 108 14
75 103 14
73 99 13
76 104 14
76 105 14
76 105 14
74 100 13
77 105 14
75 103 14
77 105 14
77 106 14
75 103 14
72 100 13
77 105 14
78 107 14
74 101 13
74 102 14
72 99 13
73 100 13
74 101 19
75 101 23
69 90 26
63 80 34
69 89 32
61 71 45
64 72 55
60 66 51
60 58 67
56 55 59
52 37 66
46 32 61
49 36 62
60 48 77
67 64 88
73 70 93
75 76 98
79 80 103
88 91 115
82 85 108
102 110 131
94 99 121
104 114 136
108 119 143
112 123 146
119 131 156
123 139 163
124 139 163
129 145 169
124 138 161
128 145 170
131 148 172
129 147 171
131 149 174
129 145 169
133 149 171
133 151 175
131 148 172
130 148 173
131 149 174
133 151 174
130 147 171
132 148 172
129 144 168
133 150 175
132 149 172
131 149 173
132 148 173
129 146 170
132 150 174
134 151 175
131 150 175
128 145 169
131 148 172
130 145 168
134 150 173
133 150 174
130 147 170
128 146 167
125 145 165
111 130 144
115 136 150
105 128 135
99 124 125
92 120 119
79 110 98
70 100 87
52 92 62
44 86 49
47 93 50
48 95 51
48 94 51
47 93 51
46 92 50
46 92 50
45 91 50
48 95 52
45 89 49
47 93 50
49 98 53
47 92 50
46 91 49
48 95 51
49 98 53
47 94 51
46 93 51
46 91 49
48 95 52
49 98 53
46 91 50
47 92 50
46 91 49
49 98 53
49 97 53
45 89 49
48 95 52
47 92 50
48 96 52
45 88 48
49 96 52
46 93 50
43 85 47
47 93 51
47 91 50
48 96 53
43 86 47
50 99 54
44 86 47
46 90 49
46 91 50
45 88 48
47 93 51
47 93 50
44 85 47
45 89 49
47 87 48
52 86 48
56 83 46
71 75 45
79 77 54
84 73 54
86 75 60
94 65 60
101 69 69
102 70 74
110 69 80
110 83 96
112 83 96
106 77 90
115 92 107
119 102 120
117 111 130
117 115 135
119 122 143
126 134 156
122 129 151
122 131 153
123 137 159
121 133 156
124 140 164
124 139 163
128 144 166
125 142 165
117 141 157
117 147 160
112 146 157
109 150 156
104 157 156
96 159 150
93 160 149
97 166 153
82 164 143
83 167 146
77 177 148
74 169 142
75 176 147
70 172 141
70 172 141
69 170 140
72 177 146
69 170 139
68 167 137
71 175 144
70 172 140
70 171 139
71 174 141
70 171 139
70 172 141
68 167 137
69 171 140
70 172 141
67 167 136
70 171 142
68 169 139
68 169 138
68 168 137
68 166 135
70 172 140
69 171 141
69 169 139
67 167 136
70 171 139
69 170 139
66 163 132
70 173 141
66 162 133
68 167 135
64 156 128
67 162 133
68 155 131
74 145 132
70 149 130
72 136 126
76 130 130
79 125 130
79 101 122
80 103 125
81 86 122
87 80 127
88 67 126
91 52 124
93 38 126
95 46 128
91 45 123
96 55 127
98 76 130
95 74 125
103 90 136
105 95 133
109 113 145
115 120 149
115 120 149
117 129 153
122 135 161
125 141 164
123 138 160
122 137 158
128 146 171
126 143 165
129 146 169
122 138 161
130 149 172
123 140 164
122 137 159
130 148 171
127 143 166
125 142 165
128 144 166
129 146 169
125 142 166
125 142 165
129 147 171
131 150 173
125 142 166
122 139 162
130 147 172
129 146 170
127 144 167
129 146 170
123 141 164
123 141 164
127 144 168
127 145 167
125 143 165
129 147 171
130 148 172
129 146 169
123 140 163
124 141 163
124 141 164
122 139 163
122 141 163
127 146 170
125 142 165
121 138 160
122 140 162
129 147 172
125 143 165
124 142 165
127 145 167
122 140 163
127 145 168
120 138 158
115 133 153
112 131 149
116 135 155
115 134 151
98 113 131
98 108 129
94 106 127
101 116 140
95 111 136
96 112 137
96 113 139
93 107 136
90 104 136
93 109 143
91 109 144
92 114 147
87 107 140
86 105 135
88 110 141
88 109 142
90 111 143
89 110 141
89 109 139
88 108 139
87 108 140
88 108 141
91 113 145
89 109 141
83 103 132
86 107 136
88 109 139
85 106 137
87 108 138
86 106 134
84 103 131
91 111 142
83 103 132
83 103 134
84 103 132
82 101 129
78 98 122
83 103 132
83 102 130
82 100 129
79 96 124
76 92 118
78 96 123
74 89 112
78 95 120
76 91 116
74 91 118
78 95 120
78 97 124
79 95 121
66 80 102
76 93 120
68 84 104
72 89 111
70 83 106
70 84 106
69 82 104
68 81 102
76 91 115
79 94 119
82 96 116
95 109 131
94 109 130
98 112 132
100 116 138
102 118 137
110 125 147
115 132 155
119 136 158
119 137 158
127 145 167
118 135 155
126 144 168
126 145 168
118 134 154
123 140 163
116 134 153
123 141 161
121 142 156
120 141 154
125 148 159
121 145 151
119 148 145
112 142 134
117 146 145
111 144 125
115 148 135
118 155 132
110 146 122
114 149 128
113 153 126
107 147 125
111 153 132
102 152 124
97 145 110
88 142 108
94 154 96
89 153 110
75 148 100
76 147 108
69 149 109
61 140 101
57 146 101
48 143 110
48 143 106
48 143 106
34 136 110
31 136 113
26 135 112
27 136 116
13 130 115
12 134 120
6 130 112
6 131 118
6 131 117
6 130 116
6 127 114
6 123 111
6 127 113
6 126 114
6 127 112
6 124 109
5 122 109
5 122 109
6 122 110
6 124 112
5 117 104
6 116 104
9 104 96
9 114 107
10 114 109
12 100 101
13 95 99
14 85 97
20 73 90
41 76 110
47 67 111
73 78 140
73 82 136
92 85 162
84 74 148
101 85 171
101 86 170
106 90 179
111 94 182
119 100 191
113 95 183
114 95 182
106 89 173
109 91 174
110 92 179
99 83 152
103 86 159
93 76 138
89 72 119
95 78 127
80 67 106
86 73 111
82 66 96
80 64 94
84 68 85
76 62 67
58 47 39
70 57 59
70 55 44
78 63 49
63 51 40
60 51 38
60 50 39
75 61 48
67 56 43
73 59 47
74 59 47
59 50 38
71 58 45
71 58 45
56 47 35
71 57 44
66 55 43
67 55 44
65 55 43
68 56 44
71 58 46
66 53 42
69 55 43
65 55 42
73 59 48
69 55 45
66 54 44
72 59 47
58 48 49
67 54 53
56 48 50
62 51 57
57 47 69
58 51 88
52 46 72
53 46 81
52 43 76
53 46 89
52 44 91
54 46 95
50 44 88
44 40 91
45 39 85
42 38 98
52 45 98
50 43 83
45 42 101
53 56 111
54 64 107
87 106 130
116 133 154
138 161 170
149 170 185
172 193 210
176 198 214
186 205 226
190 209 232
197 216 242
194 213 238
199 217 242
186 204 227
197 216 240
198 216 241
198 217 241
205 223 248
199 217 242
206 224 248
204 222 247
204 223 247
205 223 248
204 224 248
209 227 251
206 223 247
203 221 245
205 223 246
207 224 248
211 228 253
203 220 243
209 226 250
208 225 249
204 221 244
209 226 250
206 223 246
205 222 246
206 223 247
208 225 249
210 227 251
212 230 254
209 227 251
208 226 250
213 231 255
211 228 252
209 226 250
212 229 254
211 229 253
210 228 252
208 226 250
212 229 253
210 228 252
211 229 253
208 226 250
209 226 249
210 229 253
211 230 254
212 231 254
211 230 253
210 229 253
212 230 254
213 231 254
209 228 252
211 229 252
211 228 252
210 227 251
210 228 252
214 231 255
210 228 251
213 230 254
213 230 254
212 229 253
211 228 251
210 228 251
213 230 254
214 231 254
212 229 252
209 226 250
211 228 251
209 226 250
212 229 252
211 228 251
213 230 254
210 228 251
209 226 248
212 230 253
212 229 252
212 229 252
212 230 253
213 230 254
213 230 254
214 231 254
213 230 254
214 230 254
212 229 252
214 231 254
215 232 255
212 229 252
212 229 252
213 229 252
213 229 252
214 231 254
213 230 254
212 229 252
214 231 254
214 231 254
213 230 254
212 228 252
214 230 254
214 231 254
215 232 255
210 226 249
212 228 251
213 230 253
210 227 250
212 229 252
213 230 253
213 230 253
213 230 253
213 229 252
210 226 249
212 229 252
211 228 251
212 228 252
211 227 250
214 230 254
212 228 252
211 226 250
212 228 252
213 229 252
210 224 249
214 230 253
211 227 251
213 229 253
212 230 251
214 231 254
212 230 251
213 230 251
213 231 251
214 231 254
214 231 254
213 231 252
212 229 250
212 230 252
215 231 254
214 231 253
213 232 251
212 230 251
212 230 251
212 230 251
212 230 251
214 231 253
213 230 253
212 229 250
215 231 254
213 230 253
213 229 252
195 203 216
144 145 146
88 86 96
80 67 81
83 30 54
108 65 57
90 59 65
71 71 86
78 64 78
80 70 94
92 100 129
90 123 129
89 125 125
124 128 132
154 152 153
180 177 175
186 183 181
186 183 181
186 183 181
186 183 181
186 183 181
186 183 181
186 183 181
186 183 181
186 183 181
186 183 181
185 183 181
185 183 181
185 182 181
185 182 181
185 182 181
185 182 181
185 182 181
185 182 181
185 182 181
185 182 181
185 182 181
185 182 181
185 182 181
185 182 181
185 182 181
185 182 181
184 182 181
184 182 181
184 182 181
184 182 181
184 182 181
184 182 181
184 182 181
184 182 181
184 182 181
184 182 181
184 182 181
184 182 181
184 182 181
184 182 181
184 182 181
184 182 181
184 182 181
184 182 181
184 182 181
183 182 181
183 182 181
183 181 181
183 181 181
183 181 181
183 181 181
183 181 181
183 181 181
183 181 181
183 181 181
183 181 181
183 181 181
183 181 181
183 181 181
183 181 181
183 181 181
183 181 181
183 181 181
183 181 181
183 181 181
183 181 181
182 181 181
182 181 181
182 181 181
182 181 181
182 181 181
182 181 181
182 181 181
182 181 181
182 181 181
182 181 181
182 181 181
182 181 181
182 181 181
182 181 181
182 181 181
182 181 181
182 181 181
182 181 181
182 181 181
182 181 181
182 181 181
182 181 181
182 181 181
182 181 181
182 181 181
181 180 181
181 180 181
181 180 181
181 180 181
181 180 181
181 180 181
181 180 181
181 180 181
181 180 181
181 180 181
181 180 181
181 180 181
181 180 181
181 180 181
181 180 181
181 180 181
181 180 181
181 180 181
181 180 181
181 180 181
181 180 181
181 180 181
181 180 181
181 180 181
181 180 181
181 180 181
181 180 181
181 180 181
181 180 181
181 180 181
180 180 181
180 180 181
180 180 181
180 180 181
180 180 181
180 180 181
180 180 181
180 180 181
180 180 181
180 180 181
180 180 181
180 180 181
180 180 181
180 180 181
180 180 181
180 180 181
180 180 181
180 180 181
180 180 181
180 180 181
180 180 181
180 180 181
180 180 181
180 180 181
180 180 181
180 180 181
180 180 181
180 180 181
180 180 181
180 180 181
180 180 181
180 180 181
180 180 181
180 180 181
180 180 181
180 180 181
180 180 181
180 179 181
180 179 181
180 179 181
180 179 181
179 179 181
179 179 181
179 179 181
179 179 181
179 179 181
179 179 181
179 179 181
179 179 181
179 179 181
179 179 181
179 179 181
179 179 181
179 179 181
179 179 181
179 179 181
179 179 181
179 179 181
179 179 181
179 179 181
179 179 181
179 179 181
179 179 181
179 179 181
179 179 181
179 179 181
179 179 181
179 179 181
179 179 181
179 179 181
179 179 181
179 179 181
179 179 181
179 179 181
179 179 181
179 179 181
179 179 181
179 179 181
179 179 181
179 179 181
179 179 181
179 179 181
179 179 181
179 179 181
179 179 181
179 179 181
179 179 181
179 179 181
179 179 181
179 179 181
179 179 181
179 179 181
179 179 181
179 179 181
179 179 181
179 179 181
179 179 181
179 179 181
179 179 181
179 179 181
179 179 181
179 179 181
179 179 181
179 179 181
179 179 181
179 179 181
179 179 181
179 179 181
179 179 181
179 179 181
179 179 181
179 179 181
179 179 181
178 179 181
178 179 181
179 179 181
178 179 181
178 179 181
178 179 181
178 179 181
178 179 181
178 179 181
178 179 181
178 179 181
178 179 181
178 179 181
178 179 181
178 179 181
178 179 181
178 179 181
178 179 181
178 179 181
178 179 181
178 179 181
178 179 181
178 179 181
178 179 181
178 179 181
178 179 181
178 179 181
178 179 181
178 179 181
178 179 181
178 179 181
178 179 181
178 179 181
178 179 181
178 179 181
178 179 181
178 179 181
178 179 181
178 179 181
178 179 181
178 179 181
178 179 181
178 179 181
178 179 181
178 179 181
178 179 181
178 179 181
178 179 181
178 179 181
178 179 181
178 179 181
178 179 181
178 179 181
178 179 181
178 179 181
179 179 181
178 179 181
179 179 181
179 179 181
179 179 181
179 179 181
179 179 181
179 179 181
179 179 181
179 179 181
179 179 181
179 179 181
179 179 181
179 179 181
179 179 181
179 179 181
179 179 181
179 179 181
179 179 181
179 179 181
179 179 181
179 179 181
179 179 181
179 179 181
179 179 181
179 179 181
179 179 181
179 179 181
179 179 181
179 179 181
179 179 181
179 179 181
179 179 181
179 179 181
179 179 181
179 179 181
179 179 181
179 179 181
179 179 181
179 179 181
179 179 181
179 179 181
179 179 181
179 179 181
179 179 181
179 179 181
179 179 181
179 179 181
179 179 181
179 179 181
179 179 181
179 179 181
179 179 181
179 179 181
179 179 181
179 179 181
179 179 181
179 179 181
179 179 181
179 179 181
179 179 181
179 179 181
179 179 181
179 179 181
179 179 181
179 179 181
179 179 181
179 179 181
179 179 181
179 179 181
179 179 181
179 179 181
179 179 181
179 179 181
179 179 181
180 179 181
180 179 181
180 179 181
180 180 181
180 180 181
180 180 181
180 180 181
180 180 181
180 180 181
180 180 181
180 180 181
180 180 181
180 180 181
180 180 181
180 180 181
180 180 181
180 180 181
180 180 181
180 180 181
180 180 181
180 180 181
180 180 181
180 180 181
180 180 181
180 180 181
180 180 181
180 180 181
180 180 181
180 180 181
180 180 181
180 180 181
180 180 181
180 180 181
180 180 181
180 180 181
180 180 181
180 180 181
180 180 181
180 180 181
180 180 181
181 180 181
181 180 181
181 180 181
181 180 181
181 180 181
181 180 181
181 180 181
181 180 181
181 180 181
181 180 181
181 180 181
181 180 181
181 180 181
181 180 181
181 180 181
181 180 181
181 180 181
181 180 181
181 180 181
181 180 181
181 180 181
181 180 181
181 180 181
181 180 181
181 180 181
181 180 181
181 180 181
181 180 181
182 181 181
182 181 181
182 181 181
182 181 181
182 181 181
182 181 181
182 181 181
182 181 181
182 181 181
182 181 181
182 181 181
182 181 181
182 181 181
182 181 181
182 181 181
182 181 181
182 181 181
182 181 181
182 181 181
182 181 181
182 181 181
182 181 181
182 181 181
182 181 181
183 181 181
183 181 181
183 181 181
183 181 181
183 181 181
183 181 181
183 181 181
183 181 181
183 181 181
183 181 181
183 181 181
183 181 181
183 181 181
183 181 181
183 181 181
183 181 181
183 181 181
183 181 181
183 182 181
183 182 181
184 182 181
184 182 181
184 182 181
184 182 181
184 182 181
184 182 181
184 182 181
184 182 181
184 182 181
184 182 181
184 182 181
184 182 181
184 182 181
184 182 181
184 182 181
184 182 181
184 182 181
185 182 181
185 182 181
185 182 181
185 182 181
185 182 181
185 182 181
185 182 181
185 182 181
185 182 181
185 182 181
185 182 181
185 182 181
185 183 181
185 183 181
186 183 181
186 183 181
186 183 181
186 183 181
186 183 181
186 183 181
186 183 181
186 183 181
185 182 180
173 171 170
143 145 148
119 124 130
103 120 116
86 116 100
87 112 100
86 97 93
89 83 85
103 112 109
91 99 97
87 93 94
119 132 151
120 137 162
122 139 163
124 141 164
125 143 164
120 137 160
124 141 167
122 140 164
118 135 159
122 139 163
115 129 156
119 134 157
120 128 153
123 127 152
118 114 140
126 111 136
128 107 135
120 99 128
128 98 126
132 90 118
123 75 105
135 65 101
131 52 91
137 48 89
141 57 90
135 49 84
143 35 77
143 32 76
148 30 75
149 28 74
150 26 72
146 27 72
150 24 72
153 25 74
152 24 73
151 24 72
152 25 74
152 25 73
150 24 72
153 24 73
147 24 71
150 24 72
153 25 73
152 29 77
148 26 72
151 26 73
151 29 76
152 28 76
140 36 80
140 44 87
137 43 85
126 59 100
121 65 108
114 59 98
113 66 107
103 72 114
97 70 110
86 79 122
78 80 122
69 82 125
58 89 132
50 87 129
34 88 130
16 94 137
15 92 135
22 97 142
28 95 137
53 105 144
57 105 144
62 106 142
77 115 150
82 118 153
91 124 157
95 123 156
98 127 158
102 128 156
116 137 160
117 139 165
120 139 165
124 143 167
123 141 164
120 138 162
121 139 161
123 141 163
125 143 167
122 138 161
118 130 152
124 136 160
112 120 141
116 123 145
107 109 129
113 112 131
106 103 122
108 100 120
104 96 113
101 91 110
102 92 110
106 95 114
101 92 111
104 93 112
105 97 114
104 94 113
101 91 110
105 96 115
106 95 113
109 97 117
102 92 110
108 97 117
107 97 118
107 96 114
109 99 118
111 102 122
104 95 113
108 98 118
113 101 121
111 100 121
110 97 116
111 100 121
110 100 118
106 97 114
105 95 115
108 97 117
110 98 117
107 97 115
109 99 119
110 99 117
112 101 120
108 97 116
109 98 117
112 102 123
111 100 119
106 96 115
107 97 117
109 98 117
106 95 114
106 96 115
106 96 115
111 100 118
107 96 115
107 97 116
103 93 109
113 104 125
102 93 110
104 99 117
112 111 130
110 114 133
115 119 139
107 113 130
113 120 138
117 130 150
118 134 152
119 134 153
118 135 154
113 131 150
118 135 154
113 130 148
119 137 157
120 137 158
117 135 155
119 134 154
121 134 154
112 124 143
114 123 142
114 119 137
121 133 154
119 123 144
115 125 145
120 129 148
119 127 146
120 127 147
117 121 140
115 123 141
120 127 148
116 123 141
114 118 136
123 133 154
119 131 151
117 124 144
112 126 144
111 130 145
105 131 145
103 127 138
103 134 144
102 133 143
95 129 135
97 132 140
80 122 124
82 121 123
80 119 119
81 115 106
81 113 97
84 113 96
94 115 86
95 113 84
93 109 78
110 112 68
113 112 66
114 112 62
123 114 57
125 114 56
124 111 53
126 114 54
121 110 52
122 110 52
126 115 54
128 114 54
128 115 54
124 112 53
126 114 54
129 117 55
126 113 53
129 117 55
129 117 55
126 114 53
126 114 53
125 114 54
124 113 53
130 118 55
130 118 56
128 116 55
123 112 53
124 111 52
128 116 55
124 114 53
130 118 56
123 112 53
130 118 55
127 116 55
124 113 53
127 115 54
125 114 53
126 115 54
126 116 54
126 117 54
128 116 54
126 115 54
122 111 52
124 114 54
120 111 52
124 117 77
122 115 71
124 120 91
119 115 86
112 110 86
117 118 104
109 110 99
113 119 120
114 123 130
113 119 123
113 126 141
108 119 134
121 138 160
120 137 157
118 133 153
103 115 132
111 127 143
114 129 148
108 125 140
108 124 140
107 126 141
109 128 141
103 122 133
91 114 120
92 111 119
98 119 126
93 113 120
90 114 117
90 113 115
88 109 113
87 110 112
82 105 106
84 112 111
85 110 110
85 113 111
85 113 111
84 112 110
84 112 110
83 111 108
85 113 111
85 114 112
85 114 113
87 115 113
84 113 111
83 111 109
