P3
1600 1
255
180 188 245
177 184 242
179 188 246
175 185 244
176 185 244
177 187 246
177 187 246
177 187 246
175 186 246
175 186 246
176 187 246
176 187 246
178 188 246
174 184 244
179 188 246
177 187 246
175 185 244
178 188 246
179 188 246
176 185 241
179 186 242
177 184 240
176 183 237
174 181 232
171 177 224
164 171 216
156 161 199
160 165 204
157 161 199
144 149 178
134 141 166
142 145 172
122 127 141
112 117 126
118 123 135
102 111 111
98 106 102
83 94 74
85 95 77
83 93 73
85 97 75
80 90 70
84 94 74
85 95 75
86 97 75
84 94 73
83 93 73
80 90 70
83 94 73
84 95 73
82 93 72
80 92 71
78 89 68
82 93 73
80 91 71
80 91 70
84 94 73
79 89 69
79 90 69
76 88 69
76 90 72
76 91 73
78 92 73
77 95 85
81 100 94
82 102 102
91 111 115
85 106 107
97 120 130
96 119 128
108 129 142
100 123 138
100 123 137
95 119 135
92 120 135
89 119 134
80 108 124
69 103 116
70 103 117
68 104 120
50 90 103
57 89 104
53 88 99
40 80 87
44 79 81
41 77 80
50 83 71
45 76 66
53 83 60
55 81 54
57 84 48
68 95 27
68 94 23
71 97 15
72 99 13
77 105 14
74 103 14
74 101 14
73 100 13
72 99 13
75 102 14
74 101 13
77 104 14
77 105 14
77 104 14
74 101 13
77 105 14
71 98 13
74 101 14
74 101 14
78 105 14
75 103 14
75 103 14
76 104 14
75 103 14
77 105 14
75 102 14
77 106 14
76 103 14
73 100 13
76 103 14
77 105 14
77 105 14
76 104 14
71 97 13
74 101 14
75 104 14
76 104 14
75 102 14
74 101 13
73 100 13
73 99 13
73 100 13
72 99 13
72 99 13
74 101 13
74 101 13
72 98 13
72 99 13
73 100 13
73 99 13
75 103 15
71 95 20
68 92 21
66 85 36
69 87 50
63 74 48
64 72 58
73 84 75
73 78 84
73 78 83
73 77 94
85 88 109
77 77 98
80 85 104
84 88 109
94 102 122
87 93 114
97 104 127
102 109 130
100 108 130
105 114 138
111 122 143
117 130 154
119 133 157
123 137 160
126 142 167
127 143 166
127 145 168
130 148 172
127 141 165
128 144 168
128 143 166
128 146 170
126 142 165
131 148 172
127 143 168
129 142 165
133 151 176
128 145 169
132 149 172
127 145 169
127 143 167
126 142 167
131 147 172
129 147 171
129 146 169
131 147 170
131 147 171
127 141 165
133 150 174
130 148 172
130 147 171
132 150 173
125 141 164
132 150 174
128 143 165
134 151 174
125 142 162
123 140 161
117 136 153
109 127 141
99 119 128
101 123 128
89 117 115
80 106 102
66 95 83
53 92 59
55 92 65
43 86 46
44 88 48
48 95 51
46 91 49
47 93 50
45 88 48
47 93 50
46 92 50
45 89 48
45 90 48
45 89 48
45 90 48
42 84 45
46 92 50
46 91 49
46 91 50
46 93 50
44 88 48
46 90 49
48 94 51
43 87 47
47 92 51
47 94 51
45 90 49
46 91 50
47 93 51
46 90 49
47 92 50
45 90 49
46 90 49
48 94 51
46 93 51
43 86 48
46 91 49
46 90 49
44 86 48
46 91 50
45 88 48
45 89 48
45 89 49
41 82 45
46 91 50
43 86 47
46 91 50
43 85 46
46 91 49
49 88 51
55 88 51
68 88 65
73 86 68
72 86 74
83 84 75
81 77 66
96 88 90
97 92 97
105 97 110
111 93 106
110 101 118
112 107 125
113 102 118
119 114 132
114 119 139
121 125 146
120 128 150
127 136 159
129 142 165
124 136 159
127 140 164
125 141 164
128 141 164
125 140 164
126 145 165
121 144 160
121 143 162
113 153 159
108 151 154
109 155 157
100 156 152
99 163 154
89 165 148
84 169 146
81 172 146
73 168 140
70 169 139
71 174 142
69 169 139
70 172 141
70 171 140
68 168 138
71 172 141
70 172 141
67 165 136
67 165 135
70 172 141
68 166 136
70 171 139
72 177 144
70 170 139
71 174 142
70 172 141
68 168 137
68 166 138
68 167 137
69 171 140
69 169 139
68 168 138
67 164 133
67 165 135
67 164 134
68 168 136
68 167 137
68 168 137
68 167 137
67 163 134
68 166 135
66 164 133
66 162 133
63 157 128
67 165 135
62 155 127
67 164 133
64 158 127
65 157 129
66 149 127
69 144 128
72 134 126
72 117 117
73 115 121
82 110 129
81 110 128
83 88 122
82 72 120
88 53 124
89 42 120
90 43 123
95 44 130
91 47 123
98 64 132
95 70 124
103 82 138
99 92 131
106 98 137
111 109 144
112 115 147
115 124 149
119 131 156
118 133 157
121 135 156
122 137 160
120 135 157
119 133 156
121 134 155
125 141 164
117 132 154
120 135 157
125 141 164
123 139 162
121 137 158
124 140 163
123 139 162
118 134 157
120 135 157
123 139 162
122 139 161
126 143 166
125 142 165
121 137 158
121 136 158
124 142 164
128 145 168
123 140 161
129 146 169
128 145 169
124 141 164
126 142 164
117 133 155
127 145 169
122 141 164
128 147 170
121 137 159
126 143 165
126 143 166
122 138 160
121 138 161
119 137 158
125 141 164
121 138 160
127 145 168
124 142 164
121 138 160
117 134 154
126 144 167
120 137 158
119 137 158
121 139 159
117 134 156
114 131 149
108 126 145
100 119 135
110 128 147
105 120 139
92 109 131
94 112 134
100 116 144
96 112 138
92 111 138
94 112 141
92 112 142
88 109 139
89 110 142
89 110 142
86 105 136
85 104 134
89 111 144
89 109 141
87 108 138
89 109 139
85 106 137
82 103 133
89 110 142
85 105 137
86 105 135
86 106 137
86 106 138
86 106 134
82 102 131
87 107 139
82 102 131
82 100 130
81 101 129
80 99 126
87 107 137
86 106 135
79 98 124
75 93 120
82 100 128
80 98 124
81 100 127
81 101 126
78 96 124
80 97 123
81 99 126
77 94 121
76 93 119
77 93 119
73 91 115
79 95 121
73 90 113
72 88 111
74 90 113
73 88 114
65 78 97
67 80 103
69 81 103
67 80 103
61 71 92
70 83 106
73 85 106
83 95 118
90 105 127
89 106 128
96 111 131
102 118 141
111 129 152
112 129 152
118 135 157
117 134 155
123 141 163
121 138 159
124 141 163
123 142 164
119 136 154
123 145 159
121 145 151
117 148 140
115 145 139
113 150 124
115 152 128
113 151 124
112 157 112
110 158 103
110 157 102
110 156 107
112 161 104
113 165 101
107 160 87
107 164 82
110 166 87
104 161 74
104 164 79
100 166 53
102 166 62
94 162 54
101 161 74
96 165 64
86 158 59
85 156 61
84 158 64
83 155 61
85 162 65
78 156 77
77 151 70
75 154 79
74 150 78
67 147 84
66 151 93
60 145 93
50 139 98
42 137 103
41 136 106
42 138 105
31 132 109
30 134 112
15 125 109
11 129 113
6 130 116
5 122 108
6 127 113
6 125 111
6 126 112
6 123 110
5 123 109
6 126 113
5 118 105
6 125 111
5 121 107
5 116 104
5 108 95
5 118 106
6 104 94
7 112 101
10 101 98
21 101 98
35 99 106
30 88 103
64 92 131
75 90 140
70 91 136
69 84 128
89 89 152
110 97 185
99 87 163
104 87 170
110 93 180
120 101 196
112 93 181
103 86 165
113 94 181
105 88 170
101 83 158
103 86 161
100 83 159
89 73 136
95 78 140
79 65 120
84 68 115
87 71 115
82 66 100
85 71 110
80 63 86
77 61 83
77 63 87
75 61 76
71 58 54
74 59 63
70 56 45
70 58 45
66 54 43
65 54 42
69 56 44
73 59 46
69 55 43
62 51 39
67 55 44
64 53 41
65 54 43
68 55 45
70 56 44
73 59 46
63 51 41
64 52 41
63 52 42
68 55 44
68 55 43
58 49 38
69 55 45
61 51 44
61 49 48
63 52 53
60 50 65
63 52 60
57 48 63
53 46 63
44 41 81
51 46 83
32 35 92
35 36 97
37 35 91
32 32 99
23 30 110
33 35 112
27 32 107
23 29 107
24 29 103
28 32 113
19 28 121
21 29 110
19 27 112
41 48 118
62 81 131
73 87 127
124 146 163
126 148 166
162 185 201
167 190 205
174 197 215
183 203 225
189 208 234
189 208 234
197 216 241
196 215 241
200 218 244
198 215 241
195 214 238
198 217 242
200 219 244
204 223 248
205 224 249
197 215 240
207 225 250
207 226 251
204 221 246
208 226 250
199 216 240
202 219 243
204 221 245
204 221 245
206 224 248
206 224 248
204 220 244
205 221 245
205 221 245
204 221 245
205 223 246
208 226 250
210 228 252
203 220 244
208 226 251
209 227 252
209 227 252
212 230 254
204 222 246
211 228 253
211 229 253
210 228 252
210 228 253
209 226 250
206 224 248
210 228 252
210 228 252
211 229 253
209 227 250
211 228 252
211 230 254
209 228 252
211 229 253
210 229 252
213 231 255
210 227 251
208 226 249
209 226 250
211 229 252
211 229 252
209 227 251
212 230 254
210 228 251
209 226 250
213 230 254
208 225 249
212 230 254
212 229 253
213 230 254
212 230 254
211 229 252
212 230 254
211 228 252
213 230 254
213 231 254
213 231 254
211 228 252
212 229 253
210 227 250
214 231 254
214 231 255
211 228 252
213 230 254
213 230 254
213 230 254
212 229 252
212 229 252
212 229 252
214 231 254
211 228 251
212 229 253
215 232 255
209 226 250
212 229 253
211 228 252
214 231 254
212 230 253
211 228 252
213 230 253
210 227 250
212 229 252
211 229 252
212 229 253
213 230 253
213 230 253
212 229 252
212 229 253
213 230 254
212 229 252
211 228 252
214 231 254
212 229 252
215 232 255
213 230 254
214 230 254
212 228 251
212 228 251
214 231 254
213 229 253
213 229 253
209 224 248
213 229 253
213 229 253
215 231 255
214 230 253
211 229 250
207 224 245
210 230 249
213 230 252
210 231 249
211 231 250
212 231 251
210 231 249
214 232 253
211 231 250
212 231 251
212 230 251
212 231 251
214 232 253
211 230 249
214 232 253
213 232 252
213 232 252
210 230 249
214 232 253
211 231 250
213 231 253
212 231 251
210 229 249
214 231 253
211 226 248
189 196 206
137 139 142
78 80 91
70 56 72
92 42 55
81 72 59
52 60 61
54 66 79
78 64 75
79 63 89
96 91 130
76 108 130
88 99 125
94 128 124
86 117 108
105 110 115
107 115 108
134 135 131
167 171 165
171 179 169
185 182 179
186 183 181
186 183 181
186 183 181
186 183 181
186 183 181
186 183 181
186 183 181
186 183 181
186 183 181
186 183 181
185 183 181
185 183 181
185 183 181
185 182 181
185 182 181
185 182 181
185 182 181
185 182 181
185 182 181
185 182 181
185 182 181
185 182 181
185 182 181
185 182 181
185 182 181
185 182 181
185 182 181
185 182 181
184 182 181
184 182 181
184 182 181
184 182 181
184 182 181
184 182 181
184 182 181
184 182 181
184 182 181
184 182 181
184 182 181
184 182 181
184 182 181
184 182 181
184 182 181
184 182 181
184 182 181
184 182 181
184 182 181
184 182 181
184 182 181
183 182 181
183 182 181
183 181 181
183 181 181
183 181 181
183 181 181
183 181 181
183 181 181
183 181 181
183 181 181
183 181 181
183 181 181
183 181 181
183 181 181
183 181 181
183 181 181
183 181 181
183 181 181
183 181 181
183 181 181
183 181 181
183 181 181
183 181 181
183 181 181
182 181 181
182 181 181
182 181 181
182 181 181
182 181 181
182 181 181
182 181 181
182 181 181
182 181 181
182 181 181
182 181 181
182 181 181
182 181 181
182 181 181
182 181 181
182 181 181
182 181 181
182 181 181
182 181 181
182 181 181
182 181 181
182 181 181
182 181 181
182 181 181
182 181 181
182 181 181
182 181 181
182 181 181
182 181 181
181 180 181
181 180 181
181 180 181
181 180 181
181 180 181
181 180 181
181 180 181
181 180 181
181 180 181
181 180 181
181 180 181
181 180 181
181 180 181
181 180 181
181 180 181
181 180 181
181 180 181
181 180 181
181 180 181
181 180 181
181 180 181
181 180 181
181 180 181
181 180 181
181 180 181
181 180 181
181 180 181
181 180 181
181 180 181
181 180 181
181 180 181
181 180 181
181 180 181
181 180 181
181 180 181
181 180 181
180 180 181
180 180 181
180 180 181
180 180 181
180 180 181
180 180 181
180 180 181
180 180 181
180 180 181
180 180 181
180 180 181
180 180 181
180 180 181
180 180 181
180 180 181
180 180 181
180 180 181
180 180 181
180 180 181
180 180 181
180 180 181
180 180 181
180 180 181
180 180 181
180 180 181
180 180 181
180 180 181
180 180 181
180 180 181
180 180 181
180 180 181
180 180 181
180 180 181
180 180 181
180 180 181
180 180 181
180 180 181
180 180 181
180 180 181
180 180 181
180 180 181
180 180 181
180 180 181
180 180 181
180 180 181
180 180 181
180 180 181
180 180 181
180 180 181
180 180 181
180 180 181
180 180 181
180 179 181
179 179 181
179 179 181
180 179 181
179 179 181
179 179 181
179 179 181
179 179 181
179 179 181
179 179 181
179 179 181
179 179 181
179 179 181
179 179 181
179 179 181
179 179 181
179 179 181
179 179 181
179 179 181
179 179 181
179 179 181
179 179 181
179 179 181
179 179 181
179 179 181
179 179 181
179 179 181
179 179 181
179 179 181
179 179 181
179 179 181
179 179 181
179 179 181
179 179 181
179 179 181
179 179 181
179 179 181
179 179 181
179 179 181
179 179 181
179 179 181
179 179 181
179 179 181
179 179 181
179 179 181
179 179 181
179 179 181
179 179 181
179 179 181
179 179 181
179 179 181
179 179 181
179 179 181
179 179 181
179 179 181
179 179 181
179 179 181
179 179 181
179 179 181
179 179 181
179 179 181
179 179 181
179 179 181
179 179 181
179 179 181
179 179 181
179 179 181
179 179 181
179 179 181
179 179 181
179 179 181
179 179 181
179 179 181
179 179 181
179 179 181
179 179 181
179 179 181
179 179 181
179 179 181
179 179 181
179 179 181
179 179 181
179 179 181
179 179 181
179 179 181
179 179 181
179 179 181
179 179 181
179 179 181
179 179 181
179 179 181
179 179 181
179 179 181
179 179 181
179 179 181
179 179 181
179 179 181
179 179 181
179 179 181
179 179 181
179 179 181
179 179 181
179 179 181
179 179 181
179 179 181
179 179 181
179 179 181
179 179 181
179 179 181
179 179 181
179 179 181
179 179 181
179 179 181
179 179 181
179 179 181
179 179 181
179 179 181
179 179 181
179 179 181
179 179 181
179 179 181
179 179 181
179 179 181
179 179 181
179 179 181
179 179 181
179 179 181
179 179 181
179 179 181
179 179 181
179 179 181
179 179 181
180 179 181
179 179 181
180 179 181
180 179 181
180 179 181
180 179 181
180 180 181
180 180 181
180 180 181
180 180 181
180 180 181
180 180 181
180 180 181
180 180 181
180 180 181
180 180 181
180 180 181
180 180 181
180 180 181
180 180 181
180 180 181
180 180 181
180 180 181
180 180 181
180 180 181
180 180 181
180 180 181
180 180 181
180 180 181
180 180 181
180 180 181
180 180 181
180 180 181
180 180 181
180 180 181
180 180 181
180 180 181
180 180 181
180 180 181
180 180 181
180 180 181
180 180 181
180 180 181
180 180 181
180 180 181
180 180 181
180 180 181
180 180 181
180 180 181
180 180 181
180 180 181
180 180 181
180 180 181
180 180 181
180 180 181
180 180 181
181 180 181
181 180 181
181 180 181
181 180 181
181 180 181
181 180 181
181 180 181
181 180 181
181 180 181
181 180 181
181 180 181
181 180 181
181 180 181
181 180 181
181 180 181
181 180 181
181 180 181
181 180 181
181 180 181
181 180 181
181 180 181
181 180 181
181 180 181
181 180 181
181 180 181
181 180 181
181 180 181
181 180 181
181 180 181
181 180 181
181 180 181
181 180 181
181 180 181
181 181 181
182 181 181
182 181 181
182 181 181
182 181 181
182 181 181
182 181 181
182 181 181
182 181 181
182 181 181
182 181 181
182 181 181
182 181 181
182 181 181
182 181 181
182 181 181
182 181 181
182 181 181
182 181 181
182 181 181
182 181 181
182 181 181
182 181 181
182 181 181
182 181 181
182 181 181
182 181 181
182 181 181
182 181 181
183 181 181
183 181 181
183 181 181
183 181 181
183 181 181
183 181 181
183 181 181
183 181 181
183 181 181
183 181 181
183 181 181
183 181 181
183 181 181
183 181 181
183 181 181
183 181 181
183 181 181
183 181 181
183 181 181
183 181 181
183 181 181
183 182 181
183 182 181
184 182 181
184 182 181
184 182 181
184 182 181
184 182 181
184 182 181
184 182 181
184 182 181
184 182 181
184 182 181
184 182 181
184 182 181
184 182 181
184 182 181
184 182 181
184 182 181
184 182 181
184 182 181
184 182 181
185 182 181
185 182 181
185 182 181
185 182 181
185 182 181
185 182 181
185 182 181
185 182 181
185 182 181
185 182 181
185 182 181
185 182 181
185 182 181
185 182 181
185 183 181
185 183 181
186 183 181
186 183 181
186 183 181
186 183 181
186 183 181
186 183 181
186 183 181
186 183 181
186 183 181
186 183 181
186 182 180
168 167 166
140 142 145
115 121 128
116 121 128
113 119 127
91 113 111
73 107 87
78 82 84
82 95 90
90 85 81
111 118 113
91 98 96
96 93 94
117 128 146
130 148 171
125 143 165
124 142 166
127 147 167
127 145 167
130 148 173
127 145 166
125 140 163
124 138 162
129 135 159
129 124 148
125 124 149
131 108 132
137 98 122
133 92 120
142 78 107
138 70 98
140 62 93
144 54 89
145 52 87
147 39 77
144 28 71
148 24 70
147 24 70
145 23 68
151 24 72
147 24 70
150 24 71
149 24 71
148 24 71
152 25 73
148 24 71
146 23 69
149 24 72
146 24 69
151 24 73
149 24 71
146 23 68
150 24 71
147 24 71
153 24 72
146 23 70
149 24 70
150 24 71
152 25 73
152 24 71
151 24 72
154 25 74
152 24 73
149 26 73
146 28 74
146 28 73
144 35 79
137 41 84
130 44 84
126 57 99
114 63 103
105 67 109
106 66 107
91 74 116
69 78 116
71 80 118
63 87 127
58 89 125
61 100 136
54 99 138
75 107 138
81 114 146
84 117 150
100 127 156
101 126 153
107 130 157
108 132 158
115 136 163
122 141 165
125 146 173
122 142 166
126 144 167
131 150 174
124 143 166
131 149 173
125 144 166
127 144 168
127 145 168
124 140 163
124 139 162
122 136 157
116 126 147
112 119 140
114 121 142
110 110 131
106 105 126
104 99 118
101 95 113
104 96 115
106 96 115
96 88 107
103 92 110
103 94 112
104 94 114
105 95 114
105 95 114
106 96 115
106 96 114
103 93 112
106 96 115
100 90 109
104 93 111
102 92 109
100 91 109
103 93 113
101 91 111
103 92 110
108 97 117
102 92 110
107 96 115
104 94 113
107 96 115
106 95 115
101 92 110
112 101 120
108 97 115
105 95 113
107 97 117
98 89 107
109 98 118
107 97 117
106 95 113
110 99 118
105 96 115
103 94 113
102 93 112
105 95 112
108 98 116
105 96 114
111 100 119
110 99 119
101 91 109
104 94 113
102 91 109
105 98 116
113 106 123
111 108 127
111 111 130
112 114 133
114 125 144
111 120 138
109 121 138
113 126 146
123 140 162
119 135 154
112 125 144
115 127 146
114 122 140
111 117 136
116 117 137
109 110 128
109 104 122
111 107 124
116 110 130
114 110 129
111 104 122
108 95 113
112 99 120
113 100 118
111 93 112
111 93 112
112 89 108
114 101 122
117 107 127
114 99 118
114 98 118
114 98 117
114 101 121
114 99 118
113 95 114
116 104 124
115 108 126
115 105 125
114 112 129
113 116 134
104 105 121
108 118 133
106 118 131
104 124 135
101 122 128
99 114 118
104 125 122
93 111 100
104 117 106
106 117 100
110 111 78
106 110 75
117 112 67
122 116 63
124 114 56
121 109 52
123 110 52
124 111 52
127 114 54
122 109 52
120 107 50
129 115 54
123 111 52
126 114 54
122 109 51
123 109 52
127 115 53
125 113 53
119 107 50
127 114 53
125 113 53
125 112 53
121 109 51
124 112 53
124 111 52
123 111 52
120 107 50
121 109 51
123 111 52
121 109 51
125 114 53
123 111 52
121 110 52
122 111 52
122 112 52
122 111 52
120 109 51
123 113 53
122 111 52
122 111 52
121 110 52
123 112 52
122 112 52
124 113 53
120 110 51
120 109 51
116 108 50
122 111 52
120 110 56
118 109 58
122 112 59
126 120 84
120 119 97
118 117 98
118 119 104
115 122 122
114 123 129
116 125 130
115 127 140
114 127 140
114 128 144
118 135 155
111 129 145
106 124 137
105 122 135
104 123 136
100 121 130
94 116 123
93 116 120
88 110 114
88 111 114
87 111 113
86 112 112
84 110 110
82 108 107
83 111 109
84 112 110
84 110 108
84 111 109
83 110 107
82 109 108
85 113 111
84 112 110
83 111 109
84 111 108
82 110 108
85 113 111
85 112 111
84 112 109
86 114 111
84 113 111
84 114 111
