P3
1600 1
255
176 187 246
175 186 246
175 186 246
175 186 246
174 186 246
174 186 246
174 186 246
174 186 246
173 185 246
174 186 246
173 185 246
173 186 246
173 185 246
174 186 246
174 186 246
173 185 246
174 186 246
175 186 246
176 187 246
176 187 246
176 187 246
178 188 246
179 188 246
180 189 246
180 189 246
178 186 242
183 190 246
184 191 246
183 189 243
184 189 243
180 184 235
173 177 227
178 181 230
169 173 219
160 164 204
151 153 188
139 142 171
122 127 146
133 137 160
120 125 137
102 109 113
94 102 98
85 93 82
74 83 65
76 86 68
80 90 70
81 90 71
79 89 70
75 86 67
80 93 73
71 87 70
68 87 73
69 87 71
66 89 77
63 89 78
62 88 77
59 92 83
54 91 83
55 91 84
48 89 84
47 92 88
49 93 88
45 94 90
46 94 89
42 93 90
40 93 90
40 94 92
39 91 88
40 93 90
40 93 91
41 95 92
40 92 89
40 93 90
40 92 90
40 92 90
39 91 89
40 93 91
40 92 89
39 92 89
40 91 89
39 90 87
40 92 90
39 89 86
39 91 89
39 92 89
40 90 86
40 93 89
39 89 87
42 90 83
44 89 80
48 91 78
47 90 75
51 94 74
57 92 59
57 93 62
62 97 59
63 94 49
62 93 49
66 96 41
65 94 38
69 96 24
70 97 21
73 99 13
72 98 13
76 103 14
70 96 13
69 94 13
72 98 13
73 100 13
75 102 14
73 100 13
71 97 13
74 101 13
73 100 13
71 98 13
74 100 13
73 98 13
70 97 13
72 99 13
75 101 13
68 94 13
75 101 13
70 96 13
74 101 13
69 96 13
73 98 13
73 99 13
72 99 13
72 99 13
72 98 13
70 96 13
68 93 12
72 99 13
68 93 12
72 98 13
71 97 13
70 96 13
68 94 12
69 95 13
69 95 13
70 96 13
68 93 12
69 93 12
70 94 22
76 101 42
82 103 67
83 103 85
86 103 91
92 110 99
95 108 119
93 107 111
102 117 127
102 114 130
107 120 140
101 113 132
112 124 146
109 120 141
109 121 141
114 125 146
112 125 145
111 125 146
108 121 142
108 119 139
113 127 147
117 131 153
114 129 151
117 130 151
114 128 149
113 126 148
121 137 160
120 135 158
117 132 154
118 134 156
116 129 150
118 135 158
120 136 159
127 143 167
123 139 162
120 133 156
124 138 161
121 138 161
120 135 157
123 138 161
122 136 158
125 142 165
124 139 163
122 138 160
122 137 160
127 143 167
126 143 166
118 131 154
126 142 166
123 139 161
128 144 168
128 144 168
125 140 165
128 146 171
126 142 165
127 145 169
127 143 164
122 137 159
115 131 150
113 131 148
106 123 137
95 112 120
96 118 124
75 99 96
77 105 99
65 93 77
55 91 68
52 86 63
42 84 46
42 83 45
42 85 46
43 86 47
40 81 43
43 85 46
42 85 46
41 81 43
43 87 47
41 83 44
42 85 46
42 84 45
44 88 48
43 87 47
42 85 46
42 83 45
44 88 48
43 85 46
40 81 44
42 85 46
42 84 45
44 86 47
42 83 45
46 91 49
40 79 44
42 85 46
42 84 45
43 85 46
43 85 47
41 80 44
41 82 44
43 84 45
40 79 44
42 82 45
41 83 45
42 84 45
42 83 45
39 79 43
41 81 43
42 82 45
42 83 46
40 78 43
43 82 47
49 82 53
65 95 78
73 95 84
83 104 100
82 97 95
98 110 116
95 105 112
101 113 123
103 107 123
109 118 135
116 124 143
108 113 132
116 124 143
114 125 145
117 126 146
115 123 142
117 125 145
116 124 144
125 137 159
118 130 150
120 127 147
122 133 154
124 135 157
122 136 157
117 133 151
112 138 149
111 145 154
103 149 148
98 148 143
89 151 139
81 152 134
81 158 137
70 159 132
68 166 135
66 162 132
69 170 139
63 156 127
69 168 138
66 162 133
67 165 134
67 165 134
66 163 134
69 169 138
69 168 137
69 168 137
68 167 136
68 167 135
66 161 131
66 165 133
67 165 134
68 166 137
68 166 135
68 166 136
68 167 136
65 161 131
63 157 127
67 164 133
66 163 132
64 158 128
68 168 135
67 165 134
67 164 133
65 162 132
64 157 127
64 158 129
66 164 133
66 165 133
61 150 122
64 157 128
64 156 126
63 154 125
65 160 130
61 151 123
63 154 125
59 146 117
62 150 122
62 153 125
63 157 127
61 151 122
58 145 116
61 150 122
60 148 121
62 141 117
67 138 120
66 127 118
69 116 114
70 111 113
75 102 119
79 90 118
79 84 115
81 56 113
83 49 114
81 39 109
85 35 115
88 54 117
92 63 120
93 70 126
100 83 132
101 94 132
108 106 141
106 104 139
120 131 157
113 123 147
118 130 155
117 133 154
127 144 167
126 140 162
122 136 159
126 142 164
121 137 160
127 145 167
129 148 171
126 143 166
121 137 160
122 139 160
123 138 160
125 141 164
127 146 169
123 139 161
127 144 167
130 147 171
124 142 164
122 139 162
124 141 164
127 145 168
129 147 170
127 145 168
124 140 162
123 139 162
125 144 167
123 141 163
126 142 164
121 137 159
118 134 154
122 139 161
119 136 156
127 145 168
126 144 167
125 141 163
121 138 160
122 140 161
120 137 158
122 139 159
124 141 162
124 141 164
119 136 158
121 136 158
118 135 155
116 132 153
115 130 149
113 128 148
118 134 156
116 133 152
109 126 145
110 127 147
112 130 150
112 129 154
102 120 143
100 117 142
96 113 137
101 119 145
91 109 136
91 110 138
82 100 130
84 103 134
75 94 122
87 108 139
83 102 131
83 103 134
86 105 136
79 97 124
86 105 135
82 102 132
82 101 130
83 102 131
83 102 131
81 99 129
81 100 129
76 94 121
80 99 126
81 98 127
77 96 123
74 91 117
84 104 133
78 96 124
79 97 124
75 94 119
76 96 122
80 98 125
77 95 120
77 95 121
74 92 117
77 96 122
74 90 114
75 93 119
76 93 117
80 100 125
73 91 116
68 85 106
67 81 102
71 88 110
70 86 107
64 79 100
70 85 110
65 78 99
62 75 94
69 82 105
60 72 93
64 78 100
72 87 111
66 79 102
68 81 104
67 79 100
73 86 105
93 108 130
80 93 109
99 112 135
103 118 142
105 121 143
108 127 145
116 139 150
118 152 139
116 148 139
117 155 133
117 157 126
111 159 106
108 159 96
107 162 83
109 164 87
107 171 56
100 166 27
105 175 26
103 172 19
103 172 8
104 174 8
101 170 8
103 172 8
103 172 8
103 171 8
104 174 8
103 173 8
102 171 8
105 176 8
103 173 8
102 172 8
102 172 8
100 168 8
103 172 8
103 172 8
101 170 8
102 170 8
102 172 8
102 171 8
103 172 8
99 166 8
103 171 8
101 170 8
100 168 8
97 161 7
101 169 8
100 169 8
96 161 7
99 164 7
97 164 24
94 161 37
85 147 41
79 149 59
81 149 56
74 143 65
60 132 78
59 137 83
53 134 89
45 129 92
42 131 97
26 128 108
17 125 110
6 123 110
5 122 106
5 118 105
5 115 101
5 121 106
5 114 100
5 114 99
5 107 93
5 117 104
5 114 102
5 110 98
5 117 105
5 112 98
5 102 91
17 101 95
26 111 107
48 99 114
59 99 123
55 87 114
68 92 128
77 88 137
87 97 154
93 83 154
98 86 165
103 88 171
106 89 172
109 91 173
91 75 148
97 80 154
98 81 155
89 75 144
99 81 156
91 76 146
91 75 145
93 77 147
89 75 142
90 73 139
75 61 117
86 68 129
85 70 133
88 72 135
79 65 114
78 64 106
60 47 71
73 60 95
81 65 101
72 57 77
74 62 87
74 64 79
76 69 73
75 72 73
76 70 67
86 96 89
85 95 87
102 121 114
92 110 104
103 121 114
103 124 118
104 126 120
110 135 130
109 133 129
116 146 142
107 128 123
109 137 133
114 143 140
117 148 144
121 153 150
110 137 135
115 145 142
110 138 137
106 130 128
108 133 132
107 134 133
102 126 126
105 129 126
100 123 122
100 120 125
91 107 111
91 110 118
84 98 111
91 105 107
72 80 95
67 68 90
64 62 80
57 60 92
52 51 91
54 53 92
46 46 97
44 44 100
33 37 108
54 63 117
83 98 139
96 114 152
127 147 180
153 177 206
168 193 222
180 206 236
177 202 234
188 212 243
196 216 244
195 214 241
193 213 239
193 212 238
200 219 245
198 217 243
197 217 242
204 224 250
197 216 242
202 222 248
199 218 244
203 222 248
205 224 250
198 215 240
202 220 245
198 216 241
203 220 245
201 218 243
206 224 249
203 221 245
202 219 244
204 222 246
204 222 246
204 222 247
202 220 244
205 222 246
203 221 245
208 226 250
205 222 246
208 226 251
207 225 250
209 227 252
207 226 251
209 228 253
208 226 251
210 228 253
210 229 254
207 225 250
206 224 248
206 225 249
209 227 251
206 224 249
206 224 248
210 228 253
209 227 252
209 227 251
209 227 251
208 227 251
209 228 252
211 229 254
211 229 254
210 228 253
211 229 254
209 227 252
211 229 253
211 229 254
206 224 249
211 229 253
208 226 250
212 229 254
212 230 255
210 227 252
212 230 254
212 229 254
212 230 254
209 227 251
211 229 253
210 228 252
213 231 255
209 227 251
211 229 253
212 230 254
209 227 251
211 229 253
210 228 252
211 229 253
212 229 254
210 227 252
210 228 252
210 228 252
210 227 251
208 226 250
212 230 254
211 228 252
212 230 254
210 227 252
211 229 253
212 230 254
209 227 251
212 230 254
211 229 253
210 228 252
213 230 254
213 230 254
212 230 254
209 226 250
211 229 253
214 231 255
212 230 254
211 228 252
212 229 253
210 228 252
214 231 255
213 230 254
211 229 253
212 229 253
209 226 250
212 229 253
213 230 254
211 228 252
210 227 251
213 230 254
210 226 251
212 230 253
211 228 251
212 229 252
209 226 249
211 229 252
213 231 253
210 230 249
213 231 253
211 231 251
213 231 253
209 229 248
214 231 254
211 231 251
213 231 253
210 231 250
210 230 250
210 230 250
210 231 250
207 229 246
214 232 254
208 229 248
211 231 251
212 231 252
208 229 247
212 231 252
213 232 253
212 231 252
212 231 252
210 231 249
213 231 253
209 225 245
174 178 183
102 129 107
80 103 85
91 93 101
77 103 97
50 102 72
53 66 61
51 65 55
65 80 43
84 91 86
78 82 73
75 76 100
90 84 113
94 80 132
84 71 120
98 85 110
96 86 111
61 102 79
95 95 42
117 97 29
99 102 65
47 82 53
57 77 83
80 97 118
106 116 128
109 111 125
96 79 117
99 87 117
123 126 133
148 149 151
174 172 171
186 183 181
186 183 181
186 183 181
186 183 181
186 183 181
186 183 181
186 183 181
186 183 181
186 183 181
186 183 181
186 183 181
186 183 181
186 183 181
186 183 181
186 183 181
186 183 181
186 183 181
185 183 181
185 183 181
185 183 181
185 183 181
185 182 181
185 182 181
185 182 181
185 182 181
185 182 181
185 182 181
185 182 181
185 182 181
185 182 181
185 182 181
185 182 181
185 182 181
185 182 181
185 182 181
185 182 181
185 182 181
185 182 181
185 182 181
185 182 181
185 182 181
184 182 181
184 182 181
184 182 181
184 182 181
184 182 181
184 182 181
184 182 181
184 182 181
184 182 181
184 182 181
184 182 181
184 182 181
184 182 181
184 182 181
184 182 181
184 182 181
184 182 181
184 182 181
184 182 181
184 182 181
184 182 181
184 182 181
184 182 181
184 182 181
184 182 181
184 182 181
184 182 181
184 182 181
184 182 181
183 182 181
183 182 181
183 181 181
183 181 181
183 181 181
183 181 181
183 181 181
183 181 181
183 181 181
183 181 181
183 181 181
183 181 181
183 181 181
183 181 181
183 181 181
183 181 181
183 181 181
183 181 181
183 181 181
183 181 181
183 181 181
183 181 181
183 181 181
183 181 181
183 181 181
183 181 181
183 181 181
183 181 181
183 181 181
183 181 181
183 181 181
183 181 181
183 181 181
183 181 181
183 181 181
182 181 181
182 181 181
182 181 181
182 181 181
182 181 181
182 181 181
182 181 181
182 181 181
182 181 181
182 181 181
182 181 181
182 181 181
182 181 181
182 181 181
182 181 181
182 181 181
182 181 181
182 181 181
182 181 181
182 181 181
182 181 181
182 181 181
182 181 181
182 181 181
182 181 181
182 181 181
182 181 181
182 181 181
182 181 181
182 181 181
182 181 181
182 181 181
182 181 181
182 181 181
182 181 181
182 181 181
182 181 181
182 181 181
182 181 181
182 181 181
182 181 181
182 181 181
182 181 181
182 181 181
182 181 181
182 181 181
181 180 181
181 180 181
181 180 181
181 180 181
181 180 181
181 180 181
181 180 181
181 180 181
181 180 181
181 180 181
181 180 181
181 180 181
181 180 181
181 180 181
181 180 181
181 180 181
181 180 181
181 180 181
181 180 181
181 180 181
181 180 181
181 180 181
181 180 181
181 180 181
181 180 181
181 180 181
181 180 181
181 180 181
181 180 181
181 180 181
181 180 181
181 180 181
181 180 181
181 180 181
181 180 181
181 180 181
181 180 181
181 180 181
181 180 181
181 180 181
181 180 181
181 180 181
181 180 181
181 180 181
181 180 181
181 180 181
181 180 181
181 180 181
181 180 181
181 180 181
181 180 181
181 180 181
181 180 181
181 180 181
181 180 181
181 180 181
181 180 181
181 180 181
181 180 181
181 180 181
181 180 181
181 180 181
181 180 181
181 180 181
181 180 181
181 180 181
181 180 181
181 180 181
181 180 181
181 180 181
181 180 181
181 180 181
181 180 181
181 180 181
181 180 181
181 180 181
181 180 181
181 180 181
181 180 181
181 180 181
181 180 181
181 180 181
181 180 181
181 180 181
181 180 181
181 180 181
181 180 181
181 180 181
181 180 181
181 180 181
181 180 181
181 180 181
181 180 181
181 180 181
181 180 181
181 180 181
181 180 181
181 180 181
181 180 181
181 180 181
181 180 181
181 180 181
181 180 181
181 180 181
181 180 181
181 180 181
181 180 181
181 180 181
181 180 181
181 180 181
181 180 181
181 180 181
181 180 181
181 180 181
181 180 181
181 180 181
181 180 181
181 180 181
181 180 181
181 180 181
181 180 181
181 180 181
181 180 181
181 180 181
181 180 181
181 180 181
181 180 181
181 180 181
181 180 181
181 180 181
181 180 181
181 180 181
181 180 181
181 180 181
181 180 181
181 180 181
181 180 181
181 180 181
181 180 181
181 180 181
181 180 181
181 180 181
181 180 181
181 180 181
181 180 181
181 180 181
181 180 181
181 180 181
181 180 181
181 180 181
181 180 181
181 180 181
181 180 181
181 180 181
181 180 181
181 180 181
181 180 181
181 180 181
181 180 181
181 180 181
181 180 181
181 180 181
181 180 181
181 180 181
181 180 181
181 180 181
181 180 181
181 180 181
181 180 181
181 180 181
181 180 181
181 180 181
181 180 181
181 180 181
181 180 181
181 180 181
181 180 181
181 180 181
181 180 181
181 180 181
181 180 181
181 180 181
181 180 181
181 180 181
181 180 181
181 180 181
181 180 181
181 180 181
181 180 181
181 180 181
181 180 181
181 180 181
181 180 181
181 180 181
181 180 181
181 180 181
181 180 181
181 181 181
182 181 181
182 181 181
182 181 181
182 181 181
182 181 181
182 181 181
182 181 181
182 181 181
182 181 181
182 181 181
182 181 181
182 181 181
182 181 181
182 181 181
182 181 181
182 181 181
182 181 181
182 181 181
182 181 181
182 181 181
182 181 181
182 181 181
182 181 181
182 181 181
182 181 181
182 181 181
182 181 181
182 181 181
182 181 181
182 181 181
182 181 181
182 181 181
182 181 181
182 181 181
182 181 181
182 181 181
182 181 181
182 181 181
182 181 181
182 181 181
182 181 181
182 181 181
182 181 181
182 181 181
182 181 181
183 181 181
183 181 181
183 181 181
183 181 181
183 181 181
183 181 181
183 181 181
183 181 181
183 181 181
183 181 181
183 181 181
183 181 181
183 181 181
183 181 181
183 181 181
183 181 181
183 181 181
183 181 181
183 181 181
183 181 181
183 181 181
183 181 181
183 181 181
183 181 181
183 181 181
183 181 181
183 181 181
183 181 181
183 181 181
183 181 181
183 182 181
183 182 181
184 182 181
184 182 181
184 182 181
184 182 181
184 182 181
184 182 181
184 182 181
184 182 181
184 182 181
184 182 181
184 182 181
184 182 181
184 182 181
184 182 181
184 182 181
184 182 181
184 182 181
184 182 181
184 182 181
184 182 181
184 182 181
184 182 181
184 182 181
184 182 181
184 182 181
184 182 181
184 182 181
185 182 181
185 182 181
185 182 181
185 182 181
185 182 181
185 182 181
185 182 181
185 182 181
185 182 181
185 182 181
185 182 181
185 182 181
185 182 181
185 182 181
185 182 181
185 182 181
185 182 181
185 182 181
185 182 181
185 183 181
185 183 181
185 183 181
186 183 181
186 183 181
186 183 181
186 183 181
186 183 181
186 183 181
186 183 181
186 183 181
186 183 181
186 183 181
186 183 181
186 183 181
186 183 181
186 183 181
186 183 181
182 179 177
166 165 164
131 134 139
116 121 128
116 121 128
114 121 128
115 121 128
115 121 128
107 111 133
94 95 137
106 110 133
108 115 119
90 98 93
78 88 84
52 79 53
38 102 54
59 120 83
89 111 101
103 98 91
97 86 77
85 91 81
90 82 81
114 116 134
128 146 169
128 147 171
129 149 172
127 137 160
124 136 158
122 126 149
132 128 151
133 111 134
133 100 123
130 98 121
133 80 105
133 64 91
138 54 85
139 43 78
141 27 69
136 22 64
137 22 65
137 22 65
142 23 67
140 23 66
138 22 64
137 22 65
143 23 68
145 23 69
142 23 67
148 24 70
142 23 66
142 23 67
147 23 69
142 23 67
142 23 67
141 23 67
147 23 69
147 23 69
142 22 66
141 22 65
140 22 66
145 23 68
146 23 68
141 22 66
147 24 70
145 23 68
146 23 69
147 24 70
146 23 69
143 23 68
144 23 68
148 24 70
137 22 65
147 23 69
140 23 66
146 23 69
141 22 66
142 23 67
147 24 70
142 23 68
137 22 64
146 23 69
143 35 77
141 42 82
137 55 90
133 66 96
122 78 105
126 99 128
124 101 129
117 117 143
117 123 149
119 130 156
121 138 163
121 140 165
125 144 168
129 148 173
128 146 172
128 148 173
130 150 174
132 151 175
131 150 175
127 146 169
130 149 172
130 149 173
125 145 168
130 150 174
129 148 172
131 150 173
128 148 172
128 146 169
131 149 173
126 142 166
119 132 154
120 132 155
119 129 150
109 117 137
109 114 133
106 111 130
108 108 126
105 104 123
93 87 105
94 87 105
91 83 100
97 88 106
92 82 99
97 87 105
97 88 105
97 88 106
92 82 100
94 86 103
89 81 99
91 82 99
99 90 108
98 89 108
95 85 102
100 90 107
95 87 104
96 87 105
94 85 102
99 90 108
102 91 109
96 87 104
97 87 104
96 87 104
93 83 99
100 90 109
93 83 100
104 94 112
95 85 103
95 85 100
98 89 105
101 90 108
99 89 106
99 90 109
96 87 105
101 90 108
98 89 105
97 87 105
95 85 102
104 93 111
95 87 104
97 91 108
111 107 125
106 105 123
110 112 131
109 112 131
114 119 139
110 112 132
110 108 126
111 111 130
109 98 117
107 94 113
110 94 113
102 80 95
105 79 98
105 72 92
106 67 87
101 54 72
102 33 57
99 34 57
98 16 44
97 14 44
99 14 45
100 14 45
100 14 45
99 14 45
102 14 46
101 14 46
97 14 44
100 14 45
102 14 46
100 14 45
100 14 45
97 14 44
99 14 45
98 14 44
100 14 45
100 14 46
99 14 45
102 14 46
101 14 46
102 14 46
98 14 45
101 14 46
102 14 46
102 14 46
103 21 49
102 31 55
103 46 65
102 45 61
106 64 75
103 66 65
103 62 60
111 78 68
109 76 59
106 77 52
117 91 50
116 97 50
120 99 51
115 99 49
120 105 50
113 101 47
118 106 50
121 108 51
123 110 51
117 104 49
119 107 50
118 106 49
121 109 51
120 108 51
118 106 50
121 109 51
115 103 48
120 107 50
118 106 50
119 107 50
123 111 52
119 108 50
115 104 48
118 108 51
119 105 49
120 109 51
122 109 51
110 99 46
112 102 48
124 112 52
119 107 50
116 107 50
119 108 50
117 107 50
118 106 49
117 107 50
110 100 46
115 103 48
121 111 52
110 102 47
114 105 49
111 101 47
112 103 47
115 107 49
105 97 45
114 103 48
106 97 45
111 101 47
108 99 47
111 101 47
106 100 46
111 102 52
115 108 69
113 111 87
110 110 89
116 118 99
110 118 112
109 120 118
110 124 128
107 123 126
101 118 125
94 115 121
95 117 123
92 117 119
84 108 108
80 106 104
78 102 100
81 107 105
79 105 102
79 105 103
77 100 99
78 103 101
82 108 106
80 106 103
81 107 105
83 109 106
80 107 104
79 106 104
79 104 101
77 102 99
84 111 108
83 110 107
82 109 106
81 108 106
82 111 107
82 110 107
81 107 104
81 108 105
79 105 102
81 108 105
80 106 104
