P3
1600 1
255
190 203 231
188 204 227
190 202 232
189 202 231
188 202 231
189 202 231
189 200 235
189 200 235
189 201 233
188 198 233
189 200 234
182 189 233
183 191 235
185 190 232
186 193 240
183 189 239
176 181 231
179 186 234
179 184 235
168 175 223
173 178 226
164 171 217
166 172 219
173 178 226
171 175 222
170 174 220
166 169 212
160 164 204
167 169 212
168 171 215
166 167 209
169 169 213
158 163 201
159 159 198
153 156 191
160 160 200
167 169 209
155 156 197
152 156 191
142 146 178
131 133 164
131 132 161
114 123 143
106 115 131
103 115 128
70 92 94
62 90 88
55 87 81
54 90 83
44 88 82
54 87 83
51 87 83
66 85 81
81 87 81
85 85 79
83 85 79
92 87 80
96 83 76
99 84 76
100 83 75
106 83 74
111 84 76
110 80 71
108 82 73
118 82 72
113 81 71
117 81 71
121 81 71
118 80 70
122 79 68
112 83 74
106 81 73
105 84 75
110 80 70
105 81 73
109 82 74
113 81 71
101 80 72
95 81 73
95 84 76
92 81 74
80 81 75
76 85 80
69 84 80
57 83 80
62 87 82
46 85 82
43 88 84
37 86 83
37 87 85
37 85 82
36 83 80
36 82 79
36 82 79
36 84 81
37 87 84
37 85 82
37 85 82
37 86 83
36 84 81
37 84 79
43 89 80
45 85 71
46 84 66
50 87 66
58 92 57
53 83 49
61 90 41
63 90 34
63 88 25
68 92 12
66 90 12
65 89 12
65 90 12
68 93 12
63 87 11
63 86 11
61 85 11
67 90 12
67 91 12
65 89 12
65 90 12
61 83 11
65 89 12
69 95 13
63 87 11
60 81 11
65 89 12
65 88 12
63 87 12
65 88 12
64 88 12
61 84 11
63 86 11
63 87 11
65 88 12
65 89 12
63 86 11
66 90 12
66 90 12
60 82 11
68 91 42
77 97 73
85 105 90
92 111 100
99 117 116
99 118 118
104 122 130
117 135 151
114 132 148
121 137 154
124 142 163
126 144 167
126 144 167
131 149 173
128 146 170
130 147 170
129 148 172
130 148 172
126 143 168
131 149 174
126 143 166
129 147 171
132 150 173
128 146 169
128 146 170
127 144 168
129 147 170
129 147 170
128 144 167
128 145 169
133 152 176
128 144 168
126 144 167
131 150 174
130 147 171
130 149 173
130 148 172
128 146 170
130 147 171
129 146 169
132 148 171
130 148 172
126 143 166
130 148 172
127 144 168
131 149 172
133 151 174
131 149 173
132 150 175
129 147 171
126 142 165
129 146 170
132 148 171
129 147 171
126 144 167
130 149 173
128 146 170
127 143 165
130 147 170
131 148 172
132 151 175
129 147 171
129 147 170
129 147 170
129 146 169
129 146 168
123 141 161
119 136 156
111 131 145
112 130 146
99 117 128
102 121 132
93 113 123
86 109 111
80 102 102
83 107 108
66 90 85
59 85 72
58 84 73
52 82 63
51 80 62
43 72 50
45 76 52
36 69 40
33 67 36
34 70 38
33 67 36
37 73 40
37 74 40
35 71 38
35 72 38
34 68 37
33 65 36
35 71 38
35 71 38
38 76 41
38 76 41
37 75 41
34 68 37
40 73 45
39 73 44
50 81 62
48 78 58
55 81 69
60 85 77
63 90 78
57 84 72
86 109 113
84 106 110
86 109 113
97 118 127
108 127 142
107 127 142
107 126 140
119 136 155
123 140 160
124 141 162
130 148 172
132 150 173
125 143 164
126 143 165
130 147 169
132 148 172
128 146 170
134 152 176
129 148 172
128 146 169
125 143 166
128 147 170
130 148 171
127 142 164
132 150 174
128 145 167
132 150 173
132 151 175
130 150 172
124 150 167
118 145 159
113 147 156
108 144 152
94 150 145
84 148 136
80 150 133
78 154 133
63 147 121
61 149 121
63 155 126
61 148 119
64 156 127
62 153 124
62 152 124
59 145 118
62 152 123
62 152 122
61 150 121
63 154 126
62 153 125
63 154 125
63 155 125
64 154 126
66 156 127
64 153 126
64 153 125
65 153 125
61 148 120
66 159 128
63 147 119
63 151 122
61 144 116
60 150 121
60 149 120
66 160 130
61 149 121
60 147 118
62 154 123
61 150 123
63 154 123
63 153 123
64 154 124
63 143 114
68 142 109
74 145 110
75 130 93
77 137 101
84 136 95
87 130 85
95 130 78
95 123 69
96 125 71
98 126 70
103 128 68
104 122 56
105 120 53
107 120 50
107 119 49
107 119 49
109 120 49
107 118 49
105 118 49
106 118 49
107 120 49
108 120 49
106 118 49
106 118 49
108 121 50
106 119 49
107 119 49
107 120 49
107 120 49
106 119 49
107 120 49
108 121 49
103 115 48
101 114 50
105 117 51
107 119 59
110 124 67
108 120 66
106 119 73
109 122 83
115 130 104
114 127 106
116 131 119
116 132 125
118 133 120
123 139 140
125 141 151
124 140 153
127 144 160
129 147 168
132 150 172
127 144 168
127 144 169
131 148 172
130 147 171
130 148 172
129 147 171
129 146 171
126 143 166
133 150 174
129 146 170
131 148 172
128 144 168
128 146 171
130 147 169
127 143 168
130 146 171
128 145 170
127 143 168
128 145 168
129 146 170
126 141 164
127 142 166
126 142 167
126 143 166
123 139 163
127 144 168
127 143 168
121 138 162
128 144 168
126 141 164
128 145 170
119 133 157
123 138 161
122 138 161
125 140 164
128 145 168
122 137 159
123 138 162
117 131 154
120 135 159
116 130 153
111 125 149
113 128 153
104 117 142
99 114 139
94 108 133
92 108 133
83 98 123
84 100 127
80 96 121
76 94 119
74 90 118
68 84 109
69 84 110
73 90 117
75 92 119
69 87 112
75 93 120
70 87 112
67 83 108
74 90 116
74 91 117
68 86 110
69 86 111
69 85 110
71 89 115
67 81 103
70 86 111
72 88 114
70 86 111
65 82 103
74 91 116
71 88 113
70 87 110
70 86 110
65 81 104
68 84 107
72 89 114
60 75 94
64 81 101
66 81 104
66 82 105
66 81 104
69 85 109
64 80 101
57 69 86
58 71 90
60 74 94
57 68 88
60 71 92
65 77 97
69 79 99
74 86 105
78 90 114
97 111 132
97 115 126
96 119 119
99 128 113
100 134 114
105 146 109
106 153 98
101 151 74
103 155 77
103 166 47
96 161 7
97 162 7
97 162 7
98 163 7
102 168 8
98 163 7
95 157 7
99 167 8
99 166 8
98 164 7
97 163 7
96 160 7
96 160 7
98 164 7
95 158 7
98 164 7
98 164 7
100 168 8
99 166 8
99 167 8
101 168 8
91 152 7
102 171 8
95 160 7
99 167 8
97 163 7
93 158 7
94 159 7
97 163 7
96 162 7
93 156 7
97 164 7
98 166 7
97 164 7
99 166 7
95 159 7
98 165 7
97 163 7
97 164 7
95 160 7
90 152 7
94 161 7
96 160 7
95 161 7
89 150 7
92 154 7
90 150 7
91 154 7
94 157 7
92 154 7
88 148 20
85 146 24
78 142 43
71 133 50
62 124 59
56 125 74
51 122 77
37 115 83
24 108 88
24 107 87
5 106 91
5 108 95
5 105 93
4 104 90
5 108 95
5 109 95
5 108 97
5 109 96
5 107 96
4 97 86
5 102 91
11 103 93
33 98 95
43 90 96
43 90 100
61 97 109
76 94 128
82 97 138
81 92 133
83 85 130
92 87 148
100 89 160
90 82 145
94 84 151
77 66 127
87 73 143
83 68 133
75 62 124
73 61 121
76 62 126
83 70 135
80 66 128
71 63 116
87 88 126
98 106 134
108 123 145
115 134 151
124 148 160
133 163 167
142 176 174
145 183 177
148 186 182
150 191 185
152 194 188
149 193 188
148 192 188
146 191 188
146 190 188
144 189 188
143 189 188
143 189 188
142 188 188
141 188 188
141 187 188
139 186 188
139 186 188
139 186 188
138 186 188
138 186 188
138 186 188
137 185 188
137 185 188
137 185 188
137 185 188
138 185 188
138 185 188
137 185 188
138 185 188
138 186 188
138 186 188
139 186 188
139 186 188
139 186 188
140 187 188
140 187 188
140 187 188
142 188 188
142 188 188
144 189 188
144 189 188
144 188 185
141 183 180
139 179 175
138 177 172
131 166 160
132 165 159
128 160 156
115 142 142
100 120 128
104 124 130
101 117 126
107 123 138
129 149 164
152 176 199
165 188 215
169 193 222
181 207 242
185 209 240
191 213 242
189 209 237
192 213 241
193 213 240
193 213 239
196 216 243
197 217 244
195 215 242
196 216 243
201 221 248
202 222 250
198 217 244
202 221 248
199 218 244
201 220 246
195 214 239
204 223 250
199 217 243
199 217 242
206 225 251
200 219 244
205 224 250
202 221 246
202 220 246
208 227 253
207 226 252
202 220 246
203 222 247
206 224 250
205 223 249
207 226 252
206 225 251
204 222 248
206 225 250
204 223 249
205 224 250
206 225 251
208 228 254
206 225 251
207 226 252
206 225 251
209 228 254
206 225 251
208 227 252
208 227 252
208 227 252
206 225 250
209 227 253
207 226 252
211 229 255
209 228 254
204 223 248
209 227 253
206 224 250
211 229 255
206 225 250
209 227 253
210 229 254
209 228 253
210 228 254
209 227 252
209 228 253
209 227 252
209 227 252
209 228 253
208 227 252
207 225 250
207 225 251
212 230 255
210 228 254
209 228 253
211 230 255
210 228 253
208 226 251
212 230 255
209 227 252
210 229 254
211 230 255
208 226 251
210 228 253
210 228 253
209 227 252
211 229 254
209 227 252
210 229 254
206 224 248
210 229 254
209 227 252
210 228 253
211 229 254
207 225 250
209 227 252
210 228 253
210 229 253
209 227 251
206 224 249
210 228 253
207 226 250
209 227 252
208 226 250
210 228 252
210 228 252
209 227 252
209 228 252
210 228 253
208 226 251
211 229 254
211 229 254
205 222 247
206 224 247
208 226 250
208 226 250
207 227 249
210 229 253
205 225 246
209 228 250
207 228 248
208 227 249
210 229 252
209 228 250
210 229 252
208 228 249
212 231 254
210 230 252
209 229 251
211 231 253
209 228 250
210 229 252
208 230 249
209 229 251
209 228 250
212 230 254
211 230 253
209 228 251
212 230 255
210 230 252
208 228 250
206 227 246
202 217 236
173 179 185
99 124 93
87 112 79
103 110 114
79 92 80
80 88 48
91 80 68
81 38 58
68 65 62
71 105 100
48 118 107
51 84 73
87 55 44
120 71 55
138 131 112
147 158 138
125 133 120
70 107 72
52 105 45
76 82 64
82 72 75
85 97 91
100 109 110
106 115 120
89 103 106
93 106 112
70 86 87
25 54 51
52 70 69
86 95 97
109 108 117
121 85 111
98 43 77
64 59 63
93 98 103
91 102 100
79 99 82
60 64 58
46 58 45
40 79 40
67 92 67
97 101 109
99 84 141
80 40 142
76 60 130
66 49 75
75 59 59
105 107 113
114 120 127
115 121 127
116 122 128
121 130 135
129 140 142
120 129 133
112 119 124
107 115 119
110 118 123
116 121 128
114 121 128
114 121 128
115 121 128
115 121 128
120 125 130
118 123 129
129 133 137
133 136 140
150 151 153
158 158 158
171 169 168
179 177 175
183 180 178
185 181 179
186 183 181
186 183 181
186 183 181
186 183 181
186 183 181
186 183 181
186 183 181
186 183 181
186 183 181
186 183 181
186 183 181
186 183 181
186 183 181
186 183 181
186 183 181
186 183 181
186 183 181
186 183 181
186 183 181
186 183 181
186 183 181
186 183 181
186 183 181
186 183 181
186 183 181
186 183 181
186 183 181
185 183 181
185 183 181
185 183 181
185 183 181
185 183 181
185 183 181
185 182 181
185 182 181
185 182 181
185 182 181
185 182 181
185 182 181
185 182 181
185 182 181
185 182 181
185 182 181
185 182 181
185 182 181
185 182 181
185 182 181
185 182 181
185 182 181
185 182 181
185 182 181
185 182 181
185 182 181
185 182 181
185 182 181
185 182 181
185 182 181
185 182 181
185 182 181
185 182 181
185 182 181
185 182 181
185 182 181
185 182 181
185 182 181
185 182 181
185 182 181
185 182 181
185 182 181
185 182 181
184 182 181
184 182 181
184 182 181
184 182 181
184 182 181
184 182 181
184 182 181
184 182 181
184 182 181
184 182 181
184 182 181
184 182 181
184 182 181
184 182 181
184 182 181
184 182 181
184 182 181
184 182 181
184 182 181
184 182 181
184 182 181
184 182 181
184 182 181
184 182 181
184 182 181
184 182 181
184 182 181
184 182 181
184 182 181
184 182 181
184 182 181
184 182 181
184 182 181
184 182 181
184 182 181
184 182 181
184 182 181
184 182 181
184 182 181
184 182 181
184 182 181
184 182 181
184 182 181
184 182 181
184 182 181
184 182 181
184 182 181
184 182 181
184 182 181
184 182 181
184 182 181
184 182 181
184 182 181
184 182 181
184 182 181
184 182 181
184 182 181
184 182 181
184 182 181
184 182 181
184 182 181
184 182 181
184 182 181
184 182 181
183 182 181
183 182 181
183 182 181
183 182 181
183 182 181
183 182 181
183 181 181
183 181 181
183 181 181
183 181 181
183 181 181
183 181 181
183 181 181
183 181 181
183 181 181
183 181 181
183 181 181
183 181 181
183 181 181
183 181 181
183 181 181
183 181 181
183 181 181
183 181 181
183 181 181
183 181 181
183 181 181
183 181 181
183 181 181
183 181 181
183 181 181
183 181 181
183 181 181
183 181 181
183 181 181
183 181 181
183 181 181
183 181 181
183 181 181
183 181 181
183 181 181
183 181 181
183 181 181
183 181 181
183 181 181
183 181 181
183 181 181
183 181 181
183 181 181
183 181 181
183 181 181
183 181 181
183 181 181
183 181 181
183 181 181
183 181 181
183 181 181
183 181 181
183 181 181
183 181 181
183 181 181
183 181 181
183 181 181
183 181 181
183 181 181
183 181 181
183 181 181
183 181 181
183 181 181
183 181 181
183 181 181
183 181 181
183 181 181
183 181 181
183 181 181
183 181 181
183 181 181
183 181 181
183 181 181
183 181 181
183 181 181
183 181 181
183 181 181
183 181 181
183 181 181
183 181 181
183 181 181
183 181 181
183 181 181
183 181 181
183 181 181
183 181 181
183 181 181
183 181 181
183 181 181
183 181 181
183 181 181
183 181 181
183 181 181
183 181 181
183 181 181
183 181 181
183 181 181
183 181 181
183 181 181
183 181 181
183 181 181
183 181 181
183 181 181
183 181 181
183 181 181
183 181 181
183 181 181
183 181 181
183 181 181
183 181 181
183 181 181
183 181 181
183 181 181
183 181 181
183 181 181
183 181 181
183 181 181
183 181 181
183 181 181
183 181 181
183 181 181
183 181 181
183 181 181
183 181 181
183 181 181
183 181 181
183 181 181
183 181 181
183 181 181
183 181 181
183 181 181
183 181 181
183 181 181
183 181 181
183 181 181
183 181 181
183 181 181
183 181 181
183 181 181
183 181 181
183 181 181
183 181 181
183 182 181
183 181 181
183 182 181
183 182 181
183 182 181
183 182 181
183 182 181
184 182 181
184 182 181
183 182 181
184 182 181
183 182 181
184 182 181
184 182 181
184 182 181
184 182 181
184 182 181
184 182 181
184 182 181
184 182 181
184 182 181
184 182 181
184 182 181
184 182 181
184 182 181
184 182 181
184 182 181
184 182 181
184 182 181
184 182 181
184 182 181
184 182 181
184 182 181
184 182 181
184 182 181
184 182 181
184 182 181
184 182 181
184 182 181
184 182 181
184 182 181
184 182 181
184 182 181
184 182 181
184 182 181
184 182 181
184 182 181
184 182 181
184 182 181
184 182 181
184 182 181
184 182 181
184 182 181
184 182 181
184 182 181
184 182 181
184 182 181
184 182 181
184 182 181
184 182 181
184 182 181
184 182 181
184 182 181
184 182 181
184 182 181
184 182 181
184 182 181
184 182 181
184 182 181
184 182 181
185 182 181
185 182 181
185 182 181
185 182 181
185 182 181
185 182 181
185 182 181
185 182 181
185 182 181
185 182 181
185 182 181
185 182 181
185 182 181
185 182 181
185 182 181
185 182 181
185 182 181
185 182 181
185 182 181
185 182 181
185 182 181
185 182 181
185 182 181
185 182 181
185 182 181
185 182 181
185 182 181
185 182 181
185 182 181
185 182 181
185 182 181
185 182 181
185 182 181
185 182 181
185 182 181
185 183 181
185 183 181
185 183 181
185 183 181
185 183 181
186 183 181
186 183 181
186 183 181
186 183 181
186 183 181
186 183 181
186 183 181
186 183 181
186 183 181
186 183 181
186 183 181
186 183 181
186 183 181
186 183 181
186 183 181
186 183 181
186 183 181
186 183 181
186 183 181
186 183 181
186 183 181
186 183 181
186 183 181
186 183 181
186 183 181
186 183 181
186 183 181
186 183 181
185 182 179
178 175 174
169 168 167
149 150 151
137 140 143
125 129 134
119 124 130
115 121 128
115 121 128
116 121 128
115 121 128
115 121 128
115 121 128
115 121 128
115 120 128
114 119 128
115 120 128
116 120 125
110 109 105
107 101 88
113 114 112
115 120 126
114 120 128
115 120 125
109 108 100
101 92 53
106 100 72
113 114 111
115 121 127
108 121 127
105 123 127
106 119 116
83 101 84
89 101 91
102 103 102
98 99 106
86 93 126
66 82 122
57 85 96
78 98 106
92 105 110
60 91 80
28 62 30
64 75 64
78 91 84
81 109 96
111 135 127
116 125 114
84 97 79
71 82 66
81 75 67
108 121 136
125 142 165
124 134 157
126 121 144
122 120 142
125 100 122
121 99 122
125 76 100
118 52 76
127 53 80
118 20 55
122 20 57
134 21 62
130 21 61
135 22 63
125 20 57
128 21 59
123 20 57
133 21 62
129 20 60
133 21 62
132 21 61
127 21 60
125 20 58
134 21 62
131 21 60
133 21 63
131 21 62
134 21 63
135 21 63
134 21 62
136 22 63
131 21 62
133 21 62
138 22 64
140 22 65
144 23 67
138 22 64
139 22 65
138 22 65
132 21 61
138 22 64
140 22 65
141 22 65
135 21 63
125 20 58
132 21 62
134 21 63
140 22 65
133 21 62
134 21 62
129 21 61
135 21 63
134 21 63
137 22 64
132 21 62
125 20 58
130 20 60
132 21 62
136 22 63
133 21 62
137 22 64
134 21 63
134 37 71
123 48 75
128 63 91
121 61 86
129 88 113
124 103 126
115 108 131
124 126 150
117 127 150
125 136 159
122 141 165
120 138 162
121 140 164
124 143 165
112 132 152
117 140 159
108 130 147
102 128 143
100 127 135
89 120 121
87 122 120
75 115 104
74 114 105
71 114 100
57 108 80
61 109 85
42 103 65
30 103 51
27 101 48
23 100 44
23 101 45
19 99 41
19 101 42
19 99 41
19 100 41
19 100 42
19 101 42
19 102 42
19 100 41
19 101 42
19 100 41
19 100 41
19 100 41
19 100 41
19 98 40
19 100 41
19 100 41
19 99 41
19 101 41
19 100 41
21 101 43
27 98 44
26 99 45
36 99 52
44 96 56
47 95 60
54 95 65
48 92 60
59 90 70
64 88 73
57 86 66
72 86 83
75 86 86
83 91 98
88 92 103
89 92 104
93 95 113
93 95 112
110 118 137
108 113 132
105 111 130
108 114 134
115 122 143
120 130 152
110 112 131
109 107 127
110 101 120
108 99 118
104 82 100
106 78 97
96 51 69
95 33 54
94 13 42
92 13 41
95 13 42
94 13 41
93 13 41
94 13 41
92 13 41
95 13 43
95 13 43
95 13 42
93 13 42
93 13 42
95 13 43
91 13 41
94 13 43
97 14 44
96 13 43
92 13 41
97 14 44
94 13 42
92 13 41
94 13 42
97 14 43
96 13 42
93 13 42
91 13 41
94 13 42
94 13 42
96 13 43
95 13 42
96 13 42
95 13 43
95 13 42
93 13 42
94 13 42
93 13 42
94 13 43
94 13 42
97 14 44
92 13 42
97 14 44
96 14 43
96 14 43
97 14 44
93 13 42
99 14 44
95 13 43
94 13 42
99 14 45
93 13 42
100 28 45
99 42 44
97 39 43
104 64 45
104 68 45
102 75 43
107 82 45
106 87 45
102 83 42
110 95 46
114 103 48
110 100 47
107 96 45
110 99 46
105 94 44
108 97 45
111 98 46
106 95 44
111 99 46
102 92 43
113 102 48
103 91 42
100 90 42
108 97 45
103 92 43
102 90 42
108 95 44
106 97 45
103 93 43
102 91 42
102 93 43
96 88 40
100 90 41
100 90 42
105 96 44
108 98 46
99 90 42
95 86 40
95 88 40
99 90 41
107 97 45
94 86 40
92 85 39
88 80 37
91 83 38
89 82 38
85 79 37
92 85 39
98 90 43
94 87 43
89 85 50
94 96 66
91 92 65
88 88 60
83 91 73
84 97 85
81 96 87
73 92 87
73 92 89
72 93 92
72 93 91
76 101 98
76 100 98
75 96 94
74 97 94
74 96 94
74 98 95
74 98 95
74 97 95
74 97 94
78 102 99
73 95 93
74 98 94
72 95 92
74 97 95
75 99 95
76 99 97
74 98 96
76 100 98
74 97 94
74 97 95
76 100 97
76 99 97
74 95 94
77 104 101
76 102 98
78 102 99
76 101 98
77 103 100
