P3
1600 1
255
189 205 226
188 206 224
190 205 225
190 207 224
188 204 227
189 205 227
190 205 228
190 205 228
191 206 226
188 201 228
190 202 230
186 198 227
190 201 232
187 197 232
184 192 233
186 193 231
179 188 225
174 182 223
168 175 220
173 178 225
173 177 225
161 167 211
164 170 215
161 166 210
168 174 220
162 167 208
163 168 211
165 168 210
155 159 198
158 160 198
159 160 199
163 163 204
155 157 198
149 153 189
150 153 189
156 157 196
158 159 197
162 164 205
149 153 188
142 146 180
133 135 167
121 124 149
121 125 152
106 116 134
101 114 129
76 96 102
75 97 103
67 93 93
60 85 80
60 84 79
73 84 78
76 88 83
92 84 77
85 85 78
95 84 77
103 85 77
102 81 74
107 82 73
112 81 71
125 81 70
117 81 72
123 81 70
117 80 70
124 79 68
123 80 69
128 79 67
127 80 68
129 79 67
132 79 66
131 79 67
128 80 68
128 79 67
127 79 68
119 80 69
122 80 69
122 81 71
124 79 68
116 77 67
111 82 73
115 80 71
111 79 70
97 80 73
91 83 76
92 84 77
76 81 75
68 86 82
63 83 79
51 87 83
54 85 81
44 84 82
35 81 78
37 85 82
37 84 81
35 80 76
37 85 82
35 83 80
37 84 81
35 82 79
38 88 86
37 85 82
39 87 83
44 89 80
42 87 77
47 87 70
44 85 72
52 86 59
55 84 48
63 93 45
62 88 34
61 84 24
67 91 17
64 87 12
64 88 12
66 89 12
63 87 12
62 85 11
63 85 11
65 89 12
66 90 12
63 87 11
66 91 12
61 84 11
60 83 11
65 88 12
63 87 11
62 85 11
62 85 11
62 85 11
64 89 12
63 85 11
59 82 11
61 84 11
62 85 11
65 89 12
65 88 12
62 84 11
65 88 12
65 89 12
65 90 12
61 84 11
68 90 38
75 97 61
79 100 73
82 102 84
88 107 97
92 111 108
107 126 133
109 127 137
115 133 148
119 137 154
127 145 166
130 149 172
127 144 167
130 148 172
130 149 173
128 145 168
132 150 175
131 148 172
128 146 171
131 148 173
125 143 166
132 150 174
132 150 174
126 143 166
130 149 174
127 144 167
128 145 169
131 149 172
128 146 169
126 143 166
131 150 173
129 147 170
130 148 172
131 149 173
130 148 171
128 146 170
129 148 172
130 148 172
129 146 170
132 149 171
129 147 171
132 150 174
125 143 165
130 148 173
128 146 169
131 149 173
131 149 172
131 149 173
127 145 169
129 148 172
128 143 166
130 148 173
130 147 170
129 147 170
132 150 174
129 147 171
130 147 171
130 147 169
128 145 168
133 151 174
131 149 174
128 146 169
130 148 172
130 147 171
131 148 171
133 151 175
130 149 172
126 143 165
121 140 160
123 141 162
116 135 152
107 126 141
103 122 134
92 115 122
97 118 126
77 97 99
84 106 109
79 103 102
73 98 94
72 96 94
62 85 79
54 81 67
59 90 74
47 77 57
44 73 53
39 70 44
40 73 45
38 73 42
33 66 36
32 66 35
32 65 35
36 72 38
34 69 36
34 68 36
35 70 37
39 75 43
37 71 39
40 72 45
34 61 40
38 71 44
44 72 53
55 81 69
56 83 69
55 82 68
56 82 71
70 94 90
68 94 88
81 103 104
84 104 109
89 109 115
90 111 119
108 128 143
105 124 139
105 124 137
113 131 148
120 136 156
123 142 162
128 146 169
127 146 167
125 142 165
127 146 169
130 147 170
128 146 170
133 151 175
131 148 172
129 148 172
125 143 165
130 148 172
130 148 171
128 143 165
132 150 173
127 144 166
132 150 173
132 151 175
130 148 171
127 145 167
130 149 171
121 144 162
120 146 161
113 151 158
103 147 149
96 147 145
90 153 142
76 148 130
68 148 124
63 150 122
62 152 123
62 150 121
63 153 125
59 145 118
64 155 126
63 152 123
60 146 118
63 154 124
66 158 130
63 155 126
67 154 127
67 153 126
65 152 123
67 147 123
71 146 123
68 146 121
72 143 121
68 145 121
68 135 113
69 147 121
68 146 121
66 147 121
67 141 117
65 145 120
63 140 116
67 148 121
62 152 122
59 142 116
62 151 121
62 149 121
63 155 124
62 151 121
63 152 122
62 139 108
68 135 103
72 141 108
75 142 105
86 133 90
88 139 94
86 131 86
93 124 73
91 123 73
99 122 66
101 124 64
105 122 58
102 117 53
108 121 50
104 118 48
106 118 48
108 119 49
107 120 49
107 119 49
106 118 49
105 117 48
108 120 49
105 117 48
105 117 48
106 118 49
108 121 49
107 120 49
107 119 49
108 120 49
106 119 49
105 117 48
110 122 50
104 116 48
102 114 47
104 116 48
105 118 48
108 121 50
106 118 48
103 114 47
104 117 54
106 119 66
109 122 73
107 120 76
110 123 86
112 126 97
114 129 112
114 129 116
117 131 126
124 139 142
121 137 141
123 139 150
121 136 146
125 142 158
130 148 170
131 148 172
131 149 173
129 146 170
127 144 167
129 145 169
133 150 174
129 146 170
130 147 171
127 142 167
131 148 173
132 150 173
128 145 169
128 144 170
128 145 169
127 144 168
125 141 166
128 143 167
127 143 167
127 142 166
125 140 164
124 140 164
125 141 165
128 143 167
121 136 161
127 144 168
126 141 165
129 146 170
126 142 167
120 134 158
125 140 164
121 136 159
126 142 166
124 139 163
126 141 165
122 137 161
118 132 157
124 139 163
118 131 154
121 136 161
117 131 156
111 124 149
110 124 148
108 122 148
99 112 135
97 111 135
94 110 135
88 103 126
88 105 130
82 97 123
75 92 117
68 83 109
73 90 116
75 91 118
70 87 112
70 86 113
70 87 113
72 90 115
74 92 120
65 82 105
64 80 103
76 93 119
69 85 111
75 94 121
64 80 103
70 85 110
67 83 106
68 85 109
69 86 111
70 87 111
69 86 110
66 82 105
68 84 107
66 83 105
66 83 105
68 83 108
60 76 96
64 80 102
66 80 103
62 77 98
63 78 98
67 83 106
62 79 99
61 75 97
59 72 92
56 71 90
60 73 95
57 68 88
61 73 94
65 79 99
61 72 90
71 80 99
77 88 108
91 104 127
94 109 130
88 107 111
95 124 111
98 134 104
100 134 107
98 135 98
103 147 93
102 152 80
98 157 50
99 162 37
99 166 8
96 161 7
100 167 7
97 162 7
97 163 7
97 163 7
94 157 7
98 163 7
97 162 7
96 160 7
96 161 7
93 155 7
98 162 7
100 167 8
97 162 7
98 164 7
101 168 8
97 162 7
102 170 8
97 162 7
98 164 7
92 154 7
96 162 7
95 160 7
94 158 7
93 156 7
99 165 7
93 158 7
98 164 7
99 165 7
98 166 7
97 164 7
101 169 8
96 162 7
98 166 8
95 161 7
94 158 7
96 163 7
97 163 7
96 162 7
92 155 7
94 156 7
90 151 7
93 157 7
90 151 7
90 150 7
90 152 7
90 153 7
92 153 7
89 146 7
87 149 25
85 145 19
80 142 41
73 134 49
68 133 58
64 136 71
51 123 77
35 109 79
28 115 89
16 116 100
4 103 89
5 109 96
5 110 98
5 106 93
5 106 93
5 110 97
5 106 91
5 104 91
5 108 95
4 100 87
4 96 86
4 94 86
25 98 91
41 94 97
49 95 106
66 95 120
73 93 125
78 93 127
93 104 148
101 105 159
89 91 135
94 91 142
90 85 141
94 86 150
93 82 145
88 80 143
92 80 148
78 64 128
80 65 132
78 64 128
79 65 129
71 64 119
70 64 108
95 101 136
96 104 136
102 115 142
116 138 148
120 144 153
136 168 168
142 178 174
150 190 183
151 192 187
152 194 188
151 193 188
149 192 188
148 192 188
147 191 188
146 190 188
145 190 188
144 189 188
143 189 188
142 188 188
141 188 188
141 188 188
140 187 188
140 187 188
139 186 188
139 186 188
139 186 188
139 186 188
139 186 188
138 186 188
138 186 188
138 186 188
138 186 188
138 186 188
139 186 188
138 186 188
138 186 188
139 186 188
139 186 188
139 186 188
140 187 188
140 187 188
141 187 188
141 188 188
142 188 188
143 189 188
144 189 188
145 190 188
145 190 188
145 189 186
145 188 184
141 181 176
141 180 175
135 170 164
125 156 150
122 152 147
112 137 134
105 127 128
113 134 140
125 148 157
126 143 156
144 164 184
160 183 208
174 199 229
179 204 235
184 206 236
182 204 234
189 210 238
187 208 236
189 209 235
192 213 240
195 215 242
192 212 238
195 214 241
197 218 245
198 218 245
201 221 248
198 218 244
204 224 251
201 220 247
204 224 250
204 224 251
201 220 246
204 223 249
196 213 238
202 221 246
203 222 248
205 224 250
202 221 246
203 222 248
199 217 242
203 222 248
204 223 249
202 220 246
201 220 245
209 228 254
203 222 248
204 223 249
205 224 249
207 226 252
204 223 249
205 224 250
206 225 251
205 224 250
205 224 249
206 225 251
206 225 251
209 228 254
207 226 252
204 223 249
208 227 253
205 224 250
210 229 255
206 225 250
206 225 251
210 229 254
208 227 252
209 228 253
208 227 253
210 229 254
208 226 252
208 227 252
209 227 253
207 226 251
206 224 250
207 226 251
211 230 255
209 228 253
210 228 254
211 229 255
209 227 252
207 226 251
211 230 255
209 228 253
209 228 253
211 229 254
209 227 253
209 228 253
208 226 251
210 228 254
211 229 254
209 228 253
209 227 252
206 224 249
210 228 254
209 228 253
209 228 253
210 229 254
207 226 250
210 228 253
210 229 253
210 229 253
208 227 252
206 224 249
210 228 253
207 225 250
209 227 252
209 227 252
210 228 253
209 228 252
209 227 252
210 228 252
210 228 253
207 225 250
212 230 255
210 229 254
207 224 249
205 223 247
208 226 250
210 228 253
208 226 251
209 227 252
204 222 246
204 222 245
208 225 250
207 225 249
210 228 253
211 229 254
210 228 252
210 229 253
212 230 254
211 230 253
210 229 252
211 230 253
209 229 251
210 229 252
209 230 250
210 230 252
208 228 250
210 229 251
211 230 253
209 228 251
211 229 254
211 230 253
212 230 254
207 227 247
209 230 250
208 228 249
212 231 254
204 225 245
209 228 251
210 230 252
207 227 247
208 228 250
202 220 238
174 182 190
92 117 95
87 112 81
104 110 115
85 94 90
81 90 46
82 61 49
79 42 61
77 68 75
65 102 95
43 115 103
49 86 76
95 57 44
111 56 40
129 104 87
148 154 133
125 134 120
78 98 75
57 70 39
80 59 66
79 69 73
80 91 84
100 108 109
96 110 107
69 107 81
83 109 97
66 82 83
47 68 65
55 68 69
94 102 106
118 101 118
130 67 108
118 40 89
92 64 82
80 82 87
83 101 89
62 102 57
57 86 53
43 74 43
28 75 34
57 91 65
91 101 109
87 71 134
76 28 142
71 29 118
59 25 50
67 41 39
98 78 81
120 107 113
120 111 117
118 123 128
128 137 140
133 146 148
126 138 141
100 111 110
66 90 78
74 96 88
110 117 122
115 121 128
117 122 128
116 121 128
114 121 128
115 121 128
114 120 128
115 121 128
115 121 128
115 121 128
116 122 128
120 125 131
127 130 135
139 141 144
150 151 153
159 159 160
166 165 165
173 171 170
179 177 175
184 181 179
186 183 181
186 183 181
186 183 181
186 183 181
186 183 181
186 183 181
186 183 181
186 183 181
186 183 181
186 183 181
186 183 181
186 183 181
186 183 181
186 183 181
186 183 181
186 183 181
186 183 181
186 183 181
186 183 181
186 183 181
186 183 181
186 183 181
186 183 181
186 183 181
186 183 181
186 183 181
186 183 181
186 183 181
186 183 181
185 183 181
185 183 181
185 183 181
185 183 181
185 183 181
185 183 181
185 182 181
185 182 181
185 182 181
185 182 181
185 182 181
185 182 181
185 182 181
185 182 181
185 182 181
185 182 181
185 182 181
185 182 181
185 182 181
185 182 181
185 182 181
185 182 181
185 182 181
185 182 181
185 182 181
185 182 181
185 182 181
185 182 181
185 182 181
185 182 181
185 182 181
185 182 181
185 182 181
185 182 181
185 182 181
185 182 181
185 182 181
185 182 181
185 182 181
185 182 181
185 182 181
185 182 181
185 182 181
185 182 181
185 182 181
185 182 181
184 182 181
184 182 181
184 182 181
184 182 181
184 182 181
184 182 181
184 182 181
184 182 181
184 182 181
184 182 181
184 182 181
184 182 181
184 182 181
184 182 181
184 182 181
184 182 181
184 182 181
184 182 181
184 182 181
184 182 181
184 182 181
184 182 181
184 182 181
184 182 181
184 182 181
184 182 181
184 182 181
184 182 181
184 182 181
184 182 181
184 182 181
184 182 181
184 182 181
184 182 181
184 182 181
184 182 181
184 182 181
184 182 181
184 182 181
184 182 181
184 182 181
184 182 181
184 182 181
184 182 181
184 182 181
184 182 181
184 182 181
184 182 181
184 182 181
184 182 181
184 182 181
184 182 181
184 182 181
184 182 181
184 182 181
184 182 181
184 182 181
184 182 181
184 182 181
184 182 181
184 182 181
184 182 181
184 182 181
184 182 181
184 182 181
184 182 181
184 182 181
184 182 181
184 182 181
184 182 181
184 182 181
184 182 181
184 182 181
184 182 181
184 182 181
184 182 181
183 182 181
183 182 181
183 182 181
183 182 181
183 182 181
183 182 181
183 182 181
183 182 181
183 182 181
183 181 181
183 181 181
183 181 181
183 181 181
183 181 181
183 182 181
183 181 181
183 181 181
183 181 181
183 181 181
183 181 181
183 181 181
183 181 181
183 181 181
183 181 181
183 181 181
183 181 181
183 181 181
183 181 181
183 181 181
183 181 181
183 181 181
183 181 181
183 181 181
183 181 181
183 181 181
183 181 181
183 181 181
183 181 181
183 181 181
183 181 181
183 181 181
183 181 181
183 181 181
183 181 181
183 181 181
183 181 181
183 181 181
183 181 181
183 181 181
183 181 181
183 181 181
183 181 181
183 181 181
183 181 181
183 181 181
183 181 181
183 181 181
183 181 181
183 181 181
183 181 181
183 181 181
183 181 181
183 181 181
183 181 181
183 181 181
183 181 181
183 181 181
183 181 181
183 181 181
183 181 181
183 181 181
183 181 181
183 181 181
183 181 181
183 181 181
183 181 181
183 181 181
183 181 181
183 181 181
183 181 181
183 181 181
183 181 181
183 181 181
183 181 181
183 181 181
183 181 181
183 181 181
183 181 181
183 181 181
183 181 181
183 181 181
183 181 181
183 181 181
183 181 181
183 181 181
183 181 181
183 181 181
183 181 181
183 181 181
183 181 181
183 181 181
183 181 181
183 182 181
183 182 181
183 181 181
183 182 181
183 181 181
183 182 181
183 182 181
183 182 181
183 182 181
183 182 181
183 182 181
183 182 181
184 182 181
184 182 181
184 182 181
184 182 181
184 182 181
184 182 181
184 182 181
184 182 181
184 182 181
184 182 181
184 182 181
184 182 181
184 182 181
184 182 181
184 182 181
184 182 181
184 182 181
184 182 181
184 182 181
184 182 181
184 182 181
184 182 181
184 182 181
184 182 181
184 182 181
184 182 181
184 182 181
184 182 181
184 182 181
184 182 181
184 182 181
184 182 181
184 182 181
184 182 181
184 182 181
184 182 181
184 182 181
184 182 181
184 182 181
184 182 181
184 182 181
184 182 181
184 182 181
184 182 181
184 182 181
184 182 181
184 182 181
184 182 181
184 182 181
184 182 181
184 182 181
184 182 181
184 182 181
184 182 181
184 182 181
184 182 181
184 182 181
184 182 181
184 182 181
184 182 181
184 182 181
184 182 181
184 182 181
184 182 181
184 182 181
184 182 181
184 182 181
184 182 181
184 182 181
184 182 181
184 182 181
184 182 181
185 182 181
185 182 181
185 182 181
185 182 181
185 182 181
185 182 181
185 182 181
185 182 181
185 182 181
185 182 181
185 182 181
185 182 181
185 182 181
185 182 181
185 182 181
185 182 181
185 182 181
185 182 181
185 182 181
185 182 181
185 182 181
185 182 181
185 182 181
185 182 181
185 182 181
185 182 181
185 182 181
185 182 181
185 182 181
185 182 181
185 182 181
185 182 181
185 182 181
185 182 181
185 182 181
185 182 181
185 182 181
185 182 181
185 182 181
185 183 181
185 183 181
185 183 181
185 183 181
185 183 181
186 183 181
186 183 181
186 183 181
186 183 181
186 183 181
186 183 181
186 183 181
186 183 181
186 183 181
186 183 181
186 183 181
186 183 181
186 183 181
186 183 181
186 183 181
186 183 181
186 183 181
186 183 181
186 183 181
186 183 181
186 183 181
186 183 181
186 183 181
186 183 181
186 183 181
186 183 181
186 183 181
186 183 181
186 183 181
186 182 180
184 181 178
176 174 173
169 167 167
148 149 150
142 144 147
127 132 137
119 124 130
116 121 128
114 121 128
115 121 128
116 121 128
116 121 128
114 120 128
116 122 128
116 121 128
117 122 128
114 120 128
115 121 128
108 110 130
93 89 136
100 100 133
111 114 123
110 105 95
103 92 69
109 107 103
114 119 124
116 121 128
113 114 118
104 98 83
96 85 41
105 98 70
113 116 114
113 119 126
110 125 130
109 122 128
106 116 116
93 106 98
87 100 87
99 102 102
90 91 107
73 83 130
50 76 119
51 85 101
82 98 107
90 105 107
67 96 78
28 66 24
60 76 62
72 85 77
78 112 101
106 131 123
118 127 116
76 98 73
69 85 68
81 75 75
111 121 138
129 141 163
127 137 160
125 123 146
121 112 134
127 109 132
124 93 115
122 70 94
123 48 77
121 26 60
121 20 57
126 21 59
131 21 60
120 20 56
128 21 60
124 20 58
127 20 58
126 20 58
123 19 56
120 20 57
126 20 59
124 20 58
133 21 62
128 21 59
129 21 61
132 21 62
133 21 62
136 22 63
135 21 61
137 22 64
132 21 61
132 21 62
138 22 64
136 22 64
129 20 59
138 22 64
128 20 60
129 21 60
130 21 61
136 22 64
138 22 63
135 22 63
137 22 64
132 21 61
130 21 61
128 20 59
132 21 61
126 20 59
131 21 62
130 21 61
135 22 63
128 20 60
127 20 60
131 21 60
138 22 64
129 21 61
132 21 61
135 21 63
136 21 62
132 21 61
127 20 59
137 22 65
128 20 59
123 19 58
129 35 68
126 61 87
128 78 102
123 101 123
126 103 126
123 117 142
121 120 142
121 127 150
122 136 158
119 138 162
125 143 167
119 137 158
113 134 154
106 127 145
110 132 146
99 129 134
90 122 122
86 120 116
92 126 125
78 118 110
70 116 98
61 110 89
46 104 69
43 104 65
37 101 58
30 103 52
23 99 44
19 98 40
19 99 41
19 98 41
19 99 40
19 99 41
18 96 40
19 99 41
19 99 41
19 99 40
19 100 41
19 99 41
19 99 41
19 99 41
19 100 41
19 100 41
19 99 40
19 99 41
19 100 41
19 100 41
19 98 40
19 100 41
19 99 41
19 102 42
19 101 41
20 101 41
21 98 42
33 98 50
31 98 48
43 94 56
45 96 58
51 95 63
55 93 65
67 90 78
68 90 79
74 90 87
71 96 90
91 100 107
91 96 108
91 97 111
99 102 120
105 112 130
111 122 142
107 115 134
114 124 145
110 118 139
117 124 145
118 121 142
113 112 133
108 99 118
108 91 110
104 85 103
102 73 91
97 49 68
92 30 50
92 13 41
91 13 41
93 13 42
88 12 40
93 13 41
95 13 42
93 13 42
94 13 42
97 14 44
89 12 40
94 13 42
93 13 42
94 13 42
94 13 42
93 13 42
94 13 42
92 13 41
95 13 42
92 13 41
93 13 42
93 13 42
94 13 42
91 13 41
95 13 43
98 14 44
95 13 42
92 13 42
94 13 42
94 13 42
98 14 44
94 13 42
91 13 41
98 14 44
97 13 43
94 13 42
90 13 41
94 13 42
94 13 42
94 13 42
93 13 42
97 14 44
97 14 44
90 13 41
95 13 43
95 13 43
90 13 41
98 14 43
94 13 43
93 13 42
96 14 44
97 13 43
98 32 43
100 41 44
99 50 44
99 55 43
104 66 45
102 76 43
105 85 45
101 84 43
105 91 43
108 94 45
110 98 45
106 94 44
115 103 49
109 99 46
101 90 42
107 96 45
110 99 47
108 95 44
109 95 44
109 98 46
110 98 46
110 99 47
109 96 45
102 92 43
103 93 43
107 96 45
103 92 43
105 96 45
99 88 40
99 91 42
97 87 40
102 93 43
101 91 42
101 92 43
95 86 40
99 89 41
96 87 40
97 88 41
88 81 36
92 85 39
80 76 34
92 85 39
86 80 37
91 84 38
86 80 36
92 84 39
94 86 40
90 82 38
89 85 45
88 83 46
88 85 52
85 90 67
85 90 68
82 92 75
80 96 87
78 95 88
76 95 92
71 93 91
75 97 95
71 94 91
71 95 94
75 98 94
74 97 94
71 94 92
73 95 92
74 98 96
71 94 91
73 96 94
73 97 94
76 99 96
76 100 97
73 93 91
70 91 89
69 91 88
73 95 94
73 97 95
77 101 98
75 100 97
76 101 98
72 95 93
72 97 94
71 94 92
75 99 97
74 98 95
75 98 95
73 97 94
72 95 92
75 100 97
