P3
1600 1
255
179 211 203
179 211 203
178 211 203
178 211 203
179 211 203
180 212 203
180 212 203
181 212 203
181 212 203
181 213 203
183 214 203
185 214 204
186 215 203
188 216 204
185 212 201
190 215 206
185 209 201
185 210 201
174 196 191
179 199 193
179 197 199
174 191 199
175 191 195
156 171 178
156 170 183
140 152 168
134 141 161
130 136 161
128 136 167
138 143 173
125 129 160
125 130 159
131 132 160
136 139 171
131 135 167
141 144 179
132 135 169
132 138 170
136 140 175
127 132 162
132 135 165
122 119 142
123 118 144
121 109 125
119 96 101
107 97 100
122 88 85
115 79 68
127 77 65
136 77 63
136 76 62
134 77 63
138 75 60
142 74 59
147 76 60
144 74 58
144 75 59
147 76 59
147 76 60
144 75 59
142 74 58
145 75 60
143 74 59
141 73 58
146 75 60
144 75 59
143 74 58
143 74 58
144 74 59
143 74 59
143 75 59
144 75 59
144 75 59
143 75 59
141 73 58
142 74 58
140 73 57
144 74 59
141 73 57
143 74 59
143 75 59
141 73 58
142 74 58
144 75 59
136 74 60
127 73 60
123 75 63
124 73 60
117 76 66
105 74 64
103 78 70
103 79 70
75 77 71
70 78 73
64 80 74
56 79 75
44 83 79
37 84 81
36 82 79
35 80 77
36 85 82
35 81 78
35 81 78
35 79 74
38 80 73
45 82 64
42 82 69
49 80 52
50 82 53
56 84 42
56 80 25
56 78 17
61 83 11
56 77 10
59 80 11
55 77 10
57 78 10
60 82 11
58 81 11
57 79 10
62 85 11
57 78 10
58 80 10
58 80 10
61 83 11
59 82 11
61 83 11
60 82 11
62 84 11
59 80 10
59 81 11
60 83 11
59 82 11
57 78 10
60 83 11
60 82 11
58 78 27
59 79 37
69 88 58
75 93 74
81 99 89
85 101 96
94 111 111
102 119 127
106 123 135
107 124 136
107 123 138
114 130 149
120 136 156
127 144 167
126 144 167
118 135 156
122 139 160
121 137 159
125 143 166
124 142 165
125 143 167
121 138 160
122 140 163
127 145 169
126 144 167
127 144 166
124 142 165
122 140 162
129 147 171
127 145 169
125 144 167
124 142 164
124 141 163
124 142 164
128 146 169
129 148 172
124 142 164
121 138 160
123 141 163
125 143 165
121 139 160
123 142 163
119 137 158
123 141 164
117 143 161
113 145 162
117 149 167
121 150 169
109 149 164
109 156 169
105 148 162
103 151 163
102 156 168
92 154 162
95 159 169
98 158 168
93 160 167
96 158 167
79 162 165
89 158 165
89 156 163
82 161 166
87 160 166
83 158 164
81 158 162
85 158 164
88 157 165
87 160 166
84 155 161
84 157 164
104 152 164
98 153 163
98 155 165
101 152 163
100 146 158
105 146 158
101 145 158
110 142 156
109 139 153
107 134 147
105 129 143
94 113 123
101 119 133
89 107 115
92 109 118
92 109 118
85 101 111
81 99 104
77 95 99
77 91 98
65 84 83
61 78 75
75 92 96
55 72 68
64 80 81
70 88 88
59 76 75
53 72 67
47 69 59
62 78 80
68 84 86
73 90 93
73 86 90
72 89 92
63 81 79
76 94 99
86 102 111
85 100 109
93 110 120
89 106 116
94 111 123
95 111 122
109 126 142
104 120 135
117 134 153
116 134 152
110 126 144
109 125 142
114 130 148
113 130 147
114 130 148
118 134 152
111 128 144
113 130 148
118 136 155
116 133 152
120 137 157
123 141 161
119 136 156
121 139 159
119 137 157
125 143 163
123 140 161
121 138 158
125 144 166
127 144 165
124 143 165
123 140 162
124 142 163
124 143 164
121 139 160
117 136 155
120 146 160
114 138 153
113 146 157
98 139 141
99 144 144
95 133 134
85 131 125
85 136 127
80 123 113
78 121 109
82 104 101
86 109 106
87 101 102
90 104 105
93 90 100
96 82 97
90 83 95
94 66 90
100 70 94
100 65 93
100 59 91
102 57 92
100 44 86
99 43 87
104 40 88
103 42 88
100 44 86
102 49 88
102 45 88
101 39 86
101 48 88
97 67 92
101 59 90
100 54 89
98 66 92
97 70 93
94 60 87
92 87 97
92 83 93
91 88 92
95 90 88
94 82 79
98 105 86
95 93 73
98 100 66
102 103 59
100 101 53
104 108 53
99 109 48
102 112 48
103 115 47
105 116 47
102 114 47
102 113 46
102 113 46
104 116 48
104 114 47
103 113 46
101 111 46
103 114 47
100 110 45
105 117 48
106 118 48
106 117 48
102 112 46
103 114 47
99 110 46
104 116 47
102 114 47
102 113 47
102 113 47
101 112 46
102 113 47
104 115 47
102 113 46
103 115 47
105 118 48
106 116 48
104 115 47
101 112 46
103 115 48
104 116 47
103 115 47
102 114 47
101 112 46
103 114 46
103 115 47
102 112 46
101 112 46
103 114 60
105 117 65
109 122 89
112 125 107
117 131 116
116 131 131
114 129 128
123 140 148
125 141 155
121 137 155
128 144 166
128 145 170
127 144 168
132 150 175
123 139 162
121 137 160
129 146 169
129 147 171
129 146 171
129 148 172
129 146 169
127 144 168
126 143 167
127 142 166
126 143 167
127 144 168
128 145 168
131 149 173
127 143 167
128 144 167
126 142 165
125 141 165
128 145 169
125 140 162
123 140 162
125 141 165
124 140 164
127 144 168
124 139 163
124 140 164
124 140 164
125 141 164
118 132 154
116 129 152
125 141 164
121 137 160
121 136 161
127 143 167
119 133 156
119 134 157
114 129 152
115 129 152
109 124 147
105 122 146
107 124 148
108 124 148
95 111 134
96 111 135
81 94 117
80 95 118
71 85 107
77 93 117
69 84 108
68 84 107
66 81 106
63 77 100
67 82 106
67 82 106
58 73 94
66 82 105
60 75 97
61 77 98
66 82 103
62 77 99
63 76 98
64 79 102
67 83 106
65 79 103
59 74 94
62 79 100
56 70 91
53 66 86
59 74 95
56 70 89
56 70 90
59 73 93
58 70 88
62 75 94
55 67 86
73 84 103
80 94 112
77 89 111
80 92 111
93 107 128
89 102 121
107 122 143
101 114 134
106 119 140
106 123 139
110 132 136
111 135 138
106 139 114
114 148 126
106 155 91
104 146 100
96 149 62
95 156 27
97 160 19
94 156 7
96 159 7
88 147 7
92 154 7
95 160 7
96 160 7
96 159 7
94 157 7
94 156 7
94 156 7
98 163 7
95 159 7
94 158 7
96 159 7
94 157 7
93 156 7
90 150 7
92 154 7
97 162 7
94 156 7
94 157 7
91 153 7
98 164 7
95 160 7
94 158 7
97 161 7
94 157 7
94 157 7
93 157 7
92 154 7
93 155 7
92 154 7
91 153 7
93 157 7
94 157 7
93 156 7
87 148 7
90 151 7
91 155 7
90 152 7
92 154 7
90 150 7
93 157 7
89 149 7
92 155 7
91 154 7
86 146 6
89 150 7
93 155 7
84 140 6
90 151 7
82 139 6
87 146 6
88 148 17
81 136 16
61 117 43
63 122 54
60 123 58
55 116 64
43 112 70
37 106 74
31 111 86
18 103 86
5 112 101
4 97 82
4 95 82
4 96 84
4 96 84
4 95 85
4 97 85
4 97 87
4 91 82
4 88 78
26 94 88
60 102 105
61 100 102
70 105 112
73 100 112
92 113 132
104 121 147
102 115 140
108 117 151
107 116 144
104 110 145
109 113 155
103 107 145
99 99 148
103 104 147
82 80 118
84 80 123
89 91 126
82 86 125
78 86 112
80 98 115
92 120 119
100 129 127
107 138 137
129 166 154
141 181 167
144 186 172
151 191 180
152 194 183
155 196 188
153 195 188
153 195 188
152 194 188
152 194 188
151 193 188
150 193 188
149 192 188
149 192 188
148 192 188
147 191 188
147 191 188
147 191 188
146 191 188
146 191 188
146 190 188
145 190 188
146 190 188
145 190 188
145 190 188
145 190 188
145 190 188
144 189 187
143 188 186
144 189 186
141 184 182
139 182 180
139 181 179
141 183 180
141 183 180
141 183 178
140 181 177
145 187 184
144 186 182
143 185 180
146 189 185
146 189 185
148 191 186
149 192 187
150 193 188
151 193 188
151 194 188
152 194 188
152 194 188
153 195 188
155 196 188
155 195 187
151 189 180
144 179 170
136 169 160
127 158 155
127 161 162
120 149 160
122 153 168
134 162 183
143 170 192
151 178 202
161 186 214
172 195 222
178 202 232
185 207 237
190 211 240
191 212 241
186 207 234
192 213 241
187 208 236
191 211 239
195 216 243
197 217 245
200 221 248
197 217 244
200 221 248
198 218 246
201 221 249
198 218 245
202 222 249
194 214 241
201 221 248
203 223 251
197 216 242
201 220 246
201 221 247
196 215 241
203 222 249
204 224 251
202 222 248
205 225 252
199 218 244
205 225 252
204 224 250
203 222 249
205 225 252
200 220 246
204 223 250
205 224 250
205 225 251
205 224 250
205 225 252
203 223 249
206 225 252
207 226 253
206 225 252
208 228 254
205 225 251
208 227 254
207 226 252
205 224 250
208 227 253
207 226 252
207 227 253
205 224 250
205 224 250
207 226 252
206 226 252
209 228 254
205 224 250
209 228 254
207 226 252
209 228 254
205 224 250
207 225 251
207 226 252
207 226 252
207 226 252
209 228 254
208 226 252
209 228 254
209 228 254
208 227 253
206 225 250
208 227 252
209 228 254
210 229 255
208 227 252
205 224 249
208 227 252
206 225 250
208 227 253
209 227 253
207 226 251
207 226 251
203 222 246
209 227 253
207 225 250
210 228 254
208 227 253
209 228 253
209 228 254
211 229 255
209 227 253
210 228 254
209 228 254
210 229 254
211 229 255
208 226 252
208 227 252
210 229 254
209 228 253
210 229 254
209 228 253
208 227 252
210 229 254
210 228 254
207 226 251
207 226 251
210 229 254
211 229 254
209 228 252
208 226 251
212 230 255
208 226 251
205 223 247
207 225 250
210 228 253
210 228 254
205 225 248
207 226 250
209 228 252
206 225 249
206 227 248
208 228 251
208 226 250
209 227 252
205 226 247
209 227 252
208 228 251
209 228 252
208 227 251
207 227 250
210 229 253
210 229 253
209 227 252
207 226 249
208 228 251
212 230 255
206 224 247
179 187 196
133 144 147
107 126 128
97 105 105
84 88 87
82 86 66
112 115 119
94 74 88
97 82 94
82 105 106
36 107 96
49 106 97
95 105 106
116 121 127
105 106 105
93 95 83
105 112 105
80 80 78
56 42 37
53 37 29
82 79 83
104 107 114
100 110 113
68 98 79
52 93 59
121 113 115
154 125 148
150 122 143
120 108 120
101 105 112
96 105 101
72 118 59
53 123 41
66 110 65
85 109 91
71 96 73
49 81 46
52 83 50
72 90 77
57 71 67
45 40 74
58 22 97
56 31 95
38 74 73
20 97 55
23 87 45
58 68 57
94 48 54
112 25 30
107 30 34
113 79 84
109 111 117
107 108 113
128 81 92
134 62 77
125 54 80
77 75 110
46 89 129
39 84 122
42 87 108
43 88 79
52 98 81
58 97 91
62 94 97
65 81 82
68 56 54
68 39 27
66 64 41
52 81 40
50 84 41
80 99 83
105 114 115
105 113 122
79 93 107
47 73 98
55 65 117
66 59 140
77 56 159
87 75 153
108 110 132
115 121 128
115 121 128
116 121 128
115 121 128
116 121 128
115 121 128
115 121 128
115 121 128
116 121 128
115 121 128
115 121 128
115 121 128
112 118 125
111 117 123
111 117 124
113 120 127
114 120 128
115 121 128
116 121 128
115 121 128
115 121 128
115 121 128
119 124 130
116 122 128
119 124 130
120 125 131
124 128 134
131 134 139
136 139 142
143 144 147
147 148 150
146 147 150
156 156 157
162 161 161
167 166 165
171 169 168
175 172 171
174 172 171
175 173 172
183 180 178
181 179 177
182 179 177
186 182 180
186 182 180
186 182 180
186 183 181
186 183 181
186 183 181
186 183 181
186 183 181
186 183 181
186 183 181
186 183 181
186 183 181
186 183 181
186 183 181
186 183 181
186 183 181
186 183 181
186 183 181
186 183 181
186 183 181
186 183 181
186 183 181
186 183 181
186 183 181
186 183 181
186 183 181
186 183 181
186 183 181
186 183 181
186 183 181
186 183 181
186 183 181
186 183 181
186 183 181
186 183 181
186 183 181
186 183 181
186 183 181
186 183 181
186 183 181
186 183 181
186 183 181
185 183 181
185 183 181
185 183 181
185 183 181
185 183 181
185 183 181
185 183 181
185 183 181
185 183 181
185 183 181
185 183 181
185 183 181
185 183 181
185 183 181
185 182 181
185 182 181
185 182 181
185 182 181
185 182 181
185 182 181
185 182 181
185 182 181
185 182 181
185 182 181
185 182 181
185 182 181
185 182 181
185 182 181
185 182 181
185 182 181
185 182 181
185 182 181
185 182 181
185 182 181
185 182 181
185 182 181
185 182 181
185 182 181
185 182 181
185 182 181
185 182 181
185 182 181
185 182 181
185 182 181
185 182 181
185 182 181
185 182 181
185 182 181
185 182 181
185 182 181
185 182 181
185 182 181
185 182 181
185 182 181
185 182 181
185 182 181
185 182 181
185 182 181
185 182 181
185 182 181
185 182 181
185 182 181
185 182 181
185 182 181
185 182 181
185 182 181
185 182 181
185 182 181
185 182 181
185 182 181
185 182 181
185 182 181
185 182 181
185 182 181
185 182 181
185 182 181
185 182 181
185 182 181
185 182 181
185 182 181
185 182 181
185 182 181
185 182 181
185 182 181
185 182 181
185 182 181
185 182 181
185 182 181
185 182 181
185 182 181
185 182 181
185 182 181
185 182 181
185 182 181
185 182 181
185 182 181
185 182 181
185 182 181
185 182 181
185 182 181
185 182 181
185 182 181
185 182 181
185 182 181
185 182 181
185 182 181
185 182 181
185 182 181
185 182 181
185 182 181
185 182 181
185 182 181
185 182 181
185 182 181
185 182 181
185 182 181
185 182 181
185 182 181
185 182 181
185 182 181
185 182 181
185 182 181
185 182 181
185 182 181
185 182 181
185 182 181
185 182 181
185 182 181
185 182 181
185 182 181
185 182 181
185 182 181
185 182 181
185 182 181
185 182 181
185 182 181
185 182 181
185 182 181
185 182 181
185 182 181
185 182 181
185 182 181
185 182 181
185 182 181
185 182 181
185 182 181
185 182 181
185 182 181
185 182 181
185 182 181
185 182 181
185 182 181
185 182 181
185 182 181
185 182 181
185 182 181
185 182 181
185 182 181
185 182 181
185 182 181
185 182 181
185 182 181
185 182 181
185 182 181
185 182 181
185 182 181
185 182 181
185 182 181
185 182 181
185 182 181
185 182 181
185 182 181
185 182 181
185 182 181
185 182 181
185 182 181
185 182 181
185 182 181
185 182 181
185 182 181
185 182 181
185 182 181
185 182 181
185 182 181
185 182 181
185 182 181
185 182 181
185 182 181
185 182 181
185 182 181
185 182 181
185 182 181
185 182 181
185 182 181
185 182 181
185 182 181
185 182 181
185 182 181
185 182 181
185 182 181
185 182 181
185 182 181
185 182 181
185 182 181
185 182 181
185 182 181
185 182 181
185 182 181
185 182 181
185 182 181
185 182 181
185 182 181
185 182 181
185 182 181
185 182 181
185 182 181
185 182 181
185 182 181
185 182 181
185 182 181
185 182 181
185 182 181
185 182 181
185 182 181
185 182 181
185 182 181
185 182 181
185 182 181
185 182 181
185 182 181
185 182 181
185 183 181
185 183 181
185 183 181
185 183 181
185 183 181
185 183 181
185 183 181
185 183 181
185 183 181
185 183 181
185 183 181
185 183 181
186 183 181
186 183 181
186 183 181
186 183 181
186 183 181
186 183 181
186 183 181
186 183 181
186 183 181
186 183 181
186 183 181
186 183 181
186 183 181
186 183 181
186 183 181
186 183 181
186 183 181
186 183 181
186 183 181
186 183 181
186 183 181
186 183 181
186 183 181
186 183 181
186 183 181
186 183 181
186 183 181
186 183 181
186 183 181
186 183 181
186 183 181
186 183 181
186 183 181
186 183 181
186 183 181
186 183 181
186 183 181
186 183 181
186 183 181
186 183 181
186 183 181
186 183 181
185 182 180
185 182 180
185 181 179
182 179 177
180 177 175
181 178 176
177 174 173
163 163 163
158 157 158
157 157 158
157 157 158
151 152 153
141 143 145
130 133 138
126 130 135
124 128 133
118 124 130
118 123 129
115 121 128
115 121 128
116 121 128
115 121 128
115 121 128
113 117 125
112 116 125
115 121 127
116 121 128
115 121 128
115 121 128
115 121 128
115 121 128
115 121 128
112 122 129
93 124 136
68 125 143
76 126 143
98 122 134
114 121 128
114 121 128
115 121 128
115 121 128
117 117 127
125 91 119
134 47 110
132 65 114
124 96 120
105 109 121
78 82 109
57 60 102
68 75 118
74 83 124
70 74 93
47 47 62
73 76 87
109 113 122
95 85 126
74 40 123
68 17 120
60 28 112
62 31 107
65 24 94
66 30 85
85 77 91
87 102 101
81 122 126
90 114 122
113 103 122
119 84 106
105 91 96
75 119 89
63 140 99
66 147 104
110 141 128
122 149 148
129 145 144
110 118 117
99 101 93
91 88 64
77 78 88
32 53 118
19 53 102
45 69 88
77 93 98
78 93 87
63 66 61
77 64 71
87 86 88
84 98 96
76 89 90
89 89 94
84 110 84
52 103 50
65 79 60
84 92 96
118 132 152
126 137 161
126 130 152
127 131 153
115 105 126
118 103 124
121 95 116
120 71 93
112 45 70
123 25 58
122 20 56
116 19 54
116 19 54
108 18 51
120 19 56
120 20 56
121 19 56
118 19 55
129 20 60
127 20 59
121 19 57
127 20 58
124 20 57
130 21 60
126 20 58
120 19 56
129 20 59
131 21 61
130 21 61
127 20 58
127 20 58
131 21 60
127 21 60
131 21 61
129 20 60
119 19 55
127 20 60
126 20 59
129 21 61
130 20 60
126 20 58
130 20 60
128 20 58
135 21 62
117 18 54
131 21 62
125 20 58
129 20 60
126 20 58
129 20 59
128 20 58
129 20 59
131 21 62
122 19 58
128 20 60
126 20 58
126 20 58
130 21 61
131 21 61
128 20 59
125 20 58
127 20 59
124 19 57
124 33 63
123 53 78
125 63 87
119 84 105
125 91 113
123 109 131
125 117 139
119 112 130
123 139 159
113 130 146
111 134 148
97 124 130
94 124 125
81 117 110
65 107 89
56 106 79
49 103 72
33 99 53
23 97 43
19 98 40
18 95 39
18 94 38
18 95 39
18 96 39
19 96 39
19 98 41
18 96 40
19 98 40
18 97 40
19 97 40
18 96 40
19 98 40
18 97 40
19 97 40
18 96 39
18 96 40
18 95 39
18 96 40
19 98 40
19 98 40
19 98 40
18 96 40
18 97 40
18 96 39
18 95 39
19 97 40
19 98 40
18 94 39
19 99 41
19 97 40
18 96 39
19 98 40
19 97 40
18 97 39
19 99 41
19 99 41
17 92 38
18 96 39
19 99 40
18 97 40
18 94 38
19 98 40
34 99 53
45 102 64
59 98 77
71 110 95
75 105 98
75 104 101
104 125 135
99 121 128
103 122 133
107 116 132
107 108 127
106 101 119
113 107 126
99 73 90
100 78 94
94 54 71
87 41 58
88 22 44
87 12 39
83 11 36
84 12 37
84 12 37
91 13 41
91 13 40
86 12 38
87 12 39
88 12 39
92 13 41
90 12 40
87 12 39
90 12 40
92 13 41
90 13 40
90 13 40
86 12 38
92 13 41
87 12 39
87 12 40
86 12 39
88 12 39
86 12 39
90 12 40
90 13 41
92 13 41
88 12 39
94 13 42
86 12 39
90 13 40
93 13 41
90 13 40
95 13 42
90 13 40
88 12 39
86 12 39
92 13 41
91 13 41
92 13 41
91 13 41
86 12 39
91 13 40
91 13 41
91 13 41
92 13 42
94 13 42
91 13 41
91 13 41
93 13 42
94 13 42
93 13 42
91 13 41
88 12 39
91 13 41
93 13 41
91 29 41
91 37 40
95 46 41
95 52 41
95 68 41
98 71 42
101 83 43
94 75 40
99 86 42
99 88 41
100 90 42
103 92 43
96 84 39
100 90 42
102 92 43
103 93 43
104 92 43
102 89 41
97 87 40
101 92 43
92 83 39
93 84 39
99 89 41
97 87 41
97 86 40
93 84 39
94 84 39
98 89 41
92 83 39
90 81 38
92 84 39
91 82 38
88 78 36
78 70 32
93 84 39
85 78 36
81 75 34
80 73 33
85 78 36
87 79 36
87 79 36
77 71 33
80 76 34
77 71 32
87 80 44
88 86 58
86 87 73
89 92 76
93 97 88
83 90 81
87 93 86
82 96 92
75 90 84
78 98 96
71 91 90
76 99 97
68 88 86
69 91 88
70 92 90
67 89 86
70 92 89
68 88 86
71 93 91
72 94 91
70 91 89
69 90 88
71 94 91
72 96 94
70 92 90
72 93 90
72 95 93
73 95 91
69 89 87
70 94 90
71 95 91
70 92 88
73 103 93
67 104 82
69 116 86
66 112 82
68 126 83
63 126 78
61 134 75
65 133 80
64 136 76
63 135 78
