P3
1600 1
255
174 209 203
174 209 203
174 209 203
174 209 203
174 209 203
174 209 203
175 209 203
175 209 203
176 210 203
176 210 203
177 210 203
178 211 203
178 211 203
179 212 203
180 212 203
181 212 203
182 213 203
183 214 203
184 214 203
186 215 203
187 216 203
188 216 203
190 217 203
192 218 203
193 218 202
191 215 198
190 212 198
175 194 182
174 192 185
161 173 165
151 163 166
150 165 171
135 147 163
125 138 160
120 126 159
118 114 141
126 115 145
134 112 136
123 103 125
133 94 102
134 91 102
137 81 75
138 81 77
142 73 56
143 74 58
137 71 55
142 73 57
142 73 57
140 72 55
140 72 56
143 74 58
139 72 56
142 73 58
141 72 57
140 72 57
141 72 57
143 73 57
142 73 58
137 71 56
138 72 57
141 72 57
133 69 55
142 73 58
138 71 56
135 69 55
139 72 56
137 72 56
141 73 57
137 71 56
135 70 55
140 72 57
135 70 55
138 72 56
138 71 56
138 72 57
136 71 56
139 73 57
132 68 54
137 72 57
133 69 54
132 68 54
137 71 56
144 74 58
137 71 56
134 69 54
138 71 56
133 70 56
130 69 54
140 72 57
133 70 55
135 70 55
128 67 53
131 68 53
129 67 52
125 68 55
124 70 58
119 75 64
100 74 64
94 74 65
91 71 63
64 76 71
60 77 73
52 80 76
36 78 74
33 78 75
36 76 73
36 73 65
38 72 64
40 71 56
44 76 59
49 71 51
57 78 58
52 72 42
57 73 50
51 67 35
56 73 41
53 71 27
54 73 32
56 72 41
54 73 33
45 64 8
47 65 9
49 65 27
62 78 58
56 73 41
54 73 41
56 72 42
63 81 60
60 74 61
72 88 75
78 95 89
70 85 77
71 87 77
77 92 90
90 106 110
91 106 111
99 114 123
100 116 128
107 124 138
108 124 136
105 122 138
108 124 143
112 127 146
108 123 141
107 123 139
119 136 156
104 120 138
111 128 147
107 124 143
119 137 159
111 128 146
112 128 146
118 135 155
118 135 155
111 127 147
116 133 153
117 134 155
114 131 150
122 140 160
112 128 146
116 133 153
120 137 159
123 140 161
117 135 156
121 140 162
125 143 165
119 136 156
115 133 154
118 135 155
121 140 161
116 140 160
104 140 154
101 145 158
96 146 157
98 153 163
89 152 159
81 151 156
69 153 154
68 160 161
57 159 158
52 161 158
47 163 160
47 165 162
46 162 159
46 162 158
46 161 158
46 163 159
46 163 160
47 165 162
46 161 158
46 161 158
46 161 159
45 160 156
46 162 158
46 163 160
46 163 160
46 163 159
46 162 159
46 162 159
45 159 155
46 162 159
45 159 157
46 162 158
46 162 158
47 166 163
45 158 156
46 162 158
45 161 157
46 162 159
45 159 156
46 161 157
46 162 159
46 162 159
45 158 155
46 162 158
46 162 158
45 159 156
49 154 153
56 153 152
50 147 144
66 149 148
65 138 139
82 143 149
90 143 151
91 130 140
100 131 144
97 124 137
113 136 154
118 134 154
109 126 143
120 138 159
117 134 154
110 127 145
117 134 155
113 129 148
120 136 156
111 127 146
121 138 160
120 137 158
116 133 152
124 141 163
115 131 150
125 143 163
118 134 155
122 141 163
122 139 160
118 137 156
127 145 168
121 138 159
128 146 169
127 144 168
116 134 153
118 135 155
119 136 157
124 141 163
127 146 168
129 147 169
123 140 161
124 142 164
121 139 159
123 141 161
124 142 163
126 145 167
125 141 162
127 143 166
126 143 164
129 148 171
128 146 169
126 144 166
125 143 165
128 146 168
125 143 166
129 147 170
127 145 167
123 136 157
124 129 154
115 113 140
123 124 151
114 99 129
112 89 121
112 91 121
107 69 105
103 45 90
100 24 82
98 19 79
103 19 83
105 20 84
105 20 84
104 19 83
105 19 82
102 19 82
102 19 83
100 19 80
105 20 84
102 19 83
101 19 80
99 19 80
103 19 82
101 19 81
103 19 82
101 19 81
101 19 82
102 19 82
102 19 83
102 19 82
106 20 85
103 19 82
101 19 82
103 19 82
104 19 83
100 19 81
101 19 82
102 19 82
103 19 82
99 19 80
101 19 81
101 19 81
98 18 80
100 19 80
101 19 81
103 19 82
100 19 80
98 18 78
99 19 81
100 22 80
97 22 77
97 45 74
96 51 72
98 57 70
101 69 71
98 78 64
98 92 56
97 90 56
96 99 48
99 103 50
98 101 47
96 104 43
95 103 43
99 108 45
98 108 44
94 103 42
99 108 44
98 106 43
97 107 44
97 106 44
98 108 44
98 107 44
92 101 42
101 110 45
98 107 44
98 108 44
99 109 45
97 106 44
101 112 45
100 110 45
101 111 45
101 111 46
99 109 45
98 108 44
96 106 44
99 109 45
99 109 45
95 105 43
101 112 46
96 106 43
97 107 44
97 107 43
99 110 45
96 106 43
94 103 42
97 108 44
96 106 43
102 112 48
96 109 72
104 117 87
109 122 110
110 122 108
114 130 131
120 136 144
122 138 148
125 142 163
122 140 160
126 144 167
132 150 175
129 146 170
130 148 172
124 141 164
128 145 169
126 142 165
127 146 169
123 139 162
126 143 166
127 144 167
125 142 166
125 143 166
127 144 168
124 142 166
122 139 163
124 142 165
125 142 166
124 141 165
125 143 166
127 144 167
125 142 165
128 146 170
123 140 163
119 135 157
120 136 159
122 138 162
121 138 160
121 138 160
124 140 163
115 132 155
120 136 159
117 132 154
123 140 163
119 135 157
110 125 146
115 130 152
120 137 159
114 130 151
112 127 147
106 119 140
112 128 149
100 114 133
99 111 131
101 115 136
102 116 136
97 110 130
91 104 122
95 109 129
90 103 122
82 94 110
76 90 107
81 93 112
85 97 113
74 84 102
73 83 99
68 77 92
67 77 93
65 75 89
66 75 90
68 77 89
64 74 87
63 73 89
60 68 79
63 73 88
66 76 91
63 72 85
68 76 91
73 84 100
80 89 107
78 89 103
68 76 91
75 83 97
81 91 106
92 103 119
99 111 129
94 105 121
98 109 127
105 117 134
110 123 143
96 108 125
93 104 121
103 117 134
106 120 136
104 121 129
105 125 127
97 127 100
95 135 84
90 130 78
90 135 65
91 143 54
91 150 31
84 141 8
82 137 6
88 148 7
86 145 6
91 153 7
88 148 7
89 148 7
87 144 6
93 156 7
88 144 6
91 151 7
90 151 7
90 152 7
90 150 7
85 141 6
84 141 6
92 152 7
89 150 7
85 143 6
92 153 7
90 149 7
91 152 7
89 149 7
84 142 6
88 147 7
87 146 6
91 151 7
81 138 6
87 147 7
89 150 7
86 144 6
88 147 7
85 144 6
90 151 7
86 147 6
84 142 6
88 149 7
87 146 6
86 144 6
82 141 6
90 151 7
82 140 6
82 139 6
79 133 6
87 147 6
84 142 6
80 138 6
83 141 6
81 138 6
84 143 6
73 125 6
80 134 6
78 131 6
79 131 6
82 137 6
68 121 31
70 124 30
68 123 38
59 120 59
49 107 58
36 96 65
37 94 68
56 111 96
69 117 118
68 120 125
85 135 144
93 133 148
108 150 170
107 146 168
136 173 207
134 172 206
138 176 213
143 181 219
147 184 226
151 190 234
150 189 233
155 194 242
156 195 244
156 195 244
155 195 245
154 195 245
154 195 245
154 195 245
152 193 245
152 194 245
152 194 245
151 192 244
151 193 245
152 193 244
153 194 245
150 190 241
150 189 239
150 187 235
149 186 234
149 186 234
141 176 220
143 177 220
140 172 212
142 174 211
142 176 212
141 172 205
139 168 192
139 169 185
143 174 187
140 170 184
141 171 173
130 155 156
145 177 172
142 175 166
143 177 168
148 184 175
152 189 179
152 190 180
154 192 182
153 192 182
156 195 185
155 194 185
151 190 181
150 189 182
152 192 184
151 191 183
153 194 185
152 193 187
151 192 185
150 190 184
151 191 183
148 188 180
147 188 180
147 188 178
140 179 171
142 181 172
147 186 177
143 183 173
144 185 175
140 181 170
136 174 163
143 181 171
143 182 169
149 188 177
147 187 175
148 186 176
152 191 181
152 192 180
147 186 175
155 194 184
146 187 184
148 189 186
138 181 186
143 187 193
138 184 196
136 184 201
129 175 193
126 177 202
126 176 201
128 180 206
122 171 197
125 176 203
125 176 202
126 176 203
127 177 204
125 173 199
137 180 205
142 179 205
146 180 207
153 182 209
158 185 214
169 191 219
165 187 216
177 199 228
181 202 231
180 201 229
190 211 239
190 211 239
190 212 240
198 219 248
195 216 245
199 220 249
196 217 246
197 218 245
198 219 247
198 219 247
198 218 246
201 221 249
201 222 250
199 220 248
197 217 244
203 224 252
197 217 245
197 217 244
202 223 251
202 222 250
199 220 247
202 222 250
204 224 252
201 221 248
200 221 248
200 220 248
204 225 252
202 222 249
204 224 251
204 224 251
202 222 250
204 224 252
202 223 250
203 223 251
201 221 248
206 226 253
204 224 251
206 226 253
205 225 252
204 224 251
206 226 253
206 226 254
207 227 254
206 226 253
204 224 251
207 227 254
206 225 252
203 223 249
203 223 250
207 227 254
207 227 254
206 226 253
208 228 255
205 225 252
205 225 252
209 229 255
207 226 253
207 227 254
209 228 255
206 225 252
207 226 253
206 225 251
207 226 253
207 226 253
206 225 252
208 227 254
204 223 249
208 227 254
206 225 252
206 225 252
208 227 254
205 224 250
207 226 252
208 227 254
208 227 254
206 225 252
206 225 251
207 226 252
205 225 251
207 226 252
208 227 254
207 227 253
207 226 252
208 227 254
208 227 253
208 227 253
206 225 251
209 228 254
209 228 254
205 224 250
204 223 248
206 225 251
206 226 251
207 226 252
207 226 252
207 226 251
205 224 249
205 223 249
208 227 253
206 225 250
209 228 254
208 227 253
209 228 254
209 228 254
208 227 253
208 227 253
208 227 252
210 229 255
208 227 253
208 227 252
207 226 252
208 227 253
207 226 252
209 228 254
208 227 253
207 226 251
209 228 254
209 228 254
207 227 251
204 223 248
208 227 253
209 227 253
207 227 252
206 226 250
211 230 255
207 226 252
205 224 249
207 226 251
196 210 230
153 159 166
127 143 156
119 131 144
86 83 87
71 63 60
93 97 99
97 99 105
91 84 91
97 101 107
72 94 106
35 79 121
56 81 133
92 101 121
103 111 115
92 101 104
104 112 117
106 111 115
78 78 80
44 35 31
78 80 61
98 103 82
101 107 102
95 102 103
77 87 84
86 75 81
106 85 98
93 75 96
58 57 96
28 45 97
28 47 100
38 55 103
53 71 81
57 78 60
57 80 58
55 76 56
72 87 78
95 105 113
87 102 127
84 101 133
86 103 131
76 82 100
58 63 70
43 76 56
24 71 41
73 75 81
114 68 117
123 62 125
127 65 130
131 66 131
109 59 113
41 39 72
9 34 61
9 37 64
17 37 65
54 40 59
114 102 90
143 141 119
141 145 124
124 129 122
101 109 113
99 106 114
80 82 89
58 45 52
55 32 40
59 37 45
75 73 78
100 106 112
112 118 125
109 116 122
103 112 115
80 100 92
50 89 60
31 83 42
45 84 47
56 78 49
74 75 58
84 75 62
81 73 61
75 70 73
80 87 91
69 87 82
44 76 34
46 63 8
49 61 8
50 62 8
49 62 9
48 67 14
52 65 29
71 64 53
87 67 69
92 60 69
98 49 58
101 39 51
110 15 37
104 52 61
103 92 99
104 108 118
86 88 112
58 54 102
39 29 97
36 28 96
28 36 92
25 41 91
22 43 91
33 62 90
51 85 92
70 107 100
82 113 101
83 104 98
103 117 112
102 129 112
77 130 93
65 120 78
57 99 65
77 98 83
98 102 107
113 119 126
114 117 136
117 117 155
120 119 170
116 116 166
102 101 146
78 81 122
29 47 92
35 48 99
57 55 87
72 57 71
78 64 50
79 69 32
88 87 73
105 100 98
109 96 94
116 84 76
120 88 79
129 95 87
124 101 98
116 111 115
117 117 128
127 103 140
129 85 141
116 77 131
111 77 130
88 77 110
87 88 108
94 101 112
111 115 124
104 100 119
89 72 108
85 53 108
84 55 111
93 77 119
106 102 127
111 114 125
103 101 110
95 89 96
84 71 77
75 63 62
85 79 78
108 110 112
130 137 139
125 132 136
117 122 128
112 116 122
116 121 126
105 114 112
90 108 83
72 97 40
91 86 52
125 79 82
135 59 82
132 64 83
117 89 97
104 105 107
102 112 113
105 114 116
114 120 125
114 120 127
111 115 127
100 101 124
93 91 125
91 89 124
105 107 126
113 118 127
116 121 128
115 121 128
115 121 128
117 122 128
116 121 128
115 121 128
116 122 128
116 122 128
116 122 128
116 122 128
118 123 129
121 126 131
117 123 129
120 126 132
121 125 131
126 129 134
121 127 133
122 126 132
130 133 138
127 131 136
126 130 135
124 128 134
136 138 142
131 134 139
132 135 140
135 137 141
136 139 143
139 141 144
139 141 144
145 146 149
147 148 150
151 152 154
145 147 149
147 148 150
142 144 147
144 145 148
143 144 147
155 155 156
152 153 155
153 153 154
156 156 157
151 152 153
155 155 156
158 158 159
161 161 161
156 156 157
161 161 161
161 160 161
159 159 159
164 163 163
161 161 161
162 162 162
168 166 166
161 161 161
168 167 166
165 164 164
166 165 165
170 168 167
168 167 166
165 164 164
171 169 168
172 170 169
172 170 169
172 170 169
171 170 169
176 174 173
174 172 171
171 169 168
172 170 169
173 171 170
176 174 173
174 172 171
175 173 172
176 174 173
172 170 169
178 176 175
177 175 173
175 173 172
178 175 174
179 176 175
176 174 172
175 173 171
181 178 176
176 174 173
179 176 175
181 178 176
181 178 176
179 176 175
181 178 176
180 177 175
182 179 177
180 178 176
177 174 173
179 177 175
180 177 175
182 179 177
183 180 178
181 178 176
185 181 179
183 180 178
180 177 175
181 178 176
182 179 177
181 178 176
180 177 175
180 178 176
181 178 176
181 178 176
180 178 176
181 178 176
177 175 173
183 180 178
177 175 174
184 181 179
181 178 176
182 179 177
177 175 174
180 177 175
178 176 174
182 179 177
180 177 175
183 180 178
182 179 177
181 178 176
179 177 175
177 175 173
178 175 174
181 178 176
180 178 176
178 175 174
178 176 174
180 178 176
182 179 177
181 178 176
178 176 174
177 175 174
177 175 173
176 174 173
179 176 175
179 176 175
177 175 173
173 171 170
171 170 169
174 172 171
176 174 172
172 170 169
174 172 171
174 172 171
172 170 169
170 168 167
168 167 166
168 167 167
171 170 169
172 170 169
171 169 168
172 170 169
169 167 167
168 166 166
164 163 163
164 163 163
166 165 164
166 165 165
165 164 164
165 164 164
166 165 164
158 157 158
164 163 163
163 162 162
157 157 158
152 152 154
157 157 157
151 152 154
158 158 158
155 155 156
150 151 153
150 151 153
146 148 150
150 150 152
147 148 150
148 149 151
142 144 147
145 147 149
147 148 150
144 145 148
139 141 144
138 141 144
140 142 145
146 147 149
136 138 142
133 136 140
132 135 140
140 141 144
136 139 142
126 130 135
129 133 137
129 132 137
130 133 137
121 126 131
122 127 133
120 125 131
120 125 131
118 124 130
115 121 128
117 123 129
115 121 128
116 122 128
117 122 129
116 122 128
116 121 128
115 121 128
114 121 128
114 121 128
115 121 128
115 121 128
116 121 128
115 121 128
116 121 128
114 120 128
115 121 128
116 121 128
115 121 128
115 121 128
115 121 128
115 121 128
115 121 128
115 121 128
115 121 128
115 121 128
117 122 128
115 121 128
116 121 128
116 121 128
115 121 128
115 121 128
115 121 128
116 122 129
119 124 129
120 125 132
117 123 129
117 122 128
116 121 127
116 121 128
113 120 127
100 118 124
82 112 117
64 110 115
64 110 115
90 114 119
107 115 122
110 115 122
105 109 115
108 113 120
115 121 128
101 121 109
85 119 90
63 122 58
55 116 50
59 111 59
75 108 85
83 110 110
57 97 102
43 104 115
65 125 143
71 125 145
82 125 143
107 125 138
128 122 146
144 123 160
149 122 162
141 122 154
122 121 133
114 120 127
113 119 125
101 108 117
93 100 106
99 102 78
124 124 67
131 128 53
124 121 51
118 118 70
100 101 83
75 77 88
39 39 74
31 36 46
33 50 22
57 80 47
85 104 82
114 125 113
137 141 139
138 136 153
139 125 166
134 120 159
142 136 157
135 136 142
126 129 130
106 111 114
109 114 118
109 116 123
100 109 119
86 91 116
63 64 111
30 18 107
58 48 97
82 73 79
103 93 65
102 95 76
107 107 97
104 104 89
101 105 88
97 104 89
96 103 94
101 106 109
97 101 109
92 96 106
84 93 101
54 73 82
13 51 62
8 53 63
17 62 69
49 79 83
80 94 103
92 94 109
99 101 114
99 102 112
82 80 96
48 49 64
36 49 56
25 22 60
24 17 59
39 50 71
59 71 81
85 89 96
94 100 104
78 110 95
36 121 77
16 115 66
24 107 58
38 81 33
44 75 24
54 71 25
72 72 29
73 69 32
66 62 44
56 57 69
82 90 116
128 135 153
116 119 133
88 85 99
72 65 76
66 73 59
61 95 52
81 106 84
95 105 102
93 84 97
82 84 83
69 100 73
62 88 65
69 74 70
96 107 120
122 136 159
123 141 164
124 138 163
119 123 145
120 127 149
112 108 130
114 100 121
116 104 125
117 82 104
107 63 85
105 41 64
104 42 64
110 18 52
113 18 53
112 18 51
112 18 52
111 18 52
112 18 51
115 19 53
116 18 53
111 18 50
112 18 53
114 18 52
111 17 50
111 18 52
122 19 56
117 18 53
113 18 51
118 18 54
117 19 54
120 19 55
124 20 58
115 18 54
122 19 56
114 18 52
120 19 55
119 18 54
118 18 54
115 18 53
120 19 55
125 20 57
126 20 58
124 20 57
128 20 59
118 19 55
109 17 50
120 19 55
123 19 57
117 18 54
110 17 51
118 19 55
122 19 56
114 18 52
113 18 53
119 19 54
114 18 53
114 18 53
118 18 54
115 18 54
119 19 55
118 24 57
125 25 60
118 46 72
115 69 91
128 76 99
121 98 119
119 100 121
111 109 122
107 111 121
103 118 125
92 113 113
79 111 104
83 116 112
59 103 81
45 99 67
22 92 41
17 89 36
17 90 37
18 93 38
18 94 38
17 88 36
17 89 36
18 95 39
18 92 38
17 90 37
18 92 38
17 90 37
17 90 37
17 92 37
18 92 37
17 90 37
18 94 39
18 92 38
18 94 38
17 91 37
18 96 39
18 93 39
18 94 38
18 94 39
18 94 38
17 92 38
18 91 37
18 94 38
18 96 38
18 96 39
17 90 37
17 91 37
18 94 38
18 94 38
18 94 39
18 95 39
18 95 39
18 96 39
19 97 39
18 94 38
17 92 37
18 94 38
18 96 39
18 93 38
18 95 38
18 95 39
18 95 38
18 94 38
18 94 38
18 93 37
18 95 39
18 96 39
17 92 37
17 92 37
18 93 38
30 94 48
50 102 72
54 101 75
71 99 87
77 98 91
87 93 95
84 92 91
95 87 99
98 84 98
95 69 85
89 48 64
82 11 36
87 12 39
77 11 34
85 12 37
89 12 39
86 12 38
82 11 37
80 11 36
85 12 38
83 11 37
85 12 37
83 11 36
84 12 38
86 12 39
82 11 36
88 12 39
84 12 37
80 11 35
83 11 36
82 11 37
82 11 36
81 11 36
84 12 37
83 11 37
88 12 39
86 12 38
89 12 40
86 12 39
86 12 38
87 12 39
84 12 37
81 11 36
86 12 38
83 12 37
86 12 38
83 12 37
84 12 37
85 12 38
86 12 39
85 12 38
84 12 38
85 12 38
86 12 38
91 13 40
84 12 37
91 13 40
86 12 38
87 12 39
90 13 40
87 12 38
87 12 39
90 13 40
89 12 40
86 12 38
85 12 38
89 12 40
89 12 40
85 17 38
87 25 38
86 34 37
94 45 41
90 49 39
89 60 38
92 66 40
93 75 39
87 75 37
86 76 36
91 81 38
90 81 38
86 77 35
88 79 36
93 83 38
86 77 35
82 74 34
97 87 40
87 77 36
89 80 37
90 79 36
81 73 33
85 77 35
90 81 37
87 76 35
81 72 33
83 75 35
81 74 34
80 71 32
79 71 32
79 73 33
84 76 35
72 65 29
77 69 31
77 69 32
79 72 34
81 74 34
79 72 33
81 73 37
86 84 65
88 85 69
93 96 94
101 106 103
101 106 110
103 111 117
108 117 127
116 126 137
116 129 143
116 131 149
113 128 143
108 123 138
110 128 145
100 118 131
100 118 130
87 103 111
83 102 108
71 88 90
68 89 87
66 86 83
64 84 82
66 85 83
66 87 84
67 88 85
62 82 80
63 83 79
61 92 78
62 97 78
61 104 76
61 108 76
63 121 76
53 119 64
56 134 66
53 138 59
52 147 57
50 151 53
49 154 52
48 156 49
46 149 47
49 158 50
47 153 48
48 157 49
46 152 48
48 155 49
48 157 50
48 157 50
49 159 50
