P3
1600 1
255
175 209 203
175 209 203
175 209 203
176 210 203
176 210 203
176 210 203
176 210 203
177 210 203
177 210 203
178 211 203
178 211 203
179 211 203
179 212 203
180 212 203
181 212 203
181 213 203
182 213 203
184 214 203
185 214 203
186 215 203
187 216 203
188 216 203
189 216 202
191 217 202
191 215 199
188 207 191
187 202 185
177 189 171
173 184 169
154 157 148
151 149 151
143 145 150
152 159 163
132 135 148
124 115 138
121 110 138
127 106 129
132 105 123
127 94 110
133 82 80
137 81 80
139 75 63
133 70 55
139 72 56
141 73 56
137 71 55
140 73 56
141 73 56
137 71 54
137 71 56
139 72 56
140 73 57
141 73 57
140 72 56
138 71 56
138 71 56
142 72 57
138 72 56
137 71 56
136 70 55
132 68 54
135 70 55
141 73 58
140 72 56
134 69 54
138 71 56
135 71 56
139 72 56
137 71 56
139 71 56
137 70 55
133 69 54
140 72 57
138 72 56
137 71 56
138 71 56
134 71 56
133 69 54
139 73 58
132 69 54
136 70 55
138 71 56
135 70 55
134 69 54
133 69 54
134 70 55
131 69 54
136 72 56
136 71 56
128 68 53
138 71 56
127 67 53
129 67 53
128 67 53
130 69 54
129 69 54
123 70 57
107 72 62
107 69 58
105 72 62
80 74 68
78 71 65
52 75 71
49 79 75
39 73 70
40 77 74
38 75 71
48 79 74
50 79 72
39 64 50
43 65 53
52 70 51
54 68 52
58 76 52
56 71 51
50 64 41
62 77 60
60 75 57
56 71 50
53 67 45
54 69 45
62 76 65
58 73 54
58 71 57
61 75 63
53 66 52
63 77 62
63 77 68
67 82 75
65 79 72
77 92 93
86 102 105
89 104 112
92 108 116
90 105 110
94 109 119
98 113 126
95 109 120
97 112 125
107 121 138
103 118 135
108 123 140
108 123 139
115 132 151
111 128 145
110 126 144
113 131 148
117 133 151
111 127 145
112 129 147
116 133 153
109 126 144
111 127 145
113 129 148
115 133 152
122 140 161
114 131 148
120 138 159
118 136 155
117 134 152
113 129 147
117 135 155
116 133 152
119 136 156
121 139 160
114 132 151
117 135 156
122 141 161
116 139 159
113 144 160
106 141 156
97 143 153
92 143 151
86 154 160
75 152 154
73 156 160
55 156 154
55 159 158
50 163 159
46 160 155
47 163 160
46 161 158
46 161 157
46 161 157
45 159 155
45 157 154
46 161 157
46 162 158
47 164 160
45 159 156
46 162 159
45 160 158
46 162 158
46 163 159
47 164 161
47 165 161
46 162 159
45 159 156
45 159 156
46 162 159
46 163 160
46 164 160
45 156 154
46 160 157
45 157 154
46 162 159
46 161 157
46 161 157
45 158 155
45 159 156
45 157 153
45 158 155
44 155 152
45 157 153
45 158 155
45 156 153
45 158 155
44 155 150
45 157 153
47 158 155
54 158 156
62 152 151
71 142 146
77 143 149
81 144 148
95 149 158
97 140 152
106 139 153
114 140 159
120 142 162
122 139 159
125 143 165
124 141 162
126 144 166
127 145 167
126 145 167
122 138 159
127 144 167
124 142 164
122 141 162
127 145 167
124 141 163
131 149 173
126 143 165
128 147 169
126 145 167
126 144 166
126 144 166
126 145 168
124 141 162
127 144 166
120 137 155
128 145 166
123 141 163
133 152 176
128 146 167
129 146 169
128 146 169
125 143 165
130 148 171
128 146 168
129 148 169
126 144 169
127 144 165
129 145 168
127 146 169
129 148 170
126 143 165
126 145 167
125 143 164
131 150 174
125 142 166
131 148 172
128 140 165
123 131 154
123 125 150
115 104 132
112 93 123
111 90 121
105 63 101
102 45 91
103 36 88
102 25 83
100 19 81
102 19 81
100 19 81
101 19 80
105 20 83
98 19 80
104 19 82
99 19 80
103 19 82
99 18 78
103 19 83
100 19 81
102 19 81
102 19 82
103 19 83
101 19 81
100 19 80
99 18 79
101 19 81
104 19 83
102 19 81
102 19 82
102 19 82
100 19 79
98 18 79
102 19 82
101 19 82
102 19 83
99 18 80
102 19 81
100 19 80
104 19 83
101 19 81
101 19 81
102 19 82
98 18 80
100 18 78
98 18 78
99 19 79
100 19 81
98 18 79
100 19 80
98 18 79
100 19 80
97 23 78
101 37 78
97 45 73
96 58 68
96 70 65
97 77 62
96 81 59
97 93 52
97 100 49
93 92 48
95 104 43
95 102 42
91 100 41
96 104 43
94 103 42
93 101 42
95 103 43
97 106 43
94 103 42
95 104 43
98 107 44
96 105 43
96 106 44
96 106 43
94 103 42
101 111 45
96 106 43
99 110 45
97 108 44
96 104 43
97 107 44
95 104 43
100 111 45
98 108 44
95 105 43
98 108 44
99 109 44
99 109 44
96 106 44
97 108 44
94 105 43
95 106 43
98 109 44
95 107 43
92 103 41
102 112 46
98 109 44
97 109 58
102 116 86
105 117 98
108 121 109
114 128 126
124 139 151
122 138 153
132 148 168
132 150 174
133 150 174
133 150 174
133 151 174
131 148 170
131 149 174
131 148 171
130 148 171
131 147 170
127 144 167
129 146 168
123 140 162
125 142 165
118 134 158
124 141 165
125 143 166
122 140 164
125 141 165
117 133 155
129 147 170
123 140 163
119 136 159
120 136 158
124 141 165
119 136 159
124 142 165
126 142 164
118 135 159
123 140 163
117 134 156
118 133 155
118 134 157
119 135 157
111 125 146
115 131 154
111 126 147
115 130 152
111 127 148
109 124 144
110 125 146
112 128 149
99 113 132
108 122 143
105 118 138
107 122 143
109 123 142
107 121 140
106 121 141
98 111 130
88 100 117
88 100 118
92 104 121
90 102 121
84 96 112
91 103 120
85 97 112
80 90 107
74 84 100
77 87 102
70 81 97
83 94 110
80 91 108
80 90 105
81 91 104
74 84 98
80 91 107
70 79 93
90 101 118
85 94 109
86 97 113
83 93 108
80 89 105
92 104 121
97 110 128
100 112 129
103 115 133
99 110 128
101 114 133
104 116 134
98 109 127
99 112 131
106 119 137
102 115 133
101 118 134
96 118 118
99 124 117
98 127 111
93 127 94
93 139 71
95 141 80
91 139 63
89 143 38
88 145 19
89 149 7
88 146 6
84 140 6
86 143 6
85 143 6
84 140 6
87 144 6
81 136 6
89 148 7
87 143 6
89 148 7
89 149 7
87 145 7
86 144 6
87 146 7
85 141 6
87 146 6
90 150 7
89 147 7
85 142 6
89 148 7
93 157 7
90 150 7
82 136 6
87 146 7
85 142 6
88 149 7
82 140 6
84 142 6
85 142 6
83 139 6
84 142 6
84 142 6
83 141 6
87 148 7
79 134 6
84 143 6
85 144 6
81 138 6
84 142 6
84 143 6
83 141 6
83 139 6
83 140 6
83 141 6
77 131 6
81 136 6
76 131 6
77 131 6
74 127 6
76 130 6
73 123 5
78 134 11
76 130 11
76 131 28
64 113 30
56 106 43
52 111 56
53 113 60
61 118 91
69 119 106
72 118 117
91 131 142
119 156 182
106 146 167
127 165 195
131 168 201
140 176 211
147 186 227
155 192 237
156 195 242
157 196 243
158 197 245
155 195 245
155 195 245
154 194 245
152 194 245
152 193 245
151 193 245
150 192 245
150 192 245
149 192 245
148 191 245
149 192 245
149 192 245
149 192 245
148 191 245
148 191 245
149 192 245
149 192 245
149 192 245
150 192 245
151 193 245
151 193 245
152 193 244
152 192 243
152 191 241
149 187 234
149 185 230
146 181 226
145 179 222
142 173 208
139 167 196
147 180 210
136 162 178
137 164 174
141 171 182
142 172 178
141 170 172
137 167 159
137 167 160
136 166 159
143 177 169
143 178 170
152 191 182
136 171 165
143 179 172
142 179 173
134 170 165
140 180 174
140 180 175
141 181 176
142 181 175
137 175 169
136 176 171
131 171 165
133 173 167
127 167 162
132 174 166
132 170 163
135 174 167
129 168 159
129 170 161
119 157 148
126 167 157
125 163 152
133 170 158
130 168 155
138 176 163
130 168 153
130 168 155
134 171 161
134 171 167
135 176 177
142 184 185
133 175 176
132 177 189
136 182 197
132 180 198
126 176 199
126 176 201
126 177 203
120 170 196
125 175 202
122 171 197
125 176 202
125 175 202
123 173 200
126 176 202
123 173 199
132 179 205
132 174 200
132 173 198
136 170 195
155 183 211
163 189 216
167 191 218
175 197 227
172 194 223
184 206 235
185 206 234
188 209 237
186 207 235
194 216 244
196 218 246
191 212 240
194 216 245
196 217 245
199 220 249
195 216 244
198 219 248
196 217 245
204 225 254
196 216 244
197 218 245
199 220 248
202 222 250
197 218 245
198 218 246
203 224 252
200 220 248
200 220 248
199 219 247
202 223 251
202 223 250
199 220 247
205 225 253
201 221 249
205 226 254
202 223 250
204 225 252
203 223 251
205 225 253
206 226 254
205 225 253
205 226 253
203 223 250
203 224 251
203 224 251
204 224 252
202 222 249
203 224 250
206 226 253
206 226 253
205 225 252
204 224 252
204 224 251
206 226 253
207 227 254
205 225 252
207 227 254
205 225 252
207 227 254
205 225 252
205 225 252
207 227 254
206 226 253
207 227 254
204 224 250
204 224 250
206 226 253
205 225 252
206 226 253
205 225 251
207 226 253
206 226 252
208 228 254
206 226 252
205 224 251
207 226 253
205 225 252
205 225 251
208 228 254
206 225 252
207 227 254
207 226 253
207 227 253
207 227 253
207 226 252
206 226 252
209 228 255
208 227 254
205 224 251
205 225 250
205 224 250
206 226 252
207 226 252
206 225 252
205 224 249
203 222 248
207 227 253
207 226 252
208 227 253
207 226 252
208 227 253
209 228 254
209 228 254
206 226 251
208 228 254
208 227 253
209 228 254
207 226 252
208 227 253
207 226 252
207 226 252
208 227 254
209 228 254
207 226 251
206 226 252
210 229 255
209 228 254
206 225 251
205 225 250
208 227 253
210 229 255
207 226 252
207 226 251
210 229 255
205 223 249
205 224 249
206 226 252
210 229 255
206 226 251
206 225 250
206 225 250
206 225 251
206 224 250
207 226 252
200 216 238
159 168 176
124 139 150
116 128 138
87 85 88
64 51 51
77 76 78
94 96 101
87 83 91
97 100 106
80 95 114
40 71 118
41 73 132
68 76 105
89 88 89
78 96 94
108 113 118
103 108 115
81 84 88
65 66 57
92 94 64
97 100 66
97 102 83
101 107 104
96 104 107
101 100 105
103 82 95
93 76 100
62 59 97
27 43 91
27 44 93
28 46 97
44 58 87
54 73 62
57 80 57
53 74 54
75 89 85
83 97 112
82 98 128
83 100 131
84 101 132
89 102 126
101 109 121
86 97 98
57 85 70
66 59 71
107 62 109
120 60 121
122 62 125
124 63 124
115 59 115
73 44 85
24 32 58
19 34 60
31 38 61
102 107 94
144 150 124
146 156 130
144 155 130
146 153 127
136 141 126
111 115 115
93 96 102
88 89 95
63 58 63
71 68 74
99 103 110
107 112 119
107 113 120
110 117 123
90 104 102
71 80 85
71 61 87
70 63 87
55 71 68
33 79 42
54 74 48
68 68 53
73 65 55
80 78 76
92 98 101
92 102 103
81 90 88
59 67 50
45 56 7
44 54 7
42 53 7
55 61 36
71 63 52
84 61 67
86 61 68
85 61 68
85 60 67
81 51 59
93 46 56
97 71 78
104 103 110
95 102 116
57 69 107
28 48 103
20 44 103
21 45 104
21 44 101
21 42 90
33 61 85
53 95 82
57 104 84
61 110 88
60 109 86
69 111 90
66 111 85
55 118 76
48 122 72
51 128 75
52 127 75
62 128 84
86 122 101
105 112 121
106 105 130
108 107 145
117 114 160
114 111 157
109 104 151
87 81 126
66 52 103
74 25 93
87 19 97
89 19 99
85 32 88
82 50 72
85 73 80
99 98 97
100 90 90
95 69 63
110 79 71
109 78 70
117 96 94
114 112 116
115 119 128
111 107 124
100 87 115
75 66 94
50 56 80
43 53 76
45 56 79
60 68 86
93 99 110
104 107 118
95 92 116
70 53 126
60 33 135
58 31 139
64 43 139
67 48 129
76 58 105
82 65 80
82 64 79
83 75 82
99 106 102
121 142 135
130 158 151
126 155 149
118 140 134
118 133 126
126 132 128
140 143 146
118 123 120
91 97 78
100 68 52
118 27 53
122 21 56
101 48 55
73 67 54
47 77 53
44 80 55
61 88 71
79 97 98
79 99 114
77 98 123
68 85 121
60 71 113
63 56 117
73 65 113
99 100 122
111 116 126
116 121 128
116 121 128
116 121 128
114 120 128
115 121 128
116 121 128
115 121 128
115 121 128
115 121 128
115 120 127
115 120 127
118 115 119
122 108 109
128 107 107
126 109 110
120 115 120
116 118 126
115 120 128
117 122 128
114 120 128
116 121 128
115 121 128
116 121 128
115 121 128
115 121 128
116 121 128
115 121 128
115 121 128
116 121 128
116 121 128
115 121 128
114 121 128
115 121 128
116 121 128
115 121 128
116 121 128
114 121 128
115 121 128
114 120 128
114 120 128
114 120 128
116 122 128
115 121 128
115 121 128
114 120 128
115 121 128
115 121 128
115 121 128
115 121 128
115 121 128
116 122 128
117 122 128
114 120 128
116 121 128
115 121 128
118 123 129
117 122 129
115 121 128
116 122 128
120 125 131
118 123 129
123 127 133
119 124 129
118 123 130
119 124 129
119 125 131
119 124 129
117 123 129
118 123 129
117 123 129
117 122 129
119 124 129
120 125 131
122 127 133
120 125 131
126 130 135
122 127 133
125 129 134
123 128 133
124 128 134
124 129 134
131 134 139
126 130 135
124 128 134
127 131 136
126 130 136
125 130 135
124 128 134
127 131 136
124 129 134
125 129 134
124 128 134
130 134 139
133 136 140
124 129 134
132 135 139
132 136 140
124 129 134
119 124 130
127 131 136
125 129 134
127 131 136
129 132 137
129 133 137
132 135 139
130 134 139
132 135 139
131 134 138
128 131 136
123 128 133
132 136 140
126 130 135
129 133 137
122 126 132
129 132 137
133 136 140
130 134 138
133 136 140
125 129 134
127 131 136
132 135 139
127 130 135
123 128 133
126 130 136
128 131 136
131 134 139
126 130 136
129 133 137
120 125 131
126 130 135
124 129 134
124 129 134
125 130 135
123 127 133
124 129 134
120 125 131
125 129 134
118 123 129
121 126 132
125 129 134
121 126 131
125 130 135
120 125 131
124 128 134
116 122 129
120 125 131
117 123 129
122 127 133
127 130 135
117 122 129
119 125 131
118 123 129
119 124 129
118 124 130
115 121 128
117 123 129
115 121 128
116 122 128
117 122 129
116 122 128
117 122 128
116 122 128
117 122 129
114 121 128
114 121 128
115 121 128
116 122 128
116 122 128
116 121 128
114 120 128
115 121 128
116 121 128
115 121 128
115 121 128
115 121 128
116 121 128
114 121 128
115 121 128
115 121 128
115 121 128
117 122 128
115 121 128
116 121 128
116 122 128
115 121 128
115 121 128
115 121 128
114 120 128
115 121 128
116 121 128
115 121 128
115 121 128
116 121 128
116 121 128
116 121 128
116 121 128
116 121 128
115 121 128
115 121 128
115 121 128
115 121 128
114 120 128
115 121 128
115 121 128
115 121 128
115 121 128
115 121 128
115 121 128
114 120 128
116 121 128
115 121 128
115 121 128
115 121 127
115 121 128
116 121 128
116 122 128
115 121 128
115 121 128
114 121 127
116 121 127
114 121 127
114 121 127
114 120 128
115 121 128
115 121 128
115 121 128
114 120 127
115 121 128
115 121 128
114 120 128
115 121 127
116 121 128
116 122 128
116 122 128
115 120 127
108 111 120
104 99 109
103 83 89
104 72 74
106 88 90
108 102 106
103 114 119
81 108 112
50 101 104
41 98 101
39 92 97
54 85 89
54 68 71
52 40 43
53 41 44
74 70 73
104 108 114
107 118 117
86 115 92
53 102 51
47 99 43
67 103 70
85 105 94
82 104 105
55 99 106
53 108 121
61 112 129
71 111 128
111 122 140
134 120 147
156 124 166
155 122 169
155 122 170
151 121 160
132 119 138
122 120 132
112 118 125
110 115 122
109 114 116
110 112 92
111 111 66
115 113 47
105 102 48
75 71 88
61 55 102
49 41 107
56 50 110
52 51 89
54 57 75
63 73 65
98 107 102
111 108 116
139 127 152
140 122 167
140 123 169
141 123 167
135 124 153
149 145 156
138 143 145
137 140 144
110 117 123
103 111 119
86 90 115
57 56 109
32 22 104
27 13 101
35 25 97
66 56 89
89 79 69
97 86 85
106 90 123
111 92 143
104 91 128
95 95 100
97 103 100
98 104 108
97 102 110
86 93 100
57 71 80
27 49 87
34 33 126
41 19 149
43 17 154
62 64 125
77 84 103
90 93 103
88 91 101
92 96 104
77 92 82
60 100 52
48 99 28
40 86 30
31 55 50
53 59 74
89 96 105
108 115 122
109 118 123
86 117 106
47 115 79
20 104 58
33 89 42
39 73 25
42 73 24
53 70 25
63 65 26
63 59 28
73 71 52
77 79 81
112 120 136
137 148 167
118 125 143
93 90 103
68 64 70
60 75 54
58 98 48
75 106 80
91 97 98
89 80 91
71 86 74
64 96 67
74 92 79
76 77 81
104 117 134
119 135 158
122 138 163
122 138 161
125 136 158
117 123 145
123 130 154
114 109 130
117 114 135
116 106 126
112 81 101
104 66 86
111 54 75
111 42 66
105 27 54
108 17 50
111 18 52
114 18 53
112 18 51
109 18 51
115 18 53
109 17 50
114 18 52
115 18 53
110 17 50
109 17 50
111 18 52
122 19 56
117 19 54
114 18 53
115 18 52
115 18 53
119 19 54
117 19 54
116 18 54
113 18 53
115 18 53
126 19 56
118 18 54
116 18 53
117 18 53
116 18 52
118 19 55
116 18 54
118 19 54
118 19 54
120 19 56
108 17 51
116 18 54
113 17 52
111 18 52
114 18 53
117 18 54
112 17 50
115 18 54
120 19 56
118 18 54
102 16 47
117 18 54
108 17 50
113 23 54
111 32 60
116 57 81
115 49 73
119 93 114
122 98 120
126 115 136
117 115 132
109 106 117
110 119 131
99 123 128
90 119 121
74 111 100
53 94 74
41 98 60
17 90 37
17 88 36
17 91 37
17 90 37
17 88 36
17 91 37
18 92 38
17 90 36
17 88 36
18 93 38
17 87 35
17 91 37
18 92 38
18 92 37
18 92 37
18 93 38
17 88 36
18 92 38
18 93 38
17 90 37
17 89 37
18 93 38
17 92 38
17 91 37
18 91 37
18 92 37
18 92 38
18 95 39
17 90 37
17 91 37
18 94 39
18 94 39
17 92 38
19 97 40
17 90 37
18 94 38
18 92 38
18 92 38
18 93 38
18 94 38
18 95 39
17 90 37
18 93 38
17 88 36
18 95 39
18 94 38
17 90 36
17 90 36
17 88 36
17 90 37
17 92 37
18 94 38
18 93 38
18 94 38
17 91 36
17 89 36
22 93 43
36 97 55
54 103 76
54 99 70
55 94 68
77 95 90
81 87 82
90 86 91
94 80 92
89 71 85
88 45 61
82 21 40
81 11 36
81 11 35
83 11 37
83 12 37
81 11 35
84 12 37
90 12 40
78 11 35
82 11 36
83 12 37
81 11 36
77 11 34
85 12 37
87 12 38
81 11 36
81 11 36
79 11 35
88 12 39
85 12 38
82 11 37
82 11 37
81 11 36
86 12 38
83 12 37
85 12 38
84 12 38
83 12 37
83 11 37
83 12 37
85 12 38
84 12 37
88 12 39
85 12 38
80 11 36
82 12 37
87 12 39
85 12 37
86 12 39
87 12 39
90 12 39
90 12 40
84 12 37
83 12 37
87 12 39
82 12 37
90 12 40
84 12 37
88 12 39
84 12 37
88 12 39
89 12 40
87 12 39
85 12 38
85 12 38
83 12 37
88 12 39
85 15 38
87 24 38
84 35 37
91 46 40
88 60 45
85 57 36
90 68 38
85 69 36
86 71 35
93 81 38
85 75 35
83 73 34
89 78 36
88 79 36
86 78 36
86 77 35
88 79 36
89 80 37
82 73 34
86 78 36
80 71 33
86 76 35
83 75 34
83 74 34
84 75 34
78 69 32
77 71 32
78 70 32
82 74 34
76 69 32
73 65 30
74 68 30
79 72 33
79 72 33
71 66 30
74 68 31
77 71 43
84 81 62
86 87 78
83 85 78
86 87 81
99 104 104
104 110 109
114 123 131
113 123 136
113 124 138
121 135 152
122 136 156
122 139 160
123 139 160
121 139 159
112 129 147
99 116 130
106 122 139
96 113 125
85 102 110
76 93 98
73 91 94
63 83 80
60 79 77
61 80 77
59 78 75
66 85 83
58 83 74
64 91 80
59 95 73
60 105 74
57 119 69
56 128 68
55 130 64
54 134 62
47 142 50
48 148 51
46 148 47
47 152 48
47 152 48
48 157 49
47 153 48
48 156 49
47 154 48
47 154 49
47 151 48
47 154 49
49 160 51
47 153 48
47 153 48
