P3
1600 1
255
150 170 160
162 185 174
169 193 182
182 209 196
184 210 197
186 213 200
189 217 203
189 217 203
190 217 203
190 218 203
190 218 203
191 218 203
191 218 203
191 218 203
191 218 203
191 217 202
188 214 200
189 214 199
185 210 195
191 216 201
187 208 192
183 200 183
174 178 161
173 178 162
159 148 131
150 129 112
142 113 96
131 79 57
127 69 45
126 66 40
121 62 37
127 66 40
121 63 38
121 61 38
125 63 42
123 64 44
121 61 45
133 69 50
134 68 51
136 70 52
127 65 49
133 68 53
133 68 52
133 69 52
140 72 55
130 67 52
130 67 51
126 65 50
136 70 54
132 68 53
136 70 55
133 68 53
133 68 53
126 65 51
128 65 51
131 67 52
132 68 53
126 65 50
129 66 52
132 68 53
126 65 51
132 68 53
134 69 54
131 68 53
129 66 52
131 68 53
131 68 53
132 68 53
129 67 53
127 66 52
133 69 54
132 68 53
133 69 54
132 68 53
126 65 51
131 68 53
126 66 51
129 67 53
129 67 52
135 70 55
129 67 52
127 67 52
130 68 53
135 69 54
129 67 52
124 65 51
131 68 53
130 68 53
126 66 51
126 66 52
130 67 53
120 63 49
124 65 51
128 67 52
125 65 51
126 66 52
124 65 51
119 63 49
129 67 52
119 63 49
115 67 56
113 65 53
97 68 61
99 80 78
88 82 85
88 92 98
90 102 111
91 109 121
91 110 124
98 116 130
112 130 147
108 124 141
105 120 136
104 118 132
103 117 133
114 131 148
120 137 155
108 124 140
102 117 132
108 123 138
107 122 140
110 125 142
116 132 151
119 136 155
113 129 147
116 132 149
116 132 150
116 132 152
121 138 158
117 133 152
111 128 144
117 134 152
118 135 154
120 138 157
117 134 153
116 133 150
114 132 149
123 139 160
123 140 159
121 139 159
122 140 160
121 139 159
121 138 158
116 131 149
123 140 160
121 138 158
129 147 169
124 140 160
121 138 158
124 141 160
124 142 161
123 141 162
120 137 157
122 140 161
123 141 163
128 146 168
126 144 165
122 140 162
125 143 163
126 145 167
127 145 166
126 144 166
123 144 164
122 151 170
109 148 161
105 145 159
95 147 155
87 152 158
74 151 154
64 152 151
48 149 146
44 152 148
44 153 148
45 158 153
45 155 150
44 154 150
50 159 156
43 152 148
45 152 148
60 161 157
60 159 157
56 159 156
80 167 167
63 160 156
69 160 159
84 166 166
76 159 159
74 160 159
86 167 169
76 157 159
73 159 159
72 157 158
76 164 163
66 157 156
69 159 158
67 158 157
50 158 154
60 151 150
50 157 153
46 154 150
45 157 154
44 155 151
43 151 148
43 150 147
44 155 151
43 150 147
45 156 151
45 158 154
44 153 149
45 158 154
44 154 150
43 152 148
43 150 147
44 154 150
43 152 149
42 145 141
43 151 147
42 147 144
44 155 151
45 155 151
43 151 148
45 157 154
43 149 146
42 145 142
40 137 135
43 147 145
42 144 141
46 140 139
55 137 138
76 142 148
86 146 154
97 144 155
107 145 160
117 150 169
128 148 170
127 147 169
132 151 174
132 151 175
130 148 171
132 151 174
131 149 173
130 148 172
124 141 164
133 151 175
132 151 174
130 150 173
129 147 171
129 147 171
130 151 173
130 149 172
131 151 174
131 149 172
131 150 174
131 150 174
126 145 168
126 145 168
128 146 169
126 144 167
129 149 173
127 146 168
127 145 168
129 146 170
127 146 167
130 149 172
131 149 173
126 144 167
127 145 168
128 145 169
120 136 159
120 130 153
117 117 143
112 107 133
112 88 120
98 68 100
100 42 88
89 23 75
87 17 72
89 17 73
95 18 78
94 18 76
99 19 79
98 18 78
96 18 77
96 18 77
95 18 77
96 18 77
100 19 80
100 19 79
96 18 76
97 18 78
96 18 76
95 18 75
101 19 80
98 18 78
101 19 80
99 18 78
97 18 78
98 18 79
95 18 75
99 18 77
98 18 79
96 18 77
98 18 78
100 19 80
99 19 80
96 18 77
100 18 79
94 18 75
99 18 79
97 18 78
100 18 79
96 18 78
96 18 77
98 18 77
100 18 78
91 17 73
99 18 78
100 19 79
94 18 75
97 18 78
98 18 79
97 18 78
94 18 76
98 18 77
97 18 78
97 18 77
96 18 77
101 19 80
98 18 79
95 18 76
98 18 78
95 18 75
98 18 78
95 26 75
94 36 72
91 47 66
92 50 67
91 61 62
86 74 51
90 79 53
91 89 47
83 87 39
84 90 37
85 91 37
88 95 39
85 90 37
85 94 38
85 92 38
88 95 39
88 96 39
85 93 38
91 100 41
91 98 40
91 101 42
87 94 39
92 101 42
88 94 39
89 97 40
88 96 40
95 104 54
100 110 75
108 120 91
115 127 110
124 138 130
126 140 137
128 143 150
131 146 154
144 161 177
145 162 179
147 166 184
145 162 184
149 167 190
141 160 185
141 159 183
141 160 184
141 160 185
141 160 186
138 156 180
138 157 181
141 160 186
138 156 182
137 157 182
135 154 179
134 152 175
136 154 178
136 153 176
139 158 183
135 155 180
136 155 181
137 155 179
137 155 180
134 153 175
139 158 184
138 156 181
134 152 176
141 160 185
140 158 182
139 155 178
142 160 185
145 162 186
149 167 191
143 160 182
146 164 188
143 159 183
136 152 174
140 157 179
138 154 176
129 144 165
130 145 164
129 142 162
122 139 162
126 141 163
128 147 170
123 139 162
123 138 160
123 140 162
126 142 164
116 132 152
122 136 158
126 142 164
124 141 162
123 140 162
124 140 162
120 137 159
121 138 160
120 134 156
123 141 163
120 137 157
121 138 159
123 139 161
120 137 159
125 142 165
119 134 154
122 139 161
122 137 158
122 137 157
112 129 148
124 140 161
121 139 161
117 132 152
115 132 152
120 135 155
122 137 158
118 133 153
123 140 162
124 141 162
116 132 152
121 137 158
119 135 156
121 137 158
116 132 152
122 138 157
120 138 160
117 132 154
117 133 152
115 131 151
120 136 157
118 134 152
123 140 162
121 137 158
117 133 153
119 134 153
117 133 154
114 131 150
116 132 150
120 136 157
119 135 157
117 131 151
118 135 152
115 136 146
111 133 141
107 135 124
103 132 119
103 139 107
101 140 98
87 134 59
83 134 29
86 140 32
80 132 19
80 132 6
81 134 6
85 143 6
80 134 6
82 138 6
77 130 6
78 133 6
75 127 6
82 139 6
82 137 6
85 142 6
79 132 6
81 136 6
79 133 6
81 137 6
79 133 6
75 127 5
80 136 6
83 139 6
83 140 6
77 129 6
82 137 6
84 140 6
84 140 6
78 132 6
75 125 5
77 131 6
77 131 6
82 140 6
76 130 6
80 135 6
77 131 6
73 124 5
74 126 5
76 130 6
73 125 5
74 127 6
78 131 6
76 129 6
74 126 5
74 127 6
74 127 5
71 122 5
70 122 5
72 121 5
67 115 5
65 113 19
64 109 30
72 119 69
96 137 113
100 135 128
134 169 188
129 164 180
136 173 190
151 185 216
154 190 225
165 201 244
164 200 245
162 200 245
161 198 245
159 198 245
158 197 245
156 196 245
156 196 245
155 195 245
154 195 245
153 194 245
152 194 245
152 193 245
151 193 245
150 192 245
149 192 245
149 192 245
149 192 245
148 191 245
148 191 245
148 191 245
147 191 245
147 191 245
147 191 245
147 191 245
147 191 245
147 191 245
147 191 245
147 191 245
147 191 245
146 189 242
146 189 241
149 189 240
151 192 243
154 193 243
154 194 244
156 195 243
153 192 241
157 193 239
158 196 244
155 193 241
156 195 244
157 195 243
156 195 243
158 197 245
159 197 245
159 197 245
160 198 245
161 199 245
157 192 235
155 188 229
148 180 217
141 169 201
144 174 205
129 155 179
118 143 158
111 141 151
104 132 136
98 126 124
94 125 123
97 127 126
98 129 126
95 126 123
97 127 126
94 124 122
94 125 125
93 122 121
96 126 124
91 121 119
93 125 123
90 119 117
90 120 118
95 126 124
94 123 121
96 127 124
96 126 125
94 124 123
97 129 132
98 134 139
100 138 147
105 144 159
105 147 165
108 153 175
112 159 184
113 161 187
115 165 191
113 162 188
111 158 184
117 166 192
116 166 192
116 164 188
118 168 195
116 165 193
119 168 195
120 168 193
117 166 191
115 162 187
123 174 200
121 170 194
118 166 190
122 172 198
122 171 197
117 164 189
117 164 188
122 170 195
123 171 195
118 162 186
126 166 191
134 169 194
134 168 194
145 173 200
161 188 215
164 187 214
168 189 217
171 192 219
183 205 233
180 201 229
184 206 234
186 208 238
192 214 244
195 217 246
192 214 243
194 216 246
195 217 247
194 216 245
198 220 249
198 220 250
195 217 246
198 219 248
195 216 245
198 220 249
197 218 246
197 218 247
198 219 248
197 219 248
198 219 248
198 219 248
199 220 249
199 220 249
201 223 252
201 222 251
199 220 249
202 224 252
199 221 249
201 223 251
203 224 252
200 221 249
201 222 250
202 223 251
202 223 251
204 225 254
202 223 251
202 223 252
204 225 253
203 224 252
204 225 253
200 221 249
205 226 254
205 226 254
203 224 252
201 222 250
204 225 253
204 225 253
205 226 254
204 225 253
202 223 250
206 226 254
205 225 253
203 223 251
203 224 252
205 226 254
204 224 252
204 225 252
204 224 252
205 226 254
205 225 253
203 223 250
203 223 250
206 226 254
202 222 249
205 225 252
205 226 253
204 224 252
208 228 255
204 224 251
204 224 252
205 225 252
205 225 252
205 226 253
205 225 252
205 225 252
206 226 254
206 226 253
206 226 254
206 226 254
206 226 253
206 226 253
205 225 252
206 226 253
204 224 251
201 221 248
205 225 252
208 228 255
205 224 251
207 227 254
207 227 254
204 224 250
206 226 253
207 227 254
206 226 253
206 225 252
206 225 252
205 224 251
207 227 254
206 225 252
206 226 253
207 227 254
206 226 252
204 223 250
204 224 251
206 226 252
205 225 252
207 227 254
204 224 250
207 227 254
206 226 252
207 227 254
206 226 253
204 223 250
206 225 252
205 225 251
205 225 252
208 228 255
205 225 251
206 226 253
207 227 254
206 226 252
206 226 252
206 226 252
197 214 237
144 152 158
95 108 118
93 101 111
70 63 67
57 43 41
85 101 104
112 149 158
112 143 151
105 119 127
85 95 116
38 65 114
34 64 117
65 84 123
112 123 140
112 120 127
111 117 124
114 120 126
107 113 115
91 95 79
84 88 58
79 81 54
81 83 55
95 97 83
105 111 114
112 118 125
106 112 118
85 95 91
46 64 28
39 59 1
39 60 1
60 73 55
91 99 99
109 115 122
110 116 122
107 113 120
100 108 119
75 85 104
67 78 103
68 80 106
67 79 104
68 77 98
88 96 113
105 108 119
88 76 98
74 40 81
74 32 81
73 32 80
71 31 79
75 33 82
85 36 79
96 40 73
105 44 71
101 44 69
105 45 73
107 46 74
109 54 76
107 77 80
97 92 77
100 102 82
105 108 98
110 115 118
110 116 122
108 113 121
112 118 124
96 113 113
59 118 95
38 122 88
36 125 90
36 126 89
36 127 91
45 116 91
65 94 98
78 52 100
88 12 108
89 42 107
99 81 114
99 104 113
107 114 121
107 113 119
109 115 121
105 112 118
109 116 123
107 113 119
107 112 118
105 111 117
106 110 117
99 102 108
95 97 102
89 91 96
86 88 93
79 81 86
85 87 92
87 89 95
90 92 98
88 93 100
93 98 105
84 90 98
82 87 95
75 80 87
69 73 82
68 73 81
86 93 100
86 93 99
92 99 105
91 107 113
81 108 114
83 115 120
83 106 112
72 110 117
55 87 101
55 59 87
62 32 78
64 14 76
64 14 77
65 19 78
61 30 79
54 57 90
42 72 96
42 81 98
78 98 111
100 110 117
108 113 121
102 108 116
100 105 113
102 107 114
102 106 113
117 123 128
129 135 140
140 145 150
143 147 153
145 151 157
146 151 156
151 155 161
145 150 152
129 134 137
113 122 124
112 118 124
110 116 123
111 117 124
109 116 122
87 117 97
59 111 68
43 115 50
43 115 51
42 114 50
42 113 50
43 117 51
41 112 49
64 112 68
84 98 87
98 88 98
88 81 91
66 86 101
43 87 104
54 74 98
55 80 106
55 76 101
56 77 103
44 84 105
46 92 112
77 99 113
98 111 120
109 115 122
109 115 123
108 115 122
118 120 127
132 130 141
141 138 152
140 137 152
132 131 148
131 129 145
129 127 142
115 114 128
99 101 113
105 109 117
109 114 121
110 115 122
110 115 123
123 126 134
142 139 155
160 158 167
170 171 174
165 165 170
152 155 159
149 153 157
144 146 152
135 138 144
111 115 123
109 113 123
101 98 103
103 96 75
111 102 41
113 104 32
117 106 32
111 102 31
113 103 31
116 105 33
118 96 39
115 83 42
119 60 50
121 48 55
124 49 56
120 47 54
120 48 54
115 58 64
114 92 98
114 114 120
109 114 121
113 119 126
112 117 123
110 115 122
110 114 121
106 109 115
92 92 98
77 74 74
76 76 71
75 78 68
70 73 58
74 78 62
71 81 66
74 103 79
76 114 90
72 120 92
75 123 96
75 124 96
66 122 85
54 128 70
44 122 56
63 124 72
86 123 96
110 120 123
115 121 128
115 120 126
112 118 125
114 120 127
114 120 128
111 117 125
103 104 117
88 84 108
90 82 111
88 79 109
84 76 105
90 82 112
94 84 116
93 85 115
100 97 115
112 115 125
108 114 120
99 102 105
80 82 81
69 68 74
68 67 90
68 68 109
70 70 112
73 74 126
82 85 130
92 95 131
98 103 134
110 115 128
115 121 128
114 120 126
115 120 127
115 121 128
115 121 128
113 119 126
115 121 127
114 120 127
115 121 128
116 121 128
115 121 128
115 121 128
115 121 128
115 121 128
113 120 128
115 121 128
116 121 128
115 121 128
108 117 117
97 111 97
76 100 62
65 97 31
64 95 28
64 97 28
59 90 26
63 96 28
65 93 42
94 109 93
106 116 114
116 121 128
109 116 129
103 112 132
84 101 141
71 93 144
65 89 145
58 87 147
61 88 146
73 94 142
86 102 138
104 113 131
113 119 128
115 121 128
115 121 128
114 120 127
114 120 127
115 121 128
115 121 128
115 121 128
115 121 128
115 121 128
116 122 128
115 121 127
115 121 127
115 121 128
114 120 126
115 120 127
115 121 128
115 121 128
115 121 128
115 121 128
115 121 128
115 121 128
114 120 127
116 121 128
115 121 128
107 118 119
97 115 111
67 114 90
42 112 74
19 110 65
22 115 68
24 112 67
34 111 70
77 115 97
98 118 113
111 119 124
115 121 128
115 121 127
115 121 128
115 121 128
114 120 127
115 121 127
114 121 128
113 121 125
95 121 108
77 106 94
49 114 71
23 107 59
22 102 58
22 107 57
21 73 60
20 47 64
59 65 85
91 97 108
113 119 125
115 121 128
115 121 128
114 121 128
115 121 128
113 117 123
99 99 101
82 70 57
72 50 10
74 51 10
75 52 10
72 50 10
75 52 10
77 56 27
92 87 83
109 112 116
115 121 128
115 121 128
115 121 128
114 120 128
115 121 128
115 120 127
114 121 127
115 121 128
116 121 128
115 120 127
116 121 128
115 121 127
115 121 127
108 118 119
94 118 113
71 115 115
58 125 131
65 135 154
67 139 161
65 135 157
64 134 156
71 129 146
90 124 137
104 124 134
113 120 126
114 120 127
115 121 127
113 119 124
115 121 128
113 120 125
104 112 113
82 101 93
59 86 71
38 75 66
28 62 76
30 58 85
30 58 86
28 55 84
29 57 86
29 56 83
34 53 88
62 66 103
91 95 119
111 115 126
112 117 124
112 117 123
111 116 123
93 96 109
79 84 102
40 49 78
17 34 56
17 34 55
18 36 57
17 33 54
31 43 62
69 76 88
96 101 110
93 97 108
83 84 102
79 77 98
84 81 95
94 90 100
93 89 100
90 86 101
75 72 94
65 66 92
53 52 74
51 48 65
36 30 48
39 32 51
42 38 56
41 39 64
37 41 92
32 41 100
33 44 108
34 45 110
34 45 112
34 45 113
43 52 112
72 74 108
83 82 97
87 83 88
110 110 109
126 129 122
134 140 131
126 129 123
109 108 108
106 104 110
106 110 117
107 112 120
108 114 122
99 103 115
85 84 111
67 54 109
61 36 110
60 34 111
57 33 108
60 36 112
70 58 110
92 90 115
92 94 107
91 91 104
91 90 101
88 88 100
98 100 111
104 107 117
107 112 120
104 109 118
108 113 121
105 111 119
106 112 119
94 98 110
73 76 93
45 49 80
45 78 82
44 91 82
43 96 82
43 95 81
40 90 77
42 93 80
53 88 89
73 79 108
98 92 125
106 112 122
107 113 120
108 114 121
91 95 116
74 73 122
42 27 127
33 3 121
33 20 116
32 56 97
33 84 73
33 87 68
33 85 66
32 84 67
33 85 65
32 79 49
33 75 16
38 80 19
58 81 60
89 98 98
100 106 113
107 113 120
106 113 119
108 114 120
106 113 119
101 109 125
78 94 130
55 78 132
55 78 134
60 74 109
77 84 98
86 91 92
97 102 106
108 114 120
120 126 137
140 144 157
131 134 148
102 103 114
80 85 89
64 80 66
48 83 41
69 95 71
93 97 100
87 82 91
85 88 88
77 93 84
90 101 97
93 102 99
117 132 146
128 147 169
131 147 172
129 147 172
130 148 173
129 146 172
130 146 170
129 147 171
130 149 174
129 143 167
128 140 163
122 134 155
123 131 155
120 123 144
122 120 142
117 116 137
112 94 112
117 102 122
105 83 103
105 74 94
100 55 73
101 46 66
105 31 57
94 21 46
100 15 44
103 16 45
91 14 40
103 16 47
98 16 45
101 16 46
103 16 47
99 15 46
98 15 45
99 16 46
98 15 44
104 16 47
101 15 45
106 16 48
99 15 45
107 16 48
105 16 48
104 16 48
105 16 47
98 15 45
103 16 47
108 17 49
103 16 47
103 16 47
97 15 45
107 16 48
106 16 48
101 15 46
100 15 46
100 22 48
105 31 56
106 52 74
107 58 78
101 56 75
110 85 104
111 83 102
117 104 125
119 111 132
120 118 139
122 121 144
124 131 154
131 141 165
125 139 161
122 141 161
114 134 150
106 128 139
88 117 118
73 106 100
60 99 82
47 95 68
26 85 42
16 85 35
17 87 35
16 85 35
16 85 35
17 86 35
16 81 33
16 81 33
16 85 35
16 85 35
17 88 36
17 88 36
16 82 34
16 81 33
17 87 35
17 90 37
19 85 35
22 91 37
23 86 35
26 88 36
27 90 37
35 94 40
29 88 37
29 91 38
37 95 40
42 97 41
28 92 38
30 90 38
25 88 37
34 92 39
37 94 40
30 94 39
30 90 38
24 91 38
21 92 38
21 89 36
17 87 36
17 87 35
17 90 37
17 87 36
17 87 36
17 88 36
17 91 37
17 89 36
17 90 36
17 89 36
17 90 36
17 86 35
16 87 35
17 89 36
16 86 35
16 86 34
17 88 35
17 90 36
16 85 34
17 88 35
16 85 34
17 89 36
17 90 36
17 89 35
16 87 35
24 92 41
57 101 77
64 99 81
77 106 97
80 96 91
89 98 103
91 100 106
99 93 107
92 75 91
95 70 87
77 43 56
77 29 45
75 10 33
71 10 31
78 10 34
73 10 32
73 10 33
76 10 34
78 11 34
75 10 34
73 10 32
75 10 33
71 10 31
74 10 33
78 11 34
71 10 31
75 10 33
79 11 35
69 10 31
73 10 33
75 10 33
80 11 36
79 11 35
78 11 34
79 11 35
76 11 34
76 11 34
73 10 33
82 11 36
75 10 33
76 11 34
78 11 35
78 11 35
75 11 34
79 11 35
77 11 34
80 11 35
80 11 36
80 11 36
80 11 35
75 11 33
80 11 36
78 11 35
77 11 34
87 12 38
77 11 34
80 11 35
77 11 34
80 11 35
79 11 36
79 11 35
77 11 34
80 24 43
77 28 43
86 54 68
86 56 70
86 71 82
98 92 104
96 86 95
96 94 102
102 105 119
94 100 108
93 99 103
94 99 102
87 91 96
95 101 106
82 84 80
87 87 83
88 87 83
72 71 67
74 73 64
76 76 69
76 75 66
76 76 68
71 74 75
68 65 53
79 79 74
72 72 67
74 76 72
83 86 87
75 76 73
77 80 80
78 81 82
79 79 78
85 91 96
84 89 93
91 98 107
85 90 96
95 103 111
100 107 119
103 112 125
104 113 125
104 116 132
107 119 133
109 119 135
110 123 140
109 120 136
115 129 147
109 123 142
113 127 144
114 128 147
120 134 155
116 130 150
111 123 142
117 131 151
116 131 150
116 131 152
109 123 142
110 122 140
111 126 145
108 124 142
103 119 136
93 106 119
90 112 118
85 113 110
89 115 117
77 123 98
58 109 69
61 122 75
46 138 50
45 140 48
46 147 47
45 146 45
45 145 45
46 147 46
45 146 46
45 146 46
45 145 46
45 145 45
44 143 45
45 145 45
45 147 46
45 146 46
45 144 45
46 147 46
44 143 45
46 149 47
47 152 48
47 153 48
44 143 45
47 151 47
