P3
1600 1
255
117 125 116
120 128 119
132 144 133
154 171 159
151 168 156
172 193 179
182 204 189
190 214 198
193 218 201
193 217 200
195 220 202
193 217 200
194 218 201
191 215 197
190 215 198
191 214 197
189 211 194
180 202 186
188 211 192
182 206 190
182 199 182
166 181 164
169 179 161
161 159 142
150 133 116
144 124 107
139 100 80
123 75 55
123 65 40
120 63 38
120 62 37
117 60 37
114 58 35
113 57 36
116 58 39
119 60 41
122 62 43
114 57 40
119 61 44
128 65 48
128 66 50
128 66 49
133 69 53
128 66 51
126 65 49
130 67 52
134 69 53
133 68 53
127 66 51
123 63 49
130 67 52
126 64 50
127 64 50
131 67 53
125 65 51
123 64 50
127 66 51
130 67 52
131 68 53
131 67 53
137 70 54
127 65 50
126 65 51
134 69 54
130 67 53
131 67 53
128 67 52
129 67 52
124 64 50
126 65 51
133 68 53
123 64 50
128 66 52
129 66 52
130 66 52
126 66 51
129 67 52
130 67 52
129 66 51
127 66 52
127 66 51
131 68 53
128 66 52
125 64 50
123 64 50
124 64 51
121 64 50
126 65 51
127 67 52
117 62 49
121 63 49
126 67 52
124 64 50
121 63 49
125 65 51
123 64 50
123 63 49
128 66 52
117 61 47
117 62 48
118 64 51
115 75 70
107 77 75
106 91 95
100 96 103
113 118 132
108 123 140
109 122 138
114 131 149
118 136 156
122 140 160
126 144 165
120 138 157
125 143 166
128 146 168
127 146 167
122 139 159
125 143 164
127 143 165
128 146 170
123 141 162
125 143 164
121 138 156
122 140 160
124 142 163
129 148 170
127 146 168
128 146 168
126 144 165
125 142 161
125 142 162
128 146 167
128 146 168
122 140 161
124 143 162
127 145 167
130 148 170
128 145 167
129 147 168
127 146 168
130 149 172
125 142 162
128 147 169
127 145 166
130 148 172
128 146 169
127 144 166
129 147 171
128 146 169
131 148 173
127 145 166
129 147 169
130 148 171
130 148 171
131 149 171
129 148 171
133 151 175
127 144 164
128 146 169
128 146 169
129 146 168
129 151 172
120 146 165
116 149 165
104 154 165
90 149 157
82 152 157
66 153 154
61 149 148
50 150 147
52 156 152
62 157 155
78 156 158
81 155 158
93 158 163
78 154 157
103 168 173
113 170 180
114 167 178
114 164 174
105 161 170
122 164 177
122 168 182
116 165 177
118 162 175
132 170 186
128 169 184
127 168 183
129 169 185
132 171 187
127 164 181
124 168 182
133 167 184
128 172 187
118 162 176
128 169 184
115 161 174
115 169 179
111 168 177
106 166 174
93 160 165
89 155 160
97 168 171
79 152 154
61 153 152
50 154 151
51 149 148
42 147 143
44 154 150
42 148 144
44 153 150
43 151 147
42 149 146
43 151 148
44 152 149
43 152 148
41 144 142
42 148 145
42 147 144
43 151 148
41 143 141
42 149 146
41 144 142
42 145 141
44 152 148
40 139 136
42 144 141
41 141 139
41 134 132
53 133 133
70 139 143
75 134 140
100 146 158
109 143 160
116 147 165
124 149 169
126 148 169
131 151 174
133 152 177
130 148 171
131 150 173
130 148 172
127 146 170
128 147 169
129 148 171
129 148 171
130 148 173
129 149 171
128 147 170
125 146 167
131 150 173
125 145 165
128 147 169
127 145 169
130 149 173
129 147 171
126 144 168
127 147 169
130 149 173
129 146 170
126 147 168
129 147 171
124 142 164
123 144 165
121 142 162
129 148 171
123 142 165
124 141 163
121 132 156
114 119 142
109 106 130
107 96 123
101 70 104
91 52 87
92 25 76
93 18 77
91 17 74
92 17 74
96 18 77
98 18 78
91 17 73
93 18 74
92 17 74
93 17 75
96 18 76
95 18 76
100 19 80
93 17 75
95 18 76
94 18 76
93 17 74
94 18 75
97 18 77
96 18 77
97 18 77
94 18 75
98 18 77
98 18 77
97 18 77
100 19 78
98 18 78
98 18 78
95 18 76
96 18 76
95 18 76
95 18 75
97 18 77
97 18 77
96 18 76
94 17 75
93 18 76
93 17 75
96 18 77
98 18 78
98 18 78
94 17 75
97 18 77
95 18 76
95 18 76
94 17 74
94 18 76
95 18 75
98 18 78
99 18 78
96 18 77
98 18 77
95 18 76
96 18 76
95 18 75
96 18 77
95 18 75
94 17 75
97 18 77
94 18 75
94 18 75
89 35 69
89 35 68
90 63 60
84 59 56
87 64 57
87 76 52
82 82 41
82 85 39
85 91 37
81 86 35
81 85 35
87 93 38
83 86 36
88 96 39
82 90 37
78 84 35
81 88 36
85 93 38
84 93 38
87 94 39
87 95 39
95 105 64
99 108 69
107 118 93
120 133 121
129 142 144
130 145 149
143 159 168
141 158 171
138 155 172
144 161 182
144 162 187
143 162 185
135 153 177
136 155 177
131 150 174
141 159 183
137 156 179
137 155 179
136 155 180
135 153 178
133 151 175
135 153 177
130 147 171
137 155 180
134 153 178
133 152 176
135 155 179
138 158 183
134 154 179
134 152 178
139 159 185
132 150 174
135 154 178
134 152 176
136 154 179
136 155 179
131 150 175
131 149 173
139 159 184
135 154 179
136 155 179
137 155 180
137 156 182
138 156 181
139 157 181
139 156 181
135 153 177
137 155 178
139 156 180
137 153 175
143 160 183
141 156 178
129 145 167
134 151 173
128 142 162
130 146 167
130 144 164
121 137 159
127 142 162
120 137 157
122 139 162
125 142 164
122 139 160
124 142 163
125 142 164
123 138 160
121 137 158
125 143 165
125 143 164
124 141 163
125 142 164
124 139 160
126 143 165
122 138 158
123 140 161
122 138 159
122 138 159
117 131 150
123 140 163
124 143 164
120 138 157
119 135 156
123 140 162
123 140 161
118 133 151
124 141 161
126 143 164
123 140 160
113 129 146
120 137 157
119 134 153
131 148 172
117 133 154
123 141 163
124 141 163
121 136 155
120 135 156
123 138 159
121 137 156
114 130 149
118 135 154
119 137 158
116 131 151
123 138 157
113 130 149
119 134 153
117 132 151
122 139 161
121 138 158
114 128 146
114 128 147
117 134 155
117 133 152
117 135 150
115 134 147
108 130 135
111 138 135
107 134 123
103 132 122
98 130 109
96 138 88
83 125 71
79 129 41
80 127 45
72 122 5
76 128 6
77 131 6
75 128 6
80 134 6
77 130 6
76 129 6
74 126 5
79 131 6
78 130 6
75 125 7
81 135 8
78 128 9
78 133 6
74 123 7
74 123 6
78 132 6
74 125 5
75 127 7
74 126 5
82 139 6
77 131 6
76 130 6
73 124 5
77 131 6
77 130 6
69 121 5
74 125 5
77 130 6
72 122 5
73 125 5
73 126 5
70 120 5
70 120 5
70 122 5
74 125 5
66 114 5
68 116 5
69 116 5
64 112 5
69 120 5
71 123 5
62 108 8
70 121 7
65 110 11
59 101 19
69 109 67
92 131 107
104 140 130
128 160 176
143 178 200
158 191 225
159 194 230
166 201 242
166 202 245
165 201 245
163 200 245
162 199 245
161 198 245
160 198 245
159 197 245
158 197 245
157 196 245
156 196 245
155 195 245
154 195 245
154 195 245
153 194 245
152 194 245
152 194 245
152 193 245
152 193 245
151 193 245
151 193 245
150 192 245
151 193 245
150 192 245
150 192 245
150 192 245
150 192 245
149 192 245
150 192 245
149 190 243
148 189 240
153 193 242
152 190 238
154 193 242
157 196 243
158 195 241
160 195 239
160 195 239
161 196 239
164 199 242
161 196 239
162 197 241
162 197 240
165 201 244
162 198 244
161 198 245
161 197 241
163 199 244
162 199 244
162 199 245
162 199 245
163 200 245
164 201 245
162 197 240
156 189 229
148 180 216
135 165 197
127 157 183
118 149 168
109 139 151
106 136 144
98 128 130
94 122 119
97 128 126
99 129 126
99 129 127
98 129 127
95 126 124
99 131 129
96 127 125
95 125 123
97 127 125
96 126 124
95 125 122
95 125 122
96 126 123
96 126 124
95 125 123
95 127 127
98 132 136
101 139 149
108 150 169
106 149 169
106 151 174
108 153 177
111 158 184
114 163 191
111 159 185
107 154 181
113 161 186
113 162 188
112 159 185
111 160 183
118 167 195
115 163 188
117 165 190
115 163 188
113 160 185
115 161 186
121 170 195
115 162 187
110 156 179
116 162 187
111 157 181
120 167 191
121 170 195
119 167 191
117 165 188
115 161 186
118 164 187
123 167 191
127 163 189
134 170 197
139 171 197
150 177 202
158 183 210
164 187 215
167 188 216
175 197 225
171 192 220
179 200 228
186 208 238
183 205 234
185 207 236
189 211 240
192 214 244
193 215 244
192 214 244
197 219 249
191 213 242
193 215 244
198 220 250
199 221 251
196 217 246
197 219 248
195 217 246
199 220 250
198 220 249
195 217 246
200 222 251
198 219 248
199 220 249
199 220 249
200 222 251
201 222 251
201 223 252
201 222 251
198 220 248
201 222 251
201 222 251
200 222 250
201 223 251
201 222 250
200 221 250
201 222 250
202 223 252
204 225 254
201 222 250
203 224 253
202 223 252
203 224 252
203 224 252
203 224 252
204 225 254
205 226 255
203 224 252
203 224 252
203 224 252
205 226 254
203 224 252
204 225 253
203 224 252
203 224 252
206 227 255
202 223 250
204 224 252
204 224 252
205 226 254
205 226 254
203 223 251
203 224 252
206 226 254
202 222 249
203 224 252
202 223 250
205 225 253
201 221 248
205 226 254
203 224 251
206 227 254
206 226 254
203 223 250
206 226 254
202 222 250
206 227 254
202 222 250
206 227 254
205 225 253
205 225 253
205 226 253
205 225 253
206 227 254
206 226 254
204 224 251
205 225 253
204 224 251
202 223 250
202 222 249
208 228 255
205 225 252
206 226 254
207 227 255
206 226 253
203 223 250
207 227 255
206 226 253
204 225 252
207 227 254
205 225 252
206 227 254
205 225 252
205 225 252
207 227 254
206 226 253
205 225 252
204 224 251
206 226 253
205 225 252
206 226 254
206 226 253
205 225 252
206 226 253
206 226 254
206 226 254
203 223 250
205 225 252
205 225 252
203 223 250
207 227 254
206 226 253
205 225 252
205 224 250
171 182 196
107 117 126
93 105 117
85 84 90
48 25 24
84 99 100
114 146 151
117 152 159
111 134 140
99 107 121
53 73 114
32 60 110
38 61 107
87 97 117
111 117 125
109 114 120
112 118 125
110 116 122
97 101 97
82 84 63
105 101 104
130 124 145
131 126 150
130 123 144
120 118 132
100 105 112
70 81 72
39 57 18
38 57 1
38 57 1
37 57 1
53 67 42
76 84 82
98 105 113
104 110 118
108 114 122
93 100 111
73 83 100
58 67 90
58 69 91
63 72 92
91 98 109
101 101 114
81 70 90
67 29 73
68 29 74
68 30 76
68 29 75
71 31 78
68 30 76
75 32 70
90 38 68
95 40 64
94 40 64
96 42 67
98 45 68
91 53 64
82 69 62
85 86 75
95 100 98
107 111 115
108 113 117
108 113 117
102 113 116
83 109 101
40 115 84
34 118 85
33 115 83
33 114 82
34 117 83
34 117 84
35 116 83
51 100 86
71 69 94
83 55 99
104 105 117
109 114 121
107 113 120
105 111 116
109 114 121
111 116 122
111 116 123
110 116 122
110 115 122
111 117 124
113 118 124
112 118 125
111 117 124
111 115 123
109 115 122
109 115 123
109 115 123
112 118 125
110 116 122
110 116 123
111 118 125
105 111 120
101 105 116
81 83 99
80 80 98
76 77 96
82 84 100
88 89 102
98 100 107
90 94 102
95 100 108
96 101 109
101 107 114
108 114 122
104 109 117
101 104 113
82 76 94
62 38 73
60 13 72
58 13 69
62 13 73
58 24 75
65 43 83
86 82 100
98 103 112
106 113 120
107 114 121
105 112 119
110 116 123
109 116 123
109 114 121
103 110 117
95 103 108
95 103 108
94 99 104
100 105 111
103 107 110
99 102 106
113 115 120
103 109 113
102 112 113
107 113 119
109 116 124
109 114 121
110 118 124
107 115 119
93 110 105
74 106 83
51 97 58
37 99 44
44 101 48
66 97 61
72 102 67
92 102 83
106 104 98
106 99 98
102 88 93
93 69 84
84 47 75
79 29 70
78 24 70
79 24 71
79 24 71
80 24 72
79 36 75
90 70 93
100 96 109
104 110 118
107 112 119
117 119 126
136 132 141
144 138 150
150 144 158
146 142 156
144 140 156
147 143 158
151 145 159
147 140 153
140 133 143
128 123 130
116 116 125
110 116 123
107 113 120
110 114 121
110 115 122
111 117 125
119 126 134
123 129 136
124 131 139
120 127 135
111 116 123
111 113 120
112 105 110
113 98 102
114 78 72
116 68 40
115 60 21
113 75 24
115 82 26
103 81 25
107 93 28
105 96 29
105 97 29
98 86 32
101 72 45
98 51 47
101 44 49
98 46 51
106 60 65
110 89 95
108 105 112
109 114 120
107 113 121
108 113 119
107 112 119
105 108 114
111 115 121
103 107 112
111 116 121
106 109 113
105 108 112
98 101 106
95 100 104
91 101 101
82 107 97
78 110 97
77 108 96
76 107 95
77 109 97
77 109 97
78 111 98
77 109 97
73 106 93
80 110 95
98 115 110
109 117 121
114 119 126
111 117 124
111 116 124
110 116 122
111 117 124
112 118 125
109 114 123
100 104 114
91 91 104
87 84 103
75 69 91
82 78 99
85 84 102
100 101 114
107 111 120
109 114 122
105 108 119
80 73 99
66 51 103
66 52 117
66 49 122
66 55 125
64 52 121
68 60 130
63 61 125
62 64 123
63 65 125
75 78 124
95 99 128
112 118 128
105 112 119
85 95 105
70 84 96
51 71 86
54 71 85
44 66 82
48 69 83
68 82 94
89 98 107
105 112 120
112 119 126
116 121 128
113 120 127
113 119 126
115 121 127
113 120 126
111 118 122
92 104 96
68 90 55
54 81 24
52 79 23
56 84 25
53 81 24
55 83 27
59 83 44
83 97 83
104 113 112
107 115 128
94 106 135
60 81 126
39 69 121
38 70 118
34 68 111
31 66 100
28 62 93
28 64 92
35 68 104
74 92 129
93 104 124
113 119 125
113 119 126
115 121 127
115 121 128
115 121 128
114 120 126
115 121 128
116 121 127
115 121 128
115 121 127
114 120 127
114 119 126
114 120 127
114 120 127
115 121 127
116 121 128
114 120 127
115 120 127
114 120 126
114 120 126
98 107 110
84 96 96
72 87 85
52 74 67
34 66 53
35 65 54
30 66 51
29 71 52
26 81 53
22 88 53
20 101 59
17 103 58
33 103 65
65 108 85
96 115 111
114 121 127
115 120 126
115 121 128
115 120 127
113 119 126
112 122 124
93 128 103
71 138 82
42 151 51
24 155 37
27 159 38
23 152 36
22 157 37
23 158 37
22 149 38
26 130 46
53 105 70
85 99 99
110 116 124
115 121 127
114 120 127
111 117 124
114 120 127
113 118 125
103 104 108
103 92 97
99 83 93
123 99 116
134 112 136
137 116 141
140 118 145
130 111 131
131 116 132
127 122 134
120 122 130
114 120 126
114 120 126
115 121 128
112 119 124
114 120 126
114 120 126
115 121 127
114 119 126
114 120 126
114 120 127
114 120 126
110 118 124
103 120 130
87 120 133
66 124 140
62 130 149
60 126 146
61 127 145
59 123 146
62 128 147
60 124 144
66 115 134
87 111 124
103 115 122
110 117 123
108 116 122
105 113 124
94 102 122
72 85 127
53 71 132
39 62 136
35 60 136
34 59 136
35 61 138
33 57 124
30 55 109
28 54 91
26 50 75
24 47 72
36 56 80
69 80 97
92 100 110
107 114 121
106 112 120
100 105 117
99 104 114
98 103 113
90 94 104
83 87 97
74 79 89
51 56 71
68 74 85
78 83 93
83 88 97
97 102 113
102 106 115
95 95 105
89 86 95
89 85 95
88 84 93
91 86 95
91 86 95
90 85 94
87 82 90
91 90 97
92 94 102
91 95 102
80 83 90
82 84 90
87 90 97
89 93 105
62 67 98
43 50 95
27 37 93
29 39 96
31 41 100
41 49 100
74 80 108
106 112 120
135 146 138
146 159 148
144 160 151
140 159 151
140 159 151
144 161 151
148 162 150
137 146 139
116 122 124
100 104 112
99 102 115
83 81 108
65 51 105
57 33 104
56 32 105
55 31 102
54 31 102
55 32 103
64 46 106
86 85 112
101 104 118
108 114 122
111 117 125
110 115 124
110 116 124
109 115 122
110 117 124
105 110 119
106 111 121
106 112 120
95 107 114
67 106 107
41 107 103
16 111 105
16 111 105
17 110 103
23 104 97
35 96 85
36 82 70
36 79 69
57 83 88
81 90 106
101 104 117
99 104 114
107 112 120
100 106 114
91 97 112
60 58 104
35 21 110
30 4 111
31 40 103
29 67 73
31 79 64
32 81 64
30 78 62
30 77 61
31 78 55
30 72 37
30 69 16
52 82 49
83 100 91
104 111 117
106 112 118
109 115 121
110 116 124
108 114 121
100 109 123
79 92 127
56 76 128
54 75 129
55 77 133
73 84 116
97 104 116
102 107 112
100 106 112
94 101 109
88 92 110
101 83 119
109 63 124
107 72 123
93 92 104
64 84 67
58 87 56
85 100 93
89 92 97
83 80 87
104 108 106
106 113 114
98 105 103
105 119 125
122 137 156
123 136 159
126 143 167
129 144 166
127 145 168
129 145 168
127 143 166
123 136 158
124 138 161
128 144 168
125 140 162
127 143 165
125 141 164
124 137 159
119 128 150
112 111 132
120 120 141
113 107 128
113 109 130
107 97 117
110 93 112
108 78 98
93 67 82
97 64 82
100 53 72
100 49 68
94 33 53
99 44 63
100 35 56
86 13 38
96 21 46
96 21 46
98 15 43
97 14 43
96 14 42
95 14 43
94 14 42
96 15 43
96 14 43
96 14 43
96 15 43
98 15 45
92 14 42
92 14 41
93 14 42
90 13 38
96 14 43
96 26 50
101 21 48
93 33 53
98 40 61
101 45 63
105 54 74
108 60 81
104 77 96
111 85 104
114 91 111
112 103 123
118 114 135
118 118 139
118 118 139
129 136 160
127 135 156
129 142 163
129 144 168
130 144 166
123 142 162
119 138 155
108 130 143
107 130 140
87 116 117
79 111 106
54 96 76
29 82 44
17 87 35
15 81 33
15 82 33
16 82 33
17 87 35
16 84 34
17 86 35
20 85 35
20 84 34
29 85 36
27 87 36
35 89 38
42 91 39
44 93 41
49 97 43
57 99 45
56 98 45
59 102 46
62 104 47
64 105 48
61 102 46
62 104 47
68 108 50
69 107 49
71 109 51
74 110 52
72 109 51
71 108 50
70 106 49
72 110 51
71 109 51
70 108 50
68 106 49
64 103 47
58 101 45
53 97 43
55 98 44
47 95 42
48 97 43
42 92 40
39 93 41
39 91 39
29 90 38
21 89 36
16 86 35
16 84 34
16 83 33
17 88 35
16 84 33
16 86 35
16 85 34
17 90 36
16 84 34
16 87 35
17 87 35
17 89 36
16 88 35
16 83 34
16 86 35
17 88 35
16 87 35
41 92 60
50 96 70
75 107 99
88 115 117
91 113 116
95 107 113
101 110 121
108 115 131
94 90 106
99 91 107
92 76 93
82 45 60
76 40 54
78 10 33
73 10 33
76 10 33
71 10 31
73 10 33
75 10 34
71 10 31
76 10 33
71 10 31
73 10 32
67 9 30
70 10 32
77 11 34
69 10 31
68 10 31
71 10 32
73 10 33
74 10 33
75 10 33
72 10 32
75 10 33
78 11 35
75 10 34
73 10 33
73 10 32
73 10 33
73 10 32
77 11 34
74 10 33
76 10 33
71 10 32
77 11 34
75 10 33
75 10 33
80 11 35
78 11 35
76 11 34
75 10 34
78 11 34
76 10 34
81 11 36
73 10 33
78 11 34
75 11 33
79 11 35
74 10 32
78 11 34
78 20 39
81 37 52
82 41 55
86 60 73
91 79 90
93 77 91
97 96 108
101 101 115
105 109 125
107 115 131
108 120 133
108 119 132
94 102 111
106 116 130
96 106 120
96 106 116
93 101 109
91 100 108
95 103 112
92 101 110
90 98 107
88 93 99
84 87 90
89 95 102
88 96 104
82 88 93
76 81 85
84 90 97
76 81 85
87 95 104
85 92 97
84 90 96
95 103 113
90 97 106
96 105 117
91 100 109
95 106 118
98 108 119
97 107 120
104 115 128
88 96 106
103 114 127
105 117 133
104 115 130
110 123 139
99 109 120
101 112 126
102 112 127
111 123 139
110 122 136
101 111 126
103 114 129
112 124 141
103 116 131
111 124 141
107 120 136
111 125 143
105 117 133
109 123 141
102 114 131
113 128 147
107 122 137
106 120 133
99 123 128
92 123 116
86 120 108
80 127 102
63 137 76
67 140 82
47 145 49
44 143 45
44 142 44
44 144 45
43 136 43
46 147 46
44 142 44
46 149 47
44 143 45
44 141 44
43 141 44
45 145 45
43 139 43
45 146 46
45 146 46
46 149 47
45 145 45
43 139 44
45 146 46
44 143 45
44 142 45
46 148 46
