P3
1600 1
255
65 50 43
70 58 52
83 76 69
100 101 93
117 122 112
131 140 128
147 161 147
147 159 145
166 183 166
181 200 182
178 196 178
187 207 187
186 207 188
186 208 188
187 208 188
184 206 187
174 199 181
172 196 178
151 182 165
164 193 172
161 181 162
147 169 148
141 154 135
145 142 123
139 135 116
132 112 92
133 101 83
118 65 42
117 62 38
115 60 37
119 62 37
106 54 32
120 61 37
116 58 37
112 56 36
108 54 38
119 59 42
119 60 43
120 62 46
122 62 48
122 62 47
125 65 49
128 65 50
130 67 52
129 67 51
120 62 48
132 68 52
128 66 51
127 65 50
130 66 51
121 63 49
124 64 50
124 64 50
125 65 50
128 65 51
136 69 54
126 64 50
123 64 50
125 65 51
129 66 52
124 64 50
129 66 52
127 65 51
127 66 51
125 64 50
118 62 48
133 68 53
125 65 50
127 65 51
122 63 49
130 67 52
123 65 51
122 63 49
129 66 52
131 67 52
127 66 52
130 67 53
125 66 51
124 64 50
123 64 50
122 63 49
121 63 49
129 67 52
121 64 50
121 64 50
124 65 50
121 63 49
124 64 50
127 66 51
119 62 48
116 61 47
127 66 51
117 62 48
124 64 50
117 61 47
118 62 48
120 61 48
118 62 48
123 64 50
121 64 50
113 67 61
111 80 81
115 88 91
120 101 109
114 107 119
119 118 133
115 124 142
123 136 156
124 142 163
132 150 173
130 147 170
131 149 172
128 147 169
133 151 176
131 149 172
131 149 172
129 148 172
127 145 167
128 146 169
133 151 175
130 148 170
131 150 172
129 147 170
129 147 170
132 150 173
134 152 176
132 151 175
125 143 165
129 147 170
130 147 169
132 151 174
132 150 173
131 150 172
131 149 172
131 150 174
130 148 169
129 147 170
131 150 172
131 150 173
133 151 174
134 152 177
127 146 168
134 152 177
132 150 175
134 152 177
130 148 170
134 152 177
131 149 173
132 150 173
134 151 175
131 150 173
132 149 172
134 151 173
132 150 173
130 148 172
130 149 172
133 151 174
132 151 175
129 147 170
130 149 172
132 152 175
119 148 166
119 152 170
106 148 162
90 151 160
88 152 157
94 157 162
89 154 159
95 164 168
109 165 172
117 160 171
119 160 173
119 164 177
126 168 182
129 165 183
144 172 192
143 171 192
149 171 193
147 169 193
144 164 189
145 163 188
145 164 188
145 164 188
149 168 193
143 162 187
140 159 184
144 163 188
144 163 188
140 159 184
146 165 191
144 163 189
141 161 185
141 160 183
142 161 186
152 172 197
144 164 188
153 172 197
144 166 189
142 164 186
140 166 186
132 158 177
133 163 183
133 169 186
125 166 181
123 165 178
114 161 174
107 166 174
103 167 173
94 156 162
84 159 160
73 155 157
53 151 148
50 152 150
42 147 144
43 150 146
44 154 150
43 151 147
43 151 148
42 147 144
41 141 139
40 142 138
44 154 150
39 136 135
40 140 138
42 142 140
41 142 139
39 136 134
40 141 138
40 136 133
39 133 131
46 131 131
68 139 142
75 131 137
97 147 158
107 144 158
116 144 163
118 140 161
128 147 171
128 147 170
130 149 173
130 150 174
130 151 174
131 150 172
130 150 174
127 146 167
127 147 169
128 148 169
131 150 173
127 147 169
129 150 172
125 147 167
126 148 169
121 140 162
129 149 172
129 148 171
130 151 174
127 148 171
128 148 170
129 149 172
125 146 167
124 144 165
128 147 170
123 145 164
125 143 165
125 145 166
125 145 166
124 143 165
115 129 149
116 120 145
105 110 132
104 90 117
93 73 100
89 46 83
91 24 76
93 17 74
91 17 73
90 17 72
94 18 75
89 17 72
92 17 74
95 18 76
97 18 77
95 18 76
94 18 76
92 17 75
89 17 71
94 18 75
94 17 74
94 18 75
96 18 76
94 18 75
92 17 73
96 18 76
93 17 75
95 18 75
94 18 76
94 18 76
94 17 75
94 18 75
96 18 76
97 18 77
94 17 74
96 18 76
95 18 74
96 18 76
99 18 79
95 18 77
93 17 73
96 18 76
92 17 73
96 18 77
93 17 75
94 18 75
96 18 76
91 17 73
100 18 78
95 18 76
94 17 75
95 18 75
97 18 77
91 17 72
95 18 75
95 18 75
94 17 75
98 18 78
93 17 75
95 18 75
95 18 76
95 18 75
88 16 71
95 18 75
94 17 75
88 16 70
92 17 74
95 18 76
94 17 73
85 26 67
87 44 64
85 59 57
86 63 57
82 70 49
84 83 42
85 86 43
81 87 36
84 91 37
84 91 37
82 88 36
76 81 34
76 82 34
83 89 37
85 93 38
86 93 38
84 93 38
88 96 51
94 103 79
102 112 99
111 121 110
122 135 133
130 145 155
140 157 172
135 152 167
144 161 181
140 157 181
148 166 190
134 152 175
141 159 183
137 155 179
136 154 178
134 153 177
136 154 179
130 148 172
137 154 179
135 154 179
133 153 177
135 155 179
137 156 181
131 150 174
134 152 177
132 151 175
135 154 178
136 155 180
135 154 178
134 152 176
132 151 176
127 143 168
135 154 179
135 154 178
134 152 177
135 154 178
135 154 180
134 153 177
132 150 173
134 153 178
134 152 176
132 152 177
131 147 170
135 154 179
129 147 169
134 152 177
132 151 175
133 151 175
137 155 179
137 156 181
139 158 183
138 156 181
137 156 180
135 151 174
138 155 177
131 148 171
131 145 165
131 146 166
131 146 167
129 144 166
124 137 156
125 139 159
128 143 164
118 134 155
126 144 165
127 144 166
125 143 165
125 142 163
125 142 162
125 141 164
125 142 163
120 134 154
127 144 167
124 143 163
122 141 159
122 137 158
123 141 162
128 145 168
121 136 157
120 135 156
124 142 162
124 141 162
126 142 163
119 135 155
122 138 159
126 141 162
126 143 165
125 142 164
123 141 162
125 142 163
127 144 166
120 136 155
124 142 164
118 138 157
121 137 158
118 135 156
123 139 159
121 138 161
123 139 161
125 141 161
124 141 163
117 133 151
124 142 162
121 139 159
120 138 158
116 133 152
117 135 153
119 135 155
119 137 156
118 136 156
113 132 150
116 135 155
118 137 157
120 137 155
118 136 157
116 135 153
117 137 156
118 135 154
114 132 147
113 133 146
107 133 132
104 131 124
100 126 121
103 137 115
97 125 112
87 121 86
84 120 70
76 117 47
76 117 42
72 106 23
65 97 15
70 99 18
69 98 17
73 104 18
72 100 18
73 105 18
67 87 19
74 91 22
71 93 20
74 99 20
71 96 19
70 97 18
70 89 21
70 95 19
75 106 18
76 106 19
73 105 18
69 99 17
70 103 16
72 108 15
71 109 15
72 116 11
70 112 12
73 120 9
66 109 9
70 120 6
71 122 5
73 125 5
74 126 5
67 115 5
64 111 5
64 112 5
67 117 5
64 112 5
68 115 5
62 108 4
64 110 8
61 104 19
72 119 36
64 108 21
65 104 46
69 105 66
79 112 93
102 137 123
104 130 144
126 157 174
138 169 191
158 190 226
160 193 229
170 204 245
168 203 245
167 202 245
166 201 245
164 200 245
164 200 245
162 199 245
161 199 245
160 198 245
160 198 245
159 198 245
158 197 245
158 197 245
157 196 245
157 196 245
156 196 245
156 196 245
155 195 245
155 195 245
155 195 245
154 195 245
154 195 245
154 195 245
154 194 245
154 194 245
153 194 245
153 194 245
153 194 245
153 194 245
153 193 244
155 194 244
156 194 241
157 195 242
159 197 243
161 197 242
163 198 242
165 199 242
164 199 241
166 200 243
163 197 239
165 200 243
166 201 244
165 200 243
165 200 244
162 197 239
165 200 243
163 198 241
164 199 244
164 200 243
162 197 240
164 200 244
163 199 244
164 200 244
166 202 245
165 201 245
155 193 235
153 192 235
146 183 222
128 164 197
118 154 182
111 147 173
101 139 158
96 132 146
93 125 129
93 125 124
95 126 123
94 125 122
95 125 122
95 126 122
97 128 124
93 123 119
94 125 121
95 125 122
91 121 117
95 126 123
95 125 121
95 126 123
93 123 122
92 124 124
98 133 139
104 142 154
104 144 157
106 146 163
106 149 170
105 152 176
105 151 177
108 156 182
109 157 184
113 162 190
108 155 180
110 158 184
113 162 187
113 162 187
111 157 183
113 161 187
113 161 187
109 155 178
117 165 189
115 162 186
111 156 180
120 168 194
117 165 189
114 160 183
115 162 187
111 156 181
111 158 180
114 160 185
115 162 186
119 165 188
112 157 182
115 163 188
116 164 187
117 162 184
119 163 187
119 159 182
133 170 193
131 166 191
147 177 203
157 183 211
156 181 208
173 196 225
171 193 221
178 200 229
180 201 230
187 209 239
185 208 237
190 212 242
186 208 237
191 213 243
187 209 239
191 213 243
188 210 239
190 211 240
194 217 246
194 216 246
198 220 250
195 218 247
198 221 250
197 219 249
200 222 252
199 221 251
197 219 248
201 223 253
199 221 250
200 222 252
200 222 252
197 218 247
200 222 251
199 221 250
196 218 246
199 221 250
203 225 255
197 219 247
200 221 250
202 223 252
202 223 252
201 223 252
201 223 252
202 224 253
202 224 252
200 222 250
201 223 252
201 222 251
202 223 252
201 222 250
202 224 252
201 222 250
204 226 254
202 223 252
201 222 250
204 225 254
200 221 249
204 226 254
201 222 250
203 224 252
204 225 253
203 224 252
204 225 254
204 225 253
205 226 254
202 223 252
204 225 253
204 225 253
205 225 254
202 223 251
202 223 250
206 227 255
203 224 252
205 225 254
205 225 254
204 224 252
202 222 250
206 227 255
204 225 253
204 225 253
206 226 254
204 225 252
205 225 253
202 222 250
205 225 253
205 226 254
204 225 252
203 223 251
201 222 249
204 225 252
205 226 254
204 225 252
203 224 251
206 226 254
205 225 253
205 225 253
205 226 254
202 223 250
205 225 253
203 224 251
203 223 251
206 226 254
205 225 252
205 225 252
205 225 253
205 225 253
205 225 253
205 225 253
205 225 252
207 227 255
206 226 254
203 223 250
202 222 249
202 222 250
205 225 253
204 224 251
203 223 250
202 223 250
203 223 250
204 225 252
204 224 251
207 228 255
206 226 253
206 226 254
206 226 254
207 227 254
205 225 252
206 226 254
190 205 225
128 139 148
92 105 118
92 97 105
61 48 49
54 48 48
109 137 140
119 152 156
112 139 144
105 113 121
82 92 112
32 59 106
29 54 101
72 83 109
109 115 123
111 117 125
111 117 124
112 118 124
109 115 120
89 91 87
112 107 117
127 122 146
127 124 151
128 125 151
127 122 145
111 111 123
78 85 82
36 52 15
37 55 1
36 54 1
36 55 1
37 54 1
47 62 37
87 95 98
103 109 118
100 107 115
92 97 106
78 83 92
60 64 71
49 53 61
68 70 76
85 88 95
86 91 100
77 67 86
62 31 68
63 27 69
66 28 71
64 27 70
66 28 72
63 28 70
67 29 74
74 31 67
80 34 58
84 35 58
86 36 57
87 47 65
96 77 85
101 103 106
101 106 109
105 109 112
103 108 114
78 89 123
45 64 127
30 57 131
31 58 132
30 62 126
31 79 117
31 93 99
32 109 84
33 113 80
32 109 78
32 111 79
32 110 78
43 103 79
78 88 92
89 88 100
95 96 107
105 108 118
111 116 124
104 108 117
108 113 121
110 115 123
110 116 123
113 119 126
110 116 124
111 117 124
112 118 126
112 118 124
112 119 126
110 117 124
111 117 123
110 116 124
111 117 124
112 118 126
110 116 123
94 97 109
58 54 79
43 33 69
44 33 71
44 34 72
42 32 69
45 34 73
43 33 71
45 36 73
58 55 81
78 84 96
88 96 102
91 100 106
88 96 104
101 109 116
106 113 120
105 114 122
84 98 116
49 91 122
10 93 132
2 99 138
2 96 135
2 100 139
3 99 138
39 100 134
55 102 131
87 108 125
101 111 121
105 113 120
107 115 121
108 115 121
108 115 122
102 109 116
98 104 109
96 101 106
88 92 97
87 92 95
88 92 96
96 101 105
94 101 106
108 115 119
107 114 119
106 114 119
104 112 116
105 112 117
98 108 109
98 108 108
96 107 106
86 96 93
97 98 94
98 92 87
108 100 94
108 98 93
109 98 93
113 102 96
110 100 95
110 99 92
113 103 96
113 101 95
103 90 88
93 71 80
76 38 66
73 21 63
74 22 66
73 22 65
75 22 66
83 63 83
94 93 104
103 109 116
107 111 118
108 105 114
94 85 96
84 74 86
95 86 95
110 102 111
113 106 115
112 100 109
109 100 107
112 106 112
109 105 112
108 108 115
111 117 124
113 118 124
112 118 125
112 118 124
113 118 125
113 119 126
113 118 124
114 120 127
113 113 119
113 88 89
110 55 46
120 41 17
113 39 16
115 39 16
118 40 16
112 38 16
116 39 16
118 40 16
116 40 16
118 48 18
109 63 25
92 77 44
101 98 82
100 99 96
99 98 102
96 93 97
97 97 102
101 100 105
102 103 108
104 104 110
103 103 108
106 109 113
115 119 123
118 123 128
118 123 130
117 123 130
115 122 129
114 120 127
115 121 128
113 119 127
118 123 129
111 119 124
105 116 118
88 104 99
75 100 90
70 98 86
72 102 89
68 96 84
68 96 85
69 96 86
67 95 84
70 98 87
76 96 92
94 107 107
102 112 114
103 111 115
101 111 114
105 113 118
109 116 122
108 115 121
103 109 115
106 111 118
104 109 115
101 105 113
103 108 114
99 103 111
105 110 117
98 103 109
102 105 115
87 82 112
78 66 112
65 30 113
63 25 111
61 24 108
64 25 114
64 25 113
64 25 112
65 25 114
63 25 110
61 29 110
57 40 107
60 56 113
72 74 114
74 79 108
70 82 96
42 61 76
14 46 64
14 47 65
13 46 63
14 49 66
14 48 64
14 49 67
14 49 64
13 51 61
52 74 78
82 95 100
102 111 115
107 116 120
114 120 126
106 113 117
110 117 123
108 114 118
106 112 117
101 108 111
88 97 93
80 89 84
74 86 75
75 88 76
84 94 89
100 108 109
107 114 118
109 115 119
107 114 121
86 97 106
48 69 76
13 52 52
10 53 46
17 60 44
25 71 46
31 80 47
36 88 48
36 87 48
32 83 48
59 96 70
83 104 95
102 114 114
113 119 124
114 120 127
113 119 126
113 119 126
114 120 127
113 120 127
113 119 126
115 121 128
114 120 126
112 119 125
113 119 126
114 120 126
115 121 128
114 120 126
112 118 125
114 120 126
111 117 123
87 98 100
63 78 75
27 55 43
30 60 47
29 58 45
29 58 46
29 58 46
29 59 46
30 60 47
30 61 48
26 60 44
28 73 50
49 92 69
78 99 92
94 110 108
108 115 121
114 120 127
111 118 124
112 119 125
107 117 117
100 122 104
93 126 94
82 130 74
74 130 57
72 133 53
73 132 54
72 135 53
65 131 49
59 130 46
54 138 45
30 136 35
41 134 51
76 128 86
99 114 109
110 115 121
110 115 121
110 115 120
104 109 114
106 112 117
110 111 117
127 117 129
148 126 146
156 129 155
153 128 156
149 126 156
148 126 155
150 127 156
152 127 156
151 125 154
150 125 149
138 120 138
118 115 125
110 116 122
112 117 123
108 115 121
110 117 123
111 118 125
110 116 122
109 115 120
109 116 122
104 112 117
104 112 116
103 110 114
96 112 118
82 112 123
56 107 122
51 106 122
53 110 128
55 114 132
51 107 125
51 105 124
59 107 125
76 110 122
95 109 117
104 113 120
104 111 120
95 104 122
72 84 124
46 65 127
32 55 125
34 58 132
33 56 127
31 54 122
32 55 125
31 54 122
32 56 125
32 54 121
29 51 106
27 47 78
42 56 75
70 77 91
85 90 103
97 101 112
98 102 115
106 111 121
100 105 114
105 111 119
104 110 119
107 113 121
103 109 118
100 106 115
105 111 119
102 108 115
101 107 116
106 112 119
105 111 118
94 96 103
84 79 90
81 76 86
80 76 83
84 79 87
82 78 86
83 78 86
82 77 85
81 76 84
95 95 102
98 101 109
103 109 118
104 110 118
99 100 108
99 96 102
94 86 93
87 70 78
84 65 78
74 57 73
72 62 78
75 75 90
85 88 98
97 101 104
124 131 123
150 159 144
154 165 150
151 162 148
150 163 149
149 160 146
152 164 148
138 148 136
126 133 126
94 97 107
96 101 110
86 86 106
66 57 99
52 30 94
51 29 92
50 29 92
50 29 93
52 30 97
52 30 98
64 54 100
83 81 107
98 101 116
108 114 121
110 116 123
111 117 125
107 113 121
109 115 123
112 117 124
111 117 125
105 114 121
95 113 118
48 105 101
19 102 97
16 103 96
15 102 97
16 105 99
15 102 96
17 102 95
27 94 85
33 83 74
55 79 77
75 91 95
92 96 107
99 103 115
101 105 116
103 108 120
96 101 114
91 95 108
81 84 101
64 65 93
50 52 91
49 67 78
45 78 69
30 76 60
29 76 59
29 74 58
29 76 58
28 68 42
31 63 32
59 78 60
86 99 95
104 110 115
105 113 119
109 116 122
108 112 117
104 94 94
99 71 60
98 53 33
76 66 97
58 70 115
51 69 118
52 70 118
78 91 120
102 109 117
107 113 119
101 108 116
101 106 121
100 87 120
105 53 120
107 37 122
106 58 121
87 82 98
63 82 66
76 88 82
94 101 105
78 80 85
91 93 94
112 117 117
104 112 112
97 108 106
115 129 142
126 139 161
122 136 158
121 135 159
121 135 158
117 127 148
116 130 148
124 138 158
124 137 159
122 133 154
124 136 159
120 130 151
116 125 147
118 129 149
119 131 152
124 140 162
111 118 136
118 128 148
115 117 138
116 125 146
115 121 139
107 102 120
107 103 122
101 90 107
97 80 96
94 82 98
94 70 87
93 74 90
86 53 69
86 55 70
86 45 58
88 44 58
93 41 59
77 26 43
81 12 35
86 25 45
82 20 40
80 26 43
83 32 46
84 25 44
84 26 44
87 28 46
85 34 49
85 25 44
84 25 43
81 24 42
88 48 64
90 42 58
86 40 55
92 54 70
91 57 73
90 50 66
99 76 92
100 76 93
103 86 102
112 97 116
108 104 123
110 106 124
120 127 147
122 126 148
124 135 157
121 133 154
124 137 158
132 148 171
125 137 159
125 137 159
128 139 162
122 136 157
120 136 154
101 119 131
100 122 131
90 113 117
69 101 91
61 100 82
45 91 63
28 85 45
16 82 33
17 80 32
21 82 34
30 88 37
30 86 36
50 93 42
53 97 43
63 103 46
66 103 48
68 104 48
66 102 47
72 106 50
72 107 50
79 111 53
83 114 54
83 114 54
83 114 54
84 116 55
86 117 56
85 115 55
87 117 56
87 117 56
84 113 54
87 117 56
88 118 57
86 116 56
85 115 55
87 117 56
86 116 56
87 117 56
87 118 56
85 116 56
86 117 56
85 116 55
84 115 55
83 116 55
84 116 55
80 113 53
78 112 53
76 110 51
71 109 50
63 103 47
58 102 46
55 101 44
49 95 42
48 96 42
37 89 37
30 88 37
18 85 34
16 81 33
16 85 34
16 86 35
17 90 37
17 88 36
16 83 34
17 87 35
15 83 33
16 84 34
16 86 34
15 81 33
49 95 69
66 104 89
74 106 100
95 123 126
101 126 133
109 127 142
120 134 153
121 135 154
108 116 135
111 116 134
109 108 127
95 82 98
92 80 95
83 65 78
74 38 51
72 24 40
69 9 31
70 10 31
69 9 31
73 10 32
71 10 32
66 9 29
65 9 28
70 9 31
68 9 31
72 10 32
68 9 30
73 10 32
69 9 30
72 10 32
72 10 32
70 10 31
68 9 30
72 10 32
71 10 31
69 9 30
72 10 32
72 10 32
74 10 33
74 10 33
72 10 33
78 11 34
75 10 33
71 10 32
72 10 32
72 10 32
74 10 32
68 9 30
77 11 34
73 10 32
72 10 32
74 10 33
74 10 33
73 10 33
72 10 32
70 10 31
74 10 33
73 10 33
79 29 45
80 42 57
89 70 86
93 77 91
100 89 105
98 96 110
97 93 107
106 108 125
112 119 137
109 119 136
108 119 133
112 124 139
112 126 143
108 120 132
108 122 139
107 118 131
113 126 143
110 124 142
107 119 135
108 122 137
97 108 123
115 128 145
103 115 130
98 109 121
106 117 131
100 111 125
104 115 131
101 113 126
107 120 137
98 109 120
91 99 108
99 110 123
105 117 133
99 109 120
103 114 128
95 104 117
102 113 125
89 99 112
101 113 128
102 114 129
105 117 133
98 110 124
98 110 124
100 111 127
93 105 117
102 115 129
105 117 132
105 117 134
97 109 121
108 120 138
104 116 132
105 117 133
102 115 132
103 117 131
100 110 124
103 115 129
107 120 135
106 121 136
98 110 124
108 121 138
103 117 133
103 115 128
104 118 134
106 122 136
99 116 125
90 121 111
89 129 112
79 126 97
71 134 88
57 135 66
55 144 62
43 138 43
44 142 44
44 141 44
45 146 46
43 138 43
42 138 43
44 143 45
45 145 45
43 137 43
46 148 46
42 137 43
44 143 45
43 141 44
43 140 44
43 140 44
47 149 47
44 143 45
45 146 46
43 139 44
45 144 45
45 143 45
43 138 44
