P3
1600 1
255
67 51 44
65 50 44
67 51 44
65 50 43
76 66 59
100 100 90
116 120 108
118 123 110
136 145 130
153 167 151
161 178 163
167 185 169
172 190 172
165 184 164
171 192 175
169 192 173
159 183 164
154 180 161
147 175 156
145 179 158
134 167 147
130 155 135
112 134 112
124 137 114
125 118 97
120 100 78
115 78 57
118 63 39
123 64 39
108 57 34
116 60 36
105 55 32
110 56 35
105 53 34
100 49 31
103 51 35
113 58 40
114 58 41
122 62 46
117 61 46
123 64 47
125 64 49
116 60 45
121 62 47
125 64 49
119 61 47
128 66 51
126 65 50
125 64 49
124 64 50
126 65 50
130 67 52
127 65 50
129 67 52
121 63 48
128 66 52
122 62 49
129 67 52
126 64 50
130 67 53
119 61 48
117 60 47
120 62 48
125 65 51
129 65 51
123 64 50
119 61 47
122 64 50
124 65 50
122 62 48
125 64 50
123 63 50
126 65 51
129 67 52
119 62 48
126 65 51
125 65 50
120 62 49
123 64 50
130 67 52
122 63 50
124 65 51
125 65 50
118 61 48
121 63 49
123 64 50
119 62 49
117 63 49
119 61 48
119 62 48
123 64 50
118 62 47
124 64 49
118 62 49
118 62 48
116 62 47
123 65 50
118 63 48
114 59 46
116 60 47
119 72 66
114 71 67
116 83 84
122 103 112
120 116 130
126 126 143
125 135 154
128 142 163
133 151 174
130 148 172
130 149 173
131 149 171
132 151 175
127 146 170
130 148 171
131 150 174
133 152 176
132 151 175
133 151 175
129 147 171
128 145 168
129 148 170
133 152 175
131 150 174
127 145 167
131 150 174
130 148 171
133 151 175
134 151 174
134 152 175
133 152 176
128 147 170
134 152 175
134 152 175
135 154 178
130 148 171
134 153 176
133 150 174
128 147 169
134 153 176
131 150 174
132 151 175
132 150 174
132 149 172
131 149 173
134 152 176
133 151 174
133 151 175
132 151 175
132 150 173
132 149 172
133 152 175
131 150 173
128 146 169
133 151 174
134 152 175
132 151 174
133 152 176
132 151 174
129 148 172
126 146 168
122 148 169
121 152 168
112 155 168
110 158 169
122 160 173
113 159 171
118 163 174
118 159 172
128 162 178
129 162 180
130 162 181
139 163 184
151 172 197
147 166 189
142 160 185
143 162 185
142 162 187
142 161 186
135 154 179
137 156 181
140 160 184
139 158 183
140 159 185
138 158 182
137 157 181
139 159 184
139 158 183
137 155 180
133 152 176
137 157 182
141 162 187
133 152 177
144 163 188
140 160 185
140 159 185
142 162 188
141 160 183
139 159 183
141 162 187
143 163 188
143 162 186
147 168 192
148 169 192
142 167 188
137 164 184
128 164 180
123 162 177
124 166 180
111 162 172
101 156 164
102 160 168
89 156 161
66 155 154
49 149 146
43 149 145
41 144 141
42 146 141
42 146 142
41 145 140
41 142 139
41 142 139
43 146 143
39 136 134
40 140 137
38 132 130
39 131 129
38 130 126
40 139 135
39 135 132
42 139 137
63 134 137
71 139 143
95 134 147
105 147 161
109 147 162
121 146 167
127 149 170
131 151 175
130 149 171
129 150 173
130 149 171
130 148 171
129 148 172
125 146 166
130 150 174
128 149 172
128 148 170
133 152 177
130 150 172
130 150 173
131 151 174
127 147 169
130 150 172
124 145 164
127 147 169
128 148 171
125 146 166
127 146 167
128 149 171
132 150 172
127 145 166
124 145 167
129 148 170
130 148 170
124 146 166
123 140 162
116 129 149
114 121 143
104 97 122
102 87 115
93 65 95
92 56 88
86 33 75
83 16 69
89 17 73
92 17 73
90 17 72
93 18 74
90 17 73
88 16 70
94 17 74
92 17 74
95 18 76
90 17 72
93 17 73
95 18 75
91 17 73
92 17 73
96 18 76
92 17 74
94 17 75
92 17 75
91 17 72
98 18 77
94 17 75
95 18 76
92 17 73
94 17 74
97 18 77
92 17 74
95 18 76
95 18 75
92 17 74
94 18 75
91 17 72
93 17 74
94 17 75
92 17 72
94 17 75
92 17 73
90 17 72
92 17 74
95 18 75
96 18 76
94 17 74
96 18 75
95 18 76
93 17 73
96 18 76
94 18 75
97 18 77
91 17 72
90 17 72
97 18 77
95 18 75
96 18 76
90 17 72
95 18 74
91 17 73
90 17 71
91 17 73
91 17 72
93 17 74
93 17 74
93 17 74
88 30 68
88 41 65
88 46 65
77 56 51
81 67 50
80 71 48
78 77 39
74 77 35
76 83 35
86 92 38
82 90 36
81 88 36
78 86 35
75 81 33
82 89 36
79 85 39
95 102 68
98 105 84
101 108 92
117 130 123
121 134 134
129 143 153
142 158 177
142 159 177
144 163 185
141 159 183
135 154 179
138 156 180
135 153 177
140 159 183
136 155 180
136 154 179
135 155 179
136 154 179
132 151 175
134 152 176
131 149 174
136 155 179
133 152 177
133 152 176
132 149 173
135 154 179
128 145 170
135 153 178
134 153 178
137 155 179
132 149 173
136 154 180
132 149 174
131 149 173
133 151 175
132 151 175
131 150 174
131 150 173
130 148 172
130 147 171
131 149 172
132 150 174
134 152 177
135 154 179
134 154 180
134 152 177
134 152 175
133 150 174
135 154 179
134 153 179
132 150 174
132 150 174
136 154 178
134 152 176
135 154 177
139 157 181
136 153 176
133 150 173
133 149 173
128 144 167
137 149 170
131 145 162
128 144 163
124 139 157
125 141 161
124 141 160
124 141 161
126 146 166
127 145 167
124 142 160
121 137 158
127 145 168
125 142 163
122 139 158
122 140 161
122 140 161
125 142 163
127 143 164
119 137 154
122 139 158
123 139 159
128 146 169
123 140 161
121 140 158
126 142 165
125 143 164
122 140 158
125 144 166
123 140 161
126 143 165
123 140 160
122 140 160
125 142 165
122 139 160
129 147 168
124 142 161
121 138 160
125 143 164
119 138 154
123 141 162
120 139 160
121 138 158
122 139 157
123 140 160
122 141 162
116 133 151
122 140 161
123 142 163
117 137 156
124 142 161
123 143 164
122 140 160
117 135 153
120 139 159
119 137 155
118 135 153
123 141 162
117 138 156
109 128 143
115 133 151
121 137 155
118 137 152
109 127 139
100 122 122
95 116 108
94 117 105
84 105 81
77 87 64
78 94 61
76 94 46
68 78 28
67 70 23
71 84 22
67 68 24
68 59 26
65 54 25
69 67 25
69 64 25
64 44 26
67 54 26
69 59 26
68 60 25
69 65 25
65 53 25
69 65 25
66 57 25
67 64 24
66 61 25
68 72 23
71 82 23
68 80 21
70 81 22
69 76 23
71 97 19
68 95 17
66 94 16
66 101 14
69 103 16
67 107 11
66 106 12
69 115 7
61 107 5
63 109 5
62 109 8
62 107 4
64 109 21
62 104 26
65 107 36
67 106 45
70 109 54
76 111 72
67 105 55
75 109 84
93 122 120
100 130 128
116 146 161
144 173 200
144 174 204
161 193 230
168 201 241
170 204 245
168 203 245
167 202 245
167 202 245
166 201 245
165 201 245
164 200 245
163 200 245
162 199 245
162 199 245
161 199 245
160 198 245
160 198 245
159 198 245
159 198 245
159 197 245
158 197 245
158 197 245
158 197 245
157 196 245
157 196 245
157 196 245
156 196 245
156 196 245
156 196 245
156 196 245
156 196 245
156 196 245
156 196 245
154 194 244
159 197 244
157 195 243
161 198 244
160 197 242
162 198 242
163 198 241
165 201 244
164 198 240
165 200 244
163 199 242
163 199 242
163 198 242
158 193 235
163 199 242
163 199 242
164 200 244
161 196 239
158 192 234
163 198 242
163 198 242
164 199 242
165 201 245
166 201 245
167 202 245
162 198 241
158 195 236
149 187 229
136 178 218
125 169 208
111 153 185
100 141 169
87 127 147
88 125 140
91 127 136
91 124 128
94 124 121
96 127 124
94 125 121
92 123 119
96 127 124
96 127 123
94 125 120
91 122 117
92 123 119
93 123 119
92 123 119
93 123 120
94 124 123
97 130 133
91 126 135
99 138 150
97 137 153
102 143 161
108 155 177
109 156 181
103 149 174
101 147 172
109 156 183
105 151 177
107 153 179
107 154 180
108 156 181
113 161 186
107 154 179
109 156 182
109 158 184
108 153 177
113 160 184
115 162 186
106 149 172
111 156 180
112 158 182
116 163 188
113 160 185
107 152 174
114 160 184
116 162 185
115 161 184
117 163 186
113 158 182
116 163 187
118 165 188
114 160 181
113 159 181
116 161 184
122 165 189
128 169 195
132 169 194
142 173 198
149 177 203
156 180 207
163 187 215
177 199 228
174 196 225
178 200 228
183 205 235
185 207 237
186 208 238
189 212 242
187 210 240
187 209 239
192 215 245
194 216 246
192 214 244
193 216 245
196 219 249
197 219 250
198 221 251
197 219 249
194 216 246
200 222 252
198 220 250
198 220 250
198 220 250
198 220 249
197 218 248
198 220 250
194 216 245
199 221 250
200 222 251
198 220 249
198 220 249
202 224 253
200 222 251
198 219 248
201 222 252
202 224 253
199 221 250
200 222 251
198 220 249
201 223 252
200 221 250
201 222 251
201 222 251
199 220 248
204 225 254
199 221 249
202 223 252
201 222 251
201 222 251
202 223 252
202 223 252
202 223 252
201 222 251
202 223 252
204 226 254
203 224 252
204 226 254
202 223 252
203 224 252
204 225 254
201 222 250
202 223 251
202 223 252
204 225 254
202 223 251
205 226 254
201 222 250
202 223 251
204 225 254
203 224 252
204 225 254
205 226 254
202 223 251
205 225 254
203 224 252
203 224 252
205 226 254
204 225 253
203 224 252
200 220 248
205 226 254
203 224 252
203 224 252
205 226 254
203 224 252
205 226 254
204 224 252
206 226 254
204 224 252
203 224 252
203 224 252
203 223 251
204 225 252
206 227 255
204 224 252
204 225 252
204 225 253
205 225 253
203 223 251
204 225 252
204 225 252
206 227 255
203 223 251
201 221 249
204 224 252
203 224 251
204 224 251
203 223 250
203 223 250
202 223 250
203 224 251
206 227 254
201 221 248
202 223 250
205 225 253
207 227 255
205 225 253
207 227 255
205 225 252
205 225 252
206 226 254
205 225 252
201 219 244
146 155 164
96 108 118
94 103 113
77 73 77
52 44 43
96 121 122
112 141 142
100 125 128
99 112 118
93 101 116
49 67 104
27 52 97
67 79 106
98 104 116
108 114 122
112 118 125
109 114 121
110 117 123
98 101 102
116 110 122
126 121 143
127 124 149
128 125 151
130 125 149
118 113 130
78 81 81
46 58 37
36 53 1
34 51 1
36 54 1
36 54 1
42 57 28
78 87 82
102 108 115
103 109 117
102 107 115
98 104 111
91 97 105
91 97 105
96 100 107
97 102 110
100 106 113
90 88 100
68 49 75
60 25 65
64 27 69
64 27 70
61 26 66
63 27 69
64 28 69
62 29 59
78 47 62
75 31 51
68 28 48
82 61 72
87 81 88
102 102 108
107 111 117
101 103 113
78 89 123
36 59 125
30 56 126
30 55 126
29 55 124
30 57 129
30 56 128
30 60 127
30 81 108
30 94 90
31 106 76
31 106 75
31 106 76
47 100 78
78 102 97
101 104 113
106 110 120
107 111 119
110 114 122
109 113 121
109 115 122
109 115 123
111 117 125
109 114 121
111 117 124
112 118 125
113 118 126
112 118 125
112 119 125
114 119 126
110 116 122
111 118 125
112 119 126
110 116 122
96 101 111
74 75 91
41 32 65
42 32 68
41 30 64
41 31 67
42 32 68
42 32 68
41 32 68
40 31 66
41 32 68
38 39 64
51 62 75
66 83 88
83 95 100
94 103 110
104 112 121
92 107 122
49 97 127
2 95 132
2 92 127
2 97 133
2 96 133
2 96 133
2 95 132
2 95 131
2 95 132
20 95 130
58 102 131
95 112 127
104 111 119
105 111 117
99 105 111
99 106 112
94 101 105
91 95 99
83 87 89
83 86 90
88 91 93
90 94 98
95 99 103
103 107 112
105 111 116
106 113 118
104 110 116
108 115 122
106 114 119
107 115 121
104 112 117
105 108 112
106 102 101
105 95 89
104 94 89
103 95 90
101 92 87
104 94 88
107 96 89
104 95 89
107 96 90
104 93 87
108 97 91
99 85 83
89 66 75
70 38 60
69 20 60
68 20 59
70 21 61
79 52 76
97 93 104
108 113 120
107 112 119
99 102 110
92 91 100
90 85 95
88 84 94
89 85 94
95 92 102
92 88 98
98 95 105
96 92 101
102 104 112
109 113 120
109 116 122
112 118 125
112 117 124
112 118 124
111 117 123
111 116 123
111 117 122
111 116 122
110 103 106
106 79 80
106 40 23
112 38 16
108 37 15
112 38 15
107 36 15
109 37 15
108 36 15
112 38 15
113 38 16
110 37 15
108 48 35
104 82 78
102 99 100
104 107 111
107 112 116
105 111 117
105 109 114
108 113 119
106 112 117
108 114 119
108 113 118
112 118 123
110 115 121
110 116 122
111 117 123
115 120 127
116 121 128
115 122 128
111 117 123
113 120 126
113 119 126
112 116 123
116 120 125
104 112 114
90 104 103
69 90 83
68 93 82
61 87 75
61 85 75
65 87 78
69 91 84
88 103 101
92 103 105
99 109 112
104 112 115
104 114 117
110 117 123
104 113 117
105 112 118
108 115 121
107 114 120
108 115 122
109 115 121
108 114 120
104 112 117
104 111 117
104 110 117
106 112 120
99 101 114
86 81 111
65 37 106
62 24 107
59 23 103
57 22 101
60 23 104
57 22 100
60 23 105
57 23 100
58 23 100
55 22 96
57 32 100
71 65 105
86 87 108
86 92 104
58 70 81
25 43 57
12 42 59
12 41 57
13 44 60
13 48 62
13 61 60
12 65 58
9 82 48
9 88 47
14 93 48
41 101 60
54 107 71
60 106 74
69 108 83
83 108 95
90 108 101
102 111 113
99 105 109
99 106 110
100 106 108
102 108 112
101 107 113
101 108 112
93 100 103
100 106 110
100 107 112
99 106 113
82 92 95
59 73 74
33 56 51
20 62 42
36 85 44
42 97 47
51 113 51
55 120 52
58 126 54
56 122 52
56 123 52
55 120 51
58 120 56
76 121 80
91 118 99
106 119 119
110 117 123
110 117 123
113 119 126
107 114 121
113 119 126
114 120 126
112 118 126
110 117 123
111 118 125
111 117 123
111 117 124
113 119 125
110 117 124
109 116 123
99 106 110
81 92 94
44 62 56
26 52 41
26 52 41
28 56 44
28 57 45
27 55 42
27 54 42
26 53 41
27 55 43
41 62 54
53 74 65
80 91 90
94 104 106
102 111 115
104 111 116
107 114 119
106 112 118
104 119 111
85 119 83
77 123 68
72 128 52
69 125 51
69 123 50
70 125 51
71 127 52
70 127 52
66 118 48
69 124 50
67 125 49
59 125 49
66 111 70
90 110 99
95 101 106
97 102 109
105 111 118
105 111 117
105 110 117
107 112 119
109 111 117
108 101 108
118 103 114
136 115 130
136 114 130
148 120 142
140 116 137
143 118 138
144 117 140
140 114 138
134 109 133
122 107 126
111 111 123
112 117 124
110 116 123
110 116 123
110 117 124
111 117 123
111 118 124
109 116 121
107 114 120
109 115 122
105 113 119
109 116 123
106 114 120
97 109 116
84 107 117
71 104 116
55 99 114
52 98 114
53 92 107
67 97 114
82 102 113
98 110 119
103 112 119
108 114 123
101 108 120
78 88 119
52 66 117
34 56 125
32 55 124
31 53 118
30 52 116
30 51 115
30 51 112
36 59 114
48 76 100
62 95 87
63 96 79
67 97 62
80 103 78
90 110 89
96 109 104
98 105 112
97 102 111
96 102 110
105 112 119
107 112 120
101 107 115
107 114 122
106 112 121
103 109 119
103 108 118
108 114 121
104 111 119
105 111 118
103 108 116
92 94 103
78 76 84
75 72 79
76 72 80
75 71 79
76 72 78
70 66 73
74 70 77
82 81 88
89 91 99
100 106 114
97 99 107
96 87 95
92 72 79
86 56 61
88 54 59
89 55 59
87 53 58
88 54 59
86 56 62
89 71 78
92 89 94
91 97 100
101 109 101
119 125 113
116 121 106
108 111 100
116 121 106
110 117 106
109 122 107
98 106 98
88 94 97
102 107 115
107 113 122
85 84 106
63 56 93
48 27 88
47 27 87
50 29 93
47 27 87
47 27 87
53 39 89
70 65 99
96 98 116
108 114 121
109 115 123
111 116 123
113 119 126
110 116 124
108 114 122
110 115 123
110 116 124
91 109 113
65 106 106
28 103 96
15 102 96
15 100 95
14 96 90
15 99 93
16 106 100
16 100 94
26 94 86
43 79 76
70 83 88
88 91 105
97 101 115
101 107 116
96 100 113
99 104 117
92 97 109
94 100 111
72 75 91
72 74 92
94 96 108
104 109 119
119 124 131
114 122 124
86 101 98
41 78 65
38 68 57
60 73 71
57 67 60
76 86 83
96 103 106
101 109 114
101 108 113
106 110 115
97 88 86
98 65 52
96 50 17
94 49 17
86 55 62
61 63 101
49 68 118
63 78 121
86 95 116
104 110 116
103 110 116
105 112 121
98 95 117
101 63 118
107 41 122
103 40 118
97 56 110
70 71 78
71 81 76
89 97 97
92 96 101
84 86 86
107 110 109
107 113 111
102 109 106
89 101 95
115 127 143
123 134 155
116 127 147
119 130 150
122 135 157
123 137 160
119 131 152
116 126 147
119 132 154
115 122 142
115 125 146
112 122 140
112 119 137
122 136 157
115 124 144
115 125 144
114 123 143
109 115 136
113 119 140
112 114 133
107 108 125
108 110 128
102 101 118
101 100 117
102 99 116
91 86 101
89 74 89
83 71 85
85 67 80
91 69 81
88 59 73
89 65 80
80 61 71
77 47 58
82 50 62
77 39 49
75 40 52
83 44 57
76 37 50
70 33 44
78 40 53
71 37 48
90 54 69
70 35 45
79 45 56
75 45 56
87 56 70
93 60 75
94 71 86
93 73 88
93 74 89
97 84 99
106 91 108
107 105 122
102 96 113
105 101 119
115 120 140
117 123 144
118 128 148
121 129 149
116 125 147
118 129 151
123 134 155
116 125 145
122 130 150
122 133 155
118 126 147
117 126 147
119 133 153
110 122 137
104 118 131
86 106 109
78 103 99
60 94 78
52 93 70
35 83 46
34 82 35
41 86 37
48 91 40
54 93 42
59 97 44
68 104 48
72 106 50
75 108 51
79 110 52
81 112 53
80 110 52
84 115 55
87 118 56
86 116 55
84 113 54
85 114 55
86 115 55
86 116 56
85 115 55
84 113 55
86 116 56
86 116 56
85 114 55
85 115 55
86 115 56
87 117 56
86 116 56
87 117 56
85 115 55
86 116 56
85 116 56
87 116 56
85 115 55
88 118 57
85 114 55
86 116 55
87 117 56
85 115 55
85 115 56
85 116 55
82 113 53
79 112 53
80 112 53
71 108 50
71 104 48
58 99 44
62 101 46
53 98 43
43 93 40
34 89 38
25 86 35
16 82 33
16 84 34
16 83 33
17 89 36
15 80 32
16 86 35
15 81 32
16 84 34
31 87 49
51 96 70
70 105 93
82 114 110
98 125 130
103 125 134
112 132 148
122 139 158
122 135 156
118 128 148
118 127 148
112 119 140
104 101 119
97 93 110
91 83 98
85 74 88
83 60 75
72 36 50
67 9 30
68 9 30
65 9 29
67 9 30
70 9 31
68 9 30
71 10 31
67 9 30
67 9 29
68 9 30
68 9 30
68 9 30
71 10 31
75 10 33
72 10 32
63 9 28
72 10 32
65 9 30
71 10 32
71 10 32
70 10 31
67 9 30
70 10 32
68 9 30
71 10 31
71 10 31
74 10 32
66 9 30
71 10 31
71 10 31
70 10 31
69 9 31
71 10 32
67 9 30
70 10 31
71 10 32
73 10 32
74 10 33
76 24 41
76 32 48
82 49 63
84 63 78
83 56 69
94 81 97
98 89 106
109 111 129
105 102 119
111 120 139
117 128 148
119 133 153
115 126 144
119 135 155
116 131 149
119 133 151
115 129 148
116 129 146
117 132 151
120 135 154
116 131 151
113 126 143
114 128 145
117 130 148
115 130 147
114 129 147
113 127 145
111 125 142
112 126 144
109 123 140
109 123 141
117 131 150
115 130 149
112 125 143
114 130 148
115 128 145
108 124 141
111 126 145
108 122 138
103 116 131
113 129 148
113 127 145
109 122 137
107 119 135
104 116 131
111 126 144
107 121 137
106 119 136
99 112 127
111 128 145
109 121 137
113 127 145
110 125 142
109 122 139
103 115 129
106 119 135
102 114 129
108 122 139
102 115 131
99 109 124
108 121 137
104 117 132
101 114 129
103 116 130
107 121 138
104 117 133
107 125 139
98 126 125
85 122 109
82 128 100
69 128 87
62 132 74
55 134 63
42 132 45
42 135 42
42 137 43
44 142 45
44 142 44
45 146 46
43 138 43
43 139 43
42 136 42
40 131 41
45 147 46
44 141 44
46 146 46
42 136 43
45 144 45
44 143 44
43 138 43
43 138 43
44 143 44
44 140 44
43 141 44
42 134 42
44 142 45
