P3
1600 1
255
65 50 43
66 50 44
65 50 43
66 50 44
68 55 48
92 90 81
94 92 82
98 98 89
136 145 131
135 144 130
146 161 144
151 166 150
159 177 159
162 180 164
163 183 166
161 185 168
144 171 153
150 181 161
142 175 154
132 166 146
111 146 125
111 141 120
109 129 107
104 115 92
99 103 81
118 95 74
105 71 50
113 62 39
109 57 34
114 59 36
111 57 34
101 52 30
101 52 32
104 52 33
106 54 34
111 55 38
110 55 38
117 60 44
120 61 46
116 60 45
124 64 48
122 62 46
122 63 48
125 64 49
118 61 47
122 63 49
123 62 48
132 68 52
118 61 47
121 62 48
122 63 49
131 67 52
120 61 47
125 64 50
118 61 47
121 62 48
120 62 49
127 65 51
129 66 51
124 64 50
120 62 49
118 61 48
123 63 50
121 61 48
128 65 51
122 63 49
125 64 50
126 65 51
120 63 49
123 64 50
123 64 50
122 63 49
128 67 52
128 66 52
118 62 48
120 62 48
127 66 52
119 62 49
119 62 49
121 63 49
119 62 49
124 65 50
123 64 50
115 60 47
126 65 51
118 62 48
120 63 49
116 61 48
116 61 47
119 63 48
124 64 50
116 61 47
113 59 46
118 63 49
120 62 48
110 58 46
108 58 44
116 60 47
116 60 47
111 59 46
118 74 68
122 83 83
115 88 92
118 108 118
124 116 130
129 136 156
129 137 155
130 140 160
132 151 175
132 149 173
131 149 173
129 147 170
130 148 172
133 151 175
131 149 173
128 145 168
129 147 171
130 149 173
131 149 174
133 150 174
131 149 171
133 152 175
129 148 172
129 146 168
132 150 173
134 153 176
133 151 174
133 152 175
133 151 175
131 149 172
135 153 177
130 148 173
131 149 173
131 150 174
133 151 174
133 151 175
134 151 175
131 149 172
129 148 170
133 153 176
132 151 173
131 148 169
134 153 176
130 149 172
131 149 172
134 152 176
130 148 172
133 151 175
133 152 176
131 149 172
130 148 171
129 148 171
132 150 174
135 153 177
132 151 175
132 151 174
132 151 175
136 154 178
131 151 175
129 149 171
127 147 168
125 150 170
118 150 166
123 150 168
124 159 174
111 160 170
126 160 175
135 169 185
130 164 181
128 159 176
146 169 192
146 168 190
150 169 194
143 161 187
140 159 183
143 163 189
138 158 182
137 157 182
136 154 179
140 159 185
135 153 178
138 158 183
135 154 179
136 156 180
134 153 177
139 159 184
137 156 180
137 157 181
135 154 178
138 158 183
135 155 179
135 154 178
137 157 182
139 159 184
137 157 182
137 156 180
141 161 186
137 156 180
138 157 181
137 157 181
139 159 183
141 161 185
143 161 185
144 163 187
140 161 184
148 170 192
146 168 191
139 169 188
141 174 192
132 167 184
117 159 172
118 163 175
90 155 159
87 158 162
74 151 153
45 147 144
41 144 141
40 140 136
42 145 142
40 140 137
40 138 135
42 145 141
39 134 131
41 144 142
41 143 140
40 140 137
40 136 133
41 138 134
40 138 136
39 134 133
37 125 123
56 135 136
68 127 133
88 139 148
97 137 150
104 138 153
115 145 164
125 147 168
127 149 170
133 152 176
131 151 173
132 152 176
132 152 176
130 149 172
129 149 172
131 149 172
129 149 172
132 151 176
128 147 169
129 148 170
132 152 175
131 150 173
130 149 171
130 149 173
126 147 169
131 150 173
126 146 167
125 146 166
129 149 172
128 149 171
128 147 169
125 145 167
128 149 171
125 147 167
129 149 171
124 144 165
120 138 158
121 134 157
111 115 137
106 101 125
96 77 104
95 63 95
86 43 80
86 23 71
88 17 71
90 17 72
90 17 74
89 17 72
90 17 72
93 17 73
91 17 72
88 17 72
90 17 72
90 17 73
96 18 76
90 17 71
92 17 72
89 17 71
94 18 75
90 17 71
88 16 70
97 18 77
97 18 77
91 17 73
92 17 74
89 17 71
96 18 75
95 18 76
92 17 73
93 17 75
93 17 74
91 17 72
93 17 74
95 18 75
89 17 72
95 18 76
97 18 77
97 18 76
93 17 74
91 17 72
93 17 74
93 17 74
93 17 74
94 18 75
95 18 75
93 17 74
94 17 75
102 19 79
93 17 74
92 17 73
91 17 73
93 17 74
95 18 75
93 17 74
91 17 73
94 18 74
94 17 74
92 17 72
94 17 74
92 17 74
90 17 72
92 17 73
88 16 70
90 17 72
92 17 73
91 17 72
90 19 71
87 36 66
82 39 61
85 45 61
81 61 53
80 75 45
81 79 43
76 78 36
80 86 35
78 83 34
77 84 35
86 93 38
78 84 35
83 91 37
72 78 32
83 91 47
90 98 69
109 119 108
117 130 130
122 133 134
127 140 148
142 157 173
136 153 171
142 160 184
144 161 185
145 164 188
139 158 181
140 158 182
135 152 177
135 154 178
136 154 179
136 154 178
137 156 181
132 149 174
131 150 175
135 154 178
134 153 175
138 156 180
134 152 176
135 155 182
128 145 169
133 151 175
132 149 173
138 158 184
132 151 175
132 150 174
134 153 177
129 146 170
133 152 177
130 148 172
133 152 176
134 152 177
132 151 175
137 157 182
135 154 179
132 150 174
134 153 179
133 152 177
133 150 175
134 153 177
133 151 175
134 152 177
135 152 177
137 156 180
132 149 174
134 151 175
136 153 176
135 153 178
131 147 171
136 154 178
137 155 179
142 160 185
138 157 181
131 149 173
132 147 170
135 151 173
132 149 170
125 140 159
127 142 161
124 141 158
129 145 166
127 142 164
117 132 151
125 143 165
123 140 160
129 146 165
120 137 156
123 142 162
121 137 156
126 142 164
124 143 164
124 142 163
128 146 168
126 143 165
132 149 171
126 144 166
125 143 165
122 139 159
123 141 161
125 141 162
124 140 161
120 136 156
130 148 171
127 144 164
126 146 167
120 139 160
124 143 162
123 143 162
124 142 162
122 141 161
122 140 159
121 138 157
120 138 157
123 141 162
121 139 159
126 146 167
124 141 161
118 135 153
128 146 167
124 143 165
121 139 158
116 135 153
119 137 155
124 141 161
121 137 156
124 143 165
115 136 155
117 135 152
113 133 149
122 139 158
122 139 159
119 139 157
116 133 152
119 136 157
116 136 154
114 134 152
116 133 152
108 121 137
101 117 128
95 108 112
92 106 103
83 97 82
85 98 84
79 91 63
75 77 56
72 73 43
68 64 30
65 47 26
66 35 27
68 61 25
65 46 26
65 45 26
64 37 27
66 32 28
66 40 27
65 30 27
66 30 28
67 35 27
68 42 27
66 39 27
65 32 27
66 41 27
67 43 27
66 43 27
67 53 26
66 53 25
69 66 25
66 61 24
66 66 24
65 66 23
67 78 21
70 99 18
66 90 18
67 92 18
69 99 17
66 101 13
61 99 10
62 105 7
64 111 5
63 107 21
72 118 41
67 108 39
65 103 45
70 106 63
73 108 69
69 104 65
78 112 84
79 107 89
90 118 107
90 120 115
117 144 159
132 161 184
138 168 192
147 177 208
160 192 227
170 203 243
170 204 245
169 204 245
168 203 245
167 202 245
166 202 245
166 201 245
165 201 245
163 200 245
163 200 245
163 200 245
162 200 245
161 199 245
161 199 245
160 198 245
161 199 245
160 198 245
160 198 245
160 198 245
159 197 245
158 197 245
158 197 245
158 197 245
158 197 245
158 197 245
157 197 245
157 197 245
157 197 245
157 196 245
158 197 245
158 197 245
158 197 244
159 197 244
164 200 245
163 199 244
164 200 244
164 198 241
166 201 244
164 200 243
163 198 241
162 198 241
163 199 243
163 199 242
164 200 244
163 199 243
159 195 238
164 200 244
161 196 240
162 198 242
159 195 238
164 200 244
161 196 239
166 201 245
163 198 242
166 201 245
164 199 241
158 195 236
151 189 230
137 177 216
120 162 200
123 164 201
105 147 175
92 133 157
92 129 144
89 125 134
91 123 127
89 120 120
91 121 118
96 127 123
93 124 120
96 126 122
91 122 117
92 123 118
91 121 117
92 123 118
93 123 119
90 120 116
90 119 114
91 122 121
96 130 133
96 132 138
101 137 145
98 139 156
98 139 154
106 149 170
101 146 172
105 152 177
108 156 183
106 152 178
105 152 179
107 154 180
109 157 184
109 155 181
108 154 179
110 157 183
106 151 175
110 156 181
106 149 171
112 158 183
110 156 181
112 158 182
113 161 184
111 157 181
113 159 183
114 160 185
115 163 188
111 156 179
115 162 187
114 160 184
115 162 185
112 158 180
113 160 183
113 159 181
114 160 183
111 155 178
111 158 180
114 159 182
119 159 183
129 165 188
126 160 184
144 174 200
146 172 198
150 174 201
154 177 204
169 191 219
176 198 227
180 202 232
184 207 237
186 209 239
187 210 240
190 213 242
192 215 245
191 213 243
191 214 244
190 212 242
193 215 245
194 217 247
196 219 249
197 220 250
194 217 246
198 221 251
196 218 248
194 216 246
197 219 249
197 220 249
201 223 253
195 217 246
197 219 249
198 220 250
199 222 251
193 214 243
198 220 250
200 222 252
200 222 251
199 221 250
200 222 251
198 220 249
202 224 253
199 221 250
197 219 247
199 221 250
200 222 250
202 224 253
201 223 252
200 221 250
200 222 251
202 224 253
203 225 254
202 224 253
202 224 253
200 222 250
201 222 251
203 224 253
201 222 251
200 222 250
202 223 252
203 224 253
202 223 252
204 226 254
201 223 251
202 223 252
203 224 253
204 225 254
202 223 251
204 226 254
202 223 251
204 225 254
203 224 253
202 223 251
205 226 254
203 224 253
202 223 252
200 221 248
202 223 251
203 224 252
202 223 252
204 225 254
201 222 250
204 225 254
204 225 253
205 225 254
202 223 251
202 223 250
203 224 252
202 223 251
203 224 252
206 227 255
203 224 252
204 225 253
204 225 253
204 225 253
202 223 251
202 223 250
204 225 253
205 226 254
203 223 251
201 222 249
204 224 252
202 223 251
204 224 252
203 224 251
203 223 251
203 223 251
201 222 248
206 226 254
202 222 249
202 223 250
204 225 252
204 224 252
205 225 253
206 227 255
205 226 253
203 223 251
206 227 255
204 225 252
205 226 254
204 225 252
204 224 252
203 223 251
205 225 253
206 227 255
205 225 253
206 226 254
206 226 254
200 219 244
155 166 178
97 109 118
90 99 107
75 72 76
48 33 33
78 93 96
103 129 131
96 119 121
97 112 119
99 106 116
53 68 100
28 51 94
63 76 104
100 107 119
108 114 122
105 111 118
107 114 121
110 116 123
98 103 108
110 107 119
129 123 145
129 125 150
129 125 151
132 126 150
124 117 136
86 84 90
38 52 23
33 48 1
34 51 1
36 54 1
35 53 1
35 51 12
70 80 71
102 108 114
104 110 118
103 110 118
104 109 117
101 108 115
107 113 120
100 105 113
108 114 121
105 111 119
98 98 109
69 56 75
58 26 62
61 26 65
60 25 66
62 26 68
61 26 67
62 29 68
68 48 72
71 59 68
66 42 51
69 46 55
71 57 64
87 83 89
91 87 94
100 102 109
92 95 117
63 74 124
34 57 122
29 54 122
28 53 119
29 53 120
30 55 126
29 53 122
30 57 126
29 65 116
28 82 97
29 99 77
31 105 75
31 105 75
49 101 80
88 106 105
107 111 120
108 113 122
108 114 120
110 115 123
110 116 124
110 115 123
112 117 124
112 118 125
115 120 126
112 119 126
110 116 124
112 118 126
111 117 123
109 115 123
109 114 122
111 117 124
112 118 125
111 117 124
109 115 122
97 101 111
64 63 81
42 33 67
39 30 63
41 31 66
41 31 66
41 31 65
42 32 68
41 31 67
41 31 67
39 31 67
35 36 65
44 56 73
48 76 84
73 94 100
92 105 113
97 105 113
81 105 125
38 91 122
2 90 125
2 89 125
2 92 128
2 90 125
2 92 127
2 93 130
2 94 130
2 96 132
2 95 131
48 95 124
75 103 122
99 110 120
106 112 119
104 109 115
100 106 111
100 105 111
97 102 107
92 96 101
87 92 96
93 97 101
96 101 105
98 105 110
100 105 111
107 112 118
107 112 118
109 115 122
107 114 120
112 118 125
108 114 121
107 114 120
105 110 113
101 98 97
99 90 86
103 93 88
102 93 87
102 92 86
105 94 88
103 93 87
103 92 86
104 94 88
104 94 87
106 95 88
104 92 87
92 77 78
71 43 62
66 20 59
65 19 57
69 23 61
77 59 78
93 91 102
106 110 119
107 113 120
103 107 114
99 101 109
96 93 103
88 84 95
83 78 88
89 84 94
93 89 99
97 93 103
100 99 107
105 108 116
110 115 123
110 115 122
112 117 124
108 114 121
111 117 123
112 116 123
111 118 124
109 114 120
110 116 123
113 106 110
105 68 65
99 37 22
103 35 14
112 38 15
110 37 15
107 36 15
109 37 15
106 36 15
107 36 15
109 37 15
111 38 15
106 40 21
102 74 71
97 90 90
95 96 94
104 107 111
104 108 111
108 112 117
104 109 113
110 116 122
110 116 121
106 112 118
108 113 118
110 112 118
106 111 116
112 118 123
110 115 121
113 118 122
110 115 121
108 114 121
110 116 123
113 119 125
112 118 125
111 116 121
112 118 122
100 107 110
80 93 90
79 94 91
72 88 84
72 88 83
72 87 83
82 96 96
95 103 106
101 108 113
107 114 119
108 115 121
106 113 120
110 117 122
103 110 115
108 114 121
107 114 121
106 113 119
106 113 119
110 116 122
109 116 122
108 114 120
105 112 118
106 113 119
104 110 117
97 99 115
75 67 104
59 28 101
59 23 102
58 22 101
58 23 101
58 23 100
55 22 96
55 22 96
58 23 100
58 23 101
57 23 99
59 36 99
73 69 100
90 93 108
82 89 97
59 67 79
30 41 54
10 36 50
12 41 55
12 41 56
12 60 56
10 75 49
9 84 49
7 93 43
6 99 38
17 103 39
22 102 39
30 105 39
27 102 40
49 102 53
55 105 68
81 110 94
87 109 99
105 115 118
107 113 120
106 113 118
103 109 115
105 112 118
101 108 116
102 109 116
100 107 114
105 111 117
103 109 116
94 102 107
62 76 76
28 60 46
33 80 43
43 97 45
49 109 46
56 123 52
54 118 49
56 121 51
56 122 52
57 124 53
55 119 51
56 121 51
59 120 57
77 121 80
92 117 102
106 118 119
112 118 125
111 117 124
108 114 121
111 117 124
111 118 124
111 117 124
106 114 119
110 117 123
113 119 126
110 117 123
110 117 123
110 118 123
109 116 123
107 114 120
84 93 95
44 62 56
28 53 43
27 54 41
25 51 40
27 54 42
26 54 41
26 51 40
25 50 39
28 53 42
46 65 57
71 83 81
99 109 110
91 101 103
101 110 114
101 110 114
99 108 111
101 111 113
95 115 102
79 120 73
71 120 54
67 120 49
66 118 48
68 122 49
67 120 49
71 127 51
67 119 48
69 124 50
69 123 51
70 123 50
68 119 56
84 117 87
92 114 103
102 111 114
103 110 116
107 114 120
105 111 118
109 116 121
106 111 117
100 100 107
106 99 107
98 92 91
109 98 102
115 98 109
124 103 120
123 102 118
120 99 115
117 98 116
117 96 119
113 95 118
108 98 115
109 109 119
109 115 121
111 118 125
112 119 125
112 119 126
109 115 121
110 118 125
109 116 123
108 115 122
108 115 122
110 117 124
101 110 118
102 111 118
102 111 118
90 102 110
86 102 111
67 89 98
70 96 108
77 99 109
77 96 104
95 107 115
95 104 111
103 111 119
105 112 121
93 102 116
81 90 117
55 69 118
32 52 117
30 52 116
30 52 118
29 51 112
35 58 111
43 68 103
58 89 95
67 100 77
76 114 66
81 121 55
82 122 54
88 126 57
89 123 64
90 114 82
96 112 101
98 105 110
99 105 115
101 107 116
106 111 120
105 111 119
108 114 122
108 114 121
102 108 115
104 109 118
105 110 118
104 109 118
99 105 113
100 106 114
92 95 103
76 75 83
74 70 77
76 71 80
76 71 78
75 71 79
78 73 80
72 69 76
81 81 88
97 101 110
92 95 104
95 94 101
88 71 78
87 56 61
87 53 58
87 53 58
86 52 57
84 52 57
89 54 59
87 53 57
87 65 70
89 79 86
90 96 98
94 103 99
99 108 99
95 100 90
93 97 87
99 105 97
99 107 97
99 109 100
86 96 93
90 98 101
103 108 115
112 118 126
96 99 111
69 65 96
45 26 84
44 25 82
46 26 85
44 25 83
48 27 89
59 50 92
82 81 105
104 108 120
110 115 123
109 115 123
111 117 124
113 118 126
112 117 125
108 113 120
109 115 122
108 116 123
92 111 115
58 102 101
14 96 89
15 100 94
15 98 91
15 99 93
15 98 91
15 99 92
15 90 83
26 93 85
65 90 89
83 94 100
100 105 116
98 102 113
104 110 120
103 110 120
97 102 115
100 106 116
91 97 109
91 96 109
99 104 115
116 120 128
115 121 126
117 123 129
117 123 128
93 108 108
59 83 76
51 75 65
53 65 62
64 71 68
75 83 80
92 100 101
97 104 108
106 113 118
102 102 105
99 77 71
98 54 28
95 50 17
93 49 17
87 54 54
65 61 93
47 63 108
65 77 113
88 97 116
105 112 119
104 111 118
102 108 118
99 88 116
103 59 117
102 33 116
104 38 120
99 64 113
70 67 77
64 72 69
85 91 93
84 88 92
79 80 82
100 102 99
110 115 114
100 109 107
98 109 108
111 123 140
121 133 155
115 123 143
119 132 152
120 130 152
123 137 159
115 123 142
117 128 147
118 129 151
117 129 150
107 112 130
112 122 142
117 126 146
109 117 136
114 122 139
112 119 140
110 117 136
111 118 137
112 120 139
111 117 135
103 108 125
109 112 130
106 111 129
105 108 125
102 102 118
98 90 105
94 93 109
91 80 94
94 86 100
87 70 82
89 72 85
78 53 66
83 67 80
85 67 78
84 62 74
78 62 74
70 40 52
78 41 53
78 47 60
76 33 48
67 45 53
78 48 61
82 51 64
75 55 67
81 56 70
79 56 68
88 73 87
84 69 82
95 81 95
100 87 103
100 91 107
96 83 98
99 87 104
110 104 122
101 103 118
102 102 119
110 106 124
114 120 139
116 123 144
117 123 144
119 128 149
116 125 144
122 134 156
115 119 139
121 129 149
126 135 157
122 133 155
117 128 148
113 120 137
106 119 133
99 117 127
97 113 124
82 110 108
70 98 91
61 92 76
48 89 58
45 86 38
52 93 41
57 98 44
65 102 47
70 104 48
73 107 50
78 110 52
79 109 53
84 114 55
83 112 54
83 112 53
85 115 55
86 116 55
84 113 54
86 115 55
85 115 55
85 115 55
86 116 55
83 112 54
84 114 56
84 113 54
85 114 55
86 115 56
85 114 55
86 116 56
86 115 55
86 115 55
85 115 55
85 114 55
87 117 56
86 116 56
85 114 55
86 116 55
86 116 56
87 117 56
87 116 56
87 117 56
86 115 55
84 114 55
86 116 56
87 117 56
84 114 54
82 112 53
78 111 52
76 110 52
68 105 48
70 106 49
58 100 45
55 98 43
52 94 41
39 89 38
31 91 38
16 83 34
15 79 32
15 80 32
16 84 34
15 81 32
15 82 32
16 85 35
30 88 48
58 101 81
73 106 98
86 114 113
96 117 125
106 124 136
113 133 147
123 141 161
129 146 168
120 131 152
122 133 155
116 126 147
116 123 143
105 106 124
89 83 98
89 78 94
82 63 76
80 61 75
74 42 55
72 32 46
65 9 28
66 9 29
64 9 28
64 9 28
71 10 31
64 9 29
67 9 30
69 9 31
63 9 28
66 9 29
67 9 29
65 9 28
61 8 27
64 9 28
63 8 28
69 10 31
64 9 29
69 9 30
73 10 32
70 10 31
67 9 29
70 10 31
70 9 31
67 9 30
73 10 32
72 10 32
71 10 31
67 9 29
73 10 32
67 9 30
68 10 31
73 10 32
72 10 31
64 9 28
73 10 33
73 18 36
74 36 50
75 42 55
86 61 76
87 72 85
95 87 104
103 99 116
108 107 125
108 110 127
119 128 148
119 128 148
120 132 153
118 130 150
124 140 160
123 140 161
120 135 154
122 138 158
118 133 152
116 130 149
126 142 162
119 134 153
124 141 161
120 136 155
122 137 157
122 139 160
117 132 149
116 130 148
122 138 159
113 126 142
114 129 147
121 137 158
113 128 146
117 132 151
123 138 158
113 127 145
112 125 142
117 132 151
114 128 145
111 125 141
116 132 151
117 132 151
114 128 146
114 129 148
112 126 145
112 127 144
108 122 139
110 125 141
111 126 143
108 123 141
109 123 139
113 128 146
112 127 146
104 116 132
108 122 140
111 123 141
108 123 141
108 123 139
110 125 143
107 121 137
99 111 127
103 117 132
106 120 136
111 127 144
110 123 140
106 118 134
101 114 130
108 122 140
97 114 123
94 122 118
86 127 108
87 131 110
70 128 88
63 131 73
54 132 63
47 142 51
43 139 43
45 144 45
39 127 40
42 135 42
46 148 46
43 139 43
44 141 44
45 145 45
42 137 43
42 135 42
43 138 43
45 144 45
45 145 45
44 140 44
47 151 47
44 142 44
44 141 44
43 140 43
44 140 44
44 139 44
43 137 43
44 140 44
