P3
1600 1
255
67 51 44
65 50 44
64 49 42
64 49 43
64 49 43
65 49 43
68 57 50
73 64 58
93 92 81
105 111 100
105 112 102
136 149 135
130 144 129
139 159 147
140 160 146
144 167 154
139 166 151
132 155 142
122 157 140
103 147 128
89 137 117
98 128 109
81 116 95
86 94 75
107 87 67
109 78 58
103 66 47
114 60 36
107 56 34
109 57 35
106 55 33
100 51 29
98 50 31
104 53 31
106 54 35
103 52 35
113 57 41
108 54 38
122 62 46
120 61 46
123 63 47
116 59 45
118 61 45
121 63 47
119 61 47
124 64 48
121 62 48
125 63 49
120 61 48
122 63 49
119 61 48
127 65 50
122 62 48
125 64 50
118 61 47
117 60 47
125 64 50
124 64 50
124 64 50
125 65 50
120 62 48
119 61 48
122 63 49
116 60 47
120 62 48
122 63 49
121 63 49
129 65 51
113 58 45
122 63 49
122 63 49
120 63 49
125 64 50
128 67 52
119 62 48
119 62 48
120 62 49
116 61 48
120 62 48
122 63 49
114 60 47
118 61 48
119 61 48
111 58 45
122 64 50
111 60 46
115 61 47
122 63 49
113 59 46
127 66 51
114 60 47
112 59 46
117 61 47
115 60 47
116 61 47
108 58 44
109 57 45
119 62 48
115 61 47
117 60 47
113 73 69
118 74 70
117 91 95
117 102 109
126 125 142
121 127 146
128 135 155
126 141 163
131 149 172
132 150 174
130 148 171
130 147 170
133 151 176
127 145 169
128 145 168
129 148 171
128 146 169
130 148 172
133 150 173
133 151 175
135 154 178
129 148 172
128 145 168
131 150 174
133 151 173
132 151 175
133 151 174
130 150 173
133 151 174
130 149 173
131 150 174
131 149 172
130 148 172
133 152 176
131 149 173
129 147 171
128 145 168
132 151 176
129 147 171
131 148 171
130 148 171
129 148 171
128 147 170
133 151 175
129 147 169
135 153 177
131 149 173
131 150 173
131 149 172
131 149 173
132 151 174
133 151 175
129 148 171
130 148 171
133 152 176
135 154 177
132 151 175
131 150 173
128 146 167
132 152 174
135 158 181
138 157 179
138 159 180
142 166 186
140 168 187
141 168 186
141 165 186
143 166 187
144 163 186
142 160 184
142 160 186
141 161 185
139 158 183
140 159 183
138 158 182
135 154 179
135 155 180
139 158 183
136 155 180
132 150 173
135 154 179
135 157 182
136 157 182
136 155 180
138 156 180
135 155 180
137 156 181
134 153 176
137 158 183
137 157 182
135 155 180
137 156 181
139 159 184
133 152 176
136 157 182
135 154 178
133 152 176
135 154 177
133 154 178
134 155 179
138 158 183
134 152 176
137 155 179
140 159 183
143 163 188
141 160 185
145 164 189
146 165 189
142 163 185
147 169 191
133 162 181
132 166 182
131 167 182
114 161 172
98 155 162
93 153 158
82 152 154
52 145 143
43 141 138
40 141 137
39 136 134
40 141 137
41 140 136
41 143 139
39 137 135
40 137 133
41 142 139
39 137 135
38 131 128
40 136 132
37 128 126
49 132 132
66 129 133
81 133 140
90 136 147
106 144 159
116 146 164
128 150 172
131 151 174
132 151 176
134 153 177
130 150 172
129 148 171
131 149 172
131 150 174
128 149 171
130 148 170
130 149 172
131 150 174
134 152 175
127 146 167
132 151 175
131 150 173
132 151 174
128 149 170
127 145 168
131 151 173
127 148 170
127 146 166
132 151 175
128 148 170
126 147 168
133 152 175
127 147 168
125 146 166
125 144 165
123 139 160
117 128 150
116 123 145
112 114 137
102 84 112
89 67 94
86 42 78
86 17 71
83 16 68
81 16 67
87 17 70
93 17 73
87 17 70
88 17 71
90 17 72
90 17 72
92 17 73
84 16 67
86 16 69
91 17 72
92 17 73
92 17 72
88 16 70
95 18 75
91 17 73
94 17 74
92 17 73
92 17 73
90 17 72
93 17 74
89 17 72
94 17 74
90 17 73
92 17 73
91 17 72
93 17 74
87 16 70
91 17 73
92 17 73
89 17 71
96 18 76
95 18 75
93 17 73
91 17 72
94 17 75
93 17 74
95 18 75
91 17 73
91 17 73
97 18 76
87 16 70
88 16 71
95 18 76
92 17 73
92 17 72
91 17 72
93 17 74
96 18 75
90 17 71
92 17 73
90 17 72
89 16 70
92 17 73
90 17 72
92 17 72
90 17 72
88 16 70
89 17 71
87 16 71
88 16 70
91 24 71
85 39 64
87 44 63
84 49 60
84 61 56
82 68 50
73 71 38
74 74 37
71 76 31
79 86 35
75 82 33
81 90 36
68 73 30
75 81 33
83 88 50
91 101 76
104 110 101
107 118 113
128 140 151
124 137 149
135 150 170
141 157 178
145 164 188
144 162 186
138 157 181
136 154 178
136 154 178
139 158 182
132 150 174
136 154 178
131 149 174
133 151 174
135 155 179
139 158 182
133 151 176
134 153 179
130 147 171
132 150 174
132 149 173
136 155 181
133 153 177
131 150 174
131 148 173
128 145 168
134 153 178
130 147 171
134 153 178
134 153 178
132 152 176
135 154 178
134 152 176
134 153 177
135 153 178
133 151 176
134 151 176
135 153 178
134 152 177
132 151 176
137 154 179
138 156 181
134 153 178
134 152 176
135 152 177
133 151 176
133 148 172
138 156 181
136 154 178
140 159 184
130 147 172
134 151 176
136 154 179
132 150 174
137 154 178
137 155 179
135 151 174
135 152 176
129 145 166
127 140 156
133 151 166
121 137 154
129 146 162
124 140 157
124 140 158
124 143 158
127 144 163
127 145 168
123 141 161
125 143 164
126 143 165
126 144 165
128 146 166
128 148 170
125 141 162
121 140 161
122 140 161
125 142 162
123 141 162
122 140 160
127 145 167
121 139 156
127 145 166
125 142 163
126 145 165
126 145 167
126 145 164
121 139 159
123 141 161
125 143 162
123 141 161
124 143 162
127 146 168
124 145 164
125 143 162
120 140 159
124 141 159
118 138 154
124 145 165
119 137 155
123 143 162
120 138 157
119 136 156
123 142 162
119 139 157
123 140 159
119 137 154
123 142 160
128 146 167
122 142 159
121 140 158
114 134 149
123 141 161
115 134 152
118 137 155
115 133 151
106 120 136
113 127 144
100 112 125
96 104 115
89 92 103
87 84 93
77 70 73
79 68 74
70 50 52
65 39 28
66 38 32
66 34 27
66 30 28
66 30 28
64 29 27
65 29 27
65 29 27
66 30 28
66 30 28
66 30 28
66 30 28
66 30 28
65 29 27
66 30 28
66 30 27
66 30 28
65 30 27
65 30 28
66 30 28
65 30 27
64 29 27
66 30 27
65 29 27
66 30 27
64 32 27
65 38 26
64 40 26
65 52 25
68 67 24
66 67 23
67 66 23
67 76 22
66 81 19
65 90 24
62 87 16
66 101 42
72 102 65
69 100 63
78 110 83
71 104 70
66 99 61
79 104 96
77 101 89
75 101 85
79 105 110
95 119 124
107 128 142
118 140 157
137 165 192
154 184 216
154 186 219
168 200 238
169 203 243
170 204 245
170 204 245
169 203 245
168 203 245
167 202 245
167 202 245
166 202 245
166 201 245
165 201 245
164 201 245
164 200 245
164 200 245
163 200 245
163 200 245
162 200 245
162 199 245
162 200 245
162 199 245
161 199 245
161 199 245
161 199 245
161 199 245
161 198 245
160 198 245
161 199 245
161 198 245
161 198 245
160 198 245
161 198 245
162 199 245
163 200 245
162 199 243
164 200 244
164 199 243
161 196 238
164 200 243
161 196 240
164 200 244
162 198 241
161 196 240
159 194 238
159 194 238
162 198 243
162 198 243
163 199 244
157 192 235
160 196 240
161 197 241
162 198 242
162 197 241
162 197 242
165 201 244
167 202 245
165 200 241
157 194 234
154 191 231
142 182 221
135 176 215
113 157 193
97 142 173
89 132 161
89 134 160
89 127 141
90 124 132
89 123 128
89 120 118
88 117 113
94 124 120
92 122 118
90 119 113
89 119 114
88 118 113
92 122 117
92 121 117
89 119 115
86 115 111
87 118 114
94 126 129
93 129 139
96 133 142
94 133 149
98 139 159
98 140 162
102 147 171
102 147 170
102 147 172
98 144 171
102 149 172
107 154 181
104 150 176
105 151 175
104 148 173
104 148 171
108 153 176
104 148 172
107 151 174
110 155 181
114 160 182
106 151 174
107 153 177
115 162 186
109 154 178
114 160 185
112 158 180
111 156 178
109 153 177
114 160 182
113 158 180
110 155 178
114 159 181
111 155 178
115 161 183
108 152 173
114 159 182
114 158 180
115 160 183
117 159 181
122 164 188
134 170 195
120 152 175
142 173 198
151 177 201
157 182 210
170 192 221
177 199 228
180 203 233
184 207 237
181 203 232
186 208 238
186 208 238
183 205 234
192 215 246
193 216 246
190 213 243
191 214 244
195 218 248
196 219 249
194 217 247
195 217 248
194 216 246
199 221 252
193 215 245
195 217 247
196 218 248
196 219 248
192 214 243
197 219 249
198 220 250
199 221 251
197 220 249
199 222 251
195 217 246
201 224 254
198 220 249
199 221 250
198 220 249
201 223 252
200 222 252
201 223 252
200 222 251
198 220 249
201 223 252
203 225 255
201 223 252
202 224 254
200 222 251
200 222 251
202 224 253
200 221 250
200 221 250
201 223 251
202 223 252
202 223 252
203 225 254
201 223 252
201 222 251
204 225 254
202 223 252
202 224 253
204 226 255
199 220 249
202 223 252
202 223 251
202 224 252
203 224 253
202 224 252
202 224 252
199 220 248
204 225 253
202 224 252
202 223 252
204 226 254
201 222 250
203 224 253
204 225 254
204 225 254
202 223 252
200 221 249
203 224 252
202 223 252
203 224 252
204 226 254
204 225 253
203 224 252
204 225 254
204 225 253
201 222 250
202 222 250
205 226 254
204 225 254
201 222 250
200 220 248
202 223 251
203 224 252
202 223 250
204 225 253
201 221 249
201 222 250
202 223 251
204 225 253
201 221 249
204 225 253
202 223 251
205 226 254
205 226 254
204 225 253
205 226 254
203 224 252
206 227 255
204 224 252
204 224 252
204 224 252
204 224 252
204 224 252
205 225 253
205 225 253
205 225 253
205 226 254
205 226 253
204 224 252
201 221 248
205 226 253
205 226 254
182 195 213
113 123 129
84 93 104
92 94 99
50 37 36
60 66 67
82 102 104
77 99 104
79 98 103
100 107 115
96 103 114
42 58 90
46 60 91
85 93 106
100 106 114
107 114 122
107 113 120
104 109 115
103 108 113
117 114 127
127 120 138
132 126 149
131 125 149
134 127 150
130 122 142
100 95 106
44 49 35
31 47 1
32 47 1
32 47 1
34 51 1
33 50 1
57 69 54
91 98 100
111 117 124
107 114 121
109 115 122
106 111 118
107 113 120
111 117 123
105 110 117
107 113 119
106 111 117
86 81 94
68 49 74
60 25 64
59 25 65
58 25 64
59 26 65
56 24 63
67 53 73
85 82 90
78 71 76
74 68 75
83 77 84
92 92 98
97 98 104
96 97 105
83 87 113
51 66 116
28 52 118
29 55 123
28 52 116
29 54 121
28 51 115
29 54 121
29 54 122
27 51 116
28 59 116
27 79 90
26 86 73
27 94 67
48 99 78
94 111 110
108 114 121
108 115 122
109 115 121
110 116 123
111 117 123
111 117 125
112 118 125
109 115 121
112 119 125
109 117 124
112 119 126
109 116 123
113 118 125
109 116 122
110 117 124
114 120 126
111 118 125
110 116 123
111 116 124
96 101 112
57 54 76
40 31 63
38 29 61
40 30 64
39 29 62
39 29 62
39 29 62
41 31 66
40 31 66
40 31 66
37 29 64
32 40 64
42 79 88
30 82 90
78 101 110
102 111 121
93 107 123
32 88 118
2 84 116
2 88 123
2 87 120
2 87 121
2 93 128
2 91 127
2 90 124
2 91 126
2 92 127
2 93 128
50 96 123
81 103 120
100 111 122
105 111 118
109 115 123
107 113 119
106 112 119
107 113 120
109 114 121
107 114 120
107 113 120
111 117 124
109 115 121
110 115 122
107 113 120
111 117 124
109 115 122
112 118 124
109 114 122
110 116 123
106 110 114
98 97 98
98 89 84
94 86 81
96 88 83
96 86 81
97 89 84
96 86 81
102 91 85
104 94 87
102 91 85
105 94 87
97 85 80
83 69 70
67 48 58
59 21 51
58 17 50
66 37 62
86 77 90
101 104 111
104 109 116
101 105 112
101 104 111
98 103 108
92 94 100
89 88 94
84 81 87
80 77 82
89 85 92
94 93 99
102 104 110
107 111 118
108 112 118
106 110 117
108 114 120
107 112 119
110 115 121
111 116 123
110 116 121
109 114 120
109 114 121
110 106 110
107 87 90
101 56 51
97 33 13
103 34 14
101 34 14
106 36 14
101 34 14
101 34 14
104 35 14
101 34 14
100 34 14
101 43 31
102 74 71
104 100 102
107 113 116
109 114 117
107 112 118
108 114 119
108 114 120
106 111 115
111 117 124
110 116 123
112 116 125
120 123 127
114 120 120
91 104 101
89 105 100
105 113 114
104 111 111
116 119 122
122 122 126
121 114 119
117 111 113
109 109 108
109 109 104
112 115 117
94 102 105
92 98 102
91 98 101
85 93 94
88 95 98
89 96 99
90 96 100
96 103 109
106 112 118
102 109 114
105 112 117
105 112 118
104 111 118
109 116 122
103 110 115
104 111 117
108 113 121
108 115 122
108 115 123
107 113 120
105 111 119
108 115 124
106 112 120
96 101 112
78 73 104
70 58 100
57 27 97
51 20 89
54 21 95
49 20 86
53 21 92
52 21 93
53 21 93
52 20 91
51 26 86
61 48 93
77 76 97
91 95 105
94 99 109
85 92 100
61 68 77
31 45 57
11 37 45
10 61 49
7 77 39
11 96 39
39 100 37
50 102 36
64 105 36
78 110 37
79 107 35
84 111 36
81 109 36
84 110 36
74 106 35
72 105 42
77 107 65
93 110 95
108 117 121
104 111 119
109 116 122
109 115 122
107 114 121
108 114 122
104 111 119
108 115 124
106 113 122
99 106 114
72 85 86
51 84 59
43 96 43
51 112 46
50 109 46
52 113 47
51 112 47
52 112 47
55 118 50
52 111 48
53 113 48
54 116 49
54 115 49
54 115 50
68 114 72
93 113 103
106 115 119
107 114 120
109 115 122
108 115 122
112 119 126
111 118 125
110 117 123
111 118 126
111 116 123
112 118 125
109 115 122
110 117 122
109 116 122
106 113 119
93 102 107
85 94 96
59 72 70
31 48 42
21 44 34
22 46 35
22 45 34
27 48 40
42 59 54
59 71 69
84 93 95
98 107 109
106 114 118
102 113 115
103 112 117
101 110 114
100 111 113
95 111 103
86 113 86
71 112 62
65 116 47
67 119 48
64 112 45
61 112 45
65 116 46
66 119 48
65 117 47
65 116 47
66 118 47
67 119 48
76 113 71
85 114 87
98 111 109
107 114 118
105 114 118
108 116 120
106 113 119
109 118 123
108 115 121
103 106 113
100 96 107
94 81 96
95 82 97
92 80 95
98 82 100
99 84 102
104 86 105
101 83 102
104 87 107
102 94 110
107 106 117
108 111 119
112 118 125
109 116 123
110 116 122
111 117 124
108 114 122
105 114 121
107 114 121
107 116 123
111 117 124
102 111 119
101 111 118
99 109 117
94 104 110
96 105 112
104 113 119
99 106 113
108 116 122
108 115 121
104 112 118
108 116 121
107 115 122
105 113 121
105 113 122
104 112 120
89 97 116
56 68 111
27 46 106
27 47 105
28 49 110
41 64 103
56 86 91
69 104 69
82 121 49
84 124 41
82 120 40
83 123 42
84 124 42
85 125 42
85 127 43
83 124 42
88 119 66
93 110 94
104 111 114
108 114 122
105 111 120
106 111 120
105 111 119
106 112 120
108 113 120
100 106 113
108 113 120
104 109 117
103 109 116
99 104 112
93 98 106
89 91 98
73 73 80
61 59 65
63 60 66
67 66 72
75 75 82
85 88 94
89 92 101
100 102 110
89 81 88
92 75 81
83 52 55
84 51 55
83 50 55
82 50 55
82 50 54
86 52 56
84 51 56
85 52 56
82 53 57
88 73 77
98 98 98
98 108 103
96 106 98
95 104 96
97 106 98
96 106 98
97 108 101
92 101 94
93 100 101
97 103 108
105 110 117
106 112 120
99 104 115
71 71 90
44 32 74
39 22 73
41 24 77
44 25 82
53 46 81
81 80 102
101 105 116
112 118 125
110 115 122
110 116 124
109 116 124
108 114 122
108 114 121
110 117 123
106 112 120
102 112 118
75 103 104
37 98 92
14 96 90
15 98 91
14 94 87
14 96 89
14 92 86
14 93 86
38 95 92
62 91 92
85 95 99
90 97 104
95 101 110
100 108 114
102 109 116
106 113 121
99 105 115
101 109 116
104 110 116
110 116 123
118 123 130
110 116 122
112 118 124
114 120 128
113 118 125
111 118 123
98 107 110
93 101 105
92 100 103
90 99 101
98 106 111
101 108 112
109 116 122
103 106 110
97 82 77
93 59 44
91 48 16
92 48 16
91 48 16
82 49 48
64 58 90
49 65 112
74 84 114
94 102 115
103 110 117
105 111 119
104 105 118
97 66 112
96 39 109
102 33 114
101 43 115
91 71 102
88 90 97
90 97 99
98 104 109
94 98 102
107 110 111
108 111 108
112 117 117
91 102 96
103 113 117
116 128 145
122 136 157
120 132 153
120 133 151
118 128 150
121 134 155
112 119 137
115 127 147
121 134 155
111 120 139
115 126 145
105 112 130
115 125 144
112 121 142
108 116 133
114 122 142
101 106 122
110 118 137
109 117 136
113 118 137
108 115 133
105 109 126
109 111 128
106 111 129
104 111 128
101 100 116
99 104 119
104 104 121
91 84 97
92 89 104
90 86 99
87 83 99
83 72 85
87 79 91
85 81 94
87 81 94
95 90 106
86 76 86
92 79 94
90 86 99
82 76 88
80 72 85
85 74 88
92 89 103
92 89 102
93 83 98
92 86 101
90 88 102
97 97 113
96 91 106
96 91 106
105 103 120
107 107 125
101 108 124
101 99 116
107 111 129
108 112 130
99 102 119
111 116 136
109 114 132
115 123 143
111 116 136
115 127 148
121 128 149
115 119 138
121 131 151
116 124 144
115 122 142
111 118 137
106 116 131
108 124 137
94 114 118
90 110 112
86 110 105
62 93 67
70 103 69
68 101 50
67 100 46
73 105 50
76 106 51
82 112 53
82 112 53
83 111 53
85 115 55
85 114 55
83 113 54
83 111 54
83 112 54
83 113 54
84 113 54
84 114 55
85 113 55
84 114 55
86 115 55
85 114 55
85 114 54
86 115 55
85 115 55
83 112 54
84 113 54
85 115 55
87 117 56
86 115 55
84 114 55
86 115 55
85 113 54
86 115 55
84 113 54
84 113 54
86 116 56
85 114 55
85 114 55
87 117 56
87 117 56
86 116 56
85 115 55
84 113 54
83 112 54
86 116 56
86 116 56
85 115 55
81 112 53
80 111 53
75 111 52
71 107 49
60 99 45
56 96 43
50 93 41
46 94 41
34 83 35
16 80 32
15 78 31
15 80 32
15 79 32
27 83 44
41 87 60
47 91 67
74 107 99
83 110 109
107 131 141
109 128 142
126 142 163
124 141 162
129 144 167
129 145 169
127 141 164
123 137 159
112 122 142
112 116 136
111 119 139
107 113 132
94 90 108
92 85 101
87 72 88
82 66 79
73 42 55
70 46 60
72 28 43
63 8 27
63 9 28
64 9 28
65 9 28
64 8 28
64 9 28
62 8 27
64 9 28
61 8 27
62 9 27
61 8 27
62 8 27
60 8 26
67 9 29
62 8 27
68 9 30
71 10 31
66 9 29
65 9 29
66 9 29
69 10 31
63 9 28
65 9 29
68 9 30
68 9 30
66 9 29
66 9 29
64 9 28
67 9 30
68 18 34
66 23 38
75 36 50
82 57 71
89 73 89
87 67 82
91 83 98
103 102 121
106 104 122
107 111 130
117 125 146
124 135 157
115 126 145
127 144 166
128 145 167
129 145 167
125 140 162
125 140 161
130 149 172
126 143 167
125 142 164
126 144 166
122 138 159
123 139 160
123 139 161
122 139 157
122 137 158
127 144 166
123 140 162
123 139 161
128 145 168
119 136 155
122 138 158
121 137 159
120 136 157
125 140 160
119 135 155
124 141 162
122 138 159
121 137 158
124 140 161
119 135 155
120 137 158
120 135 156
121 138 159
118 134 155
118 133 152
117 131 151
118 135 155
118 135 156
109 124 141
121 138 159
119 135 155
114 129 148
108 124 141
116 132 153
117 133 151
118 134 154
115 130 149
119 135 156
115 131 151
115 131 149
113 129 147
109 123 140
105 120 137
115 131 149
108 123 139
112 129 147
108 123 139
100 116 130
101 122 130
95 129 119
82 118 105
81 128 102
63 123 78
58 125 71
48 129 53
41 132 41
42 137 43
43 138 43
41 131 41
43 139 43
43 139 44
42 136 42
43 138 43
42 135 42
44 141 44
43 140 44
42 137 43
42 136 43
43 140 44
44 141 44
43 140 44
45 144 45
45 145 45
42 136 43
41 132 41
42 135 42
46 147 46
42 136 42
