P3
1600 1
255
63 48 42
64 49 42
63 48 42
64 48 42
62 47 41
61 46 40
63 48 42
62 47 41
61 47 41
62 47 41
64 53 46
75 71 65
81 83 77
89 93 87
106 119 112
105 116 110
110 125 118
118 132 126
115 132 124
115 131 122
111 124 116
112 125 117
108 118 110
108 112 102
106 101 92
97 80 71
91 63 51
94 61 47
88 51 36
90 45 27
88 45 27
87 44 26
82 46 33
92 58 52
84 45 31
89 56 49
87 47 36
97 51 39
107 61 53
107 54 40
103 53 39
112 57 42
117 60 45
105 54 40
119 61 46
109 55 42
108 56 43
108 55 43
107 54 41
116 59 45
113 58 45
115 59 46
116 59 46
115 58 46
115 59 45
113 58 45
118 60 47
111 57 44
112 58 45
115 59 46
112 57 44
118 61 47
111 57 44
116 59 46
114 58 46
110 56 44
118 60 47
110 57 44
111 57 45
112 58 45
105 56 43
109 56 44
109 57 45
109 56 44
114 58 46
105 55 43
111 57 44
109 56 44
111 58 45
116 59 46
112 57 45
109 56 44
119 61 48
109 57 45
110 57 45
107 56 43
114 59 46
104 55 42
112 58 45
109 56 44
109 57 45
106 56 43
110 56 44
100 52 41
108 57 44
108 56 43
112 58 45
99 54 42
106 59 49
110 66 61
112 94 101
107 95 105
112 114 128
114 112 127
113 119 134
115 127 146
113 128 147
116 133 154
115 131 150
120 138 159
118 134 154
118 135 155
120 137 158
124 141 163
118 135 157
121 139 161
121 139 161
121 139 161
112 129 149
120 136 158
122 141 164
121 138 159
125 143 163
129 147 170
122 138 159
125 142 163
122 139 160
125 143 165
123 141 163
122 141 163
127 146 168
124 142 164
125 144 168
129 147 170
125 143 165
127 146 169
127 145 168
125 143 165
130 147 170
130 149 172
129 147 170
130 148 171
124 142 165
129 147 171
123 141 163
123 142 163
130 148 170
129 148 172
132 151 174
127 146 169
128 146 169
131 149 173
128 145 166
131 150 172
131 149 173
140 157 180
139 157 179
138 156 179
139 158 181
154 172 195
148 167 191
140 158 181
142 161 186
140 159 184
136 155 180
140 158 182
137 157 181
131 149 173
139 158 183
131 151 175
134 153 177
133 153 178
133 152 176
135 155 180
138 157 183
133 152 176
132 152 177
133 151 174
132 152 175
131 152 175
131 153 177
132 151 175
130 151 174
135 153 178
132 151 173
134 154 178
133 151 175
137 157 184
137 156 182
127 147 171
132 152 176
137 156 181
130 150 173
132 153 176
131 152 176
132 153 178
136 156 180
135 154 178
131 152 175
135 154 178
129 149 173
133 152 177
131 150 174
131 150 173
136 155 180
132 152 175
137 155 179
136 154 178
134 153 177
138 158 183
135 155 178
138 156 180
137 155 180
136 154 178
138 154 177
138 156 179
143 161 184
140 160 181
126 151 170
111 150 160
97 140 150
98 144 153
81 141 146
60 135 133
39 129 127
38 124 122
37 129 126
38 131 127
36 122 120
35 122 120
36 124 122
57 130 130
63 116 122
83 126 136
96 137 150
109 136 154
112 143 160
124 145 166
132 151 174
132 151 175
133 152 176
132 151 174
130 148 172
133 152 174
130 148 170
131 150 174
131 150 174
129 148 171
132 151 174
133 151 174
132 151 174
133 151 173
132 149 172
131 149 171
131 149 171
132 152 175
134 152 176
133 152 175
132 151 174
132 151 173
131 149 172
129 148 170
130 147 170
133 151 175
131 150 172
132 149 171
129 147 169
121 135 157
113 123 143
118 127 150
100 96 120
93 84 108
85 59 86
84 31 73
76 15 62
77 15 63
82 16 66
86 16 69
84 16 68
81 15 66
83 16 67
84 16 67
85 16 67
86 16 69
83 16 67
82 16 66
92 17 72
85 16 68
86 16 68
86 16 69
89 17 71
95 18 75
90 17 71
94 17 74
89 17 71
80 15 63
86 16 68
87 16 69
86 16 68
88 16 70
87 16 69
88 16 70
87 16 69
87 16 69
87 27 81
85 31 86
89 25 80
88 38 98
82 44 105
79 51 116
81 54 122
78 56 125
80 53 120
73 67 144
70 65 140
79 55 124
75 62 136
75 63 137
80 64 140
77 59 130
76 64 138
71 64 139
71 65 140
78 61 134
73 61 134
78 53 121
80 49 112
82 43 102
79 40 98
83 42 101
83 25 78
81 30 84
84 20 72
86 21 72
85 16 67
87 20 67
83 35 63
83 40 61
76 40 55
75 55 49
75 66 45
72 65 42
76 79 37
61 64 26
65 70 29
67 72 30
68 73 30
79 84 55
86 92 78
94 100 98
108 114 121
120 130 143
133 147 165
138 151 176
138 154 176
135 153 176
128 145 168
128 146 169
137 155 179
132 149 172
132 151 172
134 152 175
135 153 176
136 154 177
137 156 180
136 154 177
132 150 173
137 155 178
134 152 175
130 149 173
132 150 173
132 150 173
129 147 170
133 150 174
132 150 173
136 155 180
132 150 173
134 154 177
132 150 174
131 149 172
129 147 169
131 147 171
130 149 173
130 149 171
132 150 173
130 148 170
131 149 173
131 147 171
129 147 171
137 154 179
128 144 166
128 143 165
132 149 173
123 137 159
127 143 166
129 145 168
122 138 163
126 141 164
128 144 166
127 144 166
127 142 166
121 136 158
126 141 164
119 132 155
123 137 160
121 136 159
126 140 162
126 141 164
128 142 164
120 134 156
114 128 148
123 136 157
124 140 161
129 143 164
122 134 156
125 139 160
122 136 158
126 143 164
128 145 163
123 141 158
129 147 164
129 150 167
126 145 163
127 146 164
130 149 173
131 150 172
124 144 163
127 147 169
129 148 169
129 146 168
125 143 163
128 147 166
126 145 162
125 144 163
125 143 159
127 146 166
131 150 171
124 143 162
129 149 166
126 144 164
122 142 157
126 145 164
125 146 164
127 146 165
124 143 161
122 141 158
120 138 155
122 142 157
124 143 160
126 147 165
124 145 162
126 147 164
121 141 157
118 140 153
119 141 157
123 144 162
123 143 160
120 140 154
117 135 151
120 140 157
120 139 156
118 135 149
107 119 132
97 103 114
92 95 105
85 81 87
76 60 65
69 48 51
65 30 27
64 29 27
64 29 27
63 29 27
63 29 27
63 29 27
62 28 26
62 28 26
63 29 27
63 29 27
63 29 27
64 29 27
64 29 27
63 29 27
64 29 27
63 29 27
64 29 27
65 29 27
62 28 26
64 29 26
64 29 27
61 28 26
64 29 27
66 30 27
64 29 27
65 29 27
64 29 27
62 28 26
62 28 26
64 29 27
65 29 27
64 29 26
64 29 27
61 28 25
65 29 27
64 29 26
63 28 26
63 28 26
63 28 26
64 29 26
62 28 26
63 28 26
62 28 26
64 29 26
62 28 26
63 28 26
63 28 26
63 28 26
63 28 26
63 29 27
67 45 44
69 51 54
69 56 54
80 73 77
77 85 92
84 96 103
84 104 110
94 111 123
84 105 118
76 93 102
84 98 119
88 103 121
79 88 106
90 108 129
95 107 132
113 136 162
126 150 180
119 147 177
133 163 196
134 159 194
132 159 194
135 163 197
139 164 201
138 165 201
140 168 205
142 172 209
141 170 207
146 175 216
147 177 221
154 185 225
141 171 215
133 160 199
128 153 190
128 151 186
120 140 171
123 142 170
118 137 164
130 152 181
126 146 172
132 156 185
141 170 196
148 178 211
150 179 215
148 178 211
148 176 210
136 162 187
129 161 178
121 155 172
130 159 186
123 157 176
129 164 192
131 164 196
137 169 210
149 183 228
149 185 229
150 184 228
149 184 228
144 176 217
136 163 201
137 164 201
138 167 206
133 162 200
130 158 196
125 155 190
132 165 200
126 161 191
107 138 158
105 139 154
99 130 139
96 129 139
87 121 126
83 122 134
83 126 143
81 121 143
88 130 162
80 124 154
77 118 146
77 117 139
81 116 132
74 106 117
72 101 107
70 96 94
71 96 88
72 98 90
71 96 89
68 93 85
68 93 86
74 99 93
65 88 81
73 98 91
68 93 85
73 98 94
69 95 93
73 102 107
81 110 120
86 124 139
81 116 133
93 134 154
87 128 147
97 141 167
94 135 158
91 132 154
96 139 161
94 136 159
93 134 158
91 131 154
95 135 157
100 142 164
97 139 162
99 141 165
99 141 163
102 145 167
100 142 166
108 151 174
108 153 177
100 142 165
104 147 170
105 148 169
106 148 171
107 151 173
108 151 174
104 148 167
105 147 169
104 147 168
103 143 164
107 150 173
106 148 169
103 144 166
108 152 174
108 152 174
105 146 167
105 146 168
101 142 160
106 148 170
104 145 168
106 149 168
105 146 166
100 142 163
112 151 173
119 155 179
129 158 182
128 157 179
147 174 201
143 170 194
157 183 210
171 195 223
176 199 230
184 207 238
181 205 235
180 203 234
182 205 235
182 205 235
186 210 240
185 208 239
187 211 241
190 213 244
186 209 239
189 212 243
189 211 242
194 218 249
192 215 245
190 213 244
192 215 246
192 215 245
192 215 246
193 216 246
196 219 250
190 212 242
194 217 247
196 219 249
196 219 250
194 217 248
195 217 248
195 218 248
197 219 250
193 216 246
197 220 250
197 220 250
197 220 250
196 219 249
200 222 253
200 223 253
197 219 249
200 223 253
199 222 252
197 219 249
198 221 251
198 221 251
201 223 254
201 224 254
199 221 251
200 223 253
202 224 254
200 222 252
200 222 252
200 222 252
200 222 251
199 221 251
200 221 251
202 224 253
202 224 254
201 223 252
197 220 248
200 222 251
202 225 254
200 222 252
201 223 253
199 221 250
200 222 251
203 225 254
198 220 249
203 225 255
203 225 255
201 223 252
200 222 251
201 223 251
203 224 254
200 222 251
202 224 253
201 223 252
201 223 252
203 225 254
202 224 253
201 223 252
202 224 253
202 224 253
202 224 253
202 224 253
204 226 255
203 224 253
202 223 252
203 225 254
203 224 253
204 225 254
202 223 252
202 223 252
203 225 254
203 225 254
200 221 249
199 221 249
201 222 251
203 224 253
202 223 252
201 223 251
203 224 253
203 224 253
202 223 252
201 222 251
203 225 254
201 222 250
201 222 251
203 224 253
203 224 253
205 227 255
203 224 253
203 224 253
204 226 255
202 223 252
203 225 253
190 208 232
134 144 155
91 95 104
101 102 113
88 90 95
49 45 47
76 88 93
76 101 106
74 95 101
91 102 109
98 106 115
101 109 117
102 108 115
107 113 121
103 109 117
107 114 120
108 114 120
106 112 119
104 109 114
102 104 112
94 89 104
98 92 108
84 78 91
86 82 90
87 83 95
81 79 93
85 101 78
96 132 63
102 151 23
100 150 19
101 150 19
102 152 19
103 151 24
100 129 80
101 112 109
105 112 118
100 106 112
104 109 115
104 109 115
102 107 115
106 112 119
105 110 117
105 109 117
98 101 109
98 102 109
90 93 101
89 91 99
94 97 105
99 102 109
100 104 111
95 99 106
101 105 112
99 103 110
104 110 117
106 112 118
102 107 114
107 113 120
103 109 118
86 94 113
53 66 105
25 45 99
24 44 97
25 45 101
25 46 103
24 44 97
25 46 103
25 47 106
25 46 103
25 46 102
41 58 108
69 81 101
89 97 101
99 107 112
102 109 114
102 110 115
105 112 119
104 112 118
106 113 119
105 114 119
105 112 118
107 113 120
109 115 122
109 115 122
110 116 121
108 115 122
106 112 119
106 113 120
108 114 121
107 113 120
104 109 116
105 112 119
103 108 115
100 106 113
101 107 114
101 107 114
86 90 97
69 71 82
48 46 63
32 27 49
29 22 47
29 22 47
31 24 51
31 25 49
40 39 54
84 88 95
96 100 106
96 102 109
94 100 108
92 98 106
95 102 110
97 104 112
75 87 100
52 80 99
19 73 99
1 69 97
2 70 97
2 72 100
2 73 100
2 73 102
2 77 106
21 76 105
69 92 109
85 99 113
99 105 113
105 112 119
101 108 117
104 111 119
104 110 118
106 112 120
108 114 122
106 113 121
108 115 122
108 114 121
107 113 120
109 115 122
109 114 121
107 112 119
107 112 119
105 110 117
104 110 117
102 108 114
104 108 113
96 100 105
99 103 108
88 90 93
82 84 88
85 86 88
76 77 81
71 72 73
80 80 83
71 71 73
71 70 72
88 90 93
86 88 92
99 102 107
92 94 99
92 94 99
98 102 108
96 100 107
105 110 117
102 106 112
106 111 117
105 110 117
107 113 119
106 113 120
109 113 120
105 111 118
107 112 119
110 114 121
107 112 119
111 116 123
111 115 122
113 118 125
108 113 120
109 114 120
107 112 118
111 116 123
112 116 123
109 113 119
107 109 115
108 113 120
109 114 120
105 107 113
106 109 115
105 108 114
103 106 113
78 78 94
56 56 84
19 19 74
9 8 76
9 8 74
9 9 77
9 8 76
9 8 75
9 8 75
9 8 74
9 8 75
9 8 75
9 8 76
9 8 74
9 9 78
9 8 74
38 40 82
60 62 92
86 90 105
109 113 120
110 115 122
111 115 121
113 118 125
109 114 120
113 118 125
109 116 123
109 114 121
111 116 123
108 114 120
112 119 125
112 118 124
115 120 126
113 118 125
111 117 122
111 117 124
110 116 123
112 119 125
112 117 124
112 118 125
112 118 125
113 119 126
110 116 123
111 117 124
112 118 125
108 114 122
110 116 123
111 116 123
112 119 125
112 118 126
111 117 124
110 115 122
112 118 125
110 116 124
107 112 119
109 114 121
111 117 125
106 110 119
107 112 120
108 114 121
107 113 120
104 109 117
103 109 116
104 110 117
103 109 116
103 109 118
106 111 119
106 111 119
102 108 115
102 108 116
101 108 113
106 113 119
105 112 119
106 112 119
104 110 117
102 108 115
100 107 109
91 101 83
86 97 57
83 96 30
81 94 29
81 94 29
83 96 30
83 96 29
79 91 28
79 90 28
75 86 27
79 91 28
75 88 27
76 88 27
76 88 27
82 94 32
73 76 41
75 66 53
75 53 61
74 48 64
72 46 63
75 47 65
74 47 65
74 46 65
73 45 63
72 45 62
73 45 63
72 45 62
74 46 64
72 44 62
74 45 63
70 48 61
62 64 53
52 70 46
42 75 37
48 86 47
48 81 50
58 87 62
76 95 84
89 103 98
91 101 102
104 111 116
102 110 113
104 111 116
105 112 117
103 111 115
105 113 119
104 112 117
107 113 119
109 116 121
109 116 122
106 113 119
113 119 125
103 111 116
110 117 123
111 118 123
110 117 123
109 116 122
109 116 122
110 117 122
111 118 123
110 117 123
107 114 119
107 114 120
111 118 124
109 117 123
107 114 120
105 113 117
102 111 114
103 110 114
103 111 114
99 107 110
100 108 110
99 108 110
87 96 94
88 97 95
88 97 96
73 85 77
69 81 73
74 86 77
75 86 77
77 89 81
81 91 85
81 90 87
78 96 89
76 105 94
62 117 93
51 122 92
52 126 94
50 119 90
51 123 92
53 127 95
51 123 92
52 126 95
51 122 92
51 126 95
51 126 94
53 125 95
51 123 92
48 118 89
51 123 92
65 118 95
92 112 108
106 113 119
110 115 122
110 116 123
110 116 123
110 116 123
111 116 124
112 118 125
110 116 121
111 117 123
112 118 125
110 116 122
113 119 126
110 118 121
108 117 119
105 113 115
110 117 122
116 122 126
113 112 117
119 103 102
123 101 98
123 91 84
125 84 73
126 79 65
129 78 61
128 77 61
129 77 60
128 76 60
128 82 69
123 91 84
117 101 99
108 106 110
103 109 115
95 109 101
75 102 64
64 98 35
67 99 32
66 98 32
64 98 31
68 101 33
67 96 31
69 100 33
70 101 33
74 108 36
72 106 35
68 100 33
73 100 54
86 109 78
103 112 112
109 115 121
112 118 124
110 117 123
108 114 121
112 118 124
110 116 123
110 116 122
110 116 123
111 117 124
111 117 122
109 116 123
109 114 120
107 114 121
111 117 124
109 115 121
110 115 121
108 114 121
110 117 124
110 116 123
104 107 113
90 86 91
74 51 54
70 43 46
67 40 44
72 43 47
67 40 43
72 44 48
70 42 45
68 40 44
68 42 46
75 54 57
89 83 88
104 108 113
107 113 118
109 115 120
105 111 115
101 107 112
101 106 112
99 105 108
105 110 117
106 112 116
109 115 120
108 114 120
108 114 122
106 113 120
107 113 120
107 112 119
103 110 113
91 98 92
76 87 63
67 80 36
66 80 26
62 75 24
65 79 26
64 78 25
63 77 25
65 79 26
65 79 25
72 84 50
89 99 90
96 105 108
105 112 118
91 102 107
83 97 100
30 72 70
10 70 66
11 74 68
16 77 72
47 82 80
71 93 96
94 105 110
102 111 116
105 113 120
106 114 120
105 113 119
107 114 120
108 115 121
109 116 123
103 112 119
106 114 120
108 115 121
104 109 115
107 107 111
81 71 70
67 44 34
65 39 26
64 39 26
66 43 31
85 80 80
101 105 111
106 112 119
106 113 121
108 114 122
109 116 123
100 101 106
90 77 77
87 48 26
79 41 14
80 42 14
82 43 14
78 41 17
77 48 53
65 58 80
80 87 107
100 106 117
111 116 124
109 116 124
107 113 120
104 93 115
95 47 106
90 29 100
94 31 105
97 61 110
106 102 120
109 114 122
111 117 123
113 119 124
109 113 116
109 111 110
103 106 103
100 106 106
86 98 94
118 134 149
129 148 169
127 146 168
126 145 166
127 142 165
130 147 169
129 145 168
125 141 162
129 147 170
128 144 167
127 143 166
128 145 168
127 142 163
127 143 165
128 147 170
129 143 166
124 142 163
127 144 166
127 143 165
131 149 172
129 145 166
129 145 167
128 140 163
126 142 164
127 146 168
128 140 162
126 141 162
126 142 164
124 138 160
127 143 166
129 144 167
127 142 165
130 147 168
125 138 160
128 144 169
130 148 171
122 134 156
125 142 164
124 136 156
130 147 170
129 142 165
128 143 166
126 142 166
125 138 159
131 146 169
129 144 168
127 143 165
126 139 161
129 143 165
128 144 165
123 137 159
127 145 168
129 146 169
129 144 168
125 139 161
129 145 168
127 141 164
128 143 165
124 138 160
125 139 161
128 143 164
132 149 173
130 146 168
124 134 154
128 143 166
125 139 162
126 138 160
129 143 164
119 136 150
117 137 144
109 126 126
102 120 112
90 113 87
88 113 80
81 109 55
79 106 51
82 109 52
81 110 52
81 109 52
78 105 51
80 106 51
80 108 52
79 106 51
82 110 53
82 110 53
84 113 54
81 108 52
82 109 52
82 110 53
82 110 52
81 107 51
81 109 53
81 108 51
82 110 53
83 111 53
82 109 53
82 110 52
81 108 52
81 108 52
83 111 52
81 108 52
85 115 55
83 111 53
85 113 54
82 109 52
82 109 52
82 110 53
82 109 52
82 110 53
82 109 53
84 113 54
83 109 52
86 114 55
86 114 54
85 113 54
81 109 52
82 110 52
86 114 55
84 113 54
82 109 53
84 113 54
83 112 54
85 113 54
85 113 54
85 113 54
84 112 54
85 113 54
85 114 54
85 114 54
83 111 53
86 113 53
83 111 53
81 111 55
79 110 63
79 109 70
85 107 89
84 105 97
95 115 114
100 120 129
109 127 142
111 123 142
109 120 138
113 124 143
115 126 146
115 127 146
107 114 134
113 126 146
113 125 144
107 116 134
108 117 135
103 112 129
111 122 141
108 117 135
102 113 130
105 114 131
100 111 126
100 108 125
94 99 114
99 104 121
91 95 109
82 81 94
75 73 84
84 85 98
80 78 90
70 66 76
74 72 83
60 58 66
65 53 63
67 59 68
64 51 60
58 45 54
62 54 61
62 52 59
61 46 54
60 50 57
56 42 51
52 41 47
58 44 52
66 54 64
64 56 65
61 46 54
60 51 60
65 54 65
72 66 77
81 77 88
73 66 77
77 73 87
88 90 105
93 96 112
99 104 121
104 111 129
107 118 136
106 115 132
112 123 143
107 118 135
110 121 140
116 131 150
119 132 152
118 133 154
117 129 149
112 123 143
116 129 149
124 138 159
114 127 146
121 136 158
115 128 148
112 124 143
117 130 151
120 134 155
124 138 160
122 137 159
122 136 158
120 137 157
125 139 161
125 139 161
125 142 164
127 142 164
121 135 157
123 138 160
125 141 164
126 143 164
126 142 165
127 145 169
130 148 171
123 139 160
120 137 159
127 143 165
121 137 159
129 147 170
127 144 167
124 140 162
127 144 166
128 146 170
133 151 175
125 141 164
125 141 163
126 143 165
127 144 166
129 146 169
127 144 166
122 140 163
128 146 169
130 148 172
124 141 161
134 153 177
124 139 160
125 143 164
125 142 165
125 142 164
123 140 163
129 146 169
125 143 165
125 142 164
128 146 170
126 142 163
130 148 172
130 149 172
128 146 169
123 141 162
122 145 161
116 142 152
109 136 141
96 135 123
83 137 107
74 136 92
53 125 61
51 127 58
40 130 40
38 122 38
41 131 41
40 131 41
40 129 40
41 132 41
39 127 40
40 131 41
40 130 40
40 131 41
41 131 41
40 131 41
38 123 38
42 134 42
42 134 42
39 126 39
39 126 39
43 138 43
40 131 41
41 132 41
42 134 42
40 130 40
