P3
1600 1
255
62 47 41
63 48 42
63 48 42
63 47 41
62 47 41
62 48 42
63 48 42
63 48 41
60 46 40
61 47 41
60 47 40
65 56 50
76 74 68
84 89 82
95 102 95
105 118 111
108 120 112
115 129 122
117 133 124
112 125 116
112 126 118
109 123 115
99 105 98
99 97 89
96 92 83
94 86 75
91 66 55
91 65 53
94 59 44
80 47 34
85 46 29
86 57 46
88 59 52
91 57 47
94 70 68
94 67 65
89 58 52
97 65 60
99 62 59
98 57 50
107 56 44
105 54 41
110 56 42
105 54 40
111 57 44
110 57 44
109 55 43
114 58 44
107 55 42
113 58 44
112 57 43
110 56 43
115 59 45
111 57 44
120 61 48
116 59 46
110 56 44
118 60 47
113 57 45
118 60 47
105 54 42
113 58 45
108 56 43
112 57 45
115 59 46
114 58 45
111 56 44
113 58 45
108 56 43
113 58 45
113 58 45
109 56 44
110 57 44
115 59 46
111 57 44
108 56 44
109 58 45
112 59 45
108 56 44
114 59 46
112 58 45
107 56 43
108 56 43
113 58 45
110 58 45
104 55 42
112 58 46
110 57 45
115 59 46
108 57 44
112 58 45
106 55 43
102 55 42
108 57 45
103 53 42
104 56 43
108 55 43
101 53 41
105 60 52
101 73 75
108 82 86
110 98 107
112 104 116
113 117 131
111 121 138
107 120 137
120 137 157
107 122 139
114 131 151
118 135 155
113 131 151
113 131 151
114 132 152
113 131 150
111 128 149
116 134 154
120 138 160
120 138 158
125 143 163
121 139 160
117 134 154
124 141 162
123 141 162
120 138 159
118 136 156
120 138 159
124 142 163
125 144 167
125 143 165
125 143 165
129 148 172
125 143 166
126 144 165
124 141 163
126 144 166
125 144 166
127 145 167
126 143 166
126 143 165
121 138 161
123 141 162
128 146 169
131 150 174
129 148 171
126 145 168
126 144 167
130 148 171
128 146 168
129 148 172
126 145 169
130 150 174
133 150 173
127 143 164
133 151 173
134 153 175
142 160 184
144 161 184
146 164 187
150 166 190
141 159 183
140 158 182
141 160 185
134 152 176
141 160 185
135 154 178
134 153 177
137 157 181
134 153 178
136 156 181
139 158 184
134 153 177
132 152 176
132 151 174
135 154 177
133 153 177
131 152 177
128 147 170
132 151 175
138 158 183
134 153 176
132 153 176
134 152 176
138 158 184
136 156 182
129 148 171
132 152 177
135 154 179
131 150 173
134 155 179
132 153 177
131 152 176
132 153 177
134 152 176
134 154 177
129 148 172
134 154 177
132 152 175
133 152 176
127 147 170
135 154 179
130 150 173
135 154 179
135 155 178
135 153 178
137 157 182
136 156 181
135 155 178
131 151 174
136 155 178
138 156 181
133 151 174
137 156 182
138 156 181
138 157 182
138 156 179
134 152 175
138 155 179
142 159 181
132 152 173
123 149 166
116 149 164
96 144 151
78 136 140
77 139 143
53 129 129
38 129 126
37 129 125
36 124 121
35 120 118
35 121 119
33 112 110
52 121 123
64 129 132
81 129 138
92 138 148
104 138 152
117 145 163
127 152 173
129 149 170
131 148 171
132 151 175
130 150 174
128 147 169
133 152 175
132 150 172
134 152 175
131 148 171
132 149 173
131 149 172
130 150 172
135 153 177
134 153 177
131 151 173
133 151 174
134 153 176
131 149 172
128 146 168
131 148 171
131 151 174
134 151 173
130 148 171
131 150 174
131 150 172
129 148 171
131 149 172
129 148 172
128 145 168
125 139 161
119 126 149
114 119 142
110 109 133
98 88 113
90 64 93
88 52 84
86 22 70
83 16 67
83 16 67
79 15 64
85 16 69
84 16 67
79 15 65
82 15 66
88 17 71
84 16 67
85 16 68
86 16 69
87 16 70
89 17 70
89 17 71
92 17 73
85 16 67
86 16 68
88 16 68
84 16 67
88 16 70
86 16 69
88 16 70
83 15 67
91 17 72
85 16 68
88 18 71
88 21 74
89 16 70
86 30 86
81 46 108
85 45 110
78 52 118
70 62 134
77 58 128
72 65 140
69 68 146
73 66 142
76 64 138
67 67 144
69 74 157
66 75 157
65 77 161
64 76 159
64 77 160
65 76 160
69 75 157
62 77 162
67 68 143
67 72 150
69 71 150
74 62 134
72 69 146
70 62 134
72 61 133
75 54 120
77 56 124
77 51 115
76 44 104
83 30 85
79 29 80
84 21 72
77 29 59
77 37 57
74 42 52
71 50 48
72 62 42
71 63 41
65 64 34
65 69 29
65 70 28
74 83 34
71 77 40
78 84 65
92 99 94
99 103 98
111 121 130
127 142 158
131 146 167
128 143 165
135 154 177
135 152 175
134 151 174
128 145 168
137 153 177
135 153 176
136 153 177
135 153 177
137 156 180
131 149 173
135 152 176
138 156 180
134 152 176
132 148 170
131 149 173
131 148 172
130 148 171
133 151 174
135 153 177
132 150 173
131 149 172
131 149 173
133 152 176
130 148 171
133 151 174
131 151 175
130 147 171
130 147 170
134 152 174
130 146 170
131 149 173
137 155 180
133 151 175
132 149 171
134 151 175
130 147 170
129 145 168
131 147 170
127 143 165
131 149 173
127 144 169
130 147 171
127 144 166
124 140 163
125 141 163
120 134 157
120 136 159
124 141 165
120 135 158
118 132 156
125 139 163
118 131 154
121 136 161
121 136 158
121 133 155
122 137 158
120 132 152
117 130 151
115 127 147
121 134 153
125 138 160
129 143 165
122 138 160
124 137 160
123 139 156
123 140 158
131 151 165
124 142 163
123 143 163
129 146 166
128 146 166
126 143 164
127 146 165
125 145 164
127 145 166
128 145 164
131 150 171
129 148 169
132 150 174
130 149 170
132 150 172
124 143 161
126 145 165
126 145 162
130 150 170
129 148 168
125 143 162
122 140 160
125 144 163
127 146 165
127 150 168
119 140 154
126 148 169
125 148 166
123 147 161
125 151 169
125 151 169
121 143 158
124 150 169
118 142 157
127 153 171
124 151 167
126 155 171
122 146 158
123 144 161
121 147 162
114 133 146
108 123 134
104 115 127
95 101 112
86 84 94
77 67 70
72 53 57
63 29 27
62 28 27
61 28 26
62 28 26
62 28 26
61 28 26
64 29 27
62 28 26
64 29 27
61 28 26
63 29 27
63 29 26
62 28 26
62 28 25
64 29 27
63 29 27
62 28 26
64 29 27
63 28 26
61 28 26
64 29 26
62 28 26
63 28 26
63 29 27
63 28 26
63 29 26
63 29 27
64 29 27
63 29 27
65 29 27
65 29 27
62 28 26
62 28 26
65 29 27
62 28 26
60 27 25
64 29 26
64 29 27
63 28 26
63 28 26
62 28 26
62 28 26
62 28 26
64 29 26
63 28 26
63 28 26
61 28 25
64 29 26
63 29 26
63 28 26
64 29 26
65 33 32
66 41 40
68 48 50
74 67 69
82 83 92
80 90 92
77 86 94
91 109 123
88 105 116
82 99 113
76 92 109
74 92 107
76 92 113
82 104 127
84 106 130
95 112 141
98 116 143
120 146 177
126 152 184
125 151 185
133 162 197
137 165 200
135 164 199
141 168 206
140 166 204
134 163 201
136 165 204
136 164 204
135 165 210
133 161 205
133 160 199
113 135 171
103 123 161
102 118 145
104 119 145
108 124 150
106 122 144
104 120 138
109 125 147
133 157 185
133 160 188
139 167 197
146 173 207
143 170 202
139 167 199
129 154 181
122 145 163
117 139 163
103 127 142
114 143 166
119 151 177
126 160 189
135 168 207
130 158 201
142 176 219
145 180 224
142 176 219
138 167 207
119 140 172
125 151 186
127 150 184
125 150 185
119 142 175
120 147 181
106 132 160
106 136 159
103 136 151
95 128 141
88 120 125
73 107 100
82 120 119
77 115 122
77 115 135
81 122 149
83 124 156
84 128 159
77 119 146
71 108 129
71 104 120
70 100 109
68 95 99
68 93 86
64 88 80
68 93 85
61 85 77
68 94 86
60 83 75
66 90 81
68 90 83
67 90 83
69 92 85
73 97 94
70 95 97
74 100 103
81 112 123
84 116 128
84 121 137
90 130 152
86 123 143
90 132 155
94 136 160
89 130 153
94 134 156
99 142 167
95 137 161
96 140 164
97 139 163
98 140 162
97 138 161
96 136 157
94 134 158
93 132 151
99 141 163
105 149 173
98 140 162
106 149 168
99 138 159
108 150 173
96 135 156
103 146 168
103 146 167
104 145 167
102 144 165
106 148 170
101 143 163
101 142 163
102 143 164
106 148 171
104 147 167
106 149 169
103 145 165
102 143 165
105 145 166
100 139 158
106 148 169
108 150 170
107 149 171
102 144 164
105 147 168
103 140 160
120 157 179
111 142 162
129 161 185
154 180 208
152 178 205
156 180 207
171 193 223
167 190 219
180 203 234
182 205 236
189 212 244
181 204 235
187 211 242
191 215 247
186 209 239
190 214 245
186 209 239
191 214 245
188 211 242
190 213 243
193 217 248
192 216 247
188 211 241
194 217 248
193 216 247
194 217 248
189 212 242
192 215 246
196 219 250
195 218 249
197 220 251
195 218 249
195 218 248
193 216 246
197 220 251
196 219 249
197 220 251
197 220 250
197 220 250
196 219 250
201 224 255
198 221 251
199 222 252
197 220 250
199 221 252
198 221 251
198 220 250
200 223 253
198 221 251
199 222 252
200 223 253
200 223 253
200 223 253
199 222 252
199 221 251
202 224 254
199 221 251
199 221 251
195 217 246
201 224 254
200 223 252
200 223 252
201 223 252
200 223 252
200 222 252
201 223 253
199 221 251
200 222 251
200 222 252
200 222 252
201 223 253
203 225 254
203 225 255
199 221 251
201 223 253
202 224 253
201 223 252
201 223 252
200 222 251
202 224 253
201 223 252
202 224 254
201 222 252
203 224 254
200 222 251
202 224 254
203 225 254
200 222 251
201 222 252
204 226 255
200 222 250
203 225 254
203 224 254
203 225 254
203 224 254
200 222 250
203 225 254
203 224 254
201 223 252
201 223 252
201 222 251
202 223 252
203 225 254
202 223 252
200 221 250
201 223 252
202 223 251
201 222 251
202 223 252
203 224 253
203 225 254
201 222 251
199 220 249
202 224 253
202 224 252
200 221 250
202 224 253
204 225 254
202 223 251
196 214 240
135 145 156
96 93 108
102 99 116
96 99 104
49 45 46
62 72 75
74 99 104
77 98 103
94 104 109
99 107 115
106 113 121
101 108 116
108 115 122
108 114 121
110 116 123
111 116 122
112 118 125
109 114 120
106 111 118
97 97 109
95 89 105
86 80 94
86 84 93
87 85 94
82 79 94
88 103 82
92 132 44
98 147 19
101 150 19
100 150 19
101 150 19
100 146 23
101 143 44
95 116 87
103 110 113
102 108 114
104 110 117
105 110 117
105 111 118
102 108 115
102 107 113
102 107 114
101 105 113
101 105 112
102 106 114
100 102 109
106 89 96
113 84 89
110 96 103
103 100 107
109 113 120
102 108 115
105 112 119
107 113 121
104 109 117
106 112 120
103 109 115
97 104 117
66 75 104
26 45 99
25 47 104
23 40 90
25 44 99
25 46 102
25 46 105
24 43 98
25 46 104
24 45 104
33 49 97
74 84 103
98 106 113
103 111 117
106 113 121
98 107 113
104 111 118
106 113 120
103 110 117
107 114 121
105 113 119
106 113 119
109 116 123
107 113 120
106 113 120
106 112 119
105 113 119
104 111 117
104 111 118
109 114 122
102 107 115
105 111 117
105 110 118
97 102 109
99 104 111
94 99 106
92 96 104
77 80 86
58 58 69
37 34 50
31 26 46
30 24 47
29 22 46
30 26 44
51 50 60
78 82 89
84 89 95
88 93 101
91 96 102
93 98 106
97 102 110
95 102 110
82 90 100
66 80 93
51 75 94
2 66 92
1 62 87
1 66 92
1 65 90
1 67 94
12 70 96
48 77 98
79 93 106
92 101 111
99 106 114
104 112 120
98 106 115
107 114 122
108 114 121
105 112 119
109 115 123
107 114 121
107 114 121
109 116 124
107 113 120
105 111 118
108 114 121
107 113 120
107 112 119
106 112 118
107 112 118
102 107 113
102 107 113
102 108 115
100 104 110
93 96 100
99 102 107
91 95 99
89 92 96
87 90 94
88 90 94
83 85 87
93 97 102
87 89 93
99 102 107
97 99 105
101 104 109
99 102 106
107 111 117
103 108 114
105 109 116
107 112 119
104 109 115
108 112 119
107 112 119
108 112 118
108 113 119
110 116 123
108 112 118
110 116 122
110 115 121
108 113 120
109 114 120
111 116 123
110 116 123
109 115 122
112 117 124
110 115 122
110 115 122
108 113 120
109 114 121
112 117 124
109 115 122
111 116 122
111 116 122
104 107 114
99 101 109
72 74 94
32 33 79
8 8 71
9 8 74
9 8 73
9 8 74
8 8 71
8 8 72
9 8 73
9 8 74
9 8 73
8 8 73
9 8 75
8 8 72
9 8 74
9 8 75
9 8 74
57 59 87
85 89 104
102 106 116
110 116 122
113 117 123
111 116 121
110 116 122
113 119 125
112 118 124
113 118 125
111 116 123
113 118 125
111 116 122
112 118 124
112 117 124
111 116 123
113 118 125
111 117 124
112 118 124
112 118 124
112 118 125
114 119 126
113 118 125
109 114 120
113 119 126
109 114 122
108 114 120
112 117 125
113 119 126
113 119 124
108 115 122
112 118 125
112 118 125
112 118 125
111 117 124
112 118 125
107 113 120
108 113 120
111 117 124
108 114 121
109 115 121
110 116 123
111 117 124
110 116 123
104 111 116
108 114 120
106 112 120
109 116 121
106 112 119
106 112 118
104 110 119
108 115 121
103 110 117
103 110 116
102 109 115
103 110 116
106 113 118
100 107 113
100 108 110
87 95 87
81 93 50
76 88 30
81 93 29
80 92 28
80 93 29
78 91 28
75 86 26
76 88 27
78 91 28
71 81 25
73 84 26
72 83 26
67 76 25
69 73 33
72 64 51
71 55 55
74 46 64
74 46 64
74 46 64
73 45 63
74 46 64
74 46 64
73 45 63
72 45 63
74 46 63
74 46 64
75 46 64
72 45 63
75 46 64
70 44 61
66 48 57
62 60 54
59 72 57
59 83 61
62 86 64
75 94 80
83 97 92
91 101 100
95 104 106
99 106 110
98 107 110
103 110 114
96 105 107
107 114 119
104 111 115
106 114 119
104 112 117
108 115 120
108 115 121
108 114 121
109 116 122
107 115 120
110 117 123
111 117 123
106 114 119
107 115 120
109 116 121
108 115 121
109 117 122
107 114 118
112 118 124
107 115 120
109 116 122
107 115 119
108 116 121
107 114 119
112 119 125
104 113 115
104 113 116
102 110 113
102 109 111
101 109 111
95 105 105
92 101 101
92 100 101
87 98 93
87 98 95
84 94 89
81 90 85
80 90 86
89 98 96
86 96 93
87 110 102
67 105 87
55 119 92
50 121 91
49 118 88
49 116 88
50 119 90
51 122 91
51 123 92
50 118 89
49 117 88
49 119 90
50 120 90
48 114 86
47 112 84
48 116 86
49 119 88
65 117 94
89 117 108
105 117 119
113 119 126
111 118 124
109 115 122
110 117 123
110 117 122
110 116 122
109 116 123
110 115 123
110 116 123
112 118 126
110 115 121
108 115 117
102 109 110
102 111 112
105 111 117
115 109 111
121 103 102
123 94 88
126 86 76
129 79 63
126 75 58
129 76 59
129 76 59
126 75 58
125 75 58
125 75 59
126 75 58
125 76 62
124 86 76
112 95 95
110 108 112
100 110 106
88 108 86
66 98 36
62 96 30
65 95 31
67 98 32
66 95 32
70 103 33
70 101 33
72 104 35
67 97 32
67 97 32
66 96 32
81 104 68
95 113 94
106 116 118
109 115 122
109 115 123
110 116 122
110 116 123
111 117 124
111 117 124
111 117 124
108 114 120
110 115 122
112 117 123
109 116 122
111 117 123
108 114 121
107 113 120
109 115 122
111 117 123
106 110 116
109 115 121
110 115 122
106 110 116
95 92 97
78 64 68
71 44 47
67 40 43
70 41 45
67 41 44
65 39 42
64 39 41
72 43 46
67 46 50
82 73 78
97 98 104
106 111 117
109 116 122
109 115 120
108 114 119
107 113 118
105 111 116
107 112 118
106 112 118
106 112 119
106 112 118
106 113 118
107 113 120
109 115 121
108 115 121
107 113 119
101 108 109
86 95 81
71 83 49
66 78 31
64 78 25
63 75 25
63 77 25
65 79 26
63 75 25
65 78 25
64 77 25
66 79 40
79 89 71
94 103 105
100 108 113
91 100 104
81 92 96
57 81 80
24 68 64
22 64 63
49 80 79
69 90 91
89 101 105
98 108 113
103 111 117
111 118 124
107 114 121
109 116 122
109 117 123
108 115 122
110 117 123
107 114 121
99 105 113
100 106 111
95 95 99
84 77 78
68 46 36
65 40 26
66 40 26
64 39 26
65 39 26
76 61 58
98 99 103
110 116 122
108 115 122
110 116 123
109 116 123
103 100 103
88 70 66
78 40 13
82 42 14
78 41 14
79 41 14
79 41 17
68 42 45
69 67 83
94 101 115
111 116 123
109 115 123
110 116 123
106 109 118
98 88 110
94 42 106
91 30 102
90 32 102
100 69 111
108 104 121
113 119 126
111 116 123
110 117 124
110 113 116
103 105 104
106 109 110
100 106 102
94 106 106
121 136 154
128 146 168
129 146 169
129 146 169
127 144 167
129 145 167
130 148 170
128 144 166
129 147 170
128 143 166
126 144 166
128 147 169
123 140 161
129 146 168
132 149 173
128 143 166
129 148 170
130 148 171
131 148 172
128 143 164
129 147 169
132 146 169
131 149 173
131 147 171
127 142 163
128 145 167
132 149 173
126 142 164
130 146 168
128 144 168
130 146 168
128 145 167
126 139 161
128 145 169
131 150 172
131 148 172
128 144 167
131 146 169
127 142 164
127 142 164
129 145 168
126 141 162
129 146 168
130 148 171
127 144 167
127 140 162
126 143 165
124 139 161
126 139 161
127 140 163
129 143 165
128 145 168
129 145 167
125 141 162
127 140 163
132 148 172
129 147 169
127 143 166
123 137 158
129 144 166
128 145 168
129 145 169
130 145 168
131 147 170
129 145 167
129 146 169
126 141 162
125 143 161
120 139 152
112 130 133
111 131 134
90 112 90
89 114 85
83 109 60
76 102 49
78 105 51
80 107 51
80 107 52
78 105 51
82 109 52
79 106 50
82 110 53
77 103 50
78 105 51
81 107 51
82 110 53
83 111 53
82 110 52
79 106 51
79 107 51
79 106 51
84 112 54
82 110 53
82 110 53
81 108 51
82 110 53
83 110 52
79 106 51
78 104 50
81 108 52
84 112 54
81 108 52
83 110 53
81 108 52
83 110 53
84 112 53
84 112 53
81 108 52
83 111 53
81 109 52
80 107 51
83 110 53
81 108 52
83 111 53
84 113 54
83 110 53
81 109 52
83 112 54
82 110 52
83 112 54
84 113 54
85 114 54
82 110 52
84 113 54
84 113 54
84 113 53
83 110 52
81 108 52
81 109 52
84 112 54
83 110 52
86 114 54
80 108 51
82 108 59
86 110 72
76 102 63
89 110 99
96 117 117
103 122 129
112 127 142
108 123 139
112 123 144
122 135 156
109 118 136
110 121 140
117 128 148
108 117 136
107 115 133
105 114 132
113 125 144
108 119 137
99 107 124
109 120 139
102 110 128
97 104 119
110 120 139
104 113 131
97 102 118
102 112 128
88 93 109
90 95 110
84 88 102
82 83 95
85 89 103
76 75 88
71 65 76
70 66 76
74 74 86
73 73 84
63 55 64
66 60 69
65 65 74
65 66 75
62 53 63
63 59 67
64 59 68
64 55 64
65 60 71
68 60 70
71 69 79
77 77 88
79 78 89
59 46 55
78 78 90
78 80 92
82 83 95
87 89 103
95 101 117
87 92 105
92 100 115
95 101 117
99 105 120
100 109 126
107 118 135
113 125 144
105 115 133
113 125 144
111 123 143
118 131 151
109 122 141
105 116 135
117 131 152
114 126 145
114 127 147
120 136 157
114 127 147
121 135 156
116 129 148
121 134 155
123 139 161
119 133 154
117 129 149
125 139 161
127 142 164
126 141 163
123 137 159
125 140 162
120 133 153
123 137 159
123 138 159
126 141 164
121 136 157
124 140 163
132 150 173
125 142 162
128 146 169
125 141 164
120 135 156
124 140 163
127 143 166
130 148 172
125 140 162
130 147 170
130 148 172
126 144 167
127 145 167
132 149 173
128 146 169
124 140 163
127 145 168
128 144 167
128 145 168
131 148 171
127 144 166
131 150 174
126 143 166
129 147 170
127 145 167
130 148 172
130 145 168
125 141 163
126 143 164
124 141 163
126 143 166
124 141 164
127 146 169
128 146 169
130 147 171
127 145 169
130 148 172
121 143 159
105 140 133
104 139 136
102 139 133
65 126 80
54 132 64
47 129 53
38 125 39
40 128 40
39 126 39
39 125 39
42 134 41
40 129 40
39 127 40
39 127 40
42 134 42
40 130 40
39 127 39
42 136 42
41 131 41
40 129 40
39 128 40
41 133 41
40 130 40
42 134 42
41 130 41
40 129 40
42 135 42
40 129 41
