P3
1600 1
255
63 48 42
62 48 42
63 47 41
62 48 41
63 48 42
62 47 41
62 47 41
63 48 42
61 47 41
59 45 39
61 47 41
61 46 41
64 51 45
72 68 62
78 78 70
91 97 88
96 103 94
101 111 102
104 115 107
106 115 105
100 109 99
100 109 100
98 107 98
93 98 89
80 81 73
85 82 73
87 85 76
77 67 58
70 62 53
82 70 62
96 90 81
92 87 85
96 95 99
91 97 100
100 99 107
107 103 111
105 103 112
103 104 111
103 92 99
103 83 88
101 70 68
102 59 53
106 54 40
103 52 39
104 53 40
108 54 41
100 51 38
117 60 46
99 50 38
102 52 40
112 58 45
103 52 40
104 54 42
113 57 44
106 55 42
110 56 43
107 55 42
113 58 45
109 56 44
115 59 46
106 54 43
111 57 45
110 55 43
108 55 43
108 55 43
109 56 43
109 56 44
110 56 43
108 55 43
105 54 42
107 56 43
113 57 44
98 51 39
109 56 44
107 56 43
100 52 40
111 57 44
102 53 41
105 54 42
106 54 42
103 53 41
103 54 42
114 59 45
103 53 41
107 55 43
106 55 43
105 54 42
98 51 40
102 53 41
108 56 43
103 53 41
102 52 40
106 55 43
96 50 39
109 56 43
98 54 47
104 63 59
101 75 77
97 72 76
103 102 114
102 99 111
108 108 120
108 113 129
103 116 130
114 130 149
110 127 146
112 127 146
111 128 147
113 129 150
117 135 155
115 131 150
120 137 158
118 136 156
110 127 146
121 138 158
120 137 159
120 138 159
121 139 159
121 139 162
120 137 158
120 137 159
121 137 158
120 136 157
126 145 168
118 137 157
121 139 160
124 143 165
127 143 165
126 144 166
126 143 165
125 144 165
126 143 166
123 141 163
122 141 163
131 149 173
128 147 170
129 147 171
129 148 170
127 145 168
127 145 167
128 146 169
129 148 172
128 147 170
125 144 166
126 144 166
129 146 169
132 149 173
129 146 169
131 148 172
128 145 167
128 146 168
133 151 173
134 150 172
139 153 174
146 159 180
150 166 189
147 163 186
142 160 183
136 156 179
143 161 186
139 157 181
137 156 181
134 153 177
136 155 179
131 151 174
132 150 174
133 153 175
131 150 173
132 152 177
130 149 172
132 151 175
137 156 180
131 150 173
133 152 176
131 150 173
137 157 182
132 151 176
131 151 176
131 152 175
133 151 176
132 152 176
129 149 172
132 151 176
129 149 173
131 151 174
132 150 173
131 151 175
129 148 171
132 152 176
131 151 174
126 145 167
128 148 170
128 148 172
132 151 175
133 151 175
133 152 175
133 154 178
138 158 182
131 151 174
131 152 176
134 152 176
136 155 180
131 150 173
137 156 180
135 155 180
132 152 176
132 151 176
133 153 176
131 149 172
130 151 175
134 153 179
135 155 179
130 149 172
134 153 178
137 156 180
136 155 178
139 157 181
138 157 179
136 154 176
132 146 167
131 143 162
119 144 162
108 133 148
101 135 148
75 125 130
64 127 130
44 123 122
34 116 114
36 126 122
33 114 113
36 106 107
67 114 119
78 117 127
89 129 140
112 142 160
111 135 152
119 140 160
124 144 164
130 149 171
129 147 170
132 151 174
132 150 173
134 151 175
131 149 172
135 152 175
133 151 174
129 147 169
130 146 169
133 151 176
135 154 178
130 148 170
134 153 177
130 149 172
133 152 176
132 151 174
134 152 176
132 150 173
132 150 174
130 147 170
131 149 173
132 152 175
132 150 173
129 147 170
132 151 175
130 148 170
133 151 174
133 150 173
131 147 171
127 141 165
122 133 155
114 118 142
105 103 126
97 86 110
90 73 99
76 40 71
76 26 65
72 14 59
72 14 59
78 14 62
74 14 60
84 16 67
81 15 65
81 15 65
80 15 64
85 16 67
77 14 62
84 16 67
85 16 67
79 15 64
84 16 67
84 15 67
84 16 66
85 16 68
87 16 69
80 18 67
77 37 92
82 40 98
73 51 115
66 66 142
73 63 135
66 75 158
57 81 167
59 82 169
55 87 178
55 87 179
49 93 189
46 95 193
46 94 192
46 95 193
46 95 191
46 95 193
46 95 193
45 93 189
46 94 191
46 96 195
46 95 193
46 95 193
46 95 191
46 96 193
46 95 195
45 94 190
46 94 191
45 94 190
46 95 194
46 94 192
46 95 192
45 93 188
46 95 194
45 93 189
45 93 190
46 94 190
46 91 186
47 90 182
54 86 176
55 85 173
56 81 164
62 74 148
54 73 145
63 69 116
64 73 103
62 75 110
64 71 76
59 66 49
63 70 34
69 77 31
63 68 33
73 76 51
90 100 91
96 103 110
99 113 118
111 125 138
127 143 160
124 144 166
132 148 170
131 149 171
137 156 180
138 155 177
136 154 177
143 160 184
135 152 175
137 155 177
135 152 176
136 152 174
140 159 182
133 151 173
133 149 172
133 152 176
136 154 177
127 145 166
131 150 173
133 151 175
131 149 171
132 150 173
132 152 176
133 152 176
136 154 177
136 152 176
135 153 178
131 149 172
126 145 167
128 145 167
135 153 176
125 141 163
133 152 173
130 148 168
131 148 170
127 142 163
134 151 172
134 150 172
132 149 172
130 146 169
129 144 163
122 137 157
123 140 161
118 133 155
126 142 164
128 144 167
116 130 151
117 130 151
115 129 150
108 120 140
120 134 157
118 132 152
115 129 151
119 133 155
104 115 134
113 126 145
108 118 137
97 105 123
97 99 115
93 96 113
89 90 103
92 94 108
89 86 100
104 111 132
100 105 122
100 109 126
115 128 148
110 123 143
115 134 151
119 138 155
118 136 158
123 142 162
127 146 167
132 150 173
130 149 168
128 147 167
130 149 173
127 146 167
128 146 165
133 152 174
130 150 171
129 147 168
128 149 172
131 154 176
127 156 175
131 162 182
135 167 188
130 166 186
129 164 182
138 178 199
137 181 203
138 183 206
140 189 211
140 191 215
139 190 215
137 187 211
137 189 214
138 191 216
137 190 216
140 194 219
138 191 216
139 192 217
136 189 214
141 193 217
138 192 218
136 187 211
137 188 213
136 189 214
138 190 215
130 175 197
130 178 199
125 168 187
131 177 198
119 157 174
107 139 154
108 140 155
104 132 146
97 115 126
86 96 105
80 82 88
78 77 83
68 51 53
62 40 41
62 28 26
61 28 26
61 28 26
61 28 26
60 27 25
62 28 26
62 28 26
63 28 26
63 28 26
61 28 26
61 28 25
60 27 25
63 28 26
63 28 26
62 28 26
62 28 26
64 29 27
63 29 26
61 28 26
63 29 27
61 28 25
61 27 25
63 29 26
59 27 24
61 27 25
60 27 25
62 28 26
60 27 25
61 28 26
62 28 26
63 28 26
63 28 26
63 28 26
63 29 26
63 28 26
63 28 26
62 28 25
63 28 26
64 28 26
62 28 26
60 27 25
65 29 27
62 28 26
61 27 25
60 27 25
62 27 25
62 28 26
63 28 26
65 42 46
68 55 63
73 70 82
80 83 102
89 101 123
95 116 141
94 114 139
98 120 151
97 120 152
95 117 146
97 121 152
105 132 165
111 138 171
114 142 175
113 140 174
117 145 179
130 158 195
123 149 185
119 145 179
120 149 185
116 145 181
106 132 168
107 134 172
94 120 159
98 124 161
87 112 154
78 98 138
85 107 145
88 109 142
71 83 115
74 85 109
67 74 94
63 71 88
69 79 96
75 90 102
90 112 132
92 112 134
104 130 155
101 123 148
103 128 159
107 131 165
101 130 155
94 124 143
96 125 145
97 122 145
94 122 144
99 126 152
101 131 160
104 131 164
112 143 179
117 147 184
113 139 175
108 133 167
99 117 145
98 118 146
93 107 134
85 100 124
91 108 133
93 113 141
91 114 142
92 115 140
95 122 148
93 118 144
91 116 142
91 118 139
92 120 143
84 114 137
81 112 137
83 115 141
76 110 137
78 112 140
75 110 136
71 107 133
71 99 117
69 97 112
71 93 106
69 90 97
72 89 91
61 78 76
65 83 82
69 86 87
82 100 104
77 95 97
74 89 93
69 86 86
74 93 91
71 89 89
73 89 93
79 97 102
87 111 121
85 106 116
85 109 120
83 111 126
82 116 134
89 126 143
83 121 139
84 123 145
96 136 158
88 128 148
93 133 153
94 135 158
91 133 155
94 135 157
90 129 151
94 134 156
92 132 155
98 140 162
100 143 165
96 139 160
100 142 164
94 134 155
101 145 168
93 133 154
101 142 162
100 141 162
104 148 169
102 143 164
101 142 162
96 135 156
105 148 169
103 145 167
108 150 172
104 145 167
101 143 164
101 143 164
104 146 167
95 135 157
104 146 169
104 146 167
100 141 159
103 145 164
102 143 163
98 139 157
95 134 153
104 146 166
97 137 155
104 147 168
97 137 155
94 130 151
95 133 151
121 155 178
123 154 177
134 163 186
141 169 195
152 177 205
149 171 198
166 189 218
173 196 226
175 198 228
175 198 228
175 199 229
180 203 234
181 204 235
183 207 237
186 209 241
188 211 243
188 212 243
186 210 241
193 218 250
188 212 243
190 214 244
187 210 240
191 215 246
193 217 248
193 216 247
191 214 245
194 218 248
194 217 248
192 215 246
194 217 248
195 219 250
195 219 250
193 216 247
197 221 252
196 220 251
195 218 249
196 219 250
196 219 250
196 219 250
194 217 247
196 219 250
197 220 250
198 221 252
197 220 251
196 219 250
195 218 248
198 221 252
197 220 250
196 219 249
197 220 250
198 221 251
199 222 253
196 218 248
199 221 252
199 222 253
199 222 252
200 223 253
197 219 249
199 222 252
198 220 250
198 221 251
199 221 252
200 223 253
194 216 246
199 221 251
202 225 255
200 222 252
198 221 250
199 222 252
199 222 252
201 223 253
202 225 255
201 223 253
200 222 252
201 224 254
199 221 251
201 223 253
200 223 252
202 225 255
201 223 253
199 221 250
201 223 253
199 221 250
200 222 252
202 224 254
200 222 252
202 224 254
201 223 253
200 222 251
199 221 250
201 223 252
200 222 251
202 224 254
202 225 254
200 222 251
200 221 251
200 222 252
202 224 253
201 223 252
202 224 253
204 226 255
199 221 250
199 221 250
202 224 253
200 222 251
202 224 253
202 223 253
201 222 252
201 223 252
201 223 252
200 222 251
202 223 253
202 224 253
203 225 254
202 224 253
202 223 253
190 208 234
134 152 151
95 84 105
94 67 105
86 88 94
80 82 86
87 96 101
68 86 88
70 84 88
92 101 106
103 112 119
108 115 122
109 116 123
111 116 123
107 114 121
109 115 122
108 114 120
110 116 122
106 112 118
106 111 118
94 96 106
89 84 100
87 83 99
81 77 92
79 75 89
82 103 68
94 138 33
95 141 18
94 139 18
98 147 19
98 144 18
98 145 19
98 139 18
98 142 18
103 141 59
98 118 91
106 112 119
105 111 118
105 111 117
109 116 123
109 114 121
109 115 122
107 110 117
119 90 95
137 55 53
134 46 43
139 47 44
141 47 44
138 46 43
138 47 44
140 47 44
139 47 43
134 67 69
116 98 102
112 111 117
105 110 118
104 110 118
103 110 117
101 107 116
81 89 105
56 65 96
25 42 91
22 39 89
21 40 91
21 39 88
22 39 89
23 42 95
21 38 89
58 67 97
87 95 108
99 106 115
99 105 114
107 113 121
95 99 105
72 62 57
61 41 20
60 39 15
57 37 14
60 40 15
59 39 15
61 40 15
62 40 15
59 39 15
64 47 32
74 64 58
92 92 93
106 111 117
109 115 123
109 115 122
103 108 115
110 115 122
105 111 118
104 109 116
95 100 106
95 102 109
97 101 109
93 97 104
84 89 95
84 89 96
82 86 94
88 93 100
80 85 93
84 90 98
93 98 104
89 95 103
92 97 104
90 96 104
96 103 111
87 94 102
82 90 99
89 96 105
80 88 95
82 88 96
78 85 93
67 75 84
67 74 82
67 77 86
67 77 87
76 83 91
72 81 90
85 93 101
90 98 105
96 103 111
98 105 113
103 111 119
99 106 115
101 108 116
104 111 120
107 114 122
102 109 117
106 112 120
108 114 121
107 114 121
110 116 123
108 114 122
108 111 117
112 102 102
111 93 90
111 82 74
113 78 66
112 76 62
114 77 63
113 78 64
112 75 60
113 81 70
111 79 67
112 88 82
111 97 95
110 108 112
113 113 118
106 112 119
109 115 122
111 116 122
109 114 120
109 115 122
111 116 122
110 116 122
110 115 122
109 115 122
112 118 125
110 116 123
110 116 123
110 117 124
110 116 123
110 115 122
111 117 124
111 116 123
110 116 122
112 117 123
111 117 124
109 114 120
113 118 124
110 116 123
111 116 123
110 115 122
110 115 122
109 115 123
112 117 124
111 117 125
110 115 123
107 113 120
110 116 123
108 113 120
109 114 121
105 110 118
74 77 95
35 36 74
8 7 67
7 7 64
8 7 66
8 8 68
8 7 66
8 7 66
8 8 68
8 7 65
8 8 68
8 8 69
8 8 68
8 7 67
8 7 66
8 8 68
8 7 66
8 8 69
52 55 82
78 81 97
106 111 119
114 120 127
111 117 123
110 116 122
112 118 125
112 117 124
111 116 123
111 116 123
111 116 123
112 118 125
110 116 123
113 118 125
110 115 123
109 115 121
111 116 123
112 118 124
113 119 126
111 116 123
111 117 123
111 117 124
111 117 125
113 118 125
113 119 125
111 118 125
113 118 125
113 119 126
110 117 124
112 118 125
110 116 122
110 117 123
112 118 125
111 117 124
111 117 124
111 117 123
111 117 123
111 117 124
112 118 125
107 114 120
108 115 122
108 115 122
107 114 120
108 114 119
111 117 122
108 114 120
109 116 121
106 112 118
105 113 117
109 115 121
106 112 117
101 108 113
102 109 114
96 105 106
95 103 104
98 106 111
93 101 103
92 100 102
85 93 94
83 93 87
83 93 76
72 82 51
65 76 29
65 76 28
65 75 23
63 72 22
66 75 23
65 75 23
63 73 23
60 70 21
63 72 24
61 60 34
66 56 47
68 45 58
67 41 57
71 44 60
66 41 56
69 42 58
67 41 58
64 40 55
69 42 58
69 43 60
68 42 58
67 40 57
67 42 58
68 41 58
64 39 54
66 40 57
61 37 52
66 40 55
68 44 59
77 71 78
86 93 93
100 107 111
98 105 108
100 108 111
102 110 114
103 112 114
105 113 117
106 114 118
106 114 118
106 115 119
110 117 121
102 110 114
107 114 120
106 113 118
106 114 118
107 113 119
110 117 124
109 116 122
107 115 119
112 119 124
112 118 123
108 116 122
111 117 123
111 114 122
114 113 121
123 100 116
128 91 112
140 75 108
143 58 104
146 44 99
150 42 101
149 36 98
153 38 100
149 36 99
149 36 98
149 38 99
150 49 103
145 54 102
138 70 103
127 93 113
122 99 113
112 117 123
108 115 120
107 115 119
108 116 120
109 116 122
104 113 115
108 115 121
107 117 121
84 110 104
66 111 92
45 106 80
45 108 80
46 107 81
46 109 82
44 103 79
46 109 83
46 109 83
47 112 84
46 107 81
45 106 81
45 108 81
45 107 80
45 107 81
45 108 79
44 104 77
72 108 94
86 107 102
110 117 123
109 116 122
112 118 123
108 116 121
112 119 125
112 119 125
111 117 122
112 118 125
111 117 123
110 116 123
109 116 122
113 119 125
119 125 130
130 132 133
137 125 121
132 101 93
117 74 60
122 72 55
122 71 55
120 70 54
123 72 56
122 71 55
117 68 53
119 70 54
122 72 55
121 71 55
120 71 55
120 71 54
117 69 54
119 71 55
123 73 57
117 80 71
113 95 91
99 103 101
80 93 80
71 90 57
59 84 38
54 79 27
56 82 27
58 85 30
58 84 32
64 87 44
71 90 62
83 97 84
92 101 97
103 109 113
107 114 117
105 112 116
106 113 117
109 116 122
109 116 121
107 113 117
110 115 121
111 117 123
108 113 119
107 113 119
110 116 123
109 116 122
110 115 122
108 115 121
111 117 123
106 111 117
102 108 115
102 108 113
102 107 114
97 100 106
100 102 108
97 100 105
88 90 95
89 90 94
75 73 76
68 61 63
58 45 47
57 44 46
65 53 56
74 69 72
85 84 90
92 96 101
97 99 103
103 106 112
97 101 108
106 111 117
104 108 115
107 112 119
108 114 120
110 115 121
106 112 118
111 116 122
107 113 120
108 114 121
109 115 122
109 115 122
108 114 120
101 108 110
88 96 84
64 74 39
61 74 24
62 74 24
62 75 24
61 73 24
60 73 24
62 75 24
62 76 25
61 73 24
60 73 24
57 69 22
62 75 30
79 89 70
90 99 97
96 104 108
96 103 109
85 95 100
89 98 101
91 99 103
80 90 94
84 92 95
91 101 105
95 104 109
98 106 111
102 109 115
99 107 113
104 112 118
107 115 121
108 115 121
108 115 122
109 115 121
124 128 132
125 123 124
85 74 69
61 38 27
64 39 26
63 38 25
63 38 25
60 37 24
63 38 25
62 38 25
72 59 56
95 92 94
109 114 120
106 112 120
109 114 121
103 106 113
90 77 76
80 44 22
78 40 14
71 37 12
75 39 13
77 42 18
69 48 43
73 67 72
82 87 98
95 100 111
99 104 114
106 111 120
109 114 123
98 92 110
88 56 97
84 27 94
90 31 100
98 76 110
108 107 121
112 118 124
113 119 125
112 118 124
107 112 117
101 103 100
106 110 110
101 107 106
98 111 121
116 132 150
128 144 165
128 145 167
130 147 169
126 140 161
127 144 166
127 144 166
127 144 165
130 148 171
126 144 164
128 144 165
133 151 174
131 148 171
129 144 167
124 143 165
128 143 165
130 148 171
131 145 169
132 150 173
129 144 167
128 145 167
132 150 173
128 145 166
127 145 167
131 146 168
130 148 170
132 148 171
125 141 163
132 149 173
129 146 169
132 149 173
130 147 170
131 149 172
128 145 167
131 149 173
133 151 175
129 146 168
130 148 170
128 144 166
129 146 169
124 142 162
130 147 171
130 147 169
128 144 166
131 149 173
130 148 171
132 150 174
131 148 170
129 146 167
132 150 174
132 148 171
128 147 171
126 144 165
130 147 169
129 147 171
131 149 173
131 149 172
130 146 168
126 143 164
128 145 168
128 147 170
129 147 171
130 148 171
125 143 164
128 144 166
130 146 169
122 140 157
119 138 150
109 128 131
106 129 122
89 112 87
86 109 74
74 99 48
79 105 50
77 103 49
79 105 50
77 102 49
80 107 51
78 105 50
77 103 50
78 105 50
80 108 52
80 106 51
81 108 52
80 106 51
76 102 49
80 106 51
78 104 50
80 107 51
83 111 53
74 99 48
79 105 51
80 107 51
80 107 51
79 106 51
83 110 52
78 105 50
81 108 52
79 106 51
81 109 52
79 107 51
79 106 51
83 111 53
83 111 53
81 108 52
78 104 50
77 103 49
80 108 52
82 110 53
80 106 51
82 109 52
78 105 50
82 109 52
81 109 52
83 112 53
86 114 54
82 109 52
82 109 52
82 110 52
80 107 51
81 108 51
81 108 52
83 110 52
84 111 53
81 107 52
79 106 50
83 111 53
80 107 51
84 112 53
81 108 51
81 108 51
81 109 52
81 108 51
85 114 54
82 110 52
82 110 55
84 110 67
91 114 89
97 118 104
102 121 117
111 128 136
110 124 137
120 137 157
123 139 161
115 130 149
116 127 148
118 135 156
119 130 150
120 136 156
112 124 143
111 121 141
114 124 143
110 120 139
108 119 138
114 126 146
113 127 146
110 120 140
99 108 125
107 116 133
99 108 125
101 110 128
105 114 131
108 119 137
102 112 128
99 107 123
94 102 118
103 114 131
103 112 129
96 103 119
106 116 134
103 114 132
96 103 120
97 106 122
86 96 109
92 100 117
91 98 114
92 99 115
100 109 125
89 95 109
99 110 128
94 101 116
99 108 124
97 106 122
97 104 120
90 98 110
88 97 111
96 102 116
104 114 131
94 102 118
106 115 133
108 119 137
99 108 126
104 113 130
106 117 134
109 120 139
105 114 131
107 118 136
106 116 133
109 122 140
113 124 144
111 121 140
119 133 153
108 120 138
116 130 152
120 133 152
117 129 149
116 128 148
118 131 151
120 134 156
124 140 161
118 133 154
122 138 158
120 135 156
122 136 158
118 132 154
124 139 162
116 128 148
122 138 160
122 138 159
122 137 159
122 138 160
126 143 165
119 133 154
127 145 168
129 145 168
125 140 163
125 140 163
122 137 160
124 141 164
124 141 164
125 142 164
125 143 165
131 148 172
128 144 167
131 149 171
128 144 167
130 147 170
126 141 163
130 147 171
127 144 165
123 139 161
130 148 172
131 148 172
129 146 168
126 143 165
130 148 171
131 150 174
130 147 171
132 149 172
128 146 169
130 147 171
129 147 169
131 148 172
125 143 164
127 145 168
128 145 167
127 144 167
127 144 166
127 145 168
134 152 176
131 151 175
128 147 168
120 145 157
112 145 147
102 138 134
96 138 125
73 125 92
54 124 65
49 120 56
38 124 38
38 125 39
37 122 38
37 123 38
38 123 38
35 117 36
40 128 40
37 121 37
36 118 37
39 127 40
40 130 40
40 130 40
38 124 39
39 124 39
39 127 40
37 121 37
37 120 37
40 129 40
41 133 41
38 124 39
38 123 38
