P3
1600 1
255
60 46 40
64 49 42
59 45 39
60 46 40
59 45 39
60 46 40
63 47 41
60 45 39
61 46 40
59 45 39
59 45 39
61 46 40
61 46 40
61 48 42
73 72 63
78 79 71
88 90 82
86 93 84
102 111 101
95 104 94
97 108 99
93 100 88
93 101 89
90 96 87
85 90 81
84 89 79
87 92 82
89 95 88
97 106 100
95 101 103
99 110 112
111 122 131
110 125 132
112 128 141
111 127 143
118 135 155
117 130 149
117 127 146
105 108 123
112 121 139
96 92 103
104 91 101
104 85 92
102 75 77
103 67 65
102 62 57
93 47 36
97 50 38
95 48 37
100 50 38
100 51 39
96 49 37
101 51 38
106 54 42
103 52 40
97 49 38
100 50 39
101 52 41
104 52 41
105 53 41
93 48 37
102 52 40
106 54 42
111 56 43
97 51 40
106 54 42
102 52 42
106 54 42
104 54 41
106 54 42
96 50 38
104 54 42
106 53 41
99 50 39
103 52 41
105 54 42
97 50 39
106 54 42
103 52 41
99 50 39
99 51 39
104 53 41
96 50 39
100 53 41
104 53 42
107 55 43
104 53 42
96 49 38
105 54 42
104 55 43
96 50 38
99 57 50
102 51 40
101 65 63
103 80 84
99 81 88
108 99 109
114 110 123
120 122 139
117 126 145
119 131 150
122 139 160
118 136 156
120 136 157
124 140 160
123 142 164
120 138 160
123 139 160
122 140 162
122 140 162
121 138 159
118 134 154
125 143 165
127 144 167
128 147 169
125 142 165
121 136 157
129 146 169
121 139 161
124 143 165
127 145 168
125 142 164
121 137 159
128 146 169
127 145 167
124 142 164
126 143 166
127 144 167
125 144 166
126 144 165
128 147 170
129 147 169
126 144 166
129 149 173
129 146 167
127 145 167
131 150 173
127 146 169
125 142 164
128 146 168
130 147 170
130 149 171
133 151 175
128 146 169
131 150 174
132 149 172
131 149 172
127 144 166
130 147 169
134 149 171
131 148 171
140 155 176
140 155 175
138 156 177
141 157 179
149 167 190
133 151 175
138 156 180
137 156 181
139 157 180
133 151 175
139 158 183
128 148 171
140 159 184
133 152 176
125 145 169
133 152 177
125 144 167
127 146 169
133 154 177
130 149 173
127 148 171
128 146 168
127 147 169
124 147 168
126 146 168
126 144 166
125 147 167
130 150 172
127 147 170
128 150 173
131 153 175
126 147 168
125 146 168
128 149 171
125 144 166
121 141 161
126 146 168
127 147 167
125 144 165
119 141 161
124 146 167
128 148 170
124 146 167
126 147 168
125 145 167
125 146 168
133 153 176
130 150 173
128 147 170
132 152 176
137 156 180
129 150 172
129 150 174
130 150 173
132 151 174
130 149 172
133 153 176
132 153 177
129 150 173
130 150 173
124 144 166
133 152 174
134 153 177
139 157 181
133 150 173
135 154 178
139 158 182
136 153 176
134 148 169
132 147 171
131 143 163
122 136 156
113 131 149
95 127 137
83 121 131
69 116 122
59 108 112
44 119 118
60 114 117
64 120 125
88 133 142
90 123 135
104 134 148
111 137 152
124 145 166
130 150 173
129 148 172
132 150 174
129 148 171
134 152 175
133 152 176
132 150 173
130 148 170
128 145 166
130 148 171
133 152 175
133 151 174
132 150 173
133 151 174
134 152 175
130 149 172
128 146 168
130 148 172
131 150 174
133 151 174
128 145 167
132 151 176
131 149 172
131 149 171
133 151 174
129 147 169
133 152 175
132 151 175
130 148 170
133 151 174
131 149 173
130 147 169
127 144 167
127 144 166
123 137 159
114 125 146
111 112 136
99 94 117
92 80 104
83 53 82
79 43 74
79 31 68
75 14 60
78 15 62
69 13 57
84 15 65
80 15 64
74 14 60
79 15 63
76 14 61
81 15 64
77 14 62
75 17 62
80 15 64
75 45 104
78 57 127
66 63 134
65 71 149
58 80 164
54 84 172
55 87 179
46 95 193
45 93 188
46 94 191
46 94 190
46 95 192
45 93 187
46 95 191
45 93 190
45 92 187
46 94 190
46 94 190
45 93 188
45 94 190
46 95 192
46 94 191
46 95 192
45 94 191
46 95 193
46 94 192
46 95 192
46 94 192
44 91 185
45 93 186
45 93 190
44 89 181
46 95 192
46 95 192
46 93 189
44 92 186
44 91 184
46 95 193
45 93 188
45 93 188
45 93 190
44 93 186
46 94 191
44 91 185
45 93 189
45 92 187
45 93 189
45 93 189
46 93 188
46 92 185
48 93 181
52 91 171
52 86 153
49 77 135
55 79 122
59 77 109
69 81 92
80 89 101
90 100 105
99 112 124
110 125 142
117 134 153
127 142 163
128 147 167
124 142 161
128 146 167
127 143 164
126 142 163
130 147 169
130 147 170
129 147 168
129 146 168
135 152 173
131 147 168
130 149 171
131 149 171
141 158 179
132 150 172
132 152 174
139 158 180
133 152 175
134 153 175
135 154 178
137 157 180
130 149 171
127 146 167
137 155 177
129 147 169
128 147 168
128 145 165
127 146 169
126 144 165
125 142 162
127 144 165
128 146 160
134 150 169
130 146 164
115 129 143
120 135 153
113 127 143
115 129 143
104 117 131
103 115 128
104 115 127
95 106 120
92 101 110
84 93 100
83 92 100
91 102 112
96 107 119
88 101 114
95 106 121
108 122 139
108 121 137
116 131 151
112 125 147
112 123 144
112 120 143
87 82 106
100 95 113
82 60 81
88 72 91
72 37 63
79 46 72
94 73 97
97 92 112
92 93 111
91 100 117
103 120 135
106 125 141
96 123 136
108 129 147
117 136 157
119 137 156
121 139 160
130 147 169
129 148 170
132 154 176
127 151 171
130 157 179
132 163 183
136 174 196
137 179 200
139 185 209
143 193 217
141 195 219
145 200 225
142 198 224
141 198 226
143 199 227
141 198 227
141 198 227
139 197 227
138 197 227
138 196 227
137 196 227
136 195 227
136 195 227
135 195 227
136 195 227
135 195 227
135 194 227
136 195 227
134 194 227
135 195 227
135 194 227
135 195 227
136 195 227
136 195 227
137 195 227
137 196 227
138 196 227
138 197 227
139 197 227
139 197 227
139 195 223
138 193 220
137 191 217
136 188 214
135 186 210
132 180 203
127 172 192
125 167 186
121 160 177
106 133 147
85 100 109
90 107 117
85 95 103
68 56 58
63 31 28
62 35 34
61 28 26
60 27 25
61 28 26
59 27 25
60 27 25
59 27 25
62 28 26
59 27 25
57 26 25
57 26 24
61 27 25
59 27 24
60 27 25
61 28 25
61 27 25
60 27 25
61 28 26
62 28 26
60 27 25
61 27 25
62 28 25
60 27 25
58 27 24
61 28 25
59 27 25
60 27 25
58 26 24
63 28 26
62 28 26
62 28 26
63 28 26
61 27 25
61 28 25
62 28 25
61 28 26
60 27 24
61 27 25
61 28 25
63 28 26
63 28 26
62 28 25
61 27 25
63 28 26
61 28 25
69 54 64
67 55 66
82 87 108
92 107 133
97 119 149
102 126 157
106 134 168
106 133 166
108 135 168
108 135 169
106 132 165
109 136 170
108 135 169
106 134 168
107 133 166
110 138 173
106 133 167
108 134 168
104 131 166
103 130 162
101 128 161
104 131 164
102 129 163
103 128 160
104 131 163
99 125 157
101 126 158
94 117 147
95 118 148
90 112 140
95 118 149
96 122 152
99 124 154
99 124 155
101 127 159
102 128 161
105 132 165
104 130 163
106 134 169
103 129 163
103 130 163
102 129 162
106 133 168
104 129 162
105 132 167
104 131 164
105 132 167
105 132 166
104 130 163
100 126 159
105 131 163
103 130 164
104 132 165
104 131 164
104 130 163
101 129 161
97 124 155
104 131 163
105 132 166
99 127 159
99 126 158
96 122 153
96 122 152
91 118 148
82 108 135
83 113 143
78 107 133
81 109 135
78 105 127
89 113 133
92 116 134
97 120 140
98 115 129
102 121 135
98 116 127
108 126 139
100 116 128
105 122 136
103 120 134
103 121 134
97 114 126
102 119 132
103 120 133
104 121 135
104 121 134
107 125 140
106 124 138
114 133 147
102 123 138
106 130 146
102 128 148
98 127 146
97 127 146
87 122 142
87 124 145
83 120 140
88 129 152
83 121 141
86 123 144
86 124 146
89 128 149
92 131 152
89 129 150
92 132 154
92 132 155
87 125 145
91 130 149
89 129 146
89 129 150
93 133 154
91 128 148
97 138 160
88 124 141
92 131 151
97 137 157
94 132 152
95 133 153
93 132 151
90 127 146
88 124 143
98 139 161
100 140 160
101 141 161
99 140 160
99 139 160
91 130 148
99 139 159
97 139 158
95 134 152
98 137 156
99 140 160
95 135 154
95 132 152
98 137 157
100 140 160
98 138 156
95 135 154
99 140 161
88 125 144
99 137 156
109 145 166
114 147 169
113 145 166
124 154 177
141 165 189
144 168 192
161 185 214
171 195 225
169 192 221
175 199 230
178 202 233
180 204 235
176 199 229
186 210 242
186 210 242
184 207 239
185 209 241
182 206 237
188 212 244
190 214 246
187 210 242
188 212 243
190 214 246
191 214 246
190 214 245
191 215 247
194 218 250
192 216 248
193 217 249
192 216 248
191 215 246
192 216 247
191 215 246
193 217 249
197 221 253
193 216 247
196 220 252
193 216 247
196 219 251
193 216 246
194 218 248
195 219 250
196 220 251
194 217 248
196 220 251
196 219 250
196 219 250
198 221 252
196 219 250
197 220 251
198 221 252
197 221 252
200 224 255
199 222 253
196 219 250
199 223 254
197 219 250
198 221 252
197 220 251
198 220 251
198 220 251
199 222 252
198 221 251
199 222 253
197 220 250
198 221 252
201 224 254
199 222 252
198 220 251
200 223 254
199 222 252
199 222 252
200 223 254
199 222 252
199 222 252
200 223 253
200 223 253
200 223 254
197 220 250
200 222 252
198 221 250
200 222 252
199 221 252
199 221 251
199 222 252
198 220 250
200 222 252
199 221 251
199 222 252
201 223 254
200 222 252
201 224 254
197 219 249
200 223 253
199 221 250
199 221 251
200 222 252
201 223 253
199 221 251
201 224 254
200 222 252
201 223 253
200 222 252
200 222 252
199 220 250
200 221 251
201 223 253
201 223 253
199 220 250
199 221 251
200 221 251
201 223 253
200 221 251
201 222 252
181 204 221
117 147 124
87 74 94
89 53 101
95 95 105
101 107 113
93 100 106
73 84 88
97 105 110
104 112 118
109 115 122
109 115 122
110 116 123
113 118 125
110 117 124
112 118 125
111 117 124
108 114 120
123 127 130
115 121 124
109 117 119
118 125 130
114 120 125
103 105 109
79 86 78
81 115 39
92 138 18
93 140 18
89 132 17
88 129 16
94 137 18
95 139 18
90 130 17
95 137 17
94 133 25
98 127 72
107 118 112
107 113 119
110 116 123
109 115 121
109 116 122
114 101 106
124 70 72
133 45 41
132 44 41
135 45 42
134 45 42
131 44 41
133 45 42
137 46 43
133 45 42
133 45 41
135 45 42
129 48 46
119 78 82
109 96 103
98 104 114
99 105 115
90 95 106
85 91 100
81 84 94
72 76 86
63 67 82
32 37 58
21 26 48
38 42 56
53 55 68
60 64 73
79 83 93
84 88 100
87 91 98
78 76 80
62 47 36
58 38 15
60 39 15
58 38 14
56 37 14
59 39 15
58 38 14
58 38 15
56 37 14
58 38 15
57 38 14
57 37 14
60 39 15
58 38 14
67 56 50
90 89 91
103 107 113
108 113 120
111 118 125
111 118 125
107 113 120
108 115 123
108 114 121
106 113 120
106 112 119
110 116 123
104 110 118
106 112 120
108 115 122
108 113 120
108 114 121
102 109 117
106 112 120
106 112 119
102 108 115
109 116 123
104 112 120
102 108 116
104 110 118
106 112 120
100 108 116
104 111 119
104 111 119
106 113 120
109 116 122
105 112 120
106 112 119
110 116 123
103 111 119
106 114 121
106 112 119
106 113 120
110 116 124
108 114 122
110 116 123
109 116 124
111 118 126
110 116 123
109 115 122
111 113 118
110 101 102
107 76 65
109 71 56
105 69 54
108 71 56
111 73 57
109 72 56
107 71 55
109 72 56
103 68 53
110 72 56
110 72 56
107 70 55
110 72 57
109 72 56
110 72 57
111 73 57
106 71 57
112 85 78
108 96 95
112 112 117
111 117 124
109 116 123
112 117 124
111 117 124
109 115 122
112 118 125
110 115 122
111 117 124
113 119 125
110 116 124
112 118 125
108 114 121
112 117 124
112 118 125
111 117 124
112 118 125
111 116 123
112 117 123
112 117 123
108 114 121
111 117 123
109 115 122
108 114 121
109 115 123
110 115 122
109 114 121
107 113 119
110 115 122
111 116 122
108 114 121
108 114 121
103 109 117
91 96 106
57 60 82
33 34 68
7 7 61
7 7 61
7 6 60
7 7 60
7 7 61
7 6 59
7 6 59
7 6 60
7 7 61
7 6 57
7 7 61
7 7 62
7 7 59
47 49 75
79 83 98
99 104 112
109 114 121
108 114 120
110 115 121
108 114 121
107 113 120
108 114 121
109 114 121
109 114 121
107 113 121
111 116 123
111 115 122
114 114 119
126 120 122
142 128 125
149 131 125
156 136 130
163 141 133
163 141 134
161 141 134
162 142 135
163 143 137
159 139 133
158 138 131
157 137 130
149 132 126
149 133 128
136 127 125
119 116 119
112 115 120
111 115 121
112 117 125
113 118 125
113 118 124
109 115 122
109 115 122
111 117 123
113 118 124
111 117 124
107 113 119
108 114 120
111 116 123
107 113 118
105 112 117
106 112 117
110 116 122
106 112 117
106 111 116
104 110 114
107 113 118
106 113 118
104 110 114
100 107 110
101 107 111
99 106 107
98 104 106
95 101 103
96 102 103
92 97 97
85 92 91
81 87 86
79 84 81
75 79 74
69 73 68
75 79 77
69 74 72
67 71 65
63 66 59
76 81 78
74 79 77
73 75 75
68 64 67
70 57 65
62 41 53
62 38 53
63 39 53
60 37 51
61 38 51
64 39 54
61 37 52
62 38 53
61 38 53
60 36 51
62 37 51
61 36 51
61 36 50
61 38 52
56 34 48
62 47 57
80 74 82
93 96 101
103 109 113
105 112 116
106 113 118
108 115 120
107 114 119
105 112 118
109 116 122
110 115 122
107 113 119
107 114 121
110 117 123
110 116 122
110 116 122
109 116 122
110 116 122
103 110 115
94 101 107
83 90 95
75 83 88
66 73 79
56 65 71
50 59 64
51 52 60
45 40 50
60 33 53
65 31 53
71 31 56
85 31 63
107 33 74
114 32 78
129 32 86
141 33 91
131 31 86
135 32 88
143 34 93
140 33 91
143 34 92
146 35 95
142 34 91
144 34 94
144 34 93
140 50 97
127 82 105
111 103 112
109 116 121
105 113 118
107 114 119
101 113 116
107 115 120
102 112 116
88 110 105
80 104 97
48 94 74
40 95 72
40 95 71
41 93 72
38 88 67
40 93 71
38 90 68
39 95 71
41 97 73
39 93 69
43 96 73
62 100 84
78 103 96
99 111 111
107 115 119
100 110 114
107 114 120
109 116 122
107 115 121
107 115 120
108 114 120
109 115 122
106 113 119
108 114 119
111 117 124
111 118 122
109 117 122
112 118 124
111 106 109
115 94 91
106 68 58
116 67 52
115 66 51
111 65 50
114 67 51
114 66 51
119 69 53
111 65 50
113 65 51
113 66 51
119 70 54
114 67 51
110 64 50
116 67 52
114 66 51
113 66 51
112 66 51
108 71 60
103 88 82
98 99 99
87 94 91
86 94 90
80 87 83
80 88 83
79 86 83
79 85 81
78 87 81
92 99 97
90 98 98
93 100 100
95 102 103
89 96 94
101 108 111
101 107 112
104 112 114
104 111 114
109 115 120
108 113 119
104 111 114
107 115 119
109 116 120
110 115 121
110 116 123
108 115 121
102 108 114
112 117 123
109 114 120
105 111 117
106 111 118
108 113 120
102 106 112
101 106 111
103 107 112
101 105 111
102 106 112
101 105 110
93 95 100
91 93 98
97 100 106
96 99 104
96 99 105
95 100 106
103 108 114
103 107 113
99 102 109
101 106 112
104 109 115
106 111 117
106 111 118
109 115 121
107 112 118
109 114 121
109 115 122
107 112 120
110 115 120
109 115 121
111 117 124
109 115 122
101 108 108
79 87 74
58 68 25
60 72 23
56 67 22
58 69 22
60 72 23
57 69 22
58 70 23
58 69 22
57 68 22
59 70 22
58 70 23
58 69 22
69 79 58
93 101 98
106 113 118
110 117 124
108 115 122
108 115 121
105 112 118
105 112 118
108 114 120
107 114 121
108 114 121
111 117 123
108 116 122
106 114 120
110 117 124
112 118 124
110 116 123
109 116 122
112 117 123
101 103 108
84 80 82
62 44 37
62 37 24
57 35 23
61 37 24
64 39 25
59 36 24
59 35 23
58 35 23
57 35 23
78 70 70
93 91 95
104 109 116
104 110 116
106 111 117
89 87 90
78 63 59
68 35 12
69 36 12
69 36 12
70 50 43
87 81 85
96 99 106
101 104 113
99 103 113
103 109 118
105 110 120
90 99 99
79 96 77
58 88 22
56 87 12
65 79 52
91 90 96
107 106 119
112 117 124
110 116 123
111 117 124
106 110 114
100 101 101
94 96 95
100 106 106
79 90 95
97 113 136
120 134 157
131 148 173
126 144 166
131 147 168
127 144 165
129 146 170
124 141 162
125 141 162
130 146 168
127 145 167
133 150 174
131 146 169
128 143 164
132 149 171
129 146 168
129 145 167
131 148 172
130 146 168
128 144 165
130 147 169
129 147 171
129 145 166
130 147 172
127 143 163
130 147 170
131 148 173
131 150 173
131 148 171
129 145 168
130 147 169
129 146 169
126 144 165
135 152 176
128 144 167
129 146 169
125 142 163
129 146 168
129 146 169
128 145 167
126 143 165
131 150 171
131 149 172
124 140 162
129 147 170
128 147 169
126 144 166
124 140 161
131 148 171
132 151 175
128 144 167
126 143 166
125 142 163
126 144 167
126 142 164
124 142 162
129 146 169
127 144 167
131 150 172
122 139 161
127 146 169
128 146 168
126 144 167
128 146 169
129 147 170
126 145 167
112 131 142
112 133 134
102 122 117
88 109 90
84 106 78
81 105 62
72 98 47
75 101 49
76 102 49
75 101 49
75 99 48
72 96 46
76 101 48
76 102 49
78 104 50
76 101 48
78 104 50
77 102 49
78 104 50
75 100 48
78 104 50
79 105 51
78 104 50
76 101 49
76 101 49
79 106 51
77 103 49
76 102 49
78 105 50
78 104 50
82 109 52
79 106 50
75 101 48
79 105 50
76 101 49
81 109 52
78 105 50
75 100 48
78 105 50
80 107 51
82 109 52
79 106 51
79 105 50
78 104 50
80 107 51
77 102 49
77 103 49
78 104 49
76 102 49
80 107 51
78 104 49
78 102 49
82 108 51
77 104 49
78 104 50
80 107 51
76 103 49
77 104 50
82 110 52
82 109 52
77 103 49
82 110 53
82 110 52
83 110 52
79 106 51
82 109 52
81 109 52
80 107 51
80 108 52
80 106 50
84 112 53
79 106 51
81 108 51
86 112 71
96 119 103
101 123 113
107 125 128
116 135 144
122 139 159
115 131 150
126 143 164
125 142 165
126 142 164
126 143 165
123 139 160
125 142 163
121 136 157
121 137 157
119 136 157
125 142 164
123 139 162
124 140 161
122 138 160
118 135 156
125 140 163
127 144 165
122 137 158
122 137 158
123 136 158
122 137 158
122 138 159
123 140 162
122 138 159
128 145 168
120 135 154
126 143 166
122 138 160
123 138 159
121 136 158
119 134 154
127 144 167
119 135 156
124 139 160
119 134 156
123 137 158
114 127 146
121 136 157
119 134 154
121 136 158
117 131 153
121 136 158
119 134 155
123 137 158
116 131 151
116 130 150
125 141 164
121 136 157
119 134 154
119 132 153
118 132 152
121 135 156
122 137 159
123 138 160
123 139 161
119 134 155
126 144 165
124 139 158
129 145 166
127 142 161
131 146 164
127 144 161
132 149 165
128 143 161
134 151 167
129 146 163
129 143 157
137 153 168
132 149 164
135 153 168
136 152 167
135 152 166
133 148 163
134 151 167
131 147 161
135 152 168
132 148 163
136 153 171
136 153 169
130 146 162
131 148 165
128 145 161
130 146 165
128 145 165
130 147 167
133 150 171
128 146 168
130 147 171
129 147 170
131 147 170
127 144 166
130 148 171
133 152 175
127 146 168
131 150 173
129 148 171
129 147 170
132 150 172
132 150 174
129 145 167
130 147 169
128 145 168
128 146 169
131 149 171
131 149 172
128 145 167
131 149 172
128 145 167
128 144 168
130 149 172
127 145 167
131 150 172
132 150 174
126 143 166
134 153 177
133 151 175
131 149 173
128 145 167
130 151 172
123 146 162
114 138 148
112 144 146
100 140 128
82 134 105
71 123 91
63 128 74
49 123 57
38 125 38
37 122 37
37 120 37
37 122 38
36 117 37
37 121 37
39 128 39
39 128 39
39 127 39
37 119 37
35 116 36
37 119 37
36 119 37
37 119 37
37 118 37
36 116 36
38 123 38
39 126 39
38 122 38
