P3
1600 1
255
55 42 36
54 41 36
56 43 37
53 40 35
56 42 37
57 43 37
55 42 36
54 41 36
54 41 36
52 39 35
56 42 37
56 46 42
64 61 58
70 68 64
75 75 72
75 75 72
82 91 88
92 100 99
90 99 99
96 107 113
97 105 111
112 123 130
115 128 141
111 125 137
113 126 140
119 132 147
115 129 146
114 129 144
105 117 130
116 128 143
116 130 147
114 127 142
111 123 137
110 121 136
115 127 142
115 128 143
110 121 136
121 133 150
114 127 143
111 122 137
113 128 144
110 123 138
106 116 131
106 116 131
111 122 139
108 116 130
112 125 142
110 120 134
110 118 135
105 112 125
100 107 120
92 91 103
97 98 108
87 82 90
94 91 100
86 78 87
88 77 81
87 80 87
84 71 75
80 56 56
65 40 35
76 56 56
67 46 48
71 48 47
71 49 50
70 43 40
69 40 35
67 35 30
68 42 39
64 35 30
65 45 45
74 46 44
72 46 46
75 47 45
66 42 41
70 38 33
68 41 39
77 63 66
80 67 73
80 65 69
83 67 71
82 73 81
91 83 92
87 84 93
96 92 102
89 84 94
96 92 102
97 101 114
102 106 121
109 116 131
113 121 138
107 116 132
103 108 122
105 113 130
112 119 134
117 128 147
107 113 130
111 119 135
112 119 135
110 119 136
115 125 142
116 126 145
118 129 148
111 119 136
116 128 146
118 133 155
116 126 144
115 126 145
117 128 148
122 134 154
121 134 154
122 133 153
119 131 151
120 133 153
121 135 155
120 132 151
121 132 151
122 137 157
119 130 149
122 138 159
121 136 156
125 140 162
124 140 161
127 144 167
129 144 167
127 142 163
123 140 160
125 140 162
129 144 166
129 146 169
130 147 170
123 137 159
128 145 168
128 142 163
130 146 169
125 142 164
124 140 162
129 145 167
130 146 169
129 146 170
131 149 172
125 141 163
128 145 167
125 141 163
131 151 173
129 145 167
127 144 166
129 147 171
125 141 163
128 144 161
127 143 164
123 140 160
114 129 146
115 130 147
102 111 134
97 98 120
93 91 114
85 76 102
75 57 81
73 55 76
82 75 95
82 80 102
105 111 136
116 125 145
114 129 150
123 138 157
125 142 156
123 140 154
126 143 151
129 145 151
129 146 151
124 141 141
126 142 134
120 136 128
121 138 128
112 129 107
112 132 115
112 130 105
104 125 95
113 132 102
104 124 96
98 126 99
107 132 109
101 127 101
112 135 112
100 123 97
102 126 104
96 122 98
96 124 102
88 126 110
92 122 103
96 128 115
93 125 120
101 135 133
111 141 145
109 139 147
121 142 157
117 144 160
125 145 168
130 147 170
126 141 161
131 147 170
124 141 167
124 137 158
123 138 159
128 143 165
126 140 161
118 128 146
116 125 142
113 114 129
112 107 117
113 102 113
100 93 104
113 111 119
111 109 121
113 110 118
121 127 136
118 132 137
112 128 131
114 132 139
117 137 147
127 147 159
113 134 142
119 135 151
106 116 131
97 111 121
103 117 134
117 130 146
111 127 145
120 138 157
121 141 161
123 142 163
121 138 160
126 147 171
123 143 165
124 143 165
122 141 164
127 144 165
123 143 166
128 147 170
126 144 167
128 147 171
120 139 159
130 148 170
124 142 164
122 141 163
125 141 164
126 145 168
125 143 166
124 143 166
126 145 168
124 141 162
126 143 166
126 143 165
122 142 163
127 145 168
125 143 167
128 147 170
128 146 170
120 139 160
128 147 170
127 144 167
119 136 155
126 144 166
125 144 165
121 139 159
121 139 161
124 140 161
123 140 161
122 140 161
121 142 164
122 138 159
121 141 163
122 140 162
123 141 162
120 136 156
120 136 156
119 136 158
114 129 149
113 126 147
106 115 140
99 114 146
87 106 152
75 98 158
61 92 166
51 89 171
44 89 180
42 87 174
43 88 178
43 88 178
45 91 182
44 89 180
43 89 179
43 89 179
43 88 175
44 90 181
43 89 180
43 87 176
44 91 183
44 90 180
45 92 185
43 89 179
43 88 177
42 87 174
43 89 178
44 90 180
42 86 174
44 89 180
44 89 181
44 90 181
42 87 175
43 87 174
42 87 175
44 89 181
43 89 181
43 88 175
43 88 177
42 88 177
44 91 185
44 90 182
44 90 179
44 90 182
45 91 184
43 89 179
43 89 180
43 88 178
42 87 173
43 88 177
43 89 179
42 88 177
42 87 174
43 87 176
43 89 179
43 88 178
42 87 173
44 90 179
43 88 176
42 87 174
43 90 182
45 89 179
43 89 180
43 89 179
42 87 177
43 88 180
43 88 177
42 87 174
43 87 175
42 86 174
40 83 167
43 87 176
41 85 172
43 87 172
73 104 172
90 117 163
101 122 159
117 133 155
124 137 150
98 101 105
104 114 114
99 97 102
84 84 91
80 91 66
76 86 68
92 114 76
89 125 64
102 146 64
95 147 51
109 158 77
116 159 105
130 166 134
128 163 134
167 192 192
169 191 199
168 185 199
178 192 215
168 181 203
179 193 214
168 182 203
159 175 199
148 163 186
147 164 186
165 180 202
172 186 208
170 185 206
189 204 225
189 204 219
185 200 213
176 191 196
153 166 163
130 141 127
107 117 95
97 109 74
99 110 75
96 105 68
92 101 56
99 109 69
92 101 50
103 112 85
95 104 66
100 108 67
95 105 66
100 108 77
107 113 91
113 117 108
129 128 131
117 110 118
108 76 105
100 68 92
93 46 82
105 68 101
95 50 87
110 76 109
105 66 101
117 88 117
121 101 128
141 126 153
145 147 170
138 155 175
143 158 180
144 182 201
151 193 212
145 195 214
145 199 221
148 202 225
148 203 227
146 202 226
146 202 227
144 200 227
143 200 227
143 199 227
142 199 227
140 198 227
139 197 227
139 197 227
138 196 227
138 196 227
136 195 227
135 195 227
136 195 227
135 194 227
134 194 227
134 194 227
134 194 227
133 193 227
133 193 227
133 193 227
133 193 227
133 193 227
133 193 227
132 193 227
132 193 227
132 193 227
132 192 227
132 192 227
132 193 227
132 193 227
132 193 227
133 193 227
133 193 227
133 193 227
133 193 227
133 193 227
133 193 227
135 194 227
134 194 227
134 193 226
134 194 227
133 191 222
132 188 219
136 192 220
136 192 221
139 194 221
140 195 222
140 194 220
141 196 220
144 197 221
142 195 216
145 198 220
144 197 219
148 202 224
145 198 220
147 200 223
143 194 216
140 189 209
130 175 192
123 166 183
103 135 149
92 114 123
74 77 82
67 62 66
59 34 34
56 26 24
55 25 23
57 26 24
51 24 22
57 26 24
55 25 23
55 25 23
55 25 23
58 26 24
56 26 24
59 27 24
59 27 24
55 25 23
57 25 23
57 26 23
55 25 23
57 26 24
55 25 23
58 27 24
56 26 24
57 26 24
56 26 23
55 25 23
59 27 24
58 26 23
56 26 23
56 25 23
57 26 23
58 26 24
59 26 24
57 25 23
57 26 23
58 26 24
59 26 24
59 26 24
58 26 24
57 25 23
62 40 45
74 69 82
79 80 97
87 97 118
96 112 138
102 122 150
104 127 157
107 133 164
101 128 162
98 124 157
93 119 152
94 120 152
100 128 162
100 128 163
98 124 158
99 126 160
102 129 163
98 125 159
99 126 159
96 122 156
97 123 156
97 123 156
94 120 152
100 127 161
96 122 157
100 127 160
99 126 160
99 125 159
96 123 156
96 122 155
99 125 159
99 124 156
97 122 155
90 116 146
95 122 155
97 124 158
100 127 160
96 123 155
100 127 160
92 118 150
98 124 156
99 126 158
95 122 156
95 120 152
95 121 154
95 120 152
99 124 156
94 120 151
96 121 153
95 120 152
95 121 153
89 114 146
94 120 151
95 121 152
90 115 146
93 120 149
92 118 149
90 116 146
98 123 153
99 123 152
104 128 157
108 130 157
115 138 164
118 139 164
122 143 169
126 146 170
130 149 172
121 140 161
128 146 170
129 147 170
126 144 168
130 150 174
128 146 168
124 143 165
127 146 168
128 147 171
127 147 170
131 151 175
128 147 170
124 142 164
126 145 166
127 146 168
124 143 165
126 146 170
124 142 165
129 147 171
128 147 171
129 148 172
126 146 169
122 140 162
124 144 167
124 141 163
121 140 162
112 132 153
113 136 158
113 136 156
98 122 143
93 120 138
93 121 141
87 114 130
86 115 132
75 107 123
73 105 120
76 111 128
73 105 123
72 105 123
75 108 125
83 120 137
75 108 123
80 114 132
82 117 136
77 110 128
84 118 135
83 118 136
83 120 136
83 119 136
78 112 129
84 120 138
84 120 137
80 117 132
82 117 133
84 121 138
84 118 137
81 115 133
84 121 139
79 114 132
82 116 133
75 109 123
69 102 115
79 114 129
78 113 129
81 117 135
76 110 124
79 112 127
75 108 125
83 121 137
78 111 128
80 114 129
85 117 134
88 118 134
95 123 141
95 119 136
99 124 143
107 130 150
107 128 148
113 134 153
121 140 161
121 140 161
128 147 170
127 146 167
125 142 163
128 145 166
135 155 180
138 158 182
136 155 179
145 165 191
153 175 203
165 189 220
171 196 226
167 191 221
167 193 220
166 196 218
169 204 218
167 205 217
161 206 206
155 202 197
164 211 207
147 207 180
147 210 179
137 206 161
132 207 154
136 206 160
135 207 158
144 209 173
136 207 158
128 207 146
130 208 149
124 200 142
131 206 152
133 207 156
133 203 157
139 205 166
133 206 156
144 205 174
152 206 187
157 210 194
169 214 213
163 210 204
177 214 226
174 209 223
184 215 237
187 213 241
190 214 245
191 216 248
194 219 251
194 218 250
195 220 253
193 218 250
193 218 250
195 220 252
195 219 251
194 219 251
195 219 251
194 218 250
196 220 252
196 220 252
195 219 251
195 219 251
195 219 251
195 219 251
195 220 252
194 218 250
193 217 248
196 220 252
196 220 252
195 219 251
196 220 252
195 218 250
197 221 254
196 220 252
196 220 251
196 219 251
197 221 253
196 220 252
197 221 252
196 219 251
196 219 251
196 219 251
197 222 253
197 221 252
194 217 248
199 223 255
196 220 252
197 220 252
197 221 252
196 220 252
197 221 252
197 221 253
198 221 253
198 222 254
195 218 249
194 215 247
190 202 237
193 199 237
194 192 234
193 187 231
189 165 217
187 159 214
187 158 215
185 157 213
189 159 216
190 161 218
191 161 219
189 159 216
177 158 200
106 132 109
81 59 86
84 36 93
95 87 107
109 114 121
110 116 122
111 116 123
108 114 121
110 116 123
112 117 124
110 115 122
110 116 122
111 116 123
111 116 122
110 115 121
106 113 116
106 112 117
109 118 120
111 119 123
110 116 121
110 116 122
113 120 124
107 114 118
116 121 128
109 117 115
99 122 81
82 115 39
80 113 14
81 116 14
79 115 14
80 115 14
76 110 14
74 104 13
68 95 22
87 107 74
104 113 111
106 114 115
107 112 115
109 114 117
104 93 94
121 67 67
118 39 36
122 41 37
120 39 35
114 38 35
121 40 37
116 39 35
113 37 34
115 38 35
116 38 35
116 38 35
114 38 35
113 37 33
110 37 33
109 71 73
99 97 102
105 110 117
108 112 119
107 111 119
105 111 117
108 112 119
107 111 119
108 112 118
107 111 118
102 105 111
107 112 119
109 114 121
103 107 114
98 100 104
76 71 70
53 38 25
49 31 12
46 30 11
49 32 12
50 32 12
47 30 11
50 32 12
49 32 12
49 32 12
51 33 12
47 30 11
51 33 12
51 33 12
48 32 12
50 32 12
50 32 12
51 40 33
83 84 86
103 108 114
110 115 121
108 113 120
107 113 119
108 114 121
107 112 118
108 113 120
109 115 121
107 113 120
107 113 119
107 113 119
107 112 119
112 117 124
108 114 120
110 117 124
110 116 122
112 116 122
109 115 122
110 116 123
109 115 122
110 116 123
110 117 123
110 116 123
110 115 122
110 116 123
111 119 126
111 117 124
110 116 122
110 115 122
111 117 124
109 115 121
111 117 124
111 117 123
109 114 120
106 112 119
111 116 123
108 114 120
109 114 121
109 114 120
108 112 118
104 102 104
91 76 74
94 63 51
90 59 45
87 57 44
90 59 44
92 59 45
87 57 44
88 58 44
87 56 43
96 63 48
87 57 44
88 58 44
88 58 45
92 61 46
86 56 44
86 57 44
92 60 46
85 56 44
89 58 45
83 54 43
82 54 42
86 69 65
106 104 108
108 112 119
104 109 115
110 114 121
110 115 122
108 113 120
104 109 115
108 113 120
107 112 118
107 112 119
109 115 122
107 112 118
107 112 119
108 113 119
109 114 121
109 114 121
106 111 117
110 116 123
105 112 121
84 96 119
69 86 120
44 71 114
40 69 115
40 68 115
40 69 116
40 69 116
40 69 116
39 67 114
40 70 118
39 67 114
40 69 117
39 68 115
40 68 116
40 69 117
40 69 116
40 68 115
40 69 115
39 69 116
40 69 116
41 71 119
41 70 118
40 69 117
39 67 111
49 74 118
66 84 117
89 99 115
101 108 118
103 109 116
106 111 118
108 113 120
101 107 115
105 110 117
111 116 122
106 111 118
107 112 119
104 105 111
109 100 101
110 97 94
118 101 98
109 94 94
102 92 97
105 96 103
109 98 104
117 106 108
136 119 113
135 116 111
132 112 101
132 110 101
125 104 92
127 108 95
131 109 98
138 116 105
148 127 116
151 130 119
158 133 125
154 130 122
142 121 113
141 119 110
137 116 107
121 103 95
121 104 96
107 93 88
104 96 95
108 105 108
108 113 119
112 118 124
114 119 126
111 117 124
110 116 122
111 117 123
112 117 123
111 116 123
111 117 123
112 117 124
111 116 122
110 115 122
111 117 124
109 114 120
110 115 121
109 115 121
108 114 121
111 116 122
109 116 123
111 116 122
108 114 119
110 115 122
107 111 117
105 109 116
112 118 124
106 112 118
110 114 121
106 111 118
108 113 119
107 112 117
107 113 119
107 112 119
104 108 113
103 108 115
106 110 117
102 106 112
103 109 116
101 105 111
101 106 112
101 106 112
100 104 111
101 103 110
95 98 104
104 108 115
102 105 112
98 99 106
101 105 112
95 99 106
101 106 112
103 107 115
108 113 119
103 108 115
100 104 110
101 105 112
104 108 115
100 103 109
103 108 114
104 108 115
105 109 116
105 109 115
103 105 113
100 104 111
103 104 110
82 84 89
53 58 63
17 31 35
4 26 30
4 26 31
4 26 31
4 26 31
4 26 31
4 27 32
4 26 31
4 25 29
4 26 31
4 26 30
4 26 31
4 26 31
4 26 30
4 25 29
4 25 29
4 26 31
4 26 30
4 25 30
4 25 30
4 25 30
4 25 30
4 25 30
15 25 31
34 24 33
67 24 49
101 25 65
108 25 67
114 26 72
115 37 76
100 57 79
112 84 100
107 105 113
103 105 112
105 107 114
105 110 116
104 106 113
106 111 118
107 112 118
109 114 120
105 110 116
105 109 115
106 111 117
102 108 113
105 111 116
107 111 118
106 111 119
107 112 117
102 106 112
107 112 119
106 114 119
108 114 121
104 110 117
104 110 114
102 108 113
101 107 113
107 111 117
107 111 117
107 111 116
108 112 118
107 110 116
105 109 115
96 100 105
102 103 108
108 111 117
99 99 103
103 106 112
100 98 104
93 95 100
93 93 95
94 91 95
90 89 92
83 79 82
79 75 77
73 66 67
76 71 70
68 59 59
59 47 42
68 48 46
74 53 57
79 62 65
80 65 70
88 74 80
87 79 84
87 79 87
89 85 88
96 96 100
98 96 99
98 98 102
107 108 112
104 106 110
109 113 119
104 108 114
108 111 117
106 110 115
108 112 118
110 113 119
110 114 120
109 112 118
112 118 124
110 116 121
108 113 119
112 118 124
110 116 121
113 118 124
107 114 120
112 117 123
111 117 125
110 115 121
110 115 122
112 116 122
112 117 124
113 118 124
112 118 125
110 116 124
111 116 122
110 116 122
110 116 122
112 118 125
110 116 121
112 118 124
110 116 122
112 117 123
112 118 124
110 116 122
113 118 125
112 117 123
108 114 121
109 115 122
111 117 123
110 115 120
109 115 121
110 116 122
110 116 123
107 113 120
107 113 118
107 113 119
109 114 121
106 112 118
106 112 117
107 113 118
101 107 111
102 108 113
104 110 116
102 108 112
99 104 110
96 101 105
94 99 103
79 84 86
84 88 88
85 89 89
72 75 74
60 63 59
43 48 32
39 48 17
38 45 24
54 60 47
58 63 53
73 78 75
83 88 90
99 104 108
95 101 105
99 105 110
102 106 111
105 111 116
104 110 115
105 110 116
102 108 113
110 116 123
105 111 117
105 111 117
106 112 117
106 112 119
104 108 114
106 111 118
107 112 119
104 109 115
103 108 115
108 114 120
106 112 119
102 107 111
78 76 78
53 35 28
51 30 20
50 30 20
51 30 20
53 32 21
51 30 20
49 29 19
50 30 19
61 49 46
87 85 89
103 107 112
108 112 118
107 111 117
105 110 116
108 112 118
100 104 109
100 104 110
97 100 105
101 104 109
97 100 106
100 104 110
103 108 114
103 108 113
107 112 119
99 107 109
77 93 73
55 81 24
51 79 11
52 81 11
50 78 10
50 77 10
67 86 57
91 102 95
108 113 120
111 115 123
104 109 115
92 96 100
74 76 76
45 49 47
44 50 44
65 65 96
71 70 134
83 92 137
94 107 144
112 128 157
117 134 159
126 144 167
130 148 171
130 147 170
131 150 174
128 145 168
132 150 173
130 149 173
128 146 169
133 151 174
128 147 170
132 150 173
127 141 162
130 147 170
131 150 173
132 150 173
130 148 169
129 148 172
134 152 176
131 149 171
130 148 170
130 148 171
129 147 169
133 152 176
132 150 173
131 149 173
127 145 167
127 144 167
128 146 169
131 148 171
132 151 174
131 150 172
130 148 170
130 148 171
130 149 172
131 148 170
129 147 169
131 150 174
130 148 170
132 150 174
132 149 172
129 148 170
128 146 169
130 148 170
128 146 169
131 150 173
129 147 168
123 141 163
126 144 166
126 145 166
125 143 165
128 146 168
126 145 166
128 146 168
123 142 163
130 147 169
126 145 168
122 141 161
124 143 164
127 145 167
127 146 168
123 140 161
125 144 164
110 129 141
100 117 121
96 115 113
84 105 88
76 96 71
71 94 45
70 93 45
67 90 43
71 96 46
72 96 46
71 95 46
70 93 45
71 95 45
67 91 43
72 96 46
72 96 46
74 98 47
72 96 46
67 90 44
71 94 45
69 93 45
73 96 46
72 95 46
72 95 46
70 93 45
73 98 47
74 98 47
70 93 45
73 97 46
68 91 44
74 99 47
71 95 45
72 95 46
75 100 48
76 102 49
71 94 46
73 98 47
74 98 47
74 98 47
77 102 49
77 102 48
74 99 47
74 98 47
78 104 49
71 95 45
73 98 46
72 95 45
76 101 48
73 98 47
74 99 47
70 94 45
73 97 46
73 98 47
76 102 48
74 98 47
73 97 46
76 102 49
70 93 45
75 100 47
73 97 46
75 99 47
75 99 48
71 96 46
74 99 47
70 93 45
74 98 47
78 104 49
78 105 50
72 96 45
76 102 48
75 100 48
75 100 47
73 98 46
73 97 46
72 97 46
76 101 47
78 103 54
82 106 66
86 108 86
95 116 108
107 127 130
111 131 141
120 138 156
116 134 152
119 138 158
116 135 153
122 140 161
120 139 158
122 140 160
121 140 161
122 140 160
120 137 155
122 141 161
122 141 162
130 149 171
124 143 164
125 143 166
127 146 168
128 147 169
126 144 166
125 144 165
128 147 170
127 146 168
131 150 173
123 142 163
123 143 164
127 146 167
131 151 174
127 145 167
126 145 167
124 143 165
128 147 169
126 145 166
129 148 170
130 147 169
130 149 172
127 146 168
127 147 169
131 149 173
129 146 165
130 148 169
130 147 163
133 149 164
131 147 162
135 150 161
132 147 157
137 152 162
136 152 162
135 150 159
135 150 159
136 151 159
137 151 161
132 146 155
137 153 162
136 150 159
132 147 157
137 152 162
132 147 159
138 153 162
129 144 153
137 152 162
137 153 164
140 156 166
136 151 160
137 151 161
137 153 163
135 151 162
134 150 160
138 153 164
135 150 160
138 153 164
136 151 160
137 153 164
136 150 160
142 156 165
133 148 158
136 152 163
136 151 161
136 151 161
136 152 162
140 155 166
138 154 165
137 152 162
138 153 164
136 151 162
137 151 162
136 151 161
140 156 166
136 151 163
140 157 167
137 152 163
138 153 164
137 150 161
138 154 164
141 156 165
137 152 162
139 155 166
137 151 161
135 150 159
139 154 164
139 154 166
135 151 164
135 152 169
136 154 173
134 152 172
131 151 170
129 149 170
128 148 169
128 148 169
129 150 171
129 148 169
128 148 169
129 147 170
129 148 169
129 149 170
131 150 173
128 149 171
127 147 168
128 147 168
123 143 163
130 149 170
129 148 169
128 148 170
127 146 167
128 148 169
125 145 165
130 150 172
125 147 164
124 146 164
116 141 152
108 136 141
97 128 126
89 122 118
80 123 104
79 122 104
70 121 89
61 113 77
49 113 60
46 106 56
33 101 35
31 102 31
30 100 30
33 110 33
30 102 31
29 99 29
31 104 31
31 103 31
