P3
1600 1
255
51 39 34
50 38 34
51 39 34
50 38 33
52 39 34
50 38 33
55 42 36
47 36 31
58 50 49
67 66 70
72 70 72
79 84 90
84 93 98
86 93 98
97 106 113
97 108 116
97 106 111
106 118 126
96 107 114
100 112 120
105 117 127
103 113 120
101 113 123
98 104 111
104 114 125
100 110 120
109 121 135
98 107 116
101 112 123
99 106 118
102 114 125
101 110 121
101 109 120
106 116 129
106 117 130
101 110 120
101 108 120
103 109 122
104 114 129
110 122 136
102 110 121
101 110 123
110 119 132
102 112 125
103 112 125
106 116 131
101 110 124
96 102 114
105 111 125
104 110 125
105 113 129
108 115 130
100 107 120
98 102 116
102 109 124
95 101 112
101 110 124
101 108 123
106 114 130
104 113 127
99 104 118
100 105 119
98 103 117
102 108 122
102 112 126
105 116 131
97 105 117
95 103 117
101 108 123
98 106 120
113 124 142
99 106 119
99 103 116
104 111 126
109 120 138
103 110 126
107 115 130
101 108 123
115 126 143
107 117 134
112 123 141
104 110 126
105 114 131
114 125 143
116 128 146
118 129 148
121 134 154
118 130 149
116 127 145
119 132 151
117 128 149
117 127 145
118 129 146
112 121 138
118 132 152
122 135 154
120 134 154
122 135 154
115 127 147
118 131 151
121 134 154
120 132 152
121 135 155
123 134 154
122 137 157
120 132 152
121 135 156
121 136 157
120 137 158
124 138 160
123 138 158
127 142 164
127 143 165
126 142 163
125 142 163
126 143 166
129 146 169
130 147 170
126 142 164
126 143 164
125 140 160
128 145 167
126 144 167
128 146 169
127 146 168
125 142 163
128 148 171
129 147 171
124 141 164
123 141 163
128 147 170
125 143 165
121 139 160
124 143 165
127 144 165
130 147 170
127 143 165
127 145 167
125 142 163
125 142 164
126 144 166
125 142 164
123 142 163
123 139 159
125 144 165
125 143 164
122 143 165
126 145 167
142 160 183
142 161 181
156 174 194
142 157 173
144 159 170
147 156 167
130 138 141
110 112 103
102 104 90
107 111 87
114 124 94
117 131 96
117 130 95
115 129 94
116 130 95
117 131 95
116 130 95
117 131 96
116 130 94
117 131 95
118 132 96
117 130 95
115 129 94
118 133 97
117 131 95
118 132 96
116 128 92
116 129 94
115 130 95
116 130 95
118 132 96
117 131 95
117 131 95
115 129 95
117 131 96
118 132 96
115 129 94
116 130 94
115 128 93
116 130 95
113 127 92
114 128 93
115 129 94
117 131 96
115 129 94
113 127 92
116 130 95
116 130 95
117 130 95
115 128 93
113 127 93
114 128 93
113 126 92
114 128 93
115 129 96
109 124 92
103 117 89
109 117 93
107 109 94
103 99 77
118 89 77
118 82 80
122 78 73
118 75 70
127 78 72
126 86 78
137 113 105
149 144 141
165 166 165
169 181 179
178 197 198
178 198 203
184 210 213
185 208 217
183 204 214
178 197 211
176 190 210
149 164 183
142 157 177
119 133 149
115 133 151
118 137 157
111 129 148
111 128 146
104 125 142
106 126 145
111 131 151
116 136 156
102 120 138
113 132 152
116 135 154
105 126 144
112 130 150
110 127 147
118 136 157
117 136 156
109 126 146
111 130 149
104 125 141
112 129 148
112 127 146
115 132 153
114 130 151
111 130 151
119 137 158
119 137 158
116 131 153
111 128 148
115 132 153
115 131 152
108 120 140
115 131 152
113 128 149
116 132 152
112 130 152
107 121 141
110 125 145
110 123 143
109 124 143
118 136 156
112 125 143
110 125 145
107 122 141
110 124 144
108 121 140
104 118 135
106 117 137
107 119 140
107 119 136
108 122 144
95 109 142
84 104 149
73 98 159
61 92 161
44 85 164
41 84 168
41 84 169
42 87 175
42 86 171
41 84 167
42 86 174
41 85 171
42 85 171
42 86 173
43 88 173
42 85 170
43 87 172
44 91 180
43 88 175
42 86 173
42 85 171
43 88 177
44 89 179
42 85 170
42 86 172
42 87 174
42 86 171
42 86 173
42 87 175
42 86 172
42 85 170
43 87 173
42 87 172
42 86 172
40 81 164
43 89 176
43 87 175
41 85 170
42 85 170
42 87 174
43 87 172
43 87 175
41 84 167
43 87 176
41 85 168
42 85 171
41 84 170
42 86 172
43 89 178
44 89 180
40 82 165
42 86 170
42 86 173
43 89 179
42 87 173
42 85 173
42 87 176
42 88 177
42 85 172
42 87 175
42 87 175
43 88 176
42 86 172
40 84 169
39 83 167
42 85 173
42 86 174
41 87 176
41 84 167
40 82 166
42 87 175
41 85 170
42 87 174
41 84 171
43 89 179
39 82 165
42 85 171
65 89 158
63 84 147
92 94 130
106 104 124
109 97 102
119 107 105
108 95 88
107 93 83
112 98 92
106 94 85
104 89 78
109 94 85
104 90 81
114 103 99
129 122 122
137 136 142
167 174 189
181 192 210
197 210 231
205 222 245
211 229 252
211 229 253
210 228 252
208 226 250
212 229 254
210 228 252
211 229 252
210 228 252
212 229 254
211 228 253
209 226 250
212 230 254
212 229 253
208 226 249
192 209 229
197 215 233
186 202 216
175 192 201
169 184 191
177 193 201
177 194 203
178 195 205
177 193 201
181 198 208
186 203 218
194 211 229
201 218 239
203 220 243
206 224 249
205 222 247
193 205 231
186 196 222
177 184 209
170 175 201
174 180 206
171 173 201
170 174 201
179 187 215
173 185 210
167 184 209
154 177 199
149 185 206
144 183 204
128 174 197
136 186 211
132 182 209
139 191 217
142 195 221
142 195 223
143 198 225
147 202 227
146 201 227
145 201 227
145 201 227
145 201 227
144 200 227
144 200 227
143 200 227
143 199 227
142 199 227
141 199 227
141 198 227
141 198 227
140 198 227
140 198 227
139 197 227
139 197 227
139 197 227
139 197 227
138 197 227
138 197 227
138 196 227
138 196 227
138 196 227
138 196 227
138 196 227
137 196 227
138 196 227
137 196 227
137 196 227
138 196 227
138 197 227
138 197 227
138 196 227
138 197 227
138 196 227
139 197 227
139 197 227
139 197 227
139 196 226
139 197 227
140 198 227
140 198 227
140 197 226
140 196 224
141 197 224
140 195 222
144 200 226
142 197 221
141 196 220
144 198 221
145 198 221
143 196 219
147 200 222
146 200 221
147 201 223
146 198 220
148 203 227
148 202 226
145 199 222
145 199 220
140 191 213
128 174 193
121 165 181
103 136 150
101 133 147
76 91 99
64 63 67
55 39 40
54 25 23
51 23 22
53 24 23
55 25 23
55 25 23
53 25 23
52 24 22
55 25 23
51 23 21
54 24 23
52 24 22
58 26 24
55 25 23
53 24 22
56 25 23
52 23 21
56 25 23
55 25 23
54 24 22
53 24 22
56 25 23
53 24 22
56 25 23
55 24 22
54 24 22
55 25 23
53 24 22
57 25 23
54 24 22
57 25 23
54 24 22
53 24 22
58 26 24
53 24 22
57 30 31
66 56 63
84 82 94
98 103 118
114 125 144
110 123 143
121 140 165
122 144 171
122 142 167
117 136 163
107 128 155
109 131 160
98 120 147
97 121 149
92 116 146
96 120 151
84 107 136
85 108 138
88 112 143
86 110 141
82 106 137
83 107 136
84 107 137
82 106 135
82 105 135
86 110 141
86 110 140
87 112 142
89 113 144
82 106 137
87 110 140
91 115 145
87 111 141
88 113 143
84 108 137
81 104 132
79 101 130
84 108 138
83 106 135
78 100 129
81 104 133
78 100 129
84 108 136
81 104 131
73 95 121
79 102 130
79 103 131
82 106 135
82 105 133
79 102 129
83 105 131
87 109 135
91 114 141
95 115 139
104 126 151
98 120 145
106 127 152
117 137 162
109 128 152
115 135 159
122 139 161
119 138 161
121 139 162
124 141 164
121 140 163
119 138 161
118 137 160
119 139 159
118 138 161
117 137 159
114 134 155
115 135 157
114 135 157
111 129 151
110 130 152
114 133 154
113 130 150
116 135 157
117 135 156
125 144 168
116 134 157
112 129 149
115 134 155
116 135 157
114 134 152
111 130 150
106 126 147
105 124 144
112 131 151
111 129 151
108 126 146
108 126 145
112 130 151
99 117 135
103 122 140
101 121 138
93 112 130
100 117 135
100 116 134
97 114 131
97 115 132
92 112 129
84 103 119
86 104 119
81 99 114
75 95 110
69 90 105
70 85 102
74 88 111
76 82 113
74 76 110
90 72 131
86 66 121
88 68 126
100 66 139
100 61 139
102 62 141
106 60 146
109 56 147
105 51 145
107 46 144
110 45 150
110 48 149
110 44 151
112 45 151
111 45 150
108 43 146
110 44 150
111 45 150
109 44 149
110 46 148
110 45 149
108 44 147
109 47 148
105 50 143
109 53 148
103 65 141
103 59 142
106 73 144
111 93 149
108 93 146
106 96 141
106 103 143
104 106 140
104 118 140
105 121 140
108 126 145
103 123 136
108 128 144
106 144 134
102 154 127
102 169 116
104 174 116
103 189 108
102 191 105
97 192 92
96 192 91
99 196 92
100 199 93
100 200 93
96 192 90
98 196 92
99 198 92
100 200 93
98 197 92
97 195 91
98 194 90
97 194 91
98 197 91
98 196 92
97 194 90
100 199 92
97 194 90
99 199 93
100 200 93
95 193 90
99 197 91
98 197 91
99 196 90
94 187 87
99 199 93
97 194 89
97 196 91
97 195 90
98 198 91
98 196 90
95 190 88
97 195 90
99 197 91
97 195 90
98 197 92
98 195 90
99 199 92
97 195 90
96 193 90
96 193 89
100 198 95
107 197 110
112 197 120
129 201 150
147 202 180
157 204 198
174 213 223
187 215 244
189 214 246
194 219 253
188 213 245
192 217 250
192 217 250
187 211 243
194 220 253
192 217 250
191 216 248
189 214 247
194 220 253
192 216 249
190 215 247
193 218 251
194 219 252
189 214 246
191 215 248
195 220 253
194 219 252
195 220 254
192 217 249
190 214 246
191 216 248
191 215 247
190 215 247
194 219 251
194 218 251
194 219 251
194 219 251
191 216 248
194 219 251
194 218 251
197 221 254
194 219 251
195 218 251
192 208 244
189 190 231
188 185 228
187 174 222
187 158 213
182 153 208
182 153 207
191 159 214
192 159 212
195 161 216
198 163 217
198 163 217
201 166 220
199 165 219
199 165 220
197 164 220
197 164 220
180 160 201
94 129 94
77 56 82
76 31 81
93 82 103
111 115 123
112 118 125
110 115 122
111 116 123
113 118 126
110 115 123
112 118 124
110 115 121
112 117 124
112 118 124
108 115 119
110 116 121
113 119 123
113 118 123
107 113 117
114 120 125
112 117 123
110 116 122
111 115 121
111 116 121
107 112 115
91 108 88
91 122 59
78 115 14
71 106 13
75 110 13
67 95 12
61 89 11
64 90 35
78 90 74
88 98 90
87 94 88
94 101 97
100 107 109
98 105 104
99 105 104
101 97 100
103 65 65
105 39 36
108 35 32
104 34 32
113 37 34
112 37 34
102 33 31
101 33 30
104 35 32
99 33 30
98 32 30
95 35 33
98 72 75
95 90 95
100 101 108
101 100 105
100 100 105
102 101 107
101 102 109
103 104 110
104 106 112
100 104 112
103 104 111
104 106 111
103 107 113
104 109 116
102 106 112
94 96 101
97 102 107
94 97 102
73 68 68
54 44 39
44 28 11
42 27 10
43 27 10
40 26 10
43 28 11
44 29 11
43 28 10
44 28 11
43 28 10
42 27 10
47 34 24
61 58 56
79 80 82
86 89 94
101 106 110
96 99 104
89 93 96
102 107 112
98 103 108
101 106 111
102 107 112
104 108 115
101 107 112
105 109 116
104 109 115
107 112 118
107 113 120
105 110 117
107 112 118
109 114 121
110 115 122
107 112 119
110 116 121
109 114 121
108 114 120
109 115 121
112 117 124
106 112 117
110 115 122
109 115 122
106 111 117
109 114 120
109 114 121
107 112 117
108 113 119
107 112 118
108 113 119
106 111 117
105 109 114
106 111 117
107 111 117
107 111 116
103 106 112
98 101 106
100 100 103
96 97 101
98 100 104
95 97 100
91 89 92
84 76 77
76 58 53
74 52 43
74 47 36
76 50 39
75 48 37
71 46 36
76 49 38
69 46 34
72 48 37
72 46 36
69 47 39
74 57 52
77 66 65
79 75 76
86 84 87
87 87 90
98 101 105
94 93 98
93 95 100
92 94 99
97 101 105
102 106 112
102 105 111
102 105 111
106 111 117
105 109 115
102 106 113
105 110 117
107 111 117
105 110 116
101 106 112
106 111 117
103 109 117
93 99 112
63 77 102
41 65 104
37 65 106
36 63 101
36 63 104
36 64 105
35 62 102
35 61 99
36 63 104
38 66 110
36 62 102
35 60 99
36 62 103
38 65 108
36 62 101
36 63 105
37 64 105
36 62 101
37 64 107
37 63 106
36 62 104
37 63 103
37 63 105
37 63 106
35 60 101
38 66 110
38 65 108
36 62 102
38 64 108
47 68 104
78 90 114
96 104 116
109 115 122
108 114 120
103 107 115
105 110 117
102 106 112
103 107 114
102 105 111
107 105 109
104 99 101
99 89 89
100 86 85
95 83 81
89 78 76
90 80 78
92 80 78
99 87 84
97 84 81
99 86 83
97 86 82
105 91 87
107 94 90
108 94 90
106 92 88
107 93 89
103 90 85
105 91 87
106 94 89
107 93 89
103 85 80
102 85 81
108 99 98
106 104 107
107 108 112
106 108 112
104 108 113
108 110 115
109 113 119
109 113 118
108 112 118
108 111 116
110 114 119
109 113 119
110 114 119
110 114 121
110 116 122
110 114 120
107 111 118
107 111 118
109 113 120
109 114 121
110 113 120
110 115 121
110 114 120
107 113 119
109 113 119
109 115 120
111 117 123
109 113 120
109 114 120
110 115 121
108 114 120
113 118 124
108 114 119
110 117 124
108 113 119
108 114 121
110 115 122
113 118 125
108 112 120
107 111 117
110 117 123
110 115 123
108 114 120
107 113 119
109 113 121
105 110 116
105 110 116
104 107 114
107 112 119
106 112 118
106 112 119
107 111 118
105 110 116
111 115 121
104 108 115
109 113 120
103 109 116
108 114 121
106 110 117
104 110 117
107 112 118
100 104 110
104 107 114
102 106 112
101 106 112
101 105 111
98 101 108
96 98 105
85 87 94
62 67 71
33 40 44
3 22 26
3 23 27
3 23 27
3 21 25
3 23 27
3 23 27
3 23 26
3 22 26
3 22 27
3 22 26
3 22 26
3 22 26
3 21 24
3 21 25
3 22 27
3 22 26
3 22 26
3 22 26
13 25 29
18 21 26
45 42 47
60 55 60
76 69 73
84 74 81
87 76 83
87 78 86
90 82 89
84 76 83
94 90 96
96 93 100
95 94 101
97 99 105
100 98 106
101 102 109
105 106 113
102 102 109
105 104 112
104 107 114
105 105 113
105 108 115
107 110 117
107 111 117
109 112 119
110 112 119
108 113 120
107 110 117
109 113 120
110 114 121
108 111 119
109 114 121
108 112 117
108 113 119
107 110 116
107 109 116
107 111 119
107 111 117
108 111 118
110 115 121
107 111 118
111 115 121
106 109 116
109 112 119
111 116 123
107 112 118
105 108 114
107 107 116
106 100 114
109 83 110
105 61 101
107 36 96
106 35 97
104 34 95
105 34 96
108 35 98
108 35 98
107 35 97
104 34 96
106 35 96
105 34 95
108 35 99
106 35 98
108 35 97
107 35 98
106 34 96
104 34 96
108 35 98
108 35 99
108 35 99
108 35 99
106 36 97
108 64 104
108 84 110
109 108 118
110 113 121
109 112 118
112 118 123
110 115 122
108 114 121
110 114 121
111 115 122
106 111 117
107 111 118
110 115 121
111 116 123
111 117 123
110 115 121
108 113 118
113 118 125
107 112 119
111 116 122
112 117 123
112 117 123
113 119 125
110 116 122
112 117 124
112 117 124
112 116 123
112 118 124
111 117 123
111 117 123
112 118 124
109 115 123
111 117 123
113 118 124
109 114 121
113 119 126
112 118 125
112 118 124
111 116 122
110 116 122
112 116 122
108 114 120
110 114 121
112 117 124
111 116 123
108 113 118
109 114 120
110 115 122
109 114 121
107 112 117
108 114 122
104 111 117
108 114 120
105 111 116
106 111 116
104 109 114
105 110 116
97 102 106
102 107 112
98 103 107
99 104 108
98 102 106
96 100 111
96 100 113
94 95 115
95 97 115
102 104 118
95 99 108
98 103 108
101 107 112
104 109 114
105 110 116
104 109 115
105 111 118
107 113 119
103 109 115
106 112 118
107 112 118
108 114 120
105 110 116
102 107 113
104 109 115
100 105 111
99 104 109
96 100 105
96 100 105
91 94 99
74 75 77
74 74 76
61 58 60
50 42 40
39 23 15
41 24 16
46 31 24
65 61 62
77 78 81
92 95 100
98 103 108
102 107 113
102 108 113
108 113 118
110 116 123
107 113 120
104 109 115
108 114 120
104 110 115
108 114 120
107 113 118
108 113 119
110 116 123
109 115 121
108 114 120
90 100 97
61 79 51
48 72 16
49 75 10
49 76 10
48 72 10
46 70 9
61 81 47
94 104 101
108 113 121
109 114 121
107 113 120
101 105 111
71 75 77
41 45 44
45 50 49
64 60 106
63 37 145
61 29 149
62 32 148
73 62 149
86 83 155
102 110 157
123 138 171
131 149 176
133 151 175
133 151 175
133 152 176
135 154 179
135 152 176
135 153 177
132 149 172
132 151 174
132 150 174
131 149 172
135 154 178
135 153 177
134 153 177
132 151 175
132 150 175
131 150 174
135 154 179
130 149 172
131 150 174
131 149 173
134 152 175
132 150 174
134 152 176
130 149 173
131 150 174
130 149 173
128 147 170
133 151 176
132 151 175
131 150 173
129 148 170
132 151 174
131 148 170
132 150 174
134 153 177
131 149 173
133 152 176
133 152 175
132 150 173
133 152 176
128 146 169
131 150 173
131 149 172
135 153 177
132 151 175
133 152 176
132 151 174
131 149 172
131 150 173
132 150 173
131 149 172
133 152 176
133 151 175
132 150 174
130 147 171
132 150 173
130 148 171
125 144 165
132 150 174
130 149 172
132 149 172
123 142 161
119 137 151
101 121 123
102 121 122
78 97 78
78 99 71
64 86 41
63 84 41
65 87 43
63 85 40
65 87 42
68 91 44
70 93 44
72 97 46
66 89 42
65 88 42
69 92 45
70 93 45
66 88 43
69 92 44
68 90 44
65 87 42
68 92 44
70 94 45
70 93 45
70 93 45
69 92 44
67 89 43
71 94 45
68 90 43
69 92 44
73 96 46
72 95 46
67 89 43
69 91 44
68 90 43
71 95 45
71 95 46
68 90 43
64 86 41
70 93 45
69 93 44
75 100 47
72 95 45
72 94 45
70 93 45
68 91 43
71 94 45
71 94 45
70 93 44
73 98 46
75 101 48
71 94 45
70 92 44
70 94 44
73 97 46
73 97 46
73 98 46
72 95 44
72 95 45
68 91 43
70 95 45
71 95 45
73 97 46
72 96 45
72 96 46
69 93 44
70 94 44
69 92 44
68 91 43
74 98 46
73 97 46
69 92 44
73 97 47
68 91 43
77 101 51
77 101 64
86 108 85
95 116 106
101 122 120
114 134 142
126 145 163
130 149 171
132 151 174
130 148 171
130 149 172
127 147 168
131 150 172
132 151 174
128 146 169
127 145 167
132 151 174
132 151 175
128 147 168
131 150 174
127 145 167
132 151 175
129 149 170
129 149 170
131 151 175
131 149 171
132 151 173
131 149 171
129 148 171
129 148 170
128 147 170
127 146 168
132 151 172
128 146 168
132 151 175
129 147 169
129 147 169
129 148 171
131 149 171
128 146 166
126 144 161
127 144 160
129 145 156
128 142 152
125 140 148
129 142 150
131 145 155
129 143 154
128 142 151
131 144 153
128 142 151
137 152 161
127 141 150
132 146 153
133 148 157
132 147 157
131 146 156
133 147 155
134 148 157
129 143 151
134 148 157
132 144 152
129 143 152
134 150 160
135 149 159
134 149 157
133 148 157
129 142 151
134 148 156
130 144 153
131 145 153
133 146 155
135 149 157
135 149 157
134 148 157
136 152 162
130 142 153
133 146 155
134 149 159
135 149 158
137 152 162
131 144 153
131 146 156
134 148 157
138 153 163
130 143 155
129 143 152
135 149 160
132 146 157
135 150 160
136 149 161
134 146 157
132 146 157
135 150 161
141 156 164
136 149 159
135 149 159
136 151 162
133 146 155
132 146 157
133 146 155
133 145 156
138 153 164
133 147 158
136 151 161
136 151 161
136 150 160
134 148 158
136 151 161
140 154 164
134 148 159
133 148 156
132 148 159
133 150 165
127 145 161
119 140 154
122 142 161
121 142 158
117 137 154
123 143 162
109 132 146
120 141 158
118 139 155
118 138 154
113 134 147
112 135 146
107 129 140
115 136 149
108 130 142
105 126 137
112 133 146
107 129 140
107 129 140
104 129 137
109 131 142
103 124 134
104 125 134
104 126 135
107 128 140
105 126 138
99 120 127
96 118 125
97 119 125
91 115 116
87 107 112
83 108 106
77 100 97
68 96 84
69 96 89
52 90 65
49 85 57
51 89 63
