P3
1600 1
255
52 40 34
50 38 33
49 37 32
51 39 34
49 37 32
47 36 32
56 50 51
66 64 68
83 86 95
84 87 95
96 105 116
101 110 122
113 127 144
114 126 140
117 132 147
113 127 141
113 127 139
114 127 141
120 135 151
115 129 144
115 129 143
115 130 145
119 133 148
116 129 146
117 132 149
115 129 144
121 136 153
116 130 146
120 131 146
114 129 148
112 124 140
116 129 145
124 140 160
114 127 143
119 132 149
112 125 140
120 133 152
118 134 152
118 131 148
119 132 149
118 131 149
118 131 149
119 131 149
120 133 153
122 136 156
120 133 152
118 129 146
121 135 154
115 127 144
120 134 153
118 133 151
120 132 148
117 128 145
116 128 146
119 136 156
121 135 156
120 132 151
121 135 155
119 131 150
116 126 143
122 137 157
122 135 156
120 134 154
117 130 148
119 129 147
126 141 162
124 138 159
122 136 154
121 135 155
121 135 155
123 135 154
119 133 152
123 135 156
123 135 155
120 132 149
122 136 156
125 140 161
124 139 160
125 140 161
121 135 154
123 137 157
119 133 153
125 139 161
125 139 161
125 138 158
127 144 166
126 142 163
125 142 164
124 140 160
123 137 157
125 142 163
124 138 159
121 137 158
123 138 158
125 141 163
124 140 160
120 134 155
128 144 166
125 141 164
125 144 166
126 142 164
126 143 165
126 143 165
125 142 164
127 145 168
127 144 166
125 142 164
127 145 166
127 143 164
131 148 171
120 137 156
129 147 169
132 149 172
130 148 170
128 145 168
129 146 168
127 144 167
126 144 165
130 150 173
125 143 166
127 143 164
128 147 169
125 143 165
127 145 167
124 143 166
125 143 164
126 143 163
129 148 170
126 143 164
129 147 171
129 147 170
127 145 166
125 144 165
126 145 167
125 142 164
128 146 168
120 140 160
123 143 164
124 143 164
122 141 162
126 144 165
123 140 160
119 140 160
126 145 167
121 139 159
118 138 159
120 140 160
126 144 166
125 143 163
138 156 174
138 155 168
138 153 154
133 147 137
130 144 130
119 133 103
116 128 93
115 130 94
116 130 95
117 131 95
117 130 94
114 128 94
115 129 95
116 129 94
117 130 94
116 130 94
116 130 94
115 128 93
119 132 96
115 130 95
115 128 93
116 130 95
114 128 93
114 128 93
116 129 94
116 129 94
116 130 95
116 130 94
115 128 93
116 129 94
116 130 94
117 130 95
118 132 96
114 128 94
113 126 92
114 127 92
114 128 93
115 128 93
114 129 94
116 129 94
115 129 95
112 125 91
112 125 92
114 128 93
118 131 95
117 130 94
110 124 90
113 127 93
111 124 90
113 127 92
111 124 91
113 127 92
115 129 93
111 124 90
114 128 93
112 125 91
111 123 90
113 127 93
113 122 92
116 122 91
121 115 92
136 115 103
134 116 111
155 140 146
163 152 162
174 171 183
187 192 205
194 207 221
204 221 238
204 224 242
201 222 238
207 227 247
205 223 246
203 221 245
195 212 235
175 192 215
162 180 201
148 166 185
120 135 153
106 125 141
101 120 135
106 123 141
97 116 132
97 118 134
101 118 135
108 124 143
98 119 133
104 124 142
111 128 147
106 126 144
110 126 144
110 126 147
107 124 143
110 128 147
105 122 141
110 128 147
110 128 148
114 131 151
107 125 144
109 128 146
113 132 152
111 129 148
116 135 156
113 132 152
106 124 144
112 130 150
113 128 149
117 134 155
107 123 144
114 129 149
112 128 148
120 137 158
115 131 153
116 133 154
106 120 140
108 125 144
104 117 136
109 123 143
115 130 152
111 125 147
111 124 145
105 116 135
105 114 134
108 122 141
104 116 136
104 116 134
109 122 141
106 120 141
96 110 137
86 103 144
69 91 145
60 91 161
46 83 161
40 82 163
41 84 171
40 82 166
43 87 175
42 86 169
41 84 169
43 87 173
41 84 167
40 81 162
41 83 166
43 88 178
40 83 166
42 87 173
39 80 161
43 87 175
41 84 169
41 84 169
41 84 167
42 85 169
42 86 173
42 86 171
44 90 179
38 78 157
42 85 170
42 85 171
41 85 171
41 85 169
42 87 176
42 86 172
42 86 172
41 83 165
42 86 172
40 82 166
42 86 175
42 85 172
41 85 170
41 85 169
41 83 168
42 86 172
43 87 173
41 84 171
40 83 167
42 88 176
41 83 165
41 84 169
41 85 171
41 83 166
40 83 164
42 85 170
42 86 173
40 84 171
40 81 163
42 86 172
40 83 166
43 89 178
39 79 159
43 88 175
42 86 173
41 83 169
40 82 165
41 85 171
41 84 168
39 81 163
43 88 177
41 85 173
40 83 166
39 80 162
39 83 167
40 83 166
39 80 162
37 77 156
41 85 171
40 83 168
44 84 167
66 86 148
89 104 152
115 124 157
126 130 153
142 146 162
136 132 137
126 120 122
122 108 104
115 99 91
109 94 84
116 98 88
119 105 100
111 94 83
121 109 106
134 130 135
137 133 137
176 186 202
185 197 217
199 215 239
207 226 251
210 229 254
208 226 252
210 229 255
208 227 253
206 225 250
209 228 254
208 227 253
205 224 249
207 226 251
207 225 251
207 226 252
210 229 254
208 227 252
207 226 252
209 227 253
207 226 252
206 225 250
207 226 252
205 224 248
208 227 252
205 224 249
208 228 254
205 224 249
207 226 252
208 227 254
208 228 254
205 225 251
206 226 252
206 226 253
206 226 253
204 224 251
203 223 250
202 221 249
197 215 243
201 221 249
195 215 243
196 217 245
181 204 230
158 188 211
153 187 211
129 167 192
124 172 194
121 168 199
126 174 204
119 167 200
125 174 207
122 171 207
126 176 210
143 197 223
143 197 223
146 201 226
147 202 227
147 202 227
146 202 227
146 202 227
145 201 227
145 201 227
145 201 227
145 201 227
143 200 227
144 200 227
144 200 227
143 200 227
143 200 227
143 200 227
142 199 227
142 199 227
142 199 227
142 199 227
141 198 227
141 198 227
141 199 227
141 198 227
140 198 227
141 198 227
141 198 227
141 198 227
141 198 227
141 199 227
142 199 227
141 198 227
141 198 227
141 198 227
141 198 226
141 198 226
141 198 227
140 196 224
140 197 225
140 197 224
142 198 225
141 197 224
141 198 225
142 197 224
143 200 227
144 200 226
145 201 226
145 201 226
145 200 225
146 201 225
146 200 224
146 199 222
142 193 215
148 202 224
148 202 224
146 200 224
144 198 222
147 201 225
144 198 223
143 197 222
141 195 217
138 191 214
135 185 208
123 171 188
119 163 179
112 152 169
91 122 135
72 88 96
62 65 68
50 31 32
52 24 22
53 24 22
49 23 21
51 23 22
54 25 23
54 25 22
53 24 22
56 25 23
52 24 22
54 25 22
55 25 23
50 23 21
52 24 21
55 25 23
53 24 22
51 24 21
54 25 22
53 24 22
54 24 22
52 23 22
54 24 22
54 24 22
54 24 22
55 25 23
53 24 22
53 24 22
53 24 21
56 25 23
52 24 21
55 25 22
52 23 21
55 25 23
52 25 24
59 44 46
82 81 94
84 85 98
97 108 125
109 122 142
116 133 156
117 135 158
120 138 159
118 135 157
119 138 162
114 132 156
117 136 160
108 127 151
104 123 149
99 120 145
96 116 141
86 105 131
91 113 141
82 101 125
82 104 131
89 110 137
78 101 130
75 96 123
73 94 122
76 98 126
73 95 123
77 98 124
73 94 121
72 93 120
76 98 126
72 92 120
70 89 116
74 96 123
72 93 120
74 96 124
71 92 119
72 94 123
71 92 119
72 93 119
67 87 112
63 83 107
66 86 110
68 88 114
70 92 118
75 96 121
71 92 116
67 87 109
80 101 126
77 98 123
82 102 124
85 104 127
91 111 134
92 112 132
96 115 136
102 121 144
104 122 144
111 130 153
107 126 147
110 130 152
110 128 149
107 125 145
113 132 154
116 135 158
102 121 143
115 134 155
114 132 155
109 127 149
118 136 159
112 130 152
114 132 153
115 134 157
113 133 156
111 128 150
108 126 147
114 133 155
113 131 152
107 128 150
112 132 154
109 126 147
109 128 148
111 131 152
107 125 145
111 130 152
113 132 152
113 132 154
111 129 149
109 127 147
111 130 151
109 128 148
107 125 145
100 119 138
103 122 142
103 122 142
101 119 138
109 128 147
102 121 139
98 116 134
98 115 132
92 111 127
99 117 136
89 107 124
98 114 131
90 104 123
95 103 129
87 76 119
89 73 121
100 63 137
99 49 134
106 47 143
106 48 143
111 44 150
106 43 145
110 45 149
109 44 148
111 44 150
111 44 149
108 43 147
111 44 149
109 44 147
110 44 149
107 43 144
109 44 146
109 44 147
108 43 147
111 44 149
110 44 147
109 44 147
110 44 149
108 43 146
109 44 148
109 44 148
109 44 147
107 43 145
107 43 145
108 43 146
108 44 147
110 44 149
110 43 145
106 42 143
110 44 148
108 43 146
108 44 148
106 43 144
107 48 145
109 58 143
108 71 146
109 97 144
107 118 135
104 131 129
100 163 111
97 182 96
95 183 90
96 190 89
95 191 89
97 193 91
96 189 89
95 187 90
97 196 92
93 181 87
95 189 89
95 189 90
93 184 87
96 192 91
98 194 91
96 193 91
94 185 87
95 188 88
96 192 90
97 195 91
96 192 90
98 194 91
96 193 90
98 197 91
98 195 90
94 187 87
95 190 89
98 197 91
97 194 90
98 196 90
95 186 86
96 193 89
98 194 89
99 199 92
96 193 89
95 193 89
95 189 87
94 186 86
95 191 89
94 188 87
95 192 89
93 187 86
97 193 90
96 192 89
96 191 89
98 195 90
96 193 89
98 196 90
94 187 87
96 192 88
97 195 91
98 196 91
102 190 102
113 190 124
137 203 163
155 206 193
170 209 219
181 211 236
189 216 247
188 213 247
191 216 249
191 216 250
190 216 249
189 215 248
191 216 250
189 214 247
190 216 249
191 217 250
190 215 248
193 218 252
190 215 248
190 215 248
190 215 248
193 218 251
193 219 252
188 213 246
193 218 252
191 216 249
191 216 249
195 220 254
194 219 252
190 215 247
193 218 251
194 219 252
191 216 248
193 218 251
194 219 252
192 217 250
191 214 247
191 210 245
191 201 240
188 185 229
176 163 209
175 153 202
175 146 199
184 151 203
177 145 193
183 150 198
194 158 210
195 160 210
203 166 219
204 167 221
202 166 220
203 167 221
203 167 221
201 166 221
202 166 221
200 166 221
186 161 205
89 113 88
76 39 79
77 34 85
93 81 104
112 116 124
107 112 119
109 114 122
113 118 124
110 116 122
108 114 122
111 117 123
111 117 125
112 118 123
110 116 122
109 115 121
111 117 121
110 115 119
110 115 120
113 115 122
109 114 120
110 115 122
106 110 117
109 114 121
105 112 118
103 110 114
113 118 116
94 103 89
73 95 58
67 95 41
60 88 20
56 82 24
41 50 31
53 61 49
74 82 72
83 90 84
94 98 97
92 98 94
97 103 103
100 104 107
98 101 101
103 106 110
98 93 96
95 62 64
104 43 39
104 35 31
104 34 32
101 33 30
90 29 27
101 33 30
96 31 29
95 31 27
87 40 39
83 61 65
83 73 76
91 84 88
92 87 92
97 91 97
96 95 100
102 102 108
103 106 113
100 101 107
98 101 107
101 102 108
102 105 112
101 104 110
98 100 106
103 106 111
100 100 106
96 98 103
96 100 105
82 84 88
88 90 95
78 79 82
61 60 61
52 47 45
41 30 20
40 31 19
36 23 8
36 23 9
34 22 8
37 27 19
47 42 38
59 59 59
71 73 76
66 66 67
78 79 81
84 86 90
87 89 93
93 96 100
100 105 110
97 101 105
94 98 104
102 107 114
99 104 108
102 107 113
104 109 115
106 112 118
106 113 119
106 111 116
105 111 117
101 107 113
105 110 116
108 113 119
107 113 119
108 114 120
109 115 123
109 115 122
109 114 121
110 115 121
107 113 119
107 112 118
107 112 118
103 109 115
108 114 121
109 115 122
106 111 117
106 110 116
109 114 121
103 108 113
104 108 114
104 109 115
103 108 113
102 107 113
100 102 106
102 105 109
97 100 106
99 100 105
88 89 92
95 97 101
87 89 91
88 87 90
87 86 89
88 86 88
81 80 81
74 71 72
73 69 70
63 58 55
64 59 57
54 45 42
56 49 48
59 54 52
65 62 63
57 53 54
61 56 57
78 77 79
78 77 80
76 74 76
82 80 83
94 94 97
93 93 97
91 93 99
91 92 96
98 101 106
97 99 104
103 106 111
102 106 112
99 103 109
105 108 114
101 106 113
103 108 114
101 106 112
101 106 113
103 107 113
104 110 117
102 108 115
99 104 113
73 84 105
48 67 98
34 60 98
35 60 100
35 60 98
34 59 98
36 63 103
34 61 98
36 62 101
36 61 99
34 57 93
35 61 100
34 59 97
36 62 102
36 62 103
35 61 100
34 58 95
34 59 98
37 64 108
35 61 102
35 61 99
36 62 102
35 60 100
36 62 102
34 59 98
37 62 103
35 61 101
34 58 97
35 60 99
38 61 101
65 79 108
91 98 111
100 105 112
98 103 110
102 106 113
97 101 108
99 101 107
98 101 107
102 103 109
98 98 103
96 97 102
96 97 101
93 88 91
93 85 86
90 81 80
96 82 79
84 70 67
91 78 73
95 79 76
92 77 73
98 83 79
98 81 76
95 80 75
95 80 76
96 80 75
98 83 78
95 78 73
95 76 71
99 84 80
104 88 84
96 84 82
97 94 96
101 102 105
101 99 102
103 104 109
105 106 110
107 108 112
106 107 111
107 108 113
109 109 113
106 110 116
109 112 118
107 110 115
108 111 117
109 113 119
107 112 117
109 114 120
110 114 119
109 112 118
110 113 119
110 114 121
110 116 123
108 113 119
109 114 120
110 115 122
110 115 122
110 115 121
110 114 121
110 116 123
108 114 121
105 110 117
110 115 121
110 115 121
109 115 120
111 116 123
109 114 120
110 116 122
106 111 118
108 115 121
108 112 119
111 117 124
110 115 122
107 112 118
108 113 120
109 114 120
109 112 119
109 115 121
109 115 122
106 112 119
106 109 116
107 112 119
108 113 119
105 108 115
103 108 115
102 108 115
103 109 115
105 110 117
105 110 117
105 112 119
102 105 111
104 108 114
101 106 112
100 105 112
100 106 113
94 98 104
94 98 105
103 109 115
90 92 98
95 98 103
91 95 100
91 95 101
81 85 89
76 80 84
68 72 75
43 47 50
20 29 33
3 21 25
3 21 24
3 21 25
3 21 24
3 22 26
3 21 26
3 20 24
3 20 24
3 21 24
3 22 26
3 20 24
8 19 23
23 29 32
31 36 39
38 38 42
59 58 62
71 66 72
80 76 83
80 72 80
83 74 81
86 81 87
88 83 91
92 87 94
96 95 102
91 90 97
99 99 106
98 94 102
98 98 104
99 98 105
103 103 111
102 105 112
104 103 111
104 106 113
100 104 109
104 107 113
109 113 120
108 112 119
106 108 115
103 105 112
107 110 117
104 105 112
106 110 117
108 111 119
109 114 121
107 111 119
106 110 116
108 113 120
108 111 118
107 112 118
107 110 117
108 112 118
109 114 120
107 110 117
108 113 119
109 113 121
109 114 120
110 114 120
109 112 118
107 112 118
110 114 121
107 105 116
105 94 110
104 74 104
104 41 94
100 33 91
104 34 94
107 35 96
104 34 92
104 34 95
101 33 92
104 34 95
105 34 95
103 34 93
104 34 94
102 33 93
98 32 88
99 33 90
101 33 93
104 34 95
104 34 94
103 34 94
103 34 94
102 33 93
104 34 93
103 33 95
103 33 94
104 34 94
103 33 93
106 45 98
105 84 107
108 99 115
110 113 120
112 117 124
111 116 123
109 114 120
106 111 118
111 117 123
109 115 121
110 115 120
110 113 120
108 114 120
112 117 124
110 114 121
112 117 123
109 114 120
109 114 121
109 115 121
112 117 125
111 116 123
113 118 125
110 116 122
110 115 121
111 117 123
112 117 124
111 117 123
112 117 123
110 116 122
113 119 125
109 116 123
111 117 124
113 119 125
112 117 124
111 116 122
110 116 124
111 116 124
110 116 122
109 114 121
111 116 123
111 116 123
111 116 122
112 116 123
110 116 123
111 117 124
107 112 118
110 116 122
109 115 121
108 113 119
108 113 121
111 118 124
108 113 120
109 115 122
108 113 120
110 116 122
103 105 124
99 97 133
89 76 140
91 72 150
84 58 153
84 53 159
83 53 159
83 53 158
84 53 158
84 53 159
83 53 160
82 52 156
84 57 153
87 72 138
97 93 130
102 106 119
104 111 117
110 116 122
106 112 119
101 107 112
101 107 113
107 113 120
106 112 119
107 113 120
104 109 116
102 107 113
99 104 109
100 103 109
96 99 105
98 101 105
92 95 99
84 86 90
72 73 75
66 66 68
52 53 53
53 52 52
66 65 67
63 62 64
84 85 88
92 95 100
94 98 103
97 102 107
104 109 115
103 108 115
104 108 115
111 116 123
106 111 118
107 113 120
106 112 118
109 115 121
104 110 116
106 113 119
107 113 118
109 114 121
108 114 121
93 101 100
69 84 66
47 72 9
44 68 9
47 72 10
47 71 9
47 72 10
60 77 52
94 102 98
110 115 121
110 117 123
111 117 124
107 112 119
81 86 90
49 54 54
43 48 53
63 61 99
65 45 140
58 27 142
60 28 146
58 28 144
67 46 149
75 63 149
94 96 154
111 121 165
119 132 169
131 149 172
132 151 175
133 152 176
132 151 174
135 152 176
134 152 176
134 153 177
135 153 176
136 154 178
135 152 176
133 151 175
132 151 175
134 152 176
134 152 177
135 153 178
137 155 179
132 150 173
133 152 176
131 150 174
133 152 176
132 150 174
132 150 174
131 150 174
134 153 177
136 154 177
129 148 171
131 149 172
132 151 176
131 149 173
130 149 173
132 152 176
133 152 176
134 153 178
132 150 174
133 152 175
133 151 175
132 149 171
132 151 175
132 151 175
134 153 177
134 152 176
133 151 175
134 152 176
134 153 176
128 145 167
134 153 177
131 148 171
136 155 181
133 152 176
135 153 176
132 151 174
132 150 172
130 149 173
133 152 176
131 149 173
133 152 176
135 153 178
135 153 177
130 148 171
132 151 173
136 154 177
123 141 159
124 143 160
110 129 138
103 122 126
93 111 109
73 92 72
64 84 48
63 85 41
61 81 40
65 87 42
63 85 42
67 90 44
67 89 43
64 86 41
68 89 43
67 90 44
67 89 43
65 87 42
72 96 45
62 84 41
68 89 43
65 86 41
67 90 43
64 85 41
67 90 43
69 92 44
65 87 42
69 92 44
71 94 45
68 91 43
68 90 43
66 89 42
69 92 44
70 93 44
71 95 45
68 90 43
67 89 42
65 87 41
72 96 46
68 92 44
67 89 42
70 93 44
67 89 43
69 92 44
72 95 45
71 94 45
69 92 44
68 90 43
69 91 44
69 91 43
68 90 43
68 91 44
66 88 42
67 90 43
72 96 46
69 91 43
69 92 43
73 96 45
69 91 43
71 94 45
72 95 45
72 96 46
68 90 43
69 92 43
71 95 45
71 95 45
68 91 43
73 97 46
71 93 44
69 91 43
71 96 45
66 89 42
68 90 43
73 98 46
70 93 44
73 95 58
88 110 95
96 118 105
107 125 131
110 130 138
121 140 156
130 149 171
130 149 172
130 149 171
134 153 177
134 153 177
132 151 176
132 151 175
131 150 173
131 150 173
134 153 176
133 152 176
128 147 170
131 149 172
130 148 171
135 154 177
131 151 174
134 152 176
129 148 171
133 152 176
130 149 172
131 151 173
132 152 175
131 150 174
130 149 172
131 149 172
131 150 173
133 151 175
131 150 172
129 149 171
133 152 175
134 151 174
130 149 171
130 147 166
129 144 160
128 142 154
127 142 151
127 140 149
128 140 150
124 140 149
132 144 153
127 140 150
123 138 148
128 141 150
131 146 155
128 142 152
132 146 155
126 140 149
131 145 153
131 146 155
128 142 151
130 144 152
129 143 154
134 147 157
131 145 154
130 144 153
133 147 155
131 145 154
132 145 155
129 141 150
130 144 153
133 147 157
129 142 152
133 147 156
130 143 152
129 141 150
130 144 153
128 142 150
130 144 154
134 146 155
132 146 155
132 145 154
133 147 157
131 142 152
126 137 145
132 146 156
130 143 154
136 148 157
124 137 146
133 147 156
132 146 156
138 153 163
128 141 152
131 144 154
134 148 159
134 148 158
134 148 158
135 149 158
129 140 151
129 143 153
138 153 162
136 149 158
134 147 157
133 148 157
137 152 161
132 143 153
134 147 157
135 148 158
134 148 157
134 149 160
138 152 162
134 147 157
134 149 158
134 148 158
131 146 156
138 152 161
134 148 158
134 148 158
130 145 154
129 145 158
126 141 156
124 143 156
121 141 159
117 137 153
112 133 147
117 138 153
112 133 149
117 137 153
111 133 146
109 130 142
121 142 159
107 127 139
99 123 129
108 128 141
105 126 137
103 128 133
93 116 121
100 119 129
101 123 131
104 126 137
90 113 116
90 113 118
101 123 132
97 117 124
87 108 113
93 116 119
91 113 117
98 117 126
86 108 109
78 99 98
81 100 103
80 101 101
77 96 97
67 89 85
77 99 97
67 91 86
68 89 87
