P3
1600 1
255
48 36 31
48 36 31
51 43 43
50 43 41
71 71 78
76 79 89
85 91 103
100 110 124
107 119 135
118 133 154
120 136 154
118 134 153
129 147 168
120 137 155
129 145 166
122 140 159
127 144 164
118 135 155
125 141 162
122 139 158
125 142 163
127 144 163
127 145 165
121 137 157
125 140 159
127 143 164
123 138 157
124 141 161
131 149 171
122 136 157
123 141 162
127 144 166
127 143 164
130 147 169
128 146 168
125 142 164
126 142 162
128 144 166
127 142 164
125 141 162
127 145 167
127 142 164
122 136 155
128 145 167
123 138 158
124 140 161
127 143 165
126 143 163
126 144 165
124 141 162
129 144 166
124 141 162
123 137 157
128 144 166
133 150 174
127 143 164
124 142 163
126 142 165
128 144 167
130 148 170
126 142 164
126 143 163
123 140 162
130 145 166
129 146 168
128 146 167
128 144 165
125 140 160
127 144 164
125 142 165
128 147 170
129 146 170
126 142 162
128 146 170
127 145 167
127 144 167
131 148 171
131 148 172
131 148 170
128 144 167
128 144 167
127 143 164
131 148 171
126 143 165
129 148 171
131 147 169
129 148 170
130 147 171
130 146 168
132 150 172
131 146 168
130 148 170
127 145 167
131 150 174
128 145 167
133 150 173
129 147 169
128 147 170
125 143 166
132 151 175
130 148 171
131 149 172
128 147 169
128 146 169
130 149 172
125 145 167
128 147 170
130 148 172
129 148 170
127 146 169
129 149 170
131 150 173
127 145 167
125 143 166
127 146 168
126 145 168
124 142 164
129 147 169
125 144 167
128 147 168
129 146 169
127 145 167
128 149 171
128 147 169
133 152 176
126 145 168
122 141 162
128 146 169
130 150 174
128 148 172
131 149 172
123 143 165
130 149 172
128 145 167
128 147 170
129 148 170
129 150 172
124 145 166
128 147 170
133 151 174
124 145 167
125 145 167
128 147 169
125 148 170
120 140 161
121 142 160
116 136 149
116 133 132
113 128 116
118 133 112
114 127 96
112 124 91
114 127 92
114 126 92
113 127 92
117 130 94
113 125 92
114 127 93
115 129 94
111 126 92
114 126 92
114 128 93
115 128 93
116 128 93
115 128 94
112 124 91
113 126 92
115 128 93
113 126 92
113 126 92
114 127 91
113 126 92
114 127 93
116 129 94
116 128 93
113 126 91
115 128 93
117 130 94
114 126 91
114 128 93
115 129 94
115 128 93
110 123 90
114 128 93
109 122 89
112 125 91
114 127 92
114 128 93
113 126 92
115 128 93
115 129 93
110 123 90
113 127 92
111 124 90
111 124 89
113 126 92
112 125 91
109 121 88
112 126 92
111 124 89
110 122 89
113 126 92
110 123 89
111 125 91
113 124 90
114 127 92
112 123 89
112 126 92
117 129 94
110 123 90
109 122 88
112 124 93
123 133 110
152 165 162
178 193 204
190 207 223
209 227 251
210 229 254
204 223 248
201 220 245
201 219 245
194 212 238
188 208 233
176 195 220
147 166 186
157 175 199
133 151 171
111 131 149
110 129 148
115 133 154
110 129 148
112 131 151
113 132 152
115 135 154
117 136 157
110 130 149
120 139 160
116 136 156
111 128 148
117 135 155
114 136 156
112 132 152
115 133 153
117 136 156
120 138 158
117 135 156
117 135 156
120 138 159
116 135 156
116 134 155
123 142 163
114 132 153
118 135 157
116 134 155
118 135 158
113 130 152
116 135 156
121 138 161
120 136 159
125 140 163
120 136 158
118 135 157
115 131 152
123 140 162
117 133 154
114 129 152
116 132 154
122 138 161
118 135 156
120 135 157
119 136 157
118 135 157
117 133 154
121 139 161
116 133 154
113 127 149
112 132 162
102 121 159
90 113 159
67 98 167
51 88 166
42 81 162
41 84 168
40 81 160
39 80 160
41 84 167
40 82 163
41 83 167
40 81 163
42 85 171
39 81 163
40 81 161
41 84 168
41 84 167
41 83 167
42 86 172
40 81 161
42 85 170
40 82 163
40 80 160
41 83 166
41 84 168
42 86 170
40 81 163
41 84 168
41 85 170
38 78 154
40 82 165
41 83 167
40 82 164
39 80 160
41 84 169
39 79 159
39 80 160
38 78 153
42 86 173
39 81 163
41 85 170
40 82 163
40 81 162
41 83 167
40 83 166
42 86 173
40 82 165
41 84 168
42 86 173
38 78 157
40 82 164
41 84 170
41 83 168
40 82 165
41 85 170
40 82 163
38 77 154
40 83 165
41 85 171
39 82 163
39 81 165
41 85 172
41 84 169
39 81 163
40 83 167
40 83 166
40 84 168
39 81 162
41 85 170
39 80 158
40 83 166
40 83 167
38 79 162
38 80 163
40 83 166
40 84 168
38 79 157
39 82 166
39 80 162
61 95 168
79 108 171
128 149 193
129 151 194
160 178 210
167 181 203
169 183 206
159 167 184
157 165 181
150 152 162
147 145 154
146 145 155
146 145 155
147 147 156
167 176 194
172 182 200
176 189 210
188 204 228
198 218 245
203 224 252
205 226 254
205 226 254
205 226 254
203 223 251
203 224 252
204 225 252
201 222 249
203 223 251
205 226 254
205 225 253
204 224 252
206 227 255
207 227 255
206 227 255
205 226 254
204 224 252
204 225 253
205 226 254
203 225 253
202 222 250
203 224 252
204 225 253
205 226 255
202 223 251
204 225 254
204 226 255
200 222 251
199 221 250
201 223 252
197 219 248
197 219 249
196 218 247
194 216 246
191 213 243
183 205 234
179 202 230
168 194 223
144 172 196
135 166 193
118 154 183
112 155 183
94 136 176
101 144 184
93 137 182
110 155 192
110 156 195
126 174 205
130 180 209
136 186 212
142 194 217
146 199 222
146 200 221
145 198 220
149 204 226
147 201 224
145 198 219
148 202 226
147 201 225
148 203 227
148 203 227
148 203 227
147 203 227
147 203 227
147 202 227
146 202 227
146 202 227
146 202 227
146 202 227
145 201 227
145 201 227
146 202 227
146 201 227
145 201 227
147 202 227
146 202 227
146 202 227
146 201 227
146 201 227
144 200 227
145 200 225
144 199 224
144 199 224
143 197 221
140 192 216
137 189 211
139 191 214
136 186 207
135 185 205
133 181 201
138 187 208
138 189 211
140 191 213
137 187 209
138 189 209
143 196 218
142 197 216
145 201 220
147 202 224
147 201 222
148 201 224
146 200 220
146 199 220
144 197 218
146 199 222
144 197 219
141 193 216
144 196 220
141 194 219
138 191 216
136 189 212
138 190 214
131 182 204
128 179 199
123 170 191
108 150 166
103 141 158
94 123 137
71 83 91
58 57 64
51 32 32
53 24 22
51 23 21
53 24 22
51 23 21
49 22 21
51 23 22
50 23 21
53 24 22
51 23 21
50 23 21
52 24 22
53 24 22
51 23 22
55 25 23
51 24 21
52 24 21
52 24 22
53 24 22
51 23 21
49 22 20
48 22 20
53 24 22
52 23 21
51 23 21
52 23 21
53 24 22
50 23 21
50 22 21
54 24 22
54 24 22
52 23 21
58 37 40
73 66 75
77 78 91
97 106 123
102 114 133
106 122 144
116 135 157
112 130 152
115 133 156
108 126 148
104 121 143
113 130 153
110 128 150
102 120 143
103 120 141
105 122 144
98 116 138
100 115 135
99 115 137
88 105 125
85 101 123
84 101 122
83 99 119
64 80 98
75 90 111
67 80 100
69 85 109
64 78 96
61 74 93
59 73 92
60 75 95
66 81 101
63 79 99
58 73 93
61 77 97
42 57 76
59 75 93
56 70 89
59 74 95
60 74 91
56 71 90
63 77 96
62 78 94
63 81 98
70 85 103
69 83 101
85 100 117
77 94 113
78 92 110
80 96 116
81 97 116
86 103 122
93 110 129
99 114 132
98 115 133
99 116 137
95 112 133
101 117 137
103 118 137
102 121 142
108 125 146
104 122 143
98 117 137
105 123 143
118 136 157
110 128 148
105 125 146
109 126 147
110 129 150
110 129 150
108 128 150
107 124 145
109 128 149
116 135 159
106 124 146
113 131 153
108 128 148
114 132 153
112 131 152
113 133 154
117 136 158
114 132 154
115 135 159
114 132 154
114 133 156
121 140 162
113 131 155
113 132 154
114 134 156
117 136 158
113 133 155
118 135 156
111 130 153
113 131 152
112 130 150
116 135 157
117 135 156
110 128 148
113 124 152
105 102 140
110 103 146
109 90 149
107 66 143
110 59 147
110 44 147
110 44 146
109 44 147
109 44 147
109 44 146
105 42 143
108 44 147
111 45 150
106 42 142
108 43 145
107 43 143
108 43 146
107 43 143
104 41 140
107 43 143
108 43 145
109 44 149
109 44 146
107 43 144
108 43 144
105 42 142
107 43 144
107 43 146
105 42 141
108 43 146
106 42 142
107 43 143
106 42 141
107 43 144
107 43 144
107 43 142
107 43 144
107 43 143
106 43 143
106 42 142
107 42 143
109 44 147
109 44 147
108 43 146
105 42 141
103 41 138
103 41 139
106 42 143
106 42 141
105 42 141
107 43 143
107 43 143
107 54 143
106 84 138
102 100 130
96 115 114
93 156 99
89 161 88
90 172 86
89 171 82
91 177 86
94 184 88
93 181 87
91 177 85
95 189 89
93 185 87
92 183 86
95 188 89
93 182 86
95 186 87
95 189 89
96 192 89
94 186 87
95 188 88
93 184 86
95 189 88
94 187 87
97 191 89
95 191 89
95 189 87
94 190 88
91 182 84
97 193 90
92 184 84
95 188 87
95 191 88
93 186 86
91 179 83
96 191 88
94 185 86
98 194 90
93 186 86
94 186 86
96 190 87
93 185 86
93 183 84
93 184 85
96 189 87
95 190 87
91 181 83
94 184 85
93 186 86
95 190 88
96 191 88
94 188 86
95 188 86
94 187 86
100 196 96
120 196 137
137 197 167
150 199 188
174 208 226
179 210 235
186 214 246
185 211 245
185 211 244
187 213 247
189 216 250
187 213 247
190 215 249
185 210 244
188 214 248
188 214 248
189 214 248
187 213 246
189 215 248
191 217 251
189 214 248
192 218 252
189 215 248
188 214 247
188 213 247
191 217 250
194 220 254
187 211 245
191 217 250
189 215 248
190 216 250
193 219 253
189 208 244
181 190 228
178 184 223
172 160 204
168 146 195
161 135 182
163 135 182
161 132 175
166 134 177
173 141 186
185 150 196
190 155 203
190 156 204
194 161 211
202 165 217
199 164 214
203 166 218
201 164 217
205 168 221
203 166 217
202 165 217
194 162 209
114 129 115
72 69 74
71 25 76
84 73 93
105 107 116
112 118 125
110 115 122
109 115 122
114 119 125
110 116 122
110 115 122
110 115 121
111 117 124
111 117 122
111 117 123
109 114 119
101 104 110
89 92 98
62 64 68
66 63 72
96 98 106
104 109 114
128 130 135
114 121 136
153 156 162
142 145 146
96 106 98
79 89 76
78 89 77
75 83 70
76 86 73
80 86 74
89 96 92
84 91 85
89 97 91
97 103 102
99 105 106
92 95 96
100 103 107
98 102 104
94 93 95
90 86 88
88 82 84
81 74 77
73 62 60
74 48 49
74 50 47
66 39 36
55 26 23
43 24 24
56 43 46
72 60 62
84 78 80
92 85 89
91 86 90
90 87 91
96 92 97
97 95 101
103 103 108
97 99 104
101 99 105
103 107 113
99 99 104
102 104 110
96 99 104
99 102 107
95 97 103
96 97 101
96 99 104
90 92 96
84 85 89
89 91 96
84 85 88
81 81 84
82 84 86
71 71 73
63 62 64
61 60 62
62 61 62
59 59 61
64 63 65
76 76 79
78 77 80
81 84 87
87 89 92
88 92 96
93 97 101
94 97 102
96 100 105
98 102 107
100 105 111
106 111 117
103 107 113
98 102 107
102 107 112
101 105 110
103 109 115
108 114 121
106 112 119
107 112 119
105 110 116
108 113 120
106 111 116
107 113 118
105 112 116
104 115 114
106 125 113
102 123 109
110 135 112
107 134 110
110 139 113
110 141 114
112 139 116
112 138 114
110 133 114
104 122 110
100 116 106
106 117 114
102 110 111
106 112 118
110 115 121
102 107 112
107 111 117
102 106 111
102 106 112
99 103 108
105 109 114
101 105 110
96 100 106
99 103 109
96 99 104
97 100 104
96 99 102
89 90 93
92 95 98
88 89 90
90 89 91
91 92 96
88 88 92
85 86 90
94 98 102
85 84 87
88 91 96
89 91 95
90 91 94
96 98 102
94 96 101
94 96 101
103 107 113
101 105 111
97 101 106
104 109 115
94 97 104
100 103 109
101 106 112
98 102 108
102 107 112
100 104 110
101 107 113
105 111 118
101 106 112
102 107 112
99 105 112
101 104 111
102 107 114
99 104 112
88 94 105
66 80 102
37 56 85
30 52 84
31 53 86
33 57 91
32 54 89
32 58 94
32 56 91
32 56 92
35 59 97
32 56 90
32 55 90
33 57 92
33 56 94
33 57 92
34 59 97
33 57 93
33 57 93
33 58 95
33 57 94
31 53 88
34 58 95
35 59 97
34 58 96
33 56 95
32 55 93
33 56 93
52 66 95
72 82 101
88 93 103
102 106 112
101 104 111
100 103 110
102 106 112
99 101 107
96 99 105
93 95 101
96 99 104
94 96 102
97 96 99
96 97 102
94 94 98
88 86 90
86 82 84
78 73 76
79 76 77
80 76 80
81 79 81
75 67 67
72 66 66
72 65 64
76 71 71
84 80 81
72 66 66
85 82 82
87 82 81
92 87 87
92 90 92
96 95 96
97 95 96
101 100 103
104 105 108
103 103 105
101 101 104
106 108 112
106 108 112
109 110 114
104 108 114
108 111 116
105 109 115
107 112 118
108 110 115
106 110 115
108 113 118
108 113 119
107 112 119
107 112 117
110 113 119
109 113 120
108 112 119
109 115 122
109 114 120
110 114 120
108 113 120
108 113 119
109 115 121
110 113 119
110 116 123
109 115 122
110 116 123
107 113 119
110 115 121
111 117 122
107 113 121
110 115 121
109 114 120
110 116 123
108 113 120
110 115 121
106 111 117
109 114 121
108 113 119
110 115 121
110 115 121
109 114 121
108 114 121
109 114 122
108 114 121
106 112 119
105 109 116
107 113 120
106 111 117
105 110 117
101 107 114
107 113 119
102 107 114
102 108 114
102 106 112
103 108 112
103 107 114
102 107 112
101 106 113
90 95 101
94 99 106
97 101 106
101 105 111
92 96 101
92 96 101
84 88 93
83 86 91
73 77 80
79 82 84
72 74 76
76 79 82
64 67 70
56 58 59
59 60 62
52 52 53
57 58 58
56 56 57
51 51 53
57 59 60
56 58 59
58 59 61
60 61 64
64 63 66
71 71 75
72 73 76
74 75 80
76 76 80
82 84 90
84 86 91
88 89 95
86 91 97
85 86 93
89 89 94
93 95 101
97 98 104
98 98 105
100 104 111
100 99 107
97 100 105
99 101 108
102 107 113
103 106 112
106 107 115
101 105 112
100 105 111
106 110 117
108 112 119
107 111 118
104 108 114
110 115 122
103 107 114
105 107 114
106 109 116
107 111 118
106 111 118
107 111 117
107 112 118
107 112 119
104 108 116
109 114 120
107 112 119
110 115 122
111 116 124
109 114 121
107 111 118
107 111 119
108 113 120
108 113 121
104 107 114
104 101 111
106 87 108
105 59 100
102 33 91
100 32 88
98 32 88
99 32 88
101 33 91
99 32 87
102 33 91
99 32 88
96 31 85
97 32 87
100 33 91
94 31 85
101 33 90
101 33 90
101 33 90
104 34 94
98 32 89
100 32 89
98 32 89
99 32 89
100 32 90
97 31 85
97 31 85
99 32 89
95 31 85
102 33 93
101 32 91
101 33 93
101 60 97
106 86 109
110 110 120
109 114 120
111 115 122
111 115 123
108 113 119
112 118 124
109 114 120
110 116 123
109 113 121
110 116 124
110 115 122
110 114 121
110 115 121
110 116 123
112 117 123
114 119 125
109 114 121
111 117 124
110 114 122
111 116 124
112 117 124
112 117 123
110 115 122
110 115 123
110 115 123
111 116 123
108 114 120
109 115 122
113 119 125
112 115 122
110 114 121
110 116 122
108 114 122
109 115 122
112 116 124
111 117 124
109 114 119
108 113 120
111 116 124
111 117 123
109 115 122
108 114 120
110 115 123
111 117 124
109 116 122
111 117 124
110 116 122
108 113 125
106 106 128
95 85 141
87 66 147
82 52 153
80 50 152
81 50 152
81 50 151
82 51 153
79 49 149
82 51 153
79 49 148
81 51 151
81 51 154
81 51 152
83 52 158
79 50 151
80 50 152
80 50 152
80 50 150
86 65 148
97 94 129
104 109 116
110 116 123
106 112 118
110 115 121
108 113 119
104 109 115
107 113 119
107 111 117
106 111 117
104 109 115
103 107 113
99 103 109
100 105 110
93 96 101
100 105 110
92 96 100
90 93 98
91 95 99
80 81 85
89 92 96
93 96 101
100 104 109
102 107 112
104 108 114
100 104 109
105 110 116
106 112 119
106 112 119
104 109 115
107 114 120
108 113 119
107 114 119
110 116 122
107 114 120
104 110 116
103 109 114
104 110 114
90 99 96
55 72 46
43 66 9
44 67 9
48 73 10
45 69 9
48 69 27
78 92 77
103 111 114
108 113 120
110 115 122
109 116 122
102 107 113
74 78 82
29 34 31
61 64 78
67 59 119
59 30 141
59 27 143
55 26 134
58 27 141
60 28 144
59 34 138
76 65 151
92 93 154
100 106 153
115 128 164
129 145 173
134 153 177
134 152 176
133 151 174
132 150 174
134 152 176
134 152 177
133 151 175
131 149 174
128 147 170
133 151 175
132 151 175
132 151 175
132 151 175
132 151 175
133 152 176
131 150 174
134 153 177
133 152 175
133 151 175
131 149 172
133 152 176
133 152 176
133 152 176
130 149 172
136 155 180
132 150 175
134 153 177
133 152 176
131 148 171
133 152 175
132 150 175
135 154 178
135 154 177
132 151 174
136 154 177
132 151 175
134 152 176
132 151 175
133 151 175
131 149 173
132 150 174
134 152 175
134 153 178
132 151 174
131 149 173
134 152 176
131 150 174
133 151 175
132 151 177
133 151 175
135 153 178
129 147 170
131 151 174
136 154 177
134 152 176
130 149 171
133 152 175
131 150 174
130 149 172
132 151 175
132 151 175
133 151 175
125 144 164
116 134 148
101 119 122
93 111 108
83 102 85
57 75 49
63 83 43
62 84 40
59 79 38
63 83 40
65 87 42
62 84 40
62 83 40
65 88 42
62 82 40
65 85 40
62 83 40
65 88 42
64 85 41
64 86 42
64 85 41
67 89 43
66 90 42
65 87 41
66 88 42
65 86 41
66 88 42
66 88 42
65 86 41
64 86 41
64 86 41
62 82 40
66 89 42
66 88 42
62 83 40
63 85 41
67 89 42
64 86 41
67 89 42
62 82 39
66 89 42
68 91 43
65 86 41
71 93 45
64 86 41
65 88 42
66 88 42
68 91 43
65 88 42
70 93 44
63 84 40
66 88 42
69 93 44
65 87 41
65 86 40
70 92 44
70 94 45
66 89 42
68 90 43
68 91 43
67 90 42
67 91 43
65 86 41
70 93 44
67 89 42
68 91 43
70 93 44
65 87 41
71 94 44
66 89 42
67 89 42
70 93 50
76 98 69
87 107 86
98 118 112
113 132 138
119 137 151
123 142 159
133 151 174
134 153 177
134 152 175
132 152 175
131 151 173
134 153 176
134 153 177
132 151 174
133 152 176
130 150 172
130 149 173
131 150 173
133 152 176
132 152 176
130 150 172
134 152 175
133 151 174
133 152 176
131 149 171
130 150 175
131 150 173
131 150 173
129 148 169
132 150 173
133 151 175
131 148 172
131 150 174
129 148 171
133 152 176
133 151 175
134 152 176
133 150 170
128 144 162
132 147 161
121 135 144
126 141 149
122 135 143
126 139 148
127 140 149
129 142 151
130 143 151
124 138 147
125 139 147
124 136 143
129 143 152
130 142 150
125 138 147
129 142 153
123 137 148
129 142 149
124 137 147
127 140 148
122 135 144
125 138 147
130 145 154
129 143 152
130 142 151
129 142 151
128 140 147
129 143 151
129 142 149
124 137 144
133 146 155
131 145 155
127 138 147
125 138 148
128 141 149
131 145 153
130 142 150
124 137 145
130 144 153
127 139 146
129 143 153
124 138 148
129 142 151
130 143 152
131 144 154
129 142 154
126 137 146
129 142 150
134 147 157
127 138 146
126 138 147
130 144 155
133 146 155
131 144 153
130 143 151
134 147 156
132 146 155
136 149 157
133 147 156
134 147 157
131 145 155
127 139 152
135 149 158
128 141 151
132 145 155
127 138 150
130 143 154
132 145 155
127 140 150
132 146 157
130 143 153
128 140 150
134 147 157
135 148 158
135 149 158
134 147 157
135 148 158
135 147 157
131 144 155
127 142 155
122 138 151
129 145 163
118 138 155
124 144 164
122 142 160
116 136 152
120 141 159
117 136 155
122 142 161
119 140 157
124 144 163
114 136 150
116 138 153
121 141 159
120 141 158
119 139 157
111 133 148
115 137 152
112 133 146
111 133 144
115 136 150
111 131 144
112 132 147
113 132 147
114 133 150
113 132 148
98 121 131
111 129 144
101 121 131
107 129 142
109 128 143
106 125 137
101 122 132
100 121 130
107 128 140
