P3
1600 1
255
52 47 48
69 71 78
77 82 93
89 97 109
103 115 132
104 117 132
115 128 147
120 136 156
118 134 152
130 147 169
127 144 165
126 144 166
130 148 169
125 142 164
127 143 164
122 139 159
128 146 169
128 144 166
128 144 165
119 135 155
128 144 167
124 140 162
126 143 164
127 146 167
128 145 167
127 143 163
125 142 162
125 143 163
123 138 159
130 148 171
127 142 164
128 146 169
126 143 165
131 149 172
127 145 166
125 143 164
129 147 169
130 148 172
130 146 168
127 144 166
127 144 167
123 139 160
126 142 164
127 144 165
125 140 161
125 141 162
130 149 172
127 146 168
128 145 166
123 140 161
125 142 164
130 149 172
128 145 168
128 145 168
129 147 169
123 139 159
129 146 170
132 148 171
132 150 174
130 148 170
128 147 170
125 143 165
130 147 169
134 152 176
131 148 171
130 147 170
126 145 168
128 146 168
129 147 169
127 146 169
129 146 169
132 149 172
124 143 165
131 149 171
128 145 169
124 142 164
128 145 168
130 148 170
128 147 169
128 148 170
130 149 172
130 148 172
128 147 169
131 149 172
131 149 173
128 144 166
129 147 169
132 150 173
132 150 174
132 151 175
132 149 172
129 147 171
130 149 173
133 150 172
133 152 174
129 147 170
130 148 171
133 151 174
129 147 170
132 149 172
132 150 173
131 150 173
130 150 173
130 148 172
128 147 171
131 149 172
129 147 171
129 148 171
129 148 170
131 150 173
129 147 170
130 150 174
131 151 173
126 145 167
131 151 174
132 150 173
128 146 169
127 147 169
128 147 170
126 146 168
129 148 172
131 147 170
121 142 164
126 145 167
133 152 175
129 147 168
128 146 168
131 151 173
129 147 169
130 150 173
130 150 173
126 146 167
126 147 169
130 150 173
129 148 172
126 145 168
130 148 170
126 146 168
129 147 170
129 148 171
129 149 172
124 144 165
125 146 167
123 143 160
125 142 150
119 136 137
114 129 118
113 126 102
111 123 90
114 127 93
114 127 93
109 121 89
113 126 92
114 127 93
112 124 90
114 127 92
110 123 90
112 125 91
114 126 92
114 126 92
111 124 90
115 127 93
111 124 90
110 122 89
111 125 91
112 125 92
112 124 90
111 123 89
114 127 92
112 124 90
112 125 91
111 123 89
115 128 93
111 124 90
115 128 93
111 123 89
113 126 92
109 121 88
113 125 91
116 128 93
115 127 92
111 123 90
114 127 93
115 128 92
111 124 90
115 128 93
109 121 87
109 122 89
114 127 92
108 121 88
112 125 90
114 126 91
111 124 90
112 124 90
113 124 90
112 124 90
112 125 91
112 125 91
109 123 90
112 125 90
112 124 90
111 124 90
106 118 85
109 122 89
112 124 89
111 124 90
112 124 89
110 122 89
112 126 91
111 123 90
109 121 88
108 121 88
108 121 88
109 121 90
121 134 111
146 161 157
172 189 201
178 196 212
195 214 238
199 219 246
190 209 236
187 207 234
167 187 211
156 174 199
141 160 184
135 154 176
126 145 167
121 141 162
118 139 159
121 140 160
115 135 155
121 140 162
126 145 168
118 139 159
121 140 162
122 142 164
124 144 166
129 147 170
124 143 166
129 149 173
124 143 165
119 139 161
117 135 156
126 144 167
125 144 166
127 146 168
124 142 166
128 147 170
124 142 165
124 141 164
126 144 166
121 140 161
121 139 161
126 144 167
124 143 165
122 141 164
122 140 161
125 142 165
121 139 160
123 142 165
127 144 167
125 144 167
127 144 168
122 140 161
129 145 169
127 145 169
124 140 164
130 148 172
123 140 163
127 146 169
128 144 167
125 142 165
128 145 168
126 144 167
124 141 162
121 139 165
119 139 169
102 122 161
90 112 161
70 99 163
40 82 165
39 79 158
40 82 166
39 81 161
39 79 158
40 82 165
38 78 156
40 82 164
40 82 164
40 81 161
39 81 162
40 82 164
40 82 165
39 81 162
41 83 166
38 78 155
40 82 165
40 82 165
39 80 162
39 80 161
40 82 165
40 81 162
40 82 164
38 79 158
42 85 172
39 80 160
41 85 168
39 81 162
39 81 164
37 76 151
38 78 156
41 83 166
39 79 159
40 81 163
39 80 160
38 79 159
40 83 166
40 82 164
40 83 165
40 81 162
40 82 165
40 80 162
38 78 157
39 79 157
39 80 161
40 82 167
40 82 166
38 79 159
39 81 162
39 81 160
39 79 158
40 83 163
40 82 163
41 85 170
39 79 158
38 79 156
40 82 163
39 81 164
39 80 160
41 84 168
40 82 163
39 80 161
37 78 156
39 80 161
38 81 164
37 78 157
41 85 170
38 80 161
38 80 161
37 77 156
37 78 157
38 79 158
40 82 165
36 76 154
37 77 154
37 77 154
36 75 151
55 86 151
99 124 179
128 150 190
144 164 196
162 184 212
172 193 222
176 196 223
177 196 223
178 198 226
181 199 226
181 198 225
179 197 223
181 198 224
181 197 221
187 205 232
193 214 243
199 222 252
200 223 254
199 222 252
200 223 253
201 223 254
199 221 251
198 220 250
202 225 254
200 222 252
201 223 253
200 222 252
201 223 253
199 221 251
201 223 252
199 222 251
200 222 252
198 221 250
201 223 253
199 222 251
197 219 249
199 222 252
200 222 252
197 219 250
201 224 254
199 221 252
198 221 252
197 220 250
197 220 251
195 218 249
197 220 251
196 219 250
196 220 251
191 214 246
184 208 238
179 202 232
177 199 229
173 195 223
164 185 213
146 167 192
137 161 185
125 155 179
112 144 167
99 137 162
94 136 170
71 110 158
77 118 167
87 127 170
97 139 181
101 144 181
111 154 184
121 169 194
133 181 203
130 176 197
132 180 199
135 184 204
143 194 214
135 184 200
141 193 211
140 191 210
147 199 221
146 197 220
146 198 217
148 201 223
149 203 225
145 197 219
147 199 220
146 198 220
146 199 222
144 196 218
145 198 220
149 203 226
147 201 224
148 203 226
149 203 226
149 203 227
149 204 227
149 204 227
147 202 225
149 204 227
150 204 227
149 203 226
148 203 227
146 199 219
145 198 220
143 193 213
139 189 209
138 188 208
135 184 203
130 177 194
129 174 191
127 170 188
125 168 185
118 156 174
122 162 179
125 168 186
123 164 182
130 178 194
130 175 193
121 169 179
131 180 196
133 184 197
138 192 206
138 189 206
136 190 202
137 188 204
139 189 209
138 187 206
134 182 203
133 178 201
138 188 212
127 176 199
131 180 205
132 182 207
130 181 205
124 172 195
121 169 190
119 166 186
114 159 176
103 143 162
98 134 148
78 98 109
63 73 81
56 44 47
49 30 30
49 23 21
47 22 20
50 23 21
52 24 22
49 23 21
52 24 22
47 21 19
51 23 21
48 22 20
51 23 21
46 21 20
49 22 21
49 22 20
51 23 21
50 22 20
51 23 21
51 23 21
50 23 21
48 22 20
50 23 21
50 22 20
51 23 21
51 23 21
52 23 21
50 23 21
51 23 21
52 23 21
53 24 22
51 23 21
57 35 37
64 57 66
84 84 98
96 102 120
106 119 138
107 122 144
113 131 155
116 134 158
119 138 162
115 133 156
115 133 155
116 134 157
117 135 157
108 126 149
109 126 149
104 119 141
110 128 150
108 124 145
103 120 141
96 112 132
103 121 141
109 127 149
101 118 139
100 117 139
90 105 124
91 105 125
91 106 127
88 103 122
89 104 124
95 110 129
91 106 124
93 108 127
81 96 115
89 104 124
86 101 119
85 98 117
83 96 114
82 95 113
79 92 110
86 100 119
86 101 119
86 101 121
89 104 124
97 113 132
89 105 125
86 101 119
95 110 129
96 112 132
100 117 138
95 113 133
97 114 135
105 119 139
100 116 137
100 116 136
108 127 148
110 127 150
108 126 147
110 127 148
110 129 151
101 118 138
111 131 154
109 127 149
112 130 152
109 128 149
111 129 150
113 130 151
114 132 154
119 137 159
116 135 157
124 141 163
115 133 155
118 137 159
122 142 165
119 139 161
112 129 151
118 136 160
121 140 161
121 140 164
120 138 160
121 139 161
118 137 160
123 141 165
123 141 163
124 143 165
121 141 165
117 136 159
119 138 161
124 142 165
125 143 166
122 141 164
123 141 163
127 146 170
126 145 169
120 140 162
120 139 161
120 139 162
122 139 165
120 121 160
116 108 155
111 85 148
107 59 144
107 45 146
109 44 148
108 43 146
108 43 145
107 43 143
108 43 143
109 43 145
106 43 143
109 43 145
108 43 145
105 42 140
108 43 145
108 43 145
110 44 148
107 43 144
108 43 145
106 42 142
107 43 143
107 43 146
108 43 144
110 44 147
106 43 144
106 42 142
103 41 139
106 42 141
104 41 140
104 42 140
106 42 142
105 42 142
103 42 140
107 42 142
103 41 135
105 42 141
106 42 141
106 42 143
104 41 139
105 42 141
107 43 145
106 42 142
106 42 141
106 43 144
106 42 138
106 41 139
103 41 137
101 40 135
104 41 138
106 42 141
105 42 140
102 41 136
106 42 140
104 41 138
104 42 140
105 42 141
105 42 139
103 41 136
101 57 133
102 75 131
93 112 112
87 122 98
88 145 94
85 163 81
84 157 77
84 164 79
89 175 83
88 173 83
91 177 85
92 178 84
86 166 79
91 176 84
89 175 82
89 177 83
94 187 87
95 186 87
95 187 88
90 178 83
94 186 87
91 179 84
94 186 86
97 193 89
93 184 85
93 184 85
90 179 83
96 191 88
94 187 86
93 185 85
94 184 85
93 187 87
91 180 83
95 189 86
94 186 86
91 178 82
96 188 86
95 189 86
94 187 87
96 191 87
95 188 86
92 184 85
95 188 87
97 192 88
95 188 87
96 192 88
96 187 86
93 187 86
91 183 84
91 179 83
92 183 84
93 184 85
96 192 88
95 188 86
98 190 93
123 190 145
138 201 166
158 204 203
178 207 235
184 211 244
185 211 245
184 210 244
184 211 245
187 213 248
189 216 250
190 217 252
187 213 247
191 217 252
184 210 244
187 213 247
188 214 248
190 216 251
187 213 247
188 214 249
189 215 249
189 215 250
189 215 249
189 215 249
189 215 249
188 214 248
185 211 245
190 216 251
187 212 246
183 198 236
180 194 231
170 171 210
163 152 196
156 134 178
148 122 164
146 119 159
155 126 166
147 118 155
171 138 181
161 135 175
160 133 174
172 144 189
175 145 190
181 151 196
186 153 199
184 151 199
192 157 204
192 157 205
191 155 206
198 162 212
193 159 206
183 154 195
119 131 119
75 89 72
69 25 76
80 56 88
100 100 111
105 110 116
108 114 120
110 115 122
111 117 124
112 118 124
111 116 122
108 114 121
111 116 122
110 115 122
110 114 120
112 118 122
126 125 131
97 99 99
76 78 86
87 84 99
98 95 109
140 137 144
174 174 175
171 172 174
161 164 167
121 128 127
96 105 98
94 105 98
92 98 93
95 101 97
96 105 105
89 95 91
94 101 99
101 104 107
99 103 105
98 101 102
102 105 109
99 101 106
97 100 103
97 98 98
102 101 107
98 96 100
92 89 92
88 85 86
85 77 77
83 73 75
75 65 65
78 61 62
85 78 81
82 74 76
84 76 79
94 88 92
92 87 91
93 87 91
98 96 100
98 97 102
97 95 100
100 102 107
101 103 109
103 105 111
101 105 112
102 105 110
104 108 114
100 102 108
97 99 104
96 99 105
101 104 109
93 96 101
97 100 105
95 98 103
89 92 95
90 94 99
87 90 94
84 86 89
93 97 101
85 86 90
86 87 91
86 89 94
91 95 98
86 88 92
90 92 96
98 101 106
91 94 99
94 99 102
96 100 105
96 100 104
90 93 98
104 109 115
96 101 107
101 106 111
105 110 116
102 107 114
102 107 114
105 111 117
103 108 113
106 112 118
103 109 114
109 114 120
103 109 115
103 110 113
100 111 108
100 117 102
108 140 106
123 161 118
132 173 128
132 175 130
131 174 130
130 173 130
128 172 130
128 172 130
127 172 130
127 172 130
127 172 130
129 173 130
130 174 130
131 174 130
130 173 128
122 160 117
123 160 118
118 148 114
112 134 108
102 112 101
95 103 101
102 108 112
103 109 113
105 111 116
105 109 115
101 105 109
104 107 112
102 105 110
101 105 110
105 109 115
99 104 108
104 107 112
95 99 103
98 101 106
101 105 110
99 104 109
97 100 105
101 105 109
98 101 106
96 99 104
98 101 107
100 104 110
102 106 112
96 100 105
97 103 108
97 101 104
102 107 113
96 101 106
104 109 115
104 108 114
100 105 112
100 105 111
104 110 117
105 110 117
106 112 119
101 106 112
100 104 111
102 108 115
97 101 107
100 105 111
100 105 112
94 100 108
94 99 108
100 106 113
91 98 107
78 86 99
63 74 94
38 58 86
29 52 84
30 53 85
32 56 90
31 54 88
32 56 91
33 57 94
32 55 91
31 54 87
32 55 91
34 58 94
31 52 86
31 54 89
31 54 89
31 54 88
32 54 89
32 56 92
30 53 87
33 56 93
32 55 91
32 55 89
31 53 86
32 52 84
52 65 93
66 75 94
89 94 103
90 93 100
99 103 109
92 97 105
95 99 106
96 100 107
93 97 103
100 104 109
91 93 100
95 99 104
90 93 99
98 99 104
100 103 109
93 94 98
93 94 99
90 91 96
95 96 100
95 95 99
91 91 94
92 93 96
98 97 99
96 94 98
95 96 99
92 93 97
98 96 98
96 95 98
97 96 98
98 99 102
99 100 103
97 98 101
100 101 105
104 105 109
97 98 101
100 102 106
104 106 111
106 108 111
106 109 114
108 111 115
107 110 115
106 110 115
105 107 112
107 109 113
106 109 114
109 114 119
109 113 119
107 111 117
107 111 116
109 114 120
106 110 115
108 112 118
109 113 120
110 115 121
109 113 120
108 113 119
109 113 119
111 116 121
107 112 118
112 117 123
110 115 121
109 113 118
111 116 122
110 116 123
107 113 120
107 111 118
111 117 125
109 114 121
107 113 118
108 114 120
111 116 122
107 113 119
108 113 120
109 114 121
109 115 122
109 114 120
110 115 120
109 114 119
109 114 121
106 111 117
107 114 120
105 110 117
112 118 125
107 112 118
107 111 118
104 110 115
106 111 117
105 110 116
104 109 114
109 115 121
105 110 117
104 110 115
106 111 117
106 111 117
97 103 108
102 106 113
102 106 112
102 107 112
95 101 106
94 98 103
91 96 101
94 100 105
94 99 103
94 99 103
87 90 95
86 91 96
86 90 94
79 82 86
83 86 89
77 80 84
80 83 86
83 86 90
82 85 89
81 83 87
79 82 85
78 82 86
81 84 87
75 78 82
78 79 83
83 86 90
93 97 102
82 85 89
88 89 95
89 93 99
92 96 102
91 95 100
90 94 98
97 98 105
98 101 106
95 96 102
102 105 110
99 101 108
99 104 111
97 100 107
102 106 112
99 102 110
103 107 115
104 108 116
103 108 114
103 108 115
106 111 117
102 104 110
105 110 117
105 109 116
103 107 114
108 111 118
105 109 115
107 112 118
103 107 114
106 109 115
104 108 116
109 112 120
108 112 119
110 115 122
106 110 117
106 110 118
108 112 119
109 113 120
111 117 124
104 108 116
106 110 117
109 114 121
106 111 118
107 110 117
108 112 120
102 99 110
103 76 101
97 40 87
94 30 84
96 31 84
98 32 89
94 30 82
93 31 83
96 31 85
100 32 89
97 31 86
93 30 81
96 31 84
101 33 89
95 31 84
98 32 86
95 31 86
98 32 87
97 31 86
97 31 86
97 31 84
90 29 80
93 30 83
92 29 81
96 31 84
95 31 86
96 31 86
93 30 85
91 29 82
95 30 87
95 30 84
93 32 86
98 62 95
103 89 107
111 113 120
108 112 120
106 111 118
108 112 120
110 115 121
110 114 122
112 117 124
111 115 122
109 113 121
109 114 122
111 116 122
110 114 121
111 116 122
108 112 118
111 114 122
111 116 124
108 113 121
111 115 121
112 117 124
110 116 122
110 114 120
111 116 123
111 116 123
110 116 123
108 113 120
111 115 123
111 117 124
109 115 122
109 115 122
109 114 121
112 118 125
112 117 124
112 117 124
113 118 125
111 116 124
112 117 123
112 116 124
107 112 120
110 115 121
110 116 123
109 115 122
110 115 124
111 117 124
111 116 123
109 115 122
107 109 128
99 95 133
89 71 143
78 50 141
81 50 150
79 49 147
81 51 152
81 50 149
80 50 147
78 49 146
80 50 149
80 50 149
78 49 147
80 50 151
78 49 147
81 50 151
79 50 148
74 46 137
78 48 145
78 49 146
80 50 150
78 49 148
80 56 147
92 81 137
104 106 128
109 114 120
107 112 118
107 112 119
106 111 118
107 112 118
108 113 121
109 114 121
107 112 118
108 113 119
103 107 114
103 109 115
105 111 117
105 110 117
105 109 115
100 105 110
100 105 112
98 103 109
106 111 117
97 100 105
102 108 115
99 104 109
93 97 103
101 106 112
103 107 113
106 112 118
104 109 115
101 106 111
104 109 115
105 111 118
108 114 120
105 111 118
102 108 113
104 111 116
102 107 112
98 104 108
82 90 87
62 77 56
42 62 15
42 65 8
43 64 8
42 63 8
55 72 43
79 90 82
104 109 114
111 117 124
108 113 120
110 116 122
100 105 111
64 69 71
33 39 36
61 64 75
67 58 118
59 28 144
57 27 137
60 28 144
55 26 134
55 26 132
57 27 138
57 27 138
67 51 142
83 80 148
104 110 156
117 129 168
123 140 166
132 150 174
131 149 173
133 151 176
135 153 177
130 148 171
131 148 171
135 153 177
131 150 175
131 150 173
131 149 173
133 152 176
129 147 171
134 152 176
132 150 173
133 151 174
128 147 172
129 148 171
134 152 176
133 151 175
131 149 172
131 150 174
132 150 172
134 153 178
131 149 172
134 152 175
136 154 178
133 151 175
133 151 175
133 152 176
133 152 176
134 153 176
134 153 178
132 151 175
132 150 175
133 152 176
131 149 172
133 151 175
133 151 174
133 151 175
134 153 177
133 152 177
135 154 178
134 153 177
131 149 173
132 150 174
132 151 175
133 152 176
135 153 177
134 152 175
133 152 176
134 152 176
133 152 176
134 152 175
133 152 176
133 152 176
133 151 175
133 152 175
134 152 175
130 148 171
132 151 174
133 152 175
131 150 173
130 149 171
128 146 168
122 140 158
109 128 138
97 116 116
83 101 92
76 96 78
64 84 50
61 82 39
56 76 37
59 79 38
60 81 38
59 79 38
60 81 39
54 74 35
61 81 39
67 90 43
64 85 41
66 89 42
63 84 40
64 85 42
62 83 40
65 87 42
64 85 41
62 82 39
67 88 42
64 84 40
65 86 41
65 87 42
65 86 42
61 80 39
60 80 40
63 84 42
60 81 40
64 85 41
60 79 39
62 82 42
66 88 43
62 83 40
64 86 41
66 87 41
65 87 42
65 87 42
65 86 41
67 89 42
64 86 40
64 86 41
65 87 41
67 88 42
66 88 42
65 87 41
65 87 41
66 87 41
66 88 41
64 85 40
66 88 41
70 93 44
65 87 41
68 91 43
64 86 42
68 91 43
67 90 43
64 86 40
66 89 42
66 89 41
65 86 41
69 91 43
65 87 41
64 85 40
63 85 40
68 89 58
83 102 85
95 115 110
101 120 119
110 129 138
124 142 161
129 148 170
134 152 175
133 152 176
131 148 171
132 151 174
132 152 174
133 152 175
133 152 176
134 152 176
133 151 175
134 152 175
132 150 175
132 152 175
133 152 175
136 155 178
134 153 176
136 155 179
135 154 178
132 150 174
134 152 176
130 149 172
134 153 178
129 149 171
134 153 176
133 152 175
133 152 176
132 152 175
134 153 178
137 155 180
134 153 177
136 154 178
131 150 172
131 148 169
129 145 161
122 138 152
120 133 142
124 137 146
125 138 148
125 138 147
118 131 138
124 138 146
126 138 146
125 139 146
123 137 144
124 138 146
121 135 143
121 133 142
125 139 148
124 138 147
125 139 146
125 138 146
129 143 150
121 134 142
126 140 148
128 140 149
128 142 150
129 142 149
124 136 144
129 142 150
134 147 155
122 134 142
123 136 144
129 141 149
125 138 146
124 137 146
125 138 146
122 133 142
130 143 152
124 138 146
131 144 153
124 135 144
129 142 149
129 142 150
128 141 150
125 138 147
130 142 152
127 140 150
131 145 153
125 137 147
123 134 142
129 142 151
130 144 152
129 142 150
129 142 151
124 137 147
128 139 148
134 147 156
128 140 148
126 138 148
134 147 157
130 143 151
121 132 142
129 143 151
129 139 151
130 141 151
129 142 152
130 142 151
126 137 147
132 144 153
129 142 153
127 140 151
130 141 150
139 152 162
131 140 151
129 142 151
130 143 152
126 139 149
128 141 152
129 142 151
129 143 152
132 145 153
128 140 149
132 144 153
125 137 150
128 142 158
130 147 163
122 141 158
126 143 166
130 149 170
127 147 168
124 143 162
124 143 164
126 146 167
126 145 166
125 144 165
130 149 171
121 139 159
123 143 164
125 145 166
126 147 167
127 147 167
126 146 164
122 142 160
116 136 155
125 144 165
126 144 165
119 141 157
125 145 164
129 147 170
120 140 157
119 138 158
124 143 163
112 131 147
113 132 147
118 138 157
124 143 163
111 131 146
113 131 147
116 135 151
