P3
1600 1
255
74 75 83
89 96 109
86 94 106
93 103 118
106 119 136
111 125 145
113 129 147
122 137 158
121 139 159
126 143 165
127 144 165
125 142 163
125 142 164
126 144 166
124 142 163
126 143 164
127 144 166
125 142 164
129 146 169
125 141 161
122 139 160
121 137 157
122 140 161
127 145 167
125 143 165
123 140 162
126 142 163
128 145 167
124 140 159
125 143 164
128 144 167
128 145 168
129 146 169
130 147 170
129 148 170
123 141 161
130 148 171
127 143 165
125 141 163
128 144 165
130 148 172
125 141 163
127 144 167
126 143 164
129 146 168
125 141 162
126 144 166
129 147 169
129 146 169
128 145 167
126 141 162
125 143 165
128 146 168
130 147 171
131 149 174
127 144 166
123 140 161
131 148 171
130 147 171
131 149 172
128 147 170
124 142 164
132 150 172
132 149 173
127 144 167
132 151 174
125 143 165
126 143 166
131 148 171
128 146 169
129 146 170
133 151 174
127 144 166
129 148 170
127 145 168
129 147 170
131 149 172
129 146 167
129 147 171
127 146 168
132 151 175
131 150 174
128 146 170
130 147 171
130 148 172
131 150 174
128 146 168
131 150 174
131 150 173
131 150 174
132 150 176
131 149 172
128 146 168
131 149 173
134 151 173
130 149 172
129 147 170
132 152 176
130 147 170
130 147 170
131 148 171
131 149 172
131 150 174
131 150 174
129 147 171
130 149 173
133 152 177
128 145 168
131 150 173
127 146 169
129 148 171
127 145 168
129 150 173
130 149 172
129 150 171
129 147 171
130 148 171
131 150 173
130 149 171
128 147 170
125 144 166
129 148 172
128 146 169
125 144 166
129 149 172
128 147 169
128 147 170
129 148 171
129 149 171
129 149 172
131 150 173
127 147 168
129 148 170
128 149 172
132 152 175
131 151 175
131 150 174
125 144 167
129 149 171
131 149 172
124 144 165
126 145 168
124 144 164
123 141 152
122 138 141
115 129 112
108 121 94
113 124 91
110 122 89
114 127 93
112 124 91
111 123 90
111 124 91
112 124 90
113 126 92
112 124 90
112 124 90
113 126 92
112 125 91
112 125 91
113 125 91
110 122 90
115 127 92
110 122 89
110 123 90
111 124 91
110 123 89
108 121 88
112 124 90
113 125 91
111 124 91
112 125 91
113 125 91
114 126 92
113 125 91
113 125 91
110 123 89
111 123 89
114 127 92
114 127 92
113 125 91
112 124 90
114 127 92
114 127 91
112 125 91
112 124 90
107 118 86
110 121 88
115 128 93
111 123 90
110 123 89
113 125 90
112 124 91
111 123 90
110 121 88
110 122 88
110 123 89
112 124 90
109 122 89
114 126 91
113 125 91
113 125 91
108 121 88
112 125 91
111 123 89
107 120 87
111 124 90
108 120 87
111 124 90
111 124 90
109 121 88
108 121 88
109 122 89
108 121 87
105 118 86
121 134 115
151 166 167
166 183 193
188 208 231
188 208 232
183 203 230
166 187 211
164 184 210
147 166 190
137 157 179
130 151 173
126 144 166
121 141 162
127 146 169
122 139 161
121 141 162
124 143 165
127 146 169
125 146 168
124 144 166
127 145 168
128 148 170
123 143 165
128 147 170
127 147 170
124 144 166
122 141 163
120 138 160
125 144 166
126 143 166
129 148 171
123 141 164
127 145 169
128 146 170
127 146 167
127 147 170
127 144 167
123 141 163
129 145 169
125 145 167
125 142 165
127 146 169
132 151 175
126 142 165
126 144 167
126 145 169
129 147 170
130 148 172
128 147 170
124 142 164
129 147 171
126 144 167
126 144 168
130 149 172
126 142 164
128 147 170
126 145 168
127 144 168
128 146 169
124 141 165
125 142 166
113 132 162
102 125 170
89 114 165
66 95 158
48 86 161
39 81 162
38 78 155
39 80 162
39 79 159
41 83 166
40 81 164
40 81 161
40 83 167
40 82 164
40 81 159
40 81 164
42 85 169
40 83 164
40 81 163
39 80 161
41 84 168
40 81 161
39 79 160
41 83 167
40 81 161
39 79 159
40 82 163
40 81 161
39 79 159
40 83 167
41 83 166
40 81 163
40 81 162
40 83 166
37 76 152
39 81 161
39 80 161
39 80 161
40 82 166
41 83 166
38 78 157
38 78 157
38 78 157
40 82 165
39 81 162
39 80 160
39 80 161
38 77 154
39 81 161
38 79 158
39 80 164
40 80 163
38 78 156
40 82 164
38 79 158
39 81 164
41 84 166
38 79 158
40 82 165
40 82 165
37 77 155
39 79 158
39 81 163
38 79 158
39 81 164
40 83 168
38 78 157
38 78 156
39 82 164
37 79 160
37 78 156
39 82 166
38 79 159
37 77 155
37 78 158
37 78 158
38 80 162
40 82 164
39 82 164
36 75 151
36 75 151
65 96 164
95 118 171
119 140 178
131 153 191
155 177 206
166 187 214
171 192 221
174 194 223
181 201 230
182 204 233
186 206 234
186 209 239
191 213 243
192 214 244
193 215 246
193 216 247
195 218 249
196 220 251
199 223 254
197 220 251
199 223 254
199 222 253
198 221 252
200 223 254
198 221 251
197 220 250
200 223 253
199 221 252
200 223 254
201 223 254
199 222 253
197 220 250
199 222 253
198 220 251
199 222 252
196 219 249
198 221 252
196 219 250
196 219 249
196 219 250
198 222 253
194 218 249
197 221 252
196 219 251
193 217 249
191 215 247
193 216 248
185 209 240
186 210 241
178 201 231
177 200 230
168 190 219
165 186 214
156 176 202
143 164 189
140 166 188
117 147 171
114 148 175
104 143 170
77 112 147
67 107 158
66 104 157
74 114 162
83 122 165
96 137 177
105 148 179
105 148 177
126 173 195
120 166 186
129 176 192
129 176 193
134 183 199
141 191 209
137 186 202
139 188 206
138 187 205
143 195 214
142 191 211
143 195 215
148 200 221
144 196 216
142 192 213
143 194 215
146 199 221
141 192 214
141 192 213
149 202 225
145 197 219
146 198 221
147 201 222
148 201 223
146 200 221
149 203 226
146 200 221
147 201 222
147 202 223
147 202 221
145 199 219
144 197 216
145 197 218
141 191 211
139 188 208
134 182 200
132 178 195
128 172 190
120 160 176
119 159 174
118 158 176
121 159 175
118 156 175
116 156 170
122 166 180
116 153 168
120 163 176
125 173 186
131 176 196
135 187 200
131 180 192
132 186 194
135 184 200
134 185 198
131 181 195
132 177 197
139 186 209
133 181 205
131 177 201
129 174 199
128 175 199
130 178 204
129 178 203
123 171 195
126 175 198
120 168 187
110 152 171
107 150 169
95 131 146
80 102 112
73 88 96
54 50 52
49 29 30
48 22 20
49 23 21
49 22 21
49 23 21
48 22 20
50 23 20
48 22 20
48 22 20
50 23 21
49 22 20
49 22 20
51 23 21
50 23 21
50 23 21
49 22 20
51 23 21
47 21 20
48 22 20
52 23 21
50 22 21
50 22 20
49 22 20
49 23 20
53 24 22
53 24 22
48 22 20
50 22 21
52 23 21
51 23 21
63 52 58
82 79 91
86 91 106
101 111 130
108 122 141
110 127 150
118 135 158
116 134 157
118 136 159
116 134 157
118 137 160
115 133 156
114 132 155
108 126 147
113 130 152
113 130 151
109 126 147
104 121 143
108 126 149
112 129 150
111 129 151
115 134 157
106 123 145
105 122 144
97 113 134
106 121 143
102 119 139
101 117 137
97 113 133
96 112 133
94 109 129
98 114 135
96 112 131
94 108 126
97 112 132
92 108 129
95 111 131
91 105 125
93 108 128
102 118 140
94 109 129
94 110 130
96 112 131
104 120 140
103 118 138
100 116 137
97 113 132
106 123 143
104 120 140
102 119 140
114 131 153
109 125 146
100 117 137
105 121 143
110 128 150
113 132 154
111 129 150
110 128 150
108 125 147
114 132 155
113 131 153
114 132 153
116 133 156
116 135 158
113 133 154
120 138 161
112 130 153
116 135 159
119 137 159
123 142 165
118 137 160
120 138 162
116 134 157
123 141 164
125 144 168
115 133 156
120 138 160
125 144 167
122 142 165
121 141 165
125 143 165
124 143 166
124 143 166
120 140 163
122 142 165
127 147 170
123 143 165
126 145 170
127 146 169
125 143 165
126 145 168
125 144 167
128 146 169
125 142 165
128 146 170
123 138 164
118 125 158
116 107 155
114 82 150
110 62 148
107 46 145
110 44 146
107 43 143
107 43 144
106 43 143
111 44 147
108 43 145
110 44 148
107 43 145
109 43 145
107 43 146
108 43 145
105 42 143
108 43 144
107 43 144
108 43 145
108 43 146
106 42 140
105 42 140
110 44 147
106 43 143
107 43 144
106 43 142
107 43 144
105 42 140
105 42 138
104 41 139
108 43 145
105 42 140
106 42 141
106 42 140
103 41 138
104 41 138
106 42 143
104 41 138
105 42 140
106 42 142
107 42 140
106 42 140
102 40 135
104 42 140
107 42 142
106 42 141
106 42 142
103 41 138
107 42 139
104 41 139
106 42 140
105 41 138
103 41 136
103 41 139
105 42 141
106 42 141
104 42 140
106 42 143
104 41 137
104 46 138
102 56 135
99 67 130
93 104 114
91 117 107
87 150 91
90 171 85
88 170 82
87 167 81
86 163 78
88 171 82
89 174 82
88 169 82
91 179 85
93 185 87
89 176 83
91 179 84
91 179 84
93 182 85
92 182 85
91 180 85
90 178 84
91 179 84
91 180 83
93 185 85
91 179 84
93 185 86
92 182 84
92 186 87
93 184 84
93 187 87
91 182 84
93 186 86
93 185 85
95 192 89
91 181 84
89 178 83
95 188 87
94 188 87
93 183 84
92 184 85
92 183 84
92 180 83
97 194 89
93 182 84
91 181 84
91 180 82
95 188 86
94 186 85
95 188 86
95 189 86
93 186 86
94 186 85
93 186 86
95 189 87
110 194 117
114 188 130
143 199 179
169 207 221
181 210 241
184 210 245
185 211 246
186 212 247
184 210 244
187 213 248
184 210 244
184 211 245
188 214 248
189 215 249
185 211 245
185 211 245
185 212 246
188 215 249
187 213 247
185 211 245
188 214 248
191 218 253
188 214 248
187 214 248
189 215 249
191 217 251
190 217 251
189 213 248
183 201 237
175 179 219
170 165 207
160 144 187
149 126 169
148 122 165
138 114 153
147 121 160
149 121 160
153 125 164
161 133 174
158 132 172
169 142 186
172 144 188
178 148 193
175 146 191
181 149 196
192 157 204
182 149 195
191 155 203
184 151 196
192 158 205
190 158 204
133 135 137
71 91 69
71 38 78
72 44 81
91 89 101
104 106 114
106 110 117
111 117 124
108 114 122
109 115 122
112 118 124
112 119 124
111 116 121
111 117 123
113 119 125
110 116 122
126 131 133
138 141 140
88 93 88
94 92 100
99 95 108
132 129 138
160 158 164
174 176 178
168 171 175
134 140 142
99 108 106
98 107 103
94 103 99
94 103 97
98 106 101
96 103 103
99 105 103
102 106 107
100 105 108
98 102 105
94 98 100
99 102 104
96 96 98
100 101 106
96 95 98
99 97 100
97 95 99
86 78 81
86 83 84
90 86 90
87 80 83
82 78 81
82 76 80
92 89 93
87 79 83
94 90 94
95 89 94
101 101 105
104 104 109
100 99 105
103 105 111
105 109 115
105 107 112
99 102 108
103 106 113
101 103 110
102 103 108
103 107 113
104 108 114
99 103 108
97 101 107
104 106 112
98 103 109
99 102 107
97 98 103
95 99 104
98 102 107
97 99 104
91 95 99
88 91 95
91 93 97
88 92 96
92 95 100
97 100 105
95 99 104
93 96 100
94 99 103
99 104 108
97 101 106
108 113 119
103 109 115
103 108 114
100 104 110
106 111 116
103 108 114
104 109 115
100 105 110
108 113 120
104 109 114
107 114 120
107 112 119
107 112 119
104 110 115
97 109 106
101 121 106
118 152 113
126 164 121
132 174 129
130 174 130
128 173 130
127 172 130
126 171 130
125 171 130
124 170 130
124 170 130
124 170 130
124 170 130
125 171 130
126 171 130
128 172 130
129 173 130
130 173 129
130 171 127
127 163 120
119 151 110
109 133 102
102 116 99
99 106 104
104 111 112
105 110 115
102 107 112
105 109 115
103 108 113
103 108 113
103 107 112
100 105 109
102 106 111
106 109 113
102 105 110
105 110 115
97 102 108
98 102 107
96 100 105
102 106 112
102 106 112
100 104 109
99 103 109
102 105 112
102 106 111
103 108 114
101 106 112
99 104 111
100 105 112
104 108 114
100 106 112
99 104 111
102 107 113
101 107 113
100 105 111
101 105 111
101 107 114
99 105 112
101 107 114
98 104 110
97 103 110
99 103 110
95 100 107
96 102 109
99 104 110
94 98 106
98 103 111
87 92 103
74 82 98
52 66 90
39 57 87
30 51 80
29 49 81
29 52 83
30 53 85
31 54 86
31 55 89
31 55 89
32 53 87
30 52 84
31 54 89
30 52 85
32 54 89
31 53 86
31 53 88
31 53 88
33 55 93
32 54 89
31 53 89
30 52 87
28 49 83
41 57 87
53 64 83
81 87 98
91 95 102
89 92 99
94 98 105
88 92 100
91 96 104
95 100 106
98 101 108
95 98 104
100 102 107
93 96 102
94 97 103
98 101 105
97 100 106
98 99 103
96 99 105
97 99 103
100 102 109
98 100 105
93 94 99
92 93 98
97 99 103
97 97 101
94 95 99
98 98 101
97 98 102
95 96 100
96 98 101
96 98 103
99 101 104
101 103 107
101 103 108
104 106 110
105 107 111
104 107 111
109 112 117
104 106 110
106 110 114
106 109 114
107 108 112
106 111 116
106 110 116
109 112 117
109 113 119
108 112 118
109 114 120
106 112 119
109 114 120
110 115 121
106 110 115
108 114 121
108 113 118
110 115 120
110 114 120
109 115 121
111 116 122
111 115 121
112 116 122
110 114 120
109 116 122
110 115 119
108 114 120
111 116 122
109 115 121
108 113 120
106 112 118
109 115 122
108 113 119
110 115 121
109 114 120
107 112 118
109 113 119
110 115 121
108 114 120
109 114 120
110 115 121
110 116 123
106 112 118
107 112 118
107 112 118
109 114 121
108 113 119
105 110 117
105 110 116
106 112 119
107 112 118
105 111 117
106 111 118
108 114 120
101 107 112
106 112 119
106 111 117
105 110 115
105 110 117
103 108 114
104 110 115
102 107 113
99 105 111
95 101 106
93 98 104
98 102 108
97 103 108
92 97 102
93 98 103
91 95 99
90 95 100
87 90 95
84 88 92
93 97 101
80 83 87
81 84 88
86 89 95
93 97 101
78 81 85
84 88 93
89 93 97
91 94 99
90 94 99
86 90 96
86 89 94
87 92 96
96 101 107
87 90 96
94 98 102
93 98 104
94 97 103
98 101 107
95 98 104
100 105 111
98 102 108
100 104 110
103 108 114
98 104 110
103 107 113
104 107 113
104 107 114
106 111 117
103 106 111
106 112 118
105 109 117
108 112 120
106 110 117
105 111 117
108 114 121
107 112 118
110 115 121
110 114 121
105 109 113
109 113 120
106 110 117
108 113 120
107 111 118
107 111 118
106 111 117
105 109 116
107 112 118
109 112 120
109 114 121
108 113 121
109 112 119
109 114 121
108 112 119
108 112 119
106 109 117
105 94 110
97 66 94
93 40 84
96 31 87
91 30 81
94 30 83
95 31 85
95 31 85
99 32 86
99 32 88
91 30 80
95 31 85
99 32 88
95 31 84
99 32 86
96 31 84
95 31 84
96 31 85
95 31 84
94 30 84
92 30 82
92 30 82
98 31 85
92 30 81
94 30 83
95 30 85
91 29 81
92 29 81
97 31 88
92 29 83
92 30 84
94 38 88
98 69 97
107 95 113
107 110 117
108 113 120
108 112 119
110 115 123
108 113 120
109 115 122
109 113 120
110 115 122
110 115 123
109 113 120
107 111 118
107 113 119
110 114 121
110 116 123
110 115 122
112 117 124
106 111 117
112 117 125
109 115 122
112 117 124
111 117 124
111 116 123
110 115 122
107 112 119
110 115 122
108 113 121
110 115 122
108 113 122
111 116 122
109 115 123
112 117 125
110 116 123
109 115 123
110 116 123
107 113 121
110 115 122
112 118 124
108 113 121
109 113 120
110 115 122
111 117 125
113 118 125
110 116 124
110 115 123
109 114 123
102 101 130
86 73 134
79 54 140
77 48 144
79 49 146
80 50 149
79 49 148
79 49 147
77 47 142
77 48 141
76 47 141
78 49 145
77 48 143
74 46 137
77 48 144
77 49 146
77 48 144
76 47 141
78 48 146
77 48 143
77 48 143
76 47 144
79 53 146
92 84 137
104 106 123
108 113 121
107 112 118
111 116 123
112 118 124
104 109 115
108 114 121
107 112 118
110 115 122
107 112 119
107 113 120
107 113 120
104 109 116
109 114 120
97 101 106
105 109 116
101 106 112
100 105 110
103 108 114
101 107 112
103 108 113
100 104 109
104 109 115
103 108 114
103 107 112
107 112 118
106 112 118
103 109 114
108 113 119
104 110 115
105 111 117
99 105 111
102 109 114
97 104 109
97 102 106
88 95 97
78 88 81
49 67 34
41 62 8
41 63 8
45 67 9
47 70 20
73 85 72
102 109 111
107 113 118
108 113 119
111 116 123
112 118 125
85 90 96
48 52 52
46 50 51
64 63 90
71 58 133
56 28 136
56 26 137
55 26 134
57 27 139
57 27 139
56 26 134
58 27 140
74 65 146
81 77 147
98 103 157
117 130 166
130 147 175
130 148 172
134 153 176
133 152 176
134 152 176
132 150 174
134 152 176
130 147 171
134 153 177
134 152 176
129 148 172
131 149 172
134 152 176
132 150 175
132 151 175
134 152 175
132 151 174
132 150 174
131 150 174
136 153 177
133 152 176
134 153 177
131 149 172
134 152 176
134 152 176
133 151 176
133 152 175
136 154 178
131 149 172
132 151 175
134 152 175
132 152 176
127 146 168
133 152 175
130 148 173
134 153 176
135 153 178
132 151 175
133 151 173
132 150 173
132 151 175
133 151 175
132 150 174
130 148 170
133 151 174
131 149 173
135 153 177
130 148 171
131 150 173
128 148 172
133 151 175
134 153 177
135 154 178
131 150 173
135 154 178
133 151 174
131 149 174
132 151 173
136 154 177
134 153 177
131 150 174
131 150 175
131 149 173
132 151 174
131 149 171
123 142 161
119 137 154
96 113 119
89 107 106
78 97 85
70 89 67
61 81 42
64 86 41
61 81 39
60 81 39
61 82 39
58 79 38
61 82 38
62 83 40
59 80 38
64 86 41
61 81 39
62 83 40
62 84 40
62 83 40
64 86 42
64 85 42
65 85 43
61 80 42
59 79 41
56 74 41
61 80 45
57 76 43
56 76 42
55 73 42
57 76 42
61 80 45
53 71 43
59 78 45
55 73 42
58 77 43
60 79 44
61 81 44
59 78 41
59 79 42
64 86 42
63 84 41
68 90 43
65 87 41
63 84 40
66 89 42
67 89 42
63 85 41
64 85 41
65 86 41
63 84 40
65 85 40
63 85 41
69 92 43
65 87 41
67 88 42
64 85 40
63 83 40
67 89 42
64 86 40
64 86 41
64 86 40
66 88 41
61 82 39
62 84 40
66 89 42
65 87 41
66 86 55
72 91 67
91 110 102
107 127 132
104 123 128
119 138 153
129 147 168
131 149 170
133 152 176
135 153 177
132 151 174
136 155 180
133 151 174
136 154 178
133 152 175
133 151 174
135 153 176
132 150 173
133 152 176
134 153 176
133 150 173
131 150 173
132 151 174
134 153 177
133 152 175
135 154 177
133 152 176
135 154 177
133 152 175
132 150 173
130 148 170
133 153 176
132 151 174
137 155 178
135 154 177
135 154 177
133 151 174
132 151 174
135 152 174
129 147 167
128 143 159
122 137 150
123 136 145
126 139 149
123 135 143
124 137 146
121 134 143
119 130 140
126 139 146
124 138 146
124 136 144
129 143 152
127 140 147
122 135 143
129 142 151
120 133 141
126 138 144
129 142 150
128 141 149
126 139 147
126 139 147
127 139 146
132 145 154
132 145 153
126 140 147
122 134 142
128 142 150
126 139 148
122 136 144
126 140 149
126 140 148
128 141 150
125 138 147
125 138 149
126 139 147
129 143 152
126 139 149
127 140 148
127 138 147
128 141 151
124 136 145
128 139 148
129 142 152
126 139 148
129 141 150
125 137 144
122 135 146
123 136 144
127 140 149
132 145 153
130 143 152
129 140 149
126 138 147
128 141 151
127 139 147
126 138 147
125 138 146
130 142 152
127 139 147
130 142 153
132 145 154
127 139 149
126 138 148
123 135 145
130 141 152
126 137 147
130 144 153
133 147 155
131 143 153
127 140 149
129 142 152
130 144 154
127 138 150
131 142 153
127 140 150
125 136 146
129 142 152
131 143 153
127 139 149
128 142 152
130 145 156
130 144 158
130 146 162
125 143 162
127 146 165
128 147 169
126 145 164
129 147 169
126 145 167
131 150 172
125 146 165
127 146 166
126 145 167
133 151 176
124 143 164
124 144 166
124 144 164
122 141 161
123 144 163
125 145 166
126 145 166
121 142 161
122 141 160
130 149 170
123 142 163
123 144 163
123 142 162
122 143 161
125 144 164
128 147 168
121 141 159
119 139 156
121 140 160
120 139 157
118 137 156
122 141 161
