P3
1600 1
255
104 117 134
112 125 144
109 123 141
116 131 151
116 131 151
114 130 149
115 130 150
120 135 156
121 137 158
116 130 150
122 138 158
119 134 154
117 132 152
118 134 155
122 138 159
120 137 158
118 135 156
120 135 155
115 130 149
118 133 154
119 135 156
119 136 157
117 134 155
123 142 163
119 134 154
126 144 166
125 142 164
124 141 162
120 137 157
126 143 164
125 142 163
125 142 164
126 143 166
127 144 166
125 142 163
125 142 165
124 142 163
123 138 160
129 146 168
123 140 162
121 138 159
127 145 167
127 143 165
124 139 161
131 148 171
126 143 164
125 142 164
126 143 165
126 143 166
124 142 164
126 143 166
130 148 171
130 148 171
129 146 169
129 147 170
129 146 170
125 142 165
130 148 171
127 144 166
127 145 169
128 145 168
129 147 169
130 148 171
131 148 172
133 150 173
127 146 170
129 146 168
129 146 169
130 149 172
130 148 172
130 147 170
128 146 169
131 149 172
132 150 173
129 147 170
130 148 171
130 147 169
132 151 175
131 149 172
131 149 172
130 150 174
130 148 172
133 151 175
132 152 176
129 149 173
130 148 171
133 151 175
133 151 175
131 149 173
132 151 175
131 148 171
132 149 173
130 149 173
131 148 172
133 152 176
135 153 177
132 151 174
131 150 173
136 155 178
130 148 171
132 150 172
131 150 172
132 150 174
134 153 177
125 145 169
133 151 176
132 151 175
130 149 173
128 147 170
131 150 173
130 150 173
129 148 171
131 151 174
131 150 173
132 151 174
129 147 171
134 152 176
130 149 173
128 147 169
130 149 172
134 152 176
129 148 172
129 148 171
126 145 167
126 144 166
132 151 175
128 148 171
126 145 168
128 147 170
129 149 172
129 149 171
131 150 173
129 149 171
129 148 171
127 148 171
131 149 173
131 151 175
128 148 171
128 148 171
127 148 170
130 149 171
126 143 160
121 139 147
118 134 127
113 126 101
112 124 90
111 123 90
109 120 88
110 122 89
109 120 88
111 124 91
111 124 91
109 121 89
113 126 92
112 125 91
111 123 90
113 124 90
113 124 90
108 119 87
112 125 91
111 123 90
111 124 90
114 125 90
110 122 89
108 121 88
113 126 92
109 122 89
113 126 91
106 116 84
115 127 92
107 120 87
112 124 89
112 125 91
109 121 88
111 123 89
110 122 89
109 120 87
109 122 89
112 123 89
111 124 89
111 124 90
109 119 86
109 121 88
113 124 90
109 121 87
109 121 88
107 118 86
107 119 87
109 122 89
111 123 90
111 122 89
113 125 91
113 125 91
108 121 88
109 121 88
108 120 86
109 121 88
108 120 87
111 122 88
110 122 89
111 122 89
108 120 87
106 117 85
111 123 89
111 122 89
109 121 88
111 123 89
106 118 86
112 125 90
107 119 86
110 122 89
109 121 87
111 124 90
106 119 86
107 120 87
110 123 89
106 117 85
114 126 105
131 145 141
145 163 173
151 170 189
145 165 189
147 166 191
134 153 178
129 148 171
128 147 169
131 150 173
128 148 172
129 148 171
127 146 170
132 151 175
128 147 170
129 149 172
129 148 170
130 148 172
129 147 169
129 148 172
129 147 171
129 148 171
126 144 167
127 146 168
130 148 171
127 146 169
126 144 166
130 150 174
127 145 169
128 146 169
131 150 174
133 150 174
131 149 174
128 146 169
132 151 174
130 147 170
128 145 168
130 148 172
128 147 172
131 151 174
132 151 174
131 148 171
133 151 175
129 148 173
132 151 176
128 147 171
130 148 171
132 149 173
127 145 168
132 151 176
132 152 175
131 150 174
133 151 175
132 150 174
130 148 172
130 149 172
130 146 170
130 147 170
126 145 169
114 134 167
101 123 164
86 112 166
77 104 161
48 85 161
40 81 162
38 78 157
35 73 145
39 80 163
39 79 157
39 80 161
39 80 159
40 81 163
37 77 154
39 79 157
40 82 163
39 81 162
39 79 158
39 79 159
38 79 156
39 80 158
38 78 154
39 79 158
40 82 163
38 78 158
38 78 157
37 76 152
38 77 154
37 77 155
40 82 165
40 82 163
40 82 164
40 81 162
39 80 162
37 76 151
39 80 161
39 80 161
39 80 161
40 82 165
39 80 160
39 80 161
40 82 163
39 80 161
37 75 150
40 81 162
39 78 157
40 81 163
39 78 156
39 79 159
39 81 161
39 81 164
38 78 158
38 78 157
37 76 153
39 79 159
38 78 156
39 80 158
39 81 161
39 80 159
38 80 159
40 82 163
39 80 161
39 80 159
39 80 161
39 80 161
36 75 152
38 79 156
37 76 153
37 78 156
36 76 153
40 83 167
36 74 150
36 76 152
37 76 154
37 76 155
39 78 158
38 79 157
36 74 148
37 78 158
36 75 151
40 78 152
68 96 159
84 107 158
109 129 166
121 140 171
143 162 188
142 161 186
149 169 195
148 169 196
163 185 214
165 187 216
170 193 223
169 191 221
177 200 231
177 201 233
181 206 239
181 206 238
187 213 246
188 213 246
190 215 247
191 216 249
190 214 247
193 218 251
195 220 253
194 219 252
191 215 248
194 219 252
192 217 249
191 216 248
191 216 248
193 218 250
192 216 249
191 215 247
192 218 251
192 217 249
191 216 249
196 221 254
191 216 249
188 213 246
191 216 249
190 216 249
186 211 244
186 211 245
186 211 243
181 206 239
177 201 233
172 195 226
167 190 220
161 184 213
164 186 216
148 169 196
148 169 196
149 168 193
142 162 187
138 157 181
135 156 180
121 145 166
107 134 157
93 129 157
81 120 153
70 103 141
53 89 143
54 92 146
60 97 146
63 100 147
77 114 154
94 135 167
109 151 177
113 155 176
114 158 174
116 160 175
118 161 177
121 165 178
118 161 173
126 171 187
121 164 178
127 171 187
128 171 187
122 165 183
124 168 181
129 174 191
131 177 195
124 168 185
128 172 190
126 169 188
127 171 191
130 176 196
127 171 192
136 184 205
138 187 208
128 176 193
138 188 207
134 183 201
134 184 199
133 181 199
139 191 206
136 185 200
135 185 203
131 182 194
133 181 197
132 180 195
131 178 192
133 179 197
117 158 170
121 163 178
109 144 159
112 147 161
112 144 160
106 136 150
102 132 146
102 130 148
108 140 152
104 137 152
105 141 155
102 133 147
100 136 147
109 146 158
114 155 166
116 165 169
112 161 164
113 157 169
122 170 180
121 169 181
120 165 183
120 161 180
121 166 186
119 161 184
128 174 199
121 166 190
119 164 189
120 167 190
111 155 178
117 163 187
112 157 178
109 153 172
98 139 154
85 119 130
74 97 110
66 79 89
51 46 48
46 27 27
44 20 19
44 20 19
48 21 20
45 20 19
45 21 19
47 21 20
49 22 20
49 22 20
50 23 21
49 22 20
50 23 21
51 23 21
46 21 19
46 20 19
49 22 20
48 22 20
50 23 21
50 22 21
47 21 19
47 21 19
50 23 21
52 23 21
49 22 20
52 23 21
48 21 20
49 22 20
48 22 20
57 43 48
68 64 74
79 80 91
91 96 112
103 116 136
116 131 153
121 139 162
127 146 170
121 140 164
127 145 170
128 147 172
117 134 156
124 142 164
122 140 163
127 146 168
124 143 168
124 144 168
124 143 165
117 135 158
124 143 168
123 142 166
121 138 161
119 138 163
125 143 167
122 139 162
126 144 168
118 136 159
125 143 166
118 137 161
125 143 167
122 140 164
120 138 161
119 137 160
118 136 159
120 138 162
126 144 168
119 138 163
123 140 163
123 141 164
120 138 160
117 135 159
124 141 164
123 141 165
124 141 164
119 138 163
121 140 163
125 143 166
122 140 163
122 140 164
124 143 167
118 137 160
123 142 166
121 138 161
120 138 161
125 143 166
126 144 168
120 138 162
122 140 163
123 142 164
124 143 167
122 141 164
122 140 162
125 144 167
126 144 168
122 141 165
123 141 165
123 141 163
125 144 168
127 145 168
124 142 166
126 143 166
122 141 164
127 146 167
127 145 169
128 146 169
128 147 170
127 146 169
128 147 170
124 143 166
123 142 164
130 148 173
127 144 168
123 141 163
128 147 170
129 148 172
127 147 171
135 153 177
129 149 172
127 147 171
122 141 163
128 148 170
129 148 171
127 145 169
127 145 168
127 144 169
124 133 165
119 111 157
111 90 149
111 67 148
109 46 146
108 43 144
106 42 142
105 42 139
107 43 145
107 42 142
105 42 140
108 43 145
105 42 141
104 42 141
106 43 144
107 43 143
108 43 145
103 41 139
104 42 141
106 42 142
108 43 145
102 41 136
107 43 143
106 42 142
103 41 139
105 42 141
105 42 141
105 42 141
106 42 141
108 43 144
105 42 140
104 42 139
107 43 144
103 41 139
104 41 139
103 41 139
104 42 141
102 40 135
104 41 138
103 41 139
105 42 139
108 43 142
103 41 137
103 41 138
104 41 137
105 41 139
104 41 138
104 41 139
106 42 140
105 41 138
105 41 138
103 41 136
102 41 137
105 42 140
105 41 137
106 42 141
105 41 139
99 39 130
104 41 138
103 41 137
103 41 138
102 41 135
99 39 130
103 41 139
102 41 136
100 39 130
100 41 133
101 54 134
92 82 114
88 103 104
87 134 94
89 168 86
86 169 81
85 163 80
86 165 80
85 161 78
89 174 84
90 176 83
89 176 84
86 170 79
93 181 85
93 181 84
88 172 81
89 178 84
92 184 86
92 180 85
94 185 86
92 181 83
91 182 84
90 177 81
91 181 84
91 181 85
88 174 80
91 181 84
93 185 85
90 179 83
90 179 82
93 185 85
90 179 83
94 187 86
91 182 85
93 185 84
93 184 85
89 178 82
95 188 86
91 182 84
90 180 83
88 175 81
93 184 85
95 190 87
93 181 83
93 185 85
93 183 84
91 180 83
88 173 79
90 181 84
94 187 86
93 183 84
94 186 85
90 179 82
103 181 108
133 199 160
151 199 193
170 205 225
178 206 237
184 210 245
181 208 242
187 214 250
186 212 246
185 212 247
183 210 244
185 212 247
183 209 244
184 211 246
181 207 241
183 210 245
184 211 245
186 212 247
185 212 247
184 211 246
179 205 239
186 212 247
187 214 249
186 212 247
184 210 244
184 209 244
177 194 230
171 181 219
164 169 207
154 139 181
148 125 169
128 107 146
134 110 149
141 116 155
127 105 140
131 108 143
142 121 161
144 123 162
138 120 160
151 128 168
139 119 157
157 132 174
156 130 172
165 137 178
158 130 172
157 129 170
164 138 176
158 135 172
159 139 170
153 138 161
120 128 120
75 111 69
70 41 75
76 54 83
92 91 102
99 101 110
105 110 117
107 111 119
110 116 123
110 116 123
112 117 124
111 117 122
111 117 123
112 117 124
111 117 123
109 115 121
114 119 123
135 139 142
158 160 163
156 155 164
142 140 158
152 152 164
171 174 178
166 170 175
136 144 147
108 116 118
103 111 113
102 107 109
101 110 108
102 109 110
100 105 106
101 104 106
100 106 106
104 109 113
102 106 111
101 105 109
104 108 114
103 106 110
102 107 111
102 103 108
103 105 110
99 101 102
100 100 105
96 95 97
92 92 95
95 90 95
95 92 95
95 90 95
96 97 101
95 95 100
101 100 105
102 102 107
105 107 113
100 103 108
105 109 115
105 108 113
103 104 110
102 107 112
105 109 115
102 104 110
106 109 116
104 107 113
105 108 114
103 107 114
101 105 112
102 106 112
100 104 110
100 103 108
106 110 116
99 103 109
101 106 111
101 108 114
100 104 110
91 94 100
96 100 105
94 99 104
95 99 104
101 105 110
97 100 104
101 106 111
101 104 110
97 101 105
102 108 113
100 104 109
102 105 111
104 108 114
106 112 118
106 111 118
105 110 116
106 111 118
106 113 119
104 109 114
106 111 117
105 110 116
109 115 120
105 110 116
99 109 109
93 111 96
108 138 104
131 171 125
133 176 130
129 173 130
127 172 130
124 170 130
123 169 130
121 168 130
120 167 130
119 167 130
119 166 130
118 166 130
118 166 130
118 166 130
119 167 130
120 167 130
120 167 130
121 168 130
123 169 130
125 170 130
127 172 130
129 173 130
132 175 130
132 173 128
128 165 121
118 149 109
101 119 96
94 103 95
99 105 106
106 112 117
105 110 115
105 109 114
105 111 116
104 109 115
101 107 112
105 110 116
105 110 117
105 110 115
105 109 115
102 108 114
105 111 116
100 104 109
102 107 112
105 109 114
105 110 115
103 108 114
99 103 108
106 110 116
103 110 116
104 109 115
108 113 120
106 112 119
104 109 115
99 104 109
105 110 116
97 102 109
100 105 112
99 104 111
102 108 114
97 104 111
101 106 114
102 108 113
94 100 107
95 101 109
92 99 105
98 103 108
93 97 104
88 93 100
87 92 100
86 91 100
77 83 91
79 85 95
69 76 90
51 60 79
43 57 81
37 54 81
28 49 80
27 47 78
27 47 78
27 47 79
29 50 83
29 50 83
28 50 80
28 48 78
29 50 82
30 52 85
28 50 80
29 50 82
27 48 79
41 54 77
43 54 75
59 67 83
73 75 83
80 84 92
77 81 90
86 90 98
91 96 104
94 97 104
91 96 102
94 98 105
93 96 103
93 96 102
97 101 107
93 97 104
96 99 106
93 96 101
102 105 111
96 98 104
100 105 111
99 101 107
98 101 107
100 104 109
94 96 101
97 102 109
99 102 107
102 107 114
101 104 108
104 107 111
96 98 103
103 106 111
101 105 110
105 108 113
104 107 113
102 105 111
102 104 109
107 110 117
104 108 114
106 108 113
103 107 112
107 111 117
105 111 117
105 108 113
108 112 118
107 109 115
107 113 120
110 116 121
111 115 120
104 110 116
109 113 118
108 113 118
112 116 121
108 113 120
108 114 119
111 116 122
108 113 120
109 113 118
111 116 122
108 114 120
109 115 121
111 115 121
109 114 121
109 114 120
111 116 120
106 110 116
109 114 120
108 114 122
107 112 117
110 116 121
111 116 122
108 113 120
109 115 121
108 115 120
111 117 123
109 115 121
109 115 122
112 118 124
108 113 120
109 114 120
109 114 121
110 115 121
108 114 121
106 111 118
109 114 120
109 114 120
110 116 121
106 112 119
104 110 116
107 111 116
108 113 119
109 115 121
105 111 117
108 114 120
109 114 121
104 110 115
107 113 119
103 107 115
105 110 116
104 110 116
107 112 120
102 108 113
101 106 111
104 109 114
99 104 109
104 109 116
104 109 114
103 108 114
102 107 113
99 104 110
97 103 108
96 101 107
96 101 107
96 101 107
96 99 104
94 99 105
97 101 106
100 104 110
94 99 104
103 107 113
106 111 116
93 98 103
99 105 110
97 102 107
101 107 113
99 104 110
93 96 102
100 104 110
96 101 108
99 104 110
100 103 110
103 108 114
106 110 116
99 104 111
105 109 115
100 104 110
104 109 114
101 105 111
102 107 114
102 107 115
103 104 110
102 105 112
104 109 116
106 111 117
106 110 117
103 108 115
106 110 117
108 113 119
109 114 121
104 109 115
107 110 118
101 103 109
105 108 115
107 111 117
108 113 120
105 109 116
106 108 116
102 105 112
105 108 114
106 110 117
109 114 122
105 107 115
108 113 120
106 109 116
105 108 115
104 108 115
107 111 119
106 110 118
107 111 117
104 103 114
103 85 106
94 53 88
96 31 85
95 31 84
89 29 77
89 29 79
89 29 80
86 28 74
93 30 81
90 29 80
95 31 83
89 29 78
92 30 79
91 30 80
91 29 81
90 29 79
89 29 79
98 32 86
94 30 82
89 29 80
84 27 72
89 28 79
92 29 81
91 29 79
89 29 80
87 28 76
90 29 80
91 29 82
91 29 82
89 28 79
89 35 84
90 63 92
103 92 109
108 109 117
108 113 120
108 112 118
108 113 120
109 114 122
108 112 121
112 117 123
109 114 120
106 110 117
110 114 122
111 115 123
109 113 120
107 110 118
108 112 119
107 111 118
110 114 122
109 113 121
109 113 120
109 114 121
108 113 121
109 114 122
114 119 125
109 114 122
111 116 124
111 116 123
112 118 125
110 116 122
106 111 119
110 116 123
112 117 124
110 116 123
112 117 124
107 112 122
110 115 122
110 115 123
106 111 119
110 115 124
112 117 124
109 115 122
110 115 122
110 115 123
110 116 123
109 115 122
108 113 125
97 94 131
89 77 137
78 51 143
75 46 137
77 47 141
79 49 146
79 49 147
79 49 147
78 48 142
76 47 141
77 47 142
76 47 141
74 46 137
75 46 141
74 46 135
76 47 141
76 47 142
75 46 138
76 47 141
73 45 137
71 44 132
72 45 137
70 44 136
72 45 140
77 51 141
98 91 139
106 109 125
111 116 123
109 114 121
111 116 123
106 111 119
102 108 114
107 112 120
107 112 118
109 114 120
106 111 118
110 116 122
106 111 117
107 113 119
104 109 116
105 111 117
105 110 117
107 112 119
106 111 117
106 111 117
107 113 119
107 113 119
101 107 113
106 112 118
107 112 118
104 109 115
108 114 121
106 112 118
107 113 120
110 116 122
106 112 118
107 113 119
104 111 116
98 105 109
89 95 98
89 94 97
77 85 81
51 66 43
40 60 15
38 59 8
39 60 8
53 70 44
78 88 79
107 113 118
108 114 120
107 114 120
109 114 122
106 111 117
81 85 90
44 49 49
39 44 44
74 73 103
64 44 134
55 26 133
55 26 136
54 25 130
57 27 139
54 26 132
57 27 137
57 27 139
63 36 148
75 70 139
89 90 152
102 108 158
115 127 165
123 140 166
128 146 171
131 149 172
131 150 174
131 149 173
135 153 177
132 151 175
131 150 173
129 147 171
133 152 176
132 150 174
131 150 174
130 149 174
132 150 175
136 154 178
132 151 174
132 150 174
133 152 175
130 147 169
132 150 173
129 148 172
132 150 175
128 147 171
132 149 172
134 152 176
130 148 171
129 147 169
130 149 173
132 150 173
133 151 175
132 150 175
132 151 174
131 149 172
132 151 175
132 151 175
130 148 172
134 152 176
132 150 173
133 151 174
130 149 172
131 149 172
130 148 172
131 149 173
132 150 173
133 152 175
132 151 176
130 149 172
133 151 174
130 148 171
131 150 174
131 149 172
133 152 173
132 150 174
133 152 177
131 150 173
132 150 174
133 151 174
133 152 176
131 150 173
133 151 175
132 151 174
133 152 176
133 151 174
133 151 175
134 153 177
130 148 171
130 149 171
121 140 156
114 132 145
106 123 128
85 102 100
80 99 88
69 86 66
57 75 43
55 75 36
59 78 38
57 76 37
56 76 39
55 74 41
52 70 43
45 61 41
45 61 42
41 54 44
40 54 45
40 54 47
38 51 47
38 50 46
35 47 46
35 47 46
36 48 47
36 48 47
35 47 47
35 47 47
36 48 48
36 48 47
36 47 47
36 47 47
36 48 48
35 47 46
36 48 47
36 48 48
36 47 47
36 48 48
36 48 47
36 48 48
37 50 48
38 50 47
37 50 47
41 56 47
47 62 47
43 57 45
49 65 44
53 70 44
61 81 45
61 82 42
64 84 41
63 85 40
65 87 41
66 88 41
59 80 37
64 85 40
64 86 40
63 85 40
64 86 40
60 80 38
64 86 40
63 85 40
65 87 41
62 84 39
66 87 41
70 91 51
77 98 74
85 105 92
99 119 117
103 122 126
114 134 146
125 144 163
131 149 172
134 153 176
134 152 175
133 151 176
133 151 174
134 153 177
136 155 180
133 153 177
134 152 175
131 150 173
133 152 176
135 153 176
133 152 176
135 152 175
132 152 176
133 152 175
135 153 177
131 151 174
134 153 178
134 152 176
133 152 174
133 153 177
129 148 171
135 154 178
135 154 178
136 155 178
132 151 174
134 153 176
136 154 178
133 153 175
137 156 179
128 146 170
131 150 173
131 147 166
128 143 162
124 139 153
120 133 141
118 130 139
119 131 139
123 136 143
125 138 146
121 132 140
125 137 145
123 135 143
128 140 149
122 134 142
121 133 141
126 138 148
124 138 147
122 134 143
123 136 144
126 140 148
118 131 139
124 138 146
128 142 150
129 143 150
124 136 143
126 139 147
123 136 145
124 137 146
127 140 147
127 141 149
121 133 141
115 127 135
123 136 144
127 140 149
127 139 147
122 134 142
126 138 146
118 129 136
123 135 144
122 133 141
122 134 142
127 139 148
124 136 144
128 140 149
122 135 143
123 135 143
122 136 145
127 139 148
125 137 147
123 134 141
128 141 150
124 137 147
128 140 150
124 136 144
125 137 145
127 137 147
125 136 146
129 144 152
131 143 152
129 140 149
133 146 155
123 135 143
125 136 146
124 135 144
125 137 146
131 144 153
130 144 153
134 145 155
121 131 143
127 137 147
132 144 154
123 136 145
124 135 144
126 138 147
128 139 149
131 142 150
129 141 151
123 134 143
127 139 146
132 144 153
125 137 147
121 132 141
131 142 152
123 135 146
130 143 155
128 144 159
127 142 160
130 148 168
126 144 166
130 150 170
133 151 174
132 151 175
131 149 170
129 149 170
130 149 172
131 150 173
131 150 173
129 147 169
128 147 170
126 145 166
126 145 165
130 148 169
127 145 168
127 146 169
129 148 170
129 147 170
126 145 167
127 145 168
132 151 173
131 148 171
127 146 165
131 150 174
130 149 171
124 144 164
123 142 162
125 144 164
126 144 165
124 142 164
127 146 168
