P3
1600 1
255
29 52 121
48 66 125
71 87 134
95 112 149
121 138 165
130 146 171
133 150 175
131 149 172
134 150 174
132 150 172
133 151 175
131 149 173
133 151 176
133 152 176
133 151 175
131 150 174
132 149 173
134 153 177
135 152 176
134 152 175
132 150 174
134 153 177
134 152 177
135 152 176
132 149 172
135 153 178
133 150 174
131 150 173
134 153 178
134 152 176
135 154 178
131 148 172
133 150 174
134 152 175
132 150 174
130 148 170
134 153 178
135 153 178
131 149 174
133 150 174
135 151 175
134 153 178
136 154 178
133 152 176
133 150 173
133 150 174
132 150 173
132 152 177
136 154 178
133 151 175
134 152 176
132 151 175
131 149 173
134 153 177
134 151 175
134 152 175
133 151 175
133 152 176
133 150 174
132 150 174
134 152 176
131 149 173
132 150 174
135 153 177
134 152 176
132 151 174
134 153 176
134 153 178
135 152 176
133 151 174
131 150 174
134 153 177
134 153 177
133 151 176
134 152 175
136 154 178
133 151 175
134 152 175
135 152 176
132 151 175
134 152 175
135 153 177
134 152 177
134 152 176
134 152 177
132 152 177
135 153 176
134 152 176
128 146 170
135 153 177
136 154 178
133 151 176
135 153 178
131 150 173
137 156 180
133 151 176
132 151 174
132 149 173
134 152 176
133 152 176
135 153 177
133 151 175
135 153 176
133 150 173
134 152 177
135 153 176
132 151 175
133 151 175
134 152 176
134 153 177
136 154 178
135 153 176
134 152 176
135 153 178
130 147 170
133 152 176
132 151 175
135 153 177
134 152 176
136 155 179
131 150 173
129 148 172
133 151 175
132 152 176
134 151 175
132 151 175
133 151 175
134 151 175
132 151 176
131 149 173
132 149 172
135 153 176
134 152 175
135 153 177
134 153 177
131 148 170
127 144 162
116 129 131
100 111 93
103 114 85
98 108 79
105 115 83
102 112 82
104 113 82
102 111 81
101 112 82
99 110 79
99 108 78
97 107 79
99 109 80
102 113 82
95 105 77
96 106 77
102 113 82
99 110 80
101 112 81
101 112 82
100 111 80
103 114 81
98 109 79
97 107 77
103 114 83
103 115 82
98 109 79
100 111 80
100 112 79
88 103 67
79 97 55
56 81 29
47 77 1
47 76 1
46 76 1
46 76 1
48 78 1
48 78 1
48 78 1
47 78 1
48 79 1
47 76 1
48 78 1
48 78 1
47 77 1
47 77 1
48 78 1
47 77 1
47 77 1
48 78 1
48 78 1
47 77 1
48 78 1
48 78 1
48 79 1
46 76 1
48 78 1
47 78 1
47 77 1
47 77 1
47 78 1
47 76 1
47 77 1
48 78 1
48 78 1
47 78 1
47 77 1
48 78 1
47 77 1
47 77 1
45 76 1
47 78 1
47 77 1
46 76 1
47 76 1
47 77 1
46 76 1
45 74 1
47 77 1
47 76 1
46 76 1
47 77 1
47 77 1
47 78 1
47 76 1
47 77 1
46 76 1
47 76 1
46 75 1
47 76 1
47 77 1
50 78 25
80 102 90
107 127 136
124 142 161
131 149 172
129 147 172
136 155 179
134 151 174
135 154 178
134 152 176
133 150 174
136 154 178
135 153 176
135 154 178
136 154 177
131 149 174
134 152 176
131 148 171
131 149 172
133 151 176
133 152 176
131 149 173
134 152 177
131 150 175
132 151 176
132 150 174
134 151 174
132 151 176
132 149 173
133 152 173
131 150 174
129 148 171
133 152 177
134 153 177
131 149 174
133 151 176
135 153 177
134 152 174
131 149 173
136 154 178
131 150 174
131 149 174
132 150 175
132 151 175
124 139 163
137 143 174
140 141 176
147 144 184
155 154 194
159 159 203
164 165 209
164 166 212
165 167 213
164 166 213
161 165 213
162 165 213
161 165 213
159 164 213
157 163 213
158 164 213
158 163 213
156 163 213
155 162 213
155 162 213
154 162 213
154 161 213
153 161 213
153 161 213
152 161 213
152 161 213
152 160 213
150 160 213
151 160 213
150 160 213
150 160 213
150 160 213
150 160 213
150 160 213
150 160 213
150 160 213
149 159 213
150 160 213
150 160 213
150 160 213
150 160 213
150 160 213
150 160 213
150 160 213
151 160 213
152 161 213
152 160 213
152 161 213
153 161 213
153 161 213
153 161 213
153 161 213
155 162 213
156 162 213
154 161 212
155 162 212
155 161 211
153 159 210
154 160 207
156 161 208
157 162 210
152 157 202
160 163 211
156 159 204
157 158 201
156 156 198
154 154 195
154 154 197
145 146 185
148 147 186
131 130 168
112 114 156
86 96 146
44 69 133
28 59 123
29 63 129
30 60 120
44 71 134
65 86 134
85 105 147
100 118 150
109 127 159
123 141 167
130 150 176
129 147 172
126 144 168
132 150 173
130 148 173
131 148 172
132 151 175
132 151 175
132 150 174
128 146 170
133 151 176
129 148 171
127 146 169
131 150 173
126 144 168
126 144 166
134 152 177
127 145 168
130 149 174
131 150 174
129 147 170
128 146 169
131 150 173
128 148 174
134 152 177
133 151 175
130 148 172
128 147 171
131 148 172
127 144 167
130 148 174
131 150 174
129 147 171
127 147 172
127 146 170
131 149 173
129 147 171
128 146 170
129 149 173
132 151 176
129 147 170
126 143 165
126 144 168
126 144 167
130 147 170
127 145 170
124 141 163
131 149 173
128 146 169
122 138 161
124 141 165
131 149 172
126 144 167
125 143 167
130 148 172
122 140 163
127 145 169
127 144 168
130 147 171
126 145 170
123 142 166
122 143 166
119 140 163
111 138 161
99 130 151
91 124 144
89 126 145
83 120 141
82 118 139
85 123 143
85 123 144
86 124 144
84 122 143
84 123 144
87 127 148
89 128 148
87 126 145
88 126 146
89 128 147
90 130 150
88 128 149
87 126 146
88 128 149
88 127 147
88 128 148
87 126 145
86 124 143
89 129 149
90 129 147
86 127 146
88 128 147
88 128 146
87 127 145
92 132 152
92 134 154
88 128 148
90 131 150
89 128 148
89 128 148
85 126 145
94 135 154
91 131 150
89 128 148
92 131 149
86 127 145
90 129 148
93 133 153
91 132 150
90 130 150
90 129 147
90 130 149
91 130 150
89 129 147
89 127 145
91 130 150
89 129 148
91 131 149
89 128 147
90 129 147
92 132 151
90 129 148
85 124 140
89 128 146
89 128 147
91 132 151
87 124 141
85 122 141
87 125 144
88 127 145
87 125 143
85 120 138
80 113 130
70 101 114
67 93 108
54 71 81
45 49 56
27 28 33
35 33 38
24 16 18
34 32 35
36 35 38
37 36 40
28 23 21
38 32 35
33 31 34
43 41 46
42 45 52
37 36 41
41 41 45
57 60 68
56 59 67
57 62 70
58 63 70
71 76 84
74 81 91
75 82 93
74 81 90
89 98 111
82 89 100
82 89 101
74 80 92
79 85 97
85 92 104
95 103 117
100 111 127
96 106 122
102 113 129
92 102 117
103 115 132
106 117 133
90 100 115
111 124 142
105 117 135
103 114 130
111 125 141
116 131 150
111 126 144
110 124 143
110 123 141
103 118 136
114 130 150
121 137 159
111 123 141
124 140 161
111 125 144
117 130 150
117 130 150
119 135 155
124 140 162
120 134 155
120 135 156
118 134 154
118 133 153
123 139 160
121 136 157
123 139 162
122 137 159
126 143 166
127 143 166
123 140 160
128 146 169
124 141 164
129 146 169
125 141 163
122 137 158
126 142 164
126 143 164
130 147 170
130 146 169
129 146 168
122 139 161
127 144 165
132 149 172
128 143 165
126 144 167
126 143 166
128 145 169
129 146 169
127 145 166
129 147 170
128 145 167
130 147 169
131 149 172
133 150 174
128 147 170
131 148 171
133 150 173
130 147 169
130 148 171
130 147 169
131 149 172
133 150 173
128 146 170
132 150 173
127 143 165
133 152 176
131 149 170
128 144 167
131 148 172
128 145 167
133 152 175
131 149 171
132 150 174
134 152 176
129 147 171
131 149 172
134 153 177
133 150 174
133 149 172
129 147 169
135 153 176
131 149 172
134 152 174
134 153 177
132 150 173
129 146 169
119 117 155
109 96 146
101 65 134
100 40 133
98 39 131
97 39 129
99 39 128
103 41 137
98 39 130
99 39 129
102 41 135
99 39 129
96 38 127
99 39 129
98 39 129
104 41 137
101 40 133
100 39 130
99 39 131
101 40 135
97 38 127
100 40 132
96 38 128
100 40 132
94 37 123
96 38 128
98 39 129
97 38 128
96 38 126
101 39 128
99 39 129
93 37 122
98 39 131
96 38 127
97 39 129
99 39 131
98 38 127
94 37 121
94 37 124
92 37 121
100 39 130
93 37 121
92 36 120
96 38 126
96 37 124
99 39 130
99 39 130
95 38 126
95 37 123
96 38 128
94 37 122
98 38 128
96 38 124
93 37 122
97 38 128
97 38 127
96 38 126
93 37 121
96 37 123
98 38 128
95 37 124
98 38 128
100 39 128
87 34 113
92 36 119
95 37 124
96 37 123
94 37 123
94 36 120
94 37 123
91 36 120
97 38 128
94 37 122
96 37 126
93 37 122
97 38 126
92 36 121
91 35 118
94 37 122
98 38 126
88 35 116
95 37 123
92 36 121
91 36 119
92 41 117
79 67 98
75 106 79
69 122 67
68 126 62
72 136 66
73 138 65
80 155 73
79 152 72
77 143 68
77 143 67
78 152 70
73 142 66
82 159 74
80 155 72
82 161 73
81 160 74
81 159 73
82 161 74
85 165 76
84 164 75
82 163 75
88 174 80
81 155 71
81 159 73
82 159 73
84 164 75
82 160 73
83 164 75
82 160 73
84 161 73
82 162 74
81 159 72
83 164 75
83 164 76
81 162 74
85 167 76
83 164 75
80 157 71
85 167 77
85 167 77
83 162 74
78 152 70
80 157 72
81 159 73
83 164 75
81 160 73
81 161 73
83 163 74
87 167 79
91 155 103
96 139 117
113 142 148
119 141 163
120 138 163
117 133 156
121 140 167
121 140 165
120 138 164
122 140 165
123 143 169
118 136 160
119 138 163
121 140 165
118 136 161
123 142 168
121 140 166
122 142 167
116 135 159
117 136 161
118 137 160
118 135 160
122 142 167
122 142 167
122 141 167
119 136 162
123 138 168
118 127 155
122 120 152
122 114 150
126 111 149
125 103 143
124 102 142
123 102 140
123 102 140
123 102 140
123 99 137
128 105 146
124 102 140
126 104 142
127 104 142
122 99 137
123 98 136
124 103 142
123 102 139
125 102 140
124 102 139
121 99 138
127 102 141
122 102 139
121 101 138
123 100 137
119 98 131
105 103 115
69 81 71
85 88 92
105 110 116
109 114 120
110 116 121
109 114 120
109 113 120
108 115 122
112 117 124
107 112 118
108 114 120
108 113 119
110 116 121
105 109 114
70 72 101
28 20 83
26 16 85
26 16 86
26 16 84
25 16 82
26 16 86
26 16 83
27 17 87
27 16 86
26 16 84
26 17 86
27 17 88
26 16 85
26 16 84
27 17 86
27 17 87
28 20 85
44 41 90
76 79 101
103 108 118
107 110 115
109 112 118
109 114 118
107 111 117
107 113 119
106 111 118
107 113 119
105 109 115
106 111 117
107 111 118
104 110 116
107 112 118
107 113 118
107 111 117
107 112 118
108 114 120
110 114 121
106 111 116
103 108 113
105 111 117
107 113 119
105 110 115
105 109 116
109 114 120
107 113 118
107 113 118
110 116 122
107 113 119
106 112 117
108 113 119
103 109 114
105 111 116
107 111 118
104 111 116
109 115 122
104 109 114
108 114 118
107 112 117
104 110 115
107 113 118
102 108 113
108 113 119
106 111 118
104 110 116
103 109 115
103 108 111
107 112 118
101 108 111
102 108 113
102 108 113
105 111 116
100 107 110
104 110 114
99 110 107
92 111 100
82 109 88
78 106 81
76 104 82
56 77 67
39 50 54
54 67 60
72 83 68
84 97 73
88 102 75
63 74 53
58 69 49
62 77 53
60 73 50
60 73 49
59 73 50
58 72 49
59 74 49
62 77 54
59 74 54
76 99 71
79 109 76
66 97 59
70 107 58
71 103 63
76 105 75
80 109 81
78 106 81
81 110 83
80 110 83
80 110 84
76 106 80
81 111 84
80 110 83
81 113 84
78 105 81
86 106 93
97 109 105
100 108 109
102 111 110
100 108 110
99 108 108
98 108 109
97 106 108
102 110 112
101 112 111
101 110 111
104 111 115
103 112 114
106 113 116
101 109 112
103 112 115
103 110 114
101 107 113
98 106 109
103 110 115
101 109 112
100 106 111
104 110 115
103 110 115
103 110 114
100 108 113
105 111 116
102 108 114
104 111 115
104 110 117
105 111 117
98 104 109
103 109 115
107 112 117
104 110 116
101 107 113
101 107 113
102 109 115
101 108 111
101 107 111
105 111 117
102 109 115
106 111 117
103 109 114
101 107 113
103 110 116
103 109 115
101 107 112
102 108 115
98 103 110
104 109 116
104 110 115
103 108 113
102 108 113
106 111 117
104 109 116
104 110 116
105 111 117
104 110 114
105 110 117
105 110 116
103 108 115
103 108 113
104 109 115
105 111 117
105 111 116
103 109 115
106 111 117
107 112 118
104 109 115
105 110 117
108 113 119
106 111 117
104 110 116
107 112 117
105 111 117
108 114 120
106 111 118
102 108 114
106 112 118
109 113 118
104 109 115
109 114 120
108 114 120
109 114 121
110 115 121
109 114 118
106 111 116
106 111 118
108 112 117
110 115 120
107 113 118
107 113 119
107 113 119
105 110 115
106 112 118
109 115 122
107 113 119
105 110 115
107 111 117
107 113 119
107 113 118
108 113 119
107 112 118
107 112 118
104 109 115
106 111 116
108 114 119
110 114 120
108 113 119
107 113 118
110 116 120
108 113 119
109 115 120
108 114 120
110 115 121
108 114 120
110 115 122
109 115 122
109 114 120
109 114 120
111 117 123
112 117 124
109 114 120
111 116 123
107 112 116
107 113 119
110 115 120
109 115 121
110 115 120
111 117 124
111 116 122
108 113 118
108 113 118
109 114 119
107 112 119
106 113 118
107 113 118
112 118 125
110 114 119
108 112 118
108 113 118
110 116 121
110 116 121
109 114 118
111 117 123
110 115 120
110 115 121
108 112 117
109 115 120
109 114 121
109 114 119
106 112 119
108 113 117
109 114 120
106 111 116
108 113 119
109 114 120
109 114 120
111 116 122
107 113 118
108 114 119
108 113 118
109 115 122
108 114 119
109 114 121
110 115 122
108 113 119
108 113 120
106 111 117
109 113 118
108 113 118
107 112 118
108 113 120
109 113 118
109 114 120
109 115 121
109 114 121
109 114 119
108 114 117
110 114 121
108 113 118
110 115 121
108 112 119
106 111 117
106 111 117
106 111 118
109 115 121
106 111 117
107 111 118
107 113 118
107 112 119
108 113 117
105 110 116
107 111 117
107 114 120
106 109 115
103 107 113
104 108 114
109 113 120
106 110 116
106 110 117
104 108 113
101 104 112
102 106 112
100 102 109
100 102 109
102 105 111
104 109 116
101 104 110
101 104 112
106 109 115
103 107 112
107 110 118
98 101 107
102 105 111
101 103 111
100 99 109
95 95 103
95 96 101
93 93 101
92 92 98
90 91 97
92 87 94
89 87 93
93 93 99
87 86 92
91 90 98
88 87 93
86 85 92
82 79 87
81 78 85
82 81 87
80 77 85
90 90 96
85 84 91
83 82 89
91 90 98
87 84 91
92 93 100
85 84 90
91 92 97
88 88 96
96 97 104
97 97 105
100 102 108
97 98 105
98 100 108
97 99 106
99 101 110
97 100 106
102 105 112
103 105 112
102 104 112
101 103 110
104 107 115
104 107 114
101 103 110
102 105 112
102 106 113
103 106 113
105 109 117
103 106 116
103 105 113
105 109 118
104 107 115
106 110 117
107 112 118
104 109 118
104 107 115
105 108 116
100 104 113
102 106 115
104 108 117
105 109 117
105 110 117
106 111 119
105 108 118
97 101 113
101 105 114
103 107 116
100 104 115
93 95 109
101 104 113
94 96 108
93 96 104
95 98 109
93 94 108
88 90 102
86 86 101
92 93 106
75 74 93
66 61 90
64 48 108
58 35 106
57 34 106
58 36 107
56 34 102
60 37 109
56 34 103
56 34 102
58 35 106
61 37 111
61 37 109
56 35 103
55 33 99
53 31 95
50 29 92
55 31 99
52 31 99
51 31 105
51 30 99
53 38 101
69 64 105
87 88 111
103 108 119
99 104 116
105 110 118
103 108 118
102 107 117
102 108 117
104 109 119
104 109 119
105 110 119
94 99 119
76 83 124
59 67 125
51 60 130
52 62 132
51 61 130
53 62 130
50 60 126
52 62 128
54 66 136
52 63 129
51 61 125
51 61 129
50 59 120
53 63 130
51 62 129
52 62 128
51 61 127
52 62 127
52 62 128
51 61 126
50 61 124
54 63 124
91 96 119
101 106 115
106 110 115
106 112 117
106 112 118
107 113 118
99 104 109
102 108 114
97 103 106
107 113 118
103 109 114
104 109 114
104 110 117
96 102 106
100 105 110
70 74 77
41 44 44
52 55 57
80 81 107
71 67 116
41 19 105
44 20 109
44 20 109
50 24 122
44 21 113
46 22 114
47 26 114
58 50 119
70 67 127
92 99 140
88 91 139
104 115 151
116 132 162
121 138 162
119 136 160
121 139 162
125 142 166
129 147 171
122 140 163
127 145 170
120 137 161
123 141 164
125 143 167
121 138 161
122 140 162
126 144 167
127 146 169
127 144 168
126 144 169
131 150 174
122 139 163
126 143 167
125 143 166
128 147 171
121 138 161
125 143 166
129 148 173
127 145 168
125 144 167
123 141 163
127 145 168
124 143 166
126 144 169
126 144 169
129 147 170
125 142 166
123 141 162
123 141 164
122 142 163
126 143 166
123 141 164
124 143 165
122 139 162
117 135 157
123 142 164
121 138 160
129 147 170
122 141 163
125 143 165
123 140 163
121 138 160
125 142 163
125 142 164
122 140 161
123 141 163
127 145 170
127 146 168
117 135 153
122 140 161
123 141 162
122 139 161
121 139 161
121 139 161
119 136 157
114 131 151
110 126 144
95 109 124
68 79 88
43 52 57
29 39 39
31 41 41
31 41 40
32 42 41
31 40 40
31 41 40
32 41 41
29 38 38
31 41 41
31 40 40
31 41 40
32 42 41
33 43 42
31 41 40
32 42 41
32 43 42
31 40 39
32 42 42
31 41 41
32 42 42
31 41 41
32 42 42
33 43 43
33 44 43
34 45 44
34 44 43
33 42 42
33 44 44
32 42 41
33 43 42
32 42 42
33 44 43
32 43 42
32 42 41
33 43 42
34 44 43
34 45 45
31 41 40
31 41 40
33 43 42
33 43 43
34 44 43
34 45 44
33 43 42
32 42 41
33 44 43
33 44 43
33 43 42
34 44 43
34 44 43
33 43 42
34 45 44
34 44 43
33 44 43
33 44 43
34 45 44
35 46 45
34 44 43
32 43 42
34 44 44
33 43 42
34 45 44
35 46 45
35 46 45
34 45 44
32 43 42
34 45 44
33 44 43
34 45 44
34 45 45
34 45 44
35 45 44
33 44 43
34 46 45
35 46 45
33 44 43
34 45 43
41 51 52
74 87 96
100 116 129
107 123 137
115 131 147
113 130 147
114 131 148
113 129 144
119 136 156
123 139 159
119 136 155
111 128 144
115 133 150
123 140 160
118 136 155
123 141 160
116 132 150
115 133 151
123 141 162
122 139 157
123 140 160
124 141 160
124 142 163
124 142 162
119 136 155
127 145 168
125 143 164
126 145 165
129 146 168
130 149 171
123 142 163
125 143 164
124 141 162
128 147 168
126 144 166
126 144 166
125 142 162
116 131 147
116 131 145
110 123 135
107 118 125
100 112 119
103 113 120
109 120 127
107 118 125
109 120 127
107 118 127
105 115 123
112 124 130
108 118 124
111 122 129
106 117 125
112 124 131
112 124 130
111 121 128
110 120 128
115 126 134
110 121 127
111 123 130
107 118 125
113 124 130
102 113 123
114 125 132
102 112 119
108 119 126
107 118 125
107 116 123
112 123 129
110 120 126
112 122 130
109 119 129
108 118 125
112 122 130
108 119 126
112 122 130
106 115 123
113 124 131
106 115 124
109 119 127
111 121 128
114 126 134
112 121 130
109 119 127
110 120 130
116 125 134
110 119 125
115 125 132
111 121 129
111 120 127
108 118 125
111 120 126
111 120 128
115 125 133
109 119 125
104 113 122
116 126 136
111 121 129
113 123 131
111 122 131
113 125 131
116 127 134
110 120 129
114 124 133
107 114 124
115 125 133
108 117 126
108 115 126
109 118 127
112 123 132
111 119 131
113 123 132
114 123 132
112 122 132
116 126 133
110 121 130
113 124 133
120 132 143
116 128 141
121 136 154
130 147 167
131 150 172
134 153 176
135 154 180
134 153 178
131 149 173
133 152 177
133 152 175
134 153 178
134 152 175
131 149 173
134 152 176
135 153 177
135 153 177
135 153 177
132 151 174
134 152 176
134 152 176
136 155 179
134 153 177
133 151 175
130 148 172
130 148 172
135 154 177
134 152 176
134 153 176
135 153 177
132 151 174
133 152 176
133 151 175
134 153 176
133 152 176
132 151 175
133 152 176
