P3
1600 1
255
28 50 114
48 67 126
70 87 132
93 110 146
120 138 164
130 148 172
133 151 176
135 153 177
134 152 176
134 151 174
133 151 175
132 151 175
133 152 176
134 152 176
135 153 178
133 152 177
135 153 176
135 153 178
135 153 177
134 151 175
133 151 174
134 152 177
135 153 177
135 153 177
132 150 174
133 152 176
135 152 176
132 150 175
135 154 178
133 152 176
135 153 177
130 149 173
133 149 174
131 149 172
135 152 175
133 150 175
135 153 177
133 151 175
135 154 179
131 149 172
133 149 173
136 154 179
135 153 177
134 153 177
132 150 173
133 151 175
133 150 174
135 153 177
134 152 177
134 152 176
133 151 175
133 153 177
132 149 174
135 153 177
135 153 177
134 152 176
133 151 175
132 150 175
131 148 172
134 151 174
133 152 177
130 148 172
131 150 173
133 152 176
133 150 174
134 152 176
133 152 174
135 154 179
134 152 176
132 150 174
132 151 174
133 152 177
132 151 175
134 153 177
135 152 176
136 155 179
130 148 172
137 154 178
132 150 174
133 152 176
133 151 175
134 152 177
135 152 175
134 151 175
132 150 175
132 151 176
134 152 177
132 150 174
131 150 173
135 153 178
136 154 177
133 151 176
134 152 177
133 151 175
135 153 176
133 152 176
131 150 174
132 149 173
130 147 172
133 153 176
135 154 178
133 151 175
135 152 176
132 149 173
134 152 177
134 153 176
134 152 176
133 150 174
135 153 176
133 151 175
136 154 177
135 154 177
132 151 175
131 150 173
135 154 177
134 153 177
134 152 177
136 155 180
135 153 177
136 155 179
135 154 178
133 151 175
130 149 172
133 152 176
132 150 173
133 152 176
132 150 174
133 151 174
133 151 176
133 151 175
134 152 175
136 154 177
135 153 177
134 152 174
136 154 178
133 151 174
128 146 163
113 128 132
108 122 112
102 112 84
93 103 74
98 109 80
97 108 78
95 106 77
98 107 78
95 105 77
98 109 80
95 106 77
100 110 80
98 108 79
98 109 79
97 108 78
99 109 79
96 106 77
102 113 82
101 113 82
95 105 77
103 113 82
96 107 78
94 105 76
96 106 77
102 113 82
96 106 75
90 105 69
59 82 34
53 80 23
47 77 1
47 77 1
48 77 1
47 76 1
48 78 1
46 75 1
46 75 1
48 78 1
47 77 1
47 76 1
47 76 1
48 78 1
46 75 1
49 79 1
46 75 1
46 76 1
47 77 1
47 76 1
48 77 1
47 78 1
47 77 1
47 77 1
47 76 1
48 77 1
47 76 1
47 76 1
47 77 1
46 76 1
46 75 1
46 76 1
46 76 1
47 77 1
46 75 1
46 76 1
47 76 1
47 76 1
47 77 1
47 77 1
46 76 1
45 74 1
46 76 1
46 76 1
47 77 1
46 75 1
46 76 1
46 76 1
46 75 1
45 74 1
46 75 1
46 75 1
46 76 1
46 75 1
46 75 1
47 77 1
47 76 1
43 72 1
46 75 1
46 75 1
47 76 1
47 76 1
48 78 1
46 76 1
47 76 1
46 74 1
46 75 1
48 76 25
82 103 94
97 117 122
130 149 170
129 148 171
134 152 176
132 150 173
134 152 176
135 153 176
132 151 175
133 152 176
131 148 171
134 152 176
131 149 173
131 150 173
130 148 173
134 152 176
133 152 176
130 149 174
129 148 172
133 151 174
134 152 176
132 150 175
130 148 170
129 148 173
131 149 173
130 150 175
133 152 176
133 151 176
131 150 175
134 152 176
134 151 174
130 148 172
133 151 174
132 150 175
133 151 176
132 150 174
130 149 175
128 146 169
129 140 168
139 142 174
136 135 171
148 147 186
150 150 190
156 157 199
165 165 209
162 163 208
165 167 213
164 166 213
164 166 213
162 166 213
160 165 213
160 165 213
161 165 213
158 164 213
158 163 213
158 163 213
156 163 213
156 162 213
155 162 213
155 162 213
154 162 213
154 161 213
153 161 213
152 161 213
152 161 213
152 161 213
151 160 213
151 160 213
151 160 213
151 160 213
151 160 213
150 160 213
150 160 213
150 160 213
150 160 213
150 160 213
150 160 213
150 160 213
150 160 213
150 160 213
151 160 213
151 160 213
151 160 213
151 160 213
151 160 213
152 161 213
151 160 213
152 161 213
152 161 213
154 162 213
154 162 213
154 162 213
155 162 213
154 161 213
156 163 213
157 163 213
156 163 213
155 161 211
157 162 212
156 162 212
156 161 209
156 160 207
162 164 210
159 162 207
159 162 208
160 163 208
164 165 210
159 160 204
157 158 200
155 156 198
149 148 187
139 140 178
144 143 182
120 122 160
85 92 137
72 88 134
79 96 134
89 108 148
104 122 157
112 131 159
126 143 168
127 144 168
131 150 174
131 150 174
132 151 176
128 147 171
125 144 169
128 146 170
125 144 169
131 149 173
128 147 171
129 148 172
130 148 172
127 145 169
131 150 175
129 147 170
126 144 168
129 147 171
128 144 168
125 145 169
128 147 171
125 145 170
132 152 177
129 147 171
131 150 173
130 148 172
128 147 171
129 148 173
133 152 176
129 148 172
129 147 172
127 146 171
129 147 170
126 144 168
128 147 172
131 149 174
128 147 170
126 145 169
127 146 171
129 149 173
130 149 173
128 146 170
131 150 174
125 145 168
126 144 167
131 149 173
127 146 170
126 146 170
127 145 169
128 147 170
122 139 162
130 149 173
127 145 168
116 133 156
123 141 164
127 145 168
125 143 166
127 145 170
130 149 173
123 140 164
123 141 165
125 143 168
127 146 170
121 138 161
126 144 168
121 138 160
116 136 159
118 138 162
108 135 157
97 127 149
93 125 143
89 123 144
88 128 150
84 123 144
86 125 145
84 120 140
84 123 142
83 122 142
83 122 141
84 124 143
85 125 144
84 122 141
84 124 144
85 123 144
84 123 143
82 123 142
86 125 143
88 130 150
84 123 141
84 122 141
87 126 145
87 126 146
86 124 143
84 124 143
87 127 144
85 124 141
88 128 146
85 124 143
85 124 142
83 121 139
87 126 145
83 124 141
88 128 147
89 128 147
86 124 142
85 126 142
85 124 142
87 126 145
87 126 146
87 127 146
89 128 147
88 127 145
86 124 143
86 126 145
88 128 146
89 127 146
87 128 146
86 124 143
85 124 142
85 123 141
89 128 146
87 127 144
86 125 143
90 130 148
83 121 139
86 125 143
88 126 145
84 122 139
86 125 143
88 129 147
85 123 140
83 120 138
85 119 136
84 110 127
79 102 117
71 88 102
74 84 97
72 80 91
66 73 84
67 74 84
70 77 89
70 78 88
74 84 97
71 79 89
68 76 87
61 68 77
70 79 89
73 82 94
76 86 96
70 78 89
82 90 103
71 78 89
72 79 90
72 80 92
89 100 114
77 85 98
94 104 119
92 103 118
87 97 110
95 107 121
95 106 121
89 100 114
95 107 123
100 112 127
105 119 137
107 119 135
102 113 129
94 104 119
109 121 139
106 118 136
99 111 127
106 120 138
97 108 124
105 118 136
112 126 145
114 128 147
111 125 144
113 127 146
119 134 154
114 128 148
118 134 155
121 137 159
117 133 154
115 130 150
122 137 157
120 135 154
118 133 153
115 131 150
121 137 158
118 133 154
121 136 157
116 130 149
118 132 152
123 139 160
122 139 160
123 140 162
127 145 168
125 142 164
123 140 162
119 134 153
127 144 167
130 147 170
128 145 169
121 137 159
130 146 168
126 144 167
128 145 168
129 146 169
131 149 172
126 143 165
125 141 163
124 140 162
129 147 169
124 139 159
129 147 169
130 146 168
127 143 165
126 143 166
132 150 173
128 146 169
132 149 173
133 150 173
134 152 176
123 140 163
131 149 173
129 147 169
129 145 167
130 147 169
131 148 171
128 146 168
135 153 177
132 150 173
135 153 177
130 148 172
131 147 169
132 148 170
134 151 174
133 150 173
132 150 174
130 148 171
130 148 171
131 150 172
130 147 170
131 148 171
133 151 174
134 152 176
134 152 175
131 149 173
129 147 170
133 151 174
129 146 169
134 150 174
132 152 175
132 149 171
132 151 175
133 151 174
132 150 173
131 148 171
127 138 166
120 112 156
104 82 136
96 51 126
98 38 128
101 40 133
98 39 129
96 38 126
94 37 125
98 39 129
99 39 132
98 39 130
93 37 121
98 39 130
98 39 130
98 39 128
94 37 124
97 39 129
97 38 128
96 38 126
94 37 125
101 40 132
100 39 131
96 38 126
95 37 123
100 40 132
91 36 120
99 39 129
98 39 130
96 38 125
95 38 127
97 39 128
92 36 120
100 39 132
99 39 128
99 39 130
90 36 120
97 38 127
95 37 123
91 36 118
99 38 126
93 37 124
97 38 127
97 39 128
95 37 123
95 38 127
92 36 121
95 37 123
93 37 121
97 38 128
97 38 126
97 38 125
96 38 128
96 38 125
92 36 118
96 37 124
89 35 117
93 36 120
96 38 126
98 38 127
87 34 114
92 36 119
94 37 123
94 37 122
94 37 122
96 38 126
90 35 118
89 35 115
90 35 117
95 37 123
93 36 122
93 36 120
90 35 118
95 37 121
97 37 124
91 35 119
90 36 118
96 38 127
92 36 119
92 36 119
93 37 123
92 36 118
90 36 118
91 38 121
92 37 119
88 38 117
84 65 107
72 70 84
71 103 75
66 117 63
71 127 62
73 140 66
78 147 70
83 158 74
75 144 67
77 149 69
80 153 71
81 155 73
74 145 68
80 155 72
83 158 73
74 142 66
81 157 72
77 151 70
81 158 72
78 154 71
81 157 72
82 160 73
81 158 72
81 161 74
84 166 75
79 153 71
79 156 71
80 158 73
80 156 71
82 163 75
81 160 73
81 158 73
83 162 74
85 171 78
82 160 73
82 163 74
81 159 73
81 160 73
80 157 72
77 152 69
81 159 72
82 160 73
83 162 74
82 160 72
80 159 73
83 162 74
85 165 74
78 154 70
84 157 82
98 159 113
112 152 142
117 148 154
121 141 164
123 144 169
127 147 171
127 148 174
120 140 164
124 142 167
124 143 169
126 146 171
128 149 175
121 140 165
123 142 168
126 146 172
125 146 173
123 143 169
123 143 170
123 144 168
124 142 167
125 145 171
124 144 171
124 143 170
127 148 175
124 143 170
124 143 169
121 141 166
122 139 165
123 138 167
125 133 163
123 124 156
124 114 148
125 108 145
121 99 137
122 101 139
117 95 132
115 94 130
118 94 132
121 96 135
118 96 133
121 98 134
121 99 137
117 96 132
121 99 138
122 101 138
119 97 133
118 96 132
122 100 137
119 97 134
122 103 139
121 97 136
126 103 142
121 100 137
121 98 134
116 101 128
93 98 101
91 96 100
107 111 118
111 116 122
110 114 120
110 115 122
111 117 123
108 113 120
108 114 120
108 114 118
109 115 117
109 115 120
109 115 121
97 102 110
45 44 85
25 15 80
26 16 82
25 16 81
25 15 79
25 15 79
25 16 83
25 15 80
25 16 81
25 16 81
27 17 86
26 16 82
26 16 85
25 16 81
26 16 82
26 16 84
25 16 83
26 16 84
26 17 86
32 26 84
70 72 97
89 92 106
103 108 116
104 109 114
107 112 119
110 115 121
107 112 118
109 114 119
108 112 118
109 115 121
104 109 115
107 112 117
110 115 122
106 110 116
108 114 120
108 113 119
106 111 117
108 114 120
106 112 118
107 111 117
104 109 116
105 110 115
104 110 115
106 111 117
105 109 115
106 111 117
105 109 115
106 112 118
107 113 119
104 110 116
105 110 115
103 109 115
101 106 112
108 113 118
105 110 115
101 107 111
106 112 118
103 107 112
103 109 114
107 113 117
106 112 119
105 110 114
103 109 113
106 111 114
107 113 118
102 108 112
102 108 113
107 113 119
105 112 117
103 110 112
106 111 115
96 103 106
100 107 110
103 110 114
105 113 116
96 109 105
87 109 94
82 109 88
75 102 78
74 101 78
67 90 71
64 87 67
69 93 71
67 88 66
67 89 66
67 87 64
60 78 58
61 79 57
50 64 46
56 71 50
57 72 51
50 64 46
58 75 55
65 85 61
66 86 62
70 93 69
73 98 73
74 99 72
73 99 73
78 106 80
82 111 84
76 105 79
78 108 82
76 104 79
80 111 83
79 111 83
79 109 82
80 112 83
76 107 78
75 105 79
84 102 90
90 101 97
92 103 102
95 104 103
97 105 105
95 104 104
98 108 108
99 106 106
94 103 103
98 107 109
101 108 111
104 111 114
101 108 111
97 104 106
104 110 115
97 105 108
102 109 113
104 112 116
102 109 113
103 109 112
101 108 111
105 111 117
105 111 116
105 112 117
106 113 117
102 109 113
99 106 110
104 110 115
102 109 113
103 110 115
103 108 114
106 112 117
103 110 116
104 111 116
104 110 115
100 107 112
105 111 116
104 112 116
104 109 116
105 111 117
98 102 108
105 111 117
104 109 115
104 110 116
103 108 113
98 103 109
105 111 117
103 107 112
104 109 115
104 109 115
105 111 118
105 110 116
100 104 110
107 114 120
109 114 119
106 113 118
103 109 115
101 106 110
106 111 118
101 107 112
106 112 118
106 111 117
104 110 116
104 110 116
102 107 113
103 109 115
108 115 120
106 111 117
105 111 116
106 111 118
107 113 119
106 111 117
108 112 118
104 110 115
106 112 118
106 113 118
107 112 117
108 113 119
107 112 117
106 111 117
107 113 119
108 113 118
106 112 117
104 109 114
106 111 117
110 115 122
106 111 118
106 112 118
107 113 118
111 116 121
107 112 118
110 115 121
107 113 119
111 116 122
109 115 120
110 116 122
109 115 120
109 115 120
106 112 117
109 114 120
109 114 120
108 113 119
106 111 116
110 115 120
106 111 116
109 115 121
108 114 120
107 112 118
106 111 116
108 114 119
105 110 114
109 114 120
106 112 118
107 113 117
107 111 117
104 109 113
107 112 117
107 112 117
109 114 120
111 116 122
108 114 118
110 115 120
111 115 121
107 113 119
106 112 116
110 115 121
108 113 120
109 115 122
110 115 121
111 116 122
111 117 122
110 116 122
109 114 119
108 115 121
106 112 118
109 114 120
109 115 120
109 115 122
107 112 116
112 117 124
109 114 120
108 114 120
107 112 116
110 115 120
107 113 119
107 113 120
111 117 121
109 113 120
112 117 123
109 114 118
108 113 118
108 113 118
108 114 119
109 114 119
108 112 119
110 115 120
109 115 120
109 115 119
109 115 121
110 115 121
108 112 118
107 112 117
107 114 119
106 111 116
109 114 118
107 112 117
107 112 118
107 112 119
110 115 121
110 115 121
107 112 118
109 114 119
108 113 119
110 115 120
106 111 116
111 116 122
108 114 120
110 116 122
105 111 117
107 111 116
105 110 116
109 115 120
108 113 120
106 111 116
106 111 117
106 111 116
110 114 120
106 110 116
106 111 117
105 109 115
105 111 115
106 112 117
106 110 116
103 107 114
106 112 117
105 110 117
107 112 119
107 112 119
106 110 116
109 114 121
106 111 117
105 109 114
109 114 121
106 110 116
105 108 115
107 111 118
103 107 112
101 104 110
108 111 118
103 106 113
105 107 114
102 105 113
99 102 109
101 104 111
99 100 108
96 98 103
101 105 111
99 101 108
101 106 112
97 98 106
101 104 110
101 103 110
96 96 103
97 100 105
100 102 109
93 92 101
95 96 103
96 97 104
93 94 101
94 95 101
91 92 100
99 100 106
89 89 96
92 91 99
96 98 104
91 91 97
94 96 101
98 99 105
95 98 104
93 95 104
91 91 100
92 93 102
97 97 105
101 103 110
101 104 111
100 103 111
98 100 108
101 105 111
105 108 114
102 105 110
98 101 110
97 100 107
101 104 111
102 104 111
105 109 116
109 113 121
101 105 112
103 106 114
103 107 115
99 102 111
101 105 110
106 109 117
103 107 115
107 111 116
105 109 117
105 108 116
103 106 115
106 110 116
106 110 117
105 109 117
101 102 111
102 106 114
104 109 119
102 104 114
102 107 115
99 101 110
98 100 109
103 107 118
98 101 111
98 101 112
101 104 114
101 104 114
94 97 109
91 94 105
90 91 104
91 94 104
92 94 107
85 85 101
85 85 99
78 77 93
70 68 89
75 75 89
68 63 88
66 56 96
51 31 97
53 33 97
56 34 103
53 32 98
56 34 103
55 33 102
56 34 101
54 32 96
52 31 96
51 30 93
55 33 101
54 33 101
49 30 99
49 30 93
50 30 99
52 37 96
72 66 107
79 78 100
89 89 105
95 97 111
103 107 117
100 104 115
96 100 112
96 100 112
101 106 118
103 108 117
106 112 121
104 109 121
96 101 116
81 88 120
51 59 118
47 56 124
49 58 128
47 56 122
52 62 131
49 59 126
52 62 128
50 59 121
52 63 130
52 63 130
51 60 122
52 62 128
51 62 128
50 59 122
50 59 124
50 60 121
50 59 122
51 62 129
49 57 118
51 61 125
51 60 123
62 70 122
90 96 121
109 114 122
110 116 123
107 112 118
105 111 118
105 110 117
106 111 117
102 108 114
104 110 115
104 109 114
105 110 116
106 112 118
107 112 118
103 108 113
89 94 99
65 69 72
36 39 40
79 83 91
80 81 115
54 42 120
43 21 108
46 21 115
45 21 112
48 23 119
42 20 106
63 57 119
73 72 127
82 87 132
93 100 143
102 113 146
110 122 155
112 126 153
124 141 167
120 137 161
122 140 165
124 142 164
128 146 171
129 147 170
126 144 167
128 146 170
126 143 166
128 145 169
124 140 165
132 149 174
130 148 173
125 143 169
129 146 170
128 147 171
126 142 166
124 141 164
121 139 163
124 143 168
129 147 171
128 145 170
125 143 168
126 144 171
126 144 167
128 146 169
125 142 166
127 145 171
128 146 169
130 149 173
131 150 174
129 147 170
125 142 167
127 146 169
129 147 171
127 145 167
127 146 169
126 144 168
128 146 170
121 138 161
127 146 168
128 147 171
123 142 164
126 145 167
126 144 166
127 146 170
127 145 170
127 145 169
122 140 165
128 147 170
128 146 170
124 142 164
121 140 163
128 146 169
122 140 162
124 142 165
124 142 164
122 139 163
125 143 165
121 138 160
122 139 161
129 148 171
125 143 165
108 125 144
94 109 124
63 75 84
32 42 41
30 39 39
30 40 40
31 41 40
32 42 41
30 40 39
32 41 41
31 40 40
30 40 39
31 41 41
31 40 40
30 39 39
32 42 41
30 40 39
33 43 42
32 42 41
32 42 42
31 41 40
31 42 41
33 43 42
31 41 41
33 44 43
33 43 42
31 40 39
31 40 40
31 41 41
32 42 41
32 42 41
34 45 44
33 43 42
32 42 41
33 43 42
32 41 40
33 43 42
32 42 41
33 43 42
32 42 41
33 43 42
33 43 43
33 44 43
35 45 44
32 42 42
33 44 43
33 43 43
33 44 43
33 43 43
33 43 43
34 44 43
33 43 42
33 44 43
32 43 42
34 44 43
34 44 44
32 42 40
32 43 42
33 43 43
33 43 42
33 44 43
33 43 41
33 44 43
33 43 42
33 44 43
33 44 43
34 45 43
33 44 43
34 45 43
33 43 42
33 43 43
34 45 44
35 46 44
34 44 43
33 44 43
33 44 43
34 45 44
34 45 44
32 43 42
34 44 43
33 44 43
34 45 44
34 45 44
32 43 42
58 69 76
79 92 103
111 127 146
121 138 158
120 137 157
119 137 157
125 143 164
122 140 160
125 143 163
124 141 162
121 139 158
123 141 163
128 146 167
125 143 164
122 140 161
123 140 159
124 142 162
123 140 161
124 141 162
121 139 160
119 136 155
121 139 157
129 148 170
127 145 167
125 143 166
122 140 159
124 143 163
126 145 166
130 148 170
127 146 168
129 147 169
126 144 165
127 145 166
126 145 165
130 148 170
123 141 162
124 140 159
116 132 149
103 117 128
114 127 137
97 108 114
108 120 127
103 114 119
109 120 127
105 116 123
106 116 122
102 112 120
104 117 123
104 115 122
106 117 125
102 112 120
105 114 121
105 115 124
107 117 125
106 117 125
111 122 129
106 118 125
109 119 127
106 117 124
110 121 126
113 124 131
103 113 120
109 121 128
109 119 126
107 117 125
105 115 123
113 124 131
113 124 130
108 119 125
109 121 127
108 119 125
110 121 128
110 120 127
106 117 125
106 115 123
110 121 128
113 122 132
108 117 125
109 120 127
110 121 128
112 123 130
106 115 123
106 116 124
111 122 130
105 115 123
106 114 123
107 118 125
109 119 128
112 121 129
106 115 124
105 114 124
107 118 126
104 115 123
109 119 127
108 117 125
112 119 130
103 114 122
112 120 129
107 116 125
117 126 134
109 118 125
108 118 127
108 116 126
106 115 124
107 118 125
113 122 131
111 121 131
107 116 124
112 122 130
111 121 128
110 121 126
107 120 125
104 118 121
103 119 119
111 130 135
117 138 144
118 138 146
118 142 150
124 147 158
120 143 151
116 140 144
126 147 160
122 144 156
127 148 163
132 151 171
128 149 168
132 151 175
132 151 174
134 153 177
135 154 179
133 151 175
134 153 177
135 153 176
135 154 178
131 150 173
135 154 178
134 152 176
133 152 175
133 153 176
135 153 178
134 152 177
132 151 175
134 153 177
134 152 176
135 154 179
134 152 176
133 151 174
136 155 179
136 154 178
133 151 174
136 155 178
