P3
1600 1
255
29 52 119
51 68 123
73 88 135
89 107 142
125 143 169
131 148 171
133 152 176
133 151 175
134 151 176
131 150 173
134 151 176
133 151 176
135 153 178
135 153 178
134 153 177
133 152 177
135 151 175
134 153 177
136 154 178
133 150 174
135 153 177
134 152 176
134 152 177
134 153 177
131 149 173
134 153 177
133 150 174
134 152 177
134 152 176
134 151 175
135 153 177
132 150 174
135 152 176
134 152 176
135 151 174
132 150 174
135 153 177
131 149 173
134 152 176
133 151 175
134 151 175
136 154 179
134 152 176
136 154 179
133 151 175
134 152 176
134 151 176
134 152 177
135 154 178
135 153 176
134 153 178
134 152 176
132 150 174
135 153 177
137 155 178
134 153 177
130 148 172
132 150 175
134 150 175
134 152 175
137 156 180
133 151 175
131 150 174
132 150 174
137 155 179
136 154 179
134 152 175
131 149 173
134 152 175
135 153 178
131 150 173
134 152 177
133 151 174
133 152 176
136 154 178
133 152 175
133 151 174
133 151 175
132 150 173
132 151 176
134 152 176
135 153 178
132 149 173
134 153 178
135 152 175
132 151 177
132 151 174
135 154 178
132 149 172
133 151 175
136 155 178
134 153 179
133 151 176
135 153 177
131 149 172
131 149 173
132 152 176
132 151 174
133 150 174
131 149 173
135 153 178
134 152 177
135 153 177
131 148 171
133 151 176
135 153 177
134 153 176
134 152 176
133 151 174
132 151 174
135 153 177
135 154 178
136 153 177
132 151 175
134 152 175
135 153 178
133 152 176
132 151 175
135 153 177
137 155 179
136 154 178
131 149 172
131 149 173
132 150 174
133 151 176
136 154 178
131 149 172
133 152 176
131 149 173
133 151 175
131 149 172
133 152 176
133 150 173
129 146 170
134 152 177
134 153 176
131 149 170
114 129 133
110 124 119
101 112 85
94 105 76
94 105 77
97 107 78
97 107 77
97 107 78
102 112 81
94 104 76
96 106 77
99 109 79
98 108 78
98 108 79
99 109 79
100 111 81
91 101 74
99 110 80
95 107 77
101 112 82
96 106 77
92 102 74
94 104 75
98 108 78
88 101 68
65 83 42
51 77 19
48 77 1
47 77 1
47 76 1
48 78 1
46 75 1
47 76 1
47 77 1
45 74 1
46 75 1
45 73 1
47 77 1
46 75 1
48 77 1
46 75 1
47 76 1
46 75 1
47 76 1
47 77 1
47 76 1
47 76 1
47 77 1
48 78 1
47 77 1
47 77 1
46 75 1
47 75 1
46 75 1
46 76 1
47 78 1
45 74 1
46 76 1
46 75 1
46 75 1
46 75 1
46 76 1
47 77 1
46 75 1
48 78 1
46 76 1
46 76 1
47 76 1
46 75 1
46 76 1
47 76 1
46 75 1
45 74 1
48 78 1
46 76 1
46 75 1
46 74 1
46 75 1
46 76 1
46 76 1
46 76 1
47 77 1
46 75 1
45 73 1
46 74 1
45 74 1
46 74 1
45 74 1
46 75 1
46 75 1
46 75 1
45 73 1
46 74 1
43 71 1
45 73 1
44 72 1
49 75 31
74 94 81
103 121 130
130 149 171
133 151 176
135 153 178
134 152 176
134 152 175
131 149 172
136 154 179
129 147 171
131 148 173
133 152 176
132 151 177
132 151 175
129 147 172
132 150 174
132 150 175
133 150 174
131 149 172
132 151 175
128 147 171
132 151 176
133 151 176
132 151 176
132 151 176
131 149 172
133 151 176
133 152 176
133 151 175
131 149 174
134 152 177
132 150 175
130 149 174
131 148 172
133 150 176
130 137 167
135 136 171
136 134 172
143 142 181
149 149 192
154 153 193
159 161 205
162 164 209
162 164 208
164 166 212
162 165 212
161 165 212
163 166 213
161 165 213
160 165 213
160 164 213
158 164 213
158 164 213
156 163 213
157 163 213
155 162 213
155 162 213
155 162 213
155 162 213
153 161 213
153 161 213
153 161 213
153 161 213
153 161 213
152 161 213
153 161 213
152 161 213
151 160 213
152 161 213
151 160 213
151 160 213
150 160 213
151 160 213
151 160 213
150 160 213
151 160 213
151 160 213
152 160 213
152 160 213
151 160 213
152 161 213
152 161 213
152 161 213
152 161 213
153 161 213
153 161 213
153 161 213
154 161 213
154 162 213
155 162 213
156 162 213
155 162 213
156 162 213
157 163 213
157 163 213
157 163 213
156 161 210
156 161 209
159 163 211
158 162 210
158 162 210
159 163 210
160 163 209
160 163 209
162 163 208
161 164 210
161 162 205
157 158 202
151 150 190
150 151 191
136 136 174
128 128 165
126 127 165
115 121 155
114 125 157
120 138 165
117 134 161
125 142 167
127 144 168
128 145 168
126 144 168
128 147 172
130 148 173
120 139 163
126 144 169
121 139 164
130 149 174
128 146 171
129 148 173
128 146 171
125 143 168
130 149 174
126 143 167
125 143 168
126 144 168
129 146 170
124 143 167
125 144 168
125 145 171
127 145 169
130 148 171
126 144 169
128 147 172
127 145 170
127 146 172
131 149 173
127 146 170
126 145 171
129 147 172
125 142 165
131 150 175
127 147 171
128 146 170
124 143 169
129 148 173
126 145 170
126 144 168
126 143 167
130 149 173
125 143 167
127 146 171
129 146 169
128 147 172
126 145 170
128 147 171
122 139 163
123 141 165
127 145 170
127 146 170
119 136 160
124 142 166
127 145 168
127 144 169
125 144 169
130 149 173
125 144 167
122 140 163
125 143 167
122 141 164
121 138 160
124 143 168
124 142 165
124 142 164
126 143 166
128 147 172
119 138 161
114 136 158
100 124 146
96 122 141
95 127 148
92 127 146
85 123 142
81 119 138
81 117 137
87 126 145
85 124 143
82 120 139
85 124 143
86 125 143
84 123 142
85 124 143
82 121 140
84 122 141
86 124 143
80 120 139
85 124 142
78 116 134
85 124 143
86 126 145
82 120 138
84 124 142
82 121 138
83 124 142
83 122 140
85 124 143
85 123 140
86 125 143
85 124 143
84 124 141
86 125 143
84 123 142
84 123 140
85 125 143
86 124 142
84 121 140
84 123 142
86 125 143
83 123 141
83 122 140
85 123 141
85 125 143
86 125 142
83 122 140
86 125 142
81 120 136
82 120 138
87 126 143
78 116 132
88 127 145
86 124 142
81 121 137
85 123 140
83 120 138
84 121 139
85 123 141
80 117 134
80 117 135
84 121 139
84 118 134
90 120 137
85 113 130
87 107 122
85 103 119
89 104 119
99 112 128
98 110 127
88 99 114
92 105 123
93 107 122
87 98 112
94 106 122
95 108 125
83 92 106
95 107 123
97 107 122
93 104 118
100 112 127
100 112 129
94 105 122
98 110 125
103 114 132
96 109 125
96 107 125
96 109 125
99 112 127
105 119 137
104 118 137
103 116 134
104 118 137
101 114 132
103 116 133
110 125 143
106 119 137
108 122 139
112 127 146
109 123 142
110 124 143
110 126 144
114 128 147
112 127 147
112 126 146
116 131 150
117 131 150
120 135 157
114 128 149
116 132 152
122 137 158
119 135 157
119 135 154
115 130 151
118 135 156
117 133 153
120 138 159
122 138 159
117 132 154
117 132 152
123 140 162
121 136 157
128 145 167
121 138 160
123 140 161
123 140 160
125 142 164
117 132 153
123 140 161
130 146 169
125 141 163
123 140 163
127 144 167
128 144 166
125 142 164
123 139 161
125 141 163
129 145 166
127 144 166
128 144 166
123 141 163
129 147 170
129 147 171
127 146 168
127 145 168
130 148 172
129 145 168
130 147 170
123 139 159
129 147 170
133 150 172
131 149 171
128 146 168
131 149 172
127 144 167
132 148 172
134 153 176
126 142 164
128 145 168
130 147 168
130 148 172
129 147 170
132 149 173
130 147 171
132 151 174
132 150 174
128 146 169
128 145 168
132 150 174
132 150 174
130 147 169
131 148 171
131 149 173
134 151 173
134 152 175
133 151 172
131 150 173
133 151 174
132 150 172
133 150 173
134 152 176
133 150 174
131 149 171
131 148 171
134 152 175
132 149 172
133 152 175
134 153 177
134 152 176
134 152 176
129 139 169
117 112 154
102 74 136
100 45 134
95 38 127
98 39 130
101 40 134
98 39 130
95 38 127
102 40 133
100 39 131
99 40 131
93 37 123
96 38 128
93 37 123
96 38 126
97 39 127
93 37 123
100 39 130
100 39 131
99 39 131
98 39 130
99 39 129
98 39 129
98 38 127
91 36 121
93 36 121
97 38 126
94 37 126
96 38 124
97 38 127
93 37 122
93 37 123
90 36 119
95 37 126
96 38 127
91 36 120
92 36 121
93 37 121
94 37 124
95 38 126
99 39 128
95 37 123
94 37 123
96 38 127
92 36 120
97 38 126
96 37 124
92 36 121
96 38 126
91 36 118
93 36 120
89 35 117
92 36 119
94 37 122
93 37 124
94 37 122
93 36 120
89 35 114
93 37 124
94 37 123
91 36 119
97 38 125
95 37 124
88 34 114
91 35 116
91 36 121
90 35 115
92 35 117
89 34 114
95 37 125
94 36 122
92 36 121
93 36 121
91 35 116
94 36 120
90 35 117
91 35 118
92 36 119
91 36 117
87 34 113
90 35 116
89 35 115
91 36 120
84 33 108
85 35 111
83 60 104
76 85 90
70 111 73
70 124 66
70 131 64
69 132 63
74 142 66
71 133 64
77 143 68
76 143 68
72 137 65
74 141 66
77 147 69
75 146 68
80 157 72
82 160 73
83 163 75
79 156 72
82 160 73
81 162 76
83 162 74
83 165 77
78 152 70
80 158 71
80 153 70
82 162 74
83 164 75
86 170 78
79 156 71
77 151 68
77 153 70
79 154 71
80 159 72
83 164 75
80 153 71
81 157 71
78 154 70
77 151 68
80 158 72
83 162 74
78 151 68
81 161 73
79 156 71
82 162 73
78 155 71
83 163 74
80 157 71
81 159 72
88 161 92
101 157 120
115 152 148
123 149 164
127 146 171
125 144 168
125 144 169
126 145 170
126 146 172
124 143 169
124 141 165
125 144 169
127 144 169
128 147 173
128 146 172
126 144 169
127 147 172
128 147 174
127 146 172
123 143 168
126 145 171
124 144 171
127 145 172
124 142 168
127 147 174
130 151 178
126 147 172
126 146 172
126 146 173
125 144 171
125 139 165
130 136 165
122 129 158
124 121 154
124 116 151
123 106 142
117 102 136
113 90 126
111 89 125
111 89 123
113 90 124
117 93 130
118 96 131
117 93 129
118 94 130
121 97 134
115 89 125
118 94 131
121 95 132
120 97 134
120 98 134
118 94 129
122 96 132
118 93 128
118 96 132
120 99 135
111 94 121
98 100 104
97 104 107
104 109 115
108 113 119
109 115 122
110 116 122
109 114 120
107 112 118
109 115 120
108 115 120
110 115 120
107 113 117
103 109 116
68 70 92
27 19 76
25 16 82
25 16 82
25 15 76
24 15 75
24 15 78
25 15 79
25 15 79
25 16 82
25 15 80
25 15 80
26 16 82
25 16 83
26 16 85
26 16 83
26 16 83
25 16 83
26 16 82
25 16 81
26 16 85
38 35 85
71 71 97
95 97 108
109 113 119
107 112 118
105 110 116
107 112 118
108 113 120
109 113 118
105 110 115
105 112 117
104 109 115
107 111 118
105 109 116
105 111 117
109 114 119
107 112 118
107 113 119
110 114 120
106 112 117
102 107 113
110 115 121
104 109 113
102 108 113
104 108 113
106 112 118
105 110 116
104 109 114
105 110 117
104 109 115
104 109 114
107 112 117
104 109 114
107 114 120
105 110 115
105 110 116
108 113 118
106 111 117
108 113 119
105 111 116
102 108 113
107 112 117
105 110 116
102 109 114
106 111 115
104 111 115
104 109 111
103 109 113
103 109 113
107 113 117
100 107 109
103 110 113
101 106 108
100 108 111
99 106 108
94 104 103
96 110 105
87 110 91
74 102 78
75 103 77
77 107 79
72 99 76
74 99 73
72 98 75
78 105 79
74 99 74
72 98 72
67 90 67
72 97 72
68 91 69
67 89 66
70 93 69
70 93 67
72 96 71
75 101 76
78 107 79
77 104 78
78 106 79
79 108 80
79 108 80
75 103 76
80 109 82
77 107 79
79 109 81
77 107 79
75 106 78
74 105 76
73 104 75
73 99 77
81 95 86
92 102 99
95 105 104
92 102 99
95 106 102
95 104 103
98 108 107
96 107 105
95 103 103
99 107 108
99 106 109
99 108 111
100 108 109
99 106 107
102 110 111
102 110 113
101 108 112
99 107 110
103 111 116
101 107 110
104 112 116
106 114 117
101 108 112
99 106 111
104 110 115
101 107 110
108 115 120
103 110 115
104 111 114
105 113 116
104 110 114
106 112 116
106 113 117
104 109 115
102 108 113
101 105 110
106 113 118
102 107 112
104 111 115
107 113 118
102 108 115
103 107 113
103 109 115
105 111 117
103 109 115
107 112 118
106 112 118
106 112 119
103 110 114
106 112 120
104 110 116
107 113 119
106 111 117
104 108 113
104 110 116
102 107 113
105 110 116
107 112 119
105 111 117
104 109 116
105 111 118
106 110 115
106 112 119
105 110 116
106 112 118
104 110 115
107 113 119
106 111 116
106 112 117
105 110 116
109 114 120
106 113 119
104 109 113
105 111 116
109 114 119
106 112 118
103 108 113
107 111 116
107 112 119
106 113 120
107 112 117
106 111 117
107 112 118
105 110 115
106 111 116
111 116 121
107 111 115
109 114 120
106 112 116
107 112 117
106 111 117
107 113 119
107 112 117
105 111 116
109 116 122
108 113 118
105 111 116
110 116 122
109 115 121
107 113 117
105 110 116
106 112 117
109 114 119
109 115 120
107 112 119
106 111 118
108 114 120
108 113 119
108 114 121
107 113 118
108 113 118
111 116 122
107 113 118
107 113 119
109 114 120
107 112 118
105 111 117
104 109 114
110 115 120
109 115 121
108 114 119
110 114 119
110 116 122
108 113 118
106 112 117
110 115 122
110 115 121
107 113 119
108 114 118
108 113 118
111 116 121
105 110 115
106 112 117
111 116 122
108 114 120
108 114 120
109 114 119
107 113 118
107 112 118
105 110 114
109 115 120
107 112 118
108 114 120
107 112 117
107 112 118
109 114 119
105 110 113
107 112 117
107 112 116
107 112 117
109 114 119
109 113 119
106 112 118
109 115 120
108 114 119
109 115 120
109 115 120
107 113 118
109 115 121
111 116 121
109 114 120
111 116 122
107 112 119
109 114 120
108 114 120
106 111 117
107 113 120
109 115 120
109 115 121
106 111 116
109 114 119
108 112 118
110 115 120
110 115 120
105 111 115
105 111 116
109 115 120
107 112 117
106 111 116
105 111 115
104 110 114
106 111 116
107 112 117
105 110 116
105 110 114
104 108 114
107 112 118
103 108 114
107 112 119
106 111 116
106 110 114
106 110 116
104 110 115
102 107 112
105 108 114
106 111 118
103 107 112
109 114 121
103 109 114
105 110 118
104 108 115
106 110 114
106 111 117
102 106 112
105 111 118
102 107 113
107 112 118
106 110 117
106 110 115
101 104 109
101 103 111
103 108 113
99 104 109
103 106 113
101 103 110
103 106 113
99 100 108
103 105 111
100 104 110
102 105 112
100 103 110
99 99 106
95 97 105
102 106 113
98 100 108
100 103 110
98 102 109
95 97 104
93 93 101
93 93 100
93 94 102
95 95 103
97 100 107
101 104 109
93 95 101
94 95 100
92 93 100
98 102 109
92 94 100
100 101 108
97 101 108
98 100 108
97 98 104
101 103 110
101 104 113
100 103 110
99 101 111
102 104 113
99 101 109
101 103 112
104 106 113
98 99 105
104 108 114
101 105 112
105 107 114
103 107 116
101 103 111
102 105 113
104 108 115
104 110 117
98 101 111
104 108 115
106 110 117
104 109 115
105 109 117
102 106 115
100 105 112
103 108 115
105 109 116
104 108 116
103 106 114
102 106 115
104 108 116
102 107 116
101 105 114
101 105 115
100 103 114
99 102 114
97 99 109
98 102 112
100 103 115
100 104 114
96 99 110
93 96 108
90 90 104
87 87 101
88 89 101
86 86 99
80 80 95
75 72 89
70 70 85
65 63 79
60 59 74
48 43 68
59 47 95
49 33 89
55 33 100
53 32 99
52 33 97
52 32 97
49 30 93
50 31 92
50 30 91
50 29 92
48 28 92
45 27 92
45 29 87
60 50 99
69 66 94
78 79 97
88 90 105
91 94 107
98 102 114
93 97 111
104 109 119
99 103 113
101 106 115
95 100 112
99 104 114
101 107 118
100 105 117
82 87 114
74 80 116
51 58 118
48 58 122
48 58 124
51 61 129
50 59 123
53 63 131
52 63 129
51 60 124
51 60 127
51 59 123
52 62 127
51 60 123
51 60 124
49 57 117
46 54 114
50 60 124
51 60 123
48 55 115
50 58 120
48 56 116
51 60 122
55 63 116
83 90 123
102 107 121
105 110 116
107 113 119
108 112 118
104 110 115
109 114 120
103 109 114
102 106 110
106 111 117
106 111 116
107 112 118
107 113 119
106 112 118
94 99 105
64 68 71
51 52 53
108 92 99
102 83 118
58 52 114
46 33 112
43 22 106
40 18 101
49 36 107
61 55 120
66 65 118
82 87 131
90 98 138
105 118 148
117 132 160
113 127 157
124 141 166
122 140 166
126 144 170
128 145 170
122 139 163
124 140 166
120 136 159
121 139 163
123 139 164
119 137 160
123 140 165
126 144 169
124 142 166
126 142 166
125 142 166
127 145 170
126 144 167
128 146 170
125 142 165
125 142 165
127 143 167
127 145 169
127 146 170
125 143 168
128 146 169
130 147 170
125 143 168
123 141 164
125 143 166
130 148 172
123 140 165
129 147 172
127 144 169
128 146 170
126 144 167
129 147 172
130 149 173
129 147 170
124 142 165
127 146 171
130 147 170
129 148 172
126 144 167
124 141 164
128 146 170
128 146 169
126 144 169
127 146 171
131 149 172
128 146 170
130 148 172
128 147 170
129 146 168
124 142 166
125 142 166
131 149 172
127 146 168
131 150 173
124 141 163
126 144 167
124 142 163
127 146 168
126 145 168
126 143 166
114 130 150
93 107 123
53 63 70
32 42 41
29 38 38
29 38 38
31 40 39
30 40 39
31 41 41
31 40 39
32 42 42
30 39 39
30 39 38
30 38 38
32 42 42
31 40 40
32 41 41
31 41 40
32 41 40
33 43 43
30 39 39
31 40 40
29 39 38
31 41 40
31 41 41
32 42 41
31 42 41
33 43 42
31 41 40
33 43 42
31 41 40
32 42 41
32 43 41
32 41 40
32 43 42
31 41 40
31 41 40
32 42 41
32 42 41
32 42 41
33 44 42
33 43 42
31 41 40
33 44 43
33 43 43
33 42 41
32 41 40
33 42 41
32 43 42
32 42 41
32 42 41
33 44 43
32 42 41
31 41 40
33 43 42
31 41 41
33 43 43
32 42 41
33 44 44
33 43 43
32 43 42
32 42 41
32 42 41
34 44 43
32 43 41
32 43 42
32 43 42
34 44 43
32 43 42
32 43 42
32 43 42
33 44 43
32 42 42
32 43 41
33 44 43
33 43 42
32 43 42
32 42 41
34 44 43
33 43 42
33 43 43
33 44 42
34 45 44
32 42 41
34 45 44
33 44 43
64 76 86
93 108 122
120 137 156
124 141 163
125 142 163
129 148 171
125 143 163
123 140 160
131 149 171
125 144 166
127 145 166
126 143 165
124 142 164
126 144 165
124 142 163
125 143 164
130 148 171
126 144 165
127 145 167
130 148 172
125 143 164
130 149 172
128 147 169
129 148 172
130 148 170
132 151 176
123 141 161
126 144 167
128 146 168
127 146 167
125 144 165
129 147 169
129 148 170
130 148 170
126 144 167
125 143 164
120 136 153
116 130 144
103 116 131
102 113 124
90 99 106
107 118 125
103 113 121
101 112 119
111 121 128
102 113 120
103 114 122
101 111 118
102 112 120
105 116 122
102 112 119
107 117 124
107 118 125
101 111 118
107 118 127
107 117 124
108 120 127
116 127 133
112 123 130
111 121 129
97 108 116
101 112 119
114 126 133
106 118 123
102 112 119
109 119 126
107 118 126
106 117 124
105 115 122
108 119 125
106 115 123
105 115 123
104 113 120
105 113 121
109 118 126
112 123 130
108 118 126
107 116 122
108 118 126
106 117 124
104 113 120
112 123 130
111 120 129
108 117 124
106 116 125
107 115 123
112 121 129
115 125 133
106 114 123
109 118 126
112 122 130
104 113 121
104 113 122
113 124 132
105 114 123
109 118 126
115 125 132
108 118 125
114 125 133
115 126 134
106 116 124
105 118 121
98 112 112
97 118 103
83 111 77
84 119 70
71 114 39
74 116 45
72 116 36
68 115 17
68 115 17
68 116 17
68 115 17
68 115 17
68 116 17
68 116 17
68 115 17
69 116 17
68 115 17
68 116 17
69 116 17
68 116 17
68 115 17
69 117 17
68 116 17
70 117 31
72 118 36
77 120 56
84 123 74
99 132 108
110 138 133
124 146 157
125 147 162
131 151 173
133 150 175
134 152 177
131 150 174
134 152 176
131 149 172
134 152 175
134 152 177
133 153 177
132 151 176
135 154 178
135 153 178
133 151 175
133 151 176
134 153 178
135 154 178
135 154 178
