P3
1600 1
255
59 74 123
82 98 137
107 123 155
122 139 166
131 148 173
134 152 176
131 148 170
133 151 176
134 151 175
132 147 170
133 151 176
135 151 175
133 152 177
135 151 176
134 152 176
135 154 179
135 153 177
134 151 176
133 151 175
133 151 175
133 152 175
135 151 176
132 151 175
134 152 176
131 149 173
134 152 177
136 154 179
133 151 175
133 151 176
133 151 175
135 153 177
132 150 175
134 152 177
133 151 174
135 151 175
135 154 178
133 151 175
135 153 178
133 151 176
135 153 177
134 151 176
135 153 177
135 154 179
135 153 177
135 152 177
133 150 174
133 151 175
134 151 175
134 153 178
135 153 178
136 154 178
134 153 177
135 153 177
134 151 176
134 153 177
135 153 178
134 151 175
135 153 178
134 153 177
132 151 174
135 154 177
136 155 180
134 153 178
132 150 174
136 153 178
135 153 178
136 154 178
133 150 173
134 153 176
133 150 174
136 153 177
135 153 177
134 151 176
131 151 176
135 154 178
132 149 174
136 154 179
133 151 176
134 151 174
135 153 176
136 155 179
133 151 175
137 155 179
135 153 178
133 150 174
135 153 177
132 152 177
134 151 175
131 150 174
134 153 177
132 150 175
133 151 174
134 152 177
133 152 177
135 153 178
135 153 177
132 151 175
132 151 175
133 151 175
136 154 178
131 149 172
135 153 177
134 153 177
136 153 177
131 149 172
135 154 179
132 150 174
131 150 173
132 150 173
136 154 178
132 150 174
135 153 178
135 153 177
133 152 175
133 152 175
133 151 175
131 150 176
137 156 180
133 152 177
134 152 177
135 153 178
136 154 178
132 151 174
132 151 175
134 152 177
131 150 174
137 155 178
136 154 178
133 151 175
129 147 171
134 153 176
135 153 177
134 152 176
133 151 175
135 153 178
132 151 176
129 147 171
135 154 177
129 146 163
116 132 139
108 121 119
97 106 85
87 96 71
91 101 74
90 99 73
91 98 72
90 100 73
91 101 73
91 101 74
95 105 76
87 97 71
95 105 76
96 106 77
92 101 73
91 100 73
86 96 70
77 93 58
58 81 31
46 74 1
45 74 1
45 73 1
44 71 1
46 74 1
46 74 1
46 74 1
44 72 1
46 75 1
47 76 1
43 70 1
46 75 1
46 75 1
47 76 1
45 74 1
43 70 1
46 74 1
45 72 1
46 74 1
45 73 1
46 75 1
43 69 1
46 74 1
44 71 1
46 74 1
45 73 1
43 70 1
46 74 1
46 75 1
46 74 1
46 74 1
45 73 1
45 74 1
45 73 1
47 77 1
45 73 1
46 74 1
46 74 1
45 74 1
45 74 1
46 75 1
45 73 1
45 72 1
46 74 1
46 75 1
46 75 1
46 75 1
46 75 1
43 70 1
43 71 1
46 73 1
44 72 1
44 71 1
45 73 1
46 75 1
46 74 1
46 75 1
46 74 1
45 73 1
45 73 1
45 73 1
45 74 1
45 72 1
44 71 1
45 74 1
44 72 1
46 74 1
44 72 1
43 69 1
44 71 1
45 72 1
43 70 1
44 72 1
43 70 1
43 69 1
43 70 1
44 71 1
42 68 1
44 71 1
43 70 1
43 68 1
52 76 40
80 99 94
119 138 155
125 145 171
131 149 174
128 147 172
128 146 170
130 148 174
131 150 175
127 145 170
128 146 172
132 150 174
128 146 171
126 145 171
129 148 173
126 144 169
126 145 171
127 145 169
125 144 170
127 145 169
122 140 167
125 144 171
129 147 171
128 146 171
121 138 162
125 140 166
115 124 153
125 125 158
128 128 162
136 136 169
129 130 162
140 141 176
133 135 167
126 129 158
142 145 183
137 139 173
138 142 178
136 140 176
140 144 181
142 146 183
152 155 198
151 154 197
151 154 197
150 154 197
157 161 206
160 164 211
161 165 213
161 165 213
161 165 213
160 164 213
161 165 213
159 164 213
160 164 213
159 164 213
158 164 213
159 164 213
158 164 213
157 163 213
157 163 213
156 163 213
158 163 213
156 163 213
159 164 213
157 163 213
157 163 213
157 163 213
157 163 213
157 163 213
158 163 213
156 163 213
157 163 213
157 163 213
158 163 213
157 163 213
157 163 213
157 163 213
157 162 212
157 163 212
157 162 212
156 162 211
156 161 208
155 160 207
155 160 207
155 159 206
156 160 207
155 158 204
155 158 204
156 161 208
154 158 203
155 158 203
156 158 202
157 160 204
157 159 203
157 159 203
161 162 205
162 164 209
159 161 205
159 160 203
163 164 208
163 163 208
163 162 207
155 154 198
153 152 195
157 156 198
158 158 202
147 145 188
152 151 193
135 135 173
142 140 180
138 138 174
134 133 171
132 131 167
116 119 150
110 120 147
108 124 149
98 115 141
103 120 146
107 124 148
112 129 154
105 122 148
108 124 147
112 129 154
113 131 157
112 128 152
116 133 159
119 137 160
110 128 154
110 129 155
111 130 156
114 132 158
116 134 157
116 135 161
112 129 153
119 137 162
122 140 165
118 137 161
116 134 161
117 136 161
120 140 165
119 135 159
120 140 164
119 137 162
118 136 161
115 134 159
121 140 167
117 135 159
120 139 165
121 140 164
114 130 155
117 135 159
117 134 159
121 141 165
117 136 162
123 141 166
123 142 167
116 136 162
123 142 166
116 135 160
122 141 165
127 146 171
116 134 159
118 137 160
124 143 167
116 136 160
122 140 163
118 137 160
115 134 157
118 139 162
121 141 164
120 140 163
115 135 158
123 143 167
121 140 164
119 139 162
121 141 166
119 139 163
118 137 159
117 137 161
120 140 163
124 144 168
116 138 162
116 135 158
119 139 163
119 138 161
123 142 166
115 133 156
117 137 160
119 139 161
114 135 156
111 132 152
106 129 149
94 119 137
98 122 141
89 117 137
77 108 123
69 99 114
67 100 113
72 105 119
67 102 116
71 106 121
66 100 114
69 103 119
65 100 114
66 101 116
68 104 118
73 108 124
70 104 120
70 107 121
69 103 118
65 99 113
72 108 122
66 100 114
69 103 117
68 103 116
71 108 121
66 102 114
65 100 113
67 101 114
66 102 116
67 102 116
68 101 114
65 100 112
68 104 117
70 106 119
64 98 111
70 105 119
70 104 117
68 102 116
68 104 117
67 100 114
65 99 111
65 99 112
73 106 118
73 105 119
80 112 127
83 113 128
80 103 118
88 113 130
105 126 146
104 124 141
117 136 157
112 130 150
113 131 151
118 136 157
118 138 160
114 131 152
114 135 154
111 130 150
116 135 154
121 142 163
113 133 153
118 137 158
113 132 153
112 129 149
122 142 164
113 131 151
114 135 154
137 157 179
140 158 179
155 174 195
156 174 196
164 180 203
161 178 203
158 176 199
151 170 193
155 173 195
152 171 195
152 170 193
155 173 196
147 166 190
150 168 192
149 169 191
148 166 189
148 167 190
147 166 190
145 164 187
151 170 194
143 162 185
142 162 183
146 165 186
155 174 197
152 169 192
152 170 193
151 169 190
158 175 196
152 165 184
140 151 166
139 151 169
130 140 158
127 142 164
122 138 156
126 146 168
125 143 166
127 145 168
122 139 161
131 149 171
131 150 173
129 148 171
127 145 167
128 147 170
130 148 170
125 143 164
129 147 170
130 147 170
133 151 175
130 149 172
127 146 166
130 148 171
132 149 172
133 151 173
132 149 173
129 147 169
133 152 175
126 143 165
131 150 173
130 148 171
129 148 172
131 148 171
130 147 171
131 149 172
131 149 172
133 150 172
131 148 170
130 149 173
127 146 168
131 152 175
133 151 174
131 151 174
129 147 169
131 150 172
131 150 174
132 149 172
131 149 172
132 150 173
131 149 172
136 154 178
133 151 173
133 150 173
133 151 175
129 147 169
135 153 176
130 147 170
131 148 171
134 151 175
133 151 174
131 149 172
132 150 174
131 149 171
131 149 173
131 149 172
127 145 167
132 150 173
134 152 176
129 147 169
134 151 175
133 151 173
132 150 174
134 153 177
134 152 176
132 150 173
133 151 175
135 154 178
133 152 175
133 152 175
133 151 175
130 148 170
136 153 177
131 150 173
133 151 175
135 153 177
134 152 176
135 151 176
123 129 162
109 98 143
96 74 128
93 37 123
94 37 124
93 37 123
97 38 127
91 36 121
96 38 125
90 36 119
95 37 123
97 38 128
91 36 122
91 36 120
90 36 120
96 38 125
91 36 118
92 37 122
95 38 125
94 37 124
93 37 122
90 35 117
88 35 116
90 35 118
94 37 124
89 35 115
95 38 126
93 36 120
92 37 122
89 34 113
89 35 118
90 35 116
89 35 116
92 36 120
90 35 117
90 36 118
87 34 114
88 34 112
91 36 119
93 36 119
86 33 110
89 34 115
91 36 118
89 34 114
92 36 118
95 37 123
91 36 121
88 34 113
90 36 120
90 36 120
91 35 118
90 35 118
86 34 113
88 34 114
92 36 120
90 36 115
88 34 114
85 33 111
91 35 118
91 35 116
88 34 113
89 34 113
87 34 112
93 36 122
87 34 115
90 36 118
93 36 122
88 34 112
84 33 110
85 33 112
90 36 120
84 33 110
86 33 112
84 32 107
85 33 111
81 32 106
87 34 113
87 34 113
85 33 110
82 32 104
87 34 114
86 34 111
80 32 104
82 32 107
81 42 99
74 68 92
71 96 80
62 102 58
65 118 59
62 113 55
67 129 60
69 136 64
70 133 64
72 137 65
74 143 67
74 145 67
73 136 63
73 144 66
74 145 67
73 143 64
73 141 65
73 144 66
71 142 65
73 142 65
75 147 67
75 145 66
71 136 63
77 149 67
80 156 70
70 134 60
79 156 71
77 153 71
76 150 68
77 150 67
78 151 69
76 146 67
76 147 67
78 157 71
77 146 66
75 148 66
77 150 69
76 148 67
74 148 68
81 159 72
77 151 69
74 144 66
80 158 72
76 150 68
76 151 69
76 152 69
75 151 68
79 145 76
95 152 107
113 152 140
123 153 156
129 146 169
134 151 176
129 144 170
124 140 165
130 146 170
130 143 169
126 140 164
129 144 169
129 147 170
129 144 167
128 143 168
128 144 168
130 144 171
129 144 169
125 139 164
125 140 164
126 141 167
126 141 166
127 140 166
126 139 165
124 139 165
129 142 169
125 137 162
124 133 159
123 135 161
125 139 164
125 138 164
121 132 158
119 132 153
125 139 164
120 135 159
124 135 161
116 122 148
120 128 153
117 125 149
118 131 156
124 134 161
120 124 152
117 119 146
113 113 139
114 104 133
106 95 124
112 96 127
105 89 118
102 86 114
100 76 109
95 70 101
101 77 107
94 68 98
92 63 92
96 70 99
98 74 104
94 70 98
92 67 95
92 68 97
101 76 106
96 70 98
96 70 99
99 77 101
103 102 111
105 110 115
110 116 122
111 117 122
110 115 121
108 113 119
109 113 118
110 116 120
109 115 121
108 114 120
112 116 121
100 104 112
70 72 94
24 18 68
23 14 74
22 13 68
23 14 71
23 14 72
24 14 74
22 14 70
23 14 72
23 15 75
22 14 70
24 15 78
24 15 76
25 15 78
25 15 78
24 15 77
25 16 80
25 16 81
24 15 77
25 15 79
23 15 75
25 16 81
24 15 78
25 16 80
42 39 84
79 83 101
102 108 116
107 113 121
104 110 117
103 106 112
103 107 114
100 104 112
101 106 113
104 109 115
100 104 112
104 110 117
101 107 114
101 107 113
104 108 114
107 112 118
102 107 111
104 110 116
105 110 115
101 105 111
103 108 113
101 106 110
103 109 115
106 111 116
102 107 113
106 111 117
105 110 115
103 108 113
106 111 116
107 112 117
105 111 117
106 111 117
104 110 113
101 106 112
101 106 111
104 109 113
103 109 113
102 109 114
102 108 111
106 111 117
104 110 114
101 108 111
102 108 112
100 106 109
97 104 106
99 105 108
100 108 110
100 106 108
99 106 109
97 104 107
99 107 109
99 105 107
96 104 104
95 102 102
95 101 101
97 104 104
89 97 94
89 97 96
89 97 93
89 100 94
83 98 85
77 96 78
76 101 75
66 92 65
68 95 70
70 99 71
70 101 70
73 101 72
64 93 64
64 90 63
69 98 70
64 91 64
67 95 66
62 89 60
59 85 58
59 83 57
60 79 60
63 80 62
68 82 68
72 83 73
71 82 73
72 81 73
76 86 81
81 92 84
84 94 89
80 89 83
87 95 91
88 99 93
89 98 96
91 100 98
96 103 105
94 102 99
94 101 103
98 105 106
100 108 108
98 105 104
100 106 109
95 102 102
99 108 109
102 109 112
99 104 107
100 106 110
101 108 111
103 110 114
101 108 110
105 111 115
108 115 119
102 109 113
103 111 114
103 110 114
103 109 112
101 107 110
105 109 115
106 112 117
98 103 108
103 109 113
107 113 118
105 110 115
103 109 112
105 110 115
102 108 112
108 114 119
103 109 113
101 106 111
104 108 113
107 114 118
107 113 118
102 107 113
106 112 118
106 112 116
105 111 116
105 112 115
99 104 109
105 112 117
104 110 113
105 110 116
105 112 117
106 111 116
106 112 118
105 111 117
106 111 115
106 112 119
106 112 118
108 113 118
105 111 115
107 112 117
107 113 118
105 111 117
107 111 116
104 109 114
105 110 115
106 110 115
107 112 118
105 110 115
106 110 115
107 112 119
104 110 115
105 110 115
105 109 114
107 113 118
108 114 119
104 109 113
107 112 116
107 112 118
108 114 118
108 114 118
107 113 118
108 115 120
107 112 118
107 112 118
106 112 117
108 113 117
106 111 116
104 109 115
107 112 117
107 112 116
104 109 114
108 113 118
109 114 119
106 111 118
107 112 118
106 112 117
107 111 117
105 111 116
108 113 117
107 112 118
106 112 117
106 112 118
106 111 116
104 109 114
107 112 117
107 112 116
106 111 116
109 114 119
107 112 116
108 113 117
106 112 116
105 111 116
105 110 115
108 112 118
107 113 119
106 112 117
110 115 121
110 117 122
108 115 120
108 113 119
107 114 119
105 110 116
110 116 120
107 112 117
107 112 116
107 112 118
109 116 120
111 116 122
106 112 117
107 111 115
108 114 119
107 112 119
107 112 118
109 114 118
106 112 116
106 113 115
107 113 115
108 114 117
110 116 120
106 113 117
108 113 117
109 115 120
109 115 119
105 110 115
106 113 117
107 113 118
107 111 116
110 115 121
107 112 118
109 114 118
110 114 119
107 112 117
106 111 117
105 111 115
110 116 122
106 112 116
109 114 120
105 112 114
109 114 119
107 113 119
107 112 117
108 113 118
111 116 120
109 115 120
103 108 111
106 111 115
108 114 118
108 115 118
106 114 114
108 115 114
109 116 118
107 117 115
108 118 113
103 113 110
108 118 115
109 118 113
107 116 112
106 116 110
104 115 108
109 118 114
106 113 114
104 112 112
107 113 117
107 112 118
108 113 119
109 115 120
108 113 118
105 109 113
107 112 117
106 112 116
107 112 117
110 114 119
105 111 116
106 111 117
108 113 117
105 109 115
104 108 112
104 109 115
104 109 114
105 110 116
102 107 112
101 106 109
106 111 116
104 109 115
107 110 116
102 109 113
105 108 113
106 110 115
107 113 119
105 109 115
103 108 114
104 109 113
102 106 111
107 112 118
100 103 108
101 105 110
106 111 116
105 109 113
103 106 112
104 108 114
103 107 112
98 102 107
103 107 113
98 101 106
99 102 108
105 108 115
102 106 112
102 104 109
103 107 114
103 108 112
105 110 116
97 99 105
99 102 109
100 103 110
103 106 111
105 110 117
103 106 112
102 106 113
101 105 112
103 106 112
101 105 112
100 103 108
103 108 113
103 106 111
101 102 110
103 107 113
105 109 116
105 108 117
98 101 109
104 109 117
101 105 112
105 110 117
104 107 115
101 104 111
99 102 111
101 104 111
104 108 115
104 108 115
106 111 118
104 109 118
101 104 112
103 107 116
105 110 116
105 110 117
106 110 117
105 109 115
102 105 114
102 105 114
103 107 115
103 106 114
99 103 112
102 106 116
102 106 114
101 104 112
97 99 109
97 99 109
98 101 110
97 99 109
95 98 110
90 92 104
91 94 107
93 95 106
93 95 107
89 92 105
85 85 98
83 85 97
75 74 88
80 80 92
74 73 88
76 78 89
73 73 86
71 70 83
78 77 88
60 57 76
68 67 82
67 66 80
76 75 86
68 68 81
65 64 81
74 75 88
69 71 88
78 81 94
76 77 93
83 86 98
86 88 103
82 84 100
92 95 106
88 91 104
91 94 109
89 93 105
94 99 113
96 101 112
97 102 113
90 94 110
83 88 112
57 62 104
42 50 109
44 53 110
47 56 119
46 54 114
42 49 106
44 51 108
46 53 110
48 57 117
46 54 113
47 55 115
43 51 105
45 52 108
49 57 117
47 56 113
45 52 108
47 54 112
44 49 103
47 54 109
43 49 104
47 55 114
42 49 101
47 54 108
72 79 115
97 102 118
109 114 121
106 110 117
107 112 118
106 111 118
105 111 118
109 114 119
105 109 116
107 113 120
105 110 115
108 113 119
106 112 119
104 110 116
104 110 116
99 100 106
123 104 108
155 121 129
165 130 148
176 137 157
178 136 155
184 147 168
189 150 172
192 153 176
195 156 178
191 150 172
194 156 179
195 158 180
191 155 178
190 150 173
191 151 173
190 152 174
191 149 171
191 151 173
185 145 166
187 150 172
179 138 158
170 138 157
160 130 152
141 125 147
136 126 150
122 128 152
112 123 147
112 126 151
114 128 152
112 127 154
110 124 150
110 125 151
118 133 158
117 132 157
114 128 155
116 132 158
116 132 156
119 134 159
120 136 163
117 133 160
117 133 158
120 135 160
125 141 165
127 144 171
119 134 159
118 134 161
122 139 163
119 135 161
124 140 166
123 140 165
122 140 163
118 134 160
126 143 168
127 144 168
121 138 162
128 147 171
126 144 170
127 144 170
124 142 167
124 141 167
125 142 168
122 138 165
124 141 165
126 143 168
124 141 166
126 143 167
130 148 172
126 143 169
129 147 171
124 141 165
127 145 168
129 148 172
126 143 169
128 146 170
126 144 168
130 148 174
130 148 171
126 143 168
126 143 167
127 145 169
129 146 171
116 131 152
90 103 119
47 56 63
27 36 36
28 37 37
30 39 39
29 38 38
29 39 39
30 38 38
31 41 40
30 40 39
28 36 36
31 40 39
31 40 39
30 39 39
31 40 39
30 40 39
31 40 39
31 40 39
30 39 39
30 38 38
30 38 38
30 40 39
30 38 38
31 40 40
30 39 38
32 41 41
30 38 37
32 41 40
31 41 40
31 40 40
30 38 38
31 40 39
31 41 40
30 39 38
31 40 39
32 41 41
31 41 40
31 40 40
32 42 41
30 39 38
31 41 40
31 40 39
29 38 38
32 42 41
30 39 38
31 40 40
32 42 41
31 41 40
29 39 38
31 41 40
31 41 39
30 40 39
32 41 40
30 39 38
31 41 41
31 41 40
31 40 39
30 40 39
31 40 39
32 42 40
31 40 40
31 41 40
31 42 41
33 43 41
31 41 41
31 41 40
31 41 40
30 40 39
31 40 38
33 44 42
32 42 41
31 41 39
32 42 41
32 42 40
33 43 41
31 41 40
30 40 39
32 43 41
31 42 41
31 41 41
32 43 42
32 42 42
32 41 41
31 42 41
32 42 41
32 42 40
33 43 42
31 41 40
33 43 42
52 62 68
93 107 122
109 125 144
129 147 169
128 146 168
128 146 170
129 147 170
130 149 172
130 149 171
128 146 170
130 148 172
131 149 173
131 149 171
131 149 171
129 148 171
125 143 165
133 151 174
123 142 163
130 148 171
132 150 173
131 149 172
133 152 176
130 148 170
127 145 166
132 150 174
131 149 173
133 152 175
129 148 171
133 150 173
130 148 171
133 150 174
130 149 171
128 147 169
129 146 166
129 147 169
131 150 174
132 151 175
133 152 176
127 145 166
123 140 161
113 128 145
116 128 144
105 117 129
96 106 113
94 105 111
93 103 110
99 108 114
97 107 112
101 111 118
92 101 107
96 106 113
93 103 111
101 110 116
102 112 119
98 107 113
99 109 115
93 102 109
97 106 111
102 112 118
102 111 117
95 104 111
97 107 113
99 109 114
102 112 118
102 112 118
102 112 118
97 107 113
102 112 118
100 110 117
95 103 110
93 101 108
97 105 112
96 104 112
95 105 110
103 114 119
96 104 111
103 112 119
100 108 115
101 112 118
96 105 112
104 116 122
97 106 113
99 107 115
99 109 116
88 107 94
82 111 73
68 107 38
63 107 16
63 107 16
64 108 16
64 106 16
65 109 16
65 108 16
66 111 16
64 108 16
66 111 16
66 110 16
67 112 17
66 110 16
66 111 16
64 109 16
65 109 16
66 111 16
65 109 16
65 110 16
66 112 17
66 111 17
67 113 17
67 112 16
67 114 17
67 113 17
67 113 17
66 112 17
64 107 16
68 113 17
66 112 17
67 113 17
66 111 17
68 115 17
67 113 17
66 111 17
67 113 17
67 113 17
64 109 16
67 113 17
67 113 17
68 114 17
66 111 17
67 113 17
67 114 17
69 115 17
68 116 17
68 115 17
69 115 17
69 116 17
67 114 17
67 113 17
67 112 17
69 116 17
68 114 17
68 115 17
68 114 17
69 115 17
69 115 25
78 119 62
106 136 125
127 148 164
136 154 178
