P3
1600 1
255
64 79 127
86 102 137
118 134 163
124 140 166
134 151 175
131 149 173
132 150 173
131 150 175
134 152 176
133 150 173
134 152 176
136 154 178
133 151 176
134 150 176
134 152 177
134 153 178
135 154 179
133 151 175
131 150 174
134 152 176
132 151 174
136 154 178
134 152 176
134 153 177
134 152 176
134 152 176
136 154 178
133 151 176
132 151 175
134 152 176
136 154 178
133 152 176
134 152 177
135 152 177
136 152 175
134 152 177
134 151 175
134 153 177
135 153 178
134 153 176
133 151 176
137 155 179
136 155 179
134 152 177
134 153 177
134 153 176
132 151 175
132 150 173
133 152 176
134 153 177
134 153 177
134 153 177
133 151 175
134 152 176
134 152 177
136 154 179
133 150 174
135 154 178
135 154 178
132 151 173
135 153 177
136 155 180
134 153 177
132 150 175
137 155 179
137 155 179
135 153 178
133 151 174
136 155 179
134 152 175
135 153 177
136 154 178
135 153 178
129 148 172
135 153 178
134 152 177
134 151 176
133 150 175
133 151 175
135 153 176
135 154 179
135 153 177
135 154 178
133 152 176
133 152 175
133 150 175
133 152 177
134 151 175
133 151 176
132 151 174
132 151 176
133 152 175
132 151 176
135 154 179
134 153 178
135 153 178
131 149 172
132 150 175
135 153 177
136 155 179
132 150 174
135 153 177
134 152 176
135 153 177
133 151 173
135 154 179
131 150 173
130 148 172
132 150 173
136 154 178
132 150 174
135 153 178
134 152 177
134 152 176
132 151 174
135 152 175
130 149 174
135 154 179
132 151 175
135 154 179
134 152 176
135 154 178
133 152 176
132 151 175
131 150 175
133 151 175
136 154 178
134 152 176
134 151 176
130 148 171
133 151 176
133 152 176
135 152 176
132 150 174
133 152 176
132 150 175
130 148 172
136 154 178
129 147 167
118 134 147
109 122 124
94 104 82
87 95 70
94 104 76
87 98 71
89 98 72
95 104 75
94 104 76
90 101 73
94 103 75
94 104 76
90 99 71
89 98 71
91 101 73
89 99 72
83 94 65
67 86 46
46 73 7
44 72 1
45 74 1
44 72 1
45 74 1
45 73 1
45 73 1
46 74 1
44 71 1
47 75 1
45 73 1
43 70 1
45 72 1
45 74 1
46 75 1
45 74 1
44 71 1
46 74 1
44 72 1
46 74 1
45 74 1
45 73 1
44 70 1
45 72 1
45 73 1
44 72 1
44 72 1
44 71 1
46 74 1
46 75 1
46 75 1
45 72 1
45 72 1
46 75 1
45 73 1
47 76 1
45 72 1
44 72 1
43 71 1
45 73 1
47 76 1
45 73 1
46 74 1
45 74 1
46 74 1
46 74 1
48 78 1
44 72 1
44 72 1
44 71 1
44 72 1
45 73 1
44 72 1
45 72 1
46 74 1
44 73 1
46 74 1
44 72 1
45 74 1
46 75 1
45 72 1
45 74 1
43 70 1
45 74 1
44 72 1
44 73 1
46 74 1
44 72 1
44 72 1
45 72 1
44 72 1
45 72 1
41 67 1
43 71 1
42 68 1
43 70 1
44 71 1
43 70 1
45 71 1
43 70 1
43 69 1
43 70 1
42 67 1
71 93 79
102 121 135
128 146 170
127 145 171
129 147 171
130 148 174
128 146 171
122 140 165
132 150 175
124 141 165
129 148 174
127 146 171
129 147 172
128 147 172
124 142 165
127 144 168
126 144 168
126 143 169
123 141 168
128 146 172
125 144 169
125 142 166
122 141 167
129 147 173
121 136 161
123 128 158
124 123 155
132 132 165
127 128 158
133 134 167
133 135 167
135 137 170
142 143 179
133 136 168
137 141 176
133 138 172
129 134 165
146 149 188
144 148 187
142 146 185
147 151 192
153 156 199
154 158 203
160 164 210
161 164 210
163 166 213
161 165 213
162 165 213
161 165 213
161 165 213
161 165 213
159 164 213
160 165 213
159 164 213
158 164 213
159 164 213
158 164 213
158 164 213
158 164 213
159 164 213
159 164 213
158 164 213
159 164 213
158 163 213
158 163 213
158 164 213
158 163 213
158 163 213
158 164 213
158 164 213
157 163 213
158 164 213
158 164 213
158 164 213
159 164 213
158 163 212
157 162 211
158 163 212
156 160 207
156 161 209
156 160 207
155 159 205
155 160 206
155 158 204
154 158 204
155 158 204
154 157 202
155 158 203
152 154 197
156 157 201
153 154 196
158 159 203
159 160 205
160 161 205
158 160 203
160 161 204
163 163 207
165 166 210
163 164 208
161 160 204
161 161 204
157 157 202
148 147 187
153 153 196
145 144 186
149 148 190
149 148 188
137 135 173
131 128 166
136 135 172
128 128 164
121 123 157
102 110 138
104 118 144
98 116 140
106 122 147
102 117 143
109 125 150
111 127 151
109 126 153
108 125 150
109 126 150
109 126 150
101 117 143
102 119 144
107 125 152
112 130 156
112 131 154
117 136 161
111 128 154
116 134 160
114 132 158
116 134 159
112 132 157
116 135 161
116 134 158
121 138 162
114 132 156
117 136 160
118 137 163
123 143 168
113 130 155
118 137 163
118 136 161
112 130 155
116 134 158
119 137 160
119 138 163
119 138 161
121 140 165
115 135 161
119 139 165
121 141 166
121 140 164
123 143 166
121 140 164
118 137 162
124 144 168
122 142 166
122 141 163
118 139 162
118 138 161
117 135 158
114 134 158
116 135 158
115 135 158
115 133 156
124 144 169
118 139 162
119 139 163
122 141 166
113 133 158
117 136 160
114 134 160
117 137 161
118 137 161
119 140 163
119 138 161
114 135 158
120 139 162
117 135 158
115 136 158
120 138 162
116 135 157
112 131 155
106 126 148
113 132 154
109 128 150
106 126 148
107 127 150
104 125 145
95 120 140
96 121 140
88 116 132
70 98 113
76 108 125
70 102 118
64 96 110
59 92 104
66 103 118
62 96 110
62 94 107
71 106 120
64 98 112
64 98 113
64 98 110
72 108 121
63 96 109
64 98 112
66 100 113
66 99 111
66 101 115
63 98 111
64 99 112
63 97 110
71 105 119
63 96 108
69 103 117
65 100 112
56 87 98
68 102 114
70 105 117
59 91 102
57 88 99
64 95 107
69 105 118
69 102 115
67 103 115
68 102 114
63 93 104
69 101 114
72 99 113
71 97 110
83 108 123
95 120 136
92 117 133
95 118 135
104 125 142
102 125 142
112 131 151
117 136 157
110 129 148
112 131 151
109 129 148
114 131 152
116 134 155
115 134 155
113 130 150
111 131 151
119 139 161
113 133 154
115 135 156
118 138 158
122 142 163
131 150 170
164 186 209
174 191 212
168 185 209
163 181 204
149 166 189
152 171 194
153 172 195
149 168 192
153 172 197
142 162 183
144 163 185
143 162 184
145 164 188
140 157 180
143 162 186
149 168 193
145 165 187
134 153 174
145 163 186
141 160 181
145 164 188
147 166 191
147 167 189
142 160 182
150 169 192
142 161 184
149 168 191
148 167 192
145 165 185
149 168 190
154 173 197
151 169 190
152 169 190
141 153 169
129 138 151
125 137 156
125 139 160
126 144 166
125 142 164
130 148 170
129 147 171
131 150 173
129 147 170
126 144 167
127 146 168
132 151 175
129 148 172
131 149 173
126 144 167
127 145 168
128 146 167
131 149 172
132 149 172
126 144 167
126 143 166
128 146 169
134 152 175
128 147 170
132 150 173
129 148 170
134 152 175
130 148 170
132 149 171
128 146 169
131 149 172
133 151 174
130 148 170
132 150 173
131 149 171
131 148 170
133 151 174
132 149 172
133 151 174
132 151 174
132 150 173
131 149 173
132 150 173
133 151 174
131 148 171
131 149 171
130 149 172
133 152 175
132 151 174
131 149 173
130 147 170
131 151 174
133 151 174
134 152 177
135 154 177
133 152 173
134 152 176
134 153 177
135 153 175
132 150 173
132 150 172
132 150 173
132 151 173
135 153 176
130 148 171
135 153 177
135 153 177
135 154 177
132 150 173
131 149 172
134 153 176
136 155 177
137 156 180
132 150 172
132 150 173
132 150 172
131 149 171
130 148 171
132 151 175
131 148 171
133 152 175
133 149 174
121 125 158
117 115 155
98 66 131
95 38 127
93 37 122
89 35 119
94 37 125
97 38 129
93 37 124
88 35 117
92 36 120
84 33 110
91 36 120
92 36 121
88 35 119
92 36 121
92 36 121
94 37 124
91 36 120
96 38 124
89 35 117
93 37 120
96 38 125
88 35 118
93 37 122
93 36 122
90 35 118
88 35 115
87 34 114
89 35 117
91 36 121
87 34 115
87 34 114
91 36 119
94 36 121
91 36 119
94 37 121
92 36 120
88 34 115
91 36 120
92 36 120
89 34 115
82 32 107
87 34 113
93 37 120
88 35 114
90 35 118
90 35 117
93 36 119
92 36 120
87 33 111
92 36 121
86 34 113
91 35 118
86 34 112
89 35 119
93 36 121
82 32 106
88 34 113
84 33 112
89 35 115
84 33 110
88 35 116
85 33 112
87 33 111
87 34 111
89 34 114
90 35 118
88 35 117
84 33 109
84 33 109
91 35 117
82 32 105
88 34 113
85 34 113
86 34 112
85 33 109
86 33 112
86 34 112
84 33 109
83 32 107
88 34 113
84 34 110
86 33 109
82 42 106
72 69 91
70 92 75
58 99 55
66 125 59
68 126 60
67 125 61
68 129 61
69 132 62
71 136 64
69 128 60
77 144 67
76 144 67
70 135 62
73 143 66
74 144 67
70 135 63
68 134 60
71 138 63
73 146 65
76 149 69
76 149 69
71 136 62
79 154 70
77 148 67
72 143 65
76 148 68
72 142 65
75 147 67
78 154 70
81 159 72
74 143 65
75 148 67
80 155 69
79 154 70
72 143 65
74 146 66
74 147 68
77 155 69
72 142 64
78 153 69
69 136 62
77 154 71
78 157 71
76 151 69
77 148 67
77 152 70
87 144 97
100 150 118
109 142 136
119 141 154
131 148 172
126 140 165
131 146 171
125 142 164
129 143 166
130 145 170
127 141 165
130 146 171
126 141 166
129 144 169
124 137 163
127 138 164
129 143 168
127 141 165
126 140 165
126 138 164
125 137 162
128 140 165
126 138 164
128 142 168
120 130 155
124 132 159
122 134 159
122 132 157
122 131 157
123 135 161
127 139 165
119 130 154
122 133 159
123 132 157
123 133 158
120 129 153
122 131 155
121 130 155
117 123 148
117 127 151
118 126 151
113 118 142
115 119 142
116 119 145
114 115 140
110 108 135
114 104 132
104 94 121
101 84 111
93 72 99
94 74 101
96 76 105
94 69 98
86 63 91
100 75 102
93 67 95
91 68 95
96 71 100
90 63 90
99 76 104
90 64 92
95 68 96
100 75 105
103 100 112
102 107 112
107 112 119
110 114 121
110 116 122
111 115 120
109 115 119
111 117 122
107 112 119
109 114 119
108 113 119
105 110 114
84 85 99
32 29 70
23 14 74
21 13 67
22 13 67
23 14 74
23 14 72
21 12 64
23 14 74
23 14 71
24 15 74
24 14 73
24 14 73
23 15 74
24 15 76
25 15 78
24 15 79
25 16 80
24 15 77
23 14 73
24 15 78
24 15 77
25 15 79
25 16 80
24 15 75
64 65 94
86 89 104
100 105 114
105 110 117
102 107 114
101 106 114
102 106 113
99 103 109
98 103 109
103 108 114
102 108 115
106 110 117
104 110 117
104 109 115
105 110 117
102 108 113
100 105 111
107 113 120
105 109 115
106 111 117
102 107 113
104 110 115
102 107 112
102 107 114
104 109 115
105 110 116
105 112 118
104 110 115
108 113 118
101 106 112
103 108 112
101 107 111
104 108 112
105 111 116
105 111 115
104 110 113
102 108 111
103 109 112
104 109 113
102 108 111
105 110 114
100 106 111
101 106 110
104 110 113
103 109 113
104 110 113
99 105 108
97 103 106
99 107 108
93 104 102
94 102 102
97 105 105
95 102 101
93 100 100
97 105 103
91 99 97
89 99 96
83 94 87
88 96 91
84 96 88
78 89 80
76 92 78
71 87 72
69 87 70
64 90 65
68 89 69
67 89 65
66 91 67
65 90 64
66 91 67
61 86 61
63 85 62
60 86 59
64 85 64
57 74 57
58 75 59
59 69 60
66 77 67
75 86 75
70 82 70
72 83 74
75 85 78
79 89 83
82 92 87
83 92 89
92 99 97
88 98 94
91 100 97
92 101 99
92 102 99
94 103 99
94 102 101
94 102 100
100 108 107
101 109 112
98 105 107
98 106 108
100 107 108
96 104 105
103 111 115
100 108 109
100 107 108
103 110 113
104 109 112
100 106 109
103 109 113
100 105 110
102 109 113
100 105 109
101 107 111
103 107 112
100 107 112
102 109 113
100 107 111
104 111 115
105 110 114
105 111 116
101 107 111
101 106 111
102 108 113
104 109 113
103 109 113
104 110 115
107 113 118
103 108 113
105 112 116
108 113 119
104 110 114
104 110 115
103 108 112
104 110 116
102 107 113
108 112 117
103 109 112
104 111 117
103 109 113
106 112 116
107 112 118
104 110 115
104 109 114
106 112 118
101 106 113
104 109 114
105 110 115
107 112 118
104 110 114
106 111 115
105 111 114
105 111 116
107 112 116
105 109 113
107 112 118
106 112 118
106 112 118
108 112 118
106 111 116
108 113 119
105 110 116
106 111 115
105 109 115
104 110 114
104 110 113
105 111 115
106 112 117
106 111 118
105 110 115
105 110 115
106 112 117
106 111 116
104 109 114
108 113 118
103 108 112
104 110 116
107 113 118
105 109 113
107 111 117
106 111 117
107 112 117
106 111 115
107 112 117
104 110 114
108 113 119
106 112 118
107 113 117
105 111 117
108 114 119
105 110 115
110 115 120
109 114 120
109 114 119
108 113 120
108 114 119
105 111 115
108 113 118
107 112 117
106 111 116
108 113 118
108 114 119
109 113 118
107 112 117
105 110 114
104 110 114
106 111 117
106 111 114
108 113 118
109 116 120
106 111 114
108 114 118
110 115 120
107 113 117
110 116 120
107 113 117
110 116 122
109 115 121
107 113 116
103 109 115
109 116 121
106 110 115
108 114 119
109 115 121
108 113 116
110 116 121
106 111 116
108 114 119
108 113 118
109 116 120
109 114 118
105 111 116
109 114 119
107 113 117
107 113 117
107 113 118
107 112 118
108 114 118
107 112 118
106 112 115
106 112 116
106 112 116
107 113 118
109 115 119
107 112 116
108 114 118
108 114 119
108 114 118
109 114 118
107 113 117
111 116 121
107 112 117
106 113 114
109 118 116
108 119 112
103 111 108
107 119 111
106 123 103
106 123 102
107 124 102
104 125 94
105 124 95
104 125 90
105 125 96
106 123 102
103 127 90
104 124 94
105 126 93
102 124 92
106 124 99
104 118 103
106 121 102
102 119 98
109 118 114
101 109 106
104 111 114
106 110 116
104 110 113
106 111 117
108 112 117
103 107 114
109 114 119
107 112 117
106 111 118
105 109 116
100 106 111
106 112 116
104 110 114
106 110 117
105 109 114
103 107 113
106 112 115
106 111 117
104 109 113
106 110 115
107 111 117
104 109 113
101 106 110
102 106 112
105 110 115
101 105 110
105 110 115
104 108 115
103 108 111
104 108 116
103 107 112
103 107 115
102 106 111
101 104 110
102 106 112
104 108 113
100 104 109
99 102 108
99 102 109
108 113 119
102 105 112
105 109 115
106 110 116
101 103 110
100 102 109
102 106 111
105 109 115
104 107 114
101 105 112
102 105 113
100 101 109
97 99 106
102 106 113
103 106 113
103 107 112
98 101 108
105 108 114
102 105 112
104 108 115
104 108 115
106 110 117
93 95 104
103 106 113
104 108 116
100 103 110
104 107 113
103 108 116
102 106 114
105 108 115
106 111 118
104 107 115
105 110 116
105 109 115
104 109 117
101 106 113
99 102 110
102 106 115
103 107 116
104 109 118
104 108 117
102 106 115
99 103 113
97 101 111
101 105 113
105 109 117
99 103 112
101 105 116
103 106 115
91 94 105
92 96 106
93 97 106
94 96 109
91 92 105
95 98 109
86 88 103
94 96 105
88 91 105
92 94 104
90 92 102
79 80 93
85 87 97
75 74 91
74 75 88
82 81 95
66 64 81
68 66 80
69 69 85
75 76 87
66 66 81
72 71 87
68 69 81
69 70 82
72 72 86
77 79 94
76 78 94
78 80 96
75 77 91
81 83 100
89 93 105
88 92 105
84 86 102
87 90 104
84 86 101
91 94 108
92 97 110
92 96 111
93 98 109
85 90 105
64 69 103
46 53 99
43 50 109
46 55 116
42 50 106
48 57 119
45 52 110
44 52 109
45 53 110
46 55 113
46 55 111
47 55 113
45 52 110
47 54 113
45 53 111
44 49 103
44 50 107
44 51 107
45 51 109
44 51 106
45 52 108
45 51 108
45 53 108
56 62 108
90 95 115
100 105 114
104 108 114
106 111 118
109 114 119
105 110 115
105 110 117
107 112 119
106 111 116
108 114 120
108 114 119
109 115 121
109 114 120
105 111 117
103 108 114
113 101 106
142 115 121
171 137 151
187 154 176
191 155 178
192 155 179
194 156 180
196 156 180
190 150 174
196 161 185
191 157 182
194 158 183
195 159 184
195 159 184
195 159 184
196 157 182
192 156 181
196 161 186
192 156 180
195 155 179
195 154 177
194 156 180
195 157 180
194 155 178
187 149 171
185 144 165
174 137 157
161 133 154
137 123 144
117 121 145
117 128 154
112 126 152
114 129 155
113 128 152
114 128 152
122 138 163
110 123 150
114 128 154
119 134 161
119 134 160
121 136 162
121 137 162
114 131 154
118 134 161
123 140 166
122 139 163
118 133 158
124 142 167
119 135 162
125 142 168
120 136 162
124 141 166
120 136 162
127 144 169
124 141 167
120 136 162
121 137 160
127 144 169
126 143 168
126 143 168
125 143 169
120 136 159
126 143 168
126 143 168
124 142 166
128 145 169
127 144 169
128 146 169
126 143 168
127 144 169
123 140 163
127 144 170
130 147 172
121 138 163
127 144 169
129 147 171
127 144 168
129 147 170
131 149 173
130 148 171
132 150 174
126 144 167
105 120 139
74 87 99
42 51 55
28 37 37
29 37 37
31 40 39
28 37 37
30 39 39
29 38 38
28 37 37
28 38 37
30 39 39
30 40 39
30 39 38
29 38 37
28 37 36
29 38 38
29 38 37
30 39 38
30 38 37
31 40 39
30 39 38
31 41 40
30 39 38
28 37 37
30 39 38
30 38 38
31 41 41
32 41 40
31 40 39
32 41 40
31 40 40
32 42 41
31 40 39
31 41 40
30 39 38
31 40 39
30 40 39
31 41 40
31 41 40
32 41 40
32 42 41
30 39 38
30 39 38
31 40 39
31 41 39
31 40 39
32 42 41
31 40 40
31 41 39
29 38 38
31 40 39
32 42 41
32 42 41
31 41 40
31 41 40
31 40 39
30 39 39
30 40 38
30 40 39
31 42 41
31 40 39
31 41 40
31 41 39
32 42 41
31 41 39
31 41 40
33 43 42
32 42 41
30 39 38
31 41 40
32 43 41
32 42 41
31 41 41
31 41 40
33 43 42
31 41 40
32 42 42
31 41 40
32 42 41
31 41 40
33 43 42
32 42 41
32 42 41
31 41 40
32 42 41
31 42 41
31 41 41
32 42 42
31 41 40
39 50 52
84 98 112
112 128 147
126 145 166
130 148 172
131 149 172
124 142 164
131 149 171
128 146 169
134 152 175
133 151 174
130 148 171
129 147 170
132 150 173
130 148 171
132 150 174
127 146 169
133 150 173
129 146 167
133 151 175
128 145 168
130 148 172
127 144 164
131 149 172
131 149 173
131 150 174
133 152 175
132 150 174
129 147 168
126 144 166
128 146 168
130 149 173
133 152 175
129 147 171
129 147 169
133 152 175
128 146 167
129 148 171
129 147 170
127 145 167
121 138 156
116 132 150
112 125 138
102 113 123
93 104 114
92 102 107
96 106 112
99 108 114
95 103 110
88 97 104
95 106 113
94 104 109
94 104 109
96 105 111
95 104 110
102 112 119
105 116 123
103 113 119
97 107 113
100 111 117
95 106 112
101 112 117
96 105 110
97 106 112
102 111 117
97 107 113
94 103 111
94 104 111
94 103 110
90 98 104
102 112 119
100 110 115
96 104 111
105 115 121
100 110 116
102 111 118
103 113 120
102 111 119
97 107 114
98 107 115
97 106 115
94 103 110
94 107 110
85 107 89
65 103 43
64 106 20
66 110 16
65 108 16
65 109 16
64 108 16
65 109 16
64 108 16
64 107 16
64 109 16
65 109 16
66 111 16
66 111 16
65 108 16
66 110 16
64 108 16
66 111 17
64 108 16
66 110 16
65 108 16
66 111 16
65 109 16
67 113 17
66 111 16
66 111 16
66 112 17
66 111 16
65 109 16
67 113 17
65 109 16
66 111 17
64 107 16
66 112 17
68 113 17
67 113 17
66 112 17
67 113 17
67 113 17
66 112 17
65 110 16
68 114 17
67 114 17
66 112 17
67 112 17
67 113 17
68 115 17
67 112 17
67 113 17
69 114 17
68 115 17
68 115 17
68 115 17
68 115 17
66 112 17
68 114 17
67 113 17
66 111 16
68 113 17
69 116 17
68 115 17
67 112 16
70 114 30
93 125 103
123 143 158
