P3
1600 1
255
88 41 116
90 43 120
88 41 117
90 42 119
88 41 117
90 43 119
90 42 119
90 42 119
88 42 118
88 41 115
89 42 116
89 42 117
88 41 116
92 43 121
90 42 119
91 42 119
91 43 119
89 42 117
90 42 119
91 43 120
89 42 118
90 42 118
91 42 117
87 41 115
88 41 116
88 41 116
88 41 115
87 40 114
86 40 114
89 42 116
88 41 115
89 42 117
89 42 117
87 41 115
87 40 112
86 41 114
88 41 116
86 40 114
90 42 117
88 41 116
88 41 115
87 40 114
88 41 115
87 41 114
87 41 113
86 40 113
85 40 111
99 78 128
127 140 169
133 151 176
131 149 173
132 150 173
134 152 177
131 150 172
134 152 176
134 152 176
133 152 176
130 147 171
134 153 178
134 153 177
131 150 175
130 148 173
133 150 174
131 149 174
127 146 170
131 149 173
132 151 175
125 142 167
131 150 175
130 148 171
134 153 178
131 150 174
131 150 174
133 151 174
131 150 174
131 147 171
130 149 172
132 151 176
130 147 171
135 154 178
132 151 175
132 149 173
132 150 174
132 151 176
128 146 170
132 151 176
127 145 169
131 149 174
133 151 174
132 150 174
136 154 178
134 152 176
132 151 174
131 149 173
132 150 174
130 148 171
132 150 174
131 149 174
133 152 175
132 149 174
131 149 172
130 149 172
132 151 175
133 151 176
134 151 175
132 150 173
132 150 174
130 148 171
133 151 176
132 150 174
129 147 170
130 148 172
127 145 169
130 148 172
130 149 173
133 152 176
132 150 175
134 152 177
129 148 172
129 147 171
133 152 176
135 153 178
132 150 173
129 147 171
133 151 175
131 149 172
129 148 172
132 150 173
133 151 174
127 146 171
130 149 174
131 149 173
131 149 173
134 153 177
133 152 176
132 150 174
133 151 175
126 144 167
132 150 175
131 149 173
128 146 169
131 149 172
132 151 174
131 149 172
131 149 172
134 153 177
129 147 170
127 144 164
116 132 148
109 124 133
100 114 119
68 84 67
46 70 15
41 67 1
43 68 1
43 68 1
42 68 1
40 64 1
43 69 1
43 70 1
43 68 1
42 69 1
43 70 1
44 70 1
43 70 1
42 66 1
44 70 1
41 67 1
43 70 1
43 69 1
43 69 1
42 68 1
42 67 1
41 66 1
41 65 1
41 67 1
45 73 1
41 67 1
42 67 1
42 67 1
42 67 1
41 67 1
42 68 1
44 71 1
42 67 1
42 68 1
44 71 1
42 68 1
42 69 1
43 69 1
41 67 1
44 71 1
43 68 1
42 68 1
42 69 1
42 69 1
42 68 1
43 69 1
42 69 1
42 68 1
42 69 1
42 68 1
42 69 1
41 67 1
43 70 1
41 66 1
41 67 1
44 72 1
42 68 1
42 67 1
44 71 1
41 66 1
43 69 1
43 70 1
44 71 1
41 66 1
43 70 1
41 67 1
43 69 1
40 66 1
40 66 1
41 67 1
42 69 1
42 68 1
42 68 1
41 66 1
41 66 1
40 64 1
41 66 1
40 65 1
41 66 1
39 62 1
40 65 1
41 66 1
40 65 1
40 65 1
41 66 1
41 64 1
41 67 1
38 62 1
38 61 1
38 61 1
37 60 1
36 58 1
44 65 36
89 107 112
118 136 155
124 141 164
129 147 172
126 144 170
128 146 170
125 143 165
126 144 168
126 144 168
127 146 170
126 145 169
119 138 162
126 144 168
124 143 168
127 146 170
128 147 171
128 143 168
107 114 137
102 102 129
91 91 111
84 86 103
74 78 88
73 78 88
65 72 74
33 45 21
30 44 1
30 43 1
30 44 1
31 46 1
51 59 53
68 73 77
87 90 104
74 77 87
94 97 114
102 103 125
110 112 138
126 128 159
121 126 156
115 118 147
118 120 150
126 126 160
131 129 166
148 148 188
147 147 185
142 141 181
136 136 176
146 148 187
136 137 176
143 144 184
141 143 183
142 145 185
149 149 190
145 147 186
140 143 182
148 150 189
147 149 188
152 153 193
145 144 186
141 140 181
148 146 186
140 138 177
143 142 180
145 145 182
148 148 184
137 139 169
147 151 182
140 142 174
140 145 167
144 149 172
142 145 167
149 150 178
133 136 157
129 131 153
127 132 150
124 128 144
134 137 159
128 130 145
117 122 134
128 133 148
118 124 135
123 125 143
119 125 137
124 125 144
124 123 147
130 131 161
128 124 148
121 120 146
125 122 151
125 119 150
126 124 156
128 124 156
126 125 158
124 123 155
132 131 165
129 126 157
137 134 172
133 128 164
133 131 168
131 129 167
134 132 168
130 130 166
134 133 170
136 135 173
130 130 166
127 126 161
137 136 175
121 121 156
123 122 158
115 116 151
110 116 147
119 132 156
122 141 167
130 149 173
124 142 166
126 145 169
126 146 169
130 150 174
127 146 169
126 145 170
127 145 169
133 151 176
125 144 168
130 149 175
126 145 169
127 147 172
130 148 173
127 146 170
132 150 174
127 145 167
129 148 173
126 148 169
124 177 111
120 193 40
121 195 28
120 193 27
121 195 28
124 199 28
122 196 28
120 193 27
123 197 28
121 193 27
121 194 28
122 195 28
122 195 28
120 195 28
123 195 28
125 198 28
119 191 27
121 194 27
121 196 28
123 199 28
121 192 27
123 199 28
121 195 27
121 191 27
120 190 27
122 194 27
121 193 27
124 197 28
121 190 27
119 188 27
122 193 27
122 194 27
119 190 27
122 196 28
120 192 27
123 195 28
122 194 27
120 191 27
119 188 27
119 189 27
119 190 27
122 195 28
119 191 27
119 189 27
118 188 27
117 188 27
118 190 27
121 192 27
120 191 27
119 191 27
117 187 27
115 184 26
118 188 27
121 193 27
120 192 27
118 190 27
115 186 26
118 191 27
120 192 27
117 186 26
115 181 25
116 187 27
112 181 26
116 187 26
113 180 25
117 187 26
115 186 26
115 183 26
113 182 26
116 185 37
117 152 138
123 144 167
125 146 168
128 147 170
124 145 167
127 147 170
126 146 169
128 147 170
127 147 172
124 144 167
128 147 171
128 148 169
127 146 169
125 147 170
127 147 171
125 144 168
129 148 171
123 145 168
126 146 169
126 146 170
126 146 170
124 144 166
127 146 168
127 147 170
125 144 166
124 144 166
125 146 170
129 148 170
129 146 168
147 162 183
157 174 197
153 170 193
146 162 183
148 164 188
144 162 187
141 159 183
137 154 177
133 151 174
138 156 179
136 153 176
135 153 177
136 155 179
137 155 179
137 155 180
137 155 180
139 158 181
135 154 176
134 151 174
136 155 178
136 155 179
129 147 170
136 154 178
135 153 177
131 150 173
133 151 174
137 156 181
133 150 175
134 152 176
135 154 175
133 153 177
133 153 176
135 154 179
135 154 177
137 156 180
129 146 169
134 155 177
135 154 177
135 154 179
137 156 181
134 153 177
134 151 176
134 154 176
132 151 174
137 157 182
137 157 182
133 151 175
133 151 173
135 154 178
134 153 177
134 154 175
134 153 177
133 151 174
133 151 175
136 156 179
135 154 178
138 157 182
132 150 171
134 152 172
138 156 179
134 153 175
136 154 175
137 156 180
134 153 175
137 156 176
138 157 179
134 151 175
137 155 178
135 154 177
140 157 180
135 152 173
132 147 168
142 160 179
147 164 182
143 160 177
149 169 187
138 157 179
127 145 167
132 150 174
131 149 172
134 152 176
130 148 171
131 150 172
130 148 172
132 151 174
135 154 176
134 153 176
134 152 176
130 149 172
135 154 178
131 149 172
134 151 174
131 150 173
130 148 169
133 152 175
136 154 178
132 149 173
133 152 174
132 149 171
129 149 170
133 151 175
130 150 173
130 149 172
131 149 172
134 152 175
134 153 176
132 151 174
133 152 175
132 149 173
131 150 173
134 153 175
131 147 169
130 148 170
132 150 173
130 148 171
132 151 174
136 154 177
135 153 176
133 151 175
132 149 172
131 148 171
132 152 173
131 148 171
131 150 172
131 149 171
131 148 172
133 152 176
131 149 173
132 151 173
133 151 174
135 152 175
131 150 172
134 152 175
131 150 172
130 149 171
132 149 173
132 150 174
130 148 172
131 150 172
132 150 171
129 148 169
130 148 172
116 125 151
110 109 144
104 91 136
80 42 106
85 33 113
80 32 107
84 33 110
82 32 108
83 33 111
83 33 111
81 32 108
82 32 110
83 33 111
84 33 111
80 31 107
80 32 107
82 32 109
84 33 110
85 33 110
80 32 106
79 31 104
82 32 109
88 34 115
86 34 111
86 33 112
81 32 106
82 33 110
81 31 105
82 32 108
80 32 108
83 32 109
83 32 109
81 31 105
87 34 111
83 32 107
79 31 103
79 31 104
84 33 110
76 29 98
82 31 104
81 32 106
82 31 104
81 32 106
80 31 106
82 31 104
77 30 100
76 29 100
80 31 103
79 30 102
79 31 103
81 32 105
79 31 103
83 32 108
83 32 105
79 31 105
82 31 105
79 30 102
77 30 101
81 32 105
80 31 103
76 30 99
79 30 102
77 30 100
79 30 100
73 29 95
75 28 95
79 31 103
77 30 102
78 30 99
73 29 96
78 30 99
74 36 96
70 35 88
57 49 73
60 81 67
49 85 50
49 93 43
52 95 45
51 98 46
54 105 49
54 105 48
61 122 55
56 108 50
58 113 53
60 115 53
60 118 53
56 112 51
59 117 53
64 126 56
65 128 58
65 129 58
65 127 58
64 127 57
65 128 58
62 126 57
68 139 63
67 131 59
70 138 62
63 128 56
64 125 57
67 131 59
66 131 59
64 128 57
62 126 57
65 129 58
67 134 58
65 131 60
63 126 57
66 132 59
62 129 56
66 131 58
68 139 62
60 123 54
65 133 58
68 133 63
72 128 78
88 130 103
103 137 127
114 146 143
120 141 151
127 145 164
126 146 165
127 145 166
128 149 165
126 144 163
131 148 169
133 151 173
128 147 166
128 145 167
130 147 167
123 143 160
131 147 170
126 145 163
130 146 167
128 144 163
132 147 170
128 145 165
129 146 166
131 148 170
128 145 167
125 141 163
130 147 168
130 146 168
130 147 168
129 145 167
130 146 168
133 149 171
129 146 167
131 148 169
128 145 164
128 144 164
130 145 168
125 141 162
127 144 163
130 148 167
126 144 163
131 145 167
130 147 168
128 143 164
131 148 169
127 142 163
131 148 169
131 146 168
127 145 164
127 144 164
130 147 168
129 144 167
129 144 165
132 146 170
127 142 163
127 143 164
133 146 169
130 143 168
130 146 168
133 147 169
126 143 163
130 145 167
126 140 161
127 140 163
128 144 165
129 144 167
134 148 171
130 147 170
124 137 159
132 148 171
132 148 170
132 147 169
129 145 167
133 147 170
129 144 167
129 143 164
132 146 170
132 147 169
121 137 154
132 147 170
129 143 164
130 141 164
113 121 132
110 114 118
109 113 118
109 114 120
110 114 120
108 112 117
108 112 118
105 111 115
107 111 116
102 106 111
107 111 116
96 99 106
62 62 83
23 17 60
18 11 53
20 12 60
18 11 55
20 12 60
20 12 63
20 12 63
20 12 59
19 11 58
18 11 56
21 13 65
21 13 63
22 13 68
22 14 69
21 13 64
22 14 70
22 13 66
22 14 70
20 12 63
21 13 66
20 12 62
19 12 61
21 13 66
49 49 74
74 77 87
74 77 84
79 81 90
91 93 100
83 85 93
89 94 101
93 97 103
89 93 99
88 93 100
92 96 103
93 97 103
93 98 104
98 102 108
91 96 102
95 99 105
96 99 102
97 102 108
99 104 109
98 103 109
100 105 110
100 104 109
103 109 114
99 103 108
100 104 108
99 104 110
97 100 105
102 105 109
103 108 113
101 106 111
99 104 108
99 105 107
104 110 113
102 107 110
100 105 108
101 107 110
103 108 113
99 106 109
103 109 113
102 108 110
96 101 104
99 104 107
103 108 112
103 108 112
101 108 112
100 106 111
101 108 110
99 106 108
96 102 104
96 102 105
98 103 104
95 101 104
100 106 108
94 102 102
97 101 103
95 101 103
97 104 103
94 101 99
97 104 106
98 105 103
96 102 104
94 100 100
94 101 100
93 101 101
94 100 101
92 98 100
94 101 102
93 101 100
99 105 106
101 108 109
99 106 105
95 103 103
97 105 106
97 102 103
96 102 103
99 105 106
95 102 102
97 105 104
97 104 105
97 104 104
101 106 109
95 102 103
100 107 109
100 106 107
102 109 111
97 104 106
99 106 106
100 106 109
96 102 103
103 110 113
99 106 109
98 103 105
102 108 111
99 104 107
105 110 114
102 108 112
100 106 110
98 104 105
106 111 115
103 108 111
105 110 114
103 109 114
105 111 116
104 108 113
103 107 110
100 105 110
104 111 115
102 107 111
103 109 112
102 107 110
106 112 116
103 108 113
105 111 115
108 113 118
103 108 113
104 109 113
103 108 112
107 113 118
102 108 111
106 110 114
107 112 116
102 106 110
105 110 115
104 110 114
103 107 111
104 109 114
107 112 118
104 110 115
107 113 117
109 114 119
103 107 112
106 112 117
105 109 115
106 111 115
105 110 115
105 110 115
105 109 113
108 113 117
104 107 111
103 107 111
105 109 113
105 110 115
103 108 110
103 108 111
104 109 113
106 111 116
104 108 112
106 112 116
103 108 110
106 112 116
104 108 112
106 111 116
102 107 111
106 109 113
106 111 116
105 111 115
103 109 113
104 110 115
105 109 112
103 108 112
104 108 113
107 112 115
106 112 116
105 109 115
104 109 113
105 110 114
105 110 114
104 109 114
100 105 109
106 111 114
105 110 114
104 109 114
106 111 115
107 111 115
106 111 116
104 110 113
102 107 110
105 109 113
102 107 110
107 112 116
107 113 118
104 109 110
100 106 108
104 110 114
106 112 116
103 108 112
103 109 113
103 109 113
105 111 115
106 111 115
103 108 111
103 108 112
101 107 110
105 111 115
104 109 113
101 106 109
103 110 113
106 112 116
106 112 116
105 110 113
102 107 109
100 106 107
103 109 111
100 106 107
107 112 116
102 108 108
105 112 116
101 109 111
104 109 114
105 111 112
104 110 112
100 105 108
104 110 112
101 108 110
104 111 114
100 107 107
102 109 108
108 115 119
102 111 108
101 116 98
92 117 71
95 125 59
93 130 43
97 136 43
93 129 41
97 136 43
93 130 41
94 131 41
94 130 41
97 136 43
101 139 44
93 131 42
93 129 41
94 130 41
95 132 42
92 127 40
94 131 41
96 132 42
96 133 42
92 128 41
96 135 43
90 126 40
93 130 41
97 135 43
95 134 43
93 130 41
93 130 41
96 132 42
93 128 40
94 131 42
96 131 41
93 127 40
96 132 42
93 128 40
94 129 41
97 136 43
95 132 42
94 130 41
95 131 41
96 132 42
95 132 41
93 128 41
93 127 40
96 133 42
96 131 42
93 129 41
92 128 40
93 128 41
94 129 41
93 130 41
92 128 41
94 130 42
92 128 40
96 133 42
91 125 40
93 127 41
93 129 41
94 130 42
92 122 54
94 119 72
100 113 98
106 113 117
102 107 112
104 110 114
101 105 109
102 107 111
103 108 113
105 110 115
103 108 113
105 109 113
107 112 116
97 101 106
103 108 111
103 109 111
103 109 111
103 107 111
100 106 110
105 110 115
101 105 110
99 104 107
107 111 116
102 106 112
106 110 116
100 104 107
106 111 118
100 105 109
104 108 115
104 109 114
103 107 113
106 110 115
103 107 112
106 110 115
103 108 115
104 109 115
104 107 113
96 100 104
104 107 114
103 106 112
101 104 110
102 106 111
100 103 109
105 109 114
104 109 115
101 104 110
105 108 115
104 108 114
104 109 115
100 104 110
104 107 113
102 107 113
98 100 108
102 107 114
100 103 109
105 109 114
100 104 110
103 107 115
105 109 115
99 104 112
101 106 112
99 102 110
101 105 110
101 104 113
102 105 110
101 105 111
101 105 113
102 106 112
101 103 109
101 105 112
97 99 108
99 102 108
102 106 111
99 101 108
96 99 106
97 100 109
98 102 109
98 102 109
97 100 109
97 102 111
96 99 109
95 98 105
98 101 109
100 103 113
91 94 104
100 104 112
92 96 106
95 99 108
91 92 101
93 97 106
90 94 106
88 91 101
89 91 101
87 91 103
89 93 105
93 96 105
89 91 101
92 96 105
81 84 97
81 84 94
84 85 98
77 80 95
83 86 98
66 68 85
71 74 87
69 70 80
56 57 72
53 54 72
44 47 77
34 41 86
33 40 84
36 42 89
34 41 86
40 40 85
55 43 86
67 44 84
75 47 86
82 48 83
87 51 86
88 50 86
86 50 85
88 50 84
90 51 88
87 50 84
88 50 85
91 52 88
89 51 86
92 52 88
89 51 85
86 49 83
88 50 85
89 51 86
91 58 90
99 91 106
102 104 111
106 110 116
106 110 117
106 111 117
106 110 117
105 107 114
108 113 119
113 118 125
107 99 105
119 98 103
144 113 119
164 133 147
177 149 172
185 158 186
182 155 182
181 154 181
181 154 181
179 153 181
176 150 175
177 151 177
178 153 180
175 152 180
175 151 179
175 151 179
177 154 184
176 154 184
177 155 185
177 155 185
176 154 184
178 157 189
177 156 187
178 157 189
179 158 191
179 159 192
180 159 192
181 160 193
182 161 195
182 161 195
182 161 195
183 161 195
183 161 195
183 161 195
184 162 195
184 162 195
184 162 195
185 162 195
186 163 195
185 162 195
186 163 195
187 163 195
188 164 195
189 164 195
189 164 195
191 165 195
191 165 195
193 165 195
193 165 195
195 166 195
196 167 195
198 167 195
199 168 195
201 169 195
202 168 194
202 166 191
189 155 178
191 157 180
185 150 172
185 147 168
167 133 153
130 130 150
128 146 171
132 149 174
128 145 169
132 150 174
130 148 172
131 149 174
128 147 171
131 149 173
124 141 164
130 148 173
132 150 174
131 149 174
130 148 172
130 148 171
130 148 172
129 147 172
128 145 170
130 148 173
132 150 175
131 148 172
132 150 175
131 150 175
133 151 176
128 145 170
124 141 166
126 145 169
134 152 176
130 147 171
133 151 175
131 149 173
111 125 144
80 91 104
51 59 67
27 35 34
26 34 34
26 34 34
27 35 35
28 36 36
26 34 34
25 33 32
27 35 35
25 33 33
27 35 35
26 34 34
26 34 33
28 36 36
27 35 35
27 35 35
27 35 34
28 37 36
28 37 37
27 34 34
28 37 36
28 37 36
27 35 35
30 38 38
27 35 35
28 36 35
29 38 37
28 36 35
29 37 37
29 37 36
30 38 38
28 37 36
26 35 34
29 37 37
29 37 35
30 39 39
28 36 35
28 37 36
30 39 38
29 37 36
30 39 38
29 38 37
30 38 38
29 38 37
30 39 38
29 38 37
30 39 38
28 37 35
29 38 36
29 38 37
28 37 36
30 38 37
28 37 36
28 36 35
29 38 37
29 37 36
29 38 38
29 38 36
29 38 37
29 38 37
29 38 37
30 39 38
26 34 34
29 38 37
29 37 36
27 37 36
29 37 36
28 37 36
29 39 38
30 40 39
29 39 37
30 39 38
29 38 37
27 36 35
27 35 34
29 38 37
29 38 37
27 35 34
28 37 36
30 39 38
28 37 36
29 38 37
29 38 37
26 35 34
29 38 38
28 38 37
29 38 38
29 38 37
39 48 49
88 102 116
106 120 137
125 143 165
124 141 162
127 143 166
126 143 164
121 137 158
126 142 163
127 144 166
130 147 169
123 140 162
127 144 167
125 142 165
120 136 155
127 145 167
121 138 161
119 135 155
121 137 157
125 141 162
121 138 159
122 139 161
121 137 157
122 139 160
127 143 164
120 137 157
122 138 157
119 135 155
116 131 150
116 131 149
116 131 151
114 129 148
111 126 145
116 131 150
114 128 147
114 128 147
100 113 129
111 125 143
110 124 141
102 115 131
106 119 135
110 124 140
106 120 137
91 101 115
101 113 128
99 111 126
102 113 128
98 110 124
97 108 122
85 94 108
88 98 110
77 85 94
93 104 117
89 98 109
91 101 114
81 91 103
81 89 101
85 93 104
70 77 84
71 78 88
72 81 87
72 79 89
73 80 90
67 74 81
59 65 72
63 68 76
51 56 61
57 63 70
63 69 76
63 69 76
60 71 65
53 87 16
61 102 15
60 100 15
62 103 15
62 101 15
61 101 15
60 100 15
58 96 14
59 98 14
62 103 15
61 100 15
58 97 14
63 105 16
60 100 15
63 104 15
61 102 15
62 103 15
62 104 15
62 103 15
61 101 15
62 103 15
61 101 15
59 97 14
61 102 15
61 102 15
59 98 14
59 97 14
61 102 15
62 102 15
64 107 16
61 102 15
63 105 16
63 105 15
63 105 16
63 104 16
62 102 15
64 107 16
62 104 15
63 106 16
61 103 15
63 106 16
64 106 16
63 105 16
63 105 15
62 105 15
62 104 15
62 104 15
62 104 15
62 104 15
65 108 16
64 107 16
63 105 15
65 107 16
63 106 16
63 105 16
64 107 16
61 103 15
64 106 16
63 105 16
65 108 16
63 106 16
63 104 15
63 106 16
63 105 16
65 109 16
66 110 16
66 111 16
65 109 16
62 104 15
65 109 16
65 108 16
66 111 16
63 104 15
65 108 16
63 105 15
64 107 16
66 111 17
