P3
1600 1
255
89 42 117
90 42 119
89 42 117
90 42 119
87 41 115
90 42 118
90 42 118
89 42 118
88 41 118
88 41 115
89 41 116
87 41 115
88 41 115
90 42 118
89 42 117
90 42 119
90 42 119
88 41 115
89 42 118
89 42 118
87 41 115
92 43 119
88 41 115
88 41 117
87 41 114
86 41 115
88 41 113
88 41 116
89 42 117
86 40 112
88 41 115
87 41 114
88 41 116
87 40 113
87 41 114
87 41 114
90 42 117
87 41 116
86 40 114
87 41 115
90 41 116
85 39 111
87 41 114
88 41 115
85 39 111
86 41 113
84 40 111
84 39 111
90 42 117
97 73 128
119 128 157
135 153 178
133 151 175
131 149 173
135 153 177
133 151 176
129 146 170
133 152 177
134 153 178
131 149 174
130 148 173
133 151 176
129 147 172
127 145 169
134 152 176
132 150 175
123 140 165
128 146 171
133 151 175
132 151 175
131 149 173
133 152 176
131 149 173
132 150 174
131 150 175
130 146 169
133 152 176
129 148 173
134 152 176
132 150 174
132 150 175
130 148 172
132 151 175
128 146 169
132 151 174
127 145 168
132 151 175
131 149 171
135 153 176
134 152 176
132 151 175
131 149 172
132 151 175
132 151 175
129 147 171
130 148 171
129 147 171
131 150 174
133 151 175
126 144 166
131 150 174
130 150 174
132 150 174
132 149 172
131 148 172
133 151 175
130 147 171
132 150 175
132 150 173
128 146 168
131 149 173
129 147 171
128 146 170
131 150 174
131 149 173
131 150 174
133 152 177
126 145 169
129 148 171
132 151 176
136 154 179
131 149 173
132 150 173
135 153 177
130 148 171
129 148 172
130 148 171
130 149 172
129 147 170
133 152 176
132 150 174
127 145 168
132 150 174
136 155 180
130 148 171
131 150 173
128 146 169
130 148 172
127 145 167
127 145 167
131 149 172
130 147 170
129 147 168
130 148 172
128 146 170
133 152 175
128 145 167
129 147 170
130 148 171
124 142 163
116 131 143
83 100 100
42 66 19
42 67 1
43 68 1
41 66 1
41 65 1
42 68 1
43 70 1
43 68 1
41 67 1
43 70 1
43 69 1
43 70 1
39 64 1
42 67 1
42 68 1
42 68 1
43 69 1
42 67 1
42 68 1
43 69 1
41 65 1
41 67 1
41 66 1
42 67 1
42 67 1
41 66 1
41 66 1
41 67 1
42 69 1
41 67 1
44 70 1
41 65 1
42 67 1
42 68 1
39 63 1
44 70 1
41 67 1
41 66 1
43 68 1
41 67 1
42 68 1
41 66 1
42 69 1
43 69 1
41 68 1
41 68 1
42 69 1
42 67 1
41 67 1
39 64 1
44 71 1
41 66 1
41 66 1
44 71 1
43 69 1
43 69 1
43 69 1
41 65 1
45 73 1
41 66 1
41 68 1
40 65 1
43 70 1
40 65 1
42 67 1
41 68 1
42 69 1
40 66 1
41 68 1
41 67 1
41 67 1
42 67 1
40 66 1
41 66 1
40 65 1
41 67 1
40 65 1
41 67 1
40 64 1
42 68 1
41 66 1
42 68 1
37 59 1
41 66 1
41 65 1
41 67 1
39 63 1
39 62 1
38 62 1
39 62 1
37 60 1
36 58 1
38 60 18
68 85 84
106 123 138
125 143 168
123 141 162
123 141 164
127 144 167
126 144 167
127 147 171
121 138 161
123 141 164
124 141 164
126 145 170
129 147 171
128 146 170
127 145 168
126 145 168
123 138 161
114 120 150
105 107 133
91 92 112
77 80 97
75 79 93
58 65 66
50 58 53
33 43 26
29 42 1
28 40 1
31 45 1
31 45 1
37 48 28
49 55 51
64 69 74
66 70 77
77 79 93
106 108 132
103 103 129
108 110 136
104 108 133
120 120 150
127 127 159
125 126 159
136 134 171
141 141 179
125 124 161
137 136 175
132 132 170
130 130 170
138 138 175
134 136 174
139 141 178
140 141 180
134 135 174
137 138 177
142 144 183
145 147 187
139 141 178
144 144 181
142 142 179
137 137 175
144 142 181
142 139 176
147 147 183
146 146 185
135 139 165
140 144 170
136 139 168
135 140 172
136 139 168
138 142 165
129 136 153
131 132 155
125 129 149
123 127 149
127 131 146
120 124 138
123 124 144
118 119 132
123 128 148
120 124 138
118 124 137
121 127 137
122 127 140
110 109 126
113 113 132
116 115 133
107 106 129
115 112 137
117 117 143
122 119 150
119 116 147
127 125 157
127 124 155
121 120 152
125 123 155
128 125 160
125 123 158
127 123 159
131 128 164
133 128 165
136 133 169
125 125 162
129 126 163
131 130 166
127 126 164
122 120 156
122 124 161
118 118 156
126 127 164
104 106 136
113 121 153
118 132 158
130 148 173
130 149 173
130 149 172
128 147 172
128 147 172
126 145 169
127 147 171
132 151 175
130 149 174
134 153 177
129 148 173
130 150 174
128 148 172
128 147 172
130 149 174
132 151 175
130 150 175
124 146 168
124 176 114
121 194 33
118 192 27
122 197 28
120 192 27
119 192 27
121 192 27
123 198 28
120 191 27
122 197 28
123 196 28
119 191 27
121 194 28
119 191 27
122 197 28
122 197 28
124 199 28
120 189 27
121 194 27
121 194 27
118 188 27
121 194 27
121 194 27
118 187 27
117 186 26
121 191 27
121 191 27
123 194 27
120 192 27
119 191 27
122 192 27
122 195 27
117 188 27
119 189 27
120 190 27
121 193 27
119 189 27
121 191 27
118 185 26
116 186 26
118 190 27
118 188 27
117 185 26
119 189 27
116 187 26
118 187 26
118 186 26
120 190 27
119 190 27
119 190 27
119 190 27
119 190 27
120 190 27
120 191 27
117 188 27
114 177 25
114 185 26
112 180 25
116 181 25
117 186 26
117 188 27
113 181 25
114 181 25
117 189 27
113 181 25
115 184 26
114 184 26
113 180 26
115 184 26
114 183 26
113 182 26
114 183 26
111 178 25
113 180 41
125 158 150
128 147 170
130 149 174
128 148 171
130 151 175
125 144 166
131 151 175
130 151 174
130 149 173
131 152 174
127 147 170
130 150 174
130 148 171
130 148 171
129 149 172
130 150 173
127 147 169
129 148 172
127 147 169
129 149 173
126 146 170
129 148 171
132 151 175
127 146 169
129 149 171
151 169 190
161 177 199
154 172 192
145 163 186
137 156 176
137 154 176
136 155 177
139 155 178
136 154 177
136 155 179
139 157 181
140 157 179
138 157 180
133 151 173
136 155 178
137 154 177
134 151 174
133 152 175
136 154 178
136 154 178
130 149 168
136 154 178
133 151 175
133 150 174
137 155 179
133 152 175
135 154 179
135 155 178
135 154 178
137 157 181
132 151 175
131 149 172
134 154 176
134 153 176
132 151 174
134 152 175
133 152 176
138 157 183
135 153 177
135 154 178
138 157 182
137 155 180
135 153 177
133 151 173
136 156 181
131 150 171
134 152 177
136 156 181
133 150 173
137 157 182
135 154 177
135 155 181
135 153 177
134 152 175
135 153 176
132 151 172
136 154 176
134 152 176
135 153 177
134 151 175
130 149 171
137 155 179
134 152 176
135 154 178
137 156 180
130 147 170
133 151 172
136 153 175
139 157 181
140 158 183
138 157 178
132 151 173
131 148 168
139 155 178
138 154 174
130 148 167
143 161 180
150 167 186
153 169 191
131 140 166
124 139 163
136 154 178
129 148 170
135 153 178
130 149 172
132 151 173
133 151 174
132 150 173
132 152 172
131 150 174
132 150 174
132 150 173
132 151 174
131 149 172
133 152 175
128 147 170
132 150 175
132 151 173
132 151 174
132 152 174
132 151 174
134 152 176
133 151 175
131 148 173
133 152 176
131 148 170
132 148 171
132 150 173
131 150 173
132 149 170
134 151 174
132 149 173
133 151 175
132 149 170
133 150 174
130 149 171
132 150 173
132 151 174
130 150 171
127 144 167
135 153 177
132 150 174
130 148 170
132 150 173
134 152 174
133 151 172
133 151 174
134 153 174
130 148 171
133 151 174
130 148 171
134 152 176
131 148 171
131 149 171
130 149 170
134 153 176
131 148 172
128 149 169
131 149 172
132 150 172
130 150 170
132 150 173
132 151 174
131 150 172
129 145 170
120 129 156
112 113 147
98 88 129
87 61 117
84 39 111
74 29 99
77 30 102
81 32 109
83 33 109
79 31 104
85 34 113
81 32 108
81 32 109
77 29 100
80 31 105
81 31 104
80 31 104
80 32 105
86 34 114
79 31 104
79 31 103
82 32 108
80 31 105
84 33 111
81 32 106
84 33 109
77 30 101
83 32 109
76 30 100
79 31 104
78 30 102
78 30 103
75 29 97
80 31 105
80 31 104
80 32 107
81 31 103
83 32 108
77 30 102
79 31 103
80 31 105
81 31 104
75 29 96
79 30 102
80 31 104
83 32 106
82 31 105
81 32 106
84 33 110
78 31 103
76 29 97
80 31 102
84 33 109
74 29 98
82 32 107
79 30 100
78 30 102
78 30 101
75 29 97
78 30 99
76 29 100
75 29 96
71 28 94
70 27 89
74 29 97
73 28 95
73 29 95
72 28 93
71 28 91
71 40 91
65 41 83
50 61 58
52 58 59
42 70 44
41 76 38
50 93 44
47 91 41
53 101 47
51 97 44
51 104 46
55 110 50
56 111 51
55 108 50
59 113 51
57 114 51
58 114 52
56 114 51
53 101 46
54 107 47
57 114 51
60 119 54
61 122 54
57 115 51
61 121 55
58 116 51
61 124 55
61 121 55
62 123 54
63 131 56
63 126 57
58 119 54
60 121 53
63 125 54
60 122 54
65 133 59
66 131 59
65 134 59
65 132 59
65 127 57
62 128 56
57 118 51
62 123 57
75 130 81
92 134 110
104 141 125
106 134 133
117 144 149
124 143 158
126 145 163
125 142 159
129 147 165
127 146 165
121 142 156
127 147 165
127 144 163
129 147 168
129 147 166
126 143 161
126 143 162
125 142 161
127 144 165
125 142 162
124 142 161
127 146 165
122 142 159
128 147 165
127 146 164
132 151 172
126 144 162
131 148 169
128 147 167
129 147 168
125 143 162
128 147 167
129 144 164
125 143 161
124 144 160
132 151 171
126 145 163
130 146 167
129 147 166
126 145 163
132 149 170
128 146 166
131 148 171
131 148 170
127 144 164
126 147 164
131 147 169
128 146 166
127 145 164
129 146 166
131 147 169
130 148 169
131 149 170
131 148 171
128 147 167
132 146 168
127 144 165
130 148 170
131 145 167
129 147 167
129 145 166
129 147 166
129 147 167
125 141 158
127 144 163
127 141 161
130 146 170
129 146 168
134 151 173
131 148 170
132 148 172
130 147 169
130 147 167
131 145 170
131 148 170
131 146 169
128 143 165
133 150 172
132 148 170
130 147 167
134 152 174
132 147 169
134 152 175
134 149 173
131 146 167
122 133 147
112 117 123
112 116 121
112 116 123
110 116 122
107 111 117
107 111 116
108 114 119
107 112 118
107 113 119
101 104 109
104 107 113
75 78 91
39 38 66
19 11 53
18 11 54
20 12 60
19 12 58
19 12 58
20 12 59
22 13 67
20 12 61
18 11 54
20 12 61
20 12 62
20 12 62
19 12 59
20 12 62
21 13 65
20 12 63
19 12 61
21 13 65
21 13 66
20 12 63
19 12 60
21 13 68
38 36 67
67 69 80
73 76 85
80 84 91
81 85 92
84 89 96
91 96 102
90 94 99
89 94 102
93 98 103
95 99 104
94 98 106
94 98 103
93 96 101
98 101 107
96 100 106
92 98 103
100 104 109
97 102 109
100 105 111
97 102 109
101 107 110
99 103 109
101 105 109
102 106 111
101 106 110
101 106 112
99 104 107
98 102 106
101 106 110
100 104 108
98 104 108
99 104 109
102 108 113
101 106 112
100 104 108
97 102 106
101 107 111
104 110 114
99 104 107
99 102 105
103 108 111
101 107 111
98 104 106
101 106 110
97 103 106
102 108 110
101 107 109
96 101 102
102 108 111
97 103 105
99 105 106
99 106 107
97 102 105
97 102 102
100 106 107
92 100 99
101 106 109
95 101 104
96 102 104
99 106 107
94 101 100
99 106 107
98 103 104
98 103 104
98 105 106
96 103 105
95 104 103
98 105 106
98 103 104
96 104 103
97 104 105
99 105 106
96 101 104
101 108 109
97 104 106
98 104 106
101 107 109
98 105 108
99 106 109
101 108 110
101 106 107
97 103 104
99 103 105
101 108 111
98 106 107
99 104 107
101 107 111
102 107 109
102 107 111
103 108 112
105 111 115
104 107 111
100 107 109
106 111 116
97 103 105
103 109 112
101 106 109
100 105 109
104 110 112
101 106 110
106 111 115
103 108 110
104 109 114
100 105 109
103 108 111
105 110 113
103 108 112
104 109 113
104 108 111
105 109 114
103 109 114
103 109 114
104 109 113
105 109 112
104 110 114
107 112 117
104 110 114
105 110 114
106 113 118
104 109 114
102 107 110
105 109 114
105 109 113
102 107 112
100 104 107
104 109 113
101 106 110
102 107 110
102 108 112
108 113 118
105 110 114
101 104 108
106 110 115
106 110 114
106 111 115
107 112 116
103 108 112
107 112 117
103 107 110
106 111 115
104 108 112
106 110 115
105 111 115
105 110 115
104 108 113
102 106 110
105 109 114
103 107 112
103 109 114
105 111 114
104 108 112
108 113 117
102 107 111
106 110 115
104 109 113
106 112 116
105 111 115
104 109 112
104 109 114
104 109 113
106 110 114
106 111 117
105 110 113
104 109 113
105 109 113
104 107 111
103 107 112
107 112 115
107 111 115
104 108 111
101 107 109
104 109 114
105 110 113
108 113 118
106 110 116
103 109 113
102 106 111
105 109 113
102 108 111
104 109 113
104 110 112
102 107 112
105 110 115
103 107 110
102 107 112
105 110 114
105 110 115
105 111 115
100 106 108
102 106 109
102 108 109
105 110 114
101 107 110
102 108 111
104 109 114
103 109 112
104 109 111
104 109 112
103 108 110
102 108 110
102 109 110
102 108 109
103 110 112
102 109 111
107 113 116
97 104 105
102 109 112
102 107 110
105 112 113
101 107 109
102 109 111
104 110 115
101 108 109
104 110 112
101 107 110
100 112 100
99 120 87
100 132 64
91 126 43
92 129 41
97 135 43
95 131 41
93 128 40
96 133 42
96 132 42
92 126 40
93 129 41
96 132 42
91 126 40
93 129 41
94 130 42
94 131 41
95 132 41
93 130 42
93 129 41
91 125 39
91 126 40
94 131 41
94 130 41
94 130 41
92 128 40
94 130 41
92 129 41
93 128 40
94 131 42
91 124 39
95 131 42
95 132 42
94 130 41
94 130 41
94 131 41
91 125 39
93 129 41
91 126 40
92 128 40
89 123 38
94 130 41
92 127 40
94 129 41
91 124 39
90 125 39
92 127 40
91 126 40
93 128 40
88 122 38
89 126 40
88 121 39
96 134 43
95 131 42
91 126 40
93 128 40
94 130 41
94 130 41
94 130 41
90 124 40
94 130 42
94 129 42
93 123 58
95 114 77
99 110 99
105 110 112
102 107 110
101 105 109
104 109 111
101 106 112
104 110 113
106 111 115
100 106 109
105 109 113
103 107 112
108 114 118
99 103 105
101 106 110
100 104 108
100 104 111
103 108 112
103 107 111
104 108 114
101 105 110
99 103 107
103 108 114
106 110 117
104 108 113
101 105 109
103 106 111
101 104 109
101 105 110
102 106 111
101 105 107
100 105 110
101 106 112
106 110 115
104 108 113
105 109 114
98 102 107
97 99 105
101 104 112
100 105 111
105 110 116
99 103 110
101 105 113
105 109 115
102 107 113
103 109 115
105 110 116
97 100 106
103 108 113
101 105 110
107 111 116
103 107 114
104 108 114
105 108 115
100 103 109
98 101 108
99 102 110
103 107 113
100 104 110
100 104 112
97 100 106
105 109 116
104 109 115
96 99 105
99 103 111
102 106 114
100 103 109
101 105 111
103 108 114
96 101 109
100 105 111
103 107 115
99 102 109
101 105 113
102 106 114
97 101 108
94 97 105
99 103 110
98 101 108
98 101 108
97 100 110
99 103 112
92 95 104
95 98 110
100 103 111
99 103 112
93 96 104
99 103 111
93 96 105
93 97 106
89 92 101
84 88 98
89 91 102
93 96 107
91 94 105
86 89 99
82 82 94
82 84 95
80 82 92
74 76 88
77 78 91
68 71 85
61 63 79
72 73 83
50 50 68
45 44 60
38 41 71
35 40 86
37 42 92
52 41 82
70 44 83
80 49 86
85 50 87
88 51 87
83 47 82
85 49 83
89 51 85
87 50 85
88 51 86
86 49 81
87 50 84
86 49 83
88 51 85
85 49 83
87 50 84
87 50 84
83 47 79
87 50 85
88 50 84
84 48 81
88 52 85
96 84 99
104 105 112
104 109 115
107 110 116
107 111 117
109 113 120
110 114 120
110 114 121
108 98 104
130 104 109
147 115 124
166 135 151
178 148 170
179 152 177
179 151 177
180 152 176
178 151 176
176 148 172
176 148 172
177 150 176
176 150 176
175 149 174
176 149 174
175 150 176
174 149 175
176 152 180
176 151 178
175 151 179
175 151 179
175 153 182
176 154 184
175 152 182
176 154 183
176 154 184
177 156 187
179 158 191
181 159 193
179 158 191
182 161 195
182 161 194
183 161 195
183 161 195
183 161 195
184 162 195
183 161 195
185 162 195
184 162 195
185 162 195
185 162 195
187 163 195
187 163 195
190 164 195
190 164 195
188 164 195
192 165 195
192 165 195
192 165 195
194 166 195
193 166 195
195 166 195
195 166 195
199 168 195
200 168 195
200 168 195
202 169 195
201 168 193
197 164 188
189 153 176
189 154 176
181 145 167
185 148 168
151 126 143
135 147 171
126 143 168
127 144 168
131 149 174
133 151 177
132 149 172
130 149 173
130 147 172
132 150 174
130 148 171
133 151 174
133 151 175
132 149 174
128 146 171
130 147 171
131 149 173
133 150 175
131 149 174
132 149 174
129 146 170
131 149 173
129 146 170
130 148 173
134 153 178
133 152 177
130 148 172
129 147 171
135 154 178
131 149 173
123 140 162
99 113 132
68 79 91
24 32 31
25 33 33
25 33 33
25 33 33
26 34 33
28 36 36
26 33 33
26 34 34
27 34 34
26 34 34
27 35 34
25 32 33
26 34 34
26 34 34
27 35 34
28 36 36
27 35 34
28 35 35
27 34 34
27 35 34
26 33 32
28 36 36
27 35 35
28 37 36
28 36 36
27 35 34
29 37 37
29 37 36
27 36 35
27 35 35
27 36 35
27 35 34
28 36 36
28 36 35
30 39 38
29 38 37
27 35 35
28 36 36
27 35 34
27 35 34
30 39 38
30 40 39
29 37 36
27 36 35
29 38 37
28 37 37
28 37 36
27 35 34
28 36 35
28 37 36
28 37 37
27 35 34
28 37 36
30 40 38
29 38 38
29 38 37
28 37 36
28 38 36
28 37 36
28 37 36
28 37 35
27 36 35
29 38 37
30 39 38
29 38 37
28 37 36
26 34 33
27 36 35
29 38 37
29 38 37
29 38 36
30 39 38
28 37 36
28 37 36
30 39 38
29 38 37
27 35 34
28 37 36
29 38 38
29 38 37
27 36 35
29 38 37
30 40 38
28 38 36
29 38 37
28 37 36
28 37 37
57 67 74
97 111 127
127 144 166
130 148 170
126 144 167
127 145 167
131 149 172
129 146 169
128 145 166
130 148 171
124 141 163
127 144 165
125 142 163
129 148 171
126 142 163
124 141 162
127 144 166
128 145 168
127 144 167
121 138 158
123 139 161
122 139 161
120 136 159
125 142 163
124 142 164
119 137 159
124 139 160
119 135 155
119 135 155
118 134 154
120 137 158
118 134 152
118 133 153
115 130 148
120 135 156
118 132 150
110 125 142
113 128 147
118 134 155
112 127 145
113 128 148
114 129 147
106 120 137
111 125 143
115 130 148
108 122 139
108 121 139
104 118 135
109 123 140
97 110 126
97 110 126
106 119 136
105 117 132
102 113 129
94 105 118
98 108 123
100 111 125
97 109 124
102 114 129
82 91 103
103 115 130
91 101 113
71 79 87
86 96 107
94 105 120
81 90 99
74 82 92
74 82 91
78 85 97
67 83 72
64 92 52
58 94 18
61 100 15
60 98 14
59 96 14
61 102 15
63 104 15
62 102 15
58 98 15
61 100 15
61 101 15
62 102 15
64 105 16
61 102 15
62 103 15
62 102 15
57 95 14
60 100 15
60 100 15
60 99 15
59 98 15
59 99 15
61 100 15
61 100 15
62 103 15
64 106 16
62 104 15
64 107 16
62 102 15
60 99 15
60 100 15
60 100 15
62 102 15
64 106 16
61 101 15
62 103 15
63 105 16
61 101 15
62 103 15
61 100 15
63 105 15
63 105 16
63 106 16
62 104 15
64 106 16
62 103 15
64 106 16
65 108 16
62 104 16
61 101 15
64 107 16
65 109 16
61 102 15
62 103 15
63 105 16
62 103 15
63 105 15
61 102 15
62 105 16
61 103 15
65 108 16
64 107 16
63 104 15
62 104 15
66 110 16
63 105 16
64 108 16
64 108 16
64 107 16
63 106 16
63 105 15
63 106 16
64 108 16
65 108 16
65 109 16
64 107 16
66 111 16
65 109 16
