P3
1600 1
255
86 40 113
88 41 116
87 41 115
90 42 117
88 41 115
87 40 115
86 40 113
88 42 116
87 41 115
85 39 110
86 40 114
83 39 110
87 41 114
88 41 116
85 40 112
89 42 116
86 40 113
89 41 117
87 41 114
85 40 112
88 41 115
87 41 113
86 40 111
85 39 111
89 41 115
85 40 111
86 40 112
84 39 111
84 39 110
87 40 114
86 40 110
87 40 113
87 40 112
84 40 110
89 41 115
83 39 110
87 41 113
83 39 111
86 40 111
83 38 108
86 40 112
82 38 109
83 38 108
81 38 107
85 39 110
85 40 111
85 39 110
86 40 111
86 40 108
85 39 109
83 39 107
81 38 106
84 39 109
82 38 105
84 39 110
102 93 134
127 144 168
126 143 168
127 145 170
128 146 171
128 146 171
126 145 169
126 144 168
130 149 173
127 146 170
130 149 173
131 150 174
125 143 166
130 148 172
128 146 170
129 146 169
131 150 174
131 149 174
127 146 170
125 143 168
131 149 172
128 146 169
130 150 175
126 144 168
129 146 170
128 146 169
133 151 175
129 146 169
130 149 173
129 147 172
124 142 165
130 148 172
130 148 172
130 148 172
129 147 168
126 145 169
129 148 171
131 149 173
125 143 166
127 145 167
124 142 165
130 147 170
130 148 171
132 150 173
131 150 173
132 151 175
132 150 175
131 149 171
125 142 164
125 144 166
124 141 163
129 148 172
127 145 168
129 148 171
126 144 166
130 149 173
128 145 169
123 140 162
126 143 165
124 141 162
130 147 170
125 143 163
124 141 164
129 146 168
123 141 163
127 145 168
126 143 165
125 142 162
122 139 160
126 144 167
125 144 166
124 141 163
124 141 162
124 142 164
123 140 162
121 139 159
121 139 162
124 141 162
117 134 151
122 139 161
123 140 162
115 130 146
120 136 156
117 134 153
124 141 162
122 138 157
119 135 154
123 140 159
121 137 156
117 133 152
117 133 150
124 140 161
115 131 147
118 135 154
112 127 145
109 125 141
73 92 84
42 66 16
41 66 1
39 64 1
39 64 1
40 64 1
39 63 1
38 62 1
40 64 1
41 67 1
39 63 1
40 64 1
39 63 1
41 66 1
40 64 1
40 64 1
39 62 1
41 66 1
40 64 1
39 63 1
41 67 1
40 64 1
39 62 1
41 68 1
38 62 1
39 63 1
40 64 1
39 64 1
42 68 1
40 64 1
40 65 1
41 66 1
41 67 1
41 67 1
42 67 1
38 62 1
43 69 1
41 66 1
42 68 1
43 69 1
40 66 1
38 62 1
43 69 1
38 61 1
42 67 1
42 68 1
41 66 1
40 65 1
40 66 1
40 63 1
41 67 1
41 66 1
42 67 1
41 67 1
40 64 1
40 66 1
41 67 1
42 68 1
41 65 1
40 65 1
41 66 1
38 62 1
42 68 1
38 62 1
39 64 1
41 66 1
39 64 1
42 68 1
41 67 1
41 66 1
40 66 1
40 65 1
38 62 1
40 65 1
41 67 1
38 61 1
39 64 1
38 61 1
42 67 1
39 63 1
39 64 1
39 64 1
38 59 1
37 61 1
37 60 1
38 61 1
37 59 1
37 59 1
34 55 1
33 53 1
36 57 1
34 55 1
35 57 1
38 56 31
76 91 93
107 123 138
124 142 162
130 145 166
125 142 164
122 139 160
125 143 165
129 146 168
124 141 162
123 141 163
126 144 164
122 139 159
126 144 166
129 147 171
124 141 163
129 147 171
129 146 169
126 142 166
106 111 137
99 100 127
83 84 105
71 73 89
64 68 78
50 56 59
53 59 63
41 48 45
38 46 39
35 44 30
39 48 41
44 52 49
44 52 50
52 58 63
54 57 66
61 63 74
73 75 90
73 74 91
87 89 111
92 94 118
96 96 123
97 100 125
101 103 131
113 115 145
110 112 143
103 105 137
109 110 143
110 111 143
104 108 143
106 110 142
115 117 152
117 119 155
115 118 154
110 115 145
116 121 155
116 121 155
112 116 154
121 123 155
117 120 155
115 118 152
120 121 159
125 126 161
121 121 154
117 113 144
117 117 152
110 113 140
109 116 134
120 125 140
106 113 126
117 126 137
112 118 137
114 119 137
115 120 138
101 109 122
99 109 115
100 108 112
100 109 113
89 99 108
104 111 126
96 104 119
101 110 123
102 112 122
98 105 121
99 107 126
103 105 130
104 109 128
99 101 123
105 106 133
106 101 129
102 104 135
103 103 135
107 107 136
110 109 139
100 101 131
108 107 137
114 115 148
110 111 144
116 115 148
108 106 140
112 110 143
110 108 143
114 114 148
113 111 146
111 112 147
114 112 148
108 108 143
115 117 153
116 118 154
113 116 151
107 109 141
105 110 140
118 130 156
131 149 173
127 145 167
133 151 175
130 148 172
132 151 176
128 147 171
132 151 175
132 150 173
129 147 172
133 151 175
129 148 172
130 149 174
134 153 177
131 158 162
118 185 52
119 192 27
118 190 27
118 189 27
117 186 26
120 192 27
114 182 26
116 183 26
117 187 27
118 189 27
118 188 27
117 185 26
118 188 27
117 187 26
116 185 26
120 192 27
118 186 26
116 183 26
116 186 26
120 192 27
119 189 27
123 190 27
119 188 27
117 185 26
120 189 27
116 182 26
114 176 25
116 183 26
119 191 27
117 180 25
115 179 25
117 182 26
118 187 26
116 181 26
116 185 26
120 187 26
112 178 25
117 181 26
121 192 27
118 181 25
119 187 26
116 184 26
115 180 25
114 177 25
115 181 26
119 185 26
118 185 26
117 184 26
116 183 26
116 181 26
114 178 25
112 180 25
118 187 26
116 176 25
117 186 26
113 178 25
113 180 26
117 187 26
114 180 25
116 184 26
118 184 26
114 179 25
115 180 25
113 178 25
114 181 25
112 175 25
112 177 25
116 182 25
110 171 24
111 178 25
107 170 24
111 177 25
109 170 24
109 176 25
114 182 26
113 179 25
113 182 26
109 176 25
113 182 26
109 174 24
111 178 25
107 172 24
110 176 25
108 175 25
115 161 110
132 151 175
131 150 173
133 152 176
130 149 175
135 154 178
133 152 176
131 150 174
132 151 175
132 151 174
131 150 173
134 153 177
130 149 172
131 149 173
133 151 175
130 148 173
129 147 179
152 171 193
151 169 192
143 161 182
139 157 178
138 157 179
136 154 175
143 160 183
141 160 185
135 153 175
138 155 177
136 154 178
138 155 179
135 154 177
138 157 182
133 149 172
134 151 173
142 161 186
137 154 178
135 152 175
134 153 176
135 152 175
137 156 180
136 153 176
138 157 182
135 153 177
135 152 176
136 154 178
135 153 177
136 155 179
137 155 180
135 154 179
134 153 176
135 152 176
134 153 178
136 154 178
133 150 173
136 154 177
132 150 173
134 153 178
136 154 177
137 156 180
131 149 172
137 156 182
137 155 178
135 155 179
134 154 177
132 148 172
132 150 172
134 153 175
136 155 180
138 157 183
136 154 179
135 155 179
135 154 178
132 150 173
132 150 173
136 154 178
134 153 176
132 150 173
134 153 177
139 157 181
133 151 175
135 154 175
133 151 175
140 158 182
132 151 173
134 150 172
140 158 183
133 149 171
133 150 173
141 157 180
138 154 176
139 152 174
137 153 175
131 148 168
134 152 173
145 161 183
138 155 178
132 148 169
137 154 176
139 154 176
138 155 175
139 154 175
136 149 169
146 161 178
137 154 173
115 123 148
128 144 167
131 148 171
131 150 173
133 150 175
133 150 173
132 150 174
132 149 172
133 151 176
132 149 171
130 147 169
128 146 169
133 152 176
128 146 170
128 144 168
128 147 169
132 149 174
131 148 172
131 148 171
130 148 172
129 147 171
133 150 174
130 147 170
133 152 175
131 149 172
131 149 173
130 146 170
131 148 172
128 145 169
129 146 170
129 145 169
128 147 169
132 149 173
131 148 173
127 144 168
131 148 171
127 144 168
130 147 169
129 147 169
125 144 166
130 146 170
124 140 163
128 146 168
121 137 160
127 145 167
129 147 169
131 149 172
128 147 170
127 142 168
131 147 170
121 136 159
126 143 166
124 140 161
126 143 165
126 143 165
122 139 161
129 146 167
128 145 168
124 140 163
125 142 164
125 144 167
122 143 161
123 139 161
124 140 164
127 143 168
119 135 156
127 144 166
124 140 162
118 131 155
106 109 137
93 86 122
87 77 116
81 51 107
71 27 95
72 28 97
73 28 97
72 28 96
78 30 102
70 27 93
71 28 95
77 30 101
79 30 102
75 30 101
79 30 103
76 29 99
76 30 100
76 29 99
75 29 97
75 29 98
75 29 100
72 28 95
72 28 94
77 30 102
77 29 100
72 28 94
71 28 94
71 28 95
70 27 91
67 26 89
73 29 97
73 28 97
74 29 98
71 27 93
71 27 93
74 29 99
69 27 92
72 27 93
74 29 98
68 26 88
67 26 90
68 27 91
69 27 91
72 28 94
66 25 86
72 28 96
72 28 94
75 29 97
62 24 83
66 26 88
65 26 87
70 27 92
72 28 94
69 27 90
67 26 87
68 35 88
66 48 85
67 68 86
79 79 100
78 91 98
74 97 91
55 81 66
54 79 63
49 75 57
35 66 34
38 72 36
35 70 31
37 75 31
34 74 30
37 76 33
35 73 30
36 72 32
41 86 36
43 87 37
39 82 34
39 81 35
45 93 40
47 96 41
44 96 40
45 92 40
45 94 38
48 97 42
48 102 42
49 101 41
50 102 42
47 98 42
48 104 43
42 91 36
52 106 45
44 96 39
47 104 41
47 99 42
50 102 47
47 97 44
60 107 65
63 104 69
65 104 72
81 112 96
83 116 100
87 112 106
91 116 112
99 120 122
88 116 109
97 121 122
107 129 135
97 119 122
106 130 133
98 122 122
103 126 131
106 128 134
107 131 133
112 135 141
116 135 147
105 129 131
114 134 143
114 137 142
107 129 135
112 131 143
111 131 140
117 138 149
118 138 150
119 138 151
117 139 148
112 135 142
120 141 155
114 136 147
118 140 150
113 136 145
122 144 156
121 141 154
125 144 161
119 139 153
118 140 150
119 140 152
118 139 152
124 146 159
123 142 158
125 145 161
123 143 159
123 143 160
125 142 160
124 146 159
123 142 157
123 142 159
125 144 163
124 143 160
125 146 162
125 145 162
123 143 158
128 148 167
125 142 158
124 144 163
129 147 166
127 145 165
128 144 163
133 151 173
128 146 166
128 148 166
125 144 162
128 146 167
132 151 172
132 150 171
125 143 162
128 148 167
132 151 170
129 146 166
127 144 165
130 148 168
128 146 165
130 147 166
125 145 162
130 146 168
131 148 168
128 147 166
126 145 162
130 148 170
131 150 170
133 151 174
130 148 169
132 151 172
131 148 170
130 148 168
131 150 171
128 146 166
131 148 170
130 145 168
132 150 172
127 145 166
131 147 167
129 146 166
133 150 170
131 150 170
129 148 168
129 145 166
127 143 162
113 121 130
109 113 119
111 116 122
105 109 113
106 111 116
107 112 118
104 108 114
104 107 112
108 112 117
106 110 116
107 111 117
101 104 110
98 101 107
74 76 87
30 28 54
19 11 57
16 9 47
18 10 53
17 10 50
18 11 55
18 11 55
17 10 51
19 11 56
18 11 55
18 11 56
17 11 53
17 11 52
19 12 60
19 12 60
19 11 59
18 11 58
19 12 59
18 11 58
23 19 50
47 48 60
61 62 69
63 64 69
78 81 85
71 74 80
85 88 94
76 78 86
83 85 91
82 85 90
81 84 90
97 101 107
90 94 99
96 101 106
94 98 104
97 101 106
99 103 107
97 102 107
94 99 104
100 104 108
91 94 98
102 107 113
102 106 111
103 108 113
101 105 111
102 106 111
97 101 106
98 103 108
100 104 108
101 105 109
104 108 113
102 107 112
100 106 109
101 104 108
104 108 112
98 103 106
103 108 111
103 108 111
101 106 110
98 105 108
102 108 112
98 103 107
102 107 110
102 107 110
100 106 108
96 103 105
101 107 109
100 104 107
103 108 111
101 106 109
101 106 108
99 104 106
99 105 107
99 104 108
102 108 112
96 102 105
99 105 108
98 104 107
99 105 106
97 104 105
100 106 108
97 103 104
98 103 105
97 102 104
102 107 111
97 101 103
97 101 104
101 106 109
98 104 106
102 109 112
101 107 109
96 102 103
103 109 113
98 104 106
100 105 108
101 107 111
102 107 110
102 108 111
103 107 112
101 106 110
104 110 112
99 103 107
105 109 112
103 109 113
100 104 108
102 108 111
99 105 109
100 106 111
96 101 105
102 107 111
103 107 110
99 104 107
99 105 109
102 107 111
105 111 115
105 112 116
103 108 112
105 110 113
102 107 110
103 108 111
102 108 111
102 108 110
103 108 111
99 104 107
105 110 113
100 105 110
106 112 115
104 110 114
102 106 109
106 110 115
101 105 108
103 108 112
102 107 110
103 107 112
104 108 111
100 104 109
105 109 112
102 105 107
105 109 114
101 106 111
105 110 115
103 107 110
105 110 115
105 110 114
104 109 113
101 107 109
105 110 116
100 106 109
102 106 109
105 110 116
100 105 108
105 108 113
103 107 110
108 112 116
105 109 113
105 109 114
104 108 112
102 107 112
105 109 114
107 112 116
106 111 114
105 109 114
108 114 118
106 111 115
100 103 107
104 108 110
104 107 111
103 108 112
104 108 112
106 110 114
104 108 113
101 105 108
104 109 113
106 111 115
104 109 112
105 110 114
105 109 113
104 107 110
103 107 111
104 110 113
105 109 112
105 110 113
104 109 113
104 110 114
103 108 112
101 105 109
103 107 110
103 109 111
106 111 114
105 110 115
101 106 108
101 106 108
104 110 112
107 111 115
104 109 112
102 107 110
99 104 106
102 107 110
104 110 111
103 109 112
103 108 112
102 107 110
102 107 110
102 107 110
101 106 109
101 107 108
101 107 108
102 108 112
102 108 110
102 108 112
98 103 104
102 107 108
102 107 109
103 110 111
100 104 107
98 104 105
102 108 110
98 105 106
100 107 108
105 111 113
97 104 104
100 106 108
102 108 110
98 103 103
103 110 112
100 105 108
97 103 101
95 102 101
100 107 107
98 104 104
92 100 97
94 110 88
92 118 68
92 126 47
86 121 38
86 121 38
90 124 39
89 124 39
91 127 40
91 126 39
89 121 38
92 128 40
89 124 39
94 130 41
91 126 39
87 121 38
90 124 38
89 121 38
88 121 38
90 126 39
90 124 38
89 122 38
89 122 38
88 122 37
90 123 39
89 122 38
92 125 39
88 121 38
83 114 34
91 126 40
85 117 36
88 122 39
91 124 38
89 121 37
88 120 37
83 113 34
84 115 36
86 118 36
89 123 38
89 122 38
86 119 37
83 114 35
91 125 39
86 117 37
91 125 39
87 119 37
87 119 37
85 117 36
89 122 37
87 120 37
86 119 37
88 120 37
89 121 37
85 117 36
89 122 39
87 119 37
88 122 38
83 114 36
88 121 38
89 122 39
84 115 36
89 123 39
87 118 37
90 123 40
84 116 37
90 123 39
90 124 40
86 118 39
87 112 58
96 112 87
97 103 102
96 103 104
101 106 108
96 101 104
106 112 117
100 104 108
100 104 108
98 103 106
99 104 106
97 100 104
102 107 111
99 104 107
102 107 110
99 103 106
100 104 107
99 102 106
102 107 111
100 105 111
102 107 111
99 103 108
99 104 110
99 102 107
100 103 109
105 109 114
101 105 109
100 103 108
98 102 107
105 108 115
103 106 111
102 106 111
104 107 113
102 106 112
101 106 110
103 108 113
103 106 110
103 108 112
103 108 113
103 107 111
99 103 109
100 104 108
101 105 110
102 106 112
102 106 111
100 104 110
100 103 108
103 107 113
101 105 111
102 105 111
105 109 114
103 107 113
99 103 110
99 103 110
105 109 115
101 105 111
99 103 109
101 104 111
102 106 112
100 103 109
101 104 110
96 99 105
102 105 111
99 103 110
99 103 109
98 101 108
95 97 105
100 104 111
100 104 111
100 104 111
98 101 108
101 105 113
98 100 108
95 97 106
97 100 107
99 103 110
97 99 107
93 96 103
99 103 110
97 100 108
98 102 109
93 97 106
96 98 107
95 97 105
97 101 109
95 99 107
95 98 108
80 83 95
87 89 100
90 94 104
89 92 104
89 92 101
85 86 97
88 90 101
75 76 85
77 79 90
67 68 81
69 70 83
68 68 79
70 59 78
75 52 80
79 47 79
80 46 79
83 48 82
84 48 81
85 48 82
83 47 78
84 48 80
83 47 79
86 49 82
85 48 82
84 47 79
85 48 81
80 46 77
81 45 77
81 46 77
82 47 80
85 49 81
85 48 81
81 45 75
81 46 76
81 46 77
82 47 78
81 46 77
81 45 75
83 46 78
81 46 76
81 46 76
80 45 74
85 63 84
101 100 110
108 111 117
108 112 119
107 100 107
105 86 93
118 89 96
146 115 126
153 124 138
159 130 147
163 134 151
164 133 149
158 127 142
155 126 142
152 122 135
155 123 136
157 123 134
151 122 135
159 126 140
157 124 135
153 122 134
162 129 143
160 128 141
162 130 145
161 131 146
163 134 149
165 136 156
167 139 159
171 142 163
172 146 169
177 150 174
177 147 169
177 148 172
177 150 175
177 150 175
179 153 181
180 155 183
180 156 185
180 155 182
181 156 184
180 156 185
185 161 192
184 161 192
186 163 194
187 163 195
187 163 195
187 163 195
189 164 195
188 163 195
188 163 195
189 164 195
189 164 195
190 164 195
191 164 195
192 165 195
193 165 195
193 165 195
193 165 195
194 166 195
194 166 195
197 167 195
197 167 195
196 167 195
197 167 195
198 168 195
199 168 195
200 168 195
200 168 195
200 168 193
198 165 190
193 160 183
187 156 176
192 158 183
179 146 168
174 137 157
175 136 156
165 131 150
141 133 153
133 150 173
132 150 175
132 151 175
131 150 174
133 151 176
134 151 176
133 152 177
130 148 174
130 149 174
131 149 173
131 149 174
127 145 169
133 152 175
131 148 172
129 147 170
130 148 172
130 148 171
130 148 173
128 146 170
131 150 174
133 150 174
134 153 177
133 151 175
131 149 173
131 150 174
130 148 170
126 144 167
113 128 147
74 85 98
38 46 50
24 33 32
22 29 29
23 30 30
26 33 33
26 35 34
24 31 31
25 33 33
24 32 31
25 32 31
27 34 34
25 32 31
26 34 33
24 31 31
26 33 32
28 36 35
26 34 34
25 32 32
26 34 33
25 33 33
25 33 32
26 33 32
28 37 36
27 35 34
25 32 32
26 34 34
27 35 34
27 35 34
28 36 35
26 34 33
28 36 35
27 35 35
27 35 34
26 33 33
27 34 34
27 35 34
27 35 34
27 36 35
26 34 33
27 35 34
27 36 35
26 34 34
25 33 32
27 36 35
27 35 34
27 35 34
28 37 36
26 34 33
27 36 35
26 35 34
26 35 34
29 37 36
26 35 34
25 33 32
28 37 36
28 36 35
26 35 33
28 37 36
24 32 31
28 37 36
27 36 35
26 35 34
27 35 34
27 36 35
28 37 36
27 36 35
27 35 34
28 37 35
26 35 34
28 37 36
27 36 35
27 35 34
26 34 34
28 36 35
27 36 35
27 36 35
26 34 33
28 37 35
25 33 33
26 34 33
28 36 36
26 34 34
36 46 46
76 88 100
102 117 135
126 144 166
132 150 174
133 151 175
132 150 174
129 147 169
128 146 169
131 149 173
131 148 173
133 151 174
127 144 166
131 150 173
129 147 171
133 151 174
129 148 172
125 143 167
130 147 171
128 146 168
129 146 168
132 150 174
132 151 175
130 148 170
131 149 173
129 146 170
129 146 169
131 150 174
131 149 173
131 148 172
127 145 169
127 144 168
128 145 168
130 148 172
130 147 171
130 148 172
129 147 170
129 146 170
129 147 170
131 149 172
130 148 171
129 148 172
130 147 170
128 145 168
126 144 166
129 146 168
132 149 172
126 143 167
128 145 166
133 151 176
130 147 171
127 145 168
128 145 168
126 144 166
123 139 162
126 144 165
130 148 170
128 146 168
126 144 166
126 143 165
125 142 164
127 144 167
128 145 167
124 141 164
127 144 167
128 144 167
126 142 165
124 140 163
126 143 165
119 135 153
91 116 102
58 97 14
55 90 13
58 96 14
60 99 14
56 94 14
60 99 15
58 94 14
57 94 14
56 95 14
56 93 14
58 97 14
59 97 14
56 93 14
57 95 14
58 96 14
59 98 15
61 100 15
57 95 14
61 101 15
59 98 15
60 99 15
58 96 14
59 97 14
61 102 15
58 96 14
58 95 14
60 99 15
57 95 14
60 100 15
62 101 15
57 94 14
60 99 15
61 100 15
62 103 15
60 99 15
59 96 14
59 98 15
60 99 15
60 100 15
60 98 15
63 104 15
59 99 15
60 99 15
58 97 15
60 100 15
58 97 14
61 101 15
61 102 15
62 103 15
61 100 15
61 101 15
60 100 15
64 106 15
62 103 15
61 102 15
61 102 15
60 100 15
62 103 15
62 104 15
62 103 15
62 102 15
59 99 15
64 106 15
61 103 15
61 102 15
62 104 15
64 108 16
61 103 15
63 105 15
62 104 15
64 106 16
62 104 15
60 101 15
63 104 15
61 102 15
62 102 15
62 104 15
63 105 15
59 98 14
60 101 15
