P3
1600 1
255
88 41 115
87 41 115
88 41 115
88 41 115
85 40 113
87 40 113
86 40 113
85 40 114
84 40 111
83 39 110
86 40 112
81 38 108
90 42 117
87 41 114
86 40 112
89 42 117
86 40 114
86 41 114
88 41 114
85 40 112
86 40 112
88 41 115
85 40 112
84 39 110
85 39 110
86 40 112
87 40 112
84 39 110
87 40 113
88 40 113
85 40 111
84 39 109
82 38 107
84 39 110
86 40 112
88 41 114
85 40 111
87 40 113
83 38 107
85 39 111
83 38 108
82 39 108
83 39 107
85 40 111
82 38 108
87 40 111
82 38 106
83 39 108
83 38 107
82 38 107
83 38 108
83 39 109
83 38 107
81 37 104
80 38 106
84 39 109
100 84 130
123 139 165
127 146 170
125 143 169
123 141 164
127 145 169
131 150 175
125 143 168
129 147 171
127 144 168
130 149 173
130 148 172
127 146 169
125 142 166
129 148 173
131 149 175
130 148 172
127 145 169
129 146 170
130 149 172
130 149 174
128 146 170
129 147 171
130 149 172
132 150 173
129 146 170
130 149 174
129 147 172
124 143 165
130 148 171
131 150 175
129 147 170
127 144 166
126 145 168
129 147 170
131 149 174
124 142 164
127 145 169
129 148 172
128 145 167
131 149 172
130 148 171
131 150 173
130 149 172
130 148 171
128 145 167
127 145 167
125 143 165
127 145 169
123 141 162
128 146 168
128 146 169
128 146 169
123 140 162
124 141 163
124 141 162
124 141 163
128 146 168
124 141 163
128 145 167
127 145 168
125 142 164
127 144 167
126 144 164
121 138 159
123 140 162
123 140 161
121 139 162
123 141 162
124 141 163
121 139 162
115 132 152
124 141 163
119 135 154
124 142 162
117 134 155
118 135 153
123 141 163
122 138 158
120 137 157
116 132 151
120 138 159
118 133 151
117 132 150
116 132 149
120 137 157
120 136 155
117 133 151
121 136 155
114 130 146
115 131 148
112 127 145
112 127 146
111 126 143
104 119 134
73 90 86
49 70 40
41 65 1
41 67 1
38 61 1
39 62 1
41 65 1
38 62 1
38 62 1
40 64 1
41 66 1
37 60 1
37 60 1
41 66 1
39 62 1
39 64 1
41 65 1
41 65 1
40 65 1
39 63 1
39 63 1
38 61 1
39 63 1
40 63 1
39 64 1
41 66 1
40 65 1
41 66 1
41 66 1
39 63 1
41 66 1
39 64 1
38 62 1
38 62 1
40 64 1
41 66 1
40 65 1
38 62 1
40 64 1
41 66 1
39 64 1
41 67 1
38 61 1
41 66 1
41 65 1
38 62 1
42 67 1
39 62 1
40 65 1
41 67 1
40 65 1
37 60 1
40 65 1
40 64 1
42 67 1
40 65 1
39 62 1
39 63 1
39 64 1
38 61 1
41 67 1
38 61 1
40 64 1
40 66 1
40 65 1
41 68 1
39 63 1
41 67 1
39 64 1
40 65 1
40 64 1
40 65 1
40 63 1
39 64 1
40 64 1
39 63 1
39 63 1
40 65 1
41 65 1
37 59 1
38 62 1
42 68 1
38 61 1
38 61 1
38 61 1
36 58 1
35 57 1
37 60 1
36 57 1
36 58 1
35 56 1
35 56 1
33 54 1
37 56 25
86 101 110
113 130 147
126 143 165
121 138 159
127 145 167
126 143 165
123 140 159
124 142 163
128 146 170
124 141 162
126 144 167
125 142 165
128 147 170
124 141 163
125 143 164
130 147 168
127 145 168
122 138 161
109 116 137
99 102 126
88 87 110
80 81 99
74 77 94
52 58 63
60 65 76
39 45 42
34 43 32
39 46 43
38 45 41
45 52 47
43 50 47
57 62 71
57 61 73
61 64 78
70 73 90
67 70 85
79 82 103
79 80 103
92 93 119
90 90 118
95 97 125
98 101 130
101 102 133
103 103 136
98 103 133
111 111 144
109 110 143
107 110 144
105 108 143
104 109 142
98 105 137
104 109 143
103 107 142
116 120 154
105 110 145
112 116 152
109 112 148
116 117 152
108 111 148
111 110 141
107 105 138
103 103 132
108 107 140
107 102 134
108 109 135
110 114 138
107 110 133
107 112 128
102 103 117
106 108 125
103 109 125
100 107 120
100 110 122
98 105 119
96 102 110
102 108 124
99 106 125
101 110 124
96 106 117
100 107 127
100 107 126
101 108 130
97 104 125
102 106 135
102 102 132
100 104 133
103 105 135
101 102 131
103 104 134
108 112 143
106 108 141
111 113 145
113 114 146
110 112 145
108 108 139
107 103 135
103 104 136
104 106 139
101 104 135
105 107 140
106 106 141
106 104 141
105 106 142
106 107 142
116 118 154
118 119 157
113 113 147
104 107 141
108 114 142
126 140 165
131 150 173
133 151 175
130 149 173
130 149 171
133 151 174
132 151 176
133 152 177
129 148 172
133 153 177
131 149 175
133 151 175
132 151 176
127 159 152
114 182 31
113 182 26
112 179 26
119 191 27
114 183 26
115 186 26
116 187 27
118 187 26
117 184 26
117 185 26
114 183 26
119 187 27
114 181 26
114 185 26
120 189 27
121 192 27
118 183 26
117 183 26
117 186 26
120 193 27
116 184 26
117 181 26
116 180 25
114 179 25
119 186 26
114 181 25
118 187 26
120 190 27
119 186 26
115 182 26
118 185 26
118 185 26
115 182 26
120 189 27
116 179 25
115 179 25
115 180 25
112 174 25
118 181 25
115 180 25
120 187 26
116 180 25
113 179 26
112 173 24
118 183 26
114 179 26
116 183 26
117 180 25
120 186 26
115 183 26
112 175 24
113 178 25
118 186 26
115 181 26
115 183 26
118 186 26
115 180 25
116 181 26
113 176 25
116 181 25
111 173 24
111 177 25
115 178 25
111 172 24
115 177 25
112 179 25
113 181 26
110 170 24
114 180 25
115 183 26
115 183 26
108 169 24
114 178 25
111 176 24
112 177 25
109 176 25
111 179 25
109 173 24
109 174 24
110 176 25
108 171 24
111 178 25
106 170 24
110 176 25
104 168 24
110 177 25
115 170 93
133 153 171
130 149 172
134 154 178
133 151 175
132 150 174
133 151 176
133 152 176
131 150 175
133 152 176
133 153 176
131 149 173
135 154 179
130 148 173
118 138 170
162 179 199
155 172 192
150 168 191
145 162 184
137 154 173
139 157 179
135 152 175
137 154 177
137 155 180
135 153 177
137 155 177
140 159 184
136 153 177
132 150 173
136 153 176
137 155 178
139 159 182
136 154 175
139 159 182
134 151 175
138 156 180
132 149 172
136 155 179
135 152 175
139 157 182
132 151 175
135 153 175
134 153 177
136 154 177
133 151 174
135 153 177
134 152 175
137 157 182
133 151 174
135 153 177
136 155 179
134 152 176
137 155 180
135 153 175
134 153 177
135 153 178
135 153 177
133 152 174
137 156 181
136 155 180
135 155 180
132 151 174
135 155 179
134 152 175
132 149 172
138 158 181
138 157 182
133 151 174
130 149 169
137 155 179
132 150 174
136 156 178
132 150 174
134 152 176
133 152 174
131 148 172
138 157 181
129 146 168
134 151 173
134 151 172
134 148 170
132 148 170
135 152 175
131 148 168
135 153 175
137 151 173
136 150 172
132 147 169
134 152 175
137 153 177
135 153 176
134 150 173
136 153 177
139 155 176
136 151 174
131 144 165
140 157 179
138 154 177
136 152 173
140 158 178
139 156 178
147 163 183
132 158 162
117 122 151
123 137 161
132 151 174
130 148 173
128 146 169
133 153 174
130 147 172
132 148 173
132 148 173
130 147 172
131 149 174
131 149 173
132 150 172
131 147 170
133 151 175
130 148 171
132 150 175
126 142 167
129 145 170
128 146 169
131 148 172
130 147 170
129 146 170
131 149 172
129 145 170
128 145 167
132 151 175
126 142 165
130 148 172
130 146 170
128 144 166
128 145 169
125 142 163
128 145 170
127 142 166
126 141 167
128 146 169
131 149 174
130 148 172
129 146 170
129 146 168
127 143 167
125 143 165
129 147 170
124 137 160
127 143 166
124 140 164
132 149 172
124 142 163
126 143 165
126 142 165
125 141 164
127 144 166
127 145 167
126 143 167
126 142 166
125 140 164
115 130 152
120 135 156
124 138 162
120 134 159
121 138 158
124 138 163
120 137 158
121 136 159
122 138 162
120 136 159
116 132 152
119 135 155
117 129 154
100 105 134
100 97 131
80 71 105
73 54 98
70 40 94
70 27 92
71 28 94
68 26 90
72 27 94
74 29 99
70 27 92
73 28 96
73 28 96
70 27 94
73 28 96
69 26 90
71 28 95
72 28 96
71 28 94
74 29 98
74 29 98
68 26 90
69 27 91
74 28 97
73 28 95
69 27 92
65 25 87
69 27 92
69 27 92
71 27 94
67 26 89
68 27 92
64 25 84
68 26 92
74 28 96
64 24 82
67 26 89
67 27 90
71 28 94
72 27 94
62 24 83
71 28 94
67 26 88
69 26 89
68 26 88
65 25 85
70 27 91
62 23 78
66 25 86
65 25 85
59 24 76
61 41 77
62 55 79
61 59 76
68 72 85
69 86 86
67 86 83
77 97 96
73 95 89
72 97 89
57 83 67
61 84 73
59 81 69
44 64 52
34 66 35
44 68 47
33 63 32
32 71 28
37 67 37
26 56 22
39 70 38
26 59 22
31 70 26
34 71 28
41 82 37
37 75 33
31 73 26
36 76 30
41 87 36
38 79 33
33 71 27
41 85 35
39 87 35
38 82 32
38 84 33
37 79 32
40 79 39
32 70 30
43 77 44
54 94 59
46 80 50
60 90 68
61 89 69
67 92 79
78 102 94
74 96 89
89 109 108
88 110 108
85 106 101
78 103 93
77 104 92
85 110 104
85 112 102
95 119 116
81 109 98
96 118 116
102 124 127
96 123 118
109 132 137
105 127 130
108 132 136
106 130 131
103 128 129
106 128 132
112 137 141
109 132 134
107 131 135
108 131 139
113 132 141
116 138 147
119 138 151
115 136 147
112 135 143
120 143 153
114 136 146
115 134 146
117 140 149
112 135 145
120 140 155
114 136 149
123 144 160
124 143 160
120 141 156
121 143 158
123 143 157
115 137 150
122 145 158
122 143 158
122 142 159
127 147 163
127 147 163
123 145 159
123 141 159
126 146 165
130 147 167
121 142 156
124 144 161
121 140 156
124 143 161
130 148 167
130 149 169
128 144 164
128 147 165
123 142 160
129 150 168
125 146 163
131 150 169
127 146 164
131 148 170
127 146 165
130 149 169
126 146 164
129 148 167
129 148 168
131 151 171
127 148 164
132 150 173
128 145 166
129 149 169
131 151 171
132 151 172
129 150 169
130 148 167
129 148 168
128 147 168
130 148 170
128 147 167
129 146 167
130 147 169
127 148 169
130 148 170
131 149 170
132 148 169
134 152 174
131 150 171
130 148 169
130 149 168
131 150 172
130 149 171
130 146 169
128 145 166
129 146 166
132 150 171
133 151 173
120 132 146
112 117 124
108 113 119
108 112 118
108 112 118
104 108 114
103 108 113
108 112 118
102 105 109
104 108 113
104 108 114
105 108 115
98 100 106
96 100 108
75 77 86
24 20 55
16 9 48
17 10 50
17 10 51
17 10 50
17 10 52
17 10 51
19 11 59
16 10 51
18 11 55
20 12 58
17 11 56
17 11 54
18 11 56
18 11 57
17 10 52
17 11 55
28 26 53
49 47 56
49 51 57
64 67 70
63 65 72
73 76 83
73 75 81
77 79 85
74 77 84
81 84 90
89 91 95
83 88 94
89 92 97
93 95 100
96 99 105
90 94 100
97 100 106
98 101 107
95 98 103
97 101 107
99 104 109
99 102 106
101 105 110
98 102 105
96 99 102
98 103 106
98 102 107
98 103 109
100 105 109
96 101 104
104 109 112
102 107 112
100 105 110
104 108 111
101 105 110
99 104 109
102 108 112
101 106 109
99 104 106
102 108 111
97 102 107
98 104 107
99 104 108
98 103 107
102 108 110
104 109 112
98 102 106
101 108 113
101 105 109
101 106 108
100 105 107
100 105 107
101 105 110
96 103 103
100 105 109
102 107 110
100 106 109
103 109 112
99 103 105
96 101 103
98 105 106
102 107 109
98 103 106
99 105 108
98 104 106
96 102 104
97 103 105
99 103 107
99 105 108
98 103 106
101 106 109
100 106 110
100 104 108
103 108 112
99 105 108
101 107 109
103 107 108
103 108 110
98 103 105
102 106 108
100 105 108
102 107 109
103 108 111
98 104 107
102 108 109
100 105 108
105 112 115
100 106 109
98 103 106
103 109 113
99 103 107
100 104 107
105 110 114
99 104 108
101 106 109
102 107 112
102 107 110
104 111 114
101 105 109
101 106 109
104 109 112
102 106 109
102 108 112
107 111 115
101 105 109
101 104 108
102 106 109
103 108 110
104 108 112
105 111 115
103 106 109
103 107 110
102 106 111
104 108 113
106 110 115
104 109 113
104 108 113
104 107 110
101 106 110
105 109 113
103 108 112
103 106 110
104 109 114
102 107 111
106 111 115
104 109 113
106 110 114
106 109 114
105 109 114
108 112 115
103 108 111
107 112 116
105 110 113
106 109 113
105 111 115
102 107 109
105 110 115
104 107 112
106 110 115
103 108 111
109 113 117
105 110 114
107 110 114
106 110 114
101 105 109
102 107 110
104 109 114
101 105 108
105 110 113
107 112 116
107 111 116
104 110 112
102 107 111
103 109 112
102 107 111
104 108 112
105 110 113
103 107 110
102 106 110
108 113 118
102 107 110
104 108 112
104 108 112
104 108 111
105 109 111
104 109 113
101 107 111
102 107 109
101 105 108
103 108 112
101 105 109
99 104 106
100 105 108
100 105 107
100 105 107
107 112 116
105 111 114
97 101 103
100 104 109
101 106 109
103 108 111
105 109 110
100 106 108
103 108 112
99 105 107
103 108 112
104 110 113
96 102 103
103 109 111
102 109 112
98 103 103
106 112 116
100 106 109
99 106 106
102 108 110
104 110 112
100 106 107
96 103 102
100 105 107
101 107 108
98 103 103
94 101 101
93 100 100
92 98 98
100 107 107
97 104 103
98 104 104
97 105 101
95 102 101
91 98 95
95 106 98
94 116 76
83 112 44
86 118 37
87 121 38
89 124 39
88 123 38
88 122 38
90 124 38
83 116 36
88 122 38
87 118 37
83 116 36
89 124 39
87 119 37
88 121 38
88 120 38
86 119 36
87 120 37
86 118 36
87 120 37
88 123 39
88 120 37
86 120 37
84 116 36
84 114 35
85 118 37
88 121 38
87 119 37
88 121 37
84 117 36
87 118 36
88 121 37
89 123 38
85 117 36
88 121 37
87 119 37
82 112 34
87 118 36
91 125 39
87 119 37
85 115 36
88 122 38
84 115 35
83 114 35
87 119 37
84 116 36
81 110 34
85 116 36
85 116 36
84 114 35
85 115 36
86 119 37
85 115 36
84 115 36
84 113 35
89 122 38
86 118 37
86 117 37
88 121 38
88 120 38
85 116 36
85 115 35
85 117 38
89 121 38
87 119 38
85 115 37
86 117 39
87 108 64
93 107 89
99 105 102
99 105 105
101 107 111
100 105 107
96 101 104
100 106 107
97 102 107
99 104 108
100 105 109
98 102 104
97 103 105
99 103 107
97 102 105
100 104 108
103 107 112
99 103 103
105 110 115
97 102 105
97 101 105
103 108 112
103 107 112
95 99 103
99 101 105
103 107 112
101 106 109
104 108 113
101 104 109
99 102 108
101 104 109
97 99 103
103 107 113
105 108 114
101 105 110
95 98 103
103 107 113
105 109 114
101 105 110
103 106 113
101 104 108
103 107 114
99 102 108
103 106 112
98 102 109
99 104 110
98 102 107
99 102 108
101 105 111
101 105 109
99 103 108
103 107 113
102 106 112
97 99 106
97 99 105
98 101 107
99 102 109
99 102 108
98 101 106
104 108 113
101 105 111
101 105 112
99 101 107
97 100 107
97 99 104
96 98 105
103 106 113
98 101 107
101 104 110
101 105 113
95 98 105
97 100 107
99 102 108
94 96 104
98 101 108
90 92 101
97 100 110
90 92 101
94 97 105
97 100 109
97 101 109
92 95 104
90 93 104
96 100 108
96 100 107
96 99 108
90 93 101
96 100 108
92 95 104
92 95 105
89 92 102
82 85 95
83 86 96
86 88 96
79 81 91
79 82 92
80 79 91
77 66 85
75 54 80
77 45 76
81 46 79
79 44 77
79 45 77
84 48 81
82 47 79
83 47 80
82 46 78
82 47 80
83 47 78
84 47 80
80 46 77
85 48 80
83 47 80
83 47 78
83 48 80
85 47 79
80 45 74
81 46 75
86 48 80
82 46 76
81 45 75
82 46 78
81 45 76
78 44 73
79 44 74
75 42 71
74 41 68
79 43 71
83 54 79
93 83 95
107 109 116
111 109 115
103 89 95
105 81 89
114 87 96
145 113 126
160 130 145
167 136 151
152 122 134
159 128 142
147 116 127
157 124 135
149 117 128
149 120 132
149 116 124
144 111 119
146 113 121
149 115 124
153 117 125
149 116 127
153 121 131
155 122 133
154 122 132
164 131 145
158 127 141
164 134 150
163 132 150
165 136 152
168 140 161
173 146 170
173 144 165
175 145 165
179 149 171
178 149 172
180 152 177
181 153 178
181 155 182
182 156 183
185 159 187
184 158 187
184 158 187
185 160 189
187 163 194
188 163 195
188 163 195
189 164 195
189 164 195
189 164 195
190 164 195
190 164 195
190 164 195
193 165 195
191 165 195
192 165 195
192 165 195
193 165 195
194 166 195
194 166 195
194 166 195
197 167 195
196 167 195
198 167 195
199 168 195
201 168 195
199 168 195
201 169 195
198 166 191
199 166 190
199 166 191
195 163 187
181 151 171
194 161 183
183 152 174
182 150 169
182 147 168
165 132 151
168 130 149
133 127 145
132 150 174
131 149 173
132 151 174
131 149 173
126 143 166
132 151 175
130 149 174
133 151 176
131 149 174
134 152 176
130 148 170
130 148 173
129 147 171
135 153 176
131 148 172
132 150 174
132 150 174
132 150 175
132 150 175
130 148 172
131 150 173
134 153 176
130 148 173
133 151 175
128 146 171
129 146 168
127 145 168
108 123 142
69 80 93
36 43 47
23 31 31
24 31 31
23 30 30
25 33 33
25 32 32
25 32 32
24 31 31
25 32 32
25 33 32
25 32 32
25 33 33
24 31 31
25 32 32
26 34 34
26 34 33
25 33 33
27 35 34
26 34 33
26 33 32
26 33 32
24 32 32
28 36 35
28 36 35
26 34 33
27 34 34
26 33 33
27 36 35
27 35 35
25 34 33
26 33 32
28 37 35
26 34 33
26 34 34
27 36 35
27 34 34
26 34 33
26 33 32
26 34 33
28 36 35
25 33 32
24 33 32
27 36 35
26 34 33
27 35 34
26 34 33
27 36 35
27 36 35
28 37 35
26 34 33
27 36 34
27 35 34
25 33 33
28 36 35
27 35 35
28 37 36
27 36 34
26 34 34
27 36 34
26 35 34
27 35 34
25 33 32
28 37 35
27 36 35
27 36 34
27 36 35
26 35 34
27 35 34
28 37 35
27 35 34
28 36 35
28 37 36
27 36 35
26 34 33
28 37 36
27 36 35
28 37 36
27 36 34
26 35 34
28 36 36
28 37 37
72 83 95
105 120 139
132 150 173
132 150 175
129 146 169
132 150 174
130 148 173
130 148 172
130 148 171
127 144 168
132 150 174
129 146 171
131 149 172
134 152 175
128 145 169
134 152 175
132 150 174
130 149 173
129 147 170
129 147 170
129 147 170
131 149 173
132 151 176
131 149 172
131 150 173
132 150 174
131 149 174
131 149 173
129 146 169
133 150 175
131 149 173
131 148 172
127 143 166
132 151 175
132 150 173
130 147 171
130 148 172
126 143 166
126 143 167
129 147 171
131 149 174
128 147 171
131 149 173
130 148 171
129 147 171
128 146 169
131 149 172
128 145 168
132 150 173
129 148 171
125 142 164
130 147 171
129 147 170
129 147 172
127 145 168
127 145 167
126 143 166
131 149 172
129 148 171
132 150 173
131 149 173
127 144 167
129 146 169
124 140 163
129 147 171
130 149 173
127 145 167
128 146 169
130 148 172
113 133 144
62 96 41
57 95 14
58 95 14
53 88 13
58 97 14
57 94 14
56 93 14
56 93 14
57 94 14
57 95 14
58 97 14
54 88 13
58 97 14
60 98 15
58 95 14
59 96 14
57 94 14
59 98 14
59 96 14
56 93 14
60 98 14
59 98 15
61 100 15
59 98 15
60 99 15
59 96 14
59 98 15
59 97 14
60 100 15
57 95 14
62 102 15
56 91 14
58 95 14
58 96 14
62 103 15
59 97 15
60 98 14
61 101 15
61 102 15
59 98 14
59 98 14
62 104 15
59 98 14
60 100 15
59 98 15
59 99 15
58 96 14
59 98 14
60 100 15
61 103 15
60 100 15
58 97 14
62 103 15
59 97 14
62 104 15
65 108 16
61 103 15
62 103 15
61 102 15
61 102 15
62 103 15
63 105 15
63 105 16
61 102 15
64 107 16
63 104 15
58 96 14
63 104 15
59 97 14
62 103 15
59 99 15
62 105 15
60 101 15
61 103 15
57 96 14
64 106 16
63 106 16
61 101 15
60 101 15
60 101 15
65 108 16
