P3
1600 1
255
82 39 108
86 40 113
85 40 111
87 41 113
80 37 107
85 40 111
80 38 106
82 39 110
84 40 111
79 37 104
82 38 107
85 40 111
82 39 108
84 40 111
84 39 109
82 38 108
84 39 110
84 39 108
84 39 111
82 39 107
85 40 111
82 38 108
78 36 102
83 39 107
85 40 111
84 39 108
85 40 112
83 39 108
78 36 103
81 38 107
79 37 103
81 38 106
82 38 106
82 38 106
79 37 103
82 38 107
83 39 110
82 38 107
82 38 107
81 38 106
82 38 107
84 39 109
81 38 107
81 38 107
84 39 107
81 38 106
86 40 109
82 38 107
82 38 106
82 38 104
80 37 105
80 37 103
81 38 106
79 36 102
85 39 110
78 36 102
82 38 106
83 38 106
79 37 101
80 37 103
105 105 139
126 144 168
131 149 173
129 146 171
130 148 169
126 145 170
126 145 170
132 150 172
125 142 164
128 146 170
128 146 170
129 148 173
128 145 169
131 149 173
128 145 168
129 147 171
132 149 173
128 146 170
130 148 171
130 148 172
129 148 171
130 148 172
132 149 173
126 144 166
130 147 171
131 149 171
128 145 170
131 149 173
127 144 167
131 148 171
130 148 172
131 149 173
129 147 170
128 146 168
127 145 167
125 142 164
131 149 172
128 145 168
125 143 166
123 142 164
127 145 168
125 143 165
127 144 166
125 142 164
128 146 168
126 143 165
122 140 162
123 140 160
128 145 167
129 147 170
127 144 166
127 144 167
122 140 163
123 140 161
121 139 160
124 142 163
126 143 166
119 136 157
122 139 162
120 137 157
122 138 158
120 136 155
116 133 152
124 141 163
123 141 161
123 140 159
125 142 163
125 141 162
123 141 162
124 141 161
120 136 156
127 143 164
114 129 148
120 137 156
119 134 152
121 138 158
122 139 160
118 134 154
118 134 154
113 127 143
118 134 153
124 140 160
119 134 152
114 130 147
112 127 142
111 126 141
115 131 149
116 130 148
112 127 144
111 126 142
114 129 146
111 125 142
104 119 132
67 83 74
38 61 1
36 58 1
36 58 1
36 57 1
37 60 1
38 60 1
39 63 1
36 59 1
38 61 1
37 59 1
37 61 1
35 58 1
34 53 1
40 63 1
39 63 1
40 64 1
38 60 1
38 61 1
38 61 1
38 61 1
37 61 1
39 62 1
40 64 1
39 62 1
38 61 1
39 63 1
36 59 1
37 60 1
35 57 1
38 62 1
38 61 1
37 60 1
37 61 1
37 60 1
40 64 1
38 61 1
38 61 1
37 59 1
39 65 1
39 63 1
39 62 1
38 62 1
40 64 1
37 60 1
37 60 1
38 62 1
39 62 1
38 60 1
37 60 1
39 63 1
37 60 1
38 61 1
39 64 1
38 61 1
40 65 1
39 65 1
37 59 1
38 62 1
39 62 1
39 63 1
38 59 1
37 60 1
39 63 1
36 58 1
38 60 1
37 60 1
37 62 1
39 63 1
37 60 1
38 61 1
37 61 1
35 57 1
38 62 1
35 57 1
36 58 1
34 56 1
37 61 1
37 60 1
35 57 1
37 59 1
37 60 1
34 56 1
32 53 1
33 52 1
36 56 1
33 52 1
34 54 1
33 54 1
36 55 18
71 86 89
113 129 146
125 143 166
126 144 167
125 142 163
125 143 165
125 143 167
128 145 168
119 136 156
124 142 162
129 148 171
129 147 169
130 147 171
130 147 171
129 147 170
126 143 164
128 146 168
126 144 165
131 149 172
132 151 174
129 147 170
130 148 171
120 135 157
107 114 140
85 88 113
79 82 105
74 76 97
73 75 94
70 74 92
66 70 84
60 63 79
62 65 81
63 66 81
62 67 80
65 69 84
69 72 88
65 68 84
74 77 96
78 83 104
83 87 112
90 93 120
85 89 115
90 94 122
93 96 125
93 97 127
100 103 134
93 95 124
100 104 136
95 98 128
100 104 136
99 102 135
102 106 137
102 105 137
101 105 138
96 100 129
99 103 133
101 105 137
104 107 140
105 109 142
101 103 135
97 102 131
99 104 135
103 108 139
104 106 140
104 108 141
102 105 135
99 103 133
104 107 138
103 107 137
104 106 139
98 102 133
103 106 140
104 107 139
101 106 137
106 110 141
104 108 139
103 107 139
101 104 135
102 106 136
103 106 138
105 109 142
100 104 133
107 111 145
105 109 142
107 111 142
103 107 140
105 109 140
102 105 139
106 109 142
105 109 142
104 107 140
104 107 141
103 106 138
105 107 140
105 108 140
101 104 137
106 110 141
103 106 139
103 106 140
105 109 142
104 108 140
106 109 143
105 109 141
106 109 142
100 102 134
102 103 136
97 99 131
109 116 145
120 133 158
133 151 176
134 152 176
133 151 176
130 147 171
132 150 173
132 149 173
131 150 176
133 150 174
131 149 173
135 154 178
135 152 177
131 153 167
112 173 64
112 179 26
114 183 26
116 186 26
116 184 26
116 184 26
116 186 26
114 181 25
112 180 26
112 178 25
113 181 25
116 184 26
118 177 29
152 120 52
164 83 60
169 62 64
170 62 64
173 63 65
170 63 64
170 62 64
174 64 65
168 61 63
172 63 64
173 64 65
171 63 65
173 63 64
170 63 64
171 63 64
173 63 65
169 62 64
170 63 64
173 63 65
170 63 64
168 62 63
171 63 64
171 63 64
167 62 63
168 62 63
169 62 63
167 61 63
166 61 63
169 62 63
167 61 62
166 61 63
168 62 64
169 62 63
168 62 63
171 63 64
168 61 62
166 61 63
168 61 63
168 61 63
166 61 62
169 62 63
167 61 62
166 61 62
171 63 64
169 62 63
165 61 63
165 61 62
166 60 61
161 59 60
163 60 61
161 84 58
144 118 49
119 161 32
107 165 23
109 166 23
111 168 23
108 170 24
108 166 23
110 175 25
109 166 23
111 174 24
111 179 25
107 165 23
110 169 24
108 172 24
111 169 24
107 168 23
106 165 23
109 176 25
109 173 24
105 168 24
109 174 24
111 178 25
105 166 23
101 161 22
103 166 23
103 167 23
102 166 23
104 167 23
104 166 23
103 166 23
118 154 128
133 151 175
130 147 171
133 151 175
134 153 177
133 150 174
134 153 177
124 142 166
146 164 186
136 155 177
125 150 157
132 154 169
130 153 163
139 159 175
137 158 175
138 158 174
140 159 176
133 154 171
129 146 166
131 152 167
131 152 168
130 147 170
133 153 171
130 150 165
134 154 171
135 152 175
134 151 174
136 155 178
134 153 175
137 156 179
131 149 171
132 150 173
134 155 175
135 155 177
138 157 180
137 155 179
132 150 171
137 156 179
136 155 179
138 156 178
134 154 175
135 155 178
130 149 173
137 155 180
132 150 173
128 146 170
137 156 180
135 152 178
135 151 178
133 151 177
133 150 175
136 154 178
136 153 177
136 152 176
131 149 172
132 150 172
139 156 179
136 154 177
137 156 178
132 151 173
134 152 176
138 156 180
133 152 176
136 155 178
132 151 172
134 153 174
137 155 179
137 154 178
133 149 171
131 149 171
134 151 174
134 151 173
134 152 174
136 144 166
137 150 170
136 149 170
133 148 172
133 143 164
131 147 168
135 150 170
136 149 170
132 148 172
128 144 165
129 143 164
132 146 168
128 143 166
132 147 169
134 151 174
135 149 172
137 153 176
135 150 172
139 154 178
139 154 176
136 155 177
135 152 170
133 152 172
143 162 180
138 157 176
146 165 183
137 159 175
121 144 166
122 140 153
116 123 152
131 148 172
130 147 171
129 147 171
127 143 167
130 147 172
129 146 170
130 146 170
130 147 172
130 146 171
131 147 172
130 147 171
127 141 165
131 146 171
125 140 166
124 138 164
127 142 167
124 139 163
122 136 161
130 147 171
124 139 164
126 141 166
126 140 166
127 143 167
126 141 166
125 139 165
128 143 167
124 138 162
122 136 161
124 139 162
126 139 163
124 140 165
124 138 161
122 134 158
129 145 169
127 142 166
123 137 163
123 138 162
124 138 162
124 139 164
120 132 158
125 139 163
118 130 156
118 129 154
116 128 153
116 127 152
115 127 152
114 125 149
116 127 151
114 124 148
112 123 148
113 123 148
113 124 147
114 125 150
111 120 144
113 124 146
108 118 141
96 103 127
108 117 142
104 114 136
99 107 130
103 111 135
101 109 131
105 112 136
108 117 140
96 103 124
99 105 129
96 103 125
98 105 127
97 105 127
90 94 115
93 98 120
84 86 108
84 89 109
85 88 108
81 83 104
80 85 101
74 76 95
76 76 97
68 67 87
62 57 78
66 66 82
62 56 79
62 57 78
52 47 65
54 42 69
63 53 77
36 25 45
39 22 51
45 33 60
39 14 52
49 32 63
40 22 51
40 16 53
37 14 46
42 15 54
38 14 47
37 14 47
43 22 56
40 26 51
34 12 45
36 25 45
39 23 46
33 15 41
48 38 59
35 27 42
37 31 43
37 36 45
56 58 69
41 40 49
49 49 57
54 56 66
44 42 54
66 72 79
61 67 76
71 73 86
61 66 76
60 61 75
61 64 77
59 63 71
64 72 79
61 68 74
68 76 85
72 77 86
69 75 86
69 77 86
78 88 99
77 86 96
80 90 102
75 81 94
71 81 93
72 78 121
47 44 130
34 23 130
33 23 128
34 23 130
34 23 131
34 23 132
33 23 130
33 23 130
34 23 130
33 23 127
33 22 126
32 22 125
33 23 129
33 22 125
33 22 128
33 23 129
32 22 125
33 22 125
32 22 125
33 22 127
32 22 124
31 21 122
31 21 122
32 22 124
32 22 123
32 22 123
32 22 122
31 21 117
31 21 118
31 21 121
32 21 122
31 21 119
31 21 119
32 21 121
30 20 116
32 22 123
30 20 112
31 21 120
30 20 115
31 21 117
31 21 115
30 20 115
30 21 117
29 19 109
50 50 121
86 99 129
107 125 145
110 131 140
118 138 153
113 132 147
115 134 149
113 136 147
120 139 156
125 144 163
115 134 147
126 146 163
121 139 156
119 141 156
124 142 162
118 138 152
121 141 157
120 138 155
117 136 150
124 144 162
122 141 161
120 137 153
125 143 163
122 142 159
123 142 161
126 145 164
124 143 159
118 138 154
127 146 164
122 144 158
123 140 157
124 143 162
125 145 164
128 146 166
128 146 166
126 143 164
123 142 161
129 148 167
124 143 163
130 150 170
128 148 168
129 149 170
126 143 160
126 145 164
129 149 169
125 145 162
130 148 169
126 145 164
127 145 166
129 149 167
127 145 166
126 144 165
128 145 166
129 147 169
129 147 167
127 145 163
133 151 173
129 146 168
132 149 170
132 151 173
128 149 168
129 147 168
129 146 166
122 139 159
130 148 170
132 151 173
131 147 169
132 148 170
130 147 169
132 152 173
128 145 165
127 144 165
127 145 166
133 152 174
129 144 166
126 144 162
129 148 167
132 149 170
127 144 164
129 146 168
124 142 163
132 150 170
133 151 172
130 147 167
130 148 171
132 149 170
132 149 170
129 147 166
131 148 170
130 148 168
127 144 164
117 129 140
110 115 121
108 112 118
106 110 114
103 106 112
102 105 111
102 107 112
104 105 110
104 109 114
100 103 108
102 105 110
99 101 106
99 103 109
100 102 107
90 94 99
96 99 104
93 96 102
88 91 98
77 77 84
57 58 72
56 55 67
41 40 57
40 37 57
27 25 49
42 42 58
53 52 60
44 44 49
40 39 44
46 45 48
48 47 52
60 61 65
60 60 65
59 61 64
70 71 75
67 70 73
73 75 80
78 80 84
86 87 91
84 85 89
84 87 91
83 86 92
92 95 100
91 94 98
89 92 97
91 94 98
90 94 100
99 102 107
97 101 107
92 95 99
101 105 108
94 98 103
95 99 101
99 104 108
93 98 101
101 105 110
97 101 104
98 102 106
95 99 100
98 102 106
95 99 102
100 104 108
102 106 109
100 105 108
100 103 107
102 107 111
102 107 110
100 104 109
97 102 106
98 103 105
100 104 108
97 103 106
99 104 109
103 108 112
100 106 110
100 103 106
99 105 106
95 98 101
100 104 109
98 103 105
99 103 105
100 104 106
97 101 104
103 108 111
100 104 108
100 106 109
102 106 109
97 102 105
100 105 109
97 102 104
102 106 109
100 106 108
99 104 107
99 104 106
97 100 103
96 101 104
101 106 108
99 102 105
98 103 105
103 107 110
101 106 109
102 106 109
102 109 112
100 105 109
105 109 113
100 104 108
93 97 99
104 109 111
104 109 112
100 105 107
102 107 111
101 106 110
103 108 112
103 107 111
104 110 113
103 106 109
101 106 110
101 106 109
104 108 112
101 105 109
99 103 106
104 107 110
104 109 113
103 107 111
103 107 111
98 101 103
103 107 109
104 107 110
105 110 115
103 106 110
101 106 109
105 109 114
100 104 107
101 105 108
104 108 112
99 102 105
100 103 108
104 109 113
102 107 110
104 109 114
102 107 110
106 110 115
103 108 111
105 109 113
101 105 108
105 110 114
105 108 112
102 107 111
101 105 109
101 105 108
102 105 111
103 107 112
100 106 110
102 107 110
104 109 115
106 111 114
104 107 110
98 103 106
104 107 112
101 106 110
99 103 107
101 104 108
101 106 108
102 107 110
100 106 108
103 106 109
103 108 112
106 111 115
101 105 107
101 106 110
102 107 110
103 107 111
104 108 113
105 110 115
102 106 110
104 108 113
100 105 108
104 108 112
102 107 111
104 108 111
101 105 106
105 108 112
100 105 109
99 103 106
102 106 109
98 102 103
102 106 108
102 106 110
105 111 114
101 104 107
97 99 102
100 105 106
97 102 105
99 104 107
100 104 107
102 106 110
99 105 105
98 102 104
103 108 111
98 101 105
105 110 112
98 103 104
101 107 111
101 107 110
100 104 106
99 105 107
104 108 110
101 105 107
99 104 107
94 98 99
98 103 104
102 108 109
95 99 98
98 104 106
96 102 104
96 101 101
99 106 106
94 101 98
97 102 104
95 102 97
99 104 106
95 101 102
96 102 103
94 100 98
93 100 98
93 99 97
93 101 97
99 104 105
96 103 101
92 97 95
91 99 94
92 100 97
86 93 89
89 95 92
91 98 96
90 97 93
89 102 83
86 105 69
85 111 55
79 110 34
80 109 34
87 119 37
84 113 36
80 111 34
84 117 36
82 113 35
80 110 34
82 112 34
84 117 36
78 108 33
83 114 35
86 117 37
81 110 34
82 112 35
81 111 34
81 112 35
81 110 33
81 111 34
85 116 36
80 109 33
78 107 33
81 110 34
80 109 33
75 101 31
80 109 33
77 107 32
81 110 33
78 106 33
78 108 32
83 114 35
81 109 33
84 115 35
78 105 32
83 113 35
82 111 34
83 112 35
83 114 35
77 103 31
77 104 31
78 107 32
77 104 32
76 104 31
79 105 32
75 103 31
79 108 32
76 102 30
78 105 32
76 102 31
77 104 32
76 102 30
79 108 33
76 104 32
81 110 34
81 109 33
82 112 35
79 107 34
79 108 33
79 107 33
79 105 32
80 109 34
82 113 36
77 103 32
78 107 34
78 103 45
87 104 74
96 108 93
92 97 99
93 97 97
102 107 110
94 97 101
97 102 102
99 103 106
100 104 107
98 102 105
102 106 108
95 99 100
97 101 103
93 97 101
101 106 108
97 99 104
99 103 107
96 100 102
99 103 109
99 102 104
96 101 104
101 106 107
99 104 106
97 101 104
103 107 112
101 105 109
95 99 102
98 102 105
98 103 107
92 96 102
99 103 107
97 100 105
101 104 108
100 103 109
99 103 105
100 103 108
96 98 102
98 102 106
98 101 105
93 96 99
96 99 104
98 103 106
96 99 104
100 104 108
98 100 106
101 104 109
103 106 112
100 103 108
99 101 106
100 103 107
95 98 104
101 104 110
100 103 107
101 106 111
98 100 107
96 99 105
98 101 107
100 103 109
97 100 104
94 96 103
99 101 106
95 98 103
96 98 105
102 106 113
102 105 113
94 97 105
91 93 99
97 101 108
93 96 103
92 93 101
92 96 103
90 91 99
99 103 111
94 97 104
97 101 108
94 98 104
98 101 108
90 92 98
92 94 102
94 97 104
95 97 103
91 94 102
89 91 101
89 92 100
88 89 97
81 83 93
93 96 106
84 87 98
83 86 95
79 79 93
78 70 85
75 53 75
77 46 76
72 41 69
78 44 75
79 45 77
75 43 72
81 47 78
75 43 72
78 44 74
80 46 77
81 46 77
80 45 76
79 45 75
78 44 73
76 43 71
78 44 73
77 43 72
80 45 75
80 46 76
78 44 73
78 44 73
78 44 73
78 43 72
75 42 68
76 42 69
79 45 74
73 40 67
73 40 66
77 43 70
76 42 69
71 39 63
68 37 60
72 39 63
70 38 61
69 39 62
84 62 74
94 76 85
96 70 75
82 61 67
113 90 104
136 110 124
141 114 128
137 110 125
132 105 118
143 112 124
134 106 116
129 98 107
109 80 87
114 87 92
107 82 88
120 90 94
118 88 92
114 86 91
121 90 93
119 91 95
118 89 93
117 88 94
119 90 97
124 93 99
126 95 100
128 97 103
133 101 107
134 100 106
139 106 113
142 110 119
148 116 128
147 115 126
154 123 138
151 122 137
162 131 147
166 135 154
174 143 163
165 135 154
177 145 164
183 151 172
183 151 173
187 156 180
188 156 179
190 158 182
192 161 185
195 164 191
193 163 190
196 166 193
195 166 194
198 167 194
197 167 195
198 167 195
197 167 195
198 167 195
197 167 195
200 168 195
199 168 195
198 168 195
199 168 195
200 168 195
201 169 195
200 168 195
200 168 195
200 168 195
200 168 195
199 167 193
200 167 193
201 168 193
199 165 190
197 164 188
194 161 185
195 162 187
193 162 183
186 156 177
184 155 175
196 163 186
172 144 163
177 147 166
183 152 173
183 152 173
177 146 165
171 140 158
156 127 143
169 137 157
147 110 127
142 128 148
131 149 173
125 143 167
126 143 168
130 147 171
123 141 165
128 146 169
130 149 173
128 147 171
129 146 169
127 145 168
129 148 171
128 146 169
123 141 164
125 141 164
124 143 167
131 150 174
126 144 166
131 148 172
126 144 169
130 147 171
129 147 171
128 146 169
127 144 168
130 147 171
127 145 169
125 142 165
129 147 171
124 141 165
118 135 156
99 113 130
75 86 99
37 46 51
21 27 27
22 29 29
23 30 30
22 28 28
23 30 30
23 30 30
22 28 28
23 30 30
24 31 31
23 30 30
22 29 28
24 32 31
24 31 31
25 33 33
23 30 29
25 32 32
25 32 31
24 32 31
25 32 31
25 32 31
24 31 31
23 31 30
26 33 33
23 31 30
26 34 33
24 32 31
24 32 32
24 32 31
24 32 31
25 32 31
26 34 33
27 35 34
25 32 32
24 32 31
24 31 31
23 31 30
26 35 34
22 30 29
25 33 32
25 32 31
25 33 32
24 32 31
23 30 30
24 32 31
26 33 33
25 32 31
23 31 30
24 33 32
25 32 32
25 34 33
24 32 31
25 34 33
24 31 30
23 31 30
25 33 32
24 31 31
24 32 31
26 34 33
26 34 33
24 32 31
24 31 31
26 34 33
25 33 32
26 34 33
25 33 33
25 32 32
26 34 33
24 32 31
24 31 31
41 50 54
70 80 91
100 115 133
124 141 162
129 146 170
131 149 171
132 151 175
132 151 175
130 148 171
131 148 172
129 147 170
129 147 170
135 153 176
128 146 169
130 148 172
132 150 175
134 152 175
132 150 174
130 149 173
128 146 171
129 147 170
133 151 174
132 149 173
135 152 175
134 151 175
130 147 171
129 148 172
134 153 177
129 147 171
131 149 173
133 151 174
130 148 171
134 152 177
133 150 173
133 152 177
131 148 172
133 151 174
130 149 173
133 151 176
132 150 173
135 153 178
134 152 177
133 151 176
134 152 177
133 150 173
132 151 174
133 152 176
136 154 179
136 154 178
129 147 170
131 149 174
131 149 173
129 147 171
132 150 172
133 150 175
134 152 177
131 148 172
131 149 174
132 150 175
135 153 177
134 152 176
131 149 173
134 153 177
133 152 176
133 152 177
133 151 175
129 147 171
133 151 176
132 149 173
130 148 173
132 150 175
129 147 172
131 149 172
129 148 173
98 120 122
56 90 25
55 91 13
53 87 13
53 87 13
55 88 13
57 93 14
58 97 14
54 90 13
56 92 14
55 90 13
55 91 13
54 90 13
53 86 13
61 99 15
58 95 14
57 93 14
54 88 13
56 92 13
56 90 13
56 92 14
57 94 14
58 96 14
55 91 13
58 96 14
57 95 14
58 96 14
57 93 14
59 98 15
57 95 14
57 95 14
57 94 14
57 94 14
58 94 14
56 92 13
56 92 14
57 95 14
58 97 15
58 96 14
60 99 15
58 97 14
60 100 15
58 96 14
59 98 14
57 96 14
57 93 14
57 95 14
61 101 15
59 98 15
59 98 14
61 102 15
56 93 14
56 93 14
61 101 15
58 97 14
59 97 14
60 100 15
59 97 14
57 96 14
57 95 14
61 101 15
58 99 14
58 97 14
60 100 15
59 98 15
61 101 15
61 101 15
60 99 14
61 100 15
59 96 14
57 94 14
58 96 14
62 103 15
57 95 14
59 98 14
61 102 15
60 101 15
59 99 15
60 100 15
61 102 15
59 100 15
61 102 15
61 102 15
