P3
1600 1
255
80 37 104
80 38 106
77 37 102
78 37 103
78 37 103
79 37 103
81 39 107
77 36 104
77 36 101
78 37 102
82 38 106
77 37 101
84 39 109
80 38 105
77 37 103
79 37 103
80 38 105
78 37 105
79 37 103
76 36 102
80 37 104
78 36 101
75 36 101
81 38 105
81 38 105
78 37 102
79 37 105
73 34 96
77 36 100
77 36 100
81 38 105
76 36 100
82 37 104
79 36 102
81 38 106
79 37 103
78 36 100
83 38 107
75 35 98
80 37 103
79 36 101
77 36 102
79 37 103
81 38 104
83 39 107
79 37 103
75 35 97
80 37 102
76 35 100
80 36 102
78 36 100
77 36 99
76 35 99
79 37 103
80 37 103
79 37 101
79 36 102
75 35 97
74 34 95
78 36 100
74 35 96
73 34 95
76 43 100
121 132 160
131 149 172
128 146 169
131 150 175
131 148 173
127 145 168
128 146 170
133 151 175
130 148 171
132 149 173
131 150 174
130 148 173
135 154 178
129 147 171
130 149 172
130 148 171
130 147 172
134 152 176
131 150 174
131 150 173
130 148 172
126 144 168
131 150 174
129 147 169
133 152 175
133 151 174
132 150 175
135 153 177
134 152 177
130 148 170
132 150 173
131 148 171
128 147 170
126 145 175
108 129 179
89 112 183
49 82 187
39 76 186
37 75 188
37 75 187
36 75 186
36 75 187
37 76 188
37 75 187
37 76 189
37 75 187
37 74 186
37 75 187
37 74 185
37 75 187
37 75 186
36 74 185
37 75 188
36 74 184
37 75 187
37 75 187
37 74 186
36 74 185
36 74 185
37 75 187
37 75 186
37 74 186
37 75 188
37 74 185
37 75 188
37 75 186
37 76 189
36 74 184
37 75 186
37 75 186
35 72 179
37 75 187
36 74 185
36 73 183
37 75 186
36 74 185
36 73 183
36 73 184
37 74 185
36 72 180
36 73 182
36 74 183
36 72 179
36 74 183
36 74 184
36 73 184
36 73 181
36 73 183
36 73 182
56 85 177
89 112 176
109 128 169
125 143 168
131 149 171
124 141 160
107 124 138
74 91 90
34 52 18
34 55 1
33 54 1
34 54 1
35 57 1
32 52 1
36 58 1
34 55 1
33 55 1
33 53 1
32 52 1
33 53 1
36 56 1
35 56 1
35 56 1
34 54 1
33 53 1
36 59 1
34 54 1
33 54 1
34 57 1
37 60 1
33 53 1
34 55 1
38 60 1
32 52 1
36 58 1
34 56 1
34 56 1
33 54 1
34 55 1
34 55 1
35 57 1
35 56 1
35 57 1
34 56 1
33 54 1
34 55 1
36 58 1
35 58 1
36 59 1
36 57 1
33 54 1
36 58 1
35 57 1
34 55 1
36 58 1
36 59 1
35 58 1
34 55 1
33 54 1
35 57 1
37 60 1
34 56 1
34 55 1
35 57 1
34 56 1
35 56 1
35 57 1
33 54 1
33 55 1
33 54 1
36 58 1
35 56 1
32 52 1
33 54 1
33 54 1
31 51 1
31 51 1
31 51 1
31 51 1
32 52 1
31 49 1
31 49 1
28 44 1
33 52 1
40 56 36
73 88 92
100 116 131
125 143 167
129 148 171
126 144 168
129 148 172
129 147 171
126 143 166
128 146 170
130 148 172
130 148 173
126 143 167
129 148 171
127 145 168
128 146 170
127 145 168
128 145 169
126 142 164
127 146 169
127 144 167
131 148 171
130 149 173
131 149 173
127 145 169
129 148 172
131 149 173
129 147 170
126 143 167
127 145 169
131 149 173
131 149 173
128 145 169
129 147 172
131 149 173
130 147 171
126 142 165
118 131 155
98 105 132
89 92 119
73 72 97
80 83 108
81 82 108
87 88 115
78 79 103
78 81 105
78 80 103
82 84 108
83 85 110
83 84 112
82 85 111
83 85 111
84 85 111
84 86 111
79 82 103
84 85 112
92 93 123
85 86 112
89 91 118
89 90 118
89 92 121
90 93 121
92 94 123
86 87 116
91 93 122
92 94 122
86 86 115
96 97 128
88 89 117
90 92 122
93 95 124
94 97 126
89 91 119
91 93 121
90 92 120
93 94 124
92 94 122
96 98 128
98 100 130
91 92 122
94 95 125
92 94 123
94 95 126
95 96 126
91 93 123
94 96 126
93 94 125
96 98 127
91 90 120
94 95 126
93 93 123
93 95 124
95 96 128
95 96 126
89 89 118
93 93 123
91 93 123
89 89 120
91 92 121
93 95 126
88 89 117
94 95 127
95 95 127
96 97 129
97 96 129
92 92 123
104 111 139
117 128 153
128 144 169
127 145 170
129 147 172
130 148 172
129 146 171
132 150 174
132 149 172
130 147 171
133 150 174
131 148 172
132 150 174
130 148 173
129 147 170
129 146 171
129 146 170
130 148 172
126 144 167
118 160 107
142 123 49
164 63 62
165 60 61
163 60 62
167 61 62
169 62 63
169 61 63
164 60 62
168 62 63
168 61 63
167 61 62
166 60 61
167 61 63
163 60 61
162 60 62
166 60 61
167 61 62
165 60 62
166 61 62
168 61 62
169 62 63
166 61 62
167 61 62
161 59 60
170 62 64
168 61 62
167 61 61
167 61 62
172 62 63
167 61 61
166 61 62
168 61 62
164 60 61
168 61 62
169 62 63
165 60 62
161 59 59
164 60 61
165 60 60
163 60 61
162 59 60
167 61 61
167 61 62
165 60 61
164 60 60
163 60 62
163 60 61
158 58 58
170 62 63
169 62 62
168 61 62
162 59 60
162 59 60
161 59 60
162 59 60
164 59 60
166 60 61
166 61 61
164 59 60
161 58 58
162 59 59
164 60 60
159 58 59
158 57 58
161 59 59
164 60 61
167 61 62
161 58 59
160 58 59
159 58 59
156 57 58
165 60 61
158 58 59
160 58 59
157 57 58
153 57 58
154 56 57
156 56 57
160 58 59
157 58 59
157 59 58
129 127 42
102 160 22
106 167 23
100 157 22
102 161 22
101 160 22
97 150 21
102 160 23
96 153 21
103 164 23
98 151 21
101 157 22
101 162 22
96 152 21
96 150 21
95 152 21
87 139 19
92 143 41
132 152 168
134 152 177
132 148 171
111 123 147
123 143 146
124 142 151
133 148 167
125 145 161
129 151 160
127 148 163
130 149 167
122 139 155
122 139 156
120 134 153
119 133 151
120 135 152
124 138 156
124 137 160
124 140 156
118 131 152
128 144 163
128 142 162
135 151 169
128 141 163
131 145 171
131 145 170
126 141 167
129 145 169
131 147 173
132 147 172
136 153 177
142 159 182
140 155 178
141 156 180
138 155 179
134 151 174
136 148 171
133 147 170
132 145 170
135 147 171
135 149 171
131 146 168
138 149 171
137 154 178
139 156 180
142 160 183
138 156 180
143 160 183
143 161 185
138 156 181
137 156 179
144 162 185
142 159 182
142 160 184
141 160 184
140 157 180
136 154 179
142 159 182
143 160 184
146 163 186
139 156 181
139 156 179
146 164 187
142 160 183
138 154 178
141 159 183
144 161 184
139 156 180
136 153 177
137 155 180
136 154 179
135 149 173
131 145 170
130 147 172
134 146 170
134 145 169
132 149 172
133 149 173
131 148 170
132 149 172
132 147 171
134 148 171
134 149 172
131 147 170
138 154 178
133 143 164
132 144 168
127 143 166
130 147 169
131 144 164
130 145 164
127 141 159
127 146 169
124 140 164
103 109 135
96 100 127
100 105 131
106 113 140
91 104 115
65 85 70
100 98 126
128 140 168
132 149 173
129 146 171
130 145 170
130 148 173
128 145 167
135 153 177
130 147 171
134 151 175
130 147 172
130 148 171
131 148 172
130 148 173
131 146 170
129 146 170
133 150 174
130 148 173
133 151 176
131 149 173
133 150 175
133 151 175
130 146 170
130 147 171
130 147 171
130 148 172
132 149 174
131 147 171
133 150 173
131 146 172
129 146 170
131 149 174
128 143 168
125 140 164
129 145 171
126 141 165
129 145 169
131 147 172
128 144 169
128 143 168
122 135 160
128 145 170
123 137 162
128 144 167
126 141 165
129 145 169
129 145 169
130 145 167
128 144 169
129 145 169
127 143 167
130 147 171
130 145 169
130 145 169
130 146 170
124 138 163
128 143 166
126 143 168
123 135 160
125 141 165
130 147 170
126 140 164
129 146 170
128 143 167
127 143 167
129 145 169
124 140 164
124 138 164
126 141 165
128 144 169
124 140 165
127 141 165
121 134 157
127 143 167
126 141 165
121 136 159
128 143 169
127 142 166
128 144 168
124 138 163
122 136 160
122 135 160
125 139 162
125 141 165
122 137 160
127 142 166
122 137 161
121 132 156
123 137 160
118 133 156
122 137 159
124 140 164
120 134 158
126 142 167
121 135 159
126 140 164
121 136 159
116 131 153
122 137 160
122 136 160
121 136 159
126 141 165
125 140 164
120 135 157
127 143 168
123 138 162
124 140 163
125 140 164
126 141 165
126 143 167
125 140 164
122 137 160
120 135 159
119 135 157
74 80 136
41 35 131
33 23 130
34 23 131
34 23 128
33 22 125
33 22 127
33 23 130
33 23 130
34 23 133
33 22 126
33 22 127
32 22 127
33 22 126
33 23 129
32 22 124
33 23 129
33 22 127
33 22 127
32 22 124
33 22 125
33 22 129
32 22 124
33 22 127
33 23 129
32 22 121
33 23 129
33 22 127
33 22 127
31 22 122
32 22 124
33 22 126
32 22 123
32 22 123
32 22 123
32 22 122
32 22 124
31 21 120
32 22 123
32 22 122
32 22 126
30 21 117
32 22 123
30 21 117
32 22 126
31 20 115
32 21 120
31 21 117
31 21 117
30 21 116
30 20 115
29 19 110
31 21 117
31 21 117
30 20 111
29 20 110
29 20 109
31 21 115
30 20 113
29 19 107
29 20 109
28 19 103
30 20 115
29 19 108
28 19 105
29 20 110
28 19 107
27 18 99
28 19 106
28 19 103
27 18 98
28 18 103
27 18 98
26 17 96
25 17 93
26 17 94
26 17 98
29 23 97
77 85 125
126 144 168
131 147 169
131 148 169
134 151 174
132 150 172
129 148 170
134 152 175
130 147 170
132 149 172
132 150 172
128 145 166
132 150 171
131 147 168
131 148 172
129 146 168
127 145 166
129 145 165
129 146 167
133 151 175
129 146 168
132 150 172
132 150 169
132 148 171
132 149 172
130 147 173
129 147 168
129 148 168
130 149 170
129 147 166
129 145 166
131 148 171
130 149 171
131 148 170
130 148 170
129 146 169
131 148 172
129 146 167
130 146 170
129 147 168
132 150 173
129 147 169
129 148 170
131 149 170
129 146 166
131 151 171
129 147 168
130 148 171
134 151 173
132 149 173
128 144 165
132 150 173
132 150 174
128 147 167
132 151 172
131 149 171
129 145 168
130 147 170
134 152 176
131 149 171
132 150 174
131 146 169
131 149 170
132 151 172
131 148 170
130 147 168
132 148 170
128 143 165
131 149 173
132 150 173
131 148 170
129 146 169
130 146 169
129 146 168
133 151 173
133 151 174
132 147 171
129 145 166
128 141 164
131 149 171
129 147 169
130 149 172
132 150 171
123 136 155
113 116 124
105 108 112
102 104 108
101 103 109
99 101 107
101 104 109
99 102 106
103 106 111
101 103 108
96 99 104
93 96 101
98 100 104
94 96 101
94 95 99
86 90 95
88 90 96
95 97 100
84 84 88
87 89 94
80 81 84
79 79 84
74 74 78
81 82 85
71 71 74
82 83 85
73 73 76
75 76 79
85 86 90
87 89 91
81 83 87
87 90 94
89 91 93
84 88 92
90 92 96
88 89 93
89 91 95
90 93 97
90 92 95
92 95 98
91 94 98
88 90 94
94 97 102
94 96 100
99 102 105
97 100 105
93 95 97
94 97 102
98 103 107
93 97 100
100 102 107
97 103 104
96 100 103
98 101 103
97 100 103
94 100 103
100 104 108
100 104 108
100 104 107
98 101 103
97 101 105
97 100 103
100 104 108
97 101 105
98 102 106
99 102 106
96 99 102
100 102 104
97 100 103
102 105 108
102 105 108
100 104 106
98 102 104
96 100 102
101 104 109
94 96 99
96 100 103
98 102 105
102 105 108
92 93 95
102 106 108
98 102 103
98 100 102
102 105 110
100 103 107
102 107 110
105 109 112
101 104 107
98 102 105
98 100 103
103 107 110
101 104 109
99 102 105
100 103 105
102 107 111
101 106 108
100 103 108
99 103 107
99 102 105
102 105 107
101 104 108
98 101 104
99 102 105
100 104 107
100 104 109
100 103 106
99 104 108
101 105 108
104 108 112
100 103 105
100 105 108
105 110 113
101 106 108
99 103 106
98 102 104
99 103 107
95 97 100
103 107 110
99 104 108
100 104 108
96 98 100
98 100 102
100 103 105
102 107 111
103 106 109
100 103 107
98 101 102
96 99 103
99 104 107
101 105 107
104 108 112
99 103 106
99 103 106
99 102 106
100 104 106
105 108 112
100 105 108
99 102 104
94 98 100
98 103 106
101 105 108
98 102 104
102 106 108
101 105 108
102 106 108
103 107 109
100 104 108
100 103 106
104 108 112
102 105 108
102 106 110
103 108 111
100 103 105
99 104 107
101 105 108
100 102 104
99 102 104
103 107 111
102 105 107
104 108 111
104 109 112
97 102 106
99 103 106
102 105 108
100 106 108
103 108 111
100 104 105
100 104 107
101 104 107
102 105 109
104 109 112
101 105 107
100 102 104
99 102 105
101 106 108
96 99 102
99 103 106
100 105 106
99 102 103
105 109 112
98 101 104
98 101 103
97 102 107
96 101 103
99 103 106
101 107 109
99 103 104
98 101 103
97 101 101
97 103 104
99 104 103
102 105 107
104 108 110
98 102 103
97 101 101
97 102 105
98 103 105
98 103 105
100 104 106
99 102 103
101 104 106
93 98 98
100 104 104
93 97 99
94 99 100
93 98 94
98 104 103
92 97 97
91 95 95
91 95 94
90 97 95
94 100 96
95 100 100
91 96 95
89 94 92
89 96 90
88 94 93
93 97 95
91 99 96
90 96 92
89 94 92
88 93 89
89 96 94
84 88 85
82 90 83
82 88 82
82 87 83
79 86 79
74 81 74
85 91 86
77 87 73
77 95 62
79 102 51
70 96 31
67 91 27
69 95 29
68 92 28
68 94 28
71 97 30
71 95 29
77 104 31
68 94 28
71 97 29
65 87 26
77 105 32
69 94 28
70 94 28
73 99 30
72 98 29
71 95 28
71 99 30
73 97 29
70 94 28
65 87 25
64 86 25
68 90 27
65 87 26
70 95 28
72 96 28
70 94 28
63 84 24
65 86 26
76 101 30
72 95 28
70 92 27
70 92 27
70 93 28
66 87 26
66 88 26
66 87 25
69 93 27
70 94 28
66 88 26
63 83 25
60 81 24
66 89 26
67 91 26
70 94 28
65 87 26
66 87 26
66 89 27
66 88 26
64 85 26
67 89 27
72 96 32
64 81 36
74 90 55
87 97 83
83 90 82
88 91 92
90 94 93
88 92 93
90 95 97
89 92 92
87 93 92
87 91 92
94 98 99
84 87 86
95 99 101
93 97 97
87 91 90
87 89 91
97 100 102
87 93 93
92 97 98
93 98 99
98 102 104
93 96 98
89 92 91
95 98 101
95 98 98
94 100 101
95 99 102
99 102 106
98 101 105
98 102 105
96 100 103
94 96 99
93 96 99
99 102 106
95 98 101
95 97 100
103 107 112
94 98 103
102 106 111
95 99 101
98 101 104
99 104 106
99 102 106
99 102 106
98 102 107
94 97 102
89 92 95
93 96 99
97 101 105
94 96 101
98 101 105
95 98 101
94 96 102
98 100 103
96 100 105
94 98 102
91 94 97
97 100 106
97 101 105
97 100 106
96 99 104
98 100 104
92 94 100
98 101 105
94 95 100
99 101 108
94 96 100
98 101 107
97 100 105
88 90 96
95 97 102
94 95 101
90 93 97
91 93 99
91 93 100
90 91 97
84 85 92
85 87 94
90 91 97
91 93 99
81 82 89
87 89 96
86 87 96
74 74 83
81 82 90
72 71 80
79 80 88
75 72 84
69 60 72
65 47 64
67 38 64
66 37 62
72 41 69
70 40 67
71 41 67
72 41 67
72 41 68
68 38 62
67 38 62
73 42 68
69 39 64
72 41 68
72 41 67
73 41 68
75 42 69
72 41 68
72 40 65
71 40 64
68 38 60
71 39 63
68 37 60
67 37 59
68 38 61
68 38 62
70 39 63
64 35 57
66 36 59
69 38 63
64 35 57
59 31 51
67 36 58
58 30 49
61 32 53
61 33 53
61 32 53
57 30 48
73 47 58
82 61 67
100 78 87
116 96 117
132 109 126
133 112 129
122 102 119
119 99 117
122 100 118
119 99 115
106 87 105
106 87 101
95 77 91
107 87 104
104 85 99
102 83 93
91 73 84
99 78 87
87 68 78
83 60 78
79 52 79
86 53 88
88 52 90
79 46 84
83 49 87
83 49 89
86 51 93
87 51 91
84 49 89
90 53 96
92 54 98
88 53 95
96 58 104
94 56 102
94 57 104
94 56 103
95 58 105
92 56 103
93 57 105
98 59 108
96 58 107
102 63 115
97 59 107
99 61 113
98 60 110
101 61 112
99 61 112
101 62 113
102 63 115
100 62 114
101 62 114
102 63 115
101 62 114
105 65 119
105 65 119
106 66 120
105 65 120
105 65 121
105 64 120
109 71 123
118 84 128
139 106 144
142 113 149
160 131 158
167 138 168
171 142 166
170 141 168
173 144 170
173 144 170
166 137 162
174 144 165
172 142 163
177 146 166
182 151 172
176 145 166
174 145 165
167 139 160
168 139 160
167 139 158
165 137 156
168 139 158
173 143 162
157 130 148
159 132 149
154 129 145
159 132 148
167 138 156
151 126 143
158 131 149
149 124 139
155 129 147
147 122 137
140 116 131
148 116 135
147 109 126
128 128 148
115 130 151
120 135 157
112 128 149
116 133 155
112 127 148
112 127 149
112 128 148
111 125 146
118 134 157
116 131 152
112 127 147
115 129 150
116 131 153
109 125 144
106 121 141
107 121 140
108 124 143
111 127 148
112 128 149
110 124 144
110 124 144
109 124 141
110 125 145
109 125 145
114 129 150
102 115 132
105 119 138
104 118 136
118 133 154
106 119 138
93 106 123
100 114 132
108 121 139
98 112 129
104 118 136
94 107 123
102 117 135
103 116 135
99 112 130
96 110 126
75 85 98
64 72 83
58 66 76
42 48 53
32 39 43
24 30 30
21 27 36
33 43 86
48 63 140
61 80 180
61 80 179
62 80 181
62 81 183
62 80 182
61 79 179
62 81 184
63 82 186
63 83 188
63 83 190
63 83 186
65 85 190
66 85 193
65 85 191
64 84 191
67 88 197
66 86 194
65 85 193
66 86 196
67 88 200
68 90 204
66 87 197
68 88 197
67 88 197
66 87 198
68 89 201
66 87 197
67 88 199
67 89 203
68 89 206
69 92 210
67 87 199
70 92 209
68 89 203
69 91 207
69 91 207
70 92 209
67 88 198
68 91 206
68 90 205
69 91 205
70 92 208
70 93 214
69 92 208
69 92 210
70 92 211
71 93 213
70 93 211
70 91 207
71 93 210
70 92 209
71 94 212
70 92 210
77 97 194
96 116 197
111 129 175
115 132 155
123 140 163
123 141 163
123 140 162
117 134 155
125 142 165
123 140 161
124 141 163
125 142 164
119 137 160
126 142 165
124 141 163
130 147 171
122 139 161
124 142 166
126 143 166
127 145 168
123 141 164
127 145 167
121 138 159
125 142 164
126 144 167
127 145 167
129 147 171
127 144 168
127 144 167
131 149 173
129 146 170
126 145 168
130 148 171
127 144 167
125 142 166
130 149 174
128 146 169
131 148 172
128 145 169
130 149 173
130 148 172
127 145 169
128 145 170
125 143 166
133 151 174
126 144 166
130 148 171
129 147 170
131 148 173
133 152 175
129 147 169
129 147 169
126 144 165
131 149 173
128 146 171
128 146 170
131 147 171
129 146 170
133 151 175
131 148 171
131 149 174
129 147 170
134 152 176
132 150 175
129 147 171
132 151 175
128 145 169
128 146 170
129 147 170
132 150 174
133 151 176
129 148 170
90 112 106
54 90 13
49 83 12
51 85 12
52 85 12
52 86 13
54 87 13
51 84 13
53 89 13
54 88 13
52 86 13
53 87 13
52 87 13
50 81 12
51 85 13
56 92 13
51 83 12
52 84 13
54 88 13
53 87 13
53 87 13
52 85 12
53 87 13
57 95 14
49 81 12
55 90 13
54 89 13
52 87 13
53 88 13
51 85 12
54 88 13
56 93 14
54 90 13
53 87 13
52 86 13
57 94 14
55 92 13
53 88 13
54 89 13
53 88 13
54 89 13
55 91 13
54 88 13
54 89 13
55 91 14
54 88 13
52 86 13
54 89 13
57 94 14
52 87 13
57 94 14
54 90 13
56 93 14
54 89 13
54 91 13
56 94 14
54 91 13
55 92 13
55 93 14
57 95 14
58 95 14
54 90 13
56 93 14
56 93 14
54 91 13
55 92 14
58 97 14
57 95 14
55 93 14
56 92 14
54 90 13
56 94 14
54 89 13
55 92 13
56 94 14
55 91 13
58 97 14
57 95 14
57 95 14
56 95 14
55 92 13
57 96 14
