P3
1600 1
255
77 36 100
77 36 99
71 34 97
73 34 97
71 34 95
73 34 95
74 35 98
72 34 96
74 35 99
69 33 91
75 35 100
73 34 96
73 34 97
73 35 96
75 35 98
73 34 95
74 35 97
69 32 91
78 36 101
70 33 92
73 34 95
74 34 96
73 34 96
72 35 96
71 34 95
74 34 98
76 35 99
74 35 98
75 34 95
73 34 96
74 35 96
74 34 96
72 34 94
76 35 97
73 34 97
72 33 93
73 34 97
73 34 95
70 32 91
74 35 96
73 34 95
72 34 94
77 35 100
65 30 87
72 34 94
72 34 95
74 34 93
72 33 94
73 33 93
76 35 99
74 34 95
73 34 94
72 34 94
72 33 93
75 35 96
71 33 91
72 34 95
72 33 93
73 33 94
73 34 94
72 33 92
70 33 90
94 83 122
131 150 173
133 152 176
131 150 173
132 151 176
134 152 176
131 149 172
132 151 176
131 148 171
129 146 170
132 150 174
132 150 174
130 148 172
127 145 169
128 147 170
131 149 173
133 151 174
135 153 177
129 147 171
130 149 175
115 135 176
73 98 177
37 71 174
34 71 176
36 72 180
36 73 181
35 72 178
35 72 179
35 72 180
36 73 182
37 75 186
35 71 176
35 72 178
36 74 183
37 74 185
37 75 185
37 74 184
36 73 180
36 74 183
36 73 181
36 72 178
35 71 178
35 70 175
37 75 187
35 72 181
35 72 178
36 73 181
35 71 178
35 71 178
36 72 180
36 72 181
35 72 179
36 73 182
36 74 183
36 72 179
36 73 182
36 72 178
35 72 180
36 74 185
36 73 183
35 71 176
36 72 179
36 73 181
36 74 182
36 72 179
36 73 181
36 73 181
36 74 183
36 73 180
36 72 178
34 70 176
36 72 176
35 70 174
35 71 176
36 73 181
36 73 182
35 71 178
35 71 179
35 71 176
35 71 177
35 71 177
35 71 177
35 69 172
36 72 179
36 73 179
36 71 177
35 70 174
35 70 174
36 72 177
34 69 172
34 69 172
35 70 172
36 70 173
35 71 177
35 71 175
35 70 173
35 70 173
34 68 167
35 68 169
35 70 174
35 69 172
34 69 169
35 71 176
33 67 165
34 68 167
36 69 167
81 103 167
109 126 149
92 108 119
69 82 83
40 55 40
29 46 1
30 48 1
31 51 1
30 49 1
28 45 1
29 48 1
30 49 1
31 49 1
30 48 1
30 49 1
30 49 1
30 50 1
27 45 1
34 55 1
29 47 1
28 46 1
26 43 1
28 46 1
30 48 1
30 48 1
32 53 1
29 48 1
28 45 1
31 50 1
31 50 1
29 47 1
28 47 1
28 45 1
29 47 1
29 48 1
30 49 1
29 48 1
32 52 1
29 48 1
27 44 1
30 49 1
28 46 1
29 48 1
29 47 1
29 47 1
26 43 1
30 49 1
27 43 1
30 48 1
28 46 1
31 49 1
26 43 1
26 44 1
26 43 1
24 40 0
30 47 18
40 54 40
56 67 71
88 102 114
99 114 130
107 123 141
112 128 147
103 118 134
110 125 146
110 127 145
111 127 146
119 135 155
113 129 149
111 128 147
115 131 153
117 132 152
113 129 148
110 126 146
107 122 142
109 125 144
109 125 144
111 127 148
113 128 149
110 126 144
110 125 145
109 124 143
110 126 145
115 130 150
107 121 142
115 131 152
111 126 147
107 121 142
107 121 140
110 123 142
112 126 148
104 118 138
119 135 155
114 130 149
108 121 141
105 120 141
104 118 138
109 124 145
110 124 144
108 122 143
104 117 137
109 122 144
109 122 143
104 117 138
105 119 138
104 117 136
112 126 146
110 124 145
117 131 152
101 112 131
101 113 134
101 112 130
104 117 136
98 109 129
105 117 136
102 114 135
105 115 136
104 114 136
96 107 126
101 111 131
105 116 137
91 98 117
90 99 117
76 80 100
80 83 103
70 70 91
66 65 87
70 69 91
65 62 84
47 45 60
55 51 72
55 51 70
61 59 81
62 61 80
64 61 85
58 55 76
58 54 75
64 62 84
61 58 79
59 56 75
59 56 75
64 63 84
64 61 81
67 64 87
63 59 80
62 61 81
63 59 81
59 56 77
63 60 81
64 62 83
64 60 80
61 57 78
58 53 77
62 61 80
65 59 83
68 63 88
64 62 84
68 66 88
78 81 99
81 83 105
84 90 108
100 107 126
94 102 121
96 104 124
97 104 124
102 111 130
103 112 133
105 115 136
101 108 130
107 116 137
100 109 130
99 108 125
112 121 144
112 123 145
114 126 147
106 115 137
114 126 149
112 124 145
111 121 143
113 125 148
115 128 151
114 126 148
114 127 149
115 128 149
117 130 154
113 125 147
122 132 155
143 89 100
159 60 62
159 58 60
164 60 61
157 57 58
160 59 60
159 58 60
159 58 59
159 58 59
159 58 59
159 58 60
162 60 61
157 57 59
160 59 60
162 59 60
159 58 59
147 54 55
163 59 60
162 59 60
161 59 60
156 57 59
156 57 59
158 57 58
159 58 59
161 58 59
162 59 59
159 58 58
164 60 60
163 60 61
159 58 59
155 57 58
163 59 60
157 57 58
164 59 60
160 58 59
158 58 58
152 55 55
158 58 58
161 58 59
157 57 58
160 58 59
153 56 56
160 58 59
162 59 59
162 59 60
159 57 58
154 56 57
158 57 58
160 58 58
160 58 59
160 58 58
158 58 58
161 59 59
157 57 58
159 57 58
152 55 56
154 56 56
158 57 58
156 57 57
157 57 58
153 56 57
155 57 57
157 57 58
155 56 57
152 55 55
152 56 56
156 57 57
156 57 58
157 57 58
155 57 57
151 55 55
152 55 56
153 56 56
156 57 58
152 55 56
158 57 58
151 55 56
154 56 57
149 54 55
155 56 57
148 54 54
154 56 57
156 57 58
151 55 56
152 56 56
156 57 57
148 54 54
145 52 53
153 55 56
140 51 51
148 53 54
157 57 57
145 53 53
147 53 53
152 55 55
145 52 53
141 57 52
113 132 33
103 161 22
99 156 22
97 154 21
94 147 20
97 153 21
99 154 21
106 166 23
111 171 23
121 169 103
134 152 176
130 149 172
132 150 174
133 151 175
160 177 201
187 204 227
200 219 235
203 224 236
206 226 237
210 230 244
214 231 249
207 227 241
187 214 233
158 201 190
101 162 105
94 62 120
94 58 119
97 63 121
85 46 107
105 76 134
96 59 121
99 74 125
98 55 129
94 47 122
98 55 130
103 64 135
105 80 139
183 208 242
181 206 240
167 189 218
143 148 157
96 89 146
80 71 135
83 75 133
75 71 126
106 142 157
105 144 163
101 140 159
105 139 160
97 134 155
103 136 157
78 107 126
102 130 131
97 122 147
105 131 164
115 140 172
106 131 164
112 137 168
107 133 166
100 118 144
56 34 35
62 51 55
66 56 61
67 55 60
71 63 70
66 64 72
94 131 147
105 140 160
105 140 159
93 131 148
107 140 161
105 141 161
101 140 161
103 139 159
101 135 155
97 129 150
97 133 150
87 121 139
81 111 144
115 143 134
115 123 137
102 69 101
100 43 86
103 64 98
130 135 166
62 96 169
64 95 164
64 97 169
69 100 171
53 90 168
62 95 168
50 86 162
101 124 175
135 153 176
165 183 208
214 230 251
216 232 254
216 231 253
211 227 248
216 231 253
212 229 250
196 212 228
181 192 220
156 161 205
153 161 209
152 163 211
162 173 215
198 214 240
192 210 234
162 180 204
129 145 169
130 147 171
131 148 173
133 150 175
132 149 172
131 148 172
132 149 172
132 150 172
132 150 174
132 149 172
131 148 170
132 149 173
130 147 171
133 150 172
131 147 171
129 146 170
134 152 176
132 148 172
130 147 169
132 150 174
132 150 173
133 150 174
133 151 175
132 150 174
133 150 174
132 150 174
129 145 168
131 149 173
130 149 173
132 149 173
132 149 172
132 149 173
129 146 171
132 150 173
135 151 176
133 150 173
132 149 173
129 146 169
132 149 173
133 151 176
131 149 173
131 149 171
132 149 172
133 151 175
131 148 173
126 141 165
134 153 176
132 149 174
127 143 165
133 151 175
131 148 172
132 149 174
129 145 169
130 149 172
133 149 172
129 144 168
133 150 174
131 148 172
134 151 175
131 148 172
131 148 172
130 147 169
130 147 170
132 149 174
132 150 174
130 146 169
130 146 169
129 147 169
129 146 170
134 152 177
129 146 169
131 149 173
133 149 172
131 148 171
130 148 172
129 145 170
133 151 173
132 148 171
130 146 169
132 149 172
131 148 172
130 148 171
133 149 172
130 146 169
131 149 173
133 152 176
128 144 167
130 146 169
130 146 170
130 147 171
130 146 169
133 151 174
131 148 169
128 145 168
131 147 171
129 147 170
132 150 173
134 151 174
135 150 172
131 148 171
130 146 170
131 149 173
131 146 169
130 148 172
130 147 169
124 139 166
61 66 130
32 21 121
31 21 121
31 21 121
31 21 118
32 21 118
31 21 120
31 21 121
33 23 130
33 22 126
31 21 119
31 21 122
32 22 125
32 22 124
32 22 122
32 22 123
32 22 123
31 21 121
31 21 121
31 21 120
32 21 122
33 22 125
32 22 123
32 22 124
32 22 121
32 22 125
32 22 122
32 22 122
32 22 123
32 22 123
31 21 118
31 21 120
32 22 122
31 21 118
32 22 122
31 21 117
31 21 120
33 23 128
32 22 123
31 21 120
31 21 120
31 21 120
32 22 123
31 21 121
31 21 118
31 21 119
31 21 119
30 20 114
30 20 115
31 21 115
31 21 120
31 21 118
30 21 115
29 20 109
30 20 114
29 20 109
30 20 114
29 19 107
30 20 112
29 20 109
30 20 113
29 20 110
30 21 116
29 19 107
28 19 105
28 19 105
29 20 111
30 20 109
28 19 104
29 19 108
28 19 103
28 19 106
28 19 103
28 19 106
27 18 100
27 18 100
27 18 103
26 18 98
27 18 99
27 18 97
26 17 97
25 17 93
28 18 102
26 17 93
26 17 93
25 16 92
26 17 94
24 16 83
24 15 86
24 16 87
24 16 85
25 16 89
24 16 86
24 15 84
49 50 93
129 144 168
130 146 168
132 150 172
132 149 171
130 148 170
131 147 168
132 149 173
131 147 170
132 149 172
131 146 169
130 146 168
134 151 174
133 151 173
131 147 170
133 149 172
131 147 170
131 148 171
131 146 168
129 145 167
133 149 170
132 148 171
134 152 176
132 147 170
129 147 169
130 147 170
133 149 172
130 146 167
132 149 172
131 147 170
131 148 171
134 150 173
129 146 168
132 148 170
131 147 170
130 147 170
130 147 169
133 152 173
126 142 163
131 146 168
130 145 168
131 147 168
132 148 169
132 148 170
130 146 168
131 148 171
133 148 171
132 148 171
132 147 169
132 150 172
134 150 172
132 149 172
131 148 170
124 137 158
134 150 173
131 146 167
131 148 170
132 149 170
132 150 173
130 146 167
134 150 172
131 148 171
129 144 164
130 146 168
134 151 174
127 141 161
129 145 166
133 150 172
132 149 171
131 148 171
132 145 167
132 147 170
131 148 171
132 147 168
131 146 169
132 148 171
130 145 166
131 146 167
132 150 173
131 145 166
132 148 171
130 145 166
131 147 170
134 150 173
130 146 168
126 131 151
119 91 98
108 99 104
99 100 103
100 101 104
102 104 109
99 99 103
93 95 99
100 102 106
99 101 106
94 96 99
89 91 95
95 97 99
92 94 97
95 97 101
96 97 100
97 100 104
87 89 91
85 88 91
84 85 89
86 87 90
87 89 92
83 85 88
87 90 93
86 88 92
90 93 96
89 91 94
94 94 97
87 90 93
89 90 93
93 94 97
92 94 96
94 95 98
87 88 90
96 98 102
98 102 105
95 97 99
94 98 101
91 95 98
98 100 103
93 95 98
90 93 94
97 100 104
91 94 96
95 98 102
91 94 98
95 98 102
94 95 98
97 99 101
96 100 102
96 98 101
95 97 100
99 102 105
98 100 103
100 103 106
97 99 101
101 103 105
93 96 99
93 98 101
101 104 107
96 98 101
95 97 100
97 99 101
93 96 98
89 91 93
94 97 97
97 100 102
100 104 105
99 102 104
93 96 97
97 101 103
101 103 106
99 101 103
93 95 97
104 106 109
98 101 104
96 99 100
94 97 100
97 100 101
100 102 106
96 98 99
100 104 107
101 104 108
100 103 106
97 100 104
98 102 104
99 102 103
97 100 102
100 104 104
96 99 102
96 100 101
98 101 102
100 102 105
103 105 108
99 102 103
103 106 109
98 101 103
96 98 101
98 102 104
98 102 102
100 102 104
95 99 102
99 102 105
93 96 97
97 100 101
104 108 110
101 103 105
99 103 105
98 102 103
95 97 98
95 100 103
99 103 107
93 94 97
94 98 101
95 99 102
99 102 105
103 107 110
103 107 110
100 103 106
98 102 105
98 101 103
97 101 103
98 102 104
103 106 109
95 98 99
100 102 104
99 102 103
101 104 106
99 103 106
95 98 101
100 104 106
103 106 110
101 103 105
97 100 102
100 104 105
98 102 104
97 100 102
100 102 104
98 101 102
98 100 101
95 98 100
100 103 106
101 105 107
99 103 105
96 100 103
94 97 99
98 102 104
98 103 106
99 102 105
101 104 108
99 101 104
97 100 102
94 97 99
98 101 103
102 106 109
101 105 109
98 101 104
104 108 110
98 101 105
96 99 102
96 99 100
95 99 101
94 97 100
93 96 99
92 95 97
101 104 106
103 106 109
92 96 98
95 99 101
90 94 95
98 102 104
93 96 96
93 96 97
100 104 105
95 98 99
100 104 107
93 96 99
94 97 98
94 96 94
96 99 100
95 98 99
94 98 100
99 103 105
92 95 97
93 96 96
95 98 98
99 103 105
96 99 100
94 98 97
97 101 101
90 95 93
95 97 99
94 98 100
92 96 95
94 98 99
87 91 89
97 100 101
90 94 95
94 97 99
89 94 92
96 98 97
87 90 90
86 89 91
91 95 94
88 91 91
89 94 90
88 91 90
93 96 94
88 92 91
85 90 86
89 93 91
88 92 90
89 94 91
83 88 82
87 92 87
81 85 81
83 85 82
84 89 86
81 84 81
83 86 81
80 86 80
79 83 79
69 73 66
75 79 71
82 87 81
72 74 70
75 79 72
80 84 77
69 72 65
78 81 77
67 70 63
72 76 67
71 75 70
76 78 74
76 79 73
69 73 65
71 75 67
62 70 56
65 73 56
65 74 56
67 79 54
63 70 52
60 71 45
62 75 46
56 68 38
59 72 39
59 72 41
58 70 40
57 68 41
65 76 51
69 79 57
61 71 45
54 63 38
66 76 59
61 66 51
74 81 66
70 74 64
71 79 63
79 84 78
77 80 76
78 81 80
78 81 78
79 81 77
80 85 78
83 87 84
80 82 79
79 81 77
81 82 80
83 85 83
78 82 79
86 90 87
88 91 88
84 88 87
84 87 86
86 90 88
91 94 93
87 91 89
83 86 83
92 96 94
81 84 83
91 93 94
91 95 95
88 90 91
92 96 97
84 87 86
87 91 90
88 90 92
92 95 94
88 91 91
93 96 98
92 95 98
96 99 101
93 96 95
93 96 98
94 97 97
91 94 95
92 96 98
95 99 101
90 92 95
91 94 96
93 96 96
95 99 101
94 96 99
89 91 92
89 91 93
95 98 100
102 104 108
94 96 99
92 95 96
93 96 98
98 101 104
94 97 98
98 100 101
91 93 98
97 101 104
92 95 97
91 94 97
97 100 104
94 96 102
92 96 97
94 95 98
92 94 98
93 95 98
95 97 101
96 99 102
90 91 95
89 91 93
90 93 97
88 89 93
96 98 102
92 93 98
93 93 96
92 94 98
87 87 91
87 88 92
86 87 89
86 85 89
93 95 100
90 90 95
88 87 92
81 81 87
87 89 94
83 84 88
80 80 87
84 84 89
82 83 89
80 79 83
84 85 89
79 78 83
82 81 86
76 75 80
71 71 76
68 66 72
74 73 78
65 62 69
61 59 65
63 58 65
54 41 55
55 31 51
61 35 58
57 33 54
58 33 53
62 35 56
60 35 54
63 36 57
59 34 55
59 33 54
60 34 55
61 34 55
58 33 52
58 32 51
61 34 54
61 34 55
62 35 57
55 31 49
57 31 51
61 34 53
59 32 51
59 33 53
58 32 53
65 36 56
57 31 49
55 29 47
50 27 43
55 30 46
48 25 39
54 29 47
55 29 48
51 26 41
42 21 33
44 22 35
48 28 36
64 43 47
89 76 85
114 122 143
110 125 145
124 140 162
113 126 148
132 123 144
137 100 116
127 99 115
124 96 112
119 96 112
94 75 90
70 52 71
52 27 49
59 33 60
66 36 64
68 38 69
72 41 73
73 42 73
73 42 75
72 42 75
78 46 82
78 45 79
85 51 90
77 46 80
83 49 86
80 47 84
86 51 92
80 48 85
87 52 92
86 50 90
88 53 96
87 51 92
89 53 96
86 52 92
88 54 95
93 57 103
88 54 98
90 54 99
91 56 101
90 55 100
95 58 106
92 56 101
101 62 112
99 61 110
94 58 105
96 59 107
98 59 108
99 60 109
97 59 108
99 60 109
103 63 114
99 61 111
96 59 106
99 61 110
103 63 114
100 61 112
99 61 112
98 60 110
104 64 119
103 64 117
104 64 118
102 63 115
100 61 112
102 63 117
102 63 116
104 64 118
102 63 118
99 61 114
103 64 118
103 64 119
104 64 120
105 65 120
106 66 124
104 65 120
105 66 122
101 63 116
106 66 123
103 64 121
107 67 125
107 66 124
104 65 122
105 65 121
105 66 124
108 67 125
104 65 122
106 65 123
103 64 121
106 66 123
108 73 125
119 90 125
118 99 119
128 107 122
130 108 126
124 104 120
127 107 121
115 101 113
118 101 116
126 107 122
122 101 116
126 103 117
129 105 121
141 108 128
134 106 123
122 134 156
118 134 157
116 133 155
122 139 160
114 129 152
119 135 157
114 129 149
120 138 160
119 134 157
118 134 156
122 138 160
118 134 155
110 124 144
118 133 152
120 137 158
114 129 150
114 129 149
118 134 156
114 129 150
116 133 153
113 128 150
116 132 154
117 133 154
109 123 142
112 128 149
113 129 150
114 130 152
106 120 139
110 125 145
105 120 138
115 131 152
107 122 142
108 122 142
107 122 141
103 117 141
84 98 138
60 75 157
56 72 162
59 76 169
56 71 160
57 72 164
57 73 165
60 76 173
57 71 161
56 71 163
55 68 151
60 76 175
58 74 168
59 76 170
61 79 179
61 78 173
60 77 173
63 82 185
62 81 182
61 80 181
61 78 173
63 80 180
62 80 180
63 81 180
63 82 188
63 82 184
61 79 179
63 82 186
63 81 183
63 83 188
67 87 195
63 81 187
64 83 187
65 85 193
63 82 188
67 86 192
64 84 191
63 83 190
66 87 196
68 89 204
65 85 194
66 86 196
65 86 193
66 86 194
67 89 201
68 89 202
66 85 198
65 84 192
66 87 201
68 89 205
67 88 201
68 89 202
66 86 197
66 86 200
67 88 202
68 89 206
70 92 210
68 88 202
68 89 204
68 89 201
67 88 200
67 88 203
67 87 205
69 91 209
67 88 206
68 90 203
69 91 208
69 90 207
67 87 202
69 90 210
70 92 211
69 90 208
66 87 202
69 89 205
69 91 207
69 91 208
69 91 207
68 89 203
66 87 201
69 91 209
70 92 207
69 91 208
69 92 208
69 91 208
73 93 200
93 112 187
116 132 165
112 127 148
121 137 158
116 131 152
119 135 156
122 139 160
122 139 160
117 133 153
118 134 155
109 123 141
126 143 165
117 133 155
119 137 160
121 138 160
121 138 160
119 136 157
122 138 159
122 139 160
122 139 161
124 141 163
122 138 160
116 132 153
124 142 165
121 139 163
126 143 163
125 142 163
129 147 170
121 138 161
121 138 159
122 138 159
126 143 164
127 145 168
128 146 170
125 144 166
122 140 162
127 144 166
128 145 168
129 147 170
124 142 164
128 145 169
128 145 168
126 144 168
125 142 164
130 147 169
127 145 167
126 144 166
128 147 169
128 146 170
128 146 170
129 146 170
131 149 173
132 150 173
127 144 166
129 146 170
127 146 170
123 138 161
126 144 166
126 144 166
127 146 167
89 110 108
52 83 28
47 77 11
45 74 11
46 76 11
45 74 11
49 80 12
49 81 12
46 76 11
53 86 13
48 81 12
47 78 11
50 83 12
49 82 12
51 84 12
50 82 12
48 79 12
49 81 12
47 78 11
46 75 11
49 81 12
50 84 12
51 83 12
52 85 12
49 82 12
49 81 12
50 83 12
50 83 12
50 82 12
51 85 12
47 77 11
48 81 12
49 81 12
49 81 12
48 79 12
48 80 12
49 80 12
52 87 13
49 82 12
50 83 12
50 84 13
49 80 12
48 80 12
53 88 13
51 85 12
52 87 13
50 84 12
52 87 13
53 89 13
50 83 12
49 81 12
52 85 12
51 85 12
50 82 12
52 87 13
53 88 13
53 87 13
51 85 12
53 88 13
54 90 13
53 88 13
51 85 12
52 87 13
51 85 12
51 84 12
52 87 13
51 85 12
53 88 13
52 87 13
55 91 13
51 85 12
52 87 13
53 88 13
52 87 13
53 89 13
52 87 13
50 84 12
50 83 12
