P3
1600 1
255
75 35 98
72 34 96
73 35 99
73 34 96
73 34 97
72 34 95
71 33 94
75 35 98
71 33 93
69 33 90
70 33 93
70 33 94
68 32 89
68 32 91
70 33 93
72 33 92
72 34 95
74 34 96
66 32 87
70 33 92
67 32 88
72 34 93
73 34 96
72 34 95
70 32 91
74 34 96
72 34 94
72 33 91
71 33 93
67 31 89
75 35 97
71 33 91
71 33 93
68 32 88
72 34 95
74 35 96
69 32 91
69 32 88
71 33 92
71 32 91
72 33 93
67 31 89
74 34 94
68 32 90
71 33 90
70 33 90
68 32 91
67 31 87
74 34 96
72 33 92
71 33 93
70 32 89
68 32 90
69 32 90
69 32 91
72 33 92
69 32 89
72 33 93
70 32 90
69 32 88
70 38 93
115 127 151
135 154 178
131 149 175
132 150 174
130 149 173
128 145 169
131 149 171
134 152 176
131 149 173
129 147 170
129 147 172
127 145 168
125 143 165
130 149 173
129 147 171
129 148 171
122 140 167
88 110 173
41 74 172
35 71 176
34 70 173
35 72 178
35 71 178
35 72 177
35 71 178
35 72 178
35 71 177
34 70 174
34 69 173
35 71 176
36 73 181
35 72 180
37 75 184
35 72 178
35 72 176
35 70 175
34 70 174
34 70 174
36 72 180
35 70 174
36 73 183
36 72 179
35 71 177
35 71 178
35 71 178
35 72 179
35 72 179
35 71 177
36 72 180
35 71 178
36 72 177
35 71 177
35 70 173
36 73 181
35 71 179
35 70 175
34 69 172
35 71 176
35 71 176
35 72 179
36 72 180
36 73 182
35 71 176
35 72 179
36 72 180
36 74 182
35 70 173
36 72 178
35 70 173
34 70 175
36 72 179
35 70 174
35 71 176
35 70 175
35 71 177
35 71 177
35 70 173
35 71 177
34 69 170
34 69 170
35 70 175
35 70 174
34 69 173
34 69 171
35 70 175
33 67 167
35 70 174
33 66 164
35 71 175
33 66 164
35 71 177
35 70 172
34 69 171
34 68 168
33 67 166
34 68 167
34 69 171
35 70 175
36 71 177
35 70 174
34 68 167
35 69 172
34 69 170
34 67 166
35 71 172
34 68 167
33 66 162
33 66 164
33 65 160
33 65 159
33 67 166
53 80 164
90 105 132
103 118 132
103 117 132
88 100 112
91 104 117
94 108 122
89 103 115
77 89 97
70 81 88
66 76 80
41 52 44
31 46 27
28 41 25
28 42 18
23 37 0
24 39 0
24 39 0
22 37 0
23 38 0
24 40 0
21 34 0
25 41 1
23 39 0
25 42 1
21 35 0
24 40 0
24 39 0
22 37 0
22 36 0
19 31 0
22 35 0
22 36 0
21 35 0
18 30 0
24 38 0
23 37 0
22 35 0
17 28 0
25 36 22
30 39 31
41 50 46
35 46 39
41 47 48
54 62 65
75 84 93
67 76 86
62 70 79
64 73 79
78 89 98
76 87 96
71 80 88
85 95 108
76 87 97
88 99 112
85 96 108
77 87 99
85 96 110
89 101 114
83 93 106
87 97 111
79 91 100
86 98 110
88 99 114
91 103 119
82 92 106
96 108 122
92 104 118
92 105 121
85 98 111
91 104 118
101 113 131
98 110 125
96 109 124
89 100 115
95 107 126
90 102 117
93 105 120
86 96 110
99 111 128
95 108 124
93 105 120
103 115 134
106 120 141
99 112 130
93 105 122
95 106 123
103 117 135
97 109 126
98 108 127
102 116 134
94 105 123
94 105 124
94 105 123
105 118 136
99 111 130
98 107 125
93 104 122
89 99 115
91 101 120
94 105 122
90 100 116
95 107 123
96 107 125
96 106 124
88 97 115
85 95 109
87 96 111
91 100 118
89 98 113
86 94 109
82 88 103
83 90 105
75 83 96
81 87 102
84 91 107
70 75 89
77 84 98
79 86 103
85 94 108
73 80 92
77 83 98
80 85 99
71 74 88
70 76 91
66 70 83
58 63 73
71 74 89
71 76 91
66 70 83
69 72 85
68 72 84
62 65 79
61 65 78
59 62 76
64 68 78
60 63 77
65 70 79
57 57 70
67 72 83
68 73 83
67 71 84
69 72 87
75 79 94
80 86 100
73 78 92
76 80 95
78 83 98
86 91 109
82 88 104
80 86 101
83 87 104
88 95 111
87 94 109
88 94 111
98 107 123
94 100 119
99 105 125
95 103 123
96 105 124
102 109 128
105 116 137
99 107 128
102 112 132
107 117 138
107 116 137
105 115 135
107 120 139
110 121 142
108 119 142
112 123 145
114 125 147
112 124 145
116 129 151
115 128 152
110 122 144
121 136 157
117 130 152
114 128 151
125 126 145
145 67 74
152 55 57
155 56 57
156 57 58
156 57 58
145 53 55
161 58 59
157 57 58
160 58 58
154 56 56
149 54 56
155 56 58
156 57 58
152 55 56
147 55 54
144 55 54
141 56 52
132 55 48
140 57 51
123 53 44
124 55 45
107 54 38
95 53 33
92 52 31
95 53 32
91 53 30
91 53 30
78 52 24
79 52 24
82 53 26
77 52 24
80 52 25
74 51 23
80 53 25
79 52 25
81 52 26
81 52 26
79 52 25
88 53 29
88 52 29
98 53 33
102 54 34
105 53 37
101 52 36
120 54 42
120 55 42
130 54 47
122 54 43
143 56 53
140 53 51
152 56 55
151 55 55
151 55 55
157 57 57
155 57 57
152 56 56
154 55 56
156 57 57
150 55 56
156 57 57
150 54 55
148 53 54
154 55 56
154 56 57
151 55 55
148 54 55
152 56 56
155 56 57
151 55 55
149 54 54
154 56 56
156 57 57
146 53 54
153 55 56
153 56 56
150 54 54
152 55 55
150 54 55
147 53 53
145 52 52
147 53 53
155 56 56
151 55 55
151 54 55
143 52 52
151 54 55
144 52 53
149 54 54
137 49 50
150 54 55
152 55 56
139 51 52
152 55 55
149 54 54
146 52 53
142 51 51
147 53 53
145 53 54
137 50 51
151 55 55
146 52 53
131 110 45
97 154 21
100 157 22
104 163 22
105 165 23
106 166 29
128 160 148
132 149 172
134 152 176
132 149 175
134 153 175
130 147 170
130 148 169
133 151 175
154 173 196
179 198 221
196 215 239
196 215 238
201 220 240
208 227 248
200 221 236
196 217 237
202 223 245
204 226 249
201 223 246
194 211 239
127 106 162
109 69 142
109 66 141
103 54 135
103 57 137
110 64 145
109 62 143
110 59 146
139 124 179
199 221 250
198 221 250
200 222 252
198 221 250
197 220 250
195 217 246
191 214 243
179 202 230
138 147 162
108 93 84
113 99 94
105 92 87
95 77 63
98 82 71
101 87 77
112 100 94
100 83 72
99 86 81
95 80 69
100 87 81
99 86 72
106 93 85
105 90 82
105 88 78
164 170 182
184 196 214
148 153 168
112 106 116
117 114 125
149 154 169
183 205 226
146 197 222
140 192 221
136 193 226
134 190 224
137 193 228
139 193 227
141 195 227
155 202 229
200 222 244
214 230 253
216 232 254
214 230 252
213 229 252
216 232 255
213 230 252
214 231 254
210 227 249
211 227 250
214 231 254
212 229 252
214 231 254
210 226 248
214 231 254
212 229 252
212 229 252
210 228 251
210 228 251
211 229 252
210 228 252
210 227 251
211 229 254
207 225 249
206 224 249
207 225 249
205 223 248
205 224 249
205 224 249
196 215 240
183 203 228
157 175 199
131 148 172
131 148 171
130 149 170
132 149 171
132 151 175
131 149 172
136 153 176
132 147 171
133 151 175
132 151 175
132 149 171
133 150 174
135 153 177
132 150 173
132 150 173
132 149 174
134 152 177
132 150 174
132 148 171
131 149 172
131 148 171
131 148 172
131 148 172
132 150 173
131 149 172
132 150 173
133 150 173
131 148 170
134 151 175
133 152 174
131 149 173
134 152 176
133 150 174
135 153 176
129 146 168
132 147 170
130 147 171
131 148 172
130 146 170
132 149 173
132 148 172
133 150 173
131 149 173
135 151 175
132 150 174
130 147 169
129 148 170
132 148 170
132 150 173
134 151 176
134 153 176
134 151 174
131 149 173
132 149 171
130 147 170
130 148 171
134 152 177
131 148 172
134 151 174
134 151 173
130 147 171
134 151 175
133 151 175
130 147 170
129 147 170
132 148 171
134 151 175
130 148 171
131 148 172
134 151 174
131 148 170
131 147 169
131 148 170
132 150 174
131 149 173
134 151 173
129 145 168
134 151 175
133 153 175
129 145 166
133 149 172
133 149 172
131 149 172
131 146 169
130 147 170
131 147 169
128 143 166
132 148 172
130 148 171
129 147 169
132 149 173
133 150 173
132 149 171
131 146 168
130 149 173
130 144 167
128 144 166
133 151 174
130 147 170
131 147 169
129 148 171
133 149 173
128 144 166
129 146 169
130 147 169
102 113 149
30 20 116
32 22 122
31 21 118
30 20 114
30 20 115
31 21 120
32 22 125
31 21 118
31 21 119
30 20 116
31 21 116
31 21 119
31 21 121
31 21 119
31 21 122
31 21 120
30 21 119
31 21 120
32 21 123
31 21 121
32 22 122
31 21 117
32 22 123
31 21 120
31 21 119
30 21 118
31 22 121
32 22 124
31 21 119
32 22 124
30 21 120
31 21 118
31 21 118
31 21 120
32 22 123
30 21 118
32 22 122
33 22 126
31 21 117
30 20 113
32 22 122
30 21 116
31 21 120
32 22 122
30 21 117
31 21 114
30 21 115
31 21 114
30 20 114
30 20 112
32 21 120
30 20 112
29 20 110
30 21 115
31 21 117
30 20 113
30 20 112
29 19 108
27 19 105
30 20 112
29 20 111
29 19 109
28 19 106
28 19 107
28 19 105
29 20 110
28 19 108
29 19 106
28 19 105
29 20 108
28 18 102
28 19 106
28 18 102
27 18 100
28 19 103
28 19 107
27 18 102
27 18 102
26 18 97
25 17 94
26 17 95
25 17 91
25 17 95
25 17 91
26 18 98
27 18 98
27 18 100
26 17 93
24 16 88
25 17 92
23 15 85
23 15 83
24 16 85
25 16 91
24 15 85
22 15 80
24 15 86
24 15 84
26 21 78
106 117 144
133 149 172
131 147 169
129 146 167
129 145 168
135 151 174
131 148 170
135 151 173
130 147 168
132 149 171
130 146 169
132 146 169
130 146 167
130 149 171
127 142 163
128 146 166
134 151 174
129 143 165
131 146 168
131 146 168
128 142 164
129 143 165
130 145 167
129 146 167
130 144 166
133 149 172
128 146 169
132 147 169
131 146 168
131 146 168
132 148 171
129 146 167
129 146 168
132 145 167
131 149 172
128 143 165
130 143 165
132 149 172
131 146 168
128 143 164
134 150 173
129 143 164
131 146 170
134 151 174
129 143 165
128 144 165
131 148 170
127 141 160
130 144 165
128 141 163
131 148 172
129 144 166
127 142 164
130 142 164
130 142 164
132 146 169
131 149 171
128 142 163
132 148 171
129 143 164
129 143 165
133 149 171
130 146 169
131 146 167
132 146 167
129 143 164
129 144 166
126 138 160
130 146 169
133 149 172
127 141 162
130 144 166
130 146 168
129 144 166
132 147 170
129 141 163
130 144 167
129 141 163
131 147 169
131 146 168
131 144 166
129 145 166
128 140 161
132 150 173
128 143 165
133 147 170
128 135 156
126 107 121
121 58 60
111 71 72
101 91 95
100 101 103
102 102 105
101 103 107
101 102 107
92 93 96
92 95 100
92 94 98
94 96 99
93 96 99
92 96 100
95 96 98
90 92 94
93 93 96
91 94 97
89 90 93
94 95 98
86 89 92
92 95 98
85 86 87
86 88 91
91 93 96
89 91 94
88 90 93
90 91 92
93 95 98
93 93 95
91 93 96
93 95 98
88 89 92
89 91 94
92 94 96
91 93 96
96 99 102
91 91 92
90 92 95
90 91 93
97 99 102
93 96 98
93 95 96
91 93 96
88 91 93
91 93 95
98 99 103
92 95 98
95 97 101
91 95 97
95 98 100
90 91 93
96 99 100
96 99 102
98 100 102
98 101 104
99 101 104
98 101 105
93 95 97
97 99 101
92 93 96
99 102 105
93 95 97
94 96 98
92 95 97
99 102 105
97 99 101
97 101 106
98 100 102
96 98 100
96 99 103
99 102 105
97 99 101
95 98 101
98 102 105
95 99 101
94 97 100
100 104 106
102 105 108
96 98 100
98 102 104
98 100 103
95 97 99
95 98 100
103 106 108
99 100 102
95 98 101
96 98 101
98 101 103
92 93 93
101 104 107
100 103 106
93 95 97
95 98 100
90 94 91
102 104 108
98 101 104
94 97 98
95 98 101
97 100 103
95 98 99
99 103 104
98 101 103
100 103 105
102 106 107
96 99 102
98 102 104
93 96 99
99 101 104
98 101 104
99 101 102
97 99 101
97 100 102
97 102 104
97 100 102
102 105 109
97 100 103
97 100 102
100 103 106
95 99 101
94 97 99
98 102 105
90 92 93
97 99 100
98 101 103
97 100 101
102 106 108
96 99 101
100 103 105
96 98 99
99 102 106
96 100 103
99 102 106
101 104 107
96 99 102
93 97 98
99 103 105
94 96 99
100 102 105
97 99 101
96 99 101
95 98 100
96 100 102
101 104 106
94 97 96
93 98 100
94 98 101
92 95 97
91 94 95
100 103 106
102 105 107
95 100 99
100 104 106
95 98 99
96 100 102
93 96 96
96 98 99
96 99 102
95 97 100
96 100 102
95 98 98
92 95 97
93 96 96
94 98 98
96 100 101
98 101 102
94 97 99
97 100 102
96 100 102
94 98 98
93 96 97
89 92 93
94 98 98
93 95 95
94 97 96
94 98 98
92 96 97
95 98 101
93 96 96
97 100 101
94 99 99
91 95 95
97 100 101
100 103 104
95 97 98
94 98 98
90 94 94
89 92 90
89 92 91
92 97 97
93 95 95
96 99 99
92 97 98
93 96 97
90 94 95
94 98 98
90 93 91
92 96 95
97 101 101
93 96 96
86 90 87
90 95 92
86 90 91
90 93 92
88 93 91
88 92 90
88 90 88
87 91 87
86 89 87
83 87 83
89 92 92
83 88 84
87 91 88
83 87 85
88 92 89
84 88 84
83 86 86
82 84 80
82 84 82
85 88 86
85 87 86
89 91 89
84 88 86
74 77 73
79 83 77
79 81 75
83 85 81
74 76 73
76 79 74
75 79 73
79 81 77
76 78 73
62 65 63
72 75 68
69 72 64
80 82 80
69 71 65
74 77 73
79 81 77
73 75 71
78 79 74
75 78 74
77 79 76
78 80 78
73 76 72
78 78 74
71 73 68
82 86 83
81 83 80
82 84 81
87 90 86
81 84 82
76 79 74
88 91 89
81 83 80
81 83 82
74 76 74
80 82 77
87 89 89
79 83 81
85 88 88
89 92 91
88 90 91
86 88 87
82 83 82
83 86 86
85 88 85
89 92 92
82 87 85
90 93 91
87 91 88
89 92 93
90 93 95
90 94 95
84 88 85
84 86 84
89 90 90
91 93 93
87 90 91
93 96 97
93 97 97
93 95 98
84 87 88
92 93 95
89 93 95
93 95 95
92 95 98
95 97 100
84 87 87
89 93 93
93 94 96
92 95 97
92 95 96
92 94 97
95 97 99
92 94 97
90 93 95
91 92 94
92 96 97
93 96 97
92 93 94
86 87 89
95 97 100
91 93 96
90 93 94
95 99 101
87 88 93
84 86 87
93 95 98
90 93 95
93 94 98
94 97 100
92 94 98
87 89 92
87 88 89
92 93 97
92 94 97
91 92 96
91 93 97
91 92 96
91 94 97
88 89 93
89 92 95
86 87 90
87 89 94
90 92 97
91 92 97
88 89 93
95 97 100
80 79 83
79 78 79
84 84 88
86 87 91
87 86 89
84 85 89
80 81 86
83 84 86
89 90 93
76 75 79
75 75 79
79 78 81
72 71 76
73 72 78
61 59 65
67 67 69
64 63 66
61 59 62
61 58 62
45 41 45
50 42 50
44 27 40
55 31 53
50 28 47
53 30 49
52 30 47
57 32 50
57 33 50
56 31 51
52 28 46
52 29 47
52 29 46
55 30 48
48 27 43
55 30 47
52 29 45
51 28 44
50 27 44
64 35 57
47 26 40
51 29 44
50 27 43
55 31 48
51 27 42
46 25 39
41 22 34
45 23 37
49 26 42
48 25 39
41 25 34
50 39 47
61 55 59
82 75 79
99 102 114
113 122 139
127 142 165
129 147 170
124 141 163
124 140 163
126 142 164
128 144 167
124 140 162
126 142 165
120 134 155
99 106 125
58 48 63
57 32 57
60 34 59
63 35 62
65 38 66
69 40 71
66 38 69
65 37 64
72 42 75
75 43 76
77 45 78
81 47 82
74 44 79
82 49 88
82 49 87
79 46 84
81 47 83
78 47 84
81 49 88
84 51 88
84 50 88
89 54 94
87 53 95
87 53 97
90 55 100
88 54 96
91 56 102
87 52 94
91 56 99
90 55 98
95 58 105
94 57 102
93 56 102
99 60 109
96 59 104
97 59 108
98 60 111
98 60 107
96 58 106
97 59 107
94 57 103
93 56 101
95 57 105
102 62 112
95 58 106
101 63 115
100 61 113
100 61 113
98 61 111
100 62 112
101 62 115
98 60 112
100 62 113
99 62 113
99 61 111
103 64 116
102 62 116
105 64 117
100 62 115
105 65 118
104 64 119
105 65 120
103 64 117
104 65 119
102 62 115
103 64 117
102 63 119
107 67 125
106 66 123
105 65 122
104 65 121
103 64 120
101 62 116
100 63 117
105 66 123
102 64 119
105 66 123
106 66 124
100 62 116
101 63 117
106 66 123
103 65 122
103 65 122
104 65 122
106 65 125
101 63 120
98 61 120
107 69 125
109 82 121
118 98 119
118 97 115
118 99 114
126 102 121
134 105 125
123 89 105
128 132 152
124 142 165
120 135 158
123 140 163
125 141 164
127 144 167
120 137 158
129 147 170
126 144 167
128 145 168
123 140 162
124 142 165
124 140 162
125 142 164
126 143 166
126 142 166
123 140 162
122 139 162
122 138 161
127 144 167
123 140 162
123 140 161
122 138 160
125 142 164
124 142 165
121 138 160
124 141 164
119 135 158
122 138 161
121 136 158
125 142 165
125 142 165
116 133 167
79 93 156
56 70 157
55 69 155
53 66 152
57 72 163
55 67 156
55 70 159
55 69 157
55 69 159
58 72 163
54 68 155
57 73 164
57 72 163
57 70 161
55 68 155
60 76 171
60 76 168
60 76 173
59 74 166
58 74 168
59 76 170
64 82 186
62 80 180
58 75 171
61 79 178
63 82 183
60 78 175
63 80 179
65 84 191
59 77 174
64 81 184
60 78 177
62 81 184
65 85 188
63 81 184
65 86 192
63 82 186
60 78 179
61 80 185
62 81 189
65 85 192
64 82 189
66 86 197
64 83 187
67 86 196
66 85 191
64 83 187
67 88 201
67 87 196
65 85 194
64 84 193
67 87 199
66 86 199
64 83 194
65 84 193
64 83 193
64 82 193
65 85 196
67 87 201
64 84 195
67 87 199
67 88 202
64 84 198
66 86 200
68 88 203
64 83 192
68 88 200
64 84 198
68 90 207
66 85 200
66 85 201
68 90 208
66 85 199
66 86 204
68 88 205
65 84 197
63 82 194
67 87 205
66 86 202
68 89 205
67 88 206
69 90 206
67 88 205
68 89 205
67 87 203
67 87 203
67 88 204
67 88 202
68 89 203
68 89 204
67 87 204
69 90 205
66 87 198
75 96 197
103 122 177
124 141 165
124 142 164
118 135 156
123 141 162
121 138 159
124 141 163
121 139 160
121 138 159
122 138 159
122 139 160
119 136 157
125 143 165
123 140 162
124 141 164
123 141 162
123 139 162
122 139 162
125 142 165
128 147 170
124 142 165
124 142 165
126 143 165
123 139 162
123 141 164
125 142 163
123 140 161
129 147 170
125 143 167
128 146 169
127 144 167
123 141 165
123 137 165
126 141 173
121 132 176
124 135 177
117 128 169
114 122 178
118 125 182
120 129 180
118 128 182
117 122 185
112 115 186
114 116 193
116 121 191
114 115 189
117 123 184
118 123 189
116 120 189
117 123 186
120 125 196
117 126 181
124 136 181
122 135 174
120 134 170
126 142 177
126 143 172
128 146 170
107 125 137
64 87 65
44 73 11
49 79 12
44 74 11
48 79 12
50 83 12
46 74 11
43 71 10
44 73 10
47 79 12
47 78 12
49 80 12
48 80 12
47 78 11
47 79 12
49 79 11
50 83 12
47 77 11
45 76 11
48 80 12
49 81 12
49 83 12
50 82 12
44 74 11
49 82 12
48 80 12
48 79 12
45 76 11
45 75 11
46 77 11
50 83 12
48 81 12
47 79 12
50 83 12
49 81 12
47 78 11
48 80 12
49 81 12
45 76 11
53 88 13
49 82 12
48 80 12
48 79 12
48 80 12
48 80 12
49 81 12
49 81 12
48 80 12
51 84 12
52 86 13
51 84 12
50 84 12
49 81 12
49 82 12
50 83 12
46 78 11
48 80 12
48 81 12
50 84 12
48 81 12
46 78 12
49 82 12
47 78 11
47 79 12
50 83 12
50 83 12
47 79 11
50 84 12
48 80 12
51 84 12
52 85 12
48 79 12
51 85 12
52 88 13
