P3
1600 1
255
72 33 93
65 31 89
70 33 93
71 33 93
68 32 91
72 34 96
67 32 90
70 33 91
62 30 81
67 31 87
71 34 94
69 32 90
65 31 86
66 31 88
70 32 91
69 33 91
67 32 88
68 32 89
68 32 90
69 32 91
63 30 85
69 33 93
70 33 92
66 31 87
67 31 87
68 32 91
67 31 86
68 32 90
63 30 83
69 33 90
65 31 86
66 31 88
67 31 89
70 33 91
69 32 90
65 31 87
68 32 89
72 33 94
70 32 91
67 32 89
66 30 87
68 31 88
68 32 90
66 31 88
64 29 83
63 29 82
69 32 88
66 31 88
69 32 89
64 30 81
62 29 82
67 31 86
68 32 88
67 30 85
71 33 91
70 32 90
64 30 82
66 30 84
77 58 100
125 140 165
134 152 176
131 150 175
129 147 170
128 145 169
131 149 174
129 146 169
130 148 171
132 150 174
128 146 170
127 144 167
131 149 172
126 142 166
127 145 168
128 146 170
108 127 168
51 80 169
35 71 174
34 70 172
34 69 170
33 68 170
35 70 175
34 69 172
35 71 175
34 70 174
34 70 171
34 69 172
35 71 175
34 69 170
35 71 175
36 73 180
34 70 175
35 71 174
34 69 172
35 71 177
33 67 168
34 68 168
34 70 174
35 71 177
36 72 179
34 70 175
34 70 174
34 70 173
34 70 173
35 71 176
35 71 175
35 70 176
34 69 172
35 70 174
35 70 173
34 69 171
36 72 178
34 70 174
34 69 173
34 68 168
35 70 174
34 69 170
34 70 174
35 70 174
34 69 171
35 71 176
35 70 172
34 69 172
33 67 167
34 69 172
33 67 168
34 69 173
35 71 176
34 70 173
35 71 175
34 70 174
35 70 174
34 69 171
34 70 174
35 70 172
34 70 173
34 69 170
34 69 171
35 70 173
35 71 176
34 68 168
34 69 172
33 66 165
33 67 166
35 70 172
35 69 172
33 68 169
33 66 163
34 69 172
34 68 169
34 69 170
33 66 164
34 68 168
35 70 174
34 69 170
34 69 170
34 67 167
35 70 172
35 70 171
33 65 160
34 68 167
34 66 163
33 66 165
33 67 165
32 63 157
33 65 162
32 63 156
35 69 168
34 68 168
33 65 159
33 67 164
34 66 163
33 65 161
34 68 166
34 68 168
33 66 162
38 69 160
65 81 127
84 95 106
82 93 104
68 79 86
78 88 97
65 73 81
75 84 92
84 94 105
73 81 88
58 67 70
54 62 66
72 80 88
55 62 66
55 61 66
66 75 81
57 64 70
64 72 77
60 68 74
58 65 72
61 69 75
63 70 76
41 46 49
59 66 73
62 69 77
50 57 61
53 59 63
64 74 79
57 64 70
60 69 74
77 85 93
60 68 72
59 67 74
56 62 68
61 68 75
69 77 86
70 79 85
70 78 86
61 68 76
71 80 90
67 75 83
62 71 78
66 75 81
74 84 94
76 85 96
74 85 93
88 100 113
76 86 96
81 92 103
79 90 100
83 92 105
83 93 105
94 108 121
86 96 108
93 105 119
93 104 119
100 114 131
100 114 130
98 112 126
94 106 121
87 99 113
94 108 124
102 116 132
97 110 125
95 108 123
103 115 132
100 111 129
102 115 134
109 122 142
109 125 144
100 114 133
97 111 125
104 118 137
108 123 141
105 121 139
111 125 144
106 120 139
102 114 133
104 117 136
109 123 144
103 116 135
102 116 135
105 119 139
110 124 145
110 125 146
108 122 141
109 124 142
108 122 141
107 121 141
110 124 143
109 125 145
107 121 141
114 129 150
107 122 142
108 123 143
109 125 143
113 128 146
106 120 138
111 125 146
117 131 152
109 124 143
112 126 147
110 124 144
105 119 140
106 120 139
110 124 145
109 123 144
107 119 140
108 122 141
109 122 142
107 120 140
110 124 145
111 124 143
104 117 137
108 120 140
112 125 145
108 120 142
104 118 135
111 124 145
117 131 153
112 126 147
114 127 149
110 123 143
114 128 148
113 126 147
116 131 152
109 122 141
107 120 141
117 131 152
116 130 151
119 133 155
113 128 148
115 129 150
114 126 147
117 130 152
113 127 147
114 128 147
120 134 156
121 135 158
111 123 144
114 125 148
117 131 152
115 128 150
117 132 154
115 130 151
113 127 149
118 133 154
117 132 155
118 132 154
121 135 159
117 133 155
121 137 159
116 131 150
117 130 151
126 142 164
119 134 157
118 134 157
116 133 155
118 133 157
118 133 154
122 137 159
120 136 158
120 136 158
124 141 165
121 136 160
123 140 162
124 140 163
123 139 162
121 138 160
127 143 167
123 138 160
124 140 162
126 144 167
124 141 165
126 142 166
133 100 116
148 54 55
151 55 56
145 54 54
142 55 52
123 53 44
102 51 36
100 54 34
91 52 30
74 52 23
74 52 22
73 52 22
74 53 22
73 52 22
73 52 22
73 52 22
75 53 22
74 52 22
74 52 22
74 52 22
74 53 22
73 52 22
72 51 22
74 53 22
74 53 22
73 52 22
73 53 22
74 53 22
74 53 22
74 53 22
72 52 22
73 52 22
74 52 22
74 52 22
73 52 22
73 52 22
73 52 22
73 52 22
74 53 22
73 52 22
74 52 22
72 52 22
73 52 22
73 52 22
73 52 22
72 51 22
73 51 22
72 51 22
72 51 22
72 51 21
71 50 21
72 51 21
73 52 22
72 52 22
73 52 22
72 51 22
72 51 22
70 50 21
71 50 21
70 50 21
83 51 27
87 48 28
108 52 38
116 53 41
131 52 48
143 54 52
139 51 51
148 53 53
146 53 53
147 53 53
149 54 54
144 53 53
147 54 54
149 54 54
149 54 54
142 51 51
146 53 53
144 53 53
154 56 55
141 51 51
144 53 54
147 53 53
146 53 53
142 52 52
142 51 51
146 52 53
145 52 51
146 53 53
139 50 50
148 53 53
142 51 52
140 51 51
134 48 49
142 51 51
143 52 52
146 53 53
148 54 54
138 49 49
148 53 53
140 50 51
138 50 50
137 49 49
143 51 51
145 53 53
139 50 51
101 142 26
96 151 37
126 155 152
134 153 178
132 151 171
133 151 175
133 150 174
133 151 174
131 150 173
134 152 176
132 151 174
131 149 172
133 151 174
133 149 172
135 154 177
153 171 195
180 200 225
192 212 238
194 215 239
192 212 235
177 188 206
186 197 213
208 225 248
200 217 240
199 217 240
205 223 248
203 221 245
204 223 247
203 222 246
200 217 242
202 220 246
204 223 249
200 219 244
200 218 244
204 223 250
200 220 246
202 221 247
200 221 247
198 217 242
201 220 246
202 222 247
199 219 245
197 216 241
197 216 241
202 221 245
139 134 137
113 98 91
116 97 86
117 99 88
120 103 93
117 102 96
117 103 97
114 95 84
113 96 86
121 102 93
122 102 90
127 118 116
201 215 237
210 228 252
210 227 251
211 229 253
211 228 252
212 230 254
210 228 252
211 229 253
211 229 253
208 225 249
211 228 252
211 229 253
212 230 254
206 224 249
207 225 249
210 228 252
209 227 252
210 227 252
211 229 254
208 226 250
207 225 249
209 228 252
209 226 251
206 224 249
210 228 254
207 225 250
208 227 252
207 226 251
208 227 252
207 225 251
205 224 250
206 225 251
205 224 250
203 222 248
206 225 252
202 221 247
202 222 249
203 223 251
202 222 249
201 221 248
195 215 242
191 212 239
177 197 223
157 177 203
133 151 171
130 148 172
128 147 170
134 154 177
133 150 173
129 146 169
132 149 172
133 151 174
132 149 173
132 147 170
131 150 174
134 151 174
132 149 170
130 148 170
132 148 170
131 149 174
131 149 171
135 152 176
133 150 174
132 149 173
132 149 173
135 151 175
134 151 176
133 151 173
134 152 175
133 151 174
128 143 166
129 145 168
134 152 175
134 151 174
132 151 173
133 151 176
134 153 176
133 150 173
133 150 174
129 145 168
134 152 176
132 150 173
132 150 174
129 146 168
131 149 171
132 148 171
132 149 172
131 149 172
130 147 169
131 149 173
131 147 171
131 148 170
130 147 168
135 152 175
132 149 172
133 150 174
131 147 170
134 152 176
132 148 171
133 151 174
131 147 170
131 148 172
130 147 169
130 148 170
132 150 174
132 150 174
134 152 176
131 147 169
132 149 173
134 151 174
130 147 169
134 151 173
133 150 173
135 152 176
131 148 172
133 150 174
134 151 173
133 151 174
134 150 173
133 150 173
130 147 169
128 145 169
132 149 172
129 146 167
129 147 169
135 152 175
130 148 170
131 147 168
131 149 172
132 149 172
133 151 174
134 152 175
131 147 170
132 150 171
132 150 173
131 148 170
131 149 171
134 152 175
132 148 171
132 148 172
130 148 170
131 148 172
131 149 173
134 151 174
130 149 171
129 145 167
134 152 176
134 151 173
130 148 172
130 147 169
121 135 162
35 30 113
31 21 121
29 19 111
31 21 119
31 21 119
30 20 115
31 21 119
30 20 115
30 20 114
30 20 115
31 21 119
31 21 118
30 21 117
32 22 121
31 21 118
31 21 117
31 21 119
30 20 115
31 21 118
30 21 117
32 22 123
32 21 121
32 21 120
29 19 111
30 21 118
31 21 118
32 22 123
30 20 115
30 20 115
31 21 119
32 21 121
31 21 118
31 21 117
30 20 116
30 20 113
31 21 118
31 21 118
31 21 118
31 21 118
32 22 122
29 20 114
31 21 115
31 21 117
31 21 120
31 21 120
30 21 113
31 21 116
31 21 118
31 21 115
30 21 117
29 20 111
30 21 117
30 21 116
29 20 110
29 20 113
28 19 108
30 20 114
30 20 113
31 21 118
28 19 105
29 20 112
28 19 106
29 20 113
29 19 107
29 20 110
28 19 107
28 19 105
29 20 110
30 21 116
26 18 99
28 19 107
29 19 108
29 20 111
28 18 102
26 18 98
26 18 98
26 17 95
27 18 100
27 18 100
27 18 100
27 18 101
25 17 92
25 17 93
26 17 96
27 18 100
27 18 102
25 17 91
25 17 91
25 17 92
26 17 95
23 15 82
25 17 92
23 15 84
25 17 93
22 14 76
21 14 81
21 13 73
23 15 83
22 14 78
24 15 84
23 15 84
23 15 82
23 18 72
121 135 158
127 144 165
132 147 168
130 145 166
131 143 165
131 148 171
129 144 164
131 146 168
131 148 170
132 150 173
129 144 166
133 145 167
129 142 164
130 146 168
131 146 168
127 144 166
129 145 168
129 144 167
127 142 163
132 145 165
130 146 167
131 145 167
128 144 167
127 140 161
129 143 164
128 141 163
133 149 172
131 145 168
134 150 173
130 140 161
125 138 160
130 140 161
130 141 164
128 143 165
129 142 165
127 140 161
130 143 164
130 142 164
131 143 165
128 143 165
129 141 161
129 142 162
128 143 164
131 144 165
125 133 153
128 141 164
126 137 156
128 140 162
128 141 164
130 142 163
129 143 164
129 143 166
129 141 163
127 137 157
127 140 162
130 143 166
131 144 165
125 138 158
129 138 159
127 137 156
122 133 153
128 140 161
127 138 159
128 137 158
131 141 162
130 137 157
129 141 161
127 136 157
128 141 162
129 141 164
129 140 162
128 143 165
129 142 165
127 139 160
129 142 164
125 133 153
129 134 153
124 132 152
126 138 160
125 136 157
129 141 163
127 140 163
127 134 154
123 133 153
130 140 161
128 137 157
125 135 156
130 140 162
127 134 154
126 134 155
129 137 158
124 114 131
113 75 85
106 60 61
94 81 85
97 97 101
100 103 107
100 103 107
97 99 102
94 97 101
87 89 93
92 93 97
97 97 98
93 94 97
93 94 97
92 94 98
91 93 96
92 96 99
86 87 89
85 88 90
90 91 93
88 89 91
83 84 85
85 86 89
95 96 97
90 92 95
88 90 92
84 85 88
88 90 91
90 93 96
89 90 91
91 93 96
95 96 99
85 87 90
87 88 89
91 93 95
90 92 94
94 96 98
92 93 97
93 95 97
92 93 95
91 92 95
90 91 93
88 88 90
97 99 102
95 96 98
90 93 96
96 100 102
90 93 96
93 95 97
95 97 100
95 97 99
86 87 89
96 98 100
92 93 96
93 96 97
90 91 91
94 94 96
92 93 95
96 98 99
95 98 101
95 97 99
93 96 98
92 94 95
97 100 103
96 99 100
94 97 99
88 89 91
95 98 100
95 97 98
98 99 102
94 97 98
95 98 101
94 95 98
96 98 100
97 101 102
92 93 94
97 100 103
94 97 99
91 92 94
96 98 100
91 93 94
97 100 103
91 93 95
96 98 99
96 99 102
94 97 99
98 98 100
91 93 95
90 92 93
95 97 99
98 100 103
96 98 100
93 96 98
98 100 101
95 97 98
98 100 102
97 99 100
91 93 94
96 98 99
102 106 109
95 99 101
99 102 104
94 96 98
100 102 105
97 99 102
99 102 105
99 102 104
95 99 100
91 92 94
99 101 104
97 100 102
94 98 100
92 95 97
99 101 104
95 97 99
94 97 97
95 96 97
94 97 100
99 103 105
97 100 101
94 96 97
100 104 105
99 100 104
97 98 101
93 94 95
91 94 94
98 100 101
92 94 96
95 98 100
97 99 101
100 101 102
97 98 100
94 97 99
102 106 109
100 104 106
92 94 94
90 92 93
96 97 99
95 99 101
96 98 100
100 103 105
95 98 99
91 94 94
90 94 94
92 96 96
93 96 97
90 93 93
93 95 96
92 94 97
100 102 103
93 96 99
95 99 100
98 101 103
99 101 104
94 96 97
98 101 102
95 97 99
93 95 96
90 94 94
96 99 100
94 98 99
94 97 98
99 101 101
98 101 103
93 96 98
91 93 92
88 91 91
97 101 103
90 93 94
91 93 93
97 99 99
95 97 98
89 92 93
98 100 101
97 101 102
92 96 98
93 98 96
91 95 95
87 90 91
92 94 94
90 93 94
90 92 92
88 91 90
87 89 89
89 92 91
92 95 95
96 99 100
92 95 95
95 99 100
91 93 94
91 93 94
90 93 93
83 86 86
92 94 95
80 83 81
85 87 85
86 90 88
89 92 89
89 92 91
85 88 85
92 95 96
86 86 86
88 91 89
84 85 85
83 85 84
85 89 87
86 90 87
83 87 85
84 88 85
84 86 85
78 82 79
85 89 88
83 86 83
83 86 86
74 77 73
82 84 81
86 89 88
83 84 81
84 87 81
84 87 86
86 88 86
82 83 82
82 84 81
82 86 82
86 88 87
83 86 81
82 83 79
77 80 76
85 87 86
79 82 79
77 81 76
82 85 83
84 87 85
81 83 80
86 88 87
83 87 86
81 83 79
82 85 82
82 82 82
78 80 79
83 86 84
78 81 79
78 79 77
84 87 87
88 89 86
88 89 87
84 86 83
82 83 80
85 87 85
85 87 85
91 93 94
87 90 89
86 87 87
85 87 87
86 89 87
84 87 87
83 86 85
88 91 90
82 85 84
86 88 88
88 91 90
89 93 95
87 89 89
88 91 91
90 93 93
86 89 89
88 91 92
85 88 85
90 95 92
90 92 94
89 91 94
89 92 95
94 97 96
91 94 95
90 92 94
85 88 89
87 89 90
89 91 92
88 90 89
95 98 101
89 90 93
86 90 90
96 100 100
90 92 95
89 91 93
93 94 96
92 94 95
91 92 95
90 93 95
93 95 97
92 93 95
86 88 89
94 96 98
94 95 100
89 89 89
87 88 90
87 88 88
93 93 95
88 90 92
89 91 95
93 94 98
82 82 86
89 91 94
88 89 92
90 93 97
86 87 90
89 90 92
90 92 95
84 85 86
90 91 95
91 92 97
86 87 92
89 92 96
87 88 92
84 85 87
86 89 91
78 78 81
90 90 94
84 85 89
88 88 93
81 79 83
83 83 85
81 80 84
75 73 77
83 81 84
77 77 83
84 84 88
79 79 82
74 73 75
74 74 76
71 70 74
70 68 72
72 71 75
68 67 68
68 67 70
60 58 61
51 48 51
63 61 63
53 50 53
52 49 50
48 46 46
46 43 45
40 36 39
52 33 47
47 26 42
50 27 46
54 30 49
48 26 42
49 27 44
44 25 39
50 28 45
52 29 47
50 28 43
49 28 44
43 23 36
48 26 42
48 27 40
51 28 44
44 24 39
43 23 36
40 22 34
45 24 38
43 22 36
41 22 34
47 32 41
62 57 62
82 81 86
94 95 100
94 93 97
99 99 108
110 115 129
120 133 153
126 141 162
123 138 160
126 143 166
119 134 155
123 139 162
121 137 159
126 141 162
125 140 161
123 139 161
127 143 166
123 139 159
109 119 139
66 56 73
54 29 51
55 31 53
58 34 57
65 37 63
64 36 64
58 33 58
69 39 69
70 41 72
71 41 72
74 43 76
77 47 80
74 44 77
82 49 87
77 46 80
80 47 85
76 45 81
75 44 79
81 49 85
79 47 84
81 49 86
86 51 89
86 52 92
87 51 92
91 55 100
85 52 93
85 51 92
90 55 96
88 53 94
90 54 96
85 52 93
89 54 98
91 55 99
87 53 96
89 54 97
93 57 103
89 55 99
92 55 100
91 55 99
90 55 98
95 57 104
94 58 106
100 61 113
93 57 104
98 60 108
100 61 112
94 57 105
100 62 113
99 60 108
102 62 114
99 62 114
100 62 113
103 64 118
96 59 108
98 60 110
102 63 115
102 63 115
100 62 114
101 61 117
105 66 120
100 61 112
103 64 117
103 63 116
103 63 116
105 65 119
104 65 120
103 63 118
104 64 119
102 63 118
101 63 117
100 63 118
103 65 119
106 66 123
105 66 122
103 64 118
100 62 115
99 62 116
102 63 120
104 64 121
104 64 119
105 64 121
103 63 120
102 63 120
105 65 122
102 63 119
104 64 121
107 67 125
101 63 119
102 63 119
102 64 121
105 65 124
98 61 117
101 63 119
98 62 120
100 63 121
93 59 114
115 95 131
125 137 162
124 140 163
128 145 169
129 146 170
128 144 166
128 145 168
122 139 160
128 145 169
129 145 167
128 143 165
126 143 165
130 146 170
123 141 164
124 141 164
131 148 172
130 147 171
129 147 171
131 148 170
125 141 164
122 139 162
126 143 167
127 145 169
126 142 166
128 146 169
127 144 167
123 140 163
128 145 167
123 139 160
122 140 162
130 149 173
126 143 166
109 125 160
70 82 151
55 69 159
51 62 143
53 66 150
56 70 158
54 66 150
52 62 143
54 66 151
56 70 159
54 68 157
52 65 149
56 70 159
58 72 162
59 76 172
57 72 165
56 71 159
55 71 162
57 71 162
56 70 160
60 77 173
58 73 165
57 72 160
56 70 158
59 76 173
63 80 180
59 75 169
59 75 169
62 79 179
62 79 179
64 83 185
59 76 169
62 80 181
63 82 186
62 80 182
62 81 181
62 79 179
63 81 186
58 74 169
63 82 187
64 82 190
61 79 180
59 76 173
62 82 187
62 81 182
61 78 183
63 81 185
63 81 182
65 85 193
62 80 183
63 80 185
65 85 193
63 82 193
64 84 194
66 86 198
63 82 188
65 84 194
65 85 194
67 87 198
65 86 196
64 82 188
64 84 197
65 85 198
64 83 194
63 82 192
64 83 197
64 83 192
63 82 193
65 84 198
62 81 193
64 83 195
63 82 193
65 85 200
63 83 193
64 84 196
64 82 195
65 85 195
67 86 199
63 81 194
65 85 201
66 86 203
64 83 196
64 83 199
67 86 201
66 86 202
65 85 199
68 89 208
65 84 201
67 87 199
65 85 202
66 87 202
65 86 199
65 84 199
66 86 203
67 86 199
64 84 195
68 89 203
64 84 194
67 88 203
66 87 199
67 88 204
94 113 182
122 140 171
127 144 166
126 142 164
127 144 167
121 139 160
120 137 157
125 143 166
121 138 159
124 141 164
123 139 160
124 141 164
119 135 159
123 135 177
117 126 179
111 109 190
100 87 194
102 89 200
95 70 203
97 69 212
95 65 213
93 63 207
96 65 211
94 63 208
97 65 215
95 64 212
97 65 215
98 66 218
99 67 220
97 66 217
95 64 211
97 66 216
98 66 218
99 68 224
98 65 215
98 66 218
98 66 220
98 66 216
97 66 219
99 67 224
99 68 224
100 67 220
99 67 223
99 67 220
98 66 220
98 67 222
100 68 224
101 68 222
101 68 224
101 68 226
100 67 220
99 67 221
101 68 226
100 68 224
101 68 223
99 67 222
101 69 228
101 69 225
100 68 224
102 69 228
101 69 227
102 69 227
100 69 224
100 68 223
96 66 213
92 68 201
89 69 198
78 73 164
60 72 99
55 72 82
48 71 57
45 73 25
44 72 10
44 73 11
47 78 11
44 74 11
45 75 11
46 76 11
46 76 11
47 79 11
40 67 10
47 77 11
45 75 11
42 70 10
44 74 11
46 76 11
46 78 11
46 77 11
46 77 11
48 80 12
49 81 12
47 78 12
42 71 10
45 74 11
45 75 11
44 74 11
44 74 11
45 74 11
44 74 11
47 78 11
43 71 11
47 78 11
44 75 11
46 77 11
48 80 12
49 81 12
44 74 11
48 81 12
47 79 11
45 75 11
47 79 12
46 77 11
48 79 12
48 81 12
48 79 12
47 78 11
45 75 11
45 76 11
48 80 12
47 78 11
44 74 11
45 76 11
46 77 11
47 79 12
45 76 11
45 75 11
46 76 11
47 79 11
47 79 11
44 74 11
