P3
1600 1
255
67 32 88
64 31 87
66 31 87
68 32 89
69 32 90
66 31 87
67 32 88
63 29 83
65 31 85
68 32 89
69 32 91
60 29 80
57 27 77
63 30 83
66 31 88
62 30 84
66 31 87
68 32 88
63 29 84
63 30 86
70 32 91
65 30 85
63 29 83
67 32 89
69 32 91
68 31 88
61 29 80
62 29 84
63 30 83
67 31 88
66 30 87
65 30 85
67 31 89
67 31 88
65 30 85
66 31 86
65 30 86
68 31 88
66 30 85
70 32 90
63 29 83
62 28 81
62 29 81
68 31 89
65 30 84
67 31 87
67 31 87
64 29 82
63 29 82
59 27 77
63 29 81
68 31 87
65 30 84
62 29 79
66 30 84
95 96 124
128 146 171
129 147 171
126 143 167
128 146 170
130 148 172
129 147 172
128 145 169
129 147 170
131 148 171
127 144 168
130 148 172
128 146 170
126 144 166
126 144 167
130 146 171
122 139 167
85 106 165
35 67 162
32 66 162
32 66 163
32 65 161
34 69 170
33 68 168
33 69 170
33 69 168
32 67 165
34 70 172
34 68 168
33 67 167
35 71 177
34 69 172
34 68 169
34 69 171
34 69 173
32 66 163
33 68 169
33 67 165
35 71 178
34 70 174
33 67 167
33 68 169
32 65 163
35 70 175
34 70 173
34 69 171
34 68 169
34 69 171
34 68 169
34 68 170
35 71 174
34 69 172
33 67 169
33 67 167
32 65 162
34 68 169
35 70 174
34 69 171
33 68 167
34 70 175
34 69 171
35 70 173
33 66 164
34 69 172
32 65 161
34 69 170
36 72 180
34 68 170
34 69 171
34 70 175
33 67 166
33 67 165
34 68 170
34 68 169
34 68 170
33 66 165
34 68 169
34 69 172
33 67 166
35 70 173
34 69 169
33 65 162
35 70 173
34 68 169
34 70 173
33 66 164
33 67 166
34 68 169
34 67 167
33 65 162
33 66 162
34 68 167
34 69 170
34 68 168
33 68 167
34 67 167
34 68 169
32 64 159
33 66 163
32 64 159
33 65 163
33 67 165
32 64 159
33 66 163
33 65 163
34 68 166
33 65 162
33 65 159
33 66 163
32 65 161
31 62 153
32 64 158
33 65 160
33 66 163
32 64 157
32 64 157
33 66 161
32 62 153
32 64 158
32 63 153
32 64 156
32 63 155
32 64 157
54 74 138
104 120 141
109 123 141
105 120 137
114 130 148
110 126 144
115 129 147
110 125 143
108 123 141
103 117 133
101 116 131
104 119 135
103 117 134
106 121 137
107 122 138
108 124 141
107 122 141
105 119 135
99 113 127
104 119 137
106 121 138
107 123 138
117 132 152
100 115 132
106 121 138
109 125 141
111 127 144
107 122 140
106 121 138
112 128 147
111 127 146
106 121 139
99 113 130
106 121 140
109 125 145
107 122 139
110 126 144
110 126 144
117 134 154
112 127 145
116 132 151
105 119 137
113 130 149
105 118 135
109 124 140
113 129 149
116 133 153
108 121 140
118 134 153
111 127 147
117 133 153
116 131 152
117 134 155
117 133 154
117 134 154
119 136 156
116 132 153
117 134 155
119 136 158
119 134 156
119 137 158
121 137 159
115 132 151
119 135 156
117 134 154
116 133 152
122 139 161
119 137 158
112 127 146
117 134 153
122 140 161
121 138 160
121 138 160
122 140 163
120 136 159
122 138 159
125 141 164
119 135 156
120 137 158
121 138 160
124 141 164
124 142 164
125 142 165
120 136 159
119 134 155
117 133 153
125 141 164
120 137 160
122 138 161
121 138 160
116 132 152
124 141 165
121 138 160
122 138 161
121 137 160
120 138 159
123 140 163
119 136 156
122 139 161
126 143 165
120 137 160
119 137 158
124 141 164
118 136 158
122 139 162
127 144 167
123 140 164
120 136 157
126 143 166
123 139 162
122 139 161
120 137 155
123 141 161
124 140 164
121 137 160
117 135 155
122 138 158
124 141 164
121 138 159
127 143 166
127 144 166
124 141 162
127 144 168
122 140 161
120 137 160
123 139 162
123 140 162
127 143 165
125 142 166
128 145 170
128 145 168
126 143 166
126 143 166
126 145 166
126 143 166
127 144 167
125 142 164
122 138 162
128 146 170
123 140 160
127 144 167
121 139 161
125 143 163
129 147 171
127 145 168
125 141 163
130 148 171
123 140 160
130 147 171
124 142 164
126 143 166
122 140 162
125 143 166
127 146 169
124 143 165
128 146 170
127 146 168
129 147 171
127 145 168
125 142 166
126 144 167
127 144 166
123 140 162
124 141 163
130 148 171
127 145 168
129 147 171
123 138 161
114 125 140
104 110 122
87 84 82
78 59 42
71 51 21
74 52 22
72 52 22
74 52 22
73 52 22
74 52 22
74 52 22
73 52 22
71 50 21
73 52 22
73 52 22
74 52 22
72 51 22
73 52 22
73 52 22
73 52 22
74 52 22
73 52 22
74 52 22
73 52 22
72 51 22
73 52 22
73 52 22
72 51 22
72 52 22
74 52 22
73 52 22
72 51 21
74 52 22
73 52 22
73 52 22
73 51 22
72 51 22
74 52 22
72 51 22
72 51 21
74 52 22
73 51 21
70 49 21
73 52 22
72 52 22
72 51 21
72 51 22
70 50 21
73 52 22
74 52 22
71 50 21
71 51 22
72 51 22
71 51 21
72 51 21
71 50 21
72 51 22
71 50 21
70 49 21
70 50 21
71 50 21
70 49 21
71 50 21
70 50 21
69 49 21
72 51 21
71 50 21
71 50 21
72 51 21
68 48 20
72 50 21
69 49 20
69 49 20
69 48 21
81 49 26
106 50 36
126 51 45
140 54 50
139 51 51
141 51 51
141 51 51
147 53 54
141 51 51
140 50 51
139 50 50
138 50 49
150 54 55
140 51 52
140 51 51
140 51 52
144 52 52
145 52 52
136 49 49
136 49 49
139 50 50
143 52 52
140 51 51
139 50 51
136 49 49
140 50 50
131 47 47
144 52 52
139 50 51
142 51 52
138 49 49
138 50 51
147 53 53
134 48 49
130 47 49
136 64 69
132 149 172
131 150 171
131 150 173
131 149 170
127 146 165
131 150 172
128 147 167
133 152 175
127 144 165
129 148 169
132 152 174
133 151 174
132 151 173
131 151 173
134 152 174
129 146 167
128 148 166
133 149 172
137 155 177
174 196 222
179 201 227
182 203 229
189 211 237
187 207 234
140 156 176
159 175 196
199 214 235
210 226 246
211 227 248
209 226 248
213 229 252
213 229 252
210 226 249
212 228 251
205 221 244
211 228 250
210 227 250
210 226 248
207 223 246
212 229 251
205 222 244
211 228 252
208 225 247
213 230 251
213 229 251
209 225 247
206 226 252
209 228 255
206 226 252
207 226 253
208 227 254
208 228 254
204 223 249
206 225 251
208 227 254
204 223 250
205 225 251
205 225 251
206 226 252
205 224 250
206 226 252
208 227 253
209 228 255
208 227 254
204 224 250
206 226 252
207 227 254
206 226 252
205 225 251
204 224 250
206 226 252
206 225 252
206 226 253
205 225 252
205 225 252
204 224 251
205 225 253
203 223 250
202 223 250
203 223 251
201 221 249
203 224 252
201 221 249
200 220 248
202 223 252
204 225 254
200 221 250
200 221 250
194 215 244
197 218 247
194 216 245
194 215 245
192 214 244
188 210 240
174 196 225
148 167 191
131 148 170
133 149 172
131 148 170
135 153 176
132 149 173
130 146 168
134 151 174
130 146 168
136 152 176
130 147 169
132 149 173
134 151 175
135 152 176
129 146 167
135 153 177
130 147 169
133 151 173
132 149 172
133 149 171
132 148 170
129 145 167
131 148 172
133 149 171
133 151 175
132 150 173
132 148 172
132 149 173
131 150 173
133 150 172
131 147 170
134 151 173
134 152 174
133 150 174
129 144 164
133 150 172
131 149 173
131 149 171
131 148 171
133 151 175
131 147 169
131 147 168
131 148 170
131 148 171
131 149 171
134 152 176
132 148 171
133 150 172
129 146 169
131 147 170
132 148 171
130 146 168
132 150 175
132 149 172
131 148 170
130 148 170
129 145 168
131 147 170
132 149 173
130 148 170
132 149 171
131 149 173
134 150 173
131 148 170
133 152 176
131 148 171
131 148 171
132 150 172
131 148 171
130 146 168
133 150 174
131 148 172
128 144 166
133 149 170
131 149 172
132 150 173
133 150 172
133 150 173
128 144 167
133 151 174
128 143 165
128 146 170
130 146 171
132 149 172
129 145 168
131 150 171
132 151 175
133 148 170
131 148 168
130 146 168
133 151 172
133 152 175
131 150 172
133 151 173
129 144 166
133 151 173
131 147 168
130 149 170
134 150 172
132 151 174
130 148 169
131 149 170
129 145 168
133 150 174
130 148 170
132 150 173
129 147 168
130 147 168
130 147 171
130 146 168
117 130 157
39 34 118
30 20 114
31 21 119
30 21 117
30 20 113
29 20 109
29 20 111
29 20 112
31 21 116
30 20 115
30 20 115
31 21 118
29 20 111
30 20 116
31 21 118
30 20 115
29 19 109
31 21 118
30 20 112
28 19 109
29 20 111
29 20 113
30 21 117
30 20 115
29 20 113
28 19 107
29 20 112
29 19 109
30 20 113
30 20 114
30 20 116
31 21 117
30 21 117
32 22 122
27 19 107
31 21 118
28 19 106
30 21 115
30 20 114
30 21 118
31 21 117
30 20 114
29 20 114
29 20 113
30 20 113
28 20 109
29 20 111
29 20 112
29 20 112
29 20 110
30 21 116
29 20 112
29 20 111
29 20 110
29 20 109
29 19 107
28 19 107
30 20 113
30 20 111
29 20 111
29 20 111
29 19 107
28 19 103
29 20 107
29 19 107
27 18 102
29 20 111
28 19 104
28 18 103
28 19 106
30 20 109
29 20 109
28 19 107
27 18 100
28 19 101
25 17 93
27 18 100
25 17 92
26 17 97
28 19 106
25 17 95
25 17 93
26 17 97
27 18 101
26 17 96
26 17 94
25 16 90
26 17 96
25 17 90
25 16 88
26 17 96
24 16 87
25 17 92
23 15 82
22 14 78
25 16 88
21 14 76
22 14 79
22 15 82
24 16 85
23 15 80
21 14 75
22 14 79
21 14 75
34 33 78
117 132 154
129 145 167
131 146 167
128 143 164
125 139 161
130 146 168
128 141 161
129 142 164
128 143 165
128 142 164
124 136 154
124 136 157
127 142 163
130 145 166
131 146 168
127 139 160
128 139 159
129 143 166
133 149 171
127 142 164
128 144 167
127 135 156
124 133 151
132 148 170
124 139 160
126 139 158
127 142 163
127 138 159
129 145 167
126 137 157
128 143 166
130 143 165
128 135 156
127 138 158
126 137 157
128 141 161
127 139 161
121 131 151
127 140 162
128 139 160
125 137 158
125 134 154
128 140 161
126 139 158
124 135 155
129 143 165
127 137 158
128 140 162
127 138 158
124 135 155
123 135 155
128 138 159
118 127 145
126 135 156
127 138 158
125 135 155
127 135 155
124 134 155
125 132 153
122 127 147
122 129 147
127 134 154
128 135 154
124 133 154
122 129 147
124 134 154
124 133 152
125 132 151
118 120 138
121 129 149
124 131 148
120 125 143
123 130 150
125 130 148
125 134 155
118 119 136
118 122 141
119 114 131
115 114 131
120 124 142
123 128 147
120 121 138
121 125 143
118 120 137
117 117 133
117 121 138
123 124 142
117 118 135
117 118 135
112 114 131
117 120 136
109 109 124
114 112 129
112 115 133
109 106 122
113 108 122
102 97 110
108 95 107
96 92 103
100 95 104
96 89 93
95 97 101
99 101 104
96 96 99
91 93 95
90 92 96
93 93 96
93 93 96
94 95 98
89 91 92
88 89 92
91 91 92
89 90 93
88 90 92
85 84 86
85 85 88
90 91 93
91 93 94
88 90 93
88 89 91
86 86 88
91 91 94
93 93 96
89 90 92
93 94 95
93 95 97
90 91 91
93 94 96
90 93 96
87 88 91
91 91 92
91 92 95
86 88 90
87 89 91
92 94 96
95 96 99
86 86 87
95 97 100
91 93 95
92 93 95
88 90 90
89 91 93
84 84 85
96 98 100
91 93 94
90 93 95
89 90 92
92 95 96
92 93 96
92 93 95
92 95 96
90 91 93
92 94 96
92 95 96
91 93 94
95 98 102
94 97 100
95 98 100
94 96 97
85 86 87
94 95 97
93 94 96
97 98 101
93 96 97
99 101 103
87 89 89
91 92 93
87 89 89
101 103 106
94 96 98
95 97 98
94 95 97
93 94 96
95 97 98
92 94 95
97 100 102
91 93 94
98 100 102
94 96 99
96 98 99
97 99 100
97 98 100
87 88 90
94 96 100
89 91 93
98 100 102
96 98 99
102 105 109
97 99 99
97 98 100
95 96 97
92 93 95
98 100 102
95 97 100
91 92 93
95 96 96
96 99 101
98 100 100
97 99 101
96 99 100
101 103 106
94 97 97
92 95 95
93 95 96
92 95 98
96 99 101
92 94 96
97 99 101
92 94 93
95 96 98
95 98 100
90 92 94
95 97 98
94 96 98
94 97 97
97 100 102
94 95 97
96 98 99
95 97 100
92 94 95
92 94 95
94 98 99
97 97 98
93 96 97
91 93 96
101 104 106
95 97 98
94 96 97
87 88 88
91 93 95
94 97 98
93 95 97
95 97 96
93 96 98
88 92 93
89 91 91
95 96 97
98 99 101
90 92 93
94 97 97
95 98 101
96 98 102
92 96 97
91 94 95
92 94 95
94 96 98
96 97 99
94 95 96
93 94 95
96 98 100
92 95 96
88 90 90
91 93 95
94 96 96
94 97 99
97 100 101
91 93 93
97 98 100
95 97 98
98 101 102
89 92 91
94 96 98
92 95 95
89 91 90
95 98 100
96 98 99
93 95 94
94 97 97
89 92 93
89 91 92
91 94 95
91 95 94
94 97 100
94 96 96
94 96 96
92 95 96
88 91 90
90 92 92
92 95 96
88 91 89
89 91 91
91 93 94
90 93 92
90 92 93
86 89 89
90 94 93
89 90 89
88 90 89
93 96 95
86 89 88
88 91 92
89 91 91
90 92 94
84 86 86
82 85 83
92 94 93
86 88 88
85 88 86
86 89 88
89 92 92
89 91 91
91 95 92
84 86 83
83 86 82
84 86 85
88 90 89
84 85 86
85 88 88
85 87 85
82 83 82
84 86 83
85 87 88
82 84 83
85 87 86
85 86 85
82 84 82
86 89 87
82 84 83
81 82 80
79 81 80
87 88 88
79 82 79
87 88 87
83 84 83
86 88 89
81 83 82
80 82 79
83 85 85
84 86 86
91 94 93
80 83 80
86 88 88
87 90 87
79 80 78
81 84 84
81 82 81
80 80 80
84 85 84
86 90 91
80 83 80
85 87 87
90 92 93
90 92 92
84 85 85
86 88 88
85 87 87
86 89 90
88 90 91
90 93 93
87 88 88
91 92 92
86 87 87
89 92 93
86 88 90
84 87 87
87 88 89
88 89 91
92 94 94
84 85 88
85 87 87
89 93 94
83 86 87
85 88 88
85 88 88
90 91 92
89 91 94
84 86 87
89 91 92
92 94 94
93 94 96
88 89 90
92 94 95
94 95 98
92 93 94
92 94 96
87 88 89
87 89 89
84 87 88
84 86 88
93 94 97
90 91 91
87 88 88
88 87 90
90 91 93
88 90 91
90 92 94
90 91 93
91 94 96
89 90 93
89 92 94
88 89 91
78 77 79
86 86 88
86 87 88
87 88 90
91 92 96
92 92 94
89 91 93
85 84 87
87 87 91
85 85 87
88 88 92
86 86 88
88 89 93
86 87 90
83 83 85
75 75 76
88 89 91
76 74 77
85 84 86
80 79 81
71 72 75
70 69 70
80 80 84
77 75 78
75 73 75
61 58 61
73 72 74
65 64 65
68 65 68
61 58 60
68 67 69
70 67 70
57 54 57
59 56 59
63 61 62
58 54 55
54 51 53
55 52 51
57 54 56
58 56 57
52 49 51
57 54 57
65 63 65
64 62 65
69 67 70
65 63 66
67 63 67
58 54 59
63 58 64
64 59 63
70 65 73
73 70 74
76 75 80
77 77 80
81 78 84
87 88 91
91 92 95
92 94 98
94 97 102
97 99 103
102 103 107
92 93 98
99 101 112
117 130 149
126 141 161
127 143 166
126 141 162
126 142 165
126 142 164
124 140 161
123 137 159
123 138 159
125 139 160
128 143 165
121 136 157
123 139 160
128 143 166
126 141 163
128 143 166
103 111 130
60 51 68
48 26 47
48 27 46
53 31 53
58 33 59
66 38 67
61 36 61
63 37 63
67 40 68
71 41 74
68 39 68
70 41 70
71 43 74
66 38 68
76 45 82
79 47 81
77 47 87
74 44 79
76 45 78
77 46 83
86 51 93
81 48 85
79 48 84
80 49 87
85 52 93
85 52 94
89 54 96
81 49 88
89 54 96
85 52 93
92 56 100
85 52 94
88 53 95
87 53 96
91 56 101
90 55 99
89 54 97
97 59 106
93 57 103
89 54 100
94 57 103
94 58 103
99 60 110
97 60 109
93 57 102
91 56 102
93 56 102
96 59 108
94 58 105
100 61 111
92 57 102
97 60 110
99 61 111
99 61 113
98 60 108
97 59 110
99 61 115
96 59 109
96 59 108
100 61 111
102 63 115
99 61 113
101 62 115
100 61 111
102 63 116
98 61 112
100 62 115
102 63 118
100 62 113
99 61 113
101 63 116
97 60 113
105 66 123
101 63 116
99 62 116
100 63 116
102 63 121
99 61 115
100 62 117
102 63 118
103 64 120
97 61 115
104 65 122
104 65 121
102 64 120
105 65 120
102 63 119
102 64 120
99 61 116
107 66 124
97 60 116
101 63 119
98 61 118
97 60 117
96 59 116
97 61 119
103 64 121
102 64 121
100 63 120
99 61 118
97 61 119
97 66 119
107 99 138
127 142 165
131 148 171
127 143 166
125 142 166
126 141 163
132 149 173
128 142 163
131 148 172
126 142 165
132 150 174
131 145 168
132 150 174
130 147 170
127 146 169
128 144 167
130 145 167
130 146 170
129 147 170
129 147 171
128 145 168
128 144 167
126 142 165
131 147 170
134 151 173
127 143 166
125 142 168
87 100 149
47 57 132
45 54 127
45 54 128
48 59 138
49 58 134
50 61 140
53 66 152
52 64 147
47 56 133
51 63 146
54 67 151
55 68 155
54 66 152
53 65 148
56 71 161
56 70 158
57 72 162
55 69 159
57 71 161
56 71 163
56 72 164
58 73 168
56 71 162
58 73 168
61 79 177
58 72 164
61 78 178
58 74 167
60 76 171
56 72 163
61 78 180
62 79 176
58 74 172
57 74 165
59 75 171
62 80 184
58 74 169
61 78 175
60 78 176
59 76 173
62 80 182
58 75 170
63 83 187
64 83 190
62 78 181
61 80 182
61 78 180
63 83 187
61 80 184
60 78 178
59 78 176
63 81 185
63 81 185
61 79 183
62 79 183
63 83 189
63 82 188
61 79 186
62 80 187
64 82 193
60 77 182
61 78 184
61 80 185
61 79 187
65 84 194
63 81 192
64 83 193
61 79 186
62 79 189
62 80 191
61 79 186
64 83 196
61 79 186
60 78 186
63 82 189
61 79 192
63 82 197
65 85 199
60 78 187
60 78 190
65 84 199
63 83 197
66 85 199
62 80 194
63 82 197
63 82 197
66 86 202
63 83 198
60 76 190
64 82 198
62 80 194
62 80 194
62 81 190
64 83 197
63 82 199
63 82 192
65 85 199
63 82 196
64 84 196
66 86 202
66 86 202
66 87 199
62 81 190
65 85 197
74 92 184
110 123 177
111 120 171
104 106 169
101 90 189
96 73 201
91 61 200
94 63 204
90 60 198
92 61 201
91 62 202
93 63 205
92 62 203
95 63 207
95 64 207
95 64 211
96 65 212
97 65 214
96 65 212
98 66 216
94 63 207
93 64 211
96 65 212
94 64 211
98 66 215
96 65 214
93 63 207
95 65 214
95 63 209
97 66 216
98 66 216
97 66 214
99 66 218
98 66 217
99 66 217
100 68 222
97 66 215
99 67 221
98 66 218
97 66 218
98 66 219
99 68 221
103 69 227
99 67 222
99 67 220
99 66 219
100 68 225
99 67 222
101 68 223
101 68 224
98 66 220
99 67 221
100 68 226
100 67 220
101 69 226
101 68 222
100 68 223
100 68 223
101 68 223
100 68 222
101 68 226
100 68 224
101 68 223
101 69 226
101 69 226
101 68 222
101 68 225
101 68 225
100 68 224
102 68 223
99 67 221
100 68 225
100 69 224
95 68 207
85 64 185
74 65 153
63 71 114
51 67 77
42 69 25
41 67 10
42 69 10
43 71 10
39 66 9
43 72 10
42 71 10
41 68 10
44 74 10
40 67 10
42 70 10
44 73 11
42 70 10
44 75 11
40 67 10
41 69 10
43 73 11
45 75 11
42 72 10
45 76 11
43 72 10
43 72 10
39 65 9
45 75 11
40 68 10
44 74 11
43 72 10
42 72 10
45 76 11
41 70 10
44 73 11
37 63 9
43 72 10
44 74 11
41 69 10
41 70 10
44 75 11
42 72 10
46 77 11
43 72 10
42 70 10
45 77 11
44 74 11
43 73 10
42 70 10
40 68 10
55 83 45
83 103 99
113 131 146
122 141 161
