P3
1600 1
255
66 31 86
62 29 84
66 31 88
67 32 88
68 32 90
65 30 86
66 31 86
58 27 77
62 28 81
66 31 87
70 33 92
62 29 82
59 28 81
65 30 85
63 30 83
63 30 83
65 31 85
67 31 87
63 29 83
64 30 86
69 32 90
65 30 86
66 31 88
65 31 88
66 31 87
64 29 83
62 29 83
63 29 82
62 29 82
67 32 88
64 30 84
63 29 83
63 29 84
67 31 88
66 31 85
69 32 88
65 30 83
66 31 87
63 29 81
66 31 85
64 30 83
63 29 83
64 29 82
63 29 82
64 30 85
65 30 85
60 28 79
66 30 85
59 27 76
63 29 81
68 31 87
62 28 81
64 29 82
63 28 80
71 51 92
119 132 156
128 146 170
126 144 168
126 143 168
132 149 173
130 148 173
127 144 168
128 146 170
127 144 167
125 142 166
129 147 172
129 146 170
125 143 165
128 146 171
129 146 170
130 147 170
116 133 168
63 88 166
33 67 165
32 66 161
32 66 162
34 69 170
34 69 169
32 66 165
32 67 165
32 66 164
34 69 171
34 69 171
33 67 166
34 70 174
34 69 171
33 68 168
34 68 168
34 69 171
33 67 166
33 68 169
34 68 168
34 70 174
34 69 171
34 68 168
34 70 174
32 66 165
34 69 171
34 70 173
34 68 169
34 68 169
34 69 171
34 67 168
35 70 174
35 70 172
35 71 176
32 66 164
34 69 172
32 64 159
33 66 165
34 70 173
34 69 171
34 68 169
34 70 175
34 68 170
35 71 175
33 67 166
34 69 171
33 66 165
34 69 171
34 69 172
35 70 172
34 69 170
34 70 174
34 69 171
34 69 169
33 67 167
34 68 169
34 69 171
33 66 164
33 68 170
34 69 171
33 65 162
35 70 173
33 67 165
33 67 166
34 69 169
34 68 168
34 68 169
33 66 164
33 67 166
33 67 164
33 67 167
33 66 165
31 63 159
33 66 163
35 69 170
34 67 164
33 66 163
34 67 166
35 70 173
32 64 158
34 69 170
34 68 167
32 65 161
33 66 164
32 63 158
32 65 162
32 64 158
34 68 166
33 65 161
32 64 160
33 65 159
34 67 167
32 63 155
32 63 156
33 65 161
32 65 161
31 63 155
31 63 153
33 66 161
31 61 151
32 64 158
33 64 157
32 62 151
33 65 160
32 63 153
33 65 160
42 68 146
103 120 148
113 128 147
109 125 143
111 128 146
113 130 147
117 134 153
112 128 147
106 121 139
105 120 136
105 120 137
113 129 148
106 122 140
114 131 150
104 120 136
115 132 152
116 131 151
110 125 144
114 130 147
109 123 141
106 121 138
109 126 144
112 130 149
115 131 149
109 125 145
110 125 143
111 127 145
110 127 145
110 126 144
108 124 142
115 132 151
114 130 150
117 134 152
111 126 145
108 124 142
108 123 142
113 130 150
119 135 155
113 127 145
117 134 154
118 136 157
115 131 152
114 131 152
108 123 141
112 129 149
113 130 150
110 124 143
118 136 155
119 136 157
117 133 153
111 128 147
119 137 157
118 134 154
118 134 154
116 133 154
116 133 155
118 135 155
121 137 159
123 141 161
120 138 159
122 138 161
121 139 161
123 140 163
117 133 155
118 135 157
118 135 156
119 135 156
118 135 158
123 141 162
114 131 152
119 136 157
122 139 162
122 138 158
115 130 149
123 141 163
124 141 164
117 134 154
123 140 163
127 145 169
121 137 158
122 138 160
117 133 154
122 138 160
123 140 161
124 142 164
124 140 163
125 143 165
119 135 158
122 139 160
124 141 163
121 138 160
124 141 165
122 140 163
127 143 166
122 138 159
122 139 161
125 142 166
124 141 164
125 142 165
122 139 160
125 143 167
119 135 158
123 139 158
122 139 159
125 142 166
130 148 170
119 136 158
127 146 168
125 143 165
124 141 165
125 143 166
125 143 165
120 136 158
123 140 162
127 144 167
124 142 164
122 138 160
121 138 156
125 143 166
125 141 165
124 142 164
119 136 155
125 143 163
125 143 166
126 142 165
124 141 162
126 143 167
122 139 159
125 142 165
127 145 167
124 141 165
126 144 166
126 143 167
129 145 168
126 142 166
128 146 170
128 147 170
127 144 167
127 143 165
130 149 171
126 144 166
129 146 170
125 142 165
128 146 169
128 146 171
130 149 173
121 140 160
126 145 166
128 146 167
127 145 166
128 146 169
131 149 173
131 148 172
129 145 169
126 143 166
129 148 171
129 148 170
128 145 169
126 143 166
129 148 171
127 146 169
125 144 167
129 147 170
128 146 167
126 143 165
130 149 172
121 137 159
114 124 142
103 109 120
89 83 83
72 54 33
74 52 22
74 52 22
74 52 22
72 51 22
72 51 22
72 51 22
74 52 22
71 50 21
73 52 22
72 52 22
71 51 21
73 52 22
73 52 22
72 51 22
73 52 22
73 52 22
73 52 22
73 52 22
73 52 22
72 51 22
72 51 22
74 52 22
72 51 21
72 51 22
72 52 22
73 52 22
73 52 22
72 51 21
73 52 22
74 52 22
72 51 22
73 52 22
72 52 22
73 51 22
72 51 22
73 52 22
72 51 22
71 50 21
73 51 22
72 51 22
73 52 22
73 52 22
71 50 21
73 52 22
70 49 21
72 51 22
72 51 21
71 50 21
70 50 21
72 51 21
71 51 22
71 50 21
70 50 21
72 50 21
72 51 21
71 50 21
72 51 21
70 50 21
72 51 21
70 50 21
69 49 21
71 50 21
71 50 21
68 48 20
69 49 21
68 48 20
68 48 20
71 50 21
67 48 20
69 49 21
71 50 21
69 49 20
80 49 26
100 49 34
127 51 46
137 52 48
146 53 53
137 50 50
131 47 47
142 52 52
137 50 50
142 52 52
139 51 51
137 50 50
132 47 48
135 49 49
137 50 50
135 49 49
141 50 50
146 53 53
135 48 49
142 51 51
143 52 52
146 53 53
140 51 51
139 50 50
138 49 50
141 51 51
140 50 51
140 50 51
143 51 51
141 51 51
140 50 51
139 49 49
137 49 49
134 49 50
134 60 63
133 142 163
131 149 171
131 150 172
134 152 176
130 148 170
132 151 173
132 151 172
130 150 170
132 152 174
131 149 171
133 151 174
131 150 171
127 146 164
127 146 167
130 149 170
134 152 175
130 148 171
130 148 169
131 152 171
151 172 196
173 195 221
183 206 232
187 209 238
194 217 245
176 197 221
150 167 194
141 155 188
186 202 225
207 221 240
211 226 246
212 227 248
210 227 249
210 226 248
211 227 250
203 219 241
209 225 246
213 229 252
209 226 248
212 228 250
211 227 250
214 230 253
215 231 254
209 226 247
214 229 251
210 226 247
193 210 234
197 218 244
205 225 252
206 226 253
204 224 251
207 227 254
207 227 254
203 223 250
207 227 254
204 224 250
206 226 252
204 224 251
206 226 252
207 227 254
206 225 252
207 227 254
207 227 254
206 226 253
207 227 254
206 226 254
204 224 251
205 224 251
207 227 254
204 224 251
203 223 250
204 224 251
203 223 251
203 224 251
203 223 250
205 226 253
205 225 253
206 226 254
201 222 249
203 223 251
203 224 252
202 223 251
201 222 251
200 221 249
201 222 250
200 221 250
200 222 251
197 219 248
197 219 248
197 220 250
190 212 241
193 215 244
188 211 240
184 207 236
173 195 223
155 174 198
137 155 178
133 150 173
132 149 172
132 149 172
132 150 171
132 148 171
134 151 175
131 147 170
130 146 168
133 149 172
130 147 169
135 152 175
130 147 170
129 145 166
134 153 176
131 148 170
136 152 176
131 148 170
133 151 175
131 148 171
135 153 177
130 146 168
134 153 176
130 148 171
131 149 172
131 148 171
133 149 170
129 144 165
129 146 168
131 148 169
134 152 175
133 151 175
132 149 173
132 149 174
130 148 171
131 149 172
132 149 171
132 148 171
135 152 175
132 149 173
133 151 173
131 146 167
133 150 172
128 145 166
133 151 175
132 149 173
133 152 176
130 146 168
130 146 167
127 144 164
134 151 175
133 152 176
134 151 175
132 149 171
133 149 172
131 149 171
131 146 168
133 150 173
129 148 171
134 151 175
128 145 167
128 146 166
130 148 170
131 148 171
132 149 171
132 149 173
130 148 169
132 150 172
131 149 172
134 152 174
131 147 169
132 150 172
131 148 171
131 149 170
133 152 175
131 147 170
130 146 168
131 149 172
133 151 174
130 147 168
132 149 172
131 148 170
130 149 171
132 149 171
130 146 168
129 147 170
129 147 168
128 145 165
129 147 169
130 147 170
133 151 172
128 146 168
132 151 173
131 148 171
131 148 169
129 147 165
133 150 171
132 151 174
130 149 170
133 150 173
129 145 166
128 145 166
131 148 169
132 149 171
131 147 169
130 148 171
130 148 171
134 151 174
130 147 169
133 149 172
114 128 158
33 25 117
28 18 102
28 19 109
30 20 114
28 19 110
29 20 112
30 20 112
31 21 116
30 21 116
28 19 108
30 21 116
29 20 114
28 19 110
31 21 117
29 20 113
31 21 118
31 21 117
30 20 114
29 20 114
29 20 110
30 20 114
30 20 115
30 20 114
30 21 116
31 21 117
30 21 117
29 20 113
30 20 114
31 21 120
30 21 115
29 20 112
35 34 112
29 20 113
29 20 112
36 33 118
30 23 115
42 47 119
48 57 120
47 56 114
38 43 113
30 20 113
34 32 110
38 40 112
39 41 114
38 41 115
40 42 119
28 19 107
29 20 112
30 20 113
30 20 113
29 20 113
29 20 111
29 20 113
28 19 105
29 20 109
30 20 113
29 20 112
27 19 105
27 18 103
28 19 107
29 19 107
28 19 105
30 20 114
29 20 109
28 19 103
29 20 108
29 20 109
29 19 108
27 19 102
26 18 99
29 19 107
28 19 106
28 19 103
28 19 104
27 18 99
25 17 94
27 18 101
27 18 100
27 18 98
24 16 90
27 18 99
27 18 100
25 17 94
26 18 98
25 17 94
26 17 96
25 17 93
26 18 98
26 17 95
25 17 91
26 17 95
22 15 81
26 17 91
24 16 88
22 15 80
23 15 84
23 15 83
22 15 83
24 16 85
20 13 69
22 14 79
23 15 80
23 15 82
21 14 74
21 13 72
111 121 143
126 140 162
129 143 164
130 146 166
125 141 161
126 139 159
132 148 170
126 138 161
129 143 163
127 141 162
127 140 160
128 143 165
129 143 165
127 142 163
129 144 167
128 141 162
126 136 153
125 139 161
125 137 156
126 139 161
128 143 164
126 134 153
130 141 163
130 145 167
128 143 164
125 138 160
123 136 157
126 135 155
129 143 165
130 144 167
125 138 159
125 140 161
125 132 150
128 139 161
128 142 164
131 141 162
127 143 165
127 140 162
126 137 157
128 140 160
127 136 157
127 141 163
123 131 151
121 129 148
127 138 158
126 137 157
125 135 154
128 141 161
123 134 154
123 133 151
130 141 162
124 131 151
127 134 154
128 138 158
121 130 149
126 138 159
128 137 158
121 128 148
123 132 152
121 123 141
126 136 157
122 128 148
121 126 145
121 125 142
117 118 135
124 132 152
121 123 140
119 121 139
123 132 152
123 134 153
118 123 140
124 125 143
115 117 134
117 122 140
124 127 146
121 124 142
127 134 154
122 121 138
119 124 142
115 114 131
119 115 132
114 111 127
115 111 127
121 118 133
113 109 124
113 112 128
112 110 125
117 123 141
116 111 126
106 100 113
111 106 120
110 111 127
111 107 122
106 103 114
104 97 111
107 103 117
108 104 116
97 90 102
108 100 113
102 91 102
90 75 82
98 93 100
98 101 104
95 98 99
97 98 101
90 92 94
93 94 97
93 95 99
90 92 94
93 95 98
91 92 95
89 91 95
91 91 92
86 88 90
80 81 83
89 89 91
85 86 90
91 92 94
90 92 94
89 90 92
86 86 88
88 90 92
88 88 90
94 94 97
87 89 90
94 95 97
96 99 101
92 93 95
90 91 93
92 94 97
93 93 96
90 91 92
92 93 95
87 89 92
93 95 96
93 94 97
89 90 92
86 87 89
94 96 99
94 97 99
90 92 94
88 90 93
86 89 91
92 92 94
96 98 99
93 96 97
89 90 92
90 91 92
92 95 98
94 96 99
91 93 95
93 96 98
90 91 93
95 98 100
93 95 96
90 91 92
95 97 100
93 94 96
95 97 99
92 95 96
87 89 90
93 94 95
95 97 98
95 97 99
93 95 96
96 99 100
90 92 92
88 88 89
86 87 87
99 101 104
97 99 100
93 94 95
95 96 99
91 92 93
98 98 100
88 90 91
88 91 93
91 91 92
98 102 104
93 95 96
92 94 95
97 100 102
92 94 97
93 93 96
91 93 94
86 87 86
95 97 100
99 101 103
99 101 102
98 100 102
91 93 95
97 99 101
91 94 96
92 94 96
85 85 85
92 95 96
98 100 102
92 93 93
97 99 102
95 97 99
92 95 96
96 99 100
95 97 98
85 89 88
90 92 94
92 95 97
92 94 95
93 96 97
91 93 93
91 94 94
95 98 100
88 90 92
94 96 97
92 94 95
91 94 92
97 99 101
100 102 104
96 98 99
92 94 95
93 96 97
91 93 94
96 98 99
95 96 95
95 97 99
93 94 96
102 105 107
92 95 97
97 99 101
90 92 93
91 93 94
96 99 101
93 96 98
95 98 98
92 95 96
88 91 93
91 93 93
99 101 102
94 97 97
93 95 96
96 98 99
93 95 98
91 94 96
96 99 99
93 96 96
92 95 95
91 93 94
97 98 100
89 90 90
93 96 96
94 95 96
89 92 93
92 95 96
93 95 95
94 97 97
92 94 94
92 94 94
95 97 98
92 94 94
96 99 100
93 95 97
94 97 97
89 90 91
89 91 90
88 89 89
95 98 99
96 99 101
90 92 92
91 93 94
93 95 97
89 91 90
91 95 94
98 102 102
92 95 94
90 92 94
96 98 100
90 93 92
89 91 92
90 92 91
90 93 93
88 91 91
88 91 89
85 89 85
94 96 96
89 91 92
82 84 85
88 90 89
86 88 89
91 94 92
91 94 94
87 90 90
84 87 87
89 91 90
93 95 96
86 88 88
90 91 92
90 92 91
86 88 86
86 88 89
89 92 90
78 81 79
88 90 88
88 92 91
85 86 85
88 90 89
84 87 85
85 87 87
83 85 84
84 87 84
86 88 89
83 85 84
87 90 89
90 90 91
80 81 77
87 88 86
84 85 85
79 81 78
84 87 86
84 86 85
91 93 92
88 90 89
82 84 82
83 86 84
86 88 87
83 85 84
86 89 89
88 90 91
81 84 78
85 88 88
83 85 84
86 88 88
85 87 84
81 83 83
84 85 84
84 87 87
80 81 80
85 87 87
84 86 87
87 88 86
87 90 90
83 86 86
84 87 89
84 87 86
90 91 93
89 90 90
88 90 89
86 87 88
91 94 93
88 89 90
94 96 97
89 91 92
93 94 94
94 96 98
87 90 91
86 88 89
88 90 90
87 90 90
91 93 93
87 90 90
91 93 95
90 92 93
86 88 89
95 97 99
88 89 91
88 91 91
88 90 91
88 88 90
89 91 92
87 89 89
87 88 87
88 90 92
90 92 92
80 82 82
92 93 97
94 96 97
88 89 90
88 90 92
83 84 85
91 93 98
90 92 95
88 89 92
89 90 91
89 90 91
90 92 94
88 90 93
85 84 85
91 93 97
92 93 95
90 92 93
91 92 95
87 89 93
83 85 86
85 85 87
86 87 89
92 95 97
83 84 88
87 89 92
95 96 99
86 89 91
88 88 90
84 85 87
85 86 89
96 97 101
75 73 75
76 76 78
89 90 94
85 84 87
82 83 87
82 83 85
77 77 80
84 84 86
75 73 75
70 70 75
79 78 82
71 69 71
85 84 86
77 75 76
67 65 67
69 67 71
65 63 64
68 67 70
61 59 61
65 62 65
61 57 60
63 61 64
59 57 59
58 55 57
52 49 51
50 46 49
55 53 53
62 59 61
59 55 56
54 52 54
59 57 59
60 57 60
64 61 64
73 71 74
74 73 77
76 75 78
71 69 73
71 70 75
76 74 77
82 82 87
87 87 91
86 86 90
89 90 94
96 99 105
92 93 97
90 91 96
93 95 99
97 98 103
93 94 97
100 101 108
106 112 123
115 127 146
126 141 163
125 140 161
124 140 162
125 140 162
128 143 166
123 139 162
122 136 156
124 138 159
126 141 162
127 142 164
121 135 156
118 133 155
124 138 161
124 137 158
127 142 164
119 132 153
93 95 113
50 32 52
48 27 46
56 32 56
65 37 64
64 37 64
62 37 64
65 38 65
63 37 64
71 42 74
66 40 67
68 41 69
75 44 77
70 41 74
73 43 76
77 46 81
70 42 73
73 44 77
79 47 85
78 46 81
77 46 83
82 49 89
80 48 84
80 48 86
88 53 97
82 49 89
88 53 93
83 50 88
86 53 93
83 50 90
90 55 98
93 56 101
83 51 91
90 56 99
87 52 93
84 52 92
92 56 103
93 57 102
93 57 104
88 53 97
99 61 109
94 58 104
96 58 105
97 60 108
97 59 108
92 57 103
95 57 104
97 60 107
101 62 112
95 58 107
97 59 109
98 60 111
97 60 110
92 57 103
96 59 108
98 60 110
93 57 102
98 61 112
98 60 111
100 62 113
95 59 107
98 60 111
100 61 113
98 61 112
99 60 111
101 62 114
99 61 112
103 64 118
102 63 117
99 62 112
97 59 108
101 63 116
98 61 113
104 65 120
101 62 116
97 60 111
103 64 118
99 62 115
102 63 120
105 65 121
102 63 118
100 62 117
98 61 115
102 63 120
102 63 119
101 63 119
104 65 121
102 63 120
100 63 117
100 62 118
104 65 123
100 62 117
103 63 120
98 61 116
100 63 117
96 60 117
98 61 114
96 60 115
97 60 115
99 62 119
96 60 117
92 58 115
97 61 117
101 75 126
118 124 154
131 146 170
132 149 172
131 147 170
129 145 169
130 148 172
128 144 167
130 147 171
127 144 166
129 146 169
129 144 167
131 149 173
129 142 163
129 146 169
126 141 165
132 150 173
131 146 168
132 150 173
130 147 169
131 149 172
130 147 170
130 145 168
128 144 167
131 149 172
130 148 171
120 136 166
69 81 143
48 59 137
46 53 125
51 61 141
47 56 131
49 59 139
48 60 139
51 62 140
53 65 149
50 60 138
50 62 143
53 65 151
52 63 147
53 64 147
56 69 156
55 70 157
57 72 159
55 69 160
56 71 160
55 67 154
57 73 162
57 73 166
58 73 164
57 72 161
59 75 168
61 78 176
61 77 173
56 71 163
60 77 174
59 76 172
56 71 162
60 78 176
61 79 179
59 77 171
59 76 176
62 79 179
63 81 180
59 75 174
60 77 173
62 81 182
62 81 183
58 74 169
62 80 181
62 79 178
57 75 169
60 76 177
59 77 179
62 81 181
65 84 192
63 82 189
62 80 186
62 81 187
61 78 179
60 79 182
63 82 191
63 82 186
65 85 195
65 84 194
63 81 187
62 80 188
62 81 190
61 79 183
64 82 191
62 80 187
64 83 191
63 81 191
59 75 186
61 79 187
65 85 197
63 81 193
64 82 195
66 86 198
61 80 190
64 84 194
62 80 192
62 80 190
63 82 192
62 80 192
62 80 192
61 79 189
63 81 194
63 82 198
61 80 194
62 81 193
61 79 193
62 80 192
63 82 195
64 84 199
62 81 196
62 80 198
62 80 192
62 82 195
65 84 198
59 75 185
61 78 189
64 83 197
61 80 196
62 81 189
62 81 194
63 83 194
63 82 196
64 83 195
64 83 195
65 85 195
65 83 193
71 84 198
94 100 186
98 93 178
98 88 184
93 68 199
87 59 189
89 59 194
91 61 198
91 61 200
92 61 200
94 63 206
92 62 203
94 63 206
93 62 205
96 64 210
95 64 208
94 63 207
97 65 213
95 64 211
94 63 208
97 65 213
98 66 218
98 66 215
97 66 214
97 65 212
95 64 212
97 66 217
96 65 212
97 65 214
99 67 220
97 66 214
98 66 216
95 64 212
97 65 215
100 68 222
98 66 218
98 66 218
100 67 221
97 66 217
98 66 219
101 68 226
99 67 218
101 68 224
99 67 220
97 66 218
100 67 222
99 67 223
102 69 227
101 68 223
98 66 219
98 66 217
100 68 224
101 68 223
100 68 225
100 68 223
100 68 225
98 66 219
100 68 224
100 68 222
99 67 222
102 69 225
101 69 225
101 68 222
100 67 221
101 68 224
101 68 225
100 68 223
101 69 227
99 67 221
101 68 226
100 68 222
101 69 225
100 68 224
101 68 225
98 68 214
87 66 188
79 67 170
66 66 129
48 66 67
41 63 44
42 69 10
38 64 9
38 63 9
40 66 9
39 67 10
40 67 10
43 72 10
41 69 10
39 66 10
45 75 11
40 67 10
43 72 11
42 70 10
41 69 10
40 67 10
38 65 9
42 72 10
44 74 11
44 73 11
37 64 9
46 77 11
42 71 10
39 68 10
43 73 11
41 69 10
44 75 11
44 74 11
42 72 10
45 76 11
39 68 10
40 67 9
43 71 10
42 71 10
39 66 10
39 67 10
42 70 10
39 67 9
43 73 10
42 71 10
41 69 10
44 74 11
44 74 11
47 77 21
65 85 68
100 117 127
116 133 149
122 140 159
122 139 160
