P3
1600 1
255
64 30 85
57 27 80
66 30 86
60 28 79
66 31 87
67 31 88
62 29 82
65 30 84
64 29 82
67 32 90
64 30 84
62 29 82
57 27 78
63 29 83
63 30 84
63 30 84
62 29 82
59 28 80
61 29 82
64 30 85
65 30 84
64 30 84
61 28 81
66 31 86
63 30 84
59 28 77
59 28 78
61 29 81
64 30 82
66 31 87
62 29 82
62 29 82
62 29 83
61 28 79
66 31 85
63 30 83
63 29 83
59 27 77
63 29 82
61 28 80
63 29 82
58 27 76
61 28 79
62 29 80
61 28 80
61 28 80
60 27 78
59 27 76
64 29 83
60 27 78
64 30 82
59 27 78
79 69 103
125 140 165
125 141 166
128 145 170
128 145 170
131 149 173
131 149 174
129 145 168
129 146 171
127 144 167
127 144 168
128 145 168
129 146 170
126 142 164
126 143 168
125 141 163
131 147 170
129 147 171
117 133 163
70 92 162
31 65 159
32 65 160
34 69 170
32 67 164
33 67 167
33 67 166
32 67 164
33 68 166
33 68 168
32 66 163
34 70 174
34 68 169
33 68 168
34 68 168
34 70 173
33 67 164
33 67 166
33 66 163
34 68 168
34 68 170
34 67 166
33 68 169
32 66 164
34 68 168
34 68 169
34 69 170
34 69 172
33 67 168
35 70 173
34 68 169
34 68 169
34 70 173
34 69 170
33 67 166
32 65 161
33 67 165
35 70 173
34 68 169
34 68 169
35 70 174
34 68 167
34 70 173
33 66 165
33 66 163
32 65 162
34 69 170
33 67 166
33 67 166
34 69 171
34 69 170
34 69 171
34 69 171
32 64 160
34 69 171
31 63 155
33 67 165
34 68 168
34 69 169
34 68 168
33 66 164
34 68 168
33 64 159
35 69 170
34 69 170
34 69 171
31 62 156
33 67 165
32 64 160
32 65 161
34 68 169
32 64 158
34 67 166
34 69 168
33 66 163
33 66 164
33 66 163
32 63 156
34 69 170
33 66 163
32 63 158
33 67 167
32 65 161
32 62 153
33 65 161
34 67 166
34 67 166
31 63 157
32 64 160
31 63 156
31 63 156
33 65 160
32 63 157
32 64 160
33 65 158
31 61 152
33 64 155
31 61 151
31 63 155
32 63 156
32 63 155
32 64 158
32 64 156
32 65 160
30 60 147
33 67 164
32 65 161
32 62 154
61 81 143
115 133 161
124 140 160
122 139 159
116 132 152
108 124 142
115 131 150
122 139 160
117 133 154
124 141 164
122 140 160
122 140 161
113 129 148
120 138 159
125 142 165
118 135 157
119 135 157
120 137 157
117 135 155
120 136 157
119 135 157
120 137 158
120 137 158
117 133 154
119 136 157
121 138 159
123 141 160
118 136 156
120 138 159
119 137 158
121 138 159
120 137 157
122 140 160
122 140 162
116 132 152
114 131 151
115 132 153
123 141 163
119 136 158
124 141 162
121 138 158
122 139 161
124 142 164
122 139 161
122 140 161
124 140 163
122 139 161
120 139 159
121 138 161
122 140 162
120 138 158
129 146 170
123 141 164
124 141 162
130 147 170
125 143 166
120 137 158
125 142 164
127 145 168
124 141 163
126 144 168
125 142 164
125 142 164
127 145 166
128 144 168
127 145 169
127 147 169
122 139 161
127 144 167
124 142 165
120 137 159
115 132 153
124 143 166
122 139 159
124 142 165
122 139 161
127 145 169
127 145 167
124 142 164
124 141 165
128 146 169
121 139 159
125 143 166
123 140 162
127 145 167
128 146 169
122 140 163
121 139 160
126 143 164
125 142 165
129 148 171
127 143 166
129 147 170
127 144 168
126 144 166
130 147 169
127 144 167
123 141 163
129 146 170
128 146 169
127 143 166
124 141 164
124 142 163
127 144 165
124 142 164
126 143 166
125 142 163
127 146 169
127 145 169
124 141 164
130 148 170
129 147 169
124 142 165
128 146 168
123 139 161
129 148 171
130 149 173
126 144 167
131 149 173
129 148 172
128 145 168
125 143 167
131 149 171
129 147 170
130 147 170
130 148 171
124 142 163
127 147 168
125 142 166
128 146 169
124 142 162
128 146 168
125 142 165
128 145 169
125 144 163
128 146 169
128 146 168
131 149 171
132 150 172
128 146 170
127 146 169
130 148 170
125 144 165
130 146 168
125 143 165
128 147 169
131 150 171
127 145 168
128 146 167
132 150 174
126 145 165
128 147 170
130 148 170
128 146 168
130 149 171
133 152 176
121 140 159
128 147 168
128 146 170
128 147 165
128 147 169
129 147 170
124 140 159
109 120 133
97 100 106
78 64 52
73 54 33
74 52 22
73 51 22
73 52 22
72 51 22
72 51 22
73 51 22
74 52 22
73 52 22
73 52 22
72 51 22
71 51 21
73 52 22
73 52 22
71 51 21
72 51 22
72 51 21
73 52 22
74 52 22
72 51 22
72 51 22
71 51 22
71 51 22
74 52 22
72 51 22
72 51 22
73 52 22
72 51 22
73 51 22
73 52 22
73 52 22
73 52 22
74 52 22
72 51 22
73 52 22
70 50 21
73 52 22
72 51 21
73 51 22
72 51 22
72 51 22
72 51 22
71 50 21
72 51 22
71 50 21
73 51 22
72 51 21
70 50 21
71 50 21
70 50 21
71 50 21
71 50 21
71 50 21
69 49 21
71 50 21
71 50 21
71 50 21
72 51 21
72 51 22
69 49 21
71 51 21
71 50 21
69 49 20
69 49 20
70 50 21
71 50 21
69 49 21
69 49 21
72 50 21
71 50 21
70 49 21
70 49 21
70 49 21
69 49 20
69 49 21
67 48 20
70 49 21
67 47 20
68 49 20
70 48 21
98 49 34
109 47 38
134 50 48
137 50 50
136 49 49
150 55 54
138 50 50
139 50 50
148 54 54
133 48 48
132 47 48
140 51 51
139 50 49
133 48 48
137 49 50
130 47 47
131 47 48
136 49 49
137 50 50
131 47 48
130 47 47
136 50 50
135 49 49
138 50 50
138 50 50
135 48 48
131 47 48
134 48 49
136 49 49
141 51 50
139 54 56
131 134 152
131 150 171
131 148 169
128 147 165
126 145 162
127 146 163
134 152 176
130 148 172
130 149 168
134 152 176
131 150 172
128 147 167
129 147 169
131 151 171
130 149 170
128 146 166
128 146 165
132 151 171
133 152 174
130 148 168
132 151 173
133 152 173
156 177 203
171 194 220
182 205 235
182 206 233
185 208 236
192 216 245
176 197 226
143 162 180
128 146 171
117 154 149
152 165 176
151 164 187
172 188 213
172 188 208
194 209 230
201 216 236
190 206 224
188 205 226
170 187 209
155 168 192
145 164 183
130 156 177
141 153 173
181 200 226
205 226 254
205 226 254
204 225 254
202 223 251
198 219 246
203 224 252
204 225 253
205 226 254
203 224 252
203 224 252
202 223 250
204 225 253
205 226 254
200 221 249
204 225 254
202 223 251
203 224 252
202 223 251
203 224 252
203 224 252
202 224 252
203 224 253
204 225 254
202 223 252
201 223 251
202 224 253
200 222 251
201 222 251
202 224 253
199 221 250
199 221 250
200 222 252
193 215 243
198 220 250
199 221 251
200 223 253
198 220 250
193 216 246
191 213 243
194 217 248
191 214 245
193 216 247
180 203 233
181 204 235
174 196 227
156 176 204
136 155 179
132 150 172
132 149 171
127 142 166
133 151 174
134 152 176
134 151 172
132 149 172
133 149 171
133 150 171
131 148 169
132 150 173
134 152 176
131 148 170
130 148 170
133 150 172
133 150 173
132 150 172
131 147 170
132 148 169
133 151 175
133 151 172
134 151 174
132 150 174
132 150 174
131 148 171
132 150 172
130 147 169
131 149 171
132 150 173
131 148 170
131 148 170
131 146 167
132 147 168
131 148 170
133 150 174
136 154 177
130 148 171
134 152 174
132 150 174
132 149 173
129 146 169
131 147 169
130 147 170
133 151 173
133 151 173
130 148 170
133 148 170
131 148 170
130 147 169
134 152 174
133 151 174
134 152 174
132 150 174
128 144 166
129 145 167
129 147 171
134 151 175
133 151 174
130 146 169
134 151 171
131 148 170
132 148 171
129 147 168
130 147 172
132 150 173
130 147 168
130 146 168
133 151 173
129 147 167
131 148 169
128 147 168
130 146 167
130 148 170
130 147 169
129 145 166
132 150 171
132 150 172
128 146 165
130 149 171
132 150 170
128 145 167
133 151 173
129 147 170
130 149 169
132 148 168
131 148 169
132 149 172
131 147 169
131 148 171
131 147 168
130 148 170
128 145 166
128 144 166
131 146 168
128 146 167
130 148 168
128 146 168
131 148 170
130 147 167
130 148 170
133 150 171
131 148 170
129 147 169
130 145 167
126 144 164
128 146 166
129 148 169
131 147 168
130 148 169
130 148 171
133 152 176
130 147 169
102 114 144
29 19 111
27 19 104
28 18 104
29 19 108
29 20 114
29 19 110
30 20 115
29 19 110
31 21 119
30 20 115
31 21 117
30 20 114
29 20 112
29 20 113
28 19 107
31 21 119
30 20 116
29 20 113
30 21 117
34 33 117
41 42 117
54 67 120
61 80 115
68 90 125
81 108 127
95 132 136
92 128 129
107 150 137
115 160 146
109 153 143
115 162 144
130 184 158
127 178 152
126 178 156
130 184 155
133 189 158
142 201 169
138 198 166
137 195 163
129 183 156
131 186 157
136 194 162
121 172 150
132 188 160
122 173 151
126 180 155
127 179 152
118 167 145
116 161 146
109 153 139
109 152 139
102 141 134
93 130 128
81 108 125
71 99 120
73 97 120
45 51 115
55 71 116
37 41 107
36 40 109
28 20 108
30 20 113
28 19 105
29 20 109
28 19 105
29 19 107
28 19 103
28 19 105
27 18 101
28 19 107
27 19 103
29 19 107
26 18 98
27 18 100
27 18 102
28 19 105
25 17 94
26 18 98
25 17 95
27 18 99
27 18 101
26 17 97
28 19 102
23 16 88
27 18 101
25 17 95
26 17 97
26 17 94
25 16 90
23 16 83
23 16 87
22 15 81
25 16 89
25 16 91
23 16 85
22 15 79
21 14 79
23 15 81
22 15 78
24 16 85
22 14 76
23 15 85
22 14 76
22 14 76
22 14 79
94 105 131
128 143 163
127 144 167
126 140 161
130 146 168
126 139 159
128 143 164
128 142 164
123 138 159
126 140 161
129 143 165
128 142 164
126 138 158
126 139 158
123 133 151
127 138 160
130 144 165
130 144 166
122 134 153
124 130 149
129 143 164
130 144 166
127 142 164
125 137 157
125 134 154
123 133 152
132 147 169
125 139 161
125 138 159
123 135 154
127 140 161
123 136 156
126 138 159
130 144 166
126 138 158
126 136 155
124 135 154
124 136 158
128 140 162
121 133 153
121 130 150
123 130 149
124 132 150
126 138 158
119 129 148
126 138 158
127 139 160
120 131 151
124 134 154
129 138 158
122 132 153
126 138 158
120 127 146
120 126 144
123 130 148
124 128 146
119 124 143
122 133 154
120 126 146
114 113 129
120 126 144
120 126 144
122 125 144
124 131 149
118 126 144
115 119 136
118 121 138
116 118 136
118 125 143
119 121 137
121 124 143
124 130 149
115 117 132
113 112 127
115 122 140
114 111 126
118 120 137
114 112 128
118 115 132
110 110 125
115 113 129
112 108 123
108 100 114
114 108 123
111 108 123
110 110 124
110 107 123
100 92 104
100 90 102
105 95 108
105 103 116
99 92 103
95 85 97
94 89 103
90 76 87
94 84 95
92 83 92
85 71 81
87 76 86
97 90 101
78 68 76
84 74 83
88 77 86
80 65 71
81 72 77
96 96 101
96 98 103
96 98 102
94 95 98
92 92 95
93 94 98
92 94 97
89 90 92
89 91 93
82 83 86
87 88 91
93 94 96
88 90 92
86 87 89
92 94 98
88 88 90
90 91 93
90 91 93
92 94 95
90 92 94
90 90 92
86 87 90
91 93 94
88 89 90
89 90 92
84 84 85
90 91 92
93 94 97
91 92 94
91 93 94
91 93 94
88 90 90
85 87 89
89 90 93
89 91 92
88 89 92
84 84 85
93 94 96
92 93 95
90 92 94
91 92 94
89 92 95
93 93 93
91 92 93
86 86 87
87 88 90
92 95 95
89 90 93
93 94 96
90 91 93
93 95 97
93 96 97
93 95 98
93 94 96
89 89 91
89 91 92
91 93 94
93 95 98
87 87 88
92 94 95
90 92 93
92 94 95
94 96 99
97 99 101
94 95 97
93 96 96
90 93 95
88 90 92
91 92 93
91 94 94
96 98 100
90 93 95
96 99 100
91 94 97
95 96 98
94 96 99
97 100 103
90 91 92
95 96 98
95 97 98
91 91 91
93 94 95
92 94 94
94 96 97
94 96 97
89 91 93
86 86 88
92 94 96
96 99 101
93 96 98
96 99 102
89 91 93
91 92 92
90 91 92
91 93 93
96 97 98
92 94 95
92 94 96
98 99 101
90 91 92
93 94 95
93 96 94
94 96 97
96 98 99
93 95 95
93 95 97
90 91 93
94 96 97
93 95 96
92 94 94
89 91 91
93 96 97
91 93 95
94 96 97
94 95 96
93 95 97
94 97 99
97 100 102
95 98 98
87 90 90
96 97 98
92 94 94
95 97 98
93 96 98
95 97 98
95 98 100
93 95 95
93 94 96
89 91 92
92 94 97
92 93 94
97 99 101
92 94 94
90 92 91
89 91 92
98 100 102
92 95 96
84 87 86
91 93 94
93 95 96
91 94 94
91 93 92
91 94 96
88 91 93
89 90 91
89 90 90
96 98 100
96 99 99
90 93 91
91 93 93
89 92 93
85 86 87
89 92 93
91 94 94
93 95 96
93 95 97
92 93 95
90 93 91
92 94 95
93 96 97
93 96 96
79 82 78
88 92 91
82 84 81
90 92 92
88 90 88
91 94 93
96 98 101
94 96 97
89 92 92
90 94 94
91 94 94
93 95 96
88 91 89
87 89 89
90 93 91
89 91 90
89 92 91
87 91 87
95 98 99
91 94 92
87 90 92
84 86 84
87 90 90
90 93 91
91 94 92
86 90 89
90 92 93
92 93 93
93 96 98
86 88 87
86 88 88
86 89 89
90 92 93
84 85 85
87 90 89
86 89 88
88 90 90
82 84 82
86 89 86
88 90 93
83 84 81
83 84 84
84 86 85
84 86 86
86 88 89
81 83 81
84 86 86
86 89 90
81 83 81
87 89 89
85 89 85
88 90 91
82 83 81
81 84 83
80 81 81
82 84 81
86 87 87
74 75 75
86 88 87
82 84 84
85 89 88
87 89 89
80 82 80
89 92 92
84 87 87
80 82 82
85 85 84
88 90 90
82 84 84
85 87 88
81 81 80
90 90 90
86 87 87
86 89 89
86 88 89
88 90 90
81 81 81
85 86 85
86 86 88
87 89 89
85 87 87
90 92 93
91 93 93
88 89 90
84 87 83
83 84 84
88 91 90
89 91 91
88 89 91
81 83 84
90 93 94
95 97 98
89 90 91
88 91 90
87 89 91
83 83 84
87 90 91
86 88 88
93 95 96
91 92 94
91 93 94
91 92 95
82 83 84
92 93 95
85 86 88
89 90 91
85 85 87
89 90 92
93 94 97
91 94 95
88 90 92
86 88 89
87 88 89
93 95 94
89 90 94
84 85 87
91 93 96
87 88 90
86 87 87
89 92 95
87 89 90
87 89 91
88 88 91
92 93 94
87 87 89
91 92 96
90 91 93
84 85 87
83 84 85
73 73 73
89 90 92
88 88 90
81 82 85
89 88 93
81 80 82
84 84 85
84 85 87
81 82 85
78 77 79
82 82 86
77 78 82
72 70 71
74 74 75
71 69 72
78 77 78
75 75 78
74 72 75
75 74 78
70 67 70
74 72 75
72 70 71
61 60 61
72 72 74
61 58 59
62 60 62
63 59 60
64 61 62
55 51 53
58 54 57
54 48 51
56 52 54
62 59 61
59 57 58
65 62 63
67 66 68
73 71 73
76 75 78
71 69 72
80 79 82
78 77 80
79 78 80
80 79 83
87 86 89
87 88 92
89 89 93
87 88 91
93 95 100
93 93 97
93 94 99
97 98 102
95 96 99
99 101 107
105 111 122
111 120 136
117 130 149
121 136 154
119 133 155
121 134 154
124 140 162
124 139 160
125 138 160
125 137 157
125 141 164
123 136 156
124 138 159
130 146 168
119 132 154
121 135 155
125 139 160
121 136 157
120 133 154
122 134 155
116 129 150
91 94 115
46 25 43
52 30 53
56 33 56
56 32 54
57 32 55
66 39 68
63 38 64
61 35 61
66 38 67
67 40 66
71 43 73
72 43 76
72 43 76
70 43 74
73 43 75
73 44 75
77 47 81
78 47 83
72 43 73
78 47 83
80 49 87
79 47 85
88 53 94
80 48 84
85 51 93
81 49 85
84 51 92
85 51 93
85 51 92
87 52 94
86 53 93
91 56 101
89 54 98
87 53 96
89 55 98
88 54 100
87 53 94
93 57 104
94 58 107
90 55 99
99 61 108
92 57 101
90 56 100
91 56 102
95 58 104
92 56 102
92 56 102
98 60 109
94 58 106
96 59 107
96 59 109
101 62 113
102 63 116
92 57 103
93 57 103
94 59 107
100 62 113
100 62 115
95 59 109
95 59 109
100 62 115
93 58 107
101 61 114
100 62 113
99 61 111
99 62 114
104 63 117
101 64 119
107 66 121
97 59 111
101 62 114
97 60 112
100 62 115
99 60 113
100 63 115
102 64 116
101 61 114
97 60 113
101 62 118
97 61 113
101 63 118
99 61 116
107 66 122
101 64 120
99 61 114
99 61 115
101 63 119
101 62 118
99 62 117
100 62 118
98 60 115
100 62 120
97 59 113
103 64 120
101 63 120
100 63 119
98 61 117
93 58 113
102 63 118
92 57 109
93 58 111
96 60 117
89 56 110
83 52 106
89 66 113
119 124 154
132 147 170
128 145 168
126 141 163
129 145 169
131 146 169
131 148 171
128 145 168
129 146 169
131 148 172
131 147 171
128 144 167
130 145 169
131 148 171
128 144 167
129 146 170
130 147 171
129 145 168
129 145 168
131 149 172
131 147 170
131 149 173
133 150 172
129 146 172
80 91 140
45 53 125
46 54 128
44 54 128
46 54 126
51 61 140
51 63 144
51 61 144
48 58 138
52 65 147
47 57 134
49 60 137
52 64 146
54 68 153
52 65 143
51 64 146
54 69 157
53 68 155
56 70 162
55 69 158
56 71 160
56 70 160
56 72 160
59 75 169
57 72 161
58 75 169
56 72 159
57 72 164
61 77 175
57 73 165
58 74 167
57 73 167
59 76 171
61 79 178
55 71 160
60 78 175
60 76 175
59 76 175
58 76 171
58 75 164
61 79 180
62 79 179
57 74 167
56 71 170
58 75 174
64 83 190
61 79 182
62 81 188
62 80 184
62 79 185
59 76 179
60 78 177
62 80 183
60 77 179
62 80 183
62 81 184
60 77 181
57 74 174
61 79 186
60 77 183
60 77 184
61 80 185
63 81 191
63 82 194
61 78 184
59 76 181
62 81 190
61 80 187
60 78 187
58 75 182
62 80 188
63 82 195
60 77 184
61 78 190
61 79 187
62 79 191
60 78 185
62 80 191
62 81 194
63 81 197
61 79 187
61 79 191
61 80 192
64 83 195
61 79 189
60 77 188
61 78 189
61 79 191
62 80 193
61 79 191
63 82 193
62 80 193
62 82 191
62 80 189
62 81 193
63 82 196
59 78 184
63 82 195
62 81 193
62 82 194
60 77 189
63 83 192
63 79 191
67 75 191
75 70 187
78 60 185
88 62 196
85 57 189
90 60 197
91 61 198
88 59 191
91 61 201
90 60 198
89 59 192
94 63 207
90 60 196
95 63 207
91 62 202
89 59 196
95 64 208
97 65 214
92 62 202
92 62 201
97 65 213
94 63 208
95 64 208
94 63 209
96 64 209
95 64 210
97 65 211
95 64 211
95 64 211
96 65 214
96 65 215
95 63 207
97 65 214
96 65 211
98 65 215
98 67 220
98 65 212
98 66 218
97 65 216
98 65 214
100 66 216
98 66 214
97 66 216
99 66 217
99 66 217
99 67 222
97 65 216
96 65 214
100 68 224
99 67 220
102 69 225
98 66 218
101 69 227
99 67 222
101 68 224
101 68 223
101 68 222
100 67 220
100 67 221
100 68 223
100 68 223
102 69 226
100 67 220
101 68 223
101 68 221
99 67 219
99 67 220
101 68 226
100 67 223
99 68 224
102 69 226
101 68 225
99 67 221
101 68 223
103 69 226
97 66 217
98 67 219
102 69 225
99 67 220
97 66 216
100 68 222
95 66 209
86 64 189
71 62 147
61 66 116
42 64 47
38 63 9
37 64 9
38 64 9
39 65 9
40 67 10
37 64 9
37 63 9
42 69 10
41 69 10
39 67 10
36 61 9
40 68 10
41 68 10
37 63 9
38 64 9
38 64 9
39 67 10
36 62 9
43 71 10
38 65 9
39 66 9
37 63 9
36 62 9
40 67 10
39 67 10
38 64 9
37 63 9
40 67 10
40 67 10
38 64 9
35 60 8
40 68 10
39 66 9
37 63 9
46 69 37
50 71 52
94 111 118
108 125 139
118 135 153
115 133 150
118 136 152
115 132 149
113 130 146
113 130 147
112 129 145
