P3
1600 1
255
72 76 91
52 53 64
64 66 81
66 70 83
65 67 81
67 74 84
51 48 61
56 61 71
47 45 56
58 60 72
52 51 63
54 55 71
46 47 60
46 46 57
57 59 69
58 60 73
50 52 64
66 71 83
60 63 74
69 75 89
61 66 78
66 71 84
74 79 94
68 70 85
68 69 85
78 82 98
70 74 89
73 78 94
75 82 97
62 66 81
77 83 99
76 80 97
80 85 103
95 105 120
87 95 112
89 95 114
87 96 113
94 103 120
96 104 123
98 107 125
86 93 111
96 106 125
98 108 127
86 92 112
105 115 135
98 107 126
102 113 134
103 113 134
91 100 119
105 117 139
113 124 144
97 107 129
111 124 145
105 116 137
111 123 146
98 108 127
116 128 149
119 134 156
106 119 140
112 125 146
106 117 138
112 126 147
111 123 147
115 127 150
112 124 146
118 131 154
110 122 144
111 125 147
118 133 157
113 128 151
72 89 142
29 60 149
27 56 139
29 59 144
30 61 152
29 59 147
28 57 141
30 61 151
30 61 150
29 61 150
29 60 148
29 59 148
29 59 147
29 60 150
29 60 148
30 61 151
30 61 152
30 61 152
30 60 151
30 60 149
30 61 152
29 60 148
30 61 153
30 62 154
32 64 156
30 61 152
29 59 148
32 64 160
30 61 152
30 61 151
30 61 152
29 58 145
30 60 150
31 62 153
30 60 149
30 60 150
30 60 151
32 65 160
31 63 155
30 61 151
31 62 155
30 62 154
30 61 151
32 63 156
30 61 151
31 61 152
28 57 143
31 62 154
29 59 148
29 59 145
30 61 150
32 64 160
31 62 154
29 59 148
31 61 150
30 60 151
29 59 147
28 57 144
29 59 147
31 62 153
30 60 149
30 60 150
29 59 147
30 60 150
30 60 149
30 61 152
30 60 151
30 61 151
30 61 151
29 59 149
28 57 142
28 56 140
31 61 152
30 60 150
30 61 152
29 57 142
29 57 143
29 57 142
29 58 144
30 61 150
31 61 151
29 59 148
27 55 139
31 61 150
28 55 137
30 59 147
29 57 142
29 57 142
30 60 149
30 60 147
29 57 143
29 58 145
29 59 146
29 58 145
30 59 145
27 55 137
29 56 138
30 59 145
28 55 137
30 60 147
30 59 144
28 56 137
29 57 141
28 55 137
28 56 133
28 55 135
29 58 142
28 55 135
27 54 133
64 82 139
114 131 161
131 150 173
133 151 177
133 152 175
133 151 175
133 152 177
132 150 175
133 151 176
132 149 173
131 150 174
131 149 173
130 148 172
130 149 173
131 150 174
130 149 173
131 149 173
128 146 170
130 149 173
127 144 167
126 143 165
130 148 172
131 148 172
131 149 173
131 150 174
133 150 174
129 147 171
134 151 175
132 151 175
128 147 170
130 147 170
132 151 175
129 147 168
133 151 174
133 152 178
131 149 173
132 150 172
133 152 176
127 145 169
132 151 175
134 153 178
130 148 172
133 151 175
128 146 169
130 149 171
133 152 175
134 153 177
132 152 174
131 150 173
132 151 174
132 148 173
131 148 171
131 149 171
134 153 176
132 149 172
130 148 170
132 150 174
129 148 170
134 153 177
130 148 172
132 149 173
130 148 173
133 152 174
136 154 178
132 149 172
130 149 171
135 153 177
132 150 174
131 149 173
130 150 172
132 150 174
124 144 163
132 151 172
132 151 173
134 152 177
134 152 176
129 148 172
132 150 176
133 152 176
133 152 174
129 148 170
130 148 172
133 151 175
132 150 175
131 150 173
128 145 165
131 150 173
132 150 173
131 149 171
131 148 171
132 150 171
130 145 168
133 152 174
125 144 162
128 146 169
130 148 169
131 150 172
129 149 171
133 152 174
130 149 170
130 147 171
129 148 168
132 150 173
129 148 170
128 149 167
132 151 174
129 149 171
129 148 168
127 145 166
131 150 171
130 149 174
131 151 171
129 147 169
127 145 164
132 152 176
134 154 177
127 145 166
129 148 168
128 147 168
132 150 170
130 149 170
133 150 171
130 150 172
128 147 168
131 148 170
125 145 164
130 150 172
127 147 167
130 148 169
126 146 165
129 147 169
126 145 166
132 151 173
126 145 165
128 148 168
128 145 165
127 145 166
128 146 168
127 148 164
128 147 166
127 145 163
128 146 168
125 143 163
126 145 164
127 145 164
125 144 162
126 145 166
125 143 161
124 142 162
107 122 133
76 72 66
73 57 41
66 46 20
66 47 20
66 47 20
67 48 20
69 48 20
67 47 20
66 46 19
68 48 20
66 47 20
68 48 20
67 47 20
64 45 19
68 47 20
67 47 20
68 47 20
67 47 20
69 49 20
68 48 20
65 46 19
69 48 20
67 47 19
68 48 20
66 46 20
67 48 20
68 48 20
70 49 21
68 48 20
67 48 20
68 47 20
69 49 20
71 50 21
71 50 21
69 48 20
72 50 21
68 47 20
70 49 20
69 48 20
68 48 20
71 50 21
69 49 20
67 47 20
67 47 20
68 48 20
66 47 20
64 45 19
66 46 20
68 47 20
67 47 20
71 50 21
69 48 20
69 49 20
68 48 20
70 50 21
65 46 19
69 48 20
69 48 20
68 47 20
68 48 20
68 48 20
69 49 20
69 48 20
68 48 20
68 48 20
67 47 20
67 47 20
70 49 21
69 49 20
67 47 20
65 46 19
68 48 20
68 48 20
66 46 19
68 48 20
67 47 20
67 47 20
68 47 20
66 47 20
67 47 20
68 48 20
67 47 19
67 47 20
66 47 19
62 44 18
66 46 20
68 48 20
63 44 18
65 45 18
67 47 20
66 46 19
62 44 18
62 44 18
66 47 19
66 47 19
64 45 19
65 45 19
66 46 19
64 45 19
63 44 18
64 45 19
61 43 18
63 45 19
64 44 18
61 43 18
65 45 19
62 43 18
61 43 18
61 42 18
62 42 19
77 44 24
106 42 37
108 39 38
116 41 41
117 42 42
127 45 45
125 44 44
125 44 44
127 45 45
121 42 42
119 43 41
111 100 100
102 122 124
105 126 127
112 130 136
108 128 127
108 127 131
108 125 125
112 130 133
105 124 126
115 135 143
111 133 135
114 133 140
116 134 142
113 132 140
116 135 141
114 133 142
116 134 142
120 140 150
116 135 144
115 133 144
112 131 137
122 141 153
117 137 146
116 135 147
115 134 143
119 138 151
118 134 145
110 128 141
120 136 151
119 138 148
121 139 153
121 139 151
123 142 154
121 139 154
122 139 154
122 140 155
120 139 153
122 140 155
123 142 156
125 142 155
127 146 165
122 139 153
123 141 157
123 140 158
126 145 162
126 144 159
123 143 159
125 142 160
128 147 166
125 144 161
126 146 160
126 142 162
125 144 161
128 146 165
124 143 155
122 142 158
122 140 155
127 146 163
126 144 163
126 144 164
125 144 161
131 147 168
127 147 166
126 143 162
126 143 163
131 150 170
127 145 166
129 147 167
128 146 164
128 145 163
128 143 165
128 146 163
128 146 165
127 143 164
128 145 164
128 146 166
129 145 168
130 148 170
130 148 171
132 148 170
130 146 168
128 143 166
130 147 169
128 145 166
126 144 166
132 149 170
132 149 170
131 148 170
129 147 169
130 146 169
132 150 174
130 146 167
133 150 172
129 146 168
128 144 166
131 148 169
129 147 168
132 148 171
129 146 166
128 145 166
133 150 173
129 145 166
132 149 172
133 150 171
130 147 170
129 148 170
132 149 170
129 145 168
127 142 162
131 149 170
131 148 170
132 148 172
129 146 168
135 152 174
131 148 169
128 145 167
130 146 168
131 147 170
132 148 171
127 143 163
130 147 168
133 150 172
132 150 174
128 145 166
132 149 172
129 143 164
132 150 174
131 148 171
131 150 175
131 147 167
130 147 171
130 146 167
129 145 168
132 148 170
131 148 170
129 146 169
130 145 166
131 146 167
130 147 171
129 146 169
130 146 168
130 147 168
131 147 169
128 143 165
127 141 162
128 147 167
130 146 170
129 145 167
133 149 172
132 148 169
131 148 170
128 145 168
132 149 171
130 147 170
128 146 168
129 146 169
128 145 169
129 145 168
127 142 163
129 146 171
128 144 165
129 147 170
132 147 169
129 143 165
129 147 168
127 142 165
129 144 165
131 148 171
129 145 167
129 145 166
130 145 168
129 146 168
129 144 166
130 147 171
129 144 168
132 150 173
128 144 167
131 148 170
127 142 164
126 141 163
126 141 164
127 144 165
128 146 167
130 146 169
131 147 169
131 146 168
132 148 171
127 143 165
122 137 156
130 147 170
128 145 167
130 147 169
130 146 168
126 142 165
128 144 165
128 144 164
125 141 162
126 141 160
128 142 164
123 140 161
123 138 159
123 146 157
128 159 160
129 174 157
147 205 170
152 214 173
159 225 180
161 227 183
160 228 184
159 227 184
158 226 184
157 225 184
156 225 184
155 224 184
154 223 184
153 223 184
152 222 184
151 221 184
150 221 184
149 220 184
149 220 184
148 219 184
147 218 184
147 218 184
146 218 184
145 217 184
145 217 184
145 217 184
144 216 184
144 216 184
143 216 184
142 215 184
142 215 184
142 215 184
142 215 184
141 214 184
141 214 184
141 214 184
140 214 184
140 214 184
140 214 184
140 213 184
139 213 184
139 213 184
139 213 184
139 213 184
139 213 184
139 213 184
139 213 184
139 213 184
139 213 184
139 213 184
139 213 184
139 213 184
139 213 184
139 213 184
139 213 184
139 213 184
139 213 184
139 213 184
139 213 184
140 214 184
140 214 184
140 214 184
140 214 184
141 214 184
141 214 184
141 215 184
142 215 184
142 215 184
142 215 184
142 214 183
141 212 181
142 212 181
138 205 173
136 201 167
132 192 157
131 189 153
129 183 146
127 177 139
127 175 135
128 173 131
130 174 130
131 173 129
129 170 126
125 164 121
124 160 118
111 146 108
104 139 101
95 130 94
84 115 83
77 113 77
79 116 80
73 109 75
77 110 78
75 102 76
75 99 76
78 97 77
78 93 82
75 96 94
59 73 88
45 48 87
22 16 80
22 15 84
22 14 79
20 13 74
22 15 80
19 12 66
20 13 75
19 12 70
19 12 67
20 13 72
83 91 115
124 138 158
118 132 150
125 140 161
121 135 155
124 139 160
124 139 160
122 137 158
120 132 152
121 137 157
117 131 151
125 140 161
123 136 155
123 137 157
125 140 160
121 136 156
121 135 153
120 135 155
125 140 160
117 129 149
120 133 151
124 139 160
126 140 160
119 131 151
124 138 158
119 133 152
118 133 153
116 127 146
121 134 153
119 132 151
119 132 150
122 135 154
122 133 150
116 129 146
120 130 148
120 134 153
121 133 151
122 136 156
113 124 143
118 130 150
124 138 159
117 125 142
119 129 148
122 135 154
118 129 146
121 134 152
121 131 149
121 134 153
124 137 157
118 131 150
122 135 152
114 125 143
119 133 152
118 128 146
125 137 157
116 126 143
120 135 155
122 134 150
114 122 139
114 124 141
117 129 147
122 135 154
115 123 139
118 131 148
116 128 145
115 126 145
112 122 135
116 128 146
116 127 145
119 132 151
120 130 148
115 128 145
117 128 145
117 128 145
114 123 136
120 131 149
119 131 148
118 129 147
111 122 139
121 132 149
111 120 137
118 129 146
119 130 145
115 128 145
117 130 149
114 124 140
118 129 145
120 134 152
114 126 145
115 126 142
114 126 143
116 128 143
109 118 134
117 126 143
116 128 149
114 122 135
117 128 143
113 123 140
111 123 140
115 127 146
111 119 134
118 131 149
107 117 132
107 117 132
114 124 142
111 121 137
104 112 126
110 119 136
108 119 135
113 122 138
112 123 139
115 126 143
110 119 136
107 117 130
113 123 139
108 117 131
111 122 140
106 115 130
113 122 138
116 128 144
105 115 131
106 116 131
112 124 139
105 115 132
115 125 141
110 117 132
111 116 131
106 114 129
110 120 137
114 123 139
114 126 141
116 126 142
108 118 133
107 115 128
105 113 129
112 123 140
107 116 132
112 120 137
105 114 131
101 111 125
106 115 130
108 116 130
103 110 123
92 98 109
91 92 97
81 82 84
81 81 82
84 84 85
77 76 77
75 75 76
82 81 82
75 74 74
75 76 78
76 74 75
82 81 79
77 76 75
74 74 74
74 73 73
77 76 75
82 81 81
83 83 83
72 73 72
77 78 79
80 80 80
74 74 75
82 83 84
83 83 83
79 79 79
78 78 78
82 83 83
81 81 81
81 82 82
82 82 83
84 85 85
78 77 78
78 78 78
80 80 80
83 84 85
78 79 79
78 79 79
82 81 81
79 79 79
82 82 83
79 79 79
80 81 81
74 75 75
83 83 83
83 84 84
79 80 80
88 89 90
84 85 84
80 79 79
83 84 84
77 77 76
87 88 88
84 84 84
82 82 83
85 85 86
84 84 83
83 83 84
81 82 80
83 84 85
82 81 81
80 80 80
83 83 83
79 79 79
82 84 82
83 83 85
83 83 83
76 76 75
83 83 82
85 85 84
80 81 82
84 85 85
77 76 77
84 86 84
86 87 87
86 86 86
82 83 83
78 79 79
82 84 84
92 93 93
82 83 83
81 82 81
84 85 86
84 86 86
83 83 83
84 84 84
84 83 82
83 83 84
83 84 83
82 83 83
83 82 81
81 81 82
82 83 83
81 81 81
87 88 87
78 78 78
82 84 83
82 82 81
80 82 81
85 86 85
82 82 81
84 85 85
85 86 85
85 86 86
82 83 82
84 84 86
83 84 84
84 83 83
87 89 89
83 83 82
74 75 72
82 83 82
76 76 76
86 87 87
83 85 84
83 85 85
91 93 93
74 74 72
84 85 84
89 89 89
79 80 79
86 87 86
83 85 84
86 88 88
93 94 94
81 80 79
80 80 79
84 84 83
76 76 75
79 80 79
77 78 76
87 87 87
83 84 84
81 83 80
88 89 89
85 86 87
78 79 79
83 84 83
87 88 89
81 81 80
81 82 80
80 80 79
77 78 77
84 84 85
82 83 82
83 83 83
73 74 71
84 84 84
78 79 77
81 82 81
81 82 82
82 83 83
79 79 78
80 81 79
79 79 78
84 86 86
79 79 78
80 80 79
75 75 74
81 82 82
78 78 77
82 83 83
86 88 87
82 83 82
82 83 83
76 77 75
78 79 79
75 76 73
80 81 80
81 83 83
81 82 82
76 77 77
82 82 81
78 79 79
82 83 82
75 75 73
82 83 84
79 80 78
80 80 79
84 85 84
81 81 80
81 82 83
78 79 78
77 78 77
80 80 79
74 75 73
81 94 70
86 103 75
99 130 77
103 148 61
106 157 58
112 166 57
111 167 58
110 164 57
113 169 59
110 166 58
114 170 59
111 166 58
115 173 61
114 173 60
120 180 63
116 175 61
117 177 62
114 171 60
116 174 61
119 180 63
118 177 62
117 176 62
115 176 62
117 177 63
117 178 62
119 180 63
119 179 63
116 176 62
124 186 65
116 175 61
120 181 64
117 176 62
115 175 62
121 183 64
120 181 64
121 183 64
119 180 63
121 181 64
115 177 63
118 181 64
123 186 66
121 183 64
117 176 62
121 183 65
120 181 63
120 181 64
121 181 63
118 180 64
119 182 64
117 176 62
120 183 64
118 180 64
121 184 65
119 179 63
119 181 64
123 186 65
119 179 63
117 177 62
119 181 64
123 186 65
117 178 63
122 185 65
120 183 65
116 175 62
120 182 64
117 179 63
119 180 63
120 181 64
121 183 65
121 184 65
122 185 65
121 182 64
118 176 61
120 181 64
119 177 63
122 185 65
122 184 65
118 177 63
122 184 65
118 180 64
120 179 63
120 181 64
119 178 63
121 182 64
117 176 62
120 182 64
115 174 62
118 180 64
113 169 60
117 174 62
122 182 65
114 167 65
107 151 78
110 148 98
115 141 123
107 122 129
114 126 142
109 120 138
113 125 144
120 130 146
112 123 139
117 127 147
114 122 140
110 120 136
116 128 146
114 124 141
117 129 148
120 132 150
114 123 139
116 125 143
116 126 144
115 128 147
110 120 137
110 121 139
118 131 150
115 126 142
119 130 149
114 125 142
116 125 142
115 127 146
116 127 145
114 122 138
111 119 136
113 120 137
103 111 128
119 128 145
113 127 147
115 126 143
111 119 134
108 116 132
117 126 143
115 126 144
113 122 139
115 123 140
109 118 134
113 122 140
115 127 145
117 128 146
110 118 133
110 118 134
109 119 138
111 120 138
116 126 144
108 114 129
87 90 105
52 35 55
58 34 60
58 35 60
57 34 59
58 35 61
60 36 62
64 38 66
55 32 56
68 42 74
69 42 75
66 39 69
71 43 77
72 44 78
64 38 66
69 42 75
78 48 86
69 42 74
63 39 66
74 46 81
70 43 75
80 49 87
70 43 74
71 44 78
80 49 86
72 44 77
81 50 88
81 50 88
75 46 81
82 51 90
77 47 84
81 49 86
84 52 92
74 46 82
78 47 85
82 50 90
79 49 87
87 54 98
81 49 88
88 55 99
83 51 92
88 55 98
87 54 98
84 51 93
86 54 97
85 52 94
84 53 93
82 51 91
86 52 94
92 56 102
87 54 99
92 57 104
83 52 94
89 55 101
90 56 102
87 54 98
92 57 104
88 55 100
89 55 101
93 57 105
94 59 107
85 53 97
87 54 98
87 55 100
85 52 97
90 56 104
88 54 103
94 57 105
94 59 108
89 55 103
86 54 100
90 56 101
90 55 102
89 55 103
86 54 102
93 57 106
91 57 106
93 57 107
86 52 99
91 57 106
93 57 106
94 58 109
86 53 101
92 57 108
91 56 107
92 57 107
89 55 104
85 52 100
88 54 103
93 57 107
85 53 100
89 55 105
91 56 106
89 55 106
87 53 102
90 55 106
93 58 112
87 54 103
89 55 107
88 54 105
81 50 98
86 54 105
84 52 103
82 51 100
87 53 103
80 49 97
77 47 95
78 48 100
70 43 88
77 50 98
95 96 124
117 121 143
115 124 144
122 131 152
121 131 152
114 122 143
125 134 155
125 136 156
125 134 155
116 128 150
119 130 151
121 133 153
124 135 155
122 135 156
125 139 161
128 142 165
120 132 154
127 137 159
122 134 156
125 139 160
129 142 166
105 114 138
54 62 117
36 43 104
34 41 102
38 44 108
36 44 105
42 51 121
42 51 121
44 54 127
42 51 118
44 55 128
47 57 135
42 52 120
48 60 135
42 53 124
44 53 130
49 61 140
49 59 139
47 60 134
47 60 139
50 63 143
45 56 129
51 65 150
50 63 148
52 66 152
54 68 153
50 62 145
50 64 147
51 65 151
53 67 151
52 67 151
53 68 159
54 70 159
50 63 147
52 67 151
55 69 159
51 64 151
51 66 154
52 66 154
54 69 158
55 71 161
51 66 152
52 66 151
53 69 157
56 71 167
49 62 144
53 68 162
55 70 165
53 69 158
52 65 156
54 70 168
51 64 154
51 65 157
50 64 154
56 71 164
53 68 167
53 69 165
52 66 158
48 61 153
51 66 162
51 64 158
50 64 155
54 70 168
49 64 154
55 70 167
53 68 165
51 65 161
52 66 163
49 62 156
55 71 168
54 70 170
47 59 153
49 62 156
55 70 170
46 59 156
50 63 163
49 63 158
47 60 154
51 65 162
52 67 163
50 63 162
47 60 156
48 62 154
50 64 162
47 59 159
49 64 161
50 65 165
52 66 166
51 64 162
59 62 161
65 55 163
71 47 153
78 51 166
86 57 184
82 54 173
78 52 168
80 53 170
85 57 184
81 54 177
83 55 176
83 55 176
77 51 167
80 53 169
86 57 184
85 57 184
82 54 176
81 54 175
88 58 188
89 59 190
87 57 183
89 59 191
85 57 185
87 58 188
88 59 192
87 57 184
88 59 192
88 59 192
89 59 192
88 58 189
90 60 195
92 61 199
91 61 197
92 61 198
93 62 202
87 58 188
90 60 196
94 63 201
93 63 205
85 57 188
90 60 195
95 63 205
94 63 206
89 59 193
94 61 201
94 61 201
96 63 208
89 60 194
91 62 200
95 63 206
93 62 204
95 63 207
94 62 202
94 62 207
95 63 207
90 60 198
94 63 205
95 63 205
96 64 207
92 62 201
93 62 204
95 63 207
94 62 204
97 65 213
92 61 200
95 64 209
90 60 198
93 63 206
92 61 202
97 65 213
95 62 205
95 63 207
96 63 206
95 63 208
94 62 207
97 65 212
93 63 205
94 63 206
92 62 201
92 62 202
97 64 211
94 63 206
95 63 202
96 64 210
97 64 210
93 63 207
95 63 207
94 63 207
95 64 211
96 64 211
93 63 206
93 63 205
95 62 205
96 65 211
95 64 210
94 63 207
95 64 209
97 65 214
93 63 206
93 63 206
96 64 209
96 64 208
96 64 212
96 65 212
93 63 204
98 66 215
91 62 201
97 65 211
96 65 212
95 64 208
91 62 201
94 63 204
98 67 211
99 84 198
105 106 178
121 135 165
124 142 163
126 143 165
122 141 162
127 144 166
125 143 163
120 137 157
120 137 157
124 141 163
125 143 163
123 141 162
126 144 165
123 141 163
118 137 155
123 142 163
122 140 162
124 142 164
122 140 161
123 141 163
124 142 164
124 142 161
116 134 153
121 139 160
121 138 158
120 137 158
123 141 161
124 141 161
128 146 168
128 146 168
123 141 161
124 141 162
