P3
1600 1
255
79 85 101
75 80 97
63 64 84
84 88 105
70 72 88
80 85 100
59 60 76
82 86 103
76 82 97
83 87 104
75 78 94
79 85 101
85 91 108
79 85 102
85 91 107
80 84 102
82 88 103
79 81 98
71 75 91
72 77 94
80 86 102
92 100 118
91 100 117
81 89 107
92 99 117
90 98 117
83 89 107
86 92 111
92 99 116
97 106 126
98 106 126
83 92 109
95 105 124
99 107 126
91 99 117
92 100 120
95 106 124
96 106 125
106 117 138
100 110 131
105 116 136
97 108 127
101 112 132
101 114 136
104 114 136
99 111 131
108 119 140
104 116 137
110 123 144
105 117 138
113 126 149
106 118 140
110 123 144
115 128 148
110 123 146
113 125 149
117 132 153
111 124 147
116 130 153
110 123 145
119 134 156
117 132 155
117 132 153
120 133 156
118 131 156
112 127 150
121 136 159
122 139 161
111 124 147
112 126 148
97 115 148
51 74 145
28 58 144
29 59 146
30 60 147
29 60 148
28 57 140
29 60 149
29 60 150
30 61 148
30 61 152
29 59 145
29 60 147
27 56 139
30 61 152
28 58 146
29 60 149
30 61 150
30 60 149
31 62 152
30 60 150
31 62 154
30 62 153
30 61 150
31 62 153
30 62 154
30 61 151
30 61 152
31 62 154
30 60 149
30 61 152
29 59 148
32 64 159
30 60 149
30 60 151
27 55 140
30 60 150
30 59 148
31 61 153
30 60 150
31 62 153
30 61 154
29 59 149
30 60 150
29 59 147
29 58 144
30 61 153
31 62 154
30 60 151
31 62 154
30 59 147
31 62 156
30 60 151
30 61 152
30 61 152
29 58 145
30 61 152
31 63 155
30 60 150
30 61 151
30 60 148
28 57 141
28 56 139
30 60 148
29 58 145
30 61 150
32 64 158
30 60 149
29 58 144
29 58 146
30 60 150
31 63 155
30 60 148
30 60 149
30 60 149
29 57 143
26 52 131
30 61 152
28 56 141
29 59 146
29 58 144
29 58 144
29 58 144
30 59 147
28 57 142
29 59 144
29 57 142
30 59 147
29 59 146
28 56 138
29 57 141
29 58 145
28 55 137
29 57 142
28 57 141
30 58 140
29 58 145
29 58 143
28 57 142
29 58 141
28 57 141
28 54 134
29 57 139
28 56 138
29 58 143
27 54 132
28 55 132
28 54 135
28 55 136
84 101 148
128 146 172
131 149 173
131 148 172
131 149 174
131 150 175
134 152 174
130 148 173
128 146 169
131 150 174
131 148 173
133 152 176
130 149 171
132 151 176
131 148 173
131 148 172
132 151 174
130 150 173
131 151 172
133 152 177
130 148 173
132 151 174
129 146 170
133 151 175
132 152 174
129 147 172
133 152 176
131 149 173
127 145 167
128 146 171
134 152 177
130 148 172
131 147 170
133 151 176
133 150 173
129 147 170
129 148 171
133 151 174
131 150 174
132 149 172
127 146 168
135 154 177
131 149 173
132 151 176
133 151 175
133 152 176
131 151 174
131 151 174
131 148 173
131 149 173
130 149 171
131 150 172
133 151 173
132 150 175
132 151 175
131 150 174
133 151 176
128 146 169
133 152 176
130 147 170
130 148 171
131 150 172
133 151 173
131 150 173
135 154 175
130 148 172
131 150 173
128 147 168
128 147 170
129 148 171
131 149 172
133 152 175
133 151 175
129 147 169
132 150 176
129 148 172
129 148 168
130 148 170
126 144 168
131 150 173
133 152 176
129 147 169
131 150 173
129 148 171
126 144 166
131 151 173
131 149 173
130 148 170
134 153 176
130 148 170
129 147 169
129 147 170
133 151 174
129 147 168
128 146 168
129 146 168
131 149 173
132 151 171
125 142 162
128 147 165
132 150 174
132 151 173
133 152 173
131 149 172
128 146 167
130 149 170
132 151 174
128 147 167
127 146 168
128 146 166
128 147 169
130 150 169
132 151 173
127 145 168
126 145 166
129 146 169
130 149 170
128 147 166
127 146 167
129 149 170
126 146 165
127 144 165
129 147 169
128 147 168
130 149 171
132 150 173
129 146 168
128 147 167
127 146 164
125 144 163
129 148 168
121 140 154
127 146 165
130 148 169
129 150 171
129 149 169
133 153 172
124 142 160
125 144 160
127 146 168
123 143 158
125 147 160
127 146 166
124 142 159
123 142 157
124 144 160
130 150 171
121 141 156
109 123 136
91 95 100
74 61 48
67 47 20
66 47 20
70 49 21
65 46 19
69 48 20
64 46 19
65 46 19
69 49 21
69 49 20
67 47 20
67 47 20
66 46 20
68 48 20
66 47 20
68 48 20
66 47 20
69 48 20
66 47 20
69 48 20
67 47 20
71 49 21
65 46 19
69 48 20
65 46 19
67 48 20
68 48 20
67 47 20
65 46 20
68 48 20
69 49 21
69 49 21
64 45 19
68 48 20
69 48 20
67 47 20
66 46 20
68 48 20
69 48 20
67 47 20
67 47 20
67 47 19
66 47 20
69 48 20
67 47 20
70 49 21
69 48 20
69 48 20
68 48 20
67 47 20
69 48 20
67 47 20
68 48 20
67 47 20
68 48 20
67 47 20
68 48 20
67 47 20
69 49 20
68 48 20
68 48 20
68 48 20
68 47 20
66 47 20
69 48 20
67 47 20
69 48 20
65 46 19
68 48 20
67 47 19
67 47 20
66 46 19
67 47 19
68 48 20
66 46 20
63 44 18
65 46 19
66 47 20
66 47 19
64 46 19
65 46 19
63 44 18
66 46 19
61 43 18
65 46 19
67 47 20
65 46 19
66 46 19
64 45 19
65 45 19
64 45 19
67 47 20
65 45 19
68 48 20
65 45 19
67 47 19
63 44 18
66 47 19
62 43 18
59 42 17
62 43 18
63 45 18
63 45 19
63 44 18
64 45 19
62 44 18
62 44 18
63 45 19
63 44 18
59 41 17
64 42 20
93 42 31
111 41 39
118 42 42
115 41 42
114 41 40
113 40 41
118 42 42
113 40 41
106 39 38
113 111 116
109 128 135
109 127 136
108 129 132
113 131 140
113 131 138
112 128 138
107 124 130
114 132 145
112 128 138
114 130 144
113 134 144
114 133 142
116 132 144
114 131 144
122 141 160
116 132 143
117 135 149
115 135 144
121 139 157
118 132 145
118 134 149
118 136 148
114 128 141
125 141 154
118 136 149
127 143 160
118 136 150
119 138 149
122 138 156
122 141 155
124 140 160
122 143 154
122 142 155
125 144 156
121 140 154
120 139 151
122 138 154
125 144 159
123 141 157
123 141 156
124 142 157
121 141 154
119 137 152
125 142 158
124 144 162
131 151 169
124 141 157
128 145 163
122 139 156
126 145 162
120 136 150
128 146 163
123 140 156
125 144 159
130 149 169
128 145 163
123 137 154
125 145 161
127 145 165
130 150 171
128 146 164
125 141 161
130 148 166
130 148 169
131 148 168
123 139 159
131 149 169
126 144 164
131 150 171
127 144 167
128 145 165
129 145 167
127 145 165
130 148 169
132 149 169
130 146 168
126 145 165
128 146 166
128 143 162
130 148 170
130 147 168
135 152 174
130 148 171
128 146 166
132 149 171
131 149 170
128 145 166
130 145 168
128 144 166
131 147 170
131 148 168
130 145 167
127 143 163
127 144 165
131 147 167
131 148 168
129 147 167
128 142 161
134 150 173
130 148 168
128 145 166
131 149 170
128 145 165
128 147 166
128 145 168
132 147 167
129 145 165
132 148 170
129 145 166
133 148 169
129 146 170
130 146 168
130 146 167
132 147 169
134 151 174
127 143 166
131 147 169
128 145 165
131 147 170
134 151 174
130 146 168
131 147 169
130 147 170
128 144 166
130 147 169
130 148 170
131 148 171
134 152 176
127 142 163
129 146 166
127 144 167
129 145 167
131 147 170
127 144 166
128 142 164
131 150 171
129 146 169
128 144 166
130 148 171
129 146 169
128 144 166
129 144 165
129 145 168
131 147 168
131 149 172
128 146 170
130 147 170
128 145 168
133 151 173
132 149 172
131 148 170
128 144 166
128 144 166
131 149 171
128 144 166
130 147 170
126 141 163
129 146 169
132 149 172
129 145 167
129 146 168
129 147 169
131 149 172
131 148 170
127 144 165
128 144 166
127 144 169
127 143 165
128 146 169
129 145 166
130 145 166
131 146 168
130 147 170
129 144 167
126 142 163
128 145 166
129 144 165
129 144 164
128 144 166
127 143 166
126 143 166
129 146 168
131 148 169
125 142 164
129 146 169
130 146 169
130 146 167
126 143 166
129 146 170
130 147 169
128 145 167
128 145 168
130 147 170
123 139 162
124 139 159
125 141 162
127 142 164
124 139 159
127 145 168
124 144 162
123 156 155
130 169 157
137 185 161
142 202 162
154 218 173
160 227 181
161 229 183
161 228 184
160 227 184
158 226 184
157 226 184
156 225 184
155 224 184
154 224 184
154 223 184
153 222 184
152 222 184
151 221 184
150 221 184
150 220 184
149 220 184
148 219 184
147 219 184
147 218 184
146 218 184
146 218 184
145 217 184
145 217 184
144 217 184
144 216 184
143 216 184
143 216 184
143 215 184
142 215 184
142 215 184
141 215 184
141 215 184
141 215 184
141 214 184
140 214 184
140 214 184
140 214 184
140 214 184
140 214 184
140 213 184
139 213 184
139 213 184
139 213 184
139 213 184
139 213 184
139 213 184
139 213 184
139 213 184
139 213 184
139 213 184
139 213 184
139 213 184
140 213 184
140 214 184
140 214 184
140 214 184
140 214 184
140 214 184
141 214 184
141 214 184
141 215 184
141 215 184
142 215 184
142 215 184
143 215 184
143 216 184
143 216 184
143 215 183
143 214 182
142 212 179
141 209 176
139 205 172
138 202 168
131 187 151
132 188 151
128 179 141
129 177 137
130 176 134
130 174 131
130 172 129
131 172 127
123 162 120
122 158 116
111 145 108
93 125 93
93 125 91
87 120 84
76 107 79
75 110 76
74 106 74
76 110 77
72 101 75
75 101 77
76 93 74
74 88 74
82 100 88
70 84 89
56 74 89
26 20 82
20 13 74
20 13 73
21 14 78
21 14 78
19 13 71
19 12 70
19 13 73
88 97 119
118 131 149
121 135 155
120 135 155
119 133 152
118 130 148
122 134 152
121 133 153
118 133 153
118 131 150
123 138 159
118 131 149
125 140 159
117 131 151
117 130 149
118 133 152
119 130 148
122 134 155
122 133 151
122 137 157
117 129 149
123 137 155
125 138 158
121 135 155
117 130 150
118 132 151
121 134 153
127 141 160
121 135 156
118 129 146
119 133 153
119 132 150
120 132 151
122 137 156
119 130 149
117 131 150
118 132 152
119 133 151
116 130 149
123 138 158
118 131 149
117 130 150
116 128 147
126 139 158
120 134 154
120 133 152
114 125 141
123 138 157
117 131 149
115 128 144
123 137 157
121 135 155
120 133 152
119 132 150
118 130 148
117 129 147
117 129 146
116 127 145
119 131 150
117 128 146
114 124 138
118 130 148
118 129 146
118 130 148
116 127 143
116 128 147
118 130 149
118 132 151
114 125 143
120 131 149
121 133 151
120 133 150
118 129 148
121 129 145
117 129 146
118 131 150
115 126 141
112 123 140
114 126 144
111 123 140
118 131 149
120 131 149
123 134 153
121 132 149
114 124 139
116 127 142
110 121 137
115 127 145
117 127 144
115 125 140
110 121 135
115 127 143
117 129 147
112 120 135
115 127 143
118 130 147
117 127 143
114 124 139
110 121 138
106 115 130
116 127 143
117 128 143
115 126 145
110 122 139
109 120 137
108 118 132
112 122 138
116 125 140
110 120 137
117 128 144
113 123 140
116 126 142
116 128 147
116 126 141
107 116 132
115 125 139
111 120 138
110 120 135
112 122 139
118 128 145
111 122 137
108 118 134
112 121 136
110 120 133
114 123 138
117 128 144
105 115 129
113 125 141
104 111 127
107 114 129
107 115 131
106 115 131
110 119 135
112 119 134
109 119 135
110 121 137
108 116 130
102 107 120
103 110 125
113 121 136
110 118 133
107 113 128
113 123 138
102 108 122
106 114 129
102 108 121
104 116 133
100 107 120
88 91 98
79 79 83
77 76 75
82 82 83
71 71 71
79 79 79
83 82 83
78 78 80
76 76 74
79 79 79
81 81 81
71 70 71
78 78 79
78 77 76
72 71 71
78 77 77
74 75 73
83 83 82
83 83 84
79 80 80
77 76 77
79 80 79
78 77 76
81 80 80
76 76 77
77 77 75
75 75 75
80 80 81
77 77 77
78 79 80
79 79 78
82 83 84
79 79 79
76 76 76
78 78 80
79 79 77
77 78 77
78 78 77
78 77 75
78 77 78
83 82 81
77 77 79
79 78 78
78 78 76
81 82 81
84 84 84
77 77 76
76 75 75
77 77 76
77 77 77
84 85 85
75 75 75
86 87 87
75 74 74
79 79 79
77 78 77
81 80 80
76 76 76
83 84 86
81 80 79
79 79 80
85 85 84
87 88 88
79 79 81
86 86 86
85 84 84
83 84 83
79 78 78
83 84 83
80 82 80
84 85 85
87 86 86
84 86 86
81 82 82
75 76 74
78 78 77
85 86 87
81 80 80
84 84 85
80 80 79
76 74 72
83 83 81
78 79 78
84 85 85
87 88 88
77 78 77
82 82 82
89 91 90
84 85 84
80 82 81
84 84 85
82 82 82
81 82 80
77 77 77
83 83 83
86 87 86
84 85 84
74 73 72
83 83 82
83 84 84
81 82 83
79 81 81
80 81 80
85 85 85
83 85 84
79 80 79
76 78 75
85 87 86
77 77 75
82 83 84
76 77 76
79 78 77
87 88 89
81 82 81
82 82 80
82 83 81
75 76 74
83 83 83
80 80 80
81 81 82
79 80 80
81 81 82
84 85 85
82 84 83
79 81 80
78 79 78
84 86 86
82 82 82
86 86 86
76 78 78
81 84 82
82 83 81
81 82 81
79 79 77
78 77 76
83 84 84
79 79 80
80 81 79
72 71 69
86 86 86
73 72 70
78 78 78
77 77 76
80 83 82
84 86 83
85 86 85
73 75 74
75 75 73
74 76 74
79 79 79
80 81 80
78 78 77
78 79 76
89 90 90
77 77 75
81 82 80
79 79 77
82 83 83
75 75 76
80 82 80
79 79 79
85 86 85
83 84 84
80 81 80
80 79 79
78 80 79
80 81 82
78 79 78
80 82 81
76 76 73
77 77 77
75 76 74
81 83 83
82 83 83
78 78 78
80 80 79
77 76 76
70 69 68
78 79 79
76 81 75
81 97 71
89 120 65
96 139 59
101 149 59
109 164 57
109 164 57
114 169 59
113 170 59
112 168 59
111 166 58
115 173 60
112 169 60
114 171 59
117 177 62
117 174 61
112 168 59
114 170 59
116 174 61
115 173 61
117 177 62
117 177 62
116 174 61
120 180 64
115 173 61
121 183 65
120 181 64
117 176 62
120 181 64
117 178 62
118 178 63
118 179 63
117 175 62
119 179 63
122 184 65
117 178 63
115 173 60
121 183 65
117 177 62
120 181 63
118 177 62
121 182 64
118 178 63
121 183 64
119 179 63
119 180 63
118 177 62
120 182 64
119 180 63
120 183 64
120 183 65
120 180 64
118 179 63
119 179 63
120 181 64
118 180 64
119 180 63
120 183 64
120 182 64
122 185 65
120 183 65
123 185 65
120 181 64
121 184 65
120 181 64
119 181 64
120 182 64
121 183 64
119 179 63
121 182 64
116 175 62
122 185 65
115 176 62
118 179 63
122 185 65
116 175 62
119 176 62
119 179 63
120 180 64
118 176 62
117 177 63
116 176 62
120 181 64
118 178 63
119 179 63
118 178 62
118 178 63
119 179 63
118 179 63
117 176 62
121 183 64
119 178 63
121 182 64
117 176 62
117 177 62
114 163 81
113 154 93
118 150 121
111 136 125
111 126 131
114 125 143
111 120 135
114 123 139
118 128 146
110 120 135
113 122 137
112 123 141
115 125 142
111 121 136
112 123 140
112 122 139
122 132 148
115 125 141
120 132 149
114 126 145
111 121 139
113 125 142
113 121 138
117 130 148
113 124 141
114 124 141
115 124 140
113 122 139
113 125 144
118 127 145
114 125 143
113 122 139
113 122 140
120 131 149
106 116 133
114 122 138
113 122 139
113 124 142
111 120 137
114 124 142
114 125 143
108 117 134
117 128 147
115 126 145
117 128 146
112 123 140
117 128 146
108 117 135
114 125 144
117 128 147
112 123 143
99 106 124
59 49 67
57 34 59
50 30 50
64 39 68
55 33 58
54 32 57
60 36 65
57 35 59
64 39 68
58 36 62
62 38 65
62 38 65
68 41 72
62 38 65
70 43 73
68 40 72
66 40 71
68 41 74
75 46 82
75 46 81
73 45 80
77 48 84
71 42 76
81 49 87
73 44 79
82 51 91
78 47 84
79 48 87
76 47 83
84 52 91
78 48 87
78 48 86
82 50 90
87 54 97
78 48 86
84 51 92
80 49 87
86 52 96
83 52 94
88 54 99
81 49 88
81 50 90
89 55 98
91 56 102
87 54 96
82 51 90
83 51 92
86 52 96
89 55 100
87 53 97
83 51 92
91 57 103
88 54 100
89 55 102
90 55 102
88 55 100
86 53 98
87 54 100
86 53 98
91 56 105
83 52 94
86 54 98
90 55 101
91 56 104
88 55 101
86 53 99
88 55 103
84 51 96
93 57 107
90 55 103
88 55 103
90 55 102
93 57 107
81 50 92
94 58 107
84 52 98
92 56 107
90 55 102
91 56 105
90 55 104
89 55 105
93 57 106
91 57 106
82 50 96
88 55 103
82 51 100
94 58 108
91 56 108
91 56 106
84 51 97
85 52 101
85 53 104
90 56 108
88 54 103
84 52 100
87 53 102
87 53 101
84 52 101
80 49 95
84 52 102
83 51 100
81 50 98
84 51 99
79 49 94
78 47 98
81 50 100
81 50 99
74 46 93
84 63 106
100 105 128
122 132 152
120 129 149
122 134 154
123 136 158
124 136 157
126 137 158
123 136 157
123 133 153
124 134 155
120 132 154
122 135 157
125 139 161
121 133 154
126 139 160
124 136 157
119 133 153
123 135 157
121 130 149
126 140 162
124 137 161
123 137 159
90 99 128
40 47 111
36 41 105
38 46 110
41 49 117
34 42 106
37 45 107
41 50 118
42 52 123
43 54 125
47 59 137
41 48 118
43 53 124
41 51 120
45 55 128
49 62 141
44 55 128
45 58 133
48 61 141
51 65 149
50 63 147
49 62 143
51 65 147
51 65 149
52 65 148
50 64 147
50 64 147
50 63 143
52 65 149
52 67 152
54 70 157
53 68 157
48 59 139
53 67 151
50 64 148
52 68 153
51 65 150
48 60 144
50 64 146
56 72 165
48 63 144
51 65 153
51 66 156
49 64 146
49 63 146
55 71 165
51 67 158
52 66 159
51 66 154
54 69 159
50 65 149
50 63 154
52 66 162
53 69 161
51 64 160
51 64 155
53 68 163
54 69 168
51 65 156
51 66 160
51 64 156
52 67 163
50 64 155
53 68 163
54 69 166
50 63 156
51 65 161
49 62 151
53 67 162
44 55 151
49 62 156
47 60 156
49 61 157
48 60 157
45 57 148
48 61 156
51 66 163
49 63 158
53 68 166
48 62 161
45 57 155
47 60 158
47 59 158
49 62 157
47 60 157
47 59 158
48 60 153
53 60 163
62 59 163
72 52 159
76 50 161
74 49 160
77 52 166
77 51 163
80 52 173
82 55 175
84 56 182
85 56 181
81 53 170
84 56 184
80 52 171
84 56 181
83 55 181
86 58 185
87 58 187
84 55 182
82 54 177
86 56 184
90 60 196
85 57 188
81 55 177
89 59 192
88 58 190
88 58 189
86 56 184
89 59 195
89 59 194
85 57 184
90 59 194
90 60 193
89 58 194
91 61 200
87 58 187
91 60 195
90 60 197
94 63 203
89 60 194
93 61 199
95 63 206
89 59 191
92 61 200
94 63 202
90 60 197
88 58 190
92 62 202
95 63 204
92 62 202
95 63 207
93 61 202
93 62 204
93 62 203
91 61 201
95 64 211
95 63 206
93 62 202
94 63 207
93 62 204
93 62 203
93 62 206
91 60 200
95 63 208
92 61 199
92 60 197
93 62 202
96 64 209
93 63 204
92 62 203
94 63 206
95 63 205
93 62 204
97 66 215
97 64 210
98 65 214
95 63 208
92 62 203
97 64 212
95 63 209
96 64 208
95 63 208
93 62 202
95 63 205
97 64 211
99 66 214
99 66 216
96 63 208
97 65 212
93 62 206
95 64 209
94 63 206
95 64 208
98 65 213
92 62 204
96 63 205
96 63 207
96 64 210
93 62 204
93 62 204
93 63 205
95 64 208
92 61 200
93 63 202
97 65 215
94 63 204
95 64 207
95 64 207
96 64 210
90 61 200
93 62 204
92 62 202
94 63 205
91 61 200
91 64 198
103 88 198
117 122 188
123 137 170
121 138 158
128 147 169
129 147 170
128 146 170
125 142 163
123 141 161
125 143 165
129 147 170
122 139 162
128 145 168
123 141 163
130 148 171
122 138 158
125 142 163
127 145 168
126 144 166
125 143 165
126 144 165
126 143 164
125 143 165
121 138 157
126 144 165
122 140 160
128 145 169
125 142 164
129 148 170
124 141 161
125 142 162
125 143 164
