P3
1600 1
255
126 143 167
123 139 164
120 137 160
122 138 163
117 131 155
126 143 168
119 135 158
120 134 158
123 140 163
123 139 162
126 143 165
120 136 160
122 140 163
120 136 160
122 138 163
120 135 158
125 141 164
125 142 165
123 139 162
122 140 164
121 137 161
124 140 164
123 138 162
121 137 160
120 135 158
125 142 166
125 143 169
125 141 165
125 143 166
124 139 162
126 143 166
123 140 163
126 143 168
124 142 166
119 136 159
122 138 160
124 139 163
128 146 170
120 136 158
127 143 166
123 139 164
126 143 166
128 147 170
122 140 163
128 145 170
125 142 166
127 143 167
126 142 167
129 147 171
125 142 166
127 143 166
123 139 160
126 144 168
124 140 164
126 143 167
123 139 162
122 139 164
130 147 170
125 142 166
131 149 174
124 141 164
130 147 171
130 148 174
127 144 169
124 141 165
125 142 166
128 146 171
125 143 168
128 146 170
125 141 165
128 146 169
129 147 171
128 145 170
124 140 164
109 127 163
46 68 137
25 51 128
27 55 137
28 57 141
28 57 141
27 56 140
27 56 140
25 54 133
28 58 143
27 55 138
27 55 139
29 59 146
28 56 140
28 58 143
28 57 143
26 54 136
28 58 143
28 56 141
28 57 144
26 54 135
29 58 146
28 57 143
29 59 145
28 58 145
28 56 139
29 58 145
28 57 141
29 58 144
30 61 151
29 58 145
29 58 145
27 55 137
28 57 142
27 54 135
28 56 141
29 58 144
28 58 143
26 52 132
28 57 145
28 57 140
28 56 140
29 58 145
29 59 146
28 57 143
28 57 142
28 57 142
27 55 137
28 58 143
28 56 141
27 55 138
27 56 140
29 59 148
28 56 142
27 54 137
29 59 146
29 59 146
29 58 143
30 60 149
29 59 146
28 56 141
28 55 138
29 59 144
30 60 150
27 55 137
28 55 139
28 56 140
27 54 135
28 55 139
27 55 138
28 55 138
28 57 143
26 53 131
27 53 132
26 52 129
28 56 139
28 55 138
29 57 141
27 55 136
26 52 130
25 50 125
25 50 127
26 53 132
27 55 137
27 54 134
26 53 133
27 53 133
27 54 134
27 54 133
26 52 130
28 55 137
26 52 131
26 52 130
26 51 127
26 52 126
28 55 134
26 51 125
25 49 123
27 53 131
28 55 136
39 60 128
102 120 158
133 151 175
128 146 169
130 149 171
128 147 171
132 150 174
126 144 168
127 144 168
134 152 177
130 148 173
134 152 174
131 148 171
126 142 166
125 143 166
129 147 170
129 146 170
132 149 173
129 147 168
135 153 178
128 147 169
131 150 171
130 149 173
130 147 171
131 149 172
132 150 173
128 146 170
130 148 173
131 149 173
129 147 172
131 149 173
132 151 174
134 153 176
132 150 175
133 152 175
130 148 172
130 147 170
128 146 170
131 149 174
130 147 170
130 148 172
132 150 174
130 147 172
132 149 174
130 147 171
129 148 170
129 146 171
129 148 172
131 150 174
129 148 171
131 149 175
133 150 174
132 150 173
131 149 173
130 148 171
131 150 174
130 148 172
131 149 173
132 151 174
129 147 168
131 149 172
132 150 175
134 151 175
128 146 168
130 147 171
129 148 172
127 147 168
130 147 170
124 143 166
128 146 170
124 142 165
131 149 173
132 149 171
130 149 174
128 147 169
131 149 173
130 148 172
130 149 170
127 146 171
129 147 168
130 149 174
129 148 172
128 146 169
127 145 167
128 146 169
129 147 170
131 149 172
127 146 167
127 145 168
129 146 169
129 146 168
128 146 167
128 146 171
129 147 169
130 147 170
126 144 166
133 151 174
130 149 171
129 148 172
129 148 169
133 149 173
131 149 173
128 147 169
124 141 165
128 146 169
132 148 170
130 147 169
131 149 169
129 147 171
130 149 172
123 139 160
128 147 169
128 148 170
129 147 169
131 148 169
125 143 162
125 145 164
129 145 168
130 149 173
129 146 166
127 144 164
129 146 168
127 146 166
127 145 166
132 152 175
128 143 165
123 141 161
128 145 167
127 146 167
130 146 169
126 140 160
126 144 166
129 146 168
128 145 169
128 145 167
126 145 165
130 146 170
124 142 163
124 139 159
129 147 169
127 143 165
123 139 158
129 143 166
128 144 166
132 150 171
128 146 165
125 142 162
129 145 165
124 143 161
124 142 162
126 143 164
112 127 141
98 104 113
81 78 81
62 43 18
65 45 19
60 42 18
63 44 19
66 47 20
65 46 19
66 46 19
64 45 19
65 46 19
65 46 19
62 44 19
65 46 19
66 46 19
66 46 19
65 46 19
65 46 19
64 45 19
65 46 19
64 45 19
65 46 19
65 46 19
63 44 18
65 46 20
66 46 19
65 46 19
65 46 19
66 46 20
66 46 19
68 48 20
67 47 20
66 46 19
66 46 19
65 45 19
63 44 18
65 46 19
68 47 20
66 46 19
65 46 19
65 46 19
65 46 19
65 45 19
64 45 19
66 46 19
64 45 19
67 47 20
66 46 19
66 46 19
63 44 18
66 46 19
66 46 19
66 46 19
67 47 20
64 44 18
67 47 20
66 46 19
65 46 19
66 46 19
66 46 19
66 46 19
65 46 19
65 46 19
67 47 19
62 44 18
62 43 18
65 45 19
66 46 19
65 45 19
63 44 19
65 46 19
66 46 19
65 45 19
63 45 19
66 47 20
64 45 19
63 44 18
64 45 19
63 44 18
64 45 19
62 44 18
65 45 19
63 44 19
61 43 18
65 46 19
65 46 19
65 45 19
65 46 19
65 45 19
61 43 18
64 45 19
65 45 19
62 43 18
63 44 19
62 43 18
60 43 18
63 43 18
64 44 18
62 44 18
61 43 18
63 44 18
63 44 18
65 46 19
62 44 18
59 41 17
61 43 18
62 44 18
61 43 18
63 44 18
58 41 17
58 40 17
56 39 16
60 42 18
60 43 18
54 38 16
81 76 79
105 113 123
120 136 154
118 129 149
122 135 151
123 136 156
121 138 154
123 141 159
119 137 151
120 134 153
122 136 154
119 134 149
123 139 157
123 138 157
123 137 154
124 137 155
122 138 158
119 132 149
122 135 155
122 136 154
122 137 154
127 143 162
120 134 154
123 139 158
124 138 156
126 141 160
123 138 153
126 142 161
127 145 166
122 137 155
122 133 151
122 134 149
126 142 160
122 137 155
123 137 151
124 139 158
124 135 154
124 141 161
127 142 164
123 136 154
125 142 162
123 140 159
130 148 169
126 141 157
125 141 161
125 140 161
130 146 167
126 140 162
127 144 163
126 139 158
127 141 161
130 144 165
127 144 165
124 139 160
129 147 168
129 144 165
126 141 163
126 143 164
126 143 161
128 144 165
127 143 163
126 141 162
128 145 167
126 143 163
128 145 167
126 143 164
127 144 162
124 140 159
126 140 160
125 139 159
127 145 164
127 144 167
125 140 158
129 145 166
129 144 163
127 143 166
129 147 168
125 142 163
132 148 169
127 143 165
128 144 165
125 139 157
130 148 170
130 148 169
130 148 170
131 147 169
127 142 162
128 144 163
124 138 159
129 144 165
130 147 169
127 142 163
129 145 168
128 146 169
128 146 167
130 147 170
128 146 167
129 146 165
129 146 167
128 145 165
127 143 165
128 144 165
129 146 166
127 142 164
127 140 161
132 148 171
127 143 163
128 143 165
131 149 170
128 145 164
129 147 168
130 146 168
127 145 165
130 149 170
131 148 171
128 146 167
127 142 165
129 147 171
124 139 160
129 146 168
129 145 165
129 145 169
128 146 169
129 146 167
131 148 170
132 148 171
125 139 160
130 147 168
126 144 164
126 142 162
126 143 164
121 135 157
129 145 168
128 145 167
128 145 167
132 149 173
126 144 165
131 147 168
132 149 171
125 142 164
127 144 168
129 146 168
131 147 169
127 143 163
130 147 171
128 144 167
129 144 166
127 143 167
127 145 166
127 144 164
126 142 163
128 145 169
130 148 171
128 146 169
128 143 167
133 149 171
129 145 166
127 144 166
124 139 160
127 143 166
125 143 166
130 147 169
130 146 169
129 147 169
129 146 168
127 144 167
129 145 168
124 140 162
120 136 158
131 148 171
125 142 165
130 146 169
131 148 171
127 144 166
127 143 164
129 144 167
125 141 163
128 145 168
126 141 163
129 146 169
126 144 167
124 141 164
126 142 164
124 140 162
128 143 165
126 143 166
129 147 171
122 137 161
130 146 168
129 146 170
124 140 159
127 143 165
122 137 159
124 140 162
123 138 160
123 138 161
121 137 159
128 145 168
123 139 162
126 143 166
129 146 169
128 144 167
122 138 160
121 140 154
119 148 152
118 160 142
118 160 127
131 178 132
138 190 141
151 199 156
156 212 168
162 224 180
163 229 184
162 229 184
161 228 184
160 228 184
160 227 184
158 226 184
158 226 184
157 226 184
157 225 184
156 225 184
155 224 184
155 224 184
154 224 184
154 223 184
153 223 184
153 222 184
152 222 184
152 222 184
151 221 184
151 221 184
150 221 184
151 221 184
150 220 184
149 220 184
149 220 184
149 220 184
148 219 184
148 219 184
148 219 184
147 219 184
147 219 184
147 219 184
147 218 184
146 218 184
146 218 184
146 218 184
146 218 184
146 218 184
146 218 184
146 218 184
145 217 184
145 217 184
145 217 184
145 217 184
145 217 184
145 217 184
145 217 184
145 217 184
145 217 184
145 217 184
145 217 184
145 217 184
145 217 184
145 217 184
146 217 184
146 218 184
145 217 184
146 218 184
146 218 184
146 218 184
146 218 184
146 218 184
147 218 184
147 219 184
147 219 184
147 218 184
148 219 184
148 219 184
148 219 184
148 219 184
149 220 184
149 220 184
149 220 184
150 220 184
150 221 184
151 221 184
151 221 184
152 222 184
151 221 184
151 219 181
150 216 178
147 211 172
146 207 167
144 201 160
141 195 153
135 184 142
124 166 124
119 158 118
110 145 108
95 125 91
86 118 86
83 111 83
75 103 76
80 108 82
76 102 75
78 105 79
76 104 77
72 98 73
76 102 77
73 99 75
70 91 68
71 91 69
87 104 97
93 105 106
105 118 127
108 123 137
120 133 152
115 128 147
115 128 148
109 120 139
122 138 159
117 129 149
118 131 151
119 134 154
114 127 147
115 130 151
114 126 144
116 129 148
114 127 147
115 129 147
113 125 144
112 124 144
113 126 146
111 123 141
114 127 146
115 127 147
114 127 145
117 130 150
119 133 152
119 133 153
117 132 151
115 126 143
116 129 147
118 131 148
113 123 141
113 126 143
117 130 149
114 126 143
121 135 154
115 127 145
116 127 143
112 124 140
118 130 149
115 127 144
113 126 143
114 127 145
121 135 154
117 130 148
111 122 139
113 125 143
115 125 142
114 125 142
116 129 148
115 128 146
117 128 146
115 127 144
110 122 139
114 125 143
115 125 142
115 128 146
114 127 145
115 126 143
112 123 137
116 130 148
115 125 142
110 122 139
109 119 134
117 129 146
112 122 138
115 128 144
112 124 139
114 125 142
112 122 137
110 121 139
112 123 138
112 123 139
116 129 147
116 129 147
111 123 139
108 120 135
109 117 130
113 124 140
115 126 142
112 124 138
112 123 139
111 121 137
115 127 143
109 119 135
117 129 146
111 121 136
117 130 149
113 125 141
113 123 136
118 130 149
106 117 133
111 123 140
110 121 137
106 117 133
112 122 137
109 119 135
106 117 129
111 123 140
112 121 136
110 123 139
104 114 127
111 123 139
110 120 134
104 114 130
108 117 132
111 120 136
107 115 129
112 123 138
113 124 139
109 120 135
102 109 124
117 128 144
108 115 130
109 118 130
109 117 132
108 118 132
110 120 134
111 121 136
105 113 126
111 121 137
105 114 127
99 107 119
110 119 134
107 116 131
103 112 126
105 114 129
98 106 118
102 112 127
105 115 130
107 115 129
103 113 127
98 104 114
108 114 128
109 119 134
102 110 124
98 104 115
106 116 130
105 113 126
105 113 125
106 114 127
99 109 120
100 108 119
102 112 125
103 111 124
105 114 126
104 114 128
94 101 115
99 107 120
106 114 128
98 107 121
103 110 124
104 112 124
102 111 124
95 101 113
98 104 116
105 115 127
101 107 119
97 104 114
101 107 119
94 100 109
106 113 125
99 108 119
99 108 121
93 99 109
100 107 121
92 99 110
89 94 105
99 108 120
93 100 110
92 99 111
104 113 124
87 92 101
99 105 116
81 85 93
70 70 72
66 66 66
74 73 73
69 67 66
71 70 70
67 66 66
65 64 63
71 71 70
71 69 69
67 67 65
73 73 72
70 70 69
70 69 68
66 65 65
77 76 76
66 64 63
71 71 68
72 70 70
67 66 67
72 71 69
67 65 63
70 69 68
70 69 69
73 73 73
71 69 68
73 71 69
70 69 69
70 68 66
70 71 70
68 67 67
71 71 70
75 75 75
64 64 63
77 77 76
71 72 69
67 67 66
67 66 65
81 81 81
73 72 71
68 68 69
80 80 78
74 72 71
71 71 69
67 66 65
66 66 65
82 83 82
79 78 77
76 77 75
76 75 74
72 71 71
82 81 81
78 77 76
74 73 72
75 75 74
80 80 80
75 74 73
74 75 72
69 68 67
71 71 70
77 77 77
79 78 77
74 75 73
72 70 69
72 72 72
73 72 71
71 70 68
77 77 77
74 74 74
75 75 74
66 67 64
76 75 74
73 74 71
76 75 74
80 79 78
72 72 71
69 69 68
84 85 85
78 78 78
76 75 73
80 80 80
75 75 75
84 84 83
74 73 73
70 69 67
72 71 70
70 69 69
82 82 82
80 81 77
80 81 80
78 76 77
75 74 73
70 70 69
74 73 73
74 74 71
69 69 68
78 77 76
74 74 73
81 81 79
79 78 77
60 60 54
73 73 72
78 78 77
78 78 78
79 78 76
74 74 73
73 72 71
74 72 71
76 76 76
74 73 72
75 74 72
71 71 69
71 71 69
77 77 76
73 72 71
77 77 75
66 66 65
76 76 76
77 77 75
73 71 71
75 75 75
77 77 75
68 68 67
72 72 69
80 79 79
77 77 74
76 75 75
72 72 70
70 70 67
69 68 68
78 78 78
70 69 69
74 74 72
70 70 71
73 72 71
76 75 74
74 74 74
70 68 65
69 68 65
73 73 71
76 77 76
65 65 63
73 74 71
73 74 72
74 74 74
66 63 61
70 72 68
75 74 74
68 67 64
72 71 70
64 64 60
82 83 81
80 91 71
89 115 71
93 129 63
101 148 58
111 166 57
111 165 57
108 161 56
111 166 57
111 166 58
110 165 57
107 161 56
108 163 57
114 170 59
116 174 61
114 171 60
115 174 61
113 169 59
115 174 61
114 172 61
112 168 59
116 173 60
118 176 61
117 177 62
117 176 61
116 176 62
118 180 64
116 172 60
115 174 61
114 174 62
112 168 59
116 175 61
114 174 61
118 178 63
114 174 61
119 180 63
115 174 61
120 180 63
121 182 64
117 177 62
119 181 64
118 178 62
119 180 63
112 171 60
115 174 61
117 177 62
116 176 62
112 170 60
115 175 62
122 183 64
120 181 64
119 180 63
116 175 62
115 174 62
119 180 63
119 179 62
118 177 62
114 172 61
113 170 60
118 179 63
119 179 63
118 179 63
116 175 62
121 183 64
115 175 62
119 179 63
116 177 62
115 174 61
114 172 60
115 174 62
113 171 60
119 179 63
114 171 60
119 178 63
118 176 62
119 179 63
119 180 63
119 179 63
120 182 64
114 174 61
113 172 61
117 178 62
119 179 63
118 178 63
115 173 61
118 178 62
110 164 58
116 175 62
117 177 63
112 170 60
117 176 62
115 172 61
115 173 61
115 173 61
115 172 61
115 171 61
116 174 61
116 174 62
118 177 62
113 168 60
116 174 61
119 180 64
120 180 63
115 173 61
113 170 60
116 175 62
111 166 59
111 168 59
106 157 57
116 171 68
110 153 88
107 139 103
118 139 132
106 115 127
104 112 126
103 112 127
107 118 135
102 111 125
104 113 128
104 114 128
103 113 129
109 119 135
107 113 129
105 115 130
110 120 135
110 119 134
112 122 137
109 120 136
109 119 134
104 114 131
114 123 140
109 118 134
105 116 133
105 113 128
105 115 130
109 119 133
107 117 133
107 117 134
108 118 136
108 117 134
106 115 133
110 121 137
110 122 139
111 122 140
108 116 131
112 123 138
114 123 140
113 122 138
110 120 137
113 123 140
112 121 139
112 122 138
111 123 141
111 122 140
112 121 137
113 124 142
105 112 128
77 72 89
54 32 56
51 31 55
55 33 59
63 38 67
66 41 71
65 40 71
68 42 75
61 36 63
64 38 69
67 42 76
66 40 71
70 41 75
66 40 72
69 43 75
61 37 68
69 42 76
72 43 77
73 45 80
72 44 80
71 43 77
71 44 79
78 48 86
75 45 83
73 45 80
76 46 84
81 50 91
71 43 76
75 46 83
77 47 85
79 49 88
75 45 83
82 49 89
72 44 82
72 45 80
83 51 94
78 48 87
75 47 83
76 47 85
76 47 84
80 50 88
80 48 87
81 50 91
82 50 94
81 50 91
84 52 92
82 50 93
86 54 97
86 53 95
82 51 92
87 54 99
82 50 92
83 51 94
78 48 88
83 52 95
84 53 96
83 51 94
84 51 96
79 49 89
86 53 99
82 51 95
85 51 95
86 54 100
87 53 98
85 51 97
87 54 100
81 51 95
81 50 93
84 51 95
87 54 99
83 51 96
86 54 99
80 50 93
80 50 95
87 53 99
85 52 99
82 50 97
83 51 97
87 54 102
84 51 97
91 57 107
87 53 101
79 48 92
79 49 93
77 48 90
84 51 98
80 49 93
88 54 104
81 50 96
82 50 95
77 47 90
86 54 101
77 48 93
85 52 100
74 45 90
81 50 98
77 47 93
72 44 89
78 48 94
73 45 92
71 44 89
65 40 82
74 61 97
106 112 135
123 138 159
119 133 154
120 134 155
121 136 159
123 137 158
117 130 152
123 138 160
122 133 154
124 139 160
120 134 156
118 130 148
116 129 150
122 134 154
125 141 164
125 139 160
122 135 156
124 138 159
125 140 162
122 135 156
122 136 160
122 137 159
117 130 152
123 137 159
123 136 157
119 133 153
125 140 161
123 138 160
118 132 154
104 117 147
44 53 110
37 45 108
40 51 119
37 46 112
33 40 99
40 51 117
36 44 110
41 52 124
40 50 117
38 48 115
43 56 130
41 51 119
44 54 126
44 54 127
43 54 127
49 62 140
43 54 127
43 54 123
46 58 135
47 60 136
40 50 119
49 62 139
46 60 136
45 57 134
49 63 146
51 66 151
43 54 129
47 62 141
44 55 131
48 61 141
50 64 150
45 58 135
49 63 147
46 59 140
48 62 143
51 66 152
50 64 151
48 60 145
47 60 141
52 67 153
49 62 149
49 63 146
47 60 143
51 65 150
51 66 152
49 63 149
46 59 139
45 58 138
50 64 155
58 63 147
53 59 141
60 65 156
66 62 150
76 62 154
79 57 145
81 59 147
88 57 145
93 53 142
92 51 138
98 58 151
100 53 145
103 50 142
103 51 143
114 51 147
117 51 145
113 47 140
117 46 136
118 51 144
117 47 139
121 50 145
123 48 143
119 49 145
123 49 142
127 48 146
121 48 144
124 50 146
123 49 145
120 50 146
120 48 143
124 47 143
119 48 140
124 47 146
125 47 143
124 47 147
124 48 150
120 47 147
125 49 150
118 48 150
120 48 148
114 49 152
118 49 151
111 51 160
110 49 155
109 53 167
102 50 162
105 52 166
95 48 152
93 50 161
95 54 174
92 54 175
91 58 186
86 54 179
84 54 173
88 59 190
83 56 180
83 55 179
84 55 182
85 57 185
88 59 189
85 56 185
84 56 181
83 54 177
89 57 186
87 58 189
84 55 181
84 55 182
86 57 184
85 57 186
86 57 188
85 56 183
89 60 194
86 57 186
85 57 185
92 60 198
89 59 192
88 59 193
88 58 191
89 59 192
90 60 196
91 60 197
88 58 191
91 59 195
89 60 194
91 60 197
92 61 198
89 59 193
90 60 195
91 60 197
82 54 179
89 59 196
91 61 199
91 61 200
90 60 197
93 62 203
91 61 200
92 61 200
91 60 199
95 63 207
89 59 193
91 59 195
88 59 194
89 59 193
91 61 200
93 62 201
90 59 195
89 59 195
91 61 199
91 61 200
93 62 203
89 59 194
92 61 200
93 62 202
92 62 204
89 59 195
95 63 206
95 63 207
95 63 205
91 60 200
91 60 199
92 62 203
91 61 197
89 60 196
91 61 200
88 59 194
90 59 194
92 61 199
94 63 208
91 61 201
92 61 200
93 62 203
85 57 185
95 63 207
92 62 202
85 57 189
88 59 192
90 60 196
92 61 199
89 60 197
90 60 193
92 62 201
89 60 196
88 58 189
95 63 206
90 60 196
89 60 197
90 60 196
88 59 194
94 63 203
91 61 199
101 89 192
109 111 180
123 136 173
130 148 170
131 149 173
127 145 168
130 148 171
129 146 170
131 148 171
130 148 170
129 147 171
127 144 166
131 149 173
130 148 171
131 148 171
132 149 172
131 149 171
130 147 171
128 146 169
131 147 171
129 147 170
124 142 165
126 143 164
127 143 163
128 145 168
129 148 171
130 147 169
132 150 174
132 150 172
130 148 171
