P3
1600 1
255
125 142 166
123 141 166
126 144 168
123 139 163
115 130 154
127 145 168
121 137 162
122 139 162
126 143 166
124 141 164
124 141 163
125 142 166
126 144 168
128 145 169
123 141 164
123 141 164
127 143 168
130 147 171
128 145 169
124 140 163
125 143 167
124 141 165
125 142 166
127 143 167
123 138 162
121 138 162
128 146 170
125 142 168
126 144 168
128 146 169
121 137 160
127 146 169
124 140 164
129 147 173
126 143 169
125 143 166
124 141 163
127 144 168
126 143 166
128 146 170
120 134 157
126 143 167
127 146 170
125 142 166
123 142 165
125 143 167
131 148 173
125 143 166
129 147 171
128 145 170
129 146 170
126 143 168
126 144 167
125 143 167
127 145 169
125 142 165
129 147 171
124 142 165
124 140 163
127 144 167
127 145 168
127 145 169
126 143 166
128 146 171
130 147 171
125 144 168
125 142 167
125 143 168
128 145 171
124 143 167
128 147 171
126 144 168
126 143 168
127 145 169
128 145 170
122 140 170
85 103 148
30 57 137
26 54 134
27 54 135
27 55 138
27 56 137
27 56 138
26 54 134
28 57 141
28 56 141
26 53 131
28 57 141
28 57 141
27 55 136
27 54 135
26 54 135
27 55 139
28 57 141
27 56 142
27 54 136
29 59 146
29 58 145
27 55 140
29 59 146
29 58 144
27 54 136
29 58 146
29 58 145
30 58 145
28 57 142
29 57 142
28 56 140
27 55 138
27 56 139
28 56 141
28 56 140
27 54 136
29 58 143
26 53 134
28 57 144
27 55 137
26 53 136
30 59 148
29 59 146
27 55 138
27 55 137
26 53 133
27 54 136
27 55 141
27 54 134
28 56 140
27 55 138
29 57 142
27 54 137
28 56 140
29 59 146
29 57 141
29 58 144
28 56 141
27 55 137
27 55 138
29 58 143
27 54 135
28 57 140
28 56 139
25 51 127
28 57 142
27 54 135
27 54 135
26 52 131
28 56 140
27 55 136
26 53 132
26 53 132
27 55 137
28 55 138
28 56 137
25 52 129
25 50 127
26 51 128
26 53 132
26 50 124
27 54 133
26 52 128
26 52 129
26 51 129
27 54 133
25 50 124
27 54 136
27 52 130
27 53 133
25 49 124
25 50 125
27 53 131
25 50 122
25 51 128
28 52 124
77 95 144
123 141 169
131 148 173
129 145 170
131 150 174
128 147 170
126 143 166
129 148 173
129 146 171
127 144 169
126 144 166
131 150 173
129 147 171
130 148 171
129 147 169
129 146 170
127 144 169
131 148 173
127 144 169
131 148 172
129 145 168
132 150 175
128 147 168
132 150 173
130 149 172
129 147 171
130 148 172
129 148 171
127 145 168
130 147 170
127 144 167
130 149 173
131 150 175
131 151 173
134 152 176
131 149 173
133 151 176
130 148 171
129 145 168
129 146 172
128 147 169
129 146 170
129 146 171
131 149 173
131 149 173
130 148 172
129 146 168
131 148 171
131 148 173
132 150 174
130 149 172
128 146 171
132 149 173
132 151 175
133 150 175
131 149 173
128 146 170
132 150 173
130 148 171
132 149 174
129 147 170
131 148 169
133 151 175
132 150 175
129 147 168
131 148 174
130 148 172
130 149 174
127 144 165
130 147 170
124 142 165
126 145 168
127 144 167
131 150 173
128 147 172
129 148 169
132 150 175
128 147 170
130 149 169
127 144 169
127 146 169
130 148 174
128 147 172
128 146 169
127 143 165
130 147 171
132 151 174
130 147 171
128 147 168
127 144 166
132 150 175
128 146 169
126 143 165
130 148 172
131 148 171
126 144 167
129 146 168
127 143 167
130 147 170
131 150 172
128 146 168
129 148 168
131 150 173
128 148 171
129 146 168
128 145 168
129 145 169
133 149 171
131 149 171
131 148 172
130 149 173
126 143 165
125 143 166
130 148 170
129 148 170
130 146 168
130 145 167
126 143 164
127 146 170
126 143 163
130 147 170
129 146 168
129 146 169
125 142 164
126 145 164
132 150 174
128 145 169
124 142 163
131 148 169
132 150 173
126 141 162
129 142 166
125 142 163
129 144 167
129 147 170
129 145 168
126 143 164
130 146 169
122 138 161
126 140 161
127 143 165
129 147 169
125 140 161
129 144 167
127 143 166
131 150 170
130 148 171
124 138 154
129 143 166
129 147 169
125 142 158
122 138 159
121 136 154
94 101 110
77 72 73
61 43 18
63 44 19
62 44 18
62 44 19
66 46 19
63 45 19
65 45 19
63 44 19
67 48 20
65 45 19
63 45 19
62 43 18
68 48 20
67 46 19
63 45 19
63 44 19
64 45 19
64 45 19
64 45 19
63 45 19
68 48 20
63 44 19
65 46 19
65 46 19
67 47 20
67 47 20
61 43 18
64 45 19
67 47 19
62 43 18
63 44 19
67 47 20
67 47 20
62 43 18
65 46 19
66 46 19
65 46 19
66 46 19
62 44 18
63 45 19
64 45 19
66 46 19
66 46 19
65 45 19
67 46 19
65 46 19
66 47 19
64 45 19
66 46 19
66 46 19
67 47 19
64 45 19
65 45 19
64 45 19
64 45 19
64 45 19
64 44 18
67 47 19
67 47 20
65 45 19
64 45 19
67 46 19
60 42 18
64 45 19
66 46 19
67 47 19
63 44 19
67 47 20
66 46 19
63 44 19
65 46 19
66 46 19
63 45 19
62 43 18
64 44 19
63 44 19
62 44 18
62 43 18
65 45 19
64 45 18
62 43 18
64 45 19
64 45 19
61 42 17
62 44 18
65 45 19
63 44 18
63 44 18
61 43 18
61 43 18
63 44 18
61 43 18
60 42 17
63 44 18
62 44 18
63 44 18
60 42 17
62 44 18
63 44 18
64 45 19
62 43 18
60 42 17
62 43 18
59 41 17
59 41 17
61 43 18
62 43 18
58 41 17
57 40 16
62 43 18
58 40 17
59 42 17
57 42 24
80 76 76
107 114 128
119 130 149
119 134 151
124 138 160
115 128 146
122 135 154
124 138 156
126 140 160
119 132 150
119 132 147
121 137 154
122 137 155
123 136 156
121 133 149
121 134 154
122 136 154
126 141 162
123 136 154
123 134 155
123 137 160
124 137 157
124 137 156
120 133 151
124 137 158
120 136 151
129 143 162
125 139 159
120 133 150
123 133 153
125 138 156
129 142 163
117 132 147
120 134 150
127 138 158
125 141 161
125 141 162
122 137 155
120 133 150
126 143 165
127 146 165
126 140 158
126 142 162
127 141 159
124 139 159
124 137 157
123 139 160
128 142 163
127 141 162
123 137 154
127 142 163
125 139 159
122 137 156
124 138 158
125 142 162
126 144 164
129 147 169
129 147 168
128 143 164
124 141 160
125 142 163
132 148 169
128 144 167
127 142 164
125 139 158
125 139 160
126 141 163
124 137 156
128 143 164
128 143 167
128 144 166
125 141 162
130 146 166
128 143 165
127 144 166
122 139 159
130 144 165
128 143 165
126 141 162
128 145 166
130 148 170
128 145 168
131 148 170
129 147 166
128 143 165
121 137 154
126 140 162
130 144 165
130 147 167
126 139 159
127 144 167
131 149 173
129 147 167
129 145 168
129 146 168
126 143 162
129 145 166
127 143 163
127 144 165
127 144 165
129 145 167
128 144 165
128 143 164
132 149 173
126 143 163
129 144 165
128 146 168
127 143 163
127 143 165
128 144 166
128 146 168
133 152 175
129 146 168
131 146 169
126 142 163
127 144 166
127 143 164
130 147 168
131 147 170
128 144 166
129 147 169
130 146 170
132 149 171
130 147 171
125 142 163
129 145 164
127 145 167
125 141 161
125 141 161
124 139 161
126 142 165
131 151 174
129 145 167
126 143 165
125 141 163
131 148 169
131 146 168
127 144 168
127 144 168
131 145 167
130 147 169
128 145 169
131 147 170
130 147 170
125 141 164
130 147 171
128 146 169
130 148 170
127 144 167
128 145 168
130 147 169
125 142 163
128 142 165
130 146 168
123 136 158
127 144 166
126 141 162
127 142 164
128 145 169
128 145 168
130 147 170
130 147 169
128 144 166
130 146 169
125 142 164
124 140 162
128 145 167
126 142 164
128 144 168
129 146 168
127 144 166
129 146 169
125 140 162
127 142 162
125 140 162
126 143 165
128 146 168
125 141 165
126 141 163
126 142 166
126 141 164
126 142 165
126 142 165
125 142 166
128 145 168
125 142 164
127 143 166
127 144 168
125 142 163
125 141 165
129 145 167
123 139 162
120 136 157
120 135 159
122 137 160
128 146 165
124 141 165
127 145 167
129 146 167
130 146 169
128 144 167
119 133 154
120 137 156
114 136 143
115 153 139
112 155 116
122 168 122
133 165 122
139 181 142
150 195 157
155 212 170
162 227 182
159 224 180
160 226 182
162 229 184
160 227 183
160 228 184
160 227 184
159 227 184
158 226 184
158 226 184
157 226 184
157 225 184
156 225 184
156 225 184
155 224 184
155 224 184
154 223 184
154 223 184
154 223 184
153 223 184
153 222 184
152 222 184
152 222 184
151 221 184
152 222 184
151 221 184
150 221 184
150 221 184
150 221 184
150 220 184
150 220 184
149 220 184
149 220 184
149 220 184
149 220 184
149 220 184
148 219 184
148 219 184
148 219 184
148 219 184
148 219 184
147 219 184
148 219 184
147 219 184
147 219 184
147 219 184
147 219 184
147 219 184
148 219 184
147 219 184
147 219 184
147 219 184
147 219 184
147 219 184
148 219 184
148 219 184
148 219 184
148 219 184
148 219 184
148 219 184
149 220 184
149 220 184
148 219 184
149 220 184
149 220 184
149 220 184
149 220 184
149 220 184
150 220 184
150 220 184
150 221 184
151 221 184
151 221 184
151 221 184
152 222 184
152 222 184
152 222 184
153 222 184
153 223 184
154 223 184
154 223 184
154 223 184
154 222 183
153 219 179
153 217 176
148 209 168
148 208 166
138 192 150
130 177 136
119 162 124
113 152 115
102 137 101
79 105 77
73 100 71
77 107 77
76 103 78
76 104 78
79 107 81
75 102 75
78 105 78
71 95 70
70 94 71
70 91 68
76 98 75
89 106 97
92 104 105
104 116 126
107 120 139
109 120 138
118 131 151
109 121 141
104 115 132
111 124 143
110 123 143
118 133 150
112 123 140
117 129 149
115 127 145
116 129 148
115 127 147
110 123 143
102 114 132
113 125 146
109 121 140
115 126 143
117 130 150
117 129 148
111 123 141
115 130 149
116 127 145
114 126 144
112 126 144
106 118 137
110 124 140
112 125 143
113 123 137
112 123 143
111 124 141
107 117 132
111 123 141
110 121 139
109 120 136
115 129 146
114 128 146
110 121 137
114 126 143
115 127 146
110 121 138
110 121 138
108 119 136
110 121 138
105 115 129
116 129 148
112 124 142
116 127 144
110 119 133
114 124 142
106 118 134
110 119 135
110 122 139
114 124 141
114 124 141
110 119 135
116 127 144
115 124 141
110 122 137
114 126 143
106 115 130
118 130 147
121 134 152
113 126 144
114 124 141
111 122 138
117 129 147
114 125 141
108 116 130
115 128 144
110 120 136
110 120 135
111 121 134
108 119 135
112 122 138
113 126 143
115 124 140
109 119 133
108 119 134
112 123 139
114 123 138
112 123 138
113 124 141
110 120 134
111 122 138
112 123 138
113 124 140
107 117 131
106 116 132
106 116 130
111 122 138
107 117 132
102 112 125
106 116 131
112 123 136
103 113 128
103 112 126
106 114 128
111 123 139
109 118 133
103 111 124
112 122 137
107 117 131
110 119 133
115 126 142
104 115 130
105 114 128
108 117 129
107 117 132
113 122 137
103 112 126
107 116 130
103 111 125
99 107 119
109 121 137
106 115 127
105 116 129
108 118 132
110 120 135
104 114 128
102 111 126
99 107 119
99 106 119
104 112 125
100 108 121
106 116 130
101 109 122
104 114 126
96 104 117
110 118 131
101 109 121
99 106 118
100 109 122
108 117 131
103 112 125
105 114 127
108 117 128
105 114 128
103 111 125
103 113 126
101 109 122
108 117 129
99 106 118
100 109 123
101 109 121
97 104 115
87 94 103
92 98 107
99 106 119
96 103 114
100 107 120
98 106 118
95 101 112
96 103 112
99 106 118
97 104 115
91 97 108
95 102 113
94 102 113
97 104 115
93 96 104
93 99 110
90 95 103
99 106 117
92 97 107
91 98 109
89 95 106
98 103 113
89 94 102
83 88 97
90 95 105
90 95 104
92 98 107
89 96 106
88 93 102
83 89 99
82 85 93
83 87 96
84 87 94
71 72 74
65 64 65
67 65 65
69 68 67
72 71 70
63 62 61
58 57 56
68 66 66
65 64 62
58 58 56
69 68 66
71 70 70
71 70 69
72 70 68
67 66 64
62 62 61
63 62 62
70 69 68
70 69 69
72 72 71
63 62 60
69 69 67
67 65 63
65 64 64
77 77 77
71 71 70
57 56 54
69 68 67
76 75 76
70 69 68
72 71 71
71 69 69
63 61 59
72 72 73
71 70 70
69 68 67
73 72 71
73 73 72
65 65 62
71 69 67
69 68 67
64 63 63
66 65 62
76 76 75
73 72 71
73 72 71
72 72 71
70 69 69
67 68 65
74 73 73
69 68 64
71 70 70
76 76 76
76 74 73
73 73 70
67 66 64
74 73 72
73 73 72
70 70 68
71 70 68
76 77 77
73 72 71
67 66 66
67 67 66
72 71 70
67 67 62
78 79 77
70 68 66
72 73 71
75 76 76
72 71 69
78 77 76
69 70 67
70 70 68
73 72 71
70 71 69
75 75 75
75 75 74
78 79 79
79 79 79
73 72 71
73 71 70
71 70 69
70 69 68
78 76 75
73 74 72
73 72 71
69 68 65
74 71 69
76 76 75
68 67 66
74 73 72
78 78 77
74 73 71
72 73 71
72 72 70
73 72 70
72 74 71
70 70 68
79 78 77
74 73 72
71 71 68
70 70 67
70 69 68
77 76 75
69 68 65
72 72 71
71 70 67
72 72 72
72 72 69
70 70 69
65 64 62
68 68 67
66 64 62
75 75 72
74 73 73
74 74 73
67 67 66
71 71 69
70 70 67
74 73 73
69 69 67
77 76 75
73 73 71
73 73 73
63 63 61
68 69 66
68 67 65
68 69 66
67 66 64
69 68 65
67 66 62
69 67 66
70 70 69
71 70 69
63 61 58
61 60 58
74 75 72
75 75 73
65 65 62
69 67 65
74 74 73
69 71 67
83 104 68
86 112 64
95 138 54
105 155 56
107 161 56
108 162 56
113 169 59
111 166 57
110 165 57
112 166 57
115 173 61
114 171 60
114 172 59
112 169 59
112 169 59
111 168 59
115 173 61
113 169 59
119 179 62
111 168 59
112 168 58
114 172 60
113 167 58
109 165 58
111 169 59
116 175 62
112 168 59
114 173 61
114 172 61
115 174 61
119 179 63
117 178 62
114 174 61
115 173 61
115 174 61
113 172 60
110 167 59
116 176 62
119 180 63
112 169 59
118 177 62
115 174 61
116 176 62
115 174 61
119 181 63
114 173 61
117 176 62
116 177 63
113 173 62
116 177 63
114 171 61
118 178 62
116 176 62
117 177 62
114 171 60
116 175 62
116 176 62
113 172 61
117 177 62
114 172 61
117 177 62
115 173 61
113 171 60
115 173 61
117 177 62
115 174 61
118 177 62
116 174 61
115 174 61
119 179 63
117 177 63
115 175 62
116 176 62
114 173 61
115 171 61
116 175 62
109 163 57
118 178 62
119 179 63
115 173 61
116 174 62
115 173 62
113 169 60
115 175 62
118 178 62
114 174 62
118 178 63
119 177 62
118 176 62
117 176 62
114 173 61
118 178 62
117 176 61
115 173 61
114 172 61
113 171 61
119 178 62
114 172 61
118 176 62
114 172 61
117 175 62
112 169 59
111 167 59
115 173 61
115 174 61
118 177 62
113 168 60
112 168 60
113 168 60
111 163 58
112 169 65
104 144 78
103 141 86
108 133 112
105 120 122
104 114 129
106 115 130
106 114 128
104 113 129
112 123 139
109 118 133
107 115 129
104 113 127
110 120 137
106 116 132
110 119 134
110 120 136
113 123 140
108 119 137
107 116 130
104 111 125
108 116 131
102 109 124
110 118 133
100 107 120
109 118 135
109 120 137
104 113 130
108 116 133
112 122 138
109 119 134
112 121 137
99 106 118
113 123 139
113 123 140
110 120 136
109 118 134
109 118 134
114 125 141
113 125 142
107 118 134
114 125 142
108 117 133
115 126 145
115 126 145
106 116 132
108 119 137
111 120 138
88 91 107
55 33 58
51 30 52
55 33 57
60 36 64
57 34 60
58 35 62
60 37 62
62 38 67
61 37 65
67 41 73
65 40 71
64 40 70
72 44 78
74 45 78
72 44 77
67 41 73
73 44 78
65 40 72
78 47 85
66 40 73
72 43 77
69 43 77
73 44 78
72 45 79
73 45 80
68 42 75
75 46 82
72 45 79
69 42 77
81 50 89
83 51 93
76 47 87
76 46 85
75 47 84
73 45 83
78 48 88
77 47 86
76 47 85
79 48 88
81 50 91
78 48 86
76 47 87
77 47 87
79 48 88
82 51 93
76 47 86
78 48 88
79 49 89
82 51 92
83 50 94
80 50 91
83 51 94
77 47 89
79 49 91
89 54 101
83 51 95
82 49 92
78 48 89
81 50 92
87 53 98
80 49 92
84 51 95
73 44 84
80 49 91
85 52 97
78 46 89
83 52 96
80 49 92
77 47 90
85 52 98
85 53 97
83 51 96
88 54 102
83 51 95
81 49 93
82 51 96
78 48 92
81 50 95
86 53 101
83 51 97
83 51 99
81 50 96
79 49 95
86 53 100
80 50 96
82 50 95
74 46 88
78 48 95
85 52 97
69 43 83
76 46 91
75 45 90
69 42 85
73 43 90
74 46 88
70 44 88
72 44 90
70 42 85
68 45 85
87 80 110
110 120 141
120 132 154
116 128 148
123 137 157
116 130 152
120 134 155
120 134 155
120 132 152
121 135 157
124 139 160
124 138 160
122 135 155
119 132 155
121 135 157
120 134 156
121 134 154
124 139 161
119 133 154
115 127 148
119 131 151
118 133 154
120 133 154
125 140 162
119 132 153
120 135 157
121 135 158
122 137 160
122 137 161
119 134 156
123 136 159
125 139 162
117 130 152
73 83 122
36 44 103
37 47 110
36 45 107
38 46 108
39 49 114
37 45 108
37 47 111
43 54 126
41 51 119
40 51 120
40 51 120
43 54 123
40 49 112
45 56 130
40 50 119
45 57 132
48 59 139
42 53 126
45 57 134
45 58 133
45 58 129
45 59 135
45 58 134
49 63 144
44 55 130
45 57 132
47 59 137
45 58 134
48 61 141
48 63 144
49 62 141
46 58 138
46 59 137
46 59 142
48 62 142
47 62 140
47 61 144
46 59 139
48 62 144
46 60 141
45 58 141
50 61 144
60 60 143
59 54 134
64 59 141
70 55 137
86 57 146
91 54 143
92 56 143
99 53 140
106 53 143
115 48 136
118 46 135
125 50 144
122 48 143
122 46 137
127 45 139
130 46 139
130 46 141
128 46 140
131 46 142
130 46 143
129 46 139
129 46 139
131 47 143
132 47 142
132 47 144
132 47 143
132 47 145
130 46 142
132 47 145
132 47 145
134 47 145
132 47 144
134 47 145
132 47 144
134 47 145
132 47 145
133 47 144
132 47 144
131 47 143
133 47 144
131 47 145
133 47 143
132 47 144
132 47 144
134 48 146
132 47 143
133 47 144
133 47 145
131 47 143
132 47 145
130 49 149
125 47 146
127 48 148
124 48 149
124 48 151
119 48 153
120 52 162
113 53 167
107 52 165
100 51 166
105 54 172
99 54 172
89 52 169
85 54 177
87 56 182
79 52 169
83 55 178
83 54 174
86 58 187
85 56 184
83 54 179
84 56 185
88 59 193
89 59 193
87 58 186
86 56 185
87 58 188
88 59 192
88 57 188
90 60 195
87 57 188
87 58 189
88 58 190
82 55 179
89 59 195
87 57 188
88 59 192
89 58 191
87 57 186
88 59 189
91 61 199
88 58 192
86 58 188
88 58 190
88 59 192
90 59 195
91 60 197
91 61 202
89 59 193
84 56 184
92 61 198
90 59 197
86 58 187
85 55 184
90 60 196
90 60 193
89 60 197
92 61 199
92 60 196
88 59 190
88 59 194
93 62 202
92 60 197
87 57 192
90 60 196
92 60 198
91 60 199
91 60 197
91 60 197
91 60 199
86 57 185
90 61 197
92 60 199
90 60 195
89 58 192
88 59 193
89 59 193
91 61 201
89 59 192
89 59 192
87 58 191
88 59 193
90 60 196
93 61 199
90 61 199
95 63 205
94 63 205
91 61 198
88 59 192
86 57 186
88 59 193
89 59 192
86 57 188
92 62 202
93 62 202
86 58 187
88 59 191
93 63 203
91 61 204
89 59 194
87 59 192
89 60 195
92 61 199
86 58 189
86 58 189
99 85 190
109 105 190
123 134 178
130 148 173
126 143 164
129 147 171
133 151 174
131 149 173
131 149 173
129 146 169
128 146 169
129 147 172
124 141 164
130 148 172
130 148 171
128 146 169
129 147 172
132 151 175
129 145 169
129 147 171
130 148 171
129 145 168
128 145 169
129 147 169
130 147 170
130 145 167
126 143 165
128 147 170
129 145 167
129 147 171
