P3
1600 1
255
59 55 102
85 91 125
99 111 139
110 125 152
124 141 166
128 146 169
127 146 170
125 144 166
127 145 168
128 145 169
129 146 170
126 144 167
128 147 170
127 145 169
125 144 168
124 142 166
126 146 169
129 148 171
129 147 171
128 147 171
128 145 171
130 149 174
126 144 168
128 146 170
130 149 173
124 142 165
125 144 167
128 147 172
126 144 168
125 143 168
124 141 165
119 137 160
127 146 169
123 142 165
128 147 171
130 148 173
129 148 174
123 143 167
123 143 165
129 147 171
129 147 171
126 145 168
124 142 165
123 141 164
123 141 164
128 148 170
129 148 173
129 148 171
123 140 163
124 142 166
131 149 174
130 149 173
133 151 176
125 141 164
128 149 171
124 142 166
127 145 169
126 143 167
126 145 169
130 148 172
125 143 165
125 144 168
131 149 172
128 147 171
124 142 166
122 141 167
127 146 171
124 142 167
130 148 173
123 140 165
125 143 169
121 139 165
126 145 170
129 147 172
129 149 172
131 150 174
132 150 174
126 143 167
127 144 169
123 141 166
123 141 166
120 138 163
122 139 163
105 123 156
58 76 134
33 56 128
25 50 127
26 53 133
23 47 121
24 49 124
25 51 127
25 51 129
25 52 129
26 52 130
26 52 134
24 49 124
24 50 126
25 52 130
26 54 134
25 51 128
28 56 141
26 53 136
26 52 131
26 52 132
26 53 134
25 51 129
27 54 135
25 51 130
24 48 122
25 51 129
25 51 129
26 53 133
26 53 132
26 51 128
24 48 123
26 54 135
24 49 124
25 51 129
28 57 141
25 51 129
26 52 132
26 52 131
26 52 132
26 52 131
25 51 130
27 54 135
27 54 134
24 50 126
25 51 128
25 50 128
25 51 128
26 53 134
26 53 133
26 53 132
25 50 127
26 53 133
27 53 134
24 49 125
25 51 127
24 49 124
25 51 128
24 49 124
25 51 128
25 50 126
25 50 125
24 50 127
24 48 121
25 51 128
25 50 127
24 50 126
24 47 121
23 47 118
24 48 122
24 49 124
24 48 121
25 49 122
24 48 121
23 46 118
25 49 124
23 46 117
24 47 118
23 46 116
24 49 122
24 49 121
24 47 117
70 87 135
115 134 163
125 142 170
119 136 162
126 144 169
122 140 165
131 147 171
127 145 169
128 145 171
126 143 169
119 136 160
127 145 169
125 143 168
119 135 158
124 142 167
128 144 168
128 146 170
126 143 167
120 137 160
125 142 167
127 146 171
125 142 166
122 140 167
123 140 166
127 145 167
129 145 168
126 144 169
121 139 163
125 143 168
126 143 167
128 146 171
125 143 168
120 136 160
129 145 167
129 147 172
122 139 164
127 146 171
125 143 169
127 144 169
124 142 166
125 142 168
126 143 168
120 136 161
128 145 168
127 145 170
128 146 171
130 149 174
127 144 167
125 142 167
124 141 163
130 147 171
131 150 175
126 144 170
127 146 172
123 140 166
129 147 171
132 148 172
130 148 173
127 146 170
127 146 170
128 146 169
131 149 174
128 146 170
129 148 170
128 147 169
129 148 172
125 142 166
129 146 171
126 144 169
127 143 169
128 145 168
129 147 173
129 145 169
127 145 169
129 147 169
129 145 169
125 143 167
128 145 168
127 144 168
126 143 168
127 145 168
127 145 169
129 146 171
126 144 170
131 149 173
126 143 167
126 141 163
130 149 174
129 146 171
132 149 174
134 149 172
129 148 171
130 147 170
132 149 173
129 146 170
125 143 167
130 147 172
124 141 163
130 147 171
130 147 169
128 147 167
130 146 170
130 149 170
129 147 173
131 149 174
124 139 161
126 143 167
129 147 171
132 148 172
130 147 170
131 148 170
129 145 170
128 145 168
126 141 164
128 146 169
128 146 167
133 148 172
127 141 164
127 142 165
128 145 169
130 147 169
128 147 169
132 148 172
128 144 167
126 139 161
133 150 174
126 141 164
130 147 170
128 145 168
127 143 164
128 147 168
129 148 171
126 138 160
130 144 167
127 143 164
127 141 165
132 149 171
123 140 160
127 143 165
129 143 167
128 141 162
128 144 166
128 140 164
128 144 167
130 146 169
128 140 162
129 142 164
127 143 162
129 143 165
130 142 162
125 140 163
128 143 164
124 140 161
128 143 167
127 141 163
128 145 165
127 141 163
128 141 162
125 141 159
125 137 158
121 134 154
113 124 143
94 98 109
71 63 62
56 39 17
62 43 18
60 42 18
61 43 18
60 42 18
64 45 19
63 44 18
62 44 18
60 43 18
59 42 18
65 46 19
61 43 18
63 44 19
63 45 19
62 44 18
61 43 18
64 45 19
60 42 18
61 43 18
63 44 18
63 43 18
64 44 19
60 42 18
62 43 18
62 44 18
60 42 18
64 45 19
62 43 18
63 44 19
62 44 19
60 42 18
61 43 18
61 43 18
62 44 18
63 44 18
64 44 19
62 44 19
61 43 18
61 42 18
66 46 19
63 44 19
63 44 18
62 43 18
56 40 17
61 43 18
60 43 18
62 43 18
61 43 18
64 45 19
62 43 18
61 43 18
63 44 18
62 44 18
62 43 18
60 42 18
63 44 18
62 43 18
64 45 19
64 45 19
61 43 18
62 43 18
66 46 19
61 43 18
61 43 18
62 43 18
66 46 19
61 43 18
62 44 18
61 43 18
60 43 17
56 40 16
61 43 18
63 44 18
59 41 17
62 43 18
62 44 18
60 42 17
60 42 18
57 40 16
61 43 18
60 42 18
60 43 18
59 41 17
63 44 18
58 41 17
60 41 17
58 41 17
60 43 18
59 41 17
58 41 17
59 41 17
60 42 17
60 42 17
59 41 17
58 41 17
57 39 16
57 40 17
57 40 16
60 42 17
55 38 16
56 39 16
57 40 17
56 39 16
56 40 17
54 38 16
59 41 17
56 39 16
55 39 16
52 37 15
57 40 16
56 41 24
75 70 72
83 81 83
96 94 104
105 104 118
104 104 117
110 117 134
108 110 125
109 112 127
107 110 122
113 118 132
113 111 124
119 115 128
117 117 131
116 108 118
118 102 109
122 107 113
125 105 106
125 104 105
125 104 104
130 106 105
129 103 100
135 108 104
133 105 100
134 99 89
134 98 87
139 99 86
137 97 84
137 98 84
138 98 84
136 97 84
136 97 83
136 98 84
137 98 84
138 98 84
136 97 84
138 98 84
137 98 84
137 98 84
138 98 84
136 97 83
135 96 83
136 97 84
136 97 84
136 97 84
137 98 84
136 97 84
137 98 84
138 98 84
135 97 83
135 96 83
135 96 83
134 95 82
136 97 84
137 98 84
134 96 83
136 96 83
135 96 83
135 96 83
136 97 84
134 95 82
135 95 82
134 95 81
133 96 84
133 96 85
135 98 87
131 103 99
132 105 102
131 111 111
131 105 103
130 113 115
128 111 114
126 114 120
128 123 135
128 123 134
130 139 157
127 135 153
129 141 162
130 143 160
125 139 161
127 143 162
127 141 163
127 140 161
126 142 163
124 136 157
127 142 164
130 148 171
131 148 171
127 142 163
129 146 168
125 139 160
126 144 166
125 142 163
129 143 166
127 144 167
124 139 160
126 140 163
127 143 166
127 143 165
126 142 164
129 145 167
129 147 170
127 142 161
129 146 169
126 142 163
125 141 161
129 144 165
132 148 171
128 145 169
132 148 172
133 149 173
128 146 166
128 145 167
129 145 166
129 143 166
129 146 168
127 144 166
130 148 170
127 142 162
127 142 164
126 142 164
128 143 167
128 144 166
129 147 169
127 143 164
127 143 166
129 147 170
127 141 162
126 141 162
129 145 168
132 147 169
127 143 165
126 142 164
127 145 167
125 140 162
129 146 168
131 147 170
133 148 170
129 144 166
126 143 167
128 145 167
130 148 172
128 144 166
128 145 168
126 142 164
129 147 168
127 143 165
130 146 169
130 147 171
128 143 164
130 147 168
128 145 167
126 142 165
127 143 168
128 145 166
128 145 168
130 148 171
127 142 164
127 143 165
124 138 159
126 143 166
125 141 165
125 142 165
127 144 167
128 144 165
127 144 168
129 145 168
130 147 170
127 144 167
129 144 167
129 147 171
129 145 168
122 138 162
123 140 163
127 143 165
122 138 162
124 141 163
124 140 163
124 141 162
128 145 167
129 145 169
124 140 163
127 145 169
121 134 158
125 141 166
126 142 164
125 141 163
127 144 166
120 136 158
124 139 161
123 139 161
124 140 164
126 144 168
122 139 161
125 141 164
120 135 159
119 135 156
123 141 164
121 137 159
123 139 163
120 135 159
125 141 165
118 139 155
118 145 147
100 135 122
96 121 92
89 111 85
101 113 90
100 115 94
104 123 99
94 114 91
97 125 100
105 142 111
100 134 104
120 163 130
126 172 138
145 199 161
150 209 168
159 222 178
161 226 181
162 228 183
162 228 183
163 230 184
162 228 184
162 229 184
162 229 184
161 229 184
161 228 184
161 228 184
161 228 184
160 228 184
160 227 184
160 228 184
159 227 184
159 227 184
159 227 184
159 227 184
158 226 184
158 226 184
158 226 184
158 226 184
158 226 184
158 226 184
158 226 184
157 226 184
157 225 184
157 225 184
157 225 184
157 225 184
157 225 184
157 225 184
156 225 184
156 225 184
156 225 184
156 225 184
156 225 184
156 225 184
156 225 184
156 225 184
156 224 184
156 225 184
155 224 184
156 225 184
156 225 184
156 225 184
156 225 184
156 225 184
156 225 184
156 225 184
156 225 184
157 225 184
156 225 184
156 225 184
157 225 184
156 225 184
157 225 184
157 225 184
157 225 184
157 226 184
157 226 184
158 226 184
157 226 184
158 226 184
158 226 184
158 226 184
159 227 184
159 227 184
159 227 184
159 227 184
159 227 184
160 227 184
160 227 184
160 228 184
161 228 184
161 228 184
161 227 184
161 228 184
162 229 184
162 228 184
161 228 183
160 226 182
158 224 177
155 222 173
149 213 164
139 201 151
132 189 142
126 179 139
100 144 104
95 133 104
85 119 90
69 94 72
74 100 76
63 85 62
68 91 67
60 80 58
62 81 60
57 76 55
59 78 58
64 85 67
69 93 74
74 96 84
84 102 106
96 109 119
98 108 124
101 109 125
96 105 122
98 106 122
96 104 120
99 108 124
85 93 107
99 109 125
100 109 124
99 108 124
99 108 124
98 108 125
97 107 123
95 105 122
103 113 130
98 107 121
102 112 127
105 115 131
104 112 129
96 105 120
97 106 120
111 123 139
105 116 131
106 116 131
103 115 132
101 111 127
106 117 134
105 116 133
106 117 133
108 120 137
107 119 135
102 113 129
99 110 126
108 120 137
106 116 131
113 126 142
104 115 131
109 119 136
109 120 136
112 123 139
112 124 141
107 117 133
110 122 139
110 120 135
106 117 132
106 116 131
102 110 125
113 124 139
110 121 137
113 124 140
110 120 137
106 117 133
103 113 130
103 113 126
111 121 136
115 127 144
116 127 141
108 118 135
114 125 141
101 109 121
111 123 138
109 120 136
106 117 134
105 115 129
109 118 133
110 120 136
108 119 134
106 115 130
108 120 136
102 112 128
107 117 132
110 120 136
103 113 127
103 113 127
114 125 142
104 112 125
107 117 132
114 125 141
110 122 138
109 119 135
103 113 129
107 117 132
104 114 128
109 119 133
100 109 123
114 125 141
106 114 127
105 115 129
102 112 125
100 107 117
104 112 124
107 115 129
105 116 130
102 112 124
108 117 130
99 107 120
111 123 139
103 110 121
105 114 127
96 104 115
107 116 129
98 107 121
101 110 124
104 114 127
98 107 120
97 106 118
100 107 119
102 111 124
97 105 117
103 112 124
102 110 123
101 109 120
102 109 122
111 121 136
101 110 122
105 114 127
99 107 118
103 113 127
100 107 117
99 105 116
101 109 119
96 104 114
96 104 115
98 106 117
103 108 119
96 104 116
88 94 104
93 101 108
102 111 123
96 105 118
89 96 108
94 100 111
98 106 118
95 103 112
99 108 120
93 100 112
94 101 110
95 100 110
89 93 101
98 105 115
91 98 107
92 99 109
94 101 112
84 89 97
91 97 109
81 85 92
79 83 91
88 94 105
89 94 103
80 85 94
89 96 108
88 94 105
94 101 113
91 97 108
95 102 112
79 86 93
87 93 102
85 89 98
88 94 103
84 90 96
84 90 99
84 89 98
79 84 90
82 86 94
85 90 98
79 83 89
88 95 103
84 88 95
79 84 90
79 84 91
81 86 97
84 90 98
79 84 93
73 76 84
66 68 72
69 71 77
77 82 91
80 85 93
65 67 70
81 85 92
75 77 83
81 86 95
78 82 88
73 76 81
78 83 90
70 74 79
73 75 80
71 73 79
75 79 86
75 78 85
68 73 79
66 69 73
71 76 80
68 73 78
62 64 69
69 73 82
61 63 68
68 68 72
71 74 80
71 74 80
56 55 59
60 60 63
53 52 55
60 61 66
56 56 55
51 48 47
46 44 43
46 43 43
57 56 54
51 49 47
63 61 60
55 53 52
55 53 51
58 56 56
60 58 57
59 57 56
58 56 55
56 55 54
69 69 68
59 58 57
58 57 57
52 51 49
61 59 57
67 66 64
64 63 61
59 58 56
51 49 47
63 62 61
54 52 50
59 59 56
66 65 65
58 56 55
62 60 58
60 60 58
58 57 54
55 54 53
60 59 56
65 64 63
59 58 56
59 58 57
64 62 61
66 64 64
64 63 61
63 62 61
60 59 56
61 61 59
59 57 55
60 58 56
53 52 49
55 54 53
62 61 59
53 51 50
52 50 49
56 55 54
59 59 56
64 63 62
66 64 64
57 56 54
57 56 54
54 53 49
66 64 62
67 67 64
64 62 60
64 61 61
63 61 60
65 65 61
52 50 48
63 62 60
61 59 57
56 53 50
61 62 59
59 58 55
67 66 64
54 52 52
59 58 56
63 61 59
54 53 50
63 62 60
60 61 59
57 56 54
59 57 57
57 56 54
55 54 53
59 57 56
62 60 58
65 64 62
65 64 62
68 68 66
60 59 58
63 62 62
60 58 57
61 59 58
68 67 66
54 53 51
60 59 57
60 58 58
62 61 59
66 65 63
59 58 56
62 59 57
58 57 55
61 59 59
63 63 59
55 55 53
59 57 55
57 56 53
57 56 53
56 56 53
51 49 44
59 58 56
57 56 54
54 54 52
65 64 63
56 55 54
55 54 51
57 58 50
70 87 55
84 117 52
96 139 56
99 149 54
105 158 54
105 159 56
110 162 56
107 161 56
112 169 59
107 162 57
110 166 58
109 166 57
109 166 57
106 160 56
108 163 57
108 163 57
110 164 58
111 168 59
107 161 56
111 167 58
109 166 58
110 167 58
111 168 59
112 169 59
111 167 58
109 164 57
113 169 59
105 160 56
113 170 60
114 172 60
116 175 62
114 171 60
116 174 61
113 171 60
114 172 60
111 168 59
111 169 60
109 166 59
113 172 60
116 174 61
113 169 60
112 170 60
109 165 58
106 160 56
115 174 61
109 165 58
114 173 60
114 173 61
112 170 60
115 174 61
110 167 58
108 165 58
113 172 61
114 172 61
113 171 60
117 175 62
110 168 60
119 178 63
111 166 59
114 173 61
114 171 60
112 170 60
111 168 59
117 176 62
112 169 59
114 172 61
112 168 59
113 170 60
113 170 60
114 173 61
114 173 61
110 165 58
115 174 61
109 165 58
115 172 61
118 178 62
114 173 61
111 168 59
116 174 61
116 175 61
110 165 58
110 166 59
116 173 61
111 165 59
113 172 61
115 174 61
115 172 61
115 172 61
110 168 58
114 172 61
113 168 60
112 168 59
116 176 62
108 163 57
113 170 60
111 166 59
110 165 59
111 166 59
109 163 58
112 169 60
113 169 59
112 167 59
108 163 57
111 164 58
114 169 60
111 165 58
113 168 60
108 162 57
112 169 60
113 169 60
110 166 58
112 167 60
112 167 59
109 162 58
109 163 58
106 159 57
108 160 60
105 154 63
101 138 81
99 129 94
100 114 114
88 93 106
100 108 121
92 96 108
103 109 122
99 106 120
104 113 127
97 106 121
97 104 115
104 113 128
96 104 120
98 105 118
105 115 129
97 103 117
95 103 117
103 109 123
110 119 135
105 113 127
95 104 118
101 109 124
94 99 111
104 112 127
97 104 117
101 110 125
106 115 130
97 104 116
103 111 124
101 110 125
107 115 129
104 112 126
100 108 122
107 117 133
105 113 129
106 115 131
108 119 135
111 122 139
106 115 131
91 94 108
101 111 125
98 108 123
108 116 133
103 112 129
100 108 123
107 117 134
108 118 135
109 119 135
102 112 129
84 86 102
63 52 72
53 31 56
55 34 59
53 32 56
59 36 62
56 34 60
55 33 58
57 34 62
60 37 65
65 39 71
59 35 64
61 38 66
67 41 73
68 42 75
61 36 65
68 42 74
69 43 78
64 39 70
70 43 77
68 41 74
65 41 71
65 40 71
70 43 77
73 44 81
63 38 69
72 45 80
67 41 74
70 42 76
75 46 84
66 40 74
72 44 80
81 49 91
68 42 77
79 49 90
70 44 78
72 45 81
74 47 84
78 47 87
75 46 83
76 46 85
71 43 81
71 43 79
77 48 88
73 45 83
73 45 83
73 45 83
74 46 83
80 49 90
72 44 83
73 45 83
76 46 87
80 49 91
77 47 89
81 50 93
83 51 96
74 46 86
77 47 88
76 46 85
76 47 88
75 45 84
79 47 90
81 49 91
70 44 81
76 47 88
78 48 91
76 46 90
75 47 89
75 46 85
73 44 86
72 44 84
77 47 89
75 46 88
72 44 85
75 46 87
72 44 84
71 44 86
67 42 83
73 44 86
70 43 85
70 43 85
71 42 85
68 42 81
73 45 85
66 42 81
68 41 81
62 38 76
63 39 79
85 81 107
109 120 143
115 129 152
113 126 148
109 122 144
112 123 141
114 126 147
115 128 150
120 134 156
114 128 150
116 128 150
111 125 147
113 126 147
114 127 147
113 126 148
113 125 147
114 126 147
125 138 159
114 127 149
111 123 145
117 132 154
115 127 149
121 135 159
114 127 150
114 126 148
114 127 149
112 126 149
111 126 148
114 126 148
115 129 152
114 128 151
114 128 151
110 123 148
111 124 148
112 125 148
116 129 151
117 131 156
117 131 152
115 127 150
113 126 150
116 129 151
115 129 151
109 121 144
121 136 160
118 131 152
116 131 154
108 120 144
63 74 122
40 50 111
35 44 109
36 45 110
39 51 116
36 45 112
38 49 116
40 51 120
35 45 109
37 48 113
39 49 120
41 52 124
37 48 113
42 53 123
41 53 126
39 50 120
43 55 127
41 52 123
47 60 138
43 55 131
43 55 132
52 51 122
64 49 126
71 53 127
87 53 136
100 52 138
104 49 132
116 50 139
121 44 135
122 45 134
125 44 133
127 44 135
130 46 137
124 43 132
124 44 133
129 46 139
125 44 135
129 45 139
130 45 138
129 45 138
128 45 139
132 46 140
128 45 137
129 45 138
131 46 142
130 45 139
128 45 138
129 46 138
129 46 140
129 45 139
131 46 142
131 46 140
130 46 140
130 46 141
128 45 139
131 46 141
133 47 143
130 46 140
130 46 142
132 47 143
132 46 143
132 47 144
132 47 142
132 47 143
131 47 144
129 46 141
132 46 142
129 46 141
132 47 144
131 46 142
133 47 143
133 47 142
135 48 145
132 47 144
134 47 145
129 45 140
132 47 143
135 47 144
130 46 141
131 47 144
131 47 142
133 47 144
134 47 144
132 47 143
131 46 141
133 47 145
132 47 144
131 46 142
132 47 142
131 46 140
130 47 143
132 47 144
131 47 143
132 47 144
131 47 143
131 47 143
133 47 143
131 46 141
131 47 144
134 47 144
133 47 144
131 46 142
134 47 143
132 47 143
131 47 143
128 48 146
119 47 147
121 49 154
112 48 154
117 52 166
105 51 164
103 53 171
92 51 167
91 56 180
90 58 188
84 55 180
84 54 182
88 58 191
82 54 178
79 52 170
86 57 189
88 58 190
86 57 188
87 58 189
88 58 193
86 57 188
84 55 181
84 55 179
85 57 185
86 57 187
83 55 180
86 56 186
84 55 182
87 57 186
89 59 194
83 55 181
84 55 183
87 58 189
87 57 188
88 59 193
87 58 190
84 56 183
86 57 187
83 55 181
87 57 189
84 56 184
85 56 185
84 55 183
85 56 183
87 58 190
88 59 193
88 58 193
88 58 191
87 57 187
87 58 191
85 56 183
83 54 179
91 61 198
90 61 198
84 56 186
85 56 185
84 56 184
87 58 190
87 57 189
90 60 197
91 61 197
85 57 186
91 61 198
86 57 188
88 59 194
84 56 183
92 61 197
88 58 189
89 59 194
85 56 186
88 59 191
81 54 180
88 58 192
85 57 186
90 60 196
86 57 188
86 58 190
84 56 184
87 58 192
86 58 191
86 58 188
86 58 187
85 57 186
85 57 184
82 58 177
97 87 181
119 129 175
126 142 171
130 147 169
128 145 170
126 143 167
130 148 173
132 149 173
130 147 172
128 146 169
131 149 173
130 147 171
125 141 164
128 145 167
128 146 169
130 146 170
131 150 174
128 145 168
127 143 167
132 150 173
132 149 172
130 147 171
127 144 166
130 147 171
128 145 168
126 143 166
130 147 168
132 150 175
130 147 170
130 148 171
