P3
1600 1
255
3 127 194
3 128 197
3 128 196
3 128 197
3 125 190
3 126 192
3 126 191
3 127 194
3 126 192
3 126 191
15 127 191
28 123 184
48 126 183
59 131 188
72 132 183
78 134 183
85 133 178
91 132 175
105 140 175
115 141 175
114 140 167
120 141 166
123 142 167
122 140 165
123 142 166
118 138 159
125 146 169
124 145 168
124 143 167
121 140 164
127 146 170
116 135 159
120 138 163
124 143 168
121 141 165
121 140 164
120 140 165
124 143 167
120 139 165
122 142 166
120 140 163
123 141 167
121 140 163
120 138 163
125 143 168
124 143 167
118 138 163
116 136 160
117 136 160
117 136 162
120 139 162
118 137 163
119 137 161
116 132 156
123 142 166
121 138 162
120 140 162
124 142 166
124 143 167
119 136 161
123 142 166
114 132 155
122 140 165
114 133 157
112 129 154
116 134 160
118 134 159
118 135 160
113 131 157
119 136 161
116 133 159
121 139 164
116 131 156
119 136 161
110 126 153
116 132 157
113 130 157
116 132 158
115 131 158
113 129 154
109 125 151
107 124 150
112 128 152
106 123 147
105 120 147
107 122 149
108 124 150
108 124 148
103 120 145
103 118 143
101 115 140
104 120 146
96 110 137
98 113 137
109 123 148
107 122 147
109 124 148
93 107 134
98 113 134
99 113 138
90 105 129
88 102 128
94 108 131
92 107 133
75 87 121
66 78 114
43 56 105
36 48 99
27 43 103
18 37 98
19 39 103
19 39 102
20 40 104
18 37 97
19 39 103
19 39 101
18 36 97
20 40 104
20 41 107
18 38 101
20 42 111
19 39 99
20 40 105
20 41 106
17 35 95
18 36 95
20 42 108
19 38 100
19 38 101
19 39 104
20 41 107
20 39 103
18 37 99
19 38 102
19 39 102
17 36 97
16 34 92
16 34 90
17 35 93
18 36 96
17 35 93
26 42 92
34 45 87
52 64 98
60 71 104
71 80 105
70 80 102
68 78 103
87 96 118
72 82 107
83 94 115
81 91 114
84 94 116
96 107 131
89 100 125
84 95 118
71 81 105
105 116 139
94 107 128
86 98 121
90 101 123
86 99 124
94 105 127
88 101 127
97 111 136
96 109 131
94 108 134
96 109 134
104 119 145
103 116 138
107 121 144
100 114 139
105 118 142
108 124 149
108 122 148
102 115 141
108 122 148
102 117 142
97 111 137
102 116 142
104 119 145
108 123 149
108 124 148
109 123 148
108 124 151
112 126 152
109 124 150
105 120 145
116 131 158
112 128 154
115 131 160
110 125 150
108 124 148
111 127 152
117 133 158
114 130 156
117 133 158
110 127 152
112 129 154
115 132 158
116 132 157
113 130 155
120 136 161
121 138 162
119 134 159
117 134 159
118 135 160
119 136 161
118 134 159
125 142 166
118 134 160
118 134 159
121 139 165
117 135 160
123 139 164
122 140 165
118 134 159
125 141 166
127 143 166
124 141 167
123 138 163
128 145 169
122 139 165
119 136 159
123 138 163
128 143 167
123 141 166
123 138 163
120 137 162
116 132 159
120 137 161
125 141 165
127 144 169
126 143 168
122 141 166
126 143 168
126 143 167
125 143 168
126 143 166
127 145 169
130 147 170
126 143 167
125 142 167
125 142 167
128 145 170
127 142 166
124 141 166
124 142 164
124 140 164
125 141 165
124 141 165
124 141 165
124 140 163
127 145 171
122 137 159
126 143 168
128 144 169
127 143 167
132 150 175
128 145 170
128 144 167
131 149 174
128 143 165
130 147 172
131 147 170
131 149 174
128 145 169
130 147 169
131 149 174
128 146 169
130 147 171
129 145 169
131 149 172
132 149 174
126 142 165
130 148 173
128 146 169
130 146 170
132 148 172
127 145 168
129 146 171
125 140 162
128 146 170
129 146 169
127 142 164
130 147 170
125 140 163
126 142 167
126 141 164
129 147 171
127 143 165
126 139 163
124 139 162
129 147 169
127 141 164
131 148 171
130 147 171
126 141 163
129 143 166
125 139 162
132 149 174
126 138 160
126 142 166
127 141 161
129 148 173
130 146 169
128 144 167
126 140 162
130 145 168
126 140 162
126 141 163
124 136 158
129 143 165
125 139 163
123 137 160
127 142 165
125 140 162
124 139 161
127 140 163
126 137 158
121 135 157
121 132 153
125 136 158
124 137 158
121 133 156
124 137 158
124 137 158
127 142 167
123 136 156
123 137 159
120 133 152
98 104 117
71 66 67
59 43 24
59 41 17
55 39 17
58 41 17
52 37 16
58 41 17
57 40 17
58 41 17
61 43 18
56 40 17
57 40 17
56 40 17
58 41 17
57 40 17
56 40 17
58 41 17
60 42 17
59 41 17
58 41 17
58 41 17
56 39 17
60 42 18
58 40 17
55 38 16
56 39 16
58 40 17
56 39 16
59 41 17
60 42 18
58 41 17
60 42 17
58 40 17
57 40 17
59 41 17
58 40 17
59 42 17
60 42 18
57 39 16
60 42 18
60 42 18
60 42 18
59 41 17
59 41 17
58 40 17
58 40 17
58 41 17
60 42 18
59 41 17
58 41 17
60 41 17
60 42 18
57 40 17
59 41 17
56 39 16
59 41 17
57 40 16
55 39 16
58 41 17
57 40 17
57 39 16
59 41 17
60 42 17
59 41 17
60 42 17
57 40 17
56 39 16
58 41 17
59 42 17
57 40 16
58 41 17
58 40 17
56 39 16
55 38 16
57 40 16
58 41 17
56 40 16
55 39 16
57 41 17
53 37 15
55 39 16
57 40 17
57 40 17
52 36 15
57 40 17
56 40 16
55 38 16
54 38 16
57 40 16
55 39 16
54 38 15
55 39 16
54 38 15
56 39 16
57 40 16
55 39 16
52 37 15
53 37 15
53 37 15
52 37 15
63 44 24
66 47 31
75 53 38
84 59 46
100 72 60
122 100 99
127 107 110
130 100 95
133 100 93
131 94 81
130 92 80
136 96 83
137 97 83
134 95 82
133 94 81
133 94 81
134 95 81
131 93 80
134 95 81
132 94 81
134 95 82
133 94 80
133 95 82
135 96 83
134 95 82
136 96 83
134 95 82
132 94 81
138 97 83
134 95 81
134 95 82
135 95 81
134 95 81
135 96 82
133 95 81
134 94 81
135 96 82
133 94 80
135 96 83
132 93 80
134 95 82
133 93 80
135 95 82
133 94 80
133 94 81
135 95 82
134 95 82
134 94 81
138 97 83
136 96 83
134 96 82
134 95 82
137 96 82
137 97 83
137 96 82
134 94 81
134 95 82
134 95 82
135 95 82
131 93 80
134 95 81
136 97 83
131 93 79
135 95 81
135 96 82
132 93 80
133 94 81
128 91 79
134 95 82
131 93 80
131 93 80
130 91 79
134 95 81
139 98 83
136 96 82
130 93 79
129 92 79
134 94 81
131 93 79
134 94 81
132 93 80
129 91 78
131 93 81
135 96 82
131 92 78
132 94 80
127 90 78
131 93 80
129 91 79
128 91 78
130 92 80
126 89 76
129 92 77
127 90 77
125 90 79
133 101 94
125 100 97
129 112 114
127 113 120
129 124 135
127 130 147
127 135 154
129 143 164
129 142 162
128 145 168
125 140 163
128 142 164
128 144 165
127 144 167
128 144 166
127 143 165
126 142 164
127 145 168
131 148 172
126 142 164
128 144 165
128 144 165
129 144 166
129 145 168
131 147 170
127 143 165
130 147 171
130 147 170
129 146 169
130 148 172
132 149 172
125 141 161
126 142 164
130 146 168
127 144 165
127 143 165
131 148 172
128 145 167
126 143 167
130 146 168
129 146 169
129 146 169
124 142 164
131 148 171
128 142 163
130 145 167
129 144 166
127 144 164
128 144 166
128 144 166
127 143 165
128 141 163
127 143 165
131 148 171
127 144 167
128 145 166
128 144 168
126 142 165
130 148 171
128 144 168
129 145 167
126 142 162
127 144 168
127 143 165
131 149 172
125 142 166
126 142 166
127 143 166
125 141 163
128 144 169
127 144 166
127 143 165
128 145 167
130 144 166
126 143 164
126 144 168
129 146 170
126 144 167
124 139 162
126 143 166
128 145 168
124 140 162
126 143 166
127 145 167
130 148 170
124 140 162
124 140 164
125 142 164
127 145 168
129 146 169
124 140 163
129 146 170
124 140 164
121 137 161
124 141 163
122 138 161
126 143 166
124 139 161
127 144 167
122 137 158
123 140 164
120 136 158
123 140 164
124 140 162
126 141 164
120 135 156
122 136 159
119 135 158
124 140 164
120 137 159
121 137 161
120 136 157
117 132 155
119 135 159
115 137 152
111 141 144
100 136 127
93 134 113
93 136 114
89 129 107
87 124 102
84 121 101
78 111 93
75 106 87
72 101 82
77 110 92
83 121 102
78 114 95
92 134 112
93 139 117
95 140 119
92 135 114
87 130 111
87 131 112
83 121 105
84 129 112
84 132 116
85 136 120
82 131 116
83 132 120
90 139 121
98 145 123
99 142 124
104 144 118
94 125 99
87 106 83
87 100 77
86 92 66
83 81 53
77 73 47
84 76 46
82 77 48
85 84 55
86 91 64
92 107 80
101 121 93
105 132 105
113 143 113
118 157 126
128 169 135
112 152 125
112 153 126
105 143 121
101 131 112
114 158 133
92 124 110
108 151 129
88 124 112
97 138 123
100 143 127
84 123 115
89 134 126
71 112 124
66 109 125
59 102 132
58 100 132
38 80 129
40 83 137
44 87 150
47 90 161
46 90 161
48 92 168
50 95 167
55 99 173
55 98 172
51 95 176
50 94 175
50 94 175
51 96 177
51 96 177
51 95 177
51 95 176
50 94 176
50 95 176
50 94 175
50 95 176
50 95 176
49 93 172
50 95 176
51 96 177
51 96 177
51 96 177
51 96 176
50 94 175
50 94 175
51 96 178
50 94 175
50 95 177
50 95 177
51 96 177
50 94 175
51 95 175
50 95 176
50 94 176
51 95 177
50 94 174
51 95 177
50 95 177
50 94 173
50 94 174
50 94 174
51 95 176
50 93 172
50 95 175
51 96 176
50 94 175
51 96 177
51 94 175
50 94 173
50 94 174
50 94 174
50 94 173
50 94 174
50 95 175
48 91 169
50 93 172
50 93 171
49 91 169
49 93 171
55 95 170
57 96 170
65 100 168
62 96 166
70 100 162
66 96 153
83 108 157
86 104 145
93 112 152
91 109 147
95 112 142
92 105 131
98 112 136
102 113 132
108 120 138
105 115 129
112 125 141
106 118 134
105 115 131
104 113 128
108 119 136
111 123 140
108 119 135
109 119 135
106 116 131
115 126 143
107 118 133
110 121 136
111 121 137
110 122 140
110 121 139
108 120 135
115 127 143
110 120 136
110 120 137
111 122 136
106 116 131
110 124 143
106 119 135
109 121 139
107 117 131
111 123 137
107 119 134
102 111 126
111 124 138
107 116 130
103 115 133
113 124 138
117 130 145
109 121 134
110 121 137
112 124 140
112 123 139
103 114 127
115 126 143
113 124 138
110 121 137
104 116 131
112 124 142
111 123 138
113 123 139
110 122 136
111 122 137
104 116 131
115 127 143
104 115 129
114 125 140
106 118 133
107 116 129
109 121 136
102 113 128
109 119 134
106 117 131
101 111 126
107 118 134
106 117 132
108 119 132
109 121 137
104 114 130
111 123 137
107 117 130
107 118 131
112 122 136
112 123 137
108 120 134
106 116 129
110 121 136
101 112 126
108 118 131
106 115 129
103 113 127
95 103 115
106 118 131
92 100 111
111 120 133
100 109 122
105 116 129
106 118 132
105 117 130
104 113 127
103 114 125
103 113 126
106 116 130
104 113 127
102 110 122
101 109 120
102 112 124
102 112 123
105 115 125
102 110 121
97 107 118
101 109 123
100 109 120
104 114 126
101 110 122
91 99 108
104 113 125
101 109 122
95 103 114
105 115 128
99 107 118
100 108 120
101 109 121
96 103 115
103 113 125
104 113 126
93 100 108
102 110 122
97 105 117
94 103 114
97 105 114
87 94 102
95 103 115
95 104 113
96 107 118
101 111 124
94 100 111
101 108 119
94 103 112
93 101 110
92 97 107
95 103 114
88 95 103
99 107 117
95 103 114
94 100 109
99 106 116
89 97 108
94 101 110
93 100 110
92 100 108
90 98 105
87 92 101
84 90 99
93 98 108
84 89 98
89 95 104
88 94 102
88 93 101
87 94 101
82 87 95
88 95 103
92 99 108
81 89 95
88 94 103
85 90 99
81 85 91
85 93 100
88 94 101
74 78 83
75 78 82
80 85 91
79 84 90
84 89 95
79 83 90
72 76 80
79 84 91
80 84 90
74 79 84
79 84 89
78 81 86
83 88 96
71 75 80
80 86 92
82 86 94
73 77 82
80 84 91
72 76 80
71 73 77
75 78 85
72 75 82
70 74 80
74 78 84
83 90 95
76 80 86
67 69 72
68 72 76
59 62 63
68 71 73
63 66 70
64 67 71
74 77 82
68 72 76
66 69 74
61 61 63
66 69 71
57 60 64
63 65 70
65 67 72
56 59 62
53 56 56
62 65 70
67 68 73
55 56 59
54 56 59
59 61 63
59 63 65
58 60 64
55 57 60
57 59 62
58 61 65
53 56 63
48 50 51
55 58 62
60 64 69
50 51 55
59 62 64
52 54 56
47 48 50
46 46 47
54 57 60
43 47 45
38 39 39
50 52 52
48 50 52
42 43 46
40 42 43
47 49 52
41 42 44
47 50 52
50 53 56
47 48 50
44 48 47
43 46 49
46 47 49
47 50 51
36 38 34
30 30 30
33 33 34
34 35 32
42 42 45
37 37 39
40 43 45
34 35 33
29 29 32
32 32 33
35 35 34
29 31 32
34 33 36
29 32 30
36 38 41
31 31 31
37 42 44
42 44 45
37 38 40
22 23 22
44 46 49
28 28 29
24 24 24
31 32 34
40 41 43
27 27 27
30 31 29
36 37 37
38 40 42
31 29 32
29 31 30
31 31 33
38 40 42
31 32 31
30 28 27
28 28 28
21 22 21
24 28 26
41 43 45
37 39 39
29 32 28
28 29 28
30 30 30
31 30 32
30 31 28
35 36 38
31 30 30
32 30 31
34 33 35
44 46 49
32 34 36
34 36 36
32 33 33
39 41 44
32 32 31
35 35 36
33 33 31
37 39 38
43 45 48
38 37 40
46 47 47
41 40 42
43 44 47
41 43 44
50 59 47
69 92 55
84 126 45
86 130 47
95 142 49
99 146 51
101 153 53
102 155 53
102 154 53
102 154 53
106 159 55
103 154 54
98 148 52
105 158 55
99 150 52
104 159 55
108 162 56
107 161 56
105 159 56
103 155 54
106 161 56
106 162 56
107 159 56
107 163 57
113 168 59
110 165 58
105 157 55
100 151 53
109 164 57
112 167 58
109 165 58
100 152 54
109 165 58
106 160 56
109 163 57
109 165 58
113 169 59
109 163 57
110 166 58
107 160 56
106 160 56
109 167 58
107 163 57
106 158 56
107 163 57
106 161 56
106 161 56
107 160 56
107 162 56
106 158 55
107 161 56
105 160 57
110 164 57
105 159 56
107 162 57
106 159 56
105 156 55
108 164 57
107 163 57
103 157 55
106 159 56
105 158 56
110 166 58
108 162 56
109 166 58
107 160 56
103 155 54
109 164 58
111 167 58
110 164 58
109 164 58
111 169 59
110 165 58
106 162 56
106 162 57
107 158 56
107 162 57
111 167 58
107 161 56
109 164 58
109 163 57
107 159 56
108 162 57
108 161 57
108 164 58
110 166 59
109 161 57
107 158 56
111 165 58
109 166 58
102 153 54
111 167 59
100 151 53
107 160 56
108 162 56
107 161 56
107 161 56
107 159 57
108 161 56
100 152 53
106 159 56
111 163 57
109 162 57
113 168 59
107 160 56
109 164 58
111 166 59
105 157 56
108 162 57
109 163 58
103 152 54
100 148 53
106 159 56
102 151 54
108 161 57
98 145 52
97 147 52
107 158 56
104 156 55
104 155 55
102 151 54
97 139 63
94 124 79
90 108 91
90 98 102
87 90 100
77 82 89
87 93 102
84 88 98
80 84 93
78 82 90
87 92 103
86 90 101
87 91 100
93 97 109
88 93 104
84 90 99
93 101 111
81 84 94
90 95 107
91 95 105
81 85 96
87 92 101
87 91 102
82 86 97
85 89 100
81 86 96
87 92 103
91 96 108
84 91 99
82 87 98
92 97 109
83 87 99
80 83 93
91 95 107
75 77 85
81 84 93
82 86 95
78 80 92
90 94 107
85 86 98
84 89 100
77 80 89
83 86 97
78 80 91
78 82 93
84 87 97
94 100 113
80 83 94
86 91 102
78 82 94
84 87 100
76 77 88
78 81 94
75 78 90
79 81 92
84 88 100
76 78 91
80 82 94
83 88 100
68 69 79
67 70 82
74 75 87
74 75 87
78 81 93
63 63 77
57 54 70
50 39 54
47 29 50
50 30 54
47 28 50
52 31 57
50 30 55
51 31 57
54 32 60
53 31 58
53 33 60
57 35 64
57 35 64
55 33 62
57 34 64
62 37 69
56 34 61
62 37 70
53 30 58
56 34 62
62 38 70
55 33 63
63 39 71
61 37 67
58 36 67
64 39 74
65 40 75
57 33 63
51 31 58
59 37 68
63 39 73
60 37 69
62 37 70
67 41 77
59 36 68
59 36 70
62 39 72
61 38 71
66 41 77
59 36 66
65 39 74
60 37 70
65 39 74
60 37 71
62 37 71
63 39 75
60 36 71
62 38 72
58 34 68
57 35 69
63 38 75
54 31 63
61 37 74
59 36 72
71 61 88
81 81 103
87 91 113
93 100 119
98 107 126
93 100 119
96 106 126
90 98 117
95 105 126
96 106 130
96 104 126
92 101 123
98 107 127
98 109 130
90 98 117
92 101 121
96 106 125
97 106 129
107 119 141
100 110 132
94 104 125
95 105 129
97 107 129
96 106 129
95 103 126
97 109 130
96 108 129
95 103 124
96 106 129
101 112 133
102 113 133
98 109 131
103 114 136
102 112 133
88 96 117
104 114 134
94 104 127
96 106 127
87 94 120
95 105 127
98 108 131
101 112 135
92 100 120
97 109 130
105 115 136
98 108 128
96 106 128
80 87 109
86 94 116
94 103 125
94 104 125
99 112 135
87 95 116
88 96 116
88 96 114
91 100 121
81 88 110
90 98 120
81 87 110
85 94 114
83 92 115
78 84 105
85 92 113
84 92 112
78 83 105
82 89 110
72 79 102
76 81 103
75 82 105
70 75 100
77 85 107
82 91 111
74 80 102
78 82 106
79 71 104
96 77 118
97 70 115
103 56 116
116 58 126
118 50 127
117 41 123
123 43 129
123 43 128
123 44 132
121 42 127
122 42 127
122 43 131
123 43 130
120 42 125
127 44 135
122 43 131
126 43 131
121 42 128
127 44 133
126 44 134
124 44 132
129 45 136
125 44 135
126 44 134
124 43 132
124 44 134
128 45 135
125 44 133
125 43 132
124 44 135
126 44 134
130 45 138
133 47 142
125 43 131
130 46 140
127 44 136
129 46 139
128 44 136
130 46 140
131 46 140
124 44 135
128 45 138
129 45 138
128 45 138
129 45 138
129 45 138
127 44 134
130 45 139
130 45 139
127 45 137
129 45 139
130 46 139
126 44 136
132 46 140
126 44 136
127 45 138
128 46 139
129 45 138
131 46 140
132 46 142
128 45 138
130 46 140
127 44 135
127 44 135
127 45 137
126 44 135
132 47 142
131 46 140
129 45 138
125 45 137
131 46 141
125 45 136
129 45 137
132 46 141
127 45 136
132 46 141
132 46 141
130 46 140
128 45 138
129 46 139
131 46 140
128 45 137
127 45 136
128 45 138
129 45 138
133 47 143
126 44 136
131 45 138
130 45 138
130 46 139
127 45 139
131 46 141
128 45 136
128 45 139
132 47 142
128 45 139
127 45 137
131 46 139
125 44 131
129 46 138
130 46 139
127 45 136
130 46 139
129 45 137
126 44 132
130 46 139
130 46 138
126 44 136
127 45 138
118 47 149
110 48 152
108 50 159
104 51 164
95 53 171
83 52 171
80 52 169
79 52 170
84 56 182
77 50 169
78 51 169
85 56 184
76 51 168
79 52 172
84 56 185
83 55 181
82 54 179
78 51 170
81 53 173
84 56 184
84 55 181
80 53 176
82 54 177
81 53 175
84 56 183
77 52 170
83 54 183
81 54 176
83 55 180
83 54 180
83 54 177
77 51 170
80 51 172
84 56 184
86 57 186
80 53 175
83 55 181
82 54 178
81 54 179
81 53 177
82 54 179
83 54 179
80 53 174
80 54 174
83 55 183
80 53 175
79 52 171
81 55 178
79 53 176
81 54 177
82 54 179
85 56 184
83 55 179
80 54 176
80 54 177
80 54 176
79 52 171
79 53 174
80 54 178
84 56 184
83 55 180
82 54 179
79 53 176
80 54 176
84 56 182
82 57 177
93 82 179
111 116 169
123 134 177
126 142 168
129 146 171
130 146 169
131 149 173
129 147 173
128 146 169
128 145 169
129 146 172
128 145 170
129 148 172
131 147 171
130 147 173
131 149 176
131 148 172
128 145 171
131 149 174
129 146 169
133 151 176
130 148 172
134 152 176
131 149 172
128 146 171
124 140 164
130 147 170
132 149 172
132 150 173
133 151 175
131 148 172
130 148 172
129 146 170
131 149 173
