P3
1600 1
255
3 126 192
3 127 194
3 124 189
3 125 191
3 127 192
3 127 194
3 122 185
3 125 191
3 125 191
3 126 191
3 125 189
3 119 182
3 123 188
3 127 193
3 126 192
3 127 193
3 126 190
3 125 189
3 126 192
3 124 188
14 123 183
19 124 185
47 123 181
64 124 175
82 132 177
84 127 168
97 135 175
106 135 166
109 136 170
116 137 164
123 142 166
121 139 164
118 136 162
118 137 162
120 139 162
121 139 166
116 135 158
119 138 162
117 136 160
116 135 159
119 137 161
117 136 160
119 137 160
121 140 166
122 142 165
122 141 166
126 144 168
119 136 161
114 133 160
118 136 161
120 137 163
122 141 165
113 130 157
121 138 165
119 137 163
114 132 156
118 137 162
120 138 164
117 134 159
117 135 160
103 119 145
114 130 156
110 128 152
116 133 157
109 126 152
106 124 151
105 120 145
113 129 153
114 129 154
105 121 148
104 121 148
108 124 151
103 120 147
103 117 143
106 122 147
110 126 151
107 123 147
108 124 149
107 122 147
96 110 136
105 120 145
93 107 134
101 116 141
105 121 147
103 119 142
107 121 146
90 105 128
108 123 146
90 104 130
77 89 116
90 103 127
95 108 134
89 102 126
83 96 120
83 96 120
80 92 120
80 92 117
88 100 123
75 90 112
85 96 119
85 97 120
71 82 104
77 89 111
72 81 106
62 72 98
67 79 102
80 92 114
69 80 102
53 62 81
59 68 94
52 61 84
61 69 87
59 69 86
70 81 98
64 73 91
64 74 93
46 53 74
59 67 87
57 68 84
47 56 75
39 45 63
63 70 88
50 57 79
46 53 73
47 56 74
42 47 71
51 55 74
53 60 82
59 67 86
51 58 78
65 70 90
64 73 95
65 73 90
37 43 69
63 73 89
61 70 88
59 66 89
70 81 99
58 66 88
71 81 104
71 81 104
68 76 97
56 65 88
67 75 97
70 79 103
71 79 105
68 77 99
77 88 110
80 90 112
81 91 112
85 95 120
87 97 120
79 89 114
79 89 113
87 99 122
90 104 129
88 100 125
90 102 129
86 99 125
82 95 118
93 106 131
99 114 139
92 106 131
96 109 134
92 105 134
101 114 140
91 102 127
98 113 137
102 117 139
102 116 138
105 119 145
102 116 139
108 121 147
113 128 152
94 106 131
103 117 143
102 117 143
98 111 138
107 121 146
102 117 143
107 121 148
116 131 158
112 127 152
113 129 152
113 130 157
112 127 153
110 125 151
116 130 155
114 131 157
106 122 148
105 119 145
117 132 158
116 132 156
116 133 159
114 128 153
116 133 160
121 139 163
118 135 159
116 130 154
122 139 164
120 136 161
119 135 160
122 139 163
120 136 162
114 131 156
118 134 160
119 137 158
121 137 159
126 145 170
123 140 164
125 143 170
115 131 156
125 141 165
122 139 164
121 137 162
128 146 172
123 140 165
116 133 158
122 139 166
121 138 162
124 139 164
127 145 169
126 143 168
124 141 165
128 146 172
127 145 170
129 148 172
124 141 166
121 139 165
121 137 164
123 140 165
126 143 166
127 145 170
128 146 170
123 141 166
126 144 169
126 144 169
123 140 167
122 141 166
130 148 172
127 144 169
129 147 171
128 146 171
123 140 164
128 146 171
128 147 171
127 143 167
130 148 173
128 146 170
128 146 172
126 142 166
129 144 168
125 142 166
130 145 170
124 138 161
128 146 171
130 149 173
126 142 166
128 145 169
127 145 166
128 146 171
126 142 165
129 147 171
125 143 168
125 141 164
130 147 171
124 141 163
131 150 174
129 147 171
129 146 169
128 144 167
129 145 168
129 145 170
127 144 169
129 145 168
127 143 165
128 145 169
128 145 169
128 145 168
128 145 168
130 148 172
123 140 165
127 145 167
129 147 169
129 145 169
126 142 165
125 139 162
129 146 170
130 145 167
119 135 158
125 140 165
127 144 167
126 142 164
122 140 163
131 148 172
127 143 167
129 145 169
130 147 171
128 146 170
125 140 165
127 143 166
126 142 164
127 144 167
123 138 160
127 141 163
128 143 166
131 145 169
122 138 161
123 138 161
128 143 166
126 140 163
127 143 166
127 141 163
122 134 156
127 144 167
126 141 164
122 137 159
127 143 167
124 138 159
126 142 163
126 140 161
125 139 162
125 142 164
127 140 163
126 138 160
130 143 165
127 141 164
128 143 165
126 141 164
129 144 166
124 139 160
123 134 156
123 135 158
126 141 165
121 134 155
107 116 134
85 86 94
63 57 54
53 37 16
48 34 14
54 38 16
57 40 17
51 36 15
54 38 16
51 36 15
56 39 16
57 40 17
56 39 16
55 39 16
57 40 17
54 38 16
58 41 17
56 40 17
53 37 15
56 39 16
56 39 16
53 37 16
54 38 16
58 40 17
57 40 17
56 39 16
55 39 16
54 38 16
55 38 16
55 39 16
56 39 16
55 38 16
59 41 17
53 37 15
54 38 16
53 37 15
57 40 17
57 40 17
53 37 15
55 39 16
53 37 15
58 41 17
54 38 16
53 38 16
56 39 16
57 40 17
56 40 16
56 39 16
57 40 17
54 37 16
53 37 15
57 40 16
56 39 16
53 37 15
60 42 17
57 40 17
54 39 16
55 38 16
55 38 16
54 38 16
57 40 16
57 39 16
55 38 16
54 37 16
56 39 16
55 39 16
55 38 16
53 37 15
54 38 16
50 35 14
56 39 16
53 37 15
54 38 16
55 39 16
53 38 16
53 37 16
52 36 15
52 37 15
55 39 16
49 34 14
51 36 15
54 38 15
52 37 15
51 36 15
50 35 14
49 35 14
52 37 15
49 35 14
49 35 14
50 35 15
51 36 15
53 37 18
70 50 35
79 55 41
99 70 56
103 72 59
112 80 67
120 86 74
128 93 83
129 91 79
133 93 79
131 93 79
130 92 79
133 94 81
130 92 79
134 94 80
131 92 79
128 92 79
133 94 81
130 92 80
134 94 80
131 93 80
131 92 79
131 93 81
133 93 80
133 94 80
134 94 81
135 95 81
137 96 82
134 94 81
131 92 79
132 93 80
130 92 79
136 96 82
136 96 82
132 93 79
130 92 79
131 93 80
135 95 81
133 94 81
133 94 80
131 92 79
129 91 78
134 94 81
132 93 80
133 94 81
132 94 80
133 94 80
134 95 81
133 94 81
131 92 79
136 96 82
133 94 80
132 93 80
133 94 81
135 95 81
132 93 80
131 93 80
133 94 80
136 95 81
131 93 80
130 93 80
135 95 81
133 93 80
132 94 81
132 94 81
136 96 82
131 93 80
134 95 81
129 91 79
136 96 82
128 90 78
133 94 80
132 93 80
133 93 80
133 93 80
133 94 81
134 95 81
131 93 80
136 95 82
132 93 80
132 94 81
132 94 80
132 93 80
127 90 78
132 93 80
129 91 78
130 91 78
133 94 80
131 93 79
129 90 77
127 90 78
127 90 77
135 95 81
124 89 78
127 90 78
127 91 78
128 90 77
127 90 78
124 88 75
127 90 76
123 88 76
126 90 78
126 89 76
126 90 76
123 88 76
124 88 76
126 90 77
124 91 82
126 97 92
124 99 94
125 114 122
119 115 124
130 132 148
126 135 154
129 142 163
133 149 172
129 147 169
124 139 161
127 144 167
128 145 166
129 146 169
130 147 169
130 146 168
129 146 169
127 144 167
128 144 166
127 143 164
128 144 168
129 146 170
127 143 167
129 145 168
124 139 159
126 142 162
127 144 166
128 145 168
131 147 170
129 145 168
129 146 169
127 144 168
129 146 169
126 143 166
127 143 166
129 147 170
126 145 168
129 147 171
130 148 169
128 147 170
125 141 164
130 148 172
130 146 168
126 142 165
130 147 169
127 143 164
125 142 163
129 146 168
129 146 170
123 138 160
123 138 159
122 138 160
123 139 162
129 146 168
125 140 161
125 141 164
128 145 168
129 146 169
126 143 165
129 146 168
127 144 166
126 143 164
128 145 168
125 141 163
127 145 167
123 140 163
125 141 163
124 139 161
126 141 162
124 140 162
124 141 164
128 145 166
121 137 159
128 145 168
130 148 171
126 143 166
126 143 165
123 138 160
129 146 168
125 141 162
128 144 166
126 144 166
123 138 161
121 137 157
127 143 165
130 146 169
123 140 161
125 141 162
120 137 159
124 141 161
120 137 158
126 142 164
125 142 164
125 141 163
126 143 166
123 138 161
126 143 165
124 141 165
124 142 164
125 141 163
124 140 160
123 139 161
124 140 162
125 142 164
127 144 167
118 132 154
119 134 156
125 141 164
124 140 161
116 134 153
114 138 147
103 142 132
97 141 120
98 143 121
96 142 119
98 145 121
93 139 116
92 135 112
93 136 112
95 141 118
93 139 115
95 139 117
99 146 122
95 140 117
97 143 119
97 143 119
100 147 123
100 149 125
98 145 122
98 144 120
100 149 125
97 144 120
97 142 119
96 139 116
96 142 118
94 140 116
96 143 120
94 137 114
96 141 118
90 127 105
84 120 99
82 116 95
86 118 96
77 107 89
81 112 92
79 108 89
78 110 90
80 110 91
79 110 90
84 121 101
89 127 106
88 128 107
92 133 111
94 137 114
95 140 117
93 136 114
92 136 126
90 135 123
85 127 128
76 117 131
79 121 139
76 118 143
66 108 158
58 100 162
58 101 166
50 92 167
50 94 172
49 92 171
49 93 171
48 91 168
50 93 172
50 94 174
50 93 173
51 95 175
50 93 171
49 93 173
50 94 173
50 94 175
50 93 172
49 93 173
49 92 172
50 93 172
51 94 174
50 94 174
49 93 173
50 94 173
49 92 170
50 95 176
50 94 175
49 93 173
51 95 175
50 94 174
50 94 176
50 95 176
51 95 176
49 93 172
50 94 174
51 95 175
50 94 174
51 95 176
50 94 173
50 94 174
51 95 175
50 93 171
49 93 172
50 94 173
50 94 175
50 93 174
50 94 174
49 92 170
50 94 174
50 94 175
50 95 175
49 93 173
50 93 173
50 95 175
50 94 174
50 95 175
50 94 175
50 94 175
49 92 168
49 90 168
50 93 173
50 94 173
50 94 174
50 94 175
50 93 172
50 94 174
52 96 176
51 95 175
50 92 171
50 94 174
50 94 172
51 95 175
49 92 170
50 94 174
50 93 171
49 92 170
48 90 165
49 91 169
48 90 166
48 92 171
49 92 168
49 91 167
49 91 167
51 93 169
53 91 163
56 94 164
77 107 167
71 98 153
78 101 149
89 111 157
94 113 151
100 117 150
99 113 136
114 127 149
112 123 140
112 123 139
115 127 146
109 122 139
115 126 142
117 131 148
106 116 130
110 121 136
111 123 141
113 126 144
113 124 142
109 121 137
108 119 135
117 131 150
112 123 137
115 128 144
112 122 137
113 125 142
107 118 133
113 126 143
116 128 147
114 127 141
117 129 146
107 119 134
116 128 144
111 125 141
110 122 138
110 120 134
107 120 134
108 119 133
114 125 141
109 121 137
112 125 140
107 118 134
111 122 137
110 121 135
111 122 137
113 125 140
115 127 144
111 123 138
112 124 140
110 121 136
116 129 145
113 125 141
113 125 142
114 124 138
113 125 140
108 120 136
103 112 125
112 121 136
113 125 140
104 115 127
116 127 141
110 121 134
107 118 132
111 121 135
106 116 131
108 120 135
110 120 134
113 124 138
108 121 135
109 119 134
111 123 137
104 113 126
106 117 132
112 123 138
106 116 129
103 114 127
106 116 131
102 112 125
112 123 138
107 116 129
109 119 133
107 118 133
113 124 139
105 114 127
104 113 128
108 118 133
105 115 128
109 120 131
110 122 138
107 116 129
109 119 131
109 119 133
104 113 124
104 114 127
102 112 124
103 110 123
106 116 129
105 116 130
104 115 127
110 121 134
104 113 126
106 115 126
101 111 124
101 108 120
106 115 130
98 105 115
102 112 123
100 109 120
111 122 134
107 117 130
101 109 122
98 107 120
97 106 118
102 111 123
105 115 128
102 111 123
107 117 131
102 110 123
105 115 126
98 108 117
94 102 111
92 100 110
98 105 115
106 116 130
101 109 119
105 115 126
98 107 119
101 111 125
97 107 116
93 100 109
97 105 117
93 102 111
101 109 122
101 110 123
95 103 113
95 104 112
88 95 102
94 101 111
92 99 108
94 102 111
96 102 113
89 95 103
88 93 101
91 100 110
93 102 109
94 100 110
94 101 111
100 108 118
92 99 108
99 107 118
95 103 113
99 109 120
87 93 100
87 93 101
80 85 92
91 98 108
77 84 90
94 103 113
92 99 108
85 92 100
82 87 94
91 98 107
86 92 100
89 96 104
88 94 101
89 95 103
95 102 112
91 98 107
89 94 103
91 97 104
82 88 96
84 88 96
84 90 97
89 95 104
83 89 95
84 90 94
80 87 92
88 95 100
85 91 100
83 89 96
77 82 88
81 87 93
80 86 93
88 93 102
79 86 92
78 82 87
77 82 87
85 91 99
81 87 92
71 76 80
81 86 94
72 76 81
81 86 93
79 84 90
70 74 77
80 86 92
70 75 80
71 74 79
83 88 95
69 73 77
76 82 87
80 84 90
66 70 75
73 76 82
73 76 82
61 65 67
64 67 72
67 70 72
84 91 99
68 73 78
74 78 82
71 75 79
64 67 70
70 75 79
68 72 78
72 76 81
68 70 71
69 74 78
69 72 75
74 79 83
71 75 80
61 64 68
73 77 83
55 58 56
62 66 65
65 69 71
64 66 67
67 71 73
62 66 69
63 66 70
64 66 68
68 73 80
57 60 62
65 67 72
63 67 70
73 78 82
61 65 68
59 61 64
71 76 82
61 63 66
61 65 69
65 69 72
65 69 72
53 55 56
54 54 56
49 50 53
62 66 68
56 59 57
49 50 51
64 67 73
52 53 54
59 62 67
56 57 62
48 50 49
67 73 77
53 55 58
56 57 60
60 63 68
55 56 59
53 55 58
57 59 62
51 54 55
57 59 62
54 58 60
58 62 66
51 52 55
62 64 69
53 55 55
63 66 71
51 53 53
63 67 70
55 58 60
61 64 67
46 48 50
58 61 65
60 62 64
58 60 63
62 65 67
54 57 59
58 59 59
56 58 62
51 52 53
57 61 62
51 53 56
58 61 64
63 65 69
64 66 71
58 60 63
63 66 68
60 64 65
60 63 67
58 61 64
56 60 62
61 63 67
60 63 64
62 65 70
70 81 71
76 105 57
85 125 51
94 141 48
99 149 51
98 149 52
98 149 51
93 140 48
99 148 52
98 149 52
95 144 50
102 154 54
100 153 54
101 151 52
101 155 53
103 155 53
98 146 51
99 150 53
106 161 56
101 153 53
104 155 53
103 155 54
105 158 56
105 160 56
104 156 54
110 166 58
100 151 53
97 146 52
100 151 52
104 157 55
105 158 56
104 157 55
105 158 56
110 166 58
103 154 54
106 161 55
105 158 55
107 160 56
106 160 56
110 167 58
103 156 54
102 155 54
106 161 56
110 164 58
107 161 57
108 163 57
102 155 54
108 163 57
104 156 54
103 155 54
105 160 56
106 158 55
103 156 55
103 155 54
106 160 56
102 155 54
107 160 56
107 161 57
103 156 54
108 163 57
105 157 56
109 164 57
105 159 56
106 159 56
109 162 57
110 165 57
107 162 56
105 158 55
102 152 53
104 158 55
103 155 55
105 158 55
103 155 54
106 160 56
105 156 54
111 167 58
108 163 57
102 152 54
105 158 55
104 153 54
102 155 54
104 154 55
111 166 58
101 153 54
104 156 54
103 155 55
105 160 56
107 160 56
104 156 55
106 158 55
104 157 55
106 160 56
101 152 54
104 155 54
106 158 56
100 150 53
108 162 57
110 164 58
106 160 57
107 160 56
104 156 55
105 156 55
105 157 55
106 156 55
106 156 56
105 155 55
102 152 53
99 147 51
105 158 55
98 147 52
105 158 56
102 152 53
101 149 53
97 145 51
98 145 52
102 151 54
105 157 56
103 154 55
100 148 55
94 137 59
100 138 78
91 113 87
85 95 93
93 101 111
83 86 95
85 88 99
93 99 110
88 94 105
79 82 92
93 100 111
86 91 100
93 99 108
94 98 110
76 81 89
80 84 93
85 90 100
83 88 100
80 81 88
76 80 91
87 92 103
85 90 102
88 93 103
82 86 96
73 75 83
76 80 91
86 89 99
85 90 99
80 82 92
82 87 98
80 86 95
75 80 88
73 74 85
68 69 78
77 80 89
82 87 98
74 77 85
71 72 79
86 90 101
74 78 89
72 76 86
76 80 90
77 78 88
68 71 79
71 72 81
72 75 82
79 84 95
72 74 85
72 74 81
79 83 92
79 84 94
68 69 79
70 72 80
70 71 79
72 75 86
68 70 79
63 64 74
70 74 84
67 68 76
60 62 70
65 66 75
64 67 75
60 60 68
54 54 63
60 63 69
44 43 50
62 62 72
47 45 51
54 53 61
40 38 43
52 53 61
39 36 44
52 51 58
47 49 55
46 43 50
52 53 61
39 33 42
58 58 65
31 29 33
43 43 49
42 41 48
44 44 51
47 49 53
25 16 27
29 27 33
33 27 36
38 35 42
52 55 62
45 46 51
34 33 40
34 33 38
36 32 39
36 38 44
35 34 42
46 45 54
39 39 47
42 42 50
40 36 49
41 41 52
46 45 55
41 39 54
46 47 59
51 53 66
50 50 67
55 55 72
56 55 67
57 59 74
54 54 69
61 62 77
56 56 73
62 64 80
61 62 80
66 68 83
53 52 69
75 78 95
63 67 87
73 77 93
73 77 96
75 79 96
79 85 106
72 75 93
83 91 110
65 67 87
72 74 93
82 87 106
81 86 107
74 78 100
86 94 114
79 87 104
93 104 126
92 100 121
85 92 112
86 95 118
83 91 113
94 103 127
95 104 125
93 103 124
86 92 114
90 99 121
91 101 123
101 112 135
91 100 121
97 108 129
95 105 128
97 107 130
94 105 127
99 111 133
89 99 120
89 100 122
96 106 130
99 109 133
91 100 123
93 102 128
94 102 127
95 106 128
93 103 126
98 110 131
99 112 135
94 104 128
102 115 137
94 102 124
86 94 117
92 101 124
94 104 128
86 94 115
93 102 125
97 108 132
84 91 115
98 107 129
91 102 125
91 101 124
85 91 114
98 107 129
84 91 113
92 102 126
96 107 130
90 100 125
93 103 128
85 92 114
87 96 118
89 98 119
93 103 125
81 90 116
81 87 106
86 94 114
84 91 113
83 90 113
83 90 116
72 76 102
71 74 100
82 74 104
96 76 121
93 56 106
108 59 119
116 51 123
121 42 126
119 42 124
118 42 125
120 42 125
123 43 129
122 43 129
117 41 125
121 42 127
123 43 129
122 43 129
121 42 127
117 41 123
120 42 126
122 43 130
126 44 135
123 43 132
125 43 130
124 43 130
116 41 124
124 44 133
126 44 133
131 46 138
124 43 130
125 43 132
122 43 131
120 42 126
128 45 138
127 44 134
126 44 134
127 45 136
125 44 135
124 44 133
125 44 133
124 43 133
127 44 135
124 43 131
122 43 130
127 44 135
126 44 135
126 44 134
128 45 137
126 44 135
123 43 131
126 44 133
127 44 135
123 42 130
129 45 138
126 44 135
121 42 129
122 42 130
124 44 133
130 45 137
125 44 133
127 44 134
127 44 135
128 45 137
128 45 136
130 45 138
127 44 134
127 44 135
126 44 136
125 44 133
127 45 136
128 45 136
129 45 137
127 45 136
130 46 140
125 44 135
125 44 133
126 44 135
128 44 136
127 44 136
126 44 135
128 44 136
124 43 130
129 46 139
131 45 138
126 43 133
127 45 135
128 45 136
126 44 134
125 43 133
127 45 136
128 45 138
127 45 136
125 43 131
130 45 136
127 44 134
128 44 134
131 46 140
125 44 134
126 44 134
130 46 139
126 44 135
128 45 136
126 44 134
127 44 134
127 45 137
123 43 130
126 44 133
127 44 136
128 45 137
126 44 132
124 43 133
130 45 137
125 44 134
127 44 136
130 46 138
128 45 136
126 44 132
128 45 136
126 44 133
121 43 129
121 43 133
113 46 142
112 47 149
100 48 151
93 45 150
88 50 165
79 49 161
77 50 168
71 46 156
80 52 174
78 51 171
77 51 169
79 52 175
79 52 170
76 50 166
79 52 172
75 50 165
79 52 173
77 52 171
80 53 174
74 50 164
72 48 157
76 50 168
79 52 173
77 50 166
77 51 170
77 51 168
82 55 179
79 52 171
77 51 169
77 51 169
79 52 175
79 53 175
79 53 177
83 55 178
79 53 173
75 49 164
82 54 178
79 52 170
83 56 183
77 51 169
79 53 173
72 48 160
76 51 168
77 52 169
76 50 168
80 53 177
80 53 173
78 53 173
75 50 168
79 52 174
75 50 165
75 50 165
76 51 169
78 52 173
76 50 167
79 52 173
77 57 164
98 97 168
109 113 175
127 143 174
123 139 167
126 143 167
130 148 175
130 148 172
127 144 169
130 148 172
130 147 172
123 139 165
131 148 174
127 144 168
129 146 170
131 148 171
131 148 173
131 148 174
126 142 166
128 145 170
130 147 171
128 145 172
130 148 172
127 144 169
131 149 173
126 143 168
127 144 170
131 148 172
128 145 170
130 147 172
131 147 171
129 147 171
128 145 169
128 144 168
128 145 170
130 148 172
127 144 170
130 148 172
130 148 172
