P3
1600 1
255
3 126 192
3 125 191
3 123 188
3 125 189
3 125 190
3 125 189
3 122 186
3 125 191
3 126 192
3 120 183
3 121 184
3 121 184
3 126 191
3 122 186
3 125 190
3 129 195
3 126 191
3 126 189
3 123 188
3 123 186
3 123 186
3 125 189
14 123 186
36 125 185
41 123 183
56 120 172
78 130 178
94 134 174
100 134 169
106 136 171
117 140 169
115 137 162
120 138 164
117 135 161
123 142 166
124 144 168
115 135 158
121 139 164
116 135 159
116 136 161
115 133 159
120 140 163
119 137 160
119 138 163
121 142 164
123 142 167
126 143 168
122 139 164
115 133 160
117 135 159
111 129 155
118 135 160
119 138 163
113 132 157
114 133 157
119 137 163
115 133 158
119 136 161
116 133 158
112 129 154
118 135 159
114 132 156
114 131 156
110 128 153
107 123 148
110 127 151
107 122 147
111 127 152
110 127 152
109 126 155
108 125 149
110 128 152
110 126 153
110 126 152
103 120 145
108 124 149
112 129 154
106 120 146
110 125 150
101 115 140
109 124 148
101 117 142
104 119 145
98 113 137
107 123 147
101 115 140
91 104 129
93 108 133
94 107 134
90 104 129
95 111 134
95 109 135
92 104 131
91 105 129
92 105 129
88 102 126
94 107 132
88 101 126
89 103 126
80 92 121
89 100 123
85 98 120
85 97 122
73 85 108
74 85 111
82 94 120
74 85 108
76 89 112
76 88 112
80 92 114
62 71 94
68 77 103
63 72 97
75 86 107
65 75 101
67 77 98
72 84 107
55 65 87
70 81 103
72 82 104
73 82 106
63 72 98
67 79 102
70 82 104
58 69 93
66 75 96
74 82 103
71 78 100
81 92 112
67 73 95
77 86 109
69 78 102
73 84 107
81 92 117
72 83 107
77 88 112
66 76 101
81 92 113
78 89 111
85 98 122
75 85 109
89 101 127
71 82 106
79 89 113
79 87 109
78 91 117
86 99 124
81 91 112
97 110 135
88 100 122
89 102 127
89 102 126
92 105 130
87 100 126
93 106 131
95 109 134
100 114 140
101 115 141
101 115 142
97 111 137
94 105 129
102 115 141
97 109 135
107 123 148
103 118 142
104 117 143
113 129 154
110 124 149
108 124 149
104 120 148
114 129 154
108 123 151
108 122 145
114 129 154
112 128 153
108 124 149
102 116 142
105 120 147
114 131 158
108 123 148
110 127 153
118 134 160
110 125 150
114 130 156
114 131 158
119 136 161
109 125 152
121 138 164
116 132 157
118 134 160
116 134 160
122 139 163
119 134 159
121 138 165
118 136 161
122 138 164
116 133 158
118 135 160
120 137 162
118 135 161
119 134 158
124 141 166
117 134 159
120 136 162
122 138 162
127 144 169
123 139 163
121 138 164
123 140 163
119 136 162
124 142 166
122 139 165
122 137 161
122 140 164
121 139 165
125 142 165
128 144 168
126 141 164
131 147 172
126 142 167
124 141 165
125 142 167
126 143 168
124 140 163
122 138 164
126 144 169
126 142 167
121 139 165
130 148 172
121 136 162
121 137 161
125 141 166
127 145 170
123 141 167
125 143 168
125 142 167
130 148 173
125 143 166
127 143 168
127 145 168
131 148 173
128 146 171
120 137 163
128 144 169
128 145 171
128 146 171
123 139 162
121 137 161
126 142 163
130 147 172
127 145 168
126 143 166
126 142 166
129 147 172
125 140 162
129 145 169
127 145 170
127 143 167
132 150 175
126 143 166
126 143 168
132 149 173
129 145 168
128 145 169
127 143 165
131 147 172
126 144 169
129 147 170
126 144 167
128 144 167
128 145 168
130 148 172
129 147 172
127 142 166
127 143 165
130 145 169
130 148 173
127 143 167
127 141 165
127 145 170
128 144 167
126 142 166
126 142 166
130 148 172
125 141 165
130 147 170
125 141 165
131 148 171
125 140 163
130 146 170
128 143 166
128 146 170
131 149 174
127 145 169
128 145 168
128 145 170
127 145 168
128 141 163
128 144 166
126 143 167
130 145 168
124 136 159
123 138 161
128 144 167
128 144 167
127 142 165
127 143 167
123 140 163
122 134 155
124 140 164
126 141 162
127 142 164
129 145 169
125 142 165
126 138 161
127 144 168
124 139 162
126 141 164
125 142 165
127 143 166
126 143 166
128 144 167
123 138 160
126 143 165
126 141 165
125 141 163
124 136 157
125 140 163
125 138 160
121 136 158
127 143 165
122 138 160
128 142 165
123 135 156
122 136 158
120 135 158
113 123 142
96 101 114
73 70 74
55 44 35
50 36 15
53 38 16
56 39 16
51 36 15
56 39 16
53 37 16
55 39 16
54 38 16
57 39 17
53 37 16
54 38 16
55 38 16
56 39 16
55 38 16
55 39 16
53 36 15
54 38 16
53 37 16
56 39 16
56 39 16
51 36 15
57 40 16
54 38 16
57 39 16
57 39 17
52 36 15
57 40 17
55 38 16
55 38 16
53 37 16
54 38 16
56 39 16
55 38 16
55 39 16
54 38 16
57 40 17
53 37 15
55 39 16
54 38 16
53 37 15
54 38 16
54 38 16
57 40 17
54 37 15
54 38 16
55 38 16
53 37 15
54 38 16
53 37 16
58 40 17
57 40 16
57 40 16
53 37 15
56 40 16
56 39 16
55 38 16
55 38 16
57 40 16
52 37 15
54 38 16
51 35 15
56 39 16
52 36 15
53 38 15
49 35 14
53 37 15
52 37 15
51 36 15
52 36 15
57 40 16
51 35 15
54 38 16
56 39 16
51 35 14
51 36 15
53 37 16
51 36 15
52 37 15
52 37 15
50 35 15
50 35 15
52 36 15
52 36 15
51 36 15
50 37 15
58 40 23
66 46 32
79 57 42
91 64 52
105 74 61
118 84 71
125 90 79
129 92 80
131 93 80
129 91 78
127 91 78
131 92 79
131 93 80
134 95 82
131 93 80
130 92 79
130 92 80
132 94 81
134 95 81
131 92 79
132 92 79
132 92 79
131 93 79
133 94 80
131 93 80
131 92 79
132 94 81
132 94 80
129 92 79
134 94 81
129 91 78
135 95 81
130 91 78
131 92 79
133 94 81
132 93 80
130 92 79
133 94 80
129 91 78
133 94 81
132 93 80
134 95 81
128 90 77
133 94 80
130 92 78
135 95 81
132 93 80
133 94 81
133 94 80
135 95 81
133 94 81
134 95 82
132 93 81
136 95 81
132 93 79
130 92 78
133 93 80
133 94 80
134 94 80
131 93 80
134 95 81
135 94 81
129 91 79
135 95 81
132 93 80
131 92 79
134 94 80
131 92 79
129 92 80
133 93 80
129 91 78
132 94 81
131 92 79
135 95 81
133 94 80
131 92 79
132 93 79
130 91 78
136 96 82
130 93 80
123 87 76
127 90 78
131 93 80
135 95 81
132 93 80
129 91 78
127 90 77
129 92 79
134 95 81
129 91 78
128 91 78
130 92 79
125 88 76
126 89 77
128 90 78
128 90 77
128 90 77
130 92 79
124 89 77
126 89 76
128 90 77
129 90 77
126 90 77
126 89 77
125 89 75
123 87 74
126 89 75
125 89 75
124 87 75
124 87 73
127 94 86
123 99 96
124 107 110
122 116 124
125 125 137
125 131 146
129 144 164
130 147 170
128 145 167
129 146 169
130 147 171
132 150 172
125 141 163
128 145 166
127 144 166
127 141 162
128 143 166
129 146 167
129 145 167
125 142 164
128 145 167
123 140 164
129 145 167
127 145 168
127 145 167
132 149 172
129 146 167
129 145 167
127 143 165
130 144 164
131 147 170
125 140 161
130 147 169
124 141 163
129 146 168
128 145 168
131 148 170
127 142 164
126 142 164
128 144 166
128 145 166
128 144 167
127 144 167
123 138 161
130 147 169
126 143 165
129 146 170
129 145 165
127 144 168
129 146 168
126 141 162
128 146 167
127 143 165
130 147 170
127 144 166
128 145 167
127 144 167
126 142 165
121 139 161
126 142 166
131 148 172
127 144 167
126 144 167
126 142 164
122 138 159
128 145 167
121 138 160
132 150 174
125 141 164
124 139 160
124 140 162
125 143 166
128 146 169
130 147 170
127 144 167
126 145 168
127 143 165
125 142 164
125 141 163
124 141 164
128 146 168
124 141 162
125 142 164
125 139 160
125 141 163
126 142 163
126 143 165
128 144 166
124 140 161
125 141 162
120 137 160
127 144 166
122 139 158
126 144 166
122 139 161
124 141 163
122 138 161
127 143 166
125 142 164
123 140 162
121 137 159
126 142 164
122 139 161
124 139 161
120 134 154
119 134 156
120 137 160
117 132 152
116 140 151
110 139 137
101 143 127
102 147 127
96 141 119
96 141 117
98 145 120
96 143 119
98 145 121
97 145 121
97 145 122
96 142 119
99 147 123
99 147 123
97 145 122
97 143 120
99 147 122
99 146 122
97 144 119
98 144 120
99 147 124
97 145 121
97 144 119
98 144 121
95 140 117
99 146 123
96 141 117
96 142 118
95 140 117
95 140 116
92 135 113
90 131 109
90 131 110
83 120 100
86 124 103
84 121 101
83 121 101
89 128 106
90 132 110
92 134 112
88 128 108
91 132 111
90 132 111
95 139 117
94 139 118
90 133 121
89 135 129
84 128 132
77 120 144
74 119 151
65 107 155
64 105 155
55 98 165
49 91 167
49 92 170
50 94 173
49 92 170
48 91 167
50 95 177
50 94 172
50 94 173
50 93 171
49 92 170
50 93 171
50 94 175
50 94 174
50 93 173
50 93 172
51 95 175
49 92 171
50 94 174
50 93 174
51 95 176
50 94 173
49 93 173
49 92 171
50 95 175
50 93 173
49 92 170
49 93 172
51 96 176
50 94 174
50 93 174
50 94 174
49 91 170
49 92 169
50 93 173
50 94 174
50 93 172
50 94 174
51 94 174
50 94 173
50 93 172
49 92 170
50 95 176
50 94 173
50 93 172
50 93 173
50 93 172
50 94 174
50 93 174
51 95 175
49 93 174
50 94 173
51 95 177
50 93 172
50 93 172
50 94 173
51 94 173
50 94 173
51 94 173
51 95 174
51 95 175
49 92 170
51 94 174
50 94 173
51 94 173
51 95 174
50 92 168
50 94 174
49 92 171
50 92 169
50 94 173
51 94 172
50 93 171
49 91 168
50 92 170
49 92 171
50 93 171
49 92 169
50 93 170
49 90 166
49 93 171
50 92 170
48 91 168
49 91 168
48 90 164
48 90 167
51 91 163
56 93 162
74 102 160
68 97 156
86 109 154
94 113 151
95 115 152
103 121 151
110 125 148
110 125 145
113 125 139
112 123 140
121 136 155
117 130 149
115 127 144
112 124 141
115 127 144
112 125 142
117 129 145
114 127 142
113 125 141
115 127 143
112 122 138
115 130 147
117 130 147
114 127 143
109 119 134
118 132 150
116 128 146
113 126 142
114 127 144
113 126 143
113 126 145
112 125 142
113 126 142
117 129 146
108 121 138
107 119 133
118 129 144
116 130 148
107 120 136
110 123 141
114 127 142
111 122 137
112 125 141
109 119 134
113 124 139
116 128 147
117 131 150
114 126 142
107 117 131
109 122 136
109 121 136
106 116 128
112 125 141
111 123 139
108 120 135
112 124 138
115 128 142
116 127 141
113 124 140
108 119 134
114 125 140
110 121 134
105 116 131
107 117 129
112 123 139
120 132 147
111 122 137
108 120 135
114 126 141
108 119 132
108 118 132
107 118 134
113 125 142
113 125 139
106 118 131
113 123 138
109 117 129
109 119 130
110 122 137
106 116 127
113 124 138
109 119 132
113 125 141
106 115 128
110 121 135
101 110 121
101 110 122
103 113 125
113 124 138
110 121 134
112 122 136
103 111 124
107 120 133
104 113 126
107 117 130
106 117 131
100 109 122
104 113 126
103 112 124
95 103 112
104 115 127
110 121 135
105 112 124
103 111 123
99 108 119
97 106 117
101 110 122
100 109 121
109 118 130
104 115 129
104 113 124
101 111 123
103 112 123
99 108 119
106 115 129
97 105 114
103 112 124
98 107 117
101 111 124
103 112 124
102 110 121
107 117 129
104 114 127
105 114 124
108 118 131
108 116 129
100 107 117
97 107 117
105 113 125
104 114 127
102 111 124
101 110 122
100 107 119
97 108 118
96 104 113
93 101 110
105 115 125
94 101 110
96 104 115
104 112 124
91 98 106
96 102 113
93 102 112
91 97 105
99 107 116
98 106 116
101 110 120
87 95 101
91 97 104
85 91 98
85 91 98
89 96 103
93 99 108
108 117 128
89 97 106
89 94 102
95 102 112
90 98 107
90 96 104
91 98 106
88 94 101
88 92 100
94 101 109
96 103 113
92 99 108
88 94 104
89 96 105
91 97 105
91 99 109
90 96 105
79 83 88
85 92 100
85 90 98
78 84 90
74 79 87
83 88 94
82 89 97
86 91 98
84 91 95
81 86 93
89 96 104
81 86 92
85 91 98
83 89 96
92 100 108
77 81 85
77 82 87
81 86 92
77 82 87
75 80 85
82 87 94
75 81 86
85 93 100
79 85 90
88 94 101
85 90 96
72 76 80
81 85 93
77 82 87
82 87 94
84 90 97
84 91 99
78 84 89
70 76 77
75 79 84
74 79 84
79 85 92
74 78 84
65 68 71
76 82 85
73 77 84
74 81 85
76 80 87
69 72 76
68 73 76
74 79 84
77 82 89
64 66 69
71 74 78
67 73 73
62 65 66
70 75 79
72 76 79
76 81 85
78 83 90
77 81 87
66 69 75
77 82 88
74 79 84
77 83 88
78 82 88
66 70 76
70 74 78
67 71 74
58 61 63
74 79 83
70 75 81
67 72 75
75 81 85
67 71 75
63 65 67
68 72 76
58 59 62
71 75 78
59 62 66
65 67 71
64 66 69
73 77 82
71 75 78
74 78 83
67 70 75
61 63 66
65 71 73
69 74 77
76 80 86
59 61 62
68 72 75
70 73 80
63 65 69
68 73 76
60 63 66
66 71 75
67 70 77
61 65 67
70 75 79
51 54 54
59 62 63
63 68 72
65 68 73
71 74 78
54 57 59
60 62 63
59 61 63
74 79 85
65 67 71
58 60 64
62 65 68
66 70 72
60 63 70
67 71 75
69 74 80
68 71 76
57 59 62
61 62 67
60 65 68
70 73 78
70 73 76
70 74 79
65 69 73
67 69 73
66 70 73
60 62 64
62 64 70
66 69 73
66 75 68
73 89 70
83 113 64
90 131 56
99 148 51
95 146 50
99 150 52
97 148 51
94 141 49
96 144 50
105 156 54
100 151 52
102 153 53
101 153 53
101 152 53
98 148 52
102 153 53
102 155 54
102 155 54
105 156 54
108 161 56
99 151 53
105 159 56
100 151 53
100 152 53
98 149 52
102 154 53
102 155 54
103 154 53
103 156 54
105 156 54
100 153 54
102 156 55
105 156 55
100 151 52
102 153 53
103 157 55
108 163 57
103 154 54
103 156 54
108 162 56
100 151 52
105 158 55
104 157 55
105 158 55
104 157 55
106 161 55
108 161 56
107 161 56
110 164 57
102 155 55
103 156 55
105 157 55
111 167 58
102 154 54
101 154 54
101 152 53
106 158 55
105 158 55
107 159 55
104 156 54
108 160 56
104 155 54
102 154 53
97 147 52
102 155 54
100 151 53
105 160 56
112 168 58
99 152 53
104 156 55
106 160 56
108 163 57
100 151 53
104 156 55
105 156 55
104 157 55
99 149 52
109 163 57
101 153 53
106 158 56
106 158 56
103 155 54
107 161 57
103 156 55
103 156 55
105 157 55
95 138 49
101 152 53
102 154 55
104 157 55
103 155 54
102 153 54
105 157 55
104 156 55
104 155 54
104 155 55
102 152 54
105 157 55
103 153 53
100 150 52
104 154 54
105 154 55
105 157 55
101 153 53
107 158 56
101 149 53
104 151 53
107 159 56
106 158 55
97 145 51
97 144 52
104 155 54
96 143 50
101 151 53
107 159 56
102 149 52
96 142 50
94 140 50
103 149 70
100 132 88
91 114 86
84 95 94
83 87 96
92 97 106
95 101 112
87 91 102
87 94 105
85 90 101
92 97 107
89 94 106
88 93 104
90 96 105
91 96 106
89 94 103
92 98 108
86 92 102
86 90 99
87 94 106
93 99 111
82 87 96
83 86 98
86 91 103
80 85 96
90 96 106
85 89 99
75 78 87
85 89 101
88 94 105
93 100 112
84 87 100
87 92 103
86 91 101
91 97 109
78 82 96
80 83 92
89 94 106
77 79 89
75 78 88
78 81 90
79 83 94
74 78 89
70 72 78
79 82 92
72 75 83
88 93 106
66 68 76
70 71 80
74 76 85
69 71 82
71 72 82
75 81 91
71 73 83
78 81 92
74 77 86
65 65 73
73 74 85
64 66 77
73 75 86
65 67 77
64 64 74
70 71 81
70 73 83
66 66 79
69 71 82
62 62 72
61 63 71
55 53 64
47 46 56
49 49 52
55 52 62
56 57 65
49 48 56
46 45 53
54 54 65
47 44 53
47 47 56
54 55 65
43 43 49
35 34 41
45 46 52
45 45 52
42 42 51
50 54 60
33 32 38
34 34 41
40 39 48
42 41 49
34 35 40
33 35 44
37 37 45
34 32 43
39 40 46
41 42 50
40 39 54
37 35 44
42 44 52
44 49 55
35 34 44
42 42 55
44 44 53
43 44 52
39 38 47
51 50 69
57 59 72
53 55 69
52 53 67
57 54 69
56 56 70
62 66 79
62 65 80
62 64 78
49 50 63
59 59 79
68 72 90
66 67 85
78 83 102
65 68 84
78 83 100
74 78 95
67 69 88
86 93 113
75 78 97
77 79 98
81 89 108
92 100 120
81 86 106
82 88 112
82 88 107
80 85 104
92 100 119
93 103 123
93 102 122
85 93 115
91 99 123
90 100 119
98 109 131
94 102 125
91 99 124
87 94 117
87 96 119
93 103 126
95 106 128
94 103 124
95 105 128
87 96 119
96 107 131
88 97 120
97 107 133
92 102 125
99 110 133
90 100 125
99 109 132
100 112 136
97 108 131
99 110 135
99 112 137
98 110 131
97 110 133
99 110 135
93 103 127
97 109 132
92 103 131
101 112 138
104 116 142
100 111 136
82 90 117
90 99 123
97 108 132
92 101 123
95 105 131
95 106 127
88 97 122
100 111 137
98 108 130
88 97 120
96 107 130
84 91 114
99 110 131
90 99 123
86 94 117
86 96 119
81 90 114
85 94 120
91 100 128
83 91 120
84 93 119
83 88 116
93 83 116
96 79 116
98 71 116
106 54 117
110 41 114
116 43 123
117 41 123
120 42 127
115 40 122
116 40 122
122 43 127
120 42 127
123 43 130
121 42 127
124 43 130
121 43 129
124 44 131
119 42 126
119 42 126
120 42 127
123 43 129
120 42 128
116 41 122
124 44 132
122 43 130
121 42 127
119 42 127
121 41 126
125 44 131
124 43 130
121 42 130
120 42 128
125 44 134
122 43 130
124 43 130
126 44 134
115 40 123
122 42 129
127 44 135
124 44 133
124 43 131
121 42 129
128 45 137
128 45 135
124 43 130
128 45 136
127 44 135
125 44 135
122 42 129
124 43 132
125 44 133
122 43 131
122 42 130
121 42 130
122 43 131
123 42 131
128 44 134
124 43 131
123 43 131
125 44 133
127 44 135
122 43 130
128 45 137
124 43 131
126 44 135
121 42 129
128 44 135
125 44 132
120 43 130
124 44 132
120 42 127
123 43 130
126 44 135
126 44 135
125 44 133
126 44 136
124 43 130
128 45 135
126 44 135
129 45 136
128 45 138
122 43 132
126 44 135
128 44 134
126 43 132
125 43 133
130 46 139
130 45 137
126 44 133
126 44 134
130 46 138
122 43 131
125 44 134
126 44 134
126 44 134
125 44 134
127 45 138
128 45 137
128 45 136
125 44 132
124 44 131
122 42 129
129 46 139
126 44 133
124 43 132
125 44 134
127 45 136
122 43 129
127 45 134
125 44 132
124 44 133
127 44 134
125 43 131
126 44 135
129 45 137
131 46 138
128 45 135
125 44 134
123 43 132
122 43 130
125 45 135
115 46 145
108 47 149
103 47 149
88 47 154
82 47 157
77 49 161
74 49 166
78 51 170
81 54 177
75 49 162
75 50 168
78 52 171
75 49 164
76 50 166
74 49 164
77 50 168
75 49 165
75 50 166
75 49 164
75 50 163
76 50 169
69 44 152
75 49 165
79 52 172
74 49 165
78 52 173
73 49 161
75 49 164
77 51 172
75 50 166
70 47 158
82 54 177
75 49 163
77 50 167
76 50 167
76 51 168
77 51 169
75 50 168
79 52 172
76 51 169
69 46 155
75 51 165
75 50 169
78 52 174
77 51 170
74 49 163
78 52 171
77 52 172
74 49 164
78 53 175
80 52 175
76 51 167
78 52 172
74 50 166
81 66 163
94 92 164
112 122 167
126 141 173
126 142 168
126 143 169
124 139 165
129 146 171
132 150 174
125 142 169
131 149 174
127 143 169
124 141 168
131 149 174
129 146 172
126 143 168
128 145 170
126 143 167
132 150 175
130 149 172
130 146 171
129 147 172
131 149 172
131 148 173
130 148 174
129 145 171
129 146 170
130 146 172
128 145 171
133 151 175
133 150 176
129 146 170
130 147 171
132 149 174
128 146 170
129 145 172
131 149 174
131 150 174
124 140 167
132 150 173
