P3
1600 1
255
3 127 193
3 125 190
3 121 185
3 128 196
3 122 184
3 123 187
3 121 185
3 124 189
3 122 185
3 121 183
3 125 190
3 121 185
3 125 190
3 127 194
3 126 192
3 126 190
3 121 184
3 122 187
3 122 184
3 122 185
3 125 187
3 122 183
3 120 184
3 125 189
3 118 178
3 125 188
4 123 187
23 119 179
45 125 184
71 126 174
81 126 169
88 129 169
96 129 166
111 137 170
112 132 161
117 136 162
119 137 162
123 142 165
121 140 165
122 140 166
116 135 158
124 142 166
124 143 169
122 140 165
124 143 167
122 140 165
122 139 163
120 138 163
120 139 165
120 139 164
122 139 163
118 135 161
117 135 161
119 138 164
115 132 158
120 139 163
116 134 161
118 136 161
116 133 158
122 140 166
117 135 159
118 135 161
112 129 156
117 135 161
115 133 157
119 136 163
115 133 158
110 126 153
115 132 158
112 129 157
115 131 158
109 126 150
114 130 155
111 126 153
113 131 154
111 127 152
105 121 146
118 135 161
110 127 153
114 131 157
111 127 153
110 127 153
104 120 145
110 126 151
113 130 155
104 119 145
104 119 146
107 123 151
106 122 147
101 117 142
109 124 148
110 127 151
105 120 146
111 125 150
108 122 148
111 126 151
112 127 153
106 122 147
98 112 139
96 110 135
99 115 141
107 123 148
98 112 136
106 120 146
98 113 140
90 104 132
97 112 138
98 113 137
95 110 134
98 111 136
102 115 140
94 109 136
105 120 147
108 122 147
96 110 136
102 116 141
101 114 140
93 108 133
99 112 139
91 104 130
100 114 138
104 119 145
101 115 142
98 113 140
95 109 135
103 118 143
109 124 150
102 115 141
96 109 131
107 123 148
106 120 145
98 113 137
98 113 140
89 103 130
99 114 140
100 115 140
111 126 152
98 114 139
101 116 141
103 119 144
106 121 144
107 124 149
110 125 150
104 120 146
102 116 142
102 118 142
108 123 149
100 116 143
105 119 144
106 122 145
112 129 155
103 119 143
111 128 152
107 124 153
103 119 147
113 129 155
118 134 160
111 126 152
117 134 159
117 133 158
119 136 161
116 132 156
116 132 158
118 135 162
114 130 156
113 130 155
114 130 156
114 132 158
115 132 159
116 133 159
123 141 166
120 137 162
117 135 159
116 134 161
119 134 159
115 132 158
118 135 160
121 138 164
116 133 158
120 136 161
117 133 158
114 131 154
123 140 164
120 137 163
122 140 164
120 139 164
118 134 160
123 140 165
117 133 158
122 139 164
125 142 167
123 141 165
125 143 167
122 139 164
123 141 166
118 134 159
119 137 164
124 142 167
125 142 166
125 143 168
127 145 170
125 141 164
123 140 164
126 143 169
122 138 161
124 140 163
128 146 170
125 144 169
126 145 170
126 143 169
126 144 167
123 141 166
130 148 174
125 143 168
125 143 168
122 138 163
122 138 161
124 143 169
127 144 169
129 146 171
129 147 172
130 146 170
128 146 172
124 141 165
130 147 169
127 146 170
128 146 171
123 139 162
124 142 168
125 142 167
130 148 173
125 140 164
127 145 169
126 144 170
124 140 163
129 147 172
124 141 165
126 144 169
125 141 165
127 145 168
130 146 170
126 143 167
126 144 168
127 145 168
130 148 174
128 146 170
130 146 171
125 142 164
128 145 169
128 146 171
126 143 166
124 142 164
127 145 168
130 147 171
128 145 169
126 141 166
127 145 167
124 140 163
125 142 165
130 146 168
127 144 169
127 143 169
127 140 163
129 146 171
129 146 170
127 144 167
128 146 170
130 147 171
131 148 171
127 145 167
129 144 167
131 147 171
126 144 169
127 145 168
127 144 168
129 145 169
127 143 166
126 142 167
128 144 167
129 142 165
129 146 170
130 145 169
127 144 167
126 142 165
129 145 166
125 141 164
127 141 164
130 147 171
126 144 168
126 142 166
131 148 172
128 144 168
122 137 161
128 145 167
126 143 167
129 146 168
128 145 169
124 141 164
130 147 171
126 143 166
125 140 164
122 135 158
126 142 164
129 145 169
127 143 167
125 141 162
123 141 163
127 142 165
126 141 164
121 134 155
126 143 166
129 145 167
119 134 155
127 143 166
127 142 166
127 143 167
123 136 157
124 139 162
127 144 166
126 139 162
125 139 162
126 143 167
126 142 165
127 143 166
126 140 160
127 139 161
126 142 165
123 136 159
122 135 154
121 135 156
121 135 156
123 137 160
124 140 162
127 144 166
127 143 167
122 137 157
124 137 159
126 142 165
122 132 154
123 138 161
118 131 151
94 102 117
77 79 87
61 53 48
54 40 23
51 36 15
49 35 15
52 36 15
52 36 15
51 36 15
53 36 15
51 36 15
52 36 15
47 34 14
51 36 15
48 34 14
53 38 16
53 37 16
53 37 16
52 36 15
52 36 15
54 38 16
52 37 15
52 36 15
49 35 15
53 37 16
50 35 15
53 37 16
51 36 15
53 37 15
51 35 15
53 36 15
50 35 15
53 37 15
53 37 15
52 36 15
50 35 15
52 36 15
52 37 15
54 38 16
51 36 15
51 36 15
53 37 15
56 39 16
51 35 15
51 36 15
53 37 16
49 34 14
54 38 16
50 35 14
51 36 15
53 37 15
50 35 14
53 37 15
50 35 15
52 36 15
49 35 14
53 37 16
52 36 15
55 38 16
50 35 14
51 35 15
52 37 15
51 36 15
51 35 15
49 34 14
53 37 15
49 34 14
48 34 14
51 35 14
50 34 14
52 37 15
48 34 14
47 33 13
48 34 14
52 37 15
49 34 14
48 33 14
52 37 15
48 34 14
48 34 14
45 31 13
49 34 17
63 44 30
77 55 43
99 70 58
106 78 68
121 99 97
127 94 87
127 90 78
130 92 78
127 90 77
131 92 79
131 93 79
133 94 80
132 93 80
130 91 78
129 91 78
128 91 78
131 92 79
129 91 78
132 92 79
134 94 80
132 93 80
131 93 79
132 92 78
130 92 79
130 92 78
129 91 78
133 94 81
135 95 81
135 95 81
132 92 79
132 94 80
130 91 78
129 90 78
131 93 80
131 92 79
131 92 79
131 93 80
134 95 82
128 91 79
129 92 78
126 89 77
128 91 78
131 93 79
130 92 79
131 92 79
133 94 80
128 90 78
134 94 80
136 96 82
132 92 79
131 93 79
133 94 81
130 91 78
135 95 81
128 91 78
135 94 80
131 93 80
132 93 80
130 92 79
132 93 80
133 94 80
128 90 77
128 91 77
132 92 79
131 93 80
130 91 77
136 95 81
130 92 78
129 91 79
133 94 81
126 89 77
130 92 79
127 89 77
128 91 78
125 89 77
130 91 78
134 95 81
131 92 79
131 92 79
130 91 78
130 92 79
126 89 76
125 87 75
127 90 78
133 93 80
129 90 77
130 92 79
133 94 80
126 90 77
131 92 78
129 91 78
128 90 77
133 93 80
130 92 78
124 88 75
129 92 79
130 92 79
128 91 78
128 90 77
125 88 75
124 88 75
122 86 74
131 92 78
126 88 75
124 88 77
122 86 73
128 90 76
129 91 78
126 90 77
123 87 75
124 88 74
122 87 75
124 87 75
122 85 72
120 86 75
122 92 84
124 96 91
120 110 116
121 115 123
121 122 136
123 131 149
125 137 157
126 142 162
125 140 161
126 144 165
128 146 169
124 140 160
128 144 166
130 145 168
131 147 170
127 143 165
129 146 168
130 147 170
127 144 166
129 147 170
132 149 171
127 145 167
128 145 166
128 146 168
124 141 163
124 141 163
126 144 168
119 136 156
125 143 166
128 143 164
127 144 165
127 143 165
123 139 158
124 140 161
131 148 170
130 146 167
126 143 166
127 143 165
128 145 167
123 140 162
122 137 158
131 149 172
128 145 167
132 150 171
126 144 166
128 146 168
126 144 166
130 146 166
126 143 165
128 146 170
129 147 168
125 142 162
123 139 161
130 148 172
128 145 168
130 148 170
127 145 167
126 144 166
126 143 165
127 144 166
126 143 164
131 149 172
130 147 169
130 146 168
125 142 163
125 141 162
124 141 162
130 147 169
129 145 167
125 141 162
127 145 168
124 141 164
120 136 158
125 140 163
125 141 164
123 141 163
126 143 165
128 145 165
123 141 162
127 142 164
128 144 167
126 142 164
122 137 157
128 146 169
125 139 160
130 146 169
126 143 163
123 139 160
127 144 166
128 144 166
126 143 164
124 140 163
128 146 170
126 142 165
126 143 163
122 138 159
123 139 161
126 142 164
126 143 165
124 141 162
118 134 155
126 143 166
122 138 160
126 144 166
123 139 161
124 141 163
118 135 152
114 140 149
103 136 131
106 149 133
94 140 117
95 140 116
96 145 119
96 141 119
97 145 121
96 143 117
96 143 119
98 146 122
95 142 118
97 144 120
96 145 121
97 146 121
99 148 122
92 138 116
97 146 121
97 143 121
102 150 126
95 142 118
99 148 123
100 149 123
95 142 120
98 146 122
100 148 125
98 146 123
96 144 120
97 145 120
96 143 118
97 145 121
96 142 118
96 142 119
99 147 122
95 140 118
94 142 117
95 141 118
98 145 123
94 141 120
90 137 128
90 137 131
82 127 138
76 118 143
68 111 150
61 102 154
55 98 167
54 96 166
50 91 166
49 92 170
49 91 168
48 90 168
49 91 168
49 92 170
48 90 166
49 91 169
49 93 172
49 92 170
49 90 167
49 91 169
50 92 170
49 92 171
50 94 174
50 94 174
50 93 172
50 93 171
48 91 169
50 92 171
50 94 174
50 93 173
50 94 173
49 92 170
50 93 171
49 92 170
49 92 171
50 94 173
49 92 170
49 92 171
50 94 174
50 93 171
49 92 171
49 92 171
49 93 171
49 92 170
50 94 173
49 93 172
50 93 172
50 93 171
50 93 172
50 94 173
50 93 171
49 91 169
50 94 173
50 93 171
50 95 175
50 94 172
51 95 174
49 92 169
50 93 171
48 90 167
50 94 173
49 92 171
50 94 174
51 95 174
50 93 171
50 93 171
49 92 170
51 95 175
49 91 168
50 94 174
49 92 170
50 93 173
51 95 174
50 92 170
50 93 173
50 94 172
50 93 171
50 93 171
50 92 169
49 91 168
49 92 171
50 93 173
49 91 169
49 91 169
49 91 167
50 93 171
51 95 175
49 92 170
49 92 169
49 91 167
48 90 166
50 93 170
49 93 172
49 91 169
48 90 165
48 90 166
49 92 170
48 90 166
48 90 165
49 92 169
49 92 166
47 87 160
52 93 167
52 90 162
68 100 161
84 110 158
93 114 153
90 111 149
100 118 152
108 124 154
107 121 142
114 126 144
114 127 146
113 126 142
119 133 150
113 126 143
120 135 153
119 132 148
112 127 144
114 127 143
114 127 144
114 127 146
116 129 146
118 131 149
119 132 148
113 126 143
117 131 150
116 128 145
110 123 138
114 127 143
108 120 133
115 127 143
115 129 145
117 129 146
113 126 143
116 130 148
118 132 149
118 131 148
114 127 143
112 123 139
113 125 140
115 129 144
115 128 145
110 122 136
112 124 140
108 119 134
116 128 146
112 123 138
108 119 134
114 127 143
117 131 146
107 118 132
114 125 138
115 128 146
120 134 153
120 135 153
109 122 136
111 122 135
109 121 137
114 126 141
103 112 124
109 120 136
114 126 140
114 126 141
113 126 140
114 127 144
114 124 138
115 127 142
112 125 139
113 123 137
107 118 133
112 122 139
111 124 141
115 127 143
107 119 132
114 126 144
107 118 133
106 117 132
114 125 139
106 115 127
106 116 129
111 123 138
113 124 138
112 124 138
108 119 131
109 120 134
115 129 144
110 122 138
108 119 133
107 117 128
113 127 142
113 125 140
108 119 131
111 122 135
106 113 127
108 120 133
107 116 127
114 126 140
112 122 137
108 119 131
102 112 123
109 121 133
109 120 137
111 122 135
103 112 125
113 124 136
105 116 129
111 122 137
107 117 131
101 111 123
103 113 126
104 113 126
107 115 129
111 121 134
108 118 131
102 111 121
108 119 131
111 122 135
101 112 124
105 115 127
102 110 122
101 112 123
107 118 129
98 106 118
94 103 112
105 114 125
100 111 119
104 113 126
112 122 136
107 117 130
106 116 125
102 110 120
101 109 120
106 115 127
98 107 117
103 112 123
102 111 121
101 110 121
93 101 110
101 110 122
108 118 130
96 105 114
98 106 117
102 112 124
97 104 113
104 114 126
100 109 119
101 110 121
103 114 126
98 107 117
95 101 111
97 106 117
87 95 104
94 102 109
95 102 110
97 107 116
99 108 120
97 103 112
103 112 124
84 91 100
100 109 120
95 103 113
93 101 109
94 101 110
99 108 118
101 109 117
99 107 117
96 103 113
95 104 112
90 98 107
91 97 105
91 99 108
92 100 108
94 100 108
85 92 98
92 100 110
96 103 111
93 99 106
89 95 103
97 103 112
92 98 106
91 98 104
90 97 103
89 93 100
91 98 106
80 86 93
86 92 100
101 108 120
92 99 107
92 100 110
90 97 105
87 94 100
86 92 100
82 88 95
93 101 109
95 103 113
85 89 97
81 87 94
92 99 107
85 91 97
80 86 93
79 85 91
83 90 98
84 91 100
84 92 96
79 85 92
79 85 90
84 91 98
84 90 97
87 92 100
90 97 106
87 93 99
83 89 95
82 87 92
77 82 88
87 91 98
88 93 101
85 91 99
76 81 86
79 85 90
81 87 91
78 82 88
82 86 93
82 87 92
84 90 97
84 91 97
81 87 93
95 102 110
70 75 80
85 91 97
81 86 93
71 76 80
80 86 92
79 85 90
85 90 98
78 84 91
77 83 88
86 91 97
76 82 87
81 88 93
75 80 84
79 86 92
82 87 94
75 79 84
80 87 94
85 91 98
84 90 96
74 77 84
69 72 77
80 85 91
74 79 85
83 90 97
74 79 85
87 95 103
75 79 84
79 84 90
77 83 88
81 87 93
77 80 86
76 81 88
70 75 78
83 90 94
79 84 92
72 77 81
80 84 92
77 82 89
80 86 91
78 82 88
72 78 80
75 81 86
79 84 91
73 77 83
64 68 70
73 78 82
73 76 84
71 76 81
75 79 85
76 81 85
76 80 85
80 86 92
76 81 86
81 86 94
80 86 92
81 86 90
79 84 89
68 71 75
83 89 96
75 80 84
80 87 91
77 83 92
72 75 80
75 80 84
77 83 90
83 90 96
80 88 90
87 108 82
85 117 68
87 124 58
92 137 51
91 136 47
99 149 51
97 147 51
96 146 50
97 147 51
98 148 51
101 152 53
93 140 49
99 149 52
96 144 50
102 153 53
102 154 54
96 146 51
105 158 56
96 145 50
100 150 52
99 150 52
104 156 54
102 154 54
95 142 49
103 156 55
98 148 51
101 156 54
101 154 54
101 153 53
102 155 54
98 147 52
99 151 53
100 153 53
98 147 51
106 159 56
104 156 55
105 158 55
100 152 53
99 150 52
99 150 53
99 149 52
100 151 53
105 158 55
104 156 54
105 157 55
97 148 52
104 156 55
96 145 50
99 147 51
100 150 53
105 159 55
96 145 50
101 153 53
105 157 55
103 156 55
101 151 53
107 162 56
100 150 52
100 149 52
101 152 53
105 157 55
105 158 55
105 158 55
103 156 55
103 155 54
96 147 52
98 147 52
103 155 54
103 155 54
103 155 54
98 147 51
98 147 52
99 147 52
102 154 54
99 150 52
92 139 49
102 150 53
100 151 53
105 156 55
102 153 53
107 158 55
103 156 55
104 155 55
103 153 54
105 157 55
100 151 53
104 156 55
104 156 55
99 150 52
94 140 50
101 150 53
100 149 52
101 151 53
102 153 53
103 154 54
102 154 54
96 144 51
99 148 52
104 153 54
95 142 51
103 153 54
96 144 50
99 147 52
99 145 51
102 153 54
105 156 54
102 151 54
93 137 49
98 148 52
94 140 49
102 151 54
98 147 52
96 145 51
99 149 53
105 156 55
97 144 52
94 134 68
88 115 78
102 125 105
94 102 113
99 106 119
89 94 107
96 101 111
92 101 114
93 99 108
90 96 107
87 92 103
100 108 121
97 104 117
97 104 118
95 104 115
88 95 106
94 100 113
89 96 107
96 102 115
102 110 121
85 88 98
101 107 117
96 103 114
96 102 117
92 98 110
95 101 112
91 98 112
91 99 112
89 96 109
88 93 104
90 96 107
91 99 112
97 104 118
95 102 116
96 103 116
95 102 115
87 92 104
83 88 101
85 91 103
91 96 109
84 88 99
88 93 108
88 91 101
91 96 110
92 97 108
97 105 118
84 88 100
89 96 108
84 88 101
91 97 110
88 94 104
85 90 101
86 93 105
87 90 104
87 91 104
84 89 103
85 90 104
89 95 108
87 93 108
79 83 95
88 92 105
92 98 112
84 88 103
89 96 110
84 89 104
86 92 109
75 79 92
80 83 96
80 85 97
83 88 101
85 90 104
87 93 108
85 92 106
80 82 96
73 78 92
81 84 100
79 82 96
66 66 79
77 81 96
75 79 94
82 86 101
70 72 86
76 80 94
72 75 88
84 90 104
81 86 101
73 75 89
76 80 95
78 82 97
66 68 80
78 82 96
80 82 97
75 80 93
82 90 101
71 74 87
75 77 95
76 79 99
73 76 91
79 84 99
73 75 90
72 74 89
73 78 91
74 79 95
77 82 98
80 86 104
77 83 100
76 81 97
78 83 102
82 87 102
75 77 93
77 82 102
80 85 102
89 96 113
84 91 108
79 84 101
81 88 106
80 85 104
89 96 116
85 90 114
86 94 115
90 97 117
87 94 113
78 83 105
83 91 113
76 79 100
89 98 120
82 90 109
88 95 115
92 99 120
92 101 121
93 99 119
93 101 120
97 108 132
91 99 124
103 115 135
95 105 127
90 98 120
88 94 115
93 100 123
91 102 126
99 110 134
97 106 129
104 116 138
99 110 133
96 106 130
99 108 132
94 104 128
99 109 137
101 112 136
104 117 138
91 99 123
104 117 141
94 105 128
97 108 133
101 113 137
94 104 129
100 111 138
98 109 134
98 110 135
104 115 139
101 114 139
101 113 137
99 111 138
110 123 147
114 127 155
106 119 145
100 113 138
97 108 136
104 116 141
97 108 133
111 127 151
105 116 140
110 124 148
100 110 133
101 114 141
104 117 141
95 104 127
102 112 136
102 115 139
99 112 137
107 120 144
97 107 130
104 115 139
106 119 142
104 115 139
110 124 147
104 118 143
105 116 142
94 96 127
108 91 128
107 84 125
106 73 121
109 59 121
116 43 122
117 41 125
119 41 122
119 41 123
119 42 125
117 41 123
121 42 127
120 42 125
117 41 125
119 42 125
121 42 127
120 42 126
125 43 130
116 41 123
119 42 128
124 44 132
121 42 128
120 42 126
122 42 129
119 42 125
119 42 129
123 43 129
122 43 129
121 42 127
123 43 132
124 43 131
118 41 124
116 41 124
127 44 134
123 43 131
119 41 125
123 43 131
118 41 127
123 42 129
122 43 130
121 42 129
123 43 131
120 42 128
120 42 129
124 44 132
124 43 132
123 43 131
127 45 136
118 42 126
126 44 132
127 44 135
124 43 132
128 45 136
125 43 132
122 43 131
124 43 132
124 43 132
123 43 131
126 43 133
121 42 130
125 43 133
121 42 127
123 43 131
127 44 135
128 44 135
123 43 131
121 43 130
123 43 131
128 45 136
121 43 131
124 43 131
125 43 131
124 42 129
123 42 130
121 42 130
120 42 127
125 44 133
126 44 133
128 45 135
124 43 132
126 44 134
127 44 136
122 43 130
122 43 131
122 43 132
129 45 136
128 45 136
125 44 133
129 46 138
123 43 132
124 43 132
125 44 132
124 43 132
126 44 133
124 42 128
129 45 135
126 44 133
121 41 127
127 45 137
124 43 131
126 44 133
128 44 135
122 42 127
126 44 134
121 42 128
129 45 137
119 41 124
128 45 135
126 44 133
123 43 129
121 42 129
124 44 131
124 43 129
124 43 131
122 43 130
122 43 129
125 44 132
121 41 126
119 42 126
126 44 132
125 43 132
122 43 130
125 44 132
124 43 132
120 43 130
114 43 135
103 43 139
96 44 144
90 46 155
82 49 161
74 47 157
71 47 157
76 50 164
74 49 163
72 47 160
71 47 157
70 47 156
72 47 160
66 44 151
72 47 160
71 46 156
73 48 160
75 49 166
72 47 156
69 46 156
81 53 174
75 49 162
73 49 164
72 48 158
74 49 163
75 50 165
71 47 160
76 50 168
78 52 169
70 47 156
73 49 162
70 46 156
74 49 162
72 48 161
76 50 166
73 49 164
77 51 168
75 50 167
72 48 161
79 52 173
72 48 159
73 49 165
76 51 168
71 47 159
73 49 162
71 47 158
73 48 163
70 47 156
81 68 162
94 93 162
114 120 173
122 135 173
125 142 168
121 138 165
127 143 169
130 147 173
122 138 163
126 143 169
127 145 170
130 148 172
128 144 169
129 146 174
128 145 171
121 137 163
127 144 169
126 142 169
126 142 166
129 146 171
128 145 169
125 141 167
126 144 169
127 145 170
131 147 172
125 141 166
130 149 174
129 145 169
131 147 170
123 138 163
124 141 167
131 149 176
128 145 172
129 148 174
128 145 173
131 148 173
128 146 172
130 148 174
132 150 175
130 147 172
127 145 170
127 144 172
132 150 173
129 145 169
