P3
1600 1
255
3 124 188
3 120 183
3 122 185
3 123 186
3 119 181
3 122 186
3 120 183
3 123 187
3 122 186
3 116 177
3 119 180
3 121 185
3 123 186
3 123 186
3 124 188
3 123 185
3 121 184
3 120 183
3 119 181
3 117 177
3 126 190
3 114 172
3 124 188
3 118 178
3 117 179
3 122 185
3 121 183
3 117 178
3 122 186
3 118 179
3 115 174
14 114 172
41 119 174
57 121 173
84 131 175
95 131 171
104 137 172
113 143 177
121 141 168
125 143 169
121 140 164
128 146 172
125 142 168
123 142 167
128 147 171
124 143 168
128 147 171
119 137 161
123 142 167
127 144 168
126 143 170
124 141 166
121 137 163
122 141 167
120 138 162
122 139 165
121 138 163
124 141 165
114 132 156
121 139 164
123 141 167
124 142 167
123 141 167
122 141 166
121 139 161
120 138 162
120 138 164
128 145 170
118 135 161
118 136 161
124 142 167
121 138 163
113 131 156
120 137 162
120 138 164
118 136 161
125 143 167
123 142 166
117 135 161
115 133 158
121 139 166
120 139 163
121 139 165
119 136 162
121 137 164
115 133 159
119 136 160
111 129 155
124 141 166
116 135 159
121 139 165
116 133 159
123 140 164
118 135 159
115 133 158
120 138 164
116 134 159
122 139 164
119 138 163
116 132 157
119 136 162
126 144 169
124 142 165
125 142 168
126 144 168
118 138 163
118 136 163
117 135 161
117 135 160
119 137 162
121 138 163
119 137 161
116 134 161
121 138 162
121 139 164
115 132 159
119 136 162
119 135 162
116 132 158
117 135 161
123 139 164
117 135 161
120 137 162
121 139 164
120 137 163
116 132 160
118 136 162
125 142 167
117 134 160
118 135 159
114 132 158
116 133 157
120 137 161
118 136 162
121 139 165
122 140 165
116 132 159
113 129 153
120 138 163
119 137 162
120 137 164
118 134 162
118 135 161
121 139 163
122 140 166
124 142 167
120 136 163
121 137 162
119 136 162
120 136 160
123 142 168
123 142 166
120 139 164
122 140 164
124 142 166
123 141 166
114 130 159
122 139 162
122 140 164
119 136 163
124 140 165
123 140 164
123 141 165
121 138 164
124 141 166
122 139 164
128 147 173
126 145 169
127 145 171
124 142 168
125 143 167
123 139 165
120 137 161
123 142 167
123 139 163
123 141 165
124 142 167
122 140 166
124 141 165
125 143 169
118 135 159
128 146 170
126 143 167
124 142 167
125 143 168
124 141 166
130 148 172
126 145 170
126 143 168
132 150 175
124 141 167
125 143 169
129 146 169
122 140 165
129 146 171
127 144 169
124 142 166
125 142 166
125 142 168
129 146 170
126 145 171
125 144 169
128 146 170
130 147 172
126 143 166
128 146 170
127 145 171
128 146 172
124 141 165
129 146 171
126 144 168
128 144 169
124 142 167
123 141 165
128 146 169
128 146 170
127 143 168
132 150 174
128 144 168
126 143 167
124 141 167
130 149 174
126 143 166
127 144 168
130 149 175
127 145 169
130 147 171
128 146 170
128 144 169
126 143 168
127 144 169
128 146 169
125 143 166
123 141 165
129 147 170
125 142 166
126 146 169
128 144 168
126 144 167
125 143 168
126 142 164
128 144 168
130 147 172
128 143 166
132 150 173
128 146 172
125 143 166
126 144 169
126 143 167
130 147 172
129 147 172
129 147 172
125 142 165
125 141 163
127 141 165
127 144 169
126 143 168
128 145 170
129 146 170
129 145 168
127 144 169
124 141 166
128 144 167
125 142 165
128 146 171
127 141 164
128 146 170
127 144 169
130 148 172
126 142 165
130 149 172
127 144 167
128 145 168
128 144 167
132 149 173
124 142 167
125 141 166
128 145 168
125 143 166
128 144 168
130 147 171
132 149 172
131 149 173
129 147 172
128 145 169
126 144 168
128 145 169
126 144 167
126 142 166
123 139 163
128 144 167
126 144 167
126 142 165
123 139 161
130 146 170
127 144 168
126 143 165
125 141 163
129 144 167
124 141 163
126 143 166
126 140 162
124 141 164
120 135 157
124 142 165
130 146 170
124 140 162
123 138 159
122 137 160
125 142 166
124 140 163
124 139 161
122 137 160
124 140 162
119 134 155
123 139 162
121 137 158
128 143 164
121 136 159
126 141 165
122 138 160
123 137 160
121 135 157
119 134 155
124 141 164
124 138 160
124 139 161
121 138 159
122 137 159
117 132 153
119 134 154
117 132 154
123 138 159
122 138 161
115 128 149
120 135 156
118 132 153
117 131 152
121 136 158
117 131 152
113 126 146
120 135 156
120 136 159
116 128 147
113 126 146
120 133 154
113 126 145
112 125 144
105 115 132
93 102 117
78 81 90
64 59 61
52 40 31
50 35 15
42 30 13
48 33 14
49 34 14
48 34 14
48 33 14
45 31 13
49 33 14
45 32 13
46 33 14
48 34 14
51 36 15
46 32 13
50 35 15
48 34 14
51 35 15
47 33 14
50 35 15
45 32 13
48 34 14
48 34 14
50 34 14
49 34 14
46 32 13
48 33 14
48 34 14
47 32 13
52 36 15
48 34 14
46 32 14
45 31 13
49 34 14
48 33 14
46 32 13
46 32 13
48 33 14
49 34 14
47 33 14
48 34 14
49 34 14
48 33 14
48 33 14
49 35 14
45 31 13
44 30 13
46 32 13
49 34 14
48 33 14
44 31 13
46 32 13
42 30 12
44 31 13
46 32 13
46 32 13
44 31 13
45 32 13
44 30 12
42 30 12
44 30 13
45 31 13
39 28 11
43 30 13
54 46 42
59 56 57
70 72 78
78 85 95
105 116 134
100 103 116
113 110 121
111 98 101
119 101 105
124 103 103
122 92 84
125 88 75
130 91 77
123 87 75
126 89 76
129 91 78
129 91 78
127 90 77
124 87 74
130 91 78
127 90 76
126 89 76
132 94 80
131 92 79
131 92 78
133 93 80
129 90 77
129 90 77
130 92 78
130 92 78
130 92 78
127 89 76
132 92 79
123 87 75
126 89 77
131 92 78
130 92 78
128 90 77
130 91 78
127 89 76
130 91 77
129 91 77
125 89 77
130 92 79
126 89 76
131 93 79
129 90 77
132 92 79
133 94 81
128 90 77
126 89 76
124 88 75
135 95 81
129 90 77
133 93 79
129 90 77
129 89 76
129 90 77
130 92 78
129 90 77
128 89 76
130 92 79
130 91 78
129 91 78
134 93 79
133 93 79
129 91 78
130 92 79
129 91 78
130 93 79
126 89 76
127 90 77
131 92 79
126 89 77
126 89 76
132 93 79
126 90 77
126 89 76
131 92 79
129 90 77
129 91 78
128 90 78
130 91 78
128 90 77
128 90 76
127 89 77
127 90 77
133 92 79
129 91 79
128 90 77
130 91 78
131 92 78
130 92 78
129 90 78
126 88 75
128 90 77
127 89 77
127 90 77
128 90 77
127 89 76
127 88 76
128 91 78
125 89 77
127 89 77
124 87 75
117 83 72
123 87 75
123 87 76
129 91 77
126 88 75
121 87 74
123 86 74
124 87 75
122 86 75
118 83 71
119 84 73
128 90 77
121 86 73
121 86 74
121 85 72
121 86 74
124 87 74
121 86 74
111 79 69
120 84 71
114 81 71
120 89 80
121 101 100
119 104 106
119 111 120
126 125 138
127 137 154
124 138 158
126 142 163
127 145 166
130 146 168
128 145 166
125 142 164
128 146 169
130 146 168
129 147 170
127 144 165
125 142 162
128 145 168
122 139 161
127 145 167
129 146 168
127 143 164
125 142 162
129 147 169
123 140 161
129 147 170
126 143 165
128 143 165
126 144 164
120 137 159
128 144 166
127 144 165
123 140 160
126 144 162
129 146 168
126 142 162
130 148 169
129 146 168
125 142 164
130 148 171
127 146 167
126 145 165
126 143 165
125 144 165
127 144 166
125 141 164
126 143 166
123 140 161
123 140 161
125 142 164
129 147 169
128 146 168
122 138 157
128 144 166
127 144 165
126 143 164
129 147 171
124 142 162
127 145 167
129 147 169
126 142 163
124 142 163
128 143 164
125 142 165
126 144 163
122 140 160
128 145 164
126 141 162
127 144 167
127 144 166
126 141 161
121 139 160
125 143 166
127 145 167
132 150 173
126 145 166
127 142 163
122 139 158
125 142 161
124 141 161
129 147 169
128 145 166
125 142 164
128 145 166
124 140 161
127 145 166
128 145 166
123 139 158
126 142 163
124 141 162
120 137 157
125 141 162
124 141 163
125 142 165
128 144 166
126 142 162
126 143 165
126 142 162
126 143 163
129 145 164
123 139 160
125 142 162
123 139 158
123 141 160
127 145 165
121 140 160
124 141 162
119 146 155
110 140 140
101 141 126
97 141 120
94 142 116
97 146 119
95 146 119
96 143 118
96 146 120
94 141 116
96 144 118
95 145 119
96 143 118
97 146 119
98 147 120
95 143 116
95 143 117
95 144 119
97 147 120
98 147 122
100 149 124
98 146 121
96 144 118
98 147 122
99 149 122
96 145 120
96 144 120
98 147 122
94 143 116
98 148 123
93 142 117
95 144 130
87 134 131
84 131 137
71 115 145
71 114 146
61 102 144
58 100 158
50 90 162
48 89 164
48 89 165
49 92 169
49 92 169
49 91 167
48 89 165
47 89 164
47 87 161
48 90 167
48 89 165
48 90 167
47 88 161
49 90 166
48 90 166
49 92 169
49 92 170
48 90 166
47 88 163
50 92 170
48 91 169
49 92 170
49 91 167
48 89 165
48 89 165
49 92 171
49 91 169
48 89 165
47 89 165
48 89 165
49 92 171
49 91 169
48 90 165
49 91 168
49 92 169
48 90 165
49 91 168
49 92 170
49 91 168
49 91 168
49 91 168
49 92 170
48 90 167
48 91 169
49 92 169
49 91 168
50 93 172
50 93 172
50 93 171
49 91 168
49 90 165
49 91 167
50 92 169
49 91 168
51 94 174
49 91 168
49 92 169
50 92 170
50 92 168
49 91 169
49 91 168
49 92 170
50 92 170
49 92 169
47 88 162
49 91 169
50 93 170
49 91 167
49 92 170
50 93 171
49 90 165
50 92 170
49 91 168
49 92 170
49 92 169
50 92 169
50 92 169
50 93 170
49 90 164
49 90 166
50 91 166
48 90 166
48 89 163
50 92 170
49 90 165
49 91 168
48 89 164
48 88 163
48 89 165
46 86 158
49 90 167
48 88 164
49 90 165
48 89 164
49 91 167
49 91 166
47 88 162
48 88 161
48 88 160
50 92 169
49 89 164
48 89 164
47 88 162
48 89 163
49 90 165
50 91 165
54 91 162
71 98 154
86 112 156
83 105 150
101 122 158
104 120 146
117 132 152
114 128 147
118 134 151
123 138 157
112 125 141
120 135 153
119 134 153
116 131 147
117 131 150
116 130 147
121 134 152
115 127 143
119 133 151
114 128 143
116 131 148
113 126 140
113 127 141
117 132 149
120 135 152
121 135 152
118 132 148
118 131 147
117 130 146
117 130 147
120 135 154
117 129 146
114 125 140
114 126 140
120 135 153
118 131 149
113 124 139
117 131 146
118 133 149
116 129 145
116 128 146
116 130 146
114 128 145
120 134 153
112 122 136
120 134 151
118 129 145
114 127 144
115 125 139
113 125 141
113 125 139
122 136 154
108 119 132
117 129 145
113 125 141
115 129 144
112 124 137
119 132 149
114 126 142
116 129 144
118 130 145
120 134 150
117 130 146
123 137 155
119 134 152
112 124 139
113 126 141
112 126 142
116 128 144
111 123 137
114 125 140
114 127 144
112 126 141
113 126 142
117 130 146
114 126 142
110 123 138
115 127 141
115 127 141
111 122 138
117 130 146
112 125 140
114 126 140
114 126 139
109 122 134
110 122 135
114 127 142
114 126 141
109 122 137
112 125 137
112 124 138
113 126 138
108 119 132
109 121 134
107 117 131
112 122 134
111 124 140
115 125 140
113 125 140
103 114 126
110 124 137
108 120 133
112 123 138
107 118 130
108 120 136
112 123 137
111 122 137
112 122 134
107 118 132
114 124 138
110 122 136
107 116 128
107 119 133
97 106 116
109 119 134
114 125 138
115 127 141
105 116 131
106 118 130
109 121 133
106 117 128
108 118 131
110 121 135
106 116 128
111 122 136
108 119 133
113 124 138
104 114 127
107 117 128
108 117 130
112 124 137
107 117 129
100 111 121
110 122 135
104 113 126
102 110 121
103 111 122
105 117 128
113 124 137
102 111 122
108 118 130
104 114 125
104 114 125
102 113 125
103 114 127
102 111 122
105 116 128
100 109 121
100 107 118
97 106 117
104 113 126
95 103 112
114 125 136
102 113 124
95 103 112
97 107 116
103 113 125
105 115 127
101 111 122
101 110 121
106 116 129
97 105 112
104 112 122
103 112 123
103 111 122
107 115 126
104 113 124
97 105 116
102 110 121
105 114 125
100 109 119
98 107 119
93 101 110
93 100 111
95 103 112
95 104 111
104 112 124
96 105 113
107 118 129
100 108 118
101 110 120
98 109 118
97 106 113
99 107 118
91 99 107
98 107 116
94 102 109
95 102 109
104 113 123
97 105 114
98 107 116
95 103 112
102 110 121
104 114 124
96 105 113
91 100 110
98 108 115
82 89 96
93 100 110
99 107 116
97 106 118
93 101 108
96 105 113
99 107 116
95 104 113
102 110 120
96 103 112
96 104 116
92 99 108
93 100 109
89 96 104
95 102 109
93 99 107
91 99 108
96 104 112
91 100 107
94 101 111
85 92 96
98 106 115
97 106 116
91 99 107
94 102 111
90 97 105
90 96 106
93 99 106
92 101 109
100 108 119
97 106 115
95 104 113
94 102 110
100 108 116
95 103 112
88 93 102
94 101 109
101 110 121
91 98 106
91 99 107
89 97 105
86 94 101
87 92 97
87 93 102
84 88 93
87 94 102
79 85 92
89 94 100
91 99 105
93 99 108
95 104 112
82 90 91
88 94 102
87 92 99
95 102 113
87 94 100
86 93 98
97 105 115
94 102 110
92 100 108
81 87 93
84 92 99
97 105 113
81 86 90
87 93 100
87 95 102
89 95 101
83 90 94
84 89 97
90 97 104
86 94 102
89 95 103
87 94 101
87 92 100
90 95 102
89 95 102
82 87 93
94 102 112
85 94 100
86 91 99
95 102 111
92 99 109
96 104 113
88 95 105
84 91 99
92 99 105
95 104 113
88 95 101
91 99 108
86 94 100
90 97 106
82 90 97
92 107 102
84 103 87
90 129 64
85 126 51
94 141 49
91 140 47
91 139 46
89 135 46
94 143 49
92 139 49
91 138 48
94 144 49
92 139 49
95 144 50
93 141 49
98 150 51
91 139 48
92 139 47
92 140 49
98 148 51
99 149 52
98 147 51
100 151 52
99 149 52
95 144 50
95 143 50
94 142 50
101 153 53
98 150 52
98 149 51
102 155 54
102 153 53
98 147 52
97 146 50
103 155 54
92 140 48
101 152 53
95 145 51
97 146 51
100 150 52
96 145 51
98 146 51
97 148 51
99 150 52
94 141 49
97 147 51
100 150 52
99 149 51
101 151 52
98 150 52
99 149 51
102 154 54
100 150 53
103 156 54
98 148 52
97 147 51
96 145 50
95 143 50
97 148 52
93 142 49
98 149 52
98 148 52
100 150 53
100 152 53
104 156 54
102 155 54
100 150 53
100 151 52
106 156 55
102 156 54
99 149 52
96 144 50
103 156 54
101 152 53
101 151 52
95 145 51
99 149 52
96 144 50
95 141 50
104 153 54
97 145 50
95 143 50
96 146 51
96 142 50
99 149 52
100 147 52
97 148 51
98 145 51
97 147 51
94 141 49
98 147 52
96 147 51
93 141 49
101 151 52
97 146 51
102 153 53
98 146 51
96 144 51
96 143 51
96 144 50
95 141 50
95 140 50
96 141 51
102 151 53
91 139 49
95 144 51
96 144 50
96 146 51
90 136 48
90 133 48
87 129 46
97 139 67
91 124 70
100 124 105
98 113 112
96 105 115
107 117 130
97 106 117
106 114 127
91 100 112
99 107 120
95 103 116
95 102 114
109 120 134
110 121 135
92 100 113
98 107 121
99 107 121
99 107 121
97 104 115
94 101 113
100 109 121
95 102 115
99 106 122
105 115 131
107 118 132
91 99 110
106 115 130
101 111 125
103 112 126
92 98 111
101 109 123
99 107 123
98 105 119
106 117 132
97 105 119
99 109 125
103 112 127
104 114 129
96 104 115
105 114 129
101 109 124
99 108 123
104 112 127
95 102 115
100 109 125
105 114 131
99 107 122
102 109 123
102 111 127
107 118 131
100 108 121
109 119 135
102 112 125
100 110 124
102 111 127
94 102 113
106 116 131
107 116 132
99 107 123
102 113 127
104 114 134
104 115 130
100 109 126
102 110 127
101 108 124
110 120 137
99 106 120
98 105 121
103 112 129
99 108 123
106 116 133
99 108 125
100 109 126
106 115 132
95 102 118
104 111 129
97 105 122
103 112 127
91 99 114
103 111 127
98 103 121
100 109 127
104 113 130
96 106 122
98 104 121
98 106 123
99 108 127
101 108 128
110 123 141
96 104 120
102 110 127
93 101 117
105 115 134
94 102 120
102 112 131
108 118 137
104 114 132
100 108 125
107 117 136
99 106 125
102 110 128
103 113 133
103 113 131
101 111 129
97 105 119
91 98 121
102 111 131
100 109 128
105 114 133
102 111 132
104 113 132
101 112 134
107 117 138
108 118 137
103 114 133
101 110 130
108 119 141
109 121 141
105 115 134
104 114 133
105 117 137
103 111 134
100 110 131
100 110 131
102 111 129
96 108 127
104 113 135
96 104 124
102 110 130
108 120 141
103 113 135
99 108 129
109 122 144
104 115 136
112 123 143
113 125 147
105 114 137
106 117 139
110 124 148
113 126 148
102 110 133
108 118 141
105 115 136
109 119 139
112 125 146
111 124 144
108 120 144
114 127 149
111 122 146
101 112 133
110 123 145
116 129 150
109 120 139
109 121 145
111 124 146
113 125 144
108 119 142
106 119 140
103 114 138
111 124 146
106 117 140
114 127 151
114 127 150
108 120 143
115 130 153
112 124 147
116 130 155
114 128 152
109 120 147
110 121 143
113 127 150
112 125 150
111 124 150
110 122 144
104 118 139
111 123 146
115 129 154
114 127 152
112 125 152
105 117 141
113 127 151
115 129 156
108 120 141
109 121 145
106 118 143
112 125 148
112 124 149
114 128 153
110 123 146
110 117 143
117 114 146
107 91 127
113 76 127
113 70 126
111 42 117
106 37 110
116 41 121
114 40 121
115 40 118
115 40 123
114 39 118
116 40 121
121 42 126
109 39 115
118 41 125
116 41 121
120 42 127
119 41 126
117 41 124
118 41 124
121 42 126
120 41 125
117 40 123
119 41 123
121 42 127
116 41 122
115 40 122
117 41 123
118 41 125
123 42 130
113 40 121
115 40 121
117 41 123
116 41 125
118 41 125
123 42 129
120 41 125
122 43 129
117 41 126
121 43 129
117 41 124
126 43 133
119 42 127
122 42 128
120 42 126
117 41 125
121 42 129
123 43 131
122 42 128
122 42 129
119 41 127
126 44 133
116 40 122
120 42 127
123 43 131
118 41 126
117 41 125
122 43 131
122 42 127
123 42 128
116 40 122
128 44 134
118 41 125
121 42 129
124 43 130
124 43 132
120 41 127
120 42 127
124 43 129
123 42 128
121 42 128
120 42 128
122 42 128
121 42 128
123 43 130
123 43 130
122 43 131
121 42 126
126 44 132
120 42 127
121 43 129
118 41 125
122 42 129
118 41 126
118 41 125
123 42 127
120 42 128
122 42 129
127 45 135
117 41 124
129 44 134
123 42 127
120 42 127
122 42 128
126 44 132
126 44 132
122 43 130
119 41 125
121 42 128
122 42 127
121 42 127
120 41 126
121 42 127
121 42 126
123 43 128
126 44 134
121 43 129
124 43 131
119 41 125
126 44 133
126 44 132
122 42 128
122 43 129
121 42 128
123 43 130
119 41 125
123 42 128
120 41 124
122 43 130
120 41 126
125 43 132
118 41 125
123 43 130
121 42 127
121 42 128
122 42 127
120 42 127
123 43 132
108 41 129
101 43 136
88 40 132
82 43 146
75 43 146
77 49 163
69 46 154
63 41 138
71 46 156
65 43 145
67 45 151
67 44 151
69 46 155
65 42 147
68 44 152
69 46 153
72 47 159
67 45 151
68 44 151
68 45 152
75 50 167
73 48 161
65 43 146
70 45 152
70 46 155
69 46 155
68 46 154
73 48 160
73 49 163
62 40 141
70 46 158
67 44 149
72 48 164
66 44 150
66 44 150
64 43 146
69 46 153
68 45 155
71 58 153
80 74 153
98 103 158
102 110 159
110 121 158
124 141 169
118 131 162
127 143 169
121 136 165
122 138 165
117 131 159
125 141 167
119 133 162
124 141 167
126 142 169
121 137 164
124 141 169
117 132 160
124 140 168
123 139 166
125 142 170
122 138 167
128 144 171
123 139 165
125 140 170
121 136 165
124 140 167
125 141 168
126 143 171
124 139 166
124 140 167
124 140 168
126 142 169
125 141 168
125 142 169
125 142 171
121 137 164
120 137 165
125 141 169
123 141 165
129 147 172
129 146 172
128 145 170
126 144 172
129 146 171
124 142 170
129 146 172
129 147 173
124 141 166
124 140 167
124 141 166
124 141 167
