P3
1600 1
255
3 122 186
3 120 182
3 121 184
3 123 187
3 121 183
3 122 186
3 122 186
3 122 186
3 123 187
3 117 178
3 118 181
3 121 183
3 122 186
3 123 187
3 125 190
3 119 180
3 119 181
3 121 184
3 119 180
3 117 177
3 125 189
3 120 181
3 121 186
3 120 181
3 117 177
3 123 187
3 117 177
3 117 178
3 121 185
3 120 180
3 114 174
3 115 175
25 118 174
55 124 178
64 126 178
90 129 170
103 138 175
105 136 170
118 140 169
123 141 167
123 142 165
126 144 168
123 141 167
128 146 170
129 147 170
128 148 172
127 147 171
124 142 166
123 143 167
126 143 169
126 144 169
123 140 166
124 141 166
122 141 165
123 141 166
124 141 166
124 143 168
122 140 164
119 137 162
120 137 164
125 143 170
125 142 167
125 143 169
124 143 168
120 140 164
123 142 164
122 140 166
126 144 169
126 144 169
114 132 157
127 146 172
120 137 161
123 139 165
116 134 160
120 138 165
119 138 164
118 135 162
124 141 166
124 143 166
119 137 164
113 131 157
123 141 166
120 139 164
125 143 169
119 136 162
118 134 160
117 134 160
119 136 160
110 127 153
119 137 161
119 139 164
120 138 164
124 141 166
120 137 164
123 140 164
116 135 158
117 134 160
120 137 162
122 139 164
123 141 165
124 142 168
120 137 163
126 143 169
128 145 169
127 145 168
125 142 169
118 136 160
123 142 167
121 140 166
115 133 158
119 137 162
122 140 164
119 138 163
122 139 163
121 139 163
124 141 166
120 138 165
115 132 159
123 139 164
123 141 167
116 134 159
120 137 162
120 137 162
120 137 163
122 139 165
123 140 165
119 136 162
121 137 164
123 142 166
122 139 166
118 135 160
121 138 162
119 136 162
120 137 161
121 138 162
123 141 167
121 139 165
122 141 166
122 139 165
113 128 153
121 139 163
117 133 157
124 142 168
119 137 165
121 139 166
122 139 163
126 143 168
121 139 164
120 138 163
121 137 162
122 141 166
121 137 161
123 142 166
123 142 167
124 142 167
118 136 162
126 145 170
123 141 165
124 143 169
117 133 157
123 141 164
122 140 166
123 140 165
122 140 165
122 139 163
124 141 166
123 141 167
125 143 168
128 144 170
126 144 169
129 148 173
126 144 170
123 141 167
128 146 170
121 138 164
121 137 161
125 144 169
128 145 169
124 140 164
125 143 169
122 140 165
126 144 168
122 139 164
122 140 165
125 143 167
126 143 167
124 140 165
128 146 170
126 143 168
130 147 170
125 144 170
126 142 167
130 149 174
123 140 165
126 145 171
125 142 165
128 146 170
126 144 168
128 146 171
129 148 172
127 143 167
126 143 169
130 148 171
126 144 169
126 145 169
128 145 170
129 146 171
125 141 165
128 146 170
127 145 171
129 147 173
128 145 169
127 144 168
127 144 168
129 146 170
125 143 168
124 142 166
128 146 169
127 145 169
127 143 167
133 150 174
130 145 169
129 147 170
125 143 168
130 149 174
125 141 165
128 145 170
129 148 173
124 141 164
129 146 171
127 144 168
128 146 171
128 145 170
128 146 171
129 146 169
126 143 167
126 143 168
129 147 171
125 143 167
128 147 170
127 144 168
127 145 169
127 145 170
129 146 169
124 141 164
127 144 169
129 145 168
132 150 174
127 145 169
127 144 170
126 143 167
127 145 167
129 146 170
131 149 173
127 145 170
129 147 171
126 143 164
128 142 165
124 141 165
126 144 169
129 147 171
130 146 170
127 142 165
128 144 169
125 142 167
125 139 162
125 143 166
129 147 172
125 140 163
128 146 170
129 146 171
128 145 169
126 142 164
129 147 170
126 143 166
127 144 166
127 143 166
131 147 171
126 145 169
126 142 166
126 142 165
123 141 163
127 144 168
130 146 170
130 146 169
131 148 173
126 144 168
129 148 171
125 142 166
127 144 168
128 146 169
125 141 163
127 144 167
126 143 167
125 144 165
127 142 166
125 142 165
129 147 171
124 140 163
123 139 161
127 143 165
128 143 166
122 138 159
127 143 166
125 140 163
123 139 161
119 133 154
124 140 163
127 144 166
121 133 154
123 139 160
125 140 164
129 146 170
122 137 160
121 138 160
122 138 159
122 138 161
124 140 161
124 141 163
120 132 152
123 138 161
121 137 158
122 139 161
122 138 159
121 135 157
121 135 157
122 137 159
121 135 157
122 137 158
122 137 159
121 134 155
117 132 153
119 135 156
121 136 159
121 136 157
119 134 156
117 130 151
118 134 156
113 126 145
111 126 147
122 135 155
114 129 150
118 131 152
116 131 154
114 128 147
113 124 143
112 124 144
118 132 153
116 128 147
104 114 130
92 98 111
83 87 98
71 72 77
54 44 39
50 40 31
44 31 13
47 33 14
48 34 14
50 35 15
45 32 13
48 34 14
48 34 14
43 31 13
46 32 13
44 31 13
45 31 13
49 34 14
44 31 13
45 31 13
50 35 15
47 33 14
47 33 14
48 33 14
49 34 14
48 34 14
52 36 15
49 34 14
47 33 14
48 34 14
48 33 14
48 33 14
48 34 14
48 33 14
48 33 14
46 32 13
45 32 13
47 33 14
45 31 13
45 31 13
46 33 14
49 34 14
44 32 13
50 35 15
48 34 14
45 32 13
48 33 14
45 31 13
43 31 13
46 32 13
46 32 13
49 34 14
45 32 13
46 32 13
44 31 12
46 32 13
46 33 13
44 30 12
45 31 13
45 31 13
44 31 13
42 30 12
42 30 12
45 31 13
39 27 11
51 44 40
69 68 72
87 94 106
83 88 98
107 118 135
111 119 134
107 109 122
118 114 125
116 104 110
111 91 89
124 92 84
127 92 81
126 89 77
124 88 75
124 88 75
125 88 76
126 88 75
123 88 76
127 89 76
129 91 78
126 88 75
127 90 77
125 88 75
130 92 79
125 89 76
131 92 79
127 90 77
129 90 77
130 92 78
123 87 75
127 90 77
131 92 78
131 92 79
129 90 77
129 90 77
125 88 76
128 91 78
131 92 78
128 89 76
128 90 77
127 89 76
130 92 78
131 92 78
127 89 76
127 90 78
130 91 78
126 89 76
131 93 79
130 91 78
130 92 79
131 92 79
131 92 78
124 88 76
129 91 77
130 91 78
130 92 78
130 91 78
130 90 76
132 91 78
125 88 75
127 90 76
129 91 77
129 90 77
129 91 78
130 92 78
124 87 75
130 92 77
134 94 80
128 90 77
129 91 78
129 90 78
128 91 78
126 90 77
127 90 77
131 93 79
124 88 76
127 89 76
131 92 79
126 89 77
121 85 73
131 92 78
129 90 77
127 90 77
130 91 78
130 92 78
126 88 76
128 90 77
126 89 76
130 92 79
132 93 79
131 92 79
123 86 74
129 91 78
131 92 78
128 91 78
130 91 78
125 87 74
128 90 77
124 88 75
124 87 75
130 91 77
127 89 76
126 89 76
126 89 77
126 89 77
122 85 73
124 87 75
123 87 76
119 84 73
126 88 76
127 89 76
124 88 76
118 84 73
126 88 75
118 84 72
117 83 72
121 86 74
123 88 75
122 86 74
124 88 75
118 83 71
123 87 74
121 86 73
123 87 75
114 81 70
120 85 73
116 83 70
116 84 73
111 85 81
117 101 101
119 105 111
122 120 132
128 135 153
126 138 158
125 141 162
127 145 166
127 143 163
128 146 167
125 142 164
129 147 170
130 146 167
127 145 167
126 145 168
128 146 166
127 143 165
126 143 165
125 143 164
129 147 169
130 146 169
123 140 160
125 143 164
129 146 168
126 143 166
128 144 165
127 144 168
128 144 165
122 138 159
122 140 161
129 145 165
126 144 166
122 139 159
128 146 167
127 144 165
129 148 168
129 146 169
125 142 163
127 145 165
128 147 169
125 144 164
126 144 166
125 143 164
126 144 165
128 145 168
123 141 164
124 141 163
124 141 162
125 141 164
127 145 166
130 147 169
124 140 160
123 140 161
129 146 168
126 143 163
124 142 163
124 142 163
125 142 164
124 141 163
125 141 162
128 145 167
125 140 162
131 148 171
122 138 158
122 139 160
127 144 164
127 141 161
130 148 171
125 143 165
128 145 166
122 138 159
125 142 165
124 143 164
127 145 168
126 144 167
126 141 162
122 139 159
126 143 163
125 142 162
128 147 166
128 147 169
126 143 164
128 145 165
123 141 161
123 140 160
126 143 165
127 143 163
121 138 159
126 144 166
120 139 159
126 142 164
124 140 161
127 145 167
126 143 166
124 140 159
128 146 166
124 140 159
126 143 163
127 144 163
126 142 163
125 142 161
121 135 155
126 143 164
127 144 164
122 141 162
126 143 163
119 143 155
113 142 144
104 144 132
95 138 118
96 143 119
95 142 116
96 146 118
94 142 116
96 145 120
95 144 118
96 144 118
95 144 119
95 143 115
97 146 120
96 146 119
95 146 116
98 148 121
96 146 119
97 146 122
97 147 121
98 149 122
98 146 121
98 146 121
93 142 115
98 147 123
96 147 121
95 143 119
98 147 121
95 146 118
96 146 122
94 143 122
90 138 126
82 129 134
71 114 143
68 111 144
65 108 149
60 101 158
54 95 160
48 89 165
48 89 165
48 88 163
48 90 166
49 92 169
49 91 168
48 90 167
47 88 162
46 86 158
48 90 166
48 90 166
48 89 166
48 88 163
49 91 167
48 90 166
48 90 166
48 91 168
48 90 168
47 88 163
49 91 169
48 90 167
49 91 168
48 91 168
47 87 163
48 90 166
49 91 169
48 90 167
46 86 160
48 90 167
48 89 165
50 93 171
48 89 164
47 89 164
50 92 170
48 90 166
48 90 166
49 91 168
48 90 165
49 91 169
50 93 171
50 93 170
48 90 166
49 92 170
50 93 171
48 90 166
49 93 171
50 92 171
50 93 171
49 92 170
49 89 164
50 92 169
49 91 169
49 91 169
51 95 174
48 90 166
48 90 167
49 91 169
50 93 170
50 92 170
49 91 168
49 92 169
50 92 170
50 92 169
49 91 167
49 90 167
50 93 170
48 91 167
49 92 169
50 93 171
48 89 163
50 92 170
50 93 171
49 91 167
50 93 171
50 92 170
49 92 171
50 92 169
50 91 167
49 89 165
49 91 166
49 91 169
48 89 164
50 92 171
49 91 167
50 91 168
48 89 164
47 87 161
48 89 165
48 88 162
49 90 166
48 90 165
48 89 164
48 89 163
48 88 162
48 89 163
48 89 163
48 88 161
48 89 162
49 91 168
48 89 164
47 87 160
48 89 163
47 86 158
49 89 162
47 88 163
48 90 166
52 89 159
65 98 159
71 100 156
88 110 153
90 112 154
102 120 150
114 131 157
118 135 156
123 138 158
117 131 148
119 134 153
118 132 151
116 129 147
116 130 149
114 127 143
121 136 154
112 124 139
119 132 149
111 124 139
117 132 147
113 126 142
117 132 149
116 130 147
118 132 147
118 132 149
119 133 150
121 135 153
117 130 147
117 131 148
122 135 152
116 129 145
118 130 146
115 128 145
118 132 150
121 134 151
114 124 140
117 130 146
117 131 146
117 131 148
116 128 144
123 136 152
115 129 145
118 129 145
123 134 148
119 130 146
123 132 149
115 125 140
122 131 145
116 127 142
117 129 143
122 133 147
112 122 136
116 126 142
123 131 147
111 120 134
111 119 132
118 130 143
120 130 144
119 129 145
116 127 141
119 133 149
121 133 150
117 131 146
115 125 140
113 125 139
116 130 149
117 130 147
114 125 140
112 124 139
116 128 145
113 128 143
113 126 142
121 135 152
115 128 143
111 125 141
118 130 146
118 131 147
105 115 128
115 126 142
112 126 141
119 132 147
114 126 141
109 121 133
112 125 140
112 126 138
112 124 138
108 122 137
116 130 143
112 123 138
114 128 142
115 127 142
108 119 131
106 115 128
109 119 134
115 128 144
117 130 145
110 120 133
112 123 137
111 123 135
108 118 131
115 126 142
107 117 128
110 120 135
116 129 144
113 126 141
111 122 135
114 125 139
111 121 136
113 125 139
104 115 126
113 124 138
104 116 128
109 118 131
106 118 131
113 124 138
112 125 139
106 117 132
108 121 135
109 119 132
104 114 125
109 120 134
109 120 133
113 123 138
109 120 133
106 117 130
113 125 139
118 129 144
110 122 136
113 125 138
106 117 127
113 124 138
103 112 122
110 122 136
107 117 129
106 116 128
103 112 123
106 115 128
113 125 138
108 117 129
108 118 133
98 108 118
101 112 124
100 110 120
107 115 126
106 115 128
99 108 119
105 116 127
102 111 123
106 114 126
104 115 126
100 108 120
99 108 116
119 131 145
101 111 122
99 107 117
93 103 110
109 119 130
111 122 135
99 107 117
105 115 128
108 118 130
99 109 119
100 109 121
107 116 127
90 99 108
107 116 128
105 117 127
102 110 122
107 117 128
101 110 118
107 116 127
105 114 127
97 107 117
94 104 111
99 106 116
98 107 117
103 111 123
97 106 117
98 108 118
106 116 128
104 114 124
97 107 117
88 97 106
101 109 120
98 107 117
94 103 111
98 105 113
99 106 115
101 109 118
103 111 122
94 103 112
106 117 128
94 101 109
101 111 120
100 108 119
101 110 120
92 100 109
97 105 115
88 94 102
98 106 115
96 104 112
93 102 112
88 95 101
94 103 110
99 109 119
88 97 104
101 110 118
99 109 119
93 100 109
90 98 105
90 97 106
93 101 109
97 105 114
93 101 110
102 112 123
99 106 116
92 100 109
100 108 119
86 92 98
94 101 110
103 112 123
97 105 113
94 103 112
87 94 101
90 97 107
90 97 107
88 96 103
96 104 113
97 106 115
91 98 108
93 100 108
108 117 129
90 96 104
94 101 110
89 97 102
96 104 113
89 95 103
87 94 101
88 95 103
97 105 113
93 99 108
93 100 109
100 108 117
93 99 108
91 100 104
92 99 107
92 100 107
89 95 104
98 106 116
89 96 104
89 95 103
91 98 107
86 92 99
94 101 109
92 100 105
90 95 104
92 99 107
92 99 105
98 106 114
88 94 103
88 96 101
87 94 101
87 93 98
89 95 102
91 99 106
88 94 99
88 94 99
86 93 99
87 94 99
87 94 100
98 105 115
85 92 98
89 96 103
97 105 112
89 98 105
92 98 106
88 93 100
90 97 104
85 93 99
83 89 97
90 96 103
94 100 111
91 98 108
85 92 99
92 100 107
94 101 108
86 93 100
80 87 93
95 104 111
90 103 102
89 108 92
84 116 67
93 131 72
89 134 47
91 135 46
97 147 51
95 143 50
99 151 52
93 140 49
94 141 49
94 142 49
95 145 50
89 136 47
93 143 49
97 145 50
93 141 49
98 147 51
96 144 49
101 152 53
95 144 50
99 150 52
99 148 51
97 144 49
93 140 49
97 146 50
94 142 49
101 153 54
95 144 51
96 144 50
98 151 52
100 151 53
94 142 49
97 147 51
104 158 54
98 149 51
97 146 51
99 150 53
96 144 50
98 147 51
100 151 52
100 150 52
94 142 49
97 147 51
95 144 51
95 142 49
100 150 52
93 140 49
102 154 53
100 151 53
96 145 51
95 145 50
101 153 53
100 152 52
99 150 52
103 155 54
99 150 52
98 149 51
102 154 54
101 153 53
95 144 50
94 142 49
94 143 50
101 152 53
95 144 50
93 140 49
92 140 49
94 138 49
101 151 53
101 150 52
100 148 51
99 147 51
95 144 50
105 158 56
102 154 54
99 150 52
100 148 52
99 151 52
101 152 53
101 152 53
96 145 50
100 153 53
96 145 51
97 145 51
94 143 50
93 140 49
99 147 52
98 148 52
100 150 53
99 148 52
101 150 52
102 151 53
92 139 48
90 133 46
95 142 50
95 144 50
95 143 50
94 142 50
95 142 50
97 147 51
97 143 51
96 144 50
92 138 49
92 136 48
94 140 49
93 138 48
93 138 49
90 137 48
87 130 46
93 140 49
98 144 56
95 131 78
93 125 82
96 116 105
104 118 118
101 109 123
100 110 123
99 108 119
101 109 123
107 117 129
101 110 123
105 115 128
105 116 132
92 97 107
96 103 115
96 103 117
105 117 130
110 122 137
100 108 122
93 100 113
107 116 133
107 118 132
100 108 121
107 116 129
103 112 124
104 115 131
96 102 117
94 99 113
103 113 128
96 105 118
98 108 123
102 111 125
105 114 128
104 113 130
101 108 121
109 118 131
98 107 123
98 107 118
108 118 134
99 108 123
108 118 133
98 107 120
105 113 128
101 111 126
105 114 130
104 113 128
105 114 130
102 111 126
101 111 126
101 111 129
100 107 123
102 110 126
104 113 127
105 114 131
96 104 119
105 115 131
105 116 130
106 115 132
100 111 125
102 111 129
105 115 131
103 111 128
100 109 124
100 108 123
99 107 125
104 114 130
107 117 134
109 121 140
101 109 125
100 107 126
99 108 124
99 108 123
104 114 131
103 113 130
102 112 130
93 101 115
110 121 141
105 113 130
99 108 123
93 99 118
102 110 127
105 115 133
101 110 128
102 111 129
91 98 114
100 109 126
104 114 134
107 116 135
106 115 132
102 110 128
99 108 124
107 118 135
102 111 130
110 122 141
106 117 136
107 119 139
102 111 130
109 120 140
96 105 123
105 116 134
104 114 133
101 111 132
106 117 135
108 119 138
102 112 132
106 116 135
104 114 136
105 114 132
98 106 123
98 106 127
98 105 125
107 118 137
107 118 139
106 115 137
98 107 123
106 116 136
106 117 138
108 119 140
99 109 131
98 109 126
113 124 144
107 117 136
105 115 135
103 111 130
113 125 147
111 124 146
106 116 137
104 113 132
112 124 146
109 120 142
109 118 140
108 120 142
102 111 132
107 118 138
113 126 149
104 114 137
109 121 141
108 120 143
114 126 150
109 121 143
108 118 138
105 117 140
111 122 146
112 126 147
114 127 149
110 123 145
108 119 140
114 129 154
113 126 147
110 122 146
111 122 149
113 125 148
117 129 150
108 120 140
117 130 151
109 121 146
112 125 148
112 125 148
115 129 153
113 126 148
111 124 147
113 126 150
116 129 149
114 127 152
110 123 145
115 128 150
110 123 146
106 117 143
113 127 148
114 127 153
108 121 144
115 128 152
107 118 140
112 126 151
111 124 147
116 131 155
111 125 150
113 125 146
114 126 151
106 119 145
110 123 146
112 125 149
113 127 150
117 132 156
110 124 146
113 127 149
107 119 142
114 127 155
111 123 149
107 120 143
112 120 147
112 112 143
114 90 134
113 79 129
112 63 125
112 46 116
113 40 119
112 39 117
110 38 115
108 38 112
117 41 123
114 39 121
116 40 120
113 40 120
117 41 123
115 40 119
116 41 123
117 41 124
114 40 120
120 41 126
113 40 120
116 40 122
114 40 119
119 42 126
119 42 127
118 41 125
121 42 128
117 41 124
120 42 126
120 42 127
120 42 127
114 40 120
116 40 123
125 43 130
124 43 131
120 41 126
117 41 123
126 43 130
118 41 125
119 41 125
117 40 123
121 43 128
123 43 131
123 43 130
118 41 126
120 41 125
118 41 124
119 42 127
120 42 129
119 41 126
119 41 125
120 41 127
122 43 130
123 43 131
118 41 127
122 43 130
120 42 127
122 42 128
117 40 123
123 43 130
122 42 129
124 42 130
123 43 131
122 42 126
118 41 125
119 42 126
120 42 127
119 41 125
120 42 128
119 42 125
120 41 127
121 42 127
120 42 127
119 41 125
121 42 128
122 42 127
119 41 124
119 41 126
124 43 131
122 42 130
120 42 128
123 43 130
122 43 129
126 43 130
123 42 130
115 40 122
126 44 132
121 42 128
119 42 127
123 43 130
121 42 130
123 42 128
124 43 131
120 42 127
124 43 131
119 41 126
125 42 128
116 40 122
116 40 122
119 41 125
121 43 128
123 43 130
121 42 129
118 41 125
124 43 130
121 42 128
119 41 126
124 43 129
123 43 131
119 42 125
119 42 126
115 40 123
120 41 125
121 42 128
124 43 131
122 42 128
124 43 131
118 41 124
125 43 131
120 42 128
122 43 128
124 43 130
121 42 127
115 41 123
126 44 133
118 41 122
120 42 125
118 41 124
118 41 126
116 42 130
103 41 130
92 41 133
86 40 138
83 45 148
71 44 152
69 46 156
67 44 151
66 44 152
67 43 147
67 44 152
69 46 152
67 44 150
71 47 157
68 44 151
66 44 151
66 44 150
67 43 152
67 44 150
65 43 147
67 44 152
69 45 157
64 41 143
67 44 153
68 45 150
70 45 154
67 43 148
68 44 152
68 44 148
66 43 149
71 47 158
69 45 152
69 46 159
68 45 156
69 46 158
71 48 159
62 41 145
74 58 157
79 74 150
98 101 160
103 109 155
111 122 159
120 134 163
120 134 163
121 136 165
125 141 168
122 137 166
122 138 167
117 130 160
119 134 162
118 132 161
121 137 164
116 131 158
122 137 165
121 138 164
124 139 163
124 140 170
126 143 170
124 139 167
120 136 164
125 141 169
128 144 172
122 138 165
120 135 161
129 147 174
122 138 165
126 142 168
122 138 166
123 139 166
121 137 166
129 147 171
126 143 169
123 139 168
126 142 168
125 142 168
125 141 169
122 137 165
122 139 166
123 139 168
128 145 172
125 140 167
125 141 169
128 144 170
122 137 166
127 143 168
125 141 166
130 148 173
126 143 170
124 140 166
121 136 160
