P3
1600 1
255
3 121 183
3 117 178
3 120 182
3 122 184
3 120 182
3 120 183
3 120 184
3 119 181
3 118 181
2 114 173
2 114 175
3 124 189
3 118 179
3 125 188
3 123 187
3 118 179
3 124 188
3 119 181
3 118 179
3 116 175
3 122 185
3 114 173
3 118 179
3 118 178
3 120 182
3 116 177
3 117 176
3 122 185
3 121 182
3 117 176
2 113 173
3 120 180
3 121 183
14 117 178
28 116 174
41 118 173
76 125 169
84 129 173
95 131 168
117 141 170
120 140 166
124 143 169
129 148 173
129 147 171
126 145 170
129 148 172
120 138 163
128 146 171
124 141 167
125 143 169
124 140 165
126 145 169
124 142 167
126 145 170
121 140 165
121 139 165
124 143 168
122 139 165
121 139 165
130 148 174
120 137 162
127 145 170
128 146 172
124 142 166
127 146 171
123 141 165
128 145 170
129 147 172
122 139 163
126 145 170
125 143 167
121 139 164
124 142 167
124 141 167
124 142 167
129 147 173
125 143 169
123 140 165
125 143 168
120 138 164
125 143 168
125 144 170
122 141 167
129 147 172
123 141 167
123 141 167
121 140 165
124 142 167
118 135 161
126 144 168
126 144 169
126 145 171
120 138 163
129 147 172
126 143 168
121 140 164
123 140 165
119 136 161
125 142 166
126 145 169
125 143 167
127 146 170
126 144 169
126 144 170
129 147 172
128 146 170
131 150 175
121 139 165
126 145 171
127 144 170
124 143 168
125 144 168
123 140 167
124 142 166
123 142 167
122 140 164
126 143 167
125 143 168
127 145 171
119 137 163
123 140 165
127 146 172
126 144 170
123 141 166
125 141 166
119 137 163
125 143 168
125 143 168
127 146 171
127 144 169
123 140 166
128 147 173
124 141 166
125 142 166
123 141 166
121 139 164
124 142 167
129 146 170
129 147 173
127 145 170
129 148 173
125 143 170
123 142 170
125 142 166
124 142 165
127 144 169
124 143 169
123 142 168
126 144 170
126 143 167
124 142 167
121 139 165
128 147 172
125 141 167
125 143 168
124 142 166
125 144 166
124 143 170
125 143 168
124 141 165
126 145 170
125 142 166
126 144 168
126 144 169
127 144 169
128 146 170
130 148 173
127 144 168
125 143 168
124 141 166
130 149 173
126 144 171
126 144 169
129 145 170
129 148 173
130 148 172
128 146 172
125 142 167
123 140 164
129 148 172
126 144 169
126 145 169
127 144 169
127 143 168
125 142 168
125 142 166
128 145 168
130 148 171
125 143 167
128 147 171
127 146 171
128 147 171
126 143 168
130 149 174
126 144 169
131 149 172
128 146 172
129 146 170
133 152 177
126 144 169
128 146 172
126 142 165
132 150 174
128 146 170
130 147 171
131 150 174
128 145 169
129 146 171
126 144 168
125 144 171
127 146 170
127 144 168
128 146 169
126 142 166
128 146 170
128 146 170
129 147 172
131 148 173
128 146 169
128 145 170
128 145 168
132 150 175
127 145 169
131 149 173
130 149 173
128 145 170
130 147 170
129 146 171
130 147 171
126 143 167
128 145 170
128 146 170
126 143 166
129 147 171
128 146 172
129 146 171
131 149 174
126 144 169
132 147 170
131 148 172
126 142 166
131 149 173
129 145 168
128 145 169
128 145 169
126 143 167
130 149 173
130 147 169
129 147 171
127 145 169
125 141 164
128 145 168
128 144 168
128 144 167
132 149 174
125 143 167
127 145 170
127 144 168
126 144 166
127 145 169
128 147 171
129 146 169
126 143 167
128 142 165
127 142 165
124 141 164
127 144 168
129 146 170
129 145 169
129 146 169
128 146 170
125 142 165
127 144 167
128 146 170
123 140 164
127 144 166
125 141 165
123 140 163
123 140 163
126 142 166
126 142 165
125 143 166
126 142 165
129 146 170
127 143 165
129 146 170
122 138 161
121 137 161
125 141 164
124 138 160
127 143 165
128 146 170
129 147 170
126 143 166
125 142 166
122 139 161
121 137 160
126 143 166
121 135 158
124 139 163
125 141 163
125 140 163
121 138 161
125 140 162
123 138 160
120 135 156
125 139 161
126 143 165
114 129 150
127 142 164
121 138 161
119 131 150
117 131 152
123 138 159
123 138 160
118 130 151
121 135 156
127 144 168
123 139 162
120 134 155
118 131 152
120 134 156
117 132 152
119 135 155
118 131 151
122 137 159
116 130 150
117 132 152
116 130 150
113 126 146
122 137 159
116 129 149
118 131 150
121 134 154
114 127 147
113 126 144
115 130 150
108 121 140
114 127 145
111 125 144
107 120 139
107 116 134
104 115 133
109 121 140
107 120 138
107 119 138
119 132 152
103 113 130
106 118 136
114 126 146
112 125 143
102 112 129
115 127 146
112 124 142
105 116 134
97 108 123
91 101 115
84 90 102
71 73 81
60 58 61
58 54 56
45 33 23
40 30 21
44 30 13
44 31 13
43 30 12
43 30 13
41 29 12
42 29 12
46 32 13
41 28 12
43 30 13
45 31 13
46 32 13
49 34 14
44 31 13
44 31 13
46 32 13
43 30 13
43 30 12
45 31 13
43 30 13
42 29 12
41 28 11
44 31 13
46 32 13
45 31 13
42 30 12
44 31 13
44 31 13
41 29 12
43 30 12
42 29 12
42 29 12
45 31 13
39 27 11
39 27 11
45 31 13
40 28 12
40 28 12
41 29 12
41 29 11
40 28 11
40 28 11
41 28 12
38 26 11
40 33 24
48 44 42
57 54 57
73 77 85
73 77 85
92 101 114
89 97 112
98 108 123
81 86 97
86 94 107
93 101 116
88 94 105
107 113 127
102 102 114
108 102 109
109 97 102
116 90 85
120 89 80
122 88 78
126 88 75
124 87 74
128 90 77
126 89 77
127 89 76
126 89 76
127 89 76
125 87 74
129 90 77
127 89 77
127 89 76
125 88 76
130 92 78
126 89 76
126 90 76
129 91 78
123 88 75
131 92 78
126 88 75
128 90 77
128 90 77
124 88 75
127 89 77
128 90 77
128 90 77
125 89 77
128 91 78
124 87 74
132 93 80
128 90 77
128 90 76
124 88 76
123 87 75
129 91 78
124 88 75
131 91 78
129 90 77
124 87 73
132 92 78
125 88 75
126 88 75
127 89 75
127 89 76
127 89 77
130 91 77
129 90 77
123 87 74
130 91 78
128 89 76
132 93 79
130 91 78
128 91 78
129 91 77
127 89 77
126 88 76
129 91 78
124 86 73
126 89 77
125 89 76
124 87 75
128 91 77
128 90 77
124 88 76
130 91 78
131 92 79
124 86 74
131 92 79
124 87 75
131 92 78
124 88 76
131 92 78
129 90 77
126 88 76
128 90 77
131 92 78
132 92 79
124 87 74
125 87 74
124 88 76
124 87 74
126 88 76
121 85 72
128 91 78
123 87 74
124 88 76
125 87 75
120 85 74
126 89 76
120 85 73
130 91 77
126 89 76
119 84 72
123 87 75
126 89 76
119 83 71
121 85 72
121 86 74
123 88 76
123 86 74
126 88 76
119 84 73
122 86 73
121 86 74
128 90 77
119 85 73
124 86 73
117 84 72
120 85 73
118 84 72
114 80 70
117 83 72
115 81 69
116 82 70
113 80 70
112 80 69
117 83 71
116 82 70
121 85 72
115 84 75
118 98 98
122 112 119
123 116 125
119 123 138
122 135 152
124 140 161
127 144 167
128 145 166
126 143 164
127 144 164
127 145 167
128 143 165
126 143 164
129 147 170
126 141 162
122 139 159
126 142 164
128 145 166
123 139 159
125 140 161
130 148 170
126 143 164
131 150 173
131 148 170
125 142 163
129 147 170
130 150 170
126 143 165
126 144 165
126 144 167
126 145 167
124 141 161
126 142 165
127 144 166
123 140 162
125 142 164
126 145 165
129 146 168
126 142 164
124 143 163
127 144 165
129 146 169
124 143 162
129 147 169
126 144 165
122 138 159
126 144 165
123 140 160
126 143 164
128 144 166
121 139 160
128 145 167
126 144 165
129 145 166
127 145 166
128 145 168
129 147 168
125 143 163
125 142 163
128 147 171
125 143 164
130 149 172
129 146 168
123 140 161
124 142 161
127 144 163
128 146 167
127 145 167
128 145 166
124 143 162
129 146 168
125 144 164
122 138 159
129 146 166
121 140 159
124 140 161
125 143 165
120 137 156
129 145 168
124 142 164
126 144 166
122 138 159
128 146 169
129 145 165
124 140 158
128 145 165
125 144 165
122 139 158
123 139 159
125 144 163
123 140 159
124 142 163
125 142 163
125 141 161
124 140 160
127 146 166
126 145 163
127 143 162
126 144 164
123 142 162
124 142 162
124 140 159
123 141 162
128 147 168
124 141 160
117 133 153
122 143 159
117 141 151
111 142 143
95 133 119
92 139 114
91 139 113
91 138 111
94 141 114
92 140 112
93 141 115
94 143 116
98 149 122
96 146 120
94 141 115
93 141 115
95 145 118
95 144 119
92 140 114
96 144 118
97 146 121
96 146 118
97 148 120
97 145 120
95 143 117
94 143 116
95 145 118
93 143 120
90 137 127
84 130 138
77 123 137
71 117 147
62 104 149
54 93 152
49 87 154
47 86 159
48 89 164
47 87 161
46 84 154
48 88 163
47 89 165
48 89 165
48 89 165
46 85 157
48 89 164
48 90 166
47 88 164
48 89 162
47 87 160
48 89 164
48 90 167
48 89 164
47 86 159
47 89 164
48 89 164
48 90 165
46 87 161
48 89 163
48 90 166
46 87 162
49 90 166
48 91 168
48 90 166
47 88 163
48 91 168
48 89 165
47 87 160
49 91 168
48 91 167
48 89 165
49 91 169
49 92 170
48 90 165
48 90 165
47 88 162
50 93 170
49 91 170
49 92 171
49 91 168
47 87 162
48 89 165
50 92 168
46 86 159
48 90 166
49 90 166
50 92 170
48 90 167
50 92 168
48 90 166
48 89 164
48 90 166
49 91 168
50 93 170
48 88 162
50 93 171
49 91 168
48 89 164
49 91 167
50 91 167
48 90 166
50 92 168
48 90 165
49 91 166
50 91 165
49 91 167
48 89 164
49 91 169
49 89 164
49 90 166
49 90 165
48 89 164
47 87 161
49 92 169
48 90 166
48 89 163
49 91 168
49 90 166
49 91 167
49 91 166
48 88 162
49 91 165
47 88 162
49 91 167
49 92 169
49 90 165
47 88 162
49 90 164
49 90 165
48 88 162
49 91 166
49 89 163
48 88 162
50 92 168
49 89 164
49 89 163
49 90 165
49 90 164
48 88 162
46 86 158
48 88 161
48 88 161
46 84 155
46 86 159
46 85 155
47 86 157
53 90 159
60 92 154
67 93 149
82 104 148
92 113 152
99 119 153
106 123 149
116 131 149
123 138 155
117 133 150
116 131 148
119 133 150
119 135 150
115 130 144
117 130 146
121 135 154
119 133 152
118 133 150
121 135 153
120 133 150
116 129 147
117 130 145
117 131 148
119 131 148
123 133 149
128 136 152
119 124 138
131 139 154
128 132 146
123 128 141
129 134 146
132 130 141
136 132 143
136 134 145
143 143 154
143 141 151
136 135 146
145 142 152
144 145 155
138 135 146
148 143 150
135 131 137
146 138 144
147 146 153
147 141 148
147 140 147
154 147 152
152 145 154
154 147 154
147 140 146
144 135 141
144 136 145
130 127 134
141 132 135
139 134 143
142 133 140
136 134 142
142 138 148
136 131 140
139 137 147
127 124 130
136 133 142
134 132 140
133 135 146
127 128 137
128 129 138
124 125 136
117 122 133
126 128 137
120 124 133
121 126 139
119 128 140
115 127 140
114 122 137
113 126 142
117 128 142
118 132 147
116 130 147
117 130 144
117 128 142
116 130 146
114 126 139
111 124 137
116 129 144
111 124 138
109 121 135
110 122 136
118 131 149
112 123 135
111 124 138
114 126 140
114 125 140
116 130 144
115 126 141
107 117 131
109 119 133
111 122 136
114 126 141
112 124 139
112 125 139
107 118 132
117 129 144
114 125 142
111 123 136
111 123 137
117 129 144
117 129 144
112 123 137
119 133 148
107 117 131
112 124 139
119 131 147
115 126 140
114 125 140
114 127 140
112 123 138
108 119 134
112 125 140
122 135 152
107 119 134
113 125 140
115 126 141
109 120 134
109 119 131
114 126 141
112 125 138
107 117 129
112 122 136
115 126 142
113 124 138
107 118 130
106 116 128
107 117 130
112 124 138
107 118 131
103 113 125
112 121 135
106 116 129
110 120 133
109 120 133
110 122 134
104 115 128
107 116 129
107 118 128
104 113 124
109 121 134
106 116 129
109 120 133
107 118 130
110 120 132
105 117 126
100 109 119
105 115 127
108 120 132
110 121 134
111 120 132
105 116 129
106 119 130
109 120 134
105 116 129
108 119 132
101 111 122
108 119 132
102 112 122
102 112 122
104 113 124
101 109 116
110 121 134
98 107 116
108 119 130
105 115 128
104 114 127
104 115 125
109 120 130
103 111 121
107 118 130
103 111 121
106 116 128
109 121 135
106 118 129
104 113 124
105 113 123
104 114 126
105 113 124
102 112 122
104 115 126
105 114 128
103 112 123
102 112 122
106 116 129
99 108 117
97 106 115
106 115 126
106 116 128
105 116 125
102 111 122
100 111 121
101 110 119
102 112 123
107 117 129
108 118 129
103 112 121
88 96 105
102 111 121
99 108 118
97 105 113
97 105 114
98 108 118
98 107 118
103 113 125
100 111 121
95 103 113
98 108 119
96 105 113
101 109 117
100 109 121
107 119 131
88 96 103
97 106 114
98 106 117
95 104 115
93 101 111
96 105 116
95 103 113
95 105 115
103 112 122
101 111 120
104 113 123
98 106 118
95 103 111
98 106 116
97 106 115
103 111 120
97 105 115
100 107 119
99 108 119
102 110 120
98 106 115
100 110 121
91 98 107
97 107 118
93 101 107
94 101 108
90 98 107
102 112 122
104 114 127
96 104 112
101 111 121
100 108 117
90 98 106
101 111 121
97 105 117
95 103 113
96 104 109
92 102 108
99 107 119
99 108 118
89 96 103
94 100 107
92 102 108
101 111 123
92 100 108
95 102 109
91 100 110
96 106 114
93 100 104
97 106 116
99 108 119
98 108 116
97 106 115
101 109 119
95 102 111
91 98 108
92 99 105
95 102 110
98 106 114
94 102 112
93 102 112
93 101 108
91 99 108
96 104 112
93 101 108
96 103 114
94 103 109
93 100 108
91 99 109
97 107 118
99 108 116
96 103 112
93 105 106
95 116 98
86 116 75
89 130 61
95 138 56
91 137 47
88 135 46
90 137 47
89 136 47
96 145 50
93 141 48
92 138 48
91 137 47
90 137 47
92 140 48
90 137 48
91 140 48
95 146 50
95 144 50
95 144 50
93 141 49
95 144 49
99 150 52
96 145 49
96 144 50
95 144 50
92 140 48
90 137 47
94 142 49
96 146 51
94 144 50
94 143 50
94 142 50
96 145 50
94 143 50
95 145 50
93 142 49
89 135 47
97 148 52
99 148 51
92 140 48
92 139 48
92 139 48
98 147 51
94 140 49
93 142 49
97 147 51
98 145 51
98 148 51
95 142 49
102 153 53
98 146 51
93 141 49
99 146 51
97 147 51
99 149 52
99 149 52
99 149 52
96 141 50
96 146 51
102 154 54
102 152 53
101 153 53
95 145 51
91 136 48
97 145 51
93 141 49
97 144 50
96 145 50
93 142 50
95 144 50
97 147 52
93 139 48
98 148 51
99 148 51
105 156 55
96 146 51
97 146 51
93 139 49
99 148 52
99 148 51
100 151 53
98 147 51
95 143 50
95 144 50
92 137 48
95 143 50
99 148 52
87 130 46
90 136 47
97 144 51
96 143 50
98 150 52
96 145 51
95 141 49
83 126 43
91 138 48
93 139 49
89 136 47
92 138 49
96 145 50
89 134 46
96 144 50
92 136 49
85 128 46
88 132 46
89 132 47
94 132 73
92 120 88
101 124 111
106 121 124
102 111 125
95 103 113
107 117 130
98 106 119
108 118 133
103 113 128
105 115 126
107 118 132
107 118 133
99 109 123
105 115 132
108 118 134
99 108 122
99 108 120
100 110 124
100 108 123
105 117 131
111 123 141
102 111 125
100 108 120
105 115 131
103 111 126
102 114 127
112 124 141
109 118 134
102 112 126
100 109 123
107 116 132
103 113 128
105 114 131
102 111 124
99 108 121
104 114 129
103 115 130
100 109 124
114 125 141
101 112 124
103 114 126
107 117 132
107 119 133
108 117 133
105 116 131
104 114 128
101 110 127
104 113 128
104 114 129
107 116 133
102 112 130
109 120 135
107 118 135
102 112 128
108 120 137
111 122 140
114 127 145
106 116 132
112 123 142
106 117 133
111 123 139
104 115 131
106 115 133
102 113 127
114 127 145
110 120 136
107 119 135
104 114 129
104 114 130
108 118 135
95 104 117
101 110 127
108 119 137
107 118 135
118 131 150
110 122 141
106 115 137
113 125 141
102 112 128
108 120 135
109 118 137
113 125 144
109 120 137
105 115 132
108 118 138
106 116 133
110 122 139
104 114 135
106 116 132
111 124 143
110 122 139
115 126 145
115 127 146
103 113 131
105 114 132
113 124 144
112 124 144
106 117 134
109 121 139
102 111 129
109 120 140
103 113 133
108 117 136
107 117 139
114 126 148
106 117 136
112 123 143
108 119 138
108 119 138
111 123 144
108 121 142
111 125 144
112 125 145
117 129 147
112 124 144
116 128 148
107 118 137
116 130 150
107 118 138
112 123 143
110 123 140
108 118 137
112 123 144
106 118 136
108 119 139
109 121 141
114 126 148
112 123 144
114 126 146
116 129 150
118 133 154
106 118 136
118 131 155
112 124 144
113 126 147
107 119 139
112 123 142
108 119 140
109 121 144
117 129 149
112 123 143
110 121 143
114 127 150
110 121 141
111 124 145
118 133 155
119 132 153
110 122 143
112 125 144
113 126 147
112 125 147
109 122 143
115 129 152
113 126 150
111 123 145
110 123 146
110 123 146
116 127 150
111 124 145
115 128 150
115 127 151
114 127 152
116 129 152
114 127 151
114 128 153
113 125 148
122 138 162
110 122 142
118 131 155
114 127 149
114 128 149
110 122 148
118 132 156
117 130 153
114 128 150
119 133 156
113 127 149
116 131 154
119 134 157
116 129 150
113 124 145
118 132 157
112 124 148
114 126 151
114 128 148
111 125 151
108 117 142
116 129 155
109 121 147
113 122 147
114 115 145
112 104 139
108 83 124
108 60 119
115 48 122
111 39 115
108 38 114
109 38 114
110 38 115
115 41 123
112 39 117
124 43 129
114 40 119
114 40 120
116 41 122
111 38 117
117 41 123
110 38 116
119 41 126
114 40 121
113 39 119
115 40 121
118 41 125
114 40 120
116 41 124
112 39 119
113 40 119
120 42 128
112 39 118
118 41 127
121 42 129
120 42 127
114 40 120
113 39 119
119 41 125
119 41 125
120 42 127
119 41 124
124 43 132
118 42 126
118 41 125
122 42 128
121 42 127
123 43 131
117 41 123
118 41 126
118 41 125
117 40 122
116 40 123
119 41 125
115 40 123
120 41 124
124 44 132
123 43 132
117 40 124
119 41 125
122 42 129
120 42 126
124 42 129
117 41 127
120 41 126
123 43 129
121 42 127
118 41 126
114 40 123
122 42 128
118 41 124
121 42 128
120 41 125
121 42 127
116 40 121
120 42 128
124 43 131
123 42 130
119 41 127
115 40 121
117 41 126
120 41 125
114 39 120
120 42 127
120 42 126
118 41 124
121 42 126
120 42 128
124 43 131
117 40 124
118 41 125
122 42 129
123 42 127
115 40 120
123 42 128
120 42 127
116 40 122
121 42 129
119 41 125
120 41 126
121 42 128
124 44 132
123 43 130
121 42 128
115 41 122
118 41 125
120 42 126
120 41 127
113 39 119
119 42 126
120 41 126
125 44 133
118 41 126
121 42 130
118 41 123
121 42 128
120 42 127
121 41 126
121 42 126
115 40 120
117 40 123
120 42 126
123 42 127
122 42 129
123 43 130
116 41 123
119 42 125
121 42 129
122 42 128
119 42 126
121 42 127
116 40 121
117 41 123
117 43 131
109 41 128
99 42 135
92 41 136
87 41 136
63 41 140
63 41 141
65 42 147
61 41 142
64 42 144
68 45 150
68 44 150
63 42 145
64 42 146
61 40 140
67 44 151
64 42 147
60 39 136
66 44 151
64 41 143
58 38 135
66 43 147
61 40 139
65 42 148
65 42 150
64 41 143
61 40 141
63 41 144
62 41 139
61 40 140
69 54 150
70 59 144
79 71 154
94 98 147
92 98 143
104 113 150
108 120 153
109 122 158
116 131 160
116 130 160
117 133 163
115 127 157
112 125 157
118 133 162
116 131 159
122 138 168
119 135 163
116 130 162
122 138 166
118 132 164
119 134 162
115 129 159
122 137 164
118 132 160
120 135 163
116 129 161
115 129 159
125 140 168
124 139 168
119 134 164
122 137 166
121 136 166
122 138 165
116 130 159
120 135 161
117 131 161
117 131 161
123 138 165
124 140 167
126 142 168
127 142 170
118 133 164
123 139 168
127 143 168
120 134 163
127 143 171
128 145 172
124 139 165
126 142 168
125 142 168
123 140 168
128 145 169
122 138 166
125 141 170
126 143 171
128 144 169
128 146 172
124 140 167
125 141 169
127 144 171
