P3
1600 1
255
221 235 255
221 235 255
221 236 255
221 235 255
221 235 255
221 235 255
221 235 255
221 235 255
221 235 255
221 235 255
221 235 255
221 235 255
221 235 255
221 235 255
221 236 255
221 236 255
221 235 255
221 235 255
221 235 255
221 236 255
221 236 255
221 235 255
221 236 255
221 236 255
221 235 255
221 235 255
221 235 255
221 235 255
221 236 255
221 235 255
221 235 255
221 236 255
221 235 255
221 235 255
221 235 255
221 235 255
221 235 255
221 235 255
221 236 255
221 235 255
221 235 255
221 236 255
221 235 255
221 236 255
221 236 255
221 235 255
221 235 255
221 236 255
221 236 255
221 235 255
221 235 255
221 235 255
221 236 255
221 236 255
221 236 255
221 235 255
221 236 255
221 235 255
221 235 255
221 236 255
221 235 255
221 235 255
221 235 255
221 236 255
221 236 255
221 235 255
221 235 255
221 236 255
221 235 255
221 235 255
221 235 255
221 236 255
221 236 255
221 236 255
221 235 255
221 236 255
221 235 255
221 235 255
221 235 255
221 236 255
221 235 255
221 235 255
221 235 255
221 235 255
221 236 255
221 235 255
221 235 255
221 235 255
221 236 255
221 236 255
221 235 255
221 235 255
221 235 255
221 236 255
221 236 255
221 235 255
221 236 255
221 235 255
221 235 255
221 236 255
221 236 255
221 236 255
221 236 255
221 235 255
221 235 255
221 235 255
221 235 255
221 235 255
221 236 255
221 236 255
221 235 255
221 236 255
221 235 255
221 235 255
221 235 255
221 236 255
221 236 255
221 236 255
221 235 255
221 235 255
221 235 255
221 235 255
221 235 255
221 236 255
221 236 255
221 235 255
221 236 255
221 235 255
221 235 255
221 236 255
221 235 255
221 236 255
221 235 255
221 235 255
221 235 255
221 235 255
221 235 255
221 235 255
221 235 255
221 235 255
221 235 255
221 236 255
221 236 255
221 235 255
221 235 255
221 235 255
221 235 255
221 236 255
221 235 255
221 236 255
221 235 255
221 235 255
221 235 255
221 235 255
221 235 255
221 235 255
221 235 255
221 235 255
221 235 255
221 236 255
221 235 255
221 235 255
221 235 255
221 235 255
221 236 255
221 236 255
221 236 255
221 236 255
221 235 255
221 236 255
221 236 255
221 235 255
221 235 255
221 235 255
221 236 255
221 236 255
221 236 255
221 235 255
221 235 255
221 235 255
221 236 255
221 235 255
221 236 255
221 235 255
221 235 255
221 235 255
221 236 255
221 235 255
221 235 255
221 235 255
221 236 255
221 236 255
221 235 255
221 235 255
221 235 255
221 235 255
221 235 255
221 235 255
221 235 255
221 235 255
221 235 255
221 235 255
221 235 255
221 235 255
221 236 255
221 235 255
221 236 255
221 235 255
221 236 255
221 235 255
221 235 255
221 236 255
221 236 255
221 235 255
221 236 255
221 235 255
221 235 255
221 236 255
221 236 255
221 235 255
221 235 255
221 235 255
221 236 255
221 236 255
221 235 255
221 235 255
221 235 255
221 236 255
221 236 255
221 236 255
221 235 255
221 236 255
221 235 255
221 236 255
221 235 255
221 236 255
221 235 255
221 235 255
221 236 255
221 235 255
221 236 255
221 235 255
221 235 255
221 236 255
221 235 255
221 235 255
221 236 255
221 236 255
221 235 255
221 235 255
221 235 255
221 235 255
221 235 255
221 235 255
221 235 255
221 235 255
221 236 255
221 236 255
221 236 255
221 236 255
221 235 255
221 235 255
221 235 255
221 235 255
221 235 255
221 235 255
221 236 255
221 235 255
221 235 255
221 236 255
221 236 255
221 235 255
221 235 255
221 235 255
221 235 255
221 236 255
221 235 255
221 235 255
221 235 255
221 236 255
221 235 255
221 235 255
221 236 255
221 235 255
221 235 255
221 235 255
221 236 255
221 235 255
221 235 255
221 235 255
221 236 255
221 236 255
221 235 255
221 236 255
221 236 255
221 235 255
221 235 255
221 236 255
221 236 255
221 235 255
221 235 255
221 235 255
221 235 255
221 235 255
221 235 255
221 235 255
221 236 255
221 235 255
221 235 255
221 236 255
221 235 255
221 235 255
221 235 255
221 235 255
221 235 255
221 235 255
221 235 255
221 235 255
221 235 255
221 236 255
221 236 255
221 235 255
221 235 255
221 235 255
221 235 255
221 235 255
221 235 255
221 236 255
221 235 255
221 235 255
221 236 255
221 235 255
221 236 255
221 235 255
221 235 255
221 235 255
221 235 255
221 236 255
221 235 255
221 235 255
221 235 255
221 235 255
221 235 255
221 235 255
221 235 255
221 235 255
221 235 255
221 235 255
221 236 255
221 235 255
221 236 255
221 235 255
221 235 255
221 236 255
221 235 255
221 235 255
221 236 255
221 236 255
221 235 255
221 236 255
221 235 255
221 236 255
221 235 255
221 236 255
221 235 255
221 235 255
221 235 255
221 236 255
221 236 255
221 236 255
221 236 255
221 235 255
221 236 255
221 236 255
221 235 255
221 235 255
221 235 255
221 235 255
221 235 255
221 235 255
221 235 255
221 235 255
221 235 255
221 235 255
221 236 255
221 236 255
221 235 255
221 235 255
221 235 255
221 235 255
221 235 255
221 235 255
221 235 255
221 236 255
221 236 255
221 236 255
221 235 255
221 236 255
221 235 255
221 236 255
221 235 255
221 236 255
221 236 255
221 236 255
221 235 255
221 235 255
221 235 255
221 235 255
221 235 255
221 236 255
221 235 255
221 235 255
221 235 255
221 235 255
221 236 255
221 235 255
221 235 255
221 235 255
221 235 255
221 235 255
221 236 255
221 235 255
221 235 255
221 235 255
221 236 255
221 235 255
221 235 255
221 236 255
221 235 255
221 235 255
221 235 255
221 235 255
221 235 255
221 235 255
221 235 255
221 235 255
221 235 255
221 236 255
221 235 255
221 235 255
221 236 255
221 235 255
221 235 255
221 236 255
221 235 255
221 235 255
221 235 255
221 235 255
221 235 255
221 235 255
221 236 255
221 235 255
221 235 255
221 235 255
221 235 255
221 236 255
221 235 255
221 235 255
221 235 255
221 235 255
221 235 255
221 235 255
221 235 255
221 235 255
221 236 255
221 236 255
221 236 255
221 235 255
221 235 255
221 235 255
221 236 255
221 235 255
221 235 255
221 235 255
221 235 255
221 235 255
221 236 255
221 235 255
221 235 255
221 235 255
221 236 255
221 236 255
221 235 255
221 235 255
221 236 255
221 236 255
221 235 255
221 235 255
221 235 255
221 235 255
221 235 255
221 235 255
221 235 255
221 236 255
221 235 255
221 236 255
221 236 255
221 235 255
221 235 255
221 236 255
221 235 255
221 235 255
221 235 255
221 236 255
221 235 255
221 235 255
221 235 255
221 235 255
221 235 255
221 235 255
221 235 255
221 235 255
221 235 255
221 235 255
221 235 255
221 236 255
221 236 255
221 235 255
221 235 255
221 235 255
221 235 255
221 235 255
221 236 255
221 235 255
221 235 255
221 235 255
221 236 255
221 235 255
221 236 255
221 236 255
221 236 255
221 236 255
221 236 255
221 235 255
221 236 255
221 235 255
221 236 255
221 236 255
221 236 255
221 236 255
221 236 255
221 235 255
221 236 255
221 235 255
221 236 255
221 236 255
221 235 255
221 236 255
221 235 255
221 235 255
221 235 255
221 236 255
221 235 255
221 235 255
221 236 255
221 236 255
221 235 255
221 235 255
221 235 255
221 235 255
221 236 255
221 235 255
221 235 255
221 236 255
221 235 255
221 235 255
221 235 255
221 236 255
221 236 255
221 236 255
221 236 255
221 235 255
221 235 255
221 235 255
221 236 255
221 236 255
221 236 255
221 236 255
221 236 255
221 235 255
221 235 255
221 235 255
221 236 255
221 235 255
221 236 255
221 235 255
221 235 255
221 235 255
221 235 255
221 235 255
221 236 255
221 235 255
221 235 255
221 236 255
221 235 255
221 235 255
221 235 255
221 235 255
221 236 255
221 236 255
221 235 255
221 235 255
221 235 255
221 235 255
221 235 255
221 236 255
221 236 255
221 236 255
221 235 255
221 235 255
221 236 255
221 235 255
221 235 255
221 236 255
221 236 255
221 236 255
221 235 255
221 235 255
221 235 255
221 235 255
221 235 255
221 235 255
221 235 255
221 236 255
221 235 255
221 235 255
221 235 255
221 235 255
221 236 255
221 235 255
221 235 255
221 235 255
221 235 255
221 236 255
221 235 255
221 235 255
220 235 254
219 233 252
220 235 254
219 233 252
220 235 254
217 231 250
218 232 251
217 231 250
219 233 252
216 230 248
217 231 250
216 230 248
211 223 240
210 221 239
209 220 238
216 229 247
208 218 235
210 221 239
212 225 242
208 218 235
206 216 233
204 213 229
208 218 235
210 222 239
212 224 241
207 217 234
209 220 238
208 218 235
205 215 231
210 221 239
205 214 230
207 217 234
205 214 230
205 214 230
211 223 240
207 217 234
204 214 230
205 215 231
212 224 241
209 219 236
209 220 238
213 226 244
212 224 242
213 226 244
210 221 239
211 222 240
211 222 240
215 228 246
215 228 246
216 230 248
217 230 248
218 232 251
220 234 253
219 233 252
220 235 254
220 234 253
220 235 254
221 235 255
221 235 255
221 235 255
221 235 255
221 235 255
221 235 255
221 235 255
221 236 255
221 235 255
221 235 255
221 235 255
221 236 255
221 235 255
221 236 255
221 235 255
221 235 255
221 236 255
221 235 255
221 235 255
221 235 255
221 235 255
221 236 255
221 236 255
221 236 255
221 235 255
221 236 255
221 236 255
221 235 255
221 236 255
221 235 255
221 236 255
221 235 255
221 236 255
221 235 255
221 236 255
221 235 255
221 235 255
221 235 255
221 236 255
221 235 255
221 236 255
221 235 255
221 235 255
221 235 255
221 236 255
221 236 255
221 236 255
221 236 255
221 236 255
221 235 255
221 235 255
221 235 255
221 236 255
221 236 255
221 235 255
221 235 255
221 235 255
221 235 255
221 235 255
221 236 255
221 235 255
221 235 255
221 235 255
221 236 255
221 235 255
221 236 255
221 236 255
221 235 255
221 236 255
221 235 255
221 235 255
221 235 255
221 236 255
221 236 255
221 235 255
221 235 255
221 236 255
221 235 255
221 236 255
221 236 255
221 235 255
221 235 255
221 236 255
221 236 255
221 235 255
221 236 255
221 236 255
221 235 255
221 235 255
221 236 255
221 235 255
221 235 255
221 235 255
221 236 255
220 235 254
221 236 255
221 235 255
221 235 255
221 235 255
221 235 255
221 235 255
220 235 254
220 235 254
221 235 255
221 235 255
221 235 255
221 235 255
220 235 254
221 235 255
220 235 254
221 235 255
221 235 255
221 235 255
221 235 255
221 235 255
221 235 255
221 235 255
221 235 255
221 235 255
221 235 255
221 235 255
221 235 255
221 235 255
221 235 255
221 235 255
221 235 255
221 235 255
221 235 255
221 235 255
221 236 255
221 236 255
221 235 255
221 235 255
221 235 255
221 236 255
221 235 255
221 235 255
221 235 255
221 236 255
221 235 255
221 235 255
221 235 255
221 235 255
221 235 255
221 235 255
221 235 255
221 236 255
221 235 255
221 235 255
221 235 255
221 236 255
221 235 255
221 236 255
221 235 255
221 235 255
221 236 255
221 236 255
221 235 255
221 235 255
221 235 255
221 235 255
221 235 255
221 235 255
221 235 255
221 235 255
221 235 255
221 235 255
221 235 255
221 236 255
221 235 255
221 235 255
221 235 255
221 235 255
221 235 255
221 235 255
221 235 255
221 236 255
221 236 255
221 235 255
221 235 255
221 235 255
221 236 255
221 235 255
221 235 255
221 236 255
221 236 255
221 235 255
221 235 255
221 235 255
221 235 255
221 235 255
221 235 255
221 235 255
221 235 255
221 236 255
221 236 255
221 236 255
221 235 255
221 236 255
221 235 255
221 235 255
221 235 255
221 235 255
221 235 255
221 235 255
221 235 255
221 235 255
221 236 255
221 235 255
221 236 255
221 235 255
221 236 255
221 235 255
221 236 255
221 235 255
221 235 255
221 235 255
221 236 255
221 235 255
221 235 255
221 235 255
221 235 255
221 235 255
221 236 255
221 235 255
221 235 255
221 236 255
221 235 255
221 235 255
221 236 255
221 235 255
221 235 255
221 235 255
221 235 255
221 235 255
221 235 255
221 236 255
221 235 255
221 236 255
221 235 255
221 235 255
221 235 255
221 235 255
221 235 255
221 235 255
221 236 255
221 235 255
221 236 255
221 236 255
221 236 255
221 236 255
221 236 255
221 235 255
221 236 255
221 236 255
221 236 255
221 236 255
221 235 255
221 236 255
221 235 255
221 235 255
221 235 255
221 235 255
221 236 255
221 235 255
221 235 255
221 235 255
221 235 255
221 235 255
221 235 255
221 236 255
221 235 255
221 236 255
221 235 255
221 235 255
221 235 255
221 235 255
221 236 255
221 235 255
221 235 255
221 236 255
221 235 255
221 235 255
221 236 255
221 235 255
221 235 255
221 235 255
221 235 255
221 235 255
221 236 255
221 235 255
221 235 255
221 236 255
221 236 255
221 235 255
221 235 255
221 235 255
221 235 255
221 235 255
221 235 255
221 236 255
221 236 255
221 235 255
221 236 255
221 235 255
221 235 255
221 235 255
221 235 255
221 235 255
221 235 255
221 236 255
221 235 255
221 235 255
221 235 255
221 235 255
221 235 255
221 236 255
221 235 255
221 236 255
221 235 255
221 235 255
221 235 255
221 235 255
221 236 255
221 235 255
221 236 255
221 236 255
221 236 255
221 236 255
221 236 255
221 236 255
221 235 255
221 235 255
221 235 255
221 236 255
221 235 255
221 235 255
221 236 255
221 235 255
221 235 255
221 236 255
221 235 255
221 236 255
221 235 255
221 235 255
221 236 255
221 235 255
221 235 255
221 235 255
221 235 255
221 235 255
221 235 255
221 236 255
221 236 255
221 235 255
221 235 255
221 235 255
221 235 255
221 235 255
221 235 255
221 236 255
221 235 255
221 235 255
221 235 255
221 236 255
221 235 255
221 235 255
221 235 255
221 235 255
221 235 255
221 235 255
221 236 255
221 236 255
221 236 255
221 235 255
221 235 255
221 235 255
221 236 255
221 235 255
221 235 255
221 235 255
221 236 255
221 236 255
221 235 255
221 235 255
221 235 255
221 235 255
221 235 255
221 235 255
221 235 255
221 235 255
221 235 255
221 235 255
221 235 255
221 236 255
221 235 255
221 235 255
221 235 255
221 235 255
221 235 255
221 236 255
221 235 255
221 236 255
221 236 255
221 235 255
221 236 255
221 235 255
221 236 255
221 236 255
221 235 255
221 235 255
221 235 255
221 235 255
221 236 255
221 235 255
221 235 255
221 236 255
221 235 255
221 235 255
221 235 255
221 235 255
221 235 255
221 235 255
221 235 255
221 235 255
221 235 255
221 235 255
221 235 255
221 236 255
221 235 255
221 235 255
221 235 255
221 235 255
221 235 255
221 235 255
221 236 255
221 235 255
221 236 255
221 236 255
221 235 255
221 235 255
221 235 255
221 236 255
221 235 255
221 235 255
221 236 255
221 235 255
221 235 255
221 236 255
221 236 255
221 235 255
221 235 255
221 236 255
221 235 255
221 235 255
221 235 255
221 235 255
221 235 255
221 235 255
221 235 255
221 235 255
221 236 255
221 235 255
221 235 255
221 235 255
221 235 255
221 235 255
221 235 255
221 235 255
221 235 255
221 236 255
221 235 255
221 236 255
221 235 255
221 235 255
221 235 255
221 235 255
221 236 255
221 235 255
221 236 255
221 235 255
221 235 255
221 235 255
221 236 255
221 235 255
221 235 255
221 235 255
221 235 255
221 235 255
221 235 255
221 236 255
221 236 255
221 235 255
221 235 255
221 236 255
221 235 255
221 235 255
221 235 255
221 235 255
221 235 255
221 235 255
221 235 255
221 236 255
221 236 255
221 235 255
221 236 255
221 236 255
221 235 255
221 235 255
221 235 255
221 236 255
221 235 255
221 235 255
221 235 255
221 235 255
221 236 255
221 235 255
221 235 255
221 235 255
221 235 255
221 235 255
221 236 255
221 235 255
221 236 255
221 236 255
221 236 255
221 235 255
221 235 255
221 236 255
221 236 255
221 236 255
221 235 255
221 235 255
221 236 255
221 236 255
221 235 255
221 236 255
221 235 255
221 235 255
221 235 255
221 235 255
221 235 255
221 235 255
221 236 255
221 235 255
221 235 255
221 235 255
221 236 255
221 235 255
221 235 255
221 236 255
221 235 255
221 235 255
221 235 255
221 235 255
221 236 255
221 236 255
221 235 255
221 236 255
221 236 255
221 235 255
221 236 255
221 235 255
221 235 255
221 235 255
221 235 255
221 235 255
221 235 255
221 235 255
221 235 255
221 236 255
221 235 255
221 236 255
221 235 255
221 235 255
221 235 255
221 235 255
221 236 255
221 236 255
221 235 255
221 236 255
221 236 255
221 235 255
221 235 255
221 235 255
221 235 255
221 235 255
221 235 255
221 236 255
221 236 255
221 235 255
221 235 255
221 236 255
221 236 255
221 236 255
221 235 255
221 235 255
221 235 255
221 236 255
221 236 255
221 235 255
221 235 255
221 236 255
221 235 255
221 235 255
221 235 255
221 236 255
221 235 255
221 235 255
221 235 255
221 235 255
221 235 255
221 236 255
221 236 255
221 235 255
221 235 255
221 235 255
221 235 255
221 235 255
221 235 255
221 236 255
221 235 255
221 235 255
221 235 255
221 235 255
221 236 255
221 235 255
221 235 255
221 235 255
221 236 255
221 235 255
221 235 255
221 236 255
221 235 255
221 236 255
221 235 255
221 236 255
221 235 255
221 235 255
221 235 255
221 235 255
221 236 255
221 235 255
221 235 255
221 235 255
221 235 255
221 235 255
221 235 255
221 235 255
221 235 255
221 235 255
221 235 255
221 236 255
221 235 255
221 236 255
221 235 255
221 235 255
221 235 255
221 236 255
221 235 255
221 235 255
221 235 255
221 235 255
221 235 255
221 235 255
221 236 255
221 235 255
221 235 255
221 235 255
221 235 255
221 236 255
221 236 255
221 235 255
221 236 255
221 236 255
221 235 255
221 236 255
221 236 255
221 236 255
221 236 255
221 235 255
221 236 255
221 236 255
221 236 255
221 235 255
221 235 255
221 235 255
221 235 255
221 236 255
221 235 255
221 235 255
221 235 255
221 235 255
221 235 255
221 235 255
221 235 255
221 235 255
221 235 255
221 235 255
221 236 255
221 236 255
221 235 255
221 236 255
221 235 255
221 235 255
221 235 255
221 235 255
221 235 255
221 235 255
221 235 255
221 235 255
221 236 255
221 235 255
221 236 255
221 236 255
221 235 255
221 235 255
221 235 255
221 235 255
221 235 255
221 235 255
221 235 255
221 235 255
221 235 255
221 236 255
221 235 255
221 235 255
221 236 255
221 235 255
221 235 255
221 235 255
221 235 255
221 236 255
221 235 255
221 236 255
221 235 255
221 235 255
221 236 255
221 236 255
221 235 255
221 236 255
221 235 255
221 235 255
221 235 255
221 236 255
221 235 255
221 236 255
221 235 255
221 236 255
221 235 255
221 236 255
221 236 255
221 236 255
221 235 255
221 235 255
221 235 255
221 235 255
221 235 255
221 236 255
221 235 255
221 235 255
221 235 255
221 235 255
221 235 255
221 236 255
221 235 255
221 235 255
221 236 255
221 235 255
221 235 255
221 236 255
221 235 255
221 236 255
221 236 255
221 235 255
221 236 255
221 235 255
221 235 255
221 236 255
221 235 255
221 235 255
221 235 255
221 236 255
221 236 255
221 235 255
221 236 255
221 235 255
221 236 255
221 235 255
221 235 255
221 235 255
221 235 255
221 235 255
221 236 255
221 236 255
221 236 255
221 235 255
221 235 255
221 235 255
221 235 255
221 235 255
221 235 255
221 235 255
221 235 255
221 235 255
221 236 255
221 235 255
221 235 255
221 236 255
221 236 255
221 235 255
221 235 255
221 236 255
221 236 255
221 235 255
221 235 255
221 235 255
221 236 255
221 235 255
221 235 255
221 235 255
221 235 255
221 235 255
221 235 255
221 235 255
221 236 255
221 236 255
221 236 255
221 235 255
221 235 255
221 235 255
221 235 255
221 235 255
221 236 255
221 235 255
221 236 255
221 236 255
221 235 255
221 236 255
221 235 255
221 235 255
221 235 255
221 235 255
221 235 255
221 236 255
221 236 255
221 235 255
221 236 255
221 235 255
221 235 255
221 235 255
221 236 255
221 236 255
221 235 255
221 235 255
221 236 255
221 235 255
221 236 255
221 236 255
221 235 255
221 236 255
221 236 255
221 235 255
221 235 255
221 236 255
221 236 255
221 235 255
221 236 255
221 235 255
221 236 255
221 235 255
221 235 255
221 235 255
221 235 255
221 236 255
221 236 255
221 235 255
221 235 255
221 235 255
221 236 255
221 236 255
221 236 255
221 235 255
221 235 255
221 235 255
221 236 255
221 236 255
221 235 255
221 236 255
221 235 255
221 236 255
221 235 255
221 235 255
221 235 255
221 235 255
221 236 255
221 235 255
221 235 255
221 236 255
221 236 255
221 235 255
221 235 255
221 236 255
221 235 255
221 236 255
221 236 255
221 236 255
