P3
1600 1
255
3 115 175
3 117 178
3 122 184
3 121 185
3 115 175
3 117 177
3 119 180
3 121 183
2 114 174
3 117 177
3 115 174
3 116 176
2 113 172
3 119 181
3 116 176
3 118 179
3 119 180
3 114 172
3 116 175
3 115 174
2 110 168
3 118 178
2 109 166
3 116 176
3 119 181
3 115 174
3 120 180
2 113 172
2 114 173
3 116 175
2 111 168
3 115 173
2 113 173
2 109 166
2 107 161
3 115 173
2 109 164
14 110 165
42 114 165
73 126 173
89 131 173
98 134 173
108 136 171
125 147 173
130 148 173
126 144 168
129 147 171
128 145 171
122 140 164
130 148 172
128 146 169
126 146 171
127 146 170
128 147 170
132 148 172
129 147 170
130 148 173
128 146 172
130 148 173
131 149 173
128 146 171
127 145 169
129 146 172
129 148 173
125 143 169
129 147 171
129 148 172
132 150 175
129 148 172
129 149 173
123 141 165
127 146 171
132 150 173
123 140 166
126 145 171
130 149 173
129 147 173
125 143 167
131 149 174
127 146 170
128 147 171
129 147 172
132 151 176
131 149 173
123 139 165
129 147 171
128 147 171
129 147 171
123 140 167
128 146 170
129 148 171
128 147 172
130 149 174
130 148 173
130 149 172
130 149 173
129 146 171
129 146 171
123 140 165
131 149 174
131 150 174
128 145 170
133 151 175
126 144 168
132 150 175
132 150 175
133 151 175
128 147 172
132 151 176
131 149 175
128 147 171
130 150 176
127 145 171
129 149 173
129 147 172
129 147 171
130 148 173
132 150 172
126 143 168
125 141 165
132 150 175
130 149 174
129 146 171
131 150 174
131 149 174
130 148 172
130 147 172
126 144 168
128 146 171
130 148 173
130 148 173
129 147 171
133 151 176
131 150 175
132 150 174
130 149 173
129 147 172
129 145 169
131 150 175
128 145 170
127 145 170
128 146 170
130 149 174
131 149 174
131 150 175
132 150 176
129 149 174
131 148 172
130 147 172
132 149 172
130 149 175
128 147 172
131 149 174
130 147 172
133 152 176
130 149 173
128 146 171
131 150 174
131 150 174
130 146 170
130 148 173
130 147 172
130 149 173
131 150 174
134 151 175
128 148 172
129 148 172
127 146 171
130 148 173
130 148 171
129 147 170
132 150 175
129 147 172
125 142 166
130 148 173
130 149 173
127 144 168
130 148 173
127 145 171
131 150 173
131 149 174
126 145 169
130 148 173
126 143 165
133 152 177
130 148 173
130 147 171
133 151 175
132 150 175
130 148 172
128 145 170
132 150 174
132 150 174
130 147 171
128 146 170
131 149 174
131 149 173
132 150 175
130 148 172
131 150 175
127 144 167
131 150 174
131 150 174
130 148 173
128 144 168
133 151 175
130 148 173
130 147 172
130 148 172
131 149 173
131 149 172
133 151 176
133 151 175
129 144 167
129 146 169
130 148 173
130 149 172
132 150 175
130 149 173
128 146 169
130 147 172
130 148 171
130 146 169
131 149 173
129 148 173
130 150 174
131 148 172
131 149 173
128 146 170
131 148 172
131 149 173
130 148 171
130 147 172
132 150 174
128 145 168
130 147 171
129 147 171
130 148 171
127 144 168
130 147 171
132 149 173
125 142 165
130 147 171
127 143 167
131 149 173
131 150 173
129 148 172
133 150 174
134 152 176
125 142 165
130 148 173
130 147 171
132 150 174
130 148 172
127 145 169
131 149 173
131 148 172
127 144 167
131 148 172
126 144 167
128 145 168
123 139 161
130 147 171
127 144 166
129 147 171
130 149 174
127 144 167
130 147 169
129 147 171
128 145 168
131 147 171
123 140 163
129 147 171
128 144 167
128 145 169
128 146 170
128 145 168
129 146 170
125 142 165
126 143 166
129 146 170
126 141 163
125 141 163
127 144 167
127 145 167
122 139 161
128 145 169
119 136 159
121 136 157
124 141 163
126 143 165
124 141 163
128 144 167
123 139 159
127 145 170
120 136 157
124 140 163
120 136 159
126 142 165
125 141 162
124 141 164
126 144 167
122 138 161
117 133 154
116 131 152
119 134 155
122 137 159
114 128 146
116 129 149
127 143 165
122 138 160
120 135 157
117 132 153
117 131 152
112 126 144
117 132 154
113 127 148
119 133 154
112 126 145
114 128 149
117 132 152
117 132 152
120 135 156
110 123 142
119 133 153
110 125 144
118 133 153
108 119 136
107 119 137
111 124 141
100 111 128
111 124 142
113 127 146
106 117 135
102 115 133
102 114 131
109 121 138
100 110 126
115 128 147
102 114 130
105 117 134
102 113 130
99 108 123
101 111 127
91 99 115
89 99 113
96 107 123
93 102 116
88 97 111
93 102 116
91 99 112
78 85 97
94 103 117
96 106 120
78 84 96
84 91 102
90 99 111
88 95 109
93 101 115
71 79 87
88 96 109
86 95 107
76 83 95
66 71 80
64 69 77
85 93 104
66 70 78
72 77 85
58 61 68
68 73 81
73 78 87
61 66 73
73 79 88
56 59 65
66 73 81
65 71 79
64 69 78
66 71 79
64 70 79
59 64 71
53 56 62
49 51 56
55 59 66
53 55 60
61 67 74
58 62 69
49 51 54
52 55 60
55 59 66
59 61 65
65 70 77
58 62 68
62 66 74
64 70 77
66 72 82
66 71 79
57 59 64
55 59 65
74 79 88
72 77 83
69 76 84
60 64 71
69 75 84
68 73 83
78 85 94
79 86 96
72 75 83
67 70 79
71 78 85
78 85 95
85 94 106
74 80 89
82 88 98
89 99 111
87 95 107
83 90 99
98 102 114
96 94 103
106 89 89
116 96 96
114 86 78
119 87 76
123 87 75
120 84 72
121 83 71
125 88 76
125 88 75
121 85 73
128 90 77
122 86 73
128 90 77
128 89 76
124 88 75
122 86 74
125 88 75
124 86 73
119 84 72
119 84 72
121 85 73
130 91 77
126 89 77
122 86 73
126 89 76
122 87 74
125 88 75
125 87 75
120 84 72
121 85 72
126 88 76
121 85 73
129 90 76
119 83 71
124 87 74
129 90 77
127 89 76
125 88 75
121 85 72
125 88 76
122 86 74
128 90 77
125 87 74
124 87 74
123 87 74
126 89 76
126 88 75
122 86 73
118 82 71
126 88 75
125 86 73
127 89 76
126 89 76
122 86 74
128 89 76
125 88 75
121 86 74
124 87 74
120 84 71
127 89 77
121 85 73
121 85 73
124 87 74
121 85 73
119 83 71
124 87 74
126 88 75
119 84 71
123 87 74
120 84 72
124 88 74
131 91 77
126 88 75
120 83 71
122 86 74
125 88 75
124 86 74
119 83 72
121 85 73
122 85 73
125 88 75
122 86 74
122 86 74
120 83 71
121 86 74
123 86 74
126 89 76
123 86 73
113 80 69
121 85 73
123 86 72
122 85 73
116 82 71
112 78 68
124 88 75
120 84 72
121 85 73
120 85 72
122 86 74
119 84 72
120 85 73
118 84 72
120 84 72
120 84 72
121 84 72
122 85 73
108 77 68
116 83 71
117 81 70
120 84 72
117 82 71
117 82 70
116 83 71
122 86 73
116 81 70
110 77 67
114 80 69
113 80 70
117 82 70
112 79 68
114 80 68
109 77 65
118 84 72
110 78 67
105 75 66
113 80 69
109 77 66
112 85 77
107 93 97
116 106 112
118 117 129
122 129 145
126 140 159
126 145 166
126 144 167
125 140 161
125 145 164
126 143 165
129 147 168
124 141 159
126 145 164
126 142 164
126 143 165
129 148 171
126 144 164
125 142 163
132 151 173
126 144 165
127 144 166
124 141 160
123 141 160
127 145 165
125 143 164
122 139 158
127 146 168
127 144 165
125 143 165
128 147 167
129 145 166
124 141 160
131 148 170
128 147 169
126 145 166
125 143 165
127 146 166
123 141 162
125 143 163
125 145 165
128 146 167
124 143 162
127 145 167
121 138 158
127 146 166
126 143 164
126 144 163
127 145 166
128 147 169
126 143 164
122 140 159
129 148 170
124 142 160
128 145 167
129 147 169
128 145 167
124 143 163
128 147 167
126 145 165
125 146 165
125 143 162
123 140 159
123 144 162
124 141 161
126 145 165
125 144 163
127 146 167
130 149 171
121 137 157
125 142 161
121 140 156
125 144 164
123 142 159
126 143 164
126 146 164
122 139 158
125 141 162
121 140 157
122 142 158
121 141 158
123 142 157
118 137 154
123 141 159
117 134 152
122 141 160
124 143 162
123 142 160
123 141 161
123 142 161
120 140 156
121 139 158
121 139 157
120 136 155
127 145 164
123 142 158
126 143 162
122 143 159
123 139 156
121 138 154
116 135 150
122 141 160
125 144 163
120 138 157
118 138 152
118 139 155
120 139 155
123 140 159
120 138 154
122 141 159
115 133 145
120 138 153
118 137 153
125 143 161
117 135 148
111 135 143
109 140 138
101 138 127
92 132 113
85 130 102
87 135 104
86 136 105
81 127 98
86 133 104
83 130 101
84 133 101
85 131 103
84 129 105
85 134 110
71 113 123
72 116 131
61 103 142
55 98 151
53 92 152
44 82 151
45 83 154
45 84 154
45 84 154
45 84 154
46 84 155
45 84 155
46 86 157
48 87 160
45 84 156
46 85 155
46 86 157
46 86 159
46 86 159
47 87 161
46 85 158
47 87 159
47 87 160
46 84 156
46 85 159
48 89 163
47 87 160
46 86 160
46 85 157
47 88 162
49 91 167
47 86 159
48 90 165
48 90 166
47 87 159
46 87 162
47 88 163
50 92 170
47 87 160
48 89 165
48 88 161
47 88 161
47 88 164
48 89 165
48 88 162
47 87 160
48 89 165
46 86 158
47 87 162
46 86 158
45 83 154
47 87 160
47 86 159
45 83 154
48 89 163
48 89 164
47 88 163
47 86 158
48 88 162
48 88 161
48 90 166
49 90 164
47 86 159
47 87 160
48 88 161
48 87 160
48 88 162
48 89 163
47 87 160
47 88 161
47 86 157
49 89 163
48 88 163
48 89 164
47 87 159
48 88 161
48 87 160
49 90 164
48 87 160
48 88 161
47 87 159
48 87 159
47 85 156
47 87 159
49 89 163
46 85 155
47 84 155
46 84 155
47 86 159
46 86 158
46 84 154
47 87 160
47 85 156
46 85 155
47 87 160
46 85 157
48 89 163
48 87 157
48 87 160
48 87 159
47 86 155
45 81 147
46 85 156
46 85 155
48 89 163
48 87 159
47 85 156
45 81 149
46 84 156
47 87 158
47 87 159
47 86 157
47 86 159
47 86 154
46 85 154
45 84 152
46 85 155
47 86 158
47 87 160
45 83 151
46 84 154
46 84 152
49 85 151
55 84 151
61 91 157
71 93 152
93 99 139
104 113 149
118 122 149
136 133 150
132 130 147
146 143 155
161 152 159
159 150 156
169 155 161
169 157 166
178 163 168
176 163 170
176 163 169
194 176 181
188 171 176
192 176 182
192 177 182
194 180 186
191 178 184
194 182 188
195 182 189
195 184 191
196 185 192
194 183 190
193 183 190
195 185 194
191 181 189
194 184 193
192 183 192
192 184 193
193 184 194
192 183 192
189 181 191
191 183 193
193 185 194
190 183 192
191 184 195
190 183 192
190 182 192
190 182 192
189 182 192
189 182 192
189 182 192
189 182 192
187 179 188
187 181 191
189 182 192
187 179 188
187 181 191
189 181 190
188 181 191
188 181 191
188 179 188
188 180 190
185 177 186
185 176 184
186 176 183
187 178 186
182 172 178
185 174 181
183 172 177
183 172 178
182 172 178
181 169 174
182 169 173
174 162 166
175 161 163
175 161 165
174 159 161
174 158 159
174 157 159
166 149 149
167 150 150
154 136 134
162 142 145
152 139 139
147 135 136
149 137 141
142 132 136
136 124 125
126 121 127
129 120 123
133 131 139
132 131 140
129 132 143
119 125 137
118 126 139
121 130 145
122 136 153
120 134 153
116 129 144
114 130 145
118 130 146
117 129 143
118 132 149
121 135 151
120 135 152
117 130 148
113 124 139
114 128 145
114 127 141
121 136 153
113 127 144
116 130 145
116 129 143
113 127 142
116 129 144
116 128 145
123 136 154
118 132 146
120 133 147
116 129 145
114 128 141
113 125 139
114 126 140
111 124 138
116 129 144
115 127 143
114 127 140
116 129 144
116 128 143
117 131 148
110 125 138
111 123 137
117 131 147
113 126 141
117 131 144
117 132 147
119 134 152
118 131 148
112 124 138
112 126 141
113 127 142
110 123 136
116 129 145
112 125 139
114 126 140
120 133 150
115 127 143
118 133 149
113 124 139
114 127 143
115 128 142
115 128 143
117 130 145
118 132 146
112 124 136
113 126 141
115 128 141
115 127 141
115 130 145
115 127 140
116 128 142
112 125 139
116 130 145
118 132 147
116 128 144
122 136 151
116 129 144
118 131 146
108 118 132
118 132 148
115 129 145
107 119 135
117 130 147
110 121 134
113 126 142
117 130 145
109 122 131
112 125 141
115 128 141
113 125 139
116 129 143
109 120 133
111 124 137
108 120 132
112 124 138
117 129 143
104 114 126
110 122 135
109 121 135
109 120 133
117 130 145
114 125 138
109 119 132
106 118 131
110 121 133
115 128 143
105 117 129
117 128 141
107 119 132
117 129 144
117 130 145
105 112 123
113 124 137
105 115 125
115 127 140
103 114 125
106 116 128
107 118 129
107 119 130
106 116 129
106 118 130
112 123 135
113 123 137
113 124 136
106 117 129
112 124 137
111 120 132
110 123 136
107 117 127
107 119 133
107 118 131
114 125 137
104 116 128
107 118 131
106 117 130
112 124 136
104 114 125
100 111 121
108 120 132
103 114 127
115 127 141
108 119 133
107 118 127
106 116 128
106 118 129
108 121 133
110 123 137
108 120 130
103 113 124
105 117 127
108 119 133
110 120 131
105 116 126
103 114 124
109 121 133
104 113 124
107 118 130
111 123 135
108 120 131
102 114 122
108 120 132
99 110 117
108 121 131
102 113 123
111 123 137
110 122 136
110 121 135
99 108 117
105 116 128
101 112 121
102 113 122
110 119 132
103 115 124
104 114 124
102 113 124
105 114 124
99 110 116
104 113 123
104 115 125
95 105 117
105 118 131
103 115 124
105 116 128
108 120 131
105 117 126
104 114 125
108 119 132
98 109 117
100 109 117
101 110 120
103 114 123
103 115 125
101 110 120
100 109 121
97 108 118
100 111 121
103 116 123
105 116 126
100 110 118
98 109 118
104 115 129
103 113 123
102 111 122
96 105 113
105 114 126
105 117 127
101 112 119
105 115 127
99 112 119
92 110 101
97 121 101
88 115 84
85 120 57
81 122 44
84 128 44
82 126 42
85 129 44
90 135 46
86 129 45
91 137 47
83 126 44
84 129 44
84 130 45
92 139 47
84 129 45
82 125 42
85 128 45
89 135 46
89 135 47
91 138 47
91 139 47
82 125 43
87 133 46
89 135 47
85 129 44
89 138 46
88 133 47
87 132 44
90 136 47
85 131 45
91 138 47
94 142 49
88 133 45
93 140 48
88 134 46
82 126 42
79 122 41
92 139 48
89 135 46
89 134 46
89 134 46
89 133 46
86 130 45
91 138 48
89 135 47
91 138 47
85 129 45
94 142 48
93 143 49
88 133 46
92 137 47
87 130 45
88 133 47
89 136 47
89 134 46
93 141 49
89 136 47
96 144 50
84 126 43
94 141 49
89 135 46
87 132 46
84 126 44
87 133 46
93 140 48
90 135 46
87 132 46
92 139 48
84 127 44
90 134 47
90 136 47
90 137 47
87 132 45
90 135 47
85 129 45
87 132 46
90 137 48
89 135 47
88 131 46
82 128 44
92 139 48
86 130 46
90 137 47
87 130 45
84 127 45
84 128 44
86 129 44
82 125 43
79 120 42
87 130 46
82 121 52
86 121 67
100 126 106
98 115 113
104 119 125
104 114 128
104 116 129
107 117 132
112 124 141
113 126 141
109 122 134
109 121 133
111 124 137
111 123 139
108 119 133
113 127 142
109 121 134
112 124 141
110 122 135
108 121 135
113 126 139
114 126 143
108 118 131
114 128 144
112 125 141
105 116 130
109 120 136
108 119 133
113 126 142
115 129 146
113 126 143
109 122 138
113 124 139
107 116 128
113 125 139
114 126 142
111 122 137
109 122 136
116 129 146
111 123 138
108 120 136
105 117 131
107 118 133
112 124 141
113 126 143
113 125 141
108 120 135
114 125 141
107 118 134
119 132 149
114 128 145
115 128 143
111 125 140
106 118 132
112 124 140
111 122 137
115 126 142
117 129 148
105 116 133
115 126 142
108 120 136
112 124 139
109 120 138
111 124 140
115 128 146
109 122 141
117 130 148
114 128 144
117 129 147
115 127 144
116 130 150
117 129 147
114 127 145
116 129 146
117 131 149
116 128 147
113 125 145
115 127 145
117 131 150
112 125 141
115 126 144
120 133 154
115 127 143
120 134 153
116 131 151
106 117 134
118 131 151
117 131 147
113 126 144
120 133 152
112 121 140
116 128 147
117 131 150
109 121 137
123 139 159
114 126 146
118 130 149
115 129 145
115 128 147
111 124 144
113 126 146
107 119 137
99 113 131
97 111 128
98 112 128
100 113 127
89 102 120
84 96 111
88 103 119
72 85 99
76 91 105
66 80 96
73 87 104
66 79 94
63 77 90
48 64 77
43 60 74
42 58 73
38 55 67
39 55 66
44 61 73
23 45 58
37 55 68
28 49 62
22 45 56
14 42 54
5 39 52
20 44 58
5 38 51
5 39 51
5 39 51
16 42 54
5 39 51
5 39 51
14 42 54
15 42 57
5 39 52
5 39 52
5 39 51
5 39 52
7 40 52
6 39 52
5 39 51
5 39 51
5 39 52
19 44 56
31 52 64
21 45 57
33 53 67
30 51 63
25 47 60
44 62 75
37 55 67
49 64 77
44 61 74
54 71 84
50 66 77
56 72 86
63 78 95
56 69 81
70 86 102
74 88 104
78 92 111
79 93 109
91 104 121
93 106 123
96 109 128
96 109 126
100 113 133
98 110 130
107 120 138
112 127 147
110 125 147
117 131 151
112 125 147
118 133 152
118 131 151
119 133 154
124 140 163
122 138 160
121 136 158
121 135 158
120 134 155
122 137 160
118 131 152
117 130 154
120 135 156
120 135 160
120 135 159
120 133 156
120 134 155
119 133 156
120 135 159
118 132 157
117 131 154
121 135 159
118 132 155
119 133 156
121 133 156
113 115 142
113 103 139
107 78 123
112 69 123
107 48 114
108 38 113
108 38 111
110 38 116
108 38 112
110 38 114
107 38 113
107 38 114
109 38 115
115 40 119
106 37 112
114 40 121
110 38 114
113 39 117
119 41 125
112 38 116
112 39 117
114 39 120
113 39 118
109 38 117
107 37 111
107 37 112
117 41 124
114 40 119
113 39 118
111 38 116
116 40 122
117 41 126
116 40 123
113 39 119
112 39 118
116 40 123
113 40 120
116 40 121
115 40 122
115 40 122
116 40 123
114 40 121
113 39 118
120 41 127
118 41 124
112 39 118
114 39 120
112 39 117
115 40 121
116 40 122
115 40 121
114 39 119
112 39 120
114 39 119
117 41 124
118 40 123
112 39 118
115 39 120
121 41 125
112 38 117
111 38 116
113 39 118
115 39 120
118 41 124
119 41 125
116 40 122
111 39 118
116 40 121
123 42 128
114 39 120
112 38 116
115 39 120
113 38 118
115 39 120
114 39 118
116 40 121
124 43 131
114 39 118
116 39 121
115 40 121
112 39 120
115 40 122
111 38 116
112 38 117
117 41 125
117 41 123
117 40 120
118 40 122
119 40 123
121 42 126
117 41 124
121 42 127
117 40 122
117 40 123
110 38 115
113 39 119
115 40 122
119 41 124
119 41 126
115 40 121
118 41 123
114 39 119
109 37 112
114 40 121
116 40 123
114 40 121
113 39 117
115 40 122
116 40 120
119 41 125
115 39 118
117 41 124
112 39 118
116 40 120
116 40 121
113 39 117
117 40 121
113 39 119
118 41 123
115 39 120
110 39 117
116 40 121
113 40 120
115 39 119
118 41 124
122 42 128
112 39 117
119 41 125
118 41 122
114 40 119
109 38 116
107 55 118
88 45 103
80 45 94
70 48 91
59 55 81
57 59 84
61 64 89
61 65 89
44 47 75
69 73 101
67 69 103
69 72 102
61 63 94
64 66 98
67 69 101
65 67 98
69 71 106
69 70 102
69 72 103
68 72 105
79 84 113
71 75 108
80 84 115
77 82 114
79 82 120
87 92 126
86 92 127
91 99 129
84 92 124
88 94 128
90 97 131
85 92 127
96 103 136
90 96 133
98 106 139
99 108 140
95 105 134
100 110 144
102 112 144
99 107 142
96 106 138
96 104 139
108 118 148
92 98 136
99 109 143
104 114 146
103 112 145
105 117 148
112 124 156
107 119 152
112 125 153
105 116 149
110 121 151
116 129 159
110 121 157
110 123 152
114 127 158
111 123 156
114 126 156
120 134 165
112 123 156
112 123 156
117 130 161
121 135 166
121 136 166
122 137 167
115 129 162
116 129 161
117 130 161
115 128 160
123 138 168
113 126 158
117 132 162
122 137 165
118 133 163
120 135 164
123 137 168
120 134 165
121 136 165
120 134 165
126 142 170
122 137 166
123 140 166
126 142 169
117 130 160
125 141 170
126 142 168
125 141 170
