P3
1600 1
255
2 114 174
3 114 172
3 120 181
3 119 181
2 110 168
3 119 181
3 118 180
3 120 182
2 110 168
3 117 176
3 114 173
3 114 172
3 116 176
3 116 176
3 115 174
3 116 177
2 113 170
3 116 175
3 116 176
3 117 178
2 111 169
3 117 176
2 111 169
3 115 175
3 118 179
3 115 174
3 118 178
2 113 171
3 115 175
2 114 172
2 110 167
3 115 174
3 115 174
2 112 171
2 111 166
2 109 165
2 111 168
13 106 159
45 119 172
70 127 176
85 129 172
92 131 170
117 142 174
120 143 171
130 150 175
125 143 167
131 149 173
126 144 169
128 145 169
127 145 169
126 144 168
131 150 175
128 146 170
130 148 172
129 145 169
131 149 174
128 146 172
130 148 173
131 150 174
126 144 169
129 148 173
128 146 171
127 145 171
128 147 171
126 144 169
130 148 173
130 149 174
128 146 172
129 147 172
129 149 172
124 143 169
129 148 172
127 145 170
127 145 169
127 145 170
128 147 172
128 146 170
129 147 171
129 147 171
130 148 173
127 145 170
131 150 176
128 146 170
132 150 176
126 143 168
128 145 170
128 147 171
130 148 173
124 141 168
128 147 171
130 149 172
131 149 173
130 149 174
126 145 169
132 150 174
130 148 171
129 146 172
129 145 170
124 141 166
131 149 173
132 151 175
125 142 168
132 151 175
128 147 171
132 150 176
132 150 175
133 151 176
130 148 172
130 149 174
131 149 173
129 148 172
130 149 175
129 148 173
130 149 174
130 148 172
129 147 172
131 149 174
132 150 172
125 143 167
128 145 169
133 151 176
129 148 173
130 148 173
131 150 174
131 149 174
130 148 173
133 151 175
127 144 169
129 147 171
127 146 171
130 149 173
130 148 173
133 151 175
131 150 176
131 149 173
131 150 174
129 146 172
128 145 168
131 149 173
127 146 170
128 147 171
127 145 169
131 150 176
127 146 170
131 149 175
132 150 176
129 148 173
131 149 173
131 149 174
131 149 173
131 149 175
128 147 172
131 148 173
128 144 169
133 152 177
130 149 173
130 148 173
131 149 174
131 149 173
130 148 171
130 149 174
130 147 172
130 149 173
133 151 176
132 150 174
129 147 172
130 149 173
129 148 173
130 147 172
132 150 173
132 149 172
130 149 174
130 148 174
128 144 169
130 149 174
130 149 174
129 146 169
130 149 174
127 144 169
131 149 172
131 149 174
126 145 170
130 148 173
127 144 167
132 150 174
132 150 175
129 147 170
131 149 174
132 151 175
131 148 172
128 145 170
131 149 173
133 152 176
129 146 170
128 145 169
129 148 173
131 150 174
132 149 175
133 151 176
131 149 174
129 147 171
129 147 171
132 150 175
132 150 174
130 148 173
131 148 172
133 152 177
129 147 172
132 151 176
130 148 172
130 148 170
131 149 173
133 152 176
130 147 170
127 142 165
130 149 173
131 149 174
132 151 175
131 150 173
128 146 170
130 147 172
130 147 170
132 148 172
131 149 173
128 147 172
129 149 173
129 147 171
130 148 171
130 148 173
131 148 170
129 148 173
130 149 172
129 145 169
133 151 175
130 147 171
130 148 171
128 146 170
128 146 169
126 143 167
128 146 170
132 149 172
126 143 166
132 150 174
127 144 169
130 147 171
130 149 172
129 148 172
131 149 173
135 153 177
128 147 171
129 146 169
129 146 170
132 150 174
130 147 171
129 145 169
130 148 171
131 149 173
131 149 172
128 144 167
131 149 173
127 144 168
124 141 162
128 145 168
129 146 170
127 145 167
130 149 173
128 145 168
132 151 175
126 143 167
131 149 173
128 145 168
124 141 165
126 143 167
130 146 169
127 145 168
130 148 172
130 147 171
125 142 165
125 143 166
125 142 166
128 144 168
126 143 164
127 143 165
126 143 166
125 141 163
121 137 158
125 141 165
123 139 162
123 139 161
120 136 158
126 143 166
125 142 165
128 146 169
127 142 163
131 149 174
119 135 156
124 141 164
122 139 162
122 138 160
126 143 164
122 139 161
125 142 165
122 140 163
115 131 152
116 131 152
119 133 154
123 139 161
113 128 146
117 130 151
125 140 163
121 137 159
115 130 150
117 131 150
116 130 150
111 125 142
114 129 149
119 133 154
118 134 155
115 129 149
113 127 146
118 133 153
112 126 145
114 128 147
112 126 145
117 133 153
110 123 142
117 132 151
105 117 136
106 117 134
109 121 139
107 118 136
111 125 144
106 119 137
105 117 133
103 114 132
106 118 136
101 112 127
100 112 128
115 129 148
114 128 147
99 109 124
102 114 131
95 104 118
106 119 136
95 105 121
93 104 118
100 112 128
95 105 119
99 111 127
97 106 120
94 104 118
88 95 107
84 91 103
87 96 108
79 88 101
93 103 117
80 88 99
91 99 112
86 95 109
90 97 110
77 85 94
88 96 109
85 93 105
78 85 96
74 81 91
71 76 85
79 86 96
75 81 91
70 76 85
75 82 91
65 69 77
63 69 79
76 83 92
79 86 96
63 67 75
71 78 86
67 71 79
72 79 87
66 71 78
64 68 75
70 76 86
65 72 79
62 66 74
56 59 65
60 63 69
60 66 70
66 71 78
66 71 79
66 70 77
71 75 83
72 79 87
73 80 88
68 74 82
65 72 78
75 81 89
70 78 83
66 73 80
74 80 88
68 74 83
64 69 74
82 89 99
77 84 93
80 88 99
86 94 105
85 93 106
88 96 109
86 92 103
77 84 94
82 91 102
78 84 94
88 95 106
85 93 105
91 100 111
90 97 110
86 94 106
93 101 115
99 98 106
104 94 97
110 97 101
110 89 87
117 90 85
117 84 74
118 84 73
124 87 75
117 83 71
118 83 71
117 82 70
116 82 69
122 86 73
119 83 71
121 85 72
121 84 72
121 86 74
122 86 73
119 84 72
122 85 72
124 87 74
123 86 74
122 86 74
124 87 75
123 86 74
123 86 73
127 89 76
125 88 75
125 88 75
121 84 73
121 85 74
127 89 76
126 89 75
126 88 75
122 86 74
128 90 76
125 88 74
119 84 72
123 86 74
119 84 72
125 88 75
128 90 78
122 86 73
126 87 74
123 87 74
125 87 75
125 87 75
123 86 74
121 85 73
127 89 76
119 83 72
122 85 73
123 86 74
122 86 73
125 88 76
121 85 73
123 86 72
121 84 72
124 87 75
124 87 74
127 89 76
122 86 73
122 86 73
124 88 75
123 86 74
121 85 73
122 86 73
119 84 72
128 89 76
124 87 75
119 84 72
124 87 74
123 87 74
123 86 74
117 81 69
123 86 74
120 84 72
121 85 74
120 84 72
118 83 72
117 82 71
120 85 72
120 84 72
121 84 72
123 86 74
116 82 70
118 82 70
117 82 71
125 87 75
125 87 75
118 83 71
125 88 75
117 82 70
122 85 72
122 86 73
122 85 72
120 84 72
121 85 73
118 82 70
122 85 73
115 81 70
118 84 72
117 82 71
120 84 73
119 83 71
117 82 72
117 83 72
118 82 70
121 85 72
121 84 71
115 80 68
115 81 69
124 87 74
120 84 72
115 81 70
117 82 70
112 79 68
117 83 70
116 81 70
110 78 68
115 80 69
116 82 71
113 79 68
115 81 70
110 78 68
113 79 67
113 80 69
110 78 67
112 79 67
112 81 71
111 95 97
114 104 108
117 115 127
119 121 135
123 135 155
123 139 158
128 145 166
128 146 166
127 146 168
129 147 169
128 147 169
128 146 167
126 143 164
128 146 169
125 142 164
127 146 168
126 144 166
124 141 162
126 145 166
125 142 164
130 148 170
126 144 166
125 142 164
127 145 167
121 137 158
123 142 161
123 139 159
127 144 163
127 144 164
127 146 166
125 141 162
125 143 165
126 144 165
127 145 165
130 147 170
127 144 165
127 144 165
127 143 164
124 142 163
125 143 164
124 143 164
122 141 159
124 141 163
124 143 162
123 141 160
128 145 168
128 147 167
126 143 162
129 148 169
127 146 167
129 148 169
123 144 160
125 144 165
122 141 158
126 146 164
123 140 159
126 144 163
124 143 161
123 142 162
123 142 162
122 140 159
126 143 165
127 145 165
127 147 167
126 144 164
124 141 160
122 141 158
122 139 156
129 148 170
125 144 163
124 143 161
125 144 163
123 142 161
128 147 167
121 140 159
125 144 165
123 142 160
121 141 157
124 141 162
125 144 162
124 144 161
124 142 161
126 147 167
121 139 154
122 141 158
120 139 155
124 145 161
122 139 157
126 146 164
125 144 161
121 138 155
121 137 155
121 141 157
118 139 153
121 141 157
121 141 156
118 138 153
120 137 153
123 140 159
121 141 158
125 143 161
123 142 160
121 140 157
124 144 161
119 137 155
121 141 156
123 141 159
120 139 156
119 137 154
119 136 152
120 141 156
122 138 156
119 139 153
116 135 149
117 138 149
115 142 147
107 135 135
102 134 128
98 136 122
87 134 106
87 134 106
88 136 107
91 140 109
82 127 101
84 133 103
85 135 103
83 128 105
73 117 109
68 113 131
65 106 130
66 107 142
60 99 143
47 86 152
46 86 157
47 87 159
45 82 151
45 84 156
46 85 156
46 86 158
47 86 159
47 87 160
48 87 160
46 86 159
47 86 159
48 88 162
45 82 153
47 87 161
48 89 164
47 87 159
47 87 160
47 87 161
45 85 159
47 87 161
45 84 155
46 85 158
47 87 161
46 86 159
47 87 160
47 88 162
48 90 164
47 88 161
47 88 161
47 87 160
47 88 163
48 89 164
47 87 161
45 85 157
46 86 159
48 89 164
46 86 160
47 88 161
48 90 164
46 85 157
47 88 163
47 86 158
47 88 162
48 89 164
47 86 160
47 88 162
46 85 158
47 87 161
46 87 161
49 90 166
48 88 162
48 88 163
48 88 161
49 90 164
48 89 165
48 89 164
48 89 162
47 88 161
47 87 159
45 83 154
46 87 160
48 89 163
48 88 162
47 87 160
47 86 157
48 89 164
47 86 158
49 91 165
46 85 156
46 84 156
48 89 162
47 87 161
46 84 153
47 86 156
47 87 160
46 85 156
47 86 157
48 89 164
47 86 158
49 89 163
47 87 159
47 86 160
47 85 155
47 87 160
48 87 158
46 85 157
47 87 159
47 86 157
49 88 160
48 88 160
48 86 157
47 86 157
46 83 152
46 84 154
46 85 156
49 89 162
46 84 154
47 86 157
45 82 151
49 89 163
47 86 157
45 83 151
48 87 157
47 85 155
47 86 156
46 84 152
47 86 156
47 86 157
47 86 157
47 85 154
47 87 159
47 86 156
45 83 149
46 84 153
44 80 146
47 86 157
46 84 153
67 92 151
67 93 151
67 88 145
78 95 146
110 115 152
106 112 146
129 124 147
141 136 152
145 140 156
162 154 163
165 155 163
172 157 164
177 164 170
172 161 165
191 177 182
192 176 181
185 173 178
199 184 188
192 178 184
195 181 186
194 182 188
197 182 187
197 185 193
194 182 189
198 186 193
196 186 194
195 185 192
195 185 193
193 184 192
195 186 195
195 185 194
195 185 193
193 185 194
193 184 193
191 184 194
192 183 193
192 184 194
192 184 193
189 181 191
189 182 192
189 182 193
188 182 193
189 182 193
189 182 193
188 182 193
189 183 195
188 182 193
187 180 191
189 183 194
188 181 192
188 181 192
187 181 192
187 180 190
187 181 191
188 181 191
186 179 189
186 179 188
188 180 190
186 179 188
187 179 188
189 180 189
183 175 183
189 181 190
186 177 184
186 177 184
184 174 182
181 171 177
185 174 181
185 173 178
183 172 178
180 168 170
178 164 167
175 160 161
176 161 163
173 157 159
172 157 158
172 159 160
173 156 154
159 144 144
159 140 142
159 145 146
151 138 137
154 137 138
147 137 138
143 129 129
137 128 135
132 125 130
133 128 134
122 123 132
127 125 131
123 130 143
122 131 145
123 126 138
122 136 154
118 133 148
118 132 149
122 137 154
119 133 149
116 130 147
116 131 147
122 136 153
117 132 146
114 127 140
118 132 149
121 135 152
117 129 143
119 132 149
118 132 149
117 130 147
121 134 153
118 131 147
120 134 152
117 130 146
114 126 142
119 133 152
122 136 154
120 135 153
121 135 152
113 127 143
115 128 143
115 129 143
120 134 150
112 126 139
114 127 143
113 125 139
114 126 141
115 128 143
119 133 149
114 128 144
117 129 145
118 131 145
115 128 143
114 126 137
113 125 140
112 125 139
110 121 136
118 131 146
115 127 142
115 129 144
115 127 141
113 125 139
115 127 142
109 122 133
111 122 136
111 123 136
118 131 145
118 132 148
116 128 143
118 131 146
118 130 143
111 123 136
114 127 143
116 129 145
118 132 150
114 127 140
116 128 143
115 127 142
120 133 150
113 124 139
115 128 144
110 122 135
111 124 137
115 127 143
115 127 142
114 127 141
115 128 142
115 128 143
116 129 144
114 126 140
117 130 144
112 123 137
113 125 140
113 126 140
111 123 137
118 131 147
118 131 147
116 129 144
116 129 143
114 125 140
108 120 134
120 134 149
113 126 142
113 126 141
112 124 138
112 124 137
112 125 140
115 125 138
109 121 135
118 131 145
115 130 143
110 122 135
113 126 140
111 125 138
114 126 139
111 123 138
109 120 132
113 125 139
118 131 147
106 118 130
108 119 132
110 123 137
108 120 134
115 129 143
107 118 131
110 122 134
107 117 128
109 122 135
113 125 140
110 123 136
108 120 133
108 119 133
110 122 134
108 120 133
107 117 128
112 124 137
102 114 123
107 118 128
105 117 127
108 120 129
109 118 129
101 115 123
106 117 128
111 123 136
110 122 135
109 121 133
111 123 136
105 117 127
112 123 136
104 115 126
104 115 125
108 120 132
110 121 135
102 114 125
110 123 138
109 121 134
106 118 130
111 124 135
108 118 130
110 120 131
107 120 132
107 119 130
106 117 126
109 120 133
105 118 128
106 119 130
106 118 127
105 116 125
108 121 133
103 113 126
107 117 128
105 115 125
102 112 122
108 120 134
105 115 127
97 107 114
103 112 122
107 119 129
98 109 119
109 120 131
108 120 132
101 110 119
110 122 133
105 116 128
102 114 122
102 112 119
104 115 126
104 116 128
104 116 123
102 113 125
106 116 125
105 117 124
104 114 126
106 117 130
101 111 120
104 115 121
100 111 121
106 117 126
100 111 121
103 114 123
103 113 125
100 110 121
102 113 124
102 113 122
105 117 126
102 113 121
105 117 127
101 112 123
105 117 129
104 115 125
95 105 114
101 110 118
104 115 126
101 111 121
108 119 132
104 113 123
99 111 117
92 112 99
91 116 90
85 115 79
92 132 68
80 121 47
77 118 39
87 131 45
85 128 44
82 126 43
82 127 42
83 127 44
85 130 45
88 133 45
80 123 41
79 120 41
87 131 44
85 131 45
86 130 45
87 133 46
90 138 46
85 130 44
84 129 44
83 127 43
83 126 43
88 133 46
86 130 45
93 142 49
92 137 48
81 126 43
88 134 46
83 125 43
86 130 45
87 131 45
88 136 47
94 142 49
89 136 46
90 137 47
92 140 48
88 134 45
89 136 47
91 139 48
86 130 45
93 141 49
88 133 46
85 131 44
88 132 46
83 128 45
92 139 49
91 138 48
86 132 45
86 132 44
89 134 46
93 142 49
94 141 49
87 133 45
87 132 45
89 135 47
91 139 47
82 126 43
90 136 47
86 130 45
90 138 47
87 133 45
88 133 46
90 135 46
87 133 46
86 131 45
89 136 47
90 137 47
80 121 41
90 138 47
89 136 47
87 133 45
88 132 46
90 134 46
93 139 48
87 133 45
84 126 44
85 127 44
88 132 45
86 132 45
83 125 44
84 126 44
80 123 42
84 127 44
82 125 43
88 130 45
84 127 44
78 118 42
89 129 62
88 119 71
99 124 101
100 121 112
101 118 117
110 124 135
109 121 135
111 125 137
108 119 132
108 120 134
110 123 136
110 123 135
109 121 133
105 116 128
107 120 135
105 117 128
107 119 131
107 120 134
103 115 126
111 125 137
117 129 146
108 121 138
103 117 131
103 114 128
109 120 132
109 121 136
105 118 132
109 121 134
113 125 142
111 124 140
110 122 138
110 122 138
110 122 137
111 124 138
109 122 135
116 128 145
114 126 143
108 121 136
114 127 144
112 125 142
120 133 149
115 128 146
111 125 142
109 121 137
105 118 132
111 124 141
112 125 140
114 127 143
107 120 133
112 124 138
113 124 139
116 129 144
111 125 140
111 123 139
118 131 150
108 121 138
117 130 147
110 123 137
113 125 143
114 127 143
116 129 147
109 120 136
112 124 141
113 125 141
106 119 134
114 126 142
114 126 143
113 126 141
110 122 140
114 130 147
120 132 152
113 126 142
114 126 143
108 122 138
115 128 145
117 132 149
116 130 147
106 118 133
119 133 150
109 120 137
113 125 144
115 127 144
114 125 141
116 129 148
108 120 137
113 127 145
113 126 144
117 132 154
110 123 142
118 131 148
118 131 151
113 124 141
115 128 148
118 132 152
117 130 151
113 124 143
117 130 149
116 130 149
112 125 141
111 124 141
107 121 141
107 120 139
100 113 130
97 111 128
91 104 123
89 102 119
86 100 117
70 83 97
78 91 106
58 71 86
75 88 102
63 77 90
62 74 89
57 71 84
34 53 64
39 57 71
35 53 65
44 62 74
40 57 73
24 46 59
32 51 61
15 41 53
8 39 51
5 39 51
5 39 51
5 39 51
5 39 51
5 39 51
5 39 51
5 39 51
5 39 51
5 39 51
5 39 51
5 39 51
5 39 51
5 39 51
6 39 52
5 39 52
5 39 51
5 39 51
5 39 51
6 39 52
5 39 51
5 39 51
6 40 52
5 39 51
5 39 52
6 39 52
5 39 51
12 41 53
5 39 51
5 39 51
5 39 51
14 42 54
24 47 59
34 54 66
43 61 73
41 59 72
57 72 86
30 49 62
64 79 95
56 71 88
59 74 87
59 75 89
69 84 102
63 78 93
84 98 116
90 104 122
94 110 129
86 99 115
93 107 127
98 110 129
105 119 141
104 117 138
110 124 144
115 130 151
114 125 149
116 131 152
122 136 160
117 130 152
120 134 158
122 140 163
120 134 154
124 138 159
122 138 160
121 134 158
117 132 157
119 134 161
119 133 156
119 134 157
120 133 155
117 131 153
118 131 153
115 128 148
118 133 154
121 136 159
120 135 158
117 130 152
116 131 152
117 128 151
114 114 144
113 105 139
108 87 127
104 75 118
106 43 112
104 36 108
104 37 111
106 37 111
108 37 112
108 37 111
108 37 110
105 37 113
112 38 114
106 37 112
116 41 124
105 36 111
107 37 113
107 37 114
109 38 114
107 37 112
112 38 115
116 39 120
112 39 117
111 38 115
109 37 113
112 39 118
113 40 120
112 38 116
107 38 114
112 38 116
100 35 107
109 38 115
111 39 118
112 39 119
117 40 123
111 39 118
111 39 117
113 39 118
120 42 126
114 39 121
113 39 118
117 40 122
109 38 116
112 39 119
114 40 121
111 38 118
114 40 122
116 40 122
115 40 121
119 41 124
114 39 119
117 40 123
117 41 124
115 39 120
116 40 122
105 35 108
117 41 124
116 40 122
112 38 115
113 39 117
121 41 127
114 39 118
115 39 120
115 40 121
121 42 127
120 42 128
109 38 115
114 40 120
110 38 116
115 39 120
117 40 123
117 40 121
114 39 118
122 42 128
114 40 120
115 40 122
118 41 126
112 39 118
116 40 121
119 40 122
117 41 123
114 39 119
116 40 123
118 41 124
116 40 120
117 41 124
115 40 122
111 38 116
109 38 116
117 40 123
119 42 126
114 38 116
116 40 121
111 38 116
113 38 115
107 37 111
116 40 121
120 42 127
115 40 121
114 39 119
113 39 119
115 40 122
116 40 122
118 40 123
116 40 123
118 41 124
117 40 122
123 42 128
110 38 117
118 41 123
115 39 120
116 40 122
119 42 127
118 41 123
120 41 125
114 40 120
114 40 120
116 39 120
116 39 120
121 41 124
119 41 124
115 39 117
114 39 119
117 40 120
119 42 126
118 41 123
112 39 119
113 38 117
115 40 121
105 37 110
113 42 121
107 41 115
91 37 103
83 48 100
69 53 91
74 76 100
68 73 96
57 61 85
56 59 85
74 79 106
65 67 94
70 72 102
61 64 94
67 69 99
76 80 111
68 70 103
65 69 97
72 76 105
65 67 99
79 83 116
79 84 118
85 91 122
87 92 124
78 82 116
91 97 127
83 89 119
89 96 126
82 87 121
78 83 118
85 90 121
96 105 136
85 90 126
80 84 121
91 98 130
93 101 136
98 107 139
103 113 143
97 105 138
95 104 136
98 108 139
95 102 137
103 113 145
102 112 145
105 115 147
110 120 151
95 104 139
110 121 155
100 109 142
113 125 155
102 111 146
102 111 147
118 131 161
110 123 152
113 125 155
109 120 152
113 126 155
115 129 160
110 122 155
112 125 157
122 136 167
114 126 159
103 113 148
113 127 159
108 120 153
113 127 156
118 131 162
112 125 156
116 130 162
116 129 159
116 130 163
119 133 163
112 125 155
122 136 165
121 136 165
120 135 164
119 133 166
118 133 163
124 140 169
122 137 167
126 143 170
120 135 166
120 134 165
124 139 168
126 143 171
121 136 165
122 137 168
128 145 173
123 139 168
125 140 169
