P3
1600 1
255
3 117 176
3 115 174
3 115 173
2 112 169
2 108 163
3 114 173
3 118 179
2 111 168
2 113 174
2 111 168
2 112 170
2 112 170
2 114 174
2 113 172
2 111 170
3 113 170
3 115 174
2 111 168
2 112 169
2 113 170
3 116 175
2 111 166
2 111 168
3 114 173
2 111 168
2 111 168
2 105 159
2 113 171
2 106 160
2 108 164
3 115 174
2 110 166
2 105 159
2 107 159
2 105 159
2 109 164
2 106 158
2 110 167
14 111 166
48 111 159
59 117 163
73 120 162
95 131 169
115 140 170
121 143 171
126 145 171
128 146 170
129 148 172
130 149 174
130 149 173
129 147 171
128 145 169
131 149 174
126 144 168
125 142 168
130 148 173
129 147 173
129 148 172
126 145 170
131 149 173
130 148 172
129 147 171
127 145 169
123 142 166
131 149 173
129 145 170
131 150 175
129 148 172
128 146 171
130 149 173
126 143 167
127 145 170
130 149 174
127 146 170
129 147 172
128 146 170
130 149 173
128 145 169
127 144 167
129 148 173
127 146 170
132 150 174
130 148 173
129 147 173
130 150 174
127 145 169
128 146 171
129 148 171
129 148 172
130 149 174
131 149 174
133 152 175
134 152 176
129 148 172
130 147 171
129 147 172
125 142 167
128 145 169
131 150 175
133 149 172
129 146 170
130 149 172
129 147 172
133 151 175
133 151 176
131 148 172
126 145 169
129 147 171
130 148 171
132 151 176
132 151 175
129 148 171
129 147 172
130 148 173
130 148 172
132 151 175
129 147 170
129 145 169
128 146 170
130 149 173
130 149 172
131 148 173
131 149 173
128 146 170
133 152 177
132 150 173
132 150 174
129 147 171
132 150 174
131 150 175
131 150 175
133 151 175
134 152 177
131 150 176
129 147 172
129 147 172
129 145 169
129 147 171
132 150 175
130 148 173
127 146 170
132 150 174
133 152 176
129 148 172
133 152 177
131 150 174
129 147 171
132 150 175
130 148 172
131 149 175
127 146 171
133 150 175
130 149 173
133 151 174
131 149 174
129 148 173
127 146 169
132 150 174
131 149 173
130 149 173
131 148 172
133 150 174
132 151 175
134 152 176
132 151 176
129 147 171
129 147 171
131 147 172
133 151 175
134 152 175
134 152 176
131 150 174
132 151 176
132 149 172
133 152 176
131 149 173
132 149 172
132 151 176
130 148 172
132 149 173
131 150 174
130 149 173
129 147 172
126 145 168
135 153 178
132 151 175
132 150 174
131 149 172
132 150 175
132 149 173
130 147 170
131 149 171
130 149 173
131 149 173
129 147 172
131 150 175
132 151 175
136 153 177
130 148 173
133 151 176
131 149 173
132 151 175
132 150 174
133 151 174
132 149 174
130 148 172
134 152 177
131 148 172
130 148 173
131 147 171
134 151 174
131 149 173
132 151 175
131 149 172
129 148 171
131 149 172
130 149 173
134 151 176
131 149 174
131 150 174
131 149 172
132 150 175
131 149 172
127 144 167
133 152 175
131 149 174
130 148 172
130 148 172
129 147 172
129 146 170
133 151 176
131 149 173
133 150 175
132 151 174
133 151 175
128 145 168
132 150 174
131 149 173
125 143 166
133 152 176
133 152 176
134 152 176
131 148 172
132 150 174
130 148 171
130 147 171
134 154 178
130 148 173
131 149 173
132 148 172
129 148 172
133 150 174
131 149 173
131 149 173
126 143 165
129 149 173
130 147 170
126 145 168
132 150 173
127 144 167
131 149 173
132 150 173
129 146 169
128 145 167
129 146 171
128 145 168
130 148 171
132 149 174
132 150 173
128 144 167
130 148 172
131 149 172
129 145 168
130 147 171
129 146 169
127 143 166
129 147 171
128 146 169
126 144 167
128 144 167
127 144 167
127 146 169
130 147 170
127 144 167
127 144 166
127 144 168
123 139 161
125 143 166
130 148 171
126 144 167
125 142 164
125 143 165
128 146 169
123 140 162
131 148 169
125 141 164
125 143 165
120 135 156
127 144 166
120 138 161
127 144 167
127 143 165
129 146 169
127 145 168
124 141 164
122 139 161
123 139 162
121 136 156
124 141 163
121 137 159
121 137 159
124 141 164
124 141 163
125 142 164
126 144 166
116 132 154
117 132 152
115 130 151
122 137 160
119 134 155
121 137 159
124 141 164
124 140 162
127 145 167
119 134 155
122 137 157
123 139 161
120 136 156
117 133 154
110 122 141
125 141 162
116 132 152
118 133 152
126 140 161
121 136 157
120 135 155
114 128 147
119 134 154
116 130 149
116 131 151
118 132 152
118 132 152
118 133 153
116 131 150
115 129 150
113 127 147
119 134 154
118 133 153
119 134 154
115 129 147
115 128 148
111 125 144
116 132 151
110 124 143
117 132 151
118 133 152
116 130 149
111 125 144
118 132 151
117 132 151
118 133 154
110 124 142
108 121 139
106 118 136
111 124 142
101 113 130
112 125 143
116 130 150
114 129 148
114 129 148
109 123 142
109 122 139
112 127 145
107 120 138
107 120 138
106 119 136
108 121 138
116 131 151
120 136 155
118 132 153
108 121 139
113 126 143
112 126 144
106 119 137
115 129 148
116 130 148
114 129 150
107 120 137
116 130 149
111 125 143
111 124 143
121 137 158
116 129 146
114 128 147
113 127 146
114 128 149
117 131 150
109 122 139
111 125 144
113 127 146
108 121 140
111 124 143
109 122 139
115 129 149
110 123 141
119 135 157
115 128 146
112 126 145
112 126 143
117 132 153
118 134 155
114 128 147
114 129 148
117 133 153
116 131 152
119 134 153
115 119 133
116 115 127
127 112 118
114 97 98
113 84 78
120 84 72
119 83 71
113 79 67
117 82 70
118 83 70
115 81 69
117 81 69
119 83 71
115 80 69
116 81 69
119 83 71
120 84 72
119 83 70
119 83 71
121 84 72
117 82 70
122 86 73
123 86 73
120 84 72
122 85 72
113 80 69
119 83 70
120 84 72
123 85 72
120 84 71
115 81 69
125 87 74
118 82 71
124 87 74
122 86 73
123 86 73
125 87 75
116 82 70
118 83 71
119 83 71
119 83 71
122 85 72
118 82 71
118 83 71
121 85 73
121 84 72
121 85 72
118 82 69
116 81 69
119 83 71
119 84 72
121 84 71
122 85 72
121 84 72
118 82 70
125 88 75
118 83 71
118 83 71
115 81 69
117 82 70
119 83 71
119 82 70
116 81 70
125 87 74
113 78 67
115 81 70
123 87 74
118 82 71
122 85 73
116 81 70
120 84 72
116 81 70
123 85 73
116 81 70
120 84 71
120 84 71
121 84 72
114 80 68
119 83 71
117 82 70
121 84 71
114 80 68
116 82 70
121 85 73
114 80 69
115 81 69
122 85 73
120 84 71
112 80 69
120 84 72
111 77 66
117 82 70
117 81 69
110 77 66
117 82 70
114 80 68
114 79 68
113 80 68
116 81 70
111 78 68
118 83 71
115 80 68
115 81 70
112 78 68
116 82 70
114 80 68
109 76 66
116 81 69
116 82 71
112 79 68
111 78 67
118 82 70
109 77 67
112 79 68
114 80 69
114 80 69
105 74 65
112 79 68
106 75 64
109 78 68
104 74 64
109 76 65
111 78 68
107 76 66
110 77 66
110 77 66
116 81 69
106 74 64
107 75 64
101 72 62
106 85 82
112 101 104
111 110 118
126 131 148
125 137 154
125 143 163
124 141 162
126 144 164
128 147 167
129 146 169
124 142 162
128 146 167
127 147 165
125 143 163
130 150 172
121 140 158
130 149 170
122 141 160
131 149 173
129 148 169
125 143 164
127 146 167
123 142 161
123 142 160
126 144 164
127 145 167
127 146 167
127 146 166
126 145 165
124 141 162
125 144 163
127 147 167
127 145 165
124 142 162
124 144 161
126 145 165
128 148 166
126 144 165
127 146 166
126 145 164
130 149 171
124 143 162
127 144 165
128 145 166
126 144 166
124 143 163
125 144 164
126 145 164
125 144 163
126 145 163
125 144 166
126 146 165
121 141 160
129 148 169
125 144 166
122 141 159
126 146 166
127 148 167
125 143 162
123 140 158
123 141 159
121 140 158
128 147 168
121 139 156
124 142 160
127 147 167
123 142 160
123 143 162
122 143 161
120 140 156
122 142 162
121 141 159
123 142 159
127 147 166
121 142 160
123 142 160
119 138 154
123 143 159
123 144 161
121 141 159
115 135 150
124 143 160
119 139 156
122 145 159
117 137 151
120 140 156
120 140 157
118 139 155
116 137 150
119 139 154
124 144 164
117 138 152
119 141 156
120 142 153
122 144 157
120 139 156
118 139 154
123 143 160
113 137 147
116 134 148
120 142 157
118 140 155
111 131 142
113 134 145
107 131 136
114 136 145
110 131 140
113 135 145
110 131 141
106 127 134
111 132 143
107 130 137
111 134 141
108 128 137
104 126 133
103 127 131
110 132 139
103 123 130
104 125 134
109 131 136
96 116 120
105 127 133
100 122 126
103 126 132
93 117 119
94 117 134
78 101 127
75 104 140
62 90 133
60 92 144
47 81 145
45 83 152
45 83 153
44 82 151
47 87 159
43 81 149
46 86 159
42 78 144
46 84 156
45 84 155
45 83 152
47 87 160
44 81 150
46 85 156
44 82 150
44 82 152
45 84 155
46 86 158
46 86 159
46 85 157
46 85 156
46 86 157
45 84 156
45 83 152
44 82 151
46 85 156
45 83 154
45 84 156
46 86 158
46 86 158
44 82 150
47 86 157
47 88 160
44 82 152
43 81 149
45 84 154
45 84 155
47 87 160
45 83 153
47 87 160
45 84 153
46 85 157
46 85 156
45 84 156
44 81 150
45 83 153
46 86 157
47 87 160
46 85 156
47 86 158
44 82 150
47 86 159
46 85 157
45 83 152
44 80 148
44 81 148
46 85 156
46 84 154
45 83 154
46 84 152
47 85 155
46 85 155
46 84 154
47 86 158
45 82 152
46 83 153
47 84 153
46 84 155
47 87 160
46 85 156
45 84 155
47 85 156
45 82 149
47 86 157
45 84 154
44 80 146
44 81 149
48 86 157
46 84 155
45 82 151
45 81 148
47 86 158
46 83 150
47 85 155
46 83 152
46 85 156
46 82 150
45 82 150
45 83 152
45 82 150
46 84 155
47 86 156
47 85 156
44 80 146
44 80 147
45 82 148
44 80 147
44 79 144
43 78 142
44 80 146
46 83 150
46 83 152
45 83 151
44 77 138
44 80 148
45 83 152
45 81 148
47 86 157
45 80 146
43 77 142
52 83 148
65 85 142
63 86 143
89 103 155
102 105 139
132 128 159
121 119 150
144 137 160
154 142 160
162 152 170
171 153 162
181 168 176
185 171 179
190 177 183
194 181 188
196 183 188
202 188 193
197 184 191
202 189 195
203 190 195
200 188 195
200 188 195
199 188 195
197 187 195
196 187 195
195 186 195
195 186 195
194 186 195
193 185 195
192 185 195
193 185 195
191 184 195
191 184 195
191 184 195
190 184 195
189 183 195
189 183 195
188 183 195
188 183 195
187 183 195
186 182 195
187 182 195
186 182 195
186 182 195
185 182 195
185 182 195
185 182 195
185 182 195
184 181 195
184 181 195
184 181 195
184 181 195
184 181 195
184 181 195
183 181 195
184 181 195
184 181 195
183 181 195
184 181 195
184 181 195
184 181 195
184 181 195
184 181 195
184 181 195
184 181 195
185 182 195
184 181 195
185 182 195
185 182 195
185 182 195
186 182 195
187 182 195
186 182 195
186 182 195
187 182 195
188 183 195
188 183 195
188 183 195
189 183 195
188 183 194
190 184 195
189 183 194
191 184 195
190 183 193
191 183 193
192 184 193
192 183 192
193 183 190
189 180 187
191 180 186
192 182 189
188 177 183
192 180 187
191 178 184
185 171 173
192 178 181
190 175 178
185 170 170
180 166 166
177 163 164
177 160 156
169 152 149
157 143 141
154 143 141
145 131 127
146 135 136
146 136 136
137 129 133
131 129 133
136 129 133
127 134 149
119 128 138
120 130 143
118 131 146
123 136 153
123 138 157
118 132 148
112 126 140
121 135 151
121 136 155
123 139 158
118 132 149
114 129 146
118 133 150
119 133 150
115 130 145
118 133 150
122 138 156
120 135 153
119 133 149
121 136 152
124 141 159
121 135 152
119 133 150
119 132 150
114 129 144
122 135 152
119 133 151
126 142 161
122 136 152
121 134 150
119 133 149
114 126 142
119 132 149
115 130 144
119 134 148
121 134 151
117 131 148
117 130 146
122 139 155
118 132 148
120 134 150
120 135 151
116 131 146
119 134 149
119 133 148
120 134 151
116 130 144
118 134 149
122 135 151
122 137 156
118 132 145
121 135 153
122 137 155
119 133 149
118 132 149
119 131 148
118 129 144
116 131 145
114 127 143
121 135 151
123 136 153
116 128 143
116 129 145
119 133 149
123 136 153
117 130 146
121 134 151
118 133 148
116 130 146
121 135 150
116 127 143
122 136 154
116 128 142
121 135 152
117 131 148
118 131 146
117 130 145
119 132 148
120 135 151
120 135 151
115 127 142
119 134 152
119 133 150
111 123 138
118 130 146
115 129 145
119 132 148
118 132 148
116 130 148
109 121 135
120 134 151
115 127 142
113 126 140
118 132 145
119 133 149
116 130 145
113 128 139
114 129 144
115 129 142
120 133 148
114 128 142
107 120 134
115 128 142
118 131 145
110 123 136
113 126 140
116 129 144
117 131 146
115 130 144
114 127 142
118 131 144
111 123 137
117 130 144
110 124 136
115 128 142
115 127 141
122 136 151
110 122 135
117 133 145
118 131 147
115 129 141
114 127 141
114 127 142
113 126 139
116 131 146
111 123 135
113 128 142
113 126 139
109 123 135
113 126 137
115 130 142
118 132 148
107 120 132
108 120 133
112 126 141
113 127 140
109 125 134
107 121 133
109 123 135
109 122 132
113 127 140
104 118 126
109 122 135
113 127 135
114 128 141
112 125 136
111 124 136
108 119 131
109 121 134
102 116 127
110 125 133
109 123 133
113 127 138
109 121 132
110 124 134
116 130 143
103 116 126
108 121 133
110 123 135
100 112 121
101 113 123
101 113 121
104 118 128
102 113 123
103 114 121
104 117 124
111 124 132
106 117 124
105 120 127
110 123 135
111 123 135
99 110 117
107 118 126
108 118 130
98 112 120
102 115 120
102 113 121
97 108 112
99 113 122
101 114 118
103 113 122
94 107 112
98 111 114
102 115 117
97 107 114
93 106 111
101 114 119
102 116 124
97 110 113
96 109 113
99 111 114
94 108 110
94 107 110
96 107 112
104 117 124
96 107 114
97 110 113
97 110 115
95 108 108
87 98 99
100 111 116
96 110 110
95 108 114
91 103 102
100 112 117
86 100 97
92 106 101
87 106 94
78 104 69
72 104 56
80 111 62
70 107 45
73 114 37
77 118 39
73 115 37
72 114 37
79 123 41
75 117 39
81 123 41
82 125 42
70 111 37
77 120 40
72 113 37
74 115 39
75 117 39
79 123 41
77 120 40
77 118 40
85 130 44
75 117 40
79 123 41
80 125 42
78 122 40
82 126 42
82 125 43
80 124 41
78 122 40
83 127 43
79 122 42
74 116 38
84 128 43
78 120 40
86 132 44
83 129 43
81 125 42
81 126 42
80 125 41
80 123 42
81 123 42
74 114 38
79 123 41
84 127 43
82 126 43
82 126 43
78 121 41
81 124 41
83 126 43
74 114 37
83 125 42
82 124 42
76 119 40
77 120 39
75 118 39
79 122 41
77 120 41
74 112 38
75 115 38
78 120 41
78 118 41
80 123 42
77 117 44
78 115 50
74 111 50
79 108 74
79 108 74
86 109 91
93 116 102
85 102 99
92 106 109
101 113 121
102 113 124
96 108 116
94 106 114
100 113 119
101 113 122
104 117 127
103 117 126
102 114 124
107 121 133
106 119 128
110 122 133
103 114 121
105 118 128
108 121 132
106 118 131
111 127 139
106 116 128
109 121 130
99 112 121
109 123 136
108 124 135
112 124 137
110 124 135
107 121 133
112 127 138
113 126 140
106 120 132
111 125 139
106 121 131
108 123 136
112 125 141
108 121 133
112 127 138
112 127 141
114 128 140
112 127 140
111 124 136
112 127 138
111 125 141
113 127 142
114 129 145
109 123 136
115 129 143
112 126 141
110 124 139
108 121 135
109 123 136
112 124 141
112 126 137
107 122 135
121 135 153
114 128 141
115 127 143
116 131 147
114 128 144
114 128 142
116 132 147
119 135 153
115 131 147
116 131 146
122 136 154
120 135 154
118 134 152
111 123 138
119 134 152
115 131 148
122 136 154
117 130 147
111 122 139
117 132 148
114 127 143
121 135 153
119 134 150
123 135 150
113 126 144
119 135 152
118 132 146
116 130 149
113 127 143
124 139 157
115 128 147
119 133 151
117 131 147
120 133 152
114 129 148
117 132 149
114 128 145
121 138 156
116 129 149
108 121 139
106 121 138
95 108 126
106 120 138
96 109 126
85 97 112
81 95 112
75 88 103
62 75 86
55 70 83
55 70 83
32 52 65
28 48 60
31 50 62
5 38 50
5 38 50
5 39 51
5 38 50
6 39 51
5 39 51
5 38 50
5 38 50
5 39 51
5 38 49
5 38 50
5 38 50
5 39 50
5 37 48
5 38 50
5 38 50
5 39 51
5 38 50
5 38 50
5 39 50
5 39 51
5 38 50
5 38 50
5 39 50
5 38 50
5 38 50
5 39 51
5 39 51
5 38 50
5 39 51
5 39 51
5 39 51
6 39 51
5 38 50
5 38 50
5 38 50
6 39 51
5 39 51
5 38 50
6 39 52
5 38 50
5 38 51
5 38 50
5 39 51
5 39 51
5 39 51
5 38 50
5 39 51
5 39 51
5 39 51
5 38 50
5 39 51
5 38 51
5 39 51
5 38 50
5 39 51
5 38 50
5 39 51
5 38 51
5 38 50
5 38 50
5 38 50
6 39 51
5 38 51
5 39 51
6 38 51
5 38 50
5 38 50
6 39 51
6 38 50
5 38 50
5 38 50
5 38 50
5 38 50
5 38 51
9 38 51
14 41 53
14 41 53
33 52 64
44 60 73
52 65 79
53 68 82
61 76 92
75 89 106
76 88 104
94 109 128
96 108 127
106 120 138
112 127 148
115 131 152
114 128 151
117 132 154
118 133 155
120 135 158
123 139 161
122 136 160
115 128 150
123 138 160
122 135 160
121 136 159
123 138 162
120 134 158
117 125 151
119 123 151
111 99 136
112 85 127
100 57 110
102 44 110
103 36 107
100 35 105
107 37 112
110 37 113
104 36 111
110 38 115
98 34 103
107 37 112
105 36 108
106 35 106
111 37 113
110 37 111
122 39 120
117 38 114
114 37 112
126 40 120
123 39 117
131 41 123
122 39 119
123 39 117
127 40 119
123 39 117
128 40 120
120 37 113
137 42 127
129 40 120
135 41 124
136 41 123
129 40 122
136 41 124
138 41 123
135 40 123
131 40 122
134 40 121
136 41 124
134 41 123
127 40 122
139 41 126
131 41 123
135 41 124
137 43 129
130 39 119
133 40 121
124 39 118
130 40 122
125 39 119
122 37 113
130 41 125
125 39 120
127 41 125
115 37 113
118 39 119
116 39 119
118 38 118
112 38 114
113 39 118
113 39 118
112 38 115
109 38 116
109 37 113
108 37 113
112 38 118
108 37 112
111 38 117
118 40 121
113 39 119
112 38 117
109 38 115
115 40 121
110 37 114
112 39 117
109 38 114
112 38 115
109 37 113
114 39 120
110 38 116
114 39 118
111 37 113
112 38 117
107 37 113
114 39 117
113 39 118
112 39 116
117 40 122
111 38 116
112 39 118
109 37 113
109 37 111
114 39 118
108 37 112
112 38 116
110 38 115
115 39 120
115 40 121
113 38 116
118 41 124
111 38 115
112 39 119
107 37 113
109 37 113
113 39 119
115 40 120
112 39 118
112 39 118
106 36 110
109 38 114
107 37 112
106 37 112
108 37 110
111 38 114
111 39 117
109 37 114
109 38 115
107 37 113
112 39 118
107 37 113
112 39 118
109 37 113
109 38 114
110 38 115
112 39 117
113 42 117
111 54 122
108 71 125
106 84 127
104 98 136
100 97 136
99 106 139
106 116 146
105 116 145
106 116 144
100 110 141
99 108 138
107 118 149
104 114 142
103 113 144
111 123 154
101 109 142
98 107 138
107 117 147
100 107 142
101 110 144
109 121 149
107 117 150
102 112 143
103 114 147
109 119 150
113 124 155
111 121 153
106 117 147
105 115 148
103 113 148
105 116 147
110 122 152
117 130 159
109 121 153
114 126 157
107 117 150
113 126 157
116 129 158
111 122 153
113 125 157
114 125 156
111 124 152
110 122 154
105 114 148
111 123 154
112 125 155
111 123 151
114 128 157
114 127 159
115 127 159
116 130 159
120 135 165
108 118 151
120 133 164
118 132 162
120 134 163
115 127 157
119 133 161
117 131 162
116 129 160
119 133 162
116 129 162
120 134 164
118 132 162
119 134 165
118 132 162
125 141 169
121 136 163
117 130 161
119 133 160
119 134 163
122 138 166
120 135 164
126 141 169
118 133 160
126 143 170
130 146 173
119 134 162
127 143 170
121 135 166
122 138 166
122 137 165
122 137 165
122 137 165
126 141 167
130 146 173
125 141 170
127 143 171
126 142 171
127 144 172
