P3
1600 1
255
2 110 166
2 112 171
2 112 169
2 104 158
2 108 163
2 113 172
3 116 175
2 113 172
2 113 171
2 107 162
3 113 170
2 111 166
2 113 170
2 111 169
2 109 166
2 108 164
2 110 165
2 107 163
3 117 178
2 111 167
3 114 172
2 109 164
2 108 163
2 110 167
2 112 168
2 109 164
2 102 155
2 104 158
2 106 160
2 112 170
2 109 166
2 104 157
2 109 164
2 106 160
2 108 162
2 105 157
2 103 156
2 108 163
14 103 156
46 114 166
58 113 160
78 122 164
97 129 164
112 137 166
122 143 171
127 144 168
128 146 170
130 148 173
129 146 171
129 147 170
128 146 169
126 144 167
126 143 168
129 148 173
131 149 173
124 141 165
123 141 167
130 147 170
127 145 170
129 147 171
127 144 168
124 143 166
130 148 172
128 145 170
131 150 174
125 144 168
125 143 168
128 147 170
128 145 168
125 143 168
131 149 174
124 142 167
126 144 167
131 149 174
128 146 170
129 147 171
130 148 173
128 147 171
129 148 172
131 149 174
129 147 172
129 147 170
128 147 171
127 145 170
129 149 173
130 149 172
129 147 171
128 147 171
132 151 176
130 148 172
132 150 174
125 143 167
128 146 170
123 141 166
127 145 170
129 148 172
131 148 172
127 144 168
130 149 172
130 148 174
130 148 174
133 152 175
130 148 172
127 145 170
130 148 172
131 149 172
130 148 172
130 149 173
131 149 173
128 145 170
130 149 174
130 148 173
132 150 173
129 147 170
127 142 165
126 143 166
130 149 174
130 149 174
132 150 175
131 149 173
132 151 175
129 147 172
131 150 174
131 150 174
132 150 175
131 149 173
131 149 174
132 151 175
132 151 176
134 152 177
133 151 177
130 149 175
133 151 175
128 145 170
131 148 172
130 148 173
129 149 174
129 147 171
132 150 174
135 154 178
132 151 176
131 149 174
132 151 174
132 151 175
127 144 168
131 149 174
131 149 173
131 150 176
130 149 173
132 150 176
130 148 171
134 152 176
132 150 174
130 149 174
128 146 169
131 149 173
134 152 176
130 149 174
132 150 173
131 149 173
135 152 176
133 150 174
127 145 169
130 148 172
132 150 173
133 152 176
133 151 174
133 151 174
132 151 175
129 148 173
133 151 174
134 152 176
135 154 178
132 149 172
130 149 174
132 149 173
131 149 173
131 149 173
129 147 172
129 147 172
130 148 173
131 150 175
133 152 177
128 147 171
132 149 173
129 147 170
130 148 172
130 148 173
131 149 173
129 148 172
129 147 172
128 146 170
130 148 173
133 151 175
135 153 177
129 146 171
133 152 176
134 153 177
131 149 173
129 147 171
132 150 174
132 150 175
132 150 175
133 151 176
130 148 172
132 151 176
131 149 173
133 150 173
131 149 173
131 149 173
131 148 172
127 145 168
131 148 171
129 148 172
134 151 176
132 151 176
130 149 173
131 149 172
130 149 173
130 147 171
129 146 169
134 152 175
131 149 173
130 150 174
130 149 173
130 148 172
132 149 173
134 153 177
133 152 177
132 150 175
133 150 174
133 150 174
133 150 174
131 148 172
130 147 170
126 144 168
132 150 174
130 149 173
134 151 175
131 148 172
132 151 175
132 151 175
130 148 171
134 153 177
130 148 172
132 150 175
131 148 172
130 149 173
134 152 176
128 145 168
131 149 174
129 145 167
130 149 173
129 148 172
127 144 168
133 152 176
128 145 168
132 150 174
131 149 172
130 148 171
130 148 171
126 143 166
132 150 174
130 149 173
133 150 173
132 150 175
127 144 166
131 148 173
131 149 172
129 146 169
131 149 174
128 144 168
128 146 169
129 146 169
128 147 170
128 144 167
129 146 170
128 144 167
129 148 172
129 146 170
129 146 169
128 146 169
128 147 171
126 143 165
127 144 167
128 146 170
129 147 171
126 143 165
129 146 168
130 148 171
128 145 168
127 144 167
131 148 171
126 144 168
128 144 166
123 139 161
126 143 167
125 142 165
126 143 166
128 144 166
124 141 162
130 148 172
126 143 166
124 142 165
126 142 166
128 145 168
129 147 170
126 142 163
122 138 160
127 145 168
129 146 169
126 143 165
130 148 171
126 143 165
119 134 155
121 136 157
124 140 162
124 142 165
126 142 165
119 135 158
127 144 168
127 144 167
130 148 171
125 140 161
122 138 159
125 141 163
119 135 155
124 140 161
122 138 160
122 137 158
127 143 165
121 138 159
124 141 162
127 143 164
119 134 154
123 140 162
121 137 159
121 136 157
122 137 158
121 138 161
117 134 155
125 141 162
121 136 158
120 135 156
120 137 159
127 144 167
123 139 160
122 137 158
120 137 158
122 137 158
124 141 162
121 138 160
123 140 163
123 139 159
121 137 157
122 138 160
123 139 161
124 141 162
121 137 158
117 132 153
117 131 150
124 141 163
117 133 155
121 137 159
118 133 154
122 137 158
120 137 159
119 134 155
114 127 146
120 135 156
120 136 158
124 139 160
125 141 163
124 141 164
124 140 162
120 135 155
125 141 164
116 131 150
115 131 152
122 138 159
120 134 154
119 135 156
121 139 160
125 141 163
123 139 161
119 134 155
115 129 148
119 135 155
116 130 149
121 136 157
121 137 158
117 131 149
125 142 164
119 134 154
120 138 157
125 143 165
120 136 157
122 138 159
123 139 160
123 139 160
117 131 152
124 142 164
126 143 166
123 140 162
122 136 156
123 139 161
120 136 158
120 136 156
122 139 161
118 134 155
121 136 157
122 139 159
119 135 157
123 140 163
124 141 162
123 140 162
122 132 151
121 124 140
116 115 127
120 109 116
121 100 101
110 84 78
120 84 71
110 78 67
113 79 68
114 80 69
114 81 70
115 80 68
118 83 71
116 81 69
115 80 69
117 82 71
112 79 68
121 85 73
116 81 69
116 81 69
118 82 70
118 83 71
120 84 71
118 84 71
116 81 69
119 84 71
124 86 73
115 80 68
114 80 68
117 83 70
117 83 70
118 83 70
118 83 70
117 83 70
118 83 71
113 79 68
113 79 67
119 83 71
120 84 71
116 81 69
119 84 71
121 84 71
113 78 67
124 87 74
121 85 72
118 82 70
122 85 73
113 79 68
116 81 69
117 82 69
117 82 70
117 82 70
116 81 70
115 80 69
120 84 72
119 83 70
122 86 73
118 83 70
116 81 68
115 80 69
115 80 69
121 84 71
113 78 67
122 85 72
118 82 71
113 80 68
114 80 68
116 81 70
113 79 68
115 80 68
121 84 72
115 80 69
116 82 69
117 81 69
110 78 67
119 83 71
116 82 70
115 81 69
116 81 70
121 85 72
115 80 68
118 83 71
115 79 68
116 82 71
117 82 70
116 81 69
115 81 69
117 81 69
118 83 71
116 81 69
114 80 68
116 81 70
117 81 69
111 77 66
115 81 69
115 80 69
114 80 68
113 80 69
117 81 70
109 77 66
113 78 67
115 79 67
114 80 69
112 79 67
109 76 66
108 76 66
113 79 68
108 75 65
111 78 67
114 80 69
112 79 68
110 77 67
113 80 68
103 73 64
110 77 67
108 76 66
110 78 67
111 78 66
112 78 67
107 75 65
107 76 65
97 69 60
107 75 65
99 70 61
102 73 63
105 75 65
103 73 62
105 75 64
110 78 66
107 79 73
107 96 100
112 106 113
119 124 138
123 135 154
126 139 157
127 145 166
126 142 162
130 149 171
127 146 168
128 147 169
129 148 170
123 139 160
129 148 169
125 144 163
129 147 170
128 145 167
128 147 168
128 147 166
127 146 167
130 148 169
131 148 170
123 142 159
126 144 164
128 148 169
125 145 163
131 150 172
125 144 164
128 146 169
129 148 170
128 147 168
129 148 170
121 139 158
124 142 162
126 145 165
128 147 168
130 148 171
126 147 167
124 142 163
126 142 162
125 144 162
126 145 166
126 145 165
126 146 165
126 146 165
127 147 168
124 145 162
123 144 160
125 144 163
125 144 163
127 146 167
126 145 166
130 147 168
128 147 166
124 142 162
125 145 164
127 146 166
124 144 161
122 141 157
127 149 165
123 142 160
124 142 160
124 146 162
125 145 164
122 143 162
123 143 162
122 143 160
124 146 163
122 142 158
124 144 161
121 141 158
122 142 160
125 146 164
120 141 153
126 147 164
125 145 162
124 145 160
127 147 167
117 139 151
124 146 160
120 141 157
124 144 162
124 144 162
120 140 155
122 144 160
122 144 158
116 140 150
118 140 154
120 143 159
113 135 148
123 143 160
114 136 149
118 139 150
111 134 143
119 141 154
118 140 153
115 137 150
120 140 156
118 139 153
120 142 155
116 139 149
114 137 151
115 140 149
114 137 146
115 137 150
114 136 148
112 133 143
110 131 142
113 137 143
110 134 141
108 133 138
105 127 135
112 135 142
98 122 125
104 128 130
99 120 124
112 134 142
101 127 127
108 131 138
101 125 126
98 121 123
95 118 118
99 122 126
91 116 115
97 120 124
100 124 133
83 107 117
71 99 123
70 95 133
60 89 135
55 86 144
45 82 150
43 79 145
43 78 144
43 78 144
42 79 145
43 80 147
43 80 149
43 78 145
44 82 151
46 85 156
45 83 152
43 79 147
45 83 153
43 79 145
44 81 150
45 85 156
44 81 150
47 86 158
45 83 153
45 84 156
44 84 154
45 84 155
45 84 155
45 83 154
46 85 156
45 83 153
42 79 147
44 81 150
45 84 155
43 80 147
46 85 156
44 82 149
46 85 155
44 83 153
47 87 160
47 86 158
44 82 151
44 81 148
46 83 152
45 83 153
44 82 152
45 82 151
46 86 158
47 88 161
45 83 153
46 85 156
44 82 152
45 82 151
45 84 155
45 84 154
42 77 142
45 82 150
44 80 146
45 82 151
46 85 157
45 83 153
46 85 156
45 82 150
46 84 153
42 77 142
45 81 148
45 83 153
46 84 155
43 79 147
44 81 149
46 83 152
45 83 152
45 80 146
43 78 144
43 80 146
44 80 148
46 83 151
45 82 150
45 82 150
43 79 146
44 81 147
46 85 155
44 80 146
44 82 151
43 78 143
46 84 153
46 82 150
44 80 147
45 81 148
45 81 149
42 77 140
43 78 142
44 80 147
46 83 152
46 83 152
44 80 146
43 79 147
43 78 143
46 83 151
45 82 151
45 82 150
44 80 145
44 78 142
45 82 150
42 76 139
43 78 142
44 78 140
45 82 149
43 79 145
45 82 150
45 75 135
51 81 144
62 87 147
67 89 143
89 97 146
89 97 142
117 116 150
134 129 155
147 137 155
152 143 163
158 148 162
165 152 164
184 169 175
185 169 175
192 178 183
201 186 190
201 187 192
198 185 190
200 186 192
201 188 194
201 189 195
201 189 195
201 189 195
198 187 195
199 188 195
197 187 195
196 187 195
196 186 195
195 186 195
194 186 195
194 186 195
193 185 195
192 185 195
193 185 195
191 184 195
190 184 195
190 184 195
189 183 195
189 183 195
188 183 195
187 183 195
187 183 195
187 183 195
186 182 195
187 182 195
186 182 195
186 182 195
185 182 195
185 182 195
185 182 195
185 182 195
184 181 195
184 181 195
184 181 195
184 181 195
183 181 195
184 181 195
183 181 195
183 181 195
183 181 195
183 181 195
183 181 195
183 181 195
183 181 195
183 181 195
183 181 195
183 181 195
184 181 195
184 181 195
184 181 195
184 181 195
184 181 195
184 181 195
185 181 195
185 182 195
185 182 195
186 182 195
186 182 195
186 182 195
186 182 195
186 182 195
187 182 195
188 183 195
188 183 195
188 183 195
189 183 195
189 183 195
190 184 195
190 184 195
191 184 195
191 184 195
193 185 195
192 184 195
194 185 195
193 185 194
194 185 194
194 184 193
195 185 193
195 184 191
193 182 189
196 183 189
194 183 189
195 183 188
193 180 185
194 181 186
188 173 176
189 174 176
193 178 179
182 167 167
182 167 167
171 156 153
166 152 151
153 139 143
146 135 136
146 138 139
139 135 137
126 122 125
138 137 146
129 131 144
127 132 139
119 126 136
126 134 147
124 137 153
125 139 157
122 137 154
119 134 152
120 135 151
122 138 156
121 137 155
115 129 145
119 134 150
121 135 151
126 141 161
122 138 157
117 133 151
120 134 151
119 132 150
123 139 157
120 136 153
118 132 149
126 143 165
124 138 157
120 134 152
120 133 149
128 144 164
123 137 154
118 133 151
119 134 152
118 132 147
122 138 155
123 137 155
121 137 155
128 143 162
121 134 151
119 133 150
123 140 160
118 132 148
118 132 150
120 135 149
120 136 154
118 132 147
116 130 147
120 134 149
119 135 152
123 137 156
120 134 152
123 139 155
121 135 152
125 140 157
119 132 148
118 131 147
121 135 152
116 131 146
122 136 153
128 142 161
118 134 150
119 134 150
121 135 152
121 137 155
114 128 143
116 129 148
120 132 148
122 137 154
115 129 145
119 134 151
120 133 149
124 138 156
122 137 156
122 138 155
120 135 153
123 136 153
117 132 148
120 135 150
120 135 150
120 134 153
122 138 154
124 139 157
125 140 158
119 131 148
121 137 152
119 134 149
114 127 143
115 129 142
120 135 152
122 136 154
124 137 154
122 136 155
119 133 147
120 136 154
118 132 146
113 127 142
119 135 154
116 131 145
115 129 144
118 134 148
121 134 150
117 131 146
117 133 147
116 130 144
112 126 139
118 131 148
115 129 143
119 134 150
115 129 140
120 136 152
116 129 141
121 134 150
113 128 140
113 127 140
109 121 134
115 129 144
116 131 146
113 126 140
116 130 141
116 129 142
116 131 148
117 131 145
116 130 143
112 126 138
118 133 148
111 124 137
113 127 137
113 126 138
114 128 142
119 133 149
108 122 135
114 127 139
114 127 141
112 126 136
109 123 136
114 129 142
113 129 141
113 126 141
110 124 137
111 124 134
108 123 134
110 125 136
115 129 141
116 131 145
117 131 147
113 129 138
103 118 125
117 132 146
115 130 139
106 120 130
113 128 139
108 121 132
104 117 123
110 123 132
107 120 126
112 127 139
114 128 144
108 124 133
107 119 132
107 120 129
113 129 139
103 116 126
106 121 126
112 124 137
101 117 117
105 120 128
104 118 126
106 119 127
102 116 122
109 123 133
104 116 123
103 115 123
103 117 128
99 114 118
102 114 126
99 111 115
95 108 112
103 116 121
99 115 115
102 115 122
96 112 113
105 118 126
98 113 117
97 110 116
97 111 116
101 116 119
98 113 115
99 111 118
94 107 109
94 107 112
90 103 108
94 105 109
86 101 101
86 100 99
93 106 108
76 89 86
89 102 105
88 101 100
86 98 101
83 98 95
80 97 89
88 101 103
91 104 105
84 97 95
85 97 95
84 97 94
76 90 84
80 92 93
85 95 99
84 97 96
79 93 88
69 79 73
68 77 75
82 94 96
67 78 73
75 94 81
68 87 70
69 91 66
71 93 68
68 96 54
72 106 53
70 108 40
68 102 48
60 95 29
70 109 36
61 96 30
76 118 39
74 114 38
65 103 33
72 113 37
71 112 37
64 101 32
74 115 38
72 113 37
75 116 38
67 107 33
74 117 38
72 112 37
68 107 35
71 112 37
76 119 39
73 114 37
73 114 38
74 114 38
77 119 40
70 110 35
75 118 39
70 109 35
72 113 36
71 112 36
67 106 33
75 116 38
64 99 32
76 114 39
69 108 35
75 116 39
70 111 37
73 113 38
69 107 35
72 113 37
69 109 42
74 112 45
72 110 45
74 111 43
72 104 55
69 104 46
80 107 75
77 102 75
80 101 83
86 103 98
86 103 101
95 111 113
91 105 106
89 102 106
88 101 104
95 109 117
86 100 102
82 96 95
93 106 112
92 106 108
96 111 113
94 107 110
103 121 125
103 117 124
93 107 110
95 107 113
92 108 113
101 115 124
99 112 122
100 114 120
103 118 127
101 115 125
108 123 136
103 118 124
108 123 133
101 115 122
106 120 129
106 120 131
100 112 121
103 117 127
102 118 127
107 123 134
103 118 126
109 123 137
109 124 134
114 128 146
105 120 130
109 124 134
114 130 141
111 126 139
114 128 142
111 127 137
110 125 137
111 126 139
113 127 141
113 128 140
113 127 142
110 126 136
114 129 140
115 130 142
114 130 141
116 130 145
109 126 138
111 127 139
115 128 143
114 129 143
110 125 138
115 129 146
114 128 144
111 128 138
113 127 143
115 130 145
119 134 150
109 124 137
118 135 148
111 125 139
111 124 139
116 132 148
121 138 155
116 131 148
118 132 147
114 126 140
112 128 142
119 136 151
115 130 145
121 135 150
115 127 143
117 133 151
116 130 143
117 132 150
117 131 146
121 137 154
119 135 153
120 134 151
115 129 144
114 128 145
117 130 145
115 131 146
117 131 146
123 140 159
115 130 148
114 128 146
124 140 159
119 133 152
120 135 150
118 131 149
111 125 143
109 124 144
95 109 125
91 104 120
84 94 109
80 96 110
67 82 93
68 84 97
49 64 75
43 60 73
32 51 64
17 42 53
15 40 52
5 38 50
5 37 48
5 38 50
5 38 49
5 38 50
5 37 48
5 38 49
5 37 48
5 38 50
5 38 50
5 37 49
5 37 49
5 38 50
5 38 49
5 38 50
5 38 50
5 37 48
5 38 50
5 38 50
5 37 49
5 38 50
5 38 50
5 38 50
5 39 51
5 39 51
5 38 50
5 38 50
5 38 49
5 39 50
5 38 49
5 38 50
5 38 50
5 39 51
5 38 50
5 38 50
5 38 50
5 39 51
5 39 51
5 38 51
5 38 50
5 38 51
5 38 50
5 38 50
5 38 51
5 38 50
5 38 50
5 38 50
5 39 51
5 38 50
5 38 50
5 38 51
5 38 50
5 38 50
5 37 49
6 39 51
5 38 50
5 38 50
5 38 50
6 39 51
5 38 50
5 39 51
5 38 51
5 38 50
5 38 50
5 38 50
5 38 50
5 39 51
5 38 50
5 37 49
5 38 50
5 38 50
5 38 49
5 37 49
6 38 51
5 37 50
6 38 51
6 38 50
5 36 49
5 38 50
5 37 49
5 38 50
5 38 50
5 38 50
5 38 50
5 37 50
5 38 50
5 37 49
5 36 49
29 48 61
36 53 67
51 67 80
47 62 75
71 82 96
72 86 102
78 91 108
89 100 120
98 112 130
102 115 135
110 125 144
107 122 141
121 134 157
121 136 156
125 142 166
120 135 159
125 139 162
125 141 166
126 142 165
121 137 159
122 134 157
116 116 142
117 108 142
117 96 135
117 80 127
115 59 118
121 45 114
122 37 112
123 38 115
128 40 119
126 39 116
144 42 125
139 40 121
143 41 125
146 41 124
152 43 128
154 43 130
162 44 132
149 42 128
157 44 132
162 44 133
159 44 131
161 44 131
155 43 128
164 44 133
165 46 138
172 46 137
175 46 139
164 45 135
168 45 136
166 45 136
170 45 136
172 46 140
169 45 136
167 45 136
172 46 137
173 46 138
171 45 136
171 46 138
175 47 140
172 46 140
170 46 139
167 45 134
167 46 137
164 44 133
173 46 140
168 45 135
169 46 137
163 44 133
164 45 135
159 44 132
155 43 131
160 44 134
159 44 134
162 44 133
161 44 133
161 45 135
154 43 131
153 43 130
151 42 128
150 43 129
143 42 126
142 42 125
137 40 123
135 42 126
128 40 119
129 40 121
127 40 121
117 37 112
125 40 122
117 38 115
119 39 117
112 38 116
114 38 116
105 35 109
112 38 116
110 38 115
111 38 117
103 35 108
107 37 112
109 36 110
110 38 116
105 37 112
110 38 115
111 38 115
104 35 106
112 39 116
105 36 110
111 38 115
107 36 111
107 37 110
119 40 123
107 37 113
106 36 110
107 36 109
106 36 109
104 36 110
107 37 113
106 37 111
111 38 114
114 39 119
112 39 117
112 38 117
103 36 108
110 38 117
117 40 123
107 37 111
106 37 113
112 39 117
106 37 113
105 36 109
106 37 112
110 37 112
105 37 111
107 36 111
109 37 112
114 39 116
107 37 112
108 37 113
107 37 114
106 36 110
109 37 112
109 38 114
111 38 115
111 42 114
107 54 118
105 62 118
111 95 137
114 100 143
113 115 146
116 125 155
114 125 153
113 128 152
114 127 154
116 129 157
109 121 151
112 125 151
119 133 160
114 127 157
114 125 153
115 127 155
110 122 153
116 129 160
117 130 162
112 125 156
114 127 158
120 134 165
120 135 162
112 125 154
112 123 154
115 129 157
120 135 164
111 123 152
117 130 160
118 133 158
117 130 161
112 125 156
114 128 157
125 140 167
113 126 154
117 129 158
123 139 166
112 126 156
114 126 155
117 130 158
116 129 158
122 136 166
115 129 156
120 135 162
116 128 157
119 133 161
126 141 170
123 136 165
121 136 163
117 131 160
115 128 157
120 133 163
121 134 164
115 128 157
119 133 162
120 135 164
117 132 159
121 136 165
123 137 166
123 137 162
120 135 161
122 137 164
118 131 162
125 141 169
125 141 167
121 135 164
125 140 168
123 138 167
126 142 170
123 137 169
121 137 165
124 139 167
123 139 166
127 142 170
125 140 169
127 143 170
121 137 166
126 142 169
121 137 165
128 143 171
124 140 167
128 144 171
124 140 167
129 146 173
123 138 167
125 140 167
126 143 170
128 145 172
126 143 170
126 143 168
127 144 170
129 145 172
