P3
1600 1
255
2 109 165
2 105 161
2 107 163
2 107 163
2 105 159
2 111 169
2 111 168
2 108 163
2 107 163
2 105 157
2 104 158
2 105 159
2 108 164
2 107 162
2 104 157
2 104 158
2 106 160
2 110 165
2 104 158
2 110 166
2 103 155
2 98 150
2 105 159
2 109 165
2 103 158
2 107 162
2 97 149
2 106 161
2 106 160
2 106 159
2 100 150
2 101 152
2 103 155
2 100 150
2 108 163
2 102 155
2 104 159
32 110 162
59 114 159
63 115 161
90 123 159
95 127 162
114 136 164
115 132 156
121 138 162
120 137 161
123 141 164
120 137 161
122 138 162
126 143 167
123 139 163
125 143 167
127 144 167
118 136 160
122 138 162
124 141 165
128 146 171
126 144 166
121 139 164
127 144 168
122 140 165
125 142 166
128 146 171
130 148 172
126 144 167
126 142 166
126 144 168
129 149 172
124 142 167
126 144 168
129 147 171
125 143 168
128 146 169
126 145 169
126 146 171
128 146 170
125 143 166
130 148 173
129 147 170
131 150 173
128 146 170
125 143 168
131 149 173
126 144 168
123 140 165
129 147 171
132 151 175
124 142 167
125 144 167
130 148 172
123 141 165
129 147 171
131 149 173
131 148 170
124 142 165
129 147 172
128 147 172
128 146 171
126 144 169
127 145 169
125 143 167
128 146 170
128 146 169
130 149 174
130 149 173
132 150 174
131 148 172
125 143 167
132 149 173
126 143 167
129 147 171
127 144 167
126 146 170
129 148 172
127 145 169
127 144 169
130 148 171
129 148 173
129 148 172
126 145 168
128 145 169
131 150 174
130 148 172
130 148 172
134 152 177
131 149 175
128 148 173
128 146 170
132 150 174
129 148 172
129 147 171
126 145 169
130 147 172
131 149 172
132 150 175
128 146 171
131 150 175
129 147 170
129 148 172
128 145 168
132 150 175
130 148 171
130 149 174
133 152 176
133 151 175
130 148 172
133 152 176
133 151 175
131 150 176
128 146 169
129 147 171
131 150 174
132 150 174
128 145 168
131 150 174
132 150 175
130 148 173
132 150 172
131 149 173
131 149 173
133 151 176
129 146 170
133 152 175
132 150 174
129 147 172
132 150 174
132 150 175
132 150 174
130 148 171
132 150 176
130 148 172
131 148 172
130 148 173
129 147 171
131 150 174
128 146 170
132 150 175
132 151 174
132 151 175
127 144 168
130 149 174
131 148 172
130 149 173
135 153 176
127 145 168
128 147 171
130 149 173
129 147 171
134 153 177
130 148 172
132 150 174
133 152 176
128 145 169
133 151 176
132 150 174
129 148 173
132 149 173
134 152 177
130 148 172
130 147 171
132 151 176
133 150 173
131 149 171
133 152 175
129 147 170
132 151 175
126 143 165
130 147 171
133 150 174
133 152 176
133 151 175
132 150 174
127 146 170
130 148 172
131 149 172
132 150 173
128 147 171
131 150 174
132 151 175
131 150 174
130 148 173
133 151 175
132 151 175
132 151 175
130 147 171
133 151 176
133 151 175
130 148 171
134 151 175
130 148 170
130 147 171
133 153 178
131 149 173
131 148 171
131 149 172
135 154 178
132 150 174
132 149 173
131 149 173
131 149 174
133 152 176
128 146 170
134 152 175
132 149 172
131 149 172
133 151 174
132 150 175
131 149 173
128 147 171
131 149 173
133 152 176
132 150 173
131 149 173
129 147 171
134 151 176
128 146 170
130 148 172
131 150 174
135 154 179
132 150 175
131 150 175
129 145 167
133 151 175
131 150 174
133 151 175
130 148 171
130 147 170
131 148 170
129 146 170
130 147 171
129 146 169
130 148 172
127 145 168
127 145 169
131 149 173
130 147 169
127 144 168
129 147 171
128 146 169
129 147 170
130 148 171
132 150 175
130 148 172
129 145 168
131 149 172
127 146 170
129 146 169
131 149 173
132 150 173
127 145 167
126 144 168
130 148 171
125 144 167
127 145 169
130 146 168
129 147 170
131 149 172
131 149 173
127 146 169
129 147 170
128 145 169
132 150 174
130 148 171
129 146 168
129 146 169
129 147 171
133 151 175
129 147 169
134 152 175
132 151 174
123 140 162
128 146 169
124 142 164
126 142 164
127 145 169
128 144 167
131 148 171
129 147 171
130 148 172
132 150 173
131 149 173
127 144 166
130 147 170
130 147 170
127 145 169
126 144 167
128 145 168
126 144 167
127 144 167
128 146 168
129 145 166
130 147 171
125 142 164
125 143 166
125 141 164
131 149 173
126 143 166
130 146 168
127 144 167
126 143 165
130 146 169
129 147 171
128 145 168
129 147 169
129 147 171
129 146 169
126 144 167
131 148 171
127 144 167
131 148 170
123 138 160
128 146 169
126 144 168
126 143 166
131 148 171
127 146 169
128 145 167
125 142 165
132 149 172
129 147 170
130 147 171
129 146 169
132 150 174
128 145 166
126 144 166
122 138 160
124 142 166
125 141 162
125 142 165
125 142 166
128 146 170
125 141 162
126 142 163
125 144 166
131 148 171
130 148 171
130 148 171
126 143 165
129 147 169
130 148 170
127 144 166
126 145 167
124 142 165
124 142 165
131 150 173
128 146 170
129 146 169
127 145 167
129 146 170
128 145 168
122 138 159
124 141 161
132 150 173
129 147 171
125 142 164
130 147 170
126 144 166
126 143 165
129 146 169
127 144 167
128 145 168
127 144 165
123 141 162
127 143 166
130 146 169
127 144 168
131 149 172
128 145 168
130 146 169
129 146 169
127 145 167
129 147 169
131 148 170
125 141 162
127 145 169
125 142 164
124 142 164
124 142 164
124 139 160
120 127 143
122 122 136
115 106 113
121 103 105
113 87 81
111 79 68
111 78 67
112 79 67
110 77 66
110 76 65
116 81 70
114 80 68
110 77 66
109 77 66
116 81 69
112 78 67
115 81 69
115 80 68
114 79 68
114 80 69
118 82 69
115 81 69
112 79 67
113 80 68
111 77 66
112 78 67
117 82 69
117 82 69
111 78 67
116 81 69
110 77 66
109 77 65
111 77 66
115 80 68
113 79 68
112 79 67
117 82 70
113 79 67
111 78 67
113 79 67
114 79 68
120 83 71
109 76 65
114 79 68
120 83 71
107 75 64
113 79 67
114 80 68
114 80 68
111 78 67
113 79 67
114 79 68
115 80 68
116 81 68
117 81 69
109 76 65
118 83 70
113 79 66
116 81 69
114 79 68
113 78 67
118 83 70
112 78 66
118 82 69
111 77 66
114 79 68
114 80 68
106 73 63
109 77 66
108 76 65
110 76 65
113 78 67
109 76 65
116 82 69
108 76 65
108 75 65
114 80 68
112 78 66
112 78 66
112 78 67
117 81 68
114 80 68
108 75 64
110 76 65
111 78 67
110 76 65
108 76 66
107 74 65
108 76 67
103 72 66
107 76 66
106 74 74
104 74 69
103 72 69
106 74 68
108 76 73
104 73 70
103 72 74
105 73 67
95 68 69
100 70 66
98 69 72
101 72 67
99 69 71
104 73 70
99 69 69
104 72 68
107 75 68
98 69 69
101 71 70
97 68 61
105 74 69
103 72 68
92 65 66
108 76 67
107 76 68
109 76 67
97 69 60
105 74 64
100 71 62
100 70 60
103 72 62
92 66 56
95 70 64
103 89 90
108 103 111
116 119 132
118 124 139
122 136 154
127 145 166
132 152 173
131 148 171
131 150 172
131 149 172
128 147 169
130 149 172
127 146 165
129 147 170
130 148 172
128 147 169
128 146 169
127 145 166
129 148 170
131 150 172
126 144 167
129 148 170
131 149 173
127 146 167
128 145 165
129 148 169
128 146 167
129 147 168
125 144 164
128 147 167
128 148 169
130 150 170
128 149 170
126 145 164
129 148 170
129 149 170
126 145 166
131 148 171
125 144 165
127 145 165
124 144 163
126 144 166
130 150 172
127 147 168
126 145 166
124 142 160
127 148 167
127 147 168
127 146 166
126 144 164
125 146 165
127 147 169
128 149 169
125 146 163
128 149 169
129 149 169
131 151 174
125 145 164
127 145 166
127 146 166
127 145 167
126 146 165
125 145 165
127 146 166
125 145 163
130 150 169
126 147 167
127 148 167
124 144 163
127 149 166
126 146 164
124 146 162
126 147 168
128 147 169
126 146 165
124 145 163
128 149 167
124 144 163
123 145 163
127 147 168
125 145 162
128 147 166
128 149 170
126 145 164
125 147 165
129 149 168
118 139 153
120 144 157
120 139 158
123 144 160
121 141 160
128 149 168
123 143 159
117 138 151
122 143 160
123 144 160
121 143 159
121 143 158
127 148 165
120 142 157
125 147 164
120 143 157
125 146 162
121 142 157
117 139 154
120 141 154
120 142 155
118 142 152
121 143 158
115 137 149
110 130 141
119 140 155
112 134 145
114 137 147
119 140 153
113 135 145
117 141 149
112 135 146
117 138 153
111 136 142
107 128 139
116 137 148
114 134 148
108 129 140
113 135 145
105 125 136
109 132 138
105 129 134
103 126 148
90 112 135
83 111 145
64 91 131
65 92 139
45 77 137
44 79 143
42 77 141
40 74 137
40 73 136
42 77 143
41 77 142
43 80 147
41 76 140
41 77 141
44 81 150
42 78 145
42 79 145
41 76 140
42 79 147
42 78 145
42 77 142
39 74 137
45 83 154
43 79 147
42 78 145
43 79 147
42 78 146
41 77 142
43 80 148
41 77 142
45 83 152
43 79 147
44 82 150
44 82 151
44 82 151
43 80 147
45 83 151
43 80 147
45 83 153
43 80 147
43 79 146
43 80 147
45 83 152
45 82 151
44 81 149
43 79 146
42 79 146
44 81 148
42 78 145
42 77 143
45 82 149
43 80 147
43 80 147
41 75 138
42 78 144
44 80 148
46 84 155
43 79 145
44 81 148
44 80 146
42 78 145
45 81 150
45 81 149
43 78 143
43 78 143
43 78 143
42 76 140
42 78 145
43 78 142
41 76 140
45 82 150
44 80 146
43 78 142
44 81 148
42 76 139
43 78 143
42 76 138
45 80 145
43 77 141
42 77 141
44 78 142
44 80 146
42 76 139
45 81 149
44 80 147
43 78 142
44 78 143
43 77 140
44 77 141
41 75 138
43 78 141
43 77 140
43 77 139
41 75 136
41 73 134
44 78 140
42 75 136
43 75 137
42 75 137
43 77 139
43 78 142
42 76 139
43 77 140
47 79 143
53 77 137
54 83 142
63 80 127
77 89 135
90 95 137
110 107 134
121 119 147
138 126 144
157 143 155
144 131 141
166 152 161
182 164 169
186 170 174
190 173 177
194 178 181
197 181 185
203 187 191
204 188 192
200 186 191
202 187 191
204 189 193
202 189 194
202 189 195
203 190 195
200 189 195
200 188 195
199 188 195
199 188 195
198 188 195
195 186 195
198 187 195
196 186 195
197 187 195
195 186 195
195 186 195
194 186 195
192 185 195
193 185 195
193 185 195
192 185 195
192 185 195
190 184 195
191 184 195
190 184 195
189 183 195
189 184 195
189 184 195
189 183 195
188 183 195
188 183 195
188 183 195
187 183 195
187 183 195
187 182 195
187 182 195
186 182 195
186 182 195
186 182 195
186 182 195
186 182 195
186 182 195
186 182 195
186 182 195
186 182 195
185 182 195
186 182 195
185 182 195
186 182 195
185 182 195
186 182 195
186 182 195
186 182 195
186 182 195
186 182 195
186 182 195
187 182 195
186 182 195
186 182 195
186 182 195
187 182 195
186 182 195
187 183 195
188 183 195
188 183 195
189 183 195
189 183 195
189 183 195
188 183 195
189 183 195
190 184 195
190 184 195
191 184 195
191 185 195
192 185 195
192 185 195
192 185 195
192 185 195
193 185 195
194 186 195
195 186 195
194 186 195
195 186 195
196 187 195
197 187 195
197 187 195
198 188 195
198 187 195
199 188 195
200 189 195
201 189 195
201 189 195
203 189 194
202 188 194
201 187 192
200 186 190
199 184 190
198 182 186
193 178 181
188 173 177
192 177 178
178 163 163
174 158 157
166 152 151
167 150 148
153 139 138
154 137 137
140 132 135
140 134 140
139 134 140
123 127 137
127 131 142
123 132 145
122 135 153
125 137 152
122 139 157
126 142 162
123 138 157
127 142 161
127 144 163
123 140 159
128 145 164
121 137 154
125 141 159
127 143 165
121 137 155
121 137 155
115 130 147
124 139 156
122 137 156
125 141 159
126 142 162
122 137 156
122 137 155
122 137 155
127 142 162
121 135 152
121 137 155
126 143 162
120 134 153
125 142 159
120 136 155
125 141 160
123 139 159
123 138 156
120 136 154
120 134 149
128 143 161
126 142 160
121 137 153
124 139 157
119 133 150
124 139 156
122 137 156
124 138 157
123 138 154
120 134 151
124 140 158
123 139 158
120 134 151
122 137 155
124 139 158
121 136 155
123 138 158
126 142 161
124 140 158
124 140 157
122 137 154
125 142 161
122 137 152
122 137 155
120 134 149
124 140 160
121 135 154
125 141 160
121 137 153
121 136 154
125 140 158
121 138 155
124 139 156
119 134 151
121 135 155
127 142 161
119 135 151
123 137 155
120 136 153
122 137 155
128 143 163
120 135 153
123 138 152
121 138 157
123 139 156
122 137 154
124 140 159
124 140 156
124 139 154
118 134 152
122 138 155
121 137 152
120 135 152
124 140 157
122 137 154
121 136 154
115 129 146
121 138 153
122 137 156
120 136 154
120 136 153
121 138 157
122 138 155
121 136 152
118 133 148
116 130 147
120 136 153
117 134 151
117 132 148
119 136 150
119 134 150
117 133 149
124 140 157
116 130 145
118 135 149
116 132 145
118 136 151
118 133 151
118 132 146
118 134 147
117 133 147
121 138 153
119 134 146
112 129 142
112 126 137
118 135 148
115 130 143
118 135 151
112 126 138
121 134 148
114 130 140
116 132 148
114 131 144
118 134 149
110 127 137
122 139 156
111 126 139
112 128 135
117 134 147
113 130 142
116 131 143
114 130 140
116 132 146
109 125 137
119 136 149
113 129 142
109 126 135
113 130 144
115 130 141
114 132 142
117 134 148
110 128 134
114 131 142
109 126 135
112 128 136
116 133 145
115 130 143
117 133 148
112 129 139
111 128 137
110 126 138
111 128 137
109 126 133
113 128 140
108 125 134
113 129 141
110 126 135
108 125 131
105 121 128
113 128 136
113 129 142
101 118 125
110 126 135
102 119 126
107 124 131
102 119 122
112 128 137
103 120 124
102 118 125
109 126 134
105 122 128
101 119 124
102 122 121
104 120 128
103 120 126
102 119 126
98 115 116
94 112 115
94 112 113
90 107 106
98 115 117
90 108 103
100 118 119
95 110 111
102 121 122
96 116 114
94 111 111
97 116 114
97 113 115
80 98 93
90 104 104
85 103 101
84 101 99
92 111 108
94 112 110
82 97 95
85 101 100
82 98 95
83 101 95
74 93 80
80 98 94
84 103 96
82 100 96
78 95 90
76 91 86
71 89 76
78 96 89
67 84 72
76 92 86
62 77 68
78 94 90
77 95 89
73 87 86
75 90 88
74 88 88
66 82 73
67 82 76
67 84 73
60 75 67
65 81 70
60 73 64
68 84 76
63 77 70
61 76 67
64 78 71
60 71 67
48 63 48
64 80 73
59 71 65
69 85 76
55 69 60
70 84 80
65 80 70
50 65 52
65 79 74
61 78 69
71 86 81
63 78 71
65 80 70
63 80 72
66 82 71
67 80 74
75 92 86
83 101 96
79 94 93
77 91 87
76 89 87
82 96 99
76 93 87
75 92 86
83 98 99
71 87 81
82 98 96
94 112 110
82 98 93
87 104 104
80 95 95
91 108 109
80 95 91
98 115 117
87 106 100
82 99 97
95 111 114
92 111 109
96 113 117
97 114 117
95 111 114
101 119 123
91 110 106
95 114 114
98 116 122
100 117 123
95 113 116
101 118 125
104 123 127
109 127 135
103 120 129
104 123 131
102 119 128
105 122 128
102 121 124
110 128 136
102 122 121
106 122 132
111 128 140
104 121 129
112 127 140
113 130 142
110 128 134
112 128 140
115 132 143
114 132 142
107 123 131
105 123 132
110 126 136
114 132 144
110 127 138
112 129 141
116 133 145
112 129 139
115 131 144
112 129 140
115 134 147
114 132 142
119 134 148
113 129 143
114 129 141
113 130 142
111 126 142
112 129 143
114 133 144
115 134 148
115 133 147
117 135 147
114 129 145
118 134 149
114 130 144
114 130 145
119 136 152
123 140 158
118 136 152
116 132 146
111 127 138
119 133 149
115 131 146
119 135 151
114 131 144
123 139 157
115 130 147
118 134 151
113 131 143
118 134 150
120 134 150
117 133 149
119 136 154
118 133 151
118 134 152
120 135 154
119 135 151
122 137 155
121 135 152
116 132 149
111 128 144
110 124 142
91 105 121
91 106 119
82 97 111
81 96 110
66 80 95
57 72 84
36 53 64
17 39 49
10 38 48
5 36 47
5 37 48
5 36 47
5 36 47
5 37 49
5 38 49
5 37 48
5 36 47
5 37 49
5 37 49
5 38 49
5 36 47
5 38 49
5 38 49
5 37 49
5 36 47
5 37 48
5 37 49
5 38 49
5 37 49
5 37 48
5 37 48
5 37 48
5 38 49
5 37 48
5 37 48
5 37 48
5 37 49
5 38 49
5 38 49
5 37 49
5 37 49
5 37 49
5 37 49
5 38 50
5 37 49
5 37 49
5 36 47
5 37 49
5 38 49
5 37 49
5 38 49
5 37 49
5 38 50
5 38 49
5 38 50
5 38 50
5 38 50
5 38 50
5 37 48
5 38 50
5 38 51
5 37 49
5 38 50
5 37 48
5 37 49
5 37 49
5 37 49
5 38 50
5 36 48
5 38 50
5 37 48
5 38 49
5 37 50
5 37 49
5 38 49
5 36 48
5 37 49
5 38 50
5 37 49
5 37 49
5 37 49
5 38 50
5 38 49
5 36 48
5 36 48
5 37 49
5 36 48
5 36 47
5 35 47
5 36 47
5 36 48
5 37 49
5 36 48
5 37 48
5 36 47
5 35 47
5 35 47
5 37 49
5 35 47
5 36 48
5 36 48
5 36 47
5 35 47
5 34 46
5 34 46
5 34 46
5 32 44
5 33 44
5 34 46
5 35 47
5 34 46
5 33 45
5 33 45
5 33 45
59 35 62
63 36 65
67 35 65
86 42 81
96 48 88
109 67 104
132 67 118
125 76 118
142 71 126
145 70 128
163 80 143
157 78 139
163 73 137
166 69 139
168 66 138
173 68 143
174 57 138
181 51 141
180 51 141
179 46 139
177 46 137
179 46 138
181 46 139
182 47 143
182 47 141
182 47 142
179 47 141
180 47 141
183 48 143
180 47 139
182 47 143
183 47 141
181 47 141
183 47 142
181 47 141
179 46 139
182 47 142
185 48 143
181 47 141
182 47 142
185 48 143
182 47 141
182 47 142
178 46 141
179 47 140
183 47 142
184 48 143
184 48 143
182 47 141
185 48 143
182 47 142
180 47 141
186 48 144
182 47 142
181 47 141
184 48 143
183 48 142
181 47 141
183 47 142
181 47 142
184 48 144
182 47 143
182 47 142
180 47 139
184 48 143
178 47 140
181 47 141
183 47 142
183 48 143
183 48 143
185 48 144
181 47 142
180 47 141
182 47 142
183 47 141
180 47 140
181 47 141
183 47 142
183 48 143
182 48 142
181 47 142
182 47 142
182 47 142
181 47 141
177 46 139
177 46 137
171 45 136
174 46 137
169 45 135
167 45 134
155 42 127
153 42 125
157 43 129
149 42 126
141 40 122
138 40 120
134 40 121
124 39 117
127 39 119
125 40 122
116 38 116
113 37 111
105 35 108
100 35 106
104 36 109
106 36 109
99 34 105
112 38 116
109 37 113
106 36 109
102 35 106
105 36 110
109 37 114
101 35 107
106 37 111
104 35 107
104 36 110
104 36 109
101 35 107
103 35 105
102 35 107
104 35 107
98 34 103
110 37 112
111 38 115
102 35 105
99 34 103
103 35 107
106 37 110
106 37 111
104 35 109
105 36 108
104 35 107
105 37 111
101 49 111
111 82 130
111 92 133
120 109 146
117 118 147
122 133 159
120 135 163
123 137 165
126 141 166
122 136 162
121 135 166
124 139 164
120 133 161
124 138 164
124 139 164
127 144 171
126 141 168
122 136 161
124 141 167
127 144 168
121 136 163
127 142 167
128 145 171
127 143 168
123 138 165
123 137 163
125 142 167
121 134 159
124 139 166
128 144 169
125 141 165
128 145 172
127 143 169
129 146 170
125 141 167
127 142 167
121 135 163
128 144 172
122 137 164
124 141 170
122 137 163
123 138 164
128 146 171
123 138 164
125 141 167
126 141 169
126 141 168
121 136 161
128 144 170
123 139 165
121 136 161
126 142 168
122 136 161
125 141 166
123 138 163
127 144 169
131 148 172
126 141 167
123 138 164
130 146 170
126 141 168
125 141 168
124 140 165
124 139 165
127 143 171
128 144 170
129 146 173
129 145 170
129 145 172
128 145 170
123 138 165
127 142 169
131 147 173
126 141 169
123 138 166
125 142 168
127 142 167
128 143 168
125 141 167
127 142 170
124 140 166
129 147 172
129 145 171
127 143 171
123 138 165
129 146 172
128 144 168
127 141 168
127 144 169
131 149 175
129 146 172
126 143 167
126 141 168
127 143 168
127 143 170
127 143 168
