P3
1600 1
255
2 105 160
2 110 166
2 108 164
2 103 157
2 105 159
2 100 152
2 105 159
2 105 160
2 103 157
2 101 152
2 101 155
2 104 158
2 106 161
2 103 155
2 105 158
2 104 157
2 110 167
2 99 150
2 108 161
2 101 153
2 103 155
2 99 152
2 105 159
2 105 160
2 106 160
2 98 149
2 99 149
2 106 160
2 99 150
2 102 153
2 97 148
2 100 151
2 96 147
2 104 158
2 98 150
2 105 160
35 106 154
54 107 151
75 115 154
87 125 162
100 125 154
111 132 159
122 140 164
124 141 165
118 135 159
123 141 165
118 133 157
122 140 164
125 142 166
121 138 162
125 142 165
116 132 155
120 136 159
123 140 163
126 144 168
124 143 165
122 141 165
119 137 159
122 139 163
128 145 168
127 145 170
124 141 165
125 142 166
124 142 166
126 144 168
123 142 166
125 143 167
125 142 167
121 139 163
124 141 164
124 142 166
125 145 170
128 145 169
124 143 167
128 146 172
127 146 168
130 149 173
124 141 164
126 145 169
130 147 172
121 138 163
123 139 163
127 145 169
131 149 174
120 138 161
126 144 168
129 148 172
128 146 171
129 147 171
130 148 171
124 141 165
130 149 173
127 145 169
129 148 173
129 147 171
127 145 169
128 146 170
125 143 167
129 147 172
129 148 172
129 147 170
131 149 173
128 146 169
129 146 170
125 144 169
126 145 168
127 143 167
127 145 169
125 143 166
131 149 173
130 148 173
129 147 171
134 152 176
124 140 163
128 146 170
125 143 168
127 146 169
129 147 172
126 143 168
129 148 172
133 151 175
131 149 174
130 148 172
127 145 171
130 148 174
130 149 172
132 150 174
128 146 170
130 148 172
131 149 173
130 148 171
128 145 169
130 149 174
129 147 172
128 146 170
125 142 166
132 150 173
130 148 172
130 149 174
134 152 177
129 147 172
129 147 171
130 148 172
134 152 177
128 148 173
129 147 171
128 146 169
130 148 172
131 149 173
128 145 169
128 146 170
132 150 174
129 147 171
130 148 170
133 151 176
130 149 173
133 152 177
129 147 170
136 154 177
131 149 173
130 148 172
130 148 171
133 152 176
133 151 174
129 148 172
132 151 175
132 150 174
131 149 173
127 146 170
128 146 170
130 149 173
129 147 170
131 150 175
130 148 173
132 149 174
129 147 171
133 152 177
131 148 172
130 148 171
136 154 177
129 148 171
129 147 171
130 149 173
132 150 175
133 152 176
132 150 174
133 152 176
133 151 176
130 148 172
132 150 175
129 147 171
133 151 176
130 149 173
133 152 176
134 152 177
130 149 172
131 150 174
132 150 174
134 151 174
131 150 173
130 148 173
132 150 174
129 147 171
130 148 171
133 151 175
132 149 173
133 152 176
132 150 174
129 147 172
130 149 173
130 148 171
133 151 175
133 152 176
131 148 172
130 148 173
126 143 167
130 149 173
135 152 176
132 150 174
134 152 176
129 147 172
131 150 174
132 150 174
133 151 174
130 147 170
132 150 174
129 146 169
134 153 178
131 150 175
131 149 172
133 150 173
134 152 176
134 153 177
131 149 172
135 153 178
129 148 172
132 151 176
130 148 171
133 151 174
134 152 175
129 145 168
134 153 178
131 148 171
133 152 177
130 147 170
129 148 172
135 154 178
130 148 172
133 151 175
129 147 171
130 148 171
132 150 174
125 143 167
132 150 173
132 151 175
134 152 177
133 151 176
130 147 170
129 146 169
133 149 173
132 151 175
132 150 175
130 148 171
133 151 174
126 143 167
133 151 175
131 149 172
129 147 170
130 147 171
124 142 164
131 150 175
131 148 171
131 149 173
129 147 171
130 148 171
127 144 168
132 151 174
130 148 172
133 151 175
129 146 169
129 146 169
130 148 171
134 152 175
131 148 171
132 150 173
130 147 171
131 149 173
130 148 173
130 147 170
127 144 167
127 145 168
131 147 170
131 149 172
130 149 173
134 152 177
129 148 171
127 146 169
130 147 171
130 147 171
130 149 174
130 146 168
132 149 172
125 143 168
135 152 176
129 146 169
134 153 177
133 151 175
125 142 164
130 147 170
127 144 166
130 148 171
130 148 172
128 145 168
129 147 171
129 147 171
131 149 173
132 151 174
134 152 175
127 145 168
130 148 171
129 145 168
127 146 171
131 149 173
129 147 170
129 147 170
129 147 170
132 149 172
126 143 166
132 150 172
126 144 167
125 141 163
129 147 171
130 148 171
130 147 170
132 149 173
128 146 169
126 144 167
131 149 171
132 149 173
130 148 172
129 146 169
131 149 173
131 149 172
129 147 169
131 148 170
131 149 172
127 144 166
131 149 172
126 142 164
132 150 174
130 148 172
130 148 172
131 149 171
128 147 171
127 144 166
127 145 169
130 146 169
131 149 173
130 148 172
129 147 170
132 150 174
132 150 174
132 149 172
128 145 168
125 142 165
129 146 168
130 147 170
129 146 169
130 148 172
129 147 170
126 142 164
129 147 169
128 147 170
131 149 172
133 150 174
128 146 171
129 146 169
129 146 168
130 146 169
128 144 166
125 143 166
128 145 169
127 145 167
129 147 170
129 147 170
130 147 171
129 148 171
130 148 171
130 148 171
125 143 165
126 143 164
134 152 176
129 147 171
127 144 166
130 146 168
128 145 168
131 147 169
130 148 172
131 149 173
129 146 170
127 142 165
125 143 165
128 145 168
131 148 172
126 145 169
132 149 173
126 142 163
129 146 169
132 150 174
130 147 170
131 148 171
133 150 173
128 143 165
128 146 169
126 144 166
131 149 172
126 144 166
124 142 164
130 147 170
128 145 167
128 139 159
123 129 146
124 122 134
116 107 116
113 98 101
106 79 73
110 77 66
106 74 63
110 77 66
107 75 63
114 80 68
106 75 64
106 75 64
113 79 68
115 80 68
116 81 69
113 79 67
115 81 69
113 79 67
109 76 65
117 81 69
110 77 66
113 78 66
110 76 65
109 76 65
109 76 65
111 79 66
115 80 69
113 79 67
110 77 66
108 75 64
112 78 66
113 79 67
111 79 68
116 81 69
113 79 67
109 77 65
105 74 63
113 78 67
115 80 69
108 75 64
112 78 67
115 80 68
109 76 65
115 80 68
110 76 66
112 78 66
111 78 67
109 76 65
111 77 66
113 79 67
113 79 67
117 81 69
107 75 64
117 81 69
108 75 64
113 79 67
109 76 65
109 76 65
111 78 66
113 79 67
111 77 66
111 77 66
107 74 63
116 81 69
105 73 62
113 78 67
109 76 65
106 74 64
109 76 68
109 76 66
108 76 68
110 77 66
100 71 75
101 71 71
103 73 76
103 72 75
93 65 78
96 66 83
96 68 78
94 65 82
96 66 86
93 65 81
94 65 80
82 58 85
83 58 87
83 59 86
80 56 91
77 54 90
80 57 93
79 56 93
74 52 92
72 51 90
71 50 97
79 56 94
64 45 99
75 53 97
81 57 92
82 58 92
64 46 101
69 49 92
78 56 94
69 49 96
67 49 94
71 50 93
77 54 90
64 45 93
66 47 91
75 52 92
73 53 92
84 59 87
74 52 94
72 51 92
73 51 90
74 53 91
83 59 82
71 50 84
82 57 83
85 60 81
90 63 81
80 60 83
86 78 104
90 82 105
99 102 122
102 109 134
117 126 148
111 123 148
119 136 162
120 138 162
127 144 169
124 142 167
130 148 168
131 150 175
128 146 168
127 146 167
131 150 173
126 146 167
130 147 168
128 147 168
128 146 168
131 149 172
129 147 170
130 148 170
127 146 167
129 148 170
128 148 171
126 144 165
129 149 171
130 148 170
128 147 170
130 148 170
128 147 169
129 149 171
126 145 166
128 147 169
128 148 167
129 147 168
131 150 172
130 149 170
123 143 163
127 146 168
132 152 173
128 147 167
128 149 170
128 147 168
129 148 170
129 147 171
127 146 167
130 149 172
126 147 166
127 147 166
127 147 168
128 148 169
129 149 171
128 149 171
127 146 168
126 145 165
128 147 168
126 148 167
128 149 170
130 147 169
129 149 168
127 148 168
132 153 173
129 150 170
126 146 165
126 146 165
129 149 169
130 149 172
128 149 168
130 149 170
124 143 163
129 147 168
129 148 170
123 142 162
129 149 169
124 146 162
128 148 166
129 150 170
127 149 167
125 144 165
128 150 168
126 147 166
124 146 163
122 145 163
128 148 167
125 145 165
122 145 158
129 148 169
123 143 161
126 145 164
124 147 164
125 144 163
127 148 166
129 150 170
124 144 163
125 145 162
126 147 168
121 142 158
120 141 157
127 148 165
119 141 156
124 145 162
125 146 164
125 145 164
122 141 159
123 144 160
124 144 164
120 140 158
121 145 160
125 149 164
121 143 158
118 139 155
120 142 156
121 143 159
124 145 160
124 145 162
124 145 161
115 139 151
121 143 158
125 147 164
121 142 157
119 140 153
122 145 158
124 146 162
116 138 148
122 145 159
120 140 155
118 138 152
121 144 158
124 145 163
110 132 152
104 125 149
101 125 149
77 103 140
74 101 141
58 87 142
43 75 134
41 76 141
41 75 137
40 75 139
42 76 139
44 81 148
41 76 140
39 73 137
41 76 142
42 78 144
39 73 135
42 78 144
41 77 141
41 77 142
41 77 142
42 77 142
42 78 144
42 78 145
39 72 133
43 80 146
44 82 149
43 80 147
42 79 145
43 80 146
44 81 149
43 79 146
39 73 135
43 80 147
43 79 145
40 75 138
42 77 143
42 77 142
42 77 143
42 78 145
39 73 136
43 79 146
43 79 146
42 77 140
45 83 152
41 76 140
41 76 141
44 81 149
42 77 143
43 78 143
42 77 143
44 80 146
42 78 144
42 78 144
41 76 139
43 78 142
43 79 145
44 80 147
42 76 139
43 79 145
44 82 150
43 79 145
42 77 142
42 76 139
43 78 144
41 74 135
41 77 142
42 77 141
42 77 141
41 76 141
45 81 148
41 75 138
41 75 138
44 79 144
42 76 138
41 74 134
41 75 138
42 75 135
39 71 131
42 76 138
42 76 140
41 75 139
42 76 138
42 76 139
42 76 138
39 71 130
42 76 139
41 73 135
43 78 141
43 77 141
41 73 132
40 72 133
43 76 138
42 74 135
41 75 136
41 74 137
38 69 126
44 79 143
40 73 131
42 76 139
43 76 138
41 74 134
42 74 134
46 74 130
57 79 135
74 84 132
81 91 138
106 105 138
119 110 132
120 113 134
127 115 136
152 140 154
161 147 155
163 146 152
169 153 160
175 157 162
181 162 164
182 163 165
195 177 180
197 180 183
202 185 188
200 183 187
200 184 188
200 186 191
204 189 193
202 188 193
202 188 194
203 190 195
203 190 195
203 190 195
201 189 195
201 189 195
201 189 195
199 188 195
199 188 195
198 187 195
199 188 195
197 187 195
197 187 195
197 187 195
196 187 195
194 186 195
195 186 195
194 186 195
194 186 195
192 185 195
193 185 195
193 185 195
192 185 195
190 184 195
192 185 195
192 185 195
192 185 195
191 184 195
191 184 195
190 184 195
190 184 195
190 184 195
190 184 195
190 184 195
190 184 195
189 183 195
189 183 195
189 183 195
188 183 195
189 184 195
189 183 195
188 183 195
189 183 195
188 183 195
188 183 195
188 183 195
189 183 195
188 183 195
188 183 195
188 183 195
188 183 195
188 183 195
188 183 195
188 183 195
189 183 195
190 184 195
190 184 195
189 183 195
189 184 195
190 184 195
190 184 195
191 184 195
190 184 195
191 184 195
192 185 195
192 185 195
192 185 195
192 185 195
191 184 195
193 185 195
192 185 195
193 185 195
193 185 195
194 186 195
193 185 195
194 186 195
195 186 195
196 187 195
198 187 195
197 187 195
197 187 195
197 187 195
197 187 195
199 188 195
199 188 195
200 189 195
201 189 195
202 189 195
202 189 195
203 190 195
202 189 195
203 189 195
205 191 195
205 190 195
205 190 194
200 185 190
201 184 188
206 189 192
190 173 179
192 174 179
190 174 176
178 163 165
176 162 164
173 157 156
149 134 137
156 138 139
149 135 136
148 136 138
137 132 137
127 126 129
129 130 140
131 125 135
127 134 148
129 138 154
123 137 156
126 143 162
124 140 159
118 133 152
127 143 161
127 142 162
124 140 160
125 142 161
125 139 156
121 137 152
125 142 163
122 138 156
129 145 166
125 142 159
126 143 164
126 142 162
124 140 158
129 145 164
128 143 162
124 139 159
122 140 157
119 134 151
123 140 156
124 140 159
123 139 159
126 144 163
123 139 159
124 140 158
123 138 155
125 142 162
123 139 158
122 136 154
126 143 162
119 133 152
124 142 159
125 141 160
125 140 159
127 142 162
124 140 157
124 138 157
125 139 156
125 140 159
126 144 164
129 145 165
121 137 154
128 144 164
119 133 153
123 139 155
122 139 157
124 138 156
122 139 155
124 139 157
126 142 161
119 136 152
125 141 159
122 138 155
126 142 158
126 142 162
124 139 159
123 140 160
125 141 159
126 142 159
120 136 152
125 142 160
125 142 160
120 136 154
120 134 152
122 137 154
121 136 153
125 140 157
121 138 155
126 141 160
119 134 151
126 142 160
126 142 162
120 137 154
121 135 152
124 140 158
123 141 158
121 135 153
122 138 154
121 137 155
126 140 159
126 143 162
121 136 156
119 135 150
125 140 160
121 138 155
121 137 153
128 145 163
123 139 157
124 141 159
118 133 151
124 140 158
123 139 158
122 137 151
127 142 158
120 136 152
124 139 157
118 134 149
123 138 155
123 140 158
117 134 151
124 142 161
122 139 155
123 141 157
125 141 158
122 137 154
116 132 149
119 135 152
120 136 154
116 132 145
120 137 151
122 138 156
119 136 153
123 139 155
120 135 151
122 138 157
118 134 149
118 135 152
119 136 151
116 134 147
116 131 145
123 139 157
120 137 150
123 139 157
121 135 149
117 134 148
112 128 137
117 135 148
119 135 150
120 136 150
118 134 150
118 132 147
118 134 146
117 134 150
115 132 144
114 132 144
114 131 141
118 135 151
117 134 147
111 127 138
118 135 147
116 132 145
117 134 146
122 138 152
116 132 146
116 135 149
113 130 142
115 133 142
116 134 145
108 125 135
110 127 139
118 133 147
115 132 145
113 130 140
120 136 150
113 128 138
115 133 145
110 129 136
121 139 152
116 133 147
115 131 145
114 133 139
114 132 143
113 129 141
115 133 143
116 134 144
115 132 146
118 135 146
111 127 136
109 126 133
110 126 136
113 131 140
112 130 141
109 127 136
118 136 148
105 123 132
106 125 129
110 128 136
107 125 131
109 128 136
110 129 136
112 131 137
109 127 134
100 118 122
111 129 135
115 132 143
108 125 132
104 122 126
111 128 136
103 121 125
103 122 126
104 122 126
102 122 124
106 123 132
93 114 107
100 119 122
103 122 126
96 115 114
104 124 126
95 114 113
97 116 117
103 121 126
96 113 115
94 113 112
98 119 117
102 120 122
91 110 110
96 114 117
101 120 123
104 122 128
96 116 116
94 111 116
98 117 120
96 113 120
99 118 121
103 123 124
93 112 112
94 112 110
92 112 106
84 104 97
98 116 119
93 111 112
90 109 106
90 107 106
85 105 99
97 116 113
93 111 112
92 110 110
92 110 107
96 114 117
94 113 110
80 98 91
97 116 116
86 105 101
94 112 116
96 114 116
87 105 100
95 112 113
87 106 101
100 116 122
95 111 112
95 114 115
102 119 124
91 110 109
91 110 108
98 117 121
96 116 117
90 110 107
97 115 117
97 116 119
94 113 113
111 130 136
99 118 120
97 115 117
97 115 117
110 127 138
103 120 128
103 122 127
93 112 114
103 121 128
108 127 134
99 116 120
101 119 124
104 124 129
105 124 129
109 126 137
110 128 138
98 117 118
107 127 135
104 123 132
107 125 132
109 127 137
106 125 133
109 127 137
112 128 141
111 128 138
109 128 137
104 124 130
116 135 142
116 135 146
111 128 137
112 130 139
112 130 140
118 136 149
111 128 141
107 124 132
111 127 140
120 137 152
113 131 143
117 136 145
115 130 144
115 133 147
116 133 149
110 130 135
114 132 143
118 134 149
116 132 144
111 129 140
120 136 152
122 139 155
117 134 147
120 136 153
117 134 147
116 136 149
119 137 150
119 137 153
122 139 156
117 135 149
113 130 145
120 139 155
120 136 152
120 137 150
124 140 156
120 137 154
116 135 150
118 135 150
118 136 151
119 137 154
116 133 149
114 131 143
119 136 153
120 136 153
117 134 151
123 142 158
122 140 155
119 137 151
122 139 155
124 140 158
119 136 154
118 134 151
124 141 161
117 133 150
122 137 155
124 142 159
120 136 152
124 142 159
120 138 154
122 137 156
118 135 152
106 122 140
107 123 140
96 110 125
85 101 113
73 89 103
63 76 88
62 77 90
46 63 74
24 45 56
11 38 46
5 35 46
5 36 48
5 36 47
5 36 47
5 36 47
5 35 46
5 37 48
5 36 47
5 37 48
5 37 47
5 37 48
5 37 48
5 37 48
5 37 49
5 36 47
5 37 49
5 37 48
5 38 49
5 37 48
5 37 48
5 35 46
5 37 48
5 37 48
5 37 49
5 36 47
5 36 47
5 37 48
5 37 48
5 36 47
5 38 50
5 37 48
5 37 48
5 37 48
5 38 49
5 37 48
5 36 47
5 38 49
5 37 48
5 38 49
5 37 49
5 38 49
5 38 49
5 38 50
5 36 47
5 37 48
5 38 49
5 37 48
5 37 48
5 39 50
5 36 48
5 37 49
5 36 48
5 39 50
5 38 50
5 36 47
5 38 49
5 37 49
5 37 48
5 38 49
5 37 48
5 37 49
5 37 49
5 37 48
5 37 49
5 36 47
5 37 48
5 36 48
5 38 50
5 38 50
5 37 48
5 37 49
5 37 49
5 36 48
5 36 48
5 37 48
5 35 47
5 37 49
5 37 49
5 37 49
5 38 50
5 36 48
5 35 47
5 36 48
5 35 47
5 36 48
5 37 49
5 35 46
5 35 47
5 36 48
5 34 46
5 34 46
5 33 45
5 34 46
5 35 47
5 35 47
5 33 45
5 32 44
5 34 46
5 32 44
5 32 44
5 33 45
5 30 42
42 31 52
44 32 54
65 35 66
93 33 79
96 34 83
85 37 78
111 37 92
110 36 90
126 39 103
132 40 108
154 43 121
146 41 115
153 42 121
167 45 129
173 45 133
174 48 135
173 45 134
172 44 133
180 46 139
173 45 134
179 46 139
177 46 137
177 46 137
176 46 136
178 46 138
181 47 140
176 46 138
177 46 138
182 47 141
178 46 139
181 47 141
185 48 142
180 47 141
179 46 138
182 47 142
182 47 140
180 46 139
183 47 142
183 47 141
182 47 141
176 46 137
181 47 141
183 47 141
181 47 142
177 46 137
179 46 139
181 47 142
184 47 142
182 47 142
181 47 141
175 45 135
182 47 139
181 47 140
178 46 139
180 47 140
176 46 138
180 47 140
184 48 143
177 46 139
181 47 141
180 47 140
179 47 139
179 47 139
182 47 142
180 47 139
182 47 142
181 47 141
181 47 141
178 46 139
183 48 143
182 47 140
183 48 142
183 48 142
180 47 142
179 47 139
181 47 141
183 47 142
179 47 140
179 47 140
180 47 141
180 47 141
181 47 141
180 47 141
181 47 141
182 47 141
181 47 142
179 47 140
183 47 142
178 47 139
182 47 140
181 47 140
182 47 142
183 48 143
179 47 139
184 47 141
179 47 139
183 48 142
180 47 139
174 45 135
168 45 135
175 46 138
168 45 135
165 45 134
158 43 128
155 43 129
154 43 128
143 41 122
136 38 115
132 38 117
132 39 118
121 37 112
112 37 111
110 36 110
111 36 110
104 36 109
98 33 102
106 36 110
102 35 107
104 36 111
102 35 107
100 34 102
94 33 100
96 33 100
100 35 106
102 35 106
93 33 99
99 34 103
103 36 109
105 36 111
102 36 108
104 36 110
104 35 107
105 36 110
104 35 108
102 35 107
98 33 102
99 37 104
105 64 119
103 72 116
113 101 135
115 106 140
116 110 143
127 139 166
129 143 168
125 142 167
133 149 174
128 144 169
126 142 167
125 140 163
125 141 166
126 142 168
124 140 166
123 139 163
121 137 162
121 134 163
128 144 170
126 141 168
129 147 173
124 137 163
127 143 168
130 146 172
128 144 168
123 137 163
125 141 164
126 141 166
126 140 163
126 141 164
129 146 170
124 139 163
125 139 165
123 139 164
127 143 168
124 141 166
123 138 163
128 144 167
130 148 173
131 148 173
127 144 168
125 141 165
127 144 170
124 139 164
124 140 166
128 144 170
125 141 165
123 138 165
125 140 168
127 142 169
123 137 162
129 146 171
125 140 168
125 141 166
124 139 163
127 142 166
126 142 168
127 143 167
123 138 165
123 137 164
125 141 165
130 148 173
128 144 169
128 144 169
125 141 164
127 142 168
133 150 175
127 143 166
129 145 169
126 141 168
130 146 171
131 148 171
127 143 168
129 147 172
128 144 170
130 147 173
128 145 171
128 142 168
126 142 169
129 146 172
127 142 169
124 139 164
128 145 168
128 145 170
131 149 174
129 146 171
125 140 167
130 148 172
129 145 170
128 143 168
128 144 173
129 146 171
131 147 174
131 149 173
129 146 168
128 144 171
128 145 173
130 147 173
134 152 177
