P3
1600 1
255
2 106 161
2 109 164
2 109 165
2 105 160
2 106 160
2 105 158
2 105 158
2 102 155
2 104 158
2 99 150
2 99 152
2 108 162
2 105 159
2 105 158
2 102 154
2 100 152
2 110 167
2 99 151
2 108 163
2 100 153
2 104 158
2 97 147
2 107 161
2 102 156
2 104 157
2 98 150
2 102 154
2 106 160
2 100 151
2 99 150
2 97 146
2 94 143
2 99 150
2 103 155
2 101 154
13 102 155
39 108 159
54 109 155
71 111 150
89 123 158
105 127 154
119 137 161
118 137 161
122 139 163
123 141 165
120 137 162
118 135 159
120 137 161
121 137 160
121 138 162
117 133 156
122 139 162
117 135 158
124 141 165
124 141 164
124 143 166
123 141 165
123 141 163
123 141 165
128 146 170
123 140 165
122 140 164
127 143 167
122 140 164
126 144 168
123 141 167
127 144 167
124 142 167
125 143 167
123 141 164
123 142 166
128 147 171
127 146 170
126 143 167
127 145 170
128 147 169
130 148 173
125 142 165
127 147 172
129 146 169
121 139 164
123 139 162
128 145 169
129 148 173
121 139 162
124 142 166
128 147 172
126 145 169
128 146 170
129 147 172
122 139 163
130 149 172
126 145 169
128 147 171
126 145 169
129 146 171
126 144 169
125 143 167
129 146 170
126 146 171
131 148 171
129 147 170
128 145 169
131 149 173
125 144 169
128 146 170
127 144 168
126 144 166
126 145 169
131 150 175
131 149 174
128 146 169
134 152 176
125 143 167
127 144 168
126 144 169
128 147 170
129 148 173
124 142 166
126 146 170
132 150 175
132 150 174
130 148 172
127 145 170
129 148 173
131 149 172
131 149 173
129 147 171
131 150 174
131 149 173
129 147 170
129 146 171
129 148 173
128 146 169
130 148 173
127 145 168
132 150 173
130 149 173
132 151 176
131 150 175
130 147 171
128 146 170
133 151 175
131 150 174
126 145 169
128 146 169
128 146 169
131 149 173
131 149 172
127 145 170
130 149 173
131 150 174
130 147 171
134 151 175
130 148 172
132 151 175
131 149 173
132 150 173
133 150 173
131 148 172
131 150 175
131 149 173
134 153 177
132 148 171
130 149 174
132 150 174
132 150 175
132 149 173
128 146 170
129 146 171
129 147 171
131 150 174
133 152 177
130 148 172
131 150 174
130 147 171
133 152 177
131 149 173
132 150 173
133 151 174
132 150 173
129 147 171
131 150 174
129 147 171
134 153 177
133 152 175
133 151 174
133 151 176
131 149 174
132 150 174
132 150 174
130 150 175
132 150 173
134 153 177
131 149 172
132 150 174
131 150 175
133 150 173
133 150 172
131 151 175
132 149 173
132 151 175
126 145 169
130 148 172
132 149 173
134 152 176
132 150 175
132 150 174
129 148 172
132 150 174
130 147 170
132 150 173
132 150 174
132 150 174
128 146 171
129 147 170
132 151 176
135 152 176
131 150 174
133 152 176
130 149 172
131 151 175
133 150 174
132 150 174
132 150 173
130 147 171
130 149 172
133 152 178
131 149 173
132 150 173
133 152 174
134 152 176
133 152 175
132 150 174
133 150 174
131 150 175
131 149 174
129 147 171
137 155 178
130 148 171
132 149 173
131 149 173
132 150 174
131 150 175
131 148 171
131 150 175
134 152 177
131 148 171
132 150 174
132 151 175
130 148 171
129 147 171
128 145 169
132 149 173
132 151 177
133 151 175
135 153 178
130 147 169
131 149 172
133 151 175
132 150 174
130 148 172
130 147 170
130 147 170
131 149 174
132 150 173
132 150 174
131 149 174
131 148 171
126 143 167
133 151 175
130 147 170
130 148 172
129 147 171
128 146 169
128 146 169
132 151 175
131 149 173
131 150 174
129 146 169
130 147 171
132 149 172
131 149 173
131 149 171
132 149 173
130 148 171
132 150 174
129 148 172
129 146 169
128 145 168
127 145 168
132 148 170
130 149 173
132 150 174
133 152 177
128 146 169
129 146 170
129 148 172
130 149 173
130 148 172
131 148 171
133 150 174
126 144 168
133 150 174
130 148 170
134 153 177
133 151 175
127 143 165
127 145 167
127 144 166
128 145 169
131 149 173
128 145 168
130 148 172
129 147 172
131 150 173
131 150 174
134 151 175
129 147 170
131 149 172
132 148 171
127 144 168
130 149 173
130 148 172
130 147 170
129 146 169
131 149 172
131 149 172
131 147 169
125 143 166
126 141 164
128 146 170
129 147 170
130 147 170
132 149 172
128 146 169
128 146 169
129 148 169
133 151 174
131 149 173
130 146 169
131 149 173
131 149 172
129 146 169
132 150 173
132 149 173
131 148 171
132 149 172
128 144 165
131 149 173
130 147 170
130 149 173
131 149 172
129 148 172
129 146 169
125 142 164
127 144 168
131 149 173
132 150 174
131 149 172
133 150 174
132 150 174
132 148 170
128 146 169
129 145 168
127 144 167
130 147 171
131 149 172
128 146 170
128 146 169
125 141 163
127 144 165
128 146 169
132 150 173
133 151 175
126 144 168
129 147 170
130 148 171
130 147 169
129 145 167
128 146 169
124 141 164
128 145 168
130 148 171
128 145 168
130 148 172
129 147 170
131 150 173
130 148 171
127 145 168
126 142 164
130 148 171
132 151 174
128 146 168
127 143 164
128 145 167
133 149 172
128 146 169
132 150 175
128 145 169
128 144 167
125 143 166
127 144 167
129 145 168
126 144 167
134 152 176
126 143 166
131 148 170
133 151 174
130 147 171
131 148 170
131 147 169
132 149 172
125 141 163
128 146 168
130 148 171
128 146 170
126 144 166
128 145 167
131 147 169
130 144 166
128 136 154
122 127 143
120 114 125
114 100 106
106 89 91
112 81 72
106 74 64
108 76 65
111 77 66
109 77 65
107 75 64
109 76 66
108 76 65
114 79 67
106 74 63
114 79 67
109 77 65
108 76 65
110 77 66
118 82 70
109 77 66
110 77 65
111 77 66
107 75 64
110 77 66
109 77 65
116 81 69
115 81 68
116 81 69
106 74 63
113 79 67
115 80 68
114 80 68
115 80 68
112 78 67
107 75 63
105 73 63
111 77 66
110 77 66
106 74 63
108 75 65
113 78 67
106 75 64
116 80 68
104 73 63
113 78 67
113 80 68
106 74 63
111 77 65
114 79 67
112 78 66
111 77 66
113 78 66
113 79 67
111 77 65
111 79 66
111 77 66
112 78 66
112 77 66
117 81 69
108 75 64
114 79 67
109 75 64
113 79 67
111 77 66
107 74 63
112 78 66
100 70 65
101 71 71
100 70 69
104 74 69
102 71 74
96 68 75
103 72 77
95 67 80
90 63 85
92 64 80
83 58 84
89 63 88
89 62 87
88 61 90
86 61 93
83 58 86
70 49 98
82 58 91
78 56 90
73 51 96
71 50 98
74 52 95
73 52 98
73 52 98
65 46 98
61 43 100
72 51 99
60 42 102
59 41 98
66 46 99
75 53 96
57 40 103
63 45 97
69 49 99
64 45 103
54 38 102
59 43 102
60 42 101
64 45 98
60 41 98
70 49 94
66 46 97
74 53 97
78 55 91
67 47 95
69 49 95
66 47 97
73 51 94
69 50 91
81 57 90
64 45 90
77 55 82
83 63 94
80 69 105
84 82 113
97 99 127
103 111 139
112 123 150
109 122 151
121 138 164
113 128 156
117 133 161
120 138 163
124 140 164
129 147 171
127 145 169
131 150 171
130 148 171
127 146 168
127 146 168
132 150 173
126 145 165
129 148 168
128 146 169
129 147 169
132 150 174
128 146 168
128 146 167
128 147 168
130 149 173
125 144 165
127 147 169
131 149 171
127 145 167
130 149 171
130 149 171
130 149 171
130 151 173
127 145 168
129 147 167
128 148 169
127 146 166
130 149 170
125 144 164
128 147 168
131 151 172
128 147 168
130 151 173
128 149 169
128 146 167
130 149 172
125 145 168
132 151 173
128 148 168
129 149 169
126 147 166
126 146 168
128 150 170
130 149 172
131 149 171
126 145 165
129 148 169
128 149 169
124 143 166
129 146 168
129 149 167
130 151 171
131 152 173
128 148 168
127 148 167
126 146 165
128 148 166
132 150 174
130 151 171
131 151 172
122 141 161
129 148 169
128 148 168
125 143 164
124 144 163
125 147 164
127 146 166
129 150 170
128 150 168
123 143 164
126 148 166
124 144 163
125 146 164
124 146 165
125 146 164
124 143 164
124 147 160
127 147 167
126 146 164
122 143 163
126 147 165
123 143 161
127 146 166
130 150 170
127 147 167
123 143 162
129 152 170
121 142 157
122 141 159
127 148 166
118 139 155
121 142 160
126 145 165
125 144 164
126 144 164
120 142 155
123 145 164
124 145 161
122 145 160
125 147 165
120 142 157
117 140 154
122 145 158
125 146 163
124 144 161
124 145 161
121 141 158
120 142 156
122 145 159
120 140 157
117 138 151
122 143 158
118 139 155
122 144 161
118 140 153
121 145 158
116 139 151
121 142 156
118 140 157
111 133 154
103 127 150
88 110 145
79 103 140
64 92 144
53 82 135
41 75 137
43 79 144
42 78 144
42 79 145
41 77 142
42 77 141
42 77 142
40 75 138
41 76 142
41 76 141
42 79 145
40 73 136
42 79 145
42 78 144
40 75 138
42 77 142
41 76 142
42 78 144
41 77 141
42 77 142
43 80 147
44 82 149
42 79 145
42 79 146
43 80 146
43 80 148
43 80 148
43 79 145
40 74 137
43 79 145
40 74 137
42 77 142
41 76 140
40 75 138
42 79 146
41 76 142
42 78 145
45 82 151
42 78 142
45 83 151
42 78 144
41 76 139
43 79 145
41 76 140
42 78 143
41 76 143
43 79 145
43 79 145
42 78 141
40 74 136
44 79 145
43 79 146
43 78 143
41 75 138
43 78 144
42 78 145
44 80 146
42 77 142
42 76 139
43 79 145
41 75 137
44 79 145
42 77 140
42 77 142
41 75 138
43 77 141
41 74 137
42 76 139
43 78 142
41 74 135
43 78 141
41 76 139
41 73 132
41 75 139
41 75 137
42 74 135
41 75 138
43 77 139
42 75 137
44 79 143
39 70 130
41 72 130
40 73 133
41 73 133
41 73 134
41 73 134
42 76 137
42 76 139
42 74 134
41 73 132
42 75 137
41 74 134
43 77 139
42 75 136
43 76 138
46 74 135
55 76 136
74 87 133
65 80 128
73 81 123
106 100 130
126 120 145
122 116 138
141 131 145
150 135 143
164 149 156
175 158 163
170 154 160
170 156 162
190 172 174
188 172 174
192 174 177
190 172 178
193 176 180
199 183 186
202 186 190
205 188 193
204 190 194
202 188 193
204 189 194
203 190 195
204 190 195
202 189 195
202 189 195
201 189 195
201 189 195
200 188 195
199 188 195
200 188 195
198 187 195
198 187 195
197 187 195
197 187 195
196 187 195
196 186 195
196 187 195
195 186 195
194 186 195
194 186 195
193 185 195
194 185 195
192 185 195
192 185 195
192 185 195
191 184 195
191 184 195
192 185 195
192 185 195
191 184 195
191 184 195
190 184 195
190 184 195
190 184 195
190 184 195
190 184 195
190 184 195
189 184 195
190 184 195
189 184 195
188 183 195
189 183 195
189 183 195
189 183 195
189 183 195
189 183 195
189 183 195
189 183 195
189 183 195
189 183 195
189 183 195
188 183 195
189 183 195
189 184 195
189 183 195
189 184 195
189 184 195
190 184 195
191 184 195
190 184 195
191 184 195
191 184 195
191 184 195
192 185 195
192 185 195
191 184 195
192 185 195
193 185 195
193 185 195
194 186 195
193 185 195
193 185 195
194 185 195
194 186 195
194 186 195
194 186 195
196 186 195
195 186 195
196 187 195
197 187 195
199 188 195
199 188 195
200 188 195
199 188 195
199 188 195
200 188 195
201 189 195
201 189 195
203 190 195
203 190 195
204 190 195
203 189 194
204 190 195
201 187 192
203 188 192
206 190 193
202 186 190
200 183 188
193 177 181
193 179 181
188 173 177
190 173 177
176 163 160
168 154 154
175 160 161
159 141 144
155 140 141
150 141 140
138 133 136
136 131 136
127 122 127
123 126 135
124 128 142
125 133 147
127 139 157
125 142 161
126 142 163
126 142 162
124 140 159
123 139 159
122 137 155
126 142 161
127 142 162
126 142 162
125 142 162
124 139 157
122 137 152
126 143 163
123 137 157
129 144 162
128 146 166
126 143 163
126 143 164
123 140 158
128 145 164
127 142 163
127 142 162
124 140 159
121 136 153
121 138 154
122 137 157
123 139 158
126 144 164
122 136 154
126 142 162
120 135 152
127 144 165
123 139 158
123 138 156
126 142 163
121 135 154
126 143 161
121 137 155
128 144 163
126 140 160
124 140 159
126 141 160
122 137 151
127 142 161
124 142 161
129 145 165
122 139 156
124 139 157
117 132 151
124 140 158
122 140 157
121 134 152
122 138 155
125 140 159
124 140 158
123 139 157
124 140 159
125 142 163
125 140 157
128 144 165
124 138 158
122 140 159
126 143 163
126 142 159
119 135 151
123 140 157
123 140 158
121 135 152
120 135 153
123 138 157
123 139 156
124 140 156
122 138 154
127 142 162
123 138 155
127 144 162
124 140 159
116 132 148
121 136 154
124 141 157
124 141 158
119 134 148
123 138 156
121 137 155
123 138 158
125 142 160
121 138 157
120 136 153
120 136 152
126 143 162
123 140 156
125 142 161
125 141 159
125 141 159
120 137 153
124 140 159
123 139 155
120 135 150
124 140 157
126 142 160
119 136 152
121 136 154
120 136 151
121 138 156
121 138 157
117 134 149
127 145 165
123 140 158
122 139 155
120 137 154
119 135 149
118 134 153
119 134 151
121 137 154
116 131 142
127 144 163
117 131 150
121 138 156
126 141 160
118 134 151
119 135 150
118 134 151
118 136 150
121 138 156
116 134 143
118 132 146
121 138 155
120 137 149
124 140 160
118 134 150
118 135 151
116 134 146
120 137 155
119 135 149
116 133 148
119 134 150
120 137 152
119 135 148
113 132 144
118 136 150
119 136 149
111 127 136
122 140 155
108 124 131
113 129 137
119 137 152
113 131 142
122 139 152
115 132 142
119 137 150
112 130 142
120 136 151
118 135 146
112 130 141
110 126 135
114 132 144
113 129 142
111 128 140
113 130 140
116 133 143
113 132 142
113 130 142
115 134 144
119 137 150
116 133 146
118 134 147
114 130 141
116 132 146
112 128 138
113 132 141
119 136 150
117 135 148
117 133 145
110 127 134
116 134 144
105 123 128
110 127 136
111 131 139
119 135 149
116 134 146
106 124 132
108 127 130
105 126 126
113 130 141
109 127 135
113 131 141
111 129 134
107 125 130
110 128 137
113 132 138
112 131 137
112 131 139
106 124 126
103 121 125
99 118 121
103 123 127
101 118 125
110 129 136
105 124 130
101 121 123
95 113 111
109 128 136
98 117 119
101 119 122
98 118 116
90 109 107
103 123 126
95 114 116
93 113 111
100 120 122
104 123 124
98 116 117
98 116 119
102 120 122
104 122 126
104 122 127
98 118 119
99 117 122
91 109 108
94 112 115
97 117 116
96 113 114
101 120 125
96 115 113
101 120 121
95 115 113
98 116 118
103 121 127
99 116 118
93 112 111
87 106 102
105 126 129
102 118 125
95 114 113
91 110 107
100 118 122
100 120 120
96 115 114
98 117 117
96 114 116
100 119 122
101 121 124
99 117 122
99 117 120
99 117 119
109 127 133
94 112 112
96 117 114
108 129 134
99 119 121
104 124 127
99 117 122
105 124 130
97 116 118
106 124 129
105 125 131
93 112 114
114 131 142
107 123 133
103 122 128
105 124 129
108 128 133
111 130 138
107 125 133
101 121 128
109 127 137
105 124 131
105 124 131
106 125 131
111 131 138
108 128 136
111 128 137
104 123 127
107 127 136
102 120 127
106 125 133
119 135 151
108 127 136
108 126 135
107 127 134
116 134 148
110 130 138
106 125 134
111 129 140
114 133 142
118 135 152
111 130 140
114 131 145
105 123 130
113 133 140
114 132 144
117 135 149
114 132 145
116 133 145
116 134 146
114 130 145
119 137 153
117 134 147
113 129 141
117 134 147
122 140 155
120 138 152
118 136 150
114 129 143
120 138 152
113 131 146
120 137 153
116 134 146
122 139 157
120 137 150
112 131 138
122 138 156
122 139 156
117 134 148
118 136 152
121 136 154
119 138 154
117 134 148
123 141 158
123 140 160
121 139 156
127 145 162
115 133 149
120 135 155
124 142 158
121 138 155
125 142 160
120 137 152
121 138 157
114 131 145
117 135 152
125 142 161
122 138 156
116 132 147
120 138 153
119 134 152
117 133 150
121 136 153
121 138 155
110 127 142
107 123 136
104 119 137
90 106 123
74 88 99
65 81 92
63 79 92
45 61 73
20 42 53
14 40 51
5 36 47
5 36 47
5 37 48
5 36 47
5 36 48
5 36 46
5 36 47
5 36 46
5 36 47
5 37 48
5 36 47
5 37 48
5 36 47
5 37 49
5 36 47
5 37 49
5 36 47
5 36 47
5 38 49
5 36 47
5 37 48
5 36 48
5 36 46
5 37 48
5 36 47
5 38 49
5 37 48
5 37 49
5 37 49
5 37 48
5 37 49
5 37 48
5 37 49
5 37 48
5 37 49
5 36 47
5 36 48
5 36 48
5 36 48
5 36 47
5 37 49
5 36 47
5 36 47
5 36 47
5 37 49
5 37 48
5 37 49
5 36 47
5 37 48
5 36 47
5 38 50
5 37 48
5 38 49
5 37 48
5 37 49
5 38 49
5 37 49
5 37 48
5 37 48
5 38 50
5 35 46
5 38 49
5 37 49
5 37 48
5 37 48
5 36 48
5 36 48
5 37 49
5 36 48
5 37 48
5 36 48
5 35 47
5 38 49
5 37 48
5 37 49
5 36 48
5 36 47
5 36 47
5 37 49
5 35 47
5 36 47
5 35 47
5 36 48
5 37 48
5 36 48
5 36 48
5 34 46
5 36 48
5 36 48
5 34 46
5 35 47
5 35 47
5 33 46
5 35 47
5 34 45
5 34 46
5 33 45
5 33 46
5 32 44
5 32 44
5 32 45
19 32 47
37 29 48
59 33 61
56 33 59
69 32 66
85 34 75
102 35 86
97 36 84
115 37 95
131 39 106
146 41 114
149 41 116
160 43 125
164 44 128
174 45 134
163 44 127
171 45 133
173 45 134
177 45 135
176 45 135
174 45 134
171 44 132
179 46 138
183 47 139
181 47 139
175 45 137
178 46 138
175 45 135
180 47 140
178 46 138
175 45 134
184 48 142
179 46 138
177 46 137
178 46 138
181 47 140
175 46 138
179 46 139
181 47 141
184 47 141
176 46 136
185 47 141
180 47 141
180 47 140
180 47 139
179 46 140
180 47 140
182 47 142
182 47 142
180 47 140
186 48 143
178 46 139
179 47 139
180 47 140
183 47 142
182 47 140
180 47 141
180 47 140
182 47 141
179 47 139
182 47 141
181 47 140
181 47 142
176 46 137
179 47 140
182 47 142
183 48 142
181 47 140
181 47 141
175 46 136
181 47 139
183 47 142
180 47 140
182 47 141
176 46 138
183 47 141
183 47 142
180 47 140
184 48 143
177 47 139
179 46 139
179 47 139
181 47 141
177 46 137
179 47 140
183 47 141
179 47 140
176 47 139
182 47 140
181 47 140
182 47 141
181 47 142
180 47 141
178 47 140
180 47 140
183 47 141
181 47 141
177 47 139
180 47 140
181 47 140
180 47 139
176 46 139
178 46 138
169 45 134
172 46 137
162 44 132
158 44 131
157 42 127
145 40 121
149 41 124
140 40 121
145 41 125
135 40 121
126 38 115
123 37 113
109 36 109
109 35 107
102 34 104
104 35 108
102 35 105
100 34 103
98 34 104
99 34 104
103 35 107
106 37 111
103 34 106
100 34 106
104 36 110
99 33 103
100 34 105
102 35 106
99 34 103
100 35 105
107 37 111
102 35 108
101 34 104
103 35 108
99 34 104
99 56 111
101 68 114
108 90 129
110 102 136
116 103 139
120 122 153
123 133 161
127 141 166
121 135 161
126 143 166
125 142 166
126 141 165
125 139 163
127 143 168
129 144 169
123 137 160
122 136 161
125 141 164
127 142 167
124 137 161
129 145 172
128 143 168
127 142 168
129 146 171
129 145 171
129 145 171
128 145 169
123 138 163
122 135 161
128 146 171
124 138 165
128 144 168
123 138 164
124 138 165
130 146 172
126 142 168
130 148 174
125 139 164
128 145 169
128 144 169
131 147 171
124 140 164
127 143 167
126 141 165
127 142 166
127 142 166
128 143 168
124 140 167
126 142 167
124 139 165
124 141 167
125 142 167
127 144 170
126 142 167
132 150 173
131 148 171
127 142 168
130 148 172
127 143 168
128 146 171
124 140 165
127 143 168
126 142 167
125 142 167
126 141 168
127 143 169
123 137 163
128 143 169
126 140 169
122 136 163
125 140 164
128 143 168
127 143 166
127 145 169
127 144 170
125 140 166
127 142 169
127 143 169
130 147 172
128 143 170
128 145 170
124 140 164
128 144 168
132 149 173
131 148 172
130 147 171
126 143 167
131 148 172
130 147 171
129 145 171
129 147 172
126 142 168
132 148 174
128 144 170
127 141 167
128 146 172
128 144 171
128 144 170
126 142 168
128 144 168
