P3
1600 1
255
2 106 161
2 107 161
2 108 163
2 102 156
2 106 160
2 106 161
2 105 158
2 102 154
2 106 160
2 96 146
2 104 158
2 107 163
2 107 162
2 99 149
2 102 154
2 102 155
2 106 161
2 102 157
2 109 163
2 101 154
2 101 153
2 100 151
2 104 157
2 96 148
2 100 152
2 104 157
2 99 149
2 105 159
2 102 154
2 97 146
2 96 145
2 95 143
2 97 148
2 104 157
2 102 154
19 100 151
47 107 155
64 112 155
85 119 154
100 130 163
111 132 159
116 133 158
120 137 160
121 137 161
121 138 162
118 136 160
122 139 162
120 137 162
116 133 155
123 140 163
117 133 155
121 138 161
117 134 157
124 142 166
122 140 163
126 144 168
122 140 164
123 141 164
122 139 162
128 145 169
124 142 167
123 141 165
126 143 168
122 140 164
124 142 165
123 142 167
125 142 165
124 142 168
128 145 168
127 145 169
123 142 166
129 148 172
127 145 170
124 141 166
127 146 170
128 147 169
129 147 171
128 146 170
127 146 172
129 146 170
119 137 161
125 141 164
129 147 171
129 147 172
124 141 165
126 144 169
128 146 171
124 143 167
127 144 167
126 144 168
126 145 169
132 152 176
125 144 168
128 147 171
129 148 173
127 144 168
125 143 168
127 145 170
128 146 170
128 148 172
132 150 174
130 147 171
128 145 169
128 145 170
124 143 168
126 144 168
126 143 167
126 145 167
127 145 169
130 149 174
129 146 170
129 147 171
133 151 175
124 141 165
130 147 171
126 144 169
125 142 166
128 146 170
124 143 167
131 151 175
131 148 172
132 151 175
128 147 172
128 145 170
130 148 173
132 150 174
128 146 170
126 144 168
132 151 176
131 150 174
128 146 169
128 146 171
127 147 172
130 147 170
126 144 168
132 150 173
132 150 174
131 149 173
133 152 177
131 149 173
127 145 169
130 148 172
134 152 177
128 147 171
128 146 170
127 145 168
128 146 170
129 147 171
129 146 170
128 146 171
131 149 173
129 148 171
130 147 170
132 151 175
131 150 174
132 150 174
129 146 169
132 150 172
131 149 173
131 149 173
132 150 174
133 152 176
134 152 175
129 147 171
131 149 174
133 150 174
132 150 174
127 145 169
128 146 170
131 150 174
129 148 171
132 151 176
133 152 177
131 149 173
129 148 172
133 152 175
133 152 177
131 149 172
133 150 174
130 149 172
130 148 171
127 146 170
132 150 174
132 150 175
132 151 174
131 149 173
134 152 177
130 149 173
133 151 176
130 148 173
133 151 175
130 149 173
134 152 177
132 150 174
131 149 172
131 149 173
133 151 175
132 150 173
133 151 174
132 151 176
131 148 172
129 147 171
130 148 171
132 150 174
132 149 173
134 153 177
132 150 175
129 147 171
129 148 171
132 150 174
132 149 172
133 151 176
132 150 174
130 149 173
127 144 169
131 149 173
134 152 176
133 152 175
133 151 175
133 151 176
133 151 175
131 150 175
131 148 171
132 151 174
132 149 173
129 147 170
132 150 174
130 149 173
135 153 176
133 150 174
133 151 173
133 151 175
132 149 173
135 153 177
130 148 173
133 152 177
130 148 172
134 152 175
135 152 176
128 145 169
133 151 176
131 149 171
133 151 176
131 148 171
129 147 172
132 150 175
131 149 173
132 150 174
131 148 173
129 148 171
133 151 175
129 148 172
128 145 169
131 150 174
133 151 176
134 152 177
132 151 176
130 147 169
132 149 173
131 150 175
134 153 177
130 148 172
131 148 170
129 146 169
133 150 174
132 150 174
131 149 173
132 151 176
129 146 168
128 146 170
130 148 172
130 147 171
132 150 174
130 149 173
127 145 168
128 146 169
133 151 175
132 149 173
129 148 172
130 147 170
130 147 171
130 147 170
134 152 175
132 150 174
130 147 170
130 148 171
131 149 173
131 149 174
128 146 170
128 144 168
127 144 167
129 146 168
132 151 174
133 152 176
131 150 174
131 150 174
129 147 169
128 147 172
131 149 173
130 148 172
131 148 171
134 152 176
127 144 168
134 152 176
128 146 169
134 153 176
132 150 174
126 143 165
128 145 168
128 146 169
128 145 168
130 149 174
130 147 170
130 148 172
129 146 170
131 150 174
132 150 174
131 149 172
130 148 171
131 148 171
130 147 170
126 144 168
132 151 175
130 148 171
127 145 168
128 145 168
131 148 171
131 149 171
130 148 171
128 145 168
124 142 165
131 149 172
131 149 173
132 149 172
130 148 171
128 146 169
127 144 166
133 151 174
134 152 176
132 150 173
128 145 168
131 149 173
129 147 170
130 148 171
133 151 174
130 148 171
130 148 171
133 151 175
127 144 166
131 149 173
130 149 173
131 149 173
131 149 172
127 146 170
130 147 169
128 146 169
130 146 169
131 149 172
130 149 173
130 147 170
132 149 172
131 149 173
132 149 172
128 145 167
129 146 170
127 144 167
129 147 170
130 146 169
129 147 171
130 148 171
125 141 163
130 148 171
129 148 171
131 148 171
134 151 175
127 145 169
130 147 171
131 148 171
129 144 166
129 146 168
126 144 168
128 145 168
127 144 167
130 147 169
131 149 173
130 148 171
130 149 171
131 148 172
130 148 171
128 145 167
125 141 162
133 151 175
131 150 173
128 145 169
128 143 165
127 144 167
130 146 168
131 148 172
130 148 172
130 147 170
127 144 167
127 145 168
128 143 166
130 147 171
128 145 169
130 148 171
124 141 163
131 148 170
133 151 175
129 147 170
129 147 169
131 147 171
130 146 169
127 145 167
128 146 169
130 148 171
129 146 170
123 141 162
127 143 164
132 149 173
129 145 168
129 138 156
123 132 149
118 115 126
117 105 111
110 94 96
111 81 72
105 75 66
111 78 67
109 76 65
110 77 65
107 75 64
107 75 64
110 77 66
114 79 67
113 79 68
115 80 68
106 75 64
113 79 67
107 75 64
115 80 68
111 78 67
111 77 65
111 77 65
109 76 65
109 76 64
111 78 66
115 80 68
115 80 69
110 77 66
110 77 65
112 78 67
114 79 67
110 77 66
117 81 69
113 79 67
111 77 66
104 72 62
110 77 66
109 76 65
106 74 64
110 76 65
110 76 65
108 76 65
115 80 68
108 76 65
111 77 66
114 80 68
107 75 64
112 78 66
110 77 65
110 76 65
111 78 66
107 75 64
112 77 65
116 81 68
112 79 67
107 75 64
109 77 65
105 74 63
112 78 67
110 76 65
115 80 68
114 79 67
103 72 63
106 74 65
106 73 66
105 72 66
97 68 68
99 69 71
106 74 76
96 67 68
97 67 80
93 65 80
90 62 81
96 67 84
91 64 86
92 64 88
86 60 84
78 55 95
79 56 91
82 58 93
78 55 91
78 54 93
74 52 94
71 50 97
69 49 98
70 50 99
64 45 99
62 44 101
68 48 102
58 42 102
62 44 104
53 39 104
52 38 104
67 47 104
47 33 108
46 33 107
56 40 104
69 49 100
50 37 107
57 41 102
60 42 103
46 33 106
46 33 107
46 34 108
63 44 100
59 43 102
50 36 102
54 39 100
58 41 100
59 43 102
74 52 97
59 43 102
62 43 102
59 42 100
62 44 95
67 47 94
66 47 95
66 47 94
75 62 104
88 79 105
88 84 112
84 90 124
87 92 129
99 112 145
106 119 148
109 125 158
116 132 162
115 130 159
116 132 159
120 137 165
114 131 159
122 140 164
126 142 166
126 144 168
130 149 173
130 149 171
130 148 170
127 146 167
128 147 170
130 149 170
128 147 169
129 146 168
129 146 170
130 149 170
130 148 171
129 147 170
126 146 165
129 148 170
129 148 172
124 141 163
129 149 173
128 147 168
127 144 167
129 148 170
130 148 171
129 147 169
131 152 173
125 144 166
128 146 166
128 146 168
129 147 169
131 150 170
124 142 161
128 147 168
130 150 171
130 149 169
130 151 174
127 147 166
128 147 168
130 149 172
125 145 167
132 151 173
128 148 169
127 147 167
131 151 171
128 148 171
128 149 171
130 150 173
129 148 169
127 147 167
127 146 165
128 150 170
125 145 166
129 149 170
128 146 165
131 152 172
129 149 172
130 151 171
130 151 172
127 146 166
128 150 168
129 147 169
130 150 171
131 150 172
124 142 163
130 150 170
124 144 163
127 146 167
126 145 165
126 147 165
126 146 165
128 149 166
126 149 166
125 145 165
124 146 164
126 147 165
128 149 167
120 141 159
123 144 164
127 148 168
124 145 162
126 146 163
123 143 162
129 149 168
127 148 166
124 144 164
128 148 167
128 148 168
125 145 165
123 144 160
126 149 167
120 142 157
121 143 158
125 147 164
123 145 163
124 142 161
123 143 163
128 148 168
121 141 158
125 145 161
122 145 161
127 148 167
120 142 158
122 142 160
122 143 160
117 139 152
123 146 159
119 141 155
123 145 161
125 146 162
119 141 157
123 145 161
124 146 162
122 142 160
119 141 154
121 141 157
114 134 148
120 142 158
120 142 156
116 139 156
117 137 160
101 126 153
85 105 138
87 108 140
78 104 151
54 83 140
39 72 133
42 78 144
41 75 138
40 73 135
41 77 141
42 77 144
43 79 144
42 78 144
41 75 139
44 80 146
44 81 148
40 74 138
42 77 143
41 76 142
40 74 138
41 76 140
40 75 141
42 78 143
41 77 141
41 77 143
43 80 147
41 77 142
40 75 137
44 81 149
42 79 145
43 80 149
43 80 146
41 75 140
43 79 145
45 82 152
41 76 140
39 73 137
44 81 149
41 75 139
42 77 142
42 77 142
41 77 142
41 76 141
39 73 135
42 78 143
43 78 145
43 79 144
43 79 143
42 78 143
43 78 144
44 81 148
40 73 136
43 78 144
42 79 146
43 79 146
42 77 143
42 78 143
41 75 137
42 77 141
43 80 147
42 77 141
43 79 143
41 74 136
44 80 147
40 73 133
42 75 138
40 73 135
41 74 136
42 77 140
43 77 141
44 80 146
41 75 139
42 76 138
42 75 137
40 72 132
42 76 138
43 77 140
42 75 137
42 76 140
41 73 134
43 79 144
41 76 138
41 76 139
41 75 137
42 75 136
40 72 131
41 74 135
39 72 131
41 74 135
40 72 131
40 72 131
40 73 133
41 75 136
43 77 143
43 78 141
42 76 138
40 72 133
43 75 135
41 73 132
42 76 138
42 74 134
45 73 131
73 81 129
79 86 127
98 93 124
91 94 127
131 120 136
126 116 134
148 134 146
151 134 144
166 148 154
178 162 167
179 162 165
180 163 168
184 166 170
187 170 174
195 178 181
195 178 181
203 187 190
195 178 182
206 189 193
201 186 190
201 187 192
204 190 194
203 189 194
206 191 195
202 189 195
202 189 195
202 189 195
201 189 195
202 189 195
200 188 195
200 188 195
200 188 195
199 188 195
198 188 195
198 187 195
198 187 195
196 187 195
197 187 195
195 186 195
197 187 195
195 186 195
195 186 195
195 186 195
194 186 195
193 185 195
193 185 195
192 185 195
193 185 195
191 184 195
191 184 195
192 185 195
191 184 195
190 184 195
191 184 195
192 185 195
191 184 195
191 184 195
190 184 195
190 184 195
190 184 195
190 184 195
191 184 195
190 184 195
190 184 195
190 184 195
189 183 195
189 184 195
189 183 195
190 184 195
190 184 195
190 184 195
190 184 195
189 183 195
189 184 195
190 184 195
190 184 195
190 184 195
189 184 195
190 184 195
191 184 195
190 184 195
191 184 195
191 184 195
191 184 195
192 185 195
192 185 195
193 185 195
192 185 195
193 185 195
194 185 195
193 185 195
193 185 195
194 186 195
195 186 195
194 186 195
196 187 195
195 186 195
195 186 195
196 187 195
196 187 195
197 187 195
196 186 195
198 187 195
198 187 195
198 188 195
200 188 195
201 189 195
201 189 195
202 189 195
201 189 195
202 189 195
203 190 195
204 190 195
202 189 194
205 190 195
205 190 194
203 186 191
201 185 190
199 183 189
199 183 188
195 179 183
197 180 184
186 169 173
184 170 171
182 167 168
170 154 157
175 158 162
160 146 143
161 147 148
150 140 141
146 132 131
139 130 135
129 125 131
129 127 133
128 132 141
126 138 154
127 138 154
129 142 161
126 139 160
128 143 165
127 144 163
126 143 165
127 144 165
125 143 162
122 138 156
122 137 155
123 138 155
128 144 162
126 142 163
124 142 163
122 138 158
124 140 157
125 141 161
125 139 159
129 145 165
129 146 167
126 142 161
127 145 167
123 139 159
125 142 159
128 145 164
125 141 161
125 139 158
123 139 158
119 136 150
123 139 158
123 140 158
128 146 166
124 139 159
124 140 158
120 137 154
128 144 162
124 141 161
123 138 157
125 141 162
122 139 158
122 138 155
125 140 159
122 137 155
126 141 162
126 142 160
124 139 159
124 139 154
126 140 158
125 142 161
128 145 164
122 138 156
126 143 162
121 135 154
125 142 160
123 137 156
126 142 162
123 137 154
125 142 160
125 141 160
125 142 160
115 130 147
126 142 163
126 142 159
124 141 161
125 140 158
124 141 162
122 139 158
125 141 160
121 138 153
127 144 163
124 141 159
122 137 154
122 137 156
121 137 152
123 139 157
123 138 154
128 144 164
122 137 155
124 139 160
124 141 159
124 140 159
123 139 156
112 128 144
120 136 152
126 142 160
123 139 155
121 135 151
122 138 157
124 140 160
127 142 160
127 145 164
122 139 156
119 135 151
124 140 159
121 137 154
123 138 156
125 141 160
125 141 157
123 140 159
117 134 150
124 140 158
121 136 153
119 135 148
127 142 159
124 140 159
120 136 154
121 138 154
122 138 154
121 139 156
123 140 158
126 144 164
124 141 160
121 138 152
121 137 155
120 135 147
120 136 152
120 136 153
117 132 148
119 134 149
126 143 161
120 136 152
121 137 156
125 142 158
116 131 146
122 138 155
117 134 150
118 134 151
120 136 151
120 138 154
118 135 146
122 139 157
118 132 147
123 141 158
119 134 150
117 132 148
117 135 148
118 136 150
119 136 150
118 137 149
117 134 147
118 132 149
118 133 145
117 135 146
117 134 149
116 134 146
119 136 147
118 134 147
118 136 149
113 130 140
117 134 146
119 137 152
118 136 148
123 141 154
115 131 143
115 133 147
117 136 148
119 135 147
117 134 148
113 131 142
112 129 142
114 130 144
114 129 142
115 133 145
120 138 153
119 136 148
116 135 146
108 126 133
114 133 141
117 135 146
112 129 141
114 132 144
113 132 141
120 139 152
112 129 140
114 133 143
119 136 149
121 137 154
116 132 144
112 129 139
113 132 140
111 127 140
108 127 131
112 131 141
115 133 144
119 137 150
112 131 141
112 132 138
108 126 133
100 120 123
112 131 140
111 128 138
110 129 136
108 126 129
111 130 140
111 129 137
109 129 133
113 133 144
107 126 131
109 126 135
103 123 124
104 123 128
101 122 124
107 126 133
100 121 122
101 122 126
104 123 126
105 124 128
113 132 141
98 118 118
102 121 126
109 128 134
104 122 128
105 123 128
102 122 124
104 125 127
105 126 127
102 121 122
96 116 116
100 119 119
102 121 123
102 121 124
110 129 136
96 115 118
90 110 105
98 118 119
90 109 108
100 119 123
100 120 118
104 123 127
99 120 120
102 120 123
99 120 118
95 114 116
101 119 126
94 113 114
99 118 119
100 118 118
103 121 128
105 122 129
103 123 124
102 120 126
96 115 118
101 119 123
103 120 126
105 124 127
100 119 119
105 125 129
104 123 127
101 118 122
102 121 123
108 129 133
106 125 129
102 121 128
99 116 120
110 128 137
103 121 124
110 129 136
113 132 139
102 120 127
108 129 134
106 126 132
107 124 131
107 125 131
102 120 126
101 121 127
106 125 133
108 127 136
111 130 140
102 121 125
108 127 132
106 126 132
111 130 140
111 130 138
117 134 148
113 133 142
120 138 153
115 133 146
115 134 143
113 131 144
104 122 131
117 135 148
116 135 147
119 137 151
114 131 145
107 126 135
111 130 142
114 132 144
114 132 143
116 134 148
124 143 158
113 131 145
114 131 144
113 131 144
119 138 150
112 130 139
113 131 143
112 128 143
121 138 152
119 136 152
115 130 144
117 133 149
119 136 155
115 132 146
121 140 154
118 136 150
125 142 158
120 138 153
117 133 147
122 139 156
119 136 152
122 139 152
121 138 155
118 135 150
117 133 145
123 140 157
121 138 152
121 138 154
120 136 151
118 134 151
120 136 153
120 136 153
122 138 157
119 136 151
121 137 157
121 138 152
120 137 151
125 141 157
122 139 159
119 135 150
122 140 157
119 135 151
120 137 156
119 135 150
121 138 155
124 139 158
118 134 150
128 145 165
115 132 146
114 130 146
121 137 154
112 128 145
104 119 136
88 103 119
88 103 118
78 93 108
65 79 92
48 64 75
42 57 70
18 40 51
5 36 47
5 36 46
5 35 46
5 35 46
5 35 46
5 38 49
5 36 47
5 35 45
5 36 47
5 37 48
5 37 48
5 36 47
5 35 46
5 37 48
5 37 48
5 37 48
5 37 49
5 38 50
5 36 47
5 36 47
5 37 49
5 36 47
5 35 46
5 37 48
5 37 48
5 35 46
5 36 48
5 36 47
5 37 48
5 37 48
5 36 47
5 37 49
5 36 47
5 36 48
5 37 48
5 37 48
5 37 48
5 37 49
5 36 47
5 36 47
5 37 49
5 38 49
5 37 49
5 37 49
5 37 49
5 37 48
5 37 49
5 36 47
5 36 48
5 37 49
5 38 49
5 37 48
5 38 49
5 38 50
5 36 47
5 37 48
5 37 48
5 36 47
5 38 49
5 36 47
5 36 47
5 38 49
5 36 48
5 36 48
5 37 48
5 36 47
5 37 49
5 36 47
5 36 47
5 37 48
5 37 48
5 36 47
5 36 47
5 37 49
5 35 46
5 37 48
5 37 49
5 36 48
5 34 46
5 36 48
5 36 48
5 34 46
5 35 47
5 36 48
5 35 47
5 35 47
5 36 48
5 35 47
5 33 45
5 34 45
5 35 47
5 35 47
5 35 46
5 33 44
5 34 45
5 33 45
5 33 45
5 31 43
5 33 45
5 34 46
5 31 43
20 32 46
44 32 54
57 35 64
58 33 61
77 34 70
90 34 79
93 33 79
111 36 91
123 38 100
133 40 106
144 41 113
146 41 117
151 41 119
156 42 122
161 42 126
170 44 131
177 46 138
178 46 137
179 46 139
179 46 138
174 45 134
173 45 134
179 46 137
183 47 140
177 46 138
182 47 140
177 45 136
182 47 140
175 45 136
180 47 139
179 47 140
172 45 134
181 47 140
182 47 140
180 46 139
176 46 137
179 46 137
180 47 139
179 46 138
178 46 137
182 47 141
183 47 142
182 47 140
182 47 141
177 46 138
180 47 139
182 47 141
178 46 139
182 47 141
181 46 138
184 48 142
178 46 139
176 46 137
179 47 140
181 47 140
178 46 138
178 46 139
183 47 142
182 47 141
181 47 141
181 47 140
183 47 141
181 47 141
183 48 143
178 46 139
180 47 141
182 47 141
180 47 141
185 48 143
184 48 142
180 47 140
180 47 140
181 47 141
182 47 140
179 47 139
183 48 143
179 47 140
181 47 140
182 47 141
179 46 138
179 47 140
182 47 141
178 47 140
178 46 138
179 47 139
184 48 143
180 47 140
179 47 139
178 47 140
178 47 138
181 47 139
181 47 141
180 47 140
179 47 139
178 47 139
178 47 139
181 47 141
181 48 142
178 46 138
175 46 136
178 46 138
181 47 140
178 47 138
177 46 139
175 46 137
175 46 138
164 44 132
166 44 132
158 43 130
158 42 127
153 42 128
147 41 124
145 41 125
133 39 119
122 37 113
124 38 115
118 37 111
111 36 109
106 35 106
100 34 105
98 33 103
96 33 101
97 33 103
100 34 104
102 35 107
102 35 106
104 36 109
104 36 110
104 36 109
101 35 107
101 35 106
104 35 107
102 35 106
102 35 106
97 33 102
98 33 101
101 34 105
101 35 106
102 49 110
99 54 111
113 91 133
108 98 133
116 111 143
123 124 154
129 138 166
123 136 162
122 137 162
126 141 164
124 139 164
122 136 163
128 145 170
130 147 172
126 141 165
126 144 168
126 141 167
128 144 167
123 137 163
128 144 167
125 141 166
127 143 168
127 143 167
128 142 168
126 142 167
119 134 159
128 144 168
125 142 166
129 145 171
124 138 161
128 144 170
126 141 166
121 136 159
123 138 163
126 141 163
124 138 164
124 140 164
128 144 170
128 145 170
130 146 171
126 142 169
129 145 170
129 146 171
129 146 169
124 138 164
126 140 167
127 144 169
125 141 167
126 142 167
127 144 169
124 137 165
127 144 169
127 142 168
128 146 173
125 139 166
129 144 169
128 145 171
131 148 172
129 145 169
123 138 164
127 144 168
127 141 164
126 142 166
127 142 166
126 143 169
128 144 170
128 143 169
129 147 172
131 149 174
125 141 168
126 141 168
131 147 172
132 150 174
132 149 173
130 146 171
129 146 170
129 146 171
127 143 170
126 142 167
128 143 169
126 141 167
128 144 168
128 145 170
130 146 172
128 144 170
127 143 168
129 146 171
125 140 166
125 142 166
128 143 168
128 145 170
125 140 165
129 146 171
124 141 167
123 139 165
127 143 168
130 147 174
132 150 174
127 143 168
127 144 169
127 143 167
