P3
1600 1
255
2 105 160
2 104 157
2 100 152
2 104 159
2 102 155
2 101 154
2 104 158
2 100 152
2 101 153
2 95 144
2 105 160
2 103 156
2 102 155
2 98 148
2 102 153
2 101 153
2 106 159
2 100 151
2 103 155
2 94 143
2 100 152
2 101 151
2 101 154
2 101 154
2 101 153
2 103 155
2 105 159
2 101 154
2 97 147
2 97 146
2 95 144
2 90 138
2 97 148
2 95 146
14 99 149
54 106 149
66 108 149
79 115 152
94 125 159
115 135 162
118 137 163
113 128 151
124 140 164
116 133 157
119 135 159
121 138 162
121 138 163
117 134 156
120 138 162
113 130 153
120 137 160
121 139 161
126 143 167
124 141 164
124 143 168
121 139 163
119 136 159
125 143 167
125 142 167
126 143 168
122 140 164
126 145 168
123 141 166
122 141 164
123 141 166
128 144 168
125 144 169
124 140 163
124 142 167
124 142 167
125 143 167
126 144 168
123 141 166
127 145 167
129 147 171
127 146 170
126 144 168
125 142 168
122 139 164
128 145 169
122 139 163
133 151 175
124 142 165
123 142 166
125 144 168
128 147 171
127 144 167
127 145 169
128 146 169
128 147 171
126 145 170
130 149 175
128 146 170
125 143 167
128 146 170
123 140 163
126 144 168
129 148 173
129 147 171
129 146 170
128 146 170
130 147 171
125 144 169
123 142 166
128 146 170
125 143 167
126 143 166
130 149 174
130 148 172
128 145 168
131 150 174
126 143 166
126 144 167
126 143 167
127 145 170
128 146 169
125 143 168
131 149 173
131 149 173
131 150 173
130 148 173
126 144 169
129 147 171
131 148 172
125 143 168
130 149 173
128 147 172
130 149 173
131 149 174
129 147 172
132 151 176
126 144 169
129 148 172
130 148 172
133 150 174
131 150 173
132 151 176
131 149 174
131 148 172
130 147 172
131 149 173
132 150 173
127 145 169
129 147 171
128 146 170
127 145 168
129 147 172
129 148 172
128 147 172
130 148 171
132 150 174
132 149 173
128 147 171
133 152 176
128 145 169
133 150 173
129 148 171
132 150 174
130 147 171
130 149 171
132 150 174
131 148 171
131 149 174
132 149 174
131 149 173
129 146 170
127 146 171
130 147 172
129 148 172
130 149 173
132 151 176
132 150 173
130 148 172
133 152 175
131 151 176
127 145 168
131 149 172
130 148 171
132 150 174
131 149 174
131 148 172
132 151 175
134 152 175
132 150 173
134 152 176
132 151 176
133 152 176
130 147 171
132 151 176
130 150 173
132 151 176
132 151 175
130 149 172
132 151 175
131 149 172
132 150 173
133 152 175
130 149 173
127 145 167
129 148 172
130 148 171
131 149 172
132 150 174
132 150 175
133 151 175
131 149 173
131 149 173
130 147 170
133 151 174
134 153 176
131 149 173
130 149 174
130 147 171
131 150 174
136 155 179
134 152 176
132 150 175
132 150 174
134 152 176
131 149 173
133 150 174
131 148 170
132 150 174
131 149 172
133 153 177
134 152 177
135 153 176
132 150 172
134 151 175
132 150 174
129 147 170
135 153 178
128 146 170
131 149 174
130 148 173
135 154 178
134 152 175
129 146 169
133 152 177
130 147 171
133 152 177
132 149 173
131 150 175
133 152 176
130 148 172
132 150 174
131 148 172
129 146 169
132 150 174
127 144 168
131 149 173
131 150 175
133 152 177
136 154 178
132 150 174
131 149 172
132 150 174
131 149 174
132 151 176
131 148 171
134 152 176
127 144 167
136 155 179
131 148 171
130 148 172
132 151 175
133 151 175
131 149 173
130 148 173
128 145 168
131 149 173
130 149 173
128 146 169
133 151 174
131 149 173
133 151 176
131 149 172
131 148 171
131 149 173
131 150 174
133 151 174
131 149 172
133 151 174
129 147 170
128 146 170
131 149 173
129 147 171
129 146 169
130 146 169
132 150 174
130 149 172
133 151 176
134 152 176
131 149 173
130 148 172
129 147 171
132 151 176
131 149 171
130 148 171
133 151 175
131 148 172
132 149 173
131 149 173
133 152 175
130 148 172
126 142 163
128 144 166
129 147 171
130 147 171
130 148 171
129 146 169
132 151 176
129 147 171
133 151 175
132 150 174
129 146 167
131 150 173
131 148 171
131 149 172
132 150 174
132 152 176
131 149 173
129 148 172
129 146 167
131 149 172
129 146 168
130 147 170
130 147 169
127 144 167
131 149 173
131 149 172
134 151 174
131 148 171
126 143 166
128 146 168
132 149 172
134 153 178
131 149 172
130 147 170
132 150 174
134 152 175
130 147 170
132 150 173
130 149 172
132 150 174
132 150 174
129 146 169
131 150 173
132 150 174
131 149 173
132 149 173
131 150 174
129 146 169
126 144 167
130 146 169
132 149 172
132 150 174
131 147 170
133 151 175
132 149 173
130 147 169
130 148 171
128 145 168
130 147 171
131 148 171
130 147 170
130 148 172
131 149 172
127 143 165
130 148 169
130 148 172
131 149 172
134 152 175
126 143 167
131 149 173
131 149 172
130 147 169
132 150 173
130 148 173
126 143 167
127 145 168
130 149 173
133 152 175
131 149 173
127 146 169
132 151 174
129 147 170
130 148 172
128 144 166
131 148 171
131 149 173
130 147 170
128 144 167
126 144 167
130 147 170
126 144 167
134 152 176
127 145 168
131 148 171
131 149 172
126 144 166
130 147 169
128 146 169
133 151 175
129 146 169
127 144 167
131 149 173
132 150 173
129 147 171
131 148 170
132 150 174
123 140 163
127 144 165
130 147 170
128 148 171
128 146 169
129 146 168
131 147 170
131 150 173
130 147 170
132 150 173
131 147 171
122 134 153
124 132 149
120 118 130
116 112 122
116 108 116
110 86 83
106 76 67
110 77 65
105 74 63
107 75 63
108 75 65
113 78 67
114 79 68
107 75 64
108 76 64
110 77 65
104 73 63
104 73 63
106 75 64
105 73 62
111 77 66
108 76 65
110 77 65
104 73 62
117 81 69
112 78 67
110 76 65
108 76 64
107 75 64
108 75 64
109 76 65
108 75 64
115 80 68
107 75 65
105 74 63
111 78 66
107 76 65
106 75 64
111 78 66
103 72 62
110 77 65
107 75 64
111 77 66
110 77 65
110 77 66
110 76 65
110 76 65
111 77 66
108 75 64
103 72 61
111 77 66
112 78 66
112 78 66
106 73 63
110 77 65
104 73 62
113 78 66
101 71 65
104 72 65
109 76 70
97 68 68
100 70 73
93 65 74
102 71 77
85 60 81
89 62 83
86 61 84
90 63 90
81 56 88
77 56 90
73 51 96
79 56 95
77 53 94
67 47 101
56 40 105
72 50 95
62 44 104
62 43 104
51 35 104
43 32 108
52 38 110
56 40 105
53 37 109
41 30 111
39 29 112
42 30 113
36 26 113
23 18 114
38 28 113
36 27 114
31 22 114
22 17 115
24 19 115
22 18 114
25 20 117
17 15 116
20 16 116
18 16 116
19 16 115
28 22 115
20 16 116
31 23 115
23 18 115
22 18 114
32 24 114
26 20 115
26 21 115
28 21 114
26 20 114
30 22 113
28 22 112
31 23 112
48 34 104
27 21 112
40 29 110
53 38 105
42 30 106
32 28 110
49 40 108
46 46 117
67 68 121
68 73 125
78 88 138
78 89 140
89 102 144
78 89 138
99 114 148
91 103 143
95 110 145
100 115 150
102 114 147
102 116 150
104 118 151
110 125 156
112 127 156
120 138 164
118 134 162
122 141 164
127 144 168
124 141 166
127 146 169
128 146 168
129 147 168
132 150 172
127 145 168
128 145 166
127 145 165
130 147 170
126 144 166
129 148 170
128 146 168
129 147 168
128 145 166
130 149 172
128 147 170
127 143 166
127 146 169
126 145 167
130 149 171
130 148 170
130 147 169
130 149 171
129 149 170
126 145 165
129 148 168
126 144 164
130 150 169
133 152 172
124 143 162
128 147 167
129 148 169
129 147 167
129 150 173
128 148 168
129 148 170
125 144 166
128 147 168
130 149 171
128 148 169
127 148 167
129 149 170
125 146 166
127 147 168
129 149 172
131 149 171
126 146 165
131 151 172
125 146 164
128 147 170
127 146 167
126 148 165
127 148 168
129 149 170
128 149 169
126 147 167
124 145 162
129 149 170
131 151 172
129 149 171
129 146 168
126 147 167
126 145 165
130 148 169
125 144 166
124 144 163
127 148 167
128 148 167
128 149 169
125 146 167
128 148 168
124 147 164
129 147 167
123 143 161
125 146 166
126 148 166
127 148 167
124 144 161
122 143 161
126 146 163
124 145 163
128 149 168
128 149 167
129 147 168
128 147 167
124 144 162
121 142 161
125 147 165
121 140 157
120 140 157
123 143 161
125 145 163
125 144 164
124 145 164
126 148 166
126 147 163
121 139 154
124 143 162
125 146 165
127 149 167
124 145 163
124 144 161
123 143 159
122 142 158
125 147 164
124 146 161
128 148 166
119 140 158
123 143 162
120 141 155
122 142 163
120 142 163
112 132 158
98 122 150
83 106 140
79 103 145
57 86 141
50 78 133
40 74 137
41 75 137
42 76 140
41 76 138
40 75 137
40 75 137
40 74 137
39 72 132
40 75 138
41 77 142
42 78 144
42 77 142
41 76 139
44 81 148
44 81 149
41 76 142
41 76 141
42 77 142
40 74 137
41 74 136
42 79 146
40 75 140
43 79 145
42 77 144
41 77 142
40 74 137
42 78 144
41 76 141
40 75 138
43 80 147
42 77 142
42 78 143
43 79 145
41 76 140
43 78 144
41 76 140
42 77 141
40 74 138
43 78 144
44 80 148
40 74 137
43 79 146
39 73 135
42 79 147
43 79 145
43 79 144
41 75 137
41 76 141
43 78 141
39 72 133
43 79 145
39 73 135
41 76 140
44 81 147
42 77 143
43 78 141
42 77 140
41 74 136
43 80 146
41 74 137
42 75 139
39 71 131
41 75 137
40 73 134
41 74 135
41 75 136
42 74 135
39 70 130
41 75 138
40 74 136
42 77 141
41 73 134
37 67 122
39 70 129
43 77 140
38 69 125
42 75 136
41 73 135
39 70 127
41 74 134
40 73 134
41 74 136
42 76 140
38 67 122
40 71 129
41 71 129
40 72 132
43 76 139
40 70 126
42 76 139
40 72 131
41 74 135
41 74 136
45 69 124
55 74 126
49 71 123
82 88 130
98 103 138
101 99 126
117 111 136
133 119 135
126 117 133
147 135 144
155 140 147
171 154 159
173 154 157
174 159 164
185 168 172
184 169 173
191 173 176
197 181 184
200 184 187
196 180 184
198 184 188
202 187 191
198 183 187
197 183 188
206 191 195
205 190 195
203 189 194
203 189 194
205 190 195
203 190 195
201 188 194
203 190 195
202 189 195
202 189 195
200 189 195
199 188 195
199 188 195
199 188 195
200 188 195
199 188 195
197 187 195
198 187 195
198 187 195
197 187 195
196 187 195
197 187 195
196 186 195
196 187 195
195 186 195
196 186 195
195 186 195
193 185 195
195 186 195
194 186 195
192 185 195
193 185 195
193 185 195
193 185 195
192 185 195
191 184 195
193 185 195
192 185 195
191 184 195
192 185 195
193 185 195
193 185 195
192 185 195
192 185 195
191 184 195
191 184 195
191 184 195
193 185 195
192 185 195
192 185 195
191 184 195
192 185 195
192 185 195
191 184 195
193 185 195
192 185 195
192 185 195
192 185 195
192 185 195
192 185 195
193 185 195
193 185 195
193 185 195
193 185 195
193 185 195
194 186 195
194 186 195
193 185 195
194 186 195
195 186 195
196 187 195
196 187 195
196 186 195
197 187 195
198 187 195
197 187 195
198 187 195
197 187 195
198 188 195
200 188 195
200 188 195
200 188 195
201 189 195
199 188 195
201 189 195
201 189 195
201 189 195
202 189 195
202 189 195
202 189 194
202 189 194
204 190 194
205 190 194
204 189 192
206 190 194
202 187 190
200 185 191
197 181 186
198 181 186
197 181 185
191 174 179
180 164 169
182 168 169
195 178 180
184 169 171
177 160 162
169 155 153
151 136 136
155 137 135
159 144 145
139 129 131
140 131 136
126 121 126
131 135 145
128 133 147
128 134 150
129 140 158
125 140 160
124 138 157
127 144 166
124 141 163
129 146 166
125 142 161
122 139 158
129 145 167
125 143 161
127 144 165
127 144 165
124 140 159
124 141 162
123 138 158
124 139 158
130 145 166
124 141 161
124 141 162
122 139 156
124 139 156
123 139 160
123 139 158
129 145 165
126 144 165
128 144 165
128 144 165
123 140 158
125 141 160
126 143 164
127 143 162
126 142 160
124 139 157
124 140 158
121 135 153
125 141 160
127 145 165
126 142 161
125 140 159
120 137 156
124 140 158
128 144 165
122 137 156
123 140 159
122 138 158
125 141 161
128 144 164
122 136 156
124 141 161
125 141 158
123 139 158
125 140 157
125 140 157
126 142 159
128 144 165
127 142 160
123 140 158
125 140 162
121 137 157
121 137 155
125 141 160
127 141 161
124 141 157
125 140 157
126 143 163
123 139 158
123 140 159
128 144 166
127 143 161
124 140 159
126 141 161
125 143 163
122 140 157
128 144 162
118 133 151
129 146 167
125 143 161
118 133 150
121 137 155
126 143 160
120 135 152
123 138 155
125 141 159
128 145 166
125 140 160
127 144 161
122 139 156
125 141 158
118 134 152
124 140 158
127 142 160
124 141 158
118 134 148
122 138 156
125 142 162
129 144 164
125 142 161
123 141 158
119 135 154
122 138 157
124 140 158
124 140 157
125 141 160
124 140 155
121 139 156
121 137 156
119 135 149
119 134 150
123 140 156
125 141 157
124 140 158
121 137 154
122 138 155
121 137 153
124 140 158
124 142 161
125 142 161
123 140 159
122 139 155
125 141 158
121 139 153
121 137 153
122 138 157
120 137 154
118 136 151
123 141 157
122 139 156
121 137 153
122 139 155
122 138 155
118 135 152
121 137 151
122 139 156
124 141 159
122 141 159
117 134 141
121 138 155
117 133 146
122 138 156
123 140 154
124 141 159
112 129 141
118 136 147
121 138 153
120 137 151
120 138 153
114 129 139
121 139 155
115 133 142
119 136 152
118 135 151
120 138 152
116 135 144
120 139 153
112 130 139
116 133 145
123 141 152
115 134 143
116 135 145
122 139 154
117 133 147
123 142 159
118 136 150
120 137 150
113 132 141
116 135 148
119 136 149
116 133 147
115 130 145
117 135 150
118 136 149
123 141 157
118 136 148
117 136 146
112 132 138
121 140 150
121 139 154
113 132 141
115 133 145
112 131 140
121 140 153
119 136 147
120 140 152
118 136 148
113 131 143
117 133 146
113 131 138
113 133 142
119 136 151
117 136 146
117 137 147
116 135 147
119 137 151
113 132 145
111 129 139
118 136 148
109 130 134
114 133 145
110 129 137
118 137 150
116 135 145
112 131 141
118 136 149
114 134 143
114 133 142
116 136 147
118 138 150
112 130 137
108 127 131
101 120 121
111 130 139
106 125 134
112 131 139
110 130 138
111 131 140
107 125 132
106 125 129
118 139 149
112 131 139
108 128 132
108 127 135
110 127 137
109 130 135
121 140 154
106 126 130
111 130 139
107 126 129
107 128 132
113 132 139
106 127 131
105 124 128
110 131 138
109 129 134
112 131 140
107 128 133
110 130 136
116 136 145
110 127 137
110 129 135
108 128 136
110 130 138
107 127 132
111 129 137
105 124 130
115 133 147
109 130 139
113 133 142
107 127 131
109 129 137
110 130 135
113 131 141
111 131 140
101 118 123
114 133 144
115 134 143
111 130 139
115 133 145
118 138 149
117 136 146
113 131 140
110 129 137
117 136 149
116 135 148
121 141 152
117 137 147
114 133 144
111 131 141
113 132 143
120 139 154
108 126 136
119 138 149
116 136 147
115 135 145
114 133 143
112 129 140
114 132 146
122 141 157
116 135 147
120 139 154
118 135 152
116 136 148
113 132 141
119 136 150
118 137 148
118 135 149
119 136 152
114 131 143
119 136 148
117 134 151
116 133 147
118 136 150
120 137 154
118 136 150
118 135 151
117 135 150
118 137 152
114 130 143
124 142 161
120 139 155
123 141 157
119 136 153
116 134 149
116 134 149
120 138 154
122 140 158
120 137 154
120 137 152
121 139 155
122 139 158
122 141 157
118 135 151
115 132 146
118 136 153
119 136 153
123 139 157
121 137 154
129 145 166
123 142 160
116 132 146
119 133 151
123 141 158
120 138 153
119 136 152
122 139 157
121 137 155
124 139 155
124 142 159
120 136 155
121 137 154
127 144 163
121 136 155
123 139 155
122 138 157
121 139 154
124 140 159
122 137 158
120 138 155
119 134 153
109 125 143
97 114 126
91 107 123
84 100 114
74 88 100
67 80 93
44 60 71
22 41 53
5 36 46
5 36 47
5 34 44
5 36 48
5 36 47
5 36 47
5 36 47
5 36 46
5 37 48
5 36 46
5 36 47
5 36 47
5 37 48
5 37 48
5 35 46
5 36 46
5 36 47
5 37 47
5 37 49
5 35 46
5 37 48
5 36 47
5 37 49
5 37 48
5 36 47
5 36 47
5 36 47
5 37 48
5 36 47
5 37 48
5 37 48
5 37 49
5 37 48
5 37 48
5 36 47
5 37 48
5 36 47
5 38 49
5 37 48
5 37 49
5 37 48
5 36 48
5 35 46
5 37 48
5 37 48
5 36 46
5 37 48
5 37 48
5 38 49
5 37 48
5 38 49
5 36 47
5 37 49
5 37 48
5 35 46
5 37 48
5 38 50
5 37 48
5 36 47
5 37 49
5 36 47
5 38 50
5 36 47
5 37 49
5 36 47
5 37 48
5 36 47
5 36 47
5 37 48
5 35 47
5 36 47
5 35 46
5 36 47
5 37 49
5 35 46
5 36 47
5 36 48
5 36 47
5 35 46
5 36 47
5 35 46
5 36 47
5 36 47
5 36 47
5 37 49
5 36 47
5 35 47
5 34 46
5 35 46
5 36 48
5 34 46
5 35 47
5 34 46
5 32 44
5 32 44
5 30 42
5 32 44
5 34 45
5 32 43
5 29 40
5 31 42
18 33 47
37 31 50
69 31 64
74 33 68
89 34 77
110 37 90
105 36 88
124 36 96
132 39 105
138 38 109
146 41 115
158 42 121
159 42 123
172 45 132
173 45 133
171 44 133
175 45 136
176 46 137
173 45 133
177 46 137
177 46 135
177 45 136
182 47 140
176 45 136
177 46 137
177 46 136
177 46 137
177 45 135
179 46 139
175 45 136
180 46 139
181 46 139
177 45 136
180 46 138
176 46 136
177 46 137
183 47 141
180 47 140
182 47 140
182 47 140
180 47 139
182 47 142
181 47 139
179 46 139
181 47 140
178 46 137
181 47 139
181 47 140
183 47 140
181 47 140
179 47 142
176 46 137
181 47 141
179 46 139
177 46 138
178 46 139
180 47 141
181 47 140
179 46 137
179 46 139
182 47 141
177 46 137
179 46 138
183 47 141
183 47 142
177 46 138
181 47 140
175 46 136
180 47 140
178 46 136
179 46 139
180 47 140
173 45 135
184 47 141
180 47 139
182 47 140
177 46 138
179 47 138
179 47 139
178 46 137
181 47 139
178 46 138
182 47 142
181 47 139
180 47 139
177 46 137
181 47 141
177 46 138
181 47 140
177 47 139
179 46 138
184 48 141
182 47 141
177 46 138
181 47 141
178 47 138
177 46 137
180 47 141
178 46 138
183 48 142
180 47 139
181 47 139
178 47 138
179 47 139
182 47 141
175 45 136
177 46 138
179 47 139
177 46 139
177 46 137
174 46 137
172 46 136
169 44 132
161 44 131
157 42 126
147 41 123
138 39 119
145 40 122
134 38 115
123 36 110
125 38 114
115 36 109
104 33 101
102 34 103
98 32 101
97 33 100
96 32 100
98 33 101
96 32 99
98 33 99
100 34 104
99 34 105
98 33 101
97 33 100
96 32 99
96 33 101
99 34 104
99 34 105
100 43 105
102 81 122
105 82 124
111 102 138
110 107 138
117 124 150
123 136 162
124 135 160
126 141 165
124 138 162
125 140 166
127 141 164
126 142 166
127 143 167
126 142 165
126 143 167
126 142 166
127 142 168
125 140 164
128 145 170
126 142 165
127 142 167
122 138 163
125 142 165
128 144 168
125 142 165
125 141 166
130 146 170
131 147 172
123 138 164
122 136 161
126 143 167
126 140 164
126 141 167
127 142 165
130 145 170
127 142 167
125 139 166
126 142 165
130 147 173
126 141 166
129 145 169
129 146 172
127 143 167
120 134 162
128 145 168
127 144 170
128 144 169
127 143 168
128 143 168
124 140 163
130 148 173
126 142 168
125 141 166
128 144 169
129 144 167
128 144 168
128 143 169
129 146 170
129 146 171
128 143 169
124 139 165
126 142 168
127 144 167
128 144 170
129 145 169
129 144 168
129 146 170
128 144 168
128 144 166
124 139 163
125 141 165
130 147 172
126 140 165
131 148 172
133 152 176
130 147 171
132 150 175
132 149 174
129 144 168
129 145 172
128 144 168
131 147 172
127 142 168
130 148 173
127 144 168
128 143 168
129 145 170
130 145 171
131 148 173
129 144 168
128 146 173
128 145 169
125 140 167
130 147 173
133 150 174
127 143 169
130 149 173
130 147 171
129 145 169
132 148 171
128 144 167
129 145 169
