P3
1600 1
255
2 105 159
2 107 161
2 102 155
2 98 150
2 103 156
2 100 152
2 102 155
2 101 154
2 102 156
2 98 148
2 98 149
2 104 158
2 101 155
2 99 149
2 102 153
2 95 145
2 106 159
2 101 152
2 101 154
2 94 144
2 102 155
2 101 152
2 99 151
2 108 165
2 100 150
2 101 152
2 101 154
2 99 150
2 97 147
2 99 149
2 97 146
2 94 143
2 97 146
28 101 150
47 103 148
52 107 153
76 113 149
89 121 156
103 126 153
113 134 161
117 134 158
118 134 157
117 133 156
120 137 161
115 131 155
117 134 157
120 137 161
119 135 157
118 135 159
117 133 156
118 135 158
119 137 160
124 141 165
121 138 162
124 143 167
123 140 164
123 142 165
122 139 162
121 138 163
121 138 162
125 143 166
124 143 168
125 142 166
121 139 162
124 141 166
127 144 167
125 144 169
124 141 164
125 143 168
127 146 171
123 141 166
126 145 169
118 135 160
123 140 163
126 144 169
125 142 165
125 144 168
127 145 168
122 140 166
127 144 168
130 149 173
128 147 172
123 141 163
120 139 163
129 148 172
123 140 165
132 150 173
127 146 170
126 143 167
129 149 173
125 142 166
126 144 169
128 146 170
128 146 170
125 144 168
122 139 163
128 146 170
132 151 176
130 148 172
127 145 168
127 145 168
126 143 167
125 145 170
125 142 165
126 144 168
125 142 165
128 147 171
130 148 172
127 146 170
129 147 171
128 146 170
127 145 169
127 144 168
127 145 168
126 144 169
127 145 169
129 148 171
132 150 175
129 146 170
131 150 174
128 146 171
130 149 173
125 142 167
131 149 173
128 146 172
131 149 174
131 149 174
129 147 171
130 147 171
131 150 175
128 147 172
133 152 176
126 144 168
134 151 175
132 149 172
130 148 173
133 152 176
128 146 170
128 146 170
129 147 171
134 153 177
131 149 173
130 148 172
125 145 168
129 147 171
129 147 171
127 144 169
129 148 172
131 150 176
129 148 171
132 150 174
130 149 172
132 151 175
132 150 175
128 146 170
132 150 172
129 147 171
130 148 172
129 147 171
129 149 173
132 149 172
127 146 169
131 149 173
130 148 173
131 149 173
127 146 170
129 146 171
130 149 173
127 145 169
132 151 175
131 148 172
134 152 176
130 149 173
133 152 177
128 146 168
129 148 171
135 153 176
131 149 172
130 148 172
130 148 173
131 150 174
130 149 173
133 152 175
133 151 174
131 150 175
133 152 176
132 150 175
131 150 174
132 150 175
131 150 173
131 150 175
130 149 173
130 148 171
132 151 177
132 149 172
131 148 172
132 151 176
129 146 169
131 149 173
128 146 168
132 150 174
131 148 171
133 152 176
134 152 176
130 148 172
129 147 171
133 151 175
131 147 170
134 151 174
132 151 175
131 150 175
130 148 172
128 146 170
133 151 176
135 153 177
135 154 178
130 148 172
133 151 175
132 150 174
131 149 172
132 150 173
132 149 171
132 151 174
128 146 169
133 152 177
133 151 175
134 152 176
133 151 174
133 150 172
132 151 175
130 149 172
134 151 175
132 150 174
129 148 172
132 150 174
137 155 178
131 149 173
131 149 173
131 148 173
132 150 174
132 151 176
133 151 174
129 148 173
134 153 177
128 145 170
131 149 173
132 151 175
130 147 171
130 149 173
128 146 169
133 151 175
131 150 176
132 151 175
134 153 177
133 151 173
131 149 173
132 150 174
131 150 174
132 151 175
133 151 175
133 151 174
132 149 173
135 153 177
128 145 169
130 148 172
133 151 175
133 151 175
131 149 173
131 149 173
130 148 171
131 149 174
130 149 173
130 148 171
133 151 175
130 148 172
134 152 176
130 147 170
132 149 172
132 149 173
134 152 176
132 149 172
132 150 174
131 149 172
128 146 170
128 146 170
130 149 172
129 147 171
131 148 171
129 147 170
132 149 173
132 151 175
133 151 176
132 150 174
132 151 174
131 149 172
130 148 173
131 150 175
132 149 172
131 148 171
131 149 173
129 146 170
133 151 174
132 150 173
132 150 174
132 150 174
125 141 163
128 146 169
130 148 172
129 145 169
132 150 173
129 146 170
131 149 173
131 149 173
131 150 173
134 152 176
131 149 172
130 148 171
132 150 173
132 149 173
132 150 174
134 153 177
132 152 176
128 145 169
129 145 168
130 148 171
128 146 169
132 149 171
127 144 167
130 146 169
129 147 170
132 150 173
134 152 176
131 148 171
128 146 168
128 145 168
130 148 170
133 150 173
131 150 174
133 150 173
130 149 172
132 150 175
130 148 171
133 151 174
130 147 170
131 149 174
133 151 174
131 149 172
131 149 173
132 151 175
131 149 173
131 149 173
130 148 171
126 143 165
131 149 172
128 145 169
128 145 168
129 147 169
131 148 172
132 150 174
133 150 173
133 150 173
132 150 173
127 145 168
130 146 170
132 149 172
130 147 171
128 145 167
133 152 176
129 146 169
124 139 161
130 148 171
129 146 169
131 149 172
134 151 175
128 145 170
130 148 172
130 147 170
131 149 172
130 147 170
129 147 172
128 146 169
127 145 168
131 149 173
130 148 171
133 151 174
129 147 170
132 150 174
127 144 167
128 146 169
129 146 168
131 149 172
132 151 174
128 146 169
130 146 169
127 144 167
130 146 169
127 145 168
134 152 177
129 146 168
129 146 169
128 146 169
128 145 167
130 147 170
128 145 168
133 151 175
129 146 170
129 147 169
130 148 172
129 146 170
131 149 172
128 144 167
131 148 171
124 141 163
127 144 166
131 148 171
132 150 174
126 143 164
130 146 168
129 146 169
131 149 173
130 148 171
132 148 171
127 144 165
125 136 156
126 136 155
117 118 130
118 112 122
117 106 112
105 83 81
108 78 67
106 74 64
107 75 64
100 70 61
112 79 67
109 75 64
114 79 67
104 74 63
110 75 64
107 74 64
104 73 63
105 73 62
103 73 63
105 74 64
109 76 64
103 71 61
106 74 63
108 75 64
111 77 66
109 76 65
106 74 63
104 73 62
109 76 65
110 77 66
109 76 65
108 75 64
109 76 65
107 75 64
110 77 65
112 78 67
104 73 63
107 75 64
105 73 63
107 75 64
113 79 68
105 73 62
109 75 64
110 76 65
110 77 66
108 75 64
111 77 66
113 79 67
102 71 61
108 75 64
110 76 65
109 77 65
101 70 61
106 74 65
103 72 69
107 74 73
99 69 66
96 66 75
95 67 73
97 67 78
86 60 83
97 67 81
84 59 87
76 53 90
82 58 87
77 55 92
70 50 95
70 49 100
73 52 99
60 44 101
58 42 103
61 43 105
49 35 107
51 36 109
49 35 107
39 29 111
46 33 110
42 30 113
27 21 114
27 21 115
18 16 114
15 14 116
27 21 116
11 12 117
12 12 117
11 12 117
11 12 117
11 12 118
11 12 116
11 12 118
11 12 117
11 12 117
11 12 116
11 12 117
11 12 117
11 12 116
11 12 117
11 12 117
11 12 117
11 12 117
11 12 116
11 12 117
11 12 117
11 12 117
11 12 117
11 12 116
11 12 118
11 12 116
11 12 117
11 12 117
11 12 117
11 12 117
15 14 115
15 14 116
21 16 114
17 15 112
22 18 113
38 33 115
50 54 121
53 59 126
52 57 125
54 61 126
56 64 128
61 70 131
78 89 136
62 70 130
80 92 140
82 94 140
82 93 138
92 105 144
91 103 143
89 103 143
94 108 146
101 117 151
103 116 149
104 118 150
116 133 161
116 131 160
120 138 163
121 139 163
124 143 166
129 148 170
128 146 170
127 146 169
128 144 165
127 146 167
129 147 170
126 145 167
129 147 168
124 141 162
131 149 171
127 146 167
129 147 170
131 150 172
127 146 166
131 149 169
126 144 165
127 145 168
127 146 168
126 144 167
128 147 168
130 148 170
129 147 170
131 147 169
125 145 166
131 151 172
128 148 168
129 147 169
126 146 167
129 147 168
129 149 168
129 148 169
125 144 165
129 147 168
130 148 169
127 146 167
128 150 170
127 145 166
127 147 169
128 146 167
130 148 169
130 149 171
126 146 165
126 146 164
127 146 168
124 143 162
130 150 172
130 149 170
130 149 170
128 145 165
126 147 167
127 148 168
125 144 165
127 147 166
127 146 167
128 149 169
126 147 167
127 148 168
125 145 163
125 144 164
130 149 171
131 151 173
128 147 170
128 148 169
128 148 168
128 147 167
125 146 168
127 145 168
122 144 159
125 145 163
129 148 170
126 147 166
127 146 167
125 146 167
126 145 164
126 146 166
124 144 164
124 145 163
128 149 169
126 147 164
119 141 155
125 144 162
127 147 167
129 149 171
128 147 168
129 148 166
126 145 165
121 140 159
123 144 162
128 149 169
128 148 166
120 142 158
121 139 159
118 139 155
127 147 167
125 145 165
126 145 165
124 146 161
120 140 155
126 145 164
125 144 162
122 143 161
125 145 164
126 145 165
123 144 163
120 140 157
127 148 165
126 146 164
122 144 159
125 146 165
111 133 157
100 119 147
97 118 150
85 109 152
68 94 139
62 89 138
42 75 138
39 71 131
40 74 137
40 73 136
41 74 136
40 73 135
41 76 140
39 73 136
40 74 137
39 73 134
41 77 142
40 74 137
39 72 134
41 76 141
42 78 145
42 77 142
39 72 134
44 81 149
44 81 147
40 75 139
41 76 140
42 78 143
39 72 134
40 75 138
41 76 139
41 76 141
40 74 137
42 78 143
42 78 144
42 77 143
40 74 138
42 77 144
41 76 140
43 79 146
41 76 140
42 77 143
43 78 143
39 73 136
40 74 136
39 72 134
41 76 140
40 73 135
41 75 138
40 72 133
41 75 140
41 75 138
42 79 145
41 76 139
41 76 141
39 71 131
41 75 139
42 78 143
39 71 130
41 75 139
42 77 142
42 78 143
42 75 137
42 76 139
40 73 133
38 70 129
43 78 143
42 76 140
41 74 135
43 77 141
40 73 133
42 77 142
41 75 136
39 70 129
40 71 129
39 70 129
40 72 132
42 75 137
42 75 138
40 73 134
41 73 134
39 70 128
41 74 135
38 69 126
40 71 129
41 73 134
37 66 120
39 70 129
38 68 126
41 75 136
40 72 132
40 71 130
41 73 132
40 72 130
40 71 129
40 70 127
41 73 132
39 70 129
44 71 125
45 75 135
74 81 126
80 89 132
93 93 126
101 100 128
110 105 131
126 116 129
133 122 137
157 141 148
152 139 147
164 148 155
161 142 145
179 163 168
187 169 173
190 173 177
190 173 175
189 172 176
191 173 175
191 175 179
195 179 182
198 182 186
201 186 191
201 185 189
202 187 191
204 190 194
201 187 192
200 186 191
205 191 195
203 189 194
204 190 195
204 190 195
204 190 195
203 190 195
202 189 195
201 188 194
201 189 195
200 189 195
201 189 195
199 188 195
200 188 195
199 188 195
199 188 195
199 188 195
197 187 195
198 188 195
197 187 195
197 187 195
197 187 195
197 187 195
196 187 195
196 187 195
196 186 195
196 186 195
196 186 195
194 186 195
195 186 195
194 186 195
194 186 195
194 185 195
195 186 195
193 185 195
194 186 195
192 185 195
194 186 195
193 185 195
192 185 195
193 185 195
194 186 195
194 186 195
194 185 195
193 185 195
192 185 195
193 185 195
192 185 195
194 186 195
194 186 195
193 185 195
193 185 195
194 186 195
193 185 195
193 185 195
195 186 195
193 185 195
194 186 195
195 186 195
194 186 195
194 185 195
195 186 195
195 186 195
195 186 195
196 187 195
195 186 195
196 187 195
197 187 195
195 186 195
197 187 195
197 187 195
198 188 195
199 188 195
198 187 195
200 188 195
200 188 195
199 188 195
201 189 195
200 188 195
200 188 195
202 189 195
203 190 195
202 189 195
204 190 195
201 188 194
203 190 195
202 189 194
203 188 193
200 186 192
202 187 192
203 189 193
199 185 190
198 184 188
202 186 190
200 184 187
196 180 185
196 180 184
194 179 183
189 173 177
185 168 174
185 169 173
178 161 165
173 157 160
182 168 170
175 161 163
167 155 155
154 140 140
149 133 133
143 125 130
141 131 134
127 120 126
127 125 133
124 129 142
127 132 141
118 129 143
125 140 159
127 141 159
124 139 160
124 140 160
126 143 163
123 140 158
124 139 159
127 144 163
125 142 161
127 144 165
123 140 161
129 147 168
126 143 164
125 142 162
124 141 161
123 139 158
125 141 161
129 145 165
126 142 162
126 144 165
124 138 156
126 142 159
126 142 163
122 139 158
128 145 165
126 144 163
128 144 164
127 145 166
126 141 160
126 142 162
126 142 163
127 142 162
127 143 164
121 135 152
126 142 161
123 138 158
126 141 161
127 144 164
125 141 162
124 139 158
124 140 160
124 141 158
127 143 164
121 137 155
123 138 157
123 140 161
119 134 151
124 140 160
122 138 157
124 141 161
129 145 165
123 139 156
123 139 157
126 141 157
124 141 159
130 147 169
128 144 164
120 136 153
126 142 162
121 136 156
127 144 162
122 138 155
123 139 157
123 141 156
123 139 159
128 144 163
122 139 157
122 138 156
127 144 165
125 141 159
123 138 158
125 141 162
124 142 163
125 143 161
127 144 161
121 137 154
129 146 166
126 142 161
119 136 152
123 137 156
124 140 158
123 139 159
119 135 150
122 139 157
126 143 162
129 145 165
125 142 159
124 140 159
121 136 152
120 137 154
124 141 161
125 142 159
120 136 154
123 139 157
121 138 156
124 141 160
128 143 164
129 145 165
122 139 158
125 142 161
125 142 161
127 145 163
124 141 158
126 143 162
123 138 156
125 142 160
124 141 159
124 141 160
123 139 156
121 137 150
126 143 161
126 143 161
126 142 160
124 141 159
120 136 152
123 140 155
127 144 164
125 142 162
126 143 162
123 143 158
127 144 164
126 144 159
121 138 153
119 136 150
121 137 154
125 142 159
120 137 153
119 136 150
127 144 164
124 141 157
118 134 151
123 140 158
119 135 149
121 139 154
119 135 151
122 140 157
124 140 159
120 138 154
117 135 147
122 141 154
117 134 149
122 139 157
129 145 165
121 140 154
120 138 153
115 132 145
117 132 146
122 139 155
118 136 152
121 137 153
120 137 150
119 137 148
120 138 152
121 139 156
116 134 150
119 137 152
118 137 153
121 141 154
116 133 144
115 133 141
124 142 159
112 131 140
122 139 154
122 139 154
122 142 155
121 139 153
125 143 158
122 139 153
113 132 142
112 130 141
117 135 148
121 138 154
115 132 145
122 139 154
121 139 153
119 135 150
119 138 149
120 139 153
113 133 142
123 141 155
124 143 156
118 138 151
118 137 149
121 140 155
118 137 152
115 132 146
123 141 157
115 135 144
116 134 145
116 134 144
116 136 144
116 135 146
118 137 152
113 131 142
121 141 153
117 135 147
120 138 155
118 138 149
116 135 151
116 135 146
121 139 154
110 131 139
115 135 145
112 131 143
126 144 159
114 132 143
118 136 149
114 132 145
116 135 148
114 133 144
114 135 142
122 143 156
111 132 140
112 131 143
113 133 141
111 130 139
116 136 148
114 133 141
120 139 153
117 136 150
117 136 148
112 132 139
118 137 150
112 133 142
123 142 156
116 136 147
114 134 144
117 138 151
116 134 145
111 132 138
116 136 149
120 139 150
117 136 147
116 135 148
113 132 145
120 140 151
116 136 146
112 131 141
116 135 147
118 135 148
112 132 139
113 133 141
110 131 136
109 128 137
114 135 144
119 138 152
117 136 149
118 138 148
118 138 152
116 135 147
117 138 149
113 132 141
111 129 137
117 135 148
122 140 155
115 136 146
123 142 157
123 143 159
113 132 144
122 140 154
118 138 150
120 140 150
118 137 153
114 133 143
113 132 140
118 138 152
120 139 151
119 139 152
113 132 142
121 141 156
118 138 148
116 133 146
121 140 155
121 142 155
114 133 144
121 141 153
123 141 158
118 138 151
123 143 159
115 133 147
120 138 154
121 139 158
118 134 148
123 141 157
124 142 159
118 137 150
123 141 158
120 138 152
117 133 152
119 137 153
124 141 159
117 136 148
117 135 149
121 139 156
122 140 155
118 137 148
128 147 167
118 136 151
120 137 153
124 141 160
122 140 157
120 137 154
117 136 149
118 135 152
119 137 151
124 142 161
125 142 161
122 140 156
122 140 156
117 135 151
122 140 157
124 142 160
122 138 157
123 140 159
125 144 163
118 133 152
119 136 151
122 140 157
123 141 159
124 141 160
125 143 165
119 136 154
119 136 154
129 147 166
125 142 163
122 140 156
122 140 159
122 138 158
121 138 155
123 141 160
121 137 157
123 139 157
122 139 157
121 138 155
122 138 156
116 132 149
103 119 134
98 114 128
96 111 125
80 93 106
81 97 108
69 82 96
52 66 78
20 42 52
15 38 48
5 35 46
5 34 44
5 36 47
5 36 47
5 35 45
5 35 46
5 34 44
5 35 46
5 36 46
5 36 48
5 35 46
5 35 46
5 35 46
5 36 47
5 35 46
5 36 47
5 36 48
5 35 46
5 35 46
5 36 47
5 37 48
5 36 47
5 37 48
5 38 49
5 36 47
5 38 49
5 36 47
5 36 47
5 36 47
5 37 48
5 34 45
5 36 47
5 37 49
5 37 48
5 36 46
5 36 47
5 36 47
5 37 48
5 36 47
5 36 47
5 37 48
5 37 48
5 37 49
5 37 48
5 36 47
5 37 48
5 36 47
5 37 49
5 36 47
5 37 49
5 37 48
5 36 48
5 37 49
5 36 47
5 36 47
5 37 48
5 35 46
5 36 46
5 36 48
5 37 49
5 35 46
5 36 47
5 36 47
5 37 48
5 37 49
5 36 47
5 36 47
5 36 48
5 37 48
5 36 48
5 36 47
5 36 47
5 34 46
5 37 49
5 36 47
5 35 47
5 36 48
5 36 47
5 35 46
5 34 46
5 34 46
5 35 47
5 33 45
5 34 45
5 34 45
5 34 45
5 34 46
5 34 46
5 34 46
5 31 43
5 34 46
5 34 45
5 34 47
5 32 44
5 32 43
5 32 44
5 33 45
5 30 42
5 30 42
27 29 45
40 31 52
71 32 66
87 34 75
78 33 71
76 33 69
104 36 87
118 37 96
137 38 108
143 39 111
143 40 112
149 40 115
170 44 130
166 43 129
175 45 134
172 44 132
171 44 131
174 45 134
169 43 129
177 46 136
170 44 132
174 45 134
176 45 134
175 45 134
173 44 133
172 44 133
174 45 133
181 47 138
176 45 134
176 45 136
175 45 135
177 46 136
184 47 141
179 46 140
176 45 135
176 45 135
181 47 139
181 47 140
175 45 136
182 47 140
174 45 134
182 47 141
177 46 136
183 47 140
182 47 142
179 46 138
180 47 139
179 46 137
179 46 139
179 46 139
180 47 141
179 46 138
180 47 140
178 46 139
180 46 137
179 46 138
178 46 137
176 46 137
178 46 137
181 47 142
185 48 143
179 46 138
183 47 139
181 47 141
181 47 140
181 47 140
180 47 139
182 47 140
179 46 138
182 47 139
179 46 139
184 47 142
178 47 140
179 47 140
179 46 139
179 47 139
175 46 137
178 46 140
181 47 141
181 47 141
185 47 142
179 47 140
181 47 139
181 47 140
176 46 136
181 47 139
181 47 140
181 47 140
181 47 141
178 46 138
178 46 139
180 47 139
179 47 140
180 47 140
176 46 137
177 46 139
182 47 141
178 47 139
176 46 138
178 46 138
180 47 139
181 47 139
177 46 137
178 46 137
181 47 141
178 46 138
178 47 137
182 47 141
180 47 139
177 46 137
177 47 138
178 47 138
173 45 133
179 47 139
172 45 136
167 44 131
170 45 134
162 44 129
160 43 129
158 43 128
140 40 118
139 40 119
129 38 114
114 34 104
126 38 116
118 36 110
105 35 106
104 35 106
97 33 102
99 35 106
96 33 102
86 29 90
98 34 103
89 31 94
97 33 101
95 32 99
97 33 101
95 33 101
93 44 101
96 61 107
113 88 130
110 84 127
118 111 146
117 120 149
118 125 153
122 133 160
125 140 166
126 144 169
126 140 165
128 143 167
127 142 165
126 140 166
127 143 168
125 142 166
124 139 162
125 138 164
125 141 165
123 138 163
126 144 169
126 141 167
123 138 163
126 144 168
125 141 163
123 137 162
129 144 169
123 138 161
125 140 165
126 140 164
129 145 170
122 136 161
128 142 166
128 143 166
124 140 165
128 144 167
123 139 164
127 142 167
128 145 172
126 141 165
130 148 172
127 143 166
127 143 167
121 138 162
124 140 165
130 146 171
127 142 167
126 143 168
128 144 168
132 148 172
125 140 165
124 138 161
124 141 165
127 143 167
128 142 168
129 146 170
126 141 165
126 143 169
130 146 171
126 144 167
129 147 171
128 143 166
130 146 171
131 149 173
125 140 164
127 143 168
131 147 172
128 144 169
127 143 169
127 144 171
130 146 171
128 144 169
129 146 171
128 145 170
123 138 163
130 148 172
124 138 163
129 145 170
128 143 167
130 147 172
128 144 169
133 151 177
127 144 168
126 142 168
128 144 167
128 144 167
127 141 166
129 146 169
132 150 174
129 146 169
128 145 170
125 140 164
128 143 168
126 141 167
126 141 167
131 147 171
134 152 175
132 149 173
132 150 174
130 147 173
132 148 172
130 147 172
131 148 174
128 144 168
130 146 169
