P3
1600 1
255
2 106 161
2 100 152
2 97 148
2 100 152
2 103 156
2 100 154
2 103 156
2 99 150
2 100 151
2 92 139
2 103 155
2 101 154
2 96 148
2 96 147
2 101 153
2 99 150
2 102 154
2 99 150
2 95 146
2 91 140
2 99 149
2 100 150
2 102 156
2 98 149
2 97 146
2 97 146
2 100 152
2 96 146
2 93 139
2 98 147
2 90 136
30 97 142
50 101 145
58 104 145
65 107 148
84 116 150
91 118 150
110 129 153
112 129 154
118 135 159
121 138 161
117 133 156
117 134 157
113 130 153
114 131 154
116 132 156
117 134 158
115 132 155
117 134 157
121 139 162
124 142 165
123 140 164
118 137 161
117 135 159
121 139 162
119 138 161
123 141 166
118 135 159
123 141 165
124 141 165
120 138 163
126 145 170
120 138 162
125 142 166
125 143 168
124 142 166
124 143 167
121 140 166
125 144 169
126 144 168
123 142 166
119 137 161
125 143 166
123 141 165
123 141 165
123 140 165
122 140 165
125 142 165
123 140 165
128 146 170
126 145 168
122 142 166
128 147 172
124 143 169
128 145 168
127 144 168
125 142 166
124 141 164
125 143 168
127 145 170
126 144 167
124 141 165
125 143 167
127 144 167
122 140 165
125 145 170
127 146 171
128 144 168
128 145 169
131 149 173
127 144 168
124 142 165
124 142 165
125 142 166
127 147 171
128 146 171
125 143 167
129 147 172
128 146 171
127 144 168
123 141 165
125 144 168
124 143 166
126 143 167
128 147 171
128 147 171
130 148 173
131 149 173
126 145 169
129 147 172
125 143 168
128 145 169
130 148 173
131 150 175
130 149 174
129 148 173
132 150 175
130 148 173
132 151 175
128 147 172
131 149 173
130 147 170
132 150 174
128 146 170
127 145 170
125 144 169
129 147 170
127 145 170
130 148 173
134 152 177
129 148 173
130 148 172
127 147 170
129 147 171
128 147 171
125 143 168
127 146 171
131 151 175
133 151 175
133 151 175
130 149 173
127 145 169
132 150 174
134 151 174
128 146 170
132 150 174
132 151 176
128 146 169
130 148 173
129 145 169
129 147 171
132 150 175
130 148 172
130 148 172
127 145 170
129 148 172
128 147 171
131 149 172
132 151 175
133 151 176
130 148 172
131 150 174
129 148 171
131 150 174
130 148 172
133 150 174
129 147 171
130 149 173
132 150 174
129 148 172
135 153 176
132 150 174
135 154 179
132 149 173
131 150 175
132 150 174
130 148 172
130 150 174
132 150 174
130 148 172
131 148 171
132 151 176
131 148 171
131 149 174
132 151 176
131 149 173
132 150 174
129 147 169
131 149 172
128 145 168
132 151 175
135 153 177
131 149 174
132 150 174
132 150 174
131 148 171
133 151 174
131 150 174
133 152 176
129 146 171
128 146 170
132 150 173
134 152 176
134 153 177
129 148 172
133 152 176
133 151 176
131 148 171
132 150 174
133 151 175
131 150 173
129 147 171
133 152 176
134 152 177
134 152 176
132 149 173
135 152 175
130 149 172
132 150 174
134 152 176
130 148 171
129 147 170
132 150 174
134 151 175
132 150 173
132 150 174
129 148 170
132 150 174
129 148 173
132 150 174
132 151 176
133 151 175
128 146 170
131 149 173
132 150 174
132 149 173
132 150 175
128 146 169
135 152 175
131 150 175
133 151 175
134 152 177
132 150 172
133 150 174
132 150 174
130 148 172
134 153 178
133 151 174
134 153 177
131 148 171
135 154 178
131 148 172
130 150 173
132 150 174
133 151 175
133 151 176
128 146 170
131 148 171
132 151 175
132 151 175
129 146 169
132 150 173
133 151 175
133 151 175
131 150 173
131 147 171
131 149 173
132 148 171
134 152 177
133 150 174
131 148 171
131 149 173
130 149 173
131 150 174
130 149 173
129 146 170
129 147 170
133 151 174
133 152 176
133 152 176
133 152 176
132 149 173
130 149 172
132 150 174
130 148 172
131 151 176
130 148 171
127 145 169
131 149 174
133 151 175
131 148 171
133 151 175
134 152 177
131 149 172
128 144 165
130 148 171
130 148 172
130 147 170
133 151 174
129 147 168
133 153 177
131 148 171
133 152 175
133 151 176
128 145 167
133 150 174
132 148 171
132 150 174
131 150 174
134 153 177
132 151 176
130 148 171
129 147 170
134 152 176
127 144 167
131 148 169
130 147 169
128 144 167
132 150 174
134 153 176
133 151 175
134 151 174
128 146 170
127 145 168
130 148 170
134 152 176
132 151 174
131 148 171
130 147 170
133 151 175
130 147 169
132 150 173
132 148 170
131 149 173
134 151 175
132 150 173
130 148 171
133 151 176
130 148 171
128 146 168
130 148 170
127 145 168
131 150 173
130 148 171
128 146 170
130 147 170
131 150 173
130 148 172
132 150 173
131 148 170
134 152 175
127 145 169
130 147 171
131 148 171
128 145 167
130 148 171
128 145 167
128 145 167
126 142 164
127 144 166
128 144 167
133 151 175
130 147 170
131 150 173
131 149 173
130 147 169
131 149 173
131 149 171
127 145 168
126 144 166
131 148 171
133 151 176
129 147 170
132 150 174
129 147 170
129 146 170
129 147 170
126 143 165
129 146 169
133 150 174
129 148 170
130 146 170
128 145 168
130 147 170
128 144 167
131 148 171
130 148 171
132 148 170
129 147 172
128 145 167
130 147 170
129 146 169
131 148 172
129 147 170
131 148 171
130 149 172
129 147 171
128 145 167
131 147 169
131 148 172
127 145 167
128 146 168
128 145 168
133 152 176
129 147 170
128 145 167
131 148 170
131 148 171
128 146 168
131 149 172
131 149 173
129 147 171
126 140 161
130 148 171
126 142 163
129 142 162
124 131 147
119 118 132
111 101 107
115 106 114
107 87 86
108 80 72
99 72 64
108 74 64
108 76 65
103 72 62
102 71 61
110 76 64
106 74 63
105 73 62
106 74 64
103 72 61
101 70 60
108 75 64
102 71 60
107 74 63
112 77 66
108 75 62
106 75 64
107 74 63
107 74 63
104 72 61
108 75 64
106 73 62
105 74 63
104 73 62
107 75 65
110 77 65
103 72 62
109 76 65
101 70 60
106 74 63
104 73 62
106 74 63
109 75 64
108 75 64
108 75 64
106 73 63
104 72 61
103 72 63
99 70 62
102 71 66
106 74 70
96 68 69
90 64 72
86 61 80
91 63 78
85 59 88
86 60 83
79 55 88
78 54 91
78 55 91
68 48 98
69 49 98
71 50 100
57 40 103
47 34 106
54 37 106
37 28 108
41 29 111
40 29 110
24 19 113
18 15 115
21 17 116
19 16 116
11 12 116
11 12 116
11 12 115
12 12 118
11 12 115
11 12 116
11 12 117
11 12 117
11 12 115
11 12 117
11 12 115
11 12 116
11 12 115
11 12 116
11 12 117
11 12 115
11 12 117
11 12 117
11 12 116
11 12 118
11 12 116
11 12 116
11 12 116
11 12 117
11 12 116
11 12 116
11 12 116
11 12 116
11 12 117
11 12 117
12 12 118
11 12 117
11 12 117
11 12 118
11 12 116
11 12 116
11 12 117
11 12 117
11 12 117
11 12 117
11 12 116
11 12 117
11 12 115
11 12 116
11 12 115
11 12 115
11 12 116
11 12 116
11 11 112
11 12 117
11 12 114
11 12 117
17 19 116
25 29 119
23 25 116
36 40 120
49 56 124
50 56 124
47 54 123
58 65 126
74 84 135
69 79 131
81 93 138
82 93 137
85 94 137
93 107 145
99 112 150
99 112 148
104 120 154
110 126 155
104 119 151
105 120 150
120 137 164
117 135 162
125 142 163
128 147 171
127 145 167
128 146 170
129 147 168
127 144 166
128 145 166
128 146 167
128 146 170
128 146 168
127 146 168
129 147 168
123 140 159
126 144 167
126 145 167
127 145 168
129 147 169
130 147 169
130 149 171
129 145 168
123 142 163
130 149 171
129 148 168
128 146 167
126 147 166
130 148 167
129 149 168
125 143 165
125 144 164
132 150 171
127 145 166
128 148 168
129 149 169
122 141 160
128 145 167
124 142 162
127 145 166
127 145 167
129 148 169
129 148 169
126 146 167
126 146 167
129 147 169
132 150 172
126 144 164
130 149 168
129 150 171
125 145 163
126 144 166
125 143 162
129 148 168
127 146 166
125 145 165
128 148 170
124 142 162
128 146 168
131 150 173
130 150 171
127 144 166
130 151 171
129 149 168
130 149 170
125 144 166
124 144 163
123 143 165
124 145 162
131 150 172
127 148 168
126 146 166
126 146 168
123 143 163
126 147 166
130 151 170
127 146 168
129 148 170
123 143 161
122 142 161
124 142 161
124 143 162
132 151 174
127 147 167
129 149 170
126 146 166
125 144 165
124 144 161
127 146 166
130 150 171
124 144 164
122 141 158
122 142 161
126 146 165
126 145 167
125 144 164
128 148 168
123 142 160
122 143 160
127 148 165
123 142 162
127 147 169
125 145 164
125 146 165
125 144 163
123 142 161
125 145 164
129 149 169
112 132 152
111 132 159
103 122 150
90 113 150
73 99 144
63 91 143
52 79 133
40 74 136
39 72 134
37 69 128
38 71 132
40 73 136
39 71 132
41 75 138
38 71 132
40 75 139
41 75 139
40 74 137
39 72 134
39 72 134
41 75 139
40 73 136
42 77 140
38 71 132
42 78 145
42 77 140
39 73 135
41 76 140
40 74 137
41 76 141
39 72 133
41 75 138
40 73 135
43 79 145
39 73 135
43 79 146
38 70 130
39 73 134
41 74 138
42 77 141
41 76 142
41 76 140
40 74 136
42 77 141
41 75 138
40 75 139
41 75 139
39 72 133
41 75 138
41 75 138
40 74 136
41 76 140
40 74 137
39 72 132
39 71 132
39 72 134
40 73 134
42 77 140
41 74 137
41 75 137
39 71 131
41 75 137
41 75 136
40 74 137
39 71 130
41 75 135
41 74 136
40 72 134
39 70 128
40 73 136
40 71 129
40 72 132
39 70 129
37 68 125
39 69 126
39 71 129
39 71 129
39 71 130
37 67 124
39 70 126
37 67 124
41 73 133
40 73 134
39 69 124
40 73 134
38 68 122
40 72 132
38 68 125
38 68 124
40 74 135
36 64 118
38 68 124
38 67 120
37 67 122
39 69 127
39 70 130
46 68 119
54 75 129
58 77 129
76 81 122
67 79 119
89 84 112
114 99 117
114 107 125
131 118 133
152 136 143
149 134 140
147 132 137
158 140 143
161 145 150
178 160 163
173 156 159
180 164 167
186 170 172
182 167 171
185 170 174
187 172 176
192 178 181
197 182 186
192 177 182
199 184 188
192 178 183
196 182 187
205 189 192
198 183 189
200 187 191
203 188 192
205 190 194
200 186 191
201 186 191
202 187 192
202 189 194
204 189 194
202 189 194
201 188 194
201 188 194
201 188 194
200 187 193
199 187 194
200 188 194
201 189 195
201 189 195
200 188 194
200 188 195
201 189 195
200 188 195
200 188 195
198 188 195
200 188 195
198 188 195
199 188 195
199 188 195
198 187 195
197 187 195
198 187 195
196 187 195
198 187 195
195 186 195
197 187 195
197 187 195
196 187 195
196 186 195
196 187 195
198 187 195
197 187 195
197 187 195
196 187 195
196 187 195
196 187 195
196 187 195
197 187 195
196 186 195
196 187 195
197 187 195
197 187 195
195 186 195
197 187 195
197 187 195
197 187 195
197 187 195
198 187 195
196 187 195
197 187 195
198 187 195
197 187 195
198 188 195
197 187 195
198 187 195
199 188 195
198 188 195
198 188 195
199 188 195
200 188 195
201 189 195
200 188 195
202 189 195
201 189 195
201 189 195
202 189 195
202 189 195
201 189 195
202 189 195
203 190 195
204 190 195
205 190 195
204 189 195
202 189 194
203 189 195
201 187 192
198 186 190
203 186 191
199 184 188
202 186 190
197 182 187
199 183 187
198 183 185
193 177 181
189 174 178
188 173 176
188 172 176
191 174 179
190 173 180
178 161 167
177 159 166
185 168 175
187 171 175
182 166 171
166 152 156
163 151 153
159 146 150
176 156 156
163 151 151
160 146 142
144 134 135
142 131 136
139 133 139
130 130 139
135 135 147
127 127 139
127 131 145
129 143 164
123 138 158
126 143 165
125 142 162
124 141 162
128 145 166
126 143 161
127 143 165
124 142 162
129 146 169
124 139 158
125 141 162
122 138 158
126 143 164
127 144 165
130 146 166
126 142 162
126 143 164
126 142 161
128 144 162
128 144 167
126 144 163
127 145 165
129 147 168
127 142 162
128 145 167
127 143 164
127 143 165
129 147 168
128 144 165
125 141 160
129 146 166
123 139 158
124 139 159
126 141 163
129 146 165
128 145 166
124 139 158
124 140 160
125 141 161
127 143 162
126 143 162
126 142 163
122 137 155
127 143 164
119 134 152
123 141 160
126 142 163
125 142 163
127 144 166
125 140 157
120 136 155
127 143 163
129 145 163
127 143 164
131 148 169
125 142 161
125 141 160
121 137 156
127 143 160
124 141 158
123 139 158
128 146 164
122 139 158
127 144 163
130 145 165
119 135 152
130 146 167
127 143 163
126 142 162
127 143 164
126 142 164
126 145 163
128 145 165
125 141 158
123 140 155
126 145 165
127 145 165
121 136 152
126 142 161
125 143 159
117 132 149
126 143 163
124 141 160
131 148 168
127 144 164
128 146 165
126 144 163
123 140 156
120 136 154
125 142 162
126 143 161
126 144 163
125 141 159
123 138 158
125 141 160
129 145 166
127 144 165
124 141 160
126 145 163
126 144 163
125 142 162
126 143 159
128 145 164
128 145 165
122 139 158
125 143 162
123 139 159
126 143 162
127 144 161
124 141 158
127 144 162
126 144 161
125 141 162
123 140 158
125 141 160
125 142 159
124 142 161
127 145 163
125 143 161
123 141 159
129 146 167
125 141 160
122 141 156
122 140 156
122 139 156
126 143 162
123 139 158
121 137 153
130 147 167
125 142 160
123 140 161
126 145 160
122 139 154
122 139 155
119 135 151
125 140 158
126 143 162
125 141 161
121 139 151
122 140 152
123 141 158
122 139 157
127 145 165
123 139 155
124 141 159
117 134 149
121 139 154
122 139 155
122 141 154
121 138 155
122 138 157
121 137 152
123 141 155
125 143 161
125 143 160
119 137 154
121 137 154
115 134 143
124 143 160
113 131 144
122 139 155
121 139 155
122 141 153
121 140 155
127 145 164
125 142 160
122 140 157
122 139 158
125 143 157
125 140 155
117 136 147
116 135 146
120 137 153
126 145 162
118 136 151
121 139 158
125 142 158
123 140 156
124 140 155
120 139 154
122 140 153
123 142 157
125 143 159
123 141 156
123 142 155
124 144 158
124 142 158
121 140 152
119 138 150
122 140 157
121 140 152
121 140 154
121 140 154
124 142 156
124 142 156
121 139 153
125 142 161
116 136 148
123 142 158
123 141 158
124 142 159
125 144 159
119 136 153
121 141 154
120 139 151
118 137 151
121 141 154
119 138 150
121 140 155
127 147 163
121 140 155
121 141 154
119 138 154
120 139 154
124 144 161
117 136 149
118 139 150
125 145 160
121 141 156
125 143 162
117 136 149
119 138 152
119 138 153
117 136 149
124 143 159
124 143 160
121 140 156
122 142 156
120 140 154
120 138 153
123 141 160
122 142 158
123 142 157
120 141 154
121 141 155
123 142 160
124 142 160
123 141 156
120 139 155
120 140 153
123 143 158
124 144 159
122 141 158
122 140 157
121 141 155
122 143 157
124 142 160
120 140 154
124 142 158
122 140 156
120 140 152
123 141 159
122 142 154
122 142 157
122 143 155
127 146 163
123 141 159
126 145 159
120 140 154
119 139 151
119 138 155
121 140 155
124 143 161
119 136 151
119 137 151
125 145 161
126 144 161
120 139 154
127 146 165
125 145 164
123 142 160
123 140 159
120 137 154
122 141 155
121 140 157
125 144 160
119 136 151
121 140 150
127 144 164
124 142 160
122 140 154
125 143 160
126 144 163
125 145 160
122 141 156
120 138 153
125 142 161
124 141 158
124 142 162
121 139 156
131 150 170
123 142 156
126 143 160
123 143 161
120 139 156
125 141 161
124 142 163
124 141 159
126 144 163
129 148 166
122 141 159
123 140 157
122 140 157
119 136 152
124 140 160
128 145 165
125 142 161
124 142 160
126 143 161
123 141 158
122 139 158
127 145 162
126 143 162
128 146 166
124 141 160
123 141 159
120 138 155
122 138 154
124 140 158
123 140 159
124 141 161
123 141 159
123 139 158
125 142 163
129 146 166
126 142 161
126 143 164
127 145 166
126 143 162
124 142 162
125 142 161
120 137 156
111 127 145
108 124 140
103 119 136
90 106 120
80 96 110
71 86 100
57 70 82
46 62 73
24 44 55
5 35 45
5 36 46
5 36 46
5 35 46
5 36 47
5 35 45
5 36 47
5 34 45
5 37 48
5 34 45
5 36 47
5 34 45
5 35 45
5 37 48
5 35 46
5 35 46
5 36 47
5 34 44
5 35 46
5 36 47
5 36 47
5 36 46
5 35 46
5 37 48
5 36 46
5 35 46
5 36 48
5 37 49
5 35 45
5 36 47
5 36 47
5 36 47
5 36 47
5 35 46
5 37 48
5 36 47
5 37 48
5 35 46
5 35 45
5 36 48
5 36 47
5 36 47
5 36 47
5 36 47
5 37 48
5 36 47
5 38 49
5 35 46
5 36 47
5 36 47
5 37 47
5 36 47
5 37 48
5 35 46
5 35 46
5 37 48
5 36 47
5 34 45
5 36 47
5 36 47
5 37 48
5 37 48
5 37 48
5 37 48
5 36 47
5 37 48
5 36 47
5 36 47
5 35 47
5 34 45
5 37 48
5 35 46
5 34 45
5 33 44
5 35 47
5 36 47
5 36 48
5 35 46
5 35 47
5 35 46
5 36 48
5 34 46
5 33 45
5 34 46
5 34 45
5 34 45
5 35 46
5 36 48
5 33 44
5 32 44
5 32 44
5 34 46
5 33 45
5 31 42
5 32 43
5 33 44
5 30 42
5 31 44
5 29 40
26 29 44
48 30 53
85 31 73
85 33 75
88 32 77
119 36 97
127 37 102
130 38 102
125 37 99
151 41 117
149 40 118
156 41 120
167 43 129
171 44 131
173 44 132
164 42 127
170 44 131
177 45 135
170 44 131
176 45 134
175 45 134
173 45 134
175 45 134
175 45 135
177 46 136
172 44 132
179 46 139
168 43 131
174 45 135
178 46 137
175 45 135
177 46 137
176 45 135
174 45 135
173 45 134
175 45 134
176 45 135
176 46 137
179 46 137
171 44 133
178 46 137
177 46 137
179 46 138
178 46 136
175 45 135
175 45 136
175 45 135
177 46 137
178 46 138
178 46 137
178 46 137
173 45 133
178 46 138
183 47 140
180 47 140
176 46 135
175 45 134
180 47 140
180 47 139
178 46 137
180 47 139
181 47 139
181 47 140
177 46 137
179 46 137
182 47 140
177 46 137
180 46 138
176 46 137
178 46 138
179 46 139
181 47 141
179 46 139
178 46 136
179 47 139
176 46 136
175 46 136
178 46 137
179 47 139
180 47 138
179 47 139
181 47 141
178 46 138
181 47 137
178 46 139
180 47 140
181 47 140
177 46 137
180 47 139
179 46 138
180 47 138
179 46 138
180 47 139
178 46 139
179 47 140
179 46 138
176 46 136
178 46 138
180 47 140
175 46 137
179 46 139
176 46 134
181 47 140
182 47 139
174 45 135
176 46 136
179 46 138
180 47 139
182 47 140
180 47 139
176 46 136
177 46 137
173 45 134
174 45 134
175 46 137
176 46 135
175 45 135
175 46 135
178 46 137
177 46 136
178 46 136
167 44 130
160 43 128
163 43 127
155 42 126
138 39 117
142 39 118
130 38 114
128 37 111
116 35 106
97 33 99
98 32 99
99 32 100
96 33 101
97 33 100
96 33 102
97 51 106
97 54 106
103 74 119
104 80 121
110 104 136
112 114 140
121 128 156
124 133 159
122 135 163
126 141 166
129 143 166
122 136 160
124 138 165
125 139 163
128 145 169
125 140 166
126 140 166
126 141 164
124 139 164
126 141 164
125 140 164
124 139 160
126 140 164
122 138 162
125 140 165
126 142 166
124 139 164
124 138 163
123 140 165
126 141 165
124 139 163
124 137 161
128 143 168
125 140 163
126 142 166
130 147 172
126 141 165
125 139 164
124 138 163
126 141 166
126 142 167
126 143 168
124 140 165
124 138 164
126 142 164
129 144 170
130 147 170
125 139 163
129 145 171
125 140 164
126 143 166
126 142 166
129 145 170
129 144 169
125 138 162
129 144 171
128 145 170
127 141 165
126 141 166
129 145 168
128 144 169
127 141 165
130 147 172
129 144 168
130 146 171
123 139 163
124 140 163
124 137 161
124 139 163
127 144 168
127 143 167
131 147 170
129 145 172
128 143 167
129 146 169
124 140 166
125 141 166
129 145 171
124 138 162
128 143 168
130 147 172
127 144 168
128 145 171
131 148 172
129 146 171
132 148 173
130 147 172
131 147 171
128 143 168
130 147 172
128 143 169
131 147 171
128 144 169
130 146 170
130 148 172
129 146 170
127 145 169
126 143 166
130 147 172
125 140 165
129 146 171
130 145 168
130 147 172
129 145 169
130 148 174
127 144 169
129 146 172
129 145 168
131 147 170
