P3
1600 1
255
2 104 157
2 101 152
2 99 151
2 96 146
2 102 155
2 101 153
2 100 153
2 100 152
2 90 138
2 95 145
2 100 152
2 98 149
2 95 144
2 96 144
2 94 143
2 99 152
2 95 146
2 102 154
2 94 143
2 96 146
2 93 142
2 91 140
2 93 142
2 99 149
2 95 143
2 97 146
2 98 148
2 96 145
2 92 140
27 91 136
56 105 147
64 106 144
72 109 146
94 123 156
94 117 147
108 128 155
111 127 150
115 132 155
118 136 160
114 130 153
120 137 161
119 135 159
112 128 150
116 133 156
115 132 155
123 141 165
118 137 161
116 132 154
115 131 154
116 134 157
119 136 160
118 136 161
116 133 158
122 140 164
118 136 159
126 144 169
117 134 159
121 139 163
121 139 162
120 137 161
125 144 168
122 139 163
120 135 157
125 144 168
125 144 168
122 140 165
122 141 166
121 139 164
126 146 170
123 141 166
120 137 160
126 143 167
124 143 167
128 146 170
124 142 167
122 140 165
125 143 167
124 141 165
127 145 170
124 142 165
119 137 161
130 150 175
122 141 166
121 139 162
127 145 169
124 143 167
123 141 165
126 144 170
125 143 168
127 145 169
126 143 168
131 149 173
125 144 168
123 141 165
125 145 170
129 147 171
124 141 165
130 148 171
129 148 172
126 145 170
122 140 164
124 143 168
125 142 166
124 142 166
127 146 171
124 142 165
127 144 168
126 144 168
123 142 167
127 145 169
127 145 169
125 143 166
127 145 169
127 146 169
133 153 178
130 148 172
127 145 169
129 148 173
127 146 169
126 143 167
129 147 171
129 148 172
128 146 171
132 150 175
131 150 175
128 146 170
130 149 173
131 150 175
129 147 171
131 149 173
131 150 174
130 147 171
126 144 169
127 146 171
128 146 170
126 145 169
129 146 170
134 152 176
130 149 173
133 152 176
124 144 167
132 150 173
129 148 172
127 144 168
128 147 173
132 151 176
133 153 176
130 148 171
130 149 174
130 148 172
126 144 168
132 150 174
131 148 172
130 148 172
133 150 174
130 148 172
126 144 167
131 147 171
130 149 173
132 150 174
131 149 173
131 149 173
126 145 169
127 145 170
130 150 174
126 145 169
131 149 173
130 148 172
132 151 175
131 150 173
131 150 173
128 146 169
128 145 168
130 149 174
131 149 173
128 147 171
132 150 174
130 149 173
132 150 174
132 150 174
133 152 176
132 151 176
133 151 175
131 150 175
130 148 172
132 151 176
131 150 175
133 152 177
129 147 171
130 148 172
132 150 174
130 147 170
131 150 175
133 151 175
132 150 174
131 149 174
132 149 171
130 148 172
132 149 173
133 152 176
134 152 176
131 150 175
130 148 171
133 151 175
132 150 173
135 153 176
130 148 173
132 151 176
126 144 169
130 148 171
131 149 173
135 153 177
134 153 178
132 151 175
132 150 174
131 150 175
131 148 172
131 148 172
134 152 176
131 150 174
130 147 170
133 151 176
132 151 176
133 150 173
133 150 173
135 153 176
130 149 172
132 151 174
133 152 176
132 149 173
128 146 170
130 148 172
133 150 173
134 152 176
127 144 168
130 148 172
133 152 176
129 148 172
130 149 173
132 151 176
133 152 176
130 147 171
132 150 173
132 149 174
132 150 173
132 151 175
132 150 174
133 151 175
132 151 177
130 148 172
133 151 175
131 148 171
134 151 175
131 150 175
131 150 174
134 153 176
134 153 177
135 152 175
132 150 174
135 154 178
131 148 171
131 149 173
133 150 172
134 152 176
131 150 174
130 147 170
131 149 173
133 151 175
130 149 173
130 148 170
135 153 177
132 150 174
135 153 178
131 149 172
131 148 171
130 147 171
130 147 171
134 152 175
132 150 174
131 148 172
130 148 172
132 150 174
131 149 173
131 149 174
132 150 173
130 147 171
131 149 173
133 152 176
132 151 175
134 153 177
131 150 173
131 149 172
131 149 174
130 149 173
132 150 174
127 145 168
133 151 175
127 144 168
134 152 175
132 151 174
133 151 176
133 151 176
133 150 173
130 148 171
130 148 172
128 145 169
132 149 173
133 151 174
129 147 169
131 150 175
132 150 173
133 151 175
131 149 173
130 145 167
134 151 174
131 148 171
131 149 172
132 151 175
133 152 176
134 152 176
131 149 173
129 147 169
132 150 174
131 149 172
128 145 168
130 147 170
128 145 168
135 154 177
133 150 174
132 150 173
134 152 176
132 148 172
128 146 169
131 148 171
135 153 177
132 150 173
130 147 170
132 151 175
132 150 175
130 146 169
132 149 172
131 148 170
132 150 175
134 152 175
132 150 173
130 148 171
131 149 173
129 147 170
127 144 166
130 148 171
130 147 169
131 150 174
129 146 168
133 150 174
130 146 168
133 151 175
132 150 173
132 149 172
133 149 172
134 152 175
128 145 169
131 149 173
129 146 169
128 144 166
130 148 172
131 149 172
129 145 167
129 145 168
129 147 169
129 146 168
133 150 174
131 148 171
131 149 172
132 150 173
133 150 172
132 150 174
131 149 172
128 146 169
130 147 170
130 147 170
134 152 176
133 151 174
134 152 176
126 143 165
130 148 171
129 146 169
124 140 162
131 148 171
131 149 173
129 147 169
130 147 171
127 144 166
131 148 172
128 144 167
130 147 170
129 147 170
130 146 169
129 146 171
129 146 168
130 146 169
128 146 170
130 149 174
129 145 168
130 147 170
127 145 167
130 148 172
128 145 168
127 143 165
132 149 173
126 142 163
126 144 165
129 146 168
131 149 173
130 148 171
128 144 166
130 146 168
130 148 172
129 145 167
129 147 170
130 148 172
127 144 166
127 142 163
125 142 164
129 145 168
125 142 166
130 148 171
128 144 167
125 139 160
128 140 159
119 125 141
120 120 134
116 115 127
105 94 100
107 89 90
107 81 78
104 72 60
100 69 59
105 73 62
101 70 59
104 73 62
102 70 60
107 75 63
101 70 59
96 67 57
102 71 61
106 73 63
104 73 63
100 70 60
108 75 64
100 70 59
107 74 63
104 72 61
103 71 61
103 72 62
101 70 61
107 74 63
101 71 60
102 71 61
104 72 62
106 74 63
105 73 63
101 70 61
101 71 61
105 73 63
104 72 61
104 72 62
103 72 63
106 74 66
95 67 70
97 68 71
91 64 74
89 62 82
77 53 81
82 58 88
68 47 93
73 51 93
69 50 98
64 46 98
61 43 99
44 31 108
48 34 105
46 33 104
43 31 109
37 27 109
26 20 113
19 15 115
11 12 113
15 14 116
11 12 114
11 12 114
11 12 116
11 12 114
11 12 116
11 12 116
11 12 117
11 12 117
11 12 114
11 12 117
11 12 117
11 12 116
11 12 115
11 12 116
11 12 117
11 12 116
11 12 117
11 12 116
12 12 116
11 12 115
11 12 115
11 12 116
11 12 116
11 12 115
11 12 116
11 12 116
11 12 117
11 12 116
11 12 115
11 12 114
11 12 115
11 12 115
11 12 117
11 12 115
11 12 117
11 12 117
11 12 116
11 12 117
11 12 117
11 12 116
12 12 117
11 12 115
11 12 116
11 12 117
11 12 116
12 12 117
11 12 117
11 12 116
11 12 117
11 12 115
11 12 114
11 12 114
11 12 116
11 12 117
11 12 116
11 12 113
11 12 116
11 12 113
11 12 116
11 12 115
11 12 116
11 12 115
11 12 115
11 12 114
11 12 113
11 12 113
11 11 112
11 12 115
21 24 116
37 42 119
29 34 119
39 42 116
52 60 124
62 70 127
69 79 132
73 83 133
76 87 136
80 91 140
87 99 142
93 106 144
99 113 148
106 121 154
106 120 151
108 124 152
119 136 163
118 134 158
123 139 161
123 139 159
126 143 165
126 143 166
123 141 161
129 147 169
128 144 165
124 140 161
128 146 169
122 139 161
127 145 167
127 144 166
130 147 170
130 149 171
129 145 168
125 142 165
129 148 170
129 148 168
130 148 170
127 146 167
128 147 164
125 144 163
125 142 162
126 144 165
126 144 165
127 146 167
126 145 163
127 146 167
126 143 165
128 146 168
127 145 165
120 139 159
127 144 165
130 149 169
127 145 167
126 146 167
128 147 169
128 145 167
127 144 164
128 148 167
129 147 170
127 148 167
128 147 167
126 144 164
125 144 166
128 146 167
124 144 165
129 148 171
127 146 166
125 144 165
129 147 170
128 146 168
130 148 171
129 148 169
127 147 168
131 150 171
129 147 170
126 144 165
123 143 163
121 140 161
127 146 165
129 148 171
124 144 165
130 147 168
124 144 164
126 145 167
127 148 167
130 149 168
126 144 164
128 146 169
123 144 160
121 140 160
126 143 162
127 146 168
129 148 171
128 146 165
126 145 165
128 146 169
125 143 164
126 145 165
125 145 167
128 147 167
124 144 162
124 141 161
125 144 164
128 148 169
127 146 167
125 145 166
125 144 164
127 145 166
123 143 161
124 145 163
127 146 166
126 145 169
122 142 162
127 146 167
121 140 158
127 146 166
124 144 165
131 149 172
123 142 158
119 138 159
119 139 161
105 125 149
100 119 147
85 109 152
70 91 132
57 86 138
40 71 131
35 64 119
37 69 128
37 70 131
39 73 134
39 72 133
37 68 127
39 73 135
39 72 133
38 71 130
36 68 127
39 72 134
40 73 137
39 73 135
41 75 137
38 71 132
41 77 141
41 75 137
39 74 138
40 74 135
39 72 134
39 70 131
37 69 128
40 75 138
41 75 138
41 76 140
38 71 131
38 71 130
38 71 131
39 72 134
39 72 134
40 75 139
40 74 137
40 75 137
41 74 137
41 75 138
40 74 136
39 71 131
36 67 125
39 72 132
41 75 137
39 73 134
38 70 131
41 74 136
38 70 130
43 77 141
38 71 131
38 68 124
39 72 132
38 69 128
40 72 132
41 74 137
43 78 142
41 75 137
39 71 131
40 73 134
38 69 127
40 73 134
40 74 136
40 72 132
38 70 129
39 72 130
40 73 133
39 70 129
37 67 125
39 70 129
36 66 120
38 68 125
40 72 132
38 69 128
37 66 121
39 70 128
38 69 126
36 65 119
39 69 127
37 66 120
37 67 123
38 69 127
39 69 126
39 72 132
35 62 115
37 66 121
38 67 120
36 64 117
39 71 130
37 67 123
38 67 121
40 70 126
42 67 120
74 74 115
75 75 110
68 78 115
90 91 125
106 104 130
123 114 127
141 125 134
139 125 134
147 130 135
149 133 138
155 141 147
165 149 153
163 147 150
172 156 159
174 157 159
179 161 163
174 159 163
188 172 176
189 175 177
190 173 176
189 173 176
193 178 181
193 177 180
187 172 177
188 174 178
192 178 182
194 179 183
191 177 181
190 175 179
188 174 179
196 182 187
200 183 187
200 186 191
196 182 187
195 181 186
196 181 187
193 179 185
196 183 189
193 180 186
193 179 185
197 183 190
198 184 190
204 190 194
200 186 192
205 190 195
203 190 195
204 190 195
203 190 195
201 188 194
203 190 195
202 189 195
201 189 195
202 189 195
200 189 195
202 189 195
199 188 195
200 188 195
201 189 195
200 188 195
200 188 195
200 188 195
202 189 195
201 189 195
201 189 195
200 188 195
200 188 195
200 188 195
200 188 195
201 189 195
199 188 195
200 188 195
200 188 195
200 188 195
198 188 195
200 188 195
200 188 195
200 188 195
200 188 195
200 188 195
199 188 195
200 188 195
201 189 195
200 188 195
201 189 195
200 188 195
199 188 194
201 189 195
200 189 195
201 189 195
200 188 194
202 189 195
203 190 195
202 189 195
204 190 195
202 189 194
201 188 193
199 186 192
202 189 194
202 189 194
204 190 195
203 189 194
203 189 194
205 191 194
205 191 195
203 188 194
203 189 194
201 188 192
200 185 190
202 188 192
203 188 191
202 186 191
199 184 188
196 181 185
199 181 185
199 182 185
192 176 180
188 171 175
191 173 176
191 175 179
188 169 174
183 165 169
181 165 170
184 167 171
193 175 179
178 160 168
184 165 172
173 157 162
174 158 163
180 163 167
180 165 168
172 157 161
169 155 158
169 154 158
171 156 159
158 144 148
149 138 137
160 144 142
137 123 129
145 129 133
137 127 133
129 127 135
126 124 136
129 133 144
127 136 151
128 139 159
131 146 166
125 141 162
128 142 163
124 140 160
125 141 161
126 143 164
129 147 166
126 142 162
128 145 166
126 141 161
126 142 160
127 144 167
125 143 162
125 144 164
126 144 164
123 140 159
130 148 169
127 143 163
128 145 165
127 144 165
125 142 163
129 145 167
127 145 164
124 140 158
125 141 159
124 140 161
129 146 167
128 145 166
125 140 161
124 141 161
126 142 162
126 142 159
128 144 164
123 139 158
126 140 160
131 148 171
120 135 153
124 141 160
125 141 161
128 144 165
127 143 164
127 145 166
124 140 160
129 145 164
127 144 163
129 146 165
130 147 168
128 144 164
124 142 161
125 140 160
124 141 162
126 142 159
128 146 165
126 143 160
128 145 167
126 142 163
128 143 163
128 146 164
129 146 168
127 142 163
124 139 160
127 145 165
129 146 167
127 144 165
125 144 165
126 141 160
128 145 165
127 143 161
130 148 168
127 144 165
123 140 158
122 139 158
125 141 159
123 140 159
125 141 161
126 143 163
126 142 162
132 149 171
129 146 166
130 147 167
123 140 159
124 141 160
120 138 155
126 142 162
125 140 157
128 146 166
125 141 159
125 140 160
124 141 161
130 147 168
130 147 169
125 142 162
123 141 158
124 140 159
129 147 168
125 142 160
131 149 169
131 147 168
124 140 159
123 141 159
126 141 162
128 145 165
130 148 167
126 143 161
129 146 167
128 146 165
126 143 163
125 142 162
125 142 162
128 145 165
128 146 166
126 143 163
131 149 170
130 148 170
123 142 159
131 148 169
130 147 168
121 138 153
126 143 160
125 141 159
124 140 159
131 148 168
125 143 160
127 145 163
129 146 166
125 142 160
127 144 166
125 142 162
125 140 158
121 137 155
123 139 159
124 140 158
129 147 168
127 145 163
125 143 161
125 141 158
128 147 167
122 140 158
126 144 163
127 143 162
125 142 162
123 141 156
123 139 157
127 144 165
124 141 163
128 146 165
123 141 158
124 141 158
129 146 166
124 143 158
124 142 161
126 144 162
122 140 158
123 140 158
120 138 153
125 143 162
121 138 154
123 141 160
121 137 152
127 145 161
124 143 161
128 146 165
129 146 166
126 144 163
125 144 163
127 145 167
125 144 159
126 143 160
120 139 153
121 140 155
128 146 163
123 141 158
122 142 158
123 142 159
127 143 160
125 144 160
125 143 157
122 141 156
122 141 155
123 141 157
125 142 159
127 145 165
123 141 157
127 145 162
127 144 161
125 143 159
125 143 160
122 140 156
129 146 163
123 141 157
122 141 157
126 145 161
125 144 160
122 141 155
123 142 155
126 144 164
124 142 160
122 140 158
123 141 159
128 145 164
127 145 162
126 144 162
122 141 159
126 145 161
123 143 158
126 144 165
120 139 155
126 145 162
127 146 164
129 147 167
125 145 165
125 143 161
122 141 156
119 139 154
126 143 162
130 149 169
120 139 154
123 142 159
127 147 164
123 141 158
122 140 158
121 139 156
126 143 159
125 143 162
124 142 157
125 144 159
127 145 162
125 143 162
122 140 156
123 144 159
126 145 163
124 141 160
126 144 165
125 145 162
127 146 163
125 145 159
125 145 162
127 145 167
126 143 163
124 143 160
124 142 158
126 145 163
122 142 158
125 144 163
123 142 155
123 142 159
126 144 163
121 139 155
127 146 165
126 145 163
119 138 152
128 146 164
126 143 162
122 140 156
125 143 160
127 145 163
126 144 162
121 140 156
124 142 162
126 144 166
126 144 161
124 143 158
120 140 153
119 139 155
128 146 166
125 143 162
125 145 162
125 143 160
124 142 158
126 145 163
128 145 165
124 143 159
131 149 171
128 146 166
127 145 164
126 144 163
125 143 159
123 142 159
123 142 157
125 144 161
125 143 159
123 140 158
123 142 156
123 141 160
128 146 166
125 143 160
122 140 157
125 144 163
128 147 166
124 142 162
123 141 159
123 140 159
127 144 164
126 145 163
123 142 160
130 149 170
126 144 163
128 144 165
126 145 164
122 139 159
127 144 165
127 144 167
126 143 163
122 140 159
128 147 166
128 147 167
127 143 163
127 145 165
122 141 157
125 142 162
123 140 159
128 145 163
125 143 161
125 142 164
125 142 162
127 143 163
122 140 159
127 144 164
127 143 164
127 145 165
127 145 165
123 139 160
123 140 161
123 138 158
127 145 163
127 143 163
124 141 161
125 142 162
124 141 160
124 140 160
114 130 148
111 126 145
99 114 132
83 97 113
74 87 101
61 76 87
51 66 79
35 51 62
14 37 47
5 35 46
5 35 46
5 34 44
5 35 46
5 36 47
5 34 44
5 36 46
5 34 45
5 35 46
5 34 45
5 36 46
5 34 45
5 35 46
5 36 46
5 35 46
5 34 44
5 36 46
5 36 46
5 34 45
5 35 45
5 36 47
5 35 46
5 36 47
5 36 46
5 35 46
5 35 46
5 35 45
5 36 46
5 35 46
5 35 46
5 35 46
5 36 48
5 35 46
5 36 46
5 36 47
5 36 46
5 34 44
5 36 46
5 35 46
5 36 48
5 36 47
5 36 46
5 38 49
5 36 48
5 36 48
5 36 46
5 35 46
5 36 47
5 36 47
5 35 46
5 36 47
5 35 46
5 37 48
5 36 47
5 37 48
5 35 46
5 37 48
5 36 47
5 35 45
5 36 47
5 36 47
5 35 46
5 36 47
5 35 45
5 36 47
5 35 46
5 36 47
5 34 45
5 35 46
5 36 47
5 35 45
5 36 48
5 35 46
5 35 47
5 36 47
5 34 45
5 35 46
5 33 44
5 36 47
5 33 44
5 34 44
5 33 45
5 35 47
5 32 44
5 33 44
5 33 44
5 34 45
5 32 44
5 31 43
5 32 43
5 32 43
5 30 42
5 31 41
5 32 43
5 31 42
5 31 43
5 29 41
27 32 48
54 30 56
59 30 58
87 32 75
85 32 74
103 34 85
104 34 86
132 37 103
139 39 111
141 38 111
141 39 112
156 41 121
167 43 128
165 42 126
168 43 129
168 43 129
173 45 133
168 43 129
170 44 130
168 44 131
172 44 132
172 44 131
167 43 129
169 44 131
172 44 132
177 45 134
181 46 138
175 45 135
175 45 135
178 46 136
174 45 135
171 44 133
177 45 136
174 45 134
178 46 137
174 45 135
172 44 132
177 46 137
173 45 133
174 45 134
175 45 134
175 45 133
165 43 128
175 45 135
173 45 132
167 43 131
179 46 138
178 46 137
176 45 135
176 45 134
171 44 130
175 45 136
177 46 136
173 45 134
181 47 139
177 46 137
178 46 137
174 45 135
174 45 134
185 47 141
177 46 138
171 44 132
179 46 137
176 46 137
177 46 137
175 45 135
182 47 140
173 45 135
179 46 138
176 45 135
181 47 138
181 47 140
178 46 136
182 47 139
173 45 134
180 46 139
172 45 134
181 47 141
180 46 138
178 46 137
175 46 137
177 46 136
178 46 136
176 46 136
177 46 137
180 47 139
179 46 138
182 47 141
180 47 138
183 47 140
176 46 137
177 46 137
182 47 140
174 45 134
176 46 136
180 46 136
178 46 138
180 47 138
175 46 136
182 47 141
177 46 138
175 46 135
180 47 138
177 46 138
182 47 139
182 47 141
178 46 137
179 46 137
179 46 138
175 46 135
176 46 135
175 45 134
182 47 141
176 46 136
180 47 138
173 45 134
179 46 138
172 45 132
175 46 136
171 45 134
176 46 136
174 45 134
173 45 133
174 45 135
173 45 135
176 46 135
169 45 132
166 44 130
167 44 129
166 44 131
151 41 123
148 40 119
137 39 117
132 42 112
116 51 110
114 58 114
117 73 122
113 82 126
106 93 127
109 105 135
112 112 141
109 110 140
118 130 153
123 136 161
119 132 154
127 143 167
122 137 164
120 132 159
119 132 155
126 142 166
123 137 160
123 136 161
126 140 164
124 137 162
120 132 157
125 140 163
127 142 164
125 142 166
129 144 169
122 137 162
123 138 161
125 140 163
122 137 159
121 133 159
124 139 162
125 140 163
130 147 172
125 142 165
125 139 164
123 136 160
124 139 164
124 140 164
127 142 166
128 144 167
124 139 162
127 140 167
125 140 165
126 139 161
126 140 167
126 141 167
124 138 163
119 131 157
126 142 169
124 139 162
130 147 172
126 142 166
123 136 163
128 143 167
129 144 168
121 137 160
127 140 165
126 142 168
128 145 168
127 143 167
128 143 167
129 146 170
127 140 164
129 145 170
125 140 165
128 143 167
126 141 165
129 144 169
130 146 170
129 144 168
128 143 167
129 145 171
130 147 169
124 141 164
125 140 165
123 137 162
126 142 166
125 141 166
129 145 168
127 143 166
129 144 168
130 145 170
129 146 169
128 145 170
129 144 167
130 146 170
127 143 168
130 146 170
127 142 166
131 148 172
128 144 168
128 144 171
127 143 166
131 148 173
133 151 175
132 148 171
133 150 175
129 145 169
129 145 169
128 143 167
123 138 164
131 148 172
131 148 173
127 145 169
126 144 167
128 144 169
127 144 168
130 146 170
128 144 170
131 147 171
131 146 170
130 146 171
129 145 170
132 149 175
