P3
1600 1
255
2 102 154
2 99 150
2 96 146
2 97 148
2 99 150
2 95 144
2 99 151
2 93 141
2 95 145
2 95 145
2 93 143
2 97 148
2 96 147
2 92 140
2 95 145
2 101 152
2 99 150
2 93 141
2 94 144
2 98 150
2 94 143
2 96 147
2 89 137
2 99 149
2 91 138
2 96 147
2 100 151
2 90 137
30 97 143
55 100 139
70 108 145
72 110 146
95 125 159
98 122 151
104 119 143
113 131 156
114 131 153
118 135 158
117 135 160
121 139 162
118 135 159
116 133 157
114 130 154
116 132 156
122 139 163
123 140 164
113 130 154
119 136 159
120 136 161
121 139 163
118 136 160
118 135 159
120 139 162
113 132 155
115 132 155
120 137 160
118 136 161
125 144 167
122 140 163
116 134 159
130 149 173
122 140 165
121 138 162
124 143 168
126 144 168
120 138 162
127 146 172
125 144 168
128 146 170
130 149 174
121 138 161
126 144 167
125 144 169
124 141 165
123 142 166
116 134 158
127 145 170
126 142 166
126 145 169
122 141 165
122 141 165
129 148 173
122 142 167
125 142 164
127 145 170
124 142 166
124 143 167
124 142 167
126 144 168
128 146 170
124 141 165
127 146 171
123 140 165
125 145 171
128 148 172
127 144 167
126 144 169
131 150 174
124 143 167
120 138 162
123 141 165
124 142 165
123 141 165
127 145 170
126 144 169
125 143 167
127 145 169
123 141 165
128 145 170
123 141 164
128 147 171
127 145 169
125 143 168
130 149 173
131 150 175
131 149 173
128 147 172
126 146 171
126 144 168
123 140 163
125 143 167
127 146 171
133 151 176
130 148 173
131 149 173
130 148 173
129 148 173
125 144 169
130 149 173
131 148 172
130 148 171
126 143 167
127 146 172
127 145 169
127 146 171
128 146 169
130 148 173
130 149 173
132 150 175
129 149 172
127 144 168
128 146 170
127 145 168
125 143 167
131 150 175
132 151 175
132 149 173
132 151 175
128 146 170
127 145 169
129 147 171
131 149 173
130 148 172
133 151 174
128 146 170
126 144 167
131 148 171
131 148 172
131 149 174
132 150 174
131 149 172
127 145 169
131 150 174
130 150 175
128 146 170
131 150 174
127 145 169
133 152 176
130 147 170
129 148 172
131 149 171
126 145 168
132 150 174
131 149 173
131 149 172
135 153 177
129 148 172
132 151 175
130 148 173
131 149 174
134 153 178
132 150 173
131 149 174
129 148 173
129 148 173
133 152 175
131 150 175
130 148 171
131 149 173
129 148 172
132 149 173
129 148 172
132 150 174
132 150 174
130 149 172
131 149 171
129 147 171
130 146 171
134 153 177
132 151 176
131 149 174
130 148 172
132 151 175
131 149 173
133 150 174
133 151 176
132 151 177
126 144 169
130 148 172
131 149 174
135 153 176
135 154 178
130 149 174
133 151 175
132 151 176
128 146 169
132 149 172
132 149 173
131 150 173
129 147 170
134 152 177
132 150 174
134 152 176
132 149 172
135 153 176
131 150 173
132 151 174
133 151 175
133 152 177
129 146 169
129 148 173
133 150 173
132 150 174
131 149 172
130 149 173
132 151 174
128 148 172
130 149 173
133 152 177
131 149 173
131 149 173
131 149 173
131 149 173
133 151 174
132 151 174
132 150 174
133 151 174
135 154 180
130 149 173
134 152 177
131 148 172
134 152 175
131 149 173
131 149 173
134 153 177
134 152 176
136 153 175
131 150 174
135 153 178
131 148 172
131 149 173
134 151 174
133 150 174
131 149 174
131 149 172
131 148 171
133 151 175
131 150 174
130 148 171
132 150 174
133 152 175
133 152 177
130 148 172
130 147 170
131 149 174
129 146 169
135 153 177
131 150 173
130 148 171
131 149 173
130 148 172
133 152 176
130 148 172
132 151 174
130 148 172
130 149 173
133 151 175
132 151 176
132 150 174
133 152 176
127 144 166
130 149 174
132 150 174
131 149 174
128 146 169
132 150 174
124 141 164
135 153 176
132 151 173
134 152 177
132 150 174
133 150 172
129 146 170
131 149 172
127 145 168
132 149 174
133 150 173
131 150 171
132 150 175
130 148 171
134 152 177
128 146 170
130 146 167
133 150 172
129 146 168
131 150 174
133 152 176
133 153 177
132 150 174
129 147 170
130 147 170
131 149 173
129 147 170
130 147 170
130 147 170
128 146 168
133 151 174
134 151 175
132 150 173
133 151 175
129 147 170
130 147 171
132 150 173
134 153 177
131 148 171
129 146 169
133 152 176
130 148 173
132 149 171
132 149 172
133 150 173
131 148 173
133 151 175
129 147 170
133 151 175
131 148 172
131 148 171
128 145 167
127 144 166
134 151 174
129 147 170
129 146 170
132 150 172
130 147 171
134 152 175
133 151 175
132 149 173
131 147 169
127 145 168
131 149 172
130 147 170
130 147 171
130 147 169
128 147 171
129 146 168
127 143 165
132 149 172
128 145 168
131 147 170
131 148 171
129 147 171
131 148 172
133 150 173
130 147 169
133 151 174
129 147 171
130 147 170
130 147 168
133 151 175
133 151 174
133 151 175
129 147 170
127 143 166
130 148 173
126 142 163
129 146 168
130 148 172
128 146 169
127 144 166
127 144 167
132 150 173
130 146 169
130 148 171
131 150 174
132 149 171
128 146 170
129 146 168
130 146 170
127 145 169
131 148 171
128 144 167
127 143 165
129 147 169
131 149 174
129 145 167
126 142 164
130 146 168
126 142 164
130 148 170
128 145 167
128 144 167
125 142 164
129 144 166
130 146 167
128 146 169
130 148 171
130 147 170
128 145 168
128 145 167
128 143 164
125 142 164
127 143 165
128 146 170
127 144 166
127 143 166
127 142 163
129 146 169
124 140 161
129 144 165
124 133 151
126 139 160
118 123 137
117 113 123
116 108 118
105 88 90
107 89 90
105 78 72
95 66 57
102 71 61
100 70 60
102 70 60
97 68 58
99 69 59
98 68 58
106 74 62
103 71 61
101 71 60
108 75 64
100 69 59
102 71 61
104 72 61
99 69 59
104 73 62
99 69 59
110 76 65
98 69 59
102 72 61
101 70 60
103 73 63
104 73 62
102 71 60
106 74 63
104 72 62
107 74 65
99 69 65
98 67 64
97 68 68
93 64 74
89 63 77
80 55 79
83 58 88
79 55 87
77 54 89
69 48 97
66 47 100
62 44 105
51 36 102
44 32 106
29 21 110
34 25 109
36 27 109
19 16 114
11 12 116
11 12 113
11 12 116
11 12 114
11 12 114
11 12 115
11 11 110
11 12 116
11 12 115
11 12 115
11 12 116
11 12 117
11 12 116
11 12 116
11 12 114
11 12 116
12 12 117
11 12 115
11 12 115
11 12 116
11 12 116
11 12 116
11 12 116
11 12 115
11 12 115
11 12 115
11 12 116
11 12 115
11 12 115
11 12 115
11 12 117
11 12 117
11 12 117
11 12 114
11 12 115
11 12 114
11 12 114
11 12 116
11 12 116
11 12 117
11 12 116
11 12 116
11 12 116
11 12 116
11 12 116
11 12 117
11 12 115
11 12 115
11 12 116
11 12 115
11 12 117
11 12 117
11 12 116
11 12 117
11 12 116
11 12 115
11 12 115
11 12 116
11 12 117
11 12 117
11 12 114
11 12 116
11 12 114
11 12 117
11 12 114
11 12 116
11 12 114
11 12 115
11 12 115
11 12 113
11 12 113
11 11 111
11 12 116
11 12 114
11 12 114
11 12 116
11 12 113
22 25 115
30 33 116
31 35 117
48 54 121
53 61 124
64 72 129
65 74 129
82 93 138
79 90 136
91 104 145
91 104 139
105 120 153
106 120 153
104 116 145
114 130 154
113 128 155
117 132 157
122 139 164
124 142 164
125 143 166
127 142 162
123 139 160
125 142 164
121 137 159
128 146 169
126 143 165
128 147 169
129 146 167
125 142 166
127 145 166
129 148 169
129 147 170
129 148 168
128 146 168
127 147 165
128 146 166
123 139 160
126 144 167
126 142 162
124 141 161
125 145 165
122 139 159
128 147 170
128 146 168
126 142 164
127 145 169
128 146 168
127 145 167
125 145 165
129 146 169
127 145 168
128 145 165
125 143 164
130 147 168
128 147 167
128 147 168
125 144 164
125 143 165
128 147 168
128 146 166
129 148 171
125 144 166
124 144 163
128 146 168
129 148 171
128 147 169
129 146 168
126 146 167
130 148 170
128 146 169
125 143 165
121 141 161
124 143 165
126 145 165
130 148 171
122 141 163
129 148 169
123 143 164
130 148 170
127 147 167
132 152 172
128 147 167
125 142 165
122 141 160
120 141 159
125 144 162
125 145 168
131 150 174
128 147 170
126 143 163
125 144 166
123 140 160
126 145 164
129 149 170
129 148 168
124 143 164
123 140 160
126 144 165
123 142 163
125 144 163
123 141 162
128 146 168
127 146 167
122 141 158
125 144 163
126 146 167
127 146 168
124 143 163
126 145 167
123 141 161
125 144 163
127 146 169
129 148 170
126 145 165
124 143 162
122 143 163
123 144 162
122 141 167
112 130 154
103 123 153
94 111 142
84 106 141
68 91 135
63 87 130
42 70 125
37 68 127
38 71 131
39 72 133
38 70 130
39 73 135
35 64 119
37 69 129
39 72 133
39 72 134
38 71 132
41 75 137
39 72 133
38 72 133
38 71 132
38 70 130
40 75 139
40 73 134
36 68 127
36 67 124
40 74 137
41 76 141
42 77 141
39 73 133
40 74 137
38 70 130
40 75 138
39 74 137
40 74 137
38 71 132
38 71 132
40 74 134
40 73 135
39 71 130
39 72 133
39 72 132
37 68 126
41 75 136
39 72 134
38 70 130
39 71 131
41 76 140
40 74 136
39 71 130
40 74 136
37 69 127
39 71 131
38 69 128
41 73 135
41 75 138
40 73 134
40 73 133
40 75 137
38 69 127
38 69 127
38 70 130
38 68 125
38 69 126
39 70 127
41 74 134
39 72 132
35 65 121
38 69 128
36 66 123
37 67 123
40 72 132
40 71 130
38 68 125
37 67 123
38 68 125
39 70 129
36 65 121
37 66 121
38 69 125
38 69 125
35 63 115
37 64 118
37 67 125
36 63 117
39 70 128
39 69 125
38 68 124
38 68 125
37 65 119
37 66 119
39 71 130
43 66 119
52 69 119
63 73 116
66 71 113
95 91 118
103 98 121
102 94 118
119 110 122
131 115 124
134 122 132
141 125 130
155 141 147
156 142 147
160 144 146
154 140 144
170 154 159
169 155 158
177 161 164
183 166 168
177 161 164
175 161 164
173 159 164
178 164 168
178 164 168
177 163 169
183 168 172
191 177 181
187 173 177
188 174 179
175 162 167
188 173 177
176 162 169
188 174 179
187 173 178
185 172 177
188 174 180
188 174 180
196 181 186
185 170 177
192 178 184
186 172 179
196 182 188
187 173 181
195 180 186
195 181 188
201 187 193
202 187 192
202 188 194
202 187 193
202 188 194
203 189 193
204 189 194
202 189 195
202 189 194
203 189 194
204 190 195
204 190 195
202 189 194
203 190 195
202 189 195
201 189 195
203 190 195
203 190 195
202 189 195
201 189 195
203 189 195
202 189 195
201 189 195
202 189 195
201 189 195
201 188 194
202 189 195
201 189 195
201 189 195
202 189 195
201 189 195
200 188 194
202 189 195
200 188 195
202 189 195
202 189 195
201 189 195
201 188 194
201 189 194
203 190 195
201 189 193
201 189 194
203 190 195
203 190 195
201 189 194
201 188 193
200 188 193
202 189 194
204 190 195
202 188 192
203 189 193
200 186 191
203 190 195
203 188 194
202 189 194
198 184 190
198 184 189
200 185 190
199 185 190
204 190 194
201 188 191
204 188 192
198 185 189
205 189 193
201 188 191
200 182 187
202 186 190
197 180 185
194 179 184
193 176 180
195 178 181
186 168 173
193 177 181
196 180 183
187 172 176
182 167 170
183 168 172
182 166 170
184 168 172
181 164 167
181 161 166
178 162 166
173 157 162
182 166 170
178 161 166
172 156 162
168 154 156
170 156 158
165 151 153
175 158 160
169 154 156
163 150 149
158 143 146
145 136 133
150 139 138
137 127 128
142 135 142
138 136 141
135 130 143
125 129 143
131 138 152
124 137 154
127 140 158
126 142 162
127 145 166
128 143 162
126 142 161
128 146 169
124 141 160
125 143 163
130 148 171
127 144 166
129 146 168
126 141 161
127 143 164
128 145 167
125 142 164
130 148 168
128 144 163
128 144 162
125 140 158
128 144 165
129 146 167
129 146 167
124 138 157
126 143 162
126 143 163
126 141 160
129 145 166
123 139 158
125 140 160
132 150 172
117 132 151
128 146 166
129 145 166
128 144 166
127 143 165
129 147 167
126 142 163
127 144 166
128 144 164
130 148 170
130 146 168
129 145 165
127 145 164
129 145 165
125 142 164
126 141 161
129 146 167
125 141 159
128 145 167
126 142 163
130 145 166
127 144 163
129 146 168
125 141 162
123 139 159
129 147 167
126 143 163
126 143 165
126 145 167
127 143 164
130 147 166
125 141 160
129 146 165
127 144 166
125 142 162
122 139 158
123 139 158
123 140 159
123 139 158
127 144 165
126 142 163
130 147 167
132 148 170
129 147 166
124 143 160
122 138 158
123 140 160
125 142 162
125 141 159
128 146 165
126 142 160
121 137 155
128 145 165
128 145 166
130 147 168
128 145 165
128 146 165
128 145 166
128 146 166
126 143 160
128 147 165
130 147 169
122 138 157
127 145 164
127 144 164
127 143 163
128 145 165
127 143 163
127 144 163
131 148 168
127 144 165
127 144 164
127 143 164
129 146 166
128 146 166
127 145 166
129 147 167
130 149 171
126 144 163
131 148 169
130 147 168
124 141 160
122 140 156
126 142 159
126 143 163
126 142 162
127 145 163
125 141 160
129 148 167
128 144 165
128 145 166
126 143 163
127 143 162
127 145 163
123 139 156
127 143 163
126 142 162
128 145 166
124 143 159
126 143 159
128 145 165
126 143 163
123 139 157
126 143 163
127 144 163
124 140 160
125 141 160
127 143 163
126 143 163
127 144 166
125 143 161
120 138 155
126 144 164
129 146 165
124 142 160
126 143 163
125 142 160
126 144 165
124 140 160
122 140 154
129 148 169
123 141 156
127 144 164
122 140 155
125 142 158
127 145 165
130 147 167
125 142 160
127 146 165
129 148 168
124 141 159
128 145 162
122 140 156
126 144 163
123 140 159
122 140 156
129 146 165
124 143 161
125 143 161
128 145 160
130 149 168
125 141 158
125 144 162
122 140 153
124 142 159
123 140 156
128 145 165
124 141 160
126 143 162
126 144 161
126 144 161
126 143 163
126 145 162
129 146 165
127 145 164
124 142 159
125 143 160
126 143 161
127 145 162
124 142 157
126 144 164
123 140 157
125 143 163
124 142 159
128 147 166
128 146 165
127 146 164
123 141 161
128 147 164
126 145 162
125 143 163
123 142 157
127 145 162
126 146 163
128 147 165
130 149 168
126 144 163
128 146 163
120 140 159
121 140 155
130 149 169
120 138 154
125 145 161
126 146 164
126 145 161
125 143 161
123 142 162
124 140 158
125 143 163
125 144 160
125 144 162
127 146 163
124 143 162
125 142 159
123 143 157
124 143 162
123 140 158
128 147 168
122 140 157
129 148 168
123 142 158
128 147 165
128 147 167
131 149 169
129 146 166
125 143 160
123 143 160
124 141 159
125 144 160
125 144 158
124 143 161
121 138 156
125 145 160
123 141 157
127 146 164
124 143 159
123 141 156
131 149 171
121 140 154
126 144 162
124 142 160
127 145 165
124 143 159
122 140 157
128 146 166
123 142 159
126 144 160
127 146 162
119 139 154
124 143 160
129 147 167
127 145 166
127 144 165
127 145 163
122 140 157
127 146 163
128 146 166
125 144 159
128 148 166
130 148 169
126 145 160
124 141 158
125 144 159
123 142 160
124 143 157
126 145 163
125 143 160
123 141 158
125 145 158
126 142 163
128 145 165
126 143 161
126 143 161
125 143 162
128 147 167
128 145 167
121 138 157
127 144 165
129 146 166
124 141 160
126 144 164
128 145 168
125 143 163
126 144 163
128 147 166
123 141 159
129 147 167
128 145 165
125 142 164
125 142 163
128 146 166
129 147 168
127 143 164
128 146 166
125 143 160
126 143 163
127 145 164
130 146 166
126 144 161
128 146 165
127 144 166
127 144 164
122 139 155
125 143 162
133 150 172
124 141 163
126 143 162
126 143 164
124 141 160
124 140 160
127 145 165
125 143 162
127 144 163
125 140 159
128 146 168
126 142 160
127 145 164
131 147 168
119 135 153
119 137 157
115 131 150
110 127 143
99 115 131
87 101 117
76 90 106
60 75 87
55 69 82
14 38 48
5 35 45
5 35 45
5 35 46
5 35 45
5 35 45
5 35 45
5 35 45
5 35 46
5 35 46
5 35 45
5 36 47
5 35 46
5 35 45
5 34 45
5 36 47
5 35 46
5 36 47
5 34 44
5 35 46
5 35 46
5 36 46
5 36 46
5 34 44
5 35 46
5 35 45
5 35 46
5 36 46
5 36 46
5 35 45
5 36 47
5 35 45
5 35 46
5 36 47
5 35 46
5 34 44
5 35 45
5 36 47
5 36 47
5 35 46
5 35 45
5 36 47
5 35 45
5 36 48
5 35 45
5 35 46
5 35 46
5 36 46
5 35 45
5 35 46
5 37 48
5 36 47
5 36 47
5 36 47
5 36 47
5 36 47
5 36 47
5 35 46
5 37 48
5 35 46
5 34 45
5 36 47
5 36 47
5 34 44
5 36 47
5 35 47
5 35 45
5 36 48
5 35 46
5 35 46
5 36 47
5 35 47
5 35 46
5 36 47
5 35 46
5 35 47
5 35 46
5 32 43
5 34 44
5 35 46
5 35 46
5 33 44
5 34 45
5 33 44
5 34 45
5 34 45
5 33 44
5 33 45
5 32 43
5 33 44
5 31 42
5 32 42
5 34 46
5 30 41
5 33 45
5 31 42
5 32 44
5 29 40
18 29 42
49 30 54
63 30 61
70 31 66
62 29 59
100 33 82
108 33 88
123 36 99
136 37 106
142 39 111
158 42 120
156 40 120
166 43 129
168 43 128
168 43 129
167 43 130
169 44 131
167 43 129
168 43 129
175 45 135
174 45 133
174 45 133
174 45 133
176 45 135
176 45 134
176 45 134
176 45 135
176 45 134
176 45 135
172 44 134
174 45 133
173 45 133
169 44 131
175 45 135
177 45 134
171 44 131
175 45 135
172 44 132
170 44 131
175 45 134
174 45 134
168 43 130
175 45 135
172 44 133
174 45 133
176 45 133
173 44 133
176 46 137
175 45 135
175 45 135
173 45 133
174 45 135
180 46 138
177 46 136
180 46 138
180 46 139
174 45 133
171 44 131
180 47 138
176 46 136
175 45 134
178 46 138
179 46 137
179 46 137
176 46 136
175 45 134
183 47 141
176 46 136
179 46 136
175 45 136
173 45 134
178 46 137
181 47 140
179 46 137
179 46 136
176 46 138
174 45 135
178 46 137
173 45 133
175 45 136
177 46 137
178 46 138
182 47 140
179 46 138
182 47 140
178 46 138
177 46 137
180 47 139
176 46 135
178 46 136
180 46 137
179 46 138
181 47 139
174 45 135
181 47 139
172 45 135
176 46 136
177 46 137
179 46 139
176 46 136
184 48 142
174 45 135
171 45 133
184 47 141
173 45 133
178 46 137
173 45 133
178 46 138
179 46 138
178 47 138
176 46 136
176 46 136
175 46 136
175 45 135
176 46 136
175 46 135
170 44 132
171 45 132
174 46 135
174 46 135
176 46 137
173 45 133
173 45 133
173 45 133
179 47 138
169 44 132
175 46 135
173 45 132
171 44 131
175 46 135
163 43 127
157 42 125
157 41 124
146 47 121
143 61 125
138 73 126
122 90 129
123 90 131
132 99 141
119 109 141
111 104 134
117 127 153
124 138 161
119 131 156
119 130 156
115 126 149
123 138 161
122 135 157
121 132 158
127 141 164
121 134 158
123 139 164
124 139 162
120 132 155
126 141 166
126 141 166
124 139 163
124 140 162
121 135 158
123 137 160
119 132 157
123 137 160
128 143 166
125 139 161
123 137 162
122 136 161
125 139 163
125 140 165
123 138 162
125 140 164
124 139 162
126 141 164
124 139 164
125 138 161
123 135 159
124 140 166
126 141 165
125 138 163
120 132 157
124 139 165
124 140 164
126 143 169
127 142 168
122 135 159
129 145 169
127 144 167
122 136 158
126 142 167
126 141 166
125 140 164
125 139 163
128 144 168
128 143 168
126 141 166
125 141 166
129 144 168
126 141 165
126 142 167
130 145 168
129 144 168
129 145 169
130 147 172
128 143 166
128 143 166
127 144 169
126 141 165
125 138 163
126 142 166
126 141 167
126 142 165
128 143 166
129 145 169
129 143 168
133 150 173
125 142 167
129 145 170
132 148 173
126 141 165
126 141 163
129 145 168
129 146 170
127 142 168
130 147 170
127 143 168
132 150 172
131 148 172
131 147 170
132 149 173
129 146 169
126 140 163
127 143 166
128 144 168
131 147 171
128 145 169
128 145 169
126 143 167
129 145 169
130 147 170
125 140 164
131 149 172
129 145 169
131 148 173
131 148 172
132 149 174
131 148 172
129 145 171
132 149 173
129 145 168
126 141 165
