P3
1600 1
255
2 92 140
2 84 131
2 92 141
2 90 139
2 92 139
2 91 139
2 86 131
2 90 136
2 86 133
2 92 141
2 94 141
2 90 138
2 83 128
2 90 137
2 86 132
3 84 129
35 93 137
51 96 136
61 102 140
64 102 140
77 109 144
89 117 148
91 115 144
102 124 152
109 128 152
111 129 153
109 127 151
115 133 155
110 128 151
110 127 150
115 134 159
111 127 150
110 128 152
115 133 157
114 132 156
112 130 154
115 133 157
117 134 157
113 131 156
118 136 160
114 133 157
113 132 157
118 137 162
113 131 155
112 131 155
112 131 156
111 129 152
112 131 155
115 134 158
117 135 160
110 126 148
113 131 155
110 130 155
116 134 158
114 132 156
112 130 154
116 135 160
120 139 164
120 140 164
118 137 161
118 137 162
120 138 161
118 138 163
118 137 161
123 141 164
123 142 167
125 142 167
118 137 161
126 145 171
121 139 164
124 141 165
120 138 162
115 135 159
120 138 162
122 139 163
122 142 166
122 141 165
121 142 167
123 141 165
123 141 166
127 145 169
129 147 172
120 139 164
125 145 170
125 144 169
121 140 165
127 146 172
123 142 165
122 139 163
123 143 169
123 142 166
118 137 162
123 142 166
125 142 165
122 141 164
125 143 167
122 140 163
126 145 170
122 142 167
125 143 166
117 136 160
125 144 168
124 143 167
123 140 165
127 146 170
124 142 166
122 140 164
126 144 169
130 149 174
127 146 170
127 144 168
125 145 171
128 147 172
124 140 163
124 143 168
125 143 167
126 144 168
124 143 168
128 146 170
129 148 172
127 145 171
127 146 171
124 143 166
130 148 172
129 146 169
126 145 170
128 147 171
130 149 173
122 141 166
128 146 170
130 148 173
128 147 171
128 147 171
131 150 174
130 148 172
128 147 172
126 145 171
129 147 171
130 149 173
130 149 173
129 147 170
131 149 174
131 149 173
127 146 170
131 149 173
132 150 174
128 147 171
127 146 171
130 148 172
129 148 172
127 144 167
130 148 173
133 152 177
130 148 171
128 146 169
130 148 173
128 147 172
128 147 171
131 148 172
131 150 174
127 146 169
131 149 172
132 150 174
129 148 172
129 148 172
128 146 170
132 150 174
128 147 170
130 149 174
130 148 172
131 150 174
131 150 174
129 147 171
134 152 177
130 149 174
130 148 172
130 148 172
130 149 174
130 149 174
128 145 168
133 152 176
126 144 167
132 150 174
132 150 174
128 147 171
134 152 177
131 150 174
130 148 172
130 148 172
131 149 172
131 150 174
134 152 176
132 150 174
130 149 173
131 151 175
133 150 174
130 148 171
133 151 175
132 151 175
130 149 174
127 145 168
133 151 175
132 151 175
130 148 171
134 154 178
132 150 175
133 152 176
135 153 177
132 149 173
133 150 173
131 149 172
132 151 175
131 148 172
135 153 177
130 149 173
131 149 173
134 153 177
131 148 171
132 151 174
132 150 174
132 151 175
134 153 178
132 150 174
130 149 173
132 149 172
130 149 172
131 149 172
130 149 173
132 152 176
131 149 174
132 150 174
131 149 174
133 150 174
130 148 171
131 149 172
132 148 171
132 150 173
133 151 175
127 145 169
134 152 175
131 150 176
132 150 175
133 152 176
129 147 170
132 151 174
130 149 173
133 152 176
134 153 176
131 149 174
130 148 170
132 151 176
134 153 177
132 149 173
131 150 174
133 151 175
131 148 171
133 152 176
132 149 173
129 147 170
132 150 174
132 150 174
130 148 172
131 149 172
134 151 174
136 154 178
130 148 172
134 152 175
132 150 174
132 149 173
135 154 178
133 150 174
132 150 173
132 151 176
134 153 177
135 154 177
133 151 176
133 151 175
133 151 174
132 151 175
133 152 177
134 153 178
133 152 177
133 151 176
129 145 168
130 147 170
129 148 173
133 152 177
130 148 172
131 149 172
125 144 168
131 148 171
134 151 175
133 151 175
134 153 177
132 150 173
129 146 168
127 145 168
130 148 172
130 147 170
132 149 173
134 152 175
133 151 175
134 152 176
130 148 171
133 151 175
134 152 176
129 146 168
134 151 175
134 151 174
132 150 174
133 152 176
132 150 174
130 148 171
130 147 171
133 151 175
131 148 171
132 148 171
129 146 168
128 146 168
130 147 170
135 153 176
131 148 171
130 147 169
131 148 171
132 150 174
129 146 170
135 154 177
130 149 173
130 146 168
131 149 172
131 151 176
134 152 174
132 150 174
131 148 172
125 143 166
131 149 173
132 150 173
131 147 169
131 149 173
130 147 170
128 144 165
131 147 169
131 148 169
132 151 175
129 145 167
130 148 172
127 142 164
130 145 168
133 151 175
131 147 169
132 148 170
132 150 173
129 147 170
129 145 168
128 145 167
131 148 170
130 148 172
130 147 170
131 148 171
130 146 168
127 143 166
128 144 165
131 148 171
130 146 168
127 144 167
131 150 175
129 145 167
127 142 163
128 145 169
128 147 168
124 141 162
130 147 171
132 150 174
132 150 173
130 148 171
124 139 161
127 146 169
127 142 164
127 143 165
130 148 172
128 144 167
126 142 164
125 140 163
130 148 171
129 144 166
126 142 165
127 143 166
124 138 160
128 146 168
127 143 164
129 145 168
130 146 170
125 140 161
126 141 163
125 140 163
130 147 171
129 146 169
125 138 158
125 140 161
126 141 162
127 144 166
129 143 164
126 142 164
128 145 168
127 143 165
126 140 160
127 144 166
128 144 167
126 141 163
125 141 164
124 139 159
122 136 157
122 135 154
126 142 164
125 139 161
118 131 151
124 138 158
123 139 160
125 141 162
119 134 154
124 140 161
121 137 158
125 141 162
122 136 157
114 126 144
121 135 156
125 139 159
119 133 153
121 133 154
127 143 165
122 136 157
118 132 152
117 129 147
121 134 153
118 131 151
116 130 150
114 125 144
119 133 153
122 136 156
122 134 153
115 128 146
119 130 148
113 124 141
113 123 139
106 113 125
105 101 110
99 93 102
100 91 97
100 89 95
93 82 85
90 73 70
89 70 68
89 63 58
95 68 66
88 60 58
83 58 67
78 54 72
78 54 78
74 52 83
70 48 82
60 41 88
63 43 96
53 37 96
47 34 98
48 34 102
37 27 105
32 23 109
17 15 111
11 11 112
11 12 114
11 11 112
11 12 112
11 11 111
11 11 112
11 11 111
11 11 110
11 12 114
11 12 112
11 11 112
11 11 110
11 12 114
11 12 113
11 12 113
11 11 112
11 12 114
11 12 114
11 12 114
11 12 114
11 12 115
11 12 113
11 11 112
11 11 111
11 12 112
11 11 113
11 12 113
11 12 114
11 12 114
11 11 112
11 12 114
11 11 111
11 11 112
11 12 113
12 12 115
11 12 115
11 12 112
11 11 111
11 12 113
11 12 113
11 12 112
11 12 115
11 12 115
11 12 115
11 12 113
11 12 113
11 11 112
11 12 112
11 12 113
11 12 114
11 12 113
11 12 115
11 12 114
11 12 115
11 12 113
11 12 112
11 12 116
11 12 112
11 11 112
11 11 112
11 12 113
12 12 116
11 12 114
11 12 112
11 12 112
11 12 112
11 12 113
11 11 111
11 12 113
11 12 116
11 12 113
11 12 114
11 11 111
11 12 111
11 12 111
11 12 114
11 11 112
11 12 113
11 11 112
11 12 114
11 12 113
11 12 114
11 12 114
11 12 113
11 11 111
11 12 115
11 12 112
11 12 114
11 11 112
11 12 113
11 11 112
11 12 114
11 11 111
11 11 110
11 12 114
11 11 110
11 11 109
11 11 110
11 12 112
11 12 113
10 11 105
11 11 110
11 11 111
11 12 112
11 11 110
11 11 109
21 24 109
40 45 116
48 54 120
54 60 118
64 72 125
71 81 129
78 88 129
93 105 141
101 112 145
103 116 148
108 122 146
111 124 152
114 129 152
119 133 155
118 133 153
120 137 158
125 142 165
125 141 163
125 141 162
123 139 161
122 138 161
126 143 164
124 142 164
123 141 163
122 139 160
120 136 157
122 140 161
121 138 159
127 145 167
122 138 159
116 132 153
122 138 159
126 144 166
124 142 164
123 140 161
124 142 165
127 143 165
126 144 169
124 140 162
126 142 164
127 144 167
123 140 162
125 142 163
117 135 155
123 141 163
121 138 160
122 138 160
124 143 164
127 146 168
126 144 166
123 139 161
121 139 162
124 140 162
126 144 166
125 142 164
125 142 164
120 138 159
118 135 157
125 144 166
127 145 167
122 139 162
123 140 163
125 143 164
120 137 158
126 143 165
121 140 162
122 138 160
122 140 162
124 141 163
125 142 164
124 140 162
120 137 159
123 140 162
123 140 161
116 134 157
123 141 162
126 144 167
120 138 160
124 141 165
124 141 164
121 138 160
117 135 155
118 136 158
123 141 164
120 138 160
120 138 159
122 141 162
123 141 163
124 144 165
127 145 169
123 141 163
119 138 161
127 145 166
127 147 169
124 142 165
126 144 167
127 145 168
122 140 162
124 141 162
124 142 164
122 140 163
121 138 161
122 141 164
123 140 162
116 133 154
122 140 163
126 145 169
122 140 163
121 139 161
121 139 161
112 129 153
116 134 159
106 124 148
98 117 148
86 107 144
79 99 140
71 92 132
55 79 128
45 71 122
38 67 121
35 65 121
35 65 122
36 67 124
35 65 123
37 68 126
36 68 126
36 67 124
34 63 117
35 66 122
36 67 124
37 68 126
37 69 129
36 67 124
37 68 126
36 65 122
35 66 123
36 68 127
34 63 118
37 69 127
38 69 127
35 66 124
33 62 116
37 68 126
38 70 128
38 70 129
35 65 122
39 71 131
37 69 127
35 65 122
36 66 124
37 67 124
37 68 128
36 66 123
37 69 129
34 64 118
38 68 126
36 65 121
36 66 122
33 61 115
32 60 113
35 64 119
37 67 124
37 68 127
37 67 122
34 63 117
36 66 123
38 69 127
35 64 120
36 66 121
34 62 113
35 64 119
34 62 116
34 62 116
34 62 113
32 59 111
33 62 115
35 62 114
36 65 117
36 64 118
37 65 119
33 61 113
33 60 110
34 62 116
34 62 113
35 63 115
32 58 105
34 61 113
34 61 112
34 61 113
36 64 116
34 60 110
35 63 117
34 60 112
35 63 115
44 65 115
58 69 117
63 66 109
65 72 112
75 74 105
89 85 110
89 82 102
108 98 112
116 104 113
117 109 116
135 119 123
129 116 122
138 125 131
142 129 134
136 123 126
142 129 134
150 138 143
156 141 144
153 140 145
159 148 153
147 136 140
156 144 149
157 145 151
149 138 142
146 136 143
151 141 148
146 136 142
140 131 139
158 146 152
140 131 140
143 134 141
144 130 138
155 144 150
154 141 147
134 124 133
165 150 156
151 139 146
157 142 147
143 130 137
146 134 142
160 144 149
163 149 155
155 140 146
161 147 153
162 149 155
164 151 157
165 152 158
162 148 154
169 156 161
173 157 160
167 152 157
174 159 163
184 168 170
186 170 173
179 163 167
186 172 175
186 169 172
192 177 179
187 172 176
193 177 180
192 176 179
195 180 182
186 171 175
190 175 178
188 173 177
195 180 182
186 171 175
185 172 175
178 165 170
180 167 171
191 177 179
181 168 171
177 164 168
192 177 180
185 172 174
185 171 174
185 173 173
184 171 172
178 165 168
180 168 168
180 168 168
183 169 171
183 171 170
172 162 159
178 165 166
175 165 163
182 170 170
166 157 154
178 167 166
174 162 160
166 155 154
173 162 158
170 158 157
168 155 153
164 155 151
168 156 153
174 160 160
165 153 151
176 162 164
167 156 153
175 161 161
169 156 158
173 157 159
175 161 161
166 154 154
174 159 160
165 150 150
165 151 153
162 150 151
166 152 154
174 159 161
169 154 158
172 161 162
166 149 152
173 156 159
168 154 155
165 146 151
161 147 150
170 156 160
159 146 148
152 138 142
145 134 137
161 143 148
155 141 145
150 140 142
151 136 139
154 139 144
158 142 146
157 144 148
141 123 132
145 130 134
147 134 139
144 131 136
145 133 140
143 132 140
140 128 134
144 133 139
143 129 137
137 126 132
138 128 130
139 132 131
134 123 126
134 126 129
132 129 131
132 130 137
130 134 144
133 135 149
122 133 149
126 134 151
123 136 158
128 144 165
129 146 169
130 147 170
129 146 168
130 148 171
131 148 169
130 148 171
128 145 167
127 142 163
131 149 172
128 145 168
126 144 165
128 145 167
128 146 168
125 142 164
130 148 168
127 143 163
130 147 168
128 144 164
130 147 167
130 148 169
128 145 166
130 147 167
128 145 164
128 146 168
124 141 163
128 146 167
127 145 164
128 145 167
130 147 168
129 145 166
129 146 167
132 148 169
129 146 166
129 146 168
126 143 164
127 145 166
131 148 170
129 146 168
130 147 169
130 148 170
125 143 163
129 146 169
129 146 167
130 147 169
130 148 169
127 145 167
133 150 172
129 144 165
127 144 166
128 145 166
128 146 167
127 144 164
131 149 171
133 150 172
128 145 167
130 148 169
131 149 170
128 145 167
124 141 162
131 147 169
130 146 166
127 143 163
131 148 171
126 144 166
129 146 168
127 142 160
130 146 167
129 146 168
130 147 168
131 147 170
130 147 169
127 143 163
132 149 171
128 144 164
128 146 166
129 146 166
133 151 174
129 146 167
126 144 164
130 146 167
132 149 172
127 145 164
130 149 169
129 147 167
127 144 166
128 145 166
130 146 166
129 146 168
129 146 168
127 142 164
130 148 169
130 147 169
131 148 170
131 149 172
130 147 168
128 145 166
130 147 169
127 146 165
128 147 168
129 147 166
128 145 165
126 143 163
129 145 167
128 145 164
127 145 165
125 142 162
130 147 168
128 145 165
131 148 169
131 149 171
130 148 170
127 144 166
126 143 162
127 143 164
128 144 163
129 147 169
128 144 166
127 144 164
131 149 170
129 148 168
130 146 167
128 145 163
130 147 167
129 146 166
123 141 160
131 149 170
129 146 167
127 144 165
129 145 167
128 146 166
127 144 166
125 142 163
131 148 170
127 145 164
128 145 167
131 149 169
131 147 168
127 144 165
132 150 172
126 144 164
127 144 163
131 148 169
131 148 169
127 144 164
132 149 171
126 144 163
133 152 173
123 140 161
130 149 170
128 145 166
127 145 168
128 146 165
128 146 166
129 145 167
130 149 169
129 147 170
129 146 167
131 149 171
128 145 165
133 151 175
130 148 167
131 149 172
130 147 167
128 145 167
130 147 165
133 151 175
129 146 167
130 147 169
126 144 164
130 149 168
124 142 158
129 146 169
127 145 164
132 149 169
128 146 167
127 143 162
128 144 165
129 146 168
128 146 166
131 147 170
129 147 167
126 144 163
125 142 160
131 148 171
130 149 170
132 150 172
129 147 166
128 145 166
130 150 171
129 146 169
129 146 169
127 144 162
126 145 163
132 149 170
127 144 164
128 145 167
128 145 164
127 144 163
129 147 167
134 150 172
128 147 167
130 148 171
128 146 163
126 143 161
127 144 163
131 148 169
127 143 161
130 149 169
129 145 167
132 149 169
129 145 166
127 144 164
130 148 170
127 144 163
129 147 165
130 149 167
124 141 160
128 144 165
131 149 171
128 147 167
129 147 170
130 149 171
127 144 165
130 148 168
128 145 168
128 145 166
129 147 167
131 149 172
133 150 173
129 148 167
127 144 164
127 144 164
126 144 162
128 146 166
129 146 166
134 153 175
127 145 164
126 143 163
129 147 167
128 144 165
129 147 167
130 148 170
129 147 168
132 149 170
131 148 169
128 145 164
128 145 164
128 145 166
128 143 164
128 147 169
126 144 164
130 146 169
130 147 168
131 149 169
130 148 168
131 148 170
127 144 164
130 147 170
130 148 167
126 141 163
127 145 164
126 143 162
131 148 169
129 148 168
130 147 169
130 148 168
127 146 165
129 146 166
129 147 167
129 148 168
132 149 170
128 145 167
131 149 172
132 149 171
127 145 165
130 147 167
134 151 173
127 144 166
129 147 167
127 145 165
128 145 164
130 147 167
130 147 168
128 147 167
128 145 165
130 147 165
128 145 163
129 148 170
129 147 169
130 147 169
130 147 168
131 147 168
130 147 169
131 149 170
128 146 166
126 143 164
126 144 164
126 144 163
127 142 163
129 147 167
128 145 165
127 145 165
130 148 168
125 143 161
130 148 171
128 145 166
127 145 166
130 147 171
129 147 168
127 146 166
128 146 169
131 149 170
129 147 169
127 145 166
128 144 166
126 143 165
125 141 162
126 142 164
125 143 163
131 149 172
128 144 166
127 143 164
127 144 164
126 142 165
125 143 162
111 127 147
106 122 141
94 110 126
85 99 114
67 80 94
62 76 90
48 62 75
28 44 55
5 34 44
5 34 44
5 33 43
5 34 44
4 32 42
5 33 43
5 34 44
5 34 44
4 32 41
5 34 44
5 34 44
5 35 45
5 34 44
5 34 44
5 35 45
5 33 43
5 34 45
5 33 43
5 34 44
5 34 44
5 34 44
5 33 43
5 34 44
5 32 42
5 33 43
5 35 45
5 35 45
5 33 43
5 35 45
5 35 46
5 35 45
5 34 45
5 34 44
5 34 45
5 35 46
5 35 46
5 34 45
5 35 46
5 35 45
5 35 45
5 33 44
5 34 44
5 35 45
5 33 43
5 34 44
5 36 47
5 36 46
5 35 45
5 34 44
5 34 44
5 35 45
5 33 43
5 33 43
5 32 42
5 34 44
5 33 42
5 35 46
5 33 44
5 34 44
5 33 43
5 34 45
5 35 46
5 34 45
5 34 44
5 34 45
5 34 44
5 35 46
5 35 46
5 32 42
5 34 44
5 34 45
5 34 45
4 31 41
5 35 46
5 33 43
5 33 44
5 34 45
5 33 44
5 32 42
5 32 43
5 32 43
5 32 42
5 31 41
5 32 43
5 32 43
5 32 42
5 31 41
5 31 42
5 30 41
5 30 40
4 30 40
4 27 37
5 29 40
18 25 37
42 30 50
66 28 60
75 30 64
84 31 73
108 35 88
117 35 93
128 35 100
118 33 93
153 40 116
146 37 110
157 40 120
162 42 124
165 42 126
160 41 122
157 40 120
175 44 132
158 40 121
160 41 123
166 42 126
162 42 124
168 43 128
169 43 129
167 43 127
172 44 132
170 44 130
168 43 129
167 43 126
169 43 129
169 43 128
173 44 131
169 43 129
163 42 126
174 44 133
173 44 132
164 42 125
174 45 133
164 42 125
171 44 130
168 43 128
168 43 129
173 44 131
174 45 133
177 46 134
175 45 132
177 45 134
172 45 133
173 45 132
175 45 133
168 44 130
170 44 129
170 44 130
176 45 134
168 43 130
176 45 135
173 45 133
168 43 129
174 45 132
173 45 132
176 46 135
170 44 130
164 43 127
173 45 133
173 44 130
169 43 129
170 44 132
172 44 130
174 45 135
166 43 129
172 45 132
165 43 127
177 45 135
170 44 130
168 44 130
173 45 132
171 44 130
172 44 131
173 45 132
168 43 129
166 43 127
170 44 130
168 43 129
177 46 135
168 43 128
173 45 134
177 45 135
168 44 131
174 45 132
172 45 133
173 44 131
177 46 135
167 43 128
166 43 129
177 45 135
173 45 135
172 45 133
166 44 128
171 44 130
175 45 134
168 44 130
168 44 130
172 45 133
172 44 131
175 45 134
171 45 131
170 44 130
173 45 132
178 46 136
172 45 133
174 45 133
172 45 132
166 44 128
176 45 134
173 45 133
170 44 130
169 44 130
173 45 134
172 45 134
175 46 134
169 44 130
172 45 132
172 44 132
171 45 132
167 44 131
161 42 123
171 45 131
173 45 134
170 45 131
171 45 130
174 45 134
171 45 132
171 45 132
171 44 130
168 44 131
158 42 121
169 44 130
175 45 133
170 44 130
172 45 133
167 43 128
169 44 129
166 43 126
178 50 136
161 53 129
160 63 133
156 73 134
150 75 130
142 84 131
133 91 131
128 92 132
123 106 137
114 108 136
115 121 144
115 126 149
115 126 148
113 121 143
112 118 142
110 115 139
116 125 148
113 121 144
113 119 142
115 125 149
112 120 143
111 117 143
112 119 143
119 130 154
119 128 151
114 123 146
110 118 144
114 124 149
119 130 152
115 125 149
118 130 152
117 128 152
118 130 153
117 129 152
120 130 153
121 133 157
120 131 155
124 135 160
120 132 156
120 131 157
124 136 160
123 137 161
118 129 153
120 130 155
121 134 157
117 127 150
117 128 152
120 132 156
124 135 159
125 139 164
124 138 162
127 143 168
119 131 155
121 135 159
124 137 160
121 134 157
118 131 154
123 136 160
124 136 161
126 141 165
127 142 166
128 142 165
118 130 154
125 137 160
128 141 168
127 142 166
126 141 166
125 139 164
130 144 169
125 139 162
127 142 166
129 144 167
126 139 161
126 141 164
123 137 162
127 143 167
124 136 160
129 145 170
127 143 167
129 142 166
126 141 165
125 141 166
125 141 165
129 144 168
128 143 168
132 149 173
127 143 167
127 143 166
130 146 170
128 144 167
125 141 164
129 145 169
130 146 171
129 144 168
132 148 172
128 145 169
129 146 169
125 141 164
125 141 165
125 139 162
127 145 168
128 143 168
125 140 165
130 147 172
129 145 170
125 141 164
128 144 168
131 148 172
126 142 164
128 144 169
132 149 175
128 144 167
130 146 169
