P3
1600 1
255
2 91 139
2 89 137
2 90 138
2 87 135
2 88 137
2 87 133
2 87 132
2 88 134
2 84 132
2 93 141
2 86 133
2 92 140
2 83 128
2 90 138
18 82 127
38 88 130
57 99 138
64 100 137
76 108 141
79 110 144
84 111 142
101 126 156
99 121 149
102 123 150
112 130 154
110 128 151
105 124 149
106 122 144
114 131 155
109 127 150
113 132 156
113 131 155
111 128 152
111 129 152
111 129 153
108 128 153
114 131 155
110 128 152
108 125 149
115 133 158
115 134 158
114 133 158
115 135 159
113 132 157
114 133 156
115 134 157
116 134 158
111 130 153
116 134 158
111 130 155
115 132 154
114 133 158
115 133 157
116 135 160
113 131 155
116 133 157
123 141 166
116 135 159
118 138 162
116 135 159
118 137 161
119 138 161
118 137 162
117 136 161
118 137 161
124 143 168
120 138 162
123 141 166
120 138 162
122 142 167
117 134 158
122 139 162
120 139 163
121 139 164
121 140 165
126 145 169
121 140 165
121 141 165
122 140 165
124 142 166
126 145 170
125 143 167
122 141 166
124 143 169
122 141 167
122 140 164
123 142 168
120 137 161
125 143 168
121 141 166
124 142 166
126 145 169
124 142 167
119 138 161
124 142 167
118 136 159
122 141 166
123 143 168
124 142 166
120 138 162
119 139 164
127 146 170
124 142 166
126 144 168
132 152 177
125 143 168
127 146 171
129 146 170
128 147 172
128 146 170
126 144 168
126 145 170
125 143 167
128 146 170
127 145 170
122 140 163
128 147 171
124 143 168
128 147 171
130 147 172
130 148 172
123 142 167
128 146 169
131 149 174
129 147 170
128 148 174
128 147 171
128 146 170
126 144 168
129 148 172
128 146 170
125 144 169
132 151 175
127 145 170
128 147 171
128 147 171
125 145 170
133 152 176
128 147 171
132 150 173
130 149 174
129 147 171
129 147 171
126 145 169
133 150 174
130 149 173
129 147 172
130 148 172
127 145 169
130 147 171
128 145 169
130 148 172
129 148 172
129 146 169
129 147 171
127 146 171
128 147 172
131 148 172
128 146 171
130 149 172
130 148 172
130 149 172
130 149 173
132 150 174
126 145 170
132 150 174
129 147 170
128 146 169
129 148 174
131 150 174
133 151 175
131 150 175
131 149 173
131 150 175
130 148 173
128 147 171
129 148 172
133 151 176
131 150 173
130 149 173
129 146 169
130 148 173
132 150 175
131 147 170
131 149 175
133 151 175
128 146 171
131 149 173
131 148 171
131 150 174
132 151 175
132 150 174
130 149 173
130 149 173
133 151 175
131 149 173
133 150 174
130 149 175
130 149 173
131 149 174
130 148 171
134 152 176
132 150 174
134 153 177
134 152 176
134 152 177
133 151 175
131 149 175
134 152 175
131 148 170
132 151 173
133 152 175
132 150 174
130 148 171
131 150 174
133 151 174
135 153 177
127 146 169
132 151 175
132 151 174
132 152 176
135 154 179
131 149 173
129 145 169
133 151 175
131 148 171
132 151 176
130 149 172
132 150 175
131 150 174
132 150 175
131 150 174
130 147 171
134 151 175
130 148 170
130 147 170
134 152 176
132 150 173
130 148 172
132 151 176
132 151 176
132 151 175
130 148 173
133 151 174
131 150 174
130 148 172
135 154 178
132 151 174
130 148 170
130 148 172
133 152 175
134 152 177
130 148 172
136 154 178
130 146 169
132 150 174
133 151 175
131 147 171
130 148 173
131 149 173
131 150 173
133 151 175
131 149 173
135 152 177
134 153 177
132 150 174
131 150 174
132 150 174
135 153 176
132 150 173
135 153 177
132 150 175
132 151 176
134 152 176
133 151 175
132 151 175
132 149 173
132 150 174
133 152 176
133 152 177
133 152 176
134 153 177
130 148 171
129 146 168
129 147 172
133 152 177
131 149 173
131 150 173
129 146 169
126 143 166
135 152 176
133 151 174
134 152 176
133 151 176
132 149 170
126 144 166
128 146 170
129 146 168
132 150 175
133 151 174
134 152 176
134 152 176
130 148 172
133 150 174
134 153 176
129 147 169
132 149 172
132 150 174
133 151 174
135 154 178
133 152 175
132 150 174
129 146 170
130 148 171
133 152 176
131 148 171
132 149 171
129 146 168
131 148 171
130 148 171
131 148 171
130 148 171
130 146 168
131 149 172
130 148 172
133 151 174
132 150 174
129 145 168
130 147 169
133 153 178
130 148 170
132 150 173
132 149 173
129 147 170
130 148 172
132 151 174
130 147 169
132 149 172
128 145 168
130 147 170
128 143 165
130 147 169
133 151 175
131 148 171
128 145 168
129 145 168
130 146 168
129 147 170
131 148 170
130 145 166
132 149 173
130 147 170
129 146 169
130 147 169
129 145 167
131 148 171
129 148 172
130 147 170
131 147 168
128 144 166
130 148 171
128 145 167
130 147 169
129 147 170
130 148 173
127 144 166
129 146 168
127 143 165
127 145 167
129 147 170
127 144 166
133 151 175
132 149 172
132 151 175
125 141 163
128 146 170
129 146 169
126 143 163
130 147 171
131 148 170
123 139 161
127 144 166
127 145 168
130 146 168
125 142 165
126 143 166
126 140 162
126 142 163
125 140 161
130 146 169
129 145 167
128 144 167
120 135 154
128 144 166
126 143 166
128 144 167
125 138 158
127 143 164
126 141 162
125 140 160
127 141 162
127 143 165
125 141 163
128 144 167
124 138 159
128 144 167
126 143 165
125 139 160
123 139 159
124 138 158
123 139 160
118 130 150
127 143 166
124 140 162
121 135 155
123 137 158
126 142 164
121 138 159
120 135 156
124 139 161
123 138 158
123 137 157
120 134 155
119 131 151
122 135 155
121 134 154
119 132 151
123 138 159
121 133 152
118 130 149
117 129 147
117 129 147
118 131 151
115 128 148
116 128 147
116 129 147
119 132 152
122 134 151
114 128 146
116 127 144
114 123 140
122 136 155
115 126 142
108 111 125
114 120 136
107 108 120
107 112 126
110 110 123
103 101 109
103 101 111
96 81 83
84 72 73
91 70 71
86 64 69
83 59 63
75 53 73
81 55 74
75 52 84
70 49 81
62 43 86
59 41 95
56 39 93
45 32 102
39 28 103
39 28 103
34 25 106
17 15 111
15 13 113
11 11 111
11 11 112
11 12 112
11 11 109
11 12 113
11 11 110
11 12 112
11 12 113
11 11 111
11 12 114
11 11 108
11 12 114
11 11 113
11 11 112
11 11 113
11 12 113
11 12 114
11 12 113
11 12 114
11 12 114
11 12 112
11 11 111
11 12 114
11 11 112
11 11 111
11 12 115
11 12 113
11 11 110
11 12 114
11 12 113
11 11 110
11 11 112
11 12 115
11 12 116
11 12 113
11 11 112
11 11 112
11 12 114
11 12 113
11 12 113
11 12 114
11 12 116
11 12 114
11 12 114
11 12 113
11 11 112
11 12 112
11 12 114
11 11 111
11 12 115
11 12 113
11 12 115
11 12 114
11 12 113
11 12 115
11 12 113
11 12 112
11 11 110
11 12 114
11 12 115
11 12 114
11 12 113
11 12 114
11 12 112
11 12 115
11 11 109
11 12 115
11 11 112
11 12 113
11 12 115
11 11 112
11 11 111
11 12 112
11 12 113
11 12 113
11 11 110
11 12 113
11 12 113
11 12 114
11 12 113
11 12 114
11 11 112
11 11 111
11 12 114
11 12 112
11 12 114
11 12 114
11 11 112
11 11 109
11 12 113
11 12 114
11 11 111
11 12 113
11 12 112
11 11 111
11 11 109
11 11 110
11 12 113
11 12 111
11 11 109
11 11 108
11 12 113
11 11 111
11 11 108
11 11 107
11 11 107
16 19 109
26 29 110
30 33 114
56 63 123
54 60 116
64 73 122
79 89 133
89 99 135
98 112 143
95 107 142
104 118 148
101 115 144
108 121 147
108 121 147
117 132 155
124 140 163
128 144 166
123 138 160
122 138 160
123 140 160
123 140 162
122 141 163
126 143 166
122 137 158
119 136 157
120 135 153
124 142 165
126 143 166
117 132 153
124 140 161
120 138 159
126 144 166
127 144 167
122 138 160
125 143 165
128 147 171
126 143 166
122 138 159
127 144 166
122 140 162
121 138 160
123 141 163
119 137 159
121 139 162
122 139 161
125 143 164
125 144 166
127 144 167
125 141 163
121 139 164
122 139 160
129 146 170
125 141 164
123 139 160
124 140 163
118 136 157
123 141 162
125 142 164
122 140 163
121 138 161
127 145 166
121 136 157
124 141 162
121 139 161
124 140 162
123 140 160
122 139 161
122 139 160
125 142 165
120 137 159
126 143 166
121 138 160
120 136 158
123 141 162
125 143 166
123 140 162
123 139 161
123 141 164
120 136 157
122 140 162
119 136 159
124 142 166
114 131 153
118 136 158
121 139 161
122 140 162
124 143 165
125 143 168
121 139 162
119 138 160
127 145 167
124 144 166
125 143 165
126 144 169
127 145 168
122 140 162
126 143 165
123 140 163
123 142 163
120 138 162
122 141 164
124 141 164
114 132 152
124 141 164
124 143 167
122 140 163
122 139 162
118 135 157
114 132 154
113 130 150
119 135 157
117 136 159
110 129 158
101 117 145
98 117 149
88 106 140
79 98 134
61 84 127
51 76 127
44 73 128
41 70 125
35 65 122
38 70 128
36 67 125
36 68 126
33 62 115
36 66 123
32 60 113
36 68 125
35 66 123
33 62 117
37 68 126
34 64 119
34 64 121
37 69 128
32 60 113
34 64 120
38 71 130
36 67 126
35 65 122
37 69 127
36 67 124
38 69 128
35 65 120
37 68 127
39 72 134
35 65 122
37 68 127
38 68 125
36 67 125
36 67 124
33 62 117
33 62 115
37 68 125
38 70 128
34 62 116
33 62 116
33 61 115
37 69 128
35 65 120
36 66 123
35 64 119
34 63 118
34 63 115
38 69 127
35 64 118
34 63 116
34 63 117
35 64 118
33 61 114
35 63 117
34 63 116
34 62 114
36 64 117
34 61 112
33 60 112
33 61 114
33 60 112
34 61 113
33 61 114
36 65 120
33 60 111
31 57 106
33 61 112
36 63 113
33 59 110
33 60 112
33 57 105
33 60 111
35 64 117
34 60 111
34 62 115
34 62 114
34 61 113
36 61 111
46 65 112
49 67 115
65 70 108
72 79 112
87 82 108
98 90 107
116 103 115
116 101 114
120 113 122
120 108 115
135 123 126
137 126 132
135 122 126
136 121 125
142 132 135
139 129 133
151 139 145
149 135 140
155 143 146
140 130 134
151 139 143
151 140 145
144 134 141
143 133 141
150 140 147
150 138 144
146 136 144
145 134 142
152 141 148
145 134 143
146 134 142
141 128 136
153 138 146
136 123 132
148 134 141
157 143 148
143 128 136
150 138 146
150 135 141
156 142 147
164 149 153
152 137 144
146 134 141
160 148 151
153 140 148
161 146 152
168 153 157
163 149 154
174 159 164
176 161 165
175 160 162
184 169 171
183 168 170
180 165 168
189 173 175
189 173 174
190 175 177
180 166 170
188 172 175
185 169 172
185 170 173
181 166 169
174 160 163
189 174 177
185 170 173
183 169 172
180 165 170
190 174 178
179 166 169
180 167 169
178 165 169
180 167 171
177 165 167
179 166 169
181 168 171
177 164 166
180 168 169
187 173 173
177 164 166
181 166 168
178 165 164
174 163 163
175 164 163
169 159 155
176 164 163
175 164 163
170 161 158
162 153 150
162 152 150
165 153 153
177 166 162
165 156 153
170 159 158
173 159 159
171 158 157
168 155 154
175 161 160
159 147 145
177 163 161
161 148 147
161 150 150
158 147 146
166 154 153
171 158 160
169 155 157
174 158 161
169 156 158
174 160 164
158 145 148
164 148 151
157 144 148
168 152 155
165 148 151
157 141 145
166 151 154
160 149 151
151 139 142
154 143 144
150 137 141
159 146 150
155 141 145
163 149 152
151 137 141
134 122 128
158 144 147
145 132 136
153 140 143
149 136 140
142 128 133
144 124 134
148 131 138
142 128 136
145 133 137
147 132 140
156 142 146
140 129 135
143 132 134
145 134 140
132 123 125
140 128 131
140 130 131
128 118 125
129 120 122
121 120 129
133 135 147
130 137 153
127 137 155
130 144 163
129 145 167
127 143 166
130 147 170
128 145 167
128 145 167
128 145 167
127 143 166
125 142 164
131 149 170
128 144 165
128 145 165
130 147 169
127 144 165
131 148 169
131 148 168
128 145 166
127 143 164
128 147 167
124 141 163
129 146 168
128 145 165
128 144 167
131 148 170
131 148 170
128 146 167
129 146 167
128 146 166
130 147 170
126 143 166
128 146 169
129 147 168
131 147 169
131 149 171
129 147 168
127 145 167
125 143 164
130 147 169
127 144 164
130 147 169
125 142 161
131 149 172
127 143 165
127 144 167
127 144 165
128 144 165
128 145 166
129 148 169
130 149 172
132 149 173
132 150 171
130 148 169
131 148 170
127 144 167
127 144 166
127 143 163
126 142 162
131 147 169
124 142 163
126 145 165
127 143 162
130 147 169
131 148 169
130 147 168
130 147 168
128 144 165
129 145 165
132 149 171
126 143 162
129 146 166
129 146 166
133 151 174
130 147 168
126 144 163
128 145 166
133 151 174
125 143 163
130 149 170
130 148 169
127 144 166
128 145 168
130 146 167
130 148 171
129 146 166
128 145 168
131 149 170
130 148 170
132 149 172
130 148 171
129 145 166
130 147 169
130 147 170
127 147 166
129 148 169
127 145 165
125 141 161
129 146 167
127 143 164
127 144 164
129 147 167
125 142 162
128 145 166
129 145 166
131 148 169
131 148 171
130 148 171
127 145 166
127 144 163
128 143 164
129 145 166
131 148 170
126 143 164
126 143 165
132 149 171
129 148 169
130 146 168
128 145 164
130 148 169
129 147 167
122 139 158
127 145 164
125 142 163
128 144 167
128 144 167
127 145 165
128 146 168
126 143 165
131 148 169
129 146 167
128 145 166
129 148 167
130 147 169
131 149 171
127 144 163
127 145 166
129 145 164
131 148 170
127 143 163
130 149 171
128 147 168
128 146 167
134 151 173
127 145 165
131 149 171
129 148 170
128 146 168
129 146 167
130 148 169
128 144 167
131 150 171
130 148 171
129 146 165
131 148 169
131 149 171
133 151 174
129 147 166
132 150 173
130 147 169
129 146 168
131 148 167
133 151 174
128 144 163
130 148 170
128 145 168
129 147 166
125 144 161
128 145 166
128 145 165
131 147 167
130 148 170
125 140 159
128 145 165
128 146 168
129 146 168
127 143 164
129 146 167
131 149 169
126 142 161
130 148 169
128 147 169
132 150 170
125 142 161
127 145 163
132 150 173
128 145 168
130 147 169
126 144 162
131 148 169
130 147 168
127 145 166
130 147 170
126 142 161
128 146 165
131 147 169
129 146 167
132 149 171
129 146 166
126 143 161
127 143 162
130 147 170
130 147 166
130 147 167
129 147 168
131 146 167
132 150 172
122 138 158
132 149 170
130 149 170
126 143 162
131 149 167
126 144 164
124 141 162
131 148 169
131 150 173
127 145 167
129 148 170
125 142 165
128 146 166
129 147 168
128 144 166
129 147 168
130 148 170
131 149 172
133 152 173
127 144 163
124 140 161
126 143 163
129 146 167
127 145 164
133 151 173
129 147 166
128 144 165
127 144 165
129 146 167
127 144 164
130 147 169
130 148 170
128 145 163
131 149 170
129 145 164
129 146 166
129 146 167
130 147 168
129 147 168
131 148 171
127 145 166
131 148 170
132 151 171
130 147 168
128 144 165
127 142 162
129 147 168
130 148 167
128 146 166
128 145 166
124 141 160
131 148 169
130 148 169
130 148 170
130 147 167
127 146 167
128 147 166
126 142 162
130 148 167
133 151 172
128 147 167
128 144 166
133 150 173
132 149 171
129 147 168
131 148 168
130 147 169
130 148 169
127 144 161
127 145 166
130 147 166
129 146 167
129 147 168
125 143 162
125 141 160
128 145 162
130 147 167
129 148 170
132 150 172
127 144 164
129 145 166
132 148 171
129 146 166
128 146 166
129 145 164
129 146 167
127 144 164
127 142 164
128 144 164
129 146 169
126 144 164
128 146 165
128 146 166
128 145 166
129 147 170
126 141 163
130 147 171
130 146 168
129 148 167
127 144 164
132 151 172
131 147 169
128 146 167
130 146 168
127 145 167
127 144 164
127 143 165
127 143 164
127 144 167
129 148 170
128 144 166
125 141 159
128 144 167
126 143 164
131 148 170
127 143 163
128 146 167
125 142 160
131 149 172
128 145 165
127 143 164
124 139 160
121 138 158
118 135 156
104 120 135
88 103 120
79 92 108
69 85 96
60 73 86
43 57 68
14 35 45
5 33 43
5 33 42
5 33 43
5 33 43
5 35 45
4 32 41
5 34 44
5 34 44
5 34 44
5 34 45
5 32 41
5 33 43
5 33 43
5 33 43
5 34 44
5 34 45
5 33 43
4 32 42
5 34 44
5 34 44
5 35 45
5 34 45
5 34 44
5 34 45
5 33 44
5 34 44
5 34 44
5 34 44
5 33 44
5 34 44
5 34 44
4 31 41
5 33 43
5 35 45
5 34 44
5 33 42
5 33 43
5 34 44
5 35 45
5 35 45
5 34 44
5 35 45
5 32 42
5 35 46
5 32 42
5 34 44
5 33 43
4 32 41
5 34 44
5 35 45
5 34 44
5 34 45
5 35 45
5 36 47
5 34 44
5 34 45
5 35 45
5 34 45
5 35 45
5 34 44
5 33 43
5 34 45
5 34 45
5 33 43
5 34 44
5 35 45
5 33 44
5 34 44
5 34 45
5 34 45
5 31 41
5 33 43
5 32 43
5 34 45
5 32 42
5 32 42
5 34 45
5 32 42
5 31 41
5 33 43
5 33 43
5 31 41
5 32 42
5 30 40
5 31 42
5 32 43
5 29 40
5 30 41
5 29 41
5 27 38
5 30 40
4 28 38
4 27 37
26 27 41
44 29 49
53 29 54
70 29 62
87 30 73
100 30 81
116 34 93
127 36 100
135 36 104
143 37 108
148 39 114
155 40 117
164 42 124
162 42 125
166 43 127
167 42 127
164 42 125
164 42 124
164 42 124
167 43 126
166 42 127
162 42 123
166 43 127
171 44 130
170 44 131
168 43 128
171 44 131
168 43 128
170 43 129
169 43 129
171 44 131
171 44 130
173 44 132
173 44 131
173 44 131
170 44 129
172 44 132
167 43 126
174 45 133
167 43 128
168 43 128
169 43 129
173 45 133
176 45 135
166 43 128
166 42 126
175 45 134
165 42 126
170 44 131
172 44 132
172 44 131
171 44 131
171 44 131
165 42 126
164 43 126
168 43 129
175 45 133
171 44 131
166 43 128
173 45 134
169 43 129
172 44 131
166 43 128
169 44 129
170 43 129
176 45 135
169 44 130
167 43 127
167 43 128
168 44 129
164 42 126
176 45 134
169 44 129
170 44 131
172 44 132
165 43 126
174 45 133
173 45 132
170 44 130
176 45 133
170 44 130
172 45 134
175 45 134
175 45 135
174 45 134
165 42 127
170 43 129
178 45 135
167 43 128
167 44 130
170 44 130
175 45 133
176 46 136
174 45 132
168 43 129
174 45 133
172 45 132
174 45 134
171 44 132
174 45 133
176 46 134
175 45 133
169 44 132
170 44 130
168 43 129
176 45 135
176 46 136
175 46 135
171 44 131
173 45 133
174 45 133
168 44 130
167 44 129
166 43 127
174 45 134
176 46 134
172 45 131
173 45 134
169 44 130
174 45 133
174 45 135
169 44 129
174 45 133
161 43 124
170 44 130
169 44 129
169 44 131
175 46 134
171 45 132
173 45 134
167 44 128
176 46 135
174 45 132
171 44 130
174 45 136
170 44 130
174 45 132
169 44 128
172 45 132
173 44 132
164 43 125
173 45 134
169 51 131
159 51 127
158 61 129
154 69 131
141 83 131
145 85 135
135 87 130
135 87 131
128 95 132
126 115 147
111 105 133
115 117 142
108 114 138
108 114 136
112 123 145
112 119 143
113 119 143
110 119 140
111 120 144
111 119 144
114 124 147
114 124 147
118 129 150
115 126 150
108 116 138
121 132 157
118 129 152
118 128 152
123 135 158
117 127 152
118 129 155
119 130 155
121 133 157
117 125 148
117 125 150
118 128 153
119 130 152
113 122 145
119 129 154
122 133 156
123 136 161
120 130 153
123 137 161
119 130 153
124 138 162
118 130 154
123 136 159
115 127 150
120 134 156
122 137 160
125 141 163
123 136 159
121 134 156
122 133 157
123 135 161
126 139 163
126 139 163
127 142 167
122 135 159
124 137 161
126 139 164
123 136 159
122 136 160
121 135 159
126 142 166
125 138 163
126 141 165
126 141 165
125 138 162
127 142 165
124 137 162
125 140 163
127 142 165
127 143 166
127 142 165
126 140 165
127 145 168
128 143 166
126 140 163
124 140 165
129 144 169
128 143 167
128 145 169
129 145 170
128 145 169
125 142 166
126 141 164
125 138 161
128 144 168
128 146 169
127 143 168
128 144 168
128 146 171
126 142 166
127 142 166
130 147 172
127 142 165
129 146 171
125 140 166
130 146 170
127 141 164
129 144 169
130 145 168
129 144 169
129 146 170
129 144 166
128 145 168
130 146 169
127 143 168
130 146 170
128 143 167
128 144 168
128 145 169
