P3
1600 1
255
2 87 135
2 87 134
2 83 128
2 83 129
2 85 131
2 87 133
2 83 126
2 86 132
2 87 132
2 85 130
2 81 127
15 84 129
27 85 127
41 91 133
57 98 136
75 109 143
71 104 138
82 110 142
92 118 147
90 115 144
96 117 143
105 125 149
115 132 155
109 128 152
114 131 156
106 124 147
108 126 150
111 127 150
104 122 145
111 130 155
113 132 155
109 127 150
112 130 153
109 128 153
105 122 145
116 135 159
109 128 152
118 137 162
107 125 150
118 137 161
114 133 157
109 128 151
114 132 157
117 136 161
117 136 160
108 128 153
116 135 159
115 133 157
118 136 161
108 126 150
115 133 157
113 131 155
111 130 155
116 135 160
109 126 149
114 131 154
121 140 165
120 140 164
116 134 159
119 139 164
117 136 160
120 139 163
117 136 161
121 140 165
119 138 163
128 147 172
122 141 165
121 140 166
122 141 166
122 142 167
121 139 163
124 142 166
119 140 164
120 138 163
118 136 161
118 138 163
120 140 165
123 143 169
121 138 162
128 146 170
125 143 167
127 145 170
118 137 162
124 144 169
123 141 167
119 138 163
122 142 167
120 137 161
124 143 169
119 137 162
118 137 161
126 144 168
123 141 166
120 138 162
124 142 167
116 134 157
121 140 165
121 140 165
128 147 171
123 143 166
127 145 169
123 142 166
122 141 165
126 145 168
129 148 173
122 142 167
127 146 171
130 147 171
126 144 168
126 144 168
127 146 171
129 147 171
121 137 161
125 144 167
124 142 167
129 148 172
124 143 168
123 142 166
129 148 172
130 148 172
129 147 172
123 142 165
130 148 172
132 149 173
128 147 170
127 145 170
128 148 173
127 146 170
127 145 169
128 147 171
130 149 173
127 145 170
131 150 173
126 145 169
130 149 174
126 145 169
129 148 173
131 150 174
126 145 169
131 149 173
130 149 173
130 149 173
127 146 171
127 144 168
133 151 174
127 146 171
127 146 170
133 151 174
126 145 170
127 144 167
131 150 175
132 151 176
129 147 171
128 144 168
130 148 172
127 147 172
130 148 172
129 147 171
128 147 171
125 143 166
130 147 171
132 151 175
130 149 173
129 149 173
129 147 171
131 148 172
127 147 171
133 152 177
127 146 170
132 151 175
132 150 176
130 148 172
134 152 177
129 148 173
129 148 173
132 150 174
131 150 174
133 152 176
128 145 169
133 151 176
123 140 163
133 152 176
130 147 171
130 148 171
132 150 174
128 146 170
131 149 173
132 150 174
131 149 173
132 150 174
132 151 176
132 151 175
130 149 174
130 148 172
133 151 175
132 150 173
133 151 175
131 150 174
129 147 172
128 146 170
130 148 173
134 152 177
132 150 175
134 153 177
133 151 175
134 152 176
135 153 178
132 149 173
133 150 173
132 150 173
133 151 175
130 148 171
135 153 178
131 149 174
130 149 173
134 153 177
129 148 171
132 151 174
130 148 172
131 150 174
133 151 176
133 151 175
132 152 176
130 147 170
131 149 173
131 149 172
131 149 173
131 151 174
131 150 175
132 150 174
131 149 174
133 151 175
130 148 173
131 148 171
131 149 172
131 149 172
133 152 176
130 148 172
132 150 173
131 151 177
131 149 173
132 150 174
126 143 167
131 149 172
130 148 172
132 150 174
134 153 176
131 149 172
130 148 171
132 150 174
132 151 175
133 151 175
133 151 175
133 151 174
132 150 173
133 152 176
134 152 176
130 147 170
132 150 174
131 150 174
131 149 172
132 150 174
133 151 175
136 154 178
132 150 174
135 152 176
132 151 176
132 150 173
134 153 177
134 152 176
132 150 174
133 152 176
134 153 177
134 153 177
132 150 174
132 151 174
133 150 174
133 151 175
131 150 174
135 154 179
133 152 176
131 149 173
129 147 169
131 148 171
129 148 173
134 154 179
130 147 170
133 152 174
123 141 164
131 149 172
135 152 175
132 150 173
132 150 174
134 151 173
129 146 168
126 143 165
130 148 172
130 147 170
131 149 172
131 149 171
133 152 176
135 154 177
131 149 172
133 151 175
133 152 176
129 146 168
134 152 175
135 153 176
132 150 173
133 152 176
131 150 174
131 150 173
130 147 170
133 151 175
131 149 172
131 148 171
128 145 168
131 148 172
131 147 170
134 152 175
132 149 172
129 146 169
132 150 172
131 149 173
128 145 168
133 150 173
130 148 172
130 146 169
133 150 174
131 151 176
133 152 175
132 149 172
131 148 171
130 148 172
130 148 171
133 151 174
129 144 166
131 149 174
129 146 169
128 144 165
129 146 167
132 150 172
130 147 171
130 147 170
130 147 171
126 142 163
130 146 169
130 149 172
128 142 162
132 148 170
130 148 170
129 146 168
130 146 167
130 148 171
126 142 163
129 148 172
131 148 171
133 149 172
129 145 167
127 144 166
129 146 168
129 145 168
130 147 168
129 147 171
130 148 173
126 141 162
128 143 164
128 144 167
127 145 168
123 138 158
130 147 170
130 146 169
131 149 173
127 144 167
128 144 166
126 142 164
129 145 168
126 142 163
128 144 166
128 145 167
126 142 165
126 143 167
129 145 167
126 142 165
129 146 170
125 140 162
127 142 164
129 144 164
127 142 164
127 142 163
128 145 168
121 134 154
128 145 168
126 143 165
127 144 168
123 138 160
127 141 160
125 141 163
125 141 162
123 137 157
126 140 161
123 138 158
123 137 157
123 137 158
128 146 168
125 142 163
125 139 160
124 138 158
122 135 156
125 140 161
123 137 156
127 142 164
121 134 154
121 135 155
118 132 152
124 139 159
125 141 162
118 132 153
124 139 161
121 135 156
123 136 156
118 132 153
114 126 145
118 130 150
117 130 148
119 132 152
125 141 162
119 131 150
117 131 152
114 125 143
120 132 151
113 125 144
118 130 149
117 128 146
118 130 149
117 129 148
110 120 137
118 130 149
120 131 149
112 123 140
119 132 151
109 118 133
118 129 148
111 119 135
109 118 136
110 119 135
110 120 138
108 116 130
109 112 126
104 103 112
100 99 110
101 98 108
84 76 89
87 75 90
85 71 89
85 71 90
68 51 86
72 58 84
59 42 89
46 31 95
51 36 95
40 29 101
37 27 102
35 25 108
29 21 109
11 11 111
11 12 114
11 11 111
11 11 109
11 11 109
11 11 110
11 11 110
11 11 111
11 11 111
11 12 112
11 11 112
11 11 107
11 12 112
11 12 113
11 11 110
11 11 111
11 12 114
11 12 113
11 12 114
11 12 113
11 11 110
11 11 110
11 12 113
11 11 111
11 11 109
11 12 112
11 12 113
11 12 112
11 11 110
11 12 113
11 12 112
11 12 112
11 12 113
11 12 114
11 12 114
11 12 114
11 11 111
11 11 111
11 11 112
11 11 112
11 11 111
11 12 114
11 12 116
11 12 113
11 12 115
11 11 111
11 12 112
11 11 112
11 12 114
11 12 114
11 12 114
11 12 115
12 12 115
11 12 114
11 11 111
11 11 112
11 12 113
11 11 111
11 11 111
11 12 114
11 12 113
11 12 114
11 11 110
11 12 112
11 12 113
11 12 113
11 11 110
11 12 113
11 12 113
11 12 114
11 12 114
11 11 109
11 11 112
11 12 112
11 12 113
11 11 112
11 11 109
11 12 113
11 12 113
11 12 112
11 11 112
11 12 114
11 12 113
11 11 109
11 12 115
11 11 111
11 12 114
11 11 111
11 12 113
11 12 112
11 11 112
11 11 112
11 11 111
11 12 112
11 11 111
11 12 112
11 11 111
11 12 113
11 11 111
11 11 109
11 12 111
11 11 108
11 12 112
11 11 112
11 11 108
11 11 109
11 11 106
11 11 110
11 11 107
11 11 111
11 11 111
10 11 104
25 28 108
46 50 117
53 61 121
56 63 119
70 79 124
76 85 128
84 95 134
89 101 138
92 105 139
105 119 145
116 131 157
119 134 160
119 135 160
123 141 162
124 140 160
124 141 164
125 145 168
124 139 162
121 137 158
123 140 159
123 139 160
122 138 161
124 141 163
119 136 156
126 142 164
121 138 160
128 146 168
127 144 166
123 139 162
125 142 164
125 143 167
126 143 166
122 139 162
125 143 166
124 141 163
122 140 162
119 136 158
124 141 164
123 140 163
122 138 160
123 141 161
124 142 164
126 143 166
123 141 163
122 139 162
121 138 160
127 145 167
122 139 161
122 138 160
118 136 158
121 136 157
122 141 163
125 141 162
123 141 163
123 140 162
121 137 159
120 136 156
124 141 162
119 136 158
125 143 164
121 138 158
122 138 160
124 141 163
119 135 158
120 136 158
123 140 163
118 135 157
121 138 159
126 143 164
122 140 162
124 142 165
123 140 161
126 143 167
116 132 153
119 136 159
120 135 157
121 139 162
120 137 161
122 139 162
123 142 164
123 141 164
119 137 160
123 141 164
121 140 163
127 145 166
121 140 162
120 137 160
123 141 166
127 144 167
121 138 161
124 141 163
119 137 160
123 142 163
116 134 158
124 142 166
121 139 161
116 133 154
122 138 160
120 138 161
120 136 159
116 132 154
115 132 153
115 132 155
119 135 156
122 140 161
125 144 167
122 140 163
118 135 157
115 131 155
115 130 155
115 132 154
105 123 149
106 125 152
95 115 145
84 100 131
70 88 125
61 82 126
46 73 126
45 72 124
33 61 115
35 65 122
31 57 108
32 60 113
39 73 134
33 62 117
35 65 120
36 66 122
32 60 114
33 62 118
36 67 124
34 64 119
37 69 127
36 67 123
32 60 113
35 66 122
36 67 124
36 67 124
36 67 124
35 65 120
36 66 124
36 67 125
39 71 130
35 66 122
33 60 115
36 66 123
35 65 121
36 66 122
31 59 110
38 69 127
35 64 119
34 62 116
34 63 117
35 65 122
35 65 121
34 63 118
34 62 114
33 61 114
34 63 118
34 63 119
35 64 118
35 64 119
33 61 114
34 63 117
36 65 121
34 63 117
33 60 113
32 58 110
33 61 114
35 63 117
33 61 112
34 61 112
35 63 115
35 63 115
34 62 115
34 61 114
36 65 120
32 59 108
33 60 111
33 59 108
31 57 107
35 62 113
35 62 115
32 58 106
31 55 102
33 58 107
34 62 115
33 60 112
32 58 107
33 59 111
33 60 110
33 59 108
38 62 111
48 65 108
48 65 106
69 70 104
74 72 104
93 82 104
89 83 101
109 100 114
112 95 105
116 103 110
129 113 117
133 119 124
134 122 127
127 115 121
141 125 130
143 131 135
138 128 133
139 126 130
142 133 140
152 141 146
143 134 140
148 136 140
141 131 137
145 135 142
138 129 135
150 140 145
144 133 140
139 129 137
142 132 140
136 125 134
146 134 141
140 127 134
129 119 129
139 129 135
141 130 137
146 134 140
150 137 143
140 127 133
146 134 139
149 133 139
145 130 137
154 140 146
142 127 134
152 139 144
151 137 143
166 152 159
161 146 151
160 147 151
161 147 150
164 153 159
172 158 161
166 151 153
169 155 159
172 158 159
167 154 158
174 157 160
173 160 162
179 164 165
180 166 170
185 171 173
180 167 170
185 171 172
171 157 161
176 161 166
182 168 173
180 165 169
177 164 168
182 167 173
177 165 168
184 169 173
174 162 164
186 172 174
180 167 169
175 163 165
173 161 163
174 162 163
176 164 165
177 165 165
175 164 162
174 162 163
157 147 149
167 155 156
169 156 159
176 164 164
177 164 165
167 157 155
173 161 160
170 160 157
171 160 159
175 164 164
162 152 148
158 149 146
157 149 143
160 149 148
160 148 146
162 150 149
169 156 154
155 143 142
164 154 152
170 157 158
160 148 147
164 152 152
163 153 152
156 148 146
163 151 152
159 147 147
162 150 152
158 147 148
166 151 154
149 135 137
156 140 144
161 148 150
158 144 147
164 153 154
142 129 132
153 139 142
161 146 150
141 125 130
155 141 143
141 127 132
141 132 134
142 133 137
145 132 135
152 142 145
141 124 131
138 122 128
154 140 144
145 133 137
138 121 127
146 134 138
136 121 129
137 125 131
154 138 143
141 124 134
142 131 139
137 127 133
140 130 134
141 131 136
138 129 134
141 128 131
127 120 124
138 131 133
129 122 127
132 131 139
129 132 147
126 132 143
127 129 145
123 134 149
126 139 156
126 141 162
129 147 168
129 147 168
127 142 163
125 143 165
128 146 169
125 142 164
131 148 170
128 145 164
129 147 170
129 144 166
128 145 165
132 149 172
129 145 166
129 147 171
129 145 168
125 143 165
131 150 172
128 145 168
129 146 168
127 145 167
130 147 169
124 142 163
125 141 161
129 146 166
128 145 167
125 143 163
130 148 170
129 145 167
126 143 163
126 143 164
128 144 165
126 144 164
126 143 162
131 149 172
130 147 171
131 149 171
131 149 170
132 149 172
131 149 172
125 143 164
129 147 168
125 141 161
129 145 165
128 145 166
127 145 166
129 145 164
131 147 168
128 145 166
130 147 168
130 147 169
129 146 168
128 144 165
130 146 167
127 145 164
129 146 168
132 149 170
130 147 170
127 144 164
128 145 166
126 143 163
132 150 172
128 145 166
129 147 169
129 147 170
129 145 168
128 145 167
131 148 169
128 145 169
127 144 166
128 145 166
129 147 168
131 149 172
130 148 170
131 149 170
129 146 167
129 146 167
130 147 170
128 146 166
130 149 170
128 145 166
128 144 163
128 144 166
127 144 165
127 145 165
128 146 168
127 143 164
127 145 166
128 145 167
131 148 170
131 148 171
131 150 172
129 146 170
126 143 162
129 145 166
130 146 167
133 150 174
128 145 167
127 146 164
133 151 173
129 147 170
128 146 166
128 145 168
132 150 171
130 149 169
123 138 159
128 147 166
126 144 166
125 142 162
129 146 168
130 147 168
128 145 166
123 140 160
132 149 172
127 142 162
130 146 168
130 146 167
128 145 167
128 145 167
130 148 168
126 144 164
129 146 165
131 148 170
129 146 167
129 146 168
131 149 171
129 147 169
133 151 173
124 141 161
129 147 169
127 145 167
130 147 170
125 143 163
127 145 166
130 149 170
131 149 171
130 149 171
130 148 168
132 149 170
129 147 170
132 150 172
130 148 169
130 147 168
131 148 170
129 146 168
131 148 169
127 145 166
133 149 170
129 146 169
132 150 172
128 146 166
125 143 160
127 144 167
128 145 165
129 145 164
131 149 170
125 141 162
129 145 167
129 147 169
126 144 165
127 143 164
130 147 168
132 149 170
125 142 161
129 147 168
131 150 172
131 148 169
128 145 165
127 145 163
133 151 173
128 146 169
128 145 168
127 145 164
127 145 163
129 147 169
127 145 164
131 148 171
123 138 157
129 146 165
129 147 167
132 150 173
130 148 168
130 148 169
125 140 158
127 143 163
132 150 170
128 145 166
132 149 169
127 145 164
131 147 169
131 150 170
131 148 170
129 147 167
131 149 171
125 142 162
128 147 165
131 149 168
123 141 161
130 147 168
131 149 172
130 148 169
129 146 169
128 146 167
127 144 165
128 146 166
131 149 170
130 146 168
127 145 166
132 150 173
134 151 173
127 145 165
125 140 157
126 142 162
128 145 166
129 147 168
130 148 170
129 147 168
129 145 165
126 144 163
131 148 170
127 144 163
128 144 165
131 148 171
128 146 167
134 152 174
128 145 165
130 147 168
126 143 162
130 147 168
130 148 168
128 146 167
130 147 169
129 146 167
132 149 172
132 148 169
129 145 166
130 147 169
127 145 165
131 149 170
130 147 168
131 149 171
124 141 161
129 148 169
134 151 174
129 147 167
130 147 168
129 147 168
128 145 167
129 146 166
129 147 166
132 151 173
130 147 167
128 146 167
129 146 166
133 150 173
129 146 167
131 148 169
134 152 174
126 144 164
129 147 168
126 143 162
127 145 165
131 148 169
128 144 162
128 146 166
127 143 163
128 144 163
129 146 166
130 148 170
130 147 169
129 145 168
131 149 171
131 148 168
129 148 169
129 147 168
130 148 170
127 143 166
128 146 166
128 146 167
128 144 165
129 146 167
127 145 163
128 145 167
132 150 173
126 144 164
130 149 170
125 142 166
128 145 169
130 148 170
129 146 166
128 147 166
128 146 168
131 148 169
132 151 173
128 145 167
128 146 168
126 144 163
124 141 162
130 146 168
130 147 169
129 146 168
132 150 172
126 144 164
125 141 162
128 146 167
125 141 161
132 150 172
128 145 165
125 142 160
128 146 166
128 145 167
127 145 164
131 146 168
128 144 167
128 145 166
128 147 167
129 146 168
126 143 165
129 146 167
130 147 168
127 143 164
128 145 167
130 148 172
129 145 166
132 149 173
125 141 161
116 133 152
116 130 151
105 120 137
91 106 123
78 92 108
70 84 99
59 72 86
38 53 63
29 45 54
5 33 43
5 33 43
5 33 43
5 33 43
5 33 43
4 32 42
5 33 43
5 33 43
5 33 43
4 31 41
5 33 43
5 32 42
5 33 43
5 32 42
5 33 44
5 33 44
5 35 45
5 34 44
5 35 46
5 34 43
5 34 43
4 32 42
5 33 42
5 34 44
5 32 42
5 33 43
5 33 43
5 33 43
5 34 44
5 33 44
5 34 44
5 34 44
5 33 43
5 34 44
5 33 43
5 33 43
4 32 41
5 34 44
5 34 44
5 33 43
5 33 43
5 33 44
5 35 45
5 34 44
5 34 44
5 34 44
5 35 45
5 34 44
5 32 42
5 35 45
5 34 44
5 34 44
5 33 43
5 34 45
5 34 44
5 34 45
5 33 43
5 34 45
5 34 45
5 33 43
5 34 44
5 33 44
5 34 44
5 34 45
5 34 44
5 33 44
5 34 44
5 32 43
5 33 44
5 34 44
5 32 42
5 33 44
5 33 43
5 32 42
5 33 43
5 33 43
5 33 43
5 32 42
5 32 43
5 32 42
5 32 43
5 31 42
5 31 41
5 31 42
4 30 40
5 31 41
4 29 39
5 30 40
5 30 41
4 29 39
5 30 40
4 28 38
5 29 39
29 27 43
48 28 51
55 28 53
74 29 65
106 34 86
109 33 87
108 34 88
128 35 99
130 35 101
146 38 112
146 37 110
154 39 117
162 42 124
168 43 127
162 41 124
160 41 122
163 42 124
160 41 121
170 43 130
172 44 129
169 43 128
167 43 128
165 43 127
174 45 132
163 42 124
166 42 127
168 43 128
159 40 121
162 41 123
174 45 133
166 43 127
160 41 122
171 44 132
168 43 129
170 44 130
175 45 135
167 43 127
168 43 128
170 44 130
169 43 129
172 44 132
168 43 129
176 45 133
170 44 131
164 42 125
172 44 131
169 43 129
167 43 129
167 43 128
166 43 127
163 42 124
174 45 133
165 43 126
169 43 128
165 42 126
165 43 126
167 43 129
174 44 131
168 43 129
169 43 130
168 43 129
168 43 127
170 44 130
168 43 128
176 45 134
175 45 133
166 42 127
174 45 133
173 45 132
173 45 134
165 43 126
169 44 129
173 44 132
167 43 127
167 43 128
168 43 127
174 45 134
177 45 135
175 45 133
170 44 130
174 45 132
175 45 134
169 44 129
173 45 131
172 44 131
169 43 129
174 45 132
174 45 133
169 44 130
163 42 126
175 45 135
174 45 135
176 46 135
176 45 134
167 44 130
174 45 133
169 44 129
167 44 129
164 43 126
172 45 131
175 45 135
173 45 133
174 45 133
173 45 132
173 45 133
174 45 133
174 45 132
170 44 131
162 42 125
161 43 125
170 44 131
166 43 128
177 46 134
170 45 133
171 45 132
169 44 129
174 45 134
179 46 136
174 45 134
171 45 133
171 45 131
176 46 135
174 45 134
169 44 132
171 45 130
167 43 127
168 44 131
170 44 130
169 44 130
170 44 129
177 46 134
159 42 122
167 44 128
166 44 128
171 44 131
171 44 130
171 45 132
164 43 127
170 45 131
169 44 130
164 43 126
173 45 131
167 44 129
164 48 128
159 53 127
162 58 131
154 64 128
149 74 129
146 76 130
133 95 135
133 100 138
112 88 120
121 109 137
110 109 133
113 122 145
107 113 136
112 120 143
110 117 139
113 123 145
113 122 145
116 125 149
108 114 139
114 120 145
114 120 145
115 122 148
111 119 142
114 121 144
108 115 138
121 129 153
119 131 156
117 127 151
118 127 151
113 120 144
116 127 151
118 129 154
119 131 155
114 125 146
116 126 150
120 131 156
121 134 158
115 126 149
122 135 158
120 132 156
120 132 157
123 135 160
119 131 155
120 133 157
117 126 149
123 135 159
119 130 154
126 140 164
122 136 159
119 131 156
122 134 159
122 136 160
127 141 164
122 135 160
124 138 162
120 133 158
124 138 162
125 139 163
122 136 159
126 139 163
125 140 163
123 136 160
124 138 162
125 139 164
126 140 164
128 142 166
130 145 170
128 144 168
125 141 165
123 137 163
124 139 162
126 138 161
126 141 164
127 143 167
126 141 166
126 141 166
127 143 168
123 136 160
130 146 171
127 142 167
126 141 165
130 146 171
126 143 167
130 145 170
124 138 161
129 142 167
128 144 167
126 142 165
124 140 164
124 139 163
130 145 169
129 145 169
125 142 166
129 145 169
129 145 168
129 144 169
129 144 169
126 140 164
129 145 169
126 140 164
129 147 169
129 144 169
127 143 166
132 149 173
129 145 168
126 141 165
130 147 170
130 147 171
129 145 170
130 146 169
127 144 167
130 146 169
