P3
1600 1
255
2 83 128
2 84 129
2 86 132
2 83 128
2 84 129
2 87 133
2 81 126
2 83 129
19 86 130
23 84 126
40 93 135
48 86 122
52 91 127
65 101 136
78 106 137
70 99 131
88 111 138
95 117 143
101 122 148
102 121 145
101 120 143
103 119 140
112 131 156
107 126 150
103 123 147
109 127 151
104 120 144
109 126 150
106 125 149
110 128 151
106 125 149
107 125 150
110 129 153
99 117 140
111 130 155
115 134 160
106 126 150
109 128 152
113 132 157
109 128 152
111 128 152
116 134 158
110 130 154
116 135 160
106 124 148
117 136 161
113 130 154
117 136 160
112 129 152
113 132 157
115 134 158
114 132 156
119 138 162
116 134 158
114 133 158
119 138 163
118 137 161
117 135 160
116 136 162
120 138 162
119 138 162
117 136 162
121 140 165
119 138 163
124 143 168
118 137 162
123 142 167
120 139 163
122 141 165
116 134 158
116 135 160
120 138 162
117 135 159
119 138 161
120 139 163
121 141 166
120 138 162
122 140 164
123 141 164
123 141 166
120 138 163
123 144 169
122 141 166
121 139 163
121 139 164
117 137 161
121 141 166
120 138 161
123 142 167
123 142 167
125 143 167
123 142 167
122 141 165
116 134 156
121 140 164
122 142 166
124 143 167
119 138 161
123 142 167
123 142 166
123 141 165
125 145 168
125 144 168
124 143 169
126 145 170
130 147 171
126 146 171
123 142 166
126 145 171
129 148 172
125 142 165
126 145 169
124 143 168
127 146 171
125 144 168
120 137 160
129 148 172
130 149 172
124 142 167
123 141 164
132 150 174
130 148 171
128 147 171
127 146 172
129 148 173
130 148 172
128 146 170
131 150 174
128 146 169
130 149 175
131 150 174
126 145 168
131 150 175
127 146 170
131 150 174
131 150 175
126 145 169
132 150 173
129 148 173
128 147 171
124 144 168
130 149 174
131 149 173
128 147 171
130 149 174
131 150 174
127 146 170
129 147 171
132 150 174
131 149 173
129 147 171
129 147 170
129 148 173
129 149 173
129 148 173
129 146 171
130 149 174
124 143 167
129 147 171
128 147 170
130 149 173
128 147 172
128 146 171
130 148 172
132 150 174
133 151 175
127 146 170
131 150 175
131 150 175
131 149 173
133 152 177
130 150 175
131 150 174
131 150 174
131 150 175
131 150 174
130 147 171
133 151 176
127 145 169
128 146 171
132 150 174
128 146 169
131 149 173
132 150 174
129 148 172
134 152 176
129 147 171
131 150 175
132 152 176
131 149 173
130 149 174
130 148 171
133 150 175
131 149 173
133 150 174
132 150 175
131 150 174
129 147 170
131 149 173
133 151 175
132 150 175
134 153 177
132 150 173
129 148 173
136 154 178
131 149 174
132 150 173
133 150 173
133 152 176
130 148 171
132 150 174
132 150 174
131 149 173
132 149 173
132 150 173
130 149 173
131 149 172
132 151 175
132 151 175
134 153 178
130 149 174
131 149 173
130 148 172
131 149 172
130 149 173
133 152 176
132 150 175
132 150 174
131 149 173
132 151 175
130 149 173
132 150 173
131 148 172
131 148 170
132 151 175
130 147 170
134 152 176
131 150 175
130 148 173
132 151 175
128 145 168
132 151 174
130 149 173
131 150 175
134 153 177
130 148 172
131 148 171
130 149 174
134 152 177
131 150 174
131 149 173
134 152 176
131 148 171
135 153 177
131 149 172
134 151 174
130 148 173
131 149 174
132 149 173
131 149 172
133 150 175
134 153 177
132 151 175
134 152 175
133 152 176
133 150 174
134 153 177
132 149 172
132 150 173
134 153 177
134 153 177
133 152 175
132 150 174
132 151 175
133 151 174
133 151 175
131 150 174
135 154 179
134 152 177
131 148 172
129 146 169
130 148 172
129 148 173
135 154 178
132 150 174
131 149 172
126 145 168
130 147 170
135 152 175
131 148 171
133 151 175
134 153 176
132 150 172
126 144 166
129 146 170
129 147 170
131 149 173
132 149 172
133 151 175
134 153 177
131 149 172
133 151 176
135 153 177
130 147 170
133 150 173
134 151 174
132 150 174
134 153 177
131 151 174
131 149 173
130 148 171
132 150 173
132 149 173
130 147 171
131 148 172
130 148 171
131 148 171
132 149 173
130 147 170
130 148 171
134 151 173
129 148 172
128 146 169
132 150 173
133 151 175
130 146 169
131 148 171
133 153 178
132 150 174
132 150 174
131 148 172
127 144 167
132 149 173
134 151 175
128 145 168
131 149 172
129 145 168
130 146 169
131 148 171
132 150 172
131 148 172
128 145 167
129 146 169
128 144 167
130 146 169
129 146 169
128 145 167
128 143 164
130 147 170
128 146 169
128 143 164
132 149 171
129 145 167
128 146 169
131 148 171
129 146 169
126 142 164
127 143 165
131 148 170
127 144 167
129 145 167
129 147 171
132 151 176
127 141 162
128 144 165
128 145 167
129 148 171
125 139 160
128 144 167
130 146 169
131 148 171
128 145 168
126 142 164
127 143 165
124 140 161
124 141 163
130 145 168
128 145 168
129 145 168
128 145 167
128 145 167
126 141 162
127 144 167
125 141 163
125 140 161
128 143 163
128 145 167
126 141 161
127 144 166
121 134 155
127 144 166
127 143 166
127 144 167
125 140 162
125 138 158
124 140 162
120 133 153
121 135 155
127 142 163
124 137 155
122 135 156
123 138 158
129 146 168
127 143 165
122 136 156
125 139 160
122 135 155
122 135 155
125 139 158
126 141 163
121 133 153
122 135 154
119 134 153
124 138 159
126 141 161
119 133 152
120 133 153
119 132 151
124 136 155
117 132 153
116 126 144
119 131 151
116 130 148
123 137 158
120 134 153
120 133 153
121 134 154
117 129 148
119 129 147
111 121 139
113 123 140
114 125 143
112 123 139
122 134 154
107 114 129
109 119 134
111 121 138
118 130 148
109 117 133
121 134 154
110 119 136
107 114 129
113 124 140
116 126 144
110 120 135
111 120 136
108 115 130
109 119 135
108 117 133
106 112 128
105 111 128
97 100 120
92 91 109
87 82 101
78 75 101
74 72 105
66 58 97
55 42 91
47 35 96
42 35 99
40 29 104
37 27 102
28 21 103
18 15 109
11 11 111
11 11 106
11 11 110
11 11 112
11 11 107
11 11 110
11 11 111
11 11 112
11 11 108
11 11 111
11 11 110
11 11 112
11 11 111
11 12 113
11 12 112
11 12 112
11 12 112
11 11 111
11 12 112
11 12 113
11 11 112
11 11 112
11 11 111
11 12 113
11 11 109
11 11 112
11 12 112
11 11 112
11 11 110
11 11 113
11 12 114
11 12 114
11 11 111
11 12 112
11 11 110
11 12 114
11 11 112
11 12 112
11 12 112
12 12 116
11 12 114
11 11 112
11 11 110
11 11 112
11 11 111
11 11 111
11 12 113
12 12 116
11 12 113
11 12 115
11 11 112
11 11 111
11 12 114
11 11 111
11 11 110
11 12 113
11 12 113
11 12 115
11 11 110
11 12 112
11 12 112
11 12 113
11 11 109
11 12 114
11 11 113
11 12 113
11 12 113
11 11 112
11 12 112
11 11 112
11 12 111
11 12 114
11 11 107
11 12 113
11 11 111
11 11 111
11 12 112
11 12 114
11 11 111
11 11 112
11 12 112
11 12 113
11 12 112
11 12 112
11 11 112
11 11 112
11 11 111
11 12 112
11 11 112
11 11 111
11 12 112
11 11 111
11 11 111
11 12 112
11 11 111
11 11 110
11 11 110
11 11 111
11 12 113
11 11 110
11 11 109
11 11 109
11 11 109
11 11 108
11 11 109
11 11 110
11 12 113
11 11 108
11 11 110
11 11 106
11 11 110
11 11 111
11 11 105
11 11 105
18 19 108
39 43 116
46 50 117
52 59 120
67 76 125
84 95 138
80 90 132
85 95 136
100 112 141
102 115 143
107 122 151
112 128 154
115 128 151
120 137 159
121 138 159
119 134 154
124 140 161
124 142 164
120 134 155
123 139 160
122 139 162
121 136 158
125 142 164
124 141 163
125 141 164
126 144 166
123 140 163
126 143 165
128 146 168
120 135 158
125 139 161
120 138 160
125 142 163
120 137 159
125 142 164
123 139 160
124 142 163
124 142 165
118 132 152
121 137 161
125 143 165
124 140 162
123 140 162
123 139 161
122 139 161
120 136 158
121 139 161
125 142 163
119 136 157
123 140 162
119 137 159
121 137 158
125 141 164
120 139 162
125 143 165
121 137 158
124 141 165
123 141 161
127 143 165
120 137 160
125 142 164
120 137 161
122 140 161
127 144 167
123 141 165
121 139 162
123 139 161
127 144 167
119 136 157
114 130 153
123 140 164
124 142 165
115 132 155
125 142 166
120 137 159
124 142 165
119 136 160
124 142 166
121 139 162
124 143 165
120 136 157
120 137 161
122 138 161
125 143 166
122 139 162
122 139 161
117 134 157
123 142 164
120 137 159
121 140 165
119 137 160
118 136 157
119 135 157
122 139 161
119 138 160
118 133 156
119 135 158
116 134 156
114 131 153
121 135 157
119 136 159
121 140 163
120 137 159
113 130 154
115 130 152
119 137 160
118 137 158
117 135 157
116 134 157
119 137 160
111 126 149
106 122 147
106 123 150
96 114 146
93 111 143
85 104 139
67 86 122
61 83 129
46 70 118
53 76 124
36 63 115
34 64 121
34 64 118
33 62 116
33 63 119
32 60 114
35 65 119
32 59 111
34 63 118
34 63 117
34 63 118
35 65 121
35 66 122
39 73 133
36 67 124
34 64 118
36 67 124
36 68 125
37 68 126
34 63 119
33 61 114
34 64 120
36 67 124
34 63 119
35 65 122
35 66 122
33 62 117
34 63 118
35 65 121
36 66 122
34 64 119
31 57 107
35 64 119
35 65 122
34 63 117
35 63 117
33 60 112
34 63 118
35 64 117
35 64 118
33 61 116
32 59 111
32 59 112
33 61 115
35 62 114
34 61 114
32 59 109
33 59 110
33 61 113
34 60 110
33 60 113
33 61 112
32 57 107
32 59 110
34 60 109
34 61 113
33 59 107
35 63 116
34 61 111
32 57 106
34 62 115
33 60 112
34 61 114
33 59 109
34 62 114
33 60 107
34 60 110
34 60 111
32 58 109
32 58 108
32 54 100
36 59 107
58 71 117
65 71 107
77 73 104
88 79 98
89 84 101
98 91 108
107 99 111
113 103 113
122 104 107
120 111 118
126 113 118
132 118 123
134 121 125
137 126 131
139 128 134
134 125 131
146 135 140
145 133 139
137 128 134
148 139 144
139 128 135
142 130 135
138 128 135
147 138 144
145 135 140
134 125 132
142 133 141
130 120 129
129 121 130
127 119 128
123 114 125
141 131 138
129 120 129
127 115 124
136 124 129
128 118 127
152 139 146
139 128 136
138 126 134
146 133 141
146 134 141
146 131 138
152 138 145
162 149 152
154 141 148
151 139 145
160 146 150
160 147 153
159 147 150
164 151 155
169 154 157
166 152 156
175 159 160
166 152 154
166 150 152
171 157 161
177 162 165
179 163 166
174 161 163
177 164 165
173 159 163
179 164 168
167 155 160
177 162 165
172 160 164
172 159 163
184 170 172
175 162 166
176 163 164
169 157 159
171 161 161
178 164 168
172 160 161
164 154 154
167 156 156
175 162 164
171 158 160
172 160 160
170 158 157
169 158 156
165 155 153
160 149 150
171 159 157
161 149 149
159 151 148
161 150 149
156 146 144
164 153 152
160 151 149
148 137 134
157 146 145
156 145 142
156 145 143
162 152 148
156 144 141
151 140 139
154 141 141
165 154 154
152 139 139
158 146 145
162 149 150
158 148 148
162 151 151
147 139 138
162 151 153
160 148 148
158 147 147
134 124 127
149 139 139
150 138 141
153 139 143
149 137 141
137 119 124
150 136 140
150 133 138
142 134 137
144 131 136
150 137 141
150 135 137
141 132 135
151 136 140
151 138 142
143 133 137
136 125 131
144 133 138
135 125 128
141 125 132
128 117 122
138 127 133
135 121 128
135 121 128
137 125 132
141 130 135
132 119 127
137 124 132
137 126 134
137 125 133
133 125 128
125 113 121
138 129 134
132 123 126
128 125 134
131 129 136
126 129 141
132 134 149
126 137 155
126 139 158
130 146 167
128 146 168
130 148 171
129 145 165
130 147 170
128 145 167
125 144 166
128 146 168
129 146 168
126 142 166
127 145 167
130 147 170
128 147 169
127 144 166
126 142 162
128 145 166
126 144 164
131 148 170
128 145 167
128 143 165
131 147 168
128 145 168
129 146 168
127 144 165
129 148 171
130 147 170
128 146 168
132 150 173
131 148 170
133 150 173
125 143 165
130 147 169
128 144 164
125 141 161
132 149 171
129 146 169
130 147 166
129 145 167
131 149 172
128 146 166
130 148 170
129 146 167
129 146 168
131 148 170
130 148 170
127 144 164
129 146 166
133 150 173
131 148 171
127 144 166
124 140 159
131 149 171
128 145 167
130 147 168
128 146 169
128 144 166
129 146 168
128 146 169
129 146 169
127 144 167
122 138 159
132 150 174
129 147 168
131 148 171
133 151 173
130 147 168
128 145 167
127 144 166
128 145 167
128 146 166
128 147 169
128 143 164
128 146 168
127 144 166
127 144 165
127 144 165
126 143 164
131 148 170
128 145 166
128 145 166
129 147 170
129 147 170
127 145 167
128 147 167
129 145 167
131 146 167
134 152 175
126 143 166
127 144 164
133 150 172
129 147 170
129 147 169
132 149 171
133 151 172
130 148 168
124 141 163
129 147 168
124 141 161
128 144 166
127 144 166
129 146 168
128 145 166
126 142 164
133 150 172
129 145 164
129 144 165
129 146 168
130 147 170
126 143 163
132 150 171
126 143 164
128 145 165
128 145 166
130 146 168
129 146 168
129 148 171
129 147 170
131 148 170
126 144 165
129 148 170
128 146 167
131 148 171
126 144 166
130 147 168
130 146 168
132 151 173
131 149 172
130 148 169
131 148 169
131 149 170
133 152 175
131 148 171
132 150 172
131 148 169
130 146 167
131 149 171
129 147 169
128 144 165
131 149 172
128 146 169
133 150 173
128 146 164
129 147 168
126 143 164
132 149 170
130 148 168
128 145 165
127 143 164
128 146 166
129 147 168
130 148 170
128 145 164
128 145 165
129 145 165
129 146 167
131 149 170
132 150 173
130 147 166
130 147 169
128 146 169
130 148 170
129 146 169
130 147 167
127 145 165
132 149 170
130 147 168
128 145 166
128 146 168
126 142 161
128 146 167
132 150 171
129 147 167
132 150 171
124 141 159
126 143 161
130 148 169
130 148 170
128 144 163
126 144 162
130 147 169
131 149 171
132 149 171
128 145 167
130 150 170
128 144 165
128 147 166
129 145 166
126 144 164
129 146 168
130 148 170
130 148 170
128 146 167
127 144 166
128 145 167
130 147 169
131 150 171
129 146 168
130 147 168
131 149 172
133 150 172
128 146 166
127 143 161
127 144 163
130 148 169
130 148 170
130 148 167
132 150 172
128 145 165
125 143 164
132 150 171
129 147 167
130 147 168
131 148 170
128 146 167
133 150 173
131 149 171
131 147 169
128 145 164
129 146 167
130 148 168
126 143 164
128 145 167
130 147 167
131 148 171
133 150 173
132 149 171
128 146 168
125 142 163
129 147 169
133 150 171
130 147 170
122 139 159
132 150 171
133 150 173
130 148 168
130 148 170
131 148 168
128 145 166
130 147 168
131 148 169
129 148 168
132 149 171
130 148 169
129 145 167
133 150 173
128 145 165
131 147 168
134 151 173
127 144 166
129 147 166
125 142 162
128 145 165
129 147 170
130 146 167
130 147 169
126 143 165
126 143 161
129 146 167
128 146 169
133 151 173
129 145 168
132 150 172
132 149 168
131 148 170
130 148 171
130 148 170
129 146 166
127 144 165
131 149 171
126 145 163
128 146 166
128 145 166
125 142 164
131 150 172
126 145 166
129 147 169
129 147 170
128 146 168
130 148 170
126 143 164
127 146 167
131 150 172
131 149 170
130 149 170
128 147 168
130 147 170
127 143 165
128 145 166
127 144 164
129 147 169
127 144 166
132 151 174
129 147 169
125 142 162
130 148 169
127 144 163
130 148 170
130 146 167
127 145 165
129 145 167
129 147 167
131 148 168
130 147 169
129 146 169
129 147 167
130 148 169
128 145 166
127 144 165
131 148 169
131 148 170
129 145 169
127 143 165
130 148 171
129 146 166
131 148 171
124 141 160
130 148 171
128 145 168
126 142 163
127 143 164
128 144 166
128 147 169
128 145 168
127 144 165
130 146 167
125 141 162
115 129 150
115 130 151
112 126 146
98 113 130
85 101 117
86 100 116
62 75 87
37 50 59
26 43 53
5 32 41
4 32 41
5 32 42
5 32 42
5 34 44
5 33 43
5 34 44
5 32 42
5 33 43
5 33 43
5 34 43
4 32 42
5 33 43
5 32 42
5 33 43
4 32 42
4 31 40
5 32 42
5 34 43
5 34 44
5 34 44
5 34 45
5 32 42
5 32 42
5 33 42
5 34 44
5 33 43
4 31 40
5 33 43
5 33 43
4 32 41
5 33 43
5 34 44
5 33 44
5 34 44
5 34 44
5 35 45
5 34 44
5 33 43
4 32 42
5 35 45
5 33 43
5 33 43
5 32 41
5 34 45
5 33 43
4 32 42
5 34 44
5 35 45
5 33 43
5 34 45
5 34 45
5 34 44
5 34 45
5 32 42
5 34 44
5 33 43
5 33 44
5 32 42
5 34 44
5 33 43
5 34 45
5 33 44
5 33 43
5 33 43
5 33 43
5 34 44
5 33 44
5 33 44
5 32 42
5 33 43
5 32 43
5 33 43
5 33 43
5 33 43
5 31 41
5 31 42
5 33 43
5 29 40
5 32 42
5 32 42
5 33 44
5 33 43
5 32 43
5 31 42
5 31 42
4 30 41
5 31 41
5 30 40
4 29 39
5 30 40
4 26 36
13 27 38
35 27 44
70 29 61
74 28 62
80 27 66
90 29 74
111 34 88
126 33 97
136 37 104
132 35 102
138 35 105
156 40 119
162 42 125
165 42 123
150 38 114
154 39 117
155 40 119
162 41 123
163 41 124
161 41 122
164 42 125
164 42 125
164 42 126
170 43 130
166 43 127
172 44 130
164 42 125
171 43 129
161 41 125
161 41 121
169 43 129
168 43 128
171 44 131
165 42 125
166 43 128
168 43 127
170 44 130
162 42 124
164 42 124
166 43 127
162 42 125
165 42 126
164 42 125
161 42 124
165 43 127
174 45 132
168 43 128
168 43 129
170 44 130
172 44 131
172 44 130
166 43 128
168 43 126
173 44 132
174 45 132
161 41 124
177 45 135
174 45 133
171 44 131
169 44 130
169 43 128
168 43 129
164 42 126
167 43 128
160 41 123
174 45 134
169 43 129
167 43 127
166 43 126
176 45 133
171 44 131
166 42 126
167 43 127
165 43 125
179 46 136
170 44 130
167 43 127
166 43 128
173 45 133
171 45 132
174 45 132
169 44 131
168 43 129
172 45 132
166 43 128
168 44 129
167 43 128
171 44 131
172 44 131
169 43 128
175 45 134
172 45 132
166 43 129
169 44 128
170 44 131
171 44 131
160 42 124
166 43 128
170 44 131
166 43 127
170 44 130
167 44 131
163 42 124
171 44 131
172 44 131
178 46 136
172 45 133
172 45 132
175 46 134
174 45 135
166 44 128
174 45 133
165 43 127
172 45 132
172 45 131
171 45 132
174 45 133
171 44 130
168 44 130
168 44 129
169 44 130
173 45 132
165 43 127
169 44 129
167 43 128
169 44 131
171 45 132
171 45 132
169 44 130
175 45 133
168 43 130
168 44 129
169 44 130
171 45 132
168 44 130
159 42 123
167 44 128
171 45 131
168 43 127
169 44 129
169 44 129
168 44 129
163 43 126
168 44 128
165 47 128
160 48 126
155 53 123
151 61 125
155 73 132
147 75 129
138 81 129
126 100 133
130 98 133
119 113 139
119 113 140
103 101 126
110 113 136
105 106 131
105 111 133
114 121 144
110 119 141
114 119 145
113 120 145
110 117 140
114 125 148
112 122 144
114 122 145
115 125 148
115 125 150
119 129 153
111 120 144
120 131 155
120 132 157
120 130 156
120 131 155
119 128 152
112 120 143
121 134 157
120 130 154
117 129 152
118 127 151
123 134 159
114 123 147
121 131 156
120 133 155
122 135 160
122 134 158
120 131 154
122 135 159
124 138 162
121 131 155
124 136 160
120 133 156
123 136 161
125 139 163
122 134 159
121 135 159
128 140 165
124 139 165
123 138 162
118 130 153
124 137 162
124 136 160
125 139 163
124 138 162
125 139 164
122 136 161
123 137 162
123 138 161
129 145 170
122 135 158
127 141 165
123 139 163
125 139 163
124 137 162
127 141 165
126 139 165
122 137 160
121 135 158
126 139 163
130 145 169
126 141 167
126 140 165
122 136 160
125 140 163
126 140 167
126 140 164
127 140 165
128 141 167
127 144 165
130 146 170
129 144 168
130 146 170
125 141 165
127 141 165
130 144 168
129 146 170
128 143 168
130 147 171
127 142 166
128 143 167
127 140 164
130 145 170
131 146 171
130 146 169
128 141 167
126 143 164
128 144 169
131 147 172
127 143 166
127 142 166
126 142 166
128 142 167
129 146 169
127 143 166
129 146 170
