P3
1600 1
255
2 81 128
2 80 125
2 87 134
2 84 130
2 83 129
2 82 127
24 81 124
15 81 124
39 89 131
42 93 135
43 90 129
59 97 131
61 98 135
72 104 137
78 106 137
75 101 130
93 114 140
102 123 149
96 115 137
104 122 145
101 119 142
106 124 147
104 122 147
107 125 148
102 120 144
102 118 140
105 123 145
105 123 147
109 127 150
102 120 143
107 126 150
113 132 156
106 123 147
111 131 156
112 131 157
109 128 152
109 127 151
109 128 153
108 126 150
106 124 147
115 134 158
112 133 157
105 126 151
109 128 152
115 134 158
111 129 153
110 127 151
113 130 153
113 132 156
112 131 155
116 136 161
117 135 159
115 132 156
113 132 157
117 137 161
109 128 152
118 137 163
116 137 161
116 135 160
116 135 159
116 136 161
120 139 164
125 144 169
119 138 162
120 138 163
120 139 164
121 139 164
114 133 156
120 140 164
120 138 162
116 135 159
114 134 157
119 139 163
119 139 164
119 137 162
123 141 164
123 141 165
122 140 165
118 137 162
121 141 166
120 139 164
119 139 164
123 142 167
117 136 159
119 139 164
123 140 164
121 140 165
123 141 164
126 145 169
119 139 163
120 138 163
120 137 161
122 141 166
123 142 167
123 141 165
122 141 166
125 144 168
120 138 161
125 144 168
124 143 167
124 143 167
122 142 167
125 144 168
126 145 170
128 146 170
121 140 166
127 146 171
124 142 167
128 146 170
124 142 166
125 144 168
126 144 168
121 139 164
127 145 169
127 146 170
129 148 172
122 140 162
128 146 170
131 149 174
130 148 172
128 148 174
128 148 173
130 148 172
128 146 170
129 148 172
133 151 176
128 147 171
130 149 172
125 144 167
132 150 175
128 146 171
128 147 170
133 151 175
126 145 170
128 146 170
131 149 174
125 144 168
127 146 170
131 150 175
130 148 172
129 147 171
129 149 173
129 147 171
128 146 171
129 147 171
129 147 171
131 150 174
130 148 173
130 149 172
128 147 171
128 147 171
129 149 175
129 146 171
131 149 173
125 145 169
127 145 169
127 146 170
131 149 174
132 150 174
125 143 168
133 151 175
131 149 173
132 151 175
129 147 172
128 147 170
133 152 176
131 149 174
131 150 175
129 148 173
133 151 175
131 150 174
130 149 175
129 148 173
133 152 176
131 149 172
128 147 170
127 145 169
131 149 173
128 145 168
131 149 174
133 151 175
129 148 172
133 151 175
130 148 172
130 149 173
132 151 174
131 149 174
131 149 173
129 147 171
132 149 173
133 151 175
132 149 173
130 149 174
132 150 174
131 150 174
129 148 172
134 152 176
130 149 173
134 153 177
134 153 177
132 150 174
134 152 175
132 150 174
135 153 176
131 149 172
134 153 176
130 149 173
131 150 174
132 150 174
129 147 171
134 153 177
132 149 172
126 145 169
132 150 174
130 148 172
131 149 174
135 154 179
130 149 174
129 147 171
132 150 174
130 148 172
131 150 175
131 150 173
130 149 174
134 152 176
131 149 173
133 151 176
132 149 172
135 152 176
130 148 171
132 149 171
133 152 176
131 148 172
132 150 174
132 151 176
128 148 172
132 151 175
130 148 172
134 151 174
131 150 174
132 150 175
132 152 176
132 150 174
131 149 172
130 149 174
132 150 174
132 150 175
131 149 172
135 154 178
132 149 173
134 153 176
133 152 176
132 148 170
131 149 173
131 149 174
132 150 174
132 150 174
131 148 172
134 150 174
133 152 176
133 151 175
131 150 173
133 152 175
134 153 177
131 148 171
134 152 176
133 151 176
134 152 176
133 151 175
133 151 175
130 148 173
137 154 178
132 150 174
133 152 176
134 152 176
132 152 177
134 151 176
127 144 167
128 146 169
130 149 173
133 151 177
134 152 175
130 148 171
127 146 168
131 149 173
134 152 175
133 151 174
131 149 173
135 153 178
133 151 172
129 146 169
129 146 169
129 146 169
130 149 173
130 147 170
134 152 175
133 152 176
131 149 173
135 153 177
133 151 175
130 148 171
132 149 172
133 151 175
132 150 174
132 151 175
131 150 173
131 149 172
132 150 174
130 148 171
133 151 174
131 148 171
130 147 170
129 146 169
133 150 173
131 148 171
130 147 171
133 151 174
131 148 170
128 146 169
129 146 169
132 150 173
131 149 174
129 145 167
132 149 173
131 151 176
132 151 175
132 149 173
131 149 172
127 145 168
131 148 172
133 150 173
130 147 169
132 150 175
131 147 170
129 145 167
131 147 169
132 150 172
132 149 172
130 147 169
130 146 170
130 147 171
129 145 168
130 147 169
129 144 166
131 146 168
131 148 171
128 146 168
128 145 168
130 146 168
130 146 169
131 149 173
130 147 169
130 148 171
128 144 166
126 142 164
132 150 173
127 143 166
127 143 166
129 147 171
132 151 175
128 144 166
128 143 165
128 146 169
127 144 166
127 144 166
126 142 164
129 145 167
132 149 171
130 147 170
125 140 161
128 144 167
125 140 161
124 140 162
131 149 173
126 144 167
127 143 166
129 145 168
127 144 167
126 141 163
128 144 168
126 141 163
128 142 164
127 142 163
126 142 163
127 142 163
128 144 166
126 142 164
122 137 157
125 142 163
127 145 168
127 143 166
124 137 157
125 141 162
120 135 156
125 140 159
121 135 156
124 136 155
123 138 157
124 140 161
128 146 167
131 148 170
122 135 156
122 135 156
125 139 159
120 132 151
125 138 158
124 138 159
121 134 154
123 137 157
123 138 157
119 132 152
125 140 160
121 135 154
119 133 152
118 133 153
121 134 154
127 142 163
119 133 153
115 124 142
118 131 151
118 132 151
121 135 155
122 136 155
122 136 157
120 133 153
117 129 148
115 124 141
111 121 140
115 126 143
119 132 151
113 124 143
117 128 146
110 120 138
109 118 134
113 123 140
110 119 135
113 123 140
113 123 140
108 117 134
110 118 133
110 120 135
110 121 138
113 122 138
111 121 138
107 115 129
105 112 127
106 115 130
107 114 130
99 105 116
105 114 131
96 101 121
96 104 125
88 93 119
78 79 107
82 83 111
65 65 105
63 61 103
59 55 102
42 36 99
39 37 108
30 25 106
23 18 104
19 15 104
11 11 110
11 11 108
11 11 111
11 11 111
11 11 110
11 11 110
11 11 109
11 12 112
11 11 110
11 11 110
11 12 114
11 12 113
11 11 111
11 11 110
11 11 109
11 12 113
11 11 111
11 11 112
11 11 112
11 12 112
11 11 112
11 11 111
11 11 111
11 12 113
11 11 111
11 11 110
11 12 113
11 12 113
11 12 115
11 12 113
11 12 112
11 11 108
11 12 114
11 11 111
11 11 110
11 12 113
11 12 115
11 12 113
11 11 112
11 11 111
11 12 114
11 12 112
11 11 110
11 12 112
11 12 115
11 12 112
11 12 114
11 11 111
11 11 109
11 12 115
11 11 110
11 12 112
11 12 114
11 12 114
11 12 114
11 12 112
11 12 112
11 11 110
11 12 115
11 11 110
11 11 112
11 12 113
11 12 114
11 12 114
11 11 109
11 11 111
11 11 111
11 12 113
11 11 111
11 11 108
11 12 113
11 11 112
11 12 113
11 12 113
11 12 114
11 12 112
11 12 112
11 12 113
11 12 112
11 11 112
11 11 112
11 12 113
11 12 112
11 12 113
11 11 110
11 11 110
11 11 111
11 11 109
11 11 111
11 11 110
11 12 113
11 11 111
11 11 110
11 12 112
11 11 111
11 12 114
11 11 112
11 11 109
11 11 109
11 11 109
11 11 108
11 11 108
11 11 111
11 12 112
11 11 108
11 11 108
11 11 110
11 11 111
11 11 108
11 11 107
11 11 106
11 11 111
11 11 108
11 11 111
11 11 107
17 19 110
31 36 115
31 35 107
46 51 114
47 51 114
71 79 124
78 88 129
93 105 139
97 111 145
100 112 145
105 120 148
113 128 154
113 128 151
123 139 162
119 135 157
120 134 154
120 137 158
122 138 160
127 144 166
120 136 158
126 143 166
123 141 163
125 141 164
119 135 157
127 144 167
122 139 162
123 138 160
123 140 163
123 140 161
123 139 162
123 139 161
122 140 160
126 144 167
124 143 166
123 140 162
121 137 160
118 133 155
127 144 166
123 140 163
121 137 159
124 141 163
118 134 155
123 138 160
124 139 161
122 140 161
124 141 163
122 138 160
120 137 157
126 142 164
123 141 164
126 142 164
123 141 163
121 138 161
123 139 161
125 142 164
121 138 161
123 140 162
123 139 161
121 138 159
125 143 165
126 144 166
121 137 159
119 135 158
125 143 166
124 140 161
116 134 156
118 135 160
126 143 166
118 137 158
121 138 161
121 138 160
124 142 166
122 140 163
124 142 166
121 137 160
123 142 164
122 140 160
122 140 163
120 137 160
125 143 168
120 138 160
120 137 159
116 135 156
122 139 161
120 140 163
115 132 157
121 140 164
122 139 160
120 139 160
120 136 160
120 138 160
118 136 159
116 133 155
118 134 156
115 133 154
115 130 152
117 133 155
119 136 159
125 143 166
116 132 155
120 136 159
115 132 155
122 139 162
115 132 155
118 136 159
115 133 156
121 140 163
115 130 151
118 135 159
117 134 157
119 137 159
118 135 158
106 123 148
100 116 142
99 117 145
86 105 138
81 98 130
77 96 132
65 86 129
62 81 121
36 63 114
41 67 118
33 61 116
33 62 116
32 60 111
33 61 113
33 62 115
34 64 119
33 61 115
33 62 116
35 65 120
36 66 122
35 64 120
36 66 122
36 66 123
34 64 121
35 66 124
35 64 119
32 61 114
34 63 118
34 63 118
36 66 123
33 62 118
34 63 119
34 63 116
33 61 114
37 68 124
33 62 117
36 67 122
34 63 116
35 64 118
34 62 114
35 64 118
36 67 124
34 63 118
31 58 108
34 62 116
34 64 121
33 61 116
33 61 113
34 62 114
33 61 112
32 57 107
32 60 112
33 62 115
33 60 112
33 59 109
31 57 107
34 60 111
31 57 106
31 58 107
33 61 112
31 57 106
32 58 107
35 63 115
35 62 114
31 55 102
31 56 105
34 62 114
33 60 111
32 59 108
32 58 110
34 61 113
32 58 107
33 58 109
31 57 107
33 58 105
31 57 106
32 58 106
34 62 115
36 61 111
43 60 109
50 63 103
45 59 103
76 77 107
84 80 104
88 84 102
103 94 111
112 96 106
114 101 108
110 102 109
124 111 116
126 112 117
130 118 123
134 127 132
135 124 128
139 127 131
145 132 136
133 124 130
135 127 134
131 122 130
141 132 137
148 136 140
146 137 143
127 118 126
138 129 136
138 128 135
124 115 123
129 120 130
133 125 134
123 116 126
130 120 128
136 127 135
110 99 109
144 132 139
131 120 129
139 126 131
135 121 128
138 125 132
132 118 125
141 129 136
135 124 131
147 132 138
138 125 132
136 125 133
149 136 141
144 131 137
151 140 146
160 146 150
164 151 155
162 148 152
166 152 156
157 145 149
162 145 148
170 156 160
173 157 161
174 160 163
172 158 160
170 156 159
172 159 162
179 166 169
172 159 162
175 161 164
173 160 164
178 163 167
166 154 157
173 160 162
175 162 166
167 155 159
170 157 160
177 163 166
171 159 162
169 157 158
167 157 158
176 164 166
167 155 157
171 159 159
168 158 157
160 151 151
158 148 148
167 156 156
165 154 154
153 144 142
161 150 150
173 161 161
169 157 157
150 143 140
163 153 151
152 142 142
154 145 144
162 151 149
150 141 140
147 137 135
155 143 143
162 150 149
152 140 139
148 138 136
145 135 133
156 144 144
149 140 136
158 146 147
164 154 152
148 137 135
151 139 141
151 139 140
162 150 150
152 141 143
155 144 147
144 135 138
150 139 140
153 140 143
156 140 145
148 132 137
147 133 137
151 138 142
142 131 135
144 132 135
145 130 135
141 130 133
140 130 132
138 131 133
141 131 134
145 134 137
134 124 128
145 135 137
136 125 130
136 121 129
138 124 131
131 120 126
137 122 129
136 124 130
139 124 132
127 114 122
138 128 136
130 120 127
136 126 133
137 125 132
128 116 124
133 123 130
137 124 127
122 113 115
136 126 128
126 123 132
132 127 135
131 132 140
124 133 149
129 133 148
131 139 155
128 139 158
127 145 167
127 145 167
126 144 167
129 146 168
129 147 169
129 148 170
127 143 166
128 144 164
127 144 165
128 146 167
132 149 171
127 143 165
131 147 170
127 143 164
127 144 166
127 145 167
129 146 167
129 147 171
128 146 167
129 147 170
131 149 171
131 149 171
130 147 170
126 143 164
128 145 166
125 141 162
132 148 169
128 146 169
129 146 168
128 144 164
131 148 171
129 146 168
128 146 168
130 148 170
130 147 168
129 145 167
132 150 174
128 144 165
126 143 165
132 148 170
130 147 171
131 147 169
129 147 167
127 143 163
132 150 172
125 142 162
130 146 168
129 146 169
126 143 166
128 145 166
129 146 168
128 145 168
127 145 167
127 144 165
131 149 172
128 145 168
130 147 169
131 149 171
128 145 166
130 147 169
130 148 171
127 144 164
131 149 171
130 148 170
127 145 166
128 145 167
128 144 166
127 144 164
126 143 164
130 147 169
128 146 167
128 145 166
127 144 165
131 149 170
129 147 171
128 145 167
129 146 167
130 147 169
130 146 167
132 150 174
131 148 171
124 140 160
132 150 171
131 148 170
126 143 166
132 150 172
131 149 169
129 148 169
130 147 167
124 141 161
126 144 164
126 142 164
126 142 164
130 147 168
128 144 165
128 145 166
131 149 170
129 145 164
131 146 167
126 141 163
126 144 164
129 146 167
131 149 171
128 145 166
129 146 165
130 147 168
131 148 171
128 145 167
129 148 170
129 147 170
131 148 169
124 141 163
128 147 169
129 147 168
130 148 170
129 145 168
129 146 167
129 145 167
133 151 173
130 148 171
130 147 169
129 147 168
131 148 170
132 150 173
130 148 171
131 149 172
131 147 167
131 148 170
131 147 169
130 149 172
130 146 167
131 148 170
129 147 170
133 151 173
127 145 164
128 146 168
126 143 163
130 147 170
130 148 167
131 148 169
127 143 164
129 147 169
130 147 168
131 149 171
128 145 166
127 145 165
131 148 169
129 145 166
132 150 171
132 150 172
131 148 169
128 146 167
130 148 169
133 150 173
129 147 168
129 147 169
129 147 168
128 146 165
131 148 169
128 146 165
131 148 172
126 142 160
129 145 166
128 145 166
132 150 174
130 148 167
132 152 173
123 140 157
126 142 162
132 150 171
129 145 166
130 147 168
127 146 164
132 149 171
131 149 171
131 148 169
128 145 166
130 149 170
128 145 165
126 145 162
130 147 168
128 145 165
130 146 167
128 146 169
129 147 168
130 148 170
125 143 164
129 147 168
128 146 166
130 148 169
130 147 168
128 145 166
131 148 170
132 150 172
129 148 168
126 144 162
125 142 160
132 150 171
131 148 170
129 147 168
131 149 171
126 142 162
127 145 166
132 149 172
129 146 165
130 147 169
129 146 168
129 146 167
134 151 173
132 149 171
129 146 167
127 145 165
131 148 169
128 147 165
129 147 168
129 147 169
129 146 166
130 147 170
131 149 171
132 150 172
128 147 169
127 145 164
131 149 171
130 148 169
130 148 171
127 144 165
131 149 171
133 150 172
130 147 167
131 148 171
131 148 169
128 146 166
131 148 170
130 146 167
130 148 170
131 148 169
130 149 170
129 145 166
133 151 173
128 144 163
129 145 166
133 150 172
129 147 169
128 146 166
124 142 160
126 143 164
130 148 170
131 148 169
128 146 167
125 141 161
128 145 167
130 146 166
129 148 169
130 148 169
130 147 169
130 146 168
129 145 165
131 147 168
131 148 171
127 145 166
129 146 167
127 145 168
132 150 171
127 145 164
130 147 167
129 146 168
128 146 167
132 149 171
128 147 168
129 147 168
128 147 169
128 145 166
130 147 171
128 145 164
125 143 163
130 148 170
130 148 170
130 148 170
128 147 169
129 146 168
127 145 166
127 143 163
127 143 164
130 148 170
129 147 168
133 152 175
129 145 168
125 142 162
127 145 166
128 145 164
132 151 173
128 145 166
125 142 161
131 147 168
132 148 170
129 146 165
129 146 167
128 146 169
130 147 168
129 147 169
125 141 162
129 146 169
129 147 168
129 146 170
128 144 167
130 146 168
132 151 173
128 144 166
126 143 164
129 146 167
130 148 169
129 146 168
127 145 166
128 145 168
129 146 167
128 146 168
126 144 168
130 146 168
126 142 163
128 144 164
127 143 166
127 143 164
126 144 166
131 149 172
129 145 165
127 145 169
121 137 157
114 129 147
105 120 139
98 113 131
84 98 113
70 84 98
51 64 77
39 53 64
19 40 50
4 31 41
5 32 42
5 33 43
5 33 43
5 34 44
5 33 43
4 32 42
4 31 40
4 31 41
5 34 44
5 33 43
5 33 43
4 32 41
5 33 43
5 33 42
5 33 44
5 33 42
5 33 43
5 33 43
5 34 44
5 33 43
5 33 42
5 32 41
5 33 43
5 33 42
5 33 42
5 33 43
5 33 44
5 33 44
5 34 44
5 33 43
5 33 43
5 32 42
5 33 42
5 33 43
5 35 45
5 34 45
5 33 43
5 34 44
5 34 44
5 34 44
4 32 41
5 35 45
5 34 45
5 34 45
5 33 44
5 35 46
5 34 44
5 34 44
5 34 44
5 34 44
5 34 44
5 34 44
4 31 41
5 34 45
5 33 42
5 34 44
5 34 44
5 32 42
5 34 44
5 33 43
5 33 42
5 33 43
5 33 43
5 32 43
4 31 41
5 32 41
5 33 43
5 33 43
5 32 42
5 32 42
5 31 41
5 33 43
5 33 44
5 32 42
5 33 43
5 33 43
5 31 41
5 32 42
5 31 41
5 32 42
5 31 42
5 32 43
5 32 42
5 30 40
5 30 41
4 27 38
5 31 41
5 30 41
4 26 36
4 28 38
4 27 37
31 26 41
19 24 36
64 28 57
76 28 65
87 28 71
108 34 86
115 34 90
132 35 101
142 39 111
141 37 109
150 39 115
143 37 110
154 40 118
151 39 117
159 41 121
158 41 122
166 43 127
157 40 120
160 41 122
170 43 129
169 43 129
167 42 126
168 42 126
172 44 130
159 41 122
160 41 122
169 43 128
165 42 126
167 42 126
162 41 124
167 42 127
168 43 129
167 43 127
161 41 123
164 42 124
168 43 128
165 42 125
165 42 125
164 42 125
167 43 127
166 43 127
170 43 128
169 43 129
168 43 129
168 43 129
171 44 131
169 43 128
166 43 127
169 43 127
171 44 129
175 45 133
166 43 128
177 45 135
174 45 133
169 44 131
169 43 129
169 43 128
164 42 125
168 43 128
166 43 127
171 44 132
168 44 129
173 44 132
166 43 127
171 44 129
166 43 127
177 46 135
164 42 125
172 44 130
170 44 129
170 44 129
175 45 134
165 43 126
171 44 131
170 44 131
172 45 133
173 45 133
166 43 127
164 42 126
174 45 133
167 43 128
170 44 130
158 41 122
169 44 130
169 44 130
170 44 128
173 45 133
171 45 131
172 44 132
166 43 128
172 44 132
173 44 132
166 43 127
164 42 125
171 44 132
166 43 127
168 43 128
170 44 131
173 45 131
169 43 129
173 44 131
179 46 137
172 45 132
174 45 134
169 44 130
173 45 135
169 45 131
174 45 134
160 42 124
173 45 132
171 44 131
169 44 130
171 45 132
168 44 128
169 44 129
169 44 130
173 45 133
166 44 127
171 45 130
173 45 133
168 44 129
169 44 130
172 45 133
171 45 133
171 44 130
172 45 132
171 44 132
166 44 128
167 44 129
166 43 129
167 44 128
166 43 128
165 43 126
172 45 131
170 44 129
163 43 126
170 44 131
167 44 127
171 45 131
171 44 131
164 43 125
165 43 126
159 42 123
168 44 130
164 43 126
162 52 127
154 53 123
155 51 122
154 83 136
137 70 121
137 83 129
133 90 131
125 93 128
131 93 133
116 104 133
105 109 132
114 119 143
108 113 136
110 118 140
115 124 148
106 112 136
113 119 143
113 124 146
113 121 143
114 123 146
109 116 141
117 127 151
112 120 146
119 130 152
112 120 145
120 132 157
115 124 148
119 127 152
112 120 144
124 137 160
114 123 146
119 131 153
117 124 151
117 126 151
116 127 151
122 133 157
118 128 151
122 134 159
118 128 152
122 135 157
122 134 158
124 135 159
123 134 161
118 129 152
122 135 159
122 135 158
127 142 166
124 137 162
119 130 154
128 143 168
123 136 161
120 130 157
125 138 162
123 135 159
124 138 162
125 141 165
124 137 161
122 136 161
123 138 162
120 133 158
125 139 164
128 145 168
126 139 162
121 134 157
127 144 169
121 135 157
123 133 158
125 138 163
129 145 170
121 136 159
123 137 161
125 139 163
131 148 172
127 144 168
126 141 165
126 140 163
124 138 164
126 141 166
126 141 164
127 142 166
129 144 168
129 145 168
130 145 169
129 144 168
129 145 169
126 140 165
129 144 168
129 144 168
131 148 172
128 143 168
129 144 169
126 141 164
129 143 168
127 141 165
130 143 168
131 146 170
129 145 169
129 144 169
126 142 167
131 148 173
127 143 167
123 136 160
130 146 171
127 141 165
129 145 169
128 144 168
129 145 169
127 143 169
130 145 171
129 145 169
129 146 171
