P3
1600 1
255
52 80 110
49 79 110
66 91 119
76 100 126
74 97 123
72 92 116
89 108 133
68 87 109
81 99 122
87 104 127
86 104 127
86 105 128
94 112 134
87 103 125
94 110 131
99 117 140
91 111 134
91 109 133
90 108 131
88 106 128
98 114 136
91 109 130
93 109 131
90 108 131
89 107 129
94 113 136
100 119 142
93 110 134
101 118 141
98 118 142
99 117 139
109 127 150
95 113 136
99 118 140
110 128 150
109 128 152
88 108 133
106 125 149
108 125 148
100 120 145
105 123 147
107 125 149
107 125 148
107 125 149
107 127 151
102 119 142
98 118 142
108 128 151
107 126 151
114 133 156
114 134 159
108 127 152
117 136 160
113 132 156
115 133 156
115 133 156
113 133 157
113 133 157
113 132 156
112 131 154
120 139 163
119 138 161
111 130 154
118 138 163
115 135 160
118 135 159
122 141 164
120 139 162
117 136 160
120 139 164
118 137 162
119 139 165
120 138 162
116 134 158
119 139 164
122 142 167
121 140 164
122 140 164
124 142 166
113 131 155
115 134 158
115 134 158
121 139 163
128 147 172
121 140 164
120 138 161
126 144 169
124 143 166
118 136 160
122 142 167
117 136 160
124 144 169
119 138 163
125 144 168
125 143 167
123 143 168
124 144 169
120 139 163
127 145 169
122 141 166
123 141 164
129 148 173
117 136 160
125 144 168
127 147 171
123 142 167
126 145 169
128 147 172
128 147 171
129 149 175
120 139 165
129 148 172
130 148 172
127 146 170
129 148 174
130 148 172
129 147 172
131 150 174
128 147 171
127 145 169
127 146 170
131 150 175
132 151 176
125 144 169
131 150 174
127 146 170
128 146 170
124 144 169
126 145 169
129 147 171
127 146 170
129 148 173
131 150 174
126 144 169
128 146 169
128 147 173
128 147 171
126 145 168
127 145 169
127 146 170
125 144 169
129 149 175
129 147 171
128 147 171
125 145 169
127 145 169
127 146 171
128 146 170
128 147 171
130 148 171
130 148 172
130 150 173
131 149 173
130 149 173
130 150 174
130 149 174
126 145 168
131 150 176
131 150 174
131 151 176
128 146 171
132 150 174
130 149 173
129 148 173
134 153 177
125 144 168
131 149 174
128 146 171
129 147 171
132 151 175
129 148 173
131 150 174
129 148 172
132 150 174
131 150 174
130 149 174
130 150 174
132 151 176
132 149 172
131 149 173
131 149 172
132 150 175
129 149 174
133 152 176
128 147 171
128 147 172
135 153 178
133 151 175
132 152 176
132 151 175
129 148 172
131 150 174
134 152 175
130 147 170
133 151 175
131 150 173
129 148 172
134 153 177
129 148 172
131 149 172
134 151 175
131 149 173
134 152 175
131 149 173
131 150 173
130 149 174
128 147 173
131 149 174
132 148 172
128 146 170
130 148 173
132 151 175
133 151 176
134 152 176
130 149 174
131 150 175
133 152 176
129 148 172
132 150 173
134 151 174
130 148 173
132 151 175
132 150 174
132 151 176
129 149 174
133 152 176
131 150 175
130 147 170
133 152 177
132 151 176
133 152 177
134 152 176
130 148 172
130 147 170
136 154 179
133 151 176
132 150 175
132 151 175
133 151 175
134 152 175
131 149 173
133 150 173
133 151 174
132 149 173
130 149 174
134 150 173
131 149 174
132 150 174
133 150 174
132 150 174
134 152 177
132 150 174
132 150 174
130 148 171
135 154 179
131 149 172
132 150 174
132 150 174
132 150 175
131 149 173
131 149 173
134 152 177
135 153 177
132 151 175
133 151 176
132 151 175
132 151 176
125 142 166
131 149 175
134 153 177
134 153 178
132 149 172
134 152 175
131 148 171
135 153 176
132 149 172
132 149 173
134 152 176
131 149 171
132 150 173
129 146 168
131 150 174
131 148 172
131 148 170
131 148 171
134 153 177
131 149 173
132 150 174
131 149 172
133 150 174
132 149 171
133 151 174
132 150 173
132 149 173
131 150 174
131 148 172
132 151 174
131 149 173
132 150 174
132 149 172
132 148 171
128 145 167
132 149 172
132 150 173
132 149 173
134 151 174
132 149 171
130 148 172
131 149 172
128 144 166
133 152 176
134 151 174
128 145 167
133 151 175
130 149 173
130 147 170
131 147 171
131 148 171
131 147 170
133 151 175
129 145 168
133 151 174
131 149 173
132 150 173
125 142 163
130 148 171
132 150 174
132 150 172
130 146 170
132 150 173
131 148 171
129 146 169
132 150 173
131 147 169
132 148 169
129 146 169
128 145 168
132 149 171
131 147 169
128 146 169
133 150 174
129 148 171
128 145 168
125 141 162
127 143 165
132 149 172
129 146 169
132 148 172
130 149 173
130 148 172
130 146 169
130 145 167
127 144 166
130 148 172
127 143 164
132 149 173
130 146 169
130 147 169
128 144 167
128 145 168
127 143 165
126 140 161
127 143 166
131 148 172
127 145 167
130 147 171
129 146 169
130 147 170
125 140 163
130 147 170
128 144 166
125 141 162
127 144 166
128 144 166
125 140 162
126 142 164
127 142 163
125 141 163
126 141 163
127 145 168
129 145 167
123 136 155
127 142 164
123 138 160
123 137 157
122 134 153
128 144 166
121 134 154
126 142 164
125 140 161
126 142 164
121 134 153
123 136 156
126 142 164
124 138 159
125 138 158
124 139 160
128 143 165
125 140 162
122 135 155
118 132 152
120 135 156
125 141 162
121 135 155
122 136 157
124 138 159
117 128 147
122 137 158
120 132 152
123 136 156
124 137 157
125 140 161
120 133 152
119 132 151
119 133 154
114 126 143
117 128 147
108 115 131
116 128 145
118 131 150
113 124 141
117 129 147
117 129 149
117 127 145
109 118 135
115 126 145
110 120 136
110 118 133
108 115 128
105 115 131
106 115 131
114 124 141
111 118 134
110 120 137
106 111 125
111 120 136
106 113 128
110 119 135
95 102 115
108 116 131
111 120 136
100 107 121
102 110 125
105 112 126
101 108 122
109 118 135
94 100 118
86 92 114
89 93 111
87 91 118
76 78 106
72 76 112
56 58 106
64 67 111
41 41 99
36 38 110
29 32 108
19 19 103
12 11 107
11 11 110
11 11 105
11 11 109
11 11 108
11 11 108
11 11 108
11 11 110
11 11 112
11 11 108
11 11 111
11 11 109
11 11 107
11 11 110
11 11 106
11 11 111
11 11 112
11 12 112
11 11 112
11 11 105
11 11 106
11 11 111
11 11 108
11 11 110
11 11 110
11 12 113
11 11 111
11 11 111
11 11 109
11 12 113
11 11 109
11 11 108
11 11 109
11 12 112
11 11 111
11 11 111
11 11 110
11 12 112
11 11 108
11 11 107
11 12 113
11 11 109
11 12 112
11 12 112
11 12 112
11 11 109
11 11 108
11 11 112
11 12 112
11 11 110
11 11 112
11 12 113
11 11 111
11 11 109
11 11 109
11 12 111
11 11 110
11 11 109
11 11 111
11 11 111
11 11 110
11 11 111
11 12 114
11 11 111
11 11 110
11 12 112
11 11 109
11 12 113
11 11 109
11 12 112
11 12 113
11 11 112
11 11 109
11 11 111
11 12 112
11 11 109
11 12 111
11 12 112
11 11 111
11 11 108
11 11 109
11 11 111
11 11 112
11 12 113
11 11 109
11 11 111
11 11 111
11 11 107
11 11 110
11 11 109
11 11 111
11 11 110
11 11 107
10 11 106
11 11 111
11 11 111
10 11 105
11 11 107
10 11 106
11 11 111
11 11 109
11 12 111
11 12 111
11 11 108
11 11 109
11 11 108
11 11 109
11 11 108
11 11 108
11 11 107
11 11 109
11 11 109
11 11 106
10 11 105
10 11 104
11 11 106
11 11 107
11 12 112
10 11 105
11 11 105
11 11 105
10 11 106
11 11 110
11 11 108
11 11 106
32 35 111
39 43 113
51 58 114
67 76 125
76 86 126
77 88 131
87 99 136
88 100 135
98 111 142
110 124 150
111 127 152
116 132 156
116 132 155
117 132 153
121 137 160
119 136 157
123 139 161
117 131 151
115 129 152
123 140 161
122 137 158
123 140 160
122 138 159
119 134 158
124 140 162
124 141 162
122 138 159
120 137 159
122 139 162
123 141 161
119 135 156
118 134 157
123 140 161
121 135 157
123 138 160
121 137 159
117 133 155
120 138 161
118 135 158
119 135 157
119 136 158
126 144 167
122 137 158
121 137 160
115 131 154
118 134 157
119 134 156
120 136 160
121 139 163
122 139 163
118 136 158
123 141 164
121 138 161
124 141 165
121 137 160
124 142 165
118 134 157
121 138 161
118 134 156
121 138 159
115 131 153
121 138 161
117 135 158
121 139 164
120 138 161
126 143 165
119 135 158
120 136 160
121 138 162
117 133 155
117 131 152
117 135 158
116 133 155
116 131 153
116 133 156
126 143 167
121 138 160
112 129 153
112 127 148
113 129 152
117 133 154
116 133 154
117 134 157
118 135 159
118 134 157
116 133 155
115 133 156
117 134 158
113 130 153
113 129 153
108 124 149
110 125 147
112 129 152
107 123 145
114 131 154
110 127 150
111 127 147
112 127 150
114 130 153
114 130 152
113 130 155
110 124 142
114 132 154
108 124 147
107 124 147
108 125 147
115 129 151
110 126 146
106 120 142
105 119 141
104 119 142
107 122 144
114 130 153
111 126 149
110 126 147
99 115 140
93 111 137
85 102 128
76 92 122
83 102 134
65 80 111
66 84 121
55 76 118
53 72 113
47 69 115
44 65 110
33 61 114
32 59 110
32 60 113
32 59 111
34 63 117
33 61 115
30 56 106
32 59 110
31 57 108
32 60 114
32 60 113
29 55 106
32 59 110
29 55 105
30 56 106
32 59 111
30 57 107
33 61 116
33 61 112
31 57 107
31 59 111
34 62 116
32 58 110
34 62 114
32 59 109
31 59 111
32 60 113
31 58 108
32 60 113
31 59 110
31 57 107
30 55 103
31 57 108
30 57 107
29 55 102
31 57 105
31 59 110
30 56 106
31 57 107
29 52 98
29 56 105
30 56 107
30 56 104
34 61 112
31 56 106
30 55 104
32 59 111
30 56 105
29 52 98
31 57 107
32 57 106
30 55 103
28 51 97
30 54 102
27 52 97
29 54 101
27 48 92
28 52 98
29 52 95
33 54 96
50 64 104
57 70 104
60 66 95
74 81 110
97 93 117
90 85 102
91 87 106
106 97 109
99 95 104
112 103 108
123 113 119
110 100 106
119 110 117
119 110 118
123 111 116
124 116 123
117 110 119
123 117 123
126 119 125
115 110 118
126 120 128
119 114 121
125 119 126
130 124 132
124 119 127
126 120 127
116 110 118
125 119 127
124 118 126
103 97 108
113 107 117
108 103 115
118 111 119
115 109 119
110 103 110
106 99 111
112 105 115
109 100 109
110 104 115
115 107 117
118 108 116
129 115 120
116 109 118
128 119 126
126 118 126
126 117 125
129 117 125
128 121 128
146 136 142
148 135 140
140 130 132
146 135 140
145 134 137
150 139 142
155 142 145
153 140 143
158 146 149
150 138 143
157 145 147
152 142 147
152 142 148
155 143 147
164 152 156
152 142 146
154 143 148
154 144 148
153 142 147
148 138 143
147 138 142
151 140 145
144 136 141
137 130 134
156 145 150
150 139 144
141 133 135
146 139 139
140 134 134
136 129 132
142 134 132
146 138 138
143 135 135
128 121 123
138 129 134
130 125 126
127 122 121
128 122 123
130 124 124
134 130 125
136 130 130
134 126 127
135 130 128
136 129 127
137 131 128
126 122 120
128 120 117
127 121 117
119 114 112
134 125 127
119 113 113
136 127 128
132 121 124
131 122 124
122 113 117
127 117 120
132 126 123
128 118 122
130 124 128
137 127 131
126 119 122
142 131 136
136 128 131
130 116 122
129 119 125
136 120 126
135 124 130
130 118 123
131 123 127
122 115 120
133 119 126
126 117 121
119 108 114
122 110 119
126 117 121
122 111 116
119 111 117
120 107 114
125 117 122
120 111 117
121 112 118
123 112 119
122 114 119
128 119 125
128 117 125
119 111 121
134 125 131
123 112 118
127 117 123
121 110 115
122 113 111
130 119 125
127 123 129
127 119 130
123 125 138
118 123 137
126 134 152
125 135 153
128 143 163
125 142 164
123 140 163
128 145 166
129 147 171
129 147 170
130 148 172
125 142 164
127 145 169
126 144 166
129 146 168
130 148 170
130 148 169
126 143 166
125 141 164
126 144 167
127 144 166
131 149 171
129 147 168
125 144 169
127 143 164
132 149 172
127 144 165
131 148 171
127 144 166
127 143 165
127 145 166
130 147 169
130 147 170
131 149 173
129 145 166
127 144 165
132 149 171
130 147 167
129 146 169
128 145 167
129 149 170
130 148 171
128 146 167
133 150 174
128 145 167
130 146 168
126 143 164
127 145 165
124 141 163
128 145 168
131 146 169
127 144 167
130 147 168
127 143 165
130 146 169
130 147 169
128 145 165
129 146 169
128 144 166
128 144 165
127 145 166
128 144 164
130 147 169
131 150 171
130 148 172
131 148 169
128 145 167
131 149 172
131 148 170
133 151 174
123 140 161
130 149 172
130 148 172
128 145 167
130 148 171
130 147 168
128 144 167
132 151 172
130 148 171
128 145 167
131 149 173
130 148 171
132 150 172
129 147 171
129 146 170
130 148 170
127 144 164
130 148 170
131 149 173
128 144 166
132 150 174
132 149 172
127 144 167
132 149 172
132 149 171
126 143 164
132 149 171
130 148 169
132 149 171
128 146 168
129 147 169
130 148 170
130 147 169
132 150 171
128 146 167
127 144 165
132 150 174
130 147 167
131 149 171
131 148 168
132 150 172
129 147 168
132 151 172
130 148 171
130 147 167
130 148 171
131 149 171
134 151 173
126 143 165
132 149 172
126 143 165
129 146 167
129 146 168
131 149 171
131 149 170
129 145 168
126 141 161
128 146 166
134 152 177
129 145 165
127 144 165
126 144 164
132 150 171
128 144 167
130 147 170
128 147 168
131 146 168
129 146 168
130 149 171
128 144 166
130 147 168
128 145 168
128 145 168
127 144 166
127 144 167
131 148 171
130 148 169
131 149 172
129 147 168
128 145 166
131 148 170
132 150 173
129 147 168
130 146 167
128 145 167
132 149 171
127 145 166
128 146 168
130 149 171
128 145 166
125 141 163
129 146 168
129 146 167
134 151 173
131 148 169
131 149 170
132 149 170
126 143 164
127 144 166
133 150 171
130 147 169
128 144 164
130 148 169
131 149 172
128 145 164
131 149 172
131 149 170
131 148 170
128 145 168
127 145 166
130 148 171
130 147 169
131 148 169
128 144 167
128 146 168
134 151 174
130 149 170
131 148 170
133 151 172
130 146 169
128 145 166
131 148 169
128 145 165
133 151 173
132 150 173
131 148 169
134 152 175
130 148 168
130 148 171
127 144 165
133 151 173
131 149 171
130 148 170
127 145 168
130 148 169
130 147 168
128 145 166
130 146 167
126 143 165
129 145 166
129 146 169
127 145 168
132 150 173
131 148 171
132 149 170
130 147 168
132 150 171
131 149 172
131 149 172
133 151 172
130 148 171
129 146 169
125 143 163
129 146 167
129 147 168
130 147 168
130 148 171
125 144 165
132 150 172
130 148 169
133 150 172
132 150 173
129 147 169
128 145 168
130 149 172
130 148 171
131 150 172
131 148 169
132 149 173
130 147 168
129 146 169
127 145 168
131 149 171
130 148 171
132 150 173
132 149 171
126 143 163
129 145 167
129 146 167
132 149 170
127 145 165
129 146 169
129 145 166
130 148 169
128 144 165
132 149 172
129 147 169
130 148 169
129 147 171
124 140 161
130 147 170
130 148 171
127 145 166
128 145 167
135 152 175
129 146 168
130 149 171
130 148 168
130 147 171
126 143 164
127 143 166
128 144 166
122 135 157
121 133 154
126 140 162
124 137 158
120 132 155
123 134 156
120 128 151
123 137 158
121 130 154
121 130 152
117 126 147
121 128 153
120 126 148
118 124 146
118 122 145
119 125 148
117 123 147
118 126 150
119 125 148
117 120 144
114 118 143
115 117 142
120 126 150
111 111 136
118 124 149
115 116 141
116 119 143
114 113 139
115 118 144
113 114 138
113 114 138
115 115 140
113 114 137
113 112 137
110 111 134
115 119 144
112 113 138
115 118 143
115 117 143
117 122 147
114 118 140
116 121 144
121 130 152
116 119 144
119 125 148
119 127 148
118 124 149
121 131 153
116 121 145
121 128 151
123 133 158
121 131 156
117 127 149
123 134 158
123 133 153
123 135 159
121 132 155
123 136 156
124 137 159
125 140 161
125 139 162
112 124 145
113 125 145
102 116 134
98 113 133
81 94 110
66 80 91
53 68 80
35 51 62
14 35 45
4 31 41
4 32 41
4 31 40
5 32 43
4 31 40
5 33 42
5 33 43
4 32 42
5 32 42
5 34 44
5 33 43
5 33 42
4 31 40
5 32 42
5 33 43
5 33 42
4 32 42
5 33 43
5 33 43
4 32 41
5 32 42
5 34 44
5 34 44
4 31 40
5 33 43
5 33 42
5 33 43
4 32 42
4 31 40
5 33 43
5 33 43
5 34 44
5 33 43
4 31 41
5 32 42
4 31 41
5 34 43
4 32 41
5 32 42
5 33 43
5 32 42
5 33 43
5 33 43
4 31 41
5 33 43
5 34 44
5 32 42
5 34 44
5 33 43
4 32 41
5 34 43
5 33 43
4 31 40
5 32 42
5 33 44
5 31 41
5 34 43
5 34 44
4 31 41
5 32 43
5 32 42
5 33 44
5 32 42
4 31 41
5 32 42
5 32 42
5 32 41
5 32 42
5 33 44
5 31 40
4 30 40
5 32 42
5 31 41
5 31 42
5 32 42
5 30 40
5 32 42
5 31 42
5 31 41
5 30 40
4 29 39
5 30 40
4 29 38
4 30 40
4 29 39
5 29 39
4 27 37
5 30 40
5 29 39
4 27 37
17 25 36
53 23 50
59 25 54
67 28 60
105 32 83
98 29 78
115 33 90
123 34 96
142 37 109
130 34 100
146 38 112
156 40 119
145 37 112
154 39 118
150 38 114
157 40 119
146 38 113
155 39 118
161 41 123
164 42 124
169 43 129
157 40 120
160 41 123
150 39 116
159 40 121
164 42 123
160 41 121
165 42 125
161 41 124
163 42 124
162 41 123
161 41 123
163 42 124
160 41 122
165 42 126
167 42 126
157 40 120
165 42 126
161 42 122
166 42 126
163 41 123
162 42 125
162 41 123
164 42 126
163 42 125
163 42 124
158 41 122
163 42 125
172 44 131
161 41 123
169 44 129
163 42 123
173 44 132
166 42 126
172 44 130
165 42 126
166 42 125
170 44 130
169 43 128
169 43 128
157 40 121
163 42 124
166 42 127
170 44 130
172 44 130
164 43 125
162 42 124
165 43 127
164 43 127
166 43 126
169 44 129
163 42 125
164 42 125
171 44 131
169 44 130
168 43 128
167 43 128
171 44 130
161 42 124
160 41 123
168 43 129
165 43 127
165 43 125
173 44 131
169 43 128
167 43 126
168 43 129
169 44 129
169 43 129
175 45 132
171 44 130
165 42 126
169 44 129
170 44 130
172 44 132
167 44 129
168 43 129
171 44 130
168 43 127
165 43 126
170 44 129
168 43 128
170 44 131
167 43 128
166 43 127
172 44 131
166 43 127
171 44 130
168 43 128
170 44 130
167 44 129
163 42 124
176 45 134
164 43 126
171 44 131
172 44 131
165 43 126
171 44 130
170 44 129
164 43 125
158 41 122
166 43 125
165 43 126
167 44 127
164 43 126
157 41 120
166 43 128
169 44 130
170 44 130
172 45 133
168 43 127
169 44 128
163 43 125
161 42 125
158 42 121
163 43 124
169 44 129
166 43 128
167 44 128
165 43 125
170 44 129
163 42 124
165 44 128
164 43 125
165 43 125
163 42 125
155 41 121
170 44 129
168 46 128
157 52 124
146 60 122
148 81 132
140 91 134
143 95 139
125 88 126
135 112 148
127 118 148
110 110 136
119 125 150
110 116 140
113 122 145
111 118 142
111 119 143
116 126 150
111 117 142
110 115 139
122 134 159
114 124 148
111 115 140
120 131 156
123 138 162
118 126 151
117 128 151
120 131 155
123 135 160
120 131 154
120 131 156
120 131 157
120 130 154
118 126 150
120 131 155
125 138 162
118 127 152
126 138 162
120 133 157
123 135 160
119 129 156
124 136 163
126 139 163
122 133 158
119 130 155
122 134 159
123 134 159
124 136 160
124 136 161
118 127 153
124 139 163
130 145 169
127 142 167
121 134 158
127 141 166
123 134 159
123 135 161
125 138 162
123 137 161
125 137 164
123 136 160
126 141 167
127 143 168
124 137 161
130 145 169
126 141 166
124 137 161
125 139 162
125 138 163
132 148 172
127 143 168
125 138 162
128 142 167
127 142 167
127 139 163
128 143 167
132 148 173
128 142 165
128 144 168
129 146 169
127 142 168
129 145 170
126 141 166
128 142 166
129 144 168
131 147 172
125 137 162
124 140 164
126 140 165
129 145 170
125 141 164
130 148 173
129 142 166
129 144 168
130 146 170
129 144 168
133 148 173
130 144 170
128 142 166
129 143 168
131 146 172
128 142 168
128 142 167
127 142 167
128 144 168
131 147 171
130 147 171
131 149 173
130 146 170
135 151 174
126 143 167
