P3
1600 1
255
49 66 86
82 96 114
72 88 107
68 83 101
61 77 99
66 83 104
74 90 111
75 88 106
83 99 120
79 95 116
87 102 121
76 94 116
84 102 124
82 99 120
84 100 121
92 109 130
86 104 126
83 101 123
78 94 116
94 111 133
86 104 127
92 110 131
89 107 128
91 109 131
97 112 134
96 114 137
102 119 140
102 120 143
100 119 142
99 117 139
95 116 140
100 119 140
100 118 141
100 118 141
102 120 143
101 120 143
100 119 142
104 122 146
100 119 143
108 126 150
100 117 139
96 115 138
104 123 147
102 122 146
107 126 149
109 127 150
104 123 147
107 126 149
110 130 153
112 130 154
113 132 156
111 130 154
106 125 148
112 131 155
110 129 154
118 137 161
115 135 160
119 138 163
111 131 155
112 132 156
115 134 159
118 138 162
115 134 158
116 135 159
122 141 167
116 136 161
110 130 155
119 139 164
115 134 158
122 142 166
116 135 158
116 135 160
118 137 161
116 135 159
117 135 159
118 138 162
119 138 163
124 143 168
120 138 162
122 141 164
121 140 164
119 139 164
115 133 157
123 142 167
119 139 164
119 139 164
121 140 164
123 142 167
122 141 166
118 136 161
123 142 166
125 143 166
125 144 168
120 139 163
125 144 169
126 145 169
120 139 163
127 146 172
132 151 175
125 145 169
123 142 165
129 147 172
131 149 173
128 148 173
125 144 169
128 146 170
131 149 173
128 146 170
130 149 175
131 149 173
128 147 172
129 149 173
127 145 170
126 145 170
129 147 171
128 147 171
126 146 170
127 147 173
132 150 173
126 146 171
131 150 175
127 147 172
128 145 169
126 145 169
130 149 174
127 147 172
130 149 173
128 147 171
126 143 166
126 146 171
130 149 173
128 146 170
126 144 167
128 147 171
128 148 174
127 145 169
130 148 171
124 144 169
127 145 169
128 146 171
129 148 173
131 149 173
129 147 172
129 148 173
132 150 174
132 151 174
128 147 171
133 152 177
130 149 174
129 148 172
127 146 171
130 149 173
130 149 174
129 147 172
129 148 171
131 149 174
134 153 178
133 151 175
132 151 175
128 147 172
130 147 172
125 143 168
131 150 174
130 148 172
129 148 172
132 150 175
128 145 170
133 152 176
132 151 175
131 150 175
132 150 175
132 151 175
129 147 171
131 148 172
132 151 174
133 151 175
132 151 176
134 153 177
130 148 172
133 151 175
129 148 172
130 148 172
132 151 176
132 151 175
127 145 169
131 150 175
132 150 174
133 150 174
133 152 175
131 149 173
131 149 174
129 147 172
132 151 175
134 151 175
132 150 174
130 148 172
134 152 175
131 149 173
131 150 174
133 152 177
131 150 175
132 148 172
132 150 174
129 147 172
135 153 177
132 150 173
133 151 176
133 151 176
131 150 175
129 146 170
132 150 175
130 147 171
131 149 173
134 152 175
124 142 165
133 152 176
134 151 175
134 153 178
132 150 175
133 151 175
133 152 177
127 144 167
134 153 176
131 150 175
133 151 176
134 153 177
132 151 174
130 148 172
134 152 177
134 152 176
132 150 174
131 150 174
133 151 176
134 152 175
132 151 175
132 149 172
133 151 174
133 151 176
131 149 174
130 147 170
133 150 174
131 149 173
133 150 175
132 150 173
136 154 177
133 152 175
129 147 171
128 145 168
133 152 177
130 148 172
131 148 172
132 150 174
132 151 175
131 149 173
132 150 173
131 150 174
134 152 176
132 150 175
132 151 175
133 151 176
132 152 177
129 146 169
132 151 176
133 152 176
134 153 178
132 149 172
134 152 175
131 149 173
135 153 176
134 151 174
132 149 173
131 148 171
134 152 176
131 149 172
130 146 169
131 150 174
132 151 174
132 150 173
133 150 172
132 150 174
134 153 177
129 146 170
134 152 176
134 151 176
132 150 173
134 152 175
130 148 172
130 147 170
132 150 174
128 146 170
131 150 174
131 150 174
130 148 171
135 152 176
132 149 172
130 147 170
133 151 174
131 149 173
135 152 175
132 149 172
131 148 172
134 151 173
130 148 172
131 149 173
132 150 174
135 153 177
131 147 169
130 149 172
134 153 178
130 147 170
129 146 170
132 149 172
129 147 171
132 148 171
131 148 171
131 149 171
132 150 174
132 149 173
128 145 168
131 148 171
130 147 170
130 148 171
133 150 174
132 151 175
132 149 172
133 150 173
131 148 171
130 147 170
131 147 169
131 148 172
130 147 171
129 145 168
130 146 168
128 143 165
131 149 173
131 149 173
128 146 169
126 142 163
131 149 171
134 151 175
132 150 174
128 145 168
130 148 171
131 149 173
129 145 168
131 147 170
125 140 162
131 149 173
129 147 170
130 147 171
133 150 173
132 147 169
129 145 168
128 144 167
131 148 172
128 143 164
127 144 166
129 146 170
130 148 171
131 147 170
129 146 169
128 145 167
128 145 167
125 142 165
129 145 167
126 142 165
127 142 164
129 146 169
127 143 166
125 140 162
128 145 168
129 146 169
127 143 166
130 146 169
124 141 164
126 140 163
124 138 158
130 147 170
127 142 164
124 138 160
126 141 162
129 146 169
125 140 161
125 141 162
126 140 161
129 147 170
128 143 165
125 140 162
128 142 164
127 143 165
128 143 165
127 140 161
131 147 170
127 142 162
124 138 159
124 138 158
120 133 154
122 136 157
123 137 158
120 134 156
121 133 153
127 143 165
124 137 158
123 138 159
116 128 147
121 133 153
117 128 148
124 138 160
120 133 152
124 138 159
121 134 155
120 133 154
118 131 151
124 138 158
117 129 148
116 128 147
120 132 152
115 126 144
117 128 147
118 132 153
117 128 146
110 120 138
112 122 139
120 132 151
109 118 133
116 127 145
116 126 144
115 126 144
115 126 142
110 118 135
107 114 129
110 121 138
112 121 137
112 121 138
108 117 132
103 110 125
110 118 133
111 119 135
112 121 137
110 119 135
113 122 137
110 119 134
102 108 121
95 101 116
108 115 134
89 95 113
81 85 111
82 84 108
62 64 104
78 84 116
55 56 100
55 58 108
38 39 103
32 32 105
17 14 103
17 19 106
11 11 108
11 11 106
11 11 105
11 11 107
11 11 110
11 11 106
10 11 104
11 11 109
11 11 106
11 11 107
11 11 111
11 11 106
11 11 107
11 11 108
11 11 108
11 11 108
11 11 109
11 11 108
11 11 107
11 11 106
10 11 106
11 11 110
11 11 106
11 11 112
11 11 108
11 12 113
11 11 112
11 11 108
10 11 106
11 11 107
11 12 112
11 11 107
11 11 110
10 11 103
11 11 109
11 11 108
11 11 108
11 11 110
11 11 108
11 11 108
11 11 112
11 11 108
11 12 113
11 11 107
11 11 105
11 11 108
11 11 108
11 11 110
11 11 108
11 11 111
11 12 113
11 11 109
11 11 107
11 11 108
11 11 110
11 11 107
11 11 109
11 11 112
11 11 109
11 11 106
11 11 111
11 11 111
11 11 107
11 11 111
11 11 110
11 11 108
11 11 108
11 11 110
11 11 110
11 11 110
11 11 108
11 11 111
11 11 111
11 11 107
11 11 109
11 11 110
11 12 112
11 11 107
11 11 107
11 11 109
11 11 110
11 11 111
11 11 109
11 11 109
11 11 110
10 11 106
11 11 109
11 11 109
11 12 112
11 11 106
11 11 108
11 11 108
11 11 112
11 11 108
10 11 104
11 11 109
11 11 107
11 11 109
11 11 107
10 11 103
11 11 109
11 11 110
11 11 107
11 11 109
11 11 107
10 11 105
11 11 106
10 11 107
10 11 106
11 11 107
11 11 106
11 11 105
10 11 103
11 11 107
11 11 110
11 11 108
10 10 101
11 11 105
10 11 106
11 11 107
11 11 107
10 11 105
10 11 105
10 11 106
11 11 109
10 11 105
11 11 104
10 10 99
11 11 108
10 11 103
33 36 106
42 47 110
54 61 117
67 75 121
78 86 127
79 91 132
98 112 142
88 100 134
107 120 146
104 117 142
113 128 153
118 133 154
115 131 153
120 136 158
123 139 160
124 141 164
123 139 162
124 140 160
119 136 157
120 137 160
125 142 165
119 133 155
118 135 157
120 136 159
123 140 162
119 133 155
122 136 158
123 138 160
118 135 157
120 136 159
124 141 163
115 130 154
116 132 153
124 140 163
123 140 163
121 136 158
119 135 158
119 134 155
119 135 157
117 133 155
120 137 161
116 130 152
122 140 165
123 140 162
123 140 164
125 141 164
124 142 167
123 140 162
118 133 156
119 134 157
117 132 154
118 135 158
121 138 162
120 137 160
123 141 165
117 135 159
122 141 166
118 134 157
117 134 155
110 125 146
116 134 159
118 134 156
114 128 150
116 131 155
112 129 153
115 129 152
121 139 161
118 135 159
120 137 160
118 133 156
113 129 152
113 129 152
113 128 149
109 125 148
115 132 156
113 128 151
117 134 156
113 128 151
113 130 152
109 125 149
110 126 149
111 128 153
107 123 146
110 126 147
109 126 150
108 125 147
106 123 145
106 120 141
111 127 150
108 122 143
110 125 147
114 130 153
108 124 144
107 124 145
105 119 138
106 122 144
112 127 149
104 120 141
104 118 139
111 126 148
104 119 142
100 115 139
110 125 147
104 119 142
112 126 148
105 120 141
99 113 135
96 112 133
92 106 128
98 112 133
94 108 130
98 111 131
89 103 124
96 110 132
93 108 130
98 113 133
94 107 127
91 102 122
101 118 140
85 98 119
98 111 128
78 91 113
82 96 119
85 99 121
80 93 114
82 95 118
63 78 103
60 71 97
69 82 108
51 65 98
56 72 108
54 70 101
43 60 98
50 66 101
44 63 105
36 55 98
33 53 94
37 56 97
32 53 96
29 50 92
29 54 102
29 54 100
27 51 95
26 49 95
26 49 95
27 50 96
29 53 100
27 51 97
26 49 94
28 54 101
29 54 104
28 52 99
29 54 101
26 49 93
29 52 99
29 53 99
27 50 96
30 55 103
27 51 97
31 54 100
30 56 103
28 52 99
33 52 93
29 53 100
28 52 99
28 49 91
25 47 89
30 50 89
30 47 83
34 54 97
45 59 93
43 59 93
35 55 90
53 67 100
46 61 96
54 68 98
52 66 97
57 69 95
59 73 98
71 84 110
66 77 97
71 83 106
81 94 114
83 96 118
86 96 114
88 94 113
90 96 113
95 104 122
92 97 110
93 93 109
112 105 117
112 109 119
108 104 116
107 100 108
119 109 116
113 100 106
122 115 121
119 114 122
118 113 121
122 115 122
125 119 126
122 116 123
125 120 125
124 119 126
123 118 124
123 117 124
124 118 125
124 118 125
127 122 130
121 115 123
119 114 120
115 109 117
119 112 120
120 114 121
116 110 119
120 113 121
110 104 113
106 101 111
109 104 114
112 107 116
120 114 123
118 111 119
105 98 106
120 114 123
116 111 119
121 114 122
116 110 117
118 113 122
117 112 121
138 126 131
128 121 127
129 120 125
124 117 123
130 123 127
133 124 131
135 126 131
132 126 131
135 127 133
138 130 136
138 130 136
137 130 135
137 128 134
134 128 133
139 131 137
136 127 134
133 127 133
134 126 134
134 127 134
139 132 138
134 127 133
134 127 134
136 128 135
132 125 132
138 131 136
135 128 134
131 126 130
128 121 129
127 121 127
130 124 130
130 125 128
123 118 122
128 123 128
129 123 126
130 122 126
125 120 122
123 119 120
128 124 126
127 121 122
122 118 121
127 122 124
125 122 122
126 121 125
117 114 113
120 115 117
119 119 117
118 112 112
121 117 116
120 114 117
125 120 125
118 112 115
117 112 114
119 112 114
120 112 118
115 108 113
118 108 114
123 114 120
124 116 122
124 118 122
123 114 122
124 116 121
118 112 117
130 122 128
116 110 114
127 121 126
129 119 126
132 123 129
126 123 128
124 121 126
124 118 123
120 113 118
121 113 120
118 109 116
127 119 125
122 110 117
122 116 122
120 112 119
117 112 116
127 119 125
119 113 119
124 118 123
123 116 122
122 116 121
126 119 127
123 116 121
129 122 130
125 117 124
125 119 125
130 118 125
129 119 124
127 118 124
127 118 124
128 122 131
127 122 129
129 128 141
128 132 146
127 139 156
127 140 159
119 128 146
130 141 162
126 142 163
132 148 171
127 145 168
126 144 167
129 146 168
125 142 165
127 144 166
126 142 164
128 145 167
127 143 165
130 147 169
128 146 169
128 146 169
123 140 162
131 147 169
125 143 166
126 143 165
129 145 168
126 142 165
129 145 167
131 150 173
127 143 164
130 148 172
130 149 171
131 148 172
129 146 169
125 142 164
131 149 173
130 148 171
134 152 175
124 141 163
125 142 165
129 147 170
128 147 172
132 149 171
128 146 167
129 146 168
132 150 173
131 150 173
126 144 166
128 146 169
131 150 172
130 148 171
128 147 170
128 146 170
129 148 171
128 145 169
127 144 166
130 148 172
130 147 168
130 149 171
129 145 167
128 145 167
130 147 170
133 151 175
127 144 166
133 151 174
127 145 167
130 147 170
125 142 163
131 148 172
129 146 170
131 148 171
132 149 170
130 147 170
129 145 166
132 151 174
128 144 164
131 148 170
130 148 169
128 145 166
131 148 171
132 149 171
128 146 170
128 145 167
131 148 171
130 148 170
131 149 171
130 148 171
129 146 168
129 146 169
130 148 171
132 150 172
129 146 170
129 146 168
128 144 166
126 142 163
129 146 168
130 147 170
129 147 169
128 145 167
127 144 166
130 146 167
129 147 171
129 146 168
128 146 167
132 149 171
126 142 163
130 148 169
131 148 172
128 144 166
129 145 167
131 149 172
131 149 172
128 145 167
128 145 166
132 149 171
131 150 172
131 149 171
129 146 168
130 148 171
131 149 171
133 150 173
128 145 167
127 145 166
132 149 171
127 145 166
128 146 169
131 149 174
127 144 164
130 147 170
130 147 170
130 146 168
131 148 170
133 150 174
131 149 170
133 150 173
134 153 174
129 146 168
128 145 168
131 149 171
130 148 170
128 146 166
130 148 169
132 151 174
130 146 165
129 147 170
132 150 173
129 146 168
129 147 169
128 144 165
130 148 172
130 147 169
132 148 170
128 146 167
127 145 167
132 151 175
129 147 170
128 145 167
134 152 174
128 145 166
127 145 166
131 147 168
129 146 167
133 149 170
131 149 172
132 149 171
133 152 174
131 149 171
128 145 168
132 149 169
133 151 175
131 149 171
129 146 169
126 145 167
130 148 170
129 146 167
130 148 171
128 144 165
133 150 173
129 147 167
130 146 168
128 145 166
131 149 172
131 148 170
128 147 166
132 149 170
131 150 172
134 152 175
133 151 172
132 149 170
129 147 169
128 145 167
131 149 171
129 146 167
131 149 171
130 148 169
131 149 173
129 146 169
132 150 173
130 147 169
133 151 173
132 151 173
132 148 171
131 148 170
131 150 172
132 149 172
128 145 167
132 149 172
128 147 169
131 147 168
131 148 171
130 148 170
127 144 166
132 150 172
132 150 173
130 148 170
130 147 169
131 148 170
128 144 167
130 148 171
129 146 169
130 147 170
130 146 168
132 149 171
130 147 168
132 149 172
132 149 171
132 151 172
129 147 169
132 149 171
129 146 168
131 149 172
131 149 170
131 149 171
128 145 166
134 151 174
132 149 172
132 148 170
133 151 174
129 146 168
129 145 167
132 149 173
131 148 170
130 150 173
126 143 164
131 148 168
130 148 170
129 147 170
128 145 167
133 151 172
130 148 170
127 144 166
129 144 167
127 143 166
131 149 172
131 149 170
132 149 171
131 148 170
132 148 170
132 150 174
132 149 172
127 144 164
129 145 167
125 141 163
128 143 166
126 140 161
127 141 164
126 138 161
125 139 160
123 133 158
122 134 157
120 126 149
118 125 147
123 130 155
112 114 137
114 115 139
112 113 136
114 115 139
112 111 135
107 101 127
116 116 141
106 101 127
110 108 132
104 94 119
112 110 135
102 89 117
106 97 124
104 91 118
100 86 115
100 84 112
104 94 119
102 88 117
98 78 108
100 81 111
98 82 111
98 78 108
98 78 108
97 78 108
98 78 108
96 74 105
96 71 103
97 78 106
97 75 105
95 71 103
96 71 103
94 69 102
96 71 102
96 72 104
98 79 108
95 73 104
100 79 109
98 79 109
95 71 104
97 76 107
98 76 107
98 78 109
97 75 106
97 76 107
100 82 113
103 88 116
100 81 111
99 83 112
103 90 118
99 80 110
103 89 118
100 85 113
103 91 119
105 92 120
102 89 116
105 98 124
106 100 126
105 98 125
109 102 128
112 111 137
106 100 125
110 106 132
110 107 133
114 115 139
109 109 133
108 109 133
106 109 132
93 91 113
82 85 104
73 71 91
71 75 92
65 67 85
52 54 70
44 42 58
37 39 54
26 35 48
24 34 47
14 32 42
22 32 43
17 32 43
10 32 42
4 31 40
4 30 40
4 30 39
4 32 42
4 32 42
4 31 40
4 31 40
5 33 43
5 33 42
5 32 42
4 31 40
4 29 38
5 32 42
4 31 40
4 31 40
5 33 43
5 33 43
4 31 40
4 32 41
5 34 43
4 30 39
5 33 43
4 30 39
4 31 41
5 33 43
4 31 41
4 30 39
4 31 40
5 33 43
4 32 41
4 30 39
5 32 42
5 32 42
5 32 42
5 33 42
5 33 43
5 33 43
5 33 43
4 31 40
5 32 42
4 31 41
5 32 42
4 31 41
5 33 42
5 32 42
5 33 43
5 32 42
5 33 43
4 30 39
4 31 41
4 30 39
4 31 41
5 32 42
5 32 42
5 32 42
5 32 42
5 32 41
5 32 42
4 30 39
5 31 41
4 31 40
4 31 41
5 32 42
5 32 42
4 29 39
5 32 43
5 31 41
4 30 39
5 31 41
4 30 39
5 32 41
4 28 38
4 30 40
4 27 36
5 30 40
4 26 36
4 28 38
4 27 37
4 27 36
4 26 35
4 21 30
20 27 39
48 27 48
66 25 57
83 29 68
82 27 66
106 31 83
102 29 80
121 33 94
124 32 93
134 35 102
148 38 112
149 38 113
153 39 117
152 39 116
159 41 122
148 38 112
159 41 121
152 39 116
147 37 111
158 40 121
157 40 119
159 40 120
159 41 122
162 41 122
164 42 125
159 40 120
162 41 122
157 40 119
164 42 124
165 42 125
165 42 125
153 39 118
162 41 123
157 40 118
170 43 129
164 42 123
156 40 118
156 40 118
150 38 114
162 41 123
167 42 125
161 41 122
164 42 125
168 43 127
168 43 127
160 41 122
167 42 127
166 42 125
167 43 126
168 43 126
165 42 126
162 41 123
165 42 124
167 42 126
167 42 125
167 43 127
169 43 128
163 42 125
163 42 124
166 42 125
164 42 125
164 42 125
166 43 127
166 43 127
164 43 126
161 42 123
164 42 124
161 42 123
158 40 120
166 43 125
163 42 124
162 41 123
162 42 124
158 41 121
165 42 126
155 40 118
155 40 118
166 43 127
164 42 125
165 42 124
168 43 127
167 43 126
177 45 133
168 43 128
168 43 129
165 42 125
164 42 125
162 42 123
162 42 125
166 42 125
163 42 123
158 41 122
161 41 123
166 43 126
161 42 122
168 43 128
171 44 130
167 43 127
165 42 125
166 43 127
169 44 128
160 42 122
164 42 126
158 41 120
167 43 127
167 43 128
163 42 125
163 43 125
164 42 125
165 42 124
169 44 128
171 44 130
168 43 128
166 43 126
164 43 126
167 43 128
161 42 124
163 43 125
162 42 124
160 42 123
165 43 125
167 43 126
165 43 126
168 44 129
166 43 126
163 43 124
154 41 118
164 43 126
158 42 122
162 42 124
159 42 121
162 42 125
163 43 125
167 43 127
156 41 121
167 43 127
162 42 124
157 41 121
164 42 123
161 42 123
157 41 119
158 41 121
153 41 118
157 41 120
160 42 123
163 43 125
161 42 122
152 41 118
162 43 124
150 40 116
157 44 121
159 61 128
147 75 129
146 80 134
136 84 128
136 84 129
145 102 144
127 110 143
127 126 155
122 122 149
114 118 144
118 129 152
123 134 158
125 137 162
120 132 156
119 124 149
120 131 155
122 136 161
121 133 157
122 134 157
129 142 167
116 123 150
120 130 154
122 133 156
120 132 156
123 136 162
121 133 158
122 135 157
120 130 156
127 141 166
122 133 159
121 133 158
124 136 160
123 136 161
126 138 164
125 137 162
121 133 158
129 143 167
123 135 159
123 135 160
125 137 162
126 138 162
123 136 160
124 135 161
126 139 164
122 135 161
126 138 164
125 138 162
124 139 163
129 146 171
121 132 158
122 135 158
121 131 157
127 142 167
127 142 166
125 140 165
126 139 164
124 137 161
129 144 168
129 144 169
127 142 167
129 144 168
128 140 165
129 143 168
126 140 166
126 140 165
130 145 169
122 136 160
132 147 172
131 147 172
125 139 163
129 144 169
134 149 173
126 142 167
128 141 165
129 145 170
126 140 163
128 143 168
125 138 162
128 145 168
132 148 172
128 145 169
130 146 172
125 139 165
132 148 172
129 143 167
130 146 171
133 151 175
132 148 173
130 147 172
128 143 167
131 146 171
129 145 170
128 144 169
128 143 168
125 141 165
131 146 172
127 143 166
130 146 170
127 142 165
131 147 171
127 141 165
130 145 170
130 145 169
129 143 167
129 147 170
127 142 166
132 150 173
