P3
1600 1
255
70 83 103
63 77 97
77 90 109
73 87 105
71 87 108
74 88 107
72 89 111
81 96 116
70 86 107
78 97 119
77 93 114
74 91 112
87 106 128
84 100 120
100 116 137
77 94 116
79 97 119
95 111 132
89 106 125
90 106 128
87 104 126
91 110 132
93 111 133
88 106 128
88 107 129
94 114 138
96 114 136
96 114 137
95 114 137
89 109 132
95 115 139
95 113 136
97 117 141
101 119 142
100 119 143
97 117 141
101 119 143
106 126 150
113 132 156
101 120 143
103 121 144
102 122 146
99 119 143
106 125 149
113 131 155
107 125 149
108 127 152
103 123 146
111 130 152
106 127 153
111 130 154
108 128 152
118 137 161
114 133 157
105 124 148
118 139 164
114 134 158
121 139 163
110 130 155
117 135 159
119 139 163
121 140 164
115 134 159
113 133 158
118 137 162
112 132 158
113 133 158
114 134 160
123 143 167
122 141 166
116 133 155
126 144 167
115 134 159
118 137 161
118 137 161
119 138 161
122 141 165
120 139 163
120 139 163
126 145 170
122 141 166
116 136 160
126 144 169
122 142 166
122 142 168
120 140 164
122 141 165
126 144 169
114 133 159
123 142 167
124 143 167
122 140 164
124 143 168
122 142 167
127 145 169
120 140 163
123 142 167
125 145 169
125 143 168
123 142 166
130 149 174
123 142 166
131 150 175
121 141 167
126 147 172
131 149 173
126 144 169
127 146 171
129 147 171
130 149 174
129 147 171
129 147 171
125 145 171
127 146 170
131 149 174
130 149 173
127 146 172
130 149 173
129 148 173
128 147 172
129 149 174
127 145 169
126 144 168
130 149 174
131 151 176
130 149 173
129 147 172
125 142 165
127 147 172
130 149 173
127 145 169
125 143 167
126 146 171
129 149 173
130 149 173
131 149 172
128 148 173
129 146 170
132 149 173
130 148 173
132 150 175
130 149 173
129 148 173
127 145 168
130 148 172
130 148 172
132 151 176
130 149 174
129 148 173
127 145 170
127 145 170
128 148 173
132 151 175
125 144 168
134 153 177
132 151 175
131 150 175
134 152 176
128 147 172
129 147 171
127 145 168
129 148 171
133 151 176
130 148 172
132 150 174
127 145 168
132 150 174
134 153 177
131 150 175
133 152 176
130 149 174
132 151 175
131 148 172
131 149 173
132 149 174
130 149 173
134 153 177
130 148 173
130 149 173
134 152 175
130 149 174
132 149 173
129 148 172
129 148 171
128 147 172
131 150 174
132 150 173
134 152 176
133 151 175
128 146 170
132 151 175
128 147 172
131 148 172
133 151 175
132 149 173
134 153 176
133 151 175
133 152 176
132 151 175
130 149 174
132 150 173
132 149 172
132 151 175
133 151 175
130 149 173
132 150 174
133 151 175
132 151 175
130 148 173
133 151 175
129 146 170
132 151 175
132 150 174
128 147 171
131 149 173
134 152 175
133 152 176
132 152 177
132 151 175
133 152 176
130 147 171
132 151 174
132 150 175
132 151 176
133 152 175
131 150 174
132 150 174
132 150 174
134 153 178
135 153 176
131 149 172
133 151 175
133 151 175
134 153 177
131 149 172
136 152 175
132 151 175
132 150 174
129 146 169
132 150 174
131 149 173
132 150 174
133 151 175
135 152 176
132 151 175
130 148 172
132 150 173
132 151 175
132 150 173
131 149 174
132 149 172
133 152 177
130 148 173
132 150 173
133 151 175
133 151 175
133 151 175
134 153 178
132 151 176
132 151 175
131 149 173
132 151 175
133 151 176
135 154 179
132 149 173
133 150 174
130 149 173
134 153 176
133 151 174
133 151 175
131 147 170
134 152 175
133 151 175
132 150 174
130 147 170
131 149 173
132 151 175
131 148 170
134 152 176
133 152 176
131 149 173
135 153 178
133 151 175
133 151 175
133 150 173
134 152 175
127 143 167
132 150 174
130 149 172
130 147 171
133 152 176
131 150 174
132 150 174
132 149 171
131 148 171
131 149 171
131 149 172
135 153 177
132 150 173
134 151 174
134 151 173
130 147 170
131 148 172
131 148 172
135 153 177
134 152 175
131 149 172
132 150 174
132 150 174
131 149 174
131 148 171
130 147 170
130 147 171
133 149 172
131 148 172
131 147 170
133 151 175
131 148 171
126 144 166
134 152 177
132 149 172
130 148 171
132 149 172
132 150 174
132 149 173
132 149 172
129 146 170
132 149 172
131 147 168
130 147 171
132 150 173
128 144 165
130 147 170
129 145 168
132 151 174
129 147 171
130 147 169
129 145 168
132 150 173
135 152 176
133 151 174
129 145 168
130 148 172
131 149 174
131 147 169
129 144 166
130 146 170
131 150 172
129 146 169
131 148 173
130 146 168
131 146 168
129 146 169
128 145 169
128 144 167
130 147 170
131 148 172
129 147 170
129 147 170
130 146 168
131 149 172
131 148 170
127 142 164
125 142 165
130 146 169
127 143 165
126 141 163
128 144 166
127 144 167
125 139 161
129 146 170
124 140 162
128 145 168
126 142 163
127 143 165
125 140 163
128 143 164
129 146 169
128 143 165
124 139 160
126 140 160
129 146 169
126 140 160
126 141 162
128 144 166
131 150 174
127 141 163
122 137 158
128 144 166
127 143 164
125 139 159
126 140 162
128 143 165
127 142 163
125 138 159
119 131 150
125 139 161
123 137 158
122 136 156
121 134 154
125 141 162
125 141 163
124 137 158
122 135 156
122 135 155
118 130 149
117 130 148
125 140 161
122 135 154
125 140 161
119 131 152
121 132 150
121 134 155
118 129 148
115 129 149
117 129 148
118 128 146
119 131 151
121 134 154
117 131 152
116 128 147
113 127 144
111 120 137
116 127 146
115 125 141
117 127 144
116 126 145
115 126 145
113 122 138
111 119 136
112 120 137
114 124 141
107 115 132
109 120 138
107 115 130
108 116 132
106 114 130
108 116 131
114 123 139
109 119 135
111 120 136
105 113 129
96 101 118
97 105 123
106 113 134
89 96 123
80 84 113
87 92 119
72 75 112
65 68 113
67 73 116
41 44 108
40 41 106
22 21 105
19 19 102
11 11 108
11 11 107
10 11 104
11 11 109
11 11 110
11 11 107
11 11 111
11 11 107
10 11 104
10 11 104
11 11 107
11 11 108
11 11 105
11 11 107
10 11 105
11 11 107
10 11 105
11 11 106
11 11 110
11 11 107
11 11 108
11 11 107
10 11 106
11 11 107
11 11 108
11 11 107
11 11 109
11 11 111
11 12 112
11 11 108
10 11 104
11 11 108
11 11 109
11 11 110
11 11 107
11 11 106
11 11 108
11 11 108
11 11 110
11 11 109
11 11 108
10 11 106
11 11 112
11 11 111
11 11 111
11 11 108
11 11 108
10 11 105
11 11 109
11 11 110
11 11 108
11 11 108
11 11 110
11 11 109
11 11 109
11 11 106
11 11 107
11 11 108
10 11 106
11 11 109
11 11 111
11 11 108
11 11 110
11 12 112
11 12 112
11 11 107
11 11 111
11 11 107
11 11 109
11 11 110
11 11 107
11 11 111
11 11 108
11 11 109
11 11 111
11 11 111
10 11 105
11 11 109
11 11 109
11 11 108
11 11 107
11 11 109
11 11 108
11 11 110
11 11 111
11 11 108
11 11 108
10 11 105
11 11 109
11 11 108
11 11 111
11 11 109
11 11 107
11 11 111
11 11 106
11 11 108
10 11 105
11 11 106
11 11 107
11 11 108
11 11 109
11 11 108
10 11 104
11 11 110
11 11 111
11 11 108
11 11 106
11 11 108
10 11 103
10 11 107
11 11 108
11 11 108
10 11 105
11 11 105
10 11 104
10 11 103
11 11 107
11 11 111
10 11 104
10 11 104
10 11 104
11 11 106
11 11 106
10 11 105
10 11 104
11 11 106
10 11 105
11 11 108
10 11 106
10 11 102
10 11 103
28 30 108
33 35 109
49 55 112
44 49 107
75 83 128
75 86 126
81 91 127
99 112 145
104 118 146
100 112 140
107 121 147
116 130 153
116 131 153
122 138 160
120 135 155
118 132 154
123 139 162
126 143 166
125 141 163
120 135 157
120 135 154
122 139 162
123 140 163
116 132 155
120 137 160
122 137 159
126 142 164
123 139 162
123 138 160
126 142 165
118 136 158
116 131 151
124 141 164
118 132 154
119 135 156
122 138 161
121 138 162
123 139 162
119 136 159
114 130 152
119 134 156
116 131 155
120 137 161
111 127 150
122 140 163
125 141 164
127 143 167
125 141 164
122 140 163
121 136 159
116 131 154
123 139 161
119 136 158
112 127 150
121 138 162
121 139 162
118 134 156
122 139 162
120 138 162
117 133 154
118 136 158
115 131 153
115 133 159
114 130 153
111 125 146
116 132 154
112 128 151
116 132 154
113 130 152
119 136 160
120 136 159
115 131 154
112 128 150
111 127 149
114 130 151
109 124 147
113 129 154
110 127 150
114 131 153
116 134 156
112 128 152
113 129 152
111 126 148
107 123 148
102 117 140
109 125 148
102 118 142
109 125 148
108 124 146
103 117 137
108 122 144
104 120 140
106 122 146
102 117 140
105 122 142
104 119 139
106 122 143
105 120 140
108 123 144
99 113 136
110 124 145
105 119 141
98 113 137
97 112 133
103 116 137
98 114 137
96 110 131
92 105 125
96 110 130
89 103 124
97 109 128
95 108 127
83 96 118
94 107 128
92 105 127
90 103 123
91 103 122
91 103 124
89 103 124
84 97 118
88 100 119
77 89 109
86 99 119
85 95 114
78 89 108
85 98 117
77 90 111
83 96 118
75 88 108
71 84 105
68 81 105
65 78 103
60 73 103
51 69 98
61 76 109
39 56 90
44 58 91
43 56 86
36 49 79
43 62 102
40 56 91
28 47 87
37 53 88
35 54 91
27 49 92
42 59 96
33 54 97
27 50 93
29 47 87
23 43 81
30 50 90
23 43 82
33 53 92
31 52 91
29 48 89
30 49 88
36 54 94
36 49 84
27 45 84
33 54 96
28 48 88
33 52 92
23 41 77
34 53 89
38 51 83
43 59 93
41 55 87
43 58 91
41 56 91
43 56 86
49 61 88
48 61 89
52 63 87
49 63 88
52 64 90
63 74 100
72 82 102
73 83 98
70 81 101
82 94 113
71 81 98
75 85 103
87 100 118
82 92 107
73 84 102
80 91 109
92 101 119
90 96 112
93 93 107
104 99 112
95 96 110
101 98 108
105 99 107
112 106 115
113 102 109
113 102 109
120 112 120
122 114 120
123 114 120
128 122 128
124 117 124
122 115 122
131 124 131
126 118 125
127 122 128
129 123 128
127 121 128
125 119 126
123 118 125
122 116 123
120 114 121
117 112 118
123 117 124
125 119 126
119 114 122
119 113 120
121 116 123
116 110 119
124 117 125
118 113 121
116 109 117
112 107 117
112 107 115
124 118 124
114 108 116
118 111 119
123 115 122
127 118 125
126 118 125
124 118 125
124 117 122
125 118 124
130 124 128
128 121 128
129 122 128
133 126 132
127 120 126
132 124 131
133 126 132
137 131 137
130 125 130
130 123 129
138 129 136
132 126 134
134 127 132
133 127 133
139 130 137
133 126 132
136 130 136
132 126 134
136 129 134
134 126 134
133 126 132
132 125 132
131 125 132
131 125 133
134 127 132
132 126 132
123 117 124
132 126 132
124 119 124
128 122 128
126 122 127
125 120 125
126 121 124
126 120 124
124 120 124
125 121 124
127 121 124
124 119 122
124 119 123
116 113 113
126 121 124
116 113 115
126 122 122
120 113 118
119 114 117
124 119 123
123 119 121
121 117 121
120 114 118
126 120 124
122 116 122
123 115 120
124 117 123
119 112 117
120 114 119
119 113 119
122 115 120
123 118 124
125 120 124
121 116 121
123 117 123
127 120 127
129 122 129
127 119 125
128 120 127
124 116 122
124 119 125
127 121 127
127 119 125
126 119 124
129 122 128
125 118 124
127 121 127
121 116 121
130 123 129
130 123 129
124 117 123
125 118 125
123 118 124
129 121 126
128 121 127
126 121 127
127 121 127
129 118 123
123 114 119
129 119 124
129 120 126
127 120 124
126 121 128
130 128 139
129 130 142
129 134 149
126 127 143
130 136 156
125 137 157
128 142 162
125 140 161
127 145 169
126 144 165
126 142 164
129 145 167
125 141 164
131 149 171
127 145 166
130 148 171
130 148 170
130 149 173
129 146 169
126 142 164
128 145 168
131 149 172
133 151 175
127 144 166
129 148 170
129 146 169
128 146 170
129 147 170
130 148 170
128 144 166
130 147 171
131 150 173
128 145 168
129 147 170
129 147 170
131 148 172
128 146 170
129 146 170
134 152 176
128 145 167
124 141 162
128 145 169
131 149 171
128 146 168
128 146 170
129 146 169
129 147 170
129 147 169
128 146 168
132 149 171
128 145 167
129 148 170
124 140 162
128 144 167
129 146 169
131 149 172
132 150 173
132 150 173
127 143 164
130 148 171
128 145 166
129 147 170
128 144 166
129 146 169
128 144 165
133 150 173
130 148 171
128 145 166
129 146 168
131 149 171
129 146 168
128 145 168
131 148 170
127 144 166
129 147 170
132 149 172
128 146 169
131 148 170
127 144 166
127 144 167
129 146 168
130 146 170
130 149 171
126 143 163
129 146 169
130 146 167
130 148 171
126 143 163
128 146 168
129 145 167
128 146 166
129 148 170
131 148 171
132 149 172
129 144 167
132 149 173
131 149 173
129 147 169
127 144 166
130 147 170
131 148 171
131 149 171
126 144 166
131 150 172
132 150 173
134 152 176
128 145 166
127 145 166
127 143 164
127 145 168
129 146 168
132 150 174
128 145 166
131 148 169
131 148 171
131 148 169
131 147 170
134 152 176
126 144 165
133 150 172
133 151 173
126 144 165
128 146 169
131 148 171
130 147 169
127 145 165
130 147 169
132 150 174
130 146 167
130 148 171
130 147 170
132 149 172
131 149 172
130 145 166
130 147 170
129 144 166
129 147 169
128 145 167
129 147 170
133 151 174
131 149 171
131 149 172
134 150 173
129 145 165
128 145 167
131 148 169
129 146 167
133 149 170
131 148 170
131 148 170
132 150 172
130 148 169
129 146 169
131 149 170
133 150 174
132 148 171
129 147 169
126 144 166
131 148 171
131 150 172
130 147 170
128 145 166
133 150 175
131 148 169
130 147 170
129 145 167
132 149 172
131 149 172
128 144 164
132 149 172
131 150 172
133 151 174
132 149 172
132 150 170
129 147 168
127 145 167
134 152 174
131 148 171
131 149 171
130 148 169
132 150 173
127 145 167
130 148 172
131 149 172
130 147 170
131 149 172
133 150 174
130 148 168
130 148 171
132 150 172
129 147 169
130 148 171
132 150 172
129 147 169
129 147 168
129 146 168
131 148 170
131 148 169
131 150 173
130 148 171
128 145 166
131 148 169
129 146 168
130 148 172
131 148 170
129 146 170
131 148 169
131 148 170
128 144 166
132 150 174
131 148 170
128 145 166
130 147 169
129 146 167
131 150 172
130 148 171
130 147 167
131 148 170
132 149 171
131 148 170
130 148 172
134 151 173
130 148 171
127 144 166
131 148 171
130 148 170
132 150 173
132 149 174
129 146 168
133 151 172
130 148 172
130 147 170
128 145 167
134 151 173
126 143 166
130 148 168
125 142 164
131 148 172
133 151 174
130 148 169
131 147 170
130 149 171
130 147 168
131 149 172
133 151 173
129 147 170
130 147 168
131 149 172
133 151 174
128 145 166
129 146 170
132 150 172
130 148 171
130 149 171
130 146 169
131 149 172
130 146 169
130 146 169
130 146 169
129 143 167
121 136 159
128 143 165
126 139 161
124 136 159
119 126 150
123 133 156
117 124 146
121 129 152
118 123 147
115 117 141
117 119 143
112 111 137
110 112 134
112 110 134
109 104 130
109 103 129
109 104 129
103 93 119
107 100 126
101 89 116
102 89 116
101 90 116
100 83 113
99 80 109
99 82 110
99 81 112
98 77 108
94 69 101
97 74 105
96 73 105
97 76 106
94 66 100
96 71 103
94 66 99
93 66 99
94 66 99
96 67 100
94 64 97
93 63 96
93 63 96
93 63 98
95 67 100
95 67 100
93 63 98
92 63 97
93 63 97
92 63 96
92 63 96
93 63 97
93 63 97
94 65 98
93 63 98
93 63 97
93 63 97
97 71 103
93 65 98
95 67 100
93 65 98
93 66 99
93 65 98
99 77 108
94 72 103
96 71 102
95 69 101
96 73 104
101 82 112
98 79 109
99 81 111
95 74 105
100 80 111
100 83 111
103 90 119
100 85 114
102 91 119
104 93 121
111 109 136
105 98 124
102 94 121
99 86 114
96 89 111
94 94 116
91 85 108
82 75 98
76 67 89
59 54 73
57 48 68
50 42 62
44 40 58
43 40 57
36 37 52
45 41 59
39 39 55
28 36 49
33 37 51
26 34 45
10 31 40
14 33 43
4 31 41
4 30 39
4 32 41
4 31 41
4 31 40
4 31 40
4 31 41
4 30 40
4 32 41
4 30 39
4 31 41
5 32 42
5 32 42
4 32 42
4 30 39
5 32 41
4 32 41
4 31 41
4 31 40
4 32 41
4 30 39
4 31 40
5 33 42
5 32 42
4 31 41
4 31 40
5 32 42
4 31 41
4 32 41
5 33 44
4 30 39
5 33 43
5 33 43
4 31 41
4 32 41
4 31 40
4 32 41
5 33 42
4 31 40
4 30 39
4 32 41
5 32 41
4 31 41
4 31 40
5 32 42
4 31 39
5 32 41
4 31 40
4 31 41
5 34 44
4 31 40
4 31 40
4 31 41
5 31 41
4 31 40
5 32 42
4 31 41
5 32 42
4 30 39
4 31 41
4 28 38
5 31 41
5 31 42
4 30 40
4 29 39
4 29 39
4 28 37
4 28 38
5 30 40
4 27 36
4 27 37
4 26 35
4 26 36
4 26 36
4 25 35
4 25 34
4 27 36
4 25 34
30 26 41
47 25 46
49 24 47
73 28 61
89 29 74
111 34 89
117 33 92
105 29 83
130 34 99
140 36 106
148 37 110
152 39 115
154 39 117
145 37 108
146 38 113
154 39 116
157 40 119
155 39 118
149 38 112
150 38 115
156 40 118
163 42 124
149 38 113
155 39 117
157 40 120
159 41 121
149 38 112
168 43 127
160 41 121
162 42 124
160 41 121
163 41 123
156 40 119
166 43 126
155 39 117
162 41 123
167 43 127
159 41 121
163 42 123
164 42 123
162 40 120
160 41 121
164 42 125
166 42 125
163 42 124
156 40 119
161 41 124
162 41 124
167 43 127
160 41 122
158 40 120
157 40 119
155 40 119
161 41 122
165 43 126
158 41 121
158 40 120
160 41 122
161 41 122
160 41 121
158 40 121
165 42 124
164 42 124
162 42 124
153 39 115
172 44 130
166 42 126
171 44 130
166 42 126
160 42 123
167 43 127
161 41 122
158 41 121
154 40 117
164 42 124
169 43 127
160 41 123
166 43 127
158 41 121
163 42 125
165 42 125
169 43 128
169 44 130
162 42 123
165 42 125
163 42 125
163 42 124
165 42 126
153 40 117
162 42 124
164 42 126
155 40 119
164 42 124
164 42 125
160 42 122
169 44 130
166 42 125
159 41 122
162 42 123
162 42 124
161 42 123
164 42 126
159 41 121
158 41 120
163 42 125
171 44 129
161 42 124
160 41 120
165 43 126
169 44 128
165 43 126
160 41 123
169 44 129
166 43 127
157 41 121
161 42 124
169 44 129
166 43 127
163 43 125
167 42 125
167 43 128
160 42 123
163 42 125
154 40 117
163 42 123
160 41 121
160 42 123
161 43 123
166 43 127
168 44 130
157 41 120
164 43 125
155 40 120
161 42 124
163 42 123
161 42 124
170 43 129
166 43 125
162 42 122
161 42 124
164 43 125
161 43 123
162 42 124
157 40 119
168 44 128
153 41 118
164 42 124
157 41 118
157 41 121
157 41 121
162 47 126
145 54 118
150 64 125
151 84 136
149 84 134
135 89 131
147 102 145
138 111 148
123 119 147
137 130 160
122 124 150
119 131 155
123 135 160
121 132 157
121 134 159
122 134 158
120 132 156
116 126 150
118 127 152
124 134 160
122 134 159
124 137 161
123 136 161
123 135 158
121 133 157
120 129 154
126 139 165
126 139 165
123 134 158
120 131 155
125 139 163
122 135 161
130 144 169
122 135 159
125 141 166
123 134 159
119 132 155
121 133 157
126 142 166
126 140 165
125 140 164
126 140 164
124 136 161
124 137 161
126 141 166
127 141 167
124 135 159
124 136 161
128 143 167
128 142 167
125 137 163
130 144 169
125 137 162
127 142 167
128 142 166
123 138 163
128 143 168
128 141 165
127 143 168
127 140 164
128 144 169
125 140 164
130 147 172
127 141 165
128 143 167
127 141 165
128 143 169
125 140 165
129 144 168
130 146 170
129 143 168
131 149 173
131 148 172
131 148 172
125 139 163
130 145 170
129 145 169
130 146 170
128 142 165
123 138 162
130 146 171
127 144 168
129 146 169
125 139 163
130 146 170
127 139 163
129 143 168
132 148 171
126 141 166
129 145 171
128 142 167
128 143 167
128 144 168
128 145 169
128 142 166
130 148 174
131 148 172
129 144 168
128 142 167
126 140 164
126 142 165
128 143 168
130 148 172
127 141 165
130 147 170
128 142 167
129 145 169
129 144 168
