P3
1600 1
255
121 140 164
121 140 165
118 138 162
124 143 167
117 137 162
121 142 168
120 139 163
119 138 162
123 142 166
124 143 167
122 140 163
120 139 163
127 146 170
126 145 170
123 143 169
124 144 169
121 139 165
124 142 165
122 141 166
127 145 169
128 148 173
122 142 165
118 138 163
123 142 166
123 143 169
122 142 166
123 143 168
123 142 168
126 145 169
124 143 167
124 141 164
123 142 167
121 142 168
132 151 176
130 149 174
124 141 165
129 147 172
130 150 175
124 143 167
129 147 172
119 138 161
128 147 171
126 146 171
127 146 171
130 148 171
123 142 167
126 145 169
126 145 171
123 143 168
123 143 167
128 147 171
126 145 170
129 147 170
133 152 175
125 144 168
128 148 173
124 143 166
126 144 168
127 146 170
129 149 174
127 145 168
127 147 172
132 149 172
128 148 173
130 148 173
131 150 174
127 145 169
124 142 167
128 147 172
127 146 170
126 146 170
126 145 170
131 151 176
128 147 172
127 146 171
128 146 170
129 146 169
128 147 171
130 149 173
127 147 172
126 145 169
131 150 175
133 151 175
127 145 169
132 151 175
129 149 174
131 151 176
131 150 174
130 148 173
128 146 170
132 151 174
129 148 172
127 146 171
133 152 177
132 150 175
129 147 171
128 148 173
128 146 170
135 154 178
128 147 172
129 148 172
133 152 176
133 152 177
129 147 171
131 150 174
131 150 174
131 149 173
132 150 175
133 152 177
133 152 177
132 151 175
133 153 177
133 152 177
130 148 173
129 147 172
132 152 176
133 152 177
131 150 175
133 151 176
130 148 172
131 149 173
131 149 174
130 149 174
133 151 175
132 149 173
132 151 175
129 148 172
129 147 170
130 148 173
127 145 169
130 150 174
132 150 174
135 154 177
130 148 172
130 149 174
132 150 176
132 151 175
131 150 175
133 151 176
133 152 177
132 151 176
131 149 174
127 144 167
134 152 176
131 149 173
133 152 176
133 151 175
132 150 175
130 148 172
133 151 175
131 150 174
131 148 172
133 152 176
135 153 178
134 150 173
134 153 177
131 150 174
131 149 174
132 149 173
134 153 177
131 150 174
133 152 176
133 151 176
133 152 177
129 147 172
135 154 178
134 153 177
133 150 174
134 152 177
135 154 178
135 153 177
134 152 175
133 151 176
133 152 176
131 150 175
131 149 174
133 151 175
132 150 173
132 151 176
131 149 173
131 149 173
135 154 178
129 146 170
133 151 175
134 152 175
132 150 175
128 146 169
131 149 174
133 151 176
131 149 173
133 151 176
133 151 175
131 149 173
132 150 174
131 150 174
132 151 175
132 150 173
131 150 173
134 152 177
130 148 172
136 154 178
134 152 177
131 149 174
133 152 176
132 151 176
134 152 177
134 153 178
133 152 177
133 152 176
133 151 176
134 153 177
133 152 176
134 153 177
134 153 178
132 150 173
132 152 177
132 150 173
132 150 174
134 152 176
132 150 174
133 152 176
131 149 174
132 150 173
131 149 173
132 151 175
133 152 176
135 154 179
131 150 174
133 151 175
133 152 176
135 153 176
132 150 175
134 153 177
132 150 175
133 150 173
133 150 174
133 152 176
135 153 177
133 151 176
133 151 175
135 152 176
133 152 175
133 150 174
132 150 173
135 153 177
132 150 174
128 147 171
136 155 179
132 150 174
134 152 175
134 152 176
135 153 177
130 148 171
131 149 173
133 151 176
133 150 174
132 151 175
134 152 176
131 149 173
133 151 174
135 154 178
134 153 179
133 150 174
134 153 178
132 150 174
133 151 175
133 152 176
131 150 174
135 152 176
130 148 171
133 150 173
133 151 176
134 152 176
135 153 176
131 150 174
136 155 179
134 152 176
134 153 178
129 147 170
135 154 179
133 151 175
130 149 175
131 150 175
135 152 175
134 152 175
133 151 176
132 150 175
133 152 176
135 153 177
135 153 176
131 148 171
133 152 176
131 149 174
134 151 175
133 151 175
131 150 175
131 148 172
133 151 175
132 151 176
135 154 179
132 150 174
132 150 173
130 148 172
132 151 175
131 148 172
135 154 178
134 152 175
130 149 175
130 147 170
133 151 176
132 150 174
134 152 176
132 150 174
133 150 173
135 153 178
134 153 178
135 154 179
129 147 171
133 151 175
133 150 174
131 150 175
134 153 178
135 153 177
131 148 171
133 151 175
135 153 178
131 149 172
135 153 176
132 149 173
135 154 178
129 146 169
129 147 170
132 149 173
133 150 173
133 151 174
131 149 172
127 143 166
132 151 175
134 152 177
131 150 175
133 151 175
133 149 173
134 151 174
134 150 173
130 147 170
131 150 174
131 149 174
127 144 167
134 152 176
132 149 173
133 150 174
134 151 174
130 147 170
133 151 174
130 147 170
134 152 176
133 150 173
133 150 174
132 149 172
129 146 169
133 151 176
125 142 165
133 151 174
130 148 172
131 147 169
129 146 170
134 152 177
129 146 169
131 149 173
132 148 171
129 146 170
133 151 176
131 147 170
130 147 170
130 146 169
134 152 176
130 148 172
129 146 170
127 144 167
130 148 171
131 148 171
133 151 175
134 152 176
132 150 175
130 146 169
131 148 171
131 147 170
129 146 170
127 143 165
125 142 165
133 150 174
129 146 169
132 149 173
129 145 168
132 149 173
128 144 166
129 146 168
131 147 170
133 150 173
129 146 169
129 146 168
129 146 170
131 147 170
131 148 170
130 146 170
127 143 166
129 145 167
129 146 169
128 144 166
131 148 172
127 142 165
130 147 171
131 147 170
127 145 168
130 147 171
128 143 166
128 144 166
129 144 167
123 137 157
129 146 169
126 142 165
128 146 170
130 147 171
129 146 169
128 144 166
123 139 161
129 146 169
129 145 167
128 146 169
127 144 168
128 145 168
130 147 171
130 148 172
128 145 168
127 145 167
125 141 164
126 143 167
132 149 172
127 144 167
116 130 156
111 123 149
108 121 148
104 117 145
95 107 143
83 92 127
84 95 135
74 83 129
45 51 107
30 33 104
38 43 102
10 11 104
10 10 101
10 10 101
10 11 104
9 10 97
10 10 99
10 10 100
10 10 98
10 10 98
10 11 103
10 10 101
10 10 100
10 10 99
10 11 103
10 10 97
10 10 99
10 10 99
10 11 104
11 11 104
10 11 103
10 10 100
10 11 103
10 10 101
10 11 104
10 11 102
10 10 99
10 10 102
10 11 103
10 10 102
10 10 101
11 11 105
10 10 101
10 10 102
10 10 102
10 10 98
10 10 99
10 10 98
11 11 104
10 10 101
10 11 101
10 11 104
10 10 100
11 11 105
11 11 105
10 10 100
10 11 104
10 10 100
10 10 99
10 10 100
10 11 104
10 10 101
10 11 102
10 11 105
10 10 101
10 11 103
11 11 105
11 11 105
10 11 104
11 11 104
10 11 103
10 10 101
10 11 104
10 10 101
10 11 103
10 11 103
10 11 104
10 10 99
10 10 100
10 11 104
10 10 101
10 10 99
10 11 105
10 11 102
10 10 97
11 11 107
10 10 101
10 11 104
10 11 103
10 10 102
10 11 103
10 11 103
10 10 100
11 11 105
10 11 103
10 11 103
10 11 103
10 10 102
10 11 103
10 11 104
10 10 100
10 10 98
10 10 102
10 11 103
10 10 101
10 10 99
10 11 102
11 11 106
10 10 99
10 10 102
10 11 103
10 11 104
10 11 103
10 10 99
10 11 102
10 11 103
10 10 101
10 10 99
10 10 96
10 11 103
10 10 99
10 11 102
10 10 98
10 11 102
10 10 100
10 11 104
10 10 99
10 10 96
10 10 99
10 11 103
11 11 105
10 10 102
10 11 103
10 11 103
10 11 103
10 10 97
10 11 102
10 10 102
10 11 104
10 10 100
10 10 101
9 10 95
10 10 101
10 10 98
10 10 99
10 10 99
10 10 99
9 10 94
9 10 96
10 10 101
10 10 98
9 10 94
37 42 105
41 46 107
63 71 115
75 85 127
80 91 130
89 100 135
91 104 136
103 118 148
116 132 160
119 136 162
121 139 166
122 137 160
126 142 165
122 137 161
123 139 163
121 138 161
129 147 171
125 141 165
125 143 167
127 145 169
124 142 165
124 141 164
126 144 167
125 142 166
124 141 165
122 139 162
127 145 168
126 144 168
125 142 167
125 143 167
120 138 163
128 144 167
123 141 166
121 138 162
127 145 168
126 143 167
126 143 166
119 136 160
124 141 164
123 140 164
125 142 167
120 136 159
120 137 162
127 144 169
123 139 164
122 140 165
124 142 167
122 138 160
127 145 170
125 143 167
124 141 166
121 139 163
124 142 165
122 140 164
123 140 163
124 140 164
124 141 165
126 142 166
121 137 160
122 139 163
119 136 161
123 139 164
119 137 162
119 136 160
124 142 166
124 141 164
120 138 162
123 140 164
124 141 165
122 139 162
124 141 164
117 133 159
125 142 167
121 137 161
121 138 161
116 134 158
126 144 169
120 136 160
114 131 155
115 131 155
114 131 156
120 137 161
122 138 162
119 135 157
118 134 159
121 138 161
119 136 161
116 134 159
119 136 159
124 141 164
118 134 158
116 132 155
115 130 154
120 135 160
121 138 162
119 137 161
113 129 152
120 138 161
119 136 160
118 136 161
117 133 156
117 133 157
116 133 158
111 126 151
115 132 156
113 128 152
114 129 154
114 131 156
119 136 161
120 135 158
113 129 155
118 134 157
112 128 151
117 133 157
117 133 157
109 125 148
119 133 156
116 132 155
113 130 154
108 121 144
108 124 148
113 129 153
114 129 154
111 126 150
120 135 158
109 125 149
116 133 157
114 130 154
113 128 152
112 127 150
112 128 150
111 126 150
104 119 143
107 120 142
105 120 145
111 126 151
104 119 144
108 124 148
110 126 150
106 120 142
108 123 147
104 119 144
110 124 145
105 120 144
110 123 146
112 126 149
109 122 144
102 116 138
102 116 139
111 123 143
112 128 152
107 120 142
115 130 153
114 127 148
111 125 148
108 122 143
107 121 144
109 123 147
108 124 147
115 132 155
106 120 141
108 121 144
109 125 149
113 127 149
105 119 141
107 120 143
104 118 139
110 122 145
109 123 145
102 116 137
106 121 143
108 123 145
112 127 149
110 124 148
97 111 136
108 121 144
105 117 137
114 128 150
107 119 140
115 128 149
109 123 143
112 127 149
109 121 141
113 127 150
109 123 145
115 130 153
105 118 139
105 117 139
114 129 151
110 122 142
110 125 148
114 127 148
120 134 155
115 130 151
113 128 151
106 118 139
117 127 147
112 115 132
117 120 136
115 113 129
113 114 127
117 117 129
118 108 117
117 106 113
113 104 112
121 109 115
125 108 112
123 108 112
118 110 115
126 116 122
120 109 113
118 109 113
116 107 111
125 116 122
119 110 115
121 113 118
125 118 123
124 115 119
125 116 120
124 115 119
129 120 124
122 112 116
120 112 117
123 113 118
124 113 117
124 115 119
125 116 121
122 113 118
125 116 122
127 117 122
129 119 123
123 114 118
122 112 117
130 120 125
124 115 119
122 113 117
128 119 123
125 116 120
128 118 121
125 115 120
123 113 117
127 117 122
125 115 119
128 119 123
126 118 122
126 117 122
130 120 124
127 118 121
125 113 116
127 118 122
124 114 119
131 119 123
128 118 123
128 119 123
125 114 119
126 116 121
128 118 122
128 120 124
126 116 120
126 117 121
130 120 125
124 115 118
126 116 120
127 116 119
131 121 126
126 116 120
126 117 122
124 111 113
122 113 118
126 117 122
125 115 120
129 121 126
126 116 121
127 116 119
126 116 120
128 118 122
122 113 118
129 118 122
128 118 121
121 110 113
129 121 126
125 116 121
127 119 124
127 118 122
130 118 121
123 114 117
124 114 117
124 114 117
124 113 116
121 111 114
125 115 118
125 115 120
128 119 123
127 118 122
124 116 121
123 113 117
121 108 111
122 109 112
125 113 118
126 118 125
127 117 124
123 115 122
126 122 131
123 119 130
125 122 132
123 122 138
130 134 152
125 135 154
124 137 157
123 134 154
128 144 165
126 138 157
127 144 166
129 147 169
126 141 161
128 145 169
125 141 162
125 141 163
120 134 154
127 143 166
127 143 164
125 141 161
127 142 165
128 144 166
122 138 159
126 142 165
129 142 162
123 137 157
126 142 162
125 141 160
129 143 163
128 143 165
131 148 172
131 146 169
125 139 158
129 144 165
126 142 165
129 145 167
132 147 169
131 146 167
125 139 160
128 144 166
127 144 166
127 143 164
126 141 163
128 145 166
131 147 168
128 144 164
127 143 165
125 140 160
125 140 161
127 142 163
129 146 169
130 146 168
126 141 162
129 145 165
130 146 168
128 145 168
130 147 169
129 146 169
127 143 165
132 149 171
127 144 167
132 147 169
128 144 166
129 147 169
128 145 168
129 145 166
128 144 167
131 148 170
132 149 172
130 146 167
128 144 166
131 148 170
128 145 165
129 146 170
128 144 165
126 141 162
130 147 171
129 146 168
131 148 171
129 145 168
130 145 168
131 147 169
131 148 172
128 144 166
128 145 168
131 148 170
130 148 172
128 144 165
130 147 170
127 143 166
133 151 175
131 148 171
128 144 167
131 149 173
129 146 168
126 143 165
128 145 167
133 150 172
128 145 166
129 146 169
125 142 163
132 149 171
131 150 175
130 148 171
128 145 168
133 151 174
129 146 169
127 143 166
126 143 164
131 148 171
129 146 167
130 148 171
128 146 169
131 148 171
130 148 172
129 146 169
131 148 171
133 151 176
129 146 168
132 149 172
131 148 171
128 145 168
129 146 168
130 148 172
129 146 168
129 147 170
131 150 173
130 147 171
130 149 173
133 151 174
126 143 165
128 145 167
131 149 171
130 146 169
129 147 170
132 148 170
130 147 170
132 149 173
130 148 172
131 149 172
127 145 168
133 150 172
129 146 169
133 151 174
126 143 165
132 149 170
130 147 170
132 151 174
132 149 172
129 147 168
129 147 171
131 149 173
133 149 171
132 149 172
132 149 172
130 146 168
131 148 172
128 146 168
136 153 177
132 148 170
128 143 165
132 150 172
132 149 172
129 147 170
129 146 170
131 149 171
131 147 170
132 149 171
132 150 174
130 148 170
134 150 173
132 151 175
131 148 170
132 150 173
132 149 173
133 150 173
132 151 173
130 148 172
127 142 164
129 146 169
132 150 173
131 149 172
130 148 172
132 149 172
129 144 166
132 149 172
133 151 176
132 150 173
130 148 172
131 149 172
132 151 175
130 148 171
132 150 173
130 148 171
131 149 173
131 148 171
129 147 170
128 144 166
133 150 173
130 148 172
130 148 171
132 149 170
132 150 172
130 148 171
130 147 170
132 149 172
132 150 173
128 145 168
131 148 171
131 149 172
132 150 172
130 147 169
131 149 172
128 146 168
127 144 166
131 147 170
129 146 170
130 147 170
133 151 174
130 148 171
129 148 169
128 146 170
130 148 172
125 142 164
128 146 168
129 146 169
130 147 170
127 144 167
130 149 173
130 147 170
129 147 170
133 150 173
130 147 170
128 146 168
130 148 171
130 146 168
130 147 170
129 147 170
129 145 167
130 148 170
127 143 165
128 146 168
129 146 168
128 146 169
129 146 170
129 146 169
129 147 170
129 145 167
127 142 164
124 138 162
118 128 152
121 131 153
114 121 144
116 122 146
117 127 150
109 108 131
108 108 132
103 95 121
104 98 122
101 85 112
100 88 114
92 71 100
93 72 101
89 63 93
87 60 90
89 60 91
89 60 91
91 62 94
91 61 92
90 61 92
90 61 92
90 61 92
90 61 93
87 59 89
90 61 92
89 60 90
91 62 93
91 61 92
90 61 92
88 60 91
88 60 89
87 59 89
87 59 88
90 61 92
90 61 92
91 61 92
90 61 92
90 61 92
88 60 92
90 61 92
92 62 94
88 60 91
90 61 93
89 61 90
89 60 91
91 61 92
92 62 93
91 62 93
91 62 93
90 61 92
91 62 94
90 61 92
87 60 89
89 60 91
92 62 94
89 61 91
89 61 91
88 61 91
93 63 95
91 62 93
88 60 90
90 61 92
89 61 91
93 63 94
89 61 92
91 62 92
88 60 91
88 60 92
91 62 92
91 61 93
90 61 92
91 62 95
90 61 93
90 62 93
91 62 94
88 61 92
90 61 93
90 62 93
90 61 91
91 62 93
90 62 94
91 62 94
92 62 93
92 62 93
89 61 93
90 62 92
89 61 92
88 60 89
90 62 93
90 61 93
92 62 94
91 62 94
91 62 94
91 62 94
92 63 95
91 62 94
89 61 93
91 62 93
92 62 95
89 61 93
90 62 94
92 63 95
90 61 94
91 62 94
90 61 93
91 62 95
88 60 91
91 62 94
91 62 93
90 62 93
90 61 92
91 62 94
90 61 91
91 62 93
90 61 93
90 61 93
89 60 92
92 62 95
90 61 92
89 61 92
90 61 93
90 61 93
90 61 92
92 62 94
90 62 93
87 60 90
91 61 93
88 60 91
87 60 90
87 60 91
82 57 86
79 55 82
81 56 85
75 53 80
73 52 78
68 50 74
65 48 71
60 46 67
56 44 65
42 37 53
39 37 52
39 36 52
25 31 42
28 31 43
25 31 43
17 30 40
4 28 36
4 28 37
4 29 37
4 28 36
4 27 35
4 28 36
4 27 35
4 27 35
4 28 37
4 29 38
4 28 36
4 29 37
4 28 37
4 29 38
4 28 36
4 28 36
4 26 34
4 27 35
4 28 37
4 28 36
4 29 38
4 28 37
4 28 37
4 28 37
4 28 36
4 27 36
4 29 37
4 27 36
3 25 32
4 27 36
4 26 34
4 27 36
4 27 36
4 27 35
4 26 35
4 27 35
4 25 34
4 27 35
4 26 34
4 26 34
4 24 32
4 28 37
4 25 33
4 24 31
4 24 32
4 25 33
3 23 31
4 24 33
4 23 31
4 25 34
3 23 30
3 21 29
3 23 30
4 22 30
4 22 31
3 18 25
34 21 37
49 20 44
71 24 58
72 24 60
88 26 69
91 25 70
107 29 83
108 29 83
115 30 88
133 34 101
126 32 95
142 36 107
136 34 103
142 36 107
143 36 108
143 36 107
134 34 101
143 36 107
140 35 106
142 36 107
142 36 107
141 36 108
143 36 109
145 36 108
144 36 108
141 35 104
144 36 109
147 37 111
153 39 115
147 37 111
155 40 118
142 36 108
140 36 107
149 38 113
148 37 111
141 35 105
139 35 103
151 38 114
148 38 111
152 38 113
148 37 111
150 38 113
148 38 112
138 35 105
146 37 110
147 37 111
146 38 112
152 39 115
153 39 115
148 37 111
148 37 111
149 38 111
145 37 108
152 39 115
154 39 116
145 38 112
157 40 118
150 38 113
149 38 112
155 40 118
155 39 116
149 38 113
147 38 111
153 39 115
148 38 111
142 36 107
150 39 115
151 39 114
153 39 116
154 40 118
150 38 114
141 37 106
144 37 110
150 39 114
146 37 111
144 37 111
157 40 119
151 39 115
157 40 119
149 38 112
145 37 112
157 40 118
141 37 107
148 39 113
154 39 116
155 40 117
160 41 120
152 38 114
154 39 117
146 38 112
150 39 114
148 39 112
146 38 112
149 39 114
155 40 116
154 39 115
147 38 112
151 39 115
153 39 114
152 39 116
153 39 116
149 38 111
152 39 114
150 38 113
149 38 113
152 40 116
158 41 120
155 40 118
156 40 118
150 39 114
152 39 115
152 39 116
158 40 118
149 39 115
147 38 113
151 39 115
148 38 113
153 39 115
150 39 116
152 39 116
146 38 112
149 39 115
153 40 117
146 39 113
152 40 115
149 39 114
157 41 118
148 39 114
158 41 120
141 37 109
152 40 117
154 40 116
145 38 111
138 36 106
150 39 114
149 39 114
151 39 115
148 39 114
146 38 111
153 40 116
148 39 113
140 37 108
151 40 117
144 37 109
145 38 111
141 40 108
147 68 124
146 65 122
140 85 131
143 92 135
140 105 142
134 114 146
133 110 143
131 125 155
134 137 163
129 141 165
129 144 167
131 149 172
129 146 171
128 141 164
131 148 174
130 146 171
128 141 166
126 141 164
129 145 168
126 141 163
128 144 167
129 145 170
129 146 169
128 143 168
128 142 166
127 142 166
129 145 170
127 143 166
130 147 171
131 147 171
131 147 173
129 145 170
130 147 172
128 142 167
130 146 170
129 145 170
128 142 166
128 142 166
129 145 170
131 147 172
128 144 167
128 145 168
129 146 169
129 145 168
130 145 170
131 149 173
129 145 170
129 144 169
129 145 168
129 147 171
133 149 173
130 145 169
132 148 173
130 146 170
133 147 172
131 148 171
129 146 170
130 144 168
126 141 165
132 148 173
131 147 171
132 148 172
130 146 171
133 149 173
132 148 173
130 146 170
131 149 173
129 145 169
130 146 170
131 147 171
126 142 165
130 149 173
131 148 172
129 144 169
129 143 167
133 150 174
133 152 175
133 148 172
131 146 171
132 148 172
132 149 172
127 142 166
129 147 172
126 142 165
130 146 170
130 144 170
130 148 172
131 148 174
133 149 174
130 147 170
133 149 174
132 147 171
125 142 163
130 145 170
129 145 168
130 145 168
124 140 162
126 141 165
129 143 167
131 148 172
130 146 170
130 144 167
131 147 172
134 149 173
129 143 167
131 148 172
129 145 170
129 144 168
130 145 169
