P3
1600 1
255
125 143 168
123 143 169
120 140 163
125 144 169
123 141 165
125 145 170
120 140 166
128 146 170
115 134 158
128 146 170
122 140 164
124 143 168
123 142 167
132 150 174
125 144 169
125 146 172
128 147 172
122 142 166
128 147 172
118 138 163
129 148 173
132 151 175
124 142 166
123 142 166
124 142 166
131 151 176
125 143 168
126 145 170
122 143 168
131 150 175
122 141 165
127 145 168
127 145 169
126 144 169
129 149 174
131 149 173
128 147 171
131 149 173
127 147 172
129 148 172
129 149 174
129 148 173
124 143 167
123 142 167
126 145 170
131 149 173
130 148 172
126 146 171
126 145 169
129 147 172
125 144 170
127 147 172
129 148 173
129 148 172
130 148 172
132 150 174
127 146 170
127 147 172
127 146 171
128 147 172
129 146 170
128 147 171
129 147 171
126 146 171
132 150 173
130 149 174
129 148 172
129 147 171
127 146 170
127 147 172
129 147 172
130 149 173
126 145 170
131 150 175
130 149 174
128 147 172
127 146 170
131 149 174
126 144 168
130 148 172
129 147 172
130 148 173
127 146 170
130 149 175
132 151 175
131 148 171
131 150 174
130 149 174
133 152 177
132 151 176
130 149 174
132 150 174
128 147 172
133 151 176
130 148 173
133 152 177
133 152 176
129 147 171
131 150 175
129 148 173
131 149 174
135 153 178
128 147 172
130 149 173
136 154 178
131 150 175
131 150 174
133 151 176
134 152 176
131 150 174
132 151 176
134 153 178
132 151 176
132 151 176
132 151 175
134 152 177
132 151 175
133 151 174
132 152 177
132 151 176
133 152 176
133 151 175
130 149 173
133 152 176
131 149 174
131 150 174
133 151 175
133 151 175
132 151 175
131 150 174
131 148 172
131 150 173
128 146 171
131 150 174
132 151 175
135 153 176
130 149 173
131 150 174
133 151 176
132 151 175
130 149 174
131 150 174
134 153 177
132 151 176
131 150 174
127 143 166
134 151 175
133 152 176
131 150 173
133 152 176
132 151 176
133 152 176
132 150 175
131 150 175
132 149 173
130 148 172
133 151 175
134 152 175
135 152 175
133 153 178
129 148 172
134 151 174
132 150 175
133 152 177
133 151 176
132 151 176
133 152 176
132 150 174
135 153 177
134 152 177
135 153 176
133 152 176
134 152 176
135 154 178
134 151 175
134 153 177
133 151 176
131 149 173
132 151 175
133 152 176
133 151 175
130 148 173
130 150 174
133 151 175
133 152 176
134 151 174
132 150 174
134 152 175
133 151 175
128 146 169
134 152 177
133 152 176
132 150 174
129 147 171
132 151 175
134 151 175
133 151 176
130 148 173
132 151 176
131 150 174
134 152 175
128 148 173
132 151 176
131 149 173
136 154 178
134 153 178
131 149 174
133 151 175
133 151 175
135 154 179
132 151 176
134 153 177
132 149 173
136 154 179
133 152 176
133 152 176
134 153 178
132 151 175
130 148 173
132 150 174
132 149 172
132 150 174
136 154 178
134 151 175
134 152 176
131 149 173
133 150 174
135 154 178
132 151 175
133 152 176
132 151 176
132 150 174
131 148 172
134 152 175
133 151 175
134 153 177
135 153 178
131 149 173
130 147 171
134 152 176
134 152 177
134 153 177
134 152 176
135 153 177
133 151 176
133 151 175
130 147 169
136 154 178
133 151 175
131 149 173
132 150 174
134 153 177
134 152 175
134 151 175
133 151 174
134 152 177
132 149 172
132 150 175
132 150 174
134 152 177
134 151 175
132 149 173
135 153 177
133 152 176
135 153 178
132 151 176
135 154 178
134 152 176
130 149 173
133 151 175
133 152 177
132 150 174
132 150 174
134 152 175
129 147 171
135 152 176
134 152 175
133 151 175
133 152 177
135 153 177
134 153 177
132 149 172
135 153 177
133 150 175
134 153 178
129 147 172
132 150 174
134 151 175
134 151 176
132 150 175
130 149 174
134 152 176
135 152 176
134 151 175
133 151 175
130 148 172
132 148 171
134 152 176
132 151 176
132 150 174
134 151 175
133 152 177
133 152 177
132 150 174
132 150 174
132 150 174
131 148 170
133 150 175
132 151 175
134 152 177
132 151 176
132 150 174
129 147 172
134 152 177
132 150 174
130 148 172
133 150 174
134 153 178
132 152 177
134 154 178
132 150 174
133 150 173
129 147 171
132 150 175
134 153 178
136 154 177
134 151 174
134 152 176
134 151 176
131 149 172
134 151 175
132 149 173
135 153 178
131 149 172
130 149 172
129 146 169
134 152 175
133 151 174
132 150 174
128 144 167
132 150 174
135 154 178
132 150 175
132 151 176
135 153 177
135 152 175
134 151 175
133 151 174
132 150 173
132 150 174
131 150 174
132 150 173
134 150 173
133 150 174
134 151 174
134 151 174
131 149 173
129 147 170
133 150 174
132 149 172
133 151 175
133 151 174
131 146 168
132 149 173
132 149 173
130 147 172
131 147 171
134 151 176
129 145 168
131 149 173
131 148 171
132 149 172
131 148 173
131 147 170
132 150 174
133 151 175
127 143 166
131 149 173
133 151 175
130 148 172
132 150 173
129 145 169
129 146 170
132 150 174
132 148 171
133 151 175
133 151 176
132 150 174
133 150 174
132 148 172
128 144 167
130 146 170
131 148 171
127 144 167
131 147 170
129 146 169
132 150 173
131 147 170
132 149 173
128 144 167
129 146 170
130 147 169
134 150 174
130 147 171
128 146 169
130 146 170
132 148 170
131 147 171
131 148 172
128 144 168
128 145 168
129 146 170
129 146 168
132 150 174
127 143 167
131 149 173
132 149 172
130 147 171
127 144 167
131 147 170
130 146 168
132 149 173
128 142 164
129 146 168
130 146 169
126 143 166
130 148 172
127 145 170
128 145 167
126 142 166
128 145 168
131 148 172
129 146 170
129 146 169
129 146 168
130 147 170
127 144 167
128 145 169
129 147 172
126 143 167
120 137 164
110 125 152
109 124 154
95 107 142
79 88 125
75 84 124
74 84 124
51 57 108
46 52 111
35 39 104
16 18 102
10 10 96
10 10 98
10 10 97
10 11 102
10 10 102
10 10 101
10 10 100
10 10 97
10 10 98
10 10 96
10 10 98
10 10 98
10 10 101
10 10 99
10 10 101
10 10 98
10 11 102
10 10 96
10 10 100
10 10 98
10 10 102
10 10 100
10 10 101
10 10 101
10 10 103
10 10 98
10 10 103
10 11 102
10 10 99
10 10 99
10 11 103
10 10 102
10 11 103
10 10 100
10 11 103
10 10 100
10 10 95
10 10 96
10 10 101
10 11 102
10 11 103
10 10 98
11 11 105
10 10 102
10 10 100
10 11 103
10 11 105
10 10 102
10 10 100
9 10 95
10 10 101
10 11 103
10 11 103
10 10 99
10 11 103
10 10 98
10 11 105
10 10 101
10 10 101
10 10 101
10 10 101
10 10 98
10 11 102
10 11 103
10 10 101
10 10 101
10 10 101
10 11 103
10 10 99
10 10 97
10 11 102
10 10 98
10 10 98
10 11 104
10 10 101
10 10 99
10 11 105
10 11 103
10 10 102
10 11 104
10 11 103
10 10 101
10 11 101
10 10 100
10 11 103
10 10 97
11 11 105
10 10 99
10 10 101
10 10 102
10 10 100
10 10 98
10 11 103
10 10 102
10 10 102
10 10 99
10 10 99
10 11 102
10 10 101
10 10 98
10 11 104
10 10 103
10 10 99
10 10 100
10 11 103
10 10 100
10 10 101
10 10 99
10 10 95
10 10 100
10 10 98
10 10 100
10 10 101
10 10 100
10 11 103
10 10 101
9 10 95
10 10 98
9 10 96
10 10 99
10 11 102
10 10 97
9 10 96
10 11 102
10 10 100
10 10 96
10 10 98
10 10 99
10 11 102
10 10 98
10 10 102
10 10 97
10 10 99
9 9 93
9 10 95
10 10 97
9 10 93
9 10 94
10 10 100
19 19 97
35 39 104
64 72 116
62 70 115
81 92 130
79 90 131
98 111 145
96 111 143
106 119 146
121 139 165
122 139 166
124 140 165
127 144 169
126 144 167
124 141 166
127 143 166
126 142 166
123 140 165
125 142 165
128 147 170
124 140 164
129 147 172
126 144 168
127 144 168
124 140 164
124 140 163
128 145 168
123 141 166
121 139 164
126 144 168
126 144 168
127 145 170
125 143 167
129 147 172
124 140 164
125 143 168
126 144 168
125 142 165
127 144 168
128 144 167
120 137 161
127 144 167
121 138 163
129 146 170
126 142 164
124 139 163
122 139 163
128 146 171
122 140 165
126 144 169
122 139 162
122 139 164
126 144 169
128 145 170
119 137 161
120 136 160
123 140 164
122 139 163
125 141 164
124 141 166
124 140 164
125 142 164
124 142 166
120 137 163
120 136 161
122 139 163
123 140 165
125 144 166
124 141 165
123 141 163
123 140 164
121 138 162
123 140 164
125 141 163
124 141 166
118 134 158
121 139 163
126 144 168
122 139 164
122 140 166
128 144 168
115 132 156
117 133 158
118 136 161
120 137 161
122 138 161
123 138 163
116 134 157
124 140 165
120 137 161
123 141 165
121 139 164
121 137 161
123 141 164
119 135 158
120 136 160
123 139 163
121 135 159
123 140 164
120 137 162
115 131 156
121 137 159
120 136 160
124 142 168
119 136 160
120 136 160
123 140 163
118 135 159
120 138 162
119 133 154
116 132 156
121 138 163
121 138 162
121 138 163
119 135 159
119 134 157
117 133 157
112 128 151
114 129 152
125 141 164
119 135 158
116 131 155
120 137 161
116 131 155
115 131 154
120 136 161
114 131 155
112 129 155
117 133 157
116 129 151
118 134 158
114 130 154
116 132 156
116 131 156
120 136 160
117 133 156
121 137 160
113 128 152
112 128 152
112 127 149
115 131 155
115 130 153
117 134 157
111 125 149
118 135 159
116 132 155
115 128 149
119 134 157
112 128 152
104 119 141
112 128 152
117 131 153
114 129 151
110 124 147
114 129 151
109 123 147
116 128 148
114 128 149
120 137 161
113 127 150
118 134 158
109 124 146
115 129 151
113 129 152
119 134 157
112 128 152
113 126 147
116 130 152
112 125 146
112 124 146
115 129 153
115 128 149
111 124 146
113 127 149
109 122 144
107 121 144
111 123 144
110 124 145
114 130 153
120 137 161
113 127 150
112 126 148
114 126 147
109 123 142
116 128 149
121 135 158
114 129 151
119 132 154
113 126 149
110 124 146
116 128 148
116 130 152
109 122 143
112 125 144
108 122 144
108 122 143
109 124 145
109 122 143
110 118 138
117 127 145
106 115 133
115 125 144
114 111 128
113 119 135
115 110 122
112 107 119
118 112 123
113 103 113
117 113 121
116 104 111
120 108 113
121 107 110
115 100 102
115 101 104
125 110 112
116 105 110
119 108 112
118 106 109
118 107 111
117 107 111
121 109 112
117 107 111
118 109 114
122 111 115
123 112 116
123 113 117
125 114 118
123 112 116
115 104 108
118 109 114
125 113 117
123 112 116
121 109 112
121 111 115
123 113 117
124 114 118
126 114 117
124 112 115
124 113 116
130 120 125
127 115 118
123 112 115
121 111 115
126 114 118
123 112 116
120 110 113
124 113 116
120 109 112
125 114 117
125 112 114
127 117 121
128 117 121
124 114 118
119 108 110
125 113 117
120 108 113
121 110 113
125 114 118
129 120 124
122 111 114
127 117 120
125 114 118
126 115 119
121 110 113
127 118 122
125 114 118
127 116 120
121 109 113
126 116 120
124 113 116
123 112 114
124 111 114
125 113 116
119 109 112
120 110 113
125 115 119
122 110 114
123 111 113
122 112 114
123 112 115
126 114 117
119 108 111
122 111 114
123 111 113
123 112 116
125 114 118
125 114 117
124 111 114
122 112 114
122 109 112
122 111 113
120 107 109
119 107 108
123 107 108
127 113 117
128 116 120
119 105 107
120 113 120
118 113 121
122 118 128
120 115 126
119 118 129
126 124 137
124 128 143
126 135 152
125 135 153
125 138 158
126 138 158
126 140 161
122 136 158
126 142 164
129 143 164
130 146 169
124 138 158
127 140 161
126 138 157
127 143 164
123 138 157
126 141 162
127 141 162
126 142 163
124 138 159
127 141 162
129 144 165
126 141 161
129 144 167
127 142 162
126 143 166
121 137 158
125 138 158
124 138 159
126 139 159
124 140 163
127 142 162
130 146 170
130 146 168
131 146 168
124 138 158
123 137 156
127 143 165
128 144 166
128 143 165
125 140 162
128 143 164
128 144 165
124 138 159
128 145 167
125 140 160
129 145 167
127 142 162
130 144 167
124 139 159
126 140 161
125 140 161
127 142 164
128 146 169
131 147 171
128 143 165
125 140 163
131 147 170
127 143 165
128 145 168
128 144 167
131 147 168
130 146 169
128 145 167
128 145 169
131 148 169
132 149 172
129 145 167
130 146 168
131 148 171
128 145 166
131 147 169
130 147 168
130 147 168
128 145 165
130 147 169
128 144 166
131 147 168
128 144 166
128 144 167
130 147 169
130 147 169
128 144 166
129 145 166
131 148 170
130 146 168
129 147 171
130 148 171
131 148 169
129 146 168
131 148 169
129 147 170
132 150 174
132 150 173
131 147 170
131 148 172
129 147 170
129 147 169
129 146 169
130 146 167
128 146 167
131 148 170
127 143 165
128 146 168
133 151 173
128 145 167
130 146 169
132 149 171
131 148 172
135 151 174
128 145 167
130 148 171
133 151 174
128 144 163
128 146 170
127 144 167
132 149 172
131 149 172
128 144 166
133 152 175
131 149 172
129 146 167
130 148 170
129 146 169
132 148 171
128 145 167
129 145 167
128 145 169
130 148 172
129 146 170
132 150 173
132 148 171
128 145 168
128 146 168
132 149 172
132 149 172
130 146 168
132 149 171
130 147 170
132 148 170
133 151 174
129 147 171
131 150 173
126 143 165
132 149 171
131 149 171
132 150 173
130 146 168
131 148 169
133 150 174
128 146 169
132 149 171
130 147 170
132 151 173
131 148 172
132 149 172
132 150 174
130 146 169
131 149 172
131 149 173
130 148 171
135 152 174
130 146 169
133 150 172
132 150 173
129 147 169
130 148 171
131 148 171
132 150 172
132 149 172
133 151 174
130 147 169
132 149 171
135 153 176
131 148 171
131 148 171
130 148 171
135 153 177
133 152 175
133 151 174
129 146 169
127 143 165
131 149 173
132 150 173
132 150 174
130 149 174
132 149 172
126 143 166
131 149 170
131 150 173
132 150 174
129 147 170
133 152 176
131 149 174
132 151 175
133 152 175
130 148 171
130 147 171
132 150 173
130 147 170
130 147 168
134 152 176
130 147 171
134 151 174
132 150 172
132 149 172
130 147 169
133 151 174
132 149 172
129 147 170
130 147 170
131 148 172
133 150 173
129 146 169
132 149 172
131 150 173
129 146 169
128 145 167
130 147 171
132 149 172
130 147 171
132 149 172
131 149 173
128 146 168
129 146 171
127 145 168
124 140 162
130 148 171
129 148 171
122 139 161
131 149 172
130 147 170
130 148 171
130 147 171
130 147 169
129 146 169
130 147 170
128 145 167
131 147 169
131 148 172
129 147 171
131 148 171
129 146 170
131 148 171
131 148 169
129 146 170
127 143 166
124 139 163
119 131 153
127 141 165
119 127 149
119 127 150
114 118 140
110 110 134
104 101 123
97 92 118
101 89 115
101 91 117
96 84 109
95 79 106
92 68 97
89 62 92
90 60 90
90 61 92
88 59 90
90 61 92
85 58 87
90 61 92
90 60 91
89 60 92
90 61 92
91 61 93
86 58 88
89 60 90
90 61 92
90 60 91
89 60 91
87 59 90
91 61 92
88 60 89
90 61 91
89 61 91
87 59 89
88 59 88
87 59 88
89 61 91
90 61 92
90 62 92
90 61 92
90 61 91
88 60 91
90 61 92
90 61 92
88 60 90
87 59 89
87 59 88
89 60 90
91 61 92
89 60 90
89 59 89
91 62 93
86 59 89
91 62 93
88 60 90
90 61 93
92 62 94
89 60 90
87 59 89
89 61 92
89 60 91
90 61 91
86 59 88
89 61 91
87 60 90
90 61 92
89 61 92
91 62 93
88 60 91
87 59 90
89 61 91
89 60 91
90 61 92
91 62 94
89 61 93
91 62 94
90 62 94
88 60 91
91 62 93
89 61 92
91 61 92
87 60 90
93 63 95
90 62 93
88 60 90
89 61 92
91 62 93
89 61 92
86 59 88
87 60 89
92 62 94
91 61 93
90 61 92
90 61 93
92 62 95
92 62 94
91 62 93
87 60 91
92 62 94
91 63 94
90 61 93
91 61 93
92 62 95
91 62 93
88 60 92
89 61 92
91 62 94
88 60 91
90 61 92
91 62 94
91 62 94
90 61 91
91 61 93
86 60 89
91 62 93
87 60 91
89 61 91
86 59 90
91 62 94
88 60 91
90 61 92
88 60 92
88 60 91
89 60 91
90 61 92
89 61 92
88 60 90
91 62 93
90 62 94
91 61 94
88 60 92
91 61 93
89 61 92
87 59 90
87 59 90
83 58 86
77 54 80
76 54 81
78 54 82
72 51 77
66 47 71
61 45 67
59 44 66
50 40 58
44 38 54
43 37 53
40 36 52
31 34 47
35 33 47
18 29 40
7 28 37
8 27 35
4 27 35
4 27 35
4 27 35
4 26 34
3 24 32
4 28 37
4 28 36
4 25 33
4 28 37
4 28 37
4 28 36
4 27 35
4 28 37
4 25 32
4 27 35
4 26 34
4 28 36
4 27 35
4 28 36
4 27 35
4 28 36
4 26 34
4 27 36
4 26 35
4 26 33
4 25 33
4 26 35
4 28 37
4 26 35
4 26 34
4 26 34
4 24 33
4 27 35
4 26 33
4 25 33
4 24 32
4 24 33
3 21 29
4 25 33
3 24 32
3 24 32
4 24 33
3 23 31
4 26 34
3 24 32
4 23 31
3 23 31
3 24 32
3 21 29
3 19 26
3 17 24
3 19 26
3 19 26
13 21 30
46 22 44
45 19 40
63 22 52
82 24 65
89 26 70
107 29 82
99 27 76
122 31 92
120 31 92
115 29 88
133 33 100
140 35 105
127 32 97
136 34 103
135 34 100
135 34 101
135 34 103
140 35 105
133 34 99
136 34 102
143 36 108
148 37 111
146 36 107
139 35 106
142 36 107
149 38 113
148 37 111
146 37 109
149 38 112
142 36 107
145 36 109
144 36 108
139 35 106
149 38 112
146 37 111
146 37 110
139 36 107
137 35 104
151 38 113
142 36 108
143 37 110
148 38 112
143 37 108
148 38 112
135 34 102
147 37 110
133 34 101
148 38 111
144 37 110
144 37 110
155 39 117
151 39 114
152 39 114
154 39 116
152 39 115
149 38 112
147 37 111
149 38 112
150 38 113
141 36 106
142 37 109
144 36 109
157 40 119
152 39 116
145 37 110
149 38 113
144 38 110
143 36 108
148 38 113
146 37 110
159 41 120
149 39 112
149 38 111
143 36 109
150 38 113
147 38 113
146 38 112
143 37 107
151 39 114
149 38 111
153 39 114
145 38 111
154 39 117
149 38 112
148 38 111
143 37 109
151 39 114
160 41 119
152 38 115
148 38 113
150 39 113
147 37 110
156 40 118
146 38 111
139 36 105
147 38 111
144 38 110
154 40 117
152 39 115
155 40 119
156 40 118
151 38 114
155 39 115
146 38 111
152 40 116
152 39 115
144 38 111
148 38 114
152 39 115
145 37 110
151 39 114
143 37 110
150 39 114
136 36 105
152 39 116
148 39 112
153 39 116
144 38 111
155 40 117
148 38 113
152 40 116
154 40 118
157 40 119
146 38 112
149 39 114
140 36 106
146 38 111
146 38 112
139 37 106
150 39 115
150 39 114
151 39 115
148 38 113
147 39 113
146 38 111
145 38 112
147 38 111
142 38 108
138 36 105
145 38 112
139 37 106
155 39 115
141 50 113
142 65 120
141 79 128
138 91 133
136 111 145
137 103 141
135 120 151
135 125 156
127 126 152
128 130 157
131 137 163
126 142 167
127 143 166
131 148 171
127 142 165
129 145 168
131 147 171
129 146 168
131 147 172
130 146 169
126 140 164
130 146 170
128 145 169
127 144 167
131 148 173
132 149 173
131 148 173
131 147 172
132 148 172
129 143 168
128 143 168
133 149 173
128 143 167
127 142 165
126 141 166
132 148 173
128 144 167
127 144 167
131 147 172
130 147 170
133 149 172
130 149 174
131 147 170
129 143 168
127 143 166
129 145 168
130 146 170
133 149 174
131 147 172
132 148 172
132 147 172
129 146 169
129 144 167
127 142 167
132 147 170
131 145 169
128 144 168
131 147 171
132 148 173
131 148 172
132 149 174
129 147 171
131 147 170
130 147 171
129 143 166
128 147 170
128 146 169
131 149 173
133 151 175
130 144 169
129 145 168
132 149 172
130 148 172
131 145 170
130 146 170
132 148 171
129 143 167
128 144 168
130 147 172
126 144 166
127 142 165
130 145 169
130 145 169
130 146 171
134 151 175
131 149 171
134 152 177
129 143 166
128 144 167
130 148 173
130 144 168
128 143 166
123 139 162
128 143 167
129 146 171
130 147 171
132 148 173
130 144 167
132 149 173
132 146 171
131 148 171
131 146 171
128 144 169
127 142 166
129 142 165
131 148 171
129 145 168
128 142 166
129 146 169
131 149 173
129 145 169
