P3
1600 1
255
125 143 167
127 148 173
115 133 157
124 144 168
124 143 167
123 143 168
120 140 166
127 144 168
117 135 159
127 145 169
122 140 164
125 144 169
124 144 169
131 150 174
124 143 168
126 146 172
129 147 172
125 144 169
129 148 172
123 143 168
129 148 173
133 152 176
123 142 166
124 143 167
124 143 167
131 151 176
125 144 169
127 145 170
123 144 169
131 150 175
122 142 166
127 145 168
125 143 167
127 145 170
129 149 174
130 149 173
130 148 172
130 148 172
129 148 173
126 145 169
128 148 173
128 148 172
125 144 168
127 145 169
128 147 172
131 150 174
130 148 172
126 145 170
128 146 170
128 147 172
128 148 173
126 145 171
129 148 173
129 148 173
128 148 172
132 151 175
127 146 170
129 149 174
127 146 170
131 149 173
129 148 172
128 146 170
129 147 171
127 147 172
130 148 172
131 150 174
128 147 171
129 148 172
128 147 171
127 146 170
127 145 169
130 149 174
129 148 173
131 150 175
129 148 172
128 148 173
128 146 171
129 148 172
130 148 172
129 147 170
127 147 172
131 149 174
125 144 168
130 149 174
133 153 177
132 150 174
130 147 170
132 151 176
131 151 176
134 153 178
132 151 175
131 150 175
131 149 173
132 150 174
133 151 175
131 150 175
134 152 177
132 150 175
128 147 170
131 150 175
131 150 174
134 153 178
131 150 174
131 149 174
134 152 177
134 152 176
131 150 174
133 152 176
133 151 176
134 152 176
131 150 175
132 151 176
133 152 178
131 150 175
133 153 177
132 152 176
132 150 175
133 150 174
132 151 176
133 152 177
133 152 176
132 152 176
129 147 172
134 153 177
130 149 174
131 149 172
134 152 176
132 150 174
131 151 176
132 150 174
132 150 173
130 147 170
129 148 173
130 149 173
132 150 175
134 152 176
131 149 173
131 151 174
133 151 176
134 152 176
130 149 174
130 149 174
134 152 177
133 152 176
131 149 174
127 145 169
132 150 173
133 151 175
134 153 178
131 149 174
134 152 176
133 151 176
134 152 177
132 151 176
133 151 176
131 149 174
133 150 174
134 153 178
134 150 173
135 154 179
130 148 172
132 151 175
131 149 174
134 153 177
132 151 175
133 151 175
131 151 176
134 153 177
132 150 173
136 154 178
134 153 177
134 152 176
134 152 176
134 153 177
136 154 178
132 151 174
133 151 176
134 152 176
132 150 175
132 150 174
132 151 175
131 149 174
132 151 176
131 149 173
133 150 174
135 154 179
131 148 171
133 151 175
134 152 176
133 151 176
131 148 172
132 151 175
133 152 176
129 148 172
133 151 175
133 151 175
132 151 175
132 150 174
130 148 173
132 152 178
130 148 172
130 150 175
133 152 176
130 149 174
135 153 176
135 154 178
132 151 176
131 150 174
132 151 177
134 152 176
134 152 177
133 152 177
133 152 175
133 151 176
137 155 179
134 153 177
133 151 175
135 154 179
132 150 174
128 147 171
131 149 173
132 150 174
134 153 177
134 152 176
133 152 175
135 153 177
132 150 173
132 151 174
134 153 176
132 151 176
134 152 177
131 150 175
131 149 173
132 150 174
135 152 175
133 152 176
134 152 177
133 152 177
132 150 173
131 149 173
133 151 175
134 153 177
135 153 178
133 151 175
135 153 178
133 151 174
134 152 175
131 148 172
135 152 176
132 151 176
130 148 172
134 153 177
134 152 177
134 152 176
132 149 172
134 153 177
132 149 174
132 149 173
132 151 175
133 151 175
133 151 176
134 152 176
131 149 174
134 152 176
135 153 177
134 153 178
133 151 175
135 154 179
132 150 174
132 151 176
134 152 176
130 148 172
135 153 177
133 151 174
132 149 172
132 150 175
135 152 176
134 152 175
131 149 174
135 154 179
133 151 176
135 154 178
131 149 172
135 153 177
133 152 176
132 150 175
130 148 173
135 152 176
133 150 174
133 151 176
130 149 175
133 151 176
134 153 178
134 152 176
133 150 174
133 151 175
131 150 174
134 151 174
134 152 176
132 150 175
130 148 173
135 153 177
132 151 176
135 154 179
131 149 173
132 150 174
131 148 172
132 150 174
132 149 173
134 153 177
135 153 177
130 149 175
131 148 172
131 149 174
132 151 175
133 151 175
130 148 171
132 149 172
132 151 176
134 153 178
135 154 179
129 146 171
133 151 174
130 148 172
132 151 175
134 153 178
135 152 176
133 150 173
135 154 178
133 151 176
130 148 171
134 152 176
132 150 173
135 153 178
130 147 171
131 149 173
130 147 171
134 151 174
134 153 179
132 147 170
130 148 172
132 150 174
132 151 176
133 152 176
134 152 176
134 152 176
134 151 175
135 153 176
133 150 173
132 151 175
131 149 174
129 147 171
134 152 176
134 151 174
132 150 173
136 153 176
131 148 171
134 152 176
128 145 168
134 152 175
133 149 173
134 152 176
134 150 173
130 147 170
132 150 174
129 146 169
131 149 172
131 148 172
131 148 171
134 150 174
131 149 173
131 148 170
132 150 174
131 149 173
130 147 170
133 151 176
132 150 175
130 146 168
131 148 173
130 148 172
132 150 174
135 153 177
127 143 166
129 146 170
129 147 171
132 149 173
133 152 176
132 150 174
133 149 172
135 152 176
128 145 168
128 145 168
128 145 167
131 149 172
129 145 168
132 150 174
131 147 170
131 148 171
132 150 174
131 148 171
129 146 169
129 146 170
133 151 175
130 145 167
128 146 170
130 146 169
130 146 169
133 150 173
133 150 173
130 148 171
127 144 168
127 143 165
131 149 172
127 144 167
131 148 172
130 147 170
129 147 170
133 150 172
129 146 171
129 147 170
132 148 171
130 146 169
133 150 174
128 144 165
130 148 171
127 143 166
129 146 170
128 146 169
128 146 171
128 145 168
124 141 164
130 147 170
132 150 173
129 147 170
128 145 168
129 147 169
129 146 169
128 145 168
129 147 171
126 143 167
122 139 165
118 135 163
103 117 147
103 118 149
82 93 131
70 78 120
67 76 121
59 68 113
47 53 113
26 26 97
10 10 99
10 10 101
10 10 96
10 10 98
10 10 98
10 11 102
10 10 102
10 10 101
10 10 97
10 10 99
10 10 98
10 10 93
10 10 101
10 10 100
10 11 104
10 10 100
10 10 99
10 11 104
10 10 100
10 10 96
10 10 95
10 10 102
10 10 99
10 11 102
10 10 99
10 10 98
10 10 102
10 10 102
10 10 101
10 11 102
10 10 100
10 10 101
10 10 102
10 10 101
10 10 100
10 10 100
10 11 102
10 10 100
10 10 97
10 10 94
10 10 99
10 10 101
10 10 96
10 11 103
11 11 107
10 10 102
10 10 101
10 11 105
10 10 100
10 11 102
10 10 101
10 10 99
10 10 99
10 11 104
10 10 102
10 10 100
10 11 103
10 10 98
10 11 103
10 10 100
10 10 100
10 10 101
10 10 98
10 10 101
10 10 101
10 11 103
10 10 99
10 11 102
10 10 101
10 11 105
10 10 99
10 10 98
10 11 103
10 10 99
10 10 99
10 10 100
10 11 103
10 11 103
10 11 102
10 11 103
10 11 103
10 11 102
10 11 103
10 10 99
10 10 98
10 10 101
10 11 102
10 10 99
11 11 105
10 10 100
10 10 100
10 11 103
10 10 99
10 10 98
10 11 102
10 10 102
10 11 102
10 10 98
10 10 100
10 10 102
10 10 101
10 10 99
10 10 102
10 11 103
10 10 99
10 10 99
10 11 102
10 10 98
10 10 102
10 10 101
10 10 99
10 10 98
10 10 99
10 10 97
10 10 100
10 10 96
10 11 102
10 10 100
10 10 98
10 10 100
9 10 93
10 10 98
10 11 102
9 10 95
9 10 95
10 11 104
9 10 96
10 10 96
10 10 95
10 10 97
10 10 101
10 10 96
10 10 100
10 10 97
10 10 97
10 10 97
10 10 97
10 10 96
9 10 95
9 10 95
21 24 99
31 35 100
54 60 111
67 75 117
75 85 125
83 94 129
90 103 141
97 112 142
106 119 147
115 130 155
121 137 163
125 144 170
125 141 163
128 146 170
122 139 162
127 144 168
126 142 165
126 142 167
125 143 167
127 145 169
130 147 170
123 140 164
128 145 169
126 143 168
128 146 170
125 141 164
125 142 167
127 143 166
124 142 166
122 139 163
127 144 169
126 144 169
125 143 167
126 145 169
128 145 170
125 142 165
124 141 165
126 143 167
127 145 170
126 144 168
127 144 167
120 136 159
126 143 167
122 140 164
130 147 170
124 139 163
123 140 165
128 144 168
124 142 167
125 144 170
122 139 165
123 139 162
126 144 169
127 144 170
127 144 169
119 136 161
127 144 168
121 138 162
123 140 165
124 141 164
126 144 168
123 139 164
126 143 166
124 142 166
125 142 166
124 140 165
121 137 161
123 140 164
122 141 165
125 143 168
123 141 163
123 141 164
125 142 167
120 137 160
125 143 166
126 143 168
116 133 158
124 142 166
126 144 168
120 137 160
123 141 167
126 143 167
126 141 164
112 129 154
123 140 165
120 137 162
120 137 160
122 137 160
117 134 158
121 137 161
124 141 164
122 139 163
119 136 159
126 143 168
124 141 164
125 143 167
116 133 158
120 136 159
120 135 158
124 139 163
124 141 165
115 133 157
124 140 164
119 135 159
124 141 165
124 142 167
117 133 157
121 137 160
125 142 167
117 133 157
120 136 160
123 138 160
119 134 156
115 132 158
121 138 161
124 141 164
118 135 160
118 133 157
113 129 153
113 129 152
122 138 162
118 132 154
121 138 160
118 133 156
118 134 156
121 137 161
118 135 159
118 134 159
120 137 161
116 133 157
117 133 156
118 133 156
125 139 162
109 124 148
116 132 155
113 129 153
123 139 163
116 132 155
118 133 156
122 138 162
116 131 155
115 130 152
113 129 153
114 128 149
115 130 153
111 126 149
120 135 158
124 141 165
116 130 153
110 126 150
123 138 160
111 126 149
114 130 152
117 132 155
115 130 152
118 132 153
115 130 153
115 130 152
111 126 148
116 129 150
116 130 151
117 131 154
113 126 147
119 134 157
108 121 142
117 131 153
113 126 148
113 126 150
114 129 153
117 130 151
117 132 154
120 133 152
117 132 154
113 126 148
114 128 149
116 131 152
111 125 147
112 125 146
113 125 147
108 119 139
110 121 142
121 135 156
124 139 162
116 130 152
113 125 146
115 128 150
114 127 148
117 132 154
113 126 146
119 134 156
115 128 150
116 129 151
111 123 144
115 128 148
107 119 140
109 120 140
109 122 143
115 127 150
102 115 134
106 116 136
112 125 145
109 115 132
115 124 140
120 125 142
118 117 131
116 115 130
118 112 124
114 110 121
115 106 113
117 108 117
116 107 114
115 97 100
122 107 111
120 106 109
110 97 101
119 103 104
119 107 110
123 111 114
123 112 117
124 114 118
123 110 113
116 105 107
119 110 114
120 109 112
123 112 117
115 107 111
117 105 107
123 112 115
125 115 119
126 115 119
122 114 118
116 106 109
121 108 112
113 104 108
122 111 114
125 114 117
122 109 112
119 109 113
121 110 113
123 111 114
124 114 118
123 111 114
125 114 117
118 107 109
120 109 113
119 109 114
123 113 116
121 110 113
120 110 113
120 108 111
124 113 116
124 110 112
125 114 118
127 116 119
126 112 115
124 111 113
121 110 114
117 106 111
120 110 114
123 112 115
125 113 117
121 112 115
123 114 119
124 112 115
122 111 114
123 112 115
124 113 116
123 112 115
121 109 112
120 110 113
124 114 119
121 110 112
124 111 112
119 108 110
121 109 113
120 109 112
120 110 112
126 113 115
120 110 112
123 111 113
120 110 113
121 111 114
127 117 119
123 110 111
123 113 117
120 110 112
123 113 117
121 111 113
122 110 112
120 108 110
122 111 113
123 108 110
120 103 102
120 104 106
119 108 113
127 117 121
127 116 121
124 110 118
117 112 119
117 115 126
123 122 135
126 123 138
121 124 140
123 130 146
121 126 142
124 136 155
120 129 147
122 137 158
124 138 157
123 138 157
125 138 160
125 139 160
124 137 158
126 140 162
126 139 159
126 139 158
127 140 158
126 141 163
126 139 159
125 140 162
126 141 161
124 140 160
123 139 160
124 136 156
129 144 166
127 143 164
127 142 164
124 139 159
123 140 163
122 137 159
123 136 155
129 143 164
122 135 155
128 143 165
127 142 162
129 145 167
129 145 167
131 148 170
125 140 160
127 141 161
126 142 164
129 143 165
127 143 164
129 143 164
128 142 163
123 140 162
124 140 161
127 143 165
126 142 164
129 145 167
128 144 165
129 144 165
124 140 161
126 140 161
124 139 160
126 140 160
128 144 167
130 146 170
130 145 166
126 142 164
131 147 170
127 143 164
127 144 166
127 143 167
132 148 170
130 147 170
127 144 166
132 146 169
130 147 169
133 150 173
128 144 165
129 145 166
131 148 171
129 146 167
131 148 171
130 146 168
132 149 170
131 148 169
130 146 168
127 144 165
132 148 169
130 146 168
129 146 168
130 146 168
129 145 166
128 144 166
129 146 167
132 149 173
129 146 169
127 144 168
131 149 173
131 148 170
130 147 168
131 148 170
128 146 169
131 148 172
130 148 171
130 146 169
133 150 174
128 146 169
127 144 165
128 146 169
128 146 169
130 147 167
128 144 165
127 144 166
128 145 166
131 149 171
130 147 171
129 146 169
130 147 169
132 149 173
133 150 172
128 145 167
129 147 171
130 148 170
128 144 165
128 147 169
129 146 168
132 150 175
128 145 167
130 148 171
130 147 170
133 151 175
129 144 165
130 148 170
133 150 172
129 146 168
130 147 171
128 144 166
128 144 166
131 149 174
128 146 170
131 149 171
130 148 171
131 146 169
128 147 168
129 147 170
133 149 172
130 146 169
132 149 170
132 149 173
131 148 169
132 149 172
131 149 173
130 147 171
127 145 167
132 149 171
130 148 170
133 150 174
130 147 170
132 149 171
129 147 170
132 150 173
130 148 171
131 149 172
129 146 169
130 147 171
132 149 171
132 149 172
130 148 170
132 148 172
130 149 173
129 147 170
136 154 177
129 145 167
130 147 169
134 151 174
132 151 174
130 148 170
130 147 170
129 147 169
133 149 172
131 149 172
131 149 172
132 149 171
135 152 175
132 150 174
130 148 171
132 150 173
133 151 174
131 148 171
133 152 175
131 147 171
126 142 163
131 149 172
133 151 174
130 148 171
130 148 172
133 151 175
129 145 167
128 146 169
132 150 174
130 148 170
131 149 173
131 149 172
131 149 173
130 148 171
133 152 176
131 148 171
131 149 172
132 149 172
133 152 174
128 145 168
131 147 169
133 151 174
130 148 172
130 148 170
132 150 173
132 150 173
128 146 169
132 151 174
132 149 171
130 148 170
128 145 168
132 149 172
130 147 170
130 147 170
132 149 172
131 149 172
129 146 170
129 146 168
130 148 173
131 148 171
130 147 170
133 149 172
131 149 172
127 145 168
129 147 171
127 144 166
126 143 165
128 146 169
128 146 169
125 142 165
131 149 173
130 147 169
129 147 170
133 151 174
130 147 170
126 143 165
132 150 173
127 144 166
133 149 172
129 147 171
130 147 170
133 150 174
129 146 169
128 143 166
125 139 160
124 139 162
123 136 159
121 132 156
115 123 146
116 122 146
115 120 143
110 111 135
107 102 126
104 97 121
99 90 114
94 81 106
99 86 112
92 70 99
90 68 95
89 61 92
88 60 90
89 60 91
91 61 93
90 61 92
88 60 89
86 59 89
88 60 90
88 60 90
90 61 92
88 60 90
90 61 92
87 59 88
88 59 90
89 60 92
91 61 92
87 59 89
89 60 91
89 60 91
89 60 90
91 61 92
89 61 91
87 60 89
88 60 89
87 59 87
87 59 89
88 59 89
88 60 89
90 61 92
90 61 93
89 61 91
90 61 93
89 60 90
88 60 90
88 60 90
87 59 88
86 59 88
90 61 91
90 61 92
88 60 90
92 62 93
88 60 90
91 61 93
90 61 92
87 59 88
89 61 92
90 61 92
89 60 90
87 59 89
88 60 89
89 60 90
89 60 90
89 61 91
88 60 89
91 61 93
87 60 91
91 62 93
89 61 92
87 59 89
90 61 93
90 61 92
90 61 92
88 60 91
88 60 91
91 62 93
89 61 93
87 60 90
92 62 94
90 62 93
88 60 91
91 62 92
91 62 94
89 61 91
91 62 93
90 61 93
89 61 92
89 60 90
88 60 90
87 60 89
89 61 91
90 61 92
91 62 92
88 61 92
91 62 94
91 62 93
91 61 92
87 59 90
91 62 93
91 62 93
90 61 93
90 61 92
92 63 95
89 61 92
88 60 91
90 61 93
89 61 93
89 61 92
89 61 92
91 62 94
91 62 94
91 61 93
92 62 94
87 60 89
90 61 93
87 59 90
88 60 91
86 59 90
92 63 95
88 60 90
89 60 92
90 61 93
89 61 92
90 61 93
90 61 93
89 61 92
88 61 91
90 61 93
87 59 90
90 61 92
90 61 93
91 61 92
89 61 91
85 58 88
88 60 91
83 57 87
78 54 80
74 53 79
73 52 77
73 52 78
65 47 70
60 44 66
57 44 65
52 41 60
42 36 52
47 39 56
33 34 47
28 32 44
32 33 47
10 27 35
8 28 36
3 25 33
4 26 34
4 27 34
3 24 32
4 25 34
4 27 35
4 29 37
4 27 35
4 28 36
4 27 35
4 27 35
4 26 34
4 26 34
4 26 34
4 25 34
4 26 34
4 25 33
4 28 36
4 29 37
4 28 37
4 28 36
4 26 34
4 26 34
4 26 34
4 25 33
4 26 33
4 25 33
4 28 37
4 26 34
4 25 33
3 25 33
4 25 33
4 25 33
4 25 33
3 24 32
4 24 32
3 22 30
4 24 32
3 24 31
3 24 32
3 22 30
3 21 28
3 22 30
4 26 34
3 22 30
3 23 31
3 22 29
4 22 31
3 22 30
3 19 27
3 19 26
3 19 27
3 18 24
14 20 29
21 18 28
46 21 41
67 24 56
62 22 53
86 24 64
96 27 75
114 30 88
121 31 91
112 29 85
119 31 91
138 35 104
133 34 101
130 33 98
138 35 103
141 35 105
135 34 102
132 34 100
133 34 101
134 34 101
141 35 106
134 34 101
143 35 104
144 36 107
150 38 114
147 37 112
143 36 108
141 36 106
145 37 110
145 36 108
149 37 112
149 37 111
141 35 106
151 38 113
138 35 104
146 37 110
142 36 109
143 36 109
145 37 109
145 37 109
152 39 114
149 38 113
142 36 107
143 36 107
137 35 103
151 38 114
139 35 106
148 38 112
146 37 109
143 37 110
154 39 116
152 38 114
149 38 112
141 36 108
149 37 111
144 36 108
148 38 111
145 37 107
142 36 108
149 38 113
140 36 106
152 39 114
153 39 117
145 38 111
144 37 110
145 37 111
149 38 112
149 38 113
149 38 113
149 38 114
146 38 110
160 41 120
141 36 107
146 38 112
152 39 115
140 36 106
146 38 111
151 39 113
157 40 118
153 39 115
148 38 110
155 40 118
147 38 111
154 39 115
144 37 110
145 38 111
154 40 117
150 38 112
152 38 114
147 38 111
150 39 115
152 39 115
153 39 116
147 38 112
142 36 107
143 37 109
148 38 113
155 40 117
150 39 114
154 40 117
156 41 120
159 40 120
155 39 116
144 37 110
148 39 113
151 39 113
142 36 108
149 38 114
151 39 112
144 38 111
150 38 113
142 37 110
146 38 112
142 38 110
156 40 119
145 38 110
149 38 113
145 37 110
153 39 115
149 39 114
153 40 116
153 40 117
146 38 113
153 39 116
150 39 114
148 38 111
146 38 112
148 38 111
150 39 113
148 38 113
147 38 111
147 38 111
151 39 116
143 37 108
139 36 106
144 38 111
145 37 109
145 38 109
140 37 107
142 37 109
141 36 107
151 39 114
143 43 111
147 58 118
139 69 121
136 79 125
130 93 129
142 102 142
136 112 146
143 120 155
135 133 160
132 128 159
132 138 165
124 137 162
127 142 165
131 148 171
127 141 165
129 146 168
131 147 171
129 146 169
130 147 171
128 144 166
126 141 164
130 146 171
128 143 167
130 147 171
127 146 170
131 149 173
131 148 173
131 148 173
131 148 172
127 141 166
128 143 168
132 148 171
129 144 167
127 142 165
129 145 169
131 147 173
126 142 165
126 142 164
131 148 173
130 146 170
134 151 173
130 149 174
132 149 173
129 143 166
128 143 166
129 144 167
131 148 171
132 147 171
131 147 172
132 148 172
132 148 172
128 143 166
129 144 167
127 141 166
132 147 170
131 145 168
129 144 169
130 145 169
132 149 173
131 148 173
131 147 172
130 149 173
130 147 171
131 147 171
129 144 167
128 147 170
129 147 171
131 150 173
133 151 175
130 146 170
130 144 168
133 151 174
130 147 171
132 146 171
130 146 169
133 149 173
129 143 167
128 144 168
129 147 172
128 144 167
127 143 166
130 144 168
130 147 170
131 148 173
132 148 173
131 147 169
134 151 176
132 148 172
127 144 167
130 146 170
129 143 167
129 146 168
127 143 167
126 141 166
131 146 170
131 147 170
129 146 170
129 144 167
130 146 170
132 147 172
132 148 171
130 145 170
130 146 171
128 143 167
129 142 166
130 146 169
131 148 172
127 141 166
131 146 169
130 146 171
129 144 168
132 148 171
