P3
1600 1
255
124 142 166
127 146 171
120 138 162
126 145 170
125 144 167
124 144 169
128 148 173
125 143 168
123 141 166
126 144 167
125 143 166
125 144 169
122 142 167
128 147 172
128 146 171
125 146 172
127 146 170
124 144 169
130 148 172
127 146 171
129 148 172
131 150 175
127 145 169
124 143 167
127 146 170
132 150 175
126 146 171
127 146 171
125 145 171
129 148 172
129 148 173
123 142 166
123 141 165
129 147 172
126 146 172
131 150 175
128 147 172
128 145 168
130 149 174
130 150 175
128 146 170
130 148 172
124 142 166
131 149 172
129 147 172
128 147 171
131 149 173
129 148 173
132 150 174
122 141 165
132 151 177
127 146 171
129 148 173
131 149 174
128 147 171
131 149 172
128 147 171
129 149 174
125 144 169
132 150 174
131 149 173
131 149 173
130 149 173
128 147 172
126 146 171
132 149 172
128 147 172
128 147 173
128 147 171
126 144 167
127 146 170
128 147 172
128 147 172
130 150 175
129 147 171
128 148 173
129 149 173
130 149 174
129 146 170
130 148 172
128 148 173
130 148 172
127 146 171
130 148 173
130 150 174
134 152 176
129 146 170
131 150 174
130 150 175
134 153 179
132 151 176
133 151 176
130 148 172
130 148 172
134 152 176
130 149 174
135 153 178
134 151 175
128 146 170
132 151 176
130 148 172
131 149 173
131 151 176
132 148 172
134 153 177
135 153 177
131 150 174
132 151 175
133 152 176
135 153 177
131 150 175
132 151 175
135 154 179
130 149 175
133 152 176
131 151 175
132 151 175
133 151 176
132 151 176
132 151 175
134 153 177
133 152 176
131 149 172
133 152 177
130 149 173
131 149 173
132 150 174
133 151 174
131 151 176
134 152 176
131 149 173
130 148 171
131 150 174
131 149 173
133 151 175
134 152 176
133 151 175
130 148 172
132 151 176
134 153 177
130 149 174
130 148 172
134 152 177
135 154 178
132 151 175
129 148 172
130 147 170
132 151 175
132 152 177
132 151 176
133 150 174
133 152 176
134 152 177
133 152 177
132 151 176
132 149 174
133 151 175
135 154 178
134 150 173
136 155 179
131 150 174
131 149 173
132 150 175
134 153 177
131 150 174
134 152 176
130 150 175
135 153 178
131 149 173
136 155 179
133 152 176
134 152 175
134 152 176
135 154 178
135 153 177
134 152 175
134 152 177
133 151 175
131 150 174
133 151 174
132 151 176
131 149 173
132 151 176
131 149 173
133 151 175
136 155 179
133 150 173
132 149 173
134 152 176
135 153 177
128 146 169
132 150 175
133 151 175
130 149 173
132 150 174
133 152 176
132 150 174
133 152 176
131 148 171
131 150 176
130 148 172
132 152 175
134 152 177
131 149 174
135 153 177
135 154 178
134 152 177
131 150 174
132 151 177
135 153 177
136 154 179
132 151 175
132 151 175
133 151 176
137 155 179
134 153 177
133 151 175
135 154 179
133 150 174
129 147 171
131 148 171
133 151 175
134 152 177
134 152 176
133 152 175
135 153 177
134 151 175
132 150 174
134 153 176
132 151 176
134 152 177
131 151 175
132 150 175
132 150 174
135 153 176
134 152 177
133 151 176
133 152 177
132 150 174
131 149 172
134 151 175
136 154 178
136 154 179
133 152 176
135 153 177
132 150 174
134 151 174
131 148 172
135 152 176
133 152 177
129 147 171
135 154 178
133 152 176
134 152 176
131 149 171
134 153 177
132 149 173
133 151 175
132 150 174
133 151 175
135 153 177
134 151 175
131 149 173
135 154 178
134 152 176
133 152 177
133 151 175
135 154 179
131 148 171
132 151 176
134 152 176
132 150 174
134 152 176
133 151 174
133 150 173
131 150 174
134 152 175
133 152 175
132 150 175
135 154 179
134 152 176
134 153 178
133 151 174
135 153 177
134 152 177
133 152 177
129 148 172
134 152 175
134 151 175
133 151 176
131 149 174
133 152 177
134 153 177
134 151 175
134 151 175
134 153 177
131 149 172
134 151 174
132 150 174
132 151 176
131 149 174
135 152 176
133 153 177
132 151 176
132 150 174
130 148 171
135 154 178
130 148 171
134 151 175
131 149 174
134 152 177
132 150 176
133 151 176
132 150 174
133 151 176
131 149 173
130 148 171
133 151 174
133 151 176
132 151 176
134 153 178
133 151 175
132 150 174
132 150 174
132 151 175
132 150 175
135 153 177
134 151 174
133 151 176
134 152 177
132 149 172
132 150 173
135 153 177
132 150 175
133 150 174
130 148 172
131 148 171
133 151 175
132 150 174
133 151 175
128 144 166
133 152 176
134 152 176
131 149 174
134 152 177
134 153 177
134 151 175
134 152 176
134 151 175
132 149 173
133 151 175
131 149 174
132 150 173
134 151 174
133 150 173
134 151 174
135 152 175
131 148 173
129 147 170
132 149 173
132 149 172
133 151 175
134 152 176
131 146 169
131 149 173
130 147 171
130 147 172
130 147 171
133 150 174
133 150 173
131 150 175
133 150 173
130 148 170
130 148 173
130 147 170
133 151 175
133 151 175
128 144 166
131 148 172
133 151 175
130 148 172
134 152 175
129 146 169
129 146 171
131 149 172
131 148 171
133 151 174
132 150 174
133 150 173
133 150 174
130 147 170
128 144 167
128 144 167
132 149 173
127 143 166
131 150 174
128 144 167
131 148 172
129 146 169
130 147 170
131 148 172
130 147 171
133 151 174
129 146 168
127 145 169
130 145 168
131 147 170
134 150 173
132 149 173
128 146 170
130 146 170
128 145 168
130 147 170
131 148 171
130 148 172
129 145 168
130 148 171
132 150 173
129 146 170
131 148 172
131 148 171
131 148 170
133 150 174
130 146 168
130 148 172
127 143 166
129 146 169
130 147 171
129 147 171
129 146 169
126 142 166
129 147 170
131 149 172
130 147 169
129 146 169
130 147 169
130 147 170
128 144 168
128 146 171
124 142 166
125 141 166
117 133 161
107 121 151
101 116 147
82 93 131
75 85 125
71 80 123
58 66 114
54 61 116
19 19 96
17 19 99
10 10 101
9 10 94
10 10 97
10 10 98
10 10 101
10 10 101
10 10 98
10 10 100
10 10 100
10 10 97
9 10 93
10 11 103
10 10 98
10 10 101
10 10 98
10 11 103
10 10 98
10 10 102
10 10 96
10 10 97
10 10 100
10 10 102
10 10 102
10 10 100
10 10 99
10 11 103
10 10 98
10 10 102
10 11 103
10 10 98
10 10 98
10 10 100
10 11 103
10 10 102
10 10 101
10 10 101
10 10 99
10 10 99
9 10 93
10 10 100
10 10 101
10 10 96
10 11 102
11 11 106
10 11 102
10 10 100
10 10 102
10 10 100
10 11 104
10 10 101
10 10 99
10 10 97
10 10 102
10 10 101
10 10 99
10 11 103
10 10 97
10 11 104
10 10 101
10 10 101
10 11 104
10 10 99
10 10 101
10 10 100
10 11 102
10 10 99
10 11 102
10 10 99
10 11 105
10 10 97
10 10 99
10 11 102
10 10 98
10 10 100
10 10 98
10 10 102
10 11 103
10 10 102
10 10 102
10 11 102
10 11 103
10 11 104
10 10 101
10 10 98
10 10 100
10 11 102
10 10 99
10 11 102
10 10 100
10 10 101
10 11 103
10 10 100
10 10 100
10 10 102
10 10 102
10 11 102
10 10 98
10 10 102
10 10 101
10 10 98
9 10 96
10 11 105
10 10 100
10 10 100
10 10 100
10 10 101
10 10 99
10 10 99
10 10 97
10 10 98
10 10 97
10 10 101
10 10 98
10 10 99
10 10 96
10 10 101
10 10 100
9 10 94
10 10 98
10 10 96
10 10 98
10 10 99
9 10 95
9 10 95
10 10 100
9 10 95
9 10 95
10 10 97
10 10 99
10 11 103
10 10 98
10 10 98
10 10 97
10 10 95
10 10 99
9 10 96
10 10 98
10 10 99
10 10 97
23 25 101
35 39 102
54 62 110
77 87 125
71 81 122
80 90 129
92 106 143
98 113 142
110 125 153
114 129 155
123 141 166
121 140 165
123 138 162
127 145 168
118 134 158
130 147 170
128 144 168
123 139 164
127 145 168
128 146 170
128 145 168
126 143 167
127 144 167
126 143 167
126 145 170
126 142 165
126 144 169
126 143 165
122 139 163
125 142 166
129 146 171
124 142 167
125 143 168
128 147 172
127 144 169
123 139 163
127 144 168
126 143 165
128 147 172
126 144 168
127 144 169
121 137 160
126 143 167
124 141 165
130 148 171
122 138 161
126 143 168
129 147 171
123 140 164
127 145 170
122 140 164
123 139 163
127 144 169
126 144 169
128 145 169
121 139 162
127 143 168
124 141 166
123 139 163
127 144 168
126 143 167
124 140 164
126 144 168
125 142 165
124 142 165
123 140 166
122 140 165
123 140 164
122 140 163
124 142 166
123 141 164
125 142 165
121 138 163
122 139 163
124 141 163
126 144 170
119 135 159
125 142 167
124 140 165
121 138 161
123 141 165
126 144 169
124 140 164
115 133 158
122 139 164
118 135 161
124 142 166
120 136 159
117 134 157
119 136 160
122 139 163
122 139 164
124 141 165
123 141 164
125 141 165
128 146 170
114 131 156
124 140 164
125 141 164
124 139 162
121 138 163
117 134 158
115 131 156
123 139 163
121 137 161
127 146 171
117 133 157
123 139 163
125 143 167
120 137 162
123 139 162
122 138 161
122 138 161
117 133 158
118 135 160
122 138 162
117 133 157
118 133 156
115 131 154
113 128 152
114 129 153
124 139 161
118 132 154
119 136 160
120 135 158
117 132 155
118 134 158
117 133 157
122 139 163
115 133 158
118 134 157
120 135 158
117 133 156
119 133 156
113 128 151
119 135 159
117 132 155
119 137 161
118 134 157
122 138 161
117 132 154
112 128 152
114 130 153
113 129 153
117 132 155
116 131 155
110 124 146
127 143 166
118 134 158
118 131 152
118 132 155
119 133 155
111 125 149
120 137 160
115 128 149
122 136 157
114 130 152
118 133 155
112 126 149
114 130 152
119 131 151
118 132 155
114 130 153
110 124 148
113 127 149
118 132 154
115 130 152
122 137 159
107 121 144
108 123 146
114 129 150
114 127 148
116 129 149
116 129 151
118 133 154
111 126 147
121 136 158
116 128 149
111 123 145
114 126 147
107 118 139
114 127 147
123 138 161
119 134 156
115 129 149
115 126 146
107 120 143
115 128 149
119 132 152
116 129 150
119 132 152
114 128 151
117 130 151
110 120 140
113 123 144
111 124 146
107 121 143
118 131 154
111 123 143
109 122 143
111 122 141
118 130 150
112 116 134
117 122 137
118 123 140
117 118 131
113 112 125
119 116 129
119 110 119
115 111 119
122 110 118
112 103 109
116 104 110
114 100 103
117 101 103
116 104 106
109 98 101
112 97 100
124 111 114
124 115 119
125 113 117
121 107 109
118 108 112
115 105 109
117 107 111
120 110 115
117 106 110
113 102 103
122 112 116
121 111 115
124 113 116
120 109 112
118 106 109
116 104 107
118 107 111
121 112 116
125 114 117
118 108 112
118 108 113
124 112 114
121 108 111
124 113 117
123 113 116
125 111 114
122 111 114
121 110 114
120 110 114
121 112 115
116 104 106
116 106 109
115 104 107
121 108 110
124 110 112
125 113 116
126 114 116
123 111 113
122 112 116
118 107 110
120 110 113
125 116 120
127 117 119
126 116 120
121 111 114
120 109 111
125 113 116
123 111 114
124 113 116
116 105 106
121 108 111
120 110 112
124 115 118
122 109 112
122 109 111
118 106 109
119 107 111
120 107 108
123 111 113
124 112 114
120 109 112
124 108 111
116 102 104
119 107 109
128 116 120
120 107 109
123 113 115
118 107 109
121 109 111
117 106 107
118 106 108
123 110 112
119 106 109
121 108 111
122 107 109
124 112 115
120 111 116
123 114 121
121 111 117
126 122 134
122 116 125
122 118 130
122 124 138
120 121 136
126 129 145
125 130 146
120 132 150
125 138 157
126 138 158
124 139 160
123 137 158
124 138 158
124 139 160
124 136 156
127 141 162
122 135 154
126 137 155
124 137 157
121 133 152
125 139 159
127 140 158
123 138 159
128 142 162
125 139 160
126 143 164
123 136 155
129 144 165
125 140 161
127 142 164
124 140 161
124 140 162
122 137 159
123 137 156
129 143 163
122 136 155
128 143 164
126 141 161
131 147 169
129 144 164
131 146 168
127 140 160
126 141 163
126 142 164
127 142 165
128 144 165
129 144 164
125 140 161
126 142 163
127 141 163
129 146 168
125 140 161
126 141 162
126 142 163
128 143 163
123 139 161
126 139 159
125 140 161
128 143 164
128 144 166
130 146 169
129 143 164
128 143 165
131 147 169
127 143 165
128 145 168
127 144 167
131 146 168
131 148 171
130 146 168
129 146 169
131 148 169
132 149 173
129 145 167
129 145 165
131 147 169
129 146 167
131 147 169
130 146 168
131 148 170
126 140 159
129 146 169
129 146 168
129 146 168
129 144 166
127 142 163
130 147 169
130 146 168
128 144 167
130 147 169
130 147 169
130 146 169
130 148 172
129 146 170
132 150 173
129 146 168
129 147 169
127 144 167
131 148 172
131 149 172
132 147 170
132 149 172
130 147 171
128 145 168
129 145 167
129 146 167
129 146 167
129 145 166
126 142 165
129 146 169
131 148 170
129 146 170
129 145 169
134 151 175
131 148 171
134 151 175
127 144 166
129 147 169
132 149 171
129 146 167
127 145 168
131 148 170
131 149 172
132 150 174
128 144 166
132 150 173
132 149 172
130 146 168
131 148 171
131 149 172
130 147 170
127 144 167
130 146 168
128 145 169
129 148 172
128 145 167
131 149 172
130 147 171
130 147 170
128 145 167
132 149 172
131 147 170
129 146 168
134 152 173
130 148 171
133 150 171
132 149 173
131 149 173
130 148 171
129 145 169
131 148 172
131 149 171
130 148 172
133 150 173
130 147 169
132 150 173
132 150 173
131 147 170
130 147 170
131 149 171
130 148 172
134 150 172
130 148 170
131 148 171
131 148 171
130 148 172
128 146 169
135 152 176
130 146 168
131 148 171
134 151 174
132 150 174
132 150 173
130 147 170
128 146 169
132 150 172
133 150 173
130 148 171
132 149 171
135 152 175
132 150 174
131 148 171
133 150 173
132 149 172
134 152 175
132 150 172
130 147 170
127 143 165
132 150 173
132 150 173
129 147 169
132 151 175
131 150 173
127 143 165
129 147 169
131 149 172
131 149 173
129 148 171
131 149 173
133 151 175
132 150 174
133 151 174
129 147 169
130 148 172
133 151 174
129 147 170
128 145 167
133 150 174
131 150 174
130 148 172
131 150 171
129 147 169
132 150 174
130 148 171
133 151 175
132 149 171
128 145 168
128 145 167
132 149 172
129 146 169
130 147 170
132 150 174
131 149 171
127 144 167
133 150 174
129 147 170
129 146 169
135 153 176
131 148 172
129 147 167
127 145 168
129 146 170
125 141 164
128 146 168
130 147 170
125 142 165
128 146 168
129 147 171
132 149 171
128 146 168
131 148 171
129 145 168
126 143 165
130 148 171
130 147 168
132 149 173
130 148 170
129 146 169
128 146 169
130 147 170
124 139 161
121 134 156
125 138 161
122 135 159
117 127 150
117 124 148
113 115 138
115 120 143
108 108 131
104 96 121
96 87 110
95 82 108
95 78 105
94 76 104
91 68 96
88 61 91
88 60 91
89 60 91
89 60 90
90 61 93
89 60 90
89 60 91
86 58 88
88 59 89
90 60 91
89 60 91
90 61 91
89 61 91
87 59 89
89 60 91
90 61 92
89 60 91
89 60 90
88 60 91
89 60 89
89 60 90
90 61 92
88 60 90
89 60 90
87 59 87
85 58 86
87 59 88
88 60 90
90 61 93
90 61 93
89 60 90
90 60 92
87 59 88
90 61 92
86 59 89
88 60 89
87 59 89
90 61 92
90 61 92
86 59 88
87 59 90
89 61 90
90 62 93
89 61 92
87 59 88
87 59 90
91 61 92
89 60 90
87 59 89
87 59 87
88 60 90
89 60 90
88 60 90
88 60 89
91 62 93
87 59 91
91 62 92
89 60 91
89 61 91
90 62 93
90 61 92
89 60 90
88 60 91
89 60 91
91 61 93
90 62 94
88 60 91
92 62 94
91 62 93
88 60 90
88 60 90
92 63 95
90 61 92
88 60 89
91 62 93
88 61 91
89 61 90
90 61 92
87 60 89
90 61 92
89 61 93
91 62 92
89 61 93
92 62 95
90 61 93
88 61 91
87 60 91
91 62 93
92 63 94
89 61 92
88 60 90
92 62 95
89 61 92
88 60 92
89 61 92
88 61 91
87 60 89
88 60 91
92 62 94
90 62 93
90 61 92
92 62 93
88 61 91
87 59 90
86 59 89
89 61 92
87 59 90
91 62 94
88 59 91
86 60 89
89 61 92
89 61 91
89 61 92
90 61 93
86 59 89
89 60 91
90 61 92
88 60 92
89 61 92
89 60 91
89 60 91
90 61 92
88 60 91
88 61 91
86 59 90
82 56 84
80 56 84
77 54 80
77 54 82
70 50 75
64 48 70
70 49 75
62 46 67
57 45 65
48 40 57
44 38 54
43 37 53
31 33 47
33 34 47
15 28 38
12 28 37
4 25 33
4 25 33
4 26 34
4 25 33
4 25 33
4 29 37
4 26 34
4 25 33
4 28 36
4 28 36
4 26 34
4 28 36
4 26 34
4 26 34
4 27 35
4 26 34
4 27 35
4 27 35
4 26 34
4 29 37
4 25 33
4 25 34
4 26 33
3 24 32
4 27 36
4 25 34
4 26 35
4 27 35
4 26 34
4 26 33
4 25 33
4 26 34
3 24 32
4 24 33
4 24 32
4 26 35
3 23 30
4 24 32
4 25 33
3 24 32
3 23 31
3 21 29
3 23 31
4 26 35
4 23 31
4 23 31
3 22 29
3 22 30
3 21 28
3 19 27
3 18 25
3 18 25
3 19 26
16 19 28
22 16 27
44 21 41
53 20 46
70 23 57
91 26 70
89 26 70
109 29 84
105 27 80
121 31 91
120 31 90
131 34 100
126 32 95
131 32 96
129 32 97
130 33 99
126 33 97
130 33 101
134 34 101
141 35 105
128 32 96
145 36 107
130 33 97
148 38 113
137 35 105
141 36 107
146 37 108
141 35 106
142 36 106
135 34 102
140 36 106
145 37 110
150 38 113
142 36 106
140 35 106
137 35 104
145 36 108
149 38 112
143 36 108
148 38 113
151 38 113
136 35 103
145 37 108
145 36 108
143 36 108
145 38 111
144 37 108
146 37 109
155 39 117
143 36 107
148 37 111
149 38 112
150 38 113
144 37 109
148 37 111
146 37 110
143 36 108
136 35 103
145 37 112
147 37 111
157 40 118
152 39 116
141 36 107
145 37 110
146 37 111
151 38 114
146 38 112
147 37 111
151 39 115
147 38 112
145 37 110
151 39 115
142 36 109
143 37 109
145 37 111
149 38 113
155 39 115
154 39 115
148 38 111
158 41 121
145 37 110
153 39 115
144 37 110
142 37 108
151 39 114
147 37 109
148 38 112
154 39 116
144 38 110
151 39 114
152 39 115
147 38 112
142 37 107
140 37 108
142 37 108
159 40 120
148 38 111
154 40 118
157 41 119
150 38 114
141 36 107
145 38 111
151 40 114
149 38 113
150 38 114
154 40 116
141 37 106
148 37 111
144 38 111
146 38 112
145 38 111
142 37 110
144 37 110
157 40 119
146 38 112
142 37 108
147 38 112
147 39 113
158 40 119
141 37 109
156 40 118
147 39 112
143 37 110
136 36 105
147 38 111
146 38 110
147 39 113
152 40 116
146 38 111
143 38 110
149 38 113
146 38 113
141 37 108
144 37 111
134 36 102
144 37 109
138 37 108
142 37 108
147 38 112
152 39 116
143 37 109
143 40 109
137 42 109
137 59 112
143 59 117
138 78 124
134 88 128
136 99 137
130 117 148
131 119 149
129 128 155
130 137 162
127 135 159
130 144 167
129 145 169
129 146 168
127 142 164
127 142 166
127 142 166
129 147 171
128 144 167
127 145 169
130 147 171
131 148 172
131 148 172
131 147 172
129 143 167
126 143 167
131 147 170
130 145 168
128 143 166
125 142 166
129 144 168
128 144 167
130 145 169
130 148 171
129 144 168
133 150 174
129 146 171
132 149 173
128 145 168
126 142 164
128 144 168
129 146 169
130 146 170
130 145 170
131 147 172
131 147 170
129 145 170
127 140 164
128 142 166
134 149 173
131 145 168
128 143 167
130 146 170
131 148 171
132 149 174
129 146 171
130 147 172
126 143 167
132 147 171
131 148 171
126 143 165
131 149 173
131 148 172
132 149 173
129 146 170
130 144 169
131 148 172
132 150 175
134 150 174
129 146 169
133 149 172
126 140 163
129 146 171
127 144 168
130 148 171
128 143 167
132 147 170
129 146 170
132 147 172
132 149 171
133 150 173
133 150 175
130 147 170
129 145 169
129 144 168
132 148 172
130 147 170
125 141 164
128 143 167
133 148 173
129 145 169
130 147 171
129 143 166
129 146 169
132 147 172
133 148 172
130 146 170
130 145 170
129 144 169
131 144 167
131 147 170
130 146 170
127 141 162
128 145 168
132 149 174
129 145 168
132 148 171
129 147 170
129 144 167
130 146 170
130 147 170
131 148 172
