P3
1600 1
255
125 144 168
126 146 171
125 144 167
127 146 171
128 146 169
126 147 173
129 148 173
125 144 170
124 143 166
125 143 167
127 145 169
126 145 170
123 143 168
128 147 172
129 147 171
126 146 172
130 148 172
124 144 169
126 145 169
129 148 173
131 149 174
131 150 175
128 146 171
125 143 167
128 147 171
132 150 174
126 146 171
129 148 173
129 148 173
126 145 170
130 149 174
125 145 170
128 146 169
127 145 170
127 146 170
131 150 175
133 152 176
127 146 170
130 149 173
129 147 172
129 147 170
129 149 174
124 143 167
129 147 172
128 145 169
128 146 171
131 150 174
133 151 175
129 148 172
127 145 169
129 147 172
130 149 174
128 148 173
131 149 173
131 150 174
128 147 170
134 153 177
125 144 169
128 148 174
127 146 171
132 150 174
130 148 172
131 149 173
129 148 172
128 147 172
130 149 173
126 144 167
131 150 175
130 148 172
130 148 171
128 147 172
128 146 169
130 150 175
130 148 173
131 150 175
131 149 174
126 146 170
130 148 171
131 150 175
129 147 170
131 149 172
130 149 174
129 147 171
127 146 170
132 151 175
132 152 176
133 152 175
130 147 170
130 149 173
131 150 175
135 154 178
133 151 176
133 152 176
131 148 172
131 149 173
131 149 174
131 150 175
133 152 177
132 150 174
130 149 174
132 150 175
131 149 174
135 153 177
134 153 177
130 147 171
135 154 179
135 152 176
131 150 173
132 151 176
134 153 177
135 153 177
132 151 176
132 151 175
134 153 177
130 150 175
134 152 176
133 153 178
132 151 175
134 152 176
132 150 174
133 151 176
133 152 177
133 152 177
129 147 171
133 152 177
129 149 174
131 149 172
132 151 175
132 150 174
130 149 174
133 152 176
130 149 173
131 149 172
133 151 175
129 147 171
133 152 177
132 150 174
133 151 175
131 149 172
132 152 176
134 153 177
132 151 175
127 145 169
135 153 177
135 154 178
133 152 177
129 147 171
130 147 170
134 152 176
133 152 177
133 152 177
133 151 175
133 151 176
135 154 178
133 151 176
134 153 177
132 150 174
132 151 175
135 153 178
134 150 174
136 155 179
132 151 176
130 148 173
132 150 173
135 153 177
134 152 176
133 151 176
132 151 176
134 152 176
131 150 174
135 153 177
135 154 178
134 152 176
134 152 177
134 153 177
136 154 178
133 151 174
134 153 177
133 151 175
131 149 173
133 151 174
133 151 176
131 150 174
133 151 176
131 150 174
130 147 171
136 155 179
133 149 172
133 151 174
133 151 175
134 151 175
130 148 171
132 150 174
131 149 173
132 150 174
131 149 173
134 152 176
132 149 173
133 152 176
131 148 172
131 150 175
131 150 174
132 150 173
132 151 176
132 151 175
132 150 174
134 152 177
134 152 177
134 153 177
132 151 176
134 152 176
135 154 179
133 151 176
132 150 174
134 152 176
137 155 179
135 154 179
134 153 177
135 153 177
131 149 173
128 147 172
132 150 173
133 150 173
134 153 177
134 152 176
134 152 176
133 151 174
132 150 173
133 151 175
135 153 176
133 152 177
134 152 176
132 151 175
132 151 176
130 148 172
136 153 176
134 153 177
133 152 176
134 153 178
135 153 176
132 150 174
135 153 177
136 154 178
134 152 177
134 152 177
134 153 177
133 151 174
133 151 175
133 151 174
135 153 177
133 151 175
132 150 175
132 149 174
137 154 178
134 152 177
135 153 177
131 147 170
134 152 177
134 151 175
130 148 172
132 150 174
136 155 180
132 149 173
132 151 175
135 153 176
135 153 177
134 152 176
131 150 175
135 154 178
131 149 173
130 148 173
132 150 175
135 154 178
130 148 172
134 152 177
130 148 171
134 152 176
133 152 177
134 151 174
133 152 176
133 152 177
136 155 179
133 152 176
133 150 174
134 152 176
134 153 177
134 152 176
130 149 174
132 149 173
135 152 176
133 150 174
132 150 175
133 151 176
133 151 176
135 154 178
135 153 177
132 150 173
132 149 173
133 151 176
132 149 173
134 152 176
133 151 177
132 150 174
135 153 178
131 150 174
134 152 177
134 152 175
131 149 173
131 148 171
133 151 175
130 148 171
134 152 177
135 153 177
131 150 176
130 148 171
132 150 175
132 150 173
130 148 171
133 152 177
131 149 173
132 150 175
131 150 175
133 152 176
135 153 178
133 151 175
132 150 174
131 150 174
132 151 175
135 153 176
132 149 173
134 153 178
133 151 174
132 150 173
134 152 177
133 151 176
134 152 176
130 147 170
131 148 171
133 150 175
132 151 175
132 150 175
134 149 171
131 148 172
134 152 177
132 151 176
132 150 175
135 154 178
134 152 176
135 152 175
134 152 175
131 148 171
132 151 176
129 147 172
131 149 172
134 152 176
132 148 172
133 150 173
135 151 174
133 150 174
131 149 173
131 149 173
133 150 173
135 153 176
133 150 173
134 150 173
129 146 169
132 150 174
130 146 169
131 148 172
129 146 171
134 150 173
131 149 174
133 152 176
130 146 168
130 148 173
133 150 173
129 146 171
134 151 175
129 146 169
130 147 171
132 150 174
132 151 175
128 146 169
132 149 173
131 148 171
130 148 172
131 149 172
132 150 175
133 151 174
132 151 176
133 149 172
132 148 171
131 147 170
129 145 168
132 149 173
128 144 167
129 145 168
129 146 169
132 150 174
128 145 168
130 148 172
129 146 168
126 142 164
131 148 171
133 150 174
129 146 169
129 147 170
129 145 169
132 148 170
132 150 174
131 149 173
128 145 169
129 146 170
129 146 170
127 143 167
131 148 172
131 148 171
133 150 174
130 147 171
132 150 174
128 145 168
132 149 173
133 150 174
133 150 173
131 148 170
129 145 167
130 147 171
130 147 171
130 148 172
129 147 171
131 148 171
130 147 171
130 146 169
130 148 171
132 149 173
131 148 170
130 148 172
129 147 170
126 142 166
121 138 163
118 135 163
120 136 161
108 123 152
109 123 153
89 101 139
67 75 116
67 75 119
58 65 110
58 65 112
36 40 105
22 24 98
10 10 100
10 10 99
10 10 97
10 10 98
9 10 93
10 10 101
10 10 97
10 10 98
10 10 100
10 10 97
9 10 96
10 10 97
10 10 96
10 10 98
10 10 102
10 10 101
10 10 99
10 10 98
10 10 98
10 10 97
10 10 98
10 10 100
10 10 102
10 10 97
10 10 101
10 10 100
10 11 103
10 10 97
10 10 102
10 11 102
10 10 96
10 10 98
10 10 101
10 10 101
10 10 97
10 11 102
10 10 100
10 10 101
10 10 97
10 10 96
10 10 97
11 11 105
10 10 98
10 10 101
10 11 103
10 10 100
10 10 100
10 11 104
10 10 101
10 10 102
10 10 102
10 10 100
10 10 96
10 11 104
10 10 99
10 10 98
10 10 102
10 10 96
10 10 101
10 10 98
10 10 99
10 10 102
10 10 97
10 10 100
10 10 101
10 10 102
10 10 98
10 11 102
10 10 101
10 11 103
10 10 97
10 10 98
10 10 99
10 10 97
10 10 100
10 10 99
10 10 99
10 11 102
9 10 96
10 10 100
10 10 102
10 10 99
10 10 99
10 10 101
10 10 99
10 10 98
10 10 98
10 10 98
10 10 100
10 10 98
10 10 100
10 10 97
10 10 98
10 10 102
10 10 101
10 10 101
10 10 98
10 10 100
10 10 99
10 10 98
9 10 96
10 11 104
10 10 98
10 10 99
10 10 99
10 10 98
10 10 101
10 10 99
10 10 100
10 10 99
10 10 96
10 10 99
9 10 94
10 10 99
10 10 98
10 10 100
10 10 99
10 10 97
10 10 98
10 10 97
10 10 98
10 10 100
10 10 96
9 10 93
10 10 99
10 10 98
10 10 96
10 10 97
10 10 98
10 10 98
10 10 99
9 10 94
10 10 97
9 10 94
10 10 96
9 10 95
9 10 92
9 10 94
10 10 99
28 30 98
45 50 107
74 84 123
66 75 119
80 89 127
86 98 132
99 112 145
99 112 141
113 126 152
120 136 160
125 144 170
125 143 170
127 145 170
129 147 171
120 137 161
129 146 169
127 143 166
125 141 165
129 146 170
128 146 169
125 142 167
127 144 168
130 147 171
126 142 165
126 144 168
124 139 162
127 144 169
125 142 166
122 140 165
124 141 164
130 148 172
129 147 172
125 143 167
129 147 172
129 145 169
123 140 164
130 148 172
127 144 167
128 147 172
128 146 169
127 145 169
121 138 162
128 145 168
122 138 161
130 147 171
123 138 162
128 145 168
127 144 169
126 143 169
128 146 171
126 144 170
123 140 165
128 146 171
128 146 171
129 146 170
125 142 165
122 138 163
126 143 168
120 137 161
127 145 169
128 145 170
127 144 168
125 142 166
125 141 164
124 142 166
125 143 168
124 141 166
123 141 166
123 140 163
128 146 172
124 142 165
128 146 169
125 142 165
122 138 162
126 144 168
125 143 167
123 140 165
125 141 166
125 142 167
127 145 169
124 141 165
123 141 166
127 144 169
124 141 165
118 135 160
129 146 170
121 137 161
125 143 166
126 142 165
123 140 164
123 140 165
123 139 163
125 142 166
129 146 169
123 140 164
125 142 166
128 145 168
122 139 164
125 140 163
126 142 166
123 139 163
120 136 161
123 140 165
120 137 161
120 136 160
121 137 160
133 151 175
123 140 164
126 143 167
122 138 163
124 142 167
124 139 162
124 141 165
121 137 162
124 140 163
122 138 161
124 141 166
126 143 168
120 137 162
125 142 167
114 130 153
116 133 156
126 142 163
122 138 161
119 134 157
119 136 161
126 142 165
120 135 159
121 138 161
121 138 161
116 134 159
120 138 163
119 134 157
121 136 160
118 132 155
124 139 162
117 132 155
121 136 159
121 137 160
121 137 161
119 134 157
121 136 159
118 134 159
115 130 153
118 134 157
115 131 155
114 129 152
114 129 153
119 133 154
123 138 161
118 134 157
120 132 154
116 131 152
119 135 157
114 130 153
120 137 160
120 135 158
117 132 156
116 130 151
123 138 161
114 128 150
118 131 153
117 129 150
115 129 151
122 136 158
112 126 148
122 137 158
115 129 151
118 131 153
116 130 152
118 133 155
119 134 157
107 121 145
115 130 152
120 134 154
117 131 152
116 130 150
115 129 150
114 126 147
117 131 153
117 130 151
114 126 146
116 129 151
113 124 144
115 126 146
123 135 155
112 126 147
114 125 144
115 128 149
117 130 150
119 133 153
112 126 146
114 125 144
117 131 153
120 133 154
112 122 141
112 123 141
114 125 143
114 128 150
113 127 148
113 125 146
110 122 142
111 123 144
113 126 146
118 127 145
115 122 140
107 114 131
113 118 133
111 112 126
113 115 129
115 114 128
107 102 112
108 100 110
116 112 120
117 101 106
115 102 108
118 106 112
117 102 105
116 103 107
116 101 104
116 103 105
119 106 110
111 99 102
113 100 101
116 105 108
114 101 104
112 99 101
115 102 106
112 101 104
117 104 106
115 104 107
117 106 109
113 100 102
126 112 115
116 104 106
123 112 115
119 108 111
115 105 109
119 106 108
116 102 105
122 110 112
116 104 106
122 110 113
115 103 106
121 109 113
117 104 106
121 107 109
113 101 104
117 102 103
118 105 106
118 104 106
117 106 109
126 111 113
122 108 111
122 107 109
121 109 111
119 110 114
126 114 116
120 107 111
119 108 112
120 111 114
122 109 111
120 106 108
125 113 116
123 112 116
112 101 103
120 107 109
119 107 109
122 111 113
122 109 111
121 110 112
117 106 109
120 105 106
117 103 103
119 104 104
119 107 109
120 105 105
116 103 104
120 107 109
122 106 107
117 104 104
120 105 106
113 101 102
121 109 111
119 105 106
119 106 109
121 106 106
124 113 117
119 103 106
119 106 108
119 108 111
118 106 109
116 105 108
124 116 125
116 111 118
121 119 131
122 119 130
122 124 139
120 122 135
119 120 133
122 129 145
120 131 150
123 133 151
123 136 157
119 131 148
121 132 151
121 132 150
123 136 156
125 139 158
124 138 159
126 137 155
123 136 154
125 138 157
122 134 151
129 143 164
118 131 149
127 141 160
123 135 155
125 140 161
117 132 150
123 136 155
128 144 165
128 143 163
125 139 158
127 140 160
125 137 157
124 136 155
128 143 165
125 140 159
130 147 169
130 146 166
128 143 163
126 141 162
127 140 159
125 141 164
126 140 161
125 138 158
124 138 160
128 145 168
126 141 161
126 140 160
128 144 165
126 141 162
127 142 164
125 140 159
128 143 165
123 138 159
125 141 161
122 136 156
129 144 165
131 146 168
128 143 164
126 142 162
128 145 168
128 142 164
128 144 165
130 147 170
131 147 169
131 147 170
128 143 165
128 143 165
129 145 167
130 145 166
131 147 168
131 148 170
132 148 171
128 145 167
129 144 166
127 143 165
130 146 167
126 142 165
128 145 168
128 145 165
128 144 166
131 147 171
124 140 162
132 149 172
125 140 161
129 146 168
131 148 171
130 147 170
130 147 169
133 150 174
129 146 170
130 146 169
131 148 169
128 145 166
130 148 170
134 149 172
130 146 169
132 149 170
130 147 171
128 144 167
126 142 164
129 146 168
132 149 171
129 145 167
128 145 168
130 148 170
129 147 168
128 144 167
130 148 170
130 146 169
131 148 170
133 149 172
127 144 166
128 144 167
131 147 169
127 144 164
129 147 169
131 149 172
131 149 174
130 147 169
131 148 170
130 146 168
131 149 173
128 144 166
127 145 167
133 150 173
129 146 170
130 147 170
126 143 166
129 145 167
129 147 172
127 144 166
130 148 170
129 146 170
129 146 168
128 146 168
132 148 171
131 148 172
131 148 169
133 150 172
131 148 171
133 150 172
133 151 175
130 147 171
131 148 171
129 146 169
132 148 171
131 148 170
131 150 174
130 148 171
130 147 169
132 150 172
128 146 167
132 149 173
128 145 169
129 146 168
132 150 173
132 148 170
129 148 171
129 145 168
130 147 170
129 147 171
131 148 171
135 152 176
130 147 169
131 148 171
134 151 175
132 149 172
130 149 171
134 150 173
128 146 167
133 151 174
134 151 174
129 146 168
132 150 172
133 150 173
133 151 174
131 148 171
132 149 171
131 149 172
132 150 174
135 154 177
129 145 168
129 145 168
132 150 173
131 149 172
132 150 172
131 149 174
132 148 169
126 144 167
129 147 171
130 147 170
129 147 171
132 150 173
133 151 175
133 151 175
133 152 175
132 149 173
129 147 169
133 150 173
132 151 175
129 147 171
129 146 167
134 152 176
131 149 172
132 150 173
129 147 168
130 147 169
129 147 170
132 151 174
132 150 173
132 149 172
128 144 167
130 147 169
130 148 170
128 146 168
130 147 170
131 149 172
132 150 173
128 144 167
132 150 174
129 146 168
131 149 173
134 151 175
131 148 172
130 148 170
129 148 172
126 143 166
131 149 172
130 148 171
130 148 171
124 141 165
130 148 170
130 148 171
131 148 171
127 145 168
130 147 170
129 146 169
127 145 166
129 146 169
130 146 168
128 145 169
131 149 173
129 147 169
129 147 170
131 148 172
129 147 170
130 148 170
130 148 171
128 146 170
131 149 173
130 147 170
127 144 167
127 141 163
124 137 160
121 132 155
120 129 151
112 116 140
114 121 145
112 114 139
106 105 130
103 100 124
100 91 116
101 91 116
94 75 102
94 72 101
91 70 97
87 61 90
86 58 88
86 58 87
89 60 90
86 58 88
88 59 89
88 59 89
84 57 86
88 59 90
87 59 89
86 58 88
87 59 89
87 59 89
88 60 89
90 61 92
88 60 90
88 59 90
87 59 89
87 59 88
85 58 86
87 59 88
88 60 90
89 61 92
89 61 92
89 61 92
88 60 90
88 60 89
87 59 88
87 59 89
87 59 88
89 60 90
87 59 88
90 61 90
88 60 90
90 61 92
87 59 88
92 62 94
86 59 87
86 59 88
90 61 91
88 60 91
87 59 88
85 59 87
88 59 89
85 58 86
88 60 90
88 60 89
88 60 89
90 61 92
87 60 89
88 60 90
88 60 90
89 61 92
88 60 88
89 60 91
91 62 93
88 60 91
87 60 90
91 62 94
87 60 90
88 61 91
90 61 92
89 61 90
88 60 91
90 61 93
89 61 91
89 61 91
89 61 91
88 60 91
88 60 90
89 61 91
85 58 87
90 62 92
89 61 93
90 61 91
89 61 92
90 62 93
89 60 91
87 59 90
89 60 91
89 60 90
91 62 93
89 61 91
89 60 91
93 63 95
88 60 90
89 60 92
87 60 90
87 60 91
90 61 92
89 61 92
89 61 92
89 61 91
88 60 90
92 62 93
88 60 91
90 61 92
88 60 91
87 60 90
86 60 88
90 62 93
88 60 90
87 60 90
87 59 89
87 60 89
90 61 92
88 60 92
87 59 90
89 61 92
89 61 91
89 61 93
90 61 93
89 60 91
88 60 91
88 60 90
89 61 92
89 61 92
88 60 91
86 58 89
89 60 92
87 59 91
89 61 92
87 59 90
88 60 90
86 59 89
90 61 93
87 59 89
86 59 89
82 56 84
83 57 86
83 57 86
82 56 85
73 52 78
72 51 77
66 47 71
58 43 63
50 40 59
52 41 59
51 40 58
41 36 51
33 32 45
31 31 44
15 29 38
10 28 36
4 26 34
4 25 33
4 27 35
4 27 36
4 26 33
3 25 33
4 26 34
3 25 32
4 26 34
4 27 35
4 28 36
4 28 36
4 25 33
4 26 33
4 27 35
3 24 31
4 27 35
4 26 34
4 26 34
4 25 33
4 26 34
4 24 32
4 27 35
3 24 32
4 27 35
4 25 33
3 25 32
4 25 33
4 26 34
3 24 31
4 25 34
3 23 30
3 25 33
3 24 32
3 23 31
4 25 33
4 25 32
3 23 30
3 23 31
3 21 28
4 23 32
3 22 30
3 20 27
3 23 30
3 23 30
3 21 28
3 22 30
3 22 29
3 21 29
3 20 28
3 19 27
3 20 28
3 19 27
20 19 29
19 17 27
18 20 30
62 22 51
56 22 49
73 24 60
64 21 55
98 27 76
102 27 78
103 27 80
120 31 91
123 31 93
134 34 101
128 32 97
122 31 92
140 36 106
141 36 106
129 32 96
131 33 99
133 34 103
140 35 105
142 36 106
139 35 105
130 33 99
137 34 102
138 34 103
141 36 108
142 36 108
137 35 103
137 34 102
141 36 106
136 34 101
138 35 104
140 36 107
137 35 102
149 38 112
151 38 114
136 34 103
149 37 111
143 36 108
138 35 103
149 38 112
142 36 107
140 36 106
137 35 103
143 36 109
143 37 108
143 36 107
152 39 115
142 37 109
150 38 114
136 35 103
140 36 108
143 36 108
153 39 115
146 37 110
147 37 111
145 37 109
151 39 115
144 37 109
148 38 113
137 35 105
147 37 110
145 37 108
150 38 114
140 36 107
146 37 111
154 39 116
139 35 104
145 37 109
147 37 111
146 37 109
151 39 114
147 37 110
155 40 117
148 38 112
153 39 116
148 38 112
140 36 107
145 38 110
145 37 110
151 39 114
150 38 114
145 37 111
147 38 112
144 36 107
145 37 109
142 36 108
141 36 106
141 36 108
146 37 111
147 38 112
140 36 107
146 38 111
151 39 114
143 37 109
146 37 111
144 38 111
151 39 114
148 38 111
145 37 110
152 40 116
149 39 113
151 39 114
148 38 112
149 38 113
144 37 110
144 38 109
141 36 108
148 38 112
146 37 109
143 37 108
152 39 116
147 38 112
152 39 115
152 40 116
148 38 113
148 38 111
147 39 113
143 37 110
141 37 106
144 37 109
140 37 107
144 38 110
140 37 107
150 39 114
147 38 112
146 38 110
139 36 106
146 38 111
143 37 108
150 39 115
141 37 108
147 38 111
150 39 114
137 37 107
138 36 106
142 36 107
142 38 109
138 36 103
137 49 111
136 68 117
139 71 121
136 75 122
137 82 125
134 105 140
140 118 154
133 125 156
129 121 151
127 133 159
128 139 164
134 146 171
126 142 164
125 137 160
128 144 169
130 144 168
126 141 164
129 146 168
130 145 169
132 148 172
130 144 169
131 149 173
131 145 169
123 139 161
128 145 168
129 145 170
130 145 168
128 143 167
129 143 167
128 144 167
128 144 167
130 144 168
126 134 159
127 142 166
130 145 169
129 145 169
130 145 170
129 145 170
132 150 174
127 145 168
129 147 172
127 143 166
128 145 169
124 141 164
130 146 170
128 146 170
131 147 172
130 146 170
127 144 168
132 148 172
130 147 172
134 149 174
129 143 167
129 144 168
132 145 169
127 141 164
128 145 170
126 141 164
130 147 170
129 143 167
130 146 170
129 146 170
131 146 171
132 145 169
129 147 171
132 148 172
126 143 166
133 149 174
130 145 170
130 146 169
131 148 171
127 143 166
132 147 171
131 147 172
128 145 169
132 148 172
130 147 170
133 150 174
128 143 167
133 151 176
129 145 169
129 145 170
128 143 167
132 148 172
132 149 173
127 143 167
132 147 170
129 148 171
133 151 176
131 149 171
132 149 173
129 145 168
130 146 170
132 147 169
132 148 172
128 145 168
131 149 174
131 147 172
129 147 170
130 146 169
130 147 171
131 147 173
128 143 167
128 144 166
129 147 171
131 145 168
129 144 168
129 145 169
134 150 174
130 147 170
130 147 171
131 145 168
129 143 167
