P3
1600 1
255
129 146 169
130 147 171
128 146 169
131 144 166
131 141 162
136 141 160
129 139 160
130 132 152
131 137 157
130 134 153
133 133 151
136 127 144
133 124 140
138 127 142
138 124 140
137 125 140
138 128 145
133 123 139
137 122 137
136 120 135
137 123 138
139 112 123
140 122 136
140 116 128
141 114 125
136 107 117
142 97 101
141 107 116
138 112 122
142 105 113
143 101 108
141 101 108
138 103 111
143 105 112
141 107 115
144 98 103
144 96 99
142 97 102
142 100 106
143 91 93
141 92 94
142 92 94
144 87 87
143 87 87
144 90 91
143 86 85
145 104 110
144 87 86
144 93 95
143 83 81
141 93 96
146 94 96
140 87 89
141 92 94
144 85 84
142 98 102
146 86 85
144 83 81
143 89 90
144 92 93
143 99 103
140 99 105
144 91 92
142 94 97
143 88 89
141 97 103
142 95 99
139 95 100
139 101 109
140 104 112
138 98 106
140 105 114
136 110 121
140 112 123
140 103 110
140 106 114
140 105 113
140 119 133
134 116 131
140 114 126
137 122 137
140 120 134
135 117 130
139 122 136
137 125 140
140 128 143
136 129 146
136 130 148
131 131 151
131 131 150
137 134 153
135 138 159
137 138 158
135 137 157
135 144 166
133 141 163
132 144 166
134 147 170
133 149 172
135 150 173
135 148 171
134 150 173
134 152 177
135 153 177
133 152 177
128 147 171
134 153 178
133 151 174
135 153 176
132 150 173
132 151 175
133 151 174
133 152 176
134 152 175
131 149 172
134 152 176
132 150 173
132 151 176
131 149 173
135 154 178
133 151 176
132 150 173
133 151 175
134 153 177
130 148 172
131 150 174
134 153 176
133 152 176
134 152 176
128 145 169
131 148 173
132 151 175
131 148 172
132 149 173
132 149 173
133 152 177
132 150 174
135 153 177
132 151 175
134 152 176
133 151 176
131 149 173
133 150 174
133 151 175
131 150 175
134 152 176
133 151 176
134 153 178
131 148 172
133 151 175
135 154 178
132 150 175
131 149 172
133 151 176
133 150 173
134 151 175
134 153 178
133 150 173
133 151 175
132 151 176
134 152 177
134 152 175
132 150 174
132 150 174
135 154 178
134 152 175
133 152 176
134 152 176
132 150 174
134 151 175
134 152 176
135 154 178
134 152 177
134 152 176
133 151 175
136 154 178
135 153 177
136 155 179
132 150 174
135 153 178
135 154 178
135 153 177
132 149 172
133 152 176
129 146 169
134 152 176
132 150 174
134 151 174
132 150 175
133 152 176
133 150 173
131 148 171
135 154 179
132 149 171
136 154 178
137 154 178
135 153 178
134 152 176
132 150 174
133 151 176
130 148 172
133 151 175
131 148 172
135 153 177
134 152 175
131 148 172
131 150 174
131 149 173
132 150 173
134 152 175
131 149 173
132 149 174
134 152 177
133 152 177
132 150 174
133 151 175
135 153 177
134 153 178
135 154 178
134 151 176
130 148 172
134 152 176
132 151 176
134 153 178
132 150 174
132 150 175
131 150 175
132 150 174
133 151 174
136 155 179
132 151 176
133 149 172
133 151 174
132 150 174
131 149 174
135 153 177
132 151 175
133 151 175
133 151 175
132 150 174
133 151 175
135 152 176
134 153 177
133 152 176
134 152 176
133 150 174
133 151 174
133 151 174
135 153 178
133 151 175
134 152 176
135 153 177
136 154 179
132 151 176
134 152 176
134 152 176
134 152 176
133 151 175
132 150 174
137 156 180
132 150 173
134 152 176
135 152 175
135 154 179
131 150 175
135 153 177
130 149 173
135 154 178
133 151 175
134 152 176
132 150 174
134 152 176
133 151 174
133 151 175
133 151 177
133 151 175
133 152 176
131 149 173
134 153 177
131 148 172
132 150 175
133 151 175
134 152 176
133 151 176
131 149 172
136 155 179
133 153 178
135 154 178
135 153 178
133 150 174
132 150 174
134 153 177
132 151 176
133 152 177
132 150 174
133 151 174
131 149 173
134 151 175
133 150 173
130 149 173
135 152 176
134 151 175
131 150 175
133 152 176
131 149 173
132 149 173
132 151 176
132 151 176
135 153 176
137 155 179
133 152 176
134 152 177
132 149 172
133 152 177
130 147 171
132 152 176
131 148 171
134 152 176
132 149 173
135 153 178
132 150 175
134 151 176
131 148 172
131 150 174
132 150 174
133 151 175
133 151 175
133 151 176
132 151 175
133 151 176
132 150 174
132 150 175
134 152 177
133 151 175
129 145 169
132 150 175
129 146 171
135 153 177
134 151 175
132 150 175
132 151 176
130 147 171
133 151 175
132 150 174
132 149 172
133 152 177
133 152 176
130 147 170
134 153 178
134 153 177
130 148 172
132 150 175
132 151 175
131 149 173
131 149 173
130 148 171
132 150 175
132 150 175
132 151 176
126 146 170
133 151 174
132 150 174
133 151 174
133 149 173
132 149 173
127 144 169
132 150 174
134 153 177
133 151 175
131 148 171
128 146 170
131 149 173
130 147 170
131 150 174
132 151 175
133 151 174
129 146 170
130 148 171
132 149 172
130 148 172
131 148 172
131 148 172
131 148 172
132 150 173
129 147 171
132 150 175
129 147 172
128 147 171
129 145 169
130 148 172
128 146 170
133 151 175
128 146 171
127 145 170
131 149 173
131 149 172
132 150 173
130 146 169
131 149 173
132 150 174
128 146 171
127 145 168
128 145 169
130 148 172
128 146 169
131 149 173
124 140 164
132 149 173
124 141 165
132 150 174
128 145 168
129 147 172
130 148 172
131 148 172
132 150 174
133 151 175
129 146 171
129 148 173
125 142 166
128 145 169
130 147 170
132 151 175
129 146 171
130 148 172
128 147 172
129 148 173
128 146 170
132 150 174
129 147 172
129 145 169
125 143 168
132 150 175
128 146 171
130 147 170
131 149 173
127 145 170
133 150 174
129 146 171
128 144 168
127 144 168
130 149 172
132 150 174
132 150 174
128 145 170
130 147 171
130 147 171
127 144 169
128 145 169
129 146 171
125 143 168
124 141 165
124 140 164
110 125 154
104 117 144
101 115 143
96 108 137
90 102 132
86 98 132
67 76 115
67 76 117
48 54 100
31 36 92
31 36 94
16 18 87
9 9 86
9 9 87
9 9 87
8 8 83
9 9 88
9 9 89
9 9 89
9 9 89
9 9 89
8 8 84
8 9 84
9 9 87
9 9 86
9 9 88
8 9 85
9 9 88
8 9 86
9 9 90
9 9 90
9 9 88
9 9 90
9 9 88
9 9 90
9 9 88
9 10 93
9 9 87
9 9 90
9 9 91
9 9 91
9 9 90
9 9 88
9 9 91
9 9 91
9 9 92
9 9 91
9 9 91
9 9 89
9 10 94
9 9 88
8 9 86
9 9 89
9 9 91
9 9 87
9 9 90
9 9 88
9 10 94
9 10 93
9 9 85
9 10 93
9 9 86
9 9 89
9 9 92
9 9 89
9 9 89
9 9 88
9 9 90
9 10 93
9 9 86
9 9 91
8 8 82
9 9 89
9 9 88
8 9 86
9 9 87
9 9 89
9 9 91
9 9 91
9 9 92
9 9 90
9 9 87
9 9 91
9 9 91
9 9 90
9 9 88
9 9 90
8 9 83
9 9 87
9 10 93
9 9 92
8 9 86
9 9 89
8 8 84
9 9 88
9 9 88
9 10 92
9 9 88
9 9 89
9 9 86
9 9 87
9 9 87
8 9 84
9 9 88
8 9 85
8 9 86
9 9 91
9 9 86
9 9 88
9 9 90
9 9 91
8 8 84
9 9 86
8 9 85
8 9 84
8 9 85
9 9 89
9 9 90
8 9 85
8 9 84
8 9 86
8 8 83
8 9 84
16 18 88
25 28 86
33 38 90
46 52 99
62 68 109
71 81 116
75 85 119
85 97 129
99 112 139
101 114 143
102 117 145
109 124 152
121 139 164
126 144 169
122 138 162
126 143 167
128 146 170
123 138 161
127 144 169
128 144 169
130 149 173
129 146 170
130 147 171
124 140 164
120 137 161
126 142 166
126 143 167
126 143 168
129 146 170
125 142 166
128 147 171
127 143 166
120 137 161
128 146 171
126 144 168
129 147 172
126 142 165
122 138 162
128 146 170
124 141 164
124 141 165
123 140 164
126 143 166
127 144 167
126 143 166
128 146 170
125 142 166
129 145 168
128 145 168
124 141 165
129 146 170
131 149 173
128 144 167
127 144 168
131 150 173
123 140 164
129 145 168
128 145 170
126 143 167
129 144 168
128 145 169
124 141 165
126 144 167
128 145 169
127 144 169
128 144 167
130 148 171
130 147 171
128 145 169
131 149 172
131 148 171
125 143 167
130 147 171
126 144 167
132 149 173
131 148 172
127 144 167
133 150 173
128 145 169
130 148 172
127 144 168
127 144 167
128 146 170
126 144 166
128 147 171
128 146 172
128 146 169
127 145 168
126 143 167
127 143 166
126 143 168
128 146 169
130 148 171
131 148 172
128 145 167
128 145 168
129 147 171
129 146 170
132 150 175
128 145 169
125 141 164
129 146 170
123 139 164
126 143 165
129 146 169
130 148 171
125 142 166
132 150 174
131 148 172
124 141 164
126 144 168
132 151 174
131 149 173
127 143 167
130 145 168
129 144 166
129 148 173
134 151 174
131 148 172
131 149 174
128 145 168
126 143 166
128 145 169
131 147 170
131 150 174
129 147 171
130 148 171
128 146 170
129 145 168
127 145 167
128 144 166
131 147 170
125 141 164
125 142 166
125 143 167
128 144 167
128 146 170
129 146 170
128 145 168
131 147 169
128 144 166
129 146 170
130 145 167
128 142 164
126 141 164
125 141 164
131 147 170
130 147 171
129 145 167
130 147 171
126 142 164
127 144 167
133 150 174
127 142 165
132 147 170
128 144 166
126 143 166
129 145 168
128 145 168
124 140 164
128 144 167
130 146 169
129 145 168
126 141 163
128 143 165
121 136 158
124 140 162
123 138 160
125 140 163
132 150 173
130 146 169
123 136 157
128 143 165
125 140 162
127 142 165
131 145 167
126 141 164
126 140 161
124 139 162
129 143 164
125 139 161
129 144 166
127 141 162
128 141 162
127 142 165
127 142 164
128 143 165
125 141 163
124 136 157
120 132 152
126 141 161
126 142 164
127 141 161
126 140 162
118 129 149
125 138 158
126 138 157
126 139 159
128 141 163
121 134 156
124 136 156
127 141 162
126 138 158
123 134 153
126 139 159
128 140 161
125 139 160
126 140 160
123 135 154
122 135 155
128 140 159
125 139 160
126 137 156
123 136 157
124 134 152
122 133 151
124 132 149
121 131 150
119 125 142
120 131 150
121 131 148
123 133 151
122 133 151
120 133 153
122 132 150
125 137 155
122 134 153
122 133 151
123 135 154
117 128 145
124 132 147
124 135 153
129 141 160
121 131 148
120 130 147
125 134 151
120 128 144
119 127 144
119 131 148
123 132 150
124 131 147
123 135 154
125 132 148
120 126 141
122 131 148
118 127 145
123 133 149
116 123 137
115 124 140
124 131 145
119 128 143
117 127 143
115 122 136
125 134 151
117 127 145
117 126 143
123 131 147
117 122 136
119 128 144
114 120 134
121 126 141
119 126 141
118 127 142
121 129 145
117 125 139
120 127 142
119 126 141
121 128 145
119 124 138
117 124 138
118 125 140
117 124 139
117 124 139
118 123 138
113 119 132
116 122 137
123 130 146
117 125 139
122 128 143
115 120 133
116 123 139
124 132 148
118 125 141
121 129 144
114 122 136
121 129 145
124 133 149
122 131 148
121 126 138
119 128 144
113 121 137
121 129 145
121 128 145
122 131 148
118 127 143
117 124 141
117 126 141
118 126 143
123 132 149
122 134 151
122 130 146
119 128 146
117 127 143
118 126 140
124 132 148
128 136 152
123 134 152
130 139 156
115 122 137
123 132 147
120 128 146
122 132 151
120 129 146
120 130 146
123 134 152
129 141 160
126 137 154
128 136 153
122 133 150
125 137 158
128 137 156
123 133 151
125 138 158
125 135 154
125 137 156
121 131 147
124 133 150
129 141 159
130 143 163
125 137 156
127 139 159
131 144 163
128 140 159
127 140 161
120 134 152
125 137 155
130 144 165
124 137 155
125 138 157
127 141 161
127 140 160
126 137 155
127 141 163
126 138 157
132 145 166
127 139 158
127 142 162
128 141 160
128 140 161
133 146 167
129 142 163
131 146 167
130 145 166
129 143 165
131 144 165
133 148 171
125 140 161
128 141 161
126 140 160
131 146 168
130 144 165
129 144 164
128 142 161
128 142 162
128 142 163
127 142 162
129 144 165
128 144 166
129 144 166
131 146 168
133 149 171
133 148 169
124 138 158
133 148 169
131 146 168
128 143 164
126 140 159
128 143 165
128 143 164
132 150 174
131 145 166
133 147 169
126 141 162
130 146 168
131 148 171
127 143 164
133 149 170
133 149 170
127 142 162
127 140 161
130 146 168
129 143 165
132 147 169
129 144 164
130 146 167
131 148 169
130 146 169
130 146 169
132 148 171
129 145 168
126 144 167
133 149 171
131 148 172
132 149 171
133 150 172
129 146 168
132 148 169
132 147 169
132 148 170
129 145 166
130 146 168
131 147 168
131 149 171
132 147 170
130 147 169
132 147 170
129 147 170
132 149 172
130 146 169
127 144 166
132 150 172
130 147 171
131 147 170
127 143 165
132 149 171
132 149 171
129 147 170
132 149 172
130 147 171
129 145 167
128 145 167
132 147 169
134 150 173
131 148 172
130 146 169
134 151 175
127 145 168
132 149 172
132 150 173
127 143 165
130 147 171
132 150 172
128 145 169
131 148 171
128 145 168
133 151 175
131 148 171
133 149 171
130 148 169
131 148 172
130 146 167
131 149 172
130 147 169
130 147 169
127 145 167
131 147 170
130 148 171
132 149 171
133 151 174
131 149 171
130 147 169
128 146 168
134 151 172
131 149 166
128 146 163
130 149 164
129 148 157
129 149 165
124 142 148
127 146 151
123 145 141
126 148 142
122 143 139
122 143 135
122 145 128
124 147 134
124 148 127
120 144 117
118 144 99
121 146 113
119 147 97
119 146 97
119 146 100
113 141 83
112 142 71
115 144 76
112 140 74
115 145 68
113 143 58
110 141 54
112 142 56
114 145 50
112 145 51
115 147 51
114 146 50
114 145 50
113 145 50
113 145 50
114 146 51
112 144 49
114 146 50
114 146 50
113 145 50
114 145 50
114 145 50
112 145 50
115 146 50
115 147 50
115 147 50
112 145 50
113 145 50
111 143 49
113 145 50
113 144 50
114 146 50
114 146 50
112 145 50
113 145 49
116 148 51
114 146 51
113 146 50
112 144 50
113 146 50
109 142 49
114 147 50
115 147 51
115 147 51
114 146 50
114 146 50
113 145 50
115 147 51
115 147 51
113 146 50
109 142 48
114 147 50
114 146 51
115 147 51
114 146 50
115 146 50
114 147 50
113 146 50
115 147 50
115 147 51
112 145 49
113 144 49
114 146 50
114 146 50
116 148 51
112 144 50
116 147 51
115 146 50
115 147 50
113 145 50
113 145 50
114 146 50
112 145 50
113 145 50
115 147 51
115 147 50
115 147 51
113 146 50
115 146 50
114 146 50
116 148 51
113 145 50
113 145 50
112 144 50
112 145 50
113 147 50
110 143 51
112 144 51
110 141 51
113 143 51
110 139 55
109 136 54
110 139 54
109 136 56
109 134 57
106 129 58
103 123 62
104 121 63
101 119 62
98 114 60
95 106 67
98 111 64
95 105 66
99 108 67
95 99 70
92 102 66
93 92 73
92 95 68
89 91 68
84 81 68
84 76 72
80 65 76
88 72 80
81 61 78
78 60 73
80 55 80
78 53 77
77 53 75
79 54 77
77 53 77
76 51 74
84 57 84
81 55 82
78 53 77
82 56 82
81 55 81
78 54 76
76 52 75
81 55 81
76 53 75
81 55 81
82 56 82
77 52 76
80 55 79
83 56 83
76 52 74
76 52 73
81 55 81
76 52 76
84 57 83
76 52 74
81 55 81
73 50 73
83 56 83
78 54 79
79 54 78
80 55 78
78 54 79
81 55 81
79 54 78
76 52 76
74 51 72
80 55 80
77 53 78
78 53 78
81 55 80
77 53 77
84 57 85
80 55 81
81 56 81
79 54 80
81 55 81
83 57 83
80 55 80
82 56 82
82 56 82
83 56 83
78 54 79
79 55 81
83 57 84
81 55 80
77 53 78
80 55 81
80 55 80
85 58 86
81 55 82
84 58 86
81 55 83
80 55 79
82 56 83
83 56 83
80 55 80
82 56 82
84 57 86
83 57 85
83 57 84
77 53 78
81 56 81
82 57 83
81 56 83
85 58 86
84 58 85
81 55 82
81 55 81
80 55 82
81 56 84
81 56 82
77 54 79
84 57 86
87 59 88
82 56 83
82 56 83
85 58 87
83 57 85
79 55 82
84 57 86
86 59 87
79 54 81
81 55 83
85 58 86
80 55 81
80 55 82
86 58 87
83 57 84
80 55 83
81 55 82
84 58 86
85 57 86
84 57 86
85 57 86
85 58 87
80 55 82
82 57 85
83 57 85
82 56 84
85 58 86
84 57 86
82 56 84
83 57 86
85 57 87
82 56 84
82 57 84
81 58 86
83 64 89
82 65 88
75 54 78
82 70 90
78 61 83
77 70 88
84 78 97
87 87 104
76 71 87
66 62 74
84 87 102
74 80 93
77 84 97
72 77 87
68 73 85
71 78 89
76 84 94
65 71 81
60 67 76
63 69 79
74 83 94
65 72 82
65 71 80
79 86 97
63 69 79
73 80 92
70 76 87
68 73 83
68 73 83
53 58 67
60 63 72
61 66 75
64 68 77
55 60 69
60 65 74
58 61 70
71 76 87
72 78 88
72 77 87
65 70 80
60 62 71
67 69 81
58 59 68
59 65 74
64 67 76
63 66 77
58 61 70
52 55 63
63 63 74
72 74 85
63 64 74
65 64 76
60 64 72
62 62 73
65 67 79
62 63 74
56 61 69
68 68 80
71 73 83
62 62 74
57 50 62
65 60 70
71 74 86
60 60 71
60 64 73
61 65 74
71 73 84
63 68 79
78 83 95
68 70 81
74 77 90
61 60 70
58 58 69
71 69 81
72 74 87
83 87 100
67 67 80
63 60 73
70 70 84
70 68 80
73 73 86
76 74 89
72 75 88
84 87 101
76 73 87
92 82 101
72 63 78
92 78 99
92 69 92
93 68 92
82 48 72
101 63 93
102 60 92
83 43 73
96 38 73
107 52 89
109 48 89
94 38 73
106 40 82
113 38 87
105 42 81
107 25 76
114 28 85
117 29 86
111 27 82
110 28 82
116 28 85
119 29 87
116 28 85
117 28 85
129 31 93
116 29 86
116 29 88
119 29 88
123 29 89
126 31 94
120 30 90
124 30 90
127 32 95
121 30 90
122 30 90
117 29 89
120 30 89
117 29 88
119 29 87
121 30 89
121 31 90
119 30 89
125 31 92
120 29 88
127 32 95
119 30 89
124 31 92
124 31 93
130 33 97
125 31 93
122 30 91
126 31 93
127 31 95
124 31 93
129 32 96
124 31 93
132 33 99
119 28 86
125 31 92
129 31 95
126 31 94
119 30 89
121 30 90
128 32 96
123 30 91
116 28 86
121 31 91
120 30 89
125 31 94
125 30 90
121 29 89
128 32 94
126 31 93
118 29 87
120 30 90
127 32 96
113 28 85
132 35 96
123 49 98
120 45 96
125 55 103
123 48 99
114 64 102
119 50 96
124 80 117
122 77 113
119 88 121
121 87 121
115 84 114
115 92 121
116 95 123
112 91 120
117 104 131
116 115 139
116 122 145
118 120 143
122 131 153
119 125 148
119 127 149
121 130 154
124 130 153
122 127 151
119 130 153
123 133 155
122 129 153
121 130 152
120 130 153
120 134 156
118 124 147
122 131 155
119 127 150
125 137 160
119 127 150
124 129 153
120 130 154
121 132 155
120 129 151
125 137 161
122 131 155
127 139 163
126 139 162
121 129 153
123 133 155
121 131 155
123 131 155
125 136 160
124 136 158
126 137 161
125 134 157
125 135 159
122 133 157
128 142 166
127 142 166
128 142 166
126 134 159
123 136 158
124 135 159
129 143 168
125 138 162
126 138 162
126 136 160
122 134 157
125 140 163
125 137 161
128 141 163
127 143 167
123 140 162
126 140 163
126 136 161
128 142 164
127 141 165
131 145 170
128 139 163
125 135 159
128 145 167
128 140 164
127 143 167
128 142 167
130 145 169
128 144 167
122 132 154
128 142 166
130 146 169
127 142 165
129 143 167
126 136 161
126 141 164
130 145 169
129 143 167
124 140 163
127 144 168
129 145 167
126 142 166
129 144 170
125 141 164
129 143 167
131 144 169
126 141 164
127 142 165
125 137 160
124 137 161
130 146 169
126 142 165
128 144 167
123 138 161
129 146 170
127 142 165
129 147 171
128 144 167
132 146 170
127 141 164
130 144 168
125 136 159
128 142 166
129 143 168
127 143 167
127 142 164
126 141 164
132 148 172
132 149 173
128 143 165
128 142 165
128 145 166
127 144 166
128 143 166
128 144 167
130 143 167
129 146 169
129 143 167
128 145 167
129 144 167
128 144 168
131 146 170
131 145 170
129 146 170
124 138 160
129 145 167
128 146 168
130 146 170
130 148 170
129 147 171
131 148 171
127 143 166
