P3
1600 1
255
126 142 164
130 142 165
130 142 164
130 142 164
132 139 159
137 137 155
131 136 155
132 135 155
130 128 146
132 132 150
135 130 147
136 125 141
134 119 133
139 119 132
138 120 135
138 116 127
139 123 137
137 117 131
137 118 131
136 112 125
138 120 134
140 110 120
142 111 120
139 108 118
141 108 116
139 107 116
142 95 99
142 98 103
143 103 110
141 100 106
145 92 93
141 94 99
139 102 109
144 99 103
142 102 108
147 83 80
145 93 95
143 87 87
143 95 99
143 87 86
143 90 91
143 86 85
144 83 81
145 78 72
146 82 78
143 81 78
145 95 98
145 88 88
144 83 81
143 80 76
144 83 80
146 89 88
142 83 83
143 84 82
145 77 73
143 90 91
148 81 77
145 79 73
145 82 79
144 79 74
144 88 88
145 89 90
144 85 83
144 86 84
143 84 82
142 86 87
143 91 93
144 85 84
140 93 96
140 96 102
143 99 104
138 100 107
138 99 105
139 108 118
141 99 105
141 99 105
140 101 107
141 112 122
137 113 124
138 108 119
137 110 121
141 117 130
137 116 128
137 112 124
138 118 131
141 124 138
140 126 140
137 123 140
135 126 143
130 129 148
137 125 141
135 136 156
136 136 155
132 131 150
135 142 164
134 139 160
135 140 161
133 142 163
134 145 168
134 146 169
135 147 170
134 148 171
134 149 172
135 153 178
132 150 174
133 152 176
132 151 176
133 152 175
135 153 177
134 151 174
132 150 174
133 151 174
135 153 177
131 150 174
134 152 176
134 151 174
132 150 173
134 152 177
131 149 174
133 151 175
134 152 177
132 150 174
133 151 175
132 150 173
133 151 175
131 149 173
132 151 175
134 153 176
134 152 176
129 147 170
133 150 174
132 150 175
133 150 174
131 149 173
131 148 171
131 149 173
134 152 176
135 154 178
132 151 176
134 152 177
134 151 175
132 150 174
132 149 173
133 150 174
132 151 175
134 153 177
133 151 176
135 153 176
132 150 175
133 151 174
133 152 177
134 152 177
132 150 174
130 148 171
134 152 176
132 150 174
135 153 177
134 152 176
131 150 173
133 151 176
134 153 178
135 153 177
133 151 175
129 146 170
134 152 176
134 152 176
134 152 176
134 152 176
134 152 176
130 147 170
135 153 177
134 153 177
134 153 177
134 153 177
133 152 176
134 151 175
135 152 176
136 155 179
133 150 173
136 154 179
134 152 177
135 153 177
134 151 175
134 153 177
130 147 171
132 149 173
135 152 177
133 150 174
135 153 177
131 149 173
133 151 176
131 148 172
135 154 178
133 150 174
134 152 176
135 153 176
136 154 178
134 152 176
135 153 176
132 150 175
131 149 173
131 149 174
132 150 174
131 149 173
135 153 177
131 148 171
133 151 175
133 150 175
128 146 169
132 149 172
134 152 176
129 146 170
135 154 179
135 153 177
131 150 174
134 152 176
134 152 176
134 152 177
133 152 177
134 153 177
131 149 173
130 148 173
134 153 178
133 151 176
133 151 176
133 152 176
129 148 172
133 152 176
132 150 174
134 152 176
134 153 178
133 151 175
133 150 174
133 151 175
134 150 173
133 151 175
133 151 176
132 150 175
134 152 176
131 148 172
133 151 176
136 153 177
135 153 177
131 150 176
135 153 177
134 152 176
130 148 171
134 152 175
134 152 177
132 150 174
136 155 179
133 152 177
133 152 175
134 152 176
133 152 176
135 153 177
135 153 177
132 151 175
132 149 173
136 155 180
136 154 178
131 148 172
133 150 173
137 155 179
132 150 175
133 151 175
133 151 176
132 151 175
134 151 175
134 153 178
133 151 175
133 150 174
134 152 176
132 150 174
133 151 176
133 152 177
131 148 172
133 151 176
131 150 175
134 152 176
132 150 174
132 150 174
133 150 174
134 153 178
131 150 174
135 153 176
133 152 177
135 154 178
135 154 178
133 151 175
132 149 173
133 151 175
133 152 177
133 151 176
132 151 175
133 151 174
133 151 174
134 152 176
134 151 176
134 151 175
131 149 174
133 151 174
131 148 172
132 151 176
134 152 176
132 149 173
133 151 175
132 151 177
133 151 175
134 152 175
134 153 177
135 153 178
133 151 175
132 149 173
132 151 175
130 148 172
132 150 174
135 153 178
132 149 173
135 154 178
132 150 174
133 152 176
133 150 175
130 148 172
135 153 177
132 150 173
133 151 175
134 153 178
132 150 175
131 149 174
131 150 174
133 152 176
131 150 174
132 151 176
131 148 171
129 147 171
131 148 173
134 152 175
133 151 175
132 150 174
132 150 174
133 151 175
130 148 171
132 150 174
133 151 175
131 150 174
133 152 176
132 149 172
133 151 175
133 152 177
132 150 174
130 148 172
132 151 175
131 149 173
131 148 173
131 148 172
131 149 173
132 150 174
132 151 176
129 147 173
130 149 172
134 152 175
132 150 174
137 154 177
130 147 171
133 151 174
128 146 171
132 151 175
134 152 176
130 148 172
130 147 171
132 150 174
130 147 170
131 149 173
131 150 174
133 152 176
129 145 168
132 150 174
131 148 171
132 150 173
128 145 169
132 149 173
128 145 168
132 151 175
129 147 171
131 149 174
132 150 174
129 146 171
129 147 171
126 143 167
131 149 172
130 148 173
130 148 172
129 146 172
127 145 170
132 149 173
132 150 174
130 147 170
130 147 171
130 147 171
132 151 176
128 145 169
126 143 167
132 149 173
130 149 173
129 146 169
127 145 169
129 146 169
126 144 168
128 145 170
129 147 171
127 144 167
127 145 169
130 149 174
129 145 168
133 151 174
128 145 170
128 147 172
128 147 172
125 143 167
131 147 171
129 147 171
129 146 171
130 148 172
128 146 172
129 148 173
126 144 168
130 148 172
132 149 173
129 146 170
127 145 170
130 148 172
131 149 173
130 146 170
129 147 171
127 145 170
130 148 172
132 149 173
126 143 167
129 146 170
131 149 172
132 150 174
130 147 171
128 146 171
129 147 171
131 149 173
125 142 166
127 143 167
128 146 171
128 146 170
125 142 168
125 141 165
112 127 154
109 123 148
110 125 152
104 117 145
94 107 138
87 99 130
84 95 132
78 88 123
61 68 110
53 61 101
43 49 102
31 36 93
20 23 88
8 8 83
8 9 85
9 9 87
8 8 83
9 9 86
9 9 87
9 9 91
9 9 87
9 9 88
8 9 87
9 9 90
9 9 89
9 9 88
8 9 86
8 8 85
9 9 87
9 9 86
9 10 94
9 9 89
9 9 87
9 9 89
9 9 89
9 9 92
9 9 89
9 10 93
9 9 88
9 9 88
9 9 89
9 9 89
9 9 90
9 9 91
9 9 90
9 9 89
9 9 91
9 9 89
9 9 87
9 9 89
9 9 89
9 9 92
9 9 90
9 9 87
9 9 89
9 9 87
9 9 90
9 9 90
9 9 91
9 9 91
9 9 91
9 9 90
9 9 87
9 9 87
9 9 93
9 9 90
8 9 86
9 9 90
9 9 90
9 9 90
9 9 89
8 9 87
8 8 84
9 9 87
9 9 91
9 9 89
9 9 91
9 9 88
9 9 92
9 9 90
9 9 91
9 9 92
9 9 89
9 9 90
9 9 88
9 9 89
9 9 91
9 9 87
9 9 86
9 9 88
9 9 89
9 9 90
9 9 88
8 9 85
9 9 88
9 9 87
9 9 90
9 9 91
9 9 91
9 9 88
8 8 80
8 9 85
8 9 84
9 9 86
9 9 89
9 9 88
9 9 88
9 9 87
8 9 84
9 9 89
9 9 91
9 9 87
9 9 88
8 9 83
9 9 88
8 9 86
8 9 84
8 8 84
8 9 86
9 9 88
8 9 85
8 9 84
8 8 83
30 35 91
32 36 96
41 47 93
56 63 108
62 71 109
75 84 121
89 100 131
87 98 128
96 110 140
107 122 149
110 126 151
111 126 152
117 134 160
123 141 165
125 142 165
125 142 166
124 140 163
131 149 173
123 139 163
126 143 168
127 145 170
126 143 167
128 145 170
128 145 168
126 143 167
123 140 163
124 140 162
128 145 168
126 143 167
125 143 165
125 142 165
129 148 173
126 142 165
120 137 162
127 145 170
125 142 166
129 146 170
126 142 165
124 140 164
129 147 171
123 139 162
127 144 168
123 141 164
125 141 162
129 147 172
129 146 169
126 144 167
126 144 168
128 145 168
127 144 167
125 142 166
130 146 170
129 146 171
129 147 171
127 144 167
130 147 172
123 140 164
129 146 170
129 146 170
127 143 167
127 142 165
125 142 167
124 141 165
128 145 168
129 146 169
129 146 170
128 146 171
126 143 166
130 147 172
129 146 169
130 147 171
130 146 169
129 147 171
130 148 171
126 144 167
130 146 170
129 146 169
128 144 167
130 146 169
131 147 170
130 147 171
125 142 167
130 147 170
127 144 168
127 144 166
129 148 173
131 149 174
129 146 169
128 146 168
127 144 167
123 138 162
128 146 171
130 147 171
131 149 173
129 146 170
127 143 165
130 147 171
129 146 169
129 146 171
128 146 169
128 146 169
123 139 163
129 146 170
125 141 165
130 147 171
128 145 170
130 148 172
126 143 166
132 151 175
126 141 164
127 144 167
128 146 170
129 147 171
130 148 172
126 143 167
128 145 170
127 144 167
130 148 173
133 150 173
131 149 174
129 147 170
128 145 169
126 142 165
130 148 172
132 148 170
131 149 173
128 145 168
131 149 173
129 147 171
125 141 163
129 146 169
130 145 167
129 146 169
125 141 164
123 139 162
125 142 166
129 144 167
129 147 170
128 145 169
132 149 172
130 146 168
130 146 168
128 145 168
130 147 169
129 144 166
128 144 167
128 144 167
126 141 164
129 147 171
129 146 168
126 143 167
129 145 167
129 144 166
132 149 172
127 143 167
131 147 170
127 143 165
129 146 169
129 146 169
129 145 168
125 139 163
126 143 166
129 145 168
130 146 169
130 145 166
127 142 163
127 142 165
128 142 164
125 141 164
124 141 164
131 148 172
130 145 167
125 139 160
127 141 163
125 139 160
126 142 166
133 148 170
126 140 162
126 138 159
124 139 163
129 143 165
125 140 163
129 140 160
127 141 163
127 139 160
127 142 164
128 144 167
130 145 166
127 142 165
127 141 162
122 135 155
123 136 156
128 141 162
126 140 162
126 141 162
124 138 160
126 137 156
125 139 160
126 140 161
127 141 162
127 142 164
122 135 155
123 136 157
126 138 158
125 139 159
126 139 160
128 142 163
126 137 157
127 141 161
123 135 154
123 134 153
126 138 158
126 141 163
122 134 154
123 135 155
125 134 152
120 131 150
121 130 148
125 136 155
120 128 146
126 137 156
124 136 155
121 132 149
126 138 159
120 130 149
124 134 151
126 138 158
121 132 151
118 127 145
121 133 151
117 126 143
122 130 146
127 137 155
129 141 159
128 140 159
116 124 142
124 134 152
123 134 152
122 133 151
121 128 143
124 136 154
123 132 150
122 130 148
123 131 148
120 130 147
117 124 139
126 134 150
120 129 146
126 135 152
112 116 129
122 130 146
119 128 144
127 137 154
124 135 153
122 131 148
116 124 141
124 133 150
116 121 136
123 133 150
116 124 140
119 127 143
116 125 141
120 126 140
119 126 142
124 131 148
120 129 145
123 130 145
119 127 142
119 127 143
119 124 139
121 131 147
121 129 144
120 128 144
118 126 141
117 124 140
121 127 142
121 127 143
112 118 132
125 130 145
118 126 142
118 126 142
121 128 142
120 130 146
120 129 146
124 131 146
127 133 148
123 131 148
120 127 142
118 126 142
126 135 153
127 136 153
120 130 146
117 123 140
120 129 145
118 126 142
119 127 142
125 132 148
123 133 150
120 130 146
120 129 146
115 123 140
120 130 147
122 133 151
125 138 157
123 129 145
126 138 157
122 130 146
121 128 143
123 132 147
123 134 152
122 133 151
123 134 152
119 127 144
117 128 144
125 137 155
120 131 148
123 134 151
118 127 144
128 140 158
125 138 157
131 143 164
125 136 154
120 131 149
129 140 157
126 139 159
125 137 157
126 137 155
126 139 159
125 136 156
124 135 153
123 135 154
121 133 150
129 141 160
131 144 164
127 140 159
129 142 162
128 142 163
131 144 164
125 135 153
127 140 160
126 139 158
127 140 159
127 143 164
124 135 154
123 137 157
126 140 161
126 138 158
126 139 159
131 146 168
126 137 157
131 144 164
129 139 158
130 145 166
134 148 170
130 145 166
130 145 166
130 146 168
131 146 168
130 145 167
130 146 168
131 143 164
131 147 170
129 145 167
128 142 164
130 144 165
131 147 168
129 144 166
129 143 163
130 144 163
133 146 167
132 146 168
128 143 163
128 144 167
128 144 164
128 143 165
133 149 171
133 151 174
134 150 173
128 142 162
132 147 168
130 145 167
132 148 171
129 144 165
126 139 161
130 144 166
129 146 167
133 149 172
132 147 169
131 147 170
128 144 165
129 145 168
131 148 170
128 143 163
132 148 170
133 149 171
131 146 168
127 140 162
130 147 169
130 145 167
132 148 170
130 145 166
132 148 170
130 147 169
130 147 171
131 147 169
131 148 171
132 148 170
125 141 165
132 148 170
130 147 170
133 149 172
134 151 174
130 147 169
129 145 167
134 150 172
132 147 169
130 146 168
129 145 168
132 149 172
132 149 171
131 148 170
130 145 167
131 147 168
131 148 171
129 146 169
129 144 167
127 144 166
132 148 171
131 149 172
131 147 169
128 144 166
131 147 169
132 149 172
130 148 171
131 148 170
130 146 169
132 149 171
127 143 165
130 146 168
133 150 172
131 147 169
131 147 169
132 150 174
129 145 167
132 150 174
132 150 174
128 145 167
131 148 171
131 147 171
131 148 171
130 148 171
130 147 170
130 145 168
132 150 174
130 147 170
132 150 172
133 150 173
133 150 172
131 147 170
131 148 171
129 147 170
129 146 168
131 149 170
129 147 162
129 147 164
127 147 153
129 149 158
129 150 160
125 145 150
124 145 148
127 149 142
125 148 132
124 146 139
122 145 124
122 146 125
120 144 127
117 142 116
121 145 113
118 145 103
119 145 106
115 143 81
114 141 92
118 146 84
116 144 85
116 146 72
114 143 73
113 143 60
112 143 53
114 146 50
115 147 51
113 145 50
111 142 49
114 145 50
113 144 50
115 147 50
112 143 49
114 146 50
112 143 49
113 145 50
111 143 49
114 146 50
113 145 50
115 146 51
114 146 50
113 145 49
111 143 50
114 146 50
113 145 50
114 146 50
113 145 50
115 146 50
112 144 50
115 146 50
114 146 50
113 145 50
115 146 50
114 146 50
115 147 51
112 145 50
110 143 48
113 145 50
113 145 50
113 145 50
112 145 50
115 147 51
113 146 50
111 144 50
117 148 51
113 146 51
113 146 50
112 145 50
114 146 50
112 145 50
114 146 50
115 147 50
115 147 51
114 146 50
113 146 50
113 146 50
112 145 50
115 148 51
113 145 50
109 141 48
115 148 51
114 146 50
114 147 50
114 147 50
114 146 50
115 148 51
114 147 50
114 146 50
115 147 50
111 143 49
114 146 50
115 147 50
114 146 50
112 145 49
115 147 51
115 147 50
114 146 50
112 145 49
115 147 50
113 146 50
113 144 50
112 145 50
113 145 50
113 146 50
117 149 51
113 145 50
113 146 50
113 145 50
113 145 51
114 147 50
110 141 49
112 142 52
105 131 55
108 134 57
107 135 53
105 133 53
103 127 57
101 122 58
105 124 65
105 120 63
100 117 61
104 122 62
99 115 63
96 106 67
90 94 66
91 95 68
89 92 68
92 96 70
86 82 71
88 83 74
85 75 74
85 74 77
88 82 74
82 66 76
82 73 72
79 61 76
79 59 76
75 52 75
81 55 80
74 51 74
78 53 77
81 56 82
81 55 81
81 55 80
79 54 78
79 54 78
80 54 79
80 55 81
85 58 85
79 53 78
78 53 78
79 54 79
80 55 79
81 55 80
77 53 75
76 52 75
83 57 83
81 56 82
78 53 77
79 54 77
80 55 80
79 53 78
80 55 79
78 53 77
81 55 81
79 54 78
78 53 76
76 52 75
78 53 78
80 55 81
79 55 81
77 53 75
77 53 76
80 55 80
79 55 79
80 55 79
77 53 77
77 54 76
78 53 78
77 53 77
79 54 79
81 55 80
80 55 79
81 55 81
81 56 81
86 59 86
79 54 79
78 54 77
82 56 81
78 54 78
82 56 83
82 56 82
82 56 83
77 54 79
81 55 82
82 56 82
80 55 81
75 52 76
81 56 81
78 54 79
85 59 87
78 53 78
83 57 85
83 57 86
83 57 82
82 56 82
79 54 79
82 56 84
85 57 86
83 57 84
84 57 84
82 56 82
81 56 84
78 54 79
82 56 82
84 58 87
83 57 83
83 56 84
81 56 83
81 55 82
77 54 78
83 57 85
81 56 83
78 54 79
87 59 89
83 56 84
82 56 83
84 57 85
83 57 84
85 58 86
78 54 81
85 58 87
84 58 85
81 55 81
81 56 84
85 58 87
84 57 85
80 55 81
85 57 87
79 54 80
80 54 81
82 56 83
85 58 86
86 58 88
85 58 87
83 57 84
85 57 87
83 57 84
80 55 84
82 56 84
80 54 82
82 56 83
83 58 85
80 60 84
83 66 90
81 64 88
78 65 85
80 72 91
81 73 91
76 70 87
84 82 100
85 82 99
78 75 92
81 83 98
81 86 101
78 84 96
82 90 102
80 88 101
77 84 98
68 70 81
73 80 92
73 78 89
66 72 84
76 82 94
60 65 75
72 81 92
71 77 89
75 84 95
72 80 92
78 86 98
71 74 85
53 57 67
66 71 82
69 75 86
62 66 75
69 74 85
57 61 71
59 64 72
54 55 66
69 75 86
67 72 83
65 71 80
63 68 77
73 81 93
72 77 89
68 74 84
55 56 65
63 66 78
63 65 74
60 66 73
55 56 65
65 67 79
60 61 71
65 65 76
67 64 75
63 65 76
69 66 79
67 63 77
64 68 77
59 61 71
67 70 81
67 69 80
65 65 77
59 58 69
63 66 77
67 70 82
69 70 80
71 68 81
70 74 85
69 74 86
64 65 77
56 57 67
63 62 71
65 67 77
68 71 80
75 74 87
73 71 84
67 67 80
68 73 84
71 73 86
62 57 69
84 86 102
76 77 89
74 69 83
79 79 94
76 75 89
77 79 92
71 64 77
78 76 90
76 68 84
88 78 97
97 66 93
88 63 85
85 58 81
90 63 87
89 62 88
98 55 86
91 49 80
96 62 90
94 47 79
100 48 83
102 45 82
98 33 75
107 43 84
109 36 84
102 36 78
105 24 74
113 28 83
114 32 85
113 28 83
110 26 81
122 29 89
114 27 83
122 30 90
114 28 85
120 29 86
127 31 93
114 28 84
120 30 91
125 30 92
116 29 86
118 29 88
126 31 92
124 31 93
121 29 88
120 30 90
124 31 92
124 31 93
117 29 86
123 31 92
121 29 89
121 30 90
122 30 91
119 30 88
119 29 88
121 30 88
122 29 89
122 30 91
128 32 96
121 29 88
126 32 94
123 29 89
128 32 96
122 30 91
127 32 95
121 30 90
133 33 99
119 29 87
120 29 88
126 31 94
126 31 94
128 32 96
116 28 85
120 30 89
125 31 92
117 29 87
115 28 86
122 31 91
121 30 91
120 30 90
126 31 92
122 30 91
120 35 91
117 32 86
121 33 91
118 42 92
117 54 99
122 49 98
123 60 102
117 50 95
124 68 110
117 74 111
125 74 113
114 73 107
116 93 121
120 84 119
125 99 130
120 100 130
112 87 116
126 111 141
119 111 136
112 108 131
117 107 134
121 114 140
115 125 147
120 129 152
114 118 139
122 133 155
120 130 153
114 119 141
125 136 159
123 127 150
122 125 149
121 131 155
122 134 156
122 131 154
119 125 148
119 131 152
121 133 156
120 127 151
122 130 152
121 128 150
125 137 160
117 121 144
124 131 155
120 131 155
123 133 155
121 129 152
121 134 155
122 134 158
126 136 160
128 142 165
119 129 152
123 133 156
122 133 155
120 128 153
127 140 163
124 137 161
125 136 159
126 136 159
129 135 160
125 135 159
129 143 167
124 138 162
127 142 166
125 137 160
125 136 159
125 136 160
131 144 169
127 141 165
125 135 159
127 136 160
123 134 157
123 133 156
126 138 162
127 139 162
127 142 166
124 139 162
124 137 160
127 137 162
128 142 165
124 136 161
131 144 170
128 142 165
124 133 157
129 146 169
126 139 163
129 144 168
129 141 167
129 145 169
123 139 161
123 135 157
127 140 163
131 146 169
127 138 162
127 144 167
126 137 161
129 142 167
131 148 172
128 142 166
125 142 166
123 138 159
127 144 166
130 146 171
128 144 168
128 142 166
130 140 165
127 143 167
126 141 165
125 140 162
128 142 167
126 139 163
129 146 169
128 144 168
127 142 165
125 140 165
125 141 165
129 144 168
129 145 169
128 141 165
129 144 168
128 143 167
126 138 161
126 138 162
127 140 163
129 145 170
130 143 166
127 142 165
128 144 167
130 146 170
130 147 170
128 144 167
128 145 166
127 142 164
127 145 167
129 145 169
131 146 169
127 142 165
129 145 168
129 144 166
128 141 164
130 146 170
129 143 166
133 148 172
128 143 167
127 144 166
127 143 166
130 147 169
131 148 172
128 145 168
130 147 170
131 147 171
