P3
1600 1
255
140 102 108
139 97 102
143 100 106
140 93 97
142 92 94
143 78 73
147 79 73
144 76 70
139 69 59
148 69 56
145 75 69
145 66 53
144 67 53
149 57 31
146 64 48
146 59 36
148 55 25
148 57 31
146 54 25
148 55 25
148 55 25
148 55 25
148 55 25
150 55 25
146 55 25
148 55 25
147 54 24
147 55 25
148 55 25
146 55 25
148 55 25
148 55 25
148 55 25
148 55 25
146 54 24
147 55 25
149 55 25
149 55 25
148 55 25
147 55 25
148 55 25
148 55 25
149 55 25
146 55 25
148 55 25
148 55 25
147 55 25
149 55 25
148 55 25
148 55 25
147 55 25
147 55 25
148 55 25
148 55 25
146 55 25
148 55 25
147 55 25
146 54 24
149 55 25
148 55 25
147 55 25
149 55 25
145 54 24
148 55 25
146 55 25
148 55 25
146 54 24
145 54 25
147 55 25
146 55 25
147 55 25
148 55 24
147 55 25
144 53 24
149 55 25
146 54 24
144 54 24
145 54 24
147 55 25
146 54 24
147 54 24
145 54 24
146 54 24
144 54 24
145 54 24
143 53 24
146 58 35
147 56 30
142 59 40
143 63 47
143 72 63
141 73 66
141 75 69
143 77 71
143 86 87
142 93 96
141 80 77
140 88 89
145 85 84
141 88 89
140 93 96
134 100 109
140 101 107
140 115 127
139 107 117
137 109 120
136 119 133
134 117 131
135 123 138
137 128 145
137 129 147
134 134 153
135 133 152
130 133 153
132 144 167
135 148 170
134 149 172
134 144 167
134 148 170
132 148 173
129 146 170
133 152 176
133 151 175
131 149 172
132 151 175
131 150 173
129 147 171
131 150 174
134 152 176
133 152 175
134 152 176
131 149 173
132 150 173
132 150 174
132 150 173
129 147 171
131 148 172
132 150 174
131 148 172
134 152 177
131 150 174
134 152 175
133 151 175
133 151 174
133 151 175
133 150 174
131 150 174
134 152 176
131 149 173
135 155 180
133 151 174
134 152 177
133 151 175
134 152 176
130 148 172
133 152 176
134 152 175
133 152 176
133 152 177
133 151 175
130 148 171
133 151 176
135 153 178
133 150 173
131 150 175
133 149 173
132 150 174
136 154 178
134 152 176
135 153 178
132 150 175
133 150 173
133 151 176
132 150 174
135 153 177
133 152 176
133 151 175
135 152 176
134 151 176
135 154 179
129 145 169
134 152 177
135 154 178
134 151 175
134 152 176
132 150 175
127 144 168
132 150 174
129 147 171
134 152 175
132 151 175
134 153 178
132 150 174
131 148 171
135 154 179
132 149 172
135 153 177
137 155 178
135 154 178
134 151 174
132 150 174
132 150 174
132 150 174
134 153 177
130 148 172
133 152 176
133 151 175
133 150 173
133 151 175
129 147 170
130 147 170
133 152 176
129 146 170
133 151 175
134 152 177
133 151 175
134 152 176
133 151 175
136 154 178
133 152 177
134 153 178
133 151 175
132 150 175
134 152 176
134 152 177
132 150 174
132 150 174
132 149 173
131 150 175
133 151 175
133 150 174
137 155 179
133 151 176
132 150 174
134 152 176
132 148 172
130 148 172
133 151 175
133 151 176
132 151 175
133 151 175
132 149 173
134 151 175
133 150 174
131 150 175
133 151 175
132 150 174
133 150 174
133 151 176
133 151 175
135 153 177
136 154 178
134 152 177
132 150 174
133 151 176
134 151 175
134 152 176
134 152 175
132 150 175
133 151 174
136 155 180
134 152 176
131 149 174
134 151 174
136 155 179
132 149 174
134 152 176
133 152 176
133 152 176
133 151 175
131 149 173
133 151 174
133 151 175
131 149 173
132 150 173
132 150 175
133 152 176
133 151 175
131 149 173
134 153 177
131 148 172
130 148 174
132 150 174
134 151 175
132 151 175
130 148 171
136 153 178
134 153 178
132 150 175
132 150 174
131 149 172
132 150 173
133 151 176
134 152 177
133 152 176
131 149 173
131 148 172
132 150 173
134 152 177
133 151 174
133 150 174
136 154 178
128 145 169
132 150 175
133 150 175
132 150 173
132 150 175
132 151 175
132 150 175
134 151 173
129 146 171
134 152 176
133 151 176
132 149 172
133 152 177
129 146 170
133 151 175
131 148 172
135 152 176
132 150 174
134 152 177
133 152 176
133 151 175
131 149 173
131 150 174
133 150 174
133 151 175
132 150 175
133 152 177
133 151 177
130 148 173
132 149 173
131 149 174
132 150 175
131 149 172
131 149 173
127 145 170
131 148 172
132 149 173
131 149 174
132 150 174
135 154 178
127 144 166
131 150 174
130 148 173
131 149 173
133 153 178
133 151 175
129 147 170
131 149 174
131 149 174
131 149 173
131 150 175
129 147 171
133 150 174
128 145 169
133 151 175
130 148 173
133 152 177
130 148 174
129 147 170
131 149 172
132 149 173
128 144 166
127 144 168
130 148 172
128 146 170
132 150 174
135 152 176
128 145 169
128 145 168
129 147 172
131 148 171
132 150 174
129 149 173
130 147 170
126 143 168
131 148 172
134 152 175
130 147 171
130 147 171
126 144 168
130 147 171
128 146 170
130 148 172
129 148 173
131 149 173
127 144 169
128 144 167
128 145 169
125 142 166
129 146 170
127 144 168
127 144 168
129 146 170
131 150 174
125 141 164
127 143 166
131 148 172
131 149 173
125 143 166
127 144 168
129 146 170
125 143 167
129 147 171
123 139 163
127 144 168
131 149 173
125 142 165
130 148 172
129 147 172
127 144 168
129 146 170
125 141 165
126 143 168
125 143 168
129 147 172
123 140 163
132 148 172
130 147 170
129 147 171
126 143 168
129 147 172
126 144 169
127 144 168
123 139 163
123 141 166
125 142 165
124 141 166
125 142 166
123 139 163
128 145 169
127 144 169
121 137 162
129 145 168
126 143 166
127 144 169
123 140 164
124 142 165
124 140 163
122 138 161
126 143 168
125 142 165
126 143 168
119 135 159
123 139 163
122 138 162
130 147 171
123 139 163
123 140 163
121 137 161
123 140 163
126 143 167
125 144 168
124 141 165
121 138 161
119 136 160
124 141 165
119 134 158
118 134 157
122 139 163
114 129 153
102 117 142
96 109 137
100 114 141
85 96 127
89 102 131
87 99 127
80 90 122
60 68 105
58 66 103
59 66 102
49 56 99
37 42 90
20 23 82
22 24 84
8 8 79
8 8 81
8 8 83
8 9 84
8 8 83
8 8 83
8 8 82
8 9 87
8 8 80
8 8 77
8 8 82
9 9 87
8 9 85
8 8 82
8 9 85
8 8 82
8 8 82
8 8 81
9 9 84
8 9 85
8 8 84
8 8 83
8 8 84
8 9 85
8 8 82
9 9 91
8 9 86
8 8 83
9 9 87
9 9 87
9 9 88
8 8 83
8 8 83
8 9 86
8 9 86
9 9 86
8 8 79
8 8 83
8 8 82
8 8 81
8 9 84
8 8 84
8 9 85
8 9 85
9 9 86
9 9 88
8 8 84
8 9 84
9 9 90
8 9 84
9 9 88
8 8 82
8 8 78
8 8 79
8 9 85
8 8 82
8 9 84
9 9 86
8 8 80
8 9 87
8 8 84
9 9 86
8 8 81
8 8 83
8 8 81
9 9 87
8 8 81
8 8 82
8 8 82
8 8 79
8 8 82
8 9 85
8 8 83
8 9 84
8 9 87
8 8 80
8 9 84
8 8 83
8 8 83
8 8 80
8 8 80
8 8 81
8 8 80
8 8 82
8 9 83
8 8 79
7 8 76
29 32 86
22 25 78
53 59 99
39 43 90
61 69 103
49 56 96
67 76 113
70 80 112
85 95 123
91 102 131
92 105 135
92 105 131
98 110 136
106 120 146
108 122 146
111 126 150
112 127 150
123 139 162
119 133 156
118 134 158
116 132 156
126 143 167
123 139 161
121 136 159
122 139 162
121 137 160
114 129 152
117 132 157
124 141 164
115 131 154
124 141 166
121 137 161
119 136 160
122 140 164
116 132 155
119 135 158
122 137 160
122 139 163
122 139 163
118 134 158
122 140 161
119 135 158
122 138 161
122 138 161
121 139 162
125 140 160
123 139 162
124 139 162
124 142 166
124 141 165
128 145 168
121 138 162
120 137 161
128 145 169
124 139 162
121 139 161
120 137 162
124 141 164
123 140 164
126 143 166
126 143 167
124 140 163
127 144 168
123 140 164
122 139 162
124 140 164
123 139 163
125 141 165
128 145 169
124 141 166
120 137 162
125 141 164
127 144 169
123 139 162
122 139 162
124 141 164
129 146 170
123 140 163
128 145 168
122 138 162
121 138 161
131 149 173
128 147 172
128 145 169
122 138 161
123 140 163
121 137 159
127 144 168
126 142 165
127 144 168
129 147 171
122 138 161
127 144 167
125 142 166
125 142 164
126 144 168
128 146 169
127 144 168
128 145 167
126 143 167
127 144 167
128 146 170
125 143 167
129 148 173
129 147 171
125 141 164
130 147 172
132 150 174
131 149 172
127 144 169
125 142 166
128 145 168
128 146 172
132 149 174
130 148 174
131 150 174
126 144 168
129 145 168
128 145 170
130 148 172
130 148 173
128 145 169
130 147 170
130 147 171
129 145 168
126 143 167
129 146 170
134 151 175
125 141 166
126 143 167
127 145 168
129 145 167
129 145 169
131 148 172
129 145 167
129 146 170
127 144 168
129 146 169
129 145 169
132 149 172
126 142 164
129 144 167
128 146 169
129 147 172
129 147 172
131 148 172
130 148 171
132 149 173
129 146 170
131 147 171
130 147 170
129 146 171
132 149 172
130 147 171
133 150 174
131 149 172
127 144 168
130 149 174
128 144 168
129 146 170
131 149 173
132 150 174
128 142 164
124 141 165
132 149 173
128 144 166
129 147 170
125 142 165
134 152 176
131 146 167
127 143 166
128 146 170
130 146 170
128 145 168
128 145 169
131 148 172
130 147 169
128 144 167
131 147 170
129 145 170
132 149 173
130 147 170
130 146 169
127 142 165
130 148 171
130 147 170
131 148 171
132 149 173
129 146 169
128 144 167
130 145 167
127 143 166
127 142 164
132 148 171
127 143 166
128 144 167
129 145 169
129 142 162
130 145 168
129 145 167
131 147 170
129 144 166
127 143 165
131 147 169
130 144 166
128 143 165
130 145 167
127 143 165
135 150 173
130 147 170
130 147 170
129 143 164
130 145 169
129 144 164
130 145 168
129 144 167
127 143 166
132 148 170
130 144 165
129 143 164
125 140 162
130 145 166
128 143 164
127 142 163
128 141 162
125 137 159
130 146 168
124 138 160
126 139 160
126 140 161
129 143 165
127 143 164
129 145 168
130 145 167
130 142 163
126 141 162
131 146 168
130 146 169
130 142 162
130 145 167
129 145 169
128 143 164
131 148 169
130 146 168
128 141 161
126 142 164
129 143 164
128 143 165
129 141 161
126 140 162
130 144 164
129 144 165
128 142 163
134 148 170
131 147 168
131 148 171
127 139 160
130 145 165
130 144 165
130 146 169
131 144 165
127 141 161
130 143 164
132 145 165
132 145 166
129 143 164
133 148 170
132 148 170
129 141 161
130 144 164
130 145 166
130 145 166
126 140 161
126 141 162
132 144 164
129 143 163
127 139 159
131 147 169
131 146 166
130 145 166
127 141 162
129 145 167
129 144 165
128 142 163
129 145 168
131 145 166
125 137 156
129 143 164
127 141 162
130 143 165
125 139 161
131 146 169
130 144 165
132 147 170
130 143 165
130 143 163
130 146 167
128 141 161
130 144 165
126 140 159
129 144 165
130 146 167
131 146 168
129 145 166
131 144 165
131 146 168
127 142 164
129 145 167
124 138 159
129 144 164
130 145 167
128 143 164
127 143 163
132 146 167
129 144 165
127 142 162
130 141 160
132 146 169
129 143 163
125 141 162
128 144 166
127 139 159
129 143 164
130 146 167
127 140 159
130 144 165
129 145 167
130 145 168
131 146 167
126 140 162
132 145 165
132 145 165
130 143 165
132 146 168
132 147 168
130 147 168
129 145 165
129 143 163
132 147 169
130 145 166
132 147 169
130 146 169
130 145 166
132 147 169
129 145 167
128 143 165
124 138 159
130 143 165
130 144 165
126 139 159
130 144 166
128 141 161
128 142 163
129 145 167
128 142 164
130 146 168
129 145 167
131 144 165
129 145 167
127 143 163
132 148 170
127 143 164
133 149 170
130 145 168
135 151 174
132 148 170
128 144 166
129 145 167
128 143 165
131 146 167
130 145 167
130 146 168
131 148 170
129 144 165
130 145 166
126 140 161
132 147 169
132 149 172
131 146 168
130 146 168
131 147 168
132 147 169
127 141 161
129 146 168
132 147 170
131 147 171
127 143 165
132 147 168
132 149 171
131 147 168
131 147 171
130 146 167
133 150 174
133 150 173
130 147 169
131 147 169
131 149 171
132 148 171
132 150 172
133 149 172
132 150 174
135 151 174
133 150 174
133 150 174
131 147 171
133 150 174
130 147 171
130 147 170
128 145 167
127 144 166
131 147 170
132 149 171
130 145 166
132 148 170
131 146 168
133 149 172
131 148 170
133 150 173
129 146 168
129 144 166
132 149 173
131 149 171
134 151 174
132 150 172
132 149 172
131 147 170
131 148 171
129 146 168
131 148 171
128 144 166
130 147 169
131 148 172
132 150 174
132 148 171
128 145 167
131 147 170
130 147 169
135 152 175
127 143 165
134 151 174
132 149 172
128 143 166
129 144 166
132 150 174
128 144 166
132 149 171
132 147 169
131 147 170
132 149 173
132 148 170
131 146 169
133 149 172
132 149 173
128 144 166
128 145 169
133 150 173
131 148 172
130 148 171
131 150 172
129 147 170
128 144 167
131 147 170
133 150 173
127 143 165
126 143 163
130 149 166
129 149 160
130 149 161
123 142 147
124 144 145
122 141 143
125 147 144
124 145 140
125 146 147
120 142 127
122 144 132
121 145 115
117 140 108
114 138 95
116 143 94
115 142 89
117 146 80
114 142 86
112 142 69
112 140 60
111 141 51
112 143 52
112 143 49
110 140 48
109 140 48
113 143 49
111 142 49
111 141 48
109 140 48
112 141 48
112 142 49
112 142 49
110 141 48
108 139 48
109 138 48
109 139 48
114 145 50
111 142 49
107 138 47
113 143 49
110 142 49
111 143 49
111 141 49
110 142 48
112 144 49
110 141 48
110 140 48
110 140 48
108 140 49
112 143 49
112 144 49
112 144 49
109 140 47
113 145 50
112 144 49
109 141 48
113 145 50
109 140 48
112 143 49
111 142 48
111 143 49
112 144 49
114 145 50
109 142 48
113 145 49
110 143 49
111 143 49
110 142 48
111 143 49
111 143 49
110 141 48
109 141 48
111 144 49
111 144 49
114 147 50
109 142 48
109 142 48
109 141 48
113 145 50
109 142 48
110 142 49
110 143 49
105 137 46
106 138 47
113 145 50
113 145 50
113 145 50
112 144 50
110 142 49
113 145 49
113 145 50
112 145 49
108 140 48
110 142 48
114 145 50
111 143 49
110 143 48
111 144 49
110 143 48
110 142 48
110 142 48
112 145 49
110 143 49
106 139 47
110 142 48
112 144 49
112 145 49
108 141 48
111 143 49
110 142 49
112 144 49
111 144 49
111 143 49
110 142 48
112 144 49
109 141 48
113 146 49
111 143 49
113 145 50
109 141 47
111 143 49
113 144 49
113 145 50
114 146 50
110 143 49
107 140 47
111 143 49
111 144 49
114 146 50
109 142 48
108 139 47
110 143 48
106 139 47
112 144 49
107 139 48
107 136 50
106 135 50
108 136 49
103 131 50
107 132 55
93 113 52
104 125 58
96 114 59
101 118 58
94 107 60
98 110 65
96 107 63
92 101 65
90 94 67
86 86 67
87 88 68
85 80 71
80 74 67
86 75 74
81 68 72
74 57 70
75 50 73
74 51 72
69 47 67
74 50 72
71 49 67
72 50 70
69 48 67
77 52 76
76 52 75
77 52 77
76 52 75
76 52 75
75 52 73
73 50 73
72 49 71
75 51 75
74 51 72
78 53 77
74 51 73
78 54 77
74 51 74
79 54 80
76 52 74
76 52 75
78 53 77
75 52 74
78 53 77
78 53 78
75 51 74
76 52 75
78 54 77
74 51 74
74 51 73
76 52 75
78 53 78
83 57 83
77 53 76
77 53 78
78 54 78
76 52 76
77 53 76
78 53 77
75 52 75
76 53 75
80 54 81
78 53 77
74 51 76
74 51 73
81 55 81
77 53 79
76 52 77
80 55 79
78 53 78
78 54 79
75 52 76
79 54 80
79 54 78
79 54 79
81 55 82
75 52 76
79 54 80
77 53 78
76 52 76
79 54 79
76 52 76
75 52 75
82 56 82
78 53 79
79 54 80
77 53 78
81 56 82
81 55 82
79 54 80
76 53 77
77 53 78
78 54 79
79 55 80
79 54 79
80 54 81
81 55 83
78 53 79
77 54 79
76 53 78
73 51 74
79 54 81
80 55 82
80 55 82
78 54 80
78 54 79
79 54 81
78 54 79
76 53 78
81 55 82
84 57 85
76 53 78
79 55 81
81 55 83
77 53 79
79 54 82
75 51 77
81 55 82
82 56 84
80 54 82
78 53 79
78 54 80
80 56 82
82 62 86
80 60 86
87 74 97
84 68 90
89 73 97
93 89 110
94 92 112
92 88 109
100 103 123
94 95 115
103 111 130
102 109 128
96 104 123
103 114 133
105 119 138
105 117 137
105 117 136
97 108 126
97 108 126
99 109 126
104 112 132
99 104 123
105 117 137
96 106 123
88 96 112
102 111 129
104 114 134
101 110 127
82 87 103
99 108 126
93 103 121
99 108 126
99 104 123
99 106 123
99 109 127
95 102 119
104 113 132
100 106 126
97 101 118
94 101 118
95 100 118
92 97 114
90 96 113
87 93 111
96 101 119
91 97 113
90 95 111
89 99 116
85 87 103
92 98 114
84 91 106
93 95 113
90 90 108
85 84 102
88 93 109
93 99 114
94 100 117
78 82 95
86 90 107
91 98 115
88 84 102
87 90 107
89 91 107
82 90 103
85 85 101
83 83 99
91 91 107
91 94 111
92 95 112
82 76 93
89 84 103
86 83 98
85 82 99
90 86 104
92 93 110
83 80 95
75 75 90
91 92 106
79 72 88
89 87 103
88 82 100
71 58 73
82 80 96
88 87 103
77 76 90
82 81 96
80 78 91
78 68 85
87 88 102
66 58 71
85 79 93
74 60 75
78 67 82
71 59 73
76 64 79
72 68 79
77 65 83
81 69 85
71 65 78
79 71 85
71 56 70
72 59 75
84 74 89
75 65 78
62 51 63
76 66 80
65 54 66
74 65 78
81 75 89
79 62 78
68 54 67
70 58 69
78 58 73
77 59 73
77 57 74
77 60 76
66 46 60
76 56 72
79 63 78
88 61 83
75 43 65
70 40 59
87 58 79
80 51 70
75 38 61
73 40 60
78 53 69
78 48 69
89 54 76
85 32 63
82 43 68
86 55 76
73 41 60
87 56 77
87 43 69
86 53 76
92 47 77
83 55 75
81 37 66
94 71 91
94 56 82
82 47 70
85 50 74
77 49 69
90 60 84
87 56 78
94 67 89
91 58 82
87 55 78
87 69 89
97 74 95
93 73 93
95 77 98
93 75 95
99 89 108
91 75 95
107 95 116
100 84 106
96 79 98
102 88 109
97 92 109
103 95 115
99 92 111
104 103 121
105 102 122
102 98 117
105 101 120
102 96 116
97 88 108
108 106 126
109 106 126
102 100 118
109 111 129
104 102 122
109 104 125
110 108 128
109 107 130
112 113 134
109 106 128
112 110 132
109 104 126
109 113 133
115 118 138
108 109 130
107 109 129
113 113 136
116 120 141
113 117 138
115 118 139
114 119 141
114 115 137
121 125 147
111 115 136
118 119 141
117 122 146
113 114 136
111 116 135
114 114 138
117 125 147
116 119 141
120 128 151
122 129 151
118 124 145
123 126 150
119 126 149
117 124 146
118 124 148
117 123 144
117 123 147
124 130 153
127 137 160
121 126 150
117 123 146
116 121 143
119 126 150
121 130 154
121 129 152
121 130 154
122 131 155
119 125 148
125 138 160
119 127 151
124 136 159
124 133 157
123 134 157
126 137 162
122 133 156
127 138 161
119 125 148
118 128 151
124 137 161
127 139 162
127 138 161
128 139 163
124 137 161
125 138 160
126 136 160
123 131 154
125 136 159
127 141 164
123 132 155
124 135 157
124 137 159
125 136 159
129 146 169
127 139 164
126 140 163
118 131 152
126 138 162
130 143 167
126 141 164
125 136 158
120 130 153
129 141 166
129 144 167
125 140 162
122 138 161
127 140 163
127 143 166
127 143 167
128 142 166
126 141 163
124 133 157
123 139 161
127 144 167
126 137 161
128 145 168
125 140 163
123 139 162
129 144 168
124 138 162
128 144 169
130 144 168
128 142 165
130 145 170
131 144 169
131 146 170
127 141 164
125 141 163
126 141 164
126 141 164
126 143 166
131 144 168
126 139 162
130 146 170
129 148 172
131 147 171
128 143 166
130 149 171
128 144 167
126 140 164
129 144 166
131 146 170
126 143 165
126 140 164
126 144 167
129 142 166
128 145 168
127 140 165
127 145 167
131 148 171
128 142 166
126 141 164
127 145 167
127 141 164
127 146 168
129 146 169
128 143 166
126 142 166
130 145 168
