P3
1600 1
255
147 58 35
146 54 25
148 55 24
147 55 25
148 55 25
144 54 24
145 54 24
148 55 25
145 54 24
148 55 24
149 55 25
143 53 24
146 54 24
149 55 25
147 55 24
147 55 25
148 55 25
146 54 25
145 54 24
148 55 25
148 55 25
149 55 25
146 54 24
150 55 25
146 55 24
148 55 25
146 54 24
147 55 25
149 55 25
145 54 24
148 55 25
149 55 25
147 54 24
146 55 24
148 55 25
148 55 25
148 55 24
146 55 24
149 55 25
146 55 25
145 54 24
149 55 25
145 54 24
147 55 25
146 54 24
149 55 25
148 55 25
145 54 24
145 54 24
147 54 24
147 55 25
147 55 25
147 55 25
146 54 24
147 55 25
146 54 24
144 54 24
146 54 24
149 55 25
147 55 25
146 54 24
145 54 24
149 55 25
146 54 24
147 55 25
144 54 24
145 54 24
147 55 25
146 54 24
147 55 24
149 55 24
145 54 24
147 54 24
147 55 25
146 54 24
144 54 24
147 55 25
147 55 25
146 54 24
148 55 25
142 53 24
144 54 24
145 54 24
145 54 24
141 52 24
146 54 24
146 54 24
141 53 24
143 53 24
146 54 24
141 52 24
142 53 24
145 54 24
145 54 24
144 53 24
146 54 24
147 54 24
144 54 24
144 53 24
138 51 23
141 52 23
145 56 30
138 56 34
145 59 40
142 63 46
142 69 58
137 72 67
142 73 65
138 80 79
141 87 89
142 81 78
139 93 98
138 99 105
137 106 115
138 102 110
134 115 128
139 118 131
134 121 135
137 125 141
133 126 144
134 130 149
136 130 148
132 137 157
134 144 165
135 135 153
131 143 166
133 144 165
134 150 173
132 148 171
132 151 174
130 146 170
131 149 172
135 153 176
129 147 171
132 148 171
129 147 172
131 150 174
132 150 173
132 151 176
135 153 177
134 151 175
132 149 173
131 148 171
135 152 176
130 149 174
133 152 176
132 150 174
133 151 175
135 153 178
134 152 176
132 150 174
133 152 176
134 153 177
131 148 172
133 151 175
135 153 178
132 148 171
133 151 175
132 149 173
131 148 171
135 154 180
136 154 178
132 149 174
130 149 173
132 149 173
137 155 179
134 152 177
135 154 179
131 149 173
133 150 174
132 150 174
133 151 176
136 154 178
135 154 178
132 151 176
132 150 173
131 150 174
132 150 174
130 146 169
132 151 175
135 153 176
133 151 175
132 149 173
133 151 176
129 147 171
133 151 175
131 149 174
134 151 174
133 151 175
136 155 180
131 148 173
132 149 172
136 155 179
132 149 172
135 152 176
136 154 178
136 155 179
133 151 174
132 150 173
133 151 175
130 148 171
134 153 177
131 149 172
133 151 175
135 152 176
133 150 174
135 154 179
132 149 172
132 150 174
136 154 178
132 150 174
132 150 173
134 152 176
132 151 175
132 150 175
135 152 175
133 151 175
132 151 176
133 151 176
132 151 175
134 152 175
135 152 176
134 152 177
132 150 174
132 149 174
131 149 174
132 151 175
132 150 173
133 150 174
135 153 178
133 150 174
131 149 173
133 151 176
131 148 171
134 153 177
133 151 175
133 152 176
132 150 175
132 150 173
133 151 175
132 150 174
131 148 172
134 153 177
131 149 174
132 151 176
130 148 172
134 152 176
133 152 176
134 152 175
136 155 179
132 149 173
133 151 175
132 150 175
133 151 174
132 149 173
135 152 176
134 152 176
133 151 175
135 154 179
136 154 178
131 149 174
133 151 175
133 150 175
133 151 175
132 150 175
134 153 177
131 149 173
132 150 174
132 150 175
134 151 175
133 151 175
134 152 176
129 147 171
133 151 175
134 153 178
131 148 173
132 150 174
134 152 177
134 152 176
132 150 175
129 147 171
132 150 174
133 151 176
130 147 171
136 154 177
134 153 178
131 149 174
132 149 174
132 151 176
134 152 176
133 152 176
132 150 174
134 153 177
136 153 177
131 148 172
132 150 174
134 152 177
134 152 176
132 149 173
135 153 177
132 148 172
129 147 171
132 151 175
130 149 173
132 150 174
132 150 175
130 149 175
132 150 173
132 149 174
134 152 176
135 153 177
132 150 174
134 153 177
129 146 171
131 149 172
131 149 173
132 150 174
132 149 173
134 153 178
134 151 174
131 150 175
131 149 173
130 148 173
132 151 175
134 151 175
132 150 175
133 152 177
131 149 174
133 151 176
129 145 168
132 150 175
130 149 173
130 149 173
128 145 170
130 149 173
129 147 170
132 150 174
132 149 173
132 150 175
135 153 178
127 144 167
130 148 173
130 147 171
130 148 171
134 153 178
134 153 177
126 144 167
131 149 174
129 146 171
127 146 170
131 150 174
132 151 175
132 149 173
132 149 174
130 149 173
128 146 171
128 145 169
132 150 175
125 144 168
128 146 169
130 148 172
132 149 171
127 144 168
130 147 172
130 147 171
131 149 173
132 150 174
124 141 165
127 143 167
130 148 173
131 149 173
131 148 173
130 148 173
130 147 170
127 144 168
130 148 172
133 151 174
130 147 171
129 146 170
124 142 167
127 143 167
131 149 173
126 143 167
129 147 172
129 147 172
127 144 168
127 144 168
125 142 166
127 145 169
128 145 169
126 144 167
126 144 168
126 142 166
127 145 170
125 141 163
130 147 171
128 145 168
126 143 168
125 141 165
127 144 169
127 144 168
126 143 167
126 143 166
128 145 169
128 145 169
123 140 164
125 143 166
124 140 165
127 145 169
126 144 169
123 138 161
120 136 161
126 144 168
125 142 166
124 140 163
129 146 170
127 144 168
130 149 173
123 140 164
127 145 169
128 146 170
123 140 163
127 145 169
124 139 163
123 140 163
125 142 166
119 135 160
120 138 161
119 136 161
118 135 158
123 140 163
130 147 172
123 139 161
119 135 158
125 142 167
121 138 161
124 141 165
123 140 164
123 139 162
122 139 163
119 135 157
120 135 158
119 136 161
118 133 156
115 130 153
121 138 162
117 133 156
119 134 157
118 134 157
119 136 159
118 133 156
119 136 160
117 134 157
113 127 150
124 141 166
113 129 152
110 125 148
117 132 155
116 131 155
119 134 157
118 134 157
118 134 157
110 125 148
116 132 157
109 125 148
109 125 148
113 128 151
109 124 147
115 129 152
114 130 153
102 115 136
109 122 145
99 111 135
86 97 120
96 109 134
86 98 124
81 92 120
86 96 122
85 96 123
72 83 116
66 75 105
64 72 103
54 61 93
51 57 97
51 57 96
47 53 94
29 32 81
20 21 78
26 29 82
17 19 82
14 17 74
8 8 79
7 8 75
7 7 74
7 8 77
8 8 80
8 8 81
7 8 77
7 7 75
7 7 74
8 8 78
8 8 78
8 8 79
8 8 80
7 7 70
7 7 75
8 8 79
8 8 82
7 8 77
7 7 70
8 8 77
8 8 78
8 8 79
8 8 79
8 8 80
8 8 79
8 8 78
8 8 77
8 8 81
7 7 74
8 8 80
8 8 81
8 8 81
7 8 77
7 7 74
8 8 81
7 8 77
8 8 80
8 8 79
8 8 78
8 8 81
7 7 76
7 8 78
7 8 76
7 8 76
7 8 77
8 8 78
7 7 73
7 7 75
7 7 72
8 8 79
7 8 74
8 8 78
8 8 79
7 7 73
7 7 73
8 8 77
7 7 71
20 23 75
15 17 74
28 32 82
25 28 79
39 43 84
38 44 85
50 57 90
47 53 90
56 63 98
50 55 93
62 70 98
59 66 97
62 69 98
77 86 113
91 103 130
92 102 126
78 89 116
89 100 125
99 110 133
96 108 130
100 113 137
106 120 141
114 129 151
114 128 151
103 116 135
107 121 144
107 121 142
105 118 140
111 126 148
115 131 154
120 137 160
109 124 146
105 120 142
115 130 151
107 122 144
116 131 153
110 125 148
112 126 149
114 129 151
113 127 149
114 129 152
118 133 154
114 129 150
117 132 155
116 132 155
117 132 154
107 120 142
115 130 153
119 135 159
117 134 157
116 132 156
117 132 155
115 130 153
116 131 154
123 138 161
118 133 155
117 134 156
119 134 157
114 129 153
114 130 154
119 134 157
117 132 156
121 138 162
116 130 152
121 136 160
122 138 160
124 140 162
120 135 157
118 134 157
119 136 159
120 135 159
120 136 159
119 135 158
124 140 163
121 138 163
118 136 158
122 137 159
121 136 160
117 133 156
118 135 157
122 139 161
128 145 169
126 142 164
120 136 160
126 143 167
122 139 163
119 135 159
128 145 168
121 138 161
125 142 165
123 140 163
121 137 162
127 145 168
117 133 157
126 144 168
124 140 163
123 139 163
130 148 171
127 144 167
128 146 170
125 142 166
124 141 165
127 145 170
124 141 164
126 144 169
129 146 171
127 143 166
124 141 164
126 143 168
127 144 168
125 142 165
128 145 169
128 145 168
130 147 171
125 143 167
124 140 165
130 147 170
125 143 166
129 146 170
128 146 168
126 143 164
125 142 165
128 146 170
124 140 164
129 147 171
125 141 164
126 142 167
130 146 170
130 147 172
127 144 167
128 144 168
126 143 166
132 149 172
127 144 169
129 146 170
130 148 172
131 148 171
128 146 170
130 148 171
130 147 170
127 144 168
131 148 172
129 145 169
129 147 172
127 144 168
128 147 172
131 148 171
130 146 171
129 146 170
130 148 172
126 144 168
130 147 171
124 140 164
129 145 168
130 147 170
129 146 171
128 146 170
125 142 166
128 145 169
125 142 167
128 145 169
131 148 172
130 148 172
127 143 168
131 148 172
130 147 171
131 147 170
132 151 176
128 145 169
130 147 172
131 149 173
132 149 172
132 150 174
127 145 169
124 140 164
134 151 174
130 147 171
132 150 174
130 149 173
130 147 170
128 145 168
130 147 171
129 145 168
130 148 172
128 145 168
132 150 173
130 148 173
130 146 170
129 145 167
130 146 171
133 150 174
129 145 168
131 147 170
127 144 167
130 147 170
129 144 166
132 150 175
129 145 168
130 145 168
132 149 173
131 148 172
129 146 171
126 142 164
133 151 174
130 146 170
132 148 170
130 147 171
128 146 170
131 149 174
133 150 173
131 149 172
130 145 168
133 149 172
130 147 170
129 144 167
128 144 167
131 148 172
130 147 171
131 148 172
130 146 170
128 143 166
127 142 164
133 150 174
131 147 171
128 145 169
127 143 167
133 149 173
134 150 173
130 146 168
130 145 168
132 147 170
134 151 175
131 148 170
130 147 169
132 149 172
132 148 171
133 150 173
129 145 167
130 148 170
127 144 166
130 146 169
132 148 171
127 142 166
133 150 174
126 142 164
134 151 175
132 148 171
131 147 170
134 151 175
128 145 170
135 151 174
131 147 170
131 147 170
132 148 170
133 149 172
130 147 171
133 150 173
132 149 172
133 150 174
132 148 171
132 149 172
129 145 168
133 150 174
133 149 172
132 149 172
128 145 169
130 148 169
132 148 171
130 147 171
129 144 168
131 148 170
129 144 167
129 145 166
134 149 172
130 145 167
133 151 174
133 150 173
131 146 169
130 145 167
129 146 169
132 147 170
133 148 170
131 146 169
132 148 171
130 147 171
129 145 168
133 148 172
129 145 169
129 145 167
132 147 169
134 151 174
127 142 165
131 149 173
132 147 169
132 148 170
133 147 169
131 147 170
126 140 162
132 148 171
130 146 168
130 144 166
129 144 167
131 148 172
133 149 172
132 148 171
130 146 167
129 145 167
131 148 172
135 151 174
129 143 165
133 150 173
133 149 172
130 146 168
130 146 169
128 144 166
134 151 173
131 148 169
130 143 163
132 149 171
133 148 171
131 147 169
131 147 170
130 146 167
132 146 167
132 148 170
130 145 166
131 146 169
130 145 167
132 148 171
129 145 168
128 143 164
133 148 170
131 146 168
128 143 166
130 145 167
132 148 170
129 146 169
131 147 168
133 151 173
131 147 170
132 148 172
130 146 169
132 147 170
130 146 167
133 148 171
130 147 169
132 149 173
132 148 169
127 142 164
134 149 171
131 147 170
127 140 161
130 147 170
134 149 172
132 147 169
133 148 170
131 146 168
134 150 173
131 148 172
129 143 165
133 148 170
132 149 171
130 146 167
131 148 171
129 147 169
129 146 170
132 148 171
131 148 171
132 148 171
131 147 169
132 149 171
129 144 167
130 146 168
131 147 170
130 146 168
133 149 172
131 149 172
131 147 169
131 146 168
134 150 173
131 148 170
131 148 170
129 146 169
132 148 170
129 146 168
131 148 171
131 146 167
129 147 170
131 147 170
130 146 167
132 148 171
130 145 167
134 150 173
130 147 170
130 146 168
128 144 168
131 148 171
134 152 175
134 151 173
132 148 172
131 148 172
132 149 171
131 149 172
134 151 174
132 149 173
134 150 173
134 152 176
130 147 169
133 151 175
133 149 172
133 151 173
131 148 172
127 144 167
130 146 170
132 149 173
131 146 168
129 145 167
132 147 169
130 146 169
133 148 169
129 147 169
133 150 173
131 148 171
129 145 168
133 150 173
129 147 169
132 150 173
130 146 168
130 147 170
131 148 170
131 148 171
130 147 170
132 150 173
133 149 172
132 149 172
131 148 170
133 150 174
134 151 175
133 150 173
131 147 170
132 149 171
130 147 168
132 149 171
132 149 173
135 152 175
130 144 166
132 148 171
132 148 171
132 150 174
127 142 163
133 150 173
129 145 166
129 147 169
132 149 171
131 147 169
130 147 169
133 151 176
132 149 172
127 143 167
133 150 173
130 148 173
133 150 174
127 144 166
130 148 172
129 147 169
130 146 169
134 151 175
134 151 174
127 143 165
131 148 171
132 148 171
132 150 173
132 149 171
130 148 167
131 149 166
129 147 162
129 147 165
130 148 164
126 144 156
124 143 150
124 146 138
123 145 133
118 139 127
120 143 127
119 142 121
116 140 106
113 139 102
117 141 111
115 141 92
114 141 81
110 137 70
113 141 64
110 138 59
111 142 52
109 138 47
109 140 48
109 138 48
108 139 48
109 139 47
108 137 47
112 142 49
106 135 46
111 142 49
110 139 48
108 138 47
111 141 48
109 139 48
105 136 47
108 138 47
108 139 47
107 137 47
111 141 48
110 141 48
108 139 47
107 138 47
108 140 48
109 140 48
111 142 48
109 140 48
111 142 48
108 140 48
110 140 48
106 138 47
107 138 47
106 137 46
107 138 47
108 139 47
109 141 48
109 140 48
110 141 48
109 141 48
109 140 48
109 140 47
110 142 48
103 135 45
113 144 49
108 140 47
113 145 49
105 136 47
107 139 47
111 143 48
109 141 48
110 142 48
109 142 48
105 138 47
108 140 47
106 139 47
110 143 48
103 136 46
107 140 47
104 137 46
109 142 48
110 144 49
110 142 48
112 145 49
104 137 46
108 141 48
109 142 48
108 140 48
109 141 48
107 140 47
110 143 49
105 138 46
108 140 47
105 138 46
107 141 47
107 140 47
104 137 46
112 144 50
107 139 47
106 139 47
109 141 47
109 142 48
106 139 47
111 144 49
109 142 48
107 138 46
110 143 48
109 141 48
109 141 48
103 136 46
108 140 47
109 142 48
109 142 48
109 141 48
108 141 47
110 142 48
110 143 48
112 144 50
111 143 48
105 138 47
108 141 48
107 139 47
107 139 47
110 142 48
107 140 47
105 139 46
108 141 48
107 139 47
111 142 48
107 139 46
105 138 46
108 140 47
107 140 47
108 141 47
109 140 48
108 139 47
109 141 48
106 138 46
108 140 48
112 142 48
108 140 48
111 143 49
109 142 48
107 139 47
112 144 49
111 142 48
110 141 48
103 133 46
109 140 48
114 145 50
107 137 47
110 142 48
108 137 50
106 134 52
102 129 51
103 129 51
103 124 55
102 124 54
102 123 57
95 109 59
92 106 60
89 98 62
88 95 66
86 93 60
86 93 63
83 84 62
81 76 67
81 73 67
78 70 67
75 61 68
70 58 62
71 54 67
70 48 68
74 51 73
69 48 68
73 51 72
73 51 73
75 52 74
69 48 67
70 49 68
69 47 67
71 48 69
81 55 81
70 49 69
72 50 70
68 47 66
73 51 73
71 49 72
70 48 70
74 51 73
71 50 71
72 49 71
72 50 72
72 50 71
70 48 67
76 53 77
76 52 75
78 53 78
72 49 70
77 52 76
72 49 71
72 50 72
68 48 68
71 49 71
79 54 78
74 51 73
75 51 75
73 51 74
76 52 76
75 52 75
77 53 77
75 52 77
73 51 73
73 51 73
77 53 77
76 52 75
72 50 70
77 53 78
76 52 76
77 53 78
76 52 77
73 51 73
73 51 75
79 54 80
73 50 74
73 50 73
73 51 73
74 51 75
76 52 75
78 53 79
79 54 80
80 54 82
75 52 76
76 53 77
75 52 76
75 52 76
78 53 79
78 53 79
77 53 78
76 53 76
80 54 80
74 51 76
76 52 77
78 54 78
75 52 75
72 50 73
79 54 81
78 54 80
78 53 80
74 51 76
75 51 76
75 52 77
80 54 81
76 53 78
80 54 81
77 53 79
77 52 78
83 56 84
79 54 80
75 51 77
82 55 83
74 52 77
82 55 82
73 50 75
76 51 77
76 52 78
80 54 81
80 54 82
79 54 80
83 55 83
78 57 82
80 60 84
88 76 98
88 81 104
92 83 105
94 93 114
92 91 112
93 90 112
101 106 128
107 113 136
109 118 139
108 116 139
117 128 151
115 126 148
112 125 145
110 121 142
111 122 145
114 123 146
110 119 139
113 123 145
115 126 148
113 121 144
110 119 140
115 126 148
117 125 148
113 122 143
110 119 140
111 121 141
118 129 150
110 117 138
109 117 137
119 130 153
110 118 138
110 116 138
101 106 125
115 121 143
111 117 137
112 120 140
106 116 137
108 119 139
113 117 139
110 117 138
117 128 150
112 121 142
109 118 139
106 115 136
104 112 132
108 115 136
106 115 134
104 114 134
111 119 140
101 106 125
108 112 134
104 112 132
101 107 126
107 110 132
115 122 144
104 111 131
110 116 136
104 109 130
107 114 135
102 107 127
100 97 118
104 106 126
103 109 129
97 97 116
101 101 120
107 111 132
99 96 116
104 104 125
101 100 121
100 97 117
102 103 123
103 105 125
105 108 130
100 104 123
104 109 127
94 95 113
93 85 105
107 107 128
98 98 117
99 95 116
89 84 101
102 97 117
103 102 121
92 91 108
93 90 109
93 86 105
107 109 128
92 89 107
93 91 108
97 93 111
88 77 95
89 82 100
87 79 97
93 90 108
100 95 115
99 99 117
97 84 105
93 85 104
96 91 111
86 80 97
94 89 107
93 87 106
99 98 115
90 88 103
86 75 92
99 93 111
88 77 95
89 84 100
91 81 99
83 75 90
92 86 103
87 78 95
85 74 91
85 76 92
85 76 92
82 74 89
88 76 94
83 69 85
84 74 92
75 71 81
89 77 94
80 66 82
79 71 84
77 64 78
81 72 86
85 81 95
86 74 89
85 80 94
82 72 86
79 66 81
77 63 79
87 78 92
89 79 95
86 80 95
85 74 90
90 81 96
83 76 89
82 64 82
89 76 93
87 82 97
88 79 96
93 88 104
83 76 90
81 71 86
81 72 86
87 74 90
95 79 100
95 85 103
90 80 96
94 82 101
91 83 98
94 86 103
92 79 96
89 76 93
93 80 100
94 90 106
98 93 111
87 77 94
96 92 109
100 91 109
97 92 108
89 75 95
99 89 107
99 92 111
103 103 120
108 105 125
98 95 111
102 91 110
105 101 121
103 97 116
99 92 111
108 107 126
101 94 114
107 108 129
108 109 128
111 114 134
110 107 127
110 110 130
108 104 125
114 109 131
103 97 118
115 120 140
116 117 139
111 106 128
113 118 139
110 110 131
113 117 138
114 119 138
115 114 137
111 113 133
113 119 140
114 116 138
118 121 144
112 110 133
115 116 138
111 111 131
118 122 143
121 126 148
115 119 140
114 118 138
119 124 147
114 118 140
124 131 155
113 119 141
118 120 143
119 126 149
118 124 148
121 124 148
117 119 142
121 126 149
119 129 151
119 123 147
120 128 148
120 124 146
120 129 151
117 122 144
116 124 146
123 127 152
125 136 158
122 133 156
123 131 154
123 133 157
124 133 156
125 135 158
123 130 155
125 134 157
118 127 148
120 129 152
124 134 157
122 134 157
122 132 155
129 143 166
121 127 150
121 130 153
123 136 159
128 137 161
128 139 163
125 134 158
125 133 156
123 132 154
114 124 146
122 130 153
127 143 166
126 142 166
124 132 156
123 136 159
124 134 157
126 137 161
122 131 153
122 131 154
127 139 162
124 140 163
124 140 162
126 138 161
128 140 165
126 136 160
124 139 161
122 136 159
128 142 166
125 138 161
128 139 163
126 141 163
128 143 166
129 140 164
128 143 165
126 141 164
124 140 162
124 136 160
128 145 168
127 139 162
127 139 162
124 138 161
125 140 164
123 138 160
125 138 162
124 140 160
127 143 166
129 146 169
127 143 166
126 138 161
123 137 160
127 142 165
127 144 168
131 149 173
129 146 168
128 143 166
126 142 166
126 141 165
126 139 162
130 145 168
128 145 168
124 137 160
126 142 165
129 144 167
129 147 170
125 139 162
128 145 169
128 143 165
129 146 170
129 145 169
128 143 167
128 144 167
129 142 167
125 142 164
124 143 164
127 143 166
123 140 162
127 146 169
124 141 164
