P3
1600 1
255
147 55 24
145 54 25
148 55 24
147 55 25
148 55 25
144 54 24
147 54 24
147 55 24
146 55 25
146 54 24
148 55 25
143 53 24
146 54 24
148 55 25
147 54 24
148 55 25
148 55 25
148 55 25
146 54 24
147 55 25
146 55 25
149 55 25
146 54 24
151 55 25
147 54 24
146 55 25
146 54 24
147 55 24
149 55 25
143 53 24
148 55 25
148 55 25
147 54 24
146 55 24
148 55 25
148 55 25
149 55 25
146 54 24
147 54 24
148 55 25
143 54 24
149 55 25
144 53 24
148 55 25
147 55 25
149 55 25
148 55 25
146 54 24
145 54 24
147 54 24
146 54 25
147 55 25
148 55 25
145 54 24
147 55 25
145 54 24
145 54 24
145 54 24
148 55 25
148 55 25
147 54 24
146 54 24
149 55 25
144 54 24
146 54 24
145 54 24
145 54 24
147 55 25
145 54 24
145 54 24
148 55 24
147 55 24
145 53 24
148 55 25
142 53 24
144 54 24
147 55 25
144 54 24
146 54 24
148 55 24
145 54 24
142 53 24
145 54 24
145 54 24
142 53 24
146 54 24
145 54 24
140 53 23
145 54 24
143 53 24
143 53 24
145 54 24
146 54 24
146 54 24
145 54 24
146 54 24
145 54 24
144 53 24
142 52 24
140 52 23
145 53 24
142 53 24
144 53 24
139 52 23
141 54 29
139 58 39
140 56 34
141 65 53
142 67 57
142 67 56
142 81 78
142 86 87
137 95 99
141 96 101
138 101 108
139 105 113
137 104 113
139 111 122
137 121 135
135 123 140
135 119 133
132 127 144
132 132 150
133 131 149
133 135 155
136 134 152
136 146 168
133 144 166
134 150 173
132 148 171
132 149 172
132 150 174
133 150 174
130 147 171
130 148 173
133 152 176
129 147 170
134 153 177
133 151 175
134 151 175
130 147 172
132 150 173
131 148 171
133 151 175
129 148 174
133 152 175
132 151 175
135 155 179
133 150 174
132 149 173
133 151 176
134 152 177
130 148 172
134 153 177
134 152 176
133 151 174
134 152 176
135 152 175
130 147 171
132 151 176
135 153 178
132 150 173
130 148 173
132 149 172
135 154 179
134 152 176
136 154 179
133 151 175
132 150 173
134 152 176
130 148 172
136 154 178
137 155 180
133 152 177
131 149 174
132 150 173
130 148 172
132 149 172
133 152 176
134 153 177
133 150 174
133 150 175
133 151 175
130 148 173
132 149 173
134 152 176
134 152 175
132 149 173
134 152 176
134 152 177
132 149 172
134 153 176
132 150 174
135 153 176
134 151 175
136 154 178
134 152 176
133 151 175
133 150 174
131 148 172
130 147 172
134 152 176
132 150 174
133 151 175
132 150 173
136 153 178
133 152 176
130 148 171
134 152 176
135 154 178
131 149 173
133 151 175
134 152 176
129 148 173
135 152 176
133 151 176
133 151 175
133 152 177
132 151 176
135 153 177
133 151 175
135 152 177
134 152 176
132 150 174
133 151 175
131 149 172
134 153 177
131 149 172
133 151 176
133 152 176
133 151 176
132 149 174
134 152 176
134 151 174
134 152 177
132 150 175
132 150 175
133 151 175
132 149 173
134 152 176
129 146 170
135 153 176
131 150 175
133 151 175
133 151 175
130 148 172
135 153 177
134 151 176
136 153 177
136 154 178
133 150 175
135 153 178
130 148 173
135 153 176
132 149 173
133 152 176
135 153 177
133 152 176
136 154 179
133 151 176
135 153 177
134 152 175
134 152 176
129 148 173
135 152 176
130 149 174
132 151 176
133 152 176
132 149 174
133 150 174
134 152 176
133 151 175
131 149 173
132 151 176
134 153 177
133 152 176
131 149 173
135 153 178
133 150 174
130 149 174
130 146 170
132 150 175
128 146 170
134 152 176
135 153 178
132 151 175
132 150 174
134 152 176
130 148 173
133 151 175
134 152 177
133 151 175
136 154 179
129 148 171
132 149 173
135 154 178
132 150 175
135 153 177
131 149 173
132 149 173
132 150 174
130 148 173
131 150 174
132 149 173
131 149 173
132 151 176
131 148 171
130 147 172
133 151 175
136 155 179
133 152 175
134 151 176
129 147 171
132 149 172
132 150 174
128 145 169
132 149 172
133 152 177
132 150 174
132 151 175
129 147 171
129 148 172
134 152 176
134 152 175
131 149 174
133 152 176
133 151 175
130 148 173
129 145 168
129 148 172
132 150 174
132 150 174
129 146 170
130 148 173
130 147 171
131 149 173
131 149 173
131 149 173
134 153 178
128 145 169
132 149 173
129 146 170
130 147 171
134 153 178
133 151 175
130 148 171
131 150 174
129 147 172
128 146 171
131 149 174
131 150 174
132 149 173
132 149 174
131 149 173
130 148 173
129 146 170
131 149 173
126 145 169
127 144 168
130 148 172
131 147 169
126 143 168
131 148 172
130 148 172
130 148 172
133 150 175
127 144 169
127 144 167
128 146 171
131 149 172
132 150 175
130 149 173
130 147 171
126 143 168
131 150 174
132 150 172
130 146 170
129 147 171
125 142 166
127 144 169
130 148 172
125 142 166
128 146 170
130 148 172
124 141 166
124 141 165
126 143 168
125 142 167
126 143 167
127 144 168
127 145 169
129 146 170
130 147 171
125 141 164
127 145 169
130 147 170
123 141 165
126 144 168
128 144 168
126 144 168
126 144 169
128 145 168
126 143 167
125 142 166
127 144 168
123 141 164
124 141 166
123 140 165
125 143 168
124 139 163
120 137 161
125 142 166
125 142 167
120 135 158
128 145 169
126 142 165
127 145 169
122 139 163
125 142 167
128 146 170
121 138 162
128 146 170
123 139 162
124 141 164
124 141 165
120 136 160
116 133 156
120 137 161
121 138 162
127 143 166
126 144 168
121 137 160
116 132 156
122 139 163
116 132 156
122 139 163
121 138 162
120 137 161
118 134 158
122 138 161
121 138 162
118 133 156
114 130 153
114 129 152
121 138 162
118 133 157
118 133 156
123 139 163
116 131 153
117 134 157
118 134 157
112 127 149
116 132 156
120 137 160
106 120 143
116 131 154
113 129 153
113 128 150
118 134 158
117 133 155
113 128 151
114 130 155
115 130 153
108 123 146
108 123 146
110 126 149
114 128 150
114 130 153
111 125 146
108 122 144
112 126 149
107 120 142
100 114 136
101 114 138
94 107 131
100 111 136
83 93 117
86 96 121
95 107 134
81 91 119
78 88 115
75 84 109
55 62 98
63 71 104
72 81 109
57 65 97
66 76 107
49 54 90
39 44 84
39 43 82
34 38 80
21 23 80
21 23 76
25 28 79
7 8 76
7 7 72
7 7 75
7 7 74
7 8 75
7 8 76
7 7 76
7 7 74
7 7 73
7 7 73
7 7 70
7 8 76
7 7 73
8 8 78
8 8 81
8 8 77
8 8 78
8 8 77
7 7 74
7 8 76
8 8 78
8 8 77
7 8 76
8 8 78
8 8 82
7 7 75
8 8 76
7 8 77
8 8 79
8 8 79
7 8 78
7 8 77
7 8 75
8 8 78
7 8 76
8 8 78
8 8 79
7 8 78
7 7 74
7 7 74
7 8 76
7 7 71
8 8 78
7 7 73
8 8 78
7 8 76
7 7 70
7 8 75
7 8 75
6 6 67
22 25 75
25 28 78
28 31 79
35 39 86
38 42 80
44 50 85
36 38 80
48 54 89
52 59 93
44 52 82
64 72 101
55 61 91
60 67 98
74 83 109
85 95 119
74 82 108
67 75 103
95 108 131
96 108 129
88 100 122
87 99 120
98 111 132
104 117 139
106 119 140
112 127 149
101 114 134
107 121 143
110 125 147
108 123 144
114 129 151
105 118 140
110 124 146
108 122 143
107 122 144
103 117 139
106 121 144
112 126 149
112 126 148
111 126 148
108 120 140
112 127 148
113 127 150
117 133 156
111 125 147
99 111 132
115 131 154
114 129 152
115 130 152
104 118 140
112 127 149
115 131 154
113 127 148
112 125 147
112 128 151
116 132 154
114 130 152
117 133 156
115 132 154
121 136 159
114 130 154
114 128 151
118 133 155
116 132 154
122 138 160
118 132 155
118 133 156
118 134 156
117 134 156
113 128 152
116 132 155
121 136 159
120 136 159
115 132 154
121 137 160
122 137 160
117 133 156
116 131 154
121 138 162
129 145 168
118 134 157
120 136 159
122 139 162
121 138 162
120 137 160
119 136 159
124 141 164
124 141 165
120 136 161
121 137 160
120 135 158
127 144 169
120 135 158
124 140 164
127 145 169
126 143 166
127 143 167
123 140 165
123 139 162
125 143 167
123 141 165
121 137 160
124 141 166
124 140 164
121 138 162
122 139 164
126 143 167
127 144 167
123 140 165
127 145 168
129 147 171
126 143 167
127 144 167
129 147 171
125 142 166
128 144 167
125 142 166
124 141 163
126 143 166
128 147 172
125 142 166
128 146 171
125 141 165
126 143 167
122 138 161
129 146 170
130 147 172
128 144 168
126 142 165
131 148 172
128 146 171
126 143 166
129 147 172
127 144 168
128 145 169
129 147 170
129 146 169
130 148 172
130 148 172
127 145 168
126 143 167
128 146 170
126 143 166
128 145 169
130 146 171
130 147 171
129 147 171
129 147 170
127 145 169
124 140 163
124 140 164
126 142 166
127 144 168
126 143 168
126 142 167
129 146 170
126 141 166
127 143 166
127 144 168
131 148 172
129 146 171
128 145 169
130 147 171
129 146 169
132 150 175
130 148 172
128 145 170
129 147 171
132 150 174
131 148 173
126 144 168
124 141 165
132 148 172
129 147 171
132 151 175
131 150 175
129 146 170
129 147 170
128 145 169
129 145 169
132 149 173
127 143 166
131 149 172
131 148 173
132 148 171
125 140 163
128 145 168
133 150 174
131 146 169
132 149 171
126 144 168
131 147 170
133 150 173
135 153 177
128 144 168
130 147 170
129 146 170
133 151 175
128 145 169
128 145 168
132 149 171
132 149 172
133 151 174
133 150 174
129 146 169
130 149 174
132 149 173
132 150 174
134 150 173
132 148 171
131 148 171
131 149 173
130 145 167
130 147 170
134 151 175
132 149 173
132 149 173
131 148 172
127 143 165
127 143 165
132 150 173
133 149 171
132 148 172
126 143 166
133 149 173
132 148 172
131 148 170
130 145 168
132 149 172
134 151 174
131 149 172
129 147 169
132 148 172
134 151 174
133 150 173
129 146 170
132 148 170
127 144 168
132 148 171
133 149 173
128 143 166
133 151 175
132 148 171
132 149 172
130 147 170
131 148 171
133 150 174
128 145 169
133 150 175
134 150 173
131 146 169
133 149 172
134 151 175
130 145 167
131 148 171
134 152 176
132 149 173
130 148 172
133 149 173
132 148 171
130 146 168
136 154 178
133 149 172
129 146 169
132 149 172
129 146 168
131 149 173
130 147 170
130 146 168
131 148 171
136 152 174
130 146 169
129 145 168
132 148 170
131 148 172
134 151 173
129 146 169
132 147 170
130 147 170
133 149 172
132 148 172
132 148 170
131 147 169
134 149 172
129 145 168
135 152 176
129 146 170
130 147 169
133 150 174
130 146 169
131 147 171
130 147 170
133 150 174
128 145 168
132 148 170
132 149 172
130 147 170
132 146 169
131 148 170
135 150 172
130 144 167
133 149 173
134 150 173
130 146 168
132 149 172
132 148 170
130 144 166
132 149 173
131 146 169
131 147 169
133 150 174
130 146 169
130 147 169
129 146 169
132 148 171
133 150 173
127 142 163
132 148 170
129 145 167
131 147 170
132 147 170
130 147 170
133 148 170
133 148 170
131 146 167
130 146 170
130 145 168
131 147 169
129 145 167
128 144 166
129 144 165
132 148 171
134 149 169
129 145 167
133 148 170
133 149 172
131 148 171
133 149 170
134 152 175
131 147 170
131 147 170
130 147 170
133 149 172
131 147 169
133 149 171
132 149 172
129 147 169
131 147 169
132 146 168
132 147 169
132 148 171
130 145 166
131 148 171
132 147 169
132 147 169
132 147 169
133 149 171
133 150 174
131 148 170
128 143 164
135 151 174
131 148 171
133 149 170
132 149 172
128 146 167
130 147 170
131 148 171
132 149 172
131 148 170
128 147 170
130 147 170
132 148 170
131 146 169
131 144 167
130 146 169
132 149 173
131 148 172
131 147 168
132 147 169
132 149 172
132 149 170
131 147 169
128 145 167
132 147 169
132 149 172
129 146 168
129 143 164
134 151 175
131 148 171
130 146 168
131 146 169
132 146 168
133 150 173
131 148 170
128 145 166
129 145 168
132 149 172
134 152 174
135 152 176
132 150 173
132 149 172
132 149 172
131 148 171
136 153 176
132 149 173
134 150 172
133 151 175
132 148 170
132 149 173
133 151 174
135 152 175
132 149 172
128 143 165
129 147 170
130 147 172
132 148 171
131 146 169
132 147 169
128 144 167
134 150 172
132 149 172
129 146 169
135 152 176
129 146 169
130 145 167
129 145 167
131 149 172
133 150 174
129 146 169
132 150 173
131 147 170
131 149 172
129 146 169
132 150 174
132 148 171
133 149 172
129 146 168
133 150 173
133 149 173
135 153 176
130 147 170
131 147 170
133 150 173
132 149 172
135 151 173
130 146 169
130 147 171
131 147 169
132 149 171
131 149 173
130 146 168
133 149 172
131 147 170
128 146 169
130 147 170
131 147 170
132 148 170
133 151 175
130 147 170
128 146 169
132 150 173
130 149 173
134 151 175
126 144 165
129 147 171
129 147 169
132 149 171
134 152 175
134 152 176
130 145 166
131 148 172
132 150 173
132 150 172
132 150 173
131 149 172
133 151 173
131 148 168
129 146 168
129 147 167
130 147 165
129 146 162
126 145 153
127 146 151
123 142 139
123 143 138
120 141 130
120 143 120
121 146 118
121 144 120
118 142 113
119 143 112
115 142 86
111 137 79
111 136 82
113 141 75
112 140 65
112 142 58
107 135 47
109 139 48
108 137 47
107 135 47
110 141 48
106 135 46
108 139 47
109 139 48
106 135 46
107 137 47
108 137 47
106 136 47
107 136 47
109 141 48
106 137 47
113 143 49
106 136 46
107 139 47
110 140 48
106 136 46
109 140 48
113 144 49
111 142 49
111 141 48
106 137 47
108 139 48
106 137 47
105 135 46
111 142 48
107 137 47
106 137 46
110 141 48
111 142 48
108 139 47
106 138 47
110 141 48
109 141 48
106 139 47
107 138 47
107 138 47
109 141 47
111 143 48
102 134 45
106 138 47
112 143 49
109 140 48
106 139 47
109 140 48
104 137 46
110 142 49
106 138 46
109 141 48
105 137 47
103 136 46
106 139 47
108 141 48
110 142 48
110 142 49
109 141 48
104 137 46
108 141 48
108 141 48
104 137 46
107 139 47
110 143 49
106 139 47
105 137 46
108 141 47
107 140 47
104 138 46
107 140 48
108 141 48
108 141 48
107 139 47
102 136 45
109 141 47
105 138 47
110 142 48
110 143 48
108 140 47
107 140 47
109 141 48
110 142 48
103 136 46
106 139 47
109 142 48
106 138 47
107 141 47
100 135 44
105 138 46
110 143 48
114 145 50
107 140 47
107 141 47
111 143 49
104 137 46
108 140 47
111 143 49
109 141 47
105 138 46
109 142 48
107 139 47
111 143 48
102 136 45
105 139 47
108 140 47
105 138 46
103 137 46
110 141 48
108 140 47
108 140 47
107 139 47
107 139 46
109 142 48
106 138 47
109 141 48
109 142 48
106 138 47
112 144 49
111 142 49
110 142 48
104 136 46
110 142 48
114 145 50
108 139 47
109 142 48
107 139 47
109 140 47
108 140 47
111 141 48
107 139 47
106 136 48
112 142 50
110 138 50
106 133 54
103 129 53
97 119 54
98 120 54
97 113 61
96 112 59
91 100 62
93 106 58
89 97 62
83 89 59
87 90 64
84 93 58
82 88 57
78 73 63
76 68 66
81 74 67
73 55 69
77 55 75
76 52 76
70 49 68
69 47 66
70 49 68
74 50 72
73 50 71
79 53 79
69 47 68
70 48 68
67 46 63
74 51 73
66 46 66
67 47 66
74 51 74
73 50 72
73 50 72
73 50 72
72 49 70
72 49 70
73 50 73
72 50 71
75 51 75
72 49 71
75 51 74
70 49 70
66 46 65
71 49 72
71 49 71
75 52 75
70 48 69
75 52 76
75 52 76
75 51 76
74 51 74
76 52 77
73 50 73
75 52 75
74 51 73
73 50 75
75 52 76
74 51 74
72 50 72
77 53 78
75 51 75
75 51 74
76 53 77
73 51 75
75 51 76
74 51 75
71 50 72
71 50 71
73 50 72
80 56 80
75 52 76
79 54 79
77 53 78
73 51 74
74 51 74
70 48 70
74 51 75
78 53 79
74 51 75
76 53 76
74 50 74
72 50 73
75 52 77
77 53 77
69 48 70
75 52 76
78 53 80
73 50 75
77 53 79
76 51 77
78 53 79
81 55 82
77 53 78
76 52 77
79 54 81
73 51 74
81 55 83
78 54 80
76 51 78
77 53 79
80 54 81
78 53 79
79 53 80
80 55 82
73 51 76
76 51 77
79 54 79
80 54 81
78 53 79
80 54 81
80 55 81
78 54 79
76 53 78
78 54 79
82 61 86
82 62 86
83 65 89
88 77 100
99 94 118
102 104 126
106 107 130
105 109 132
110 117 138
104 110 131
111 119 140
112 121 143
116 130 152
110 122 143
117 129 151
113 124 146
113 124 145
115 128 149
115 128 149
105 115 137
124 138 161
112 124 145
112 120 141
117 129 151
116 127 148
116 128 149
115 127 148
106 116 137
120 132 155
115 124 146
115 127 148
115 124 144
108 115 137
111 121 142
117 128 149
107 114 135
118 130 152
107 113 134
115 125 147
108 116 136
117 123 145
112 122 143
116 128 150
112 120 142
111 121 142
113 122 143
106 108 129
112 121 143
109 118 138
113 124 145
108 114 135
113 119 141
107 119 140
112 122 144
105 111 131
109 114 135
103 107 126
109 118 138
109 117 138
109 117 139
102 100 122
112 120 141
100 98 119
105 112 132
107 108 129
106 109 129
108 112 133
106 113 133
105 105 126
106 110 130
104 105 126
103 104 125
105 110 129
111 115 137
109 109 131
103 102 124
108 114 133
103 105 125
100 101 121
102 103 124
112 116 137
101 100 119
102 104 124
100 102 121
96 93 111
97 96 116
102 102 121
98 96 116
103 96 117
107 108 127
102 102 122
95 91 111
98 95 115
94 91 109
96 93 111
93 84 102
98 90 110
97 87 107
101 99 118
99 95 114
102 99 119
97 89 109
103 98 119
99 91 112
95 88 108
98 88 108
99 97 114
95 86 106
87 77 96
98 91 109
90 81 99
93 87 104
89 78 97
93 86 103
88 76 96
91 84 100
90 78 96
85 71 89
92 86 102
85 72 89
88 79 95
95 92 109
91 82 100
90 84 100
87 75 93
80 74 89
93 84 102
85 71 89
88 76 93
81 67 82
92 81 99
85 70 88
87 77 95
91 82 99
95 89 107
86 71 87
83 71 88
94 83 100
89 83 100
94 84 102
94 90 106
88 80 96
85 76 92
82 75 90
98 86 105
88 76 95
91 85 101
87 79 95
91 85 102
100 95 111
88 73 90
92 83 100
98 91 110
88 73 91
100 90 110
97 86 105
111 110 129
98 90 107
106 101 121
96 86 105
97 91 110
98 90 110
100 91 109
105 96 117
97 90 110
100 90 108
99 93 112
101 96 115
106 101 121
106 98 119
102 95 115
107 104 125
112 111 133
104 101 121
107 106 126
108 106 128
116 119 140
102 101 119
109 105 126
108 104 123
110 105 127
109 111 130
108 108 129
112 108 130
111 113 134
111 109 131
107 104 126
114 117 139
111 112 133
111 110 129
113 113 135
109 106 128
116 120 143
112 110 132
111 113 135
121 126 149
120 120 144
111 113 134
117 122 143
117 121 143
118 122 145
114 122 143
121 125 148
114 113 135
119 126 148
121 128 150
116 114 137
120 129 151
117 122 144
113 120 141
117 121 142
119 118 142
120 125 147
120 130 152
120 126 148
124 134 157
121 128 151
124 135 158
121 130 155
123 132 155
122 128 151
124 132 157
126 134 158
123 133 155
118 124 147
121 129 152
121 129 153
120 131 154
122 131 154
123 135 158
122 127 150
123 131 154
124 132 155
124 134 157
125 136 160
127 141 163
125 136 160
124 134 158
127 138 161
124 135 158
124 136 157
123 131 155
127 136 160
122 133 156
124 132 156
126 138 161
124 136 160
124 134 158
129 142 165
126 140 163
125 136 160
124 136 159
130 145 170
130 144 167
125 136 160
129 142 166
124 133 156
122 128 152
125 138 160
126 139 163
123 137 160
129 140 165
127 140 165
124 138 159
124 137 159
124 135 157
122 130 152
125 136 160
130 143 167
127 145 169
126 141 163
126 141 165
129 142 166
128 145 168
125 139 162
122 135 157
127 142 166
125 140 163
126 141 165
129 148 170
128 143 166
129 142 166
127 144 166
128 143 165
128 142 166
127 140 163
126 140 164
131 148 171
127 139 161
129 145 168
128 142 166
127 144 166
127 143 167
128 144 169
126 142 163
128 143 167
126 144 166
129 142 166
127 145 168
124 141 163
126 144 167
127 146 169
132 149 173
129 146 168
128 142 166
122 136 159
127 144 167
127 142 164
128 142 166
128 142 165
129 145 167
