P3
1600 1
255
144 53 24
146 54 24
145 54 24
146 54 24
143 53 24
146 54 24
145 53 24
145 54 24
144 53 24
146 54 24
146 54 24
146 54 24
143 53 24
146 54 24
149 55 25
144 53 24
145 54 24
145 54 24
149 55 24
147 55 25
144 54 24
145 54 24
148 55 24
148 55 24
147 54 24
144 54 24
146 54 24
146 54 24
143 53 24
147 54 24
147 54 24
144 53 24
145 54 24
146 54 24
145 54 24
145 54 24
146 54 24
145 53 24
147 55 25
143 53 24
148 55 24
146 54 24
144 53 24
145 54 24
147 55 24
146 54 24
144 53 24
145 54 24
143 53 24
145 54 24
142 53 24
146 54 24
150 55 25
143 53 24
143 53 24
145 54 24
148 55 24
147 55 24
145 54 24
144 54 24
149 55 24
144 54 24
145 54 24
141 52 24
143 53 24
143 53 24
144 54 24
144 53 24
142 53 24
148 54 24
147 54 24
145 54 24
145 54 24
144 54 24
146 54 24
142 53 24
145 53 24
144 53 24
144 54 24
144 53 24
145 54 24
141 53 24
144 53 24
146 54 24
143 53 24
140 52 23
144 54 24
139 52 23
141 53 24
146 54 24
144 53 24
141 52 23
141 52 23
144 53 24
142 53 24
142 53 24
142 52 24
143 53 24
141 52 23
142 53 24
146 54 24
141 53 24
141 52 23
141 52 23
143 53 24
138 52 23
145 53 24
140 52 23
144 53 24
142 52 23
142 53 24
142 52 23
139 52 23
142 54 29
142 58 40
143 63 48
139 64 53
138 75 71
137 79 76
139 88 90
133 86 88
139 89 91
137 98 105
136 104 113
137 105 114
134 114 126
136 122 137
131 120 135
131 124 142
129 129 147
131 132 151
135 137 156
133 141 162
131 146 169
133 148 172
134 149 172
130 147 171
132 150 174
132 150 174
132 149 172
129 147 171
134 153 177
130 148 171
136 155 179
131 149 172
135 153 177
133 151 176
132 151 175
132 149 173
136 154 177
133 151 175
135 153 178
135 154 178
133 151 175
132 150 174
131 149 173
134 152 177
133 151 175
131 150 175
132 149 173
134 152 177
136 154 178
133 151 176
135 153 178
131 149 173
134 152 175
132 150 174
132 150 173
134 152 176
133 152 177
132 150 175
131 149 172
134 151 174
132 150 175
131 148 172
133 151 175
135 153 177
132 150 173
133 151 175
132 151 175
130 148 173
133 151 175
132 149 173
133 150 174
134 152 176
136 155 179
131 148 171
131 148 171
135 153 176
132 150 173
132 150 174
136 154 178
134 152 177
133 151 173
133 150 173
132 149 174
129 146 170
133 150 175
133 151 174
134 152 176
133 151 175
136 153 176
133 152 177
131 149 173
133 151 175
134 153 177
134 152 176
132 150 174
132 150 174
132 151 175
133 151 176
134 151 175
134 152 176
134 153 178
132 150 174
134 153 177
131 149 173
135 153 176
132 150 175
131 149 174
133 150 175
135 153 177
131 149 173
132 149 172
131 148 172
135 154 179
133 150 174
131 148 172
135 153 177
135 152 176
132 150 174
135 154 178
133 151 174
133 152 176
133 151 175
134 151 175
131 149 173
133 150 173
133 152 176
131 149 173
133 151 176
132 150 174
134 152 175
135 154 178
134 151 174
136 154 179
131 149 173
134 152 177
132 150 175
134 152 175
133 150 174
134 152 175
133 151 176
134 151 175
133 151 176
136 154 178
134 151 175
135 154 177
134 153 177
130 148 172
130 149 172
132 150 174
129 148 172
132 150 175
134 152 176
133 151 176
134 151 175
131 148 171
133 152 177
134 151 175
132 150 175
134 151 175
136 155 180
132 150 174
134 152 176
131 149 173
133 151 175
131 149 173
131 149 173
130 148 173
135 153 177
133 152 176
129 147 172
133 150 174
132 150 174
132 148 172
135 153 178
135 153 177
134 153 177
134 152 177
133 151 175
130 148 172
134 152 176
135 153 177
130 148 173
137 155 179
131 148 171
132 150 175
132 150 175
131 149 173
132 148 172
134 152 178
132 150 175
134 152 176
130 147 172
136 155 179
135 153 178
133 150 174
134 153 177
130 147 171
135 153 177
129 147 170
133 152 176
131 149 174
134 152 177
131 150 173
133 151 175
132 150 174
132 150 174
135 153 176
132 150 175
131 150 175
133 151 175
130 148 173
130 147 171
126 144 168
131 149 172
133 152 177
128 145 169
131 148 171
130 148 172
135 153 176
132 150 173
128 147 171
132 150 173
130 147 171
131 147 171
128 144 168
133 151 176
127 145 169
134 153 177
129 146 169
133 151 176
131 149 174
128 146 171
130 148 173
132 150 175
131 149 173
129 146 169
132 150 174
128 145 169
130 148 172
131 148 172
129 148 172
128 145 168
130 148 172
127 143 166
126 143 166
126 144 168
130 147 170
131 149 174
132 150 175
130 148 172
124 140 164
125 142 165
130 147 171
130 147 171
133 151 175
128 144 168
131 148 171
130 148 173
131 149 173
129 146 169
123 140 164
127 143 167
127 144 168
127 144 169
124 140 164
124 141 164
128 146 170
128 146 170
126 143 168
123 140 163
123 141 167
130 147 170
129 147 172
125 141 165
127 144 168
126 144 168
122 138 160
128 145 169
127 145 169
127 144 167
124 140 164
127 144 166
125 143 167
125 142 166
122 139 163
126 143 166
122 138 162
125 143 167
123 140 164
118 135 160
123 140 164
127 145 169
121 138 162
118 135 159
125 142 167
124 142 166
125 140 162
130 148 172
123 139 162
127 145 170
118 135 158
120 136 160
123 139 163
121 138 162
126 144 168
116 131 154
121 138 162
125 142 165
120 136 159
117 135 159
121 138 162
117 133 156
122 138 161
124 141 164
116 131 153
121 136 160
114 130 153
122 138 162
125 141 164
117 133 156
115 131 154
118 133 156
114 130 154
114 130 153
112 126 149
115 131 155
116 130 152
110 126 149
119 135 159
119 135 159
111 124 145
116 131 153
114 129 152
110 123 145
109 124 145
112 127 150
105 120 144
116 130 152
109 123 145
107 121 144
112 128 151
107 120 142
117 133 156
103 116 138
107 121 144
97 110 132
103 118 141
105 119 142
109 123 146
110 123 145
102 116 138
103 115 135
96 108 129
95 108 129
103 116 136
97 109 129
103 116 137
98 111 132
95 106 126
101 114 135
95 107 129
104 117 138
91 102 122
85 96 117
101 115 135
98 111 131
93 105 126
92 103 125
92 103 122
97 109 129
82 92 110
100 112 131
84 94 113
85 95 115
87 97 116
92 102 121
80 90 107
70 77 97
74 83 104
72 81 103
66 72 90
62 69 88
74 82 101
74 82 101
63 69 93
59 65 87
47 53 76
58 64 86
55 61 85
56 62 82
62 68 90
42 46 73
49 55 81
47 52 83
53 56 79
46 51 76
43 46 73
44 48 74
40 44 75
48 53 80
45 50 79
36 39 68
47 51 77
47 50 75
24 27 62
39 43 71
34 36 68
43 47 76
31 35 69
38 41 70
47 51 79
38 42 72
32 35 64
40 43 71
45 47 76
43 47 75
44 48 77
44 49 76
46 50 74
45 49 75
42 47 70
50 56 77
61 67 90
54 59 78
59 66 90
63 69 93
66 72 93
51 55 78
75 83 98
69 76 96
61 67 87
74 82 102
73 80 96
78 86 104
74 82 100
67 73 93
74 82 99
75 84 101
87 97 114
77 85 103
89 100 118
83 91 108
82 90 108
89 100 118
93 104 122
78 88 107
98 109 127
84 92 108
92 100 118
85 92 110
97 108 127
94 105 125
105 118 139
94 105 125
90 101 122
97 109 130
100 113 132
94 105 125
99 111 131
99 110 130
98 110 130
98 110 129
103 115 136
98 109 129
107 120 141
100 112 135
93 105 125
100 113 133
107 120 141
98 111 131
101 113 134
106 120 141
109 122 145
108 122 143
110 124 146
103 117 138
103 116 136
105 120 141
109 123 145
111 125 147
97 109 132
113 128 149
103 117 139
109 124 147
113 127 150
118 133 154
114 128 149
108 121 143
111 126 149
115 130 152
112 126 150
115 128 150
107 121 144
112 128 151
117 133 156
117 133 157
112 127 149
112 128 151
108 122 144
116 131 154
114 129 152
121 137 161
115 131 155
119 136 159
114 130 153
114 130 154
121 137 160
123 140 165
117 133 156
113 129 152
119 136 160
120 136 160
117 133 156
119 136 159
120 137 160
120 137 161
121 139 164
120 137 161
122 139 162
115 131 154
120 136 158
123 141 165
123 140 165
126 141 164
116 134 157
123 140 163
130 148 171
117 134 156
120 136 160
125 142 166
125 141 165
125 143 166
123 139 163
123 140 164
126 142 165
126 143 168
123 139 163
124 142 167
116 132 156
123 140 164
122 139 163
122 138 162
120 136 159
127 145 168
124 142 166
126 143 166
130 148 173
123 140 164
129 146 170
126 143 167
120 137 161
121 136 160
126 143 166
124 140 163
130 147 170
121 136 160
126 142 165
124 140 164
128 146 170
130 148 171
127 144 167
132 150 173
124 141 165
130 147 171
129 147 171
129 147 171
130 147 171
125 142 165
123 140 162
128 146 170
127 144 169
131 149 173
127 143 167
131 149 173
125 141 165
128 144 167
126 141 164
127 144 168
131 148 172
125 143 168
127 144 167
129 146 170
124 140 163
129 146 169
128 145 169
129 147 170
125 142 166
129 147 170
130 148 172
131 149 174
127 143 166
126 142 165
131 149 173
127 145 169
132 149 171
133 150 173
131 148 172
132 150 173
131 150 174
131 149 173
131 148 172
130 148 173
129 147 171
130 147 171
130 147 171
130 147 171
130 149 173
129 146 170
131 148 172
131 147 170
130 147 171
129 148 173
131 149 174
131 150 175
131 148 172
131 149 174
132 149 173
129 146 168
130 147 171
133 150 175
130 148 173
129 146 170
131 148 173
130 148 172
132 150 174
133 150 174
134 152 176
132 150 174
129 148 172
129 146 170
132 149 173
132 150 174
131 148 172
128 145 168
130 146 171
131 148 172
128 144 168
132 147 170
131 147 170
128 146 170
129 145 169
132 150 174
129 145 169
132 149 173
132 150 174
132 149 173
135 153 178
131 148 171
132 149 173
129 145 168
134 152 176
128 147 170
131 148 171
134 152 177
130 148 171
134 152 176
129 146 171
129 147 171
127 144 168
135 153 176
132 150 173
131 146 169
131 150 173
134 152 176
132 149 172
129 146 170
130 148 172
131 148 172
131 149 173
133 150 174
131 149 171
128 145 168
132 150 174
134 151 174
131 147 171
129 146 170
129 145 168
131 149 172
129 146 171
133 150 175
131 148 172
129 145 167
133 148 171
133 150 174
131 149 173
130 148 172
133 150 174
133 150 174
131 147 170
134 151 175
133 151 174
128 145 168
133 149 173
131 149 172
133 150 174
131 147 170
133 149 172
129 145 168
133 150 173
134 150 173
131 148 172
133 150 173
130 147 170
131 146 170
133 148 170
133 152 176
132 150 173
133 150 174
130 147 170
133 150 174
133 149 173
134 151 175
132 150 173
131 149 171
131 148 172
132 148 172
133 150 173
130 148 171
133 151 174
134 150 173
130 147 170
131 148 171
134 149 171
132 148 170
133 149 172
132 150 173
133 150 174
133 147 170
134 151 175
132 149 171
136 153 174
132 150 173
128 145 167
130 147 170
128 144 167
135 152 176
133 149 173
133 151 175
132 149 173
132 150 173
133 150 174
130 144 166
133 151 175
132 149 172
134 152 175
131 146 168
135 152 176
133 147 169
134 150 173
132 148 171
130 147 170
129 143 164
133 150 174
133 150 173
130 147 171
135 151 172
133 151 176
130 146 168
133 151 175
130 146 169
129 145 168
134 151 175
132 150 175
130 145 167
133 150 173
135 151 175
133 149 170
133 150 174
131 148 171
132 149 172
135 153 177
134 151 174
133 149 173
133 151 175
133 150 173
133 150 173
131 149 172
132 150 174
133 152 176
134 152 176
133 150 173
132 148 171
132 149 171
131 148 172
133 150 173
133 149 171
130 146 168
130 147 168
134 151 175
135 152 175
129 145 166
135 153 177
129 146 170
133 150 172
134 151 174
133 150 173
134 151 175
133 149 172
131 147 171
133 150 173
132 148 171
132 150 173
133 150 173
132 149 172
131 147 169
128 144 166
131 148 170
133 150 173
132 149 173
135 152 174
132 148 171
129 146 168
130 148 170
131 149 171
136 153 176
130 147 169
133 151 174
135 152 175
131 148 172
132 148 171
134 152 176
129 144 165
132 148 172
130 147 169
133 149 173
132 149 171
132 147 170
132 149 172
133 149 171
128 145 167
134 151 175
132 149 172
134 151 174
129 146 168
132 150 173
132 149 172
134 151 175
133 148 170
131 148 171
132 149 171
134 151 174
132 149 172
133 151 175
129 145 168
133 151 174
129 145 167
133 151 173
129 146 170
131 147 169
132 148 170
130 147 169
136 153 177
131 147 169
134 151 175
132 149 171
131 148 170
133 150 174
133 150 175
131 149 172
132 148 171
130 146 168
133 151 174
133 150 173
133 149 172
132 148 171
133 150 174
130 148 171
133 152 176
130 147 170
134 150 173
131 148 170
133 151 175
132 149 170
132 148 171
130 147 171
133 151 175
131 148 172
132 149 173
125 142 165
131 147 169
133 150 174
130 148 170
129 147 170
131 149 173
131 148 170
131 148 170
132 149 173
131 150 173
134 152 175
132 149 170
128 146 170
131 147 170
132 151 174
133 151 175
135 152 176
128 145 168
131 148 170
131 148 172
129 146 169
130 147 171
131 148 171
131 149 172
132 150 174
132 149 170
128 146 166
130 149 164
122 140 150
126 145 152
127 148 151
123 143 148
124 145 142
122 144 132
119 142 118
119 141 123
117 141 113
112 135 100
114 140 86
110 133 103
112 138 83
110 136 78
108 136 58
110 139 59
108 138 47
108 138 47
109 138 48
108 136 47
104 133 45
109 139 47
106 136 46
108 137 47
108 139 48
105 134 46
108 137 47
109 139 47
104 134 46
108 138 47
104 135 47
109 139 48
102 131 45
108 139 47
104 134 45
109 139 48
105 134 46
105 136 46
105 135 46
105 136 46
103 134 46
109 141 48
107 138 47
107 139 47
103 136 46
100 133 46
104 139 48
97 131 44
99 134 46
105 140 48
105 140 48
97 136 47
93 131 46
103 138 48
97 134 47
103 136 46
99 135 47
96 139 50
91 136 49
95 135 48
90 138 50
98 134 46
92 136 49
95 137 48
88 137 50
87 132 47
91 135 48
95 136 48
92 135 48
94 139 50
94 138 49
85 135 49
91 138 50
92 140 51
93 137 48
74 134 51
87 138 51
90 137 50
90 139 51
82 137 51
87 136 50
94 141 51
90 139 50
96 140 50
87 138 50
86 139 51
94 140 50
87 136 48
89 138 51
93 139 50
87 138 50
96 141 50
91 138 49
94 140 50
95 139 50
92 140 51
91 137 49
88 136 48
91 136 49
87 131 46
91 137 49
96 139 49
97 139 49
92 134 47
95 135 47
91 134 47
89 136 48
93 137 48
99 140 49
90 135 47
94 132 44
99 138 48
101 137 47
100 138 48
100 137 48
102 136 47
96 131 44
102 135 46
105 138 46
105 137 46
100 134 44
101 133 45
98 132 44
105 138 46
107 139 47
101 134 44
104 136 46
109 142 48
106 137 46
105 138 47
104 135 45
102 135 45
107 139 47
104 136 46
110 142 48
103 136 45
101 132 45
109 140 47
100 132 44
103 134 44
104 136 46
106 138 46
105 137 46
105 137 46
109 140 47
106 137 46
106 138 46
103 134 45
104 136 46
104 134 46
107 139 46
100 132 44
108 138 47
107 137 46
106 139 47
102 133 45
108 140 47
104 135 45
104 133 47
104 131 47
106 134 49
101 128 49
101 122 58
94 115 50
98 115 56
100 121 55
91 105 57
85 97 56
83 93 57
85 91 59
82 87 60
79 78 62
76 72 61
80 78 64
78 73 65
71 57 67
63 47 59
65 45 62
67 46 65
70 48 70
70 48 68
70 48 68
71 48 71
66 46 63
69 47 67
69 47 68
67 47 66
68 48 66
66 46 65
75 51 75
69 47 68
68 47 67
74 50 73
68 47 69
69 48 68
66 46 65
74 50 73
72 49 71
70 48 69
70 48 69
68 47 67
70 48 69
68 48 68
72 50 71
71 49 69
69 48 69
68 47 68
72 49 70
70 48 69
73 50 72
71 49 71
68 46 66
68 47 67
73 50 72
71 50 71
74 52 75
70 49 71
69 48 69
73 50 72
74 51 73
76 52 76
72 50 72
77 53 77
76 51 76
73 50 73
72 49 72
74 51 73
73 50 72
71 48 71
69 49 70
72 49 73
75 51 76
73 50 73
73 50 73
68 47 68
75 51 74
74 51 75
79 54 80
72 49 72
75 51 76
74 51 76
69 47 70
75 51 77
76 53 77
75 51 77
74 50 75
76 52 78
75 52 76
72 49 73
77 53 78
73 50 73
73 51 74
74 51 76
76 52 77
79 54 78
76 52 77
75 52 76
73 50 74
73 51 74
71 49 72
73 50 73
73 49 74
75 51 76
75 51 76
74 51 76
75 51 76
73 50 74
78 56 81
76 58 81
80 65 88
80 64 86
93 89 112
91 88 110
96 98 120
102 103 126
111 117 139
106 112 132
112 123 145
115 125 149
120 130 154
121 132 155
118 130 153
121 138 160
116 126 147
123 137 160
123 136 159
121 134 156
123 135 159
115 129 151
122 134 157
120 132 154
121 136 158
119 131 154
124 136 159
122 135 158
119 133 155
127 139 163
119 135 156
119 130 153
117 129 150
121 133 155
118 133 156
123 136 159
121 134 157
120 130 153
117 128 150
122 133 157
117 126 148
124 136 160
120 134 156
120 131 154
124 136 159
120 133 156
119 130 152
119 127 150
115 123 147
123 133 157
118 125 148
118 130 153
113 123 146
117 128 150
114 125 148
114 118 142
119 130 153
116 127 149
118 126 150
115 125 147
124 136 159
120 131 154
118 123 146
119 128 150
117 125 147
114 122 145
116 126 147
118 127 150
119 127 150
120 128 152
115 124 146
122 129 152
117 125 147
112 119 142
118 128 150
114 117 138
117 127 149
119 130 153
113 121 144
118 129 152
114 127 149
115 125 148
117 123 146
111 118 140
117 123 145
122 129 153
112 121 143
116 121 143
115 118 141
112 115 137
114 118 139
109 114 134
106 113 133
111 113 136
113 117 138
109 113 136
120 121 144
118 123 146
111 117 139
119 126 149
113 112 133
112 115 137
119 126 148
111 116 138
112 112 135
107 103 126
111 113 135
117 121 144
109 115 136
115 117 141
114 119 140
118 119 142
115 114 138
110 110 132
107 108 129
116 118 140
111 116 137
111 111 133
111 115 136
117 120 142
109 110 131
114 113 135
105 103 123
104 105 125
112 108 130
111 111 134
117 121 142
113 116 137
110 110 130
113 115 136
114 117 138
108 108 128
106 103 124
104 100 122
103 101 122
111 111 133
107 105 126
108 104 125
108 102 123
110 105 127
108 101 123
111 111 131
117 117 140
106 102 122
114 116 138
112 112 132
111 111 131
103 101 120
113 111 133
110 103 126
111 110 131
107 106 127
109 107 126
114 116 137
113 114 136
111 110 131
112 103 126
107 104 126
110 109 130
111 113 135
114 112 133
119 121 143
118 123 145
113 112 135
109 108 130
109 101 124
112 111 133
113 114 135
116 119 141
113 112 135
118 121 144
112 108 131
115 115 137
113 107 129
114 113 136
114 116 138
115 116 140
109 108 129
117 118 139
118 125 146
116 119 140
118 122 144
112 111 132
114 115 136
119 121 144
119 125 149
114 118 139
116 120 142
118 121 143
118 123 146
119 126 148
121 126 151
114 114 136
120 125 148
114 120 142
122 127 152
115 119 142
120 122 146
118 122 144
121 129 153
116 120 142
123 133 155
126 131 155
121 128 151
117 119 140
120 124 147
121 132 153
120 129 151
122 129 152
120 124 147
121 126 149
121 131 154
123 129 151
123 128 153
124 136 158
126 135 158
123 132 156
128 139 162
121 130 152
118 127 148
124 125 150
119 127 149
121 131 154
123 129 153
120 129 152
124 132 155
126 136 159
128 140 162
122 130 154
126 134 159
122 129 152
126 140 163
127 136 160
127 135 158
125 135 159
125 133 156
123 134 157
123 134 157
126 138 162
124 135 158
123 131 155
127 140 164
124 136 159
125 135 158
127 138 161
126 138 161
126 139 161
127 141 163
124 137 161
124 135 159
127 139 163
129 143 167
128 140 164
122 137 159
124 138 160
128 140 164
122 137 160
127 136 160
126 139 162
127 141 165
126 140 162
121 133 154
126 137 160
128 143 167
130 146 170
130 143 166
126 139 161
130 148 172
126 139 161
126 138 161
128 139 164
125 138 159
124 139 161
123 137 159
127 143 167
128 140 164
126 139 163
127 139 164
129 144 167
130 141 165
125 141 163
128 141 164
131 144 168
124 138 160
126 141 163
124 138 161
127 142 165
121 136 158
127 143 166
127 144 168
128 144 167
127 139 162
125 139 162
129 141 164
126 137 161
128 142 167
128 145 168
126 142 166
130 149 172
126 141 164
127 144 168
125 142 166
124 143 164
124 139 161
130 147 171
123 138 159
127 140 165
127 147 168
128 144 166
124 142 164
125 139 160
124 141 162
128 144 167
129 143 167
