P3
1600 1
255
145 54 24
145 54 24
147 54 24
147 54 24
143 53 24
146 54 24
143 53 24
145 54 24
143 53 24
145 54 24
146 54 24
144 53 24
143 53 24
145 54 24
147 54 24
145 54 24
146 54 24
146 54 24
149 55 24
147 55 25
144 54 24
146 54 24
146 54 24
147 55 24
147 55 24
145 54 24
143 53 24
148 54 24
143 53 24
145 54 24
146 54 24
146 54 24
144 54 24
147 54 24
145 54 24
144 53 24
146 54 24
145 54 24
146 54 24
147 54 24
146 55 24
144 53 24
145 54 24
145 54 24
149 55 25
144 54 24
143 53 24
146 54 24
145 54 24
142 53 24
145 54 24
145 54 24
149 55 25
142 53 24
143 53 24
145 54 24
147 54 24
145 54 24
145 54 24
144 53 24
147 54 24
145 54 24
144 53 24
143 53 24
143 53 24
143 53 24
142 53 24
140 52 23
145 54 24
146 54 24
148 55 24
144 53 24
144 53 24
144 54 24
146 54 24
142 53 24
144 53 24
142 53 24
144 54 24
144 53 24
145 54 24
142 53 23
146 54 24
146 54 24
141 52 24
142 53 24
143 53 24
140 52 23
144 53 24
147 54 24
142 53 24
138 51 23
142 53 24
143 53 24
143 53 24
141 52 24
142 52 24
142 52 23
141 52 24
144 53 24
145 54 24
138 52 23
142 53 23
140 52 23
143 53 24
138 51 23
143 53 24
140 52 23
143 53 24
140 52 23
139 51 23
140 52 23
141 52 23
143 53 23
142 54 30
139 56 34
139 67 56
142 70 61
138 76 72
136 84 85
136 86 88
143 83 81
135 106 116
139 99 104
134 105 114
136 112 123
134 113 125
133 116 129
128 119 136
134 131 148
133 127 145
136 132 151
132 140 161
134 143 166
134 148 171
132 146 169
131 146 169
130 146 170
134 151 174
129 148 172
132 151 175
132 150 173
134 152 176
133 151 175
133 151 175
133 151 176
134 152 176
132 150 174
132 149 172
135 152 176
135 153 177
134 153 177
134 152 177
132 149 173
130 148 171
133 152 178
133 151 175
132 151 174
130 148 173
133 150 174
137 155 179
134 152 176
135 154 178
131 149 172
133 151 175
133 151 175
131 148 171
135 153 178
133 151 175
132 150 175
132 150 174
132 149 172
132 151 175
130 147 170
134 152 177
134 152 176
132 149 172
134 151 176
133 151 176
131 148 172
131 149 174
132 149 174
135 153 177
133 150 174
135 153 177
132 151 176
130 146 168
134 152 175
132 149 172
132 149 173
135 153 176
134 153 177
133 151 174
132 150 174
132 150 174
128 145 169
134 152 177
133 150 174
131 150 174
133 151 175
135 152 175
135 154 179
130 147 170
134 152 175
134 153 177
134 153 176
133 150 174
132 150 174
132 151 175
132 151 176
134 152 175
135 153 176
134 152 177
132 151 175
134 152 177
131 148 173
134 152 176
132 150 175
133 151 175
133 151 176
134 152 175
132 150 174
132 149 173
131 148 171
136 155 179
132 149 173
132 150 174
133 151 175
134 151 175
132 150 174
135 154 178
133 151 175
133 152 176
134 151 175
134 152 176
130 148 172
133 150 173
133 151 175
132 150 174
133 151 176
134 151 176
132 151 175
135 153 177
134 152 176
136 153 177
132 150 175
134 152 177
133 151 176
134 152 177
132 148 171
136 154 177
131 150 174
134 151 175
134 152 177
135 153 177
134 151 175
136 154 178
134 152 176
130 148 173
131 150 174
132 149 174
131 149 173
131 150 175
135 153 176
132 150 174
133 151 175
132 149 172
133 152 177
133 151 174
132 151 176
133 151 174
136 155 180
132 150 174
134 152 177
130 148 172
133 151 176
132 150 173
132 151 175
133 151 176
134 152 175
135 153 177
130 148 172
137 155 178
132 149 172
133 150 174
135 152 176
135 153 178
136 154 178
135 153 177
137 154 179
133 150 175
134 152 175
134 151 176
135 153 177
136 155 180
134 151 175
135 153 176
135 153 177
132 149 174
134 151 174
132 151 175
133 152 177
132 149 172
135 152 176
135 153 178
136 154 178
129 146 169
137 155 179
130 147 171
132 150 174
131 150 173
132 151 175
130 148 171
134 153 177
131 149 172
133 152 176
130 147 172
133 152 176
135 153 177
132 150 175
132 150 174
132 151 175
133 151 176
130 148 172
125 141 165
129 148 171
133 152 177
131 149 173
129 146 170
130 148 172
133 151 174
133 151 175
129 147 171
129 147 171
132 149 173
132 149 172
131 149 172
129 147 171
127 144 168
132 152 176
132 149 173
133 151 175
130 149 175
129 146 171
132 150 175
129 147 171
132 150 174
131 148 172
128 145 170
131 148 172
131 149 174
128 145 170
130 147 172
129 146 170
126 143 166
128 145 169
129 146 170
125 142 166
128 146 170
132 150 175
130 149 174
130 148 172
125 143 166
124 140 164
128 146 170
128 146 169
133 152 176
129 147 171
130 146 170
130 148 172
131 149 174
131 148 171
125 141 165
125 142 165
127 144 168
128 145 170
128 144 167
123 140 163
125 142 165
129 147 172
124 141 166
125 143 167
123 141 166
126 144 169
126 144 167
130 147 171
126 142 167
128 146 171
125 142 164
119 134 157
129 147 172
124 141 164
123 139 163
127 144 167
125 142 166
128 146 170
123 139 164
123 140 164
125 142 166
125 141 165
123 139 163
124 143 167
115 131 155
126 143 167
122 138 161
123 140 164
122 139 164
126 142 166
118 134 158
130 147 169
125 142 167
126 144 168
119 136 161
120 138 162
123 140 165
125 143 166
119 136 160
119 136 160
119 135 158
121 138 161
126 144 168
116 133 157
120 136 161
120 137 161
118 134 156
124 142 166
120 136 159
111 126 148
120 136 161
113 129 152
124 141 164
120 135 158
116 132 156
115 131 154
122 137 160
109 125 148
117 133 156
112 128 151
115 130 153
114 129 152
116 132 155
123 140 163
114 129 152
115 130 152
119 135 158
106 121 144
111 125 147
113 129 152
109 124 146
110 125 149
113 128 150
109 124 147
114 129 153
113 128 151
107 122 144
113 128 151
101 114 136
107 121 142
93 105 127
110 125 148
106 120 143
107 120 142
106 119 141
103 116 137
102 115 136
95 106 127
93 105 127
100 113 133
96 108 130
100 112 133
87 98 119
99 110 130
100 111 133
84 93 114
97 110 129
89 101 121
89 100 122
105 118 139
98 110 130
92 104 126
93 105 125
100 112 133
95 106 126
92 102 119
90 100 119
76 84 102
86 96 115
88 99 119
89 100 118
76 85 104
78 87 107
67 75 93
78 86 103
61 67 85
82 91 109
76 83 102
82 90 109
64 71 93
63 70 90
47 52 73
56 62 83
64 71 91
56 62 83
52 58 82
69 76 95
48 49 74
60 66 86
45 50 76
54 59 83
52 57 78
52 57 81
42 46 74
39 43 73
43 48 72
34 36 66
43 48 74
29 32 70
46 48 75
37 38 71
40 44 70
40 44 70
38 40 68
39 43 70
33 37 66
44 48 70
43 44 70
40 42 67
47 52 77
49 53 75
46 50 73
51 56 73
45 47 71
53 59 78
54 58 76
56 61 80
54 59 80
60 65 87
73 80 98
62 67 84
59 65 84
52 58 78
69 75 92
60 67 85
73 80 97
73 80 100
69 77 95
71 77 94
83 90 107
88 97 116
70 79 96
80 89 106
84 93 111
81 89 105
96 106 124
80 91 109
78 87 103
87 98 116
87 93 110
83 91 107
97 108 126
98 110 129
86 96 114
91 101 121
81 91 109
92 104 124
96 107 126
88 98 118
92 103 122
94 106 126
93 105 123
98 109 129
93 105 124
99 112 132
97 109 130
96 108 128
105 118 139
99 111 132
87 98 119
97 109 130
95 107 126
96 108 130
102 115 135
97 109 130
107 120 141
100 113 134
111 125 145
107 120 142
97 110 132
101 113 133
108 122 143
106 120 142
111 125 146
114 129 151
112 124 146
106 120 142
112 126 147
102 116 138
104 117 137
107 122 144
107 122 145
118 133 157
108 122 144
107 121 142
113 127 150
109 123 146
113 127 150
116 131 154
111 126 147
116 132 156
120 136 157
115 130 154
111 126 150
111 127 150
120 136 162
117 133 155
110 125 150
116 133 156
113 128 151
113 129 152
122 138 163
116 132 155
120 137 161
118 133 156
119 136 159
114 128 152
120 135 157
123 140 163
119 135 159
123 139 163
120 136 157
121 137 161
125 142 165
116 133 156
119 135 157
127 144 167
122 137 160
126 144 168
123 139 162
120 137 161
122 138 161
126 144 168
125 142 165
126 143 167
118 134 158
122 139 163
118 134 157
117 133 157
121 137 160
127 146 170
125 142 166
125 142 165
130 148 172
122 139 164
128 145 169
127 144 167
118 133 155
120 135 158
126 143 167
116 132 155
128 145 169
120 135 158
127 144 168
125 141 164
125 142 166
126 143 165
129 146 170
129 146 170
125 143 167
125 143 168
131 149 172
127 145 168
123 140 164
128 145 168
126 142 166
126 143 168
125 142 167
129 146 170
127 144 168
133 151 175
124 141 164
129 146 170
126 141 163
129 145 169
132 149 173
126 144 168
127 145 168
129 147 171
124 140 163
131 148 171
129 147 171
127 143 167
126 144 168
131 148 171
130 148 172
129 147 172
127 142 165
128 144 168
128 146 170
127 145 168
132 148 171
129 147 170
130 147 171
133 150 174
130 149 172
131 150 174
130 147 171
130 148 173
128 146 170
131 149 173
127 145 169
131 149 173
130 148 173
129 146 169
131 149 173
130 147 171
127 144 167
127 145 170
132 151 176
130 148 173
131 147 170
130 147 170
133 152 177
130 146 168
129 145 170
132 150 174
131 149 174
128 145 169
130 148 172
130 148 172
130 148 171
131 149 173
132 149 172
131 149 174
129 147 172
131 148 171
133 149 172
131 148 172
130 147 171
131 148 173
131 148 173
130 148 173
127 143 166
133 147 170
132 149 173
128 146 169
131 148 171
130 148 172
130 148 172
133 149 173
132 150 174
135 152 176
133 151 174
133 149 172
132 150 175
132 149 173
133 151 176
127 144 167
132 150 174
133 150 174
133 151 175
131 149 173
128 145 169
130 147 171
131 148 171
131 149 173
133 151 175
130 148 172
133 152 175
131 150 174
133 150 174
128 144 168
132 150 173
129 146 170
130 147 171
133 151 175
133 150 173
128 144 167
133 151 176
134 151 175
132 148 172
131 148 172
132 149 173
131 148 171
133 150 174
129 147 172
130 147 171
130 147 169
130 145 168
134 151 174
129 147 170
132 150 173
132 148 172
133 151 176
131 148 171
134 151 174
134 151 174
128 145 169
131 146 170
132 149 173
134 152 175
134 150 173
130 145 168
129 144 167
134 150 172
134 151 173
133 151 176
131 148 171
126 143 165
131 146 169
135 150 173
133 150 174
131 148 173
132 150 175
128 144 166
132 150 174
134 150 174
134 153 177
131 149 173
129 145 167
132 150 173
131 146 169
134 151 174
133 151 174
134 151 175
133 150 173
132 149 172
131 148 171
133 150 172
128 143 165
132 148 171
132 151 173
128 146 168
130 147 170
134 152 175
128 145 169
133 150 172
131 149 172
129 146 168
132 148 172
127 142 165
135 152 176
133 149 172
130 147 170
133 150 174
133 152 175
134 152 175
130 146 168
130 147 171
133 150 173
132 150 172
131 147 170
136 152 176
133 149 172
135 152 175
131 147 170
133 150 174
130 146 169
132 149 173
133 150 173
131 149 173
134 150 172
132 149 174
131 147 170
133 152 175
131 146 169
130 147 170
132 148 172
132 150 175
129 144 166
134 152 175
134 151 175
132 148 170
132 150 174
133 150 172
130 148 172
134 153 177
133 150 172
134 150 172
134 152 176
133 149 171
133 150 173
132 150 173
132 150 174
134 152 175
133 150 174
132 150 173
131 148 171
133 149 173
132 149 173
131 147 170
134 150 173
128 145 167
132 150 172
135 153 177
132 148 170
131 148 170
133 150 173
131 147 170
134 152 176
132 150 173
132 149 172
135 153 176
131 147 170
130 146 170
134 151 174
132 149 172
132 149 170
135 152 176
132 149 172
130 146 168
132 148 171
134 152 175
132 149 173
134 151 174
133 150 173
130 147 170
130 147 168
130 148 171
136 153 176
133 149 172
131 149 172
133 150 172
132 149 172
133 150 174
132 151 174
131 148 171
131 147 169
129 146 170
131 149 171
132 149 172
133 148 170
132 150 174
134 151 173
131 146 169
129 146 168
133 151 174
132 149 172
131 147 169
131 148 171
131 149 172
134 151 174
134 151 174
132 147 170
131 146 168
134 152 176
133 150 172
132 150 174
133 151 175
129 146 169
131 147 169
129 147 170
132 149 172
130 147 169
132 148 171
130 147 170
132 150 173
134 152 175
132 147 169
134 151 174
132 148 170
133 151 174
133 150 174
133 151 175
130 147 170
131 146 167
132 148 171
132 151 174
134 151 174
132 149 173
132 148 171
133 151 175
129 148 172
134 152 176
130 146 169
136 153 176
128 145 167
133 151 175
131 147 167
131 148 171
129 147 170
133 151 175
131 147 169
132 149 173
128 145 168
132 149 172
131 149 173
130 148 171
131 149 172
131 149 173
132 149 172
130 148 171
132 148 172
129 147 170
134 151 174
131 148 171
128 147 171
133 150 172
131 150 173
131 148 172
134 151 175
131 148 170
131 148 171
132 148 171
132 149 172
130 149 172
130 147 170
130 147 170
132 150 174
129 146 168
129 147 171
132 149 174
128 145 167
134 152 175
135 153 177
128 145 168
131 149 170
131 148 168
127 146 159
129 146 164
126 145 158
126 146 154
123 143 143
118 138 131
123 145 135
122 144 136
117 140 123
118 141 129
115 140 103
113 139 103
116 142 98
113 139 87
112 138 73
113 141 74
108 137 58
108 136 58
106 133 46
106 137 47
104 131 45
109 138 47
106 136 46
107 137 47
104 134 46
106 135 46
108 138 47
106 135 46
106 137 47
105 134 46
104 131 45
109 138 47
107 138 47
104 132 45
104 134 46
104 133 45
107 137 47
106 136 47
105 135 46
105 135 46
105 134 46
105 137 46
100 130 44
107 141 48
105 138 47
101 134 45
100 136 47
100 135 47
98 132 45
105 139 48
98 134 47
102 139 49
94 135 48
98 134 47
95 133 46
96 134 46
94 137 49
95 136 47
96 138 49
91 134 48
93 135 47
98 136 47
93 135 48
93 138 50
96 139 49
88 135 48
92 139 50
91 140 51
87 133 47
83 138 51
84 137 51
88 139 51
90 138 50
83 138 51
85 136 50
95 142 52
87 138 51
92 140 51
80 137 51
83 139 51
86 134 49
79 134 49
83 137 51
80 135 50
83 139 52
93 141 51
80 136 50
86 140 52
90 139 51
90 141 52
82 136 50
79 136 51
90 139 50
85 135 50
83 136 50
88 139 51
87 136 49
89 138 49
84 138 51
91 138 50
79 134 48
80 134 49
86 135 48
86 137 50
85 136 50
88 136 49
91 136 48
92 137 49
93 136 48
91 137 49
96 136 48
94 134 46
102 139 47
100 139 49
98 137 47
96 136 47
100 136 47
97 135 45
98 136 47
99 136 47
100 136 46
101 134 45
105 138 47
102 135 45
102 137 47
105 137 45
100 132 44
104 137 46
108 141 48
105 137 47
104 136 46
105 136 46
104 135 45
103 135 45
104 135 45
106 138 46
106 138 46
101 133 44
107 138 47
107 139 47
108 139 47
109 140 47
107 138 46
102 134 45
105 137 46
106 138 46
102 132 44
102 135 45
105 137 46
110 140 48
104 134 46
106 137 47
104 135 46
103 136 45
106 136 46
103 134 45
106 137 46
104 136 45
104 135 46
108 138 46
109 138 47
105 133 48
108 135 52
99 124 50
95 118 49
97 116 54
97 117 53
90 110 51
88 105 54
92 104 58
85 96 55
88 100 56
77 78 58
77 79 59
80 78 65
76 75 62
75 68 62
71 60 64
73 58 69
70 54 66
67 47 65
68 47 67
64 45 62
66 45 65
72 50 71
69 47 67
70 48 70
65 45 63
69 47 67
70 48 70
70 48 67
72 49 70
68 47 68
68 47 66
71 49 71
70 49 70
66 46 64
67 46 66
64 45 63
69 49 68
71 49 69
75 52 74
71 49 71
68 47 66
71 49 70
72 49 70
69 48 69
69 48 70
68 47 68
70 48 68
76 52 75
71 49 70
75 52 75
70 48 69
73 50 73
69 48 68
73 50 73
71 49 71
73 50 73
71 49 72
74 51 73
73 50 73
71 49 71
70 48 70
76 52 76
71 49 70
71 50 71
74 51 75
73 50 73
75 51 75
75 51 75
70 49 70
71 50 71
72 49 72
72 50 72
71 48 71
72 50 73
71 49 72
73 50 74
75 51 76
76 52 77
71 49 72
75 52 77
73 50 74
72 50 73
75 50 76
74 50 74
72 49 72
72 50 74
75 52 76
77 53 77
71 49 72
76 51 77
74 51 76
72 49 73
74 51 75
75 51 76
72 49 73
73 50 74
74 50 75
74 51 76
79 53 80
70 49 72
75 52 76
77 53 78
75 51 76
73 50 74
76 52 77
75 54 78
77 59 81
81 67 90
90 82 103
85 74 95
89 81 103
95 92 115
92 87 109
101 104 126
108 112 135
107 111 134
113 119 143
121 132 156
124 133 157
118 127 151
113 127 148
124 139 162
123 135 159
121 137 159
120 130 154
119 128 152
123 139 162
122 137 160
119 131 153
125 139 162
121 135 157
123 134 159
120 133 155
124 135 158
119 132 155
122 136 159
122 134 157
121 134 157
122 133 155
119 128 151
115 126 148
123 137 161
119 132 155
119 129 152
123 136 159
123 136 160
122 133 155
117 129 152
115 126 148
124 136 159
114 122 144
116 128 151
113 124 147
121 131 155
120 130 154
119 127 150
118 127 150
115 129 152
116 125 147
120 133 156
120 130 153
124 136 159
121 130 155
119 131 152
110 117 140
119 130 152
116 124 147
119 129 152
117 127 149
122 133 156
114 120 142
117 127 149
118 127 149
116 125 148
120 128 151
115 121 144
120 129 152
121 131 153
114 124 147
121 129 153
120 128 151
118 132 154
116 129 151
122 131 155
116 125 147
120 129 153
119 125 148
116 125 146
120 126 149
118 127 150
111 120 141
116 121 143
117 122 145
110 118 139
116 123 146
114 120 142
116 122 145
120 124 148
122 123 146
119 126 150
116 121 144
118 124 147
113 113 135
114 121 143
117 122 144
120 123 147
114 118 141
109 113 135
113 117 139
112 116 137
116 120 143
116 121 143
111 114 136
114 119 140
118 122 146
111 113 135
116 122 143
113 116 138
116 118 140
116 120 142
111 118 139
108 115 135
114 118 139
107 102 125
119 126 148
108 105 127
113 113 137
110 111 132
111 111 132
111 113 135
117 124 145
109 109 131
110 108 129
118 117 140
111 111 131
113 117 137
110 107 130
108 110 131
111 107 130
108 110 131
116 121 143
108 109 129
111 108 131
114 112 135
108 106 126
114 110 133
111 105 128
112 112 134
109 111 131
119 118 142
108 111 131
109 105 127
112 109 131
111 108 130
117 116 137
114 115 136
110 111 132
119 120 142
116 116 137
116 120 141
111 112 134
108 102 124
115 116 138
115 113 137
112 109 130
111 111 134
116 120 142
119 124 146
112 110 132
116 115 139
103 99 119
115 112 134
117 116 139
114 117 138
115 113 136
113 114 137
119 118 141
117 114 136
114 110 133
115 113 135
114 113 135
113 117 139
116 115 139
115 114 136
110 113 133
115 119 141
120 126 147
114 112 134
117 123 145
118 120 143
123 129 153
116 123 145
111 113 133
118 122 145
120 124 147
122 126 149
122 129 152
121 124 148
115 122 143
117 121 144
122 130 154
118 121 143
115 118 141
119 121 144
119 125 148
122 133 155
118 124 146
119 127 149
123 130 155
114 117 138
115 114 138
123 134 157
122 129 151
118 126 149
123 130 153
120 124 148
118 124 146
124 133 156
117 120 142
126 135 159
124 132 155
125 137 160
125 131 155
128 138 162
120 130 152
119 124 147
124 130 154
120 132 154
123 130 154
123 134 155
122 130 153
124 132 156
124 134 157
130 141 166
123 131 155
126 137 162
124 134 157
126 140 163
125 134 157
125 132 157
127 137 161
125 136 158
121 131 153
125 136 159
126 139 163
126 137 160
122 133 157
127 138 162
126 135 160
124 136 157
130 143 166
126 139 162
128 142 164
128 140 163
125 136 160
125 138 161
129 140 165
126 140 164
129 142 166
121 137 160
128 140 164
126 140 163
126 140 164
129 142 165
127 139 163
128 142 165
124 137 160
123 136 158
127 136 160
124 136 160
132 150 173
129 142 166
129 143 165
127 141 165
127 143 167
129 141 165
127 138 162
124 137 159
126 141 163
121 136 156
124 140 163
128 141 165
127 141 165
125 137 161
128 142 165
131 147 171
127 138 160
128 142 167
131 146 170
124 134 157
126 140 163
123 134 156
126 141 165
123 141 163
124 140 162
126 143 167
129 146 170
124 139 160
127 143 166
129 143 167
127 140 164
128 141 166
128 147 170
127 143 167
128 145 168
124 139 162
128 146 169
124 141 164
125 144 165
127 142 164
127 145 167
124 140 162
127 138 161
128 147 169
128 145 168
124 141 163
127 144 165
126 143 164
128 145 168
126 141 164
