P3
1600 1
255
145 54 24
144 54 24
142 53 24
147 54 24
144 53 24
147 54 24
140 52 23
146 54 24
143 53 24
147 54 24
145 54 24
142 53 23
141 52 23
146 54 24
148 54 24
145 54 24
146 54 24
144 54 24
146 54 24
147 54 25
143 53 24
145 54 24
145 53 24
145 54 24
143 53 24
142 53 24
143 53 24
143 53 24
144 53 24
145 53 24
143 53 24
146 54 24
144 53 24
148 55 24
143 53 24
144 54 24
143 53 24
146 54 24
144 53 24
145 54 24
141 52 23
143 53 23
143 53 24
149 55 25
143 53 24
139 52 23
139 52 23
142 53 24
142 53 24
141 52 23
147 55 24
146 54 24
141 52 23
144 53 24
146 54 24
144 53 24
148 55 24
144 54 24
141 53 23
145 54 24
145 54 24
142 53 24
146 54 24
142 53 24
143 53 24
143 53 24
141 52 23
146 54 24
147 54 24
144 53 24
143 53 24
142 53 24
146 54 24
143 53 24
143 53 24
141 52 24
143 53 24
142 53 24
145 54 24
144 53 24
144 53 24
144 53 24
136 51 23
141 53 23
140 52 23
143 53 24
140 52 23
143 53 24
140 52 23
140 52 23
145 54 24
142 53 24
139 52 23
140 52 23
145 53 24
142 52 23
142 53 24
142 52 23
140 52 24
139 52 23
139 52 23
143 53 24
142 52 23
143 53 24
142 53 24
145 54 24
138 51 23
141 52 23
139 51 23
142 53 24
136 50 22
142 52 23
142 52 23
142 53 23
140 52 23
142 53 23
140 52 23
139 51 23
139 51 23
140 60 44
139 63 49
139 77 74
138 78 75
135 85 86
131 82 84
134 93 99
138 93 99
137 103 112
138 115 127
132 113 126
134 115 128
136 129 145
131 127 144
133 131 149
129 129 147
134 141 162
132 140 162
134 145 167
131 145 168
136 151 175
133 151 175
134 152 175
135 153 177
133 151 175
131 149 173
132 150 173
134 152 176
135 153 177
135 153 177
134 152 176
134 151 176
131 149 173
134 153 177
132 149 173
132 151 176
131 148 172
134 152 176
135 153 176
135 153 177
135 153 177
130 148 173
134 151 174
132 149 174
130 147 170
135 153 177
132 151 176
133 151 176
130 147 171
131 149 173
133 151 175
131 149 173
134 153 177
131 149 172
132 150 174
135 152 176
130 148 172
130 147 171
134 152 177
132 150 174
135 152 175
132 150 175
135 153 177
131 148 171
133 150 173
133 151 174
132 149 173
134 153 177
137 155 179
134 152 175
132 149 172
130 147 170
132 150 175
130 147 172
132 150 174
132 150 174
132 151 176
133 150 173
135 153 177
134 154 179
130 148 171
135 153 176
136 154 178
133 152 175
131 148 172
133 151 175
132 152 176
134 152 176
132 151 175
134 152 175
134 153 178
131 149 174
132 150 174
133 151 175
133 151 175
133 152 176
132 150 174
134 151 176
133 151 175
133 151 176
131 148 171
134 152 175
132 149 174
133 151 175
130 147 171
134 152 176
134 151 175
133 152 177
134 152 177
134 152 177
133 151 176
133 150 175
134 152 176
132 149 173
131 148 172
133 151 175
132 150 174
133 151 175
133 151 176
133 151 174
133 151 175
134 151 175
135 153 177
133 151 175
133 151 176
134 152 176
131 148 172
132 150 173
133 151 176
135 154 178
133 151 175
134 152 177
135 154 178
134 151 174
135 152 175
133 151 175
132 151 175
131 148 173
133 152 177
132 151 175
132 151 174
135 153 178
135 152 176
133 150 173
135 153 176
134 152 176
132 151 176
136 154 178
137 155 178
136 154 178
138 156 180
131 148 172
143 161 185
140 157 181
132 149 172
138 156 179
137 155 179
137 155 180
139 157 182
138 156 180
140 157 180
133 150 173
143 161 185
140 157 180
136 155 179
140 158 182
139 156 179
135 152 175
139 157 181
142 160 184
142 160 185
140 158 182
134 151 173
137 156 180
140 157 181
140 157 180
138 155 178
132 150 175
138 155 178
134 150 174
140 158 183
138 156 180
141 159 183
143 162 185
140 157 180
136 153 176
139 157 181
140 158 182
136 153 176
140 158 181
136 154 177
135 154 179
138 156 180
134 151 174
138 155 179
134 152 176
133 150 174
135 153 177
134 151 174
129 147 171
134 151 175
137 154 179
130 147 171
137 155 180
137 155 177
133 150 174
132 149 173
132 149 173
132 149 173
130 148 172
130 147 170
130 147 170
132 150 174
126 143 167
133 151 176
131 149 173
133 152 177
132 149 172
135 153 178
131 149 174
129 147 173
132 150 174
130 149 173
132 150 174
131 148 172
132 150 174
127 145 169
130 148 173
132 150 174
133 151 175
129 146 170
129 145 168
129 146 169
127 144 168
126 144 168
130 148 172
129 147 171
131 149 174
132 149 173
124 141 164
125 141 164
129 146 170
128 145 169
129 148 171
127 144 168
131 148 171
128 146 171
128 145 168
131 149 173
122 139 162
125 142 165
125 142 166
128 146 170
123 139 162
125 141 165
128 146 171
130 148 172
124 142 166
125 142 166
124 142 168
130 148 171
123 140 164
129 146 169
126 143 167
129 147 172
123 139 161
123 139 163
129 146 171
122 139 162
123 139 164
128 145 168
124 142 165
127 144 169
124 141 166
126 143 166
123 140 164
126 144 168
123 140 163
119 136 160
118 135 160
125 143 167
124 140 163
120 137 160
119 135 160
124 141 165
119 135 158
130 148 172
124 141 164
118 135 160
119 135 159
121 138 162
123 139 162
120 138 162
123 141 165
118 135 159
124 141 165
129 146 170
119 136 159
118 134 159
122 138 162
117 132 155
119 135 157
122 138 161
117 134 158
115 131 155
115 130 153
117 133 156
119 134 157
112 127 151
112 127 151
117 133 157
112 128 152
115 130 152
118 134 157
116 131 154
117 131 154
119 135 158
119 135 158
119 135 158
110 125 146
121 137 160
114 130 153
117 131 154
121 137 159
116 132 155
111 126 149
108 123 146
106 121 144
110 124 148
113 129 152
106 120 142
109 122 144
106 120 142
105 119 140
103 117 140
103 117 139
105 119 141
111 124 145
107 121 143
98 110 132
101 114 136
101 112 133
103 117 139
100 112 134
97 110 131
96 108 130
94 106 127
93 106 126
100 113 134
97 108 129
92 103 123
95 107 126
88 99 119
93 105 125
91 102 122
86 96 116
86 96 117
92 102 122
91 102 120
91 102 120
88 100 116
84 93 114
92 104 123
84 92 112
89 99 117
77 85 104
77 85 103
79 88 106
88 98 117
85 94 113
79 88 104
94 104 122
83 92 111
76 85 101
77 85 103
86 95 112
74 82 99
79 87 103
72 80 97
89 98 114
67 75 90
68 75 93
71 79 95
75 84 100
69 76 90
78 87 102
70 77 93
64 71 85
73 79 94
72 80 95
63 70 87
65 70 85
57 61 77
72 78 92
72 77 93
62 66 79
71 76 89
53 58 72
63 68 83
72 79 93
51 55 70
48 52 67
64 71 84
51 54 68
63 68 81
55 59 75
63 68 81
48 53 67
64 70 85
60 62 74
56 61 74
70 77 90
66 71 86
68 75 88
68 75 89
74 81 95
55 57 73
70 75 88
67 73 87
83 91 107
46 50 66
72 79 93
73 81 94
78 85 100
66 73 88
75 83 98
52 58 73
65 71 87
74 82 98
92 103 119
81 89 104
75 83 99
79 87 102
87 96 114
84 92 110
83 93 111
87 97 115
90 99 116
83 92 110
93 104 123
79 87 106
81 90 109
95 107 127
92 103 121
78 86 104
87 97 115
94 105 124
93 104 124
89 100 121
81 91 110
92 104 125
96 108 127
103 115 136
91 102 122
88 99 120
90 102 120
109 123 144
98 111 132
96 109 130
109 122 144
95 106 127
100 113 134
90 101 122
102 116 138
103 116 138
107 120 143
100 114 136
109 123 144
105 119 142
103 116 138
107 120 141
98 112 134
112 126 147
113 128 151
105 119 141
104 118 141
104 119 141
106 119 141
111 126 148
108 123 145
110 125 147
114 129 151
110 125 149
112 126 149
111 126 149
115 128 149
110 126 147
117 133 156
118 133 155
110 124 147
115 129 152
116 130 152
119 136 159
118 135 158
119 135 156
113 128 152
118 135 159
116 131 155
116 132 155
115 130 154
117 133 157
115 131 154
115 130 153
120 135 158
120 136 159
117 133 157
122 138 160
126 144 167
116 131 153
127 145 169
120 137 160
118 134 157
123 139 163
120 136 157
119 135 158
123 140 164
126 143 166
121 137 161
119 135 160
119 135 158
123 139 162
118 134 157
126 142 165
126 143 167
120 137 160
124 141 164
119 135 160
126 144 168
121 137 161
123 139 162
122 140 164
124 141 165
125 141 166
130 147 171
121 137 162
128 145 169
126 143 167
128 145 168
128 144 167
124 141 164
133 151 175
125 142 166
123 141 164
128 143 166
125 142 166
125 141 165
122 138 162
126 143 167
127 144 167
128 145 169
130 148 173
126 142 165
124 140 165
128 145 168
125 141 164
129 146 170
125 142 166
130 148 173
128 145 169
130 148 172
129 146 171
129 146 170
127 146 170
127 145 170
125 142 167
129 147 171
130 148 172
125 143 166
127 144 168
131 148 172
126 143 166
127 145 170
126 145 169
130 148 173
132 150 173
129 146 170
129 147 171
127 143 167
127 144 167
131 149 173
130 147 172
129 146 171
131 149 174
131 149 173
130 148 171
130 147 171
130 148 172
129 146 170
130 148 172
130 148 172
131 149 172
132 150 175
129 147 172
130 148 171
131 149 174
132 150 174
128 146 171
132 147 170
130 147 171
129 145 168
131 147 170
132 150 174
130 147 170
131 149 174
131 149 174
133 150 174
130 148 171
133 149 173
130 148 173
126 143 167
132 150 175
124 142 165
130 146 170
129 146 170
131 149 173
129 146 170
132 149 173
130 148 173
131 148 172
130 148 172
132 149 173
132 150 175
130 148 172
131 148 172
132 150 173
129 146 170
130 148 171
132 149 172
130 148 172
134 152 176
133 150 174
131 147 171
132 151 174
132 149 174
131 148 171
129 146 170
132 150 174
131 149 172
131 148 172
130 148 174
132 150 173
133 150 174
131 147 170
133 150 173
130 147 170
132 150 174
132 150 174
133 150 174
131 150 174
130 147 170
133 151 175
133 150 175
132 148 171
133 150 174
132 150 174
131 148 173
129 146 170
126 142 164
133 151 174
133 148 172
132 149 173
131 149 173
130 147 170
133 151 175
128 144 169
133 149 172
130 148 173
133 150 174
130 147 171
131 148 170
132 150 175
128 145 168
135 154 178
132 149 172
131 148 171
132 150 174
133 149 172
134 151 175
133 151 175
132 149 173
132 149 173
133 150 174
130 147 169
133 149 172
129 146 169
135 153 176
131 149 174
133 150 173
134 151 175
132 149 172
131 149 173
133 150 173
131 149 172
132 149 173
128 145 169
131 148 172
135 153 177
132 150 174
131 149 173
134 151 175
133 152 174
137 155 179
131 147 170
134 151 175
133 150 174
134 151 174
132 149 171
132 150 174
131 148 171
135 152 175
131 149 172
133 149 173
133 149 172
132 149 172
133 152 176
131 147 171
136 152 173
135 154 178
129 145 168
134 151 175
131 148 171
133 151 176
133 151 175
131 150 175
133 149 171
130 147 170
132 149 172
135 152 175
132 149 172
133 150 173
132 149 172
133 151 174
133 151 174
133 151 174
135 152 176
131 149 173
135 152 175
132 150 174
131 149 173
133 152 175
132 149 173
132 148 173
132 148 172
131 148 172
133 150 173
131 149 174
132 150 174
133 150 173
130 147 170
131 149 172
135 152 176
134 151 175
129 145 167
132 150 173
132 148 171
134 150 174
134 151 174
132 149 172
135 153 177
131 148 170
131 147 171
134 151 174
129 146 170
129 146 169
133 152 175
134 150 173
131 148 171
132 148 171
135 151 174
131 148 171
135 153 177
133 151 175
133 150 173
129 146 169
131 148 170
132 149 173
132 148 171
132 149 172
134 151 175
133 150 173
132 150 174
134 151 174
131 149 173
131 147 169
130 146 169
133 149 172
133 151 175
132 147 170
134 152 177
132 149 171
131 147 169
130 147 170
133 151 175
134 151 175
133 149 171
131 148 173
132 151 174
131 148 170
135 153 175
134 150 173
131 148 172
133 151 174
134 150 173
132 149 172
135 154 178
130 146 170
128 145 167
131 147 170
133 151 174
131 148 170
128 145 169
132 149 172
132 151 173
134 151 174
132 147 170
133 150 172
133 150 172
131 147 171
134 152 176
135 153 177
132 149 172
129 147 169
130 144 167
131 149 171
134 150 173
133 149 171
133 151 175
134 150 173
130 148 173
131 150 172
133 150 173
132 149 172
133 150 173
133 150 173
131 148 170
129 144 166
133 150 173
132 149 172
131 150 173
132 149 172
134 151 174
130 147 169
134 152 176
131 149 171
127 144 166
131 149 172
132 150 175
132 149 172
131 149 171
131 147 170
133 152 176
134 150 173
131 149 172
132 148 171
134 150 174
132 148 172
133 150 175
131 146 169
130 146 169
132 148 171
131 147 170
131 149 171
131 149 173
134 151 174
127 144 168
132 149 173
131 148 170
130 147 170
131 148 172
128 145 167
135 153 176
135 152 176
127 144 166
131 149 172
132 149 171
132 150 174
132 150 174
129 147 170
128 145 169
130 148 171
134 152 175
128 145 168
132 149 173
131 149 172
131 149 172
131 148 171
133 151 174
131 148 171
130 147 171
131 148 170
132 150 174
133 151 174
133 150 174
133 150 174
132 149 171
130 148 170
132 151 169
127 145 157
126 146 155
126 145 151
125 146 144
121 141 143
124 145 143
121 143 129
116 137 122
114 136 113
117 140 116
115 141 87
115 141 94
115 140 90
107 134 77
112 140 67
103 131 54
107 134 46
102 130 45
102 129 44
105 134 46
106 136 46
102 130 44
105 133 45
108 138 47
105 134 46
106 135 46
105 135 46
105 135 46
107 136 46
103 132 45
107 137 46
108 138 47
104 134 45
102 131 45
100 129 44
105 135 46
101 133 46
103 136 47
103 138 47
95 132 46
97 135 47
100 135 47
99 138 49
96 132 46
91 136 49
99 139 49
95 136 49
96 135 48
92 138 50
88 133 47
87 136 49
88 138 51
88 134 48
82 135 50
87 137 51
83 137 51
80 137 52
76 138 52
78 135 50
81 136 50
71 136 52
74 134 51
74 138 53
75 139 53
78 140 53
68 133 51
68 134 52
69 135 53
67 136 53
58 133 52
63 135 53
67 135 53
64 135 53
68 136 52
68 135 53
61 136 54
69 134 51
54 133 53
68 135 52
52 136 55
54 135 53
61 135 53
57 138 55
63 137 54
56 138 55
61 135 53
64 135 53
62 131 51
65 138 55
61 135 53
62 138 54
57 135 54
69 137 52
67 137 53
54 135 53
65 136 53
72 139 53
67 136 53
65 137 54
67 135 52
68 135 52
69 137 53
77 137 52
73 137 52
70 137 52
64 134 52
68 136 53
74 136 52
72 136 51
79 136 51
84 136 50
75 135 52
82 133 48
84 139 51
73 133 49
82 138 51
80 132 47
90 135 48
90 139 50
88 136 49
89 135 48
82 135 48
94 137 48
83 135 49
89 132 46
85 133 47
88 134 48
100 139 48
100 137 47
99 136 46
97 134 46
101 137 46
100 133 45
95 131 45
100 134 45
101 135 45
99 134 45
106 138 47
101 133 44
107 139 46
102 133 44
107 139 46
108 140 47
107 138 46
103 133 45
104 135 46
97 129 43
103 135 45
107 139 46
103 135 46
103 134 45
103 135 45
103 135 45
103 135 45
102 134 45
105 137 46
102 133 45
102 133 44
100 130 43
102 133 44
103 133 45
105 135 46
107 137 46
109 139 47
101 130 45
99 125 45
104 133 48
96 122 47
95 119 50
94 118 50
95 115 51
89 102 55
86 99 53
85 101 51
83 90 57
83 93 57
81 87 59
74 76 57
70 65 59
71 64 63
76 67 67
71 53 66
69 51 67
70 48 70
66 46 64
64 44 62
68 46 67
63 44 63
64 45 62
65 46 63
68 46 68
67 47 66
65 46 64
70 48 68
65 46 63
65 45 65
63 43 63
66 46 65
71 49 69
73 50 73
67 47 68
63 44 62
72 49 72
65 45 64
72 50 72
71 48 71
65 46 65
75 51 73
72 49 72
71 49 70
64 45 64
69 47 70
67 47 66
73 50 72
68 47 68
71 48 71
70 48 70
68 47 68
69 47 68
71 49 70
71 49 70
67 46 65
68 47 68
71 49 71
72 49 72
72 50 72
72 49 74
69 49 69
72 49 72
66 46 67
69 48 69
73 50 74
73 50 73
75 52 75
69 48 71
72 50 72
76 52 77
70 48 70
72 49 71
69 49 71
74 51 75
71 49 72
72 50 73
70 48 71
73 50 74
71 49 73
71 49 72
67 46 67
76 52 77
74 51 75
76 51 76
72 49 73
74 51 75
77 53 78
71 50 73
74 51 74
71 50 73
72 49 73
70 49 72
73 50 74
74 51 76
75 51 75
75 51 76
72 50 74
71 48 73
70 48 73
69 48 71
73 53 76
76 57 81
75 63 84
83 78 98
83 75 96
88 81 103
95 93 115
99 95 118
102 103 125
110 119 141
112 119 141
105 109 130
116 126 149
120 132 156
120 133 157
122 135 157
124 137 160
124 139 162
123 138 161
119 131 153
125 141 164
126 139 163
123 137 160
128 142 166
121 134 157
125 141 164
125 139 162
122 137 160
121 137 160
122 135 158
119 132 155
125 139 163
125 141 164
122 135 158
122 136 159
123 137 160
126 137 161
125 136 160
117 131 153
121 135 158
122 134 157
125 142 166
123 136 160
125 139 163
123 134 156
123 136 160
123 138 160
125 139 163
115 131 152
122 133 156
122 135 158
126 141 164
121 133 155
122 137 159
124 138 160
118 130 153
124 136 159
124 138 160
122 136 159
119 128 152
123 134 156
126 141 165
119 131 154
124 137 162
120 132 155
122 135 158
121 133 157
120 130 154
119 130 152
126 138 162
126 137 162
122 134 157
119 127 150
125 137 160
124 136 160
117 128 151
122 134 157
123 132 156
121 130 153
116 127 148
123 130 155
119 130 153
117 126 149
122 132 156
127 138 161
125 137 161
120 128 153
119 127 150
121 133 156
123 135 157
118 124 148
119 130 153
122 131 155
113 119 142
116 123 147
117 127 149
123 130 154
122 128 152
121 128 151
119 128 151
124 135 158
121 130 153
124 131 156
121 130 154
121 121 145
118 122 146
115 124 146
118 130 152
122 133 157
119 126 149
122 133 157
113 119 141
120 129 152
119 126 149
121 128 151
116 118 141
121 127 151
124 127 152
123 131 154
119 123 147
116 124 147
121 126 150
121 127 149
119 127 150
126 137 160
126 132 156
116 120 143
118 125 147
123 130 154
115 117 140
118 120 143
115 116 140
120 126 150
116 121 142
115 122 144
116 117 141
119 123 147
117 117 141
115 118 141
113 115 139
115 117 141
124 128 152
119 120 145
118 123 148
116 119 142
115 122 143
114 115 136
119 121 145
120 127 150
121 123 146
120 125 148
119 123 146
115 118 140
119 122 146
120 121 144
121 127 150
114 123 145
122 125 149
114 118 141
119 123 146
117 119 142
119 125 147
121 127 151
117 122 145
118 124 145
123 129 152
115 114 137
118 118 142
110 112 133
120 124 146
120 121 144
119 128 149
116 121 143
119 119 142
124 131 154
122 129 152
117 115 138
121 120 145
122 127 151
118 125 147
117 125 146
122 131 153
123 127 151
122 130 153
120 128 149
120 126 149
123 133 155
121 127 151
116 120 142
123 130 152
125 129 153
124 132 156
120 123 147
118 125 148
124 131 154
124 134 157
124 136 158
121 126 150
123 132 154
126 138 160
121 130 151
125 135 159
123 131 155
126 134 158
121 128 151
125 130 154
121 131 153
123 131 154
122 132 156
122 131 154
126 135 159
126 139 162
123 132 155
123 134 155
127 140 163
119 129 150
124 135 158
123 135 157
123 132 157
120 125 148
119 131 153
127 136 159
125 134 157
126 137 161
125 138 161
126 139 162
129 138 163
132 145 168
123 135 157
126 137 161
121 128 151
124 135 158
126 135 159
127 139 163
126 139 162
123 134 157
125 136 159
130 146 168
130 145 170
131 144 168
127 139 165
127 138 162
125 138 160
127 138 163
126 135 159
124 138 160
126 138 161
125 137 160
123 134 157
126 141 164
128 140 163
127 139 162
127 139 162
125 138 161
130 142 166
127 139 162
128 144 166
131 143 166
128 140 164
125 136 157
123 139 160
128 141 166
129 138 164
130 143 168
126 139 162
126 142 165
128 142 166
129 142 166
124 140 163
128 141 165
127 142 164
129 145 168
125 141 161
125 139 162
129 143 166
124 137 161
133 149 173
126 138 161
123 137 158
130 147 171
125 139 162
128 140 163
126 138 163
126 140 162
121 138 159
119 133 155
128 145 168
125 140 163
126 140 163
126 141 164
127 141 165
131 146 169
125 145 165
129 144 168
127 142 165
122 138 159
125 139 160
124 141 162
128 143 166
123 139 160
127 141 165
128 147 169
130 146 169
126 142 164
129 145 169
127 141 163
126 140 164
128 143 167
126 146 169
125 142 164
130 148 171
127 141 164
125 141 164
124 143 165
122 141 162
127 141 164
127 142 167
