P3
1600 1
255
145 53 24
145 54 24
143 53 24
146 54 24
144 54 24
145 53 24
141 53 23
144 54 24
145 54 24
144 53 24
147 54 24
142 53 23
142 52 23
145 53 24
148 55 24
146 54 24
147 55 25
143 53 24
146 54 24
145 54 24
146 54 24
142 52 23
147 54 24
143 53 24
143 53 24
143 53 24
142 53 23
144 53 24
145 53 24
145 53 24
145 54 24
143 53 24
145 54 24
143 53 24
144 54 24
144 54 24
144 53 24
145 54 24
148 55 25
145 54 24
145 54 24
147 54 24
145 54 24
148 55 25
142 52 23
142 53 24
141 52 24
143 53 24
144 53 24
141 53 23
148 55 24
144 54 24
140 51 23
145 54 24
146 54 24
146 54 24
145 54 24
145 54 24
142 53 23
144 53 24
144 53 24
144 53 24
145 54 24
140 52 23
143 53 24
140 52 23
144 53 24
143 53 24
146 54 24
144 53 24
143 53 24
143 53 24
146 54 24
143 53 24
145 53 24
140 52 24
141 52 24
144 53 24
144 53 24
143 53 24
144 53 24
146 54 24
134 50 22
143 53 24
139 52 23
141 52 24
144 53 24
143 53 24
137 51 23
139 51 23
146 54 24
140 52 23
141 53 23
142 53 24
142 52 23
142 53 24
143 53 24
143 53 23
141 53 24
138 51 23
140 52 23
143 53 24
140 52 23
141 52 23
142 52 23
146 54 24
139 51 23
140 52 23
139 51 23
138 51 23
140 52 23
142 53 23
139 52 23
142 52 23
139 51 23
138 51 23
137 50 23
136 50 22
139 52 23
137 50 23
137 55 34
139 57 38
133 67 58
132 74 71
135 89 93
136 85 86
133 91 95
139 98 104
130 96 104
134 112 124
133 115 129
134 117 131
137 117 130
133 124 140
135 123 138
134 134 153
133 137 157
133 142 163
137 149 173
132 148 171
134 151 175
133 152 176
133 151 175
129 147 171
135 153 177
134 151 175
135 154 179
134 151 175
135 153 177
132 151 175
133 151 176
134 153 177
131 149 173
131 149 174
132 149 173
136 155 179
135 152 175
135 153 178
133 151 176
133 151 175
134 151 175
129 146 169
133 151 176
135 153 177
132 151 176
129 148 172
131 149 172
132 150 175
132 149 172
135 154 178
134 152 176
132 149 172
135 152 175
133 151 175
131 149 173
132 150 174
132 150 175
133 151 175
134 152 175
134 152 176
132 150 174
128 143 167
132 150 173
134 151 174
133 151 175
135 153 177
135 153 177
132 150 173
131 149 172
133 152 176
129 146 170
131 149 173
135 153 177
132 150 174
133 152 176
135 152 174
133 152 177
131 149 172
134 152 176
136 154 178
135 154 178
134 151 174
131 149 173
134 152 176
132 151 175
134 152 176
131 149 173
134 153 178
134 153 178
133 151 176
129 147 172
134 152 175
133 151 175
134 152 177
132 150 175
134 152 176
132 149 174
132 149 173
133 150 174
132 150 174
132 150 174
132 149 173
132 149 174
134 152 176
132 150 174
135 153 177
132 150 175
133 151 176
133 151 176
134 152 176
131 149 173
133 149 172
131 149 174
133 151 176
134 152 177
134 152 177
132 150 173
133 152 176
135 153 177
133 151 175
132 150 174
136 154 178
131 149 173
132 149 174
132 150 174
133 151 175
133 151 176
134 152 176
134 152 177
132 149 173
136 153 177
133 151 175
135 154 177
134 153 177
131 149 174
134 152 176
130 149 174
135 153 176
136 154 178
139 157 181
132 150 173
134 151 175
136 153 177
135 152 176
138 156 181
135 153 176
135 152 176
141 159 183
137 155 178
133 151 175
134 152 176
138 156 179
141 158 181
138 155 178
134 151 175
137 156 181
141 159 183
143 160 183
133 149 172
141 158 182
144 162 185
141 157 181
143 160 184
143 160 183
137 154 176
146 164 188
142 159 183
147 165 190
137 156 180
138 156 180
146 164 188
142 159 183
137 154 177
138 154 177
143 161 186
142 159 184
143 161 184
147 164 189
143 161 185
142 159 184
141 158 182
139 157 181
134 151 175
139 156 178
140 157 181
138 156 180
144 161 184
138 156 179
138 156 180
143 161 185
140 157 181
137 155 178
136 153 176
133 151 175
137 154 178
138 154 177
134 151 174
131 148 171
132 148 171
137 153 176
136 154 177
133 150 172
135 153 177
132 149 172
133 150 174
129 146 170
132 150 174
136 152 174
130 146 169
130 145 168
135 152 176
130 146 169
134 152 176
133 151 175
131 147 171
130 148 173
130 147 172
131 149 173
129 147 171
132 150 174
132 149 172
131 149 173
130 149 173
127 144 168
132 150 175
130 148 172
130 147 171
128 145 168
129 146 169
125 142 164
127 144 168
130 147 171
128 146 170
130 149 174
132 149 173
124 141 165
125 142 166
129 146 170
125 143 167
132 151 175
127 144 168
130 147 170
129 147 172
126 143 166
130 147 171
124 140 163
127 143 167
127 143 167
128 146 170
119 135 158
125 141 165
129 147 172
127 145 169
124 142 166
125 143 167
125 142 167
126 142 165
126 143 168
127 143 166
127 144 169
129 147 172
126 143 165
125 142 166
127 144 169
126 144 168
125 141 165
130 148 171
127 145 168
129 146 170
124 142 166
125 142 166
125 141 165
122 139 163
128 145 168
122 140 164
121 139 164
123 141 165
121 137 160
122 137 161
125 141 165
123 140 164
119 136 160
127 144 167
127 144 168
119 136 160
117 134 158
121 137 161
119 135 158
125 142 166
124 141 165
123 140 165
119 135 159
127 144 168
127 144 168
118 135 158
120 136 159
116 132 156
122 138 161
119 135 159
119 135 159
118 133 156
119 136 161
114 130 153
124 140 164
122 137 161
111 126 149
111 126 150
119 135 158
114 130 154
113 128 151
114 129 153
113 129 152
117 132 155
120 135 158
124 141 164
115 131 154
107 122 144
121 137 159
108 122 146
120 136 159
119 134 156
119 135 159
110 125 149
108 123 146
111 126 149
110 124 146
108 123 147
103 118 142
104 117 139
104 117 139
110 124 147
104 118 140
106 119 142
106 119 141
108 121 143
112 126 148
100 114 137
103 116 138
102 114 136
103 116 137
102 114 137
97 110 131
99 111 132
94 106 126
96 108 130
101 113 134
96 108 129
99 112 133
88 99 118
91 102 121
94 106 127
105 119 139
92 103 122
100 112 132
85 96 114
99 111 131
87 98 116
98 109 127
93 105 122
90 101 122
88 99 119
83 92 111
80 89 109
84 94 113
87 97 115
75 83 101
79 87 107
90 101 119
83 93 110
82 90 107
93 103 121
64 70 86
89 98 115
68 76 92
67 74 91
69 76 92
71 80 95
77 86 102
68 76 93
67 75 91
71 79 95
66 73 86
65 71 85
69 77 93
75 82 98
74 82 96
64 66 81
65 71 87
71 78 94
70 77 91
59 66 82
72 80 94
64 69 83
61 66 81
66 73 86
69 75 89
51 55 69
60 65 78
61 65 79
61 66 78
62 69 81
58 62 76
61 66 80
51 59 70
64 70 84
55 60 73
76 83 96
74 80 95
69 76 88
70 77 93
75 81 96
61 66 80
66 72 88
64 70 82
55 57 72
75 82 97
78 85 100
76 85 100
69 76 91
78 86 100
73 81 95
67 73 88
69 77 92
70 76 91
68 74 88
68 75 90
72 81 97
75 82 99
77 84 99
85 94 111
78 86 102
89 98 115
82 90 106
79 89 108
81 91 110
84 93 112
86 96 114
84 94 113
83 92 111
81 90 110
90 99 117
83 93 111
85 95 115
85 94 112
90 102 123
98 108 128
81 90 110
94 105 123
99 111 130
92 104 124
96 108 128
91 102 122
102 114 134
98 111 130
102 114 134
99 109 130
97 109 129
98 111 132
93 104 125
103 115 137
103 117 139
98 109 129
107 120 141
106 120 142
107 120 142
100 113 137
108 122 143
100 114 135
110 124 145
115 130 152
101 115 137
113 129 152
107 121 143
105 119 142
106 120 141
111 126 148
107 120 142
101 115 136
107 121 144
106 120 142
110 124 146
117 132 154
111 126 148
112 127 150
112 126 148
115 130 152
113 127 150
116 131 152
115 131 154
119 134 157
118 133 156
112 127 150
118 133 157
116 133 156
116 131 153
113 128 152
113 128 151
114 131 154
110 124 147
114 128 151
118 134 157
117 132 155
121 138 161
122 138 160
122 138 162
121 139 162
122 138 161
116 132 155
124 140 164
120 136 158
121 138 160
125 142 166
121 138 161
119 135 159
117 132 154
121 137 160
120 136 160
124 140 164
125 142 164
122 139 162
121 138 162
119 135 159
127 144 167
122 139 163
119 134 157
124 141 165
119 136 161
126 143 167
126 142 166
119 135 158
130 148 172
124 141 164
129 146 169
125 141 165
122 139 163
126 144 167
130 148 172
124 141 165
126 142 165
124 140 164
127 144 168
123 139 162
122 139 162
125 142 165
128 146 170
122 139 162
128 146 169
127 144 168
125 142 165
125 142 166
128 144 168
128 144 168
126 144 168
132 150 174
127 145 169
132 150 174
129 145 169
129 145 169
127 145 170
128 145 170
126 144 168
130 148 172
128 146 170
123 139 163
131 150 174
131 148 171
123 139 163
126 145 170
129 147 172
129 147 171
130 148 171
130 147 172
130 148 173
127 143 166
127 144 168
129 147 172
131 149 174
130 147 171
131 149 173
131 149 173
128 145 169
132 149 174
127 144 169
128 145 170
131 148 173
130 148 173
133 151 176
129 147 171
130 147 171
131 149 173
129 148 173
131 148 172
129 147 172
130 146 169
132 149 173
125 141 165
133 149 172
133 150 173
130 147 170
131 149 173
132 149 174
132 150 174
134 151 175
133 149 172
130 148 172
128 146 170
132 150 174
127 145 170
128 145 166
132 149 173
130 147 171
131 148 172
131 149 173
132 150 174
130 148 171
131 148 172
132 149 173
131 149 174
131 150 174
131 149 172
131 149 173
131 148 172
129 146 170
133 152 177
131 149 173
130 147 172
133 150 173
130 147 171
135 152 176
132 151 176
133 151 175
128 145 169
131 149 174
127 143 166
133 151 173
128 145 170
134 152 176
132 150 172
133 149 172
132 149 173
134 151 175
132 149 172
134 151 175
131 149 174
132 149 174
131 148 171
133 152 176
134 152 177
131 147 170
133 151 175
130 148 172
133 150 174
132 149 173
130 146 169
131 149 172
130 147 171
133 150 173
134 151 176
132 150 174
130 148 171
132 150 175
131 147 170
134 152 176
131 149 173
132 149 174
128 146 170
132 149 173
130 148 172
133 151 174
134 153 177
131 148 172
132 149 172
132 149 172
134 151 175
134 152 176
135 153 176
131 148 172
132 150 173
135 152 176
129 146 169
134 150 173
130 146 169
133 152 174
132 150 174
132 149 173
133 151 174
135 153 177
132 149 174
132 148 171
133 150 174
128 146 169
133 150 175
131 147 171
132 150 174
133 151 175
132 150 174
133 150 174
135 153 178
132 151 173
133 151 175
133 150 174
134 152 176
134 152 175
131 147 169
131 148 173
133 150 174
135 152 176
133 151 175
130 147 171
133 149 173
134 151 175
137 155 178
133 149 172
132 149 172
135 153 175
132 149 173
132 149 171
134 151 175
133 151 175
132 149 174
133 152 177
131 148 171
132 148 171
134 152 176
132 149 172
133 149 172
134 151 175
133 151 174
132 149 172
134 152 175
131 149 173
135 152 176
133 151 174
134 150 173
133 151 175
132 151 175
132 151 175
134 152 175
132 149 172
133 151 175
131 147 170
131 148 171
132 151 175
134 150 174
130 147 170
131 148 171
130 148 171
133 150 174
134 152 176
134 151 174
131 148 170
132 149 172
132 148 172
134 152 176
133 151 175
133 150 173
134 152 176
130 147 169
131 148 170
134 151 174
131 148 171
129 147 169
133 150 173
130 147 170
132 148 171
133 150 173
133 151 175
131 149 172
133 151 175
135 152 176
135 152 176
129 145 167
129 146 169
132 149 173
132 148 171
132 151 174
135 151 175
132 148 171
132 148 172
133 150 174
133 150 174
132 148 170
131 147 170
133 149 172
133 150 174
132 149 172
134 152 177
133 151 173
129 146 169
129 146 169
134 152 175
132 149 172
132 150 173
132 149 173
131 149 172
132 149 171
137 154 178
131 148 171
132 148 171
134 151 175
132 148 170
133 151 175
133 150 174
131 148 171
128 144 166
129 146 169
134 150 174
130 146 168
130 146 169
133 150 174
133 151 174
134 152 174
132 148 171
133 151 174
130 146 168
132 149 173
135 153 177
134 152 176
131 148 172
131 147 169
132 149 172
132 151 175
135 150 173
133 150 172
132 149 173
132 149 173
132 151 175
132 151 174
132 150 173
133 149 172
132 149 172
132 150 174
133 150 172
130 146 170
132 149 173
133 150 174
132 149 172
132 149 173
130 146 169
132 150 172
133 151 175
129 147 170
128 145 167
130 147 170
132 150 175
130 146 168
132 149 172
131 148 172
133 150 174
132 149 172
131 149 173
134 151 173
131 147 170
133 150 173
131 148 171
132 148 172
130 147 170
133 149 171
129 146 169
131 150 173
132 150 173
133 150 173
127 144 168
129 146 170
131 148 171
129 146 169
133 151 175
129 145 167
135 153 176
130 146 170
131 149 170
131 147 170
130 147 170
133 151 175
129 147 169
130 146 170
129 147 169
134 152 176
129 146 168
133 150 174
133 151 174
128 146 168
131 149 171
133 150 173
132 150 174
128 145 168
132 149 172
132 150 172
133 151 174
132 149 173
134 151 175
134 152 176
131 149 173
132 151 174
127 145 160
128 147 163
126 145 156
127 146 154
126 146 155
123 144 146
126 147 143
117 138 121
120 143 127
115 139 113
116 139 107
113 138 97
114 139 90
110 135 86
108 135 72
111 139 77
105 132 57
102 130 45
101 128 43
102 129 44
105 136 46
107 135 46
103 132 45
107 136 47
103 132 45
105 133 45
106 135 47
105 134 46
100 129 44
104 133 46
108 137 46
107 137 47
106 137 46
103 134 46
102 133 46
99 133 46
102 137 48
101 134 46
103 136 47
96 133 47
96 131 45
93 131 46
93 136 48
97 136 48
87 130 46
94 137 50
94 138 49
88 134 48
86 136 50
92 138 50
86 135 49
83 136 50
78 133 50
75 131 50
78 135 51
78 135 51
81 138 52
68 136 53
74 137 52
71 133 51
67 134 52
76 137 52
62 134 52
70 139 54
74 139 54
55 134 53
59 134 53
60 137 54
59 137 55
58 138 55
61 135 53
60 136 54
56 134 54
52 135 54
62 137 54
60 135 53
52 137 55
52 137 55
51 133 53
60 134 53
47 137 55
47 135 55
54 135 54
54 138 56
61 137 54
52 138 55
55 137 55
54 136 55
55 135 53
60 138 55
48 136 55
53 138 55
49 135 54
58 138 55
68 139 54
45 134 54
52 135 54
57 138 56
56 137 54
50 134 54
58 136 54
55 134 53
54 136 54
57 135 53
67 137 53
62 138 54
54 136 54
60 134 52
56 130 51
63 137 53
62 136 53
72 137 53
65 135 52
69 138 53
78 137 51
71 135 51
70 134 51
75 135 50
79 132 49
81 137 51
80 136 50
85 137 50
76 134 50
88 137 50
84 134 48
76 134 50
80 133 48
88 138 50
83 131 47
92 137 49
90 134 48
100 139 48
87 131 46
93 134 47
88 126 44
94 134 46
94 132 45
94 133 46
100 136 46
100 135 46
104 137 46
104 136 45
104 135 45
105 136 45
102 136 45
101 132 44
103 134 45
97 129 43
103 135 45
104 136 45
107 138 46
102 133 45
103 135 45
99 131 44
103 135 45
102 132 45
105 136 46
100 131 44
98 129 43
101 131 44
105 135 45
102 132 45
106 136 46
108 138 46
106 136 46
102 132 44
102 131 46
104 133 47
99 127 46
103 129 51
99 125 48
98 121 48
93 113 52
96 115 55
87 101 53
81 91 54
86 100 56
90 102 57
78 86 56
77 80 57
80 79 63
73 68 61
68 61 56
69 51 66
66 49 64
64 46 63
63 44 62
66 45 64
61 43 59
65 46 64
65 45 63
62 43 62
67 46 66
65 45 64
67 46 65
67 46 65
63 43 62
63 44 63
64 45 61
70 48 69
70 48 69
67 46 67
61 43 62
67 46 66
69 47 68
70 48 69
67 46 66
67 46 66
69 48 68
70 48 68
67 47 66
70 48 69
68 47 67
67 46 66
69 47 68
67 47 67
69 48 69
64 44 64
68 47 68
71 49 72
70 48 70
70 48 67
66 46 65
71 49 71
70 48 70
69 48 69
72 50 73
72 49 72
69 48 69
70 48 71
66 46 66
71 49 73
68 47 67
71 49 71
67 47 69
70 48 70
76 52 76
68 47 69
71 49 70
70 48 72
73 50 73
70 49 71
74 51 75
71 49 71
73 50 74
71 49 71
76 51 76
71 49 73
77 52 79
73 50 74
75 51 75
74 51 75
74 51 76
74 51 75
71 49 73
74 50 74
69 48 71
72 49 73
72 50 73
73 50 74
71 49 72
74 50 74
76 51 77
70 49 73
74 51 76
73 50 73
77 52 78
72 49 74
72 49 73
75 60 82
81 66 88
80 68 90
82 71 94
91 86 107
88 83 104
99 101 122
105 109 131
103 106 128
106 108 130
111 120 143
117 124 148
117 129 153
120 132 154
123 137 161
125 142 165
122 136 159
119 133 155
126 141 165
127 139 163
125 140 162
125 136 161
123 137 159
124 140 164
121 137 159
127 142 167
122 135 158
123 137 160
124 137 160
120 133 156
127 141 165
124 139 162
125 137 161
122 136 159
120 132 155
124 136 160
123 135 159
117 131 154
124 139 162
126 141 165
124 139 163
124 135 158
129 142 167
127 141 164
119 132 155
125 140 162
122 137 160
123 138 160
121 132 154
126 135 159
127 138 162
123 136 159
122 135 157
123 138 161
124 139 162
124 136 159
128 144 167
119 132 155
121 131 154
125 138 160
128 143 167
121 135 158
121 134 157
126 137 162
126 140 164
123 136 159
121 132 156
126 139 162
121 131 155
127 139 162
123 133 158
122 133 156
120 131 154
125 134 158
123 135 158
120 129 152
122 132 156
123 134 157
123 136 159
120 130 154
122 132 156
118 129 152
122 133 157
125 135 159
125 138 161
127 140 164
121 131 156
120 129 153
126 137 161
121 131 154
124 133 157
123 135 160
123 133 157
120 127 151
120 130 154
120 131 153
118 127 150
125 130 155
120 129 152
123 131 154
125 133 157
119 126 149
123 130 153
124 134 158
119 127 152
121 126 150
122 129 153
119 130 153
122 133 156
119 128 152
120 128 151
120 132 155
122 128 152
119 128 151
123 132 154
115 121 144
122 130 153
120 126 148
121 126 150
128 136 160
122 128 152
118 126 148
127 138 161
118 123 146
121 129 151
123 132 155
124 137 160
124 130 154
114 117 140
120 126 147
123 127 152
119 123 148
115 121 143
116 121 145
121 129 152
121 127 150
120 127 150
117 120 143
118 124 149
122 125 149
116 119 142
120 128 151
117 121 144
121 127 150
121 124 148
117 117 140
123 136 158
115 116 140
114 119 141
117 122 143
120 124 148
123 127 151
120 127 149
121 128 151
126 130 155
121 125 148
119 127 150
121 126 148
121 130 152
116 125 148
116 119 142
119 127 150
121 125 148
124 129 153
119 124 147
123 133 157
115 116 139
121 127 150
125 134 157
125 130 154
117 116 139
117 124 146
121 124 149
123 129 152
124 128 151
115 120 141
121 131 154
124 126 151
124 131 155
122 132 155
118 121 144
121 126 151
122 128 151
120 128 150
118 130 151
123 130 155
120 124 148
118 124 147
124 132 155
125 134 157
122 132 154
124 127 152
122 133 155
126 137 160
126 135 159
124 133 156
123 132 155
119 125 147
128 137 161
123 131 155
127 139 163
123 133 156
126 137 160
128 138 161
122 130 153
123 132 155
125 138 162
129 142 165
126 135 158
125 132 157
122 127 150
120 130 153
118 125 147
127 141 164
123 131 154
124 133 157
127 141 164
124 136 160
125 134 157
124 138 159
126 139 162
126 132 154
122 130 154
127 136 160
122 132 156
120 127 150
125 137 160
124 134 156
123 135 159
126 137 162
124 136 160
127 137 161
127 139 163
130 144 166
125 139 161
125 134 158
124 136 160
125 136 159
127 140 164
128 141 164
130 147 170
122 135 157
127 143 166
128 140 164
131 148 173
128 140 164
128 140 165
127 139 163
124 140 161
127 140 164
125 136 159
126 138 162
127 139 163
128 143 166
124 135 158
125 141 163
128 144 166
126 141 164
126 137 160
126 138 163
128 143 166
130 143 166
127 142 164
131 145 169
127 141 164
127 140 162
125 139 162
127 140 164
128 140 165
130 145 170
127 142 165
126 141 164
129 143 166
124 140 162
125 141 163
129 142 166
128 145 168
126 142 165
125 141 164
125 141 163
125 140 162
123 136 158
131 147 172
130 142 166
125 140 161
130 145 169
128 146 169
128 145 167
129 142 166
126 139 163
124 139 161
122 137 158
125 140 163
127 142 166
126 145 166
123 139 162
123 138 162
127 143 166
126 144 164
127 146 168
128 141 165
126 142 165
127 141 164
121 138 158
126 143 165
122 137 159
126 145 167
124 138 160
129 148 170
130 145 168
129 144 168
126 143 165
126 141 164
127 141 165
129 147 170
125 143 166
126 144 167
