P3
1600 1
255
142 52 23
136 50 23
137 51 22
142 52 23
137 51 23
139 51 23
140 52 23
140 52 23
135 50 22
137 51 23
139 52 23
136 50 22
143 53 24
138 51 23
142 52 23
142 52 23
137 51 23
141 53 23
138 51 23
140 52 23
142 52 23
146 53 24
142 52 23
143 53 23
137 50 22
139 52 23
140 51 23
139 51 23
138 51 23
143 53 24
138 51 23
136 51 22
132 49 22
141 52 23
142 52 23
138 51 23
139 52 23
138 51 23
144 53 24
138 51 23
138 51 22
139 51 23
139 51 23
139 51 23
138 51 23
137 51 22
143 53 23
140 52 23
140 52 23
142 53 23
143 53 23
140 52 23
137 51 23
142 52 23
139 51 23
140 52 23
135 50 22
140 52 23
139 51 23
135 50 23
139 52 23
140 52 23
141 52 23
139 51 23
141 52 23
141 52 23
141 52 23
137 51 23
138 51 23
136 50 22
140 52 23
140 52 23
142 52 23
134 50 22
134 50 22
135 50 22
139 51 23
141 52 23
138 51 23
134 49 22
137 50 22
135 50 23
135 50 22
137 51 23
140 52 23
139 51 23
136 51 23
136 50 23
137 51 23
136 51 23
135 50 22
140 52 23
131 49 22
134 50 22
134 50 22
132 49 22
134 50 22
138 51 23
136 50 22
137 51 23
136 50 22
134 49 22
135 50 22
136 50 22
133 49 22
137 50 22
135 50 22
136 50 22
137 51 23
130 48 21
137 50 23
136 50 22
130 48 22
132 49 22
131 48 22
134 49 22
136 50 22
133 49 22
136 50 22
130 48 21
132 48 21
132 49 22
131 48 21
133 49 22
131 48 21
135 50 22
131 48 21
130 48 21
134 49 22
133 53 33
138 58 42
136 62 49
130 73 71
126 76 77
131 89 92
133 90 94
132 104 113
135 104 112
135 120 136
130 118 132
131 119 134
133 126 143
132 128 145
132 130 147
133 142 164
131 143 165
133 145 167
134 151 174
130 147 170
132 150 174
135 153 177
132 150 175
130 147 172
130 147 171
136 154 177
133 151 176
132 150 174
135 153 177
134 152 176
133 151 176
132 150 174
132 150 175
129 145 169
134 151 175
131 149 172
133 151 176
133 151 175
132 150 174
133 150 173
132 150 173
132 150 174
135 153 177
134 152 176
132 149 173
132 149 173
132 150 175
130 148 172
134 150 174
130 148 172
136 154 178
133 152 175
134 153 177
130 147 171
133 152 176
132 151 174
132 151 175
134 152 175
133 151 175
131 150 174
136 154 178
130 147 170
134 153 177
131 148 171
131 150 174
134 152 176
135 153 177
134 151 176
133 151 174
133 150 174
132 149 173
136 154 179
134 151 175
135 152 176
131 149 173
135 154 178
133 151 175
132 150 173
132 149 173
134 152 176
132 149 172
128 145 169
135 153 178
133 151 175
135 153 178
135 153 177
132 151 175
134 151 175
136 154 177
133 150 173
131 148 172
133 150 175
133 151 175
134 152 176
137 155 179
136 154 179
136 154 179
135 151 175
134 151 175
136 154 177
136 154 179
141 158 182
142 158 182
134 151 175
142 159 183
134 150 173
143 159 184
138 157 181
143 159 184
136 154 178
140 158 182
139 156 179
141 159 183
138 156 180
136 153 177
144 161 184
143 160 185
141 156 180
146 163 187
147 164 188
148 165 189
143 161 185
138 156 181
140 156 180
138 154 178
143 160 184
144 161 185
140 157 181
143 160 183
141 159 184
140 158 183
143 160 184
141 157 180
142 160 184
133 150 172
142 160 185
144 163 188
137 154 177
137 155 179
138 156 180
138 156 180
143 162 187
139 157 180
135 153 177
142 160 185
139 158 182
138 155 179
139 158 183
139 156 179
139 155 178
141 159 184
134 152 176
137 155 179
137 156 181
138 156 181
137 154 178
138 156 181
140 158 182
135 154 178
134 152 176
138 157 183
135 153 177
138 156 180
136 154 178
138 156 181
140 159 184
135 153 177
136 153 176
137 156 181
138 156 182
135 153 178
135 153 177
137 153 177
133 151 175
139 156 181
134 150 174
136 152 177
137 155 180
136 153 178
137 155 181
129 144 167
133 150 173
139 155 180
136 154 178
135 153 178
139 158 183
133 149 172
140 158 183
140 157 181
141 158 181
142 160 185
137 153 178
138 154 178
136 154 178
135 152 176
138 155 179
140 157 181
139 156 181
144 161 184
142 160 185
145 162 186
143 159 183
140 158 181
144 161 186
145 162 184
142 159 182
138 151 172
136 152 173
138 155 178
141 156 179
137 154 176
140 157 179
135 151 173
139 156 181
134 148 170
139 155 178
137 152 174
140 156 179
134 150 172
141 156 179
133 148 171
136 152 177
135 153 177
129 144 165
130 147 170
132 148 172
136 152 175
129 146 168
130 147 170
130 146 168
129 145 169
129 146 170
134 150 174
132 149 172
125 141 165
128 145 170
135 152 176
128 145 169
127 144 168
127 145 170
126 144 169
130 147 171
123 140 165
125 143 168
125 142 167
127 145 169
130 148 172
126 144 169
129 147 170
126 144 169
130 148 172
129 146 171
126 143 168
126 142 166
125 143 168
129 147 173
126 143 168
127 144 169
129 146 171
124 141 166
129 147 171
126 144 169
130 148 171
125 143 168
130 147 171
128 146 171
127 144 167
124 142 166
131 149 174
123 141 165
123 139 163
128 145 170
125 142 165
131 149 174
127 144 168
127 145 169
118 135 159
118 135 159
125 143 167
120 137 161
127 144 168
121 136 159
128 145 170
126 142 166
122 138 162
129 147 172
121 138 162
123 139 164
127 144 168
124 141 163
127 144 168
125 141 166
128 145 168
124 141 164
125 142 166
124 142 166
126 143 168
119 135 159
122 139 164
125 143 166
123 139 163
121 138 162
120 136 160
124 141 166
122 139 163
122 139 162
128 146 170
117 131 154
120 136 159
122 139 163
127 144 168
120 137 161
120 137 160
114 129 152
121 137 160
122 140 165
119 135 159
120 136 160
123 140 163
120 137 162
120 135 159
117 132 156
117 132 156
117 133 157
120 137 161
118 133 156
118 133 157
119 135 159
113 129 153
115 131 153
113 129 152
119 135 158
113 128 152
112 127 151
112 127 151
117 133 157
122 138 162
116 130 153
113 127 150
118 134 157
118 133 155
111 127 152
117 132 156
113 128 150
117 132 154
110 124 147
114 129 153
115 131 154
117 132 156
108 123 147
113 128 150
116 130 153
115 131 154
108 122 145
102 116 138
112 126 149
103 117 140
109 123 145
108 122 144
118 133 155
118 132 154
115 130 153
106 120 142
113 128 150
112 126 149
122 137 160
111 125 147
119 134 156
110 126 149
118 133 155
113 128 151
114 128 150
113 128 151
112 127 149
114 129 151
114 130 152
112 126 149
114 129 151
104 118 141
105 118 140
115 129 151
109 123 146
109 124 147
113 127 150
107 120 143
109 123 145
118 133 156
113 127 149
110 124 146
117 132 155
110 125 148
116 132 155
116 130 152
110 124 146
113 128 150
106 120 141
106 121 144
104 117 139
112 127 149
105 119 141
103 117 140
107 122 146
112 125 146
112 128 151
107 120 143
112 127 150
117 132 154
117 133 157
111 127 150
104 118 140
113 127 149
108 122 143
108 121 143
106 120 141
111 127 150
111 127 149
108 121 143
114 128 150
108 123 146
118 133 157
120 135 158
106 119 141
109 123 146
119 135 157
118 134 157
116 131 154
114 130 153
112 128 150
116 131 154
120 136 159
112 126 147
115 130 151
116 132 157
116 131 155
113 127 151
120 134 157
114 129 152
119 134 157
124 140 163
119 135 159
108 122 144
115 130 152
119 135 160
117 133 156
115 131 154
112 127 151
116 131 154
113 128 153
118 133 156
121 137 160
126 142 166
117 133 157
118 133 157
118 133 156
117 133 156
125 142 167
123 140 164
125 141 165
118 133 156
123 139 163
116 132 156
122 139 163
125 143 167
123 138 162
120 137 161
119 136 160
120 136 161
123 140 165
122 138 162
124 141 163
115 130 155
124 142 164
121 137 161
124 141 163
118 134 158
119 137 160
122 138 162
129 146 170
120 136 160
129 145 169
125 142 166
127 144 168
122 138 162
127 144 167
123 140 164
132 149 173
123 140 163
124 142 166
122 140 165
124 141 166
123 140 163
129 145 169
123 140 163
121 138 162
129 146 171
124 141 164
126 142 165
124 141 164
129 145 169
130 147 171
123 139 163
121 138 162
128 146 171
126 143 168
120 137 161
128 146 169
130 147 171
129 147 172
127 144 167
125 142 167
127 144 168
123 140 163
130 147 170
129 145 169
124 141 166
126 143 165
129 148 173
127 144 167
133 150 174
131 149 174
128 146 170
131 150 174
128 145 169
133 151 176
127 144 168
127 144 168
122 140 164
123 140 164
126 145 168
130 147 171
132 150 174
130 148 173
129 146 170
131 149 174
130 149 172
132 151 175
126 144 169
128 145 169
132 150 173
133 150 174
130 147 170
127 144 170
132 150 173
130 148 172
132 151 176
127 145 168
128 147 171
133 151 176
128 146 170
132 150 175
133 150 174
128 146 170
131 149 173
131 149 174
125 142 166
130 147 171
132 150 174
128 146 171
129 148 172
129 148 172
132 151 175
130 149 174
131 148 171
130 149 173
132 150 173
132 150 175
128 145 169
130 148 171
131 149 173
133 151 176
132 151 176
129 146 171
129 147 172
127 145 170
130 148 172
132 151 175
132 151 175
130 148 173
128 145 168
128 145 169
134 151 176
130 149 173
134 152 176
131 150 175
132 151 175
130 148 171
130 147 170
130 147 169
132 151 175
132 150 174
129 147 171
130 148 172
133 152 177
135 153 177
132 149 172
134 152 176
133 151 175
132 150 175
135 153 177
131 149 173
133 151 175
129 146 171
131 149 173
133 150 173
133 151 175
132 151 175
131 149 173
131 150 174
130 148 173
134 152 176
132 150 174
134 152 176
132 151 175
132 150 175
131 148 173
133 151 175
132 150 173
131 149 172
132 151 174
131 150 174
131 149 174
131 150 175
132 149 173
130 147 170
134 151 175
131 148 171
128 147 171
133 151 175
133 151 174
133 152 176
133 151 175
133 152 177
132 149 172
134 151 175
131 149 173
133 150 174
129 147 171
129 147 172
136 154 178
132 150 174
132 150 174
132 150 175
131 149 173
131 149 172
136 153 178
134 151 174
132 150 174
132 151 174
134 153 177
134 152 175
132 150 175
132 150 174
131 147 171
131 149 174
132 150 174
129 147 169
134 152 174
131 148 173
134 153 177
132 151 174
133 150 173
133 152 175
133 152 176
131 150 174
135 154 178
131 149 172
134 152 176
132 150 173
134 152 176
131 150 173
131 149 172
132 149 173
134 151 175
132 150 173
130 148 172
133 152 176
134 153 178
133 151 175
132 150 174
133 151 175
133 151 175
134 152 176
133 152 177
133 152 176
134 152 176
135 152 175
132 150 174
135 153 177
132 151 174
132 150 173
134 152 175
134 153 177
131 149 173
135 153 178
131 149 173
133 152 176
135 152 176
133 152 177
134 152 176
133 152 176
134 153 178
131 148 172
132 150 175
132 151 175
133 151 173
134 152 175
133 151 175
134 152 175
131 149 172
133 151 175
133 150 173
133 151 174
132 150 174
132 149 173
136 153 177
133 152 176
133 151 175
135 153 176
132 151 174
131 149 174
132 150 173
128 147 171
130 147 170
132 150 175
131 150 173
135 152 175
134 152 176
131 149 173
133 151 175
134 152 176
133 152 176
132 151 173
131 148 172
132 150 174
133 150 174
132 151 175
131 150 174
133 151 175
134 151 175
129 146 169
134 152 177
133 151 174
130 149 173
130 148 170
133 150 173
132 150 173
135 154 178
133 151 175
133 150 172
128 147 170
132 149 172
134 152 174
132 150 173
131 150 173
133 151 174
132 150 173
132 150 174
135 153 178
132 149 172
133 150 173
133 151 175
134 152 176
129 146 169
131 149 172
133 149 172
129 146 169
131 150 172
131 149 172
135 152 174
133 150 173
132 149 172
133 150 173
131 147 171
135 152 176
134 152 175
131 150 174
133 151 175
133 151 176
129 145 168
129 146 167
134 153 177
134 152 175
131 148 172
130 147 171
131 149 173
133 151 173
131 148 171
131 148 172
130 147 171
131 149 171
132 148 171
134 151 175
132 150 174
134 152 175
132 150 174
134 153 177
130 146 170
135 152 174
132 150 174
129 146 168
133 152 175
131 149 172
134 152 175
135 152 175
133 150 173
133 150 173
135 151 174
130 148 170
132 150 173
133 152 176
133 150 174
134 153 178
130 148 172
133 151 175
134 152 176
133 150 174
132 150 174
129 146 168
133 151 174
135 153 177
133 152 176
130 147 170
130 146 170
129 148 170
134 150 172
131 148 170
132 150 174
132 151 174
133 151 174
132 151 175
132 150 174
130 148 171
133 151 174
132 150 174
127 145 168
133 151 175
132 150 174
130 149 172
131 149 173
130 148 170
129 146 169
129 146 168
131 148 172
130 147 170
130 148 172
134 152 175
130 148 171
130 147 170
131 148 170
135 153 176
132 151 175
131 148 170
130 148 171
133 150 174
132 149 172
128 146 167
131 149 173
127 144 167
134 151 175
133 150 173
131 150 174
133 151 176
127 145 166
133 149 173
130 147 169
132 150 173
132 149 173
129 146 169
132 149 173
128 145 168
134 151 175
128 146 168
133 149 172
134 151 175
131 148 171
128 146 168
128 146 169
129 146 169
129 147 170
129 148 171
130 148 172
129 147 162
132 149 171
125 145 153
125 144 152
128 147 153
120 139 136
121 141 136
115 135 128
113 134 124
113 134 114
114 135 119
106 132 97
106 131 99
102 130 81
99 127 71
100 128 71
91 127 57
98 133 50
87 128 46
86 132 49
75 130 49
74 129 49
80 126 47
74 126 48
73 125 48
74 129 49
61 131 52
67 130 51
60 130 51
68 129 49
49 128 51
56 130 52
55 133 53
47 128 52
35 127 53
39 131 54
26 132 55
33 132 54
15 127 53
9 134 56
7 130 55
22 133 56
7 128 54
7 131 55
7 134 56
7 134 56
7 133 56
7 133 56
7 133 56
7 133 56
7 135 56
7 132 56
7 131 55
7 134 56
7 132 56
7 134 57
7 134 56
7 132 56
7 132 56
7 133 56
7 134 56
7 132 56
7 130 55
7 136 57
7 135 57
7 134 56
7 134 56
7 133 56
7 133 56
7 133 56
7 133 56
7 134 56
7 132 56
7 134 56
7 135 57
7 136 57
7 134 56
7 133 56
7 135 57
7 136 57
7 135 56
7 135 57
7 135 57
7 135 57
7 134 57
7 134 56
7 135 57
7 134 56
7 135 57
7 135 57
7 134 57
7 133 56
7 134 57
7 133 56
7 135 57
7 133 56
7 135 57
7 134 57
7 133 56
7 135 57
7 135 57
7 135 56
7 134 56
7 133 56
7 136 57
7 135 57
7 135 57
7 134 56
7 133 56
7 136 57
7 134 56
7 136 57
7 133 56
7 136 57
7 134 56
7 135 57
7 135 56
7 134 56
7 135 56
7 133 55
7 132 55
7 133 56
7 134 57
7 136 57
7 135 57
7 135 57
7 133 56
7 133 56
7 136 57
7 132 55
7 135 56
7 132 55
7 134 57
7 135 56
7 135 56
7 132 55
7 132 55
7 135 56
7 133 56
7 134 56
7 132 55
13 130 54
28 132 54
22 132 55
21 133 55
31 133 55
37 133 54
32 129 53
42 132 53
47 132 53
54 132 52
54 132 52
55 129 50
58 131 51
60 129 49
57 133 52
63 128 49
73 126 47
79 133 49
84 135 50
73 123 45
86 131 47
78 122 43
89 133 47
82 127 44
88 127 45
92 130 45
93 128 44
92 125 42
92 124 41
92 122 40
94 125 41
97 127 42
92 120 40
98 126 42
95 126 41
96 122 43
96 121 43
93 120 44
91 114 46
95 118 50
87 109 45
85 100 52
83 95 53
86 100 56
80 90 52
77 85 54
74 81 53
73 77 54
66 68 51
66 65 54
70 57 64
63 51 59
61 51 55
59 42 56
62 43 61
58 40 56
60 41 59
57 39 57
64 44 64
58 40 58
60 41 59
60 41 60
58 40 57
55 39 54
62 43 62
56 39 56
63 43 63
60 41 59
63 43 62
55 39 55
62 43 62
65 45 65
61 42 61
61 42 59
62 43 62
58 41 58
61 42 60
60 41 60
67 45 67
59 41 59
60 42 60
65 44 65
61 42 61
64 44 64
60 42 59
66 45 67
62 43 63
67 46 68
69 46 70
66 45 65
65 44 65
61 43 62
63 44 65
64 44 65
62 43 62
63 43 63
64 44 64
62 42 63
67 46 67
64 43 63
67 46 68
66 46 68
65 44 66
64 44 64
69 47 69
68 47 69
62 42 63
68 47 69
66 45 67
59 42 60
65 45 67
62 42 64
64 44 65
65 45 67
69 48 70
67 47 68
69 53 74
73 64 83
76 72 91
74 61 80
84 81 100
88 85 105
87 85 105
93 94 114
102 108 129
92 95 113
105 111 132
103 109 130
108 116 137
111 121 142
114 126 148
119 134 156
113 126 147
117 131 154
124 136 160
113 127 148
124 136 159
126 143 166
122 136 157
119 134 155
125 139 163
124 139 161
124 141 163
126 140 162
120 134 156
123 139 163
123 138 161
126 144 166
122 136 160
126 143 168
122 138 160
118 130 152
126 138 162
125 140 163
123 136 158
125 140 163
121 136 158
123 140 163
125 143 166
125 142 166
130 143 167
121 137 160
124 141 163
129 146 170
126 139 163
123 140 162
125 138 161
124 140 164
126 141 164
127 144 167
122 138 160
120 134 157
123 139 161
127 141 165
125 137 161
125 141 164
129 145 169
124 139 161
128 143 165
126 141 165
123 140 162
129 143 167
123 137 159
127 143 167
126 141 165
128 144 167
125 141 164
128 147 170
130 144 168
127 142 165
127 141 164
126 140 163
130 145 169
128 144 168
120 136 158
127 141 163
127 141 164
128 142 166
128 141 165
126 141 164
126 140 164
126 141 164
127 144 167
125 140 164
128 143 166
123 138 161
126 139 164
124 136 158
127 142 166
123 137 160
125 140 162
132 146 171
126 141 165
125 141 163
128 144 168
127 144 168
129 146 170
131 147 170
125 139 163
130 143 168
126 141 164
128 144 168
131 147 170
127 141 165
124 139 163
128 144 167
124 140 162
125 139 162
129 146 171
126 140 163
130 147 171
129 144 168
125 142 166
126 141 165
127 136 161
128 143 166
130 146 171
128 145 169
129 146 168
124 137 160
128 142 167
126 140 164
128 139 163
129 145 169
125 142 164
127 143 165
124 143 162
126 147 165
124 146 161
130 146 168
122 146 157
123 151 160
121 145 157
115 140 146
118 145 155
120 147 157
117 149 152
118 151 152
110 147 140
120 149 154
110 152 140
115 143 144
113 149 144
104 150 130
113 154 146
110 149 139
106 150 132
104 148 132
111 153 143
101 156 127
106 153 131
104 152 133
98 152 125
101 153 126
107 154 136
99 152 124
106 154 131
102 151 130
98 154 123
99 156 122
103 152 127
95 161 118
93 159 111
95 160 117
96 157 115
104 156 130
94 155 114
89 159 110
98 158 122
96 160 120
90 162 109
86 162 104
86 159 104
90 156 109
98 156 121
86 161 103
91 160 111
88 157 106
93 160 115
89 162 110
91 160 112
90 159 106
91 156 112
93 159 116
97 158 120
97 159 119
97 157 119
89 159 108
86 159 103
93 154 114
96 161 118
98 157 121
99 155 124
97 160 121
99 160 121
100 161 126
93 159 115
95 160 117
95 160 118
95 155 116
94 151 115
98 157 123
98 156 121
98 157 125
98 152 121
105 157 133
102 157 126
107 158 136
104 157 132
100 156 123
107 155 135
108 154 138
107 155 135
110 153 140
109 153 138
112 152 145
116 154 147
112 148 142
107 146 132
112 151 141
113 147 144
112 150 141
115 151 146
116 147 148
117 153 152
113 142 142
120 145 155
123 149 159
118 149 152
125 151 162
117 145 153
127 146 162
126 148 165
129 146 166
122 144 158
133 153 174
126 143 165
129 145 168
128 144 166
126 139 163
129 143 167
129 146 169
131 147 172
129 144 168
131 147 171
131 147 170
130 146 168
130 146 169
132 148 173
128 145 168
130 146 169
130 146 170
128 145 168
130 146 170
133 148 173
125 140 163
132 144 168
126 141 165
130 145 169
128 145 167
130 143 166
132 146 170
129 144 167
124 140 162
128 142 165
130 147 170
129 146 169
127 144 166
130 149 172
129 145 168
129 146 169
129 146 170
130 146 168
131 147 171
127 142 166
126 144 167
130 144 168
128 146 169
134 151 174
127 143 167
128 144 167
126 143 164
130 145 169
129 143 168
129 146 170
126 143 165
125 141 164
129 147 171
129 146 170
132 150 174
130 148 171
130 146 169
133 147 171
130 148 172
127 147 167
126 142 164
129 148 171
128 146 168
127 142 166
128 145 169
129 146 169
126 144 168
125 141 164
126 142 165
130 147 169
125 144 167
126 142 164
127 144 166
130 146 170
128 147 168
128 144 167
127 145 168
127 145 167
126 142 164
126 140 164
132 147 170
127 145 168
122 139 160
126 143 166
122 138 159
128 146 170
128 144 166
127 147 170
129 146 170
132 148 171
125 144 167
129 145 169
127 145 167
125 146 167
