P3
1600 1
255
139 51 23
135 50 22
139 51 23
144 53 23
136 51 23
136 50 22
137 51 22
141 52 23
137 51 23
136 51 22
137 51 23
138 51 22
142 53 23
138 51 23
142 52 23
144 53 23
138 51 23
135 50 22
140 52 23
136 50 23
139 51 22
141 52 23
138 50 22
137 51 23
136 50 22
141 52 23
138 51 23
141 52 23
136 50 23
144 53 24
138 51 23
134 50 22
138 51 23
135 50 22
143 53 23
138 51 23
138 51 23
138 51 22
143 52 23
141 52 23
136 50 22
140 51 23
133 49 22
138 51 23
139 52 23
139 51 23
138 51 22
137 51 22
136 50 22
141 52 23
137 51 23
137 51 23
139 51 23
138 51 23
135 51 23
139 51 23
141 52 23
140 51 23
139 51 23
137 51 23
138 51 23
143 53 24
135 50 22
136 51 22
135 50 22
134 50 22
136 51 22
139 51 23
135 50 22
139 52 23
135 50 22
139 51 23
138 51 23
134 50 22
133 50 22
138 51 23
135 50 22
139 52 23
135 50 22
132 49 22
137 50 22
135 50 22
135 50 22
138 51 23
134 50 22
134 50 22
134 50 22
128 47 22
138 51 23
134 50 22
128 47 21
132 49 22
135 50 22
137 50 22
134 49 22
130 48 21
135 50 22
135 50 22
134 50 22
136 50 22
136 50 22
135 50 22
133 49 22
137 50 23
127 47 21
133 49 22
132 49 22
131 48 22
134 50 22
136 50 23
130 48 21
132 49 22
130 48 22
130 48 21
133 49 22
132 48 22
131 48 22
130 48 22
133 48 22
132 48 21
130 48 21
132 49 22
129 48 21
134 49 22
128 47 21
131 48 21
130 48 21
135 49 22
134 49 22
131 48 21
128 47 21
127 53 37
131 69 63
134 69 63
131 82 83
127 79 80
125 87 92
127 92 100
131 104 113
132 112 124
132 111 124
131 123 139
129 126 143
131 127 144
128 131 152
130 133 152
134 144 165
132 144 168
131 148 171
133 148 171
133 151 175
132 149 174
136 154 179
135 153 177
132 150 174
134 151 175
133 151 176
132 150 174
129 145 168
133 151 175
133 151 175
130 148 173
132 150 173
132 149 174
135 152 176
132 150 173
135 152 175
133 151 175
133 151 175
132 150 174
129 146 170
131 148 172
134 153 177
132 149 173
133 151 175
135 152 176
133 151 176
134 151 175
133 150 174
132 151 175
131 149 172
132 150 173
134 151 175
131 148 171
134 153 177
132 150 174
132 150 173
129 146 169
131 149 173
133 150 174
136 155 180
133 150 174
133 150 174
133 151 175
132 150 174
135 154 178
135 153 177
134 152 177
131 148 172
133 151 176
133 151 174
134 150 173
132 149 173
133 151 176
132 150 174
130 148 172
134 151 175
134 153 178
133 151 175
135 153 177
133 151 175
132 150 173
134 152 176
133 151 175
132 150 174
132 149 174
131 149 174
135 154 178
136 154 178
134 153 178
134 153 178
138 156 181
135 153 178
140 156 181
136 153 178
140 158 180
142 158 182
134 153 179
141 159 182
137 154 177
132 149 173
143 159 183
140 158 183
136 155 180
148 166 190
144 161 186
146 164 188
144 163 188
139 156 180
146 164 188
142 159 183
144 160 184
145 162 187
144 161 185
145 163 187
143 161 185
144 162 187
135 151 175
136 152 176
144 163 189
141 157 181
142 160 184
136 154 178
140 157 181
137 155 179
142 159 183
138 154 177
138 155 178
133 149 173
139 156 180
141 159 182
134 151 173
138 157 182
134 151 175
138 155 179
139 158 183
138 155 179
135 153 176
137 155 179
139 158 183
137 155 178
138 156 179
136 153 177
135 152 176
137 155 179
135 154 179
135 153 178
137 157 182
134 153 177
138 155 179
138 156 180
135 152 176
134 151 175
134 153 177
140 159 185
138 156 181
134 151 174
134 153 177
136 153 178
133 149 173
137 156 180
138 156 179
136 153 178
135 153 178
133 151 174
138 156 181
136 153 177
134 151 176
136 153 177
132 149 172
135 152 176
131 148 172
135 152 177
132 150 174
129 146 170
137 152 176
138 156 181
136 153 177
136 155 179
138 156 181
134 150 174
136 154 179
136 154 178
141 160 185
139 156 181
140 159 184
132 148 171
137 155 178
130 146 169
135 153 177
137 154 177
141 158 183
138 158 182
136 153 177
136 153 179
138 157 181
137 155 180
135 152 175
137 154 178
136 155 179
140 158 181
137 155 178
141 159 184
135 153 176
138 155 178
136 151 174
138 155 179
134 149 172
137 155 179
131 150 172
138 157 180
136 152 174
137 153 174
134 152 175
136 152 175
130 148 170
138 153 175
140 154 178
137 153 174
134 149 171
136 154 176
137 152 174
133 149 173
134 151 174
125 140 163
131 146 170
130 146 168
132 149 171
131 147 169
132 149 171
128 145 169
129 146 170
126 142 167
129 145 167
126 142 166
129 145 170
128 145 170
128 145 169
126 142 165
126 141 166
127 145 169
128 146 170
128 145 170
125 143 167
128 146 170
122 139 163
130 148 172
126 144 169
130 147 171
132 149 174
130 148 173
126 142 167
123 140 164
127 145 170
127 144 168
130 149 174
130 147 171
130 147 171
128 146 170
131 150 175
132 150 174
129 147 171
125 143 168
130 147 171
129 147 171
129 146 171
131 149 173
129 147 171
128 146 171
118 135 158
129 148 172
122 139 162
130 147 171
132 150 173
128 146 171
130 147 170
125 142 165
130 147 172
129 147 171
125 142 165
129 147 171
124 140 162
130 148 172
129 146 170
129 146 171
125 142 164
125 142 167
121 138 162
127 145 170
129 146 171
126 143 166
125 142 168
129 145 169
122 139 164
122 140 164
124 141 165
125 142 166
125 142 166
124 140 164
129 146 170
120 135 158
126 142 166
124 141 165
130 148 172
125 141 166
124 140 164
122 139 163
120 136 159
126 143 167
120 137 162
124 140 163
122 138 162
128 146 170
121 139 164
127 144 167
121 137 162
121 137 162
116 131 155
122 139 163
117 132 157
123 140 164
122 139 164
121 136 159
127 145 168
122 139 163
125 143 168
127 144 168
119 136 160
122 138 163
117 132 156
121 138 162
119 136 161
123 139 162
120 136 159
121 136 159
124 140 164
118 134 159
117 134 158
121 137 163
117 133 157
121 138 161
121 137 160
122 138 161
120 137 160
123 139 163
123 140 163
114 130 154
122 139 163
124 141 165
125 142 166
117 133 156
114 128 151
113 128 151
118 133 155
118 135 157
121 137 161
116 131 153
124 141 164
121 137 161
121 136 158
120 136 160
118 134 157
114 129 152
117 133 157
122 138 161
122 139 162
115 130 153
122 139 163
112 126 150
118 134 156
122 138 162
114 130 155
123 139 163
119 135 158
123 139 163
121 137 160
120 137 161
113 128 150
117 133 157
118 134 156
114 130 153
119 135 159
121 136 159
118 134 158
125 142 166
117 133 157
119 136 160
119 136 159
115 129 152
122 139 162
125 141 164
118 133 156
120 135 158
123 140 163
121 137 160
108 122 144
117 132 155
117 132 155
114 130 154
119 135 158
116 132 155
112 127 151
115 131 155
116 130 153
116 132 155
117 131 154
119 135 159
118 135 159
121 137 161
121 137 161
120 136 159
119 135 158
118 134 157
112 127 150
124 140 164
121 136 160
123 138 162
119 135 158
116 131 155
114 129 152
120 136 158
121 138 161
118 134 156
116 133 157
113 130 155
119 136 160
129 146 170
111 126 148
117 133 157
121 137 160
124 142 166
122 138 162
124 141 164
120 136 160
116 132 156
121 138 162
126 143 167
120 135 158
118 134 157
120 138 160
123 139 163
122 138 162
119 135 158
119 134 157
125 142 166
123 140 163
122 138 163
126 143 167
114 130 152
121 137 160
119 136 160
121 137 160
124 140 164
119 137 162
124 140 164
124 140 165
122 139 162
122 137 160
125 141 164
124 141 164
123 139 163
124 140 164
119 135 158
116 132 156
123 140 164
125 142 168
128 144 168
128 144 168
127 145 169
125 141 164
117 133 158
127 145 170
129 147 171
128 145 169
125 142 167
125 143 168
125 142 166
125 143 167
127 144 169
124 140 163
123 140 164
126 143 167
126 143 167
124 140 163
128 145 170
124 141 165
125 142 166
128 145 169
130 148 173
127 145 169
130 148 172
127 145 170
127 145 169
129 146 170
129 146 169
128 145 168
129 146 170
130 147 170
126 144 168
126 145 169
128 146 170
127 144 168
127 143 167
125 143 166
124 142 166
133 151 176
131 149 175
126 144 168
130 148 172
127 145 168
131 149 172
134 152 176
124 142 166
124 140 163
128 146 171
124 141 164
126 144 168
129 147 171
128 145 168
132 150 174
128 146 170
127 144 168
130 147 171
127 144 167
128 145 169
132 149 173
130 147 172
124 141 164
129 147 172
132 149 173
133 150 174
131 150 174
131 149 173
132 151 175
131 150 175
131 150 174
132 150 175
130 147 171
125 143 168
130 149 173
128 146 170
128 146 171
133 151 175
132 149 173
129 147 172
130 148 172
133 152 176
132 150 173
131 149 174
131 149 174
133 151 175
132 150 174
131 148 171
130 148 172
132 150 175
133 150 174
131 149 173
132 151 175
128 147 169
132 151 176
130 148 171
131 149 172
134 153 177
132 149 173
128 146 169
130 148 172
132 150 175
126 142 167
132 150 174
133 150 174
131 149 173
133 151 176
131 149 173
134 152 175
130 148 174
133 149 173
130 149 174
133 151 175
134 152 176
130 147 171
133 151 175
130 148 172
131 150 175
132 150 175
131 149 173
129 148 172
125 143 168
130 148 172
134 152 177
134 153 177
132 150 176
131 148 172
128 145 169
132 149 174
131 149 173
131 150 173
134 152 177
134 153 177
131 150 174
127 143 167
134 151 174
132 150 174
132 148 172
132 151 175
132 149 173
132 150 174
135 153 178
131 149 172
133 151 174
133 151 175
130 148 173
135 153 177
133 152 176
135 153 177
129 146 170
133 152 177
131 148 172
132 149 173
133 152 175
132 151 176
133 150 174
133 151 176
133 151 176
132 150 175
135 152 175
133 152 176
132 150 175
131 149 173
132 150 175
132 150 173
134 151 175
134 152 175
128 147 170
133 151 176
131 150 175
131 149 173
132 148 172
132 150 173
133 150 174
130 148 171
135 153 177
131 150 173
133 151 175
133 151 176
133 151 176
132 150 174
132 148 172
132 150 174
131 150 173
132 150 173
133 151 175
134 152 176
135 153 177
130 148 172
132 150 175
132 151 175
131 150 174
134 152 175
134 151 175
132 150 174
132 151 174
133 151 176
134 152 175
133 151 175
134 152 175
132 149 173
131 148 172
132 150 174
133 150 172
133 150 173
134 152 176
132 150 174
134 152 176
133 152 175
131 148 171
134 152 176
132 149 173
133 152 176
133 153 176
133 150 174
134 153 177
135 152 175
133 151 175
129 148 172
133 151 175
133 151 175
135 153 177
128 145 168
132 151 175
132 150 175
136 154 179
132 150 173
135 153 176
134 152 175
132 150 174
134 153 177
132 151 176
133 152 175
132 151 174
133 150 172
133 151 174
135 154 178
131 149 171
132 151 174
134 152 176
133 151 175
131 149 172
132 151 175
135 154 178
132 152 176
133 151 175
132 150 174
134 153 176
134 153 178
133 151 175
132 150 174
132 150 174
133 151 175
131 150 172
134 153 177
135 153 176
134 150 174
131 149 171
134 152 177
135 153 176
133 149 172
130 147 171
134 152 176
132 150 173
133 152 176
133 151 176
135 153 175
131 150 174
132 150 173
130 148 171
127 144 167
135 152 176
131 148 171
130 150 172
135 153 176
134 152 177
128 146 170
133 151 176
133 151 175
134 153 177
130 148 170
133 151 175
134 152 176
130 147 171
134 154 178
133 150 174
133 152 176
132 149 172
133 152 175
131 150 174
133 152 175
131 149 173
129 147 169
132 149 172
131 150 173
132 151 175
134 152 176
132 151 173
132 150 174
131 148 171
134 152 175
133 151 175
132 150 173
134 152 175
131 149 171
134 151 175
134 151 176
134 151 175
133 151 174
132 150 174
132 150 175
132 149 172
132 149 172
132 150 173
130 148 170
129 148 170
131 149 171
133 151 174
131 149 172
129 147 170
133 150 173
131 148 172
133 150 174
133 151 173
132 150 175
130 148 171
130 148 172
130 148 171
129 146 168
134 152 176
134 152 175
132 149 174
130 146 170
131 148 172
133 150 173
131 149 173
129 146 169
129 146 170
131 148 171
132 149 171
134 151 173
132 150 174
133 151 174
130 147 170
132 149 173
128 144 166
133 150 173
133 151 175
130 147 169
132 152 174
131 150 174
132 149 172
135 153 176
132 148 170
133 150 174
134 151 173
132 150 173
134 152 175
134 153 177
134 152 175
133 151 176
130 147 171
133 151 175
135 153 177
133 151 175
131 150 173
127 145 165
132 149 173
133 151 174
134 152 176
130 148 171
131 148 171
130 148 171
133 150 172
131 148 171
133 150 172
133 151 175
131 151 173
131 149 173
131 150 173
133 150 174
129 147 168
130 148 172
124 141 162
132 149 174
131 149 172
129 147 170
133 151 175
131 148 171
128 145 169
129 145 168
131 148 171
130 147 170
129 147 170
131 149 172
128 145 169
129 147 170
131 148 170
132 151 174
132 150 174
130 147 169
129 148 171
131 147 171
132 149 173
126 143 165
131 148 172
126 143 164
133 150 175
131 149 173
132 150 175
131 149 173
130 146 168
133 151 174
128 144 166
129 146 168
130 148 171
124 142 157
125 143 160
120 138 150
127 144 156
123 142 148
123 144 141
110 132 117
106 131 116
103 131 114
104 133 103
100 132 102
97 129 84
86 127 77
81 124 65
90 134 64
85 129 61
74 129 49
80 128 48
73 127 48
65 127 49
64 127 50
67 134 52
48 126 51
50 131 53
53 128 51
55 127 51
44 128 52
37 130 53
33 127 53
34 131 54
32 132 55
22 126 53
13 126 53
13 135 57
7 134 56
7 130 55
6 127 54
6 126 53
7 133 55
7 134 56
7 130 55
7 133 56
7 132 55
7 133 56
7 130 54
7 132 55
7 131 55
7 132 56
7 130 55
7 131 56
7 133 56
7 131 55
7 132 56
7 129 54
7 133 56
7 131 55
7 129 54
7 129 55
7 132 56
7 131 56
7 133 56
7 132 56
7 133 56
7 132 56
7 135 57
7 134 56
7 131 55
7 134 56
7 133 55
7 135 57
7 135 57
7 131 55
7 133 56
7 132 56
7 134 56
7 135 57
7 130 55
7 133 56
7 134 57
7 132 56
7 135 57
7 133 56
7 133 56
7 133 56
7 131 55
7 132 56
7 133 56
7 132 56
7 133 56
7 136 57
7 136 57
7 133 56
7 135 57
7 133 56
7 135 57
7 133 56
7 133 56
7 133 56
7 134 56
7 135 57
7 133 56
7 135 57
7 132 56
7 134 56
7 132 56
7 133 56
7 134 56
7 131 55
7 135 56
7 129 55
7 136 57
7 132 56
7 133 56
7 134 56
7 130 55
7 133 56
7 132 55
7 135 56
7 131 55
7 134 56
7 132 55
7 133 55
7 134 57
7 134 56
7 136 57
7 134 56
7 133 55
7 132 55
7 132 56
7 134 56
7 132 55
7 133 56
7 133 55
7 133 56
7 133 55
7 134 56
7 133 56
7 134 56
7 133 56
7 132 55
7 132 55
7 135 57
7 131 55
7 133 56
7 133 56
7 134 56
7 134 56
13 130 55
21 132 54
23 132 54
26 130 53
39 131 53
38 132 54
39 130 53
48 133 52
46 129 51
53 131 52
61 132 51
60 127 48
57 123 48
72 133 50
69 129 49
62 125 47
78 125 45
68 123 45
78 125 45
80 129 47
80 126 45
83 128 45
92 130 45
87 124 43
95 128 43
88 124 43
90 121 40
94 125 42
90 119 40
97 127 43
92 119 43
93 117 46
84 107 41
85 106 45
87 108 45
73 87 47
77 92 47
80 93 49
77 85 54
74 83 50
65 68 51
74 75 55
64 62 51
61 54 52
57 44 53
60 42 59
54 38 54
58 39 55
58 39 56
53 37 54
59 40 58
61 41 61
60 41 59
59 41 58
57 39 56
60 40 60
57 40 57
58 39 58
57 40 58
56 39 56
58 40 58
54 37 53
57 39 55
60 41 60
54 39 55
59 40 59
58 40 58
59 41 59
56 39 56
62 43 62
60 41 59
64 44 65
65 44 66
61 42 61
56 39 57
58 40 58
57 39 56
61 42 61
61 41 61
58 40 59
61 42 62
60 41 60
62 42 63
63 43 63
57 40 58
62 42 62
63 44 65
64 43 66
61 41 61
64 43 64
64 44 65
60 41 60
59 41 60
65 44 66
62 42 63
62 43 63
62 43 62
61 41 61
63 43 63
60 41 61
63 45 64
62 46 64
70 58 77
70 56 76
72 59 79
78 74 92
82 75 95
82 77 96
83 82 100
87 87 107
96 98 117
95 96 116
95 98 118
101 107 128
99 105 124
106 117 137
102 111 130
100 109 129
107 117 138
113 126 148
116 130 151
120 134 156
123 138 161
120 134 157
119 134 157
118 132 152
121 132 155
123 140 163
122 139 161
119 131 153
126 141 164
124 138 161
125 142 164
120 135 158
121 136 158
124 140 163
118 132 152
124 138 162
122 138 161
123 136 159
119 133 156
123 138 161
120 135 157
121 135 157
124 135 158
122 137 159
127 142 166
126 144 167
125 139 162
118 132 155
126 143 165
123 139 161
119 133 155
124 137 160
128 141 164
126 138 162
125 140 163
121 137 159
121 137 159
123 141 164
128 142 165
124 140 163
121 136 158
129 146 170
124 138 162
127 142 166
120 134 155
125 140 163
128 146 168
125 139 162
123 135 159
124 137 161
125 142 164
125 142 165
124 137 160
125 141 163
126 142 166
129 145 169
125 140 163
124 140 164
126 145 168
123 138 161
123 137 159
126 141 165
131 146 171
124 140 163
123 138 161
124 141 164
129 145 168
129 143 167
125 138 162
128 143 166
128 145 168
129 145 169
123 139 162
126 142 164
125 141 163
127 139 163
130 145 169
127 141 165
126 141 166
126 142 166
128 145 168
126 142 166
128 143 167
129 145 169
130 144 169
125 141 164
127 140 164
124 138 162
124 139 162
131 145 169
132 149 173
125 138 161
125 140 163
128 145 169
127 142 166
126 141 163
130 145 168
126 139 164
127 145 167
127 144 168
130 146 170
129 143 167
127 143 168
126 142 164
126 142 164
126 139 163
126 142 167
127 146 168
128 144 166
127 146 165
119 140 154
126 143 162
124 145 160
123 143 160
122 149 160
122 149 157
123 150 158
107 143 134
123 149 158
119 152 154
111 142 140
111 147 141
112 153 145
106 148 134
102 154 130
109 155 139
98 154 123
106 152 134
109 154 139
97 152 119
101 154 127
102 154 125
95 151 115
100 156 127
95 152 120
90 152 110
99 160 125
90 154 108
91 155 112
91 158 111
91 162 112
85 159 103
85 158 102
80 159 95
81 162 96
77 159 89
76 160 89
85 160 103
85 163 101
77 162 89
77 162 89
75 160 89
77 161 91
80 161 95
78 164 90
80 160 95
78 163 90
74 163 85
76 163 87
75 163 86
80 165 93
73 164 81
71 165 79
71 163 80
71 163 80
73 165 82
72 163 80
74 165 85
74 163 85
72 164 80
73 165 82
70 163 78
72 166 79
73 164 84
74 164 84
76 164 87
71 163 80
75 165 85
78 162 90
75 164 85
74 164 84
75 163 87
75 163 85
75 163 85
80 165 94
80 164 96
76 164 89
78 164 88
77 163 89
82 164 96
76 164 87
79 164 91
78 165 90
88 160 106
85 163 101
84 163 100
87 164 105
87 161 106
82 162 97
84 163 101
79 163 94
86 161 103
86 159 106
88 159 104
86 160 102
95 158 121
89 160 109
96 160 120
94 160 117
93 159 115
100 161 126
101 160 127
94 156 115
101 155 127
107 155 138
101 155 127
105 153 133
105 153 133
108 152 140
114 152 142
110 153 143
107 149 133
113 152 143
112 148 143
116 152 149
116 152 147
117 150 151
119 153 153
116 148 149
123 146 160
124 149 162
122 147 159
125 149 162
123 152 162
127 148 165
131 148 169
127 149 169
125 143 162
132 150 175
129 145 169
130 145 170
131 148 171
128 145 168
128 144 167
131 150 173
128 144 168
130 145 168
132 148 173
132 146 169
128 144 166
131 146 169
132 151 176
131 146 170
128 144 167
132 149 174
130 147 171
129 145 167
132 149 172
131 148 172
127 143 166
130 145 169
128 143 167
129 145 168
127 144 166
129 142 166
133 150 174
127 143 165
126 140 162
130 147 170
130 149 172
128 147 169
127 146 168
131 149 173
129 145 169
132 150 173
128 145 169
131 148 171
128 144 167
129 142 165
129 147 171
131 151 173
126 146 167
132 150 173
129 145 169
130 146 169
129 145 168
127 144 166
130 146 170
131 148 172
127 142 165
125 143 167
129 148 172
131 149 172
131 150 173
129 149 172
133 151 175
132 149 171
131 148 173
122 143 163
130 144 168
126 146 168
130 150 173
129 146 169
128 145 169
130 147 171
131 149 172
126 143 167
125 142 165
128 145 168
132 148 171
129 147 170
129 146 169
123 139 160
127 144 166
128 148 170
130 148 170
123 141 161
129 147 169
128 144 167
123 140 163
