P3
1600 1
255
137 50 22
136 50 22
139 51 23
138 51 23
135 50 22
137 51 23
137 50 22
140 52 23
136 50 22
136 50 22
136 50 22
140 51 23
136 50 22
139 51 23
142 52 23
138 51 23
138 51 23
137 51 23
139 51 23
138 51 22
137 51 22
146 53 24
131 48 21
133 49 22
137 51 23
138 51 23
137 51 23
132 49 22
144 53 24
137 51 22
133 49 22
138 51 22
135 49 22
141 52 23
138 51 23
137 51 22
139 51 23
140 51 23
137 50 22
136 50 22
136 50 22
141 52 23
138 51 23
138 51 22
138 51 23
140 51 22
138 51 23
136 50 22
140 51 23
139 52 23
135 50 22
140 51 23
137 50 22
138 51 23
138 51 22
137 50 22
137 50 22
137 50 22
137 51 23
137 51 23
143 52 23
138 50 22
136 50 22
138 51 23
138 51 23
138 51 23
137 51 22
136 50 22
141 52 23
130 48 21
138 51 22
135 50 22
129 49 22
136 51 22
135 50 22
137 51 23
134 50 22
134 49 22
139 51 23
134 49 22
135 50 22
137 51 22
136 50 23
132 49 22
136 51 23
130 48 22
135 50 22
134 50 22
136 50 23
132 49 22
132 49 22
138 51 23
132 49 22
134 49 22
132 49 22
133 49 22
134 50 22
137 50 23
129 48 21
137 51 23
133 49 22
128 47 21
131 48 21
135 50 22
132 49 22
128 47 21
131 48 22
135 50 22
125 47 21
135 50 23
134 49 22
130 48 22
133 49 22
131 48 22
133 49 22
134 49 22
126 47 21
133 49 22
124 46 21
130 48 22
129 48 21
133 49 22
132 48 21
127 46 21
130 48 21
133 49 22
133 49 22
133 49 22
129 47 21
124 46 20
126 46 21
128 53 37
129 63 55
126 62 55
128 75 74
129 80 81
126 85 90
131 94 101
126 101 111
130 112 125
129 112 125
128 116 132
131 126 143
131 126 143
136 137 155
134 142 163
128 140 163
132 146 169
131 146 169
133 149 173
134 152 177
134 152 176
132 150 174
132 150 173
132 150 174
132 150 174
130 147 170
133 150 175
134 152 176
132 149 174
130 149 173
132 151 175
133 149 173
132 149 173
135 152 175
136 154 178
133 151 175
132 150 174
130 148 172
131 149 173
132 150 175
136 153 176
132 150 174
135 153 176
134 152 176
133 151 176
133 150 174
131 149 173
132 150 175
131 149 172
132 149 172
134 152 176
131 149 173
137 156 180
130 147 170
132 150 174
130 147 171
131 148 172
135 153 178
134 152 177
134 152 177
133 150 174
133 151 174
134 152 175
135 154 178
136 154 178
134 151 176
129 147 171
134 152 176
132 149 172
135 153 178
131 147 171
132 149 172
129 146 170
132 150 174
134 152 177
133 151 175
132 150 174
136 154 178
131 148 172
134 152 176
132 150 173
133 151 175
133 150 174
131 149 173
132 151 176
134 153 178
135 153 178
134 152 177
141 158 182
134 152 177
135 152 176
134 154 180
135 154 179
138 156 181
141 158 184
134 152 177
139 157 181
136 153 176
140 157 183
145 163 188
139 156 181
144 162 187
139 156 181
147 164 189
139 157 181
142 161 186
145 163 187
145 162 187
144 160 183
148 166 190
142 158 183
149 167 192
142 159 184
139 156 180
140 156 181
135 152 176
140 157 182
137 155 180
143 161 185
138 155 179
140 156 180
137 155 179
141 159 184
139 156 180
137 155 179
132 147 171
142 159 183
141 160 184
136 152 175
137 154 177
134 151 175
136 154 179
139 159 184
135 152 175
134 152 176
139 157 182
139 158 183
137 154 178
140 158 182
133 150 173
135 152 177
138 156 182
134 152 177
134 152 176
137 156 181
135 153 176
136 154 179
134 151 174
136 153 177
134 151 174
135 154 179
140 160 185
137 154 178
135 152 176
135 154 179
138 157 181
134 151 175
136 154 178
136 153 177
135 153 177
135 154 179
132 150 174
139 157 181
137 155 179
134 151 175
133 151 176
133 150 174
136 153 177
132 148 172
135 153 178
132 150 174
131 148 172
136 152 176
136 153 178
136 152 176
133 151 176
138 157 182
132 149 172
139 158 183
134 151 175
136 153 177
137 156 180
138 156 182
133 149 173
135 154 177
132 148 172
135 152 177
136 153 176
139 155 180
138 156 181
139 157 183
134 151 174
136 154 177
138 156 180
134 152 174
136 154 179
136 154 178
137 154 178
135 152 176
140 158 184
135 153 176
139 156 180
133 149 173
131 147 169
131 148 172
132 149 172
134 151 174
132 149 171
134 150 172
135 151 173
135 149 171
135 152 175
137 155 178
137 152 174
140 157 179
138 153 174
137 156 179
136 152 174
133 149 171
134 150 175
136 152 174
133 149 173
135 150 173
136 151 172
130 146 168
128 142 163
129 146 171
124 140 162
129 145 169
131 146 169
125 141 164
129 146 170
124 140 165
133 149 172
123 138 164
132 148 172
123 141 165
128 145 167
127 144 169
131 147 172
124 141 166
122 139 164
128 145 169
125 143 168
124 140 166
131 149 173
131 150 175
126 143 168
125 143 166
127 146 171
127 144 168
130 149 174
128 146 170
131 148 171
127 145 169
130 149 173
133 151 176
131 149 173
128 146 171
131 148 173
130 148 172
130 148 173
131 149 173
129 148 173
127 145 169
124 141 165
126 144 168
128 146 170
128 146 170
132 150 172
130 148 173
130 148 172
128 145 169
127 145 169
129 147 171
124 141 164
126 143 167
126 143 165
128 145 170
128 146 170
130 148 172
130 147 171
123 141 165
126 144 168
125 142 166
130 148 172
126 144 169
124 141 167
130 148 172
124 141 165
127 145 171
127 143 167
127 144 169
127 145 170
126 144 168
124 140 164
128 145 169
122 138 162
127 145 169
124 142 167
130 148 171
125 142 166
126 143 168
123 140 164
124 141 164
127 144 168
123 141 165
124 141 165
124 141 165
126 143 166
122 140 164
126 143 167
126 143 167
121 137 162
115 131 156
127 144 168
125 141 165
126 142 165
125 143 167
122 138 162
126 144 167
125 142 166
125 143 167
124 142 166
128 146 170
122 139 163
119 135 160
122 139 163
120 137 162
122 138 162
127 143 167
124 141 164
122 138 162
122 138 161
118 134 159
121 138 162
124 142 167
116 131 154
127 144 167
126 143 166
127 143 166
122 139 163
122 139 163
125 142 165
117 133 157
124 141 165
120 136 161
124 142 165
122 138 162
116 131 154
124 140 163
121 137 160
118 134 158
124 140 164
121 137 159
123 140 164
119 134 158
119 135 157
125 142 167
119 134 157
117 133 156
120 136 158
126 144 168
118 134 157
119 136 160
123 139 162
118 135 158
126 143 167
122 137 160
120 135 159
122 140 164
125 141 165
119 134 157
125 142 165
121 137 161
121 139 163
116 130 153
119 136 160
120 136 160
119 137 161
121 137 162
117 132 156
123 140 164
123 139 162
118 134 158
117 133 157
126 144 167
120 135 158
120 136 160
125 142 166
122 138 162
125 141 165
128 146 170
121 137 160
120 136 160
123 139 161
120 137 160
115 130 152
120 138 162
123 140 164
117 134 158
114 130 154
116 132 156
121 136 159
120 136 159
115 130 154
117 133 157
119 135 159
120 137 162
123 140 164
121 137 161
121 137 160
122 139 163
119 136 159
124 141 165
121 137 161
125 142 166
122 139 162
124 141 166
118 133 156
123 140 163
122 139 162
124 141 163
122 139 163
120 138 163
121 138 162
121 137 161
130 148 171
110 125 149
123 140 163
120 136 160
126 144 169
123 140 164
127 144 168
118 134 159
119 136 160
123 139 162
127 144 168
124 139 161
121 138 161
127 144 167
128 146 169
127 143 167
122 139 164
120 136 160
124 139 163
127 145 169
122 138 161
127 143 167
128 145 168
119 136 159
123 140 163
126 143 168
124 141 164
124 141 165
121 138 163
121 137 161
131 148 172
124 140 165
122 138 161
127 143 166
125 142 165
125 142 166
127 145 169
122 137 160
119 136 159
122 140 164
126 143 166
125 142 167
132 149 173
128 145 169
127 143 167
122 139 164
126 144 169
130 148 172
127 145 169
126 143 167
127 146 171
126 145 169
127 143 167
125 143 168
130 148 172
129 146 168
126 143 167
127 144 167
129 147 171
126 143 166
129 147 171
127 145 169
124 142 166
127 145 170
130 148 172
127 145 169
130 148 172
127 145 170
126 144 167
129 146 169
127 143 168
128 146 169
135 153 177
129 146 170
124 141 165
129 148 172
131 148 172
128 145 170
129 146 170
127 145 170
125 142 166
133 151 176
130 149 175
127 145 168
131 149 172
128 145 170
130 147 170
132 150 174
125 143 167
127 144 168
129 147 171
127 145 169
128 144 168
128 146 170
127 145 168
132 150 174
130 147 171
125 142 165
132 149 174
128 146 169
133 150 174
132 149 172
130 148 172
128 145 169
127 145 169
131 149 174
133 151 175
132 149 174
131 149 173
130 149 173
134 152 177
132 150 174
133 151 176
129 147 171
130 148 172
128 148 171
131 148 173
130 148 173
130 148 173
132 150 174
131 148 172
129 147 170
130 147 170
131 150 175
133 151 175
131 149 173
132 150 174
132 150 173
130 148 172
130 147 171
130 149 173
133 151 176
130 147 170
133 152 176
133 152 176
128 147 170
134 153 177
130 148 172
131 149 173
132 150 175
133 151 175
130 149 173
132 150 174
132 150 174
127 144 169
134 152 175
133 151 175
131 150 174
132 150 175
131 149 173
134 152 175
131 149 174
132 150 173
130 148 173
133 151 175
134 152 176
130 147 171
133 151 175
129 148 171
133 151 176
133 152 177
131 149 173
129 148 172
132 150 174
130 148 173
133 151 175
134 153 177
132 151 176
133 150 174
128 145 169
132 150 174
130 147 172
132 150 173
133 150 175
134 152 177
131 150 174
129 146 169
134 152 174
134 152 176
131 148 171
132 150 175
133 150 174
132 151 175
136 155 179
133 151 175
132 149 172
132 151 176
133 151 175
134 152 176
134 151 175
134 153 177
133 151 175
131 149 174
131 149 173
132 150 174
132 149 173
133 151 175
133 153 178
133 151 174
133 151 176
133 152 176
135 152 174
133 152 177
133 151 175
128 144 168
132 150 174
135 153 177
131 149 172
133 151 175
129 148 170
134 152 176
131 149 174
130 148 172
132 149 172
132 149 172
134 151 175
131 150 174
133 151 175
132 150 174
133 152 175
132 150 174
133 152 176
134 151 175
133 151 175
130 148 172
132 151 176
131 149 172
133 151 175
133 151 175
134 153 177
132 150 174
130 148 172
131 149 174
132 151 174
134 152 176
135 153 177
135 152 176
131 149 172
134 152 177
134 152 177
136 152 176
132 150 175
130 146 169
132 150 173
132 150 173
134 151 176
129 147 168
136 154 177
133 152 177
133 152 176
132 151 175
134 150 173
132 150 173
133 152 176
133 151 175
133 153 176
132 151 174
134 152 176
134 152 175
135 153 177
131 148 172
135 154 177
133 150 174
133 150 174
132 150 174
131 149 171
130 149 173
134 152 177
134 152 177
134 152 174
133 151 174
133 152 175
134 153 178
132 151 175
131 151 175
134 153 177
135 152 176
133 151 174
133 151 175
136 154 178
131 149 171
132 150 173
134 152 176
131 150 174
133 152 175
133 150 173
132 151 175
132 151 175
132 149 173
134 152 175
134 153 177
133 152 177
132 149 173
134 152 176
133 151 175
132 150 173
135 153 175
135 153 177
135 152 175
131 148 171
133 150 172
134 152 175
133 150 173
133 150 173
130 147 171
133 151 174
132 151 176
133 151 175
135 153 177
132 151 174
130 148 172
129 147 169
132 150 173
130 148 171
132 149 173
130 150 173
135 152 175
133 151 175
131 148 172
131 149 174
134 153 176
132 151 175
129 148 170
133 150 174
134 153 178
135 153 177
130 149 174
134 153 176
131 149 173
134 151 174
131 149 172
132 151 175
131 149 173
131 150 173
132 150 173
131 148 170
131 149 172
133 151 175
133 152 176
131 148 171
130 148 171
132 150 173
134 152 175
133 151 174
132 150 174
134 152 176
132 150 173
132 150 173
134 152 176
133 151 174
132 150 172
131 149 171
132 151 175
133 150 174
130 147 169
134 152 176
129 147 169
130 148 169
130 149 171
131 148 171
132 150 172
131 149 172
132 150 173
128 144 167
134 151 175
134 152 175
132 150 174
131 150 173
129 147 168
129 147 171
131 148 171
132 149 172
133 151 174
133 151 175
130 147 171
130 147 171
131 149 172
132 150 174
130 148 171
129 142 167
130 146 167
132 150 173
134 151 173
134 152 176
133 151 174
130 147 169
132 150 174
129 147 169
130 148 170
133 151 175
131 148 170
134 152 175
128 146 169
132 150 172
132 150 173
133 150 172
132 149 172
134 151 174
133 151 174
132 149 173
134 153 176
134 152 175
133 151 175
129 147 169
132 151 175
134 152 176
132 150 173
132 151 173
129 146 168
133 152 175
132 149 174
133 151 174
131 149 172
131 148 171
132 150 173
131 148 170
127 144 167
132 151 174
131 150 172
131 149 172
131 149 173
129 147 170
127 146 166
129 146 170
125 142 164
130 148 171
133 150 175
129 147 169
132 150 174
132 151 175
129 146 168
128 145 167
130 147 170
127 144 166
128 146 169
128 146 169
131 149 172
128 145 169
130 147 170
130 148 169
132 150 174
129 146 170
130 148 171
131 148 171
131 149 173
128 145 167
129 147 169
129 147 170
127 145 167
129 145 168
132 150 174
131 148 170
130 146 165
131 149 168
123 140 155
127 146 160
121 141 147
115 136 138
115 138 141
114 138 133
110 138 128
111 140 134
102 133 113
97 133 99
95 131 96
90 129 87
90 127 81
79 127 61
73 126 59
59 122 47
69 127 48
66 128 49
61 129 51
49 130 52
48 130 52
46 125 50
45 126 51
48 129 52
41 133 54
32 130 53
25 130 54
22 130 54
13 130 54
7 132 55
7 128 54
7 130 55
7 130 55
7 131 55
7 128 54
7 128 54
7 130 54
7 132 55
7 130 55
6 125 53
6 122 52
7 130 55
7 133 56
7 131 55
7 132 56
7 132 55
7 132 55
7 132 55
7 131 55
7 130 55
7 129 55
7 132 56
7 130 55
7 133 56
7 130 55
7 129 55
7 129 54
7 130 55
7 133 56
7 133 56
7 126 54
7 130 55
7 133 56
7 134 56
7 132 56
7 132 56
7 134 56
7 133 56
7 134 57
7 134 56
7 128 55
7 134 56
7 131 55
7 133 56
7 134 56
7 131 55
7 130 55
7 134 56
7 133 56
7 132 56
7 129 55
7 136 57
7 132 56
7 133 56
7 134 57
7 131 55
7 133 56
7 131 55
7 131 56
7 133 56
7 129 54
7 133 56
7 134 56
7 135 57
7 134 56
7 132 56
7 132 55
7 134 57
7 131 55
7 130 55
7 132 55
7 134 57
7 135 57
7 133 56
7 133 56
7 131 55
7 134 56
7 133 56
7 132 56
7 134 56
7 131 55
7 134 56
7 131 55
7 133 56
7 133 56
7 132 55
7 132 56
7 131 55
7 133 55
7 132 56
7 135 56
7 133 56
7 135 56
7 132 55
7 133 55
7 132 56
7 133 56
7 135 57
7 133 56
7 134 56
7 131 55
7 133 56
7 132 55
7 133 55
7 132 55
7 132 55
7 131 55
7 131 55
7 136 57
7 131 55
7 134 56
7 134 56
7 131 55
7 132 55
6 129 54
7 131 55
7 131 55
7 133 56
7 134 56
17 127 53
13 132 55
21 132 54
20 129 52
35 128 52
41 133 54
43 131 53
42 130 51
50 127 50
57 131 52
62 132 51
59 128 49
58 125 48
66 128 49
74 128 47
74 127 47
70 121 45
67 120 45
83 123 44
84 127 45
78 119 42
80 121 41
91 125 42
85 121 41
90 126 44
92 123 43
87 115 41
95 123 42
90 115 44
86 107 45
87 108 47
82 103 44
77 92 46
81 97 47
71 78 52
70 77 48
70 78 46
65 69 50
74 75 57
65 64 51
66 60 57
57 48 52
59 47 55
59 41 58
54 37 54
58 40 57
57 39 57
56 38 55
58 40 58
60 41 61
59 40 59
53 36 53
60 41 60
58 39 57
60 41 59
57 39 56
58 39 58
55 38 55
59 41 59
56 39 55
59 41 59
55 38 55
50 35 51
56 39 57
60 41 59
58 40 59
58 40 59
57 40 57
63 43 63
63 43 63
61 42 61
59 41 61
60 41 60
56 39 56
58 39 57
56 39 58
61 41 61
56 39 58
59 41 60
61 41 62
59 40 59
56 38 56
58 40 58
62 42 62
61 42 62
62 42 63
57 40 57
60 41 60
61 42 62
64 44 65
61 42 62
61 42 62
61 43 62
60 45 64
65 49 69
67 52 71
69 60 78
74 66 84
76 66 86
79 71 91
72 65 84
71 67 83
81 82 98
79 76 94
89 93 112
84 85 103
94 99 119
96 103 121
95 98 118
97 102 120
106 118 139
106 114 136
110 121 142
111 120 140
119 133 154
114 126 146
116 131 153
114 125 147
117 132 154
114 128 149
117 131 152
122 138 161
119 131 153
124 139 161
120 134 155
120 133 155
122 140 163
122 136 157
116 130 151
124 139 161
122 137 159
125 144 166
119 135 157
124 139 161
121 136 158
120 132 153
123 138 161
123 138 160
123 137 159
124 137 160
117 130 153
124 137 161
119 133 155
119 134 156
122 136 160
125 140 163
125 142 164
122 137 159
122 138 162
125 141 162
123 137 160
122 138 160
122 135 157
122 135 157
127 143 166
122 137 159
125 142 164
121 136 159
125 142 165
126 140 163
122 137 159
126 143 166
128 144 168
124 138 162
126 140 163
124 140 163
129 145 168
127 143 166
125 141 164
126 141 164
126 139 163
123 138 160
127 143 167
122 135 158
126 142 164
129 144 169
129 144 167
125 140 163
123 140 163
122 139 162
126 142 164
120 134 155
128 144 168
129 145 169
126 142 164
124 138 161
123 140 163
128 142 166
127 144 169
127 139 163
129 142 165
128 145 169
128 144 168
123 139 162
124 138 161
126 142 165
126 140 164
131 146 171
127 144 167
128 141 167
127 143 167
127 143 166
126 142 165
126 142 165
127 143 167
130 143 168
126 140 163
128 143 167
125 141 165
128 143 166
129 143 167
133 150 174
127 141 164
124 138 161
128 146 169
127 145 168
127 142 165
131 147 170
127 143 167
128 143 166
127 143 166
130 147 171
130 145 168
120 143 159
121 141 159
126 142 163
122 142 156
124 147 162
122 150 161
124 148 161
120 145 154
117 150 152
111 143 142
114 152 146
115 147 149
111 150 141
114 151 147
113 152 143
106 150 134
104 149 131
110 153 142
104 154 133
103 150 128
98 153 120
101 154 129
91 156 113
95 157 118
94 157 115
90 159 111
94 157 117
98 160 122
84 159 99
85 158 103
83 160 99
89 158 105
83 160 100
83 158 101
80 158 94
77 161 92
86 161 101
77 159 89
77 160 91
72 162 83
77 165 88
75 157 87
73 161 84
72 161 81
70 162 77
73 164 82
67 160 75
70 164 76
70 164 77
70 163 76
69 162 76
68 162 76
69 162 76
69 163 77
70 165 77
69 164 77
70 165 77
70 164 76
70 165 77
70 165 77
71 166 78
69 164 77
71 166 78
70 164 77
69 163 77
70 165 77
70 165 77
69 164 77
70 165 77
70 165 77
69 164 77
69 164 77
71 166 77
69 164 77
70 165 77
70 164 77
70 164 77
70 165 77
70 164 77
70 165 77
70 165 77
70 165 77
70 164 77
70 164 77
70 165 77
71 164 79
71 165 79
75 165 84
71 165 77
76 166 86
72 164 80
74 165 84
75 166 85
77 163 88
79 165 90
76 165 87
82 164 97
81 163 95
77 162 90
80 163 94
79 162 94
79 163 92
82 159 97
85 161 100
85 159 101
90 159 113
86 161 104
99 158 122
90 161 111
91 160 111
93 162 116
97 161 121
92 156 111
97 156 120
99 155 124
96 157 119
99 153 123
106 154 134
107 153 139
112 152 142
112 155 145
104 149 128
111 153 140
114 150 146
109 156 140
113 155 144
118 153 154
118 153 152
116 146 149
121 148 158
121 148 158
123 148 159
123 149 158
127 154 165
123 146 159
131 149 169
130 149 172
129 147 168
129 148 168
130 147 172
130 145 170
131 149 173
129 145 167
126 142 166
130 148 170
131 148 172
126 142 165
132 149 173
130 146 169
131 146 168
130 146 169
130 147 171
132 150 174
132 150 174
129 144 168
130 146 171
130 147 171
129 147 170
133 147 171
127 145 168
132 148 172
128 146 169
128 146 169
129 147 169
132 147 170
132 148 172
129 146 168
128 144 167
129 144 167
133 152 176
130 148 171
130 150 173
130 148 171
131 149 172
129 147 171
128 147 170
129 146 169
130 149 172
128 145 167
128 143 165
132 151 175
131 151 174
132 152 174
132 150 173
128 145 168
132 149 172
126 143 166
130 147 170
132 149 172
130 146 170
127 143 165
128 146 169
130 148 171
127 145 168
132 150 174
129 150 172
130 148 172
133 149 172
130 149 173
124 144 165
133 147 171
130 150 172
129 149 171
131 148 171
127 143 167
127 143 166
132 150 174
126 145 168
128 145 168
128 145 168
130 148 170
129 149 172
128 144 167
123 139 160
127 143 165
125 145 167
