P3
1600 1
255
131 49 21
136 50 22
141 51 23
139 51 23
135 50 22
139 52 23
136 50 22
138 51 23
134 50 22
138 51 22
136 50 22
141 52 23
136 51 22
140 52 23
142 52 23
136 51 22
139 52 23
139 51 23
135 50 22
138 51 22
139 51 23
139 51 23
134 49 22
133 49 22
139 51 23
139 51 23
135 50 22
135 50 22
142 52 23
136 50 22
131 48 22
138 50 23
137 51 22
141 52 23
138 51 23
138 51 23
139 51 23
140 51 23
137 50 22
138 51 23
134 49 22
134 50 22
142 52 23
135 50 22
138 51 23
134 49 22
135 50 22
136 50 22
140 52 23
136 51 22
140 52 23
136 50 22
138 51 23
139 51 23
134 49 22
136 50 22
140 51 23
133 49 22
138 51 23
141 52 23
137 50 22
138 51 22
137 51 23
140 52 23
133 49 22
133 50 22
138 51 23
139 51 23
134 50 22
136 50 22
136 50 22
136 51 23
134 50 22
137 50 22
139 51 23
135 50 22
135 50 22
135 49 22
139 51 23
136 50 22
134 50 22
136 50 22
135 50 22
132 49 22
135 50 22
127 48 21
134 50 22
133 49 22
132 49 22
132 49 22
132 49 22
134 49 22
131 48 22
127 47 21
133 49 22
132 49 22
135 50 22
133 49 22
138 50 22
132 49 22
128 47 21
133 49 22
131 49 22
130 48 21
130 48 22
132 48 22
132 49 22
133 49 22
132 49 22
133 49 22
130 48 22
129 48 21
127 47 21
134 49 22
131 48 22
127 47 21
130 48 21
129 47 21
125 46 21
124 46 21
132 48 21
130 48 21
124 45 20
131 48 22
132 48 22
130 48 21
133 49 22
128 47 21
128 47 21
129 47 21
124 46 21
125 46 21
129 54 37
131 66 58
129 70 65
128 82 85
132 83 84
126 99 107
130 100 109
132 104 114
130 118 134
125 110 123
129 118 133
137 134 151
133 131 150
132 139 161
129 139 160
131 142 164
133 145 168
136 151 174
135 153 177
133 151 174
132 149 172
132 151 175
132 150 174
130 147 171
131 149 173
132 150 174
133 151 175
132 150 174
132 149 174
134 150 174
131 149 172
136 153 176
135 153 177
134 152 176
132 150 175
130 147 171
131 148 173
131 149 174
135 151 175
131 150 174
136 154 178
133 151 175
133 152 176
131 148 172
132 150 174
130 148 171
131 149 172
133 151 174
133 150 173
132 151 175
136 155 179
129 146 169
132 150 175
130 148 172
131 149 173
136 154 179
133 150 175
134 153 178
134 152 176
133 150 174
134 152 176
136 155 180
134 152 176
133 152 176
129 147 171
133 151 175
133 149 171
132 148 173
133 150 174
130 147 171
130 147 172
133 150 173
132 150 176
135 154 178
133 151 176
135 153 178
130 148 172
134 151 175
131 150 174
134 152 176
133 150 175
132 150 174
133 150 175
134 153 178
136 153 178
136 153 177
137 156 181
134 152 176
137 155 179
138 156 182
140 157 182
141 160 186
140 158 185
136 155 180
140 157 180
137 155 178
137 154 181
138 156 180
139 155 179
143 160 183
140 159 184
145 162 186
141 158 183
146 163 187
144 162 187
148 165 189
143 160 183
146 163 187
143 160 184
147 166 191
138 154 178
137 155 180
136 153 177
136 152 175
136 153 177
141 158 183
140 158 182
136 153 176
139 156 182
140 158 183
136 153 177
134 150 173
138 155 179
136 154 179
139 156 180
141 160 185
136 152 174
135 152 176
135 152 176
134 151 177
136 154 179
137 155 179
134 153 177
139 157 182
140 158 184
136 152 175
136 153 176
135 152 177
133 151 175
135 153 178
133 151 175
136 154 179
135 153 177
135 153 177
137 153 177
137 156 181
136 154 179
134 152 177
136 155 181
138 157 182
136 153 177
134 151 175
134 153 178
136 154 178
132 149 174
135 153 176
137 156 181
136 154 178
133 151 175
134 152 177
140 157 182
135 151 175
133 152 176
132 150 174
134 150 174
136 152 176
135 153 178
133 149 174
133 150 174
132 149 173
137 153 177
137 154 179
135 152 176
138 156 181
134 151 175
136 154 178
134 152 176
135 151 175
139 158 183
134 152 176
138 157 182
134 150 173
137 155 179
134 150 174
134 151 176
136 152 176
138 155 180
137 155 180
136 154 177
136 154 179
137 155 179
134 151 175
134 151 174
137 156 181
136 154 177
135 153 175
136 153 178
137 154 178
137 155 178
138 156 179
133 150 174
131 147 169
132 149 173
131 149 173
134 152 175
131 148 171
134 151 172
136 151 173
136 153 177
138 156 180
139 157 180
134 149 171
134 150 171
135 150 173
132 149 171
138 155 177
138 156 178
133 148 171
133 148 169
131 146 167
136 153 176
125 142 163
132 148 171
132 150 174
131 147 169
130 145 167
133 147 168
127 143 166
130 144 167
128 144 168
125 144 168
124 139 163
131 147 170
126 143 166
128 143 167
128 144 167
124 142 165
128 145 170
126 142 167
128 144 168
129 147 172
118 133 157
131 148 173
128 146 170
125 140 165
126 143 167
126 145 169
128 145 169
131 150 174
130 148 172
131 148 172
126 143 168
130 149 173
135 153 176
131 149 173
129 147 172
130 148 172
131 149 174
130 149 173
129 146 171
132 149 174
127 143 167
126 143 167
132 150 175
129 147 171
131 148 172
132 149 172
130 148 172
131 148 172
127 144 168
129 147 171
128 146 170
126 143 167
128 146 170
127 144 167
127 144 169
129 147 172
131 149 173
132 150 174
127 145 169
128 146 170
124 140 165
131 149 174
129 147 172
127 145 169
130 149 174
125 142 166
128 147 172
127 145 169
129 147 171
128 146 170
128 145 169
125 142 165
128 146 171
126 143 167
127 144 168
127 144 168
128 147 170
127 144 169
126 143 168
126 143 167
123 140 164
126 143 167
125 143 168
126 144 169
126 143 168
122 138 161
127 145 170
124 142 166
128 145 169
128 144 168
121 137 162
117 134 158
130 147 171
120 135 160
130 148 172
123 140 164
124 140 164
126 144 167
124 141 165
128 145 170
126 144 168
128 145 169
125 142 166
119 135 160
127 144 169
121 138 163
127 143 167
127 144 168
126 142 166
120 135 159
123 139 164
122 138 163
118 135 159
126 143 167
122 138 162
125 142 165
124 141 164
126 143 167
125 142 165
119 135 159
123 139 163
121 139 163
122 138 162
129 147 172
123 139 163
123 139 162
124 141 165
118 134 157
125 142 165
121 137 160
124 141 165
125 142 165
123 139 163
123 141 165
124 140 163
122 138 162
127 144 168
120 136 159
120 135 159
121 137 160
126 144 169
121 138 161
118 134 157
124 141 164
126 144 168
122 138 162
125 142 166
122 139 163
121 136 159
126 143 166
120 137 161
124 141 165
123 139 163
124 142 165
120 136 160
119 135 159
123 140 163
118 134 158
120 137 161
124 141 166
123 138 161
120 137 161
119 136 160
118 136 161
124 141 165
124 142 165
120 136 160
122 138 162
126 143 167
126 143 166
124 141 164
128 146 169
122 138 161
120 137 161
126 141 164
119 134 158
119 134 157
118 134 158
124 141 164
118 135 158
117 134 159
118 134 158
118 134 158
126 144 168
116 132 154
119 135 158
122 139 163
123 140 164
120 136 160
124 141 165
126 142 166
125 142 166
123 140 165
125 143 167
126 144 168
120 136 160
124 141 165
125 143 166
125 143 166
118 133 157
127 144 167
122 140 162
125 142 166
122 139 164
123 140 164
119 136 159
122 139 164
128 145 169
116 132 156
120 137 160
124 141 166
129 147 172
120 137 160
128 145 169
121 137 162
120 137 161
123 139 162
127 145 169
128 145 168
123 140 164
128 144 167
127 145 169
126 143 167
123 140 164
124 141 165
123 139 162
125 143 168
123 139 162
127 145 169
129 145 169
126 142 165
124 142 165
124 141 165
125 143 168
127 143 166
127 145 170
124 142 166
124 141 165
128 145 169
123 140 164
126 143 167
127 143 166
129 146 170
126 143 167
126 142 166
128 144 167
119 136 160
124 142 167
126 144 168
130 147 172
128 146 169
130 148 172
129 146 170
125 142 167
129 146 171
129 147 172
128 145 169
128 144 168
128 147 172
128 146 170
130 147 171
128 146 171
130 148 173
128 146 169
124 142 166
127 144 168
130 148 172
126 143 166
131 148 172
124 142 166
127 144 169
127 144 168
131 149 174
128 146 170
130 148 172
129 147 171
127 146 170
129 147 171
124 141 164
128 146 170
132 150 173
131 149 173
127 144 168
127 146 170
131 149 173
128 145 168
130 146 169
130 148 172
128 146 169
131 148 173
131 150 174
130 148 172
130 149 172
132 150 172
129 147 172
130 148 170
129 147 172
127 144 168
123 139 164
131 149 173
125 142 165
128 145 170
130 148 172
128 145 169
132 151 175
130 148 172
128 146 169
131 148 173
129 146 169
132 150 174
131 148 171
130 147 172
131 148 172
128 145 169
133 151 175
130 148 172
135 153 177
130 148 173
132 150 175
133 152 177
130 148 172
133 151 175
130 147 171
130 149 173
129 149 172
131 149 173
131 149 174
128 147 172
132 149 173
133 151 175
130 147 171
131 148 172
131 150 174
133 152 176
129 147 171
133 151 175
133 151 175
131 149 173
130 147 170
131 149 172
134 152 177
131 148 172
133 152 176
133 152 176
127 145 169
135 154 178
130 148 172
132 150 174
131 149 172
134 151 176
129 148 171
133 151 175
134 151 175
127 144 169
132 149 172
134 152 176
134 152 176
135 153 177
131 149 173
134 152 176
130 148 173
133 150 174
130 148 173
132 151 174
134 152 175
130 147 172
132 150 174
129 147 172
133 151 176
132 150 176
131 149 172
130 149 174
130 148 173
132 150 174
133 152 176
133 153 177
132 151 176
131 149 173
128 145 169
133 151 175
129 147 171
131 149 172
133 150 175
134 153 178
131 150 174
127 144 166
134 151 173
133 151 175
131 148 171
133 152 177
132 149 173
133 151 176
136 154 178
134 151 175
132 150 173
133 151 175
133 151 175
134 153 178
132 150 174
135 154 179
133 152 176
131 149 173
130 148 171
132 150 174
132 150 173
132 150 174
133 152 177
133 150 173
132 150 175
133 151 175
134 151 173
133 152 177
131 150 174
132 149 173
130 148 173
136 155 179
131 148 170
133 151 174
130 149 171
135 153 177
132 150 175
130 149 173
133 150 174
130 146 169
132 150 173
130 148 171
132 150 174
132 151 175
133 152 175
133 151 175
133 151 175
135 153 178
133 150 175
130 148 172
133 152 176
132 150 173
132 151 174
132 150 174
135 154 178
133 152 176
130 148 172
131 149 174
132 150 174
132 151 174
135 154 178
134 151 174
132 150 174
134 152 177
134 152 176
137 155 178
131 150 175
129 145 168
133 150 173
132 150 173
134 152 176
127 144 166
135 153 175
133 151 176
134 153 177
133 151 176
133 149 172
133 150 174
133 152 176
134 152 176
134 153 176
134 152 175
133 150 175
134 152 175
134 152 176
130 148 172
133 152 175
133 151 175
134 151 175
132 150 174
130 149 171
131 149 173
134 152 176
135 153 178
133 151 173
134 152 175
133 151 175
135 153 177
133 152 177
130 150 174
135 153 178
135 153 176
134 152 175
133 151 175
135 154 178
132 149 171
132 150 173
133 152 175
132 151 175
132 151 174
133 150 173
133 151 176
132 151 175
133 151 175
133 152 176
133 151 174
134 153 177
132 149 173
134 152 176
134 152 176
132 149 173
134 152 175
133 152 176
136 153 177
127 145 167
131 149 172
133 150 174
133 150 173
134 151 173
131 149 173
131 149 172
135 153 177
132 151 175
135 153 177
134 153 176
128 147 170
131 150 172
132 150 173
129 146 168
132 150 174
131 149 172
132 150 173
135 153 177
131 148 173
129 148 172
132 150 173
134 152 176
130 148 170
133 152 174
131 150 174
134 153 176
133 151 175
134 153 177
130 148 172
135 153 176
132 150 173
132 151 174
132 151 174
131 149 172
132 151 175
130 147 169
131 149 172
132 150 174
133 152 176
130 148 171
133 152 175
129 146 169
134 152 175
134 152 175
130 148 172
133 151 174
131 149 172
134 152 176
134 152 176
135 153 177
133 151 174
132 150 173
130 149 172
132 150 173
130 148 170
133 150 174
132 150 173
130 148 172
129 147 169
132 149 172
133 151 173
131 149 171
131 149 173
130 147 170
129 145 168
135 152 175
132 150 174
133 151 175
130 147 170
128 145 168
130 147 170
132 149 171
135 153 177
132 150 173
131 149 173
130 147 170
131 149 172
129 146 169
131 149 172
130 145 169
129 145 167
131 148 171
133 150 172
133 150 173
132 150 174
131 148 171
131 150 173
132 149 172
129 147 168
133 151 173
132 150 172
133 150 173
131 150 172
130 148 170
133 151 174
132 150 174
132 149 170
134 150 173
132 150 172
133 151 175
132 151 174
133 151 175
134 152 175
131 149 172
131 149 172
133 151 175
134 153 177
131 149 171
131 149 172
129 146 168
133 150 174
133 151 175
131 148 171
131 148 171
131 148 170
132 149 171
130 147 170
131 147 170
131 151 174
129 147 169
131 149 174
131 149 172
129 147 169
128 146 168
128 146 169
125 141 162
133 151 175
130 147 169
130 147 171
133 151 175
131 148 171
130 147 171
129 146 169
128 145 168
128 146 168
127 145 167
129 147 170
127 144 167
130 148 172
130 147 170
129 147 169
131 149 172
128 143 166
129 147 170
131 147 171
129 147 170
123 141 160
128 145 168
125 144 160
122 139 155
126 144 163
124 145 154
119 139 136
119 143 149
113 136 131
113 138 136
106 136 119
103 130 115
104 135 110
87 125 95
86 128 94
86 129 92
74 127 71
82 128 71
70 126 62
64 124 52
58 121 48
59 131 52
39 124 51
42 126 51
48 130 52
37 130 53
31 127 53
32 126 53
23 131 54
20 126 53
11 127 53
17 126 53
7 130 54
7 130 55
7 131 55
7 130 55
7 129 54
7 127 54
7 129 55
7 127 54
7 130 54
7 130 55
7 128 54
7 131 55
7 132 56
7 132 55
7 130 55
6 126 54
6 125 53
7 131 55
7 134 56
7 132 56
7 132 56
7 133 56
7 131 55
7 134 56
7 129 54
7 131 55
7 127 54
7 132 56
7 130 55
7 131 55
7 130 55
7 128 55
6 126 53
7 132 56
7 131 55
7 134 56
7 128 54
7 131 55
7 133 56
7 133 56
7 129 55
7 133 56
7 132 56
7 133 56
7 134 56
7 134 56
7 129 55
7 134 56
7 131 55
7 131 55
7 135 56
7 130 55
7 130 55
7 133 56
7 132 55
7 132 56
7 131 55
7 135 57
7 132 56
7 133 56
7 133 56
7 132 56
7 132 56
7 130 55
7 131 56
7 134 56
7 128 54
7 132 55
7 134 56
7 136 57
7 133 56
7 132 56
7 131 56
7 134 56
7 131 55
7 130 55
7 132 56
7 135 56
7 135 56
7 132 56
7 134 56
7 132 56
7 133 56
7 132 56
7 134 56
7 133 56
7 129 54
7 134 56
7 131 55
7 132 55
7 132 55
7 133 56
7 131 55
7 130 54
7 134 56
7 132 55
7 134 56
7 133 55
7 134 56
7 132 55
7 133 56
7 132 55
7 134 57
7 135 57
7 134 56
7 132 55
7 131 55
7 135 56
7 129 53
7 133 56
7 131 54
7 129 54
7 130 54
7 134 56
7 133 56
7 135 56
7 134 56
7 130 55
7 131 54
7 132 55
7 129 54
7 130 55
7 131 55
10 132 55
19 129 54
21 129 53
30 132 54
32 127 51
36 131 53
53 134 54
42 129 52
42 127 50
54 128 50
56 131 51
66 128 49
61 127 48
57 124 48
68 128 48
78 126 46
71 124 46
80 122 44
79 123 44
80 118 41
81 122 43
82 123 42
88 124 42
85 117 41
85 117 40
85 114 42
83 106 44
86 109 43
89 111 44
82 102 44
81 100 43
85 103 47
78 91 49
78 90 49
68 70 53
67 72 47
68 65 53
61 54 54
69 69 55
62 53 55
59 48 54
52 35 50
58 40 57
58 40 57
59 40 58
58 39 58
56 39 56
60 41 61
59 40 59
59 41 59
57 39 56
59 40 59
58 40 58
60 41 60
57 39 57
58 39 58
59 40 60
55 38 56
61 41 62
54 38 54
55 37 55
60 41 60
55 38 54
53 36 53
59 41 60
55 38 55
57 40 57
59 41 60
59 40 60
58 40 58
61 42 63
57 40 57
59 40 59
60 41 60
58 40 59
56 39 57
57 39 56
57 40 57
61 42 61
59 41 60
59 40 59
57 39 57
64 43 64
60 42 62
63 43 64
58 40 59
58 40 58
60 43 61
68 54 73
64 46 66
65 49 69
70 57 76
69 60 77
72 63 82
72 67 83
83 79 99
83 80 99
80 77 94
86 85 104
87 91 108
85 87 104
90 93 111
95 101 119
94 101 119
97 106 124
95 101 120
105 115 134
103 111 130
106 116 137
108 119 139
107 117 139
119 133 155
120 134 156
112 125 143
121 136 158
119 135 156
116 131 152
114 126 148
121 136 158
117 131 153
116 130 151
123 138 161
117 132 153
120 134 156
119 133 153
117 131 152
118 135 157
117 130 150
120 134 156
123 138 161
120 136 156
121 138 161
124 141 163
122 136 158
117 130 149
122 137 158
120 135 158
117 132 152
123 136 158
120 134 156
120 134 156
119 133 155
114 127 148
123 137 160
124 139 162
123 140 162
125 140 163
120 135 158
119 135 155
126 142 165
119 135 156
124 138 162
121 133 155
123 139 161
127 144 166
123 138 161
124 141 164
120 136 159
128 146 169
124 139 162
122 136 159
127 143 167
123 138 161
129 142 166
123 137 158
123 140 163
128 145 168
125 141 163
128 145 168
122 135 157
127 143 167
125 142 164
125 139 162
122 137 160
127 144 168
128 142 167
124 139 162
128 146 170
124 140 163
120 138 159
127 141 164
120 134 156
129 145 169
128 145 170
123 137 159
122 137 160
126 142 165
126 142 165
127 142 166
129 143 166
125 138 161
130 146 170
124 139 162
122 138 160
126 141 164
128 143 167
127 141 165
130 147 171
128 145 169
126 139 164
130 146 171
127 143 166
127 144 167
127 143 167
127 142 166
130 144 169
122 137 160
129 144 169
128 144 168
125 140 164
131 147 171
129 144 169
127 141 164
128 142 166
129 147 171
127 144 168
130 144 168
127 145 166
126 145 166
125 144 163
126 147 166
124 146 159
122 146 160
117 143 154
123 147 160
112 145 144
118 144 153
117 143 152
116 149 150
115 148 148
118 154 151
100 143 127
108 148 138
106 152 136
110 151 141
97 153 122
101 150 125
107 154 136
99 151 124
100 155 127
94 156 119
89 155 108
93 157 115
97 155 121
86 157 105
88 158 107
86 158 104
87 159 104
86 156 104
85 161 102
84 160 98
77 162 89
76 160 89
81 159 93
80 165 90
72 161 82
73 159 85
73 159 83
74 164 85
75 163 85
71 161 80
69 162 78
70 164 77
70 163 78
68 161 74
69 162 76
69 163 77
71 165 77
70 165 77
68 161 76
70 164 77
70 164 76
68 161 75
70 165 77
69 162 76
69 162 76
69 164 77
71 166 77
69 164 77
70 165 77
69 163 77
70 164 77
71 166 77
70 166 78
69 163 77
71 166 78
69 164 77
70 165 77
70 164 77
70 165 77
69 163 77
70 165 77
70 164 77
70 165 77
69 163 76
70 164 77
70 165 77
71 165 77
69 163 76
70 165 77
70 165 77
69 163 76
71 166 77
70 166 78
70 166 77
69 162 76
70 165 77
70 165 77
70 165 77
70 165 77
71 165 77
71 166 77
69 164 77
71 164 78
71 166 77
70 165 77
71 163 80
74 164 85
74 166 83
77 165 88
75 164 87
73 164 82
77 164 89
78 162 92
80 162 93
82 160 97
79 162 92
88 159 105
85 161 103
87 161 106
93 161 114
89 161 109
88 160 107
90 163 111
95 160 118
88 157 107
96 157 118
94 159 117
95 158 119
97 154 120
104 155 130
105 154 135
106 151 136
109 156 141
98 150 121
111 152 140
109 153 139
107 154 136
114 156 146
114 155 148
118 153 153
117 148 151
120 148 155
121 150 157
122 149 158
123 151 159
122 151 159
121 147 157
130 152 169
130 148 171
127 145 166
128 147 167
130 150 172
130 143 169
131 149 173
129 146 168
127 144 167
130 147 170
132 150 174
130 148 170
130 147 171
132 150 174
128 143 164
131 148 171
129 145 168
132 151 175
130 148 171
132 150 174
128 141 166
133 152 176
128 147 170
131 147 170
130 147 171
129 144 168
132 149 172
129 148 170
128 145 168
131 148 171
131 146 169
133 152 175
128 146 169
128 143 165
128 145 168
132 152 175
132 150 173
128 147 169
132 151 174
129 147 170
128 145 167
129 147 170
130 147 171
131 149 172
129 145 169
127 146 167
129 148 171
130 149 172
132 150 174
131 148 170
129 146 169
129 148 170
128 146 168
132 149 173
130 147 171
130 147 171
125 144 166
129 146 170
131 149 172
130 149 172
130 150 172
128 149 172
133 152 175
132 150 172
129 148 170
126 142 164
133 148 173
128 149 171
131 148 171
130 148 171
125 142 165
131 146 170
128 147 171
127 145 168
128 145 168
130 148 170
131 150 172
127 145 168
126 142 164
