P3
1600 1
255
134 50 22
133 49 22
137 51 22
139 51 23
130 48 21
136 50 22
140 51 23
140 52 23
131 48 22
139 51 23
136 50 22
140 51 22
135 50 22
136 50 22
143 52 23
136 50 22
134 49 22
136 50 22
137 51 23
135 50 22
139 52 23
135 50 22
135 50 22
137 50 22
132 49 22
137 51 22
133 49 22
142 52 23
138 51 23
131 49 22
136 50 22
137 50 22
140 51 23
138 51 23
141 51 23
135 50 22
141 52 23
139 51 23
134 50 22
138 51 22
137 51 22
135 50 22
139 51 23
136 50 22
138 50 22
134 50 22
134 49 22
135 50 22
141 52 23
136 50 22
137 51 22
132 48 22
136 51 22
140 51 23
136 50 22
137 51 22
136 50 22
134 49 22
139 51 23
141 52 23
137 50 22
137 51 22
142 52 23
137 51 23
128 48 21
133 49 22
137 51 23
135 50 22
132 49 22
136 50 22
131 49 22
131 49 22
139 51 23
136 50 22
134 50 22
129 48 21
135 50 22
137 51 23
134 49 22
131 48 22
135 50 22
132 49 22
134 50 22
133 49 22
130 48 21
137 50 22
136 50 22
134 49 22
129 49 22
136 50 22
132 49 22
128 47 21
133 49 22
134 50 22
131 49 22
130 48 21
129 48 21
135 50 22
132 49 22
128 48 21
129 47 21
130 48 21
125 46 21
127 47 21
132 49 22
133 49 22
130 48 22
131 48 22
135 49 22
131 48 22
128 46 21
131 48 21
128 47 21
127 47 21
131 48 22
130 48 21
127 47 21
129 47 21
126 46 21
128 47 21
128 47 21
130 48 21
124 45 21
131 48 22
132 49 22
131 48 21
123 45 20
132 49 22
126 46 21
125 45 21
126 46 20
125 48 27
130 53 36
132 63 55
124 65 61
128 74 72
123 79 81
130 95 103
127 91 98
123 100 110
131 107 118
132 114 127
129 126 144
134 131 150
128 128 147
132 133 152
134 142 163
131 144 166
133 147 170
133 145 168
132 148 172
133 152 176
132 150 175
132 148 171
132 149 174
133 150 174
132 150 175
133 151 174
131 149 174
134 150 173
132 149 173
136 153 176
134 152 176
132 150 174
132 151 175
130 148 171
131 149 173
131 149 174
135 152 176
131 148 172
135 152 176
133 151 175
133 151 176
132 149 172
132 150 175
129 147 169
133 150 174
133 149 173
131 148 172
132 150 173
136 155 179
130 146 169
130 149 173
131 149 172
131 148 172
134 152 176
132 149 174
135 153 178
135 152 176
133 150 173
135 153 177
135 152 176
135 153 177
133 150 175
130 148 172
133 151 175
132 148 171
130 148 172
131 148 172
131 149 173
132 150 174
132 150 173
132 151 177
134 153 177
132 150 175
136 154 178
130 148 174
131 147 170
131 149 172
134 152 176
135 153 177
132 149 174
137 156 181
138 156 181
137 155 178
135 153 178
136 154 179
133 148 171
140 157 182
138 156 180
134 153 179
140 157 182
135 152 179
143 161 184
136 155 180
140 156 180
142 159 188
138 155 178
140 156 179
136 154 178
138 158 183
147 165 189
140 158 183
139 158 184
147 166 191
140 158 183
140 158 183
138 155 180
139 158 183
141 157 181
140 158 182
133 150 176
140 156 178
135 152 175
137 155 181
135 153 178
143 161 186
137 153 178
137 155 179
138 156 182
132 149 174
137 155 179
139 157 181
134 151 177
142 161 185
139 157 181
134 151 175
135 152 175
133 149 173
135 152 177
133 150 174
135 153 176
138 157 182
138 157 182
137 154 178
137 154 178
132 148 171
134 151 174
138 156 181
132 150 174
135 153 178
132 150 175
136 154 178
136 153 177
137 154 178
137 154 179
135 153 177
134 153 177
138 156 182
136 154 178
136 152 176
133 151 175
134 152 176
136 154 179
135 153 178
137 155 178
138 157 181
133 150 174
134 151 174
134 152 176
133 149 173
133 150 174
136 155 181
132 150 173
135 152 176
131 148 171
136 154 180
133 150 174
134 150 173
135 151 176
138 156 180
138 154 177
134 152 176
134 151 176
129 145 167
138 157 181
133 150 173
135 153 177
139 158 183
137 154 179
134 150 174
137 153 177
135 153 178
135 153 177
135 153 178
134 150 174
136 155 180
134 152 175
132 149 173
137 156 181
134 151 174
134 152 176
136 153 178
137 155 179
136 154 178
141 159 184
136 154 178
134 152 175
137 155 179
132 150 173
135 152 175
131 147 170
133 152 177
132 150 174
136 153 177
131 149 172
134 149 171
134 152 174
134 148 171
135 152 175
133 148 170
140 159 183
135 151 173
131 148 171
137 152 174
138 157 181
134 151 173
135 152 173
137 154 175
136 152 174
137 153 174
134 149 171
137 152 173
133 150 173
130 145 167
132 146 169
133 149 172
125 141 163
128 142 164
139 154 177
129 144 168
130 146 167
127 143 168
129 144 167
128 143 166
123 138 161
124 138 163
131 145 166
125 143 165
124 141 165
123 139 165
124 140 164
127 143 168
122 139 164
123 140 166
127 145 169
120 136 161
126 142 166
129 147 172
128 144 169
128 146 170
132 150 174
130 149 174
129 146 171
130 148 172
129 147 172
134 151 176
130 148 172
130 148 173
133 151 176
125 141 164
128 146 170
132 151 175
128 146 170
130 149 173
131 148 172
132 150 175
128 146 170
129 147 170
133 151 175
128 147 171
129 146 171
127 145 169
128 145 168
128 146 171
130 148 173
130 148 172
130 147 171
128 145 170
130 149 173
125 142 167
132 149 174
128 146 171
126 143 169
132 150 175
126 143 168
129 148 173
127 145 169
131 149 174
127 144 169
128 145 170
126 143 167
127 144 168
128 144 168
126 143 167
126 144 169
130 148 172
128 146 170
129 147 172
130 147 171
120 136 161
125 142 167
133 151 176
124 142 168
128 145 169
124 141 165
127 145 169
128 147 171
127 144 168
132 150 174
128 144 169
122 139 164
126 143 168
127 145 169
123 139 164
128 145 169
128 146 169
125 142 165
128 146 169
128 146 169
130 148 172
124 142 166
128 145 169
125 141 166
123 139 164
129 146 171
119 136 162
130 147 171
131 148 172
125 142 167
123 140 163
127 144 169
122 139 163
122 139 163
127 145 170
127 144 168
125 142 164
126 143 167
125 142 167
132 149 172
120 135 159
124 140 163
125 143 167
121 138 162
125 141 166
127 144 168
126 143 167
123 140 164
124 141 165
125 142 166
130 147 171
124 141 166
125 142 165
122 137 160
125 142 165
127 144 168
128 145 170
123 139 162
127 144 168
122 139 162
122 137 161
126 143 167
129 148 172
121 137 161
123 139 163
126 143 166
125 143 167
125 142 166
122 138 162
125 141 166
122 138 162
127 143 167
123 140 164
127 144 168
128 145 168
130 147 171
125 143 167
124 140 164
121 137 162
123 140 163
118 136 161
126 143 168
128 144 168
122 138 162
125 142 166
124 141 166
119 136 161
123 140 164
127 144 168
127 144 168
129 147 172
127 144 167
130 148 172
129 146 171
126 143 166
127 144 168
125 142 166
127 144 167
127 143 167
124 140 163
118 133 156
123 141 165
130 149 172
117 134 158
115 132 156
123 140 164
125 143 167
124 141 166
120 136 160
122 139 162
125 143 167
123 140 165
128 146 169
120 136 161
125 143 167
129 146 169
125 143 168
131 149 173
123 139 163
127 145 170
128 146 170
128 144 167
124 141 165
121 138 161
125 142 166
124 141 165
125 143 167
128 145 168
125 143 168
125 142 167
121 138 162
125 142 167
128 144 169
125 142 167
126 143 166
128 146 170
127 145 170
126 142 166
130 148 172
126 144 169
126 143 167
124 141 164
127 145 169
128 146 170
125 142 164
126 143 167
127 145 168
127 144 168
124 141 165
127 143 166
124 140 163
126 144 168
128 145 169
127 144 168
130 146 169
129 146 170
128 146 170
125 142 165
126 145 170
125 142 165
129 147 170
131 150 175
127 144 168
125 143 167
129 147 171
122 140 164
124 140 164
128 145 169
125 143 166
131 149 174
127 144 167
129 146 169
123 140 165
131 149 174
127 146 170
127 144 169
132 149 172
127 144 169
131 148 172
126 144 169
130 148 172
131 149 173
127 143 167
128 146 170
128 147 172
130 148 172
131 148 172
128 146 170
130 148 172
131 149 172
127 144 168
131 148 172
128 146 170
126 144 167
131 148 173
124 142 167
128 146 170
127 143 167
130 148 174
131 149 172
129 146 170
127 145 169
127 146 170
130 148 173
127 144 168
133 150 174
131 149 172
133 151 174
128 146 171
127 145 170
131 149 173
129 146 170
128 144 168
129 148 172
129 147 171
126 144 168
133 152 177
131 150 174
130 148 172
132 150 173
130 147 172
131 149 172
132 150 174
127 144 168
128 145 169
130 149 173
131 150 174
129 147 170
130 149 173
129 147 169
132 151 176
132 149 174
130 148 172
132 150 174
131 148 171
131 149 173
133 151 174
130 146 169
129 146 171
130 147 171
132 150 175
132 150 173
134 152 176
133 151 175
130 147 172
132 151 176
134 152 176
130 148 172
133 151 175
132 149 173
129 149 173
131 150 173
130 148 173
130 149 173
133 151 176
132 149 173
131 149 173
130 147 171
132 149 173
130 149 173
132 151 175
127 145 169
133 152 176
134 152 177
130 148 172
133 151 174
130 148 172
135 153 177
130 148 173
133 152 176
133 152 175
130 149 172
133 152 176
133 151 174
134 153 178
131 149 172
133 152 177
133 151 174
135 153 178
131 149 173
133 150 174
131 149 173
134 151 175
135 153 176
135 153 178
132 150 174
134 152 175
132 150 174
133 151 175
130 148 172
133 151 175
130 148 171
133 151 175
134 151 176
131 149 173
133 152 177
133 151 176
132 150 173
132 150 175
128 147 172
132 151 175
134 152 177
135 153 177
131 150 175
133 151 174
129 146 169
133 151 175
130 148 172
134 152 175
134 152 176
135 153 178
133 152 175
130 146 169
135 152 174
133 151 175
133 149 172
133 151 175
134 152 176
132 150 174
135 154 178
132 149 173
134 151 174
133 151 176
134 151 176
134 152 176
132 151 175
134 152 176
135 154 177
131 148 172
133 152 176
130 149 173
133 150 175
135 153 178
132 151 177
132 149 172
135 153 177
134 152 176
132 149 173
135 153 177
131 149 174
132 150 174
131 150 174
134 152 175
131 148 171
132 149 171
132 150 174
132 150 174
132 151 175
130 149 173
133 150 173
133 150 173
132 150 174
132 150 174
132 150 174
134 153 176
133 151 173
132 151 175
132 151 176
133 150 175
134 152 177
132 149 174
131 149 173
134 152 175
130 148 172
133 151 174
134 152 176
133 152 176
130 148 171
132 150 174
133 152 176
132 151 174
135 153 177
133 150 174
134 152 176
134 152 176
134 152 176
135 152 175
134 152 176
131 149 173
133 151 174
132 150 173
132 150 175
133 150 173
134 152 174
133 151 175
133 151 175
134 153 177
133 151 175
133 150 173
134 152 177
133 151 174
133 151 174
133 152 175
132 150 173
134 153 178
133 150 173
131 149 173
131 149 173
136 153 177
133 151 175
134 152 176
128 145 168
131 150 174
133 152 177
134 153 177
132 150 172
135 154 178
132 149 171
134 152 176
134 152 176
132 151 176
132 151 174
135 154 178
136 153 176
133 151 174
135 153 177
131 150 172
131 148 171
134 153 177
131 150 174
131 149 173
135 153 177
133 150 173
134 152 177
135 152 176
133 151 176
133 151 174
134 153 178
134 154 178
133 150 173
132 151 175
134 151 175
133 151 174
134 152 175
130 148 173
133 150 172
130 148 170
132 150 172
134 152 176
134 151 174
132 149 171
131 149 173
134 151 175
133 151 176
132 150 175
134 152 175
131 149 172
134 153 176
129 146 169
130 148 170
134 152 176
131 149 173
130 149 172
135 152 176
134 152 176
132 149 173
132 150 175
131 149 172
130 149 174
130 148 169
133 151 174
133 152 176
130 149 172
133 152 176
132 150 174
133 152 177
132 150 172
134 152 176
132 151 175
131 150 174
131 148 172
129 147 168
132 148 170
132 150 173
133 152 176
133 151 175
132 149 172
132 151 175
132 150 172
133 151 173
129 146 169
133 151 175
133 151 174
133 151 175
134 153 176
136 153 177
133 151 174
132 150 173
132 150 173
132 151 174
132 150 173
132 150 173
130 149 172
130 149 172
131 149 170
128 146 168
133 151 174
130 148 171
131 149 172
129 147 169
128 145 167
134 152 175
132 150 173
131 151 174
130 148 171
131 149 172
128 146 169
128 145 167
134 153 177
132 150 174
132 150 174
130 147 171
132 151 175
130 147 168
131 148 171
129 146 171
131 147 170
128 145 165
131 147 169
134 151 174
130 148 171
130 147 169
132 150 174
131 149 173
128 146 167
134 152 175
130 149 172
132 150 172
129 147 169
129 146 169
134 152 174
131 149 173
133 150 172
134 151 173
129 147 170
133 151 175
131 149 172
134 151 175
130 149 171
130 148 171
131 149 173
134 152 176
133 151 175
134 152 175
129 146 170
131 149 171
131 148 171
134 152 175
133 151 174
131 148 172
129 145 167
130 147 170
129 146 169
132 149 173
129 148 170
132 150 173
131 150 174
130 147 170
129 147 170
127 145 166
129 148 171
126 143 165
132 150 173
128 146 168
130 147 171
132 151 175
130 148 170
131 149 172
129 146 169
124 141 163
129 148 170
128 145 168
129 146 169
127 143 167
127 144 167
130 147 169
129 147 170
129 147 170
127 145 168
131 149 171
125 143 163
123 140 157
121 144 156
113 136 140
111 138 144
117 145 150
110 138 138
102 130 125
107 134 129
94 135 117
94 135 118
84 134 91
74 124 82
81 132 93
75 125 75
65 127 82
67 127 75
43 126 54
58 126 50
45 128 52
52 126 51
40 124 51
37 128 52
28 126 52
21 128 53
18 125 53
14 130 55
7 127 54
7 129 54
7 130 55
7 131 55
6 125 53
7 130 55
6 124 52
7 133 55
7 129 54
7 128 54
7 129 54
7 129 55
7 128 54
7 129 55
7 130 54
7 130 55
7 128 54
7 129 55
7 127 54
7 133 56
7 127 53
6 126 53
7 126 53
7 130 55
7 129 54
7 133 56
7 129 54
7 133 56
7 130 55
7 131 55
7 129 54
7 128 54
7 128 55
7 133 56
7 127 54
7 131 55
7 132 56
6 126 54
6 125 53
7 132 56
7 131 55
7 133 56
7 129 54
7 129 55
7 132 55
7 132 55
7 132 56
7 132 56
7 132 55
7 131 55
7 133 56
7 128 54
7 132 56
7 132 55
7 133 56
7 132 55
7 128 54
7 128 55
7 133 56
7 133 56
7 130 55
7 131 55
7 132 55
7 131 55
7 134 57
7 133 56
7 130 55
7 128 54
7 130 55
7 129 55
7 132 55
7 128 54
7 128 53
7 132 56
7 134 56
7 134 56
7 132 56
7 131 56
7 134 56
7 131 55
7 130 54
7 131 56
7 134 56
7 133 56
7 132 55
7 134 56
7 132 55
7 133 56
7 132 56
7 132 56
7 134 56
7 131 55
7 131 55
7 131 55
7 132 55
7 132 55
7 133 56
7 131 54
7 131 54
7 132 56
7 129 54
7 132 55
7 133 56
7 133 56
7 130 54
7 133 56
7 131 54
7 134 56
7 135 56
7 132 55
7 132 55
7 132 55
7 132 55
7 130 54
7 131 55
7 130 54
7 129 54
6 129 53
7 132 55
7 132 55
7 135 56
7 131 55
7 129 54
7 130 54
7 130 54
7 128 54
7 130 54
7 131 54
7 131 54
13 128 53
15 127 52
26 129 53
17 128 53
37 127 50
34 132 54
36 128 51
45 131 52
45 124 49
62 129 50
58 129 50
62 124 47
54 127 50
68 127 48
72 127 47
74 123 45
68 121 45
75 117 42
85 127 46
79 122 43
79 122 42
87 122 45
84 116 42
80 109 43
82 107 43
84 108 44
76 97 43
83 101 47
76 90 46
74 84 49
69 80 47
71 81 46
70 71 52
64 67 49
56 50 48
59 49 52
58 50 52
54 41 52
49 35 48
54 37 53
53 36 53
52 36 52
55 37 54
59 40 58
53 37 54
58 39 58
57 39 58
60 41 60
56 38 54
58 39 58
56 38 55
55 38 55
51 35 51
53 36 55
54 37 54
57 39 57
60 41 60
54 36 53
54 37 54
52 36 51
52 36 52
59 41 60
58 39 57
59 40 59
57 40 59
59 40 59
61 41 61
58 40 59
56 38 57
55 37 55
59 41 59
56 38 57
60 47 65
55 38 56
59 40 59
56 43 59
60 44 62
60 47 64
63 53 69
67 59 76
67 55 73
66 54 73
66 58 74
69 62 78
73 67 86
66 56 72
79 79 97
72 67 84
79 76 94
84 87 102
80 78 95
87 85 104
90 93 112
87 89 107
91 97 114
91 99 117
92 99 116
97 104 123
98 106 124
105 115 134
101 110 128
107 116 136
107 119 137
108 119 138
107 119 138
116 126 146
108 121 140
110 123 142
113 125 145
112 125 144
116 131 153
119 134 154
115 127 149
111 123 145
111 122 143
113 125 145
116 131 153
112 123 144
120 134 155
114 127 145
115 128 149
119 136 158
117 132 152
113 126 145
120 135 157
122 137 160
117 133 154
119 132 154
118 131 153
119 135 154
118 131 153
112 126 146
119 134 154
119 132 154
116 129 150
119 132 154
120 135 157
116 128 149
118 132 155
123 138 161
121 136 157
117 132 153
119 134 156
121 138 159
115 130 149
121 135 158
122 135 156
121 136 158
126 143 165
119 132 155
123 141 164
121 137 159
126 141 164
123 139 161
122 138 160
125 141 164
120 134 156
124 140 163
125 141 163
124 141 164
124 141 162
121 137 160
128 142 165
123 139 161
124 138 161
126 144 167
123 137 161
123 139 160
128 145 169
125 138 161
126 141 163
125 142 166
118 135 156
128 144 167
121 135 156
127 143 167
130 147 171
124 140 162
124 138 161
123 139 162
127 143 166
128 143 167
127 142 165
123 137 159
127 144 168
126 141 165
120 135 156
122 139 160
124 139 162
130 147 171
128 144 167
129 146 170
128 144 168
129 145 169
128 144 167
124 140 162
129 143 167
126 140 165
130 145 168
126 139 163
126 141 164
127 144 168
125 141 164
127 142 166
129 146 170
127 144 167
128 145 168
124 142 166
128 146 169
124 142 163
126 144 167
123 145 162
123 143 160
124 146 164
120 148 155
120 143 155
118 148 154
121 144 157
111 142 142
119 145 153
118 147 154
111 147 142
114 152 148
113 148 147
100 146 126
110 150 139
105 152 133
103 155 132
99 157 124
99 155 124
104 153 130
93 152 114
92 155 115
92 155 113
88 155 108
87 155 104
86 156 106
83 157 100
78 160 93
81 157 98
78 156 92
78 158 91
76 159 90
74 162 84
73 162 81
70 160 78
74 161 83
72 163 79
70 160 76
68 160 75
68 160 74
69 162 76
70 164 76
69 162 76
68 161 76
69 163 76
69 162 75
68 161 75
69 161 76
69 163 76
70 165 76
70 163 76
68 161 76
69 163 76
69 163 76
69 161 75
70 165 77
69 164 77
69 162 76
68 162 76
70 165 77
69 163 77
71 166 77
68 161 75
70 164 76
70 165 77
69 163 76
69 163 76
70 166 77
69 164 77
70 164 77
70 165 77
70 165 77
69 163 76
70 164 77
70 164 77
69 164 77
69 163 76
69 163 76
69 163 77
71 166 78
69 163 77
70 164 76
70 165 77
70 165 77
70 165 77
70 165 77
70 165 77
69 163 76
71 165 77
70 164 77
69 163 77
70 165 77
70 163 76
71 166 77
70 164 77
70 164 77
70 165 77
70 166 77
70 165 77
69 164 77
70 165 77
69 163 76
70 165 77
70 164 76
70 165 77
70 165 77
69 162 76
69 163 76
71 166 78
69 163 76
69 163 77
72 165 81
72 163 80
72 163 81
73 161 82
72 164 80
77 163 90
75 161 84
78 163 88
79 162 92
80 162 94
85 159 102
88 162 108
84 161 100
88 161 106
88 159 108
92 157 113
85 157 103
96 157 117
95 161 118
93 158 114
96 157 119
102 157 129
98 157 125
107 150 136
100 158 128
105 156 136
114 153 146
110 156 141
107 157 137
115 149 145
118 154 151
120 154 156
121 153 158
120 150 156
126 154 165
120 146 155
126 152 165
125 146 163
122 147 160
131 149 170
133 150 174
128 147 168
132 149 173
131 149 173
132 150 172
133 150 174
129 144 168
133 150 174
131 149 172
132 149 173
130 146 171
132 149 173
130 149 172
133 150 174
131 147 171
130 145 169
132 149 172
130 148 170
131 148 172
131 148 171
130 146 170
134 150 175
127 143 166
125 141 162
132 149 174
131 147 170
135 152 177
126 144 167
133 151 175
131 148 172
129 147 170
131 148 171
129 147 169
132 149 174
131 146 170
127 147 168
131 150 173
132 151 175
133 152 177
131 148 170
131 149 173
128 146 168
127 143 166
130 148 171
130 148 171
128 146 169
128 146 168
127 145 168
133 150 175
129 148 171
132 152 174
129 148 171
131 150 173
131 150 172
128 147 170
127 144 166
131 147 170
131 149 173
131 148 172
131 148 171
131 147 171
134 148 173
130 150 172
127 146 169
129 147 170
130 147 171
131 149 171
127 144 167
129 145 168
124 140 162
129 147 169
128 148 170
