P3
1600 1
255
221 236 255
221 236 255
222 236 255
221 236 255
221 236 255
221 236 255
221 236 255
221 236 255
221 236 255
221 236 255
221 236 255
221 236 255
221 236 255
221 236 255
221 236 255
221 236 255
221 236 255
221 236 255
221 236 255
222 236 255
221 236 255
221 236 255
221 236 255
221 236 255
221 236 255
221 236 255
221 236 255
221 236 255
222 236 255
221 236 255
221 236 255
222 236 255
221 236 255
221 236 255
221 236 255
221 236 255
221 236 255
221 236 255
222 236 255
221 236 255
221 236 255
221 236 255
221 236 255
221 236 255
221 236 255
221 236 255
221 236 255
221 236 255
221 236 255
221 236 255
221 236 255
221 236 255
221 236 255
221 236 255
222 236 255
221 236 255
221 236 255
221 236 255
221 236 255
222 236 255
221 236 255
221 236 255
221 236 255
222 236 255
221 236 255
221 236 255
221 236 255
221 236 255
221 236 255
221 236 255
221 236 255
221 236 255
222 236 255
221 236 255
221 236 255
222 236 255
221 236 255
221 236 255
221 236 255
222 236 255
221 236 255
221 236 255
221 236 255
221 236 255
221 236 255
221 236 255
221 236 255
221 236 255
221 236 255
222 236 255
221 236 255
221 236 255
221 236 255
222 236 255
222 236 255
221 236 255
222 236 255
221 236 255
221 236 255
222 236 255
221 236 255
222 236 255
221 236 255
221 236 255
221 236 255
221 236 255
221 236 255
221 236 255
222 236 255
221 236 255
221 236 255
221 236 255
221 236 255
221 236 255
221 236 255
221 236 255
221 236 255
221 236 255
221 236 255
221 236 255
221 236 255
221 236 255
221 236 255
221 236 255
222 236 255
221 236 255
221 236 255
221 236 255
221 236 255
222 236 255
221 236 255
221 236 255
221 236 255
221 236 255
221 236 255
221 236 255
221 236 255
221 236 255
221 236 255
221 236 255
221 236 255
221 236 255
221 236 255
221 236 255
221 236 255
221 236 255
221 236 255
222 236 255
221 236 255
221 236 255
221 236 255
221 236 255
221 236 255
221 236 255
221 236 255
221 236 255
221 236 255
221 236 255
221 236 255
222 236 255
221 236 255
221 236 255
221 236 255
221 236 255
221 236 255
221 236 255
221 236 255
221 236 255
221 236 255
222 236 255
222 236 255
221 236 255
221 236 255
221 236 255
222 236 255
222 236 255
221 236 255
221 236 255
221 236 255
221 236 255
221 236 255
221 236 255
222 236 255
221 236 255
221 236 255
221 236 255
222 236 255
221 236 255
221 236 255
221 236 255
222 236 255
221 236 255
221 236 255
221 236 255
221 236 255
221 236 255
221 236 255
221 236 255
221 236 255
221 236 255
221 236 255
221 236 255
221 236 255
221 236 255
222 236 255
221 236 255
222 236 255
221 236 255
222 236 255
221 236 255
221 236 255
222 236 255
222 236 255
221 236 255
222 236 255
221 236 255
221 236 255
222 236 255
222 236 255
221 236 255
221 236 255
221 236 255
221 236 255
222 236 255
221 236 255
221 236 255
221 236 255
222 236 255
221 236 255
222 236 255
221 236 255
222 236 255
221 236 255
222 236 255
221 236 255
222 236 255
221 236 255
221 236 255
222 236 255
221 236 255
222 236 255
221 236 255
221 236 255
222 236 255
221 236 255
221 236 255
221 236 255
221 236 255
221 236 255
221 236 255
221 236 255
221 236 255
221 236 255
221 236 255
221 236 255
221 236 255
222 236 255
222 236 255
222 236 255
222 236 255
221 236 255
221 236 255
221 236 255
221 236 255
221 236 255
221 236 255
222 236 255
221 236 255
221 236 255
222 236 255
222 236 255
221 236 255
221 236 255
221 236 255
221 236 255
222 236 255
221 236 255
221 236 255
221 236 255
222 236 255
221 236 255
221 236 255
222 236 255
221 236 255
221 236 255
221 236 255
222 236 255
221 236 255
221 236 255
221 236 255
222 236 255
222 236 255
221 236 255
222 236 255
222 236 255
221 236 255
221 236 255
222 236 255
222 236 255
221 236 255
221 236 255
221 236 255
221 236 255
221 236 255
221 236 255
221 236 255
222 236 255
221 236 255
221 236 255
222 236 255
221 236 255
221 236 255
221 236 255
221 236 255
221 236 255
221 236 255
221 236 255
221 236 255
221 236 255
222 236 255
222 236 255
221 236 255
221 236 255
221 236 255
221 236 255
221 236 255
221 236 255
222 236 255
221 236 255
221 236 255
222 236 255
221 236 255
222 236 255
221 236 255
221 236 255
221 236 255
221 236 255
222 236 255
221 236 255
221 236 255
221 236 255
221 236 255
221 236 255
221 236 255
222 236 255
221 236 255
221 236 255
221 236 255
222 236 255
221 236 255
222 236 255
222 236 255
221 236 255
222 236 255
221 236 255
221 236 255
222 236 255
222 236 255
221 236 255
222 236 255
221 236 255
222 236 255
221 236 255
222 236 255
222 236 255
221 236 255
221 236 255
222 236 255
222 236 255
222 236 255
222 236 255
221 236 255
222 236 255
222 236 255
221 236 255
221 236 255
221 236 255
221 236 255
221 236 255
221 236 255
221 236 255
221 236 255
221 236 255
221 236 255
222 236 255
222 236 255
222 236 255
221 236 255
221 236 255
221 236 255
221 236 255
221 236 255
221 236 255
222 236 255
222 236 255
222 236 255
221 236 255
222 236 255
221 236 255
222 236 255
221 236 255
222 236 255
222 236 255
222 236 255
221 236 255
221 236 255
221 236 255
221 236 255
222 236 255
222 236 255
222 236 255
221 236 255
222 236 255
221 236 255
222 236 255
221 236 255
221 236 255
221 236 255
221 236 255
221 236 255
222 236 255
221 236 255
221 236 255
221 236 255
222 236 255
221 236 255
221 236 255
222 236 255
221 236 255
221 236 255
221 236 255
221 236 255
221 236 255
222 236 255
221 236 255
221 236 255
221 236 255
222 236 255
221 236 255
221 236 255
222 236 255
222 236 255
221 236 255
222 236 255
221 236 255
221 236 255
221 236 255
221 236 255
221 236 255
222 236 255
222 236 255
221 236 255
221 236 255
221 236 255
221 236 255
222 236 255
221 236 255
221 236 255
221 236 255
221 236 255
221 236 255
222 236 255
221 236 255
221 236 255
222 236 255
222 236 255
222 236 255
221 236 255
221 236 255
221 236 255
222 236 255
221 236 255
221 236 255
221 236 255
221 236 255
221 236 255
222 236 255
221 236 255
221 236 255
221 236 255
222 236 255
222 236 255
221 236 255
221 236 255
222 236 255
222 236 255
221 236 255
221 236 255
221 236 255
222 236 255
221 236 255
221 236 255
222 236 255
222 236 255
221 236 255
222 236 255
222 236 255
221 236 255
221 236 255
222 236 255
221 236 255
221 236 255
221 236 255
222 236 255
221 236 255
221 236 255
221 236 255
221 236 255
221 236 255
221 236 255
221 236 255
221 236 255
221 236 255
222 236 255
221 236 255
222 236 255
222 236 255
221 236 255
221 236 255
221 236 255
221 236 255
221 236 255
222 236 255
221 236 255
222 236 255
222 236 255
222 236 255
221 236 255
222 236 255
222 236 255
222 236 255
222 236 255
222 236 255
221 236 255
222 236 255
222 236 255
222 236 255
222 236 255
222 236 255
222 236 255
222 236 255
221 236 255
222 236 255
222 236 255
222 236 255
222 236 255
221 236 255
222 236 255
221 236 255
222 236 255
221 236 255
222 236 255
221 236 255
221 236 255
222 236 255
222 236 255
221 236 255
221 236 255
221 236 255
221 236 255
222 236 255
222 236 255
221 236 255
222 236 255
222 236 255
222 236 255
221 236 255
222 236 255
222 236 255
222 236 255
222 236 255
221 236 255
221 236 255
221 236 255
222 236 255
222 236 255
222 236 255
222 236 255
222 236 255
221 235 254
220 234 253
215 228 246
207 216 232
209 219 236
203 212 227
201 210 225
195 202 215
192 197 210
186 188 198
178 178 186
173 173 181
160 154 157
168 164 169
150 140 139
145 132 128
149 139 137
137 120 111
133 112 99
126 103 87
129 109 96
122 97 79
122 98 79
123 98 79
124 98 80
121 96 78
123 98 79
122 97 79
123 98 79
123 98 79
123 98 79
122 96 78
122 97 78
122 97 79
122 97 78
123 98 79
121 97 79
123 98 79
121 97 79
120 96 77
122 97 79
123 98 79
123 98 79
121 97 78
122 97 79
123 98 79
121 97 79
121 96 79
122 97 79
123 98 79
122 98 79
120 96 78
123 98 79
122 97 79
123 98 79
123 98 79
122 98 80
123 98 80
125 99 80
123 98 79
122 97 79
122 98 80
122 98 80
122 97 79
123 98 79
123 98 79
122 97 78
124 99 80
123 98 80
122 97 79
121 97 79
124 99 80
123 98 80
122 98 80
124 99 80
123 98 79
122 97 79
120 96 78
122 97 79
122 97 78
121 97 79
122 97 79
122 97 79
123 98 79
123 98 80
121 97 78
122 97 79
120 96 78
123 98 80
123 97 79
122 97 79
121 97 79
123 98 80
122 98 79
123 98 80
123 98 80
124 98 80
121 97 79
120 97 79
123 98 80
125 99 80
122 97 79
123 98 79
122 98 79
122 98 80
123 98 79
122 97 79
122 97 79
124 98 79
123 97 79
121 97 79
124 99 80
123 98 80
122 97 79
121 96 78
123 97 78
121 97 79
121 97 79
122 97 79
124 98 80
121 97 78
122 97 79
124 99 80
122 97 79
124 98 80
121 96 78
123 97 79
127 101 84
130 111 101
129 110 100
134 122 119
143 135 136
153 153 159
155 157 166
153 156 166
164 172 186
166 175 192
168 181 199
170 183 203
163 176 196
156 172 193
163 180 202
164 182 204
156 174 195
165 184 208
149 166 187
151 169 192
159 178 202
157 175 198
148 167 190
153 171 195
150 168 191
142 160 182
143 162 184
143 162 185
149 167 192
140 159 182
143 162 186
144 163 187
147 166 190
143 162 185
142 161 184
145 165 191
144 163 187
140 159 183
139 157 180
142 162 187
140 159 183
147 166 192
139 158 182
135 153 176
142 162 187
137 155 180
144 164 188
147 167 192
144 163 188
142 161 186
140 159 183
141 160 185
142 161 185
140 159 184
137 157 182
140 160 186
136 155 179
143 163 190
144 164 191
142 162 188
138 158 183
135 154 178
137 156 179
134 151 173
143 163 188
136 155 180
139 159 184
140 159 184
141 161 186
138 157 181
134 153 177
138 157 180
141 162 188
132 150 173
139 158 183
136 155 180
137 155 178
135 153 175
141 160 186
138 158 183
136 155 179
137 157 182
135 153 178
141 160 185
140 158 182
136 156 181
132 150 175
135 153 176
143 162 187
134 152 175
140 160 185
143 163 188
137 156 180
140 159 184
133 151 174
136 155 180
139 157 180
141 160 186
138 158 183
138 157 182
133 150 173
139 158 183
136 152 175
140 157 182
140 157 182
142 161 187
133 149 172
137 151 174
139 156 181
140 158 181
137 154 178
135 152 175
136 152 175
134 151 174
133 148 170
135 152 174
137 153 176
138 155 177
135 151 173
135 152 176
139 155 178
140 157 181
140 158 182
140 156 180
134 150 172
143 160 184
133 150 173
134 148 170
136 152 175
136 151 174
143 160 183
142 159 183
145 163 187
138 154 176
145 163 188
137 152 174
141 159 183
140 158 181
133 149 171
138 156 181
138 155 179
136 153 176
138 153 177
146 161 185
139 157 181
137 154 176
146 163 187
143 160 184
139 157 181
140 156 180
145 163 187
145 164 188
145 161 182
142 160 183
143 160 183
142 160 184
150 168 193
146 165 190
151 167 190
142 158 180
149 167 190
144 161 185
147 164 187
141 160 183
155 173 196
150 167 190
152 169 193
158 177 200
160 177 200
150 166 189
159 176 199
162 179 202
160 177 198
156 174 196
162 178 199
168 185 208
183 201 224
186 202 224
184 199 220
192 209 229
199 214 234
206 222 242
213 228 249
213 228 248
214 229 249
218 232 252
220 234 254
221 235 254
221 236 255
222 236 255
222 236 255
222 236 255
222 236 255
222 236 255
221 236 255
221 236 255
221 236 255
221 236 255
222 236 255
221 236 255
222 236 255
222 236 255
222 236 255
221 236 255
222 236 255
222 236 255
221 236 255
221 236 255
222 236 255
221 236 255
221 236 255
221 236 255
222 236 255
221 236 255
222 236 255
222 236 255
221 236 255
222 236 255
222 236 255
221 236 255
222 236 255
221 236 255
222 236 255
222 236 255
222 236 255
222 236 255
222 236 255
221 236 255
222 236 255
222 236 255
222 236 255
222 236 255
219 233 252
214 225 242
199 205 214
194 198 204
182 182 183
181 181 181
179 179 181
179 179 181
178 179 181
177 178 181
177 178 181
176 178 181
176 178 181
175 177 181
175 177 181
174 177 181
174 177 181
174 177 181
173 176 181
173 176 181
173 176 181
172 176 181
172 176 181
172 175 181
171 175 181
171 175 181
171 175 181
170 175 181
170 175 181
170 175 181
170 174 181
170 174 181
169 174 181
169 174 181
169 174 181
169 174 181
168 174 181
168 174 181
168 174 181
168 174 181
168 173 181
167 173 181
167 173 181
167 173 181
167 173 181
167 173 181
166 173 181
166 173 181
166 173 181
166 173 181
166 173 181
166 172 181
166 172 181
165 172 181
165 172 181
165 172 181
165 172 181
165 172 181
165 172 181
165 172 181
164 172 181
164 172 181
164 172 181
164 172 181
164 172 181
164 172 181
164 172 181
164 172 181
164 171 181
164 171 181
163 171 181
163 171 181
163 171 181
163 171 181
163 171 181
163 171 181
163 171 181
163 171 181
163 171 181
163 171 181
163 171 181
163 171 181
162 171 181
162 171 181
162 171 181
162 171 181
162 171 181
162 171 181
162 171 181
162 171 181
162 171 181
162 171 181
162 171 181
162 171 181
162 171 181
162 171 181
162 171 181
162 171 181
162 171 181
162 171 181
162 171 181
162 171 181
162 171 181
162 171 181
162 171 181
162 171 181
162 171 181
162 171 181
162 171 181
162 171 181
162 171 181
162 171 181
162 171 181
162 171 181
162 171 181
162 171 181
162 171 181
162 171 181
162 171 181
162 171 181
162 171 181
162 171 181
162 171 181
162 171 181
162 171 181
162 171 181
162 171 181
162 171 181
162 171 181
162 171 181
162 171 181
163 171 181
163 171 181
163 171 181
163 171 181
163 171 181
163 171 181
163 171 181
163 171 181
163 171 181
163 171 181
163 171 181
163 171 181
163 171 181
163 171 181
164 171 181
164 172 181
164 172 181
164 172 181
164 172 181
164 172 181
164 172 181
164 172 181
164 172 181
165 172 181
165 172 181
165 172 181
165 172 181
165 172 181
165 172 181
165 172 181
165 172 181
166 172 181
166 173 181
166 173 181
166 173 181
166 173 181
166 173 181
166 173 181
167 173 181
167 173 181
167 173 181
167 173 181
167 173 181
167 173 181
168 174 181
168 174 181
168 174 181
168 174 181
169 174 181
169 174 181
169 174 181
169 174 181
169 174 181
170 175 181
170 175 181
170 175 181
170 175 181
171 175 181
171 175 181
171 175 181
172 176 181
172 176 181
172 176 181
172 176 181
173 176 181
173 176 181
174 176 181
174 177 181
174 177 181
175 177 181
175 177 181
176 178 181
176 178 181
177 178 181
177 178 181
178 179 181
178 179 181
179 179 181
180 180 181
183 184 186
190 192 197
202 208 219
208 217 230
217 230 248
221 235 254
221 236 255
221 236 255
221 236 255
222 236 255
221 236 255
221 236 255
222 236 255
221 236 255
221 236 255
222 236 255
221 236 255
222 236 255
221 236 255
222 236 255
221 236 255
221 236 255
221 236 255
221 236 255
221 236 255
221 236 255
222 236 255
222 236 255
222 236 255
221 236 255
222 236 255
221 236 255
221 236 255
222 236 255
221 236 255
222 236 255
222 236 255
221 236 255
221 236 255
221 236 255
221 236 255
222 236 255
222 236 255
221 236 255
222 236 255
221 236 255
221 236 255
221 236 255
221 236 255
221 236 255
222 236 255
221 236 255
221 236 255
222 236 255
221 236 255
221 236 255
222 236 255
221 236 255
222 236 255
221 236 255
222 236 255
222 236 255
222 236 255
222 236 255
221 236 255
222 236 255
222 236 255
222 236 255
221 236 255
222 236 255
222 236 255
222 236 255
221 236 255
221 236 255
221 236 255
221 236 255
222 236 255
222 236 255
221 236 255
221 236 255
222 236 255
221 236 255
222 236 255
221 236 255
222 236 255
221 236 255
222 236 255
221 236 255
222 236 255
221 236 255
222 236 255
221 236 255
222 236 255
222 236 255
221 236 255
221 236 255
222 236 255
221 236 255
222 236 255
221 236 255
221 236 255
222 236 255
221 236 255
221 236 255
222 236 255
221 236 255
221 236 255
222 236 255
221 236 255
222 236 255
221 236 255
221 236 255
221 236 255
221 236 255
221 236 255
221 236 255
221 236 255
221 236 255
222 236 255
221 236 255
221 236 255
222 236 255
221 236 255
222 236 255
221 236 255
221 236 255
222 236 255
222 236 255
221 236 255
221 236 255
222 236 255
221 236 255
221 236 255
221 236 255
221 236 255
221 236 255
221 236 255
221 236 255
222 236 255
222 236 255
221 236 255
222 236 255
221 236 255
221 236 255
221 236 255
221 236 255
221 236 255
222 236 255
222 236 255
221 236 255
221 236 255
221 236 255
221 236 255
222 236 255
221 236 255
221 236 255
222 236 255
222 236 255
221 236 255
221 236 255
221 236 255
221 236 255
221 236 255
222 236 255
222 236 255
221 236 255
221 236 255
221 236 255
221 236 255
221 236 255
221 236 255
221 236 255
222 236 255
221 236 255
221 236 255
222 236 255
222 236 255
222 236 255
221 236 255
222 236 255
222 236 255
221 236 255
221 236 255
222 236 255
222 236 255
221 236 255
222 236 255
221 236 255
222 236 255
221 236 255
221 236 255
222 236 255
221 236 255
221 236 255
221 236 255
222 236 255
221 236 255
221 236 255
221 236 255
221 236 255
221 236 255
222 236 255
222 236 255
221 236 255
221 236 255
221 236 255
222 236 255
221 236 255
221 236 255
221 236 255
221 236 255
221 236 255
221 236 255
221 236 255
222 236 255
221 236 255
221 236 255
221 236 255
221 236 255
221 236 255
221 236 255
221 236 255
221 236 255
222 236 255
221 236 255
222 236 255
221 236 255
221 236 255
221 236 255
222 236 255
221 236 255
221 236 255
222 236 255
221 236 255
222 236 255
221 236 255
222 236 255
222 236 255
221 236 255
221 236 255
222 236 255
221 236 255
221 236 255
222 236 255
221 236 255
221 236 255
221 236 255
221 236 255
221 236 255
221 236 255
222 236 255
221 236 255
221 236 255
221 236 255
221 236 255
221 236 255
221 236 255
221 236 255
222 236 255
221 236 255
221 236 255
221 236 255
221 236 255
221 236 255
221 236 255
221 236 255
221 236 255
221 236 255
221 236 255
222 236 255
221 236 255
222 236 255
221 236 255
222 236 255
221 236 255
221 236 255
222 236 255
221 236 255
221 236 255
222 236 255
222 236 255
221 236 255
221 236 255
221 236 255
221 236 255
221 236 255
221 236 255
221 236 255
221 236 255
221 236 255
221 236 255
221 236 255
221 236 255
221 236 255
221 236 255
221 236 255
221 236 255
221 236 255
221 236 255
221 236 255
222 236 255
221 236 255
221 236 255
221 236 255
221 236 255
221 236 255
221 236 255
222 236 255
221 236 255
221 236 255
221 236 255
221 236 255
221 236 255
221 236 255
221 236 255
222 236 255
221 236 255
221 236 255
221 236 255
222 236 255
221 236 255
221 236 255
221 236 255
221 236 255
221 236 255
221 236 255
221 236 255
222 236 255
221 236 255
221 236 255
221 236 255
221 236 255
221 236 255
221 236 255
221 236 255
222 236 255
222 236 255
221 236 255
221 236 255
222 236 255
221 236 255
221 236 255
221 236 255
221 236 255
222 236 255
222 236 255
221 236 255
221 236 255
221 236 255
221 236 255
221 236 255
221 236 255
222 236 255
221 236 255
221 236 255
221 236 255
221 236 255
221 236 255
221 236 255
222 236 255
221 236 255
221 236 255
221 236 255
221 236 255
221 236 255
222 236 255
221 236 255
221 236 255
221 236 255
221 236 255
221 236 255
221 236 255
221 236 255
222 236 255
221 236 255
221 236 255
221 236 255
221 236 255
221 236 255
221 236 255
222 236 255
221 236 255
222 236 255
221 236 255
221 236 255
221 236 255
221 236 255
221 236 255
221 236 255
221 236 255
221 236 255
221 236 255
221 236 255
221 236 255
221 236 255
221 236 255
222 236 255
221 236 255
221 236 255
221 236 255
222 236 255
222 236 255
221 236 255
221 236 255
221 236 255
221 236 255
221 236 255
221 236 255
221 236 255
222 236 255
221 236 255
221 236 255
221 236 255
221 236 255
221 236 255
221 236 255
221 236 255
221 236 255
221 236 255
221 236 255
221 236 255
221 236 255
221 236 255
221 236 255
221 236 255
221 236 255
221 236 255
221 236 255
221 236 255
221 236 255
221 236 255
221 236 255
221 236 255
221 236 255
221 236 255
221 236 255
221 236 255
221 236 255
222 236 255
221 236 255
221 236 255
221 236 255
221 236 255
221 236 255
221 236 255
221 236 255
221 236 255
221 236 255
221 236 255
221 236 255
221 236 255
221 236 255
