P3
1600 1
255
135 50 22
135 50 22
134 50 22
136 50 22
132 48 21
133 49 22
136 50 22
137 50 22
131 48 21
133 49 22
131 48 21
138 50 22
131 48 21
135 49 22
133 50 22
136 50 22
137 50 22
135 50 22
134 50 22
134 49 22
137 50 22
132 49 21
130 48 21
134 49 22
135 49 22
135 50 22
132 48 22
134 50 22
128 48 21
127 47 21
131 48 21
133 49 21
133 49 22
133 49 22
136 50 22
130 48 21
136 50 22
132 49 22
131 48 21
136 50 22
135 50 22
137 50 22
134 50 22
135 49 22
133 49 22
132 49 22
137 50 22
137 50 22
133 49 22
131 48 21
131 49 22
138 51 23
132 49 22
134 50 22
131 48 21
130 48 21
137 51 22
139 51 23
131 48 21
134 49 22
136 50 22
134 50 22
132 49 22
127 47 21
132 49 22
137 51 22
130 48 21
131 48 21
129 48 21
133 49 22
137 50 22
137 51 23
131 48 21
136 50 22
135 50 22
137 50 22
130 48 21
130 48 21
128 47 21
134 49 22
135 50 22
131 48 21
131 48 21
132 48 22
134 50 22
125 46 21
130 48 21
132 49 22
132 48 21
131 48 21
128 47 21
131 48 21
130 48 21
129 47 21
131 48 21
130 48 21
128 48 21
129 48 21
131 48 22
126 47 21
127 47 21
123 46 20
129 47 21
124 46 20
132 49 22
128 47 21
124 46 20
128 47 21
126 46 21
129 47 21
125 46 21
122 45 20
130 48 21
125 46 20
129 47 21
120 44 20
122 45 20
126 47 21
126 46 21
121 44 20
126 46 21
127 47 21
117 43 19
123 45 20
127 47 21
123 45 20
120 44 20
124 45 20
125 46 21
119 43 19
125 46 21
122 48 27
127 57 45
126 60 52
121 66 62
121 70 67
126 72 71
127 92 100
123 103 115
129 103 114
125 99 108
126 113 128
130 125 142
129 130 149
129 127 146
131 135 155
129 138 160
132 141 162
128 143 166
134 151 174
132 150 174
130 147 170
134 153 178
135 151 174
131 148 171
135 152 176
135 152 175
132 150 174
132 149 173
131 148 171
131 148 172
133 151 176
131 147 171
132 150 174
133 150 173
134 151 176
134 152 177
132 148 171
133 152 176
131 149 172
131 150 173
132 148 172
132 150 174
134 152 176
135 152 176
131 149 172
131 150 174
131 148 171
131 148 172
135 153 177
133 150 175
135 153 177
133 151 175
133 150 173
134 151 175
135 154 178
133 151 176
134 152 176
128 144 167
131 148 171
133 149 172
131 148 172
134 153 177
131 149 173
132 150 174
130 148 172
133 152 177
135 153 176
134 152 177
134 152 175
131 148 171
133 149 172
132 147 170
135 149 172
132 148 172
135 150 173
133 146 169
136 152 176
135 148 170
141 157 180
140 155 178
131 147 172
134 148 172
135 152 175
138 153 175
140 156 180
130 145 170
139 155 182
139 153 177
143 161 184
137 153 178
141 158 182
138 156 183
142 157 180
142 160 185
134 150 174
142 161 187
137 155 182
143 161 190
138 155 178
141 159 186
134 151 179
141 159 184
141 158 183
132 149 173
134 151 175
135 152 175
138 155 181
136 152 177
136 153 178
138 154 177
135 152 178
139 158 183
134 149 174
137 155 179
136 153 177
132 149 175
140 158 184
137 155 181
136 153 177
136 153 177
135 152 177
134 151 176
135 154 180
136 152 175
132 149 174
140 159 184
134 151 175
134 150 173
134 150 173
134 150 175
131 148 172
136 154 179
133 151 175
133 151 176
137 154 177
135 152 176
134 151 173
137 155 179
135 153 178
132 148 171
135 153 178
137 156 180
137 154 179
133 151 174
133 151 175
138 156 181
133 151 175
136 156 181
136 154 178
139 157 181
134 152 176
135 152 176
140 157 181
134 150 174
136 153 177
138 155 179
131 148 172
133 151 176
138 158 184
134 151 175
138 156 180
137 153 178
136 154 177
144 162 187
138 156 180
138 155 179
136 154 178
134 151 176
143 162 188
135 151 175
139 157 182
144 163 187
143 162 188
135 151 176
138 154 178
140 156 181
137 153 177
137 155 179
136 154 177
136 154 178
135 155 179
135 151 176
136 153 178
135 152 175
133 149 173
135 153 177
135 153 178
135 153 177
137 154 179
134 152 176
136 155 178
136 154 178
132 150 173
132 149 173
134 150 174
130 149 172
131 149 172
132 149 172
134 152 176
133 151 173
136 155 178
134 149 172
135 154 178
133 149 171
135 153 177
133 149 171
132 149 172
134 152 175
131 147 170
133 151 174
135 152 176
126 142 164
137 153 176
135 152 176
133 149 171
135 152 174
135 152 175
136 153 176
131 146 168
134 150 172
133 150 172
135 150 172
132 149 170
138 154 176
135 153 175
130 144 166
135 150 172
132 145 165
135 151 174
128 142 163
126 141 165
129 142 163
126 142 165
130 148 172
127 144 166
125 140 162
128 143 164
127 144 167
122 138 160
125 137 158
127 144 167
124 139 162
125 138 162
127 141 164
125 142 166
134 151 174
125 142 166
129 145 168
128 144 167
130 147 170
127 143 166
129 145 169
129 147 171
126 142 167
130 148 171
130 147 171
132 150 174
129 147 170
131 149 173
132 150 174
132 149 174
132 151 176
126 144 168
126 145 169
130 149 173
131 148 172
133 151 176
131 149 173
130 148 173
130 148 172
128 146 172
133 151 175
132 150 175
131 148 172
130 147 172
131 149 174
130 148 173
129 147 171
131 149 173
130 148 172
131 149 173
130 147 173
130 148 173
133 152 176
127 144 168
130 148 172
127 145 170
133 152 176
131 149 174
129 146 170
127 144 169
126 143 166
128 146 171
134 152 177
130 148 173
128 146 171
129 146 171
134 152 176
130 148 172
130 148 172
136 154 178
127 144 167
124 142 166
130 147 171
132 150 174
126 143 167
130 148 174
130 148 171
129 146 170
132 149 174
129 146 170
135 153 177
131 149 174
131 149 174
128 144 168
131 148 173
131 148 172
133 151 175
123 140 164
132 149 173
131 148 172
130 148 173
130 147 172
133 151 176
130 149 172
122 139 164
134 152 176
129 147 172
129 147 171
131 149 172
129 146 171
130 148 172
130 148 171
124 141 165
129 145 169
130 148 173
132 149 174
132 150 174
129 146 170
130 148 172
127 144 169
126 143 168
129 147 171
129 146 170
127 144 168
126 144 169
125 143 166
128 145 168
128 145 169
129 146 169
130 147 170
131 149 174
130 148 173
127 144 167
128 145 169
132 150 175
130 148 173
128 145 169
129 147 171
129 147 171
129 146 170
124 142 167
130 148 173
130 147 171
128 145 168
129 147 172
131 149 173
127 144 167
130 147 171
129 146 171
128 146 169
129 147 171
129 146 169
128 145 169
127 144 167
129 146 170
129 146 170
128 145 170
127 144 168
132 151 177
127 144 168
129 146 171
121 139 163
127 144 168
131 150 174
129 148 172
133 151 175
130 147 171
131 149 174
129 147 171
128 145 169
131 148 172
128 146 170
128 145 169
128 145 168
128 145 169
123 141 165
130 148 172
131 149 174
127 146 170
123 141 165
122 139 164
125 143 166
130 149 174
126 143 167
126 143 167
132 150 175
129 147 171
128 146 170
132 151 175
130 147 171
126 144 168
127 143 167
131 150 174
130 148 173
127 145 169
131 148 173
128 146 170
130 148 173
133 149 173
126 144 168
127 144 168
127 144 169
128 146 171
129 146 170
132 149 173
130 148 172
127 144 168
125 142 166
130 148 172
133 151 175
130 148 172
129 147 170
131 149 173
130 148 173
127 144 168
128 146 171
131 149 172
125 144 169
129 146 171
129 148 172
129 148 172
127 143 167
127 145 169
130 148 172
131 150 174
130 148 173
128 145 170
129 145 169
126 142 167
128 145 170
127 145 169
126 143 167
130 147 171
131 148 171
126 143 168
129 146 170
130 147 171
128 146 170
132 150 174
131 149 174
130 148 173
132 149 173
131 149 174
134 152 175
128 146 170
129 146 170
130 148 172
130 148 171
132 149 173
132 149 173
131 149 172
127 144 168
131 150 174
130 147 171
129 146 171
132 149 173
129 147 171
132 150 174
126 145 170
128 146 170
131 150 174
133 151 175
129 147 171
130 149 173
131 150 175
130 147 172
130 148 172
129 146 171
132 151 174
131 149 173
131 149 173
131 149 172
132 150 175
131 148 172
129 147 171
127 145 169
126 144 168
131 149 174
130 147 171
133 151 175
132 150 174
130 148 173
131 150 174
133 151 175
130 147 171
132 150 174
134 153 176
135 154 178
131 149 173
128 147 171
132 150 174
130 148 171
129 146 171
131 149 174
129 147 170
129 147 171
134 152 177
134 153 178
129 146 170
133 151 174
133 152 176
129 146 170
133 151 174
129 148 171
130 148 171
133 151 176
134 153 178
131 148 171
129 147 170
130 146 169
133 151 175
132 151 175
131 149 173
130 148 171
132 150 174
133 151 175
133 151 176
130 147 171
131 149 173
134 152 176
129 147 170
132 151 175
132 150 174
134 152 176
129 148 172
131 150 174
131 149 173
131 149 172
133 152 177
134 151 174
130 149 173
132 151 174
132 149 174
133 152 176
133 152 176
133 150 173
133 151 175
133 151 175
132 150 174
129 147 170
133 152 176
133 151 176
133 152 176
132 150 175
131 149 172
131 148 171
133 152 176
133 151 175
134 152 176
133 152 175
130 149 173
132 151 173
133 152 176
133 152 176
133 152 177
133 152 177
133 151 175
133 152 177
133 150 174
135 154 179
133 151 175
135 153 177
135 153 177
132 149 172
135 153 177
135 153 178
133 150 174
134 152 175
133 151 176
134 152 175
129 147 170
133 152 176
131 149 172
133 152 175
135 153 177
129 148 171
134 152 177
131 149 174
132 149 171
131 149 173
131 149 174
133 151 175
132 151 175
134 153 177
133 152 175
133 152 175
132 150 173
131 148 172
132 150 174
134 152 175
134 151 176
135 154 179
133 152 176
130 147 169
135 152 176
134 152 175
132 150 174
133 151 175
134 152 176
132 151 174
135 153 177
134 151 174
133 151 174
136 154 178
133 151 176
135 153 178
132 151 175
136 155 179
132 150 173
133 152 176
132 150 173
132 149 174
135 153 177
132 151 176
132 152 177
134 152 176
136 155 178
131 149 173
136 153 175
133 152 177
131 149 171
132 149 173
132 150 174
134 152 176
133 150 174
132 150 173
130 149 173
133 151 175
130 149 173
131 149 172
133 150 173
133 151 175
133 151 175
130 148 171
133 152 176
131 150 172
132 149 174
134 152 176
132 150 174
131 149 173
134 151 174
131 150 173
131 149 172
130 147 171
133 151 175
133 151 176
134 152 177
132 151 174
132 150 173
133 151 173
132 151 175
134 151 176
130 148 172
133 151 175
135 153 177
132 150 174
133 150 174
136 153 177
133 151 174
131 148 171
130 147 171
132 149 172
134 152 175
132 149 171
133 150 173
134 152 176
134 152 176
132 151 174
130 148 171
132 151 175
133 151 175
130 148 172
134 153 177
133 151 175
135 153 177
131 150 174
131 150 174
133 152 175
135 153 177
133 151 175
135 153 176
130 148 171
129 148 171
130 149 173
134 153 177
135 153 177
133 151 174
133 151 173
132 151 175
133 151 174
132 151 176
132 151 176
135 154 178
134 151 174
133 151 175
134 153 176
130 147 170
134 152 175
133 151 175
131 150 175
133 151 174
135 153 177
134 151 175
131 150 174
132 150 174
133 152 176
133 151 174
133 152 176
134 154 178
132 150 172
131 149 173
132 149 174
132 151 174
131 150 172
130 148 172
134 151 173
132 150 173
132 149 172
132 150 173
131 147 170
130 147 170
131 150 174
131 149 173
135 153 178
133 152 176
132 150 173
128 147 169
130 149 171
130 148 171
130 148 170
133 151 175
133 152 175
130 149 170
135 153 177
131 149 173
128 147 171
134 151 174
132 150 175
131 149 172
133 151 172
133 151 175
132 151 175
132 150 174
133 153 176
127 145 167
134 153 176
131 148 171
133 152 175
133 151 176
131 149 172
132 150 174
129 145 167
133 150 172
131 149 173
133 152 176
131 148 169
132 151 174
130 148 170
134 152 175
129 147 169
131 149 172
131 149 171
132 150 173
135 153 176
133 151 175
136 154 178
133 151 174
126 144 166
132 150 174
131 149 173
132 151 173
132 150 174
132 150 174
130 149 172
129 148 171
132 151 174
130 148 171
129 147 170
131 149 172
130 147 168
131 148 172
132 150 173
132 151 174
132 152 176
133 151 175
132 149 172
130 147 170
125 141 162
134 153 177
133 151 175
133 151 174
131 149 171
131 150 173
131 147 170
129 146 169
131 148 173
130 147 169
128 145 167
131 148 170
132 150 172
128 146 169
129 146 168
133 151 174
130 147 170
130 148 170
131 148 171
131 148 170
131 149 172
131 149 173
130 147 169
133 151 174
132 149 172
133 150 174
131 149 172
130 148 171
130 148 172
130 149 173
132 148 171
131 150 173
128 146 169
133 152 175
133 152 175
127 144 166
132 150 173
128 146 169
131 149 171
129 146 169
131 148 172
132 148 172
130 147 170
131 149 170
128 145 167
128 145 166
131 150 173
130 148 170
131 150 174
128 145 167
130 148 170
124 142 163
128 145 168
126 143 165
131 148 171
129 147 169
128 145 169
132 151 175
126 143 165
132 150 173
131 148 171
127 145 168
131 148 170
126 143 166
126 143 166
131 148 173
129 146 168
124 142 164
125 147 166
118 143 156
124 146 164
120 145 160
115 144 154
113 143 150
101 133 134
95 134 128
97 136 130
102 140 135
99 140 133
77 131 108
83 131 113
71 127 99
69 132 97
61 132 90
53 128 82
44 127 75
24 122 56
32 125 57
21 120 50
14 124 52
7 130 54
6 121 51
7 127 53
7 127 53
7 127 53
7 127 53
7 127 54
6 123 52
7 126 53
7 128 54
6 126 53
7 129 54
7 126 53
7 129 54
6 125 53
7 127 54
6 124 52
7 128 54
7 128 54
7 128 54
6 125 53
7 128 55
7 126 53
7 126 53
7 127 54
7 128 54
6 122 52
7 126 53
7 129 55
6 124 53
7 126 53
6 126 53
6 124 53
7 129 54
7 126 53
7 130 55
7 131 55
7 127 54
7 130 54
6 125 53
7 128 54
6 123 52
7 130 55
7 128 54
7 131 55
7 128 54
6 125 53
6 126 53
7 129 55
7 129 54
7 130 54
7 128 54
6 127 54
7 134 56
7 131 55
7 128 54
7 132 56
7 128 54
7 132 55
7 132 56
7 129 55
7 129 54
7 129 54
7 132 55
7 133 56
6 122 52
7 132 55
7 133 56
7 129 54
6 125 53
7 130 55
7 128 54
7 129 55
7 130 55
6 124 52
7 128 54
7 126 53
7 131 55
7 130 54
6 126 53
7 132 55
7 129 54
7 130 55
7 131 55
7 131 55
7 129 54
7 127 53
7 128 54
7 130 55
7 128 54
7 133 55
7 132 55
7 132 55
7 130 54
7 132 55
6 126 53
7 129 55
7 130 54
7 128 54
7 129 54
7 133 56
7 132 56
7 128 53
7 128 53
7 129 54
7 131 54
7 130 54
6 127 53
7 130 55
7 133 55
7 127 53
7 128 54
6 126 53
7 131 55
7 134 56
7 132 55
7 129 54
7 131 55
7 130 54
6 127 53
6 128 53
7 128 54
6 125 52
6 126 53
7 132 55
7 134 56
7 132 55
6 126 52
7 129 54
7 129 53
6 124 52
7 130 54
7 131 55
7 129 53
6 125 52
6 125 52
7 128 53
7 128 54
7 130 54
7 129 54
6 126 52
6 126 52
6 128 52
7 130 54
13 129 53
24 129 52
20 125 51
21 125 50
30 126 51
44 130 52
40 126 50
45 123 48
47 122 48
46 121 47
59 124 48
61 123 46
68 119 44
68 121 45
73 116 58
63 107 50
67 105 45
60 104 54
70 103 59
67 99 50
67 97 54
68 87 54
75 88 70
74 86 68
75 86 70
72 80 71
62 65 61
56 58 53
72 77 70
57 54 64
58 57 67
56 50 62
58 53 64
52 43 56
65 59 72
63 62 71
51 43 54
59 51 65
60 54 67
63 59 71
57 55 63
61 54 66
57 54 65
67 64 76
53 48 59
56 50 62
61 57 68
64 62 74
64 57 71
61 57 67
65 61 74
63 59 72
62 55 69
69 70 82
64 59 72
67 63 76
68 67 79
61 57 69
68 62 77
64 61 73
70 72 84
76 76 90
66 62 76
76 77 91
68 67 81
68 71 81
75 76 89
76 80 94
83 86 100
79 82 96
81 81 97
81 86 100
81 85 98
79 83 98
94 103 118
94 105 120
90 94 110
80 85 99
85 92 108
88 94 108
101 111 128
93 100 114
94 102 119
99 106 123
89 95 110
98 108 126
95 104 120
103 112 131
102 113 130
103 113 131
101 111 127
100 109 129
101 112 130
101 112 128
101 109 127
107 117 136
104 116 134
106 116 134
102 110 128
107 119 139
107 119 138
109 121 140
101 110 129
112 124 144
108 117 137
107 120 140
103 113 132
111 124 144
100 111 129
104 116 134
112 125 144
113 126 146
111 122 142
112 124 144
113 125 145
112 123 143
109 122 140
108 120 139
114 127 148
116 129 149
107 118 138
115 129 150
114 129 148
118 131 151
117 131 152
111 124 142
111 123 142
116 131 151
117 131 152
115 130 149
111 125 146
120 135 157
121 136 158
115 128 150
116 130 150
114 126 146
117 130 152
116 130 151
121 137 158
119 134 155
125 141 164
124 139 162
118 133 152
117 131 151
122 137 159
121 135 156
122 137 161
119 134 156
123 138 161
119 134 155
121 138 159
123 137 160
119 132 154
120 134 156
125 141 163
123 138 160
123 138 160
122 136 159
125 139 162
117 131 153
121 136 158
123 138 161
117 133 154
121 136 157
121 137 161
123 141 163
119 135 156
125 142 165
123 139 162
126 141 164
121 135 157
126 142 165
123 140 163
124 140 163
123 138 159
119 134 155
124 138 160
120 137 159
123 140 160
126 142 165
126 140 163
120 136 158
128 146 168
124 140 163
125 141 163
128 144 168
127 143 166
128 143 166
126 142 165
125 141 165
129 145 168
124 141 163
125 141 165
127 144 166
124 140 162
123 140 161
126 147 163
121 143 158
121 142 158
118 146 154
120 146 157
120 148 156
109 140 141
109 147 142
113 146 144
111 146 144
106 154 136
101 145 128
98 148 123
104 153 135
101 146 130
94 149 118
91 153 111
90 152 112
83 152 100
81 151 98
82 150 99
81 152 95
77 150 92
76 158 89
71 153 82
73 157 85
73 159 83
77 163 88
66 154 74
68 158 75
68 159 74
68 161 75
70 164 76
67 159 74
69 161 75
66 157 72
66 157 73
67 158 74
68 160 75
68 160 74
68 160 75
68 161 75
69 162 75
68 160 75
68 161 76
69 162 76
67 158 74
68 161 75
70 164 76
67 159 73
69 162 75
69 163 76
69 162 75
68 160 74
68 161 75
68 160 75
70 163 76
69 160 75
68 160 74
69 163 76
68 161 75
69 161 75
70 164 76
70 164 76
68 159 74
68 159 74
70 162 76
68 161 75
70 164 77
69 163 76
67 159 74
69 161 76
70 164 77
70 164 77
69 163 76
68 162 76
69 162 75
70 164 77
67 158 74
69 162 76
70 164 77
69 163 76
68 161 75
70 164 77
69 163 76
69 162 76
70 165 77
70 164 77
69 161 75
69 162 76
68 161 75
69 162 76
68 159 74
70 164 76
68 162 76
69 163 76
69 164 77
70 165 77
70 164 77
70 164 76
70 165 77
69 164 77
69 162 76
70 165 77
70 164 77
70 164 76
71 166 76
70 164 77
71 165 77
69 162 76
69 164 77
69 162 76
69 163 76
69 162 75
70 163 76
68 161 75
69 163 76
69 163 76
69 161 75
69 162 76
69 161 75
69 162 75
70 163 76
70 163 76
70 165 77
69 164 76
69 162 76
68 160 75
68 159 75
70 164 76
69 162 75
70 163 76
68 162 76
68 160 74
70 164 76
70 164 76
69 162 75
69 159 78
69 160 76
73 163 83
74 161 83
77 159 89
81 160 94
76 160 88
78 159 92
83 154 99
85 155 105
89 158 110
88 156 108
85 159 102
94 155 116
99 160 124
102 158 130
102 154 128
100 155 127
102 157 128
106 154 135
113 155 147
105 150 133
119 152 155
109 146 139
117 150 152
120 153 155
121 149 158
122 153 159
118 146 152
120 146 157
129 151 170
129 150 169
129 151 170
132 150 174
132 151 175
133 150 173
133 151 176
129 146 168
132 148 172
133 150 174
132 148 173
132 148 171
133 150 174
129 147 170
133 149 173
131 151 175
128 146 168
126 144 167
130 148 171
132 149 173
128 144 168
131 149 172
126 145 166
134 152 175
130 150 172
133 151 175
130 150 172
130 146 169
133 152 176
130 147 170
133 150 173
133 150 173
128 144 169
132 148 171
129 148 170
130 148 171
130 148 172
131 150 173
131 150 173
131 150 173
131 149 172
130 149 172
133 151 176
130 144 168
131 149 174
130 149 172
129 147 170
132 149 173
130 150 171
133 152 175
127 144 165
129 144 168
134 153 177
131 147 171
131 149 173
128 145 168
131 149 172
131 148 170
127 145 168
132 152 175
129 149 172
130 148 170
127 146 168
128 146 171
