P3
1600 1
255
222 236 255
221 236 255
222 236 255
221 236 255
221 236 255
221 236 255
221 236 255
221 236 255
222 236 255
221 236 255
221 236 255
221 236 255
221 236 255
222 236 255
222 236 255
222 236 255
221 236 255
221 236 255
221 236 255
222 236 255
222 236 255
222 236 255
222 236 255
222 236 255
221 236 255
221 236 255
221 236 255
221 236 255
222 236 255
221 236 255
221 236 255
222 236 255
221 236 255
221 236 255
221 236 255
222 236 255
221 236 255
222 236 255
222 236 255
221 236 255
222 236 255
222 236 255
222 236 255
222 236 255
222 236 255
221 236 255
221 236 255
222 236 255
222 236 255
222 236 255
222 236 255
221 236 255
222 236 255
222 236 255
222 236 255
221 236 255
222 236 255
222 236 255
222 236 255
222 236 255
222 236 255
221 236 255
221 236 255
222 236 255
222 236 255
221 236 255
221 236 255
222 236 255
221 236 255
221 236 255
221 236 255
222 236 255
222 236 255
222 236 255
221 236 255
222 236 255
221 236 255
222 236 255
221 236 255
222 236 255
222 236 255
222 236 255
222 236 255
222 236 255
222 236 255
222 236 255
221 236 255
221 236 255
222 236 255
222 236 255
221 236 255
222 236 255
221 236 255
222 236 255
222 236 255
222 236 255
222 236 255
222 236 255
222 236 255
222 236 255
222 236 255
222 236 255
222 236 255
221 236 255
222 236 255
222 236 255
222 236 255
221 236 255
222 236 255
222 236 255
222 236 255
222 236 255
221 236 255
221 236 255
222 236 255
222 236 255
222 236 255
222 236 255
222 236 255
221 236 255
222 236 255
222 236 255
221 236 255
222 236 255
222 236 255
221 236 255
222 236 255
222 236 255
221 236 255
222 236 255
222 236 255
222 236 255
222 236 255
222 236 255
221 236 255
221 236 255
222 236 255
222 236 255
222 236 255
221 236 255
222 236 255
222 236 255
222 236 255
221 236 255
221 236 255
222 236 255
222 236 255
222 236 255
221 236 255
222 236 255
222 236 255
222 236 255
221 236 255
221 236 255
222 236 255
221 236 255
221 236 255
222 236 255
222 236 255
222 236 255
221 236 255
221 236 255
222 236 255
221 236 255
222 236 255
222 236 255
222 236 255
222 236 255
222 236 255
222 236 255
222 236 255
221 236 255
221 236 255
222 236 255
222 236 255
222 236 255
222 236 255
222 236 255
222 236 255
222 236 255
222 236 255
221 236 255
222 236 255
221 236 255
221 236 255
222 236 255
222 236 255
221 236 255
222 236 255
221 236 255
222 236 255
222 236 255
221 236 255
222 236 255
221 236 255
222 236 255
222 236 255
222 236 255
221 236 255
222 236 255
222 236 255
222 236 255
221 236 255
222 236 255
222 236 255
221 236 255
222 236 255
222 236 255
222 236 255
221 236 255
221 236 255
222 236 255
222 236 255
222 236 255
222 236 255
222 236 255
222 236 255
222 236 255
222 236 255
222 236 255
222 236 255
221 236 255
222 236 255
222 236 255
221 236 255
222 236 255
222 236 255
222 236 255
222 236 255
222 236 255
222 236 255
222 236 255
222 236 255
222 236 255
222 236 255
222 236 255
222 236 255
221 236 255
222 236 255
222 236 255
222 236 255
222 236 255
221 236 255
222 236 255
222 236 255
221 236 255
222 236 255
222 236 255
221 236 255
222 236 255
222 236 255
222 236 255
221 236 255
222 236 255
222 236 255
222 236 255
222 236 255
222 236 255
222 236 255
222 236 255
222 236 255
222 236 255
222 236 255
221 236 255
221 236 255
222 236 255
222 236 255
222 236 255
222 236 255
222 236 255
222 236 255
222 236 255
221 236 255
222 236 255
222 236 255
222 236 255
222 236 255
222 236 255
221 236 255
222 236 255
222 236 255
222 236 255
222 236 255
222 236 255
222 236 255
222 236 255
222 236 255
222 236 255
222 236 255
222 236 255
222 236 255
222 236 255
221 236 255
222 236 255
222 236 255
221 236 255
222 236 255
222 236 255
222 236 255
222 236 255
222 236 255
222 236 255
221 236 255
222 236 255
222 236 255
222 236 255
222 236 255
221 236 255
222 236 255
222 236 255
222 236 255
222 236 255
222 236 255
222 236 255
222 236 255
222 236 255
222 236 255
222 236 255
222 236 255
222 236 255
222 236 255
222 236 255
222 236 255
222 236 255
221 236 255
222 236 255
222 236 255
222 236 255
221 236 255
222 236 255
222 236 255
222 236 255
222 236 255
221 236 255
222 236 255
222 236 255
222 236 255
222 236 255
222 236 255
222 236 255
222 236 255
222 236 255
222 236 255
222 236 255
222 236 255
222 236 255
222 236 255
222 236 255
222 236 255
222 236 255
222 236 255
222 236 255
222 236 255
222 236 255
222 236 255
222 236 255
222 236 255
222 236 255
222 236 255
222 236 255
221 236 255
222 236 255
222 236 255
222 236 255
222 236 255
222 236 255
222 236 255
222 236 255
222 236 255
222 236 255
222 236 255
221 236 255
222 236 255
222 236 255
222 236 255
222 236 255
222 236 255
222 236 255
222 236 255
222 236 255
222 236 255
222 236 255
221 236 255
221 236 255
222 236 255
222 236 255
222 236 255
222 236 255
222 236 255
222 236 255
222 236 255
222 236 255
222 236 255
222 236 255
222 236 255
222 236 255
222 236 255
222 236 255
222 236 255
222 236 255
222 236 255
222 236 255
222 236 255
222 236 255
222 236 255
222 236 255
222 236 255
222 236 255
222 236 255
222 236 255
222 236 255
222 236 255
222 236 255
222 236 255
222 236 255
222 236 255
222 236 255
222 236 255
222 236 255
221 236 255
222 236 255
222 236 255
222 236 255
221 236 255
222 236 255
222 236 255
222 236 255
222 236 255
222 236 255
222 236 255
222 236 255
222 236 255
221 236 255
222 236 255
222 236 255
222 236 255
221 236 255
222 236 255
222 236 255
221 236 255
222 236 255
222 236 255
222 236 255
222 236 255
222 236 255
222 236 255
221 236 255
222 236 255
222 236 255
222 236 255
222 236 255
221 236 255
221 236 255
222 236 255
222 236 255
222 236 255
222 236 255
222 236 255
222 236 255
222 236 255
222 236 255
222 236 255
221 236 255
222 236 255
222 236 255
222 236 255
222 236 255
222 236 255
222 236 255
221 236 255
222 236 255
222 236 255
222 236 255
222 236 255
222 236 255
222 236 255
222 236 255
221 236 255
222 236 255
221 236 255
222 236 255
222 236 255
222 236 255
222 236 255
222 236 255
222 236 255
222 236 255
222 236 255
222 236 255
222 236 255
222 236 255
222 236 255
222 236 255
222 236 255
222 236 255
222 236 255
222 236 255
222 236 255
222 236 255
222 236 255
222 236 255
222 236 255
222 236 255
222 236 255
222 236 255
222 236 255
222 236 255
222 236 255
222 236 255
222 236 255
222 236 255
222 236 255
222 236 255
222 236 255
222 236 255
222 236 255
222 236 255
222 236 255
221 236 255
222 236 255
221 236 255
222 236 255
222 236 255
222 236 255
222 236 255
222 236 255
222 236 255
222 236 255
222 236 255
222 236 255
222 236 255
222 236 255
222 236 255
221 236 255
222 236 255
222 236 255
222 236 255
222 236 255
222 236 255
222 236 255
222 236 255
222 236 255
222 236 255
222 236 255
222 236 255
222 236 255
222 236 255
222 236 255
222 236 255
222 236 255
222 236 255
222 236 255
222 236 255
222 236 255
222 236 255
222 236 255
222 236 255
222 236 255
222 236 255
222 236 255
222 236 255
222 236 255
222 236 255
222 236 255
222 236 255
222 236 255
222 236 255
222 236 255
222 236 255
222 236 255
222 236 255
222 236 255
222 236 255
222 236 255
222 236 255
222 236 255
222 236 255
221 235 254
218 232 251
215 228 246
216 229 247
210 221 238
201 210 226
194 199 211
196 203 217
190 196 208
194 200 213
183 185 195
180 181 189
165 161 166
149 140 139
158 151 153
139 122 113
143 130 125
138 123 115
135 116 106
131 107 93
125 101 83
121 96 78
121 97 79
123 98 80
124 98 79
123 98 79
123 97 79
123 98 79
121 96 78
123 98 80
122 97 79
122 98 79
122 97 79
121 97 78
123 98 80
122 97 79
122 97 79
121 97 79
123 98 80
121 97 79
122 97 78
120 96 78
124 99 80
124 98 79
122 97 78
122 97 79
122 98 79
121 96 78
120 96 79
122 97 79
122 97 79
123 98 79
120 96 78
123 98 79
122 98 80
122 97 78
122 97 79
121 97 79
122 97 79
125 99 80
124 99 80
121 95 77
122 97 79
121 98 80
122 97 79
123 98 80
122 97 79
123 97 79
123 98 80
124 98 80
123 98 80
120 96 78
124 98 79
122 97 79
122 98 79
123 98 79
122 97 79
121 97 79
121 97 79
122 97 79
122 97 79
121 97 79
121 96 78
122 97 79
123 97 78
122 97 79
122 97 79
122 97 79
120 96 78
123 98 80
121 97 78
120 96 79
121 96 78
124 99 80
122 98 80
122 97 79
124 99 80
124 98 79
120 96 78
121 97 80
122 98 80
124 98 80
121 97 79
121 96 78
120 96 78
122 98 80
121 97 79
121 97 78
124 99 80
122 97 78
124 98 79
122 97 79
125 99 80
122 98 79
119 96 78
121 96 78
123 97 79
119 96 79
122 97 79
123 97 79
124 98 79
120 96 78
122 98 80
124 99 80
122 97 79
124 99 80
120 96 78
124 98 79
130 111 100
133 118 112
135 122 117
139 130 131
154 153 159
154 156 166
150 151 160
161 167 180
163 171 185
159 168 184
169 184 205
164 179 200
159 176 197
164 182 203
162 180 203
166 185 209
155 172 194
154 172 195
155 172 194
153 172 195
153 172 195
156 175 198
148 167 191
153 171 195
140 158 180
142 160 182
140 159 182
142 161 184
143 162 186
151 171 197
135 152 176
147 166 190
139 156 179
141 160 183
145 165 191
142 161 185
146 165 189
143 162 186
141 160 183
143 162 186
147 167 193
140 159 183
139 157 181
141 159 184
142 161 188
141 160 185
145 165 190
141 161 186
140 160 184
141 160 184
138 157 182
139 156 179
142 161 186
134 152 177
140 161 187
139 159 184
141 160 186
140 159 184
140 160 185
139 159 185
142 162 187
135 153 177
132 149 173
141 160 185
140 160 186
137 155 179
137 156 181
137 156 180
138 157 182
136 154 179
138 157 180
140 159 183
136 155 180
137 156 181
138 157 182
136 154 178
137 154 177
142 161 187
135 153 177
140 161 187
137 156 181
135 153 177
135 154 177
140 159 185
137 155 179
134 152 178
136 155 179
137 154 179
141 160 185
136 155 180
140 160 187
140 160 184
137 157 181
137 155 179
132 150 174
141 160 184
139 159 183
131 149 171
141 162 188
134 151 175
136 154 179
136 155 179
137 155 179
137 154 179
140 159 185
139 157 181
132 148 171
140 156 180
138 155 179
136 153 177
141 156 179
134 149 172
140 159 184
135 151 174
133 149 171
133 148 171
136 152 176
136 151 173
134 151 175
135 150 172
138 154 178
139 157 182
142 159 183
138 154 177
133 148 169
136 152 174
134 149 171
133 149 171
137 152 175
139 156 179
142 158 181
146 166 192
140 155 178
138 156 180
143 162 188
136 153 175
140 159 184
133 149 171
139 156 179
139 159 185
139 156 179
133 149 171
142 159 183
141 159 184
140 158 182
142 159 182
142 160 184
144 161 184
143 162 188
133 149 171
144 161 186
145 162 185
146 163 186
140 157 180
142 159 182
142 158 182
143 160 183
141 160 182
147 162 185
143 160 183
145 163 186
143 160 183
148 165 188
141 158 180
148 165 190
140 156 177
146 162 185
156 174 198
154 170 192
140 156 179
149 165 187
155 172 196
158 176 199
155 173 196
151 167 187
160 177 200
168 184 207
166 183 206
179 197 219
173 190 212
181 199 219
187 203 222
199 215 236
202 218 239
205 220 241
210 226 246
215 230 250
213 227 248
217 232 252
221 236 255
221 236 255
222 236 255
222 236 255
222 236 255
222 236 255
222 236 255
222 236 255
222 236 255
222 236 255
222 236 255
222 236 255
222 236 255
222 236 255
222 236 255
221 236 255
222 236 255
222 236 255
222 236 255
222 236 255
222 236 255
222 236 255
222 236 255
222 236 255
222 236 255
222 236 255
222 236 255
221 236 255
222 236 255
222 236 255
222 236 255
222 236 255
222 236 255
222 236 255
222 236 255
222 236 255
222 236 255
222 236 255
222 236 255
222 236 255
222 236 255
222 236 255
220 234 253
207 216 228
197 203 211
190 193 199
184 184 187
180 180 181
179 179 181
178 179 181
178 178 181
177 178 181
176 178 181
176 178 181
175 177 181
175 177 181
175 177 181
174 177 181
174 177 181
173 176 181
173 176 181
173 176 181
172 176 181
172 176 181
172 176 181
171 175 181
171 175 181
171 175 181
171 175 181
170 175 181
170 175 181
170 175 181
170 174 181
169 174 181
169 174 181
169 174 181
169 174 181
168 174 181
168 174 181
168 174 181
168 173 181
167 173 181
167 173 181
167 173 181
167 173 181
167 173 181
167 173 181
166 173 181
166 173 181
166 173 181
166 173 181
166 172 181
166 172 181
165 172 181
165 172 181
165 172 181
165 172 181
165 172 181
165 172 181
165 172 181
164 172 181
164 172 181
164 172 181
164 172 181
164 172 181
164 172 181
164 172 181
164 171 181
164 171 181
163 171 181
163 171 181
163 171 181
163 171 181
163 171 181
163 171 181
163 171 181
163 171 181
163 171 181
163 171 181
163 171 181
162 171 181
162 171 181
162 171 181
162 171 181
162 171 181
162 171 181
162 171 181
162 171 181
162 171 181
162 171 181
162 171 181
162 171 181
162 171 181
162 171 181
162 171 181
162 171 181
162 171 181
162 171 181
162 170 181
162 170 181
161 170 181
161 170 181
161 170 181
161 170 181
161 170 181
161 170 181
161 170 181
161 170 181
161 170 181
161 170 181
161 170 181
161 170 181
161 170 181
161 170 181
161 170 181
161 170 181
161 170 181
161 170 181
161 170 181
161 170 181
162 170 181
162 170 181
162 170 181
162 170 181
162 171 181
162 171 181
162 171 181
162 171 181
162 171 181
162 171 181
162 171 181
162 171 181
162 171 181
162 171 181
162 171 181
162 171 181
162 171 181
162 171 181
162 171 181
162 171 181
162 171 181
162 171 181
162 171 181
163 171 181
163 171 181
163 171 181
163 171 181
163 171 181
163 171 181
163 171 181
163 171 181
163 171 181
163 171 181
163 171 181
164 171 181
164 171 181
164 172 181
164 172 181
164 172 181
164 172 181
164 172 181
164 172 181
165 172 181
165 172 181
165 172 181
165 172 181
165 172 181
165 172 181
165 172 181
165 172 181
166 172 181
166 173 181
166 173 181
166 173 181
166 173 181
166 173 181
167 173 181
167 173 181
167 173 181
167 173 181
167 173 181
167 173 181
168 174 181
168 174 181
168 174 181
168 174 181
168 174 181
169 174 181
169 174 181
169 174 181
170 174 181
170 175 181
170 175 181
170 175 181
171 175 181
171 175 181
171 175 181
171 175 181
172 176 181
172 176 181
172 176 181
173 176 181
173 176 181
173 176 181
174 177 181
174 177 181
175 177 181
175 177 181
175 177 181
176 178 181
176 178 181
177 178 181
177 178 181
178 179 181
179 179 181
180 180 181
182 183 184
186 188 191
197 203 211
207 216 229
217 229 246
220 233 252
221 235 255
222 236 255
221 236 255
222 236 255
222 236 255
222 236 255
222 236 255
222 236 255
222 236 255
222 236 255
222 236 255
222 236 255
222 236 255
222 236 255
222 236 255
222 236 255
221 236 255
222 236 255
222 236 255
222 236 255
222 236 255
222 236 255
222 236 255
222 236 255
221 236 255
222 236 255
222 236 255
222 236 255
222 236 255
222 236 255
222 236 255
222 236 255
222 236 255
222 236 255
222 236 255
222 236 255
222 236 255
222 236 255
222 236 255
222 236 255
222 236 255
222 236 255
222 236 255
222 236 255
222 236 255
221 236 255
222 236 255
222 236 255
222 236 255
222 236 255
222 236 255
222 236 255
222 236 255
222 236 255
221 236 255
222 236 255
222 236 255
221 236 255
222 236 255
221 236 255
222 236 255
222 236 255
222 236 255
222 236 255
222 236 255
222 236 255
222 236 255
222 236 255
222 236 255
222 236 255
221 236 255
221 236 255
222 236 255
222 236 255
222 236 255
222 236 255
222 236 255
222 236 255
222 236 255
222 236 255
222 236 255
222 236 255
222 236 255
222 236 255
222 236 255
222 236 255
222 236 255
222 236 255
222 236 255
221 236 255
222 236 255
222 236 255
222 236 255
222 236 255
222 236 255
222 236 255
222 236 255
222 236 255
222 236 255
222 236 255
222 236 255
222 236 255
222 236 255
222 236 255
222 236 255
222 236 255
222 236 255
221 236 255
222 236 255
221 236 255
222 236 255
222 236 255
222 236 255
222 236 255
222 236 255
222 236 255
222 236 255
222 236 255
222 236 255
222 236 255
222 236 255
222 236 255
222 236 255
222 236 255
222 236 255
221 236 255
221 236 255
222 236 255
222 236 255
222 236 255
221 236 255
222 236 255
222 236 255
222 236 255
221 236 255
222 236 255
222 236 255
221 236 255
222 236 255
222 236 255
222 236 255
222 236 255
222 236 255
222 236 255
222 236 255
222 236 255
222 236 255
222 236 255
222 236 255
222 236 255
222 236 255
222 236 255
222 236 255
222 236 255
222 236 255
222 236 255
222 236 255
222 236 255
222 236 255
222 236 255
222 236 255
222 236 255
222 236 255
222 236 255
222 236 255
221 236 255
221 236 255
221 236 255
222 236 255
222 236 255
222 236 255
222 236 255
221 236 255
222 236 255
222 236 255
222 236 255
222 236 255
222 236 255
222 236 255
222 236 255
222 236 255
221 236 255
222 236 255
222 236 255
222 236 255
222 236 255
222 236 255
222 236 255
222 236 255
222 236 255
222 236 255
222 236 255
222 236 255
222 236 255
222 236 255
222 236 255
222 236 255
222 236 255
222 236 255
222 236 255
222 236 255
221 236 255
222 236 255
222 236 255
222 236 255
222 236 255
222 236 255
222 236 255
222 236 255
222 236 255
222 236 255
222 236 255
222 236 255
222 236 255
222 236 255
222 236 255
221 236 255
222 236 255
221 236 255
222 236 255
222 236 255
222 236 255
222 236 255
222 236 255
222 236 255
221 236 255
222 236 255
221 236 255
222 236 255
222 236 255
222 236 255
222 236 255
222 236 255
222 236 255
222 236 255
221 236 255
222 236 255
222 236 255
222 236 255
222 236 255
221 236 255
222 236 255
222 236 255
222 236 255
222 236 255
221 236 255
221 236 255
222 236 255
221 236 255
221 236 255
222 236 255
221 236 255
222 236 255
222 236 255
222 236 255
222 236 255
222 236 255
222 236 255
221 236 255
222 236 255
222 236 255
221 236 255
222 236 255
222 236 255
222 236 255
222 236 255
222 236 255
221 236 255
222 236 255
222 236 255
222 236 255
222 236 255
222 236 255
222 236 255
221 236 255
222 236 255
222 236 255
221 236 255
222 236 255
222 236 255
222 236 255
221 236 255
222 236 255
222 236 255
222 236 255
222 236 255
222 236 255
222 236 255
222 236 255
222 236 255
222 236 255
221 236 255
222 236 255
222 236 255
222 236 255
222 236 255
221 236 255
222 236 255
222 236 255
221 236 255
222 236 255
221 236 255
222 236 255
221 236 255
222 236 255
222 236 255
222 236 255
222 236 255
222 236 255
222 236 255
221 236 255
222 236 255
222 236 255
222 236 255
221 236 255
221 236 255
222 236 255
222 236 255
222 236 255
222 236 255
222 236 255
222 236 255
221 236 255
222 236 255
222 236 255
222 236 255
222 236 255
222 236 255
222 236 255
222 236 255
222 236 255
222 236 255
222 236 255
222 236 255
222 236 255
221 236 255
221 236 255
222 236 255
222 236 255
221 236 255
221 236 255
222 236 255
222 236 255
222 236 255
221 236 255
222 236 255
222 236 255
221 236 255
222 236 255
222 236 255
222 236 255
221 236 255
221 236 255
222 236 255
222 236 255
221 236 255
222 236 255
222 236 255
222 236 255
222 236 255
221 236 255
222 236 255
222 236 255
222 236 255
222 236 255
222 236 255
222 236 255
222 236 255
222 236 255
222 236 255
221 236 255
222 236 255
222 236 255
222 236 255
222 236 255
222 236 255
222 236 255
222 236 255
221 236 255
222 236 255
222 236 255
222 236 255
222 236 255
222 236 255
222 236 255
222 236 255
221 236 255
222 236 255
221 236 255
222 236 255
222 236 255
222 236 255
221 236 255
221 236 255
222 236 255
222 236 255
222 236 255
222 236 255
221 236 255
222 236 255
222 236 255
222 236 255
222 236 255
222 236 255
221 236 255
222 236 255
222 236 255
222 236 255
222 236 255
222 236 255
222 236 255
222 236 255
222 236 255
222 236 255
221 236 255
221 236 255
222 236 255
222 236 255
222 236 255
221 236 255
222 236 255
222 236 255
222 236 255
221 236 255
221 236 255
222 236 255
222 236 255
222 236 255
221 236 255
222 236 255
221 236 255
221 236 255
222 236 255
221 236 255
222 236 255
222 236 255
222 236 255
221 236 255
221 236 255
221 236 255
221 236 255
222 236 255
221 236 255
222 236 255
