P3
1600 1
255
127 47 21
132 49 22
129 48 21
130 48 21
123 45 20
138 51 22
137 51 23
127 47 21
133 49 22
128 47 21
130 48 22
132 49 22
132 48 21
133 50 22
133 49 22
135 49 22
135 50 22
131 48 21
129 48 21
133 49 22
131 49 21
133 49 21
132 49 21
130 48 21
133 49 22
132 49 21
134 49 22
131 48 21
121 45 20
130 48 21
132 48 21
133 49 22
130 48 21
134 49 22
133 49 22
131 48 21
136 50 22
128 47 21
134 49 22
126 47 21
133 49 22
131 48 21
132 49 21
130 48 21
130 47 21
135 49 22
133 49 22
127 47 21
130 48 21
132 49 21
128 47 21
130 48 21
134 49 22
123 46 20
135 49 22
133 49 22
130 48 21
136 50 22
136 50 22
129 47 21
132 48 22
128 47 21
132 48 21
132 49 22
131 48 21
128 47 21
124 46 21
129 47 21
129 48 21
135 50 22
132 49 22
128 47 21
136 50 22
135 49 22
131 48 22
129 48 21
134 49 22
130 48 21
131 48 21
130 48 21
130 48 21
126 47 21
131 48 21
123 46 20
131 48 21
125 46 20
131 48 21
129 48 21
130 47 21
126 46 21
118 44 19
131 48 21
127 46 21
131 48 21
128 47 21
124 47 20
125 46 21
126 46 21
125 46 21
127 46 20
127 47 21
131 48 21
127 46 21
122 45 20
126 46 21
128 47 21
121 45 20
125 46 21
116 42 19
129 48 21
126 46 21
126 46 21
123 45 20
126 46 21
125 46 21
117 43 19
125 46 21
126 46 20
127 46 21
124 45 20
122 44 20
127 46 21
120 43 20
120 43 20
125 46 20
119 44 20
121 44 20
115 42 19
125 46 20
118 44 20
123 45 20
117 45 26
123 59 50
126 58 48
118 77 80
124 85 90
124 76 77
124 87 93
121 95 103
123 106 119
129 110 122
128 113 126
130 121 137
131 126 143
128 133 154
133 141 161
127 139 161
132 146 169
133 145 168
132 146 169
133 151 175
134 151 175
129 144 168
134 152 176
133 152 177
130 147 171
132 149 173
134 152 176
132 148 172
129 147 171
134 151 175
132 151 176
133 151 175
132 149 172
132 149 173
131 148 171
131 149 171
130 146 169
131 148 172
135 152 176
135 152 177
130 148 171
130 148 171
132 151 174
130 147 172
136 154 179
131 149 172
134 153 177
132 150 174
132 148 172
135 153 178
134 152 177
131 148 172
131 149 173
131 147 171
131 148 171
130 147 171
132 149 173
130 148 172
134 151 176
132 149 174
132 149 173
135 151 175
135 153 177
133 151 174
131 148 172
133 149 172
131 148 172
133 147 169
137 152 174
133 149 173
132 143 165
134 149 172
131 146 169
135 150 173
139 150 172
137 153 176
140 149 171
136 149 172
137 153 177
142 155 178
138 151 175
140 152 174
144 154 176
138 149 170
141 153 176
140 154 177
140 155 178
139 156 179
140 156 181
146 162 185
145 160 184
137 154 179
144 161 184
142 159 183
139 155 178
140 157 182
139 157 182
140 157 183
137 154 178
131 148 174
137 154 178
135 152 175
138 154 181
134 151 176
142 159 185
134 150 174
132 150 174
138 154 179
139 157 182
136 153 177
132 148 172
137 155 182
142 160 186
138 156 181
132 148 172
135 152 176
135 152 179
135 154 179
132 147 171
130 147 171
135 153 180
137 156 183
134 151 174
132 149 176
133 149 174
134 151 175
137 155 182
133 149 173
131 149 175
133 150 176
134 151 175
133 151 176
132 148 172
135 153 177
133 150 175
131 147 172
138 157 182
134 152 175
133 150 173
133 151 175
135 152 178
135 153 177
135 153 177
135 153 176
135 153 177
132 148 171
137 155 179
138 155 178
135 152 175
134 152 176
136 154 179
133 150 174
138 155 178
134 153 178
139 156 180
139 157 181
137 155 180
138 154 178
140 157 181
137 156 180
139 157 182
139 157 181
138 155 178
145 163 187
139 155 179
137 154 178
144 163 188
142 161 185
137 155 180
137 154 177
141 159 184
137 153 176
137 154 178
143 161 185
139 156 180
139 158 185
140 157 182
138 155 178
134 152 176
137 153 178
137 155 179
135 153 179
135 153 178
136 156 180
132 151 176
135 152 175
136 154 178
133 151 175
130 148 170
134 153 178
132 150 173
129 145 167
135 153 178
135 153 177
131 149 172
134 150 174
136 154 179
136 155 179
131 147 171
137 155 178
132 148 171
133 150 173
128 145 167
131 147 169
133 151 173
133 151 174
132 150 172
134 150 174
135 151 173
134 150 173
133 151 174
132 150 173
137 154 177
131 147 170
131 147 169
134 152 174
132 148 170
131 148 170
135 152 175
137 155 177
137 153 176
132 149 171
135 150 171
135 152 174
132 148 171
130 145 165
132 147 169
135 150 172
127 141 161
133 149 171
130 146 167
135 151 173
139 154 176
135 152 173
128 145 165
138 153 174
131 147 169
127 141 164
123 134 154
127 142 163
131 144 165
125 140 162
131 145 167
130 145 169
128 144 167
127 141 164
130 143 165
131 146 168
123 136 158
130 146 168
127 144 167
124 139 160
128 142 165
128 145 167
128 145 167
126 142 166
126 141 164
127 142 166
131 148 171
134 153 178
130 148 172
134 152 176
130 148 172
133 151 176
135 154 178
132 151 175
133 151 176
131 148 172
135 153 178
131 149 174
131 149 173
133 151 176
131 149 174
131 149 174
130 148 173
133 151 175
132 150 174
130 147 171
131 149 174
129 147 173
133 152 176
131 149 174
131 148 171
132 150 174
128 145 168
130 148 173
131 150 174
132 150 175
129 147 171
132 150 175
136 155 179
131 148 173
133 151 175
134 152 176
126 143 166
128 145 168
132 150 174
134 152 176
132 150 174
132 150 175
127 144 169
130 148 171
132 150 174
130 147 171
133 151 175
133 151 175
132 150 175
132 150 175
133 152 177
130 148 172
131 150 175
134 152 176
132 150 174
133 151 176
131 149 174
130 148 173
132 150 174
134 152 176
131 148 172
125 142 168
135 153 177
131 150 175
134 152 175
131 150 174
131 148 171
132 150 174
131 149 173
127 145 170
131 148 172
133 151 175
133 152 177
135 153 177
132 150 175
129 147 171
131 149 173
129 147 171
128 147 172
130 148 172
132 150 174
129 148 172
128 146 170
132 150 173
130 147 172
131 149 173
131 148 172
132 150 173
131 149 174
130 147 171
132 150 173
129 146 170
131 149 174
130 148 173
130 148 173
129 147 170
131 149 173
133 151 175
125 142 166
131 149 173
129 147 172
131 149 173
130 148 172
133 150 174
128 145 167
132 149 174
132 150 173
130 148 173
130 148 172
130 148 172
131 149 173
128 145 169
134 153 177
130 147 172
129 146 171
128 145 169
131 149 174
132 149 174
131 150 175
128 145 171
130 148 173
129 146 171
133 153 178
135 153 178
132 150 174
132 149 173
130 148 172
130 147 171
130 148 171
133 151 175
130 148 171
131 148 172
131 148 172
133 150 174
126 144 168
131 149 174
132 150 174
132 150 174
126 144 168
131 149 173
127 145 169
128 145 170
130 148 174
129 146 170
133 152 176
133 151 175
131 149 174
131 150 175
135 153 177
130 148 172
131 149 173
132 150 173
131 150 175
134 152 176
126 144 168
134 151 175
126 143 167
132 150 174
133 151 175
133 151 176
128 145 169
130 148 173
129 147 171
132 150 173
131 149 173
132 150 175
131 149 173
128 147 172
128 145 168
132 150 175
133 151 175
129 146 171
133 151 174
131 150 174
128 146 171
130 148 172
132 150 173
130 148 173
131 149 173
131 150 173
132 150 174
129 147 171
130 147 169
129 147 172
130 147 171
130 150 175
128 146 171
131 149 173
129 146 171
132 150 174
127 146 170
129 146 170
132 149 173
131 147 171
132 150 174
126 144 169
129 145 169
131 149 173
131 149 174
132 150 174
132 151 175
132 150 175
135 153 176
132 150 174
136 153 176
131 148 172
130 147 171
134 152 177
134 152 176
131 149 173
134 152 177
132 149 171
130 148 171
131 149 174
130 148 172
131 150 175
131 148 172
133 150 174
132 150 175
133 150 174
129 147 172
130 148 172
132 150 175
131 149 173
129 147 171
130 148 173
133 151 175
131 149 174
131 149 174
129 146 170
132 151 174
134 152 177
132 150 174
131 150 174
131 149 172
132 150 174
131 150 174
129 147 171
128 146 170
133 152 177
133 151 175
131 149 174
133 152 176
130 148 172
132 151 175
131 149 174
129 147 170
133 150 174
135 153 177
133 151 175
133 151 175
131 149 173
132 151 175
131 149 173
132 150 174
131 148 173
133 151 175
132 149 172
132 150 175
135 154 179
132 151 175
133 151 176
134 152 175
129 147 171
134 153 176
131 150 173
129 147 170
134 153 178
134 152 177
133 150 174
131 149 172
131 150 173
130 148 172
134 152 177
132 150 173
132 149 172
132 151 175
131 149 173
133 151 175
132 151 175
132 151 174
133 151 176
133 151 175
133 152 176
131 150 174
132 149 173
134 152 176
130 148 173
132 150 175
134 152 177
129 147 170
134 153 178
134 151 175
130 148 172
131 150 174
135 153 178
133 152 176
131 148 173
134 152 176
131 148 171
134 151 175
133 151 174
130 148 172
133 152 176
132 151 175
135 154 178
133 152 175
133 151 175
133 151 175
132 151 175
132 151 174
133 150 175
134 152 175
133 152 175
132 151 173
137 154 178
135 154 178
135 153 177
135 154 179
132 150 175
135 153 177
133 152 175
135 154 179
133 151 175
135 153 177
135 154 178
130 147 171
135 153 177
134 153 178
133 151 175
135 154 177
133 151 176
133 151 175
129 148 172
134 151 175
134 152 176
130 148 170
135 153 178
134 152 176
132 151 176
131 150 174
132 151 175
131 149 172
133 152 177
132 150 174
133 151 175
132 151 175
135 154 178
135 154 177
133 152 175
132 150 174
133 151 173
135 153 176
133 151 176
133 151 176
133 152 176
133 151 175
133 151 175
133 149 172
130 147 171
135 154 178
132 150 173
133 150 174
132 150 175
135 153 177
133 150 173
135 152 176
134 152 177
135 153 177
134 152 177
133 152 176
136 155 179
134 151 174
132 150 174
132 151 175
133 151 176
133 151 175
131 150 175
131 150 175
135 153 177
135 154 178
131 149 173
136 153 175
134 153 177
131 149 172
131 149 173
132 151 175
135 153 177
131 148 171
132 150 172
131 149 174
132 150 174
131 149 174
134 152 176
134 152 175
131 148 172
131 149 173
132 150 174
132 151 175
133 151 173
130 148 172
134 152 177
135 153 177
133 151 174
134 152 176
132 150 173
132 149 173
133 151 176
133 150 174
134 153 177
134 152 177
132 151 175
133 151 174
132 150 174
131 150 174
133 151 174
133 151 174
134 152 175
136 153 177
134 152 176
135 153 177
135 153 176
134 153 177
132 150 173
130 148 171
131 149 172
133 150 175
133 151 174
134 151 173
134 152 177
134 152 175
133 151 175
132 149 172
131 149 173
131 150 172
132 150 174
134 153 176
133 151 175
135 154 178
135 153 178
133 153 176
134 152 176
133 152 176
133 151 176
134 151 175
131 149 173
133 150 174
130 149 173
133 152 175
133 151 175
132 151 174
132 151 175
133 151 175
135 153 177
130 149 173
130 149 173
134 152 176
132 149 172
132 150 173
135 153 176
133 151 174
132 151 173
134 153 176
130 149 173
134 152 176
135 154 177
133 150 173
132 150 174
135 153 177
132 150 174
135 154 178
131 150 174
133 152 177
132 150 172
131 149 173
132 150 174
131 149 173
132 150 173
133 151 176
131 148 170
133 151 174
132 150 174
134 152 175
130 148 169
132 149 172
128 146 169
132 150 174
135 153 178
133 151 173
132 149 173
128 147 170
130 148 170
132 150 173
130 149 171
132 150 174
134 152 176
132 150 172
134 151 174
132 150 173
132 150 174
131 149 174
132 149 172
131 151 174
130 149 171
132 150 173
133 151 175
128 146 170
134 153 178
129 147 169
133 152 176
131 149 170
135 153 176
133 153 177
132 151 175
131 149 172
132 150 172
129 145 166
132 149 172
132 151 174
132 151 175
129 147 168
128 145 168
134 151 174
129 147 171
128 146 167
133 151 174
133 151 175
129 147 169
135 153 176
133 151 175
132 150 173
128 146 169
131 148 170
130 148 172
133 151 173
131 148 171
130 148 171
131 150 173
130 147 170
130 149 173
130 148 172
129 146 169
131 148 171
129 147 169
130 146 168
132 150 174
129 147 169
131 150 174
132 150 173
130 146 168
130 148 170
126 143 163
133 151 174
130 149 172
132 150 175
130 148 171
130 149 172
130 147 169
127 144 166
132 148 172
128 145 166
129 146 169
133 150 172
133 151 175
131 148 171
130 149 172
133 150 173
130 147 169
129 147 169
133 151 174
127 144 167
133 151 174
128 147 170
132 149 172
132 150 173
132 149 171
132 150 172
128 146 168
128 146 168
127 144 168
130 148 171
131 148 171
130 149 172
128 145 168
133 151 174
130 148 171
129 146 168
130 147 170
131 149 171
130 147 170
131 149 172
131 149 172
128 145 167
127 144 165
131 149 171
126 143 165
131 149 172
128 146 169
130 148 172
126 144 167
128 145 168
131 149 172
128 145 168
124 141 163
129 147 169
130 147 171
126 142 164
131 150 174
128 145 168
129 147 169
131 148 171
130 148 171
127 144 165
125 143 163
125 145 165
125 144 164
125 148 166
120 138 157
115 145 153
112 143 150
112 142 149
106 140 144
93 139 129
102 137 136
91 134 123
80 130 112
89 137 122
79 135 112
83 135 117
76 129 107
65 128 95
53 129 81
37 121 67
34 125 67
25 124 60
24 122 59
6 125 52
6 126 53
6 121 51
6 122 52
7 126 53
6 124 52
6 124 52
6 124 52
6 121 51
6 122 52
6 122 52
6 123 52
7 127 53
6 124 52
6 124 53
7 126 54
7 127 54
7 126 53
6 124 52
6 124 52
6 125 53
7 128 54
6 122 51
7 125 53
7 128 54
6 124 53
7 125 53
7 125 53
7 128 54
6 123 52
6 124 53
6 122 51
7 128 54
6 120 51
7 127 54
6 124 52
6 125 53
7 126 53
7 126 53
7 127 53
6 124 52
7 130 54
6 120 51
7 125 53
6 124 53
7 125 53
7 127 53
7 128 54
7 127 54
6 124 52
7 128 54
7 129 54
7 127 54
7 128 54
6 126 53
7 128 54
7 129 54
6 125 52
7 127 53
7 130 55
7 130 55
7 127 53
7 129 55
7 127 53
7 125 53
7 127 53
7 130 55
6 124 52
7 128 54
7 134 56
7 132 55
6 125 53
6 126 52
7 126 53
7 129 54
7 130 54
6 122 52
6 127 53
7 129 55
6 125 53
7 127 53
7 126 53
7 127 53
6 124 52
7 129 54
7 128 53
7 128 54
7 129 54
7 127 54
6 124 52
6 125 52
7 129 54
7 130 54
7 130 55
7 129 54
6 125 53
7 127 54
7 129 54
7 129 54
6 128 53
7 127 53
7 127 53
7 131 55
7 127 53
7 128 53
6 127 53
6 125 52
7 129 54
6 126 53
6 125 53
7 130 54
7 127 53
6 127 53
6 126 53
6 126 53
7 128 54
7 132 55
6 127 53
7 131 54
7 129 54
6 125 52
6 125 52
7 126 53
6 125 52
6 127 53
7 130 55
7 133 55
7 131 54
6 127 53
7 129 54
7 130 54
6 123 52
7 128 54
7 129 54
6 126 52
6 123 51
7 130 54
6 125 51
6 128 53
7 128 53
7 129 54
6 126 52
6 126 52
6 123 50
7 129 54
6 127 52
7 129 53
6 125 52
6 125 51
7 128 53
6 126 52
6 126 52
6 123 50
13 122 50
19 130 53
25 127 52
27 122 48
34 118 48
35 122 50
43 119 53
45 119 54
48 116 55
40 109 49
58 120 72
52 106 63
57 114 65
51 104 65
54 97 60
70 103 79
62 90 66
80 103 91
72 83 85
69 93 82
63 79 72
74 86 86
70 79 85
71 78 80
72 79 85
60 63 71
65 70 78
63 66 73
66 71 78
53 55 60
68 71 80
66 70 78
64 66 74
76 81 92
68 72 81
55 60 63
62 64 72
65 69 76
71 76 85
68 69 79
78 83 94
63 66 74
70 74 83
83 89 100
73 78 89
79 85 94
62 64 73
69 74 81
67 70 79
61 65 73
70 75 86
72 75 86
73 79 89
72 78 87
86 90 101
65 69 80
76 81 92
78 82 92
81 87 99
74 76 90
79 86 97
81 89 102
74 80 89
82 89 101
78 82 95
77 79 93
65 71 79
87 92 106
83 87 102
80 85 98
80 84 97
86 92 106
94 101 116
87 94 108
92 101 115
82 89 103
84 91 105
87 95 109
89 96 109
93 97 114
93 101 115
95 104 120
95 103 118
91 94 110
90 100 114
92 102 117
91 100 116
86 95 109
97 107 122
99 109 126
94 103 119
97 106 122
99 107 125
101 110 127
96 106 123
98 110 127
97 106 123
97 108 126
105 118 135
108 121 138
106 117 134
102 114 131
107 118 137
107 120 138
105 117 134
114 127 148
104 114 133
100 109 127
110 125 142
112 125 145
110 122 141
103 115 133
108 120 139
108 120 138
107 120 137
107 120 139
111 124 144
109 121 141
122 136 158
109 122 142
119 133 154
114 127 146
114 128 149
105 119 137
117 130 151
118 131 151
113 127 147
119 133 154
114 127 147
116 130 152
113 128 149
113 128 149
119 134 156
118 132 153
114 127 149
116 131 152
121 135 157
119 135 156
121 136 157
122 137 159
126 141 164
120 133 155
112 123 144
119 134 153
120 135 156
112 125 147
110 124 145
123 139 160
120 134 155
119 135 157
117 131 152
121 137 160
124 140 163
124 141 163
123 136 158
126 141 164
119 133 155
122 138 159
117 132 154
125 139 162
124 140 162
121 135 157
121 138 158
126 142 164
123 140 161
121 134 157
125 141 163
125 142 165
122 139 162
120 136 158
119 134 155
121 137 159
127 144 167
124 139 161
125 142 164
125 141 163
124 141 163
122 136 159
122 138 160
123 141 163
125 142 165
125 142 165
127 144 166
124 143 164
125 142 162
127 147 167
123 142 160
118 143 155
115 142 150
121 142 157
115 144 148
114 146 148
110 143 141
105 142 133
114 151 147
100 148 124
100 143 128
99 144 128
91 144 112
95 152 118
92 148 115
96 152 122
78 148 95
81 148 100
83 159 100
80 153 94
75 149 88
75 152 89
74 158 85
71 145 84
66 152 73
66 156 72
64 152 70
66 156 72
65 154 71
67 157 72
66 156 71
65 154 70
67 158 73
66 156 73
65 155 71
69 161 75
65 155 72
66 157 72
67 158 74
69 161 75
68 161 75
65 154 71
67 157 73
68 159 74
69 163 76
67 157 74
67 159 74
70 164 76
67 157 73
66 156 73
69 161 75
70 163 76
68 161 75
69 161 75
69 161 75
67 158 74
67 160 74
68 160 75
70 164 76
68 159 74
69 162 75
67 158 74
67 157 73
67 158 73
67 158 74
67 158 74
70 163 76
69 161 76
69 162 75
69 161 75
70 163 76
68 160 75
68 160 75
70 164 77
67 158 74
68 161 75
69 161 75
68 160 75
70 164 76
69 162 76
69 164 77
67 158 74
68 160 75
67 159 75
67 159 74
68 160 75
69 163 76
70 163 76
69 162 76
67 159 74
70 164 77
68 159 74
68 160 74
68 160 75
70 163 76
68 160 75
68 161 75
68 161 75
69 163 76
68 160 74
68 161 75
68 161 75
66 156 73
70 163 75
69 163 76
70 163 76
68 160 75
66 157 73
70 163 76
68 160 75
68 159 74
69 162 76
69 163 76
68 159 74
69 161 75
70 164 76
70 163 76
69 162 75
69 162 75
68 161 75
67 158 73
71 165 77
70 164 77
69 162 75
67 158 74
69 162 76
68 162 75
67 158 74
69 162 75
69 163 76
68 161 75
69 160 74
69 161 75
68 160 75
68 162 75
68 161 75
67 159 74
69 162 75
68 161 75
68 160 75
68 161 75
70 164 76
68 161 75
70 164 76
67 161 75
70 164 75
69 162 75
68 161 75
68 160 74
69 161 75
66 156 72
69 159 76
73 161 82
75 162 85
75 159 88
76 156 90
76 158 89
78 158 93
84 157 101
76 154 89
90 156 108
85 154 104
91 157 112
90 156 110
89 154 109
102 158 130
104 158 132
111 154 142
102 150 131
107 153 136
115 150 149
111 150 144
114 149 147
117 152 151
123 151 160
122 151 160
125 151 164
124 151 162
124 151 162
125 149 164
129 151 170
131 149 173
126 147 168
131 151 175
133 152 175
131 148 172
128 147 170
134 152 176
131 149 173
130 147 170
131 150 173
131 151 174
130 148 171
133 152 176
128 146 169
134 150 174
131 150 172
131 147 171
133 150 175
128 147 169
131 151 173
131 151 174
130 150 173
133 152 176
134 151 174
132 149 172
131 149 173
129 147 169
131 149 173
131 147 171
129 148 171
134 149 173
131 149 173
133 150 175
128 146 169
129 147 170
130 149 172
130 150 173
133 149 173
129 148 170
131 149 173
132 149 172
132 150 175
132 151 175
128 146 169
131 149 172
129 149 172
129 147 169
132 150 174
131 150 172
131 150 174
128 149 171
134 152 176
132 151 173
131 150 173
131 151 174
