P3
1600 1
255
133 49 22
133 49 22
124 47 20
130 48 21
122 45 20
132 49 22
136 50 22
127 47 21
130 48 21
128 47 21
130 48 21
132 49 22
130 48 21
133 49 22
137 50 22
134 49 22
133 49 22
133 49 22
129 48 21
133 49 22
131 49 21
133 49 22
133 48 21
131 48 21
133 49 22
133 49 22
134 49 22
130 48 21
122 45 20
131 48 21
129 47 21
133 49 22
128 48 21
134 49 22
134 49 22
129 48 21
133 49 22
130 48 21
135 49 22
129 47 21
131 48 21
133 49 21
131 48 21
132 48 21
130 48 21
136 50 22
131 48 22
127 47 21
128 47 21
136 50 22
127 47 21
130 48 21
132 49 22
124 46 20
135 50 22
136 50 22
133 49 21
135 50 22
135 49 22
132 48 21
128 47 21
128 47 21
134 49 22
130 48 21
136 50 22
129 48 21
125 47 21
127 47 21
132 48 21
134 49 22
133 49 22
130 48 21
132 48 22
133 49 22
128 48 21
129 48 21
133 49 22
130 48 21
130 48 21
134 49 22
127 47 21
130 48 21
128 47 21
124 46 21
133 49 22
127 47 21
130 48 21
131 48 21
131 48 21
130 47 21
122 45 20
128 47 21
126 46 21
129 47 21
129 48 22
125 47 21
125 46 21
129 48 21
124 46 21
127 46 20
124 46 20
129 47 21
124 46 20
128 47 21
126 46 21
124 45 20
122 45 20
125 46 21
115 42 19
125 46 20
129 47 21
127 47 21
122 45 20
120 44 20
127 47 21
123 45 20
120 44 20
127 46 21
127 46 21
122 44 20
121 44 20
126 46 21
119 43 20
122 44 20
122 45 20
119 44 20
120 44 20
113 41 19
123 46 20
121 44 20
124 45 20
118 50 36
123 55 43
126 67 63
120 73 74
123 84 88
128 86 90
126 89 94
124 100 110
124 106 118
129 107 119
127 111 124
128 116 131
133 131 149
129 131 151
132 137 156
127 138 160
131 146 169
134 148 172
134 149 172
131 148 172
135 152 176
131 147 170
132 150 175
133 152 176
132 149 172
131 148 173
133 151 175
132 149 173
128 146 170
133 151 175
133 151 176
133 151 175
134 151 174
131 148 172
132 149 171
131 149 172
132 148 172
130 147 172
134 152 176
134 151 174
132 151 174
130 148 171
131 149 172
131 148 172
135 153 177
132 150 174
134 152 176
132 150 174
133 151 175
132 150 174
133 151 176
132 150 174
133 151 174
129 145 169
129 145 168
131 148 172
130 146 170
129 147 171
133 150 175
132 150 175
132 150 173
134 150 174
135 153 178
133 151 175
131 147 170
133 149 172
132 149 172
134 147 169
134 151 175
133 150 174
132 145 168
134 148 171
133 146 168
131 144 166
137 149 172
136 148 169
138 147 168
137 147 169
141 155 178
145 156 178
139 150 174
138 151 173
139 148 171
141 151 172
138 149 172
138 151 174
139 157 182
143 160 183
139 154 178
143 155 178
145 161 184
139 155 180
144 161 186
138 155 178
138 156 181
140 157 182
138 157 182
141 159 183
136 153 177
137 153 178
137 154 178
135 152 176
136 153 181
136 153 178
139 157 183
135 151 176
135 153 177
137 153 179
138 155 180
134 150 173
131 147 172
139 157 183
140 157 182
137 155 179
133 150 174
133 149 174
137 155 183
133 150 176
133 148 172
132 150 176
138 156 183
136 155 181
135 151 175
131 148 175
135 152 176
133 151 176
137 155 180
133 150 174
129 146 172
135 152 177
134 150 175
135 153 176
134 151 175
134 152 177
136 154 179
132 149 175
138 157 182
133 151 174
135 152 175
133 151 176
137 156 181
135 152 176
133 151 175
134 151 174
137 156 180
134 151 176
135 152 175
137 154 178
135 152 175
134 151 174
137 155 181
132 147 171
138 155 178
134 151 176
135 152 177
140 158 183
140 158 182
135 152 176
143 161 185
138 157 181
138 156 181
141 160 184
137 155 178
140 156 179
143 160 184
136 152 176
143 162 188
144 162 186
137 155 180
134 150 174
144 162 186
136 153 177
137 154 179
143 159 183
140 157 182
138 156 182
138 155 179
138 155 180
137 155 179
137 155 180
133 149 172
136 153 178
137 156 181
136 154 178
133 151 175
136 154 177
135 154 178
135 153 176
132 150 173
133 151 176
130 149 172
131 149 171
133 150 174
134 152 177
134 152 176
132 151 174
135 152 176
135 153 176
134 152 177
132 148 171
137 155 180
133 150 171
129 146 168
132 150 172
132 148 171
134 151 174
132 149 173
133 150 174
136 152 174
131 149 171
130 147 169
134 153 175
131 147 171
135 150 173
132 149 172
132 149 170
136 153 175
134 151 173
135 152 175
138 154 175
136 152 176
135 150 174
133 150 172
134 150 172
135 151 173
131 148 170
133 149 170
133 148 168
131 145 166
132 148 170
133 149 170
136 152 173
135 149 170
137 153 175
135 152 174
132 146 169
136 152 172
129 142 164
130 144 165
130 143 163
131 145 165
133 148 169
124 139 161
134 149 172
130 144 165
131 145 166
132 149 172
133 148 170
132 147 170
128 142 165
130 143 165
131 148 171
126 144 169
123 138 161
127 145 168
126 143 168
133 149 174
126 140 163
126 143 167
129 145 169
132 150 174
132 149 173
134 152 176
132 150 174
132 151 175
134 153 177
133 152 176
135 153 178
131 149 174
134 152 176
133 152 177
133 151 175
132 151 174
129 147 172
132 149 174
133 153 177
131 148 172
133 152 177
134 152 176
129 146 170
130 148 173
131 150 174
132 150 174
133 151 176
133 149 172
132 150 175
130 147 170
130 147 172
131 150 175
133 151 176
130 148 172
133 151 176
135 153 177
132 151 176
134 152 176
135 153 177
127 143 166
129 146 170
131 148 173
134 153 177
131 149 172
132 149 173
128 145 169
131 149 172
132 151 175
129 146 170
133 151 175
133 151 175
130 149 174
133 151 176
132 151 176
131 149 173
135 153 178
134 152 176
132 150 174
133 151 175
131 149 174
129 147 172
132 150 174
135 153 178
130 148 172
124 142 167
134 152 177
131 150 175
133 152 175
131 149 174
131 148 172
132 150 175
132 150 174
128 146 171
131 148 172
133 150 174
134 153 177
134 152 176
133 151 176
130 148 173
130 148 172
130 147 172
128 147 172
129 146 170
133 150 174
129 147 172
129 147 171
133 151 174
130 147 171
132 150 174
132 149 173
133 150 173
131 149 173
131 148 171
132 150 173
129 147 171
131 149 174
130 148 173
131 149 174
130 148 172
132 150 174
133 150 174
128 146 170
131 149 174
129 147 172
130 148 172
130 148 173
133 150 174
128 145 167
133 150 175
132 150 174
130 148 172
129 147 172
131 149 173
131 149 173
128 146 170
133 151 175
128 146 171
129 147 171
127 144 169
130 149 174
132 149 174
131 149 174
126 144 170
128 147 172
129 146 171
134 153 178
135 153 178
132 150 174
132 149 173
131 149 174
129 146 170
130 148 172
132 150 174
130 148 172
130 148 172
131 148 172
130 147 171
127 145 169
130 149 174
132 150 174
131 149 173
128 146 171
129 146 170
128 145 169
127 144 169
129 148 174
127 145 169
131 149 174
132 151 175
127 145 169
132 151 176
134 152 176
131 149 173
130 148 172
133 151 174
130 149 174
132 150 174
131 149 173
132 149 173
128 145 169
133 151 175
131 149 173
132 150 175
128 145 169
129 147 171
129 147 172
132 150 174
131 149 173
132 150 175
130 148 171
129 147 171
132 150 174
132 150 174
131 149 173
131 148 172
133 151 174
133 152 176
128 146 171
130 147 171
132 150 173
128 147 172
131 149 174
129 147 171
130 148 173
132 151 176
131 148 171
129 147 172
133 151 174
128 147 172
130 149 174
131 149 174
132 150 174
130 147 172
129 147 172
132 149 173
133 151 174
129 146 169
131 149 173
128 145 170
128 144 167
132 150 174
132 149 174
131 149 172
133 151 176
132 151 175
135 152 176
132 151 175
136 153 176
131 149 172
131 148 172
132 150 174
134 152 177
132 149 173
133 151 175
134 151 175
130 148 171
132 150 175
130 148 172
131 150 175
131 148 172
132 149 173
133 151 176
131 149 173
129 148 172
129 148 172
134 152 176
130 148 172
128 146 171
130 148 173
131 149 174
133 151 175
128 146 170
132 150 174
133 151 175
132 151 175
132 151 174
131 149 173
131 149 173
133 151 175
130 149 173
130 149 172
129 146 171
133 151 176
134 152 176
131 149 173
133 151 175
129 148 172
133 151 176
130 149 173
129 147 170
132 150 173
135 153 177
133 151 174
132 150 174
130 148 173
132 150 173
133 151 175
131 149 173
132 150 175
133 150 174
130 148 171
133 151 176
135 153 179
132 150 174
133 151 176
135 153 176
129 147 171
136 154 177
132 151 174
128 145 169
134 153 178
134 153 177
132 150 173
131 148 173
132 150 174
130 148 171
134 153 177
131 149 172
131 149 172
131 149 173
133 151 175
133 151 175
133 151 174
133 151 174
133 151 176
133 151 174
130 149 173
132 151 174
131 149 173
134 152 176
132 150 175
132 150 175
134 152 177
129 147 170
135 154 179
133 150 173
129 148 171
132 152 176
135 153 178
132 150 174
133 151 176
134 150 174
132 150 173
134 152 177
134 153 177
129 148 171
133 152 176
131 150 174
136 155 179
132 151 175
133 151 176
134 151 175
131 150 173
132 151 174
133 151 175
133 151 174
133 152 175
132 151 173
136 154 178
134 153 177
135 153 177
135 154 179
132 150 175
134 153 177
136 153 177
135 154 179
133 151 175
134 152 176
136 154 178
131 148 171
135 153 177
134 153 177
133 151 175
135 154 177
134 152 176
133 151 175
130 148 172
133 150 174
135 153 176
130 149 171
135 153 177
133 152 176
132 151 175
132 151 175
132 151 175
131 149 172
133 152 177
133 150 174
133 152 175
132 151 175
135 154 178
135 154 177
133 152 175
132 150 174
133 150 173
135 154 177
133 151 176
133 151 176
134 153 177
135 152 176
133 151 174
133 149 172
131 149 173
135 154 178
132 150 173
132 150 173
132 151 175
132 151 175
134 151 175
135 153 176
135 154 178
135 153 177
134 152 177
134 153 177
136 155 179
133 151 173
133 151 175
133 151 175
134 152 176
133 150 174
131 151 175
131 150 174
135 153 177
135 153 177
132 150 174
134 151 174
135 154 178
132 150 173
132 150 173
132 150 174
135 153 178
132 149 172
131 149 171
131 150 174
132 150 174
131 149 174
134 152 176
134 152 176
132 149 173
133 151 175
133 151 174
133 151 176
131 150 172
131 149 173
134 152 176
133 152 176
133 151 175
134 151 175
132 150 174
132 150 173
133 150 175
132 149 173
134 153 178
134 152 177
134 152 176
132 149 172
131 150 174
133 152 176
133 152 176
133 151 175
132 150 172
136 154 178
135 153 177
134 153 178
135 153 176
134 152 177
134 151 174
130 146 170
133 151 174
133 151 175
131 149 171
135 152 174
134 152 177
133 151 175
132 151 175
133 150 173
132 149 173
134 152 177
130 149 171
133 153 176
133 151 175
133 151 175
134 152 176
135 154 178
133 151 175
135 153 177
131 148 173
133 151 174
131 149 173
132 150 174
132 151 175
132 150 173
134 152 177
131 150 173
132 151 174
133 151 175
135 153 177
133 152 176
130 148 172
134 152 176
133 151 174
132 150 173
133 151 173
134 151 175
133 151 173
134 152 175
131 150 174
133 152 175
135 153 177
131 148 169
132 150 174
135 154 178
130 148 171
136 155 179
131 150 174
133 152 177
131 149 171
132 150 174
132 150 174
132 150 173
131 149 172
133 151 175
131 149 172
132 150 173
132 150 173
133 152 175
132 149 171
129 147 169
129 147 170
132 150 174
135 153 178
133 151 174
132 150 173
128 147 169
131 149 171
130 148 171
131 149 172
133 152 176
131 149 173
133 150 172
132 150 173
132 150 174
129 148 172
131 148 172
132 150 174
132 150 173
132 150 172
133 150 174
131 150 174
131 150 173
133 152 177
129 147 170
134 152 175
130 148 171
133 152 175
134 153 178
130 149 172
131 149 171
132 149 172
132 148 169
133 151 175
133 151 175
130 149 172
128 144 166
130 148 171
133 151 174
128 146 168
131 149 172
131 149 172
131 149 173
131 149 171
133 151 174
133 151 174
131 149 172
129 147 169
130 147 169
132 150 174
132 150 172
132 149 172
130 148 171
132 150 173
131 148 171
129 148 171
131 149 172
128 146 169
132 149 172
130 147 169
130 147 169
132 149 172
131 149 172
130 149 173
132 150 172
129 146 168
126 143 165
128 145 166
132 151 175
132 151 175
129 147 171
131 149 172
131 150 173
126 144 165
127 144 166
131 147 170
126 144 166
128 146 168
131 149 169
133 151 175
130 148 171
132 150 174
131 149 172
129 146 168
130 147 170
130 148 171
132 150 173
130 149 172
129 147 171
133 150 173
131 149 173
132 149 171
134 151 174
125 142 163
132 149 172
126 143 167
133 150 172
130 148 171
128 145 168
129 148 170
133 151 174
126 143 165
132 150 173
128 145 167
133 151 174
129 146 169
133 151 174
131 149 171
130 147 170
127 144 165
129 146 168
126 142 164
134 153 175
128 146 168
126 144 168
129 147 170
124 141 162
128 146 168
125 142 165
125 142 163
130 148 170
130 148 170
126 143 166
131 149 172
127 144 165
132 148 171
130 148 171
126 144 166
123 143 162
120 141 158
121 144 160
120 143 159
118 142 156
111 142 148
105 140 142
105 137 140
97 134 133
88 137 122
96 138 130
80 130 112
74 131 105
79 132 112
72 134 105
75 131 108
55 128 85
45 122 76
40 121 70
28 123 62
20 124 57
6 123 52
6 119 50
6 122 51
6 126 53
6 118 49
6 122 52
7 126 53
6 121 51
7 126 53
6 123 52
6 125 53
6 123 51
6 123 52
6 121 51
7 129 54
6 122 52
6 122 53
7 128 54
7 126 53
6 124 52
6 122 51
6 123 52
7 126 53
6 125 53
6 122 51
7 126 53
7 126 54
7 126 54
6 123 52
7 127 54
6 124 53
6 123 52
6 123 52
7 128 54
6 123 52
6 124 52
6 122 52
6 125 53
7 125 53
6 126 53
7 129 54
6 123 52
7 127 53
6 125 53
6 123 52
7 127 54
6 122 52
7 126 53
7 126 53
6 125 53
6 124 52
6 125 53
7 130 54
7 128 54
7 127 54
7 128 54
7 127 54
7 129 54
6 125 53
6 124 52
7 131 55
7 129 54
7 130 55
7 130 55
7 128 54
6 122 51
7 125 53
7 128 54
6 123 52
7 128 54
7 133 56
7 132 55
7 126 53
7 128 53
6 124 52
7 128 53
7 128 54
6 122 52
6 126 53
7 128 54
7 128 54
7 128 54
6 126 53
7 127 53
6 124 52
7 129 54
7 128 54
7 129 54
6 127 53
6 126 53
6 125 52
6 126 53
7 127 53
7 130 54
7 130 55
7 128 54
6 124 52
7 129 54
7 128 54
7 129 54
6 126 53
7 127 53
7 127 53
7 130 55
6 125 53
7 130 54
7 127 53
6 125 52
7 128 54
6 126 53
6 124 52
7 132 55
7 128 54
7 128 54
6 125 52
7 128 54
7 130 54
7 130 55
6 126 53
7 131 55
7 131 54
6 127 53
6 124 52
6 125 53
7 127 53
6 125 53
7 129 54
7 133 56
7 132 55
6 125 52
7 130 54
7 128 53
6 125 52
7 129 54
7 130 54
6 125 52
6 126 53
6 126 52
6 125 51
6 126 53
7 128 53
6 128 53
7 128 53
6 126 52
6 125 51
7 129 53
6 124 51
7 129 53
6 127 52
6 123 50
7 130 54
6 126 52
6 126 52
6 126 52
6 123 50
13 126 51
23 128 52
28 122 48
32 124 50
40 118 48
40 118 50
44 108 50
53 120 66
36 107 50
55 113 67
56 105 69
54 107 63
51 103 61
65 109 76
67 102 79
63 94 70
72 98 83
68 90 82
59 86 69
61 78 73
62 72 72
77 84 93
66 76 79
69 74 80
59 62 70
62 68 72
59 62 69
73 77 86
67 72 80
56 58 63
59 62 68
66 68 78
69 74 83
57 60 68
63 68 74
68 73 79
61 66 72
78 85 94
62 65 74
76 80 92
74 79 88
72 76 86
67 72 82
69 74 83
75 77 86
72 75 85
72 77 86
80 88 96
69 72 79
74 79 90
70 73 83
81 87 98
80 87 98
77 82 94
61 64 73
80 87 99
65 66 77
65 69 78
84 89 102
80 87 98
71 77 87
83 88 101
87 93 106
81 88 102
72 77 88
84 90 101
83 88 101
80 85 98
75 81 92
81 85 100
90 97 111
90 96 111
90 98 112
88 95 109
88 95 109
92 99 115
89 96 109
91 97 111
93 96 114
95 103 119
90 99 112
96 103 119
92 95 111
93 103 118
97 107 123
93 102 119
89 99 114
88 95 109
102 114 130
92 101 117
98 109 124
99 108 125
95 104 120
98 108 125
96 107 123
99 108 126
100 112 130
103 114 131
100 112 128
106 115 134
107 120 139
110 122 142
105 117 134
109 121 141
108 118 138
100 110 128
103 112 130
115 129 148
104 115 134
110 122 141
106 117 136
98 106 124
102 115 131
108 120 139
110 121 140
108 118 138
118 132 154
120 134 155
108 121 140
115 129 149
115 129 150
111 124 145
111 127 145
112 125 145
115 129 149
116 129 149
114 128 148
117 131 151
115 130 152
114 128 150
114 129 150
119 133 155
117 131 152
115 130 150
117 130 152
121 135 157
120 136 157
121 135 156
119 133 155
126 141 164
120 136 158
116 129 150
118 133 153
118 132 153
115 129 150
113 127 147
123 138 160
120 134 156
116 130 152
121 138 159
123 138 159
126 143 165
121 136 157
126 140 162
123 136 159
116 131 151
122 138 160
119 134 156
123 137 159
124 142 164
122 137 159
117 133 153
123 138 159
120 135 158
119 133 154
127 144 167
127 144 167
121 138 161
118 133 154
124 140 163
126 143 167
126 141 162
121 136 158
125 144 165
124 142 164
123 141 162
120 134 156
123 140 163
122 138 159
120 138 160
126 142 165
125 142 165
121 139 158
126 146 166
122 142 160
118 142 155
114 139 148
119 143 154
116 148 150
113 141 147
110 143 142
115 147 148
112 150 144
108 146 137
104 146 132
96 145 122
94 145 118
98 151 122
94 151 116
93 152 116
87 149 109
80 149 98
82 156 99
79 154 92
75 152 89
74 149 88
76 157 88
69 145 80
67 152 76
68 155 74
65 154 71
65 154 71
64 154 71
67 158 73
65 154 70
66 156 71
64 153 71
67 158 73
65 154 71
69 161 75
67 157 73
66 156 72
67 157 73
68 159 74
69 162 75
67 158 74
63 150 69
68 159 74
69 162 76
67 157 73
68 159 74
70 163 76
66 154 72
67 158 74
67 158 74
70 163 76
69 162 76
69 162 75
68 161 75
67 157 74
67 159 74
68 160 74
69 163 76
69 161 75
68 160 75
68 159 75
67 156 72
68 158 74
67 158 74
67 158 74
70 163 76
69 162 76
69 161 75
70 164 76
68 160 75
68 160 75
69 161 75
69 161 75
68 160 75
68 160 74
70 161 75
68 159 74
70 164 76
69 162 76
69 163 77
67 158 74
68 161 76
67 158 75
67 158 74
68 159 74
68 162 76
70 163 76
69 162 76
68 160 75
70 164 76
68 159 74
68 159 74
68 160 75
69 162 76
67 159 74
68 161 75
68 161 75
69 163 76
67 157 73
68 160 75
69 161 75
64 152 71
69 161 75
69 162 75
69 162 75
68 160 75
67 158 74
69 162 76
67 157 74
67 157 73
68 159 74
69 162 75
68 161 75
69 161 75
69 162 76
69 162 76
69 162 75
68 161 75
68 160 75
68 160 74
71 165 77
69 162 76
67 159 74
68 161 75
68 162 75
69 161 75
67 159 74
69 161 75
69 163 76
68 160 74
68 160 74
69 163 76
68 160 75
68 161 75
67 159 74
69 162 75
67 157 73
67 159 75
69 162 76
68 162 75
69 162 75
69 162 76
69 162 75
70 163 75
68 160 74
69 163 76
69 162 75
67 158 72
68 160 74
68 158 73
67 160 74
70 163 76
68 156 76
71 161 80
73 158 84
72 156 83
74 159 84
76 158 89
80 155 96
81 155 94
85 156 101
87 157 106
86 156 102
90 155 112
101 159 127
96 154 120
96 154 122
99 154 124
102 150 131
105 149 135
110 151 142
110 151 142
112 150 146
115 153 148
116 154 149
120 150 158
123 152 161
118 149 153
124 149 164
128 151 168
124 150 164
129 151 172
129 151 169
131 148 172
131 149 173
133 152 176
133 150 174
131 149 173
132 149 173
130 150 173
130 149 171
133 150 174
130 148 172
131 149 172
132 149 172
129 145 169
133 151 175
129 147 171
130 150 172
129 147 171
132 151 174
134 152 177
134 152 176
133 151 173
129 146 170
130 148 172
131 149 172
131 148 172
129 148 170
133 150 175
131 149 172
133 151 175
130 148 171
126 145 167
132 151 175
130 149 172
132 149 172
128 147 168
133 151 175
130 149 171
132 150 175
134 153 177
128 147 169
132 149 174
130 149 171
127 145 168
134 152 177
127 146 168
130 149 172
132 151 174
133 152 175
132 150 174
130 149 171
132 152 175
129 149 170
132 151 174
